<?xml version="1.0" encoding="UTF-8"?>
<svg width="288px" height="288px" viewBox="0 0 288 288" version="1.1" xmlns="http://www.w3.org/2000/svg" xmlns:xlink="http://www.w3.org/1999/xlink">
    <!-- Generator: Sketch 53.1 (72631) - https://sketchapp.com -->
    <title>almost-done</title>
    <desc>Created with Sketch.</desc>
    <g id="web" stroke="none" stroke-width="1" fill="none" fill-rule="evenodd">
        <g id="D---verified" transform="translate(-490.000000, -150.000000)">
            <g id="content" transform="translate(184.000000, 150.000000)">
                <g id="almost-done" transform="translate(306.000000, 0.000000)">
                    <path d="M207.695183,14.8313369 C213.637028,17.7668313 216.074158,24.9633372 213.138663,30.9051828 C210.203169,36.8470284 203.006663,39.2841575 197.064817,36.3486631 C180.690926,28.2593472 162.671675,24 144,24 C77.727417,24 24,77.727417 24,144 C24,210.272583 77.727417,264 144,264 C198.041828,264 244.994202,227.961757 259.472369,176.736226 C261.274901,170.358646 267.906193,166.649837 274.283774,168.452369 C280.661354,170.254901 284.370163,176.886193 282.567631,183.263774 C265.186538,244.760211 208.851639,288 144,288 C64.472583,288 0,223.527417 0,144 C0,64.472583 64.472583,0 144,0 C166.381085,0 188.035118,5.1185282 207.695183,14.8313369 Z" id="Stroke-1" fill="#231F20" fill-rule="nonzero"></path>
                    <path d="M186,102 C186,125.196 167.196,144 144,144 C120.804,144 102,125.196 102,102 C102,78.804 120.804,60 144,60 C167.196,60 186,78.804 186,102" id="Fill-3" fill="#565B5D"></path>
                    <path d="M224.4903,216 C204.7203,238.08 175.9803,252 144.0003,252 C112.0203,252 83.2803,238.08 63.5103,216 C73.8003,181.32 105.9603,156 144.0003,156 C182.0403,156 214.2003,181.32 224.4903,216" id="Fill-5" fill="#565B5D"></path>
                    <path d="M276,144 L216,144 C209.373,144 204,138.627 204,132 L204,72 C204,65.373 209.373,60 216,60 L276,60 C282.627,60 288,65.373 288,72 L288,132 C288,138.627 282.627,144 276,144 Z M234,120 L246,120 C249.313708,120 252,117.313708 252,114 C252,110.686292 249.313708,108 246,108 L234,108 C230.686292,108 228,110.686292 228,114 C228,117.313708 230.686292,120 234,120 Z M234,96 L258,96 C261.313708,96 264,93.3137085 264,90 C264,86.6862915 261.313708,84 258,84 L234,84 C230.686292,84 228,86.6862915 228,90 C228,93.3137085 230.686292,96 234,96 Z" id="Combined-Shape" fill="#231F20"></path>
                </g>
            </g>
        </g>
    </g>
</svg>