<!--
  ~ Copyright (c) 2017 Oracle. All rights reserved.
  ~
  ~ This material is the confidential property of Oracle Corporation or its
  ~ licensors and may be used, reproduced, stored or transmitted only in
  ~ accordance with a valid Oracle license or sublicense agreement.
  -->

<svg xmlns="http://www.w3.org/2000/svg" width="64" height="64" viewBox="0 0 64 64">
    <path fill="#FFF" fill-rule="evenodd" d="M19 26v7c0 7.168 5.832 13 13 13s13-5.832 13-13v-7H19zm26-4v-9c0-7.168-5.832-13-13-13S19 5.832 19 13v9h26zm8 8v3c0 10.904-8.356 19.888-19 20.898V60h8a2 2 0 0 1 0 4H22a2 2 0 0 1 0-4h8v-6.102C19.356 52.888 11 43.904 11 33v-3a2 2 0 0 1 4 0v3c0 9.374 7.626 17 17 17 9.374 0 17-7.626 17-17v-3a2 2 0 0 1 4 0z"/>
</svg>
