<?xml version="1.0" encoding="UTF-8"?>
<svg width="252px" height="288px" viewBox="0 0 252 288" version="1.1" xmlns="http://www.w3.org/2000/svg" xmlns:xlink="http://www.w3.org/1999/xlink">
    <!-- Generator: Sketch 53.1 (72631) - https://sketchapp.com -->
    <title>verification-complete</title>
    <desc>Created with Sketch.</desc>
    <g id="web" stroke="none" stroke-width="1" fill="none" fill-rule="evenodd">
        <g id="D---verified" transform="translate(-514.000000, -150.000000)" fill="#59A34B">
            <g id="content" transform="translate(266.000000, 150.000000)">
                <g id="verification-complete" transform="translate(248.000000, 0.000000)">
                    <path d="M177.606,109.89 L117.72,191.7 C112.716,198.558 103.086,200.034 96.228,195.012 C94.482,193.734 93.042,192.078 92.016,190.314 L73.71,158.688 C70.218,152.676 72.27,144.972 78.282,141.498 C83.448,138.51 89.856,139.608 93.762,143.784 L104.85,155.61 L158.076,94.302 C162.612,89.082 170.496,88.524 175.716,93.042 C180.648,97.344 181.386,104.688 177.606,109.89 M243,36 C181.08,36 161.622,22.554 139.086,7.02 L131.004,1.512 C127.98,-0.504 124.038,-0.504 121.014,1.512 L112.914,7.02 C90.396,22.554 70.92,36 9,36 C4.032,36 0,40.014 0,45 C0,178.056 40.212,257.364 122.922,287.442 C123.93,287.82 124.974,288 126,288 C127.044,288 128.088,287.82 129.078,287.442 C211.788,257.364 252,178.056 252,45 C252,40.014 247.986,36 243,36" id="Fill-1"></path>
                </g>
            </g>
        </g>
    </g>
</svg>