<?xml version="1.0" encoding="UTF-8"?>
<svg width="289px" height="240px" viewBox="0 0 289 240" version="1.1" xmlns="http://www.w3.org/2000/svg" xmlns:xlink="http://www.w3.org/1999/xlink">
    <!-- Generator: Sketch 53.1 (72631) - https://sketchapp.com -->
    <title>verifying</title>
    <desc>Created with Sketch.</desc>
    <g id="web" stroke="none" stroke-width="1" fill="none" fill-rule="evenodd">
        <g id="D---verifying" transform="translate(-495.000000, -173.000000)">
            <g id="content" transform="translate(432.000000, 173.000000)">
                <g id="verifying" transform="translate(63.000000, 0.000000)">
                    <path d="M177.7491,138.0006 C146.3211,138.0006 120.7491,112.4286 120.7491,81.0006 C120.7491,49.5696 146.3211,24.0006 177.7491,24.0006 C209.1801,24.0006 234.7491,49.5696 234.7491,81.0006 C234.7491,112.4286 209.1801,138.0006 177.7491,138.0006 M285.2331,171.5136 L242.8491,129.1326 C252.8361,115.6626 258.7491,99.0126 258.7491,81.0006 C258.7491,36.3366 222.4131,0.0006 177.7491,0.0006 C133.0881,0.0006 96.7491,36.3366 96.7491,81.0006 C96.7491,125.6646 133.0881,162.0006 177.7491,162.0006 C195.7611,162.0006 212.4141,156.0846 225.8811,146.1006 L268.2651,188.4846 C270.6051,190.8276 273.6801,192.0006 276.7491,192.0006 C279.8211,192.0006 282.8931,190.8276 285.2331,188.4846 C289.9221,183.7986 289.9221,176.2026 285.2331,171.5136" id="Fill-1" fill="#231F20"></path>
                    <path d="M207.6591,114.6006 C199.7121,121.6806 189.2391,126.0006 177.7491,126.0006 C166.2591,126.0006 155.7891,121.6806 147.8421,114.6006 C149.0721,99.1506 161.9991,87.0006 177.7491,87.0006 C193.4991,87.0006 206.4291,99.1506 207.6591,114.6006 Z M159.7491,63.0006 C159.7491,53.0586 167.8101,45.0006 177.7491,45.0006 C187.6911,45.0006 195.7491,53.0586 195.7491,63.0006 C195.7491,72.9396 187.6911,81.0006 177.7491,81.0006 C167.8101,81.0006 159.7491,72.9396 159.7491,63.0006 Z" id="Combined-Shape" fill="#565B5D"></path>
                    <path d="M185.9241,175.1406 C192.8481,174.5316 198.7491,180.1506 198.7491,187.1046 L198.7491,228.0006 C198.7491,234.6276 193.3761,240.0006 186.7491,240.0006 L12.7491,240.0006 C6.1221,240.0006 0.7491,234.6276 0.7491,228.0006 L0.7491,96.0006 C0.7491,89.3736 6.1221,84.0006 12.7491,84.0006 L72.3561,84.0006 C78.3291,84.0006 83.3751,88.3986 84.2151,94.3116 C90.7041,140.1366 130.1631,175.5006 177.7491,175.5006 C180.5031,175.5006 183.2271,175.3776 185.9241,175.1406 Z M156.7491,204.0006 C160.0641,204.0006 162.7491,201.3126 162.7491,198.0006 C162.7491,194.6856 160.0641,192.0006 156.7491,192.0006 L30.7491,192.0006 C27.4371,192.0006 24.7491,194.6856 24.7491,198.0006 C24.7491,201.3126 27.4371,204.0006 30.7491,204.0006 L156.7491,204.0006 Z M30.7491,156.0006 C27.4371,156.0006 24.7491,158.6856 24.7491,162.0006 C24.7491,165.3126 27.4371,168.0006 30.7491,168.0006 L81.7491,168.0006 C85.0641,168.0006 87.7491,165.3126 87.7491,162.0006 C87.7491,158.6856 85.0641,156.0006 81.7491,156.0006 L30.7491,156.0006 Z M30.7491,120.0006 C27.4371,120.0006 24.7491,122.6856 24.7491,126.0006 C24.7491,129.3126 27.4371,132.0006 30.7491,132.0006 L57.7491,132.0006 C61.0641,132.0006 63.7491,129.3126 63.7491,126.0006 C63.7491,122.6856 61.0641,120.0006 57.7491,120.0006 L30.7491,120.0006 Z" id="Combined-Shape" fill="#565B5D"></path>
                </g>
            </g>
        </g>
    </g>
</svg>