<?xml version="1.0" encoding="UTF-8"?>
<svg width="253px" height="288px" viewBox="0 0 253 288" version="1.1" xmlns="http://www.w3.org/2000/svg" xmlns:xlink="http://www.w3.org/1999/xlink">
    <!-- Generator: Sketch 53.1 (72631) - https://sketchapp.com -->
    <title>verification-failed</title>
    <desc>Created with Sketch.</desc>
    <g id="web" stroke="none" stroke-width="1" fill="none" fill-rule="evenodd">
        <g id="D---verification-failed" transform="translate(-514.000000, -150.000000)" fill="#F43535">
            <g id="content" transform="translate(266.000000, 150.000000)">
                <g id="verification-failed" transform="translate(248.000000, 0.000000)">
                    <path d="M178.262356,183.307093 C181.250496,187.483288 180.278451,193.297561 176.120256,196.2677 C172.8081,198.643811 168.451896,198.499805 165.319749,196.2677 C151.171086,186.151226 138.408488,174.666688 125.987906,162.822132 C113.549323,174.648687 100.786724,186.115224 86.6920637,196.2677 C82.5338688,199.25584 76.7195962,198.319796 73.7314562,194.161601 C71.3553448,190.831445 71.4813507,186.45724 73.7314562,183.307093 C83.8839321,169.212432 95.3684704,156.449834 107.177024,144.011251 C95.3504696,131.590668 83.8659312,118.810069 73.7314562,104.697408 C70.7433161,100.503211 71.7153617,94.7249402 75.8735566,91.7368002 C79.1857118,89.3606888 83.541916,89.4866947 86.6920637,91.7368002 C100.822726,101.871275 113.585324,113.337813 126.005907,125.182368 C130.596122,120.772161 135.078332,116.27195 139.902558,112.113755 C148.074941,105.003422 156.319327,98.0010938 165.319749,91.7368002 C169.531947,88.8026626 175.328219,89.8467116 178.262356,94.0409082 C180.548463,97.3350626 180.422457,101.583262 178.262356,104.697408 C171.998062,113.679829 164.977733,121.942216 157.885401,130.096598 C153.727206,134.920824 149.226995,139.403035 144.834789,143.975249 C156.661344,156.413832 168.145882,169.17643 178.262356,183.307093 M243.011391,35.9881869 C181.088489,35.9881869 161.611576,22.5595575 139.09252,7.02482929 L130.99214,1.49857025 C127.967998,-0.499523415 124.025814,-0.499523415 121.001672,1.49857025 L112.919293,7.02482929 C90.3822367,22.5595575 70.9233245,35.9881869 9.00042189,35.9881869 C4.01418817,35.9881869 3.26849658e-13,40.020376 3.26849658e-13,44.9886088 C3.26849658e-13,178.068847 40.213885,257.380565 122.927762,287.459975 C123.917809,287.837992 124.961858,288 126.005907,288 C127.031955,288 128.076004,287.837992 129.084051,287.459975 C211.797928,257.380565 252.011813,178.068847 252.011813,44.9886088 C252.011813,40.020376 247.979624,35.9881869 243.011391,35.9881869" id="Fill-1"></path>
                </g>
            </g>
        </g>
    </g>
</svg>