<?xml version="1.0" encoding="utf-8"?>
<!-- Generator: Adobe Illustrator 16.0.0, SVG Export Plug-In . SVG Version: 6.00 Build 0)  -->
<!DOCTYPE svg PUBLIC "-//W3C//DTD SVG 1.1//EN" "http://www.w3.org/Graphics/SVG/1.1/DTD/svg11.dtd">
<svg version="1.1" id="Layer_1" xmlns="http://www.w3.org/2000/svg" xmlns:xlink="http://www.w3.org/1999/xlink" x="0px" y="0px"
	 width="120.25px" height="120.25px" viewBox="0 0 120.25 120.25" enable-background="new 0 0 120.25 120.25" xml:space="preserve">
<path fill="#E1F3FD" d="M61.084,3.334C29.47,3.334,3.75,29.054,3.75,60.668c0,31.613,25.72,57.333,57.334,57.333
	c31.613,0,57.333-25.72,57.333-57.333C118.417,29.054,92.697,3.334,61.084,3.334L61.084,3.334z"/>
<path fill="#0D3178" d="M25.203,84.449h-5.467l-0.961,4.145h-5.286l5.947-19.521h6.247l5.946,19.521h-5.466L25.203,84.449z
	 M24.271,80.456l-0.33-1.353c-0.24-0.94-0.48-1.961-0.721-3.063c-0.24-1.103-0.48-2.144-0.721-3.125h-0.12
	c-0.221,1.002-0.446,2.049-0.676,3.142c-0.23,1.09-0.466,2.105-0.706,3.047l-0.33,1.353H24.271z M31.99,69.073h5.767
	c1.481,0,2.838,0.179,4.069,0.54s2.288,0.932,3.169,1.712c0.881,0.782,1.566,1.782,2.058,3.004c0.49,1.222,0.735,2.692,0.735,4.415
	c0,1.722-0.24,3.204-0.721,4.443c-0.48,1.242-1.156,2.265-2.027,3.063c-0.871,0.801-1.902,1.393-3.094,1.771
	c-1.191,0.379-2.487,0.569-3.889,0.569H31.99V69.073L31.99,69.073z M37.457,84.449c0.7,0,1.361-0.084,1.981-0.256
	c0.621-0.168,1.156-0.465,1.607-0.885c0.45-0.42,0.806-1.002,1.066-1.742c0.26-0.741,0.39-1.683,0.39-2.823
	c0-1.142-0.13-2.072-0.39-2.794c-0.261-0.721-0.616-1.28-1.066-1.682c-0.451-0.4-0.986-0.677-1.607-0.826
	c-0.62-0.15-1.281-0.227-1.981-0.227h-0.301v11.232L37.457,84.449L37.457,84.449z M49.77,69.073h5.767
	c1.481,0,2.838,0.179,4.069,0.54s2.289,0.932,3.169,1.712c0.881,0.782,1.564,1.782,2.058,3.004c0.489,1.222,0.735,2.692,0.735,4.415
	c0,1.722-0.24,3.204-0.721,4.443c-0.48,1.242-1.156,2.265-2.027,3.063c-0.871,0.801-1.902,1.393-3.094,1.771
	c-1.191,0.379-2.487,0.569-3.889,0.569H49.77V69.073L49.77,69.073z M55.236,84.449c0.7,0,1.361-0.084,1.981-0.256
	c0.621-0.168,1.156-0.465,1.607-0.885c0.45-0.42,0.806-1.002,1.066-1.742c0.26-0.741,0.39-1.683,0.39-2.823
	c0-1.142-0.13-2.072-0.39-2.794c-0.261-0.721-0.616-1.28-1.066-1.682c-0.451-0.4-0.986-0.677-1.607-0.826
	c-0.62-0.15-1.281-0.227-1.981-0.227h-0.301v11.232L55.236,84.449L55.236,84.449z M79.083,88.954c-1.362,0-2.599-0.229-3.709-0.69
	s-2.063-1.127-2.854-1.996c-0.791-0.871-1.406-1.941-1.847-3.215c-0.44-1.271-0.661-2.707-0.661-4.31s0.221-3.028,0.661-4.28
	c0.44-1.251,1.056-2.302,1.847-3.152c0.791-0.852,1.742-1.498,2.854-1.938s2.347-0.66,3.709-0.66c1.341,0,2.571,0.221,3.694,0.66
	c1.121,0.439,2.076,1.092,2.867,1.952s1.405,1.911,1.848,3.151c0.439,1.242,0.66,2.664,0.66,4.268s-0.221,3.038-0.66,4.311
	c-0.439,1.271-1.057,2.344-1.848,3.215c-0.791,0.869-1.746,1.535-2.867,1.996C81.654,88.725,80.424,88.954,79.083,88.954z
	 M79.083,84.509c1.183,0,2.106-0.515,2.778-1.546c0.67-1.031,1.006-2.438,1.006-4.22s-0.336-3.158-1.006-4.13
	c-0.672-0.971-1.598-1.457-2.778-1.457s-2.106,0.486-2.778,1.457c-0.671,0.972-1.006,2.348-1.006,4.13s0.335,3.188,1.006,4.22
	C76.977,83.995,77.9,84.509,79.083,84.509z M90.135,69.073h5.286l4.325,8.708l1.861,4.385h0.121
	c-0.063-0.52-0.131-1.091-0.211-1.711c-0.08-0.622-0.15-1.257-0.211-1.907c-0.062-0.649-0.115-1.302-0.164-1.952
	c-0.053-0.65-0.076-1.277-0.076-1.879v-5.645h4.927v19.521h-5.286l-4.325-8.739l-1.862-4.354H94.4
	c0.119,1.123,0.261,2.343,0.42,3.665c0.16,1.32,0.24,2.583,0.24,3.784v5.646h-4.927L90.135,69.073L90.135,69.073z"/>
<path fill="#0D3178" d="M55.483,45.756h-16.18V34.598h16.18V17.86h11.531v16.737h16.178v11.159H67.014v16.737h-11.53L55.483,45.756z
	"/>
</svg>
