<?xml version="1.0" encoding="utf-8"?>
<!-- Generator: Adobe Illustrator 16.0.0, SVG Export Plug-In . SVG Version: 6.00 Build 0)  -->
<!DOCTYPE svg PUBLIC "-//W3C//DTD SVG 1.1//EN" "http://www.w3.org/Graphics/SVG/1.1/DTD/svg11.dtd">
<svg version="1.1" id="Layer_1" xmlns="http://www.w3.org/2000/svg" xmlns:xlink="http://www.w3.org/1999/xlink" x="0px" y="0px"
	 width="216px" height="216px" viewBox="0 0 216 216" enable-background="new 0 0 216 216" xml:space="preserve">
<path fill="#D1D1D0" d="M200.73,167.586H13.407c-4.096,0-7.076-2.979-7.076-6.703c0-3.724,3.352-7.076,7.076-7.076h187.696
	c3.726,0,7.076,3.353,7.076,7.076C207.807,164.607,204.828,167.586,200.73,167.586L200.73,167.586z"/>
<path fill="#FFFFFF" stroke="#3B3E43" stroke-width="3" stroke-linecap="round" stroke-linejoin="round" stroke-miterlimit="10" d="
	M64.8,71.503H169.82V129.6H64.8V71.503z M41.71,99.807H146.73v58.097H41.71V99.807z M42.828,121.035h102.414 M64.8,88.262h103.159"
	/>
<circle fill="#FFFFFF" stroke="#3B3E43" stroke-width="3" stroke-linecap="round" stroke-linejoin="round" stroke-miterlimit="10" cx="163.49" cy="127.738" r="31.283"/>
<path fill="none" stroke="#89C33D" stroke-width="3" stroke-linecap="round" stroke-linejoin="round" stroke-miterlimit="10" d="
	M150.083,153.807"/>
<path fill="none" stroke="#89C33D" stroke-width="3" stroke-linecap="round" stroke-linejoin="round" stroke-miterlimit="10" d="
	M177.643,102.042"/>
<circle fill="#00984A" cx="50.648" cy="146.731" r="3.724"/>
<circle fill="#00984A" cx="61.448" cy="146.731" r="3.724"/>
<circle fill="#00984A" cx="72.248" cy="146.731" r="3.724"/>
<g>
	<path fill="#0E3179" d="M158.191,138.691l-4.287-4.286l5.964-5.964l-6.274-6.275l4.364-4.364l6.276,6.274l5.769-5.77l4.287,4.287
		l-5.769,5.77l6.313,6.313l-4.366,4.366l-6.314-6.314L158.191,138.691z"/>
</g>
</svg>
