<?xml version="1.0" encoding="utf-8"?>
<!-- Generator: Adobe Illustrator 16.0.0, SVG Export Plug-In . SVG Version: 6.00 Build 0)  -->
<!DOCTYPE svg PUBLIC "-//W3C//DTD SVG 1.1//EN" "http://www.w3.org/Graphics/SVG/1.1/DTD/svg11.dtd">
<svg version="1.1" id="Layer_1" xmlns="http://www.w3.org/2000/svg" xmlns:xlink="http://www.w3.org/1999/xlink" x="0px" y="0px"
	 width="395.667px" height="179.167px" viewBox="0 0 395.667 179.167" enable-background="new 0 0 395.667 179.167"
	 xml:space="preserve">
<linearGradient id="SVGID_1_" gradientUnits="userSpaceOnUse" x1="320.8247" y1="-174.8931" x2="1128.7826" y2="-982.8511" gradientTransform="matrix(1 0 0 -1 -198 -107.833)">
	<stop  offset="0" style="stop-color:#000000;stop-opacity:0.3"/>
	<stop  offset="0.055" style="stop-color:#323232;stop-opacity:0.261"/>
	<stop  offset="0.129" style="stop-color:#6F6F6F;stop-opacity:0.208"/>
	<stop  offset="0.2" style="stop-color:#A2A2A2;stop-opacity:0.157"/>
	<stop  offset="0.267" style="stop-color:#CACACA;stop-opacity:0.11"/>
	<stop  offset="0.327" style="stop-color:#E7E7E7;stop-opacity:0.067"/>
	<stop  offset="0.38" style="stop-color:#F8F8F8;stop-opacity:0.029"/>
	<stop  offset="0.419" style="stop-color:#FEFEFE;stop-opacity:0.001"/>
	<stop  offset="0.995" style="stop-color:#FFFFFF;stop-opacity:0"/>
</linearGradient>
<path fill="url(#SVGID_1_)" d="M235.604,21.745l-32.787,29.843l-5.484-5.276l-1.117,0.91l-26.784-26.768l0.044,0.09l15.373,35.839
	l-40.443,32.568l42.979,42.839l-110.63,47.377h316.356L235.604,21.745L235.604,21.745z"/>
<path fill="#81C99C" d="M210.076,115.193l-25.228-58.808l-15.373-35.838l-0.044-0.089c-1.421-3.176-5.13-4.641-8.341-3.263
	L4.789,84.245c-3.241,1.39-4.739,5.06-3.351,8.301l37.193,86.619h38.124l110.629-47.375l19.341-8.254
	C209.966,122.146,211.466,118.433,210.076,115.193L210.076,115.193z"/>
<path fill="#00984A" d="M142.282,122.005l43.292-18.569l4.57,10.653l-43.292,18.57L142.282,122.005z M52.556,173.117l-10.792-25.158
	l29.391-12.607l10.792,25.158L52.556,173.117z M7.129,106.384L175.73,34.197l8.741,20.417L15.87,126.8L7.129,106.384z"/>
<path fill="#81C99C" d="M236.9,27.423c-9.689-14.897-26.473-24.756-45.567-24.756c-30.008,0-54.334,24.327-54.334,54.333
	c0,29.061,22.816,52.792,51.513,54.261c0.935,0.048,1.875,0.072,2.821,0.072c23.877,0,44.142-15.41,51.432-36.818
	c0.984-2.892,1.74-5.891,2.229-8.979c0.439-2.78,0.674-5.63,0.674-8.536C245.666,46.088,242.438,35.937,236.9,27.423z"/>
<path fill="#00984A" d="M191.333,113.833c-0.979,0-1.971-0.025-2.949-0.074c-30.216-1.547-53.885-26.478-53.885-56.759
	c0-31.337,25.496-56.833,56.834-56.833c19.299,0,37.118,9.68,47.663,25.893c6,9.223,9.17,19.923,9.17,30.94
	c0,2.968-0.236,5.972-0.703,8.927c-0.496,3.146-1.28,6.306-2.33,9.394C237.289,98.356,215.667,113.833,191.333,113.833z
	 M191.333,5.167c-28.582,0-51.834,23.253-51.834,51.833c0,27.617,21.585,50.354,49.141,51.764c0.895,0.046,1.8,0.069,2.693,0.069
	c22.193,0,41.913-14.115,49.064-35.125c0.959-2.816,1.674-5.696,2.127-8.562c0.427-2.697,0.642-5.438,0.642-8.146
	c0-10.047-2.892-19.804-8.36-28.214C225.185,13.996,208.934,5.167,191.333,5.167L191.333,5.167z"/>
<linearGradient id="SVGID_2_" gradientUnits="userSpaceOnUse" x1="376.3325" y1="-152.1655" x2="433.2375" y2="-209.0695" gradientTransform="matrix(1 0 0 -1 -198 -107.833)">
	<stop  offset="0" style="stop-color:#000000;stop-opacity:0.4"/>
	<stop  offset="0.995" style="stop-color:#FFFFFF;stop-opacity:0"/>
</linearGradient>
<path fill="url(#SVGID_2_)" d="M242.765,74.515c0.32-0.945,0.609-1.904,0.88-2.871l-46.312-46.312l-3,3.5l-0.25,11.5L188.69,55
	l-15.857,2l-13.5,6.332l46.133,46.134C222.962,104.759,236.968,91.539,242.765,74.515z"/>
<path fill="#FFFFFF" d="M223,50.167h-26v-25h-13v25h-25v13h25v26h13v-26h26V50.167z"/>
</svg>
