<?xml version="1.0" encoding="utf-8"?>
<!-- Generator: Adobe Illustrator 16.0.0, SVG Export Plug-In . SVG Version: 6.00 Build 0)  -->
<!DOCTYPE svg PUBLIC "-//W3C//DTD SVG 1.1//EN" "http://www.w3.org/Graphics/SVG/1.1/DTD/svg11.dtd">
<svg version="1.1" id="Layer_1" xmlns="http://www.w3.org/2000/svg" xmlns:xlink="http://www.w3.org/1999/xlink" x="0px" y="0px"
	 width="120.25px" height="120.25px" viewBox="0 0 120.25 120.25" enable-background="new 0 0 120.25 120.25" xml:space="preserve">
<path fill="#F7F7F7" d="M58.834,2.083C27.22,2.083,1.5,27.804,1.5,59.418c0,31.613,25.72,57.333,57.334,57.333
	c31.613,0,57.333-25.72,57.333-57.333C116.167,27.804,90.447,2.083,58.834,2.083z M94.25,100.387
	c12-9.961,18.792-24.615,18.792-40.969c0-1.407-0.133-2.797-0.237-4.177L94.25,36.75V100.387z"/>
<path fill="#ABE0F9" d="M94.25,100.387c12-9.961,18.792-24.615,18.792-40.969c0-1.407-0.133-2.797-0.237-4.177L94.25,36.75V100.387z
	"/>
<path fill="#0D3178" d="M22.25,37v62.811c3,2.736,7,5.131,10,7.133V49h3v59.493c7,3.368,15.105,5.258,23.459,5.258
	c5.221,0,10.2-0.751,14.979-2.126c7.721-2.221,14.563-6.102,20.563-11.238V37H22.25z M41.25,53h38v3h-38V53z M41.25,63h24v3h-24V63z
	 M41.25,73h31v3h-31V73z M65.25,96h-24v-3h24V96z M79.25,86h-38v-3h38.236H79.25V86z"/>
<path fill="#00ADEF" d="M41.25,53h38v3h-38V53z M32.25,49v57.943c1,0.545,2,1.063,3,1.55V49H32.25z M41.25,63h24v3h-24V63z
	 M41.25,73h31v3h-31V73z M41.25,83v3h37.257l0.979-3H41.25z M79.25,83h0.236l-0.979,3h0.743V83z M41.25,93h24v3h-24V93z"/>
</svg>
