<?xml version="1.0" encoding="utf-8"?>
<!-- Generator: Adobe Illustrator 16.0.0, SVG Export Plug-In . SVG Version: 6.00 Build 0)  -->
<!DOCTYPE svg PUBLIC "-//W3C//DTD SVG 1.1//EN" "http://www.w3.org/Graphics/SVG/1.1/DTD/svg11.dtd">
<svg version="1.1" id="Layer_1" xmlns="http://www.w3.org/2000/svg" xmlns:xlink="http://www.w3.org/1999/xlink" x="0px" y="0px"
	 width="120.25px" height="120.25px" viewBox="0 0 120.25 120.25" enable-background="new 0 0 120.25 120.25" xml:space="preserve">
<path fill="#F7F7F7" d="M60.334,2.751C28.72,2.751,3,28.471,3,60.085c0,31.613,25.72,57.333,57.334,57.333
	c31.613,0,57.333-25.72,57.333-57.333C117.667,28.471,91.947,2.751,60.334,2.751z"/>
<path fill="#FFFFFF" d="M25,82h13v17H25V82z M41,102v8.592c5,1.997,10.447,3.271,16.098,3.674c0.3,0.021-0.098,0.034,0.902,0.051
	V102H41z M25,62h13v17H25V62z M61,102v12.393c6-0.106,11-1.172,17-3.047V102H61z M26.967,102c3.371,3,7.033,5.448,11.033,7.302V102
	H26.967z M25,44h13v15H25V44z M41,44h17v15H41V44z M61,82h17v17H61V82z M41,62h17v17H41V62z M81,110.184
	c4-1.979,9.098-4.184,13.027-8.184H81V110.184z M41,82h17v17H41V82z M61,62h17v17H61V62z M81,82h15v17H81V82z"/>
<path fill="none" d="M61,82h17v17H61V82z M41,62h17v17H41V62z M41,82h17v17H41V82z"/>
<path fill="#ABE0F9" d="M78,79H61V44h-3v15H41V44h-3v15H25v3h13v17H25v3h13v17H25v1.766c0,0.566,1.3,1.234,1.967,1.234H38v7.302
	c1,0.462,2,0.89,3,1.29V102h17v12.316c1,0.048,1.686,0.084,2.537,0.091L61,114.391V102h17v9.346c1-0.355,2-0.748,3-1.162V102h13.027
	c0.67,0,0.973-0.675,1.973-1.245V99H81V82h15v-3H78z M58,99H41V82h17V99z M58,79H41V62h17V79z M78,99H61V82h17V99z"/>
<path fill="#FFFFFF" d="M61,44.167v0.25h0.25L61,44.167z M96,79.209v0.208h0.208L96,79.209z M61,44v35h35v0.209L61,44z"/>
<linearGradient id="SVGID_1_" gradientUnits="userSpaceOnUse" x1="372.1738" y1="674.1348" x2="461.5408" y2="763.5028" gradientTransform="matrix(1 0 0 1 -345.5996 -653.5898)">
	<stop  offset="0.606" style="stop-color:#000000;stop-opacity:0.8"/>
	<stop  offset="0.995" style="stop-color:#FFFFFF;stop-opacity:0"/>
</linearGradient>
<path fill="url(#SVGID_1_)" d="M96,79.189v21.565c2-1.653,3.607-3.444,5.232-5.338c1.703-1.985,3.254-4.103,4.662-6.321L96,79.189
	L96,79.189z"/>
<linearGradient id="SVGID_2_" gradientUnits="userSpaceOnUse" x1="429.3877" y1="708.2178" x2="462.3912" y2="741.2223" gradientTransform="matrix(1 0 0 1 -345.5996 -653.5898)">
	<stop  offset="0" style="stop-color:#000000;stop-opacity:0.3"/>
	<stop  offset="0.995" style="stop-color:#FFFFFF;stop-opacity:0"/>
</linearGradient>
<path fill="url(#SVGID_2_)" d="M114.641,59.042L97.76,42.161l-9.787,16.115l1.019,1.017l-18.423,8.555L99.96,97.238
	c9.114-9.719,14.707-22.779,14.707-37.153L114.641,59.042L114.641,59.042z"/>
<path fill="#0D3178" d="M84.042,36.167c-6.354,0-11.965,3.17-15.347,8.014c-2.117,3.031-3.362,6.718-3.362,10.695
	c0,10.332,8.376,18.708,18.709,18.708c3.978,0,7.663-1.245,10.694-3.361c4.844-3.383,8.014-8.992,8.014-15.347
	C102.75,44.544,94.373,36.167,84.042,36.167z"/>
<path fill="#FFFFFF" d="M87.395,51.185c-0.473-0.419-0.922-0.733-1.351-0.943s-0.888-0.314-1.376-0.314
	c-0.561,0-0.979,0.096-1.259,0.288c-0.28,0.192-0.419,0.551-0.419,1.074c0,0.332,0.166,0.621,0.496,0.865
	c0.334,0.245,0.752,0.489,1.26,0.734l1.625,0.787c0.577,0.279,1.117,0.62,1.625,1.022c0.508,0.402,0.927,0.882,1.26,1.441
	c0.332,0.56,0.497,1.232,0.497,2.018c0,1.277-0.336,2.378-1.009,3.305c-0.674,0.927-1.699,1.556-3.081,1.888v2.777h-2.935v-2.621
	c-0.754-0.088-1.554-0.292-2.399-0.615c-0.849-0.324-1.604-0.781-2.269-1.377L80,58.473c0.718,0.524,1.359,0.9,1.928,1.127
	c0.567,0.228,1.131,0.342,1.69,0.342c0.664,0,1.136-0.119,1.416-0.354c0.278-0.236,0.42-0.607,0.42-1.114
	c0-0.35-0.167-0.66-0.499-0.931c-0.333-0.271-0.752-0.537-1.258-0.799c-0.508-0.264-1.049-0.539-1.627-0.826
	c-0.576-0.289-1.117-0.633-1.625-1.036c-0.508-0.401-0.926-0.874-1.258-1.415s-0.498-1.197-0.498-1.966
	c0-1.329,0.354-2.43,1.063-3.303c0.708-0.875,1.699-1.451,2.977-1.731V43.74h2.936v2.674c0.84,0.141,1.578,0.402,2.216,0.787
	c0.64,0.385,1.22,0.856,1.744,1.416L87.395,51.185z"/>
</svg>
