<?xml version="1.0" encoding="utf-8"?>
<!-- Generator: Adobe Illustrator 16.0.0, SVG Export Plug-In . SVG Version: 6.00 Build 0)  -->
<!DOCTYPE svg PUBLIC "-//W3C//DTD SVG 1.1//EN" "http://www.w3.org/Graphics/SVG/1.1/DTD/svg11.dtd">
<svg version="1.1" id="Layer_1" xmlns="http://www.w3.org/2000/svg" xmlns:xlink="http://www.w3.org/1999/xlink" x="0px" y="0px"
	 width="177.75px" height="130.75px" viewBox="0 0 177.75 130.75" enable-background="new 0 0 177.75 130.75" xml:space="preserve">
<path fill="#0D3178" d="M130.398,4H69.75v7.283c10,3.012,19.749,8.874,27.061,16.717h29.939v11h-21.822
	c2.5,4.353,4.469,9.047,5.813,14h43.01v11h-41.114c0.118,1.542,0.198,3.096,0.198,4.668c0,3.176-0.254,6.291-0.731,9.332h41.647v11
	h-44.476c-1.817,5.018-4.299,9.713-7.321,14h51.797v11H91.939c-6.438,5.514-14.189,9.672-22.189,12.053V128h104V43.75L130.398,4
	L130.398,4z M51.279,55.54c-2.92,0-5.52,1.683-7.805,5.046c-2.281,3.364-3.423,7.178-3.423,11.439c0,2.684,0.659,4.895,1.979,6.637
	c1.318,1.74,2.986,2.611,5,2.611c3.006,0,5.716-1.674,8.129-5.029c2.411-3.354,3.616-7.127,3.616-11.326
	c0-2.811-0.686-5.078-2.062-6.798C55.344,56.399,53.529,55.54,51.279,55.54z M52.834,19.334C25.588,19.334,3.5,41.422,3.5,68.668
	s22.088,49.333,49.334,49.333s49.333-22.087,49.333-49.333S80.08,19.334,52.834,19.334z M76.689,93.177
	c-3.006,2.392-6.289,3.992-9.847,5.107c-3.56,1.112-7.688,1.597-12.384,1.597c-10.188,0-18.209-2.617-24.063-7.777
	c-5.852-5.162-8.777-12.25-8.777-21.227c0-6.209,1.444-12.014,4.332-17.388c2.889-5.378,6.706-9.384,11.457-12.011
	c4.75-2.63,10.238-3.947,16.468-3.947c8.048,0,14.69,2.389,19.927,7.171c5.235,4.78,7.854,10.849,7.854,18.204
	c0,3.83-0.93,7.544-2.79,11.146c-1.86,3.604-4.317,6.503-7.368,8.696c-3.052,2.195-6.199,3.295-9.443,3.295
	c-2.188,0-3.738-0.396-4.656-1.186c-0.92-0.791-1.477-2.19-1.671-4.201c-1.427,1.688-3.009,2.996-4.739,3.925
	c-1.73,0.935-3.449,1.396-5.158,1.396c-3.355,0-6.15-1.383-8.393-4.152c-2.238-2.77-3.357-6.209-3.357-10.319
	c0-3.396,0.803-6.707,2.403-9.932c1.601-3.224,3.707-5.819,6.327-7.788c2.615-1.969,5.311-2.953,8.08-2.953
	c4.155,0,7.412,2.12,9.77,6.101L61.795,52h5.869l-5.22,23.952c-0.306,1.385-0.452,2.229-0.452,2.659
	c0,0.609,0.215,1.088,0.648,1.511c0.432,0.422,0.96,0.616,1.588,0.616c1.409,0,3.209-0.912,5.404-2.717
	c2.193-1.811,3.927-4.078,5.193-6.806c1.264-2.726,1.898-5.561,1.898-8.506c0-5.841-2.208-10.716-6.623-14.618
	c-4.412-3.908-9.929-5.858-16.55-5.858c-7.81,0-14.273,2.642-19.39,7.933c-5.118,5.293-7.676,11.982-7.676,20.072
	c0,7.876,2.461,13.987,7.385,18.336c4.922,4.349,11.83,6.521,20.719,6.521c5.236,0,9.802-0.887,13.695-2.66
	c1.471-0.691,2.998-1.271,4.574-2.342C74.44,89.023,75.912,87,77.275,86h5.841C81.839,89,79.698,90.786,76.689,93.177z"/>
</svg>
