<?xml version="1.0" encoding="utf-8"?>
<!-- Generator: Adobe Illustrator 16.0.0, SVG Export Plug-In . SVG Version: 6.00 Build 0)  -->
<!DOCTYPE svg PUBLIC "-//W3C//DTD SVG 1.1//EN" "http://www.w3.org/Graphics/SVG/1.1/DTD/svg11.dtd">
<svg version="1.1" id="Layer_1" xmlns="http://www.w3.org/2000/svg" xmlns:xlink="http://www.w3.org/1999/xlink" x="0px" y="0px"
	 width="216px" height="216px" viewBox="0 0 216 216" enable-background="new 0 0 216 216" xml:space="preserve">
<path opacity="0.2" fill="#ABE0F9" enable-background="new    " d="M48.617,27.514c0,0,16.416-24.957,34.15-12.476
	c17.733,12.48,39.403,21.669,57.131,19.042c17.73-2.626,35.209,2.393,43.426,13.15c8.665,11.34,12.014,8.329,13.244,34.819
	c1.451,31.247-10.787,30.542-11.703,41.273c-2.155,25.259-9.697,31.276-22.178,38.499c-12.477,7.224-18.849,0.316-32.643,3.6
	c-13.793,3.283-22.676,24.818-43.844,24.887c-21.168,0.069-36.932-3.87-44.811-24.23c-7.88-20.36,11.793-41.99,10.411-54.463
	C50.263,97.757,30.227,99.092,30.227,76.11S48.617,27.514,48.617,27.514z"/>
<path fill="#0D3178" d="M160.863,180.092H88.098c-4.298,0-7.785-3.486-7.785-7.784V24.723c0-4.298,3.486-7.785,7.785-7.785h72.766
	c4.299,0,7.785,3.486,7.785,7.785v147.589C168.648,176.61,165.162,180.092,160.863,180.092z"/>
<path fill="#FFFFFF" d="M156.652,166.333H92.31c-3.801,0-6.881-3.08-6.881-6.882V28.939c0-3.801,3.08-6.881,6.881-6.881h64.343
	c3.801,0,6.881,3.08,6.881,6.881v130.508C163.538,163.253,160.453,166.333,156.652,166.333z"/>
<g>
	
		<circle fill="none" stroke="#00984A" stroke-width="0.3867" stroke-linecap="round" stroke-linejoin="round" stroke-miterlimit="10" cx="123.553" cy="58.601" r="19.211"/>
	
		<line fill="none" stroke="#00984A" stroke-width="0.3867" stroke-linecap="round" stroke-linejoin="round" stroke-miterlimit="10" x1="134.408" y1="51.084" x2="121.047" y2="66.118"/>
	
		<line fill="none" stroke="#00984A" stroke-width="0.3867" stroke-linecap="round" stroke-linejoin="round" stroke-miterlimit="10" x1="112.695" y1="59.439" x2="121.047" y2="66.118"/>
</g>
<path fill="#00984A" d="M152.389,137.441H96.578c-1.642,0-2.972-1.331-2.972-2.973l0,0c0-1.642,1.331-2.973,2.972-2.973h55.811
	c1.641,0,2.972,1.331,2.972,2.973l0,0C155.36,136.11,154.029,137.441,152.389,137.441z"/>
<g>
	<g>
		<g>
			<g>
				<path fill="#EEA886" d="M52.639,123.432c0,0,0.557,0.915,0.631,1.662c0.056,0.592,0.553,1.474,0.769,1.962
					c0.216,0.488,0.907,2.695,0.933,3.271c0.008,0.232-0.514,1.715-0.441,2.189c0.074,0.471,0.346,1.413-0.082,1.474
					s-0.907-0.708-0.907-0.708s0.039,0.436-0.32,0.604c-0.7,0.324-1.071,0.039-1.071,0.039s-0.259,0.48-0.583,0.545
					c-0.717,0.143-1.067-0.143-1.067-0.143s-0.315,0.268-0.808,0.26c-0.631-0.014-0.898-0.559-0.898-0.559s-0.799,0.16-1.033-0.211
					c-0.233-0.371-0.19-0.773-0.289-1.11c-0.095-0.337-0.022-3.392,1.011-5.59c1.037-2.199-0.264-4.342-0.264-4.342L52.639,123.432z
					"/>
			</g>
		</g>
	</g>
	<g>
		<g>
			<path fill="#DB9C7C" d="M53.654,132.996c0,0,0.069-2.739-0.652-3.322c-0.721-0.584-0.803,0.406-0.803,0.406
				s0.099-0.977-0.691-1.111c-0.786-0.129-0.821,1.029-0.821,1.029s-0.129-0.752-0.955-0.602c-0.83,0.156-0.631,1.115-0.631,1.115
				s-0.791-0.941-1.305-0.035c-0.864,1.529-0.078,3.353-0.078,3.353s0.281,0.433,1.067,0.229c0,0,0.544,1.075,1.724,0.314
				c0,0,1.218,0.666,1.659-0.396C52.168,133.977,53.598,134.533,53.654,132.996z"/>
		</g>
	</g>
	<path fill="#0D3178" d="M61.936,83.968c0,0-4.692,15.63-6.273,21.397c-0.497,1.806-1.702,19.077-1.914,19.773
		c-0.212,0.695-6.16,1.649-6.16,1.649s0.721-21.604,0.786-22.783c0.069-1.179,6.562-25.302,8.454-26.162
		c1.417-0.644,2.165-0.112,3.949,1.214C63.275,80.909,61.936,83.968,61.936,83.968z"/>
	<path fill="#EFAA88" d="M120.07,59.084c0,0-0.104,0.609-0.277,0.851c0,0-0.35,0.419-0.582,0.73
		c-0.074,0.099-0.135,0.186-0.169,0.25c-0.143,0.255-0.376,0.859-0.886,1.378c-0.514,0.519-2.501,2.168-2.501,2.168l-1.706-1.447
		l-1.771-0.795c0,0,0.993-4.311,1.412-4.851c0.043-0.052,0.082-0.104,0.125-0.147c0.402-0.419,0.877-0.566,1.111-0.765
		c0.086-0.073,0.998-0.73,1.321-0.644c0.449,0.117,0.718,0.38,0.821,0.683c0,0,0.872,0.268,1.213,0.782c0,0,0.813,0.22,1.055,0.981
		C119.236,58.26,120.035,58.575,120.07,59.084z"/>
	<g>
		<g>
			<path fill="#424773" d="M58.13,190.689c0,0-0.428,2.968-0.479,3.412c-0.052,0.445-4.756-0.264-4.756-0.264l-0.38-3.533
				C52.51,190.309,57.542,190.27,58.13,190.689z"/>
		</g>
	</g>
	<g>
		<g>
			<path fill="#41727E" d="M57.698,193.727c0,0,1.491,1.788,2.929,2.565c1.443,0.778,3.707,1.089,4.558,1.893
				c0.613,0.583,2.238,3.089-3.746,3.036c-5.983-0.051-8.869,0.355-9.508-0.604c-0.644-0.964,0.929-7.099,0.929-7.099
				S54.276,194.033,57.698,193.727z"/>
		</g>
	</g>
	<g>
		<g>
			<path fill="#424773" d="M91.822,190.689c0,0-0.428,2.968-0.479,3.412c-0.052,0.445-4.756-0.264-4.756-0.264l-0.38-3.533
				C86.201,190.309,91.234,190.27,91.822,190.689z"/>
		</g>
	</g>
	<g>
		<g>
			<path fill="#41727E" d="M91.39,193.727c0,0,1.49,1.788,2.929,2.565c1.443,0.778,6.744,1.421,7.595,2.226
				c0.613,0.582,1.637,2.924-6.782,2.703c-5.983-0.154-8.869,0.355-9.513-0.604c-0.644-0.964,0.929-7.099,0.929-7.099
				S87.886,194.067,91.39,193.727z"/>
		</g>
	</g>
	<g>
		<g>
			<path fill="#00984A" d="M62.022,114.441c0,0-4.419,7.02-4.091,13.365c0.329,6.347-1.603,13.271-2.268,19.902
				c-0.739,7.393-3.767,24.884-3.879,28.836c-0.108,3.953,0.471,16.572,0.471,16.572l6.061,0.139c0,0,5.093-30.586,6.411-33.705
				s7.858-25.367,8.079-27.864C73.03,129.193,62.022,114.441,62.022,114.441z"/>
		</g>
	</g>
	<g>
		<g>
			<path fill="#00984A" d="M85.281,115.392c0,0,3.331,17.392,3.767,21.276c0.44,3.883,0.734,18.791,0.955,21.224
				c0.22,2.428,2.052,31.691,2.64,35.368h-7.75c0,0-5.948-21.324-5.948-31.415c0-10.092-4.597-21.937-7.56-28.595
				c-2.968-6.656-9.755-6.813-11.582-19.168C59.797,114.082,82.814,111.478,85.281,115.392z"/>
		</g>
	</g>
	<g>
		<g>
			<path fill="#EEA886" d="M69.396,55.426c0,0,5.931-2.216,8.666,2.298c2.734,4.515,2.471,13.552-0.519,14.667
				c-2.989,1.11-7.478,0.531-9.012-2.298c-1.529-2.821-2.912-6.907-2.847-9.638C65.75,57.728,67.837,56.212,69.396,55.426z"/>
		</g>
	</g>
	<g>
		<g>
			<path fill="#EEA886" d="M76.9,72.593c0,0-0.246,1.603,0.16,2.389c0.406,0.791-7.681,0.808-7.681,0.808s-0.657-4.29-1.901-7.914
				C66.23,64.251,76.9,72.593,76.9,72.593z"/>
		</g>
	</g>
	<g>
		<g>
			<path fill="#292C47" d="M67.474,67.88c0,0,0.557,0.92,2.838,0.562c2.281-0.359,5.059-3.391,6.013-3.724
				c0.955-0.333,0.963-0.894,0.963-0.894l0.596,0.873l1.011,0.065c0,0-0.92-2.713,0.471-3.819s-1.443-8.778-8.752-6.225
				c0,0-5.616,1.546-5.409,4.739C65.4,62.648,66.217,66.286,67.474,67.88z"/>
		</g>
	</g>
	<g>
		<g>
			<path fill="#2C5967" d="M77.54,74.887c0,0-0.026-1.508-0.708-1.65c-0.683-0.147-7.538-0.803-8.376-0.475v1.754
				C68.45,74.52,70.066,75.514,77.54,74.887z"/>
		</g>
	</g>
	<g>
		<g>
			<path fill="#EEA886" d="M77.134,62.666c-0.13-0.536-1.491-2.069-2.009-0.428c-0.523,1.637,0.786,3.845,1.521,3.655
				C77.371,65.703,77.458,64.022,77.134,62.666z"/>
		</g>
	</g>
	<g>
		<g>
			<path fill="#0D3178" d="M88.88,77.168c-4.7-0.618-11.34-2.281-11.34-2.281l-9.085-0.372c0,0-8.337,1.836-11.625,3.322
				c-0.311,0.143-0.311,7.439-1.167,9.353l2.722,5.746c0,0,1.572,11.379,1.901,16.442c0.151,2.324-1.59,11.573-1.59,11.573
				s1.806,0.761,8.005,1.443c6.204,0.682,20.153-0.064,20.248-0.795c0.099-0.734-1.274-16.935-1.413-18.313
				c-0.212-2.108,0.73-13.319,0.73-13.319c1.43-1.11,14.005-6.946,17.431-9.988c0.92-0.816,4.791-4.588,5.893-5.888
				c3.9-4.609,7.098-8.566,7.486-9.422c0.441-0.488-4.385-3.102-4.809-3.244c-0.371-0.121-5.499,6.782-7.525,8.977
				c-0.907,0.981-4.666,3.715-4.666,3.715S91.822,77.341,88.88,77.168z"/>
		</g>
	</g>
	<g>
		<g>
			<path fill="#292C47" d="M67.708,55.957c0,0-7.56,0.592-0.233,11.919L67.708,55.957z"/>
		</g>
	</g>
	<path fill="#EFAA88" d="M115.482,56.03l1.836-2.091c0,0,1.141-0.315,0.825,0.445c-0.315,0.761-1.175,2.117-1.175,2.117
		L115.482,56.03z"/>
</g>
<circle fill="#FFFFFF" cx="124.48" cy="172.869" r="4.303"/>
<line fill="none" stroke="#00984A" stroke-width="0.75" stroke-linecap="round" stroke-linejoin="round" stroke-miterlimit="10" x1="103.611" y1="119.604" x2="145.355" y2="119.604"/>
<line fill="none" stroke="#00984A" stroke-width="0.75" stroke-linecap="round" stroke-linejoin="round" stroke-miterlimit="10" x1="94.971" y1="111.383" x2="153.995" y2="111.383"/>
<g>
	<path fill="#6E9B6D" d="M21.591,135.363c1.857-0.891,3.711,5.028,3.711,5.028c3.162,4.177,7.577-1.378,7.146,4.864
		c-0.756,10.921,12.571,3.434,6.424,14.839c-6.147,11.405,5.43,6.45,1.607,15.644c-3.823,9.192,1.132,20.16-4.618,15.655
		c0,0-5.063-11.103-10.282-14.537c-5.223-3.435,3.128-7.513,1.495-12.174c-2.372-6.778-8.091-6.511-3.965-13.794
		C27.225,143.609,15.271,138.387,21.591,135.363z"/>
	<g>
		<path fill="#FFFFFF" d="M37.684,187.216c-2.493-1.754-5.409-13.967-5.582-21.241c-0.091-3.729-1.192-5.279-2.165-6.648
			c-0.929-1.309-1.732-2.441-1.266-5.037c0.894-4.964-1.456-7.106-1.478-7.124l0.272-0.312c0.104,0.092,2.548,2.299,1.611,7.509
			c-0.437,2.428,0.285,3.438,1.196,4.726c0.955,1.348,2.147,3.024,2.238,6.878c0.186,7.806,3.171,19.341,5.409,20.913
			L37.684,187.216z"/>
	</g>
	<g>
		<path fill="#6E9B6D" d="M38.617,188.123c-0.32,0-0.67-0.039-1.054-0.112c-0.959-0.194-1.59-0.7-1.871-1.508
			c-0.674-1.923,0.886-5.042,2.147-6.549c0.021-0.026,2.134-2.609,1.91-6.19c-0.039-0.601-0.1-1.158-0.156-1.646
			c-0.16-1.416-0.272-2.44,0.337-3.127c0.536-0.605,1.573-0.864,3.465-0.873c3.317-0.018,4.626-1.387,5.681-2.492
			c0.449-0.471,0.868-0.912,1.382-1.193l0,0c1.655-0.902,3.404-1.031,4.165-0.314c0.363,0.341,0.666,1.011,0.069,2.259
			c-0.544,1.141-1.253,1.862-1.823,2.445c-0.765,0.782-1.27,1.296-1.006,2.324c0.06,0.241,0.134,0.483,0.203,0.729
			c0.51,1.75,1.093,3.732-1.9,5.076c-0.635,0.285-1.214,0.515-1.724,0.713c-2.091,0.821-3.352,1.313-4.773,4.32
			c-0.276,0.583-0.519,1.132-0.756,1.668C41.783,186.196,40.932,188.123,38.617,188.123z"/>
	</g>
	<g>
		<path fill="#FFFFFF" d="M37.605,190.499l-0.41-0.017c0.021-0.39,0.54-9.505,4.199-12.17c4.014-2.925,5.284-6.074,5.884-8.182
			c0.708-2.488,4.329-3.154,4.479-3.18l0.074,0.406c-0.035,0.004-3.517,0.647-4.156,2.885c-0.618,2.169-1.918,5.4-6.039,8.402
			C38.133,181.193,37.61,190.408,37.605,190.499z"/>
	</g>
	<path fill="#588757" d="M45.974,144.564c-2.601-0.89-2.061,4.121-3.163,7.832c-1.097,3.711-12.23,1.615-7.556,10.908
		c4.67,9.288-5.91,3.105-2.748,11.215c3.163,8.104,0.277,16.774,3.711,14.571c3.435-2.203,1.931-12.411,5.504-13.626
		c3.573-1.213,4.156-2.626,0.618-5.926c-3.538-3.297,9.267-6.571,6.108-13.229C45.287,149.648,48.98,145.593,45.974,144.564z"/>
	<g>
		<path fill="#FFFFFF" d="M37.813,188.697c-0.328-1.387-3.119-13.6-0.514-15.076c2.298-1.301,2.242-6.363,1.884-11.142
			c-0.315-4.229,5.115-6.208,5.348-6.29l0.138,0.389c-0.052,0.018-5.366,1.953-5.072,5.871c0.367,4.908,0.406,10.113-2.091,11.53
			c-1.979,1.123-0.156,10.938,0.713,14.623L37.813,188.697z"/>
	</g>
	<polygon fill="#E6AC58" points="43.727,184.348 40.012,198.439 31.713,198.439 27.998,184.348 	"/>
</g>
<g>
	<path fill="#00984A" d="M166.256,185.475l-10.105-7.768c-4.216-4.021-6.627-9.754-6.627-15.771v-12.313
		c0-0.738,0.433-1.412,1.085-1.672c9.97-3.966,19.737-4.035,29.29,0.151c0.772,0.173,1.326,0.894,1.326,1.732v12.761
		c0,5.629-2.109,11.025-5.863,15.004L166.256,185.475z"/>
	
		<polyline fill="none" stroke="#FFFFFF" stroke-width="0.75" stroke-linecap="round" stroke-linejoin="round" stroke-miterlimit="10" points="
		172.42,157.273 165.374,167.841 160.09,162.557 	"/>
</g>
</svg>
