<?xml version="1.0" encoding="utf-8"?>
<!-- Generator: Adobe Illustrator 16.0.0, SVG Export Plug-In . SVG Version: 6.00 Build 0)  -->
<!DOCTYPE svg PUBLIC "-//W3C//DTD SVG 1.1//EN" "http://www.w3.org/Graphics/SVG/1.1/DTD/svg11.dtd">
<svg version="1.1" id="Layer_1" xmlns="http://www.w3.org/2000/svg" xmlns:xlink="http://www.w3.org/1999/xlink" x="0px" y="0px"
	 width="216px" height="216px" viewBox="0 0 216 216" enable-background="new 0 0 216 216" xml:space="preserve">
<rect id="XMLID_815_" x="55.048" y="36.54" fill="#FFFFFF" stroke="#171C28" stroke-width="3" stroke-linecap="round" stroke-linejoin="round" stroke-miterlimit="10" width="97.875" height="126.563"/>
<path id="XMLID_475_" fill="#ABE0F9" d="M144.111,49.612V149.85c0,0.676-0.674,1.014-1.012,1.014H65.138
	c-0.675,0-1.013-0.676-1.013-1.014V49.612c0-0.675,0.675-1.012,1.013-1.012H143.1C143.775,48.263,144.111,48.938,144.111,49.612z"/>
<line id="XMLID_800_" fill="none" stroke="#171C28" stroke-width="3" stroke-linecap="round" stroke-linejoin="round" stroke-miterlimit="10" x1="91.8" y1="156.264" x2="109.35" y2="156.264"/>
<line id="XMLID_795_" fill="none" stroke="#171C28" stroke-width="3" stroke-linecap="round" stroke-linejoin="round" stroke-miterlimit="10" x1="98.888" y1="43.875" x2="105.638" y2="43.875"/>
<g id="XMLID_657_">
	<path id="XMLID_777_" fill="#FFFFFF" d="M182.25,143.775v-14.852c-7.088-6.75-14.175,0.338-14.175,0.338l2.362,7.426L128.925,135
		c-7.087-10.463-13.5-0.675-13.5-0.675v29.024l20.925,19.237v12.149l38.477-0.338v-11.813c0-2.7,7.087-13.838,7.087-13.838V154.91"
		/>
	
		<path id="XMLID_772_" fill="#FFFFFF" stroke="#171C28" stroke-width="3" stroke-linecap="round" stroke-linejoin="round" stroke-miterlimit="10" d="
		M175.162,195.075v-11.813c0-2.699,7.088-13.838,7.088-13.838v-13.837"/>
	
		<path id="XMLID_771_" fill="#FFFFFF" stroke="#171C28" stroke-width="3" stroke-linecap="round" stroke-linejoin="round" stroke-miterlimit="10" d="
		M182.25,143.775v-14.852c-7.088-6.75-14.175,0.338-14.175,0.338l2.362,7.426L128.925,135c-7.087-10.463-13.5-0.675-13.5-0.675
		v29.024l20.925,19.237v12.149"/>
	<polygon id="XMLID_769_" fill="#FFFFFF" points="133.313,129.938 141.075,122.175 148.162,120.486 155.25,123.525 160.313,121.838 
		166.389,123.188 165.713,126.563 176.514,137.7 162.675,146.139 137.025,146.139 131.963,142.764 	"/>
	
		<path id="XMLID_768_" fill="#FFFFFF" stroke="#171C28" stroke-width="3" stroke-linecap="round" stroke-linejoin="round" stroke-miterlimit="10" d="
		M129.6,156.6V92.475c0,0-1.688-6.413,5.063-6.413c7.088,0,5.399,5.737,5.399,5.737v36.788"/>
	
		<path id="XMLID_767_" fill="#FFFFFF" stroke="#171C28" stroke-width="3" stroke-linecap="round" stroke-linejoin="round" stroke-miterlimit="10" d="
		M141.075,121.838c0,0,6.075-6.074,13.161,0.676v6.074"/>
	
		<path id="XMLID_766_" fill="#FFFFFF" stroke="#171C28" stroke-width="3" stroke-linecap="round" stroke-linejoin="round" stroke-miterlimit="10" d="
		M156.6,125.213c0,0,4.389-7.088,11.477-0.338v7.425"/>
</g>
<g>
	
		<circle id="XMLID_816_" fill="#FFFFFF" stroke="#171C28" stroke-width="3" stroke-linecap="round" stroke-linejoin="round" stroke-miterlimit="10" cx="58.05" cy="152.887" r="35.1"/>
	<g>
		<path fill="#0D3178" d="M71.888,147.825h-2.7v-4.05c0-6.414-5.063-11.477-11.475-11.477c-5.737,0-10.8,4.389-11.137,10.125
			c0,0.338,0,0.676,0,1.014v4.049H44.55h-0.337c-0.337,0-0.675,0-1.012,0c0,0-0.338,0.339-0.338,0.676v20.25
			c0,0.676,1.013,1.688,1.688,1.688h27.338c0.337,0,0.337,0,0.675-0.336c0.337-0.339,0.337-0.676,0.337-1.014v-0.338v-20.25
			C72.9,148.838,73.237,147.825,71.888,147.825z M49.275,143.775c0-4.727,3.712-8.775,8.775-8.775s8.775,4.05,8.775,8.775v4.05
			H49.612v-4.05H49.275z M48.263,143.775c0-0.338,0-0.676,0-1.014C48.263,143.1,48.263,143.438,48.263,143.775z M45.563,150.525
			H48.6h19.913H70.2v17.211H45.9v-17.211H45.563z"/>
		<path fill="#0D3178" d="M58.05,158.287c-0.675,0-1.35,0.676-1.35,1.352v4.387c0,0.676,0.675,1.351,1.35,1.351
			c0.675,0,1.35-0.675,1.35-1.351v-4.387C59.4,158.963,58.725,158.287,58.05,158.287z"/>
	</g>
</g>
</svg>
