<svg xmlns="http://www.w3.org/2000/svg" width="127.583" height="120.25" viewBox="0 0 127.583 120.25"><path fill="#F7F7F7" d="M60.334 114.001l.039-.001h-.078l.039.001zm0-111.667c-31.614 0-57.334 25.72-57.334 57.334 0 31.613 25.72 57.333 57.334 57.333 31.613 0 57.333-25.72 57.333-57.333 0-31.614-25.72-57.334-57.333-57.334zm22.582 47.432c0 12.527-10.156 22.684-22.684 22.684-6.178 0-11.777-2.474-15.868-6.48l-.002.002 14.456 14.456c.559-.017 1.117-.033 1.682-.033 16.555 0 30.773 7.375 37.803 18.123 7.526-7.356 12.924-16.877 15.183-27.561l-36.857-36.857c3.892 4.072 6.287 9.588 6.287 15.666z"/><linearGradient id="a" gradientUnits="userSpaceOnUse" x1="59.608" y1="49.148" x2="109.732" y2="99.271"><stop offset="0" stop-opacity=".2"/><stop offset=".995" stop-color="#fff" stop-opacity="0"/></linearGradient><path fill="url(#a)" d="M82.916 49.766c0 12.527-10.156 22.684-22.684 22.684-6.178 0-11.777-2.474-15.868-6.48l-.002.002 14.456 14.456c.559-.017 1.117-.033 1.682-.033 16.555 0 30.773 7.375 37.803 18.123 7.526-7.356 12.924-16.877 15.183-27.561l-36.857-36.857c3.892 4.072 6.287 9.588 6.287 15.666z"/><path fill="#F7F7F7" d="M75.893 33.363l.003.005z"/><linearGradient id="b" gradientUnits="userSpaceOnUse" x1="75.601" y1="33.072" x2="114.27" y2="71.742"><stop offset="0" stop-opacity=".3"/><stop offset=".995" stop-color="#fff" stop-opacity="0"/></linearGradient><path fill="url(#b)" d="M75.893 33.363l.003.005z"/><path fill="#42C6BF" d="M75.896 33.368l.732.731c-.237-.249-.482-.493-.732-.731z"/><path fill="#EDEDED" d="M76.629 34.1l-.732-.731-.004-.005c-4.072-3.889-9.585-6.282-15.66-6.282-12.527 0-22.685 10.156-22.685 22.685 0 6.35 2.612 12.086 6.816 16.203 4.091 4.007 9.69 6.48 15.868 6.48 12.527 0 22.684-10.156 22.684-22.684 0-6.078-2.395-11.594-6.287-15.666z"/><path fill="#ccc" d="M60.5 80.394c-.564 0-1.123.017-1.682.033-15.922.484-29.484 7.81-36.236 18.298 9.768 9.442 23.057 15.265 37.713 15.275h.078c9.257-.007 17.97-2.333 25.596-6.422 4.537-2.433 8.684-5.493 12.334-9.062-7.03-10.747-21.248-18.122-37.803-18.122z"/><path fill="#42C6BF" d="M120.752 14.145c-3.774-5.804-10.313-9.645-17.752-9.645-11.691 0-21.168 9.477-21.168 21.168 0 11.321 8.889 20.566 20.068 21.139.364.019.73.028 1.1.028 9.302 0 17.197-6.003 20.037-14.345.383-1.126.678-2.294.868-3.498.171-1.083.262-2.193.262-3.324 0-4.252-1.258-8.207-3.415-11.523z"/><linearGradient id="c" gradientUnits="userSpaceOnUse" x1="97.936" y1="20.733" x2="120.104" y2="42.901"><stop offset="0" stop-opacity=".4"/><stop offset=".995" stop-color="#fff" stop-opacity="0"/></linearGradient><path fill="url(#c)" d="M123.037 32.49c.125-.367.237-.741.342-1.118l-18.041-18.042-1.169 1.363-.098 4.48-2.102 5.715-6.177.779-5.26 2.467 17.973 17.973c6.817-1.834 12.272-6.983 14.532-13.617z"/><path fill="#fff" d="M116.25 23h-10v-10h-6v10h-10v5h10v11h6v-11h10z"/></svg>