<svg xmlns="http://www.w3.org/2000/svg" viewBox="0 0 58 58" enable-background="new 0 0 58 58"><path fill="#D1D1D0" d="M53.9 45h-50.3c-1.1 0-1.9-.8-1.9-1.8s.9-1.9 1.9-1.9h50.4c1 0 1.9.9 1.9 1.9-.1 1-.9 1.8-2 1.8z"/><path stroke="#3B3E43" stroke-width="1.101" stroke-linecap="round" stroke-linejoin="round" stroke-miterlimit="10" d="M21.7 42.5v-1.4h15.6v1.4" fill="none"/><path fill="#fff" stroke="#3B3E43" stroke-width="1.101" stroke-linecap="round" stroke-linejoin="round" stroke-miterlimit="10" d="M11.8 31.8h35.4"/><path fill="#fff" stroke="#3B3E43" stroke-linecap="round" stroke-linejoin="round" stroke-miterlimit="10" d="M28 33.9h3"/><path fill="#fff" stroke="#3B3E43" stroke-width="1.101" stroke-linecap="round" stroke-linejoin="round" stroke-miterlimit="10" d="M24.5 36.1h10.2v5h-10.2z"/><path fill="#89C33D" d="M45 29.5h-30.8v-17.6h30.8v12.7z"/><path stroke="#3B3E43" stroke-linecap="round" stroke-linejoin="round" stroke-miterlimit="10" d="M46.3 36.1h-33.6c-.6 0-1.1-.5-1.1-1.1v-24.6c0-.6.5-1.1 1.1-1.1h33.6c.6 0 1.1.5 1.1 1.1v24.6c.1.6-.5 1.1-1.1 1.1z" fill="none"/><circle fill="#fff" cx="29.6" cy="20.7" r="6.8"/><path fill="#3B3E43" d="M29.6 14.3c3.5 0 6.4 2.9 6.4 6.4s-2.9 6.4-6.4 6.4-6.4-2.9-6.4-6.4 2.8-6.4 6.4-6.4m0-.8c-3.9 0-7.1 3.2-7.1 7.1s3.2 7.1 7.1 7.1c3.9 0 7.1-3.2 7.1-7.1s-3.2-7.1-7.1-7.1z"/><path fill="#3B3E43" stroke="#3B3E43" stroke-width=".5" stroke-miterlimit="10" d="M28.7 23.1c-.1 0-.1 0-.2-.1l-2.4-2.4c-.1-.1-.1-.3 0-.4.1-.1.3-.1.4 0l2.4 2.4c.1.1.1.3 0 .4-.1 0-.2.1-.2.1zM28.7 23.1c-.1 0-.1 0-.2-.1s-.1-.3 0-.4l4.2-4.2c.1-.1.3-.1.4 0 .1.1.1.3 0 .4l-4.2 4.2c-.1 0-.2.1-.2.1z"/></svg>