<svg xmlns="http://www.w3.org/2000/svg" width="500" height="500" viewBox="0 0 500 500"><path d="M247 83.081c-92.93 0-168.532 75.75-168.532 168.858 0 93.109 75.603 168.86 168.532 168.86 92.929 0 168.531-75.75 168.531-168.858 0-93.109-75.602-168.86-168.531-168.86zm0 316.883c-81.439 0-147.696-66.403-147.696-148.024s66.257-148.022 147.696-148.022c81.438 0 147.695 66.403 147.695 148.024.001 81.621-66.256 148.022-147.695 148.022zm-2.927-93.435c-11.309 0-20.509 8.998-20.509 20.056 0 10.625 9.393 19.603 20.509 19.603 11.309 0 20.51-8.998 20.51-20.057-.001-10.808-9.202-19.602-20.51-19.602zm38.093-126.672c-8.994-7.835-21.304-11.977-35.6-11.977-30.553 0-51.698 18.353-55.189 47.897l-.289 2.446 33.809 2.642.216-2.324c1.095-11.82 9.45-20.074 20.319-20.074 10.623 0 18.042 7.232 18.042 17.588 0 5.292-1.72 9.81-4.986 13.077l-17.52 17.698c-9.815 10.052-12.968 13.914-12.968 28.186v14.984h32v-11.13c0-10.313 2.834-12.966 10.342-20.052l.974-.907c.847-.802 1.69-1.593 2.521-2.374 12.31-11.585 22.942-21.59 22.942-41.071 0-14.309-5.05-26.277-14.613-34.609z" fill="#63C6C1"/></svg>