<svg xmlns="http://www.w3.org/2000/svg" width="321" height="237.666" viewBox="0 0 321 237.666"><ellipse cx="160.484" cy="103.822" rx="100.601" ry="100.391" fill="none"/><radialGradient id="a" cx="2052.659" cy="4430.804" r="61.459" gradientTransform="matrix(1.758 0 0 -.5 -3448.911 2447.07)" gradientUnits="userSpaceOnUse"><stop offset="0" stop-opacity=".1"/><stop offset=".195" stop-color="#030303" stop-opacity=".08"/><stop offset=".327" stop-color="#0C0C0C" stop-opacity=".067"/><stop offset=".441" stop-color="#1B1B1B" stop-opacity=".055"/><stop offset=".544" stop-color="#313131" stop-opacity=".045"/><stop offset=".64" stop-color="#4D4D4D" stop-opacity=".035"/><stop offset=".731" stop-color="#6F6F6F" stop-opacity=".026"/><stop offset=".818" stop-color="#989898" stop-opacity=".017"/><stop offset=".901" stop-color="#C7C7C7" stop-opacity=".009"/><stop offset=".979" stop-color="#FBFBFB" stop-opacity=".001"/><stop offset=".985" stop-color="#fff" stop-opacity="0"/></radialGradient><ellipse fill="url(#a)" cx="160.485" cy="231.668" rx="152.413" ry="3.226"/><path fill="#F7F7F7" d="M204.916 77.582l.337.337 11.479-14.979 44.282 44.164c.041-1.177.069-2.356.069-3.543 0-55.444-45.04-100.391-100.6-100.391-55.559 0-100.599 44.946-100.599 100.391s45.042 100.392 100.601 100.392c9.678 0 19.034-1.367 27.891-3.912l-92.729-92.728 25.975-14.481-2.232-2.231 29.344-14.66 62.267 62.1v.166l28.05 28.05.39-.48-63.029-63.029 28.504-25.166zm6.084 60.459l-62.269-62.102-29.342 14.661 2.232 2.231-25.975 14.481 92.729 92.728c20.236-5.814 37.852-17.803 50.675-33.783l-28.05-28.05v-.166z"/><linearGradient id="b" gradientUnits="userSpaceOnUse" x1="264.404" y1="-118.329" x2="378.299" y2="-232.224" gradientTransform="matrix(1 0 0 -1 -147.6 -32.174)"><stop offset="0" stop-opacity=".3"/><stop offset=".995" stop-color="#fff" stop-opacity="0"/></linearGradient><path fill="url(#b)" d="M211 138.041l-62.269-62.102-29.342 14.661 2.232 2.231-25.975 14.481 92.729 92.728c20.236-5.814 37.852-17.803 50.675-33.783l-28.05-28.05v-.166z"/><path fill="#F7F7F7" d="M216.732 62.939l-11.479 14.979-.337-.337-28.507 25.164 63.029 63.029c12.867-16.241 20.807-36.547 21.575-58.672l-44.281-44.163z"/><linearGradient id="c" gradientUnits="userSpaceOnUse" x1="344.072" y1="-114.856" x2="427.994" y2="-198.779" gradientTransform="matrix(1 0 0 -1 -147.6 -32.174)"><stop offset="0" stop-opacity=".3"/><stop offset=".995" stop-color="#fff" stop-opacity="0"/></linearGradient><path fill="url(#c)" d="M216.732 62.939l-11.479 14.979-.337-.337-28.507 25.164 63.029 63.029c12.867-16.241 20.807-36.547 21.575-58.672l-44.281-44.163z"/><path fill="#1B6D69" d="M223 102.746l-16.678-16.678 16.678-16.676-6.618-6.619-16.678 16.678-16.677-16.678-6.618 6.618 16.678 16.677-16.678 16.678 6.617 6.618 16.678-16.677 16.678 16.676zm-74-26.746h-29v10h-14v-10h-8l-3 29.188c0 2.105 1.707 3.813 3.813 3.813h49.375c2.105 0 3.813-1.707 3.813-3.813l-3.001-29.188zm-92 66h206v9h-206z"/></svg>