<svg xmlns="http://www.w3.org/2000/svg" viewBox="0 0 48 34" enable-background="new 0 0 48 34"><style type="text/css">.st0{opacity:0.8;fill:#2C3251;} .st1{fill:#FFFFFF;}</style><path class="st0" d="M46.383 34h-44.766c-.893 0-1.617-.724-1.617-1.617v-30.766c0-.893.724-1.617 1.617-1.617h44.767c.892 0 1.616.724 1.616 1.617v30.767c0 .892-.724 1.616-1.617 1.616z"/><path class="st1" d="M22.453 28.438c-.094 0-.203-.031-.328-.094-.156-.156-.234-.313-.234-.469v-10.078l-7.782-10.641c-.125-.188-.141-.375-.047-.563.125-.218.281-.328.469-.328h18.938c.25 0 .422.11.516.328.094.157.078.344-.047.563l-7.781 10.641v9.047c0 .25-.125.438-.375.563l-3.141.984c-.032.031-.094.047-.188.047zm-6.797-21.047l7.313 9.891c.063.188.094.313.094.375v9.469l1.969-.656v-8.859c0-.125.047-.234.141-.328l7.219-9.891h-16.736z"/></svg>