<svg xmlns="http://www.w3.org/2000/svg" width="120.25" height="120.25" viewBox="0 0 120.25 120.25"><path fill="#F7F7F7" d="M61.334 2.334c-31.614 0-57.334 25.72-57.334 57.334 0 31.613 25.72 57.333 57.334 57.333 3.801 0 7.618-.38 11.345-1.128 14.188-2.85 26.69-10.929 35.2-22.748.977-1.355 1.886-2.735 2.703-4.104 3.339-5.59 5.68-11.647 6.956-18.002.749-3.727 1.129-7.546 1.129-11.352 0-31.613-25.72-57.333-57.333-57.333z"/><linearGradient id="a" gradientUnits="userSpaceOnUse" x1="63.835" y1="31.417" x2="121.459" y2="89.041"><stop offset="0" stop-opacity=".2"/><stop offset=".995" stop-color="#fff" stop-opacity="0"/></linearGradient><path fill="url(#a)" d="M69.231 31.231l-2.606-2.606-6.576 10.901 47.958 47.957c3.099-5.188 5.36-10.935 6.59-17.055l-43.017-43.161-2.349 3.964z"/><linearGradient id="b" gradientUnits="userSpaceOnUse" x1="50.569" y1="63.954" x2="98.476" y2="111.861"><stop offset="0" stop-opacity=".3"/><stop offset=".995" stop-color="#fff" stop-opacity="0"/></linearGradient><path fill="url(#b)" d="M54.6 80.699l1.12 1.12-5.578 9.166 21.946 21.946c13.68-2.747 25.492-10.637 33.357-21.561l-41.147-41.146-9.698 30.475z"/><path fill="#64C6C1" d="M72.999 86.804l-.967 3.955c-2.9 1.143-5.215 2.015-6.943 2.614-1.729.601-3.735.901-6.021.901-3.516 0-6.248-.856-8.195-2.571-1.949-1.713-2.923-3.889-2.923-6.525 0-1.025.073-2.072.22-3.143.146-1.068.381-2.277.703-3.625l3.628-12.832c.323-1.23.597-2.395.816-3.494.22-1.098.329-2.102.329-3.01 0-1.641-.338-2.783-1.013-3.428-.676-.645-1.968-.967-3.878-.967-.939 0-1.901.146-2.886.439-.985.293-1.83.571-2.534.835l.968-3.955c2.376-.967 4.649-1.794 6.819-2.483 2.171-.688 4.224-1.032 6.16-1.032 3.49 0 6.181.843 8.073 2.526 1.891 1.686 2.837 3.875 2.837 6.57 0 .557-.066 1.538-.198 2.944s-.373 2.695-.725 3.867l-3.613 12.79c-.294 1.025-.559 2.197-.794 3.516-.234 1.318-.352 2.314-.352 2.988 0 1.699.38 2.856 1.141 3.472s2.077.923 3.95.923c.877 0 1.871-.154 2.983-.461 1.112-.309 1.917-.58 2.415-.814zm.923-53.658c0 2.227-.843 4.124-2.527 5.691s-3.713 2.351-6.086 2.351-4.409-.783-6.108-2.351-2.549-3.465-2.549-5.691.85-4.131 2.549-5.713 3.735-2.373 6.108-2.373 4.401.791 6.086 2.373 2.527 3.487 2.527 5.713z"/></svg>