<?xml version="1.0" encoding="utf-8"?>
<!-- Generator: Adobe Illustrator 17.0.0, SVG Export Plug-In . SVG Version: 6.00 Build 0)  -->
<!DOCTYPE svg PUBLIC "-//W3C//DTD SVG 1.1//EN" "http://www.w3.org/Graphics/SVG/1.1/DTD/svg11.dtd">
<svg version="1.1" id="Layer_1" xmlns="http://www.w3.org/2000/svg" xmlns:xlink="http://www.w3.org/1999/xlink" x="0px" y="0px"
	 width="168.32px" height="32px" viewBox="0 0 168.32 32" enable-background="new 0 0 168.32 32" xml:space="preserve">
<g>
	<path fill-rule="evenodd" clip-rule="evenodd" fill="#D72027" d="M50.351,21.762v1.1c0,0-2.608,0.441-5.911,0.653
		c-1.186,0.05-2.451-0.02-3.696-0.083c-2.775-0.425-3.865-0.99-3.405-3.176c0,0,0.101-0.986,2.924-4.585
		c0.925-1.113,2.137-2.383,3.724-4.008L45,12.314c0,0-0.472,1.358-1.744,3.732c-1.094,2.003-2.391,4.25-2.391,4.25L50.351,21.762z"
		/>
	<g>
		<g>
			<path fill="#253775" d="M56.701,11.568c0,0-0.308-0.894-0.79-2.199c-0.79-2.135-2.097-5.337-3.661-7.289
				c-0.693-0.695-1.335-0.915-1.912-0.879c-0.576-0.036-1.219,0.184-1.912,0.879c-1.564,1.952-2.872,5.155-3.661,7.289
				c-0.483,1.305-0.79,2.199-0.79,2.199l-0.3,0.448l1.1,0.896l0.365-0.692l5.199-7.286l5.199,7.286l0.374,0.692l1.082-0.896
				L56.701,11.568z"/>
		</g>
	</g>
	<path fill-rule="evenodd" clip-rule="evenodd" fill="#009849" d="M50.333,21.754v1.098c0,0,2.606,0.432,5.92,0.652
		c1.275,0.084,2.516,0.014,3.701-0.083c2.779-0.424,3.871-0.989,3.41-3.171c0,0-0.101-0.985-2.928-4.577
		c-0.926-1.111-1.856-2.053-3.446-3.676l-1.096,0.895c0,0,0.27,0.786,1.544,3.156c1.096,2,2.354,4.243,2.354,4.243L50.333,21.754z"
		/>
	<path fill-rule="evenodd" clip-rule="evenodd" fill="#D72027" d="M80.281,6.731c0.269-0.606,0.519-1.172,0.772-1.737
		c0.374-0.835,0.722-1.683,1.134-2.498c0.312-0.618,0.777-1.108,1.497-1.265c1.059-0.231,1.951,0.183,2.518,1.258
		c0.406,0.77,0.74,1.579,1.084,2.38c2.115,4.915,4.223,9.832,6.333,14.749c0.234,0.546,0.428,1.103,0.45,1.703
		c0.034,0.932-0.499,1.671-1.458,2.043c-0.855,0.331-1.709,0.132-2.28-0.59c-0.283-0.358-0.537-0.758-0.719-1.176
		c-1.248-2.87-2.473-5.75-3.708-8.626c-0.529-1.232-1.066-2.46-1.6-3.69c-0.03-0.07-0.066-0.138-0.112-0.234
		C84.068,9.336,83.953,9.6,83.84,9.865c-0.347,0.808-0.699,1.615-1.035,2.428c-0.043,0.103-0.043,0.255,0,0.357
		c0.989,2.33,1.986,4.656,2.981,6.982c0.227,0.53,0.413,1.072,0.44,1.654c0.044,0.949-0.484,1.7-1.448,2.074
		c-0.866,0.337-1.721,0.134-2.299-0.6c-0.277-0.353-0.519-0.747-0.706-1.154c-0.469-1.026-0.897-2.071-1.343-3.108
		c-0.042-0.098-0.087-0.195-0.157-0.351c-0.24,0.557-0.451,1.057-0.671,1.553c-0.371,0.836-0.717,1.686-1.134,2.498
		c-0.322,0.628-0.789,1.138-1.543,1.278c-1.592,0.296-2.913-1.109-2.522-2.722c0.128-0.528,0.335-1.042,0.548-1.544
		c0.922-2.182,1.86-4.356,2.785-6.536c0.042-0.098,0.064-0.24,0.026-0.332c-0.44-1.057-0.893-2.108-1.343-3.16
		c-0.016-0.037-0.041-0.071-0.075-0.129c-0.407,0.955-0.803,1.89-1.205,2.823c-1.399,3.251-2.796,6.502-4.205,9.749
		c-0.274,0.633-0.617,1.24-1.227,1.608c-0.792,0.477-1.58,0.338-2.313-0.152c-0.742-0.495-1.025-1.212-0.886-2.093
		c0.137-0.875,0.547-1.653,0.888-2.455c1.781-4.175,3.566-8.348,5.353-12.52c0.431-1.005,0.869-2.008,1.318-3.005
		c0.269-0.598,0.6-1.166,1.17-1.527c0.933-0.592,2.149-0.33,2.85,0.586c0.486,0.635,0.736,1.387,1.055,2.105
		c0.354,0.796,0.699,1.596,1.049,2.394C80.212,6.608,80.238,6.649,80.281,6.731z"/>
	<path fill="#253775" d="M108.718,4.391c0.383-0.34,0.575-0.789,0.575-1.347c0-0.558-0.189-1.01-0.567-1.355
		c-0.378-0.345-0.955-0.518-1.732-0.518H92.82c-0.736,0-1.298,0.167-1.686,0.502c-0.388,0.335-0.582,0.792-0.582,1.37
		c0,0.558,0.186,1.007,0.56,1.347c0.373,0.34,0.942,0.51,1.709,0.51h4.9v15.87c0,0.924,0.209,1.614,0.628,2.071
		c0.418,0.457,0.96,0.685,1.626,0.685c0.655,0,1.087-0.226,1.501-0.678c0.413-0.452,0.62-1.144,0.62-2.078V4.901h4.9
		C107.76,4.901,108.334,4.731,108.718,4.391z"/>
	<path fill="#009849" d="M125.243,23.357c0.877-0.117,1.653-0.317,2.329-0.601c1.079-0.477,1.936-1.215,2.571-2.215
		c0.635-1,0.953-2.124,0.953-3.373c0-2.7-1.457-4.517-4.371-5.451c2.218-1.035,3.327-2.67,3.327-4.903
		c0-0.65-0.106-1.266-0.318-1.85c-0.212-0.584-0.519-1.117-0.923-1.599c-0.403-0.482-0.867-0.88-1.391-1.195
		c-0.615-0.375-1.311-0.629-2.087-0.761c-0.777-0.132-1.694-0.198-2.752-0.198h-7.235c-0.958,0-1.651,0.216-2.08,0.647
		c-0.429,0.432-0.643,1.14-0.643,2.124v16.779c0,0.964,0.209,1.667,0.628,2.109c0.418,0.442,1.116,0.662,2.095,0.662h6.826
		C123.343,23.532,124.366,23.474,125.243,23.357z M125.364,14.381c0.786,0.508,1.18,1.325,1.18,2.451
		c0,2.203-1.518,3.304-4.552,3.304h-4.824V13.62h4.673C123.403,13.62,124.578,13.874,125.364,14.381z M120.812,4.606
		c1.633,0,2.848,0.185,3.645,0.556c0.796,0.371,1.195,1.119,1.195,2.246c0,0.528-0.126,1.005-0.378,1.431
		c-0.323,0.599-0.789,1.005-1.399,1.218c-0.61,0.213-1.475,0.32-2.594,0.32h-4.114V4.606H120.812z"/>
	<g>
		<g>
			<path fill="#253775" d="M40.515,26.903h-0.246c-0.148,0-0.256,0.013-0.323,0.04c-0.067,0.026-0.116,0.074-0.149,0.142
				c-0.032,0.069-0.069,0.18-0.11,0.335l-0.57,2.119l-0.57-2.119c-0.041-0.155-0.078-0.267-0.11-0.335
				c-0.032-0.069-0.082-0.116-0.149-0.142c-0.067-0.026-0.174-0.04-0.323-0.04h-0.246c-0.152,0-0.272,0.029-0.362,0.088
				c-0.089,0.059-0.134,0.173-0.134,0.342v3.061c0,0.149,0.034,0.261,0.102,0.334c0.068,0.073,0.155,0.11,0.263,0.11
				c0.111,0,0.2-0.037,0.266-0.111c0.067-0.074,0.101-0.185,0.101-0.333v-2.671l0.629,2.465c0.021,0.081,0.042,0.159,0.063,0.234
				c0.021,0.075,0.049,0.143,0.084,0.205c0.036,0.062,0.086,0.112,0.15,0.152c0.064,0.04,0.143,0.059,0.236,0.059
				c0.123,0,0.219-0.031,0.289-0.092c0.07-0.062,0.117-0.13,0.143-0.205c0.026-0.075,0.059-0.192,0.1-0.352l0.629-2.465v2.671
				c0,0.148,0.034,0.259,0.102,0.333c0.068,0.074,0.154,0.111,0.26,0.111c0.112,0,0.202-0.037,0.269-0.111
				c0.067-0.074,0.1-0.185,0.1-0.333v-3.061c0-0.169-0.045-0.283-0.134-0.342C40.788,26.932,40.667,26.903,40.515,26.903z
				 M45.727,26.837c-0.064,0-0.119,0.011-0.163,0.034c-0.045,0.023-0.085,0.056-0.122,0.099c-0.037,0.043-0.07,0.089-0.101,0.139
				c-0.03,0.049-0.068,0.11-0.112,0.182l-0.742,1.174l-0.734-1.174c-0.112-0.181-0.197-0.302-0.253-0.363
				c-0.056-0.061-0.139-0.091-0.248-0.091c-0.104,0-0.191,0.033-0.261,0.098c-0.071,0.065-0.106,0.142-0.106,0.232
				c0,0.055,0.017,0.119,0.052,0.193c0.035,0.074,0.094,0.177,0.178,0.309l0.959,1.465v1.227c0,0.162,0.037,0.282,0.11,0.36
				c0.073,0.078,0.169,0.117,0.286,0.117c0.116,0,0.212-0.04,0.287-0.119c0.075-0.079,0.112-0.199,0.112-0.359v-1.227l0.983-1.486
				c0.082-0.121,0.14-0.216,0.174-0.285c0.034-0.069,0.051-0.137,0.051-0.206c0-0.084-0.033-0.159-0.1-0.223
				C45.91,26.869,45.827,26.837,45.727,26.837z M50.213,27.568c-0.048-0.125-0.088-0.225-0.119-0.299
				c-0.031-0.075-0.07-0.145-0.115-0.21c-0.046-0.065-0.105-0.118-0.18-0.16c-0.074-0.041-0.166-0.062-0.277-0.062
				c-0.109,0-0.2,0.021-0.275,0.062c-0.074,0.041-0.134,0.096-0.179,0.162c-0.046,0.067-0.088,0.151-0.129,0.252
				c-0.04,0.101-0.075,0.188-0.103,0.26l-1.004,2.512c-0.041,0.1-0.071,0.179-0.088,0.235c-0.018,0.056-0.027,0.111-0.027,0.163
				c0,0.092,0.038,0.173,0.115,0.245c0.077,0.072,0.165,0.108,0.265,0.108c0.118,0,0.203-0.034,0.255-0.102
				c0.052-0.068,0.114-0.198,0.187-0.392l0.187-0.496h1.596l0.187,0.486c0.025,0.06,0.055,0.129,0.09,0.207
				c0.035,0.078,0.067,0.137,0.098,0.174s0.068,0.068,0.113,0.09c0.044,0.022,0.098,0.033,0.161,0.033
				c0.107,0,0.199-0.038,0.275-0.112c0.076-0.075,0.114-0.157,0.114-0.247c0-0.086-0.04-0.224-0.12-0.414L50.213,27.568z
				 M48.935,29.26l0.581-1.597l0.592,1.597H48.935z M56.241,26.837c-0.111,0-0.198,0.037-0.264,0.112
				c-0.065,0.075-0.098,0.187-0.098,0.336v2.301l-1.529-2.28c-0.043-0.067-0.084-0.131-0.125-0.193
				c-0.04-0.062-0.079-0.112-0.118-0.15c-0.038-0.039-0.083-0.069-0.134-0.092c-0.051-0.023-0.112-0.034-0.183-0.034
				c-0.091,0-0.176,0.025-0.255,0.075c-0.079,0.05-0.135,0.115-0.169,0.194c-0.029,0.072-0.043,0.172-0.043,0.298v2.985
				c0,0.146,0.034,0.257,0.102,0.334c0.068,0.077,0.158,0.115,0.27,0.115c0.109,0,0.198-0.038,0.268-0.114
				c0.07-0.076,0.104-0.187,0.104-0.335v-2.267l1.492,2.254c0.043,0.062,0.086,0.122,0.128,0.181
				c0.043,0.059,0.089,0.11,0.139,0.154c0.05,0.044,0.104,0.076,0.161,0.096c0.057,0.02,0.122,0.03,0.193,0.03
				c0.286,0,0.429-0.17,0.429-0.509v-3.043c0-0.149-0.033-0.262-0.099-0.336C56.445,26.874,56.355,26.837,56.241,26.837z
				 M62.109,26.903h-0.246c-0.148,0-0.256,0.013-0.323,0.04c-0.067,0.026-0.117,0.074-0.149,0.142
				c-0.032,0.069-0.069,0.18-0.11,0.335l-0.57,2.119l-0.57-2.119c-0.041-0.155-0.078-0.267-0.11-0.335
				c-0.032-0.069-0.082-0.116-0.149-0.142c-0.067-0.026-0.174-0.04-0.323-0.04h-0.246c-0.152,0-0.272,0.029-0.362,0.088
				c-0.089,0.059-0.134,0.173-0.134,0.342v3.061c0,0.149,0.034,0.261,0.102,0.334s0.155,0.11,0.262,0.11
				c0.111,0,0.2-0.037,0.266-0.111c0.067-0.074,0.101-0.185,0.101-0.333v-2.671l0.629,2.465c0.021,0.081,0.042,0.159,0.063,0.234
				c0.02,0.075,0.049,0.143,0.084,0.205c0.036,0.062,0.086,0.112,0.15,0.152c0.064,0.04,0.143,0.059,0.236,0.059
				c0.123,0,0.22-0.031,0.289-0.092c0.07-0.062,0.117-0.13,0.143-0.205c0.026-0.075,0.059-0.192,0.101-0.352l0.629-2.465v2.671
				c0,0.148,0.034,0.259,0.102,0.333c0.068,0.074,0.154,0.111,0.26,0.111c0.112,0,0.202-0.037,0.269-0.111
				c0.067-0.074,0.1-0.185,0.1-0.333v-3.061c0-0.169-0.045-0.283-0.134-0.342C62.381,26.932,62.26,26.903,62.109,26.903z
				 M67.226,27.568c-0.048-0.125-0.088-0.225-0.119-0.299c-0.031-0.075-0.07-0.145-0.115-0.21c-0.045-0.065-0.105-0.118-0.179-0.16
				c-0.074-0.041-0.167-0.062-0.277-0.062c-0.109,0-0.2,0.021-0.274,0.062c-0.074,0.041-0.134,0.096-0.18,0.162
				c-0.045,0.067-0.088,0.151-0.128,0.252c-0.04,0.101-0.075,0.188-0.103,0.26l-1.004,2.512c-0.041,0.1-0.07,0.179-0.088,0.235
				c-0.018,0.056-0.027,0.111-0.027,0.163c0,0.092,0.038,0.173,0.115,0.245c0.077,0.072,0.165,0.108,0.265,0.108
				c0.118,0,0.203-0.034,0.254-0.102c0.052-0.068,0.114-0.198,0.187-0.392l0.187-0.496h1.596l0.188,0.486
				c0.025,0.06,0.055,0.129,0.09,0.207c0.035,0.078,0.067,0.137,0.098,0.174s0.068,0.068,0.112,0.09
				c0.045,0.022,0.098,0.033,0.161,0.033c0.107,0,0.199-0.038,0.275-0.112c0.076-0.075,0.114-0.157,0.114-0.247
				c0-0.086-0.04-0.224-0.12-0.414L67.226,27.568z M65.949,29.26l0.581-1.597l0.592,1.597H65.949z M74.961,26.903h-2.528
				c-0.13,0-0.23,0.029-0.299,0.087c-0.069,0.058-0.103,0.137-0.103,0.237c0,0.097,0.033,0.175,0.099,0.234
				c0.066,0.059,0.167,0.089,0.303,0.089h0.868v2.81c0,0.16,0.037,0.28,0.111,0.359c0.074,0.079,0.17,0.119,0.288,0.119
				c0.116,0,0.211-0.039,0.284-0.117c0.073-0.078,0.11-0.198,0.11-0.36v-2.81h0.868c0.136,0,0.237-0.029,0.305-0.089
				c0.068-0.059,0.102-0.137,0.102-0.234c0-0.097-0.034-0.175-0.1-0.235S75.098,26.903,74.961,26.903z M79.986,27.081
				c-0.292-0.163-0.641-0.244-1.048-0.244c-0.3,0-0.568,0.046-0.803,0.138c-0.236,0.092-0.436,0.226-0.6,0.4
				c-0.164,0.174-0.29,0.385-0.376,0.633c-0.087,0.248-0.13,0.521-0.13,0.818c0,0.29,0.042,0.56,0.125,0.81s0.206,0.464,0.368,0.641
				c0.162,0.178,0.365,0.315,0.608,0.413c0.243,0.098,0.518,0.146,0.825,0.146c0.309,0,0.583-0.048,0.822-0.143
				c0.239-0.095,0.441-0.232,0.605-0.412c0.164-0.179,0.287-0.391,0.37-0.636c0.082-0.244,0.123-0.516,0.123-0.815
				c0-0.405-0.075-0.757-0.225-1.057C80.499,27.475,80.278,27.244,79.986,27.081z M79.917,29.6
				c-0.101,0.209-0.237,0.364-0.407,0.464c-0.171,0.1-0.358,0.151-0.561,0.151c-0.159,0-0.305-0.029-0.438-0.087
				c-0.133-0.058-0.251-0.146-0.354-0.263c-0.103-0.117-0.182-0.264-0.238-0.442c-0.056-0.178-0.084-0.376-0.084-0.596
				c0-0.218,0.028-0.415,0.084-0.59c0.056-0.175,0.133-0.319,0.23-0.431s0.213-0.198,0.348-0.257
				c0.135-0.059,0.282-0.089,0.44-0.089c0.223,0,0.421,0.053,0.593,0.16c0.172,0.106,0.305,0.264,0.398,0.471
				c0.093,0.208,0.139,0.453,0.139,0.736C80.068,29.133,80.018,29.391,79.917,29.6z M85.941,26.837c-0.12,0-0.215,0.039-0.286,0.117
				c-0.071,0.078-0.107,0.197-0.107,0.357v1.919c0,0.331-0.064,0.578-0.193,0.74c-0.128,0.163-0.348,0.244-0.659,0.244
				c-0.225,0-0.4-0.04-0.525-0.12s-0.212-0.193-0.261-0.338c-0.049-0.145-0.074-0.326-0.074-0.542v-1.903
				c0-0.158-0.036-0.277-0.109-0.356c-0.072-0.079-0.17-0.119-0.293-0.119c-0.118,0-0.213,0.039-0.285,0.119
				c-0.072,0.079-0.109,0.198-0.109,0.356v1.86c0,0.292,0.032,0.543,0.096,0.753c0.064,0.21,0.165,0.383,0.302,0.517
				c0.138,0.135,0.315,0.234,0.533,0.298c0.218,0.064,0.478,0.096,0.779,0.096c0.254,0,0.475-0.03,0.664-0.09
				c0.189-0.06,0.355-0.155,0.498-0.285c0.166-0.153,0.279-0.331,0.339-0.533c0.06-0.202,0.09-0.455,0.09-0.757v-1.86
				c0-0.16-0.037-0.279-0.111-0.357C86.157,26.876,86.061,26.837,85.941,26.837z M91.625,29.812
				c-0.101-0.163-0.216-0.316-0.344-0.461c-0.128-0.144-0.263-0.253-0.404-0.327c0.336-0.072,0.586-0.194,0.751-0.367
				c0.165-0.172,0.248-0.403,0.248-0.691c0-0.141-0.024-0.274-0.074-0.4c-0.049-0.126-0.121-0.236-0.216-0.331
				c-0.095-0.095-0.203-0.168-0.327-0.219c-0.102-0.046-0.216-0.076-0.343-0.091s-0.279-0.022-0.458-0.022h-1.294
				c-0.172,0-0.296,0.038-0.372,0.113c-0.077,0.076-0.115,0.198-0.115,0.367v2.977c0,0.157,0.035,0.275,0.104,0.356
				c0.07,0.081,0.168,0.121,0.295,0.121c0.118,0,0.213-0.039,0.286-0.116c0.073-0.077,0.11-0.198,0.11-0.362v-1.243h0.278
				c0.141,0,0.258,0.018,0.351,0.055c0.093,0.037,0.184,0.106,0.274,0.206c0.09,0.1,0.192,0.246,0.307,0.438l0.319,0.523
				c0.075,0.123,0.134,0.216,0.178,0.28c0.044,0.063,0.096,0.116,0.157,0.157c0.061,0.041,0.136,0.062,0.225,0.062
				c0.075,0,0.141-0.015,0.198-0.044c0.057-0.029,0.102-0.069,0.135-0.119c0.033-0.05,0.049-0.101,0.049-0.152
				c0-0.049-0.028-0.139-0.084-0.271C91.805,30.122,91.726,29.975,91.625,29.812z M90.668,28.506
				c-0.13,0.033-0.291,0.049-0.482,0.049h-0.712v-1.063h0.734c0.273,0,0.456,0.019,0.549,0.058c0.098,0.04,0.175,0.102,0.23,0.183
				c0.055,0.082,0.083,0.176,0.083,0.284c0,0.137-0.034,0.245-0.103,0.323C90.898,28.418,90.798,28.473,90.668,28.506z
				 M94.535,26.837c-0.116,0-0.211,0.039-0.284,0.119c-0.073,0.079-0.11,0.198-0.11,0.356v3.048c0,0.158,0.037,0.278,0.111,0.358
				s0.168,0.12,0.283,0.12c0.12,0,0.216-0.04,0.291-0.119c0.074-0.079,0.111-0.199,0.111-0.359v-3.048
				c0-0.16-0.037-0.279-0.111-0.357C94.751,26.876,94.654,26.837,94.535,26.837z M99.889,28.782
				c-0.126-0.088-0.278-0.163-0.458-0.224c-0.179-0.062-0.38-0.118-0.601-0.169c-0.177-0.044-0.304-0.077-0.38-0.1
				c-0.077-0.023-0.153-0.055-0.228-0.095c-0.075-0.04-0.134-0.089-0.177-0.145c-0.043-0.056-0.064-0.123-0.064-0.201
				c0-0.125,0.063-0.232,0.189-0.321c0.126-0.089,0.291-0.133,0.497-0.133c0.221,0,0.382,0.041,0.482,0.123
				c0.1,0.082,0.186,0.196,0.257,0.342c0.055,0.102,0.107,0.175,0.154,0.22c0.047,0.045,0.117,0.067,0.208,0.067
				c0.1,0,0.183-0.037,0.25-0.112c0.067-0.075,0.1-0.159,0.1-0.252c0-0.102-0.027-0.207-0.08-0.314
				c-0.054-0.107-0.138-0.21-0.254-0.307c-0.116-0.098-0.262-0.176-0.438-0.235c-0.176-0.059-0.384-0.088-0.625-0.088
				c-0.302,0-0.564,0.044-0.787,0.133c-0.223,0.089-0.394,0.216-0.512,0.381s-0.177,0.354-0.177,0.567
				c0,0.224,0.056,0.41,0.167,0.561c0.112,0.15,0.262,0.269,0.453,0.356c0.19,0.087,0.426,0.163,0.708,0.228
				c0.211,0.047,0.379,0.092,0.505,0.135c0.126,0.042,0.229,0.103,0.308,0.183c0.079,0.08,0.119,0.184,0.119,0.313
				c0,0.162-0.074,0.297-0.221,0.405c-0.147,0.108-0.339,0.162-0.574,0.162c-0.172,0-0.31-0.027-0.415-0.081
				c-0.105-0.054-0.187-0.122-0.245-0.204c-0.058-0.083-0.112-0.186-0.162-0.309c-0.041-0.104-0.091-0.182-0.149-0.235
				s-0.129-0.079-0.213-0.079c-0.104,0-0.189,0.034-0.256,0.102c-0.067,0.068-0.101,0.149-0.101,0.244
				c0,0.164,0.056,0.332,0.167,0.505c0.112,0.173,0.257,0.312,0.435,0.416c0.252,0.144,0.571,0.216,0.959,0.216
				c0.323,0,0.603-0.053,0.838-0.158c0.236-0.105,0.415-0.251,0.537-0.438c0.122-0.186,0.183-0.397,0.183-0.631
				c0-0.195-0.035-0.36-0.106-0.495C100.113,28.981,100.015,28.87,99.889,28.782z M105.812,26.903h-0.246
				c-0.148,0-0.256,0.013-0.323,0.04c-0.067,0.026-0.117,0.074-0.149,0.142c-0.032,0.069-0.069,0.18-0.11,0.335l-0.57,2.119
				l-0.57-2.119c-0.041-0.155-0.078-0.267-0.11-0.335c-0.032-0.069-0.082-0.116-0.149-0.142c-0.067-0.026-0.174-0.04-0.323-0.04
				h-0.246c-0.152,0-0.272,0.029-0.362,0.088c-0.089,0.059-0.134,0.173-0.134,0.342v3.061c0,0.149,0.034,0.261,0.102,0.334
				c0.068,0.073,0.155,0.11,0.262,0.11c0.111,0,0.2-0.037,0.267-0.111c0.067-0.074,0.1-0.185,0.1-0.333v-2.671l0.629,2.465
				c0.021,0.081,0.042,0.159,0.063,0.234c0.02,0.075,0.049,0.143,0.084,0.205c0.036,0.062,0.086,0.112,0.15,0.152
				c0.064,0.04,0.143,0.059,0.236,0.059c0.123,0,0.22-0.031,0.289-0.092c0.07-0.062,0.117-0.13,0.143-0.205
				c0.026-0.075,0.059-0.192,0.1-0.352l0.629-2.465v2.671c0,0.148,0.034,0.259,0.102,0.333c0.068,0.074,0.154,0.111,0.26,0.111
				c0.112,0,0.202-0.037,0.269-0.111c0.067-0.074,0.1-0.185,0.1-0.333v-3.061c0-0.169-0.045-0.283-0.134-0.342
				C106.084,26.932,105.964,26.903,105.812,26.903z M113.83,28.724c0.393-0.179,0.589-0.463,0.589-0.85
				c0-0.113-0.019-0.219-0.056-0.321c-0.037-0.101-0.092-0.194-0.163-0.277c-0.071-0.084-0.154-0.153-0.247-0.207
				c-0.109-0.065-0.232-0.109-0.37-0.132c-0.137-0.023-0.3-0.034-0.487-0.034h-1.272c-0.17,0-0.292,0.037-0.368,0.112
				c-0.076,0.075-0.114,0.198-0.114,0.368v2.908c0,0.167,0.037,0.289,0.111,0.365c0.074,0.077,0.198,0.115,0.371,0.115h1.2
				c0.207,0,0.388-0.01,0.544-0.03c0.155-0.02,0.293-0.055,0.413-0.104c0.191-0.083,0.343-0.211,0.455-0.384
				c0.112-0.173,0.169-0.368,0.169-0.584C114.604,29.201,114.346,28.886,113.83,28.724z M112.137,27.491h0.645
				c0.289,0,0.504,0.032,0.646,0.096c0.141,0.064,0.211,0.194,0.211,0.389c0,0.092-0.022,0.174-0.067,0.248
				c-0.057,0.104-0.14,0.174-0.248,0.211c-0.108,0.037-0.261,0.055-0.459,0.055h-0.728V27.491z M112.992,30.183h-0.854v-1.13h0.827
				c0.277,0,0.485,0.044,0.624,0.132c0.139,0.088,0.209,0.23,0.209,0.425C113.798,29.992,113.529,30.183,112.992,30.183z
				 M118.878,27.568c-0.048-0.125-0.088-0.225-0.119-0.299c-0.031-0.075-0.07-0.145-0.115-0.21c-0.046-0.065-0.105-0.118-0.179-0.16
				c-0.074-0.041-0.167-0.062-0.277-0.062c-0.109,0-0.2,0.021-0.274,0.062c-0.074,0.041-0.134,0.096-0.179,0.162
				c-0.045,0.067-0.088,0.151-0.128,0.252c-0.04,0.101-0.075,0.188-0.103,0.26l-1.004,2.512c-0.041,0.1-0.071,0.179-0.088,0.235
				c-0.018,0.056-0.027,0.111-0.027,0.163c0,0.092,0.038,0.173,0.115,0.245c0.077,0.072,0.165,0.108,0.265,0.108
				c0.118,0,0.203-0.034,0.255-0.102c0.052-0.068,0.114-0.198,0.187-0.392l0.187-0.496h1.596l0.187,0.486
				c0.025,0.06,0.055,0.129,0.09,0.207c0.035,0.078,0.067,0.137,0.098,0.174s0.068,0.068,0.113,0.09
				c0.044,0.022,0.098,0.033,0.161,0.033c0.107,0,0.199-0.038,0.275-0.112c0.076-0.075,0.114-0.157,0.114-0.247
				c0-0.086-0.04-0.224-0.12-0.414L118.878,27.568z M117.6,29.26l0.581-1.597l0.592,1.597H117.6z M124.906,26.837
				c-0.111,0-0.199,0.037-0.264,0.112c-0.065,0.075-0.098,0.187-0.098,0.336v2.301l-1.529-2.28
				c-0.043-0.067-0.084-0.131-0.125-0.193c-0.04-0.062-0.08-0.112-0.118-0.15c-0.039-0.039-0.083-0.069-0.134-0.092
				c-0.051-0.023-0.112-0.034-0.183-0.034c-0.091,0-0.176,0.025-0.255,0.075c-0.078,0.05-0.135,0.115-0.169,0.194
				c-0.029,0.072-0.043,0.172-0.043,0.298v2.985c0,0.146,0.034,0.257,0.102,0.334c0.068,0.077,0.158,0.115,0.27,0.115
				c0.109,0,0.198-0.038,0.268-0.114c0.07-0.076,0.104-0.187,0.104-0.335v-2.267l1.492,2.254c0.043,0.062,0.086,0.122,0.129,0.181
				c0.043,0.059,0.089,0.11,0.139,0.154c0.05,0.044,0.104,0.076,0.161,0.096c0.057,0.02,0.122,0.03,0.193,0.03
				c0.286,0,0.428-0.17,0.428-0.509v-3.043c0-0.149-0.033-0.262-0.099-0.336C125.111,26.874,125.021,26.837,124.906,26.837z
				 M131.028,30.279c-0.039-0.082-0.098-0.177-0.177-0.286l-1.114-1.573l0.967-0.903c0.12-0.112,0.18-0.226,0.18-0.34
				c0-0.095-0.035-0.176-0.106-0.242c-0.07-0.066-0.163-0.099-0.277-0.099c-0.088,0-0.158,0.018-0.21,0.055
				c-0.053,0.037-0.117,0.094-0.192,0.172l-1.561,1.604v-1.357c0-0.16-0.037-0.279-0.111-0.357
				c-0.074-0.078-0.171-0.117-0.291-0.117c-0.121,0-0.217,0.039-0.288,0.119c-0.071,0.079-0.106,0.198-0.106,0.356v2.877
				c0,0.123,0.003,0.217,0.008,0.282c0.005,0.065,0.02,0.122,0.045,0.172c0.034,0.06,0.082,0.107,0.145,0.143
				c0.063,0.035,0.128,0.053,0.196,0.053c0.118,0,0.214-0.039,0.289-0.117c0.075-0.078,0.112-0.198,0.112-0.36v-0.8l0.651-0.615
				l0.94,1.425c0.037,0.063,0.08,0.134,0.128,0.211c0.048,0.077,0.107,0.139,0.177,0.186c0.07,0.047,0.16,0.07,0.27,0.07
				c0.118,0,0.211-0.032,0.28-0.095c0.069-0.063,0.103-0.138,0.103-0.224C131.087,30.441,131.067,30.361,131.028,30.279z"/>
		</g>
	</g>
</g>
</svg>
