<?xml version="1.0" encoding="utf-8"?>
<!-- Generator: Adobe Illustrator 17.0.0, SVG Export Plug-In . SVG Version: 6.00 Build 0)  -->
<!DOCTYPE svg PUBLIC "-//W3C//DTD SVG 1.1//EN" "http://www.w3.org/Graphics/SVG/1.1/DTD/svg11.dtd">
<svg version="1.1" id="Layer_1" xmlns="http://www.w3.org/2000/svg" xmlns:xlink="http://www.w3.org/1999/xlink" x="0px" y="0px"
	 width="842.35px" height="595.3px" viewBox="0 0 842.35 595.3" enable-background="new 0 0 842.35 595.3" xml:space="preserve">
<path fill="#D62027" d="M420.883,528.786v27.05c0,0-64.156,10.852-145.417,16.06c-29.17,1.241-60.298-0.485-90.923-2.037
	c-68.267-10.443-95.074-24.354-83.765-78.135c0,0,2.479-24.267,71.932-112.78c22.754-27.368,52.572-58.612,91.614-98.587
	l24.929,16.027c0,0-11.616,33.415-42.896,91.792c-26.909,49.276-58.822,104.547-58.822,104.547L420.883,528.786z"/>
<g>
	<g>
		<path fill="#253775" d="M577.087,278.036c0,0-7.57-21.998-19.443-54.092c-19.425-52.514-51.592-131.293-90.065-179.317
			c-17.015-17.066-32.872-22.845-47.028-21.98c-14.16-0.865-30.013,4.911-47.028,21.98c-38.474,48.024-70.64,126.802-90.066,179.317
			c-11.873,32.094-19.443,54.092-19.443,54.092l-7.389,11.019l27.053,22.038l8.992-17.03l127.884-179.237l127.884,179.237
			l9.21,17.03l26.608-22.038L577.087,278.036z"/>
	</g>
</g>
<path fill="#009749" d="M420.435,528.583v27.003c0,0,64.116,10.639,145.627,16.034c31.359,2.077,61.88,0.347,91.053-2.03
	c68.368-10.429,95.215-24.321,83.888-78.012c0,0-2.482-24.231-72.037-112.599c-22.787-27.325-45.661-50.502-84.764-90.413
	l-26.959,22.009c0,0,6.644,19.338,37.971,77.624c26.948,49.192,57.906,104.381,57.906,104.381L420.435,528.583z"/>
</svg>
