<?xml version="1.0" encoding="UTF-8"?>
<svg width="1113px" height="70px" viewBox="0 0 1113 70" version="1.1" xmlns="http://www.w3.org/2000/svg" xmlns:xlink="http://www.w3.org/1999/xlink">
    <!-- Generator: Sketch 48.2 (47327) - http://www.bohemiancoding.com/sketch -->
    <title>Page 1</title>
    <desc>Created with Sketch.</desc>
    <defs></defs>
    <g id="retail-dashboard-final-copy" stroke="none" stroke-width="1" fill="none" fill-rule="evenodd" transform="translate(-141.000000, 0.000000)" opacity="0.400000006">
        <g id="toolbar" transform="translate(-147.000000, -451.000000)" fill="#681052">
            <g id="Page-1" transform="translate(147.000000, 451.000000)">
                <g transform="translate(694.444411, 33.706005) rotate(-360.000000) translate(-694.444411, -33.706005) translate(16.944411, -492.793995)">
                    <path d="M0.479504201,365.18996 L-4.54747351e-13,364.029715 L777.070809,22.0302719 C907.632953,-35.4360085 1060.25229,23.3952667 1117.86129,153.47927 L1118.4093,154.639515 L341.338491,496.707208 C210.707846,554.173488 58.1570096,495.273963 0.479504201,365.18996" id="Fill-1"></path>
                    <path d="M237.375671,898.928537 L236.896535,897.768228 L1013.37032,555.750316 C1143.83215,498.280933 1296.33423,557.115385 1353.96742,687.206413 L1354.44656,688.366721 L577.972775,1030.45289 C447.510942,1087.92227 295.008863,1029.01956 237.375671,898.928537" id="Fill-3"></path>
                    <path d="M219.851296,865.3857 L220.327651,866.542326 L992.363286,525.541702 C1122.068,468.254685 1180.72773,316.73665 1123.42901,187.05844 L1122.95265,185.901814 L350.917019,526.834401 C221.280361,584.121418 162.552573,735.707489 219.851296,865.3857" id="Fill-6"></path>
                </g>
            </g>
        </g>
    </g>
</svg>