<svg xmlns="http://www.w3.org/2000/svg" width="120.25" height="120.25" viewBox="0 0 120.25 120.25"><path fill="#F7F7F7" d="M61.334 115.25h.078-.078z"/><linearGradient id="a" gradientUnits="userSpaceOnUse" x1="45.226" y1="65.78" x2="95.35" y2="115.903"><stop offset="0" stop-opacity=".3"/><stop offset=".995" stop-color="#fff" stop-opacity="0"/></linearGradient><path fill="url(#a)" d="M94.696 116.555l1.305-1.305h-2.609z"/><path fill="#F7F7F7" d="M60.334 3.584c-31.614 0-57.334 25.72-57.334 57.334 0 31.613 25.72 57.333 57.334 57.333 31.613 0 57.333-25.719 57.333-57.333 0-31.614-25.72-57.334-57.333-57.334zm22.582 47.432c0 12.527-10.156 22.684-22.684 22.684-6.178 0-11.777-2.474-15.868-6.48l-.002.002 14.456 14.456c.559-.016 1.117-.033 1.682-.033 16.555 0 30.773 7.375 37.803 18.124 7.526-7.357 12.924-16.878 15.183-27.562l-36.857-36.857c3.892 4.072 6.287 9.588 6.287 15.666z"/><linearGradient id="b" gradientUnits="userSpaceOnUse" x1="59.608" y1="50.398" x2="109.732" y2="100.522"><stop offset="0" stop-opacity=".2"/><stop offset=".995" stop-color="#fff" stop-opacity="0"/></linearGradient><path fill="url(#b)" d="M82.916 51.016c0 12.527-10.156 22.684-22.684 22.684-6.178 0-11.777-2.474-15.868-6.48l-.002.002 14.456 14.456c.559-.016 1.117-.033 1.682-.033 16.555 0 30.773 7.375 37.803 18.124 7.526-7.357 12.924-16.878 15.183-27.562l-36.857-36.857c3.892 4.072 6.287 9.588 6.287 15.666z"/><path fill="#F7F7F7" d="M75.893 34.613l.003.005z"/><linearGradient id="c" gradientUnits="userSpaceOnUse" x1="75.643" y1="34.364" x2="108.789" y2="67.509"><stop offset="0" stop-opacity=".3"/><stop offset=".995" stop-color="#fff" stop-opacity="0"/></linearGradient><path fill="url(#c)" d="M75.893 34.613l.003.005z"/><path fill="#64C6C1" d="M75.896 34.618l.732.731c-.237-.249-.482-.493-.732-.731zm.733.732l-.732-.731-.004-.005c-4.072-3.889-9.585-6.282-15.66-6.282-12.527 0-22.685 10.156-22.685 22.684 0 6.35 2.612 12.086 6.816 16.203 4.091 4.007 9.69 6.48 15.868 6.48 12.527 0 22.684-10.157 22.684-22.684 0-6.077-2.395-11.593-6.287-15.665z"/><path fill="#1B6D69" d="M60.5 81.644c-.564 0-1.123.017-1.682.033-15.922.484-29.484 7.81-36.236 18.299 9.768 9.441 23.057 15.274 37.713 15.274h.078c9.257 0 17.97-2.333 25.596-6.422 4.537-2.433 8.684-5.494 12.334-9.061-7.03-10.748-21.248-18.123-37.803-18.123z"/></svg>