<?xml version="1.0" encoding="utf-8"?>
<!-- Generator: Adobe Illustrator 23.0.1, SVG Export Plug-In . SVG Version: 6.00 Build 0)  -->
<svg version="1.1" id="Layer_1" xmlns="http://www.w3.org/2000/svg" xmlns:xlink="http://www.w3.org/1999/xlink" x="0px" y="0px"
	 viewBox="0 0 50 50" style="enable-background:new 0 0 50 50;" xml:space="preserve">
<style type="text/css">
	.st0{fill:#FFFFFF;}
	.st1{fill:#FF7443;}
	.st2{fill:#48515A;}
	.st3{fill:#414042;}
	.st4{fill:#9ECFEF;}
	.st5{fill:#FFCE44;}
	.st6{fill:#FFE167;}
	.st7{fill:#F5CC73;}
	.st8{clip-path:url(#SVGID_2_);}
	.st9{clip-path:url(#SVGID_4_);}
	.st10{clip-path:url(#SVGID_6_);}
	.st11{clip-path:url(#SVGID_8_);}
	.st12{clip-path:url(#SVGID_10_);}
	.st13{clip-path:url(#SVGID_12_);}
	.st14{clip-path:url(#SVGID_14_);}
	.st15{clip-path:url(#SVGID_16_);}
	.st16{clip-path:url(#SVGID_18_);}
	.st17{clip-path:url(#SVGID_20_);}
	.st18{clip-path:url(#SVGID_22_);}
	.st19{clip-path:url(#SVGID_24_);}
	.st20{clip-path:url(#SVGID_26_);}
	.st21{clip-path:url(#SVGID_28_);}
	.st22{clip-path:url(#SVGID_30_);}
	.st23{clip-path:url(#SVGID_34_);}
	.st24{clip-path:url(#SVGID_36_);fill:#9ECFEF;}
	.st25{clip-path:url(#SVGID_38_);}
	.st26{clip-path:url(#SVGID_40_);}
	.st27{clip-path:url(#SVGID_42_);}
	.st28{clip-path:url(#SVGID_44_);}
	.st29{clip-path:url(#SVGID_46_);fill:#414042;}
	.st30{clip-path:url(#SVGID_38_);fill-rule:evenodd;clip-rule:evenodd;fill:#414042;}
	.st31{clip-path:url(#SVGID_48_);}
	.st32{clip-path:url(#SVGID_52_);}
	.st33{clip-path:url(#SVGID_56_);}
	.st34{clip-path:url(#SVGID_58_);fill:#F77C4B;}
	.st35{clip-path:url(#SVGID_60_);}
	.st36{clip-path:url(#SVGID_62_);fill:#FFFFFF;}
	.st37{clip-path:url(#SVGID_64_);}
	.st38{clip-path:url(#SVGID_66_);fill:#414042;}
	.st39{clip-path:url(#SVGID_68_);}
	.st40{clip-path:url(#SVGID_70_);fill:#414042;}
	.st41{clip-path:url(#SVGID_72_);}
	.st42{clip-path:url(#SVGID_74_);fill:#414042;}
	.st43{clip-path:url(#SVGID_76_);}
	.st44{clip-path:url(#SVGID_78_);fill:#F77C4B;}
	.st45{clip-path:url(#SVGID_80_);}
	.st46{clip-path:url(#SVGID_82_);fill:#FFFFFF;}
	.st47{clip-path:url(#SVGID_84_);}
	.st48{clip-path:url(#SVGID_86_);fill:#FFFFFF;}
	.st49{clip-path:url(#SVGID_88_);}
	.st50{clip-path:url(#SVGID_90_);fill:#414042;}
	.st51{clip-path:url(#SVGID_92_);}
	.st52{clip-path:url(#SVGID_94_);fill:#414042;}
	.st53{clip-path:url(#SVGID_96_);}
	.st54{clip-path:url(#SVGID_98_);fill:#414042;}
	.st55{clip-path:url(#SVGID_100_);}
	.st56{clip-path:url(#SVGID_102_);fill:#414042;}
	.st57{clip-path:url(#SVGID_104_);}
	.st58{clip-path:url(#SVGID_106_);fill:#414042;}
	.st59{fill:#41464B;}
	.st60{fill:#4CBED8;}
	.st61{fill:none;stroke:#359CDB;stroke-width:0.393;stroke-linecap:round;stroke-linejoin:round;stroke-miterlimit:10;}
	.st62{fill:#AFAFAF;}
	.st63{fill:#FED65C;}
	.st64{clip-path:url(#SVGID_108_);}
	.st65{fill:#4CBDD8;}
	.st66{fill:#F9D264;}
	.st67{fill:#F9BB7D;}
	.st68{fill:#41464B;stroke:#414042;stroke-width:0.4;stroke-linecap:round;stroke-linejoin:round;stroke-miterlimit:10;}
	.st69{clip-path:url(#SVGID_110_);}
	.st70{clip-path:url(#SVGID_112_);}
	.st71{clip-path:url(#SVGID_114_);}
	.st72{clip-path:url(#SVGID_116_);}
	.st73{clip-path:url(#SVGID_118_);}
	.st74{clip-path:url(#SVGID_120_);}
	.st75{clip-path:url(#SVGID_122_);}
	.st76{clip-path:url(#SVGID_124_);fill:#414042;}
	.st77{clip-path:url(#SVGID_126_);}
	.st78{clip-path:url(#SVGID_128_);}
	.st79{clip-path:url(#SVGID_130_);}
	.st80{clip-path:url(#SVGID_132_);}
	.st81{clip-path:url(#SVGID_134_);}
	.st82{clip-path:url(#SVGID_136_);}
	.st83{clip-path:url(#SVGID_138_);}
	.st84{clip-path:url(#SVGID_140_);}
	.st85{clip-path:url(#SVGID_142_);}
	.st86{clip-path:url(#SVGID_144_);}
	.st87{clip-path:url(#SVGID_146_);}
	.st88{clip-path:url(#SVGID_148_);}
	.st89{clip-path:url(#SVGID_150_);}
	.st90{clip-path:url(#SVGID_152_);fill:#FFFFFF;}
	.st91{clip-path:url(#SVGID_154_);}
	.st92{clip-path:url(#SVGID_156_);}
	.st93{clip-path:url(#SVGID_158_);}
	.st94{clip-path:url(#SVGID_160_);}
	.st95{clip-path:url(#SVGID_162_);}
	.st96{clip-path:url(#SVGID_164_);}
	.st97{clip-path:url(#SVGID_166_);}
	.st98{clip-path:url(#SVGID_168_);}
	.st99{clip-path:url(#SVGID_170_);}
	.st100{clip-path:url(#SVGID_172_);}
	.st101{clip-path:url(#SVGID_174_);}
	.st102{clip-path:url(#SVGID_176_);}
	.st103{clip-path:url(#SVGID_178_);}
	.st104{clip-path:url(#SVGID_180_);fill:#414042;}
	.st105{clip-path:url(#SVGID_182_);}
	.st106{clip-path:url(#SVGID_184_);}
	.st107{clip-path:url(#SVGID_186_);}
	.st108{clip-path:url(#SVGID_188_);}
	.st109{clip-path:url(#SVGID_190_);}
	.st110{clip-path:url(#SVGID_192_);}
	.st111{fill:#41464B;stroke:#41464B;stroke-width:0.2;stroke-miterlimit:10;}
	.st112{clip-path:url(#SVGID_194_);}
	.st113{clip-path:url(#SVGID_196_);}
	.st114{clip-path:url(#SVGID_198_);}
	.st115{clip-path:url(#SVGID_200_);}
	.st116{clip-path:url(#SVGID_202_);}
	.st117{clip-path:url(#SVGID_204_);}
	.st118{clip-path:url(#SVGID_206_);}
	.st119{clip-path:url(#SVGID_208_);fill:#414042;}
	.st120{clip-path:url(#SVGID_210_);}
	.st121{clip-path:url(#SVGID_212_);}
	.st122{clip-path:url(#SVGID_214_);}
	.st123{clip-path:url(#SVGID_216_);}
	.st124{clip-path:url(#SVGID_218_);}
	.st125{clip-path:url(#SVGID_220_);}
	.st126{clip-path:url(#SVGID_222_);}
	.st127{clip-path:url(#SVGID_224_);}
	.st128{clip-path:url(#SVGID_226_);}
	.st129{clip-path:url(#SVGID_228_);}
	.st130{clip-path:url(#SVGID_230_);}
	.st131{clip-path:url(#SVGID_232_);}
	.st132{clip-path:url(#SVGID_234_);}
	.st133{clip-path:url(#SVGID_236_);fill:#414042;}
	.st134{clip-path:url(#SVGID_238_);}
	.st135{clip-path:url(#SVGID_240_);}
	.st136{clip-path:url(#SVGID_242_);}
	.st137{clip-path:url(#SVGID_244_);}
	.st138{clip-path:url(#SVGID_246_);}
	.st139{clip-path:url(#SVGID_248_);}
	.st140{fill:#FFD15D;}
	.st141{fill:#475059;}
	.st142{fill:#41464B;stroke:#41464B;stroke-width:0.223;stroke-linecap:round;stroke-linejoin:round;stroke-miterlimit:10;}
	.st143{fill:#41464B;stroke:#41464B;stroke-width:0.223;stroke-miterlimit:10;}
	.st144{fill:#41464B;stroke:#41464B;stroke-width:0.212;stroke-miterlimit:10;}
	.st145{fill:#5FE0ED;}
	.st146{fill:#41464B;stroke:#41464B;stroke-width:0.2104;stroke-miterlimit:10;}
	.st147{fill:#41464B;stroke:#41464B;stroke-width:0.21;stroke-linecap:round;stroke-linejoin:round;stroke-miterlimit:10;}
	.st148{fill:#41464B;stroke:#41464B;stroke-width:0.2086;stroke-linecap:round;stroke-linejoin:round;stroke-miterlimit:10;}
	.st149{fill:#FDBE11;}
	.st150{fill:#41464B;stroke:#41464B;stroke-width:0.2513;stroke-miterlimit:10;}
	.st151{clip-path:url(#SVGID_250_);}
	.st152{clip-path:url(#SVGID_252_);}
	.st153{clip-path:url(#SVGID_254_);}
	.st154{clip-path:url(#SVGID_256_);}
	.st155{clip-path:url(#SVGID_258_);}
	.st156{clip-path:url(#SVGID_260_);}
	.st157{clip-path:url(#SVGID_262_);}
	.st158{clip-path:url(#SVGID_264_);fill:#414042;}
	.st159{clip-path:url(#SVGID_266_);}
	.st160{clip-path:url(#SVGID_268_);}
	.st161{clip-path:url(#SVGID_270_);}
	.st162{clip-path:url(#SVGID_272_);}
	.st163{clip-path:url(#SVGID_274_);}
	.st164{clip-path:url(#SVGID_276_);}
	.st165{clip-path:url(#SVGID_278_);}
	.st166{clip-path:url(#SVGID_280_);}
	.st167{clip-path:url(#SVGID_282_);}
	.st168{clip-path:url(#SVGID_284_);}
	.st169{clip-path:url(#SVGID_286_);}
	.st170{clip-path:url(#SVGID_288_);}
	.st171{clip-path:url(#SVGID_290_);}
	.st172{clip-path:url(#SVGID_292_);fill:#414042;}
	.st173{clip-path:url(#SVGID_294_);}
	.st174{clip-path:url(#SVGID_296_);}
	.st175{clip-path:url(#SVGID_298_);}
	.st176{clip-path:url(#SVGID_300_);}
	.st177{clip-path:url(#SVGID_302_);}
	.st178{clip-path:url(#SVGID_304_);}
	.st179{fill:#DEDEDD;}
	.st180{fill:#41464B;stroke:#41464B;stroke-width:0.2327;stroke-miterlimit:10;}
	.st181{fill:#41464B;stroke:#41464B;stroke-width:0.2327;stroke-linecap:round;stroke-linejoin:round;stroke-miterlimit:10;}
	.st182{fill:#F58E70;}
	.st183{clip-path:url(#SVGID_306_);}
	.st184{fill:#41464B;stroke:#41464B;stroke-width:0.2316;stroke-miterlimit:10;}
	.st185{fill:#FFB936;}
	.st186{fill:#E6E7E8;}
	.st187{clip-path:url(#SVGID_308_);}
	.st188{clip-path:url(#SVGID_310_);}
	.st189{clip-path:url(#SVGID_312_);}
	.st190{clip-path:url(#SVGID_314_);}
	.st191{clip-path:url(#SVGID_316_);}
	.st192{clip-path:url(#SVGID_318_);}
	.st193{clip-path:url(#SVGID_320_);}
	.st194{clip-path:url(#SVGID_322_);fill:#FFFFFF;}
	.st195{clip-path:url(#SVGID_324_);}
	.st196{clip-path:url(#SVGID_326_);}
	.st197{clip-path:url(#SVGID_328_);}
	.st198{clip-path:url(#SVGID_330_);}
	.st199{clip-path:url(#SVGID_332_);}
	.st200{clip-path:url(#SVGID_334_);}
	.st201{clip-path:url(#SVGID_336_);}
	.st202{clip-path:url(#SVGID_338_);}
	.st203{clip-path:url(#SVGID_340_);}
	.st204{clip-path:url(#SVGID_342_);}
	.st205{clip-path:url(#SVGID_344_);}
	.st206{clip-path:url(#SVGID_346_);}
	.st207{clip-path:url(#SVGID_348_);}
	.st208{clip-path:url(#SVGID_350_);fill:#FFFFFF;}
	.st209{clip-path:url(#SVGID_352_);}
	.st210{clip-path:url(#SVGID_354_);}
	.st211{clip-path:url(#SVGID_356_);}
	.st212{clip-path:url(#SVGID_358_);}
	.st213{clip-path:url(#SVGID_360_);}
	.st214{clip-path:url(#SVGID_362_);}
	.st215{clip-path:url(#SVGID_364_);}
	.st216{clip-path:url(#SVGID_366_);}
	.st217{clip-path:url(#SVGID_368_);}
	.st218{clip-path:url(#SVGID_370_);}
	.st219{clip-path:url(#SVGID_372_);}
	.st220{clip-path:url(#SVGID_374_);}
	.st221{clip-path:url(#SVGID_376_);}
	.st222{clip-path:url(#SVGID_378_);fill:#414042;}
	.st223{clip-path:url(#SVGID_380_);}
	.st224{clip-path:url(#SVGID_382_);}
	.st225{clip-path:url(#SVGID_384_);}
	.st226{clip-path:url(#SVGID_386_);}
	.st227{clip-path:url(#SVGID_388_);}
	.st228{clip-path:url(#SVGID_390_);}
	.st229{clip-path:url(#SVGID_392_);}
	.st230{clip-path:url(#SVGID_394_);}
	.st231{clip-path:url(#SVGID_396_);}
	.st232{clip-path:url(#SVGID_398_);}
	.st233{clip-path:url(#SVGID_400_);}
	.st234{clip-path:url(#SVGID_402_);}
	.st235{clip-path:url(#SVGID_404_);}
	.st236{clip-path:url(#SVGID_406_);fill:#414042;}
	.st237{clip-path:url(#SVGID_408_);}
	.st238{clip-path:url(#SVGID_410_);}
	.st239{clip-path:url(#SVGID_412_);}
	.st240{clip-path:url(#SVGID_414_);}
	.st241{clip-path:url(#SVGID_416_);}
	.st242{clip-path:url(#SVGID_418_);}
	.st243{fill:#F9C269;}
	.st244{fill:#7F7F7F;}
	.st245{fill:none;stroke:#41464B;stroke-width:0.223;stroke-linecap:round;stroke-linejoin:round;stroke-miterlimit:10;}
	.st246{clip-path:url(#SVGID_420_);}
	.st247{clip-path:url(#SVGID_422_);}
	.st248{clip-path:url(#SVGID_424_);}
	.st249{clip-path:url(#SVGID_426_);}
	.st250{clip-path:url(#SVGID_428_);}
	.st251{clip-path:url(#SVGID_430_);}
	.st252{clip-path:url(#SVGID_432_);}
	.st253{clip-path:url(#SVGID_434_);fill:#414042;}
	.st254{clip-path:url(#SVGID_436_);}
	.st255{clip-path:url(#SVGID_438_);}
	.st256{clip-path:url(#SVGID_440_);}
	.st257{clip-path:url(#SVGID_442_);}
	.st258{clip-path:url(#SVGID_444_);}
	.st259{clip-path:url(#SVGID_446_);}
	.st260{fill:#F79F63;}
	.st261{clip-path:url(#SVGID_448_);}
	.st262{clip-path:url(#SVGID_450_);}
	.st263{clip-path:url(#SVGID_452_);}
	.st264{clip-path:url(#SVGID_454_);}
	.st265{clip-path:url(#SVGID_456_);}
	.st266{clip-path:url(#SVGID_458_);}
	.st267{clip-path:url(#SVGID_460_);}
	.st268{clip-path:url(#SVGID_462_);fill:#414042;}
	.st269{clip-path:url(#SVGID_464_);}
	.st270{clip-path:url(#SVGID_466_);}
	.st271{clip-path:url(#SVGID_468_);}
	.st272{clip-path:url(#SVGID_470_);}
	.st273{clip-path:url(#SVGID_472_);}
	.st274{clip-path:url(#SVGID_474_);}
	.st275{fill:#FFFFFF;stroke:#41464B;stroke-width:0.5;stroke-linecap:round;stroke-linejoin:round;stroke-miterlimit:10;}
	.st276{fill:#FFFFFF;stroke:#41464B;stroke-width:0.5;stroke-miterlimit:10;}
	.st277{fill:#F79F63;stroke:#41464B;stroke-width:0.5;stroke-linecap:round;stroke-linejoin:round;stroke-miterlimit:10;}
	.st278{fill:none;stroke:#41464B;stroke-width:0.2647;stroke-miterlimit:10;}
	.st279{fill:#E08769;}
	.st280{fill:#DD2241;stroke:#41464B;stroke-width:0.5;stroke-linecap:round;stroke-linejoin:round;stroke-miterlimit:10;}
	.st281{fill:#FFFFFF;stroke:#41464B;stroke-width:0.4;stroke-linecap:round;stroke-linejoin:round;stroke-miterlimit:10;}
	.st282{fill:#2B3D4F;}
	.st283{fill:#41464B;stroke:#41464B;stroke-width:0.3;stroke-miterlimit:10;}
</style>
<g>
	<circle class="st0" cx="31.446" cy="33.173" r="5.751"/>
	<path class="st1" d="M31.531,39.116c-3.306,0-5.996-2.69-5.996-5.996s2.69-5.996,5.996-5.996s5.996,2.69,5.996,5.996
		S34.838,39.116,31.531,39.116 M31.531,27.603c-3.042,0-5.517,2.475-5.517,5.517s2.475,5.517,5.517,5.517s5.517-2.475,5.517-5.517
		S34.573,27.603,31.531,27.603"/>
	<path class="st2" d="M36.336,33.362h-0.959c-0.132,0-0.24-0.107-0.24-0.24c0-0.133,0.107-0.24,0.24-0.24h0.959
		c0.132,0,0.24,0.107,0.24,0.24C36.575,33.255,36.468,33.362,36.336,33.362"/>
	<path class="st2" d="M36.336,33.362h-0.959c-0.132,0-0.24-0.107-0.24-0.24c0-0.133,0.107-0.24,0.24-0.24h0.959
		c0.132,0,0.24,0.107,0.24,0.24C36.575,33.255,36.468,33.362,36.336,33.362"/>
	<path class="st2" d="M33.958,37.553c-0.083,0-0.164-0.043-0.208-0.12l-0.426-0.739c-0.066-0.115-0.027-0.261,0.088-0.328
		c0.114-0.066,0.261-0.027,0.328,0.088l0.426,0.739c0.066,0.115,0.027,0.261-0.088,0.328C34.04,37.543,33.998,37.553,33.958,37.553"
		/>
	<path class="st2" d="M34.922,31.334c-0.083,0-0.164-0.043-0.208-0.12c-0.066-0.115-0.027-0.261,0.088-0.328l0.739-0.426
		c0.115-0.066,0.261-0.027,0.328,0.088c0.066,0.115,0.027,0.261-0.088,0.328l-0.739,0.426
		C35.004,31.324,34.962,31.334,34.922,31.334"/>
	<path class="st2" d="M35.74,35.712c-0.041,0-0.082-0.01-0.12-0.032l-0.739-0.426c-0.115-0.066-0.154-0.213-0.088-0.328
		c0.066-0.115,0.213-0.154,0.328-0.088l0.739,0.427c0.115,0.066,0.154,0.213,0.088,0.328C35.903,35.669,35.823,35.712,35.74,35.712"
		/>
	<path class="st2" d="M33.465,29.844c-0.041,0-0.082-0.01-0.12-0.032c-0.115-0.066-0.154-0.213-0.088-0.328l0.426-0.739
		c0.066-0.115,0.213-0.154,0.328-0.088c0.115,0.066,0.154,0.213,0.088,0.328l-0.426,0.739
		C33.629,29.801,33.548,29.844,33.465,29.844"/>
	<polygon class="st2" points="31.778,36 31.299,36 31.299,32.642 33.697,32.642 33.697,33.122 31.778,33.122 	"/>
	<path class="st2" d="M31.539,29.284c-0.132,0-0.24-0.107-0.24-0.24v-0.72c0-0.133,0.107-0.24,0.24-0.24
		c0.132,0,0.24,0.107,0.24,0.24v0.72C31.778,29.177,31.671,29.284,31.539,29.284"/>
	<path class="st2" d="M31.539,38.159c-0.132,0-0.24-0.107-0.24-0.24V37.2c0-0.133,0.107-0.24,0.24-0.24
		c0.132,0,0.24,0.107,0.24,0.24v0.72C31.778,38.052,31.671,38.159,31.539,38.159"/>
	<path class="st2" d="M27.701,33.362h-0.959c-0.132,0-0.24-0.107-0.24-0.24c0-0.133,0.107-0.24,0.24-0.24h0.959
		c0.132,0,0.24,0.107,0.24,0.24C27.941,33.255,27.833,33.362,27.701,33.362"/>
	<path class="st2" d="M31.539,29.284c-0.132,0-0.24-0.107-0.24-0.24v-0.72c0-0.133,0.107-0.24,0.24-0.24
		c0.132,0,0.24,0.107,0.24,0.24v0.72C31.778,29.177,31.671,29.284,31.539,29.284"/>
	<path class="st2" d="M31.539,38.159c-0.132,0-0.24-0.107-0.24-0.24V37.2c0-0.133,0.107-0.24,0.24-0.24
		c0.132,0,0.24,0.107,0.24,0.24v0.72C31.778,38.052,31.671,38.159,31.539,38.159"/>
	<path class="st2" d="M27.701,33.362h-0.959c-0.132,0-0.24-0.107-0.24-0.24c0-0.133,0.107-0.24,0.24-0.24h0.959
		c0.132,0,0.24,0.107,0.24,0.24C27.941,33.255,27.833,33.362,27.701,33.362"/>
	<path class="st2" d="M29.093,37.553c-0.041,0-0.082-0.01-0.12-0.032c-0.115-0.066-0.154-0.213-0.088-0.328l0.426-0.739
		c0.066-0.115,0.213-0.154,0.328-0.088c0.115,0.066,0.154,0.213,0.088,0.328l-0.426,0.739C29.256,37.51,29.176,37.553,29.093,37.553
		"/>
	<path class="st2" d="M28.129,31.334c-0.041,0-0.082-0.01-0.12-0.032l-0.739-0.426c-0.115-0.066-0.154-0.213-0.088-0.328
		s0.213-0.154,0.328-0.088l0.739,0.426c0.115,0.066,0.154,0.213,0.088,0.328C28.292,31.291,28.212,31.334,28.129,31.334"/>
	<path class="st2" d="M27.311,35.712c-0.083,0-0.164-0.043-0.208-0.12c-0.066-0.115-0.027-0.261,0.088-0.328l0.739-0.427
		c0.114-0.066,0.261-0.027,0.328,0.088c0.066,0.115,0.027,0.261-0.088,0.328l-0.739,0.426
		C27.393,35.702,27.351,35.712,27.311,35.712"/>
	<path class="st2" d="M29.585,29.844c-0.083,0-0.164-0.043-0.208-0.12l-0.426-0.739c-0.066-0.115-0.027-0.261,0.088-0.328
		c0.114-0.067,0.261-0.027,0.328,0.088l0.426,0.739c0.066,0.115,0.027,0.261-0.088,0.328C29.667,29.834,29.626,29.844,29.585,29.844
		"/>
</g>
<g>
	<defs>
		<path id="SVGID_419_" d="M4.688,41.869v-0.582H5.27c0.218,0,0.394-0.177,0.394-0.394c0-0.218-0.177-0.394-0.394-0.394H4.688
			v-0.582c0-0.218-0.177-0.394-0.394-0.394c-0.218,0-0.394,0.177-0.394,0.394v0.582H3.317c-0.218,0-0.394,0.177-0.394,0.394
			c0,0.218,0.177,0.394,0.394,0.394h0.582v0.582c0,0.218,0.177,0.394,0.394,0.394C4.512,42.263,4.688,42.086,4.688,41.869"/>
	</defs>
	<clipPath id="SVGID_2_">
		<use xlink:href="#SVGID_419_"  style="overflow:visible;"/>
	</clipPath>
	<g class="st8">
		<defs>
			<rect id="SVGID_421_" x="2.923" y="9.06" width="44.778" height="35.335"/>
		</defs>
		<clipPath id="SVGID_4_">
			<use xlink:href="#SVGID_421_"  style="overflow:visible;"/>
		</clipPath>
		<g class="st9">
			<rect x="1.4" y="37.998" class="st3" width="5.788" height="5.788"/>
		</g>
	</g>
</g>
<g>
	<defs>
		<path id="SVGID_423_" d="M2.856,12.002h1.353c0.215,0,0.39-0.205,0.39-0.457c0-0.252-0.174-0.457-0.39-0.457H2.856
			c-0.215,0-0.39,0.205-0.39,0.457C2.466,11.798,2.641,12.002,2.856,12.002"/>
	</defs>
	<clipPath id="SVGID_6_">
		<use xlink:href="#SVGID_423_"  style="overflow:visible;"/>
	</clipPath>
	<g class="st10">
		<defs>
			<rect id="SVGID_425_" x="2.161" y="-0.487" width="44.778" height="35.335"/>
		</defs>
		<clipPath id="SVGID_8_">
			<use xlink:href="#SVGID_425_"  style="overflow:visible;"/>
		</clipPath>
		<g class="st11">
			<rect x="0.943" y="9.565" class="st3" width="5.178" height="3.96"/>
		</g>
	</g>
</g>
<g>
	<defs>
		<path id="SVGID_427_" d="M6.319,10.784c0.227,0,0.411-0.205,0.411-0.457c0-0.252-0.184-0.457-0.411-0.457H4.705
			c-0.227,0-0.411,0.205-0.411,0.457c0,0.252,0.184,0.457,0.411,0.457H6.319z"/>
	</defs>
	<clipPath id="SVGID_10_">
		<use xlink:href="#SVGID_427_"  style="overflow:visible;"/>
	</clipPath>
	<g class="st12">
		<defs>
			<rect id="SVGID_429_" x="2.161" y="-0.487" width="44.778" height="35.335"/>
		</defs>
		<clipPath id="SVGID_12_">
			<use xlink:href="#SVGID_429_"  style="overflow:visible;"/>
		</clipPath>
		<g class="st13">
			<rect x="2.771" y="8.347" class="st3" width="5.483" height="3.96"/>
		</g>
	</g>
</g>
<g>
	<defs>
		<path id="SVGID_431_" d="M25.698,8.547h0.751v0.751c0,0.213,0.173,0.386,0.386,0.386c0.213,0,0.386-0.173,0.386-0.386V8.547h0.751
			c0.213,0,0.386-0.173,0.386-0.386c0-0.213-0.173-0.386-0.386-0.386h-0.751V7.024c0-0.213-0.173-0.386-0.386-0.386
			c-0.213,0-0.386,0.173-0.386,0.386v0.751h-0.751c-0.213,0-0.386,0.173-0.386,0.386C25.312,8.375,25.485,8.547,25.698,8.547"/>
	</defs>
	<clipPath id="SVGID_14_">
		<use xlink:href="#SVGID_431_"  style="overflow:visible;"/>
	</clipPath>
	<g class="st14">
		<defs>
			<rect id="SVGID_433_" x="2.161" y="6.638" width="44.778" height="35.335"/>
		</defs>
		<clipPath id="SVGID_16_">
			<use xlink:href="#SVGID_433_"  style="overflow:visible;"/>
		</clipPath>
		<rect x="23.789" y="5.115" style="clip-path:url(#SVGID_16_);fill:#414042;" width="6.092" height="6.092"/>
	</g>
</g>
<g>
	<defs>
		<path id="SVGID_435_" d="M44.886,18.643h0.451v0.451c0,0.212,0.172,0.384,0.384,0.384c0.212,0,0.384-0.172,0.384-0.384v-0.451
			h0.451c0.212,0,0.384-0.172,0.384-0.383c0-0.212-0.172-0.383-0.384-0.383h-0.451v-0.451c0-0.212-0.172-0.383-0.384-0.383
			c-0.212,0-0.384,0.172-0.384,0.383v0.451h-0.451c-0.212,0-0.384,0.172-0.384,0.383C44.503,18.471,44.675,18.643,44.886,18.643"/>
	</defs>
	<clipPath id="SVGID_18_">
		<use xlink:href="#SVGID_435_"  style="overflow:visible;"/>
	</clipPath>
	<g class="st16">
		<defs>
			<rect id="SVGID_437_" x="2.161" y="3.638" width="44.778" height="35.335"/>
		</defs>
		<clipPath id="SVGID_20_">
			<use xlink:href="#SVGID_437_"  style="overflow:visible;"/>
		</clipPath>
		<g class="st17">
			<rect x="42.98" y="15.518" class="st3" width="5.483" height="5.483"/>
		</g>
	</g>
</g>
<g>
	<defs>
		<path id="SVGID_439_" d="M48.221,42.133c0-0.252-0.183-0.457-0.408-0.457h-2.84c-0.225,0-0.408,0.205-0.408,0.457
			s0.183,0.457,0.408,0.457h2.84C48.039,42.59,48.221,42.386,48.221,42.133"/>
	</defs>
	<clipPath id="SVGID_22_">
		<use xlink:href="#SVGID_439_"  style="overflow:visible;"/>
	</clipPath>
	<g class="st18">
		<defs>
			<rect id="SVGID_441_" x="3.443" y="10.911" width="44.778" height="35.335"/>
		</defs>
		<clipPath id="SVGID_24_">
			<use xlink:href="#SVGID_441_"  style="overflow:visible;"/>
		</clipPath>
		<g class="st19">
			<rect x="43.043" y="40.153" class="st3" width="6.702" height="3.96"/>
		</g>
	</g>
</g>
<g>
	<defs>
		<path id="SVGID_443_" d="M34.532,10.598h1.665c0.213,0,0.386-0.205,0.386-0.457c0-0.252-0.173-0.457-0.386-0.457h-1.665
			c-0.213,0-0.386,0.205-0.386,0.457C34.146,10.394,34.319,10.598,34.532,10.598"/>
	</defs>
	<clipPath id="SVGID_26_">
		<use xlink:href="#SVGID_443_"  style="overflow:visible;"/>
	</clipPath>
	<g class="st20">
		<defs>
			<rect id="SVGID_445_" x="2.161" y="6.638" width="44.778" height="35.335"/>
		</defs>
		<clipPath id="SVGID_28_">
			<use xlink:href="#SVGID_445_"  style="overflow:visible;"/>
		</clipPath>
		<g class="st21">
			<rect x="32.623" y="8.161" class="st3" width="5.483" height="3.96"/>
		</g>
	</g>
</g>
<g>
	<path class="st275" d="M14.201,39.446v-9.513c0-2.278,2.894-2.91,6.464-2.91l0,0c3.57,0,6.464,0.632,6.464,2.91v9.654"/>
	<path class="st276" d="M25.498,19.78c0,0.865-0.421,1.567-0.94,1.567c-0.519,0-0.94-0.702-0.94-1.567
		c0-0.865,0.421-1.567,0.94-1.567C25.077,18.213,25.498,18.915,25.498,19.78z"/>
	<path class="st276" d="M17.489,19.71c0,0.865-0.421,1.567-0.94,1.567c-0.519,0-0.94-0.702-0.94-1.567
		c0-0.865,0.421-1.567,0.94-1.567C17.068,18.143,17.489,18.845,17.489,19.71z"/>
	<path class="st277" d="M26.265,13.679c0,2.969-1.254,4.399-2.507,4.399c-1.881,0-3.778,0-6.268,0c-1.881,0-2.507-3.523-0.592-3.523
		C16.235,9.924,25.011,13.017,26.265,13.679z"/>
	<g>
		<path class="st276" d="M24.226,22.568c0,1.885-1.528,3.413-3.413,3.413h-0.567c-1.885,0-3.413-1.528-3.413-3.413v-5.022
			c0-1.885,1.528-3.413,3.413-3.413h0.567c1.885,0,3.413,1.528,3.413,3.413V22.568z"/>
		<path class="st278" d="M24.201,22.594c0,1.885-1.528,3.413-3.413,3.413h-0.567c-1.885,0-3.413-1.528-3.413-3.413v-5.022
			c0-1.885,1.528-3.413,3.413-3.413h0.567c1.885,0,3.413,1.528,3.413,3.413V22.594z"/>
	</g>
	<path class="st279" d="M20.484,21.615c0.273,0,0.495-0.191,0.495-0.494h-0.989C19.989,21.424,20.211,21.615,20.484,21.615z"/>
	<g>
		<path class="st59" d="M20.077,24.184c-0.055,0-0.106-0.036-0.122-0.091c-0.019-0.067,0.019-0.137,0.086-0.157
			c0.354-0.102,0.749-0.111,1.111-0.024c0.068,0.016,0.11,0.085,0.094,0.153c-0.016,0.068-0.084,0.11-0.153,0.094
			c-0.32-0.077-0.669-0.069-0.982,0.021C20.1,24.182,20.088,24.184,20.077,24.184z"/>
	</g>
	<g>
		<g>
			<g>
				<g>
					<g>
						<path class="st260" d="M25.145,14.864c-1.881,2.507-8.149,2.194-8.149-0.627L25.145,14.864z"/>
					</g>
				</g>
			</g>
		</g>
	</g>
	<g>
		<g>
			<g>
				<g>
					<path class="st260" d="M23.751,14.124c-1.881,1.266-4.388,1.266-5.642,0H23.751z"/>
					<path class="st59" d="M20.694,15.213c-1.051,0-2.022-0.332-2.679-0.996c-0.051-0.052-0.051-0.136,0.001-0.187
						c0.052-0.051,0.136-0.051,0.187,0.001c1.202,1.214,3.657,1.206,5.473-0.017c0.061-0.041,0.143-0.025,0.184,0.036
						c0.041,0.061,0.025,0.143-0.036,0.184C22.855,14.887,21.735,15.213,20.694,15.213z"/>
				</g>
			</g>
		</g>
	</g>
	<rect x="18.632" y="13.577" class="st260" width="3.797" height="0.608"/>
	<g>
		<path class="st59" d="M22.504,31.379c-0.064,0-0.123-0.04-0.144-0.104c-0.026-0.08,0.017-0.166,0.096-0.192l1.592-0.528
			c0.08-0.028,0.165,0.017,0.192,0.096c0.027,0.08-0.017,0.166-0.096,0.192l-1.592,0.528C22.535,31.376,22.519,31.379,22.504,31.379
			z"/>
	</g>
	<g>
		<polygon class="st275" points="20.623,33.23 18.708,26.997 22.504,26.962 		"/>
		<polygon class="st280" points="20.6,27.049 21.231,31.046 20.623,33.23 19.966,31.092 		"/>
		<polygon class="st281" points="20.594,26.962 22.479,26.335 22.479,26.962 21.522,28.474 		"/>
		<polygon class="st281" points="19.722,28.531 18.733,26.962 18.733,26.335 20.59,26.962 		"/>
	</g>
	<g>
		<path class="st59" d="M20.644,22.951c-0.48,0-0.953-0.179-1.281-0.479c-0.054-0.049-0.058-0.133-0.009-0.187
			c0.049-0.054,0.133-0.058,0.187-0.008c0.524,0.478,1.527,0.597,2.13,0.003c0.052-0.051,0.136-0.051,0.187,0.002
			c0.051,0.052,0.051,0.136-0.002,0.187C21.516,22.804,21.077,22.951,20.644,22.951z"/>
	</g>
	<g>
		<path class="st59" d="M18.531,20.029c-0.073,0-0.132-0.059-0.132-0.132v-0.901c0-0.073,0.059-0.132,0.132-0.132
			c0.073,0,0.132,0.059,0.132,0.132v0.901C18.663,19.97,18.604,20.029,18.531,20.029z"/>
	</g>
	<g>
		<path class="st282" d="M18.869,18.002h-0.864c-0.073,0-0.132-0.059-0.132-0.132c0-0.073,0.059-0.132,0.132-0.132h0.864
			c0.073,0,0.132,0.059,0.132,0.132C19.001,17.943,18.942,18.002,18.869,18.002z"/>
	</g>
	<g>
		<path class="st282" d="M23.149,17.927h-0.901c-0.073,0-0.132-0.059-0.132-0.132c0-0.073,0.059-0.132,0.132-0.132h0.901
			c0.073,0,0.132,0.059,0.132,0.132C23.281,17.867,23.222,17.927,23.149,17.927z"/>
	</g>
	<g>
		<path class="st59" d="M22.661,19.954c-0.073,0-0.132-0.059-0.132-0.132v-0.864c0-0.073,0.059-0.132,0.132-0.132
			c0.073,0,0.132,0.059,0.132,0.132v0.864C22.793,19.895,22.734,19.954,22.661,19.954z"/>
	</g>
	<g>
		<path class="st283" d="M16.016,39.502v-8.304c0-0.083,0.067-0.15,0.15-0.15c0.083,0,0.15,0.067,0.15,0.15v8.304"/>
	</g>
	<g>
		<path class="st283" d="M24.951,39.688v-8.491c0-0.083,0.067-0.15,0.15-0.15c0.083,0,0.15,0.067,0.15,0.15v8.504"/>
	</g>
	<g>
		<g>
			<g>
				<g>
					<path class="st283" d="M20.763,16.685c-0.729,0-1.438-0.104-2.047-0.307c-1.28-0.427-1.984-1.206-1.984-2.194
						c0-0.073,0.059-0.132,0.132-0.132c0.073,0,0.132,0.059,0.132,0.132c0,1.167,1.13,1.718,1.803,1.943
						c1.927,0.642,4.899,0.261,6.08-1.314c0.044-0.059,0.127-0.07,0.185-0.026c0.058,0.044,0.07,0.127,0.027,0.185
						C24.22,16.133,22.442,16.685,20.763,16.685z"/>
				</g>
			</g>
		</g>
	</g>
</g>
</svg>
