<?xml version="1.0" encoding="utf-8"?>
<!-- Generator: Adobe Illustrator 22.0.1, SVG Export Plug-In . SVG Version: 6.00 Build 0)  -->
<svg version="1.1" xmlns="http://www.w3.org/2000/svg" xmlns:xlink="http://www.w3.org/1999/xlink" x="0px" y="0px"
	 viewBox="0 0 561.327 295" style="enable-background:new 0 0 561.327 295;" xml:space="preserve">
<style type="text/css">
	.st0{fill:none;}
	.st1{fill:#FFFFFF;}
	.st2{fill:url(#SVGID_1_);}
	.st3{fill:url(#SVGID_2_);}
	.st4{opacity:0.15;}
	.st5{fill:#3FCDBA;}
	.st6{opacity:0.5;}
	.st7{fill:#E0E4F0;}
	.st8{opacity:0.47;}
	.st9{fill:#80C1C1;}
	.st10{fill:#191C3C;}
	.st11{fill:#FDFDFE;}
	.st12{fill:#575A8F;}
	.st13{fill:#6371C5;}
	.st14{opacity:0.3;}
	.st15{fill:#414042;}
	.st16{fill:#FEC55E;}
	.st17{fill:#FDE1A7;}
	.st18{fill:#F1F2F2;}
	.st19{fill:#212121;}
	.st20{fill:#00838F;}
	.st21{fill:#65B5B7;}
	.st22{fill:url(#SVGID_3_);}
	.st23{fill:url(#SVGID_4_);}
	.st24{fill:#56408B;}
	.st25{fill:url(#XMLID_12_);}
	.st26{opacity:0.1;fill:#191C3C;}
	.st27{fill:#D77EDB;}
	.st28{fill:#5DDAF4;}
	.st29{fill:url(#XMLID_13_);}
	.st30{opacity:0.2;fill:#414042;}
	.st31{opacity:0.2;fill:#525D7A;}
	.st32{fill:url(#XMLID_14_);}
	.st33{fill:url(#XMLID_15_);}
	.st34{opacity:0.06;fill:#FFFFFF;}
	.st35{opacity:0.1;fill:#525D7A;}
	.st36{fill:#E6E7E8;}
	.st37{fill:#525D7A;}
	.st38{fill:url(#SVGID_5_);}
	.st39{opacity:0.15;fill:#525D7A;}
	.st40{fill:url(#SVGID_6_);}
	.st41{fill:url(#SVGID_7_);}
	.st42{fill:url(#XMLID_26_);}
	.st43{fill:url(#XMLID_27_);}
	.st44{fill:url(#XMLID_28_);}
	.st45{opacity:0.2;}
	.st46{fill:#037982;}
	.st47{opacity:0.3;fill:#3F4949;}
	.st48{fill:#623FE9;}
	.st49{fill:#9EE9F8;}
	.st50{fill:#6C60EB;}
	.st51{fill:#3F3CBC;}
	.st52{opacity:0.3;fill:#525D7A;}
	.st53{fill:#7DE1F6;}
	.st54{fill:url(#SVGID_8_);}
	.st55{fill:#F6F6F6;}
	.st56{fill:#7866A2;}
	.st57{opacity:0.3;fill:#231F20;}
	.st58{fill:#F5F7F9;}
	.st59{opacity:0.2;fill:#BABECA;}
	.st60{fill:#FED17E;}
	.st61{fill:url(#SVGID_9_);}
	.st62{fill:url(#SVGID_10_);}
	.st63{fill:url(#SVGID_11_);}
	.st64{fill:url(#XMLID_29_);}
	.st65{fill:url(#XMLID_30_);}
	.st66{fill:url(#XMLID_31_);}
	.st67{fill:url(#XMLID_32_);}
	.st68{fill:url(#SVGID_12_);}
	.st69{fill:url(#SVGID_13_);}
	.st70{fill:url(#SVGID_14_);}
	.st71{fill:url(#XMLID_33_);}
	.st72{fill:url(#XMLID_34_);}
	.st73{fill:url(#XMLID_35_);}
	.st74{fill:url(#SVGID_15_);}
	.st75{fill:url(#SVGID_16_);}
	.st76{fill:url(#SVGID_17_);}
	.st77{fill:url(#XMLID_39_);}
	.st78{fill:url(#XMLID_40_);}
	.st79{fill:url(#XMLID_41_);}
	.st80{fill:url(#XMLID_42_);}
	.st81{fill:url(#SVGID_18_);}
	.st82{fill:url(#SVGID_19_);}
	.st83{fill:url(#SVGID_20_);}
	.st84{fill:url(#XMLID_43_);}
	.st85{fill:url(#XMLID_44_);}
	.st86{fill:url(#XMLID_45_);}
	.st87{fill:url(#SVGID_21_);}
	.st88{fill:url(#SVGID_22_);}
	.st89{fill:url(#SVGID_23_);}
	.st90{fill:url(#SVGID_24_);}
	.st91{fill:url(#SVGID_25_);}
	.st92{fill:url(#XMLID_46_);}
	.st93{fill:url(#XMLID_53_);}
	.st94{fill:url(#XMLID_54_);}
	.st95{fill:url(#XMLID_55_);}
	.st96{fill:url(#SVGID_26_);}
	.st97{fill:url(#SVGID_27_);}
	.st98{fill:url(#SVGID_28_);}
	.st99{fill:url(#XMLID_56_);}
	.st100{fill:url(#XMLID_57_);}
	.st101{fill:url(#XMLID_58_);}
	.st102{fill:url(#SVGID_29_);}
	.st103{fill:url(#SVGID_30_);stroke:#FF0000;stroke-miterlimit:10;}
	.st104{fill:#FF0000;}
</style>
<pattern  x="-1000.381" y="-280.5" width="72" height="72" patternUnits="userSpaceOnUse" id="Hatching" viewBox="4.231 -74.21 72 72" style="overflow:visible;">
	<g>
		<rect x="4.231" y="-74.21" class="st0" width="72" height="72"/>
		<g>
			
				<rect x="71.397" y="-4.313" transform="matrix(0.9363 -0.3512 0.3512 0.9363 5.5164 24.952)" class="st1" width="0.3" height="3.162"/>
			
				<rect x="64.171" y="-2.905" transform="matrix(0.1879 -0.9822 0.9822 0.1879 56.1712 62.4292)" class="st1" width="3.336" height="0.3"/>
			
				<rect x="50.845" y="-3.261" transform="matrix(0.9992 -0.0391 0.0391 0.9992 0.1077 1.9905)" class="st1" width="0.3" height="2.999"/>
			<polygon class="st1" points="35.115,-1.773 33.692,-3.828 33.938,-3.998 35.362,-1.943 			"/>
			<polygon class="st1" points="19.095,-1.642 18.847,-1.81 20.173,-3.761 20.421,-3.593 			"/>
			<polygon class="st1" points="7.791,-0.306 6.127,-2.62 6.37,-2.796 8.034,-0.481 			"/>
			<polygon class="st1" points="58.623,0 58.373,-0.166 60.373,-3.166 60.623,-3 			"/>
		</g>
		<g>
			<rect x="74.776" y="-50.251" class="st1" width="3" height="0.301"/>
			<polygon class="st1" points="74.866,-32.73 74.686,-32.971 76.686,-34.471 76.866,-34.23 			"/>
		</g>
		<g>
			<polygon class="st1" points="6.114,-61.229 5.937,-61.472 8.687,-63.472 8.864,-63.229 			"/>
			<polygon class="st1" points="5.118,-5.232 4.933,-5.469 7.183,-7.219 7.368,-6.982 			"/>
			
				<rect x="74.5" y="-68.393" transform="matrix(0.2242 -0.9745 0.9745 0.2242 122.9428 20.9835)" class="st1" width="0.301" height="3.335"/>
			<polygon class="st1" points="72.612,-53.478 72.44,-53.724 74.94,-55.474 75.112,-55.228 			"/>
			<rect x="74.776" y="-50.251" class="st1" width="3" height="0.301"/>
			<polygon class="st1" points="74.445,-42.474 71.695,-44.224 71.856,-44.478 74.606,-42.728 			"/>
			<polygon class="st1" points="74.866,-32.73 74.686,-32.971 76.686,-34.471 76.866,-34.23 			"/>
			
				<rect x="71.124" y="-23.626" transform="matrix(0.774 -0.6332 0.6332 0.774 31.3443 40.8569)" class="st1" width="3.553" height="0.3"/>
			<polygon class="st1" points="76.25,-11.203 72,-11.953 72.051,-12.248 76.301,-11.498 			"/>
			<polygon class="st1" points="64.368,-11.232 64.183,-11.469 66.433,-13.219 66.618,-12.982 			"/>
			<rect x="71.776" y="-29.251" class="st1" width="3" height="0.301"/>
			<polygon class="st1" points="60.901,-56.517 59.008,-59.341 59.258,-59.509 61.15,-56.685 			"/>
			<polygon class="st1" points="30.9,-58.02 29.245,-60.583 29.497,-60.745 31.152,-58.182 			"/>
			<polygon class="st1" points="46.19,-62.459 45.943,-62.629 47.797,-65.311 48.044,-65.141 			"/>
			
				<rect x="71.397" y="-4.313" transform="matrix(0.9363 -0.3512 0.3512 0.9363 5.5164 24.952)" class="st1" width="0.3" height="3.162"/>
			
				<rect x="64.171" y="-2.905" transform="matrix(0.1879 -0.9822 0.9822 0.1879 56.1712 62.4292)" class="st1" width="3.336" height="0.3"/>
			<polygon class="st1" points="59.901,-26.017 58.008,-28.841 58.258,-29.009 60.15,-26.185 			"/>
			<polygon class="st1" points="51.554,-54.455 49.9,-57.02 50.152,-57.182 51.806,-54.617 			"/>
			
				<rect x="50.845" y="-3.261" transform="matrix(0.9992 -0.0391 0.0391 0.9992 0.1077 1.9905)" class="st1" width="0.3" height="2.999"/>
			<polygon class="st1" points="43.69,-3.709 43.443,-3.879 45.297,-6.561 45.544,-6.391 			"/>
			<polygon class="st1" points="35.115,-1.773 33.692,-3.828 33.938,-3.998 35.362,-1.943 			"/>
			<polygon class="st1" points="53.454,-33.212 53.23,-33.411 55.581,-36.074 55.806,-35.875 			"/>
			<polygon class="st1" points="19.095,-1.642 18.847,-1.81 20.173,-3.761 20.421,-3.593 			"/>
			<polygon class="st1" points="12.42,-3.199 12.127,-3.262 13.037,-7.479 13.33,-7.417 			"/>
			<polygon class="st1" points="7.791,-0.306 6.127,-2.62 6.37,-2.796 8.034,-0.481 			"/>
			<rect x="29.974" y="-7.056" transform="matrix(0.9992 -0.039 0.039 0.9992 0.2399 1.1721)" class="st1" width="0.3" height="3"/>
			
				<rect x="10.122" y="-68.25" transform="matrix(0.9191 -0.3939 0.3939 0.9191 27.7985 -0.7691)" class="st1" width="3.808" height="0.3"/>
			<polygon class="st1" points="7.675,-53.339 7.376,-53.362 7.626,-56.612 7.925,-56.589 			"/>
			
				<rect x="9.756" y="-28.625" transform="matrix(0.3714 -0.9285 0.9285 0.3714 33.8412 -6.9666)" class="st1" width="4.039" height="0.3"/>
			
				<rect x="9.251" y="-39.912" transform="matrix(0.8572 -0.515 0.515 0.8572 20.7708 -0.5461)" class="st1" width="0.3" height="4.373"/>
			<polygon class="st1" points="30.137,-67 29.914,-67.201 32.164,-69.701 32.387,-69.5 			"/>
			
				<rect x="36.022" y="-68.375" transform="matrix(0.7634 -0.6459 0.6459 0.7634 53.0967 8.5)" class="st1" width="4.257" height="0.299"/>
			
				<rect x="52.993" y="-68.751" transform="matrix(0.8517 -0.5241 0.5241 0.8517 44.0974 18.5969)" class="st1" width="3.816" height="0.3"/>
			<polygon class="st1" points="53.654,-60.272 53.398,-60.429 55.398,-63.679 55.654,-63.522 			"/>
			
				<rect x="64.876" y="-68.717" transform="matrix(0.4106 -0.9118 0.9118 0.4106 98.4876 20.4039)" class="st1" width="0.3" height="5.483"/>
			<polygon class="st1" points="67.612,-59.478 67.44,-59.724 69.94,-61.474 70.112,-61.228 			"/>
			<rect x="21.626" y="-69.351" class="st1" width="0.3" height="3"/>
			
				<rect x="17" y="-65.745" transform="matrix(0.1528 -0.9883 0.9883 0.1528 77.8783 -37.3578)" class="st1" width="0.3" height="3.288"/>
			<polygon class="st1" points="23.377,-56.578 22.877,-59.828 23.174,-59.873 23.674,-56.623 			"/>
			
				<rect x="25.626" y="-66.515" transform="matrix(0.2086 -0.978 0.978 0.2086 83.6999 -26.0142)" class="st1" width="0.3" height="3.579"/>
			<polygon class="st1" points="12.364,-52.479 12.187,-52.722 14.937,-54.722 15.114,-54.479 			"/>
			<polygon class="st1" points="10.675,-10.091 10.376,-10.11 10.626,-14.11 10.925,-14.091 			"/>
			<polygon class="st1" points="10.387,-18.25 10.164,-18.451 12.414,-20.951 12.637,-20.75 			"/>
			<polygon class="st1" points="24.154,-8.264 21.654,-11.764 21.898,-11.938 24.398,-8.438 			"/>
			<polygon class="st1" points="30.362,-43.728 30.19,-43.974 32.69,-45.724 32.862,-45.478 			"/>
			
				<rect x="57.834" y="-41.251" transform="matrix(0.8779 -0.4789 0.4789 0.8779 26.9342 23.4256)" class="st1" width="3.132" height="0.3"/>
			<polygon class="st1" points="29.746,-33.953 25.996,-34.703 26.055,-34.998 29.805,-34.248 			"/>
			<polygon class="st1" points="32.616,-22.98 32.436,-23.221 34.436,-24.721 34.616,-24.48 			"/>
			
				<rect x="28.874" y="-13.876" transform="matrix(0.774 -0.6332 0.6332 0.774 15.6199 16.3065)" class="st1" width="3.553" height="0.3"/>
			<polygon class="st1" points="35.196,-8.224 33.196,-9.474 33.355,-9.728 35.355,-8.478 			"/>
			<rect x="29.526" y="-19.501" class="st1" width="3" height="0.301"/>
			<polygon class="st1" points="40.362,-53.228 40.19,-53.474 42.69,-55.224 42.862,-54.978 			"/>
			<rect x="42.526" y="-50.001" class="st1" width="3" height="0.301"/>
			<polygon class="st1" points="42.195,-42.224 39.445,-43.974 39.606,-44.228 42.356,-42.478 			"/>
			
				<rect x="41.001" y="-31.656" transform="matrix(0.9579 -0.2869 0.2869 0.9579 10.4397 10.5318)" class="st1" width="0.3" height="2.61"/>
			
				<rect x="38.874" y="-23.376" transform="matrix(0.774 -0.6332 0.6332 0.774 23.8961 20.4915)" class="st1" width="3.553" height="0.3"/>
			<polygon class="st1" points="42.446,-13.974 40.446,-15.224 40.605,-15.477 42.605,-14.227 			"/>
			<rect x="62.998" y="-29.733" class="st1" width="3" height="0.301"/>
			<polygon class="st1" points="27.69,-29.228 25.19,-30.978 25.362,-31.224 27.862,-29.474 			"/>
			<rect x="30.026" y="-53.751" class="st1" width="3" height="0.301"/>
			<polygon class="st1" points="20.19,-37.478 17.69,-39.228 17.862,-39.474 20.362,-37.724 			"/>
			<rect x="15.026" y="-34.251" class="st1" width="3" height="0.301"/>
			<polygon class="st1" points="18.356,-26.474 18.195,-26.728 20.945,-28.478 21.106,-28.224 			"/>
			<polygon class="st1" points="50.358,-40.975 50.194,-41.227 52.578,-42.787 52.742,-42.535 			"/>
			<polygon class="st1" points="52.905,-46.689 50.522,-48.511 50.705,-48.749 53.088,-46.928 			"/>
			<polygon class="st1" points="57.675,-49.59 57.376,-49.611 57.599,-52.627 57.898,-52.605 			"/>
			
				<rect x="48.36" y="-8.624" transform="matrix(0.9991 -0.0416 0.0416 0.9991 0.3957 2.068)" class="st1" width="3.051" height="0.299"/>
			<polygon class="st1" points="51.655,-12.439 49.272,-14.261 49.455,-14.499 51.838,-12.678 			"/>
			
				<rect x="55.43" y="-16.986" transform="matrix(0.3446 -0.9388 0.9388 0.3446 53.2044 42.5304)" class="st1" width="3.259" height="0.3"/>
			<polygon class="st1" points="48.862,-28.728 48.69,-28.974 51.19,-30.724 51.362,-30.478 			"/>
			<polygon class="st1" points="50.982,-22.957 47.732,-23.957 47.82,-24.244 51.07,-23.244 			"/>
			<polygon class="st1" points="59.945,-7.474 57.195,-9.224 57.356,-9.478 60.106,-7.728 			"/>
			<polygon class="st1" points="67.445,-32.974 64.695,-34.724 64.856,-34.978 67.606,-33.228 			"/>
			<polygon class="st1" points="63.366,-20.48 63.186,-20.721 65.186,-22.221 65.366,-21.98 			"/>
			
				<rect x="22.61" y="-44.624" transform="matrix(0.9991 -0.0416 0.0416 0.9991 1.8719 0.966)" class="st1" width="3.051" height="0.299"/>
			<polygon class="st1" points="25.905,-48.439 23.522,-50.261 23.705,-50.499 26.088,-48.678 			"/>
			
				<rect x="60.749" y="-45.48" transform="matrix(0.9807 -0.1954 0.1954 0.9807 10.0537 11.2662)" class="st1" width="2.774" height="0.301"/>
			<polygon class="st1" points="18.377,-15.078 17.877,-18.328 18.174,-18.373 18.674,-15.123 			"/>
			
				<rect x="21.626" y="-22.515" transform="matrix(0.2086 -0.978 0.978 0.2086 37.5025 4.8946)" class="st1" width="0.3" height="3.579"/>
			<polygon class="st1" points="39.748,-60.453 35.748,-61.203 35.804,-61.498 39.804,-60.748 			"/>
			<polygon class="st1" points="36.85,-37.062 36.35,-40.562 36.647,-40.604 37.147,-37.104 			"/>
			
				<rect x="64.878" y="-51.875" transform="matrix(0.8944 -0.4472 0.4472 0.8944 30.1293 24.1785)" class="st1" width="2.795" height="0.299"/>
			
				<rect x="12.522" y="-59.375" transform="matrix(0.7634 -0.6459 0.6459 0.7634 41.7228 -4.5501)" class="st1" width="4.257" height="0.299"/>
			<polygon class="st1" points="5.362,-42.728 5.19,-42.974 7.69,-44.724 7.862,-44.478 			"/>
			<polygon class="st1" points="16.865,-48.48 16.686,-48.721 18.686,-50.221 18.865,-49.98 			"/>
			<polygon class="st1" points="44.44,-69.209 44.193,-69.379 46.047,-72.061 46.294,-71.891 			"/>
			<polygon class="st1" points="67.69,-38.959 67.443,-39.129 69.297,-41.811 69.544,-41.641 			"/>
			<polygon class="st1" points="36.962,-47.757 36.671,-47.831 37.38,-50.638 37.671,-50.563 			"/>
			<polygon class="st1" points="23.462,-15.257 23.171,-15.331 23.88,-18.138 24.171,-18.063 			"/>
			<polygon class="st1" points="32.866,-29.73 32.686,-29.971 34.686,-31.471 34.866,-31.23 			"/>
			<rect x="2.776" y="-50.251" class="st1" width="3" height="0.301"/>
			<polygon class="st1" points="2.865,-32.73 2.686,-32.971 4.686,-34.471 4.865,-34.23 			"/>
			
				<rect x="71.397" y="-76.313" transform="matrix(0.9363 -0.3513 0.3513 0.9363 30.8104 20.37)" class="st1" width="0.3" height="3.162"/>
			
				<rect x="64.171" y="-74.905" transform="matrix(0.1879 -0.9822 0.9822 0.1879 126.8885 3.9601)" class="st1" width="3.336" height="0.3"/>
			
				<rect x="50.845" y="-75.261" transform="matrix(0.9992 -0.0393 0.0393 0.9992 2.9404 1.9485)" class="st1" width="0.3" height="2.999"/>
			<polygon class="st1" points="35.115,-73.773 33.692,-75.828 33.938,-75.998 35.362,-73.943 			"/>
			<polygon class="st1" points="19.095,-73.642 18.847,-73.81 20.173,-75.761 20.421,-75.593 			"/>
			<polygon class="st1" points="7.791,-72.306 6.127,-74.62 6.37,-74.796 8.034,-72.481 			"/>
			<polygon class="st1" points="8.246,-21.953 4.496,-22.703 4.555,-22.998 8.305,-22.248 			"/>
			<polygon class="st1" points="71.268,-16.676 69.374,-19.499 69.623,-19.667 71.517,-16.844 			"/>
			<polygon class="st1" points="27.144,-38.047 26.853,-38.119 27.536,-40.908 27.827,-40.836 			"/>
			<polygon class="st1" points="45.866,-35.48 45.686,-35.721 47.686,-37.221 47.866,-36.98 			"/>
			<polygon class="st1" points="58.623,-72 58.373,-72.166 60.373,-75.166 60.623,-75 			"/>
			<polygon class="st1" points="58.623,0 58.373,-0.166 60.373,-3.166 60.623,-3 			"/>
		</g>
		<g>
			
				<rect x="2.5" y="-68.393" transform="matrix(0.2241 -0.9746 0.9746 0.2241 67.0844 -49.1866)" class="st1" width="0.301" height="3.335"/>
			<rect x="2.776" y="-50.251" class="st1" width="3" height="0.301"/>
			<polygon class="st1" points="2.865,-32.73 2.686,-32.971 4.686,-34.471 4.865,-34.23 			"/>
			
				<rect x="-0.007" y="-11.875" transform="matrix(0.9848 -0.1738 0.1738 0.9848 2.0705 0.1953)" class="st1" width="4.316" height="0.299"/>
		</g>
		<g>
			
				<rect x="71.397" y="-76.313" transform="matrix(0.9363 -0.3513 0.3513 0.9363 30.8104 20.37)" class="st1" width="0.3" height="3.162"/>
			
				<rect x="64.171" y="-74.905" transform="matrix(0.1879 -0.9822 0.9822 0.1879 126.8885 3.9601)" class="st1" width="3.336" height="0.3"/>
			
				<rect x="50.845" y="-75.261" transform="matrix(0.9992 -0.0393 0.0393 0.9992 2.9404 1.9485)" class="st1" width="0.3" height="2.999"/>
			<polygon class="st1" points="35.115,-73.773 33.692,-75.828 33.938,-75.998 35.362,-73.943 			"/>
			<polygon class="st1" points="19.095,-73.642 18.847,-73.81 20.173,-75.761 20.421,-75.593 			"/>
			<polygon class="st1" points="7.791,-72.306 6.127,-74.62 6.37,-74.796 8.034,-72.481 			"/>
			<polygon class="st1" points="58.623,-72 58.373,-72.166 60.373,-75.166 60.623,-75 			"/>
		</g>
	</g>
</pattern>
<g id="Layer_3">
	<g>
		<g class="st4">
			<g>
				<path class="st5" d="M553.835,184.361c10.039,13.83-5.309,29.177-19.138,19.137c-0.253-0.183-0.482-0.413-0.666-0.666
					c-10.04-13.83,5.308-29.178,19.138-19.137C553.422,183.878,553.652,184.108,553.835,184.361z"/>
			</g>
			<g>
				<path class="st5" d="M364.901,18.587c13.214,17.983-6.834,38.032-24.818,24.819c-0.246-0.18-0.469-0.404-0.65-0.65
					c-13.213-17.983,6.835-38.031,24.818-24.819C364.497,18.118,364.721,18.342,364.901,18.587z"/>
			</g>
			<g>
				<path class="st5" d="M133.331,50.471c6.384,9.04-3.548,18.973-12.589,12.589c-0.263-0.186-0.501-0.423-0.687-0.687
					c-6.381-9.04,3.549-18.97,12.589-12.589C132.908,49.97,133.145,50.208,133.331,50.471z"/>
			</g>
			<g>
				<path class="st5" d="M438.1,62.924c6.381,9.041-3.55,18.97-12.59,12.588c-0.263-0.186-0.501-0.423-0.687-0.687
					c-6.383-9.041,3.549-18.972,12.59-12.589C437.676,62.424,437.914,62.661,438.1,62.924z"/>
			</g>
			<g>
				<path class="st5" d="M240.11,11.799c6.383,9.041-3.548,18.972-12.589,12.59c-0.263-0.186-0.501-0.423-0.687-0.687
					c-6.382-9.04,3.548-18.971,12.588-12.59C239.687,11.298,239.924,11.535,240.11,11.799z"/>
			</g>
			<g>
				<path class="st5" d="M559.98,229.434c2.154,3.53-1.538,7.222-5.068,5.068c-0.311-0.19-0.578-0.456-0.767-0.767
					c-2.154-3.53,1.537-7.222,5.068-5.068C559.524,228.857,559.79,229.124,559.98,229.434z"/>
			</g>
			<g>
				<path class="st5" d="M422.247,37.124c0.357,1.882-1.262,3.501-3.144,3.144c-1.045-0.198-1.9-1.053-2.098-2.098
					c-0.356-1.881,1.262-3.5,3.143-3.143C421.194,35.225,422.049,36.079,422.247,37.124z"/>
			</g>
			<g>
				<path class="st5" d="M163.742,19.712c2.087,3.442-1.505,7.034-4.947,4.947c-0.311-0.189-0.578-0.455-0.767-0.766
					c-2.09-3.443,1.505-7.038,4.947-4.947C163.287,19.135,163.553,19.401,163.742,19.712z"/>
			</g>
			<g>
				<path class="st5" d="M38.545,91.013c3.006,11.057,0.382,7.075-3.254,7.032c-1.954-0.023-3.771-1.149-4.404-2.998
					c-1.283-3.744,2.096-7.184,5.832-6.016C37.625,89.314,38.296,90.097,38.545,91.013z"/>
			</g>
			<g>
				<path class="st5" d="M552.249,134.317c3.042,4.687-1.958,9.687-6.645,6.644c-0.293-0.19-0.55-0.447-0.74-0.739
					c-3.045-4.688,1.958-9.689,6.645-6.645C551.802,133.767,552.058,134.024,552.249,134.317z"/>
			</g>
			<g>
				<path class="st5" d="M95.924,68.995c15.333,20.767-7.863,43.961-28.629,28.628c-0.245-0.181-0.469-0.405-0.65-0.65
					c-15.331-20.767,7.864-43.96,28.63-28.628C95.518,68.526,95.743,68.75,95.924,68.995z"/>
			</g>
			<g>
				<path class="st5" d="M21.423,236.721c2.561,3.943-0.573,8.11-4.423,7.52c-1.947-0.298-3.537-1.889-3.836-3.836
					c-0.59-3.85,3.576-6.983,7.519-4.423C20.976,236.171,21.233,236.428,21.423,236.721z"/>
			</g>
			<g>
				<path class="st5" d="M533.138,55.326c14.842,20.124-7.626,42.592-27.75,27.749c-0.245-0.181-0.469-0.405-0.65-0.65
					c-14.844-20.125,7.626-42.594,27.75-27.749C532.733,54.857,532.957,55.081,533.138,55.326z"/>
			</g>
			<g>
				<path class="st5" d="M33.658,143.427c11.599,15.878-6.064,33.54-21.942,21.942c-0.252-0.184-0.482-0.414-0.666-0.666
					c-11.599-15.878,6.064-33.541,21.942-21.942C33.244,142.944,33.474,143.175,33.658,143.427z"/>
			</g>
			<g>
				<path class="st5" d="M541.447,295.134c0-35.51-7.553-69.253-21.122-99.726c4.901-10.155,7.65-21.544,7.65-33.576
					c0-42.715-34.627-77.342-77.342-77.342c-8.005,0-15.726,1.216-22.988,3.474c-38.036-24.216-83.187-38.251-131.618-38.251
					c-6.033,0-12.014,0.219-17.937,0.646c-10.581-7.978-23.745-12.712-38.017-12.712c-26.96,0-49.964,16.884-59.051,40.649
					c-18.615,9.897-35.812,22.109-51.19,36.271c-5.001-1.133-10.197-1.751-15.541-1.751c-38.696,0-70.066,31.369-70.066,70.066
					c0,16.862,5.96,32.33,15.883,44.42c-6.183,21.544-9.502,44.3-9.502,67.833H541.447z"/>
			</g>
		</g>
		<g class="st8">
			<path class="st7" d="M482.789,288.308c0-89.906-72.883-162.789-162.789-162.789c-89.906,0-162.789,72.883-162.789,162.789
				H482.789z"/>
		</g>
		<g>
			<g>
				<path class="st21" d="M122.781,215.984c-0.1,0.049-0.201,0.098-0.301,0.146c-3.139,1.501-4.807,1.25-7.866-0.162
					c-2.816-1.3-5.549-2.844-7.883-4.906c-2.954-2.61-5.247-6.139-5.724-10.052c-0.107-0.878-0.101-1.84,0.42-2.555
					c0.716-0.981,2.184-1.126,3.317-0.688c1.133,0.438,2.024,1.321,2.926,2.134c0.383,0.345,0.792,0.692,1.291,0.827
					c0.498,0.135,1.109-0.007,1.364-0.455c0.407-0.717-0.29-1.543-0.924-2.071c-1.467-1.222-2.843-1.929-4.382-3.013
					c-1.932-1.36-3.721-3.023-4.781-5.134c-1.06-2.111-1.298-4.731-0.194-6.82c0.336-0.635,0.797-1.219,1.405-1.602
					c1.078-0.68,2.461-0.645,3.707-0.379c1.246,0.267,2.45,0.741,3.718,0.873c2.997,0.312,4.175-1.797,4.115-4.555
					c-0.04-1.849-0.637-3.646-0.744-5.492c-0.188-3.251,1.416-6.714,4.361-8.105c2.944-1.391,7.057-0.059,8.111,3.022
					c1.145,3.348-1.468,7.109,0.261,10.309c0.564,1.044,1.839,2.479,2.835,3.095c1.644,1.017,4.01-0.179,5.924-0.091
					c0.425,0.02,0.887,0.078,1.185,0.382c0.22,0.225,0.31,0.545,0.369,0.854c0.451,2.327-0.39,4.863-2.143,6.459
					c-1.981,1.803-5.416,2.723-6.259,5.546c-0.523,1.753-0.296,6.125,2.494,5.681c1.047-0.167,1.747-1.201,2.751-1.541
					c1.242-0.42,2.665,0.404,3.221,1.592c0.556,1.188,0.391,2.605-0.093,3.823c-0.764,1.925-2.235,3.468-3.673,4.958
					C128.627,211.134,126.684,214.06,122.781,215.984z"/>
			</g>
			<g>
				<rect x="118.056" y="175.23" class="st10" width="1.149" height="85.311"/>
			</g>
			<g>
				<polygon class="st10" points="118.631,195.746 110.325,187.44 111.137,186.627 118.631,194.121 126.125,186.627 126.938,187.44 
									"/>
			</g>
			<g>
				<polygon class="st10" points="118.631,211.614 110.325,203.308 111.137,202.495 118.631,209.99 126.125,202.495 
					126.938,203.308 				"/>
			</g>
		</g>
		<g>
			<g>
				<path class="st21" d="M511.603,234.029c-0.123,0.061-0.247,0.121-0.371,0.18c-3.858,1.845-5.907,1.536-9.666-0.199
					c-3.461-1.597-6.819-3.495-9.688-6.029c-3.631-3.207-6.448-7.544-7.035-12.353c-0.132-1.079-0.125-2.262,0.516-3.14
					c0.88-1.206,2.684-1.384,4.076-0.846c1.393,0.538,2.488,1.623,3.596,2.623c0.471,0.424,0.974,0.851,1.586,1.016
					c0.612,0.166,1.362-0.008,1.676-0.559c0.501-0.881-0.357-1.896-1.136-2.545c-1.803-1.502-3.494-2.371-5.385-3.703
					c-2.374-1.672-4.573-3.715-5.876-6.309c-1.303-2.595-1.596-5.814-0.239-8.381c0.413-0.781,0.98-1.498,1.726-1.969
					c1.325-0.836,3.024-0.793,4.555-0.465c1.531,0.328,3.011,0.911,4.569,1.073c3.683,0.383,5.13-2.208,5.057-5.598
					c-0.049-2.272-0.783-4.481-0.914-6.75c-0.231-3.995,1.741-8.251,5.359-9.96c3.618-1.709,8.673-0.073,9.967,3.714
					c1.407,4.115-1.805,8.736,0.32,12.669c0.693,1.283,2.26,3.046,3.484,3.803c2.02,1.249,4.928-0.219,7.28-0.112
					c0.522,0.024,1.09,0.096,1.456,0.47c0.271,0.276,0.38,0.669,0.454,1.049c0.554,2.86-0.48,5.976-2.634,7.937
					c-2.434,2.216-6.656,3.346-7.691,6.816c-0.643,2.155-0.364,7.527,3.065,6.982c1.286-0.205,2.147-1.477,3.381-1.894
					c1.526-0.517,3.275,0.497,3.958,1.956s0.48,3.201-0.114,4.699c-0.938,2.365-2.747,4.261-4.514,6.093
					C518.788,228.068,516.4,231.663,511.603,234.029z"/>
			</g>
			<g>
				<rect x="505.929" y="183.945" class="st10" width="1.149" height="104.84"/>
			</g>
			<g>
				<polygon class="st10" points="506.503,208.972 496.388,198.857 497.2,198.044 506.503,207.347 515.806,198.044 516.618,198.857 
									"/>
			</g>
			<g>
				<polygon class="st10" points="506.503,228.472 496.388,218.357 497.2,217.545 506.503,226.847 515.806,217.545 516.618,218.357 
									"/>
			</g>
		</g>
		<g>
			<g>
				<rect x="71.301" y="287.877" class="st10" width="21.679" height="1.149"/>
			</g>
		</g>
		<g>
			<g>
				<path class="st10" d="M556.619,289.36h-31.4v-0.574c0-2.28-1.854-4.134-4.134-4.134c-2.279,0-4.133,1.854-4.133,4.134h-1.149
					c0-2.914,2.37-5.283,5.282-5.283c2.72,0,4.964,2.064,5.252,4.709h30.283V289.36z"/>
			</g>
			<g>
				<path class="st10" d="M519.154,284.685h-1.149c0-2.28-1.854-4.134-4.133-4.134c-2.28,0-4.134,1.855-4.134,4.134h-1.149
					c0-2.914,2.37-5.283,5.283-5.283C516.784,279.401,519.154,281.771,519.154,284.685z"/>
			</g>
		</g>
		<g id="XMLID_513_">
			<g id="XMLID_525_">
				<g id="XMLID_527_">
					<path class="st11" d="M132.647,288.785h-28.56c-1.422,0-2.574-1.152-2.574-2.574v-23.708h31.134
						c0.493,0,0.892,0.399,0.892,0.892v24.498C133.539,288.386,133.139,288.785,132.647,288.785z"/>
				</g>
				<g id="XMLID_526_">
					<path class="st12" d="M104.948,284.353c-1.131-0.039-3.436,0.195-3.436,2.626v-25.725c0-1.456,1.181-2.637,2.637-2.637h0.799
						V284.353z"/>
				</g>
			</g>
			<g id="XMLID_522_">
				<path class="st13" d="M123.432,277.997l1.699-0.001c0.344,0,0.622-0.279,0.622-0.623l-0.002-2.167
					c0-0.344-0.279-0.622-0.623-0.622l-1.329,0.001c-0.22,0-0.409-0.142-0.487-0.348c-0.047-0.124-0.098-0.247-0.153-0.367
					c-0.091-0.2-0.059-0.435,0.097-0.591l0.94-0.941c0.243-0.243,0.243-0.638,0-0.881l-1.532-1.531c-0.243-0.243-0.637-0.243-0.88,0
					l-0.947,0.948c-0.149,0.149-0.373,0.192-0.567,0.109c-0.135-0.058-0.281-0.116-0.407-0.165
					c-0.197-0.077-0.326-0.267-0.326-0.478v-1.343c0-0.344-0.279-0.623-0.623-0.623h-2.166c-0.344,0-0.623,0.279-0.623,0.623v1.33
					c0,0.22-0.142,0.409-0.348,0.486c-0.13,0.049-0.259,0.103-0.385,0.161c-0.2,0.092-0.435,0.06-0.591-0.096l-0.943-0.938
					c-0.244-0.243-0.638-0.241-0.88,0.002l-1.528,1.536c-0.242,0.244-0.241,0.638,0.003,0.88l0.95,0.945
					c0.15,0.149,0.192,0.373,0.11,0.567c-0.057,0.135-0.116,0.281-0.164,0.407c-0.077,0.197-0.266,0.326-0.477,0.327l-1.343,0.003
					c-0.344,0.001-0.622,0.28-0.621,0.624l0.005,2.166c0.001,0.344,0.28,0.622,0.624,0.621l1.33-0.003
					c0.22,0,0.409,0.141,0.487,0.347c0.047,0.124,0.098,0.246,0.153,0.367c0.092,0.2,0.059,0.435-0.096,0.591l-0.939,0.942
					c-0.243,0.244-0.242,0.638,0.002,0.881l1.535,1.529c0.244,0.243,0.638,0.242,0.88-0.002l0.946-0.95
					c0.149-0.149,0.373-0.192,0.567-0.11c0.135,0.058,0.281,0.116,0.407,0.165c0.197,0.077,0.326,0.266,0.326,0.478l0.002,1.343
					c0.001,0.344,0.28,0.622,0.624,0.622l2.166-0.003c0.344-0.001,0.622-0.28,0.622-0.624l-0.002-1.33
					c0-0.22,0.142-0.409,0.348-0.487c0.124-0.047,0.247-0.098,0.367-0.153c0.2-0.092,0.435-0.059,0.591,0.097l0.942,0.939
					c0.243,0.243,0.638,0.242,0.88-0.001l1.53-1.534c0.243-0.243,0.242-0.638-0.001-0.88l-0.949-0.946
					c-0.149-0.149-0.192-0.373-0.109-0.567C123.283,278.406,123.425,278.02,123.432,277.997z M114.811,275.743
					c0.36-1.915,2.344-2.997,4.128-2.31c1.355,0.522,2.18,1.988,1.912,3.415c-0.36,1.915-2.344,2.997-4.128,2.31
					C115.368,278.636,114.542,277.17,114.811,275.743z"/>
			</g>
			<g id="XMLID_521_" class="st14">
				<path class="st15" d="M133.539,288.121v-24.953c0-0.367-0.298-0.664-0.664-0.664h-2.117v21.949v0.7v2.916
					c0,0.396,0.321,0.717,0.717,0.717h1.4C133.242,288.785,133.539,288.487,133.539,288.121z"/>
			</g>
			<g id="XMLID_514_">
				<g id="XMLID_520_">
					<rect x="131.613" y="260.39" class="st16" width="2.917" height="24.761"/>
				</g>
				<g id="XMLID_519_">
					<path class="st12" d="M134.531,285.152h-2.917v2.671c0,0.532,0.431,0.963,0.963,0.963h0.991c0.532,0,0.963-0.431,0.963-0.963
						V285.152z"/>
				</g>
				<g id="XMLID_518_">
					<rect x="131.613" y="260.39" class="st17" width="1.459" height="24.761"/>
				</g>
				<g id="XMLID_517_">
					<path class="st18" d="M132.952,257.012l-1.339,3.378h2.917l-1.339-3.378C133.149,256.904,132.995,256.904,132.952,257.012z"/>
				</g>
				<g id="XMLID_516_">
					<path class="st19" d="M133.04,256.803l-0.361,0.91h0.786l-0.361-0.91C133.093,256.774,133.051,256.774,133.04,256.803z"/>
				</g>
				<g id="XMLID_515_">
					<rect x="131.613" y="284.452" class="st19" width="2.917" height="0.7"/>
				</g>
			</g>
		</g>
		
			<linearGradient id="SVGID_1_" gradientUnits="userSpaceOnUse" x1="226.2332" y1="63.0259" x2="421.1209" y2="63.0259" gradientTransform="matrix(0.992 0.1259 -0.1259 0.992 -33.5034 65.9316)">
			<stop  offset="0" style="stop-color:#D77EDB"/>
			<stop  offset="0.1539" style="stop-color:#CD79DC"/>
			<stop  offset="0.4155" style="stop-color:#B26ADF"/>
			<stop  offset="0.7509" style="stop-color:#8753E5"/>
			<stop  offset="1" style="stop-color:#623FE9"/>
		</linearGradient>
		<path class="st2" d="M376.53,90.776c34.059,39.29-40.048,60.989-87.913,102.482c-47.866,41.493-57.502,108.775-91.562,69.485
			c-34.059-39.29-19.36-132.4,28.506-173.893C273.427,47.358,342.471,51.486,376.53,90.776z"/>
		<linearGradient id="SVGID_2_" gradientUnits="userSpaceOnUse" x1="354.653" y1="283.1722" x2="288.5861" y2="29.7642">
			<stop  offset="9.813731e-04" style="stop-color:#623FE9"/>
			<stop  offset="0.1924" style="stop-color:#6242E9"/>
			<stop  offset="0.3525" style="stop-color:#624DEA"/>
			<stop  offset="0.5015" style="stop-color:#615EEB"/>
			<stop  offset="0.6436" style="stop-color:#6077ED"/>
			<stop  offset="0.7809" style="stop-color:#5F96EF"/>
			<stop  offset="0.9127" style="stop-color:#5EBCF2"/>
			<stop  offset="1" style="stop-color:#5DDAF4"/>
		</linearGradient>
		<path class="st3" d="M463.747,191.539c0.709,33.869-9.441,84.781-132.279,84.269c-82.75-0.345-132.382-22.625-132.382-84.269
			c0-61.644,43.437-132.678,108.825-132.678S462.457,129.907,463.747,191.539z"/>
		<g>
			<g>
				<path id="XMLID_512_" class="st24" d="M481.122,276.025H362.295v-89.111c0-1.274,1.033-2.307,2.307-2.307h114.213
					c1.274,0,2.307,1.033,2.307,2.307V276.025z"/>
				<linearGradient id="XMLID_12_" gradientUnits="userSpaceOnUse" x1="362.2282" y1="189.907" x2="481.1218" y2="189.907">
					<stop  offset="0" style="stop-color:#623FE9"/>
					<stop  offset="1" style="stop-color:#976FE4"/>
				</linearGradient>
				<path id="XMLID_511_" class="st25" d="M481.122,195.62v-8.795c0-1.453-1.178-2.63-2.63-2.63H364.858
					c-1.452,0-2.63,1.178-2.63,2.63v8.795H481.122z"/>
				<path id="XMLID_510_" class="st1" d="M371.142,190.319c0,0.84-0.681,1.52-1.52,1.52c-0.84,0-1.52-0.68-1.52-1.52
					c0-0.839,0.68-1.52,1.52-1.52C370.462,188.799,371.142,189.48,371.142,190.319z"/>
				<path id="XMLID_509_" class="st1" d="M376.208,190.319c0,0.84-0.681,1.52-1.52,1.52c-0.84,0-1.52-0.68-1.52-1.52
					c0-0.839,0.68-1.52,1.52-1.52C375.527,188.799,376.208,189.48,376.208,190.319z"/>
				<path id="XMLID_508_" class="st1" d="M381.274,190.319c0,0.84-0.681,1.52-1.52,1.52c-0.84,0-1.52-0.68-1.52-1.52
					c0-0.839,0.68-1.52,1.52-1.52C380.593,188.799,381.274,189.48,381.274,190.319z"/>
				<path id="XMLID_507_" class="st26" d="M475.538,184.607h-7.134c3.084,0,5.584,1.178,5.584,2.63v88.788h7.134v-88.788
					C481.122,185.784,478.622,184.607,475.538,184.607z"/>
				<g>
					<rect x="369.994" y="204.185" class="st1" width="3.625" height="1.54"/>
				</g>
				<g>
					<rect x="369.994" y="209.546" class="st1" width="3.625" height="1.54"/>
				</g>
				<g>
					<rect x="369.994" y="214.908" class="st1" width="3.625" height="1.54"/>
				</g>
				<g>
					<rect x="369.994" y="220.271" class="st1" width="3.625" height="1.54"/>
				</g>
				<g>
					<rect x="369.994" y="225.632" class="st1" width="3.625" height="1.54"/>
				</g>
				<g>
					<rect x="369.994" y="230.995" class="st1" width="3.625" height="1.54"/>
				</g>
				<g>
					<rect x="369.994" y="236.356" class="st1" width="3.625" height="1.54"/>
				</g>
				<g>
					<rect x="369.994" y="241.719" class="st1" width="3.625" height="1.54"/>
				</g>
				<g>
					<rect x="369.994" y="247.08" class="st1" width="3.625" height="1.54"/>
				</g>
				<g>
					<rect x="369.994" y="252.442" class="st1" width="3.625" height="1.54"/>
				</g>
				<g>
					<rect x="369.994" y="257.803" class="st1" width="3.625" height="1.54"/>
				</g>
				<g>
					<rect x="369.994" y="263.166" class="st1" width="3.625" height="1.54"/>
				</g>
				<g>
					<rect x="369.994" y="268.527" class="st1" width="3.625" height="1.54"/>
				</g>
				<g>
					<rect x="381.463" y="204.185" class="st1" width="48.297" height="1.54"/>
				</g>
				<g>
					<rect x="431.944" y="204.185" class="st27" width="6.689" height="1.54"/>
				</g>
				<g>
					<rect x="381.463" y="209.546" class="st28" width="5.221" height="1.54"/>
				</g>
				<g>
					<rect x="391.807" y="209.546" class="st1" width="14.334" height="1.54"/>
				</g>
				<g>
					<rect x="385.831" y="214.908" class="st1" width="15.391" height="1.54"/>
				</g>
				<g>
					<rect x="403.411" y="214.908" class="st28" width="9.349" height="1.54"/>
				</g>
				<g>
					<rect x="381.463" y="220.271" class="st1" width="12.529" height="1.54"/>
				</g>
				<g>
					<rect x="397.131" y="220.271" class="st1" width="25.53" height="1.54"/>
				</g>
				<g>
					<rect x="425.563" y="220.271" class="st27" width="6.862" height="1.54"/>
				</g>
				<g>
					<rect x="436.723" y="220.271" class="st1" width="9.556" height="1.54"/>
				</g>
				<g>
					<rect x="386.923" y="225.632" class="st1" width="21.162" height="1.54"/>
				</g>
				<g>
					<rect x="409.272" y="225.632" class="st28" width="4.784" height="1.54"/>
				</g>
				<g>
					<rect x="415.547" y="225.632" class="st1" width="2.471" height="1.54"/>
				</g>
				<g>
					<rect x="419.875" y="225.632" class="st1" width="9.119" height="1.54"/>
				</g>
				<g>
					<rect x="381.463" y="230.995" class="st1" width="16.041" height="1.54"/>
				</g>
				<g>
					<rect x="399.726" y="230.995" class="st27" width="6.416" height="1.54"/>
				</g>
				<g>
					<rect x="381.463" y="236.356" class="st1" width="38.412" height="1.54"/>
				</g>
				<g>
					<rect x="423.836" y="236.356" class="st1" width="9.746" height="1.54"/>
				</g>
				<g>
					<rect x="437.22" y="236.356" class="st1" width="16.984" height="1.54"/>
				</g>
				<g>
					<rect x="389.109" y="241.719" class="st28" width="8.395" height="1.54"/>
				</g>
				<g>
					<rect x="400.669" y="241.719" class="st1" width="14.878" height="1.54"/>
				</g>
				<g>
					<rect x="381.463" y="247.08" class="st27" width="12.064" height="1.54"/>
				</g>
				<g>
					<rect x="397.131" y="247.08" class="st1" width="44.369" height="1.54"/>
				</g>
				<g>
					<rect x="386.923" y="252.442" class="st1" width="32.392" height="1.54"/>
				</g>
				<g>
					<rect x="421.831" y="252.442" class="st28" width="7.929" height="1.54"/>
				</g>
				<g>
					<rect x="433.582" y="252.442" class="st1" width="29.4" height="1.54"/>
				</g>
				<g>
					<rect x="381.463" y="257.803" class="st1" width="23.268" height="1.54"/>
				</g>
				<g>
					<rect x="408.085" y="257.803" class="st27" width="16.35" height="1.54"/>
				</g>
				<g>
					<rect x="385.831" y="263.166" class="st1" width="29.048" height="1.54"/>
				</g>
				<g>
					<rect x="416.966" y="263.166" class="st1" width="26.446" height="1.54"/>
				</g>
				<g>
					<rect x="381.463" y="268.527" class="st28" width="5.221" height="1.54"/>
				</g>
				<g>
					<rect x="390.715" y="268.527" class="st1" width="19.181" height="1.54"/>
				</g>
				<g>
					<rect x="412.634" y="268.527" class="st1" width="17.555" height="1.54"/>
				</g>
			</g>
			<g id="XMLID_499_">
				<path id="XMLID_506_" class="st1" d="M327.882,276.009H227.441V175.877c0-2.465,1.998-4.464,4.464-4.464h91.514
					c2.465,0,4.464,1.998,4.464,4.464V276.009z"/>
				<linearGradient id="XMLID_13_" gradientUnits="userSpaceOnUse" x1="227.4413" y1="178.9725" x2="327.8822" y2="178.9725">
					<stop  offset="0" style="stop-color:#623FE9"/>
					<stop  offset="0.2056" style="stop-color:#7853E7"/>
					<stop  offset="0.4428" style="stop-color:#8963E5"/>
					<stop  offset="0.6979" style="stop-color:#946CE4"/>
					<stop  offset="1" style="stop-color:#976FE4"/>
				</linearGradient>
				<path id="XMLID_505_" class="st29" d="M327.882,186.532v-11.638c0-1.922-1.558-3.48-3.48-3.48h-93.481
					c-1.921,0-3.48,1.558-3.48,3.48v11.638H327.882z"/>
				<path id="XMLID_504_" class="st24" d="M308.527,219.889h-62.085c-2.758,0-4.994-2.236-4.994-4.994V194.33
					c0-2.758,2.236-4.994,4.994-4.994h62.085c2.758,0,4.994,2.236,4.994,4.994v20.565
					C313.521,217.654,311.285,219.889,308.527,219.889z"/>
				<path id="XMLID_503_" class="st1" d="M239.237,178.972c0,1.112-0.901,2.012-2.011,2.012c-1.112,0-2.012-0.9-2.012-2.012
					c0-1.111,0.9-2.011,2.012-2.011C238.336,176.961,239.237,177.861,239.237,178.972z"/>
				<path id="XMLID_502_" class="st1" d="M245.94,178.972c0,1.112-0.9,2.012-2.012,2.012c-1.112,0-2.012-0.9-2.012-2.012
					c0-1.111,0.9-2.011,2.012-2.011C245.039,176.961,245.94,177.861,245.94,178.972z"/>
				<path id="XMLID_501_" class="st1" d="M252.643,178.972c0,1.112-0.9,2.012-2.012,2.012c-1.111,0-2.011-0.9-2.011-2.012
					c0-1.111,0.9-2.011,2.011-2.011C251.742,176.961,252.643,177.861,252.643,178.972z"/>
				<path id="XMLID_500_" class="st30" d="M324.402,171.413h-4.446c1.922,0,3.48,1.558,3.48,3.48v101.116h4.446V174.893
					C327.882,172.972,326.324,171.413,324.402,171.413z"/>
				<g>
					<rect x="241.917" y="224.212" class="st24" width="72.072" height="1.143"/>
				</g>
				<g>
					<rect x="241.917" y="233.398" class="st24" width="72.072" height="1.143"/>
				</g>
				<g>
					<rect x="255.7" y="242.584" class="st24" width="24.886" height="1.143"/>
				</g>
				<g>
					<rect x="284.61" y="242.584" class="st24" width="29.379" height="1.143"/>
				</g>
				<g>
					<rect x="241.917" y="242.584" class="st24" width="11.401" height="1.143"/>
				</g>
				<g>
					<rect x="295.52" y="251.771" class="st24" width="18.469" height="1.143"/>
				</g>
				<g>
					<rect x="241.917" y="251.771" class="st24" width="47.371" height="1.143"/>
				</g>
				<g>
					<rect x="241.917" y="260.956" class="st24" width="51.267" height="1.143"/>
				</g>
				<g>
					<rect x="241.917" y="270.143" class="st24" width="44.979" height="1.143"/>
				</g>
			</g>
			<path class="st31" d="M367.312,276.025c0.138-0.026,0.283-0.041,0.419-0.071c3.311-0.365,6.042-2.637,7.083-5.693
				c0.65-1.485,1.011-3.194,1.035-5.091c0.224-17.694,0-35.406,0-53.102c0-1.479,0-2.958,0-4.437c-0.678,0-1.357,0-2.035,0
				c-0.15,0-0.226,0.117-0.226,0.234h-8.473c-0.684,0-1.284,0.354-1.633,0.887c-0.118,0.162-0.203,0.349-0.243,0.554
				c-0.045,0.164-0.076,0.333-0.076,0.511v6.528h0.049v59.663h1.819c-0.084,0.008-0.171,0.009-0.255,0.016H367.312z"/>
			<path class="st31" d="M306.306,171.413h-0.172h-4.274h-27.309c0-0.106-0.07-0.2-0.193-0.22c0,7.78,0,15.561,0,23.341
				c0,0.165,0.129,0.248,0.257,0.248v34.035c-0.129,0-0.257,0.083-0.257,0.249c0,8.657,0,17.314,0,25.972
				c0,3.713-0.489,8.479,0.261,12.562c0.034,4.034,2.882,7.393,6.678,8.213c0.254,0.074,0.523,0.135,0.793,0.195h23.25h4.446
				v-89.477v-11.466v-0.173C309.786,172.972,308.228,171.413,306.306,171.413z"/>
			<g id="XMLID_494_">
				<linearGradient id="XMLID_14_" gradientUnits="userSpaceOnUse" x1="298.8027" y1="277.0597" x2="349.7682" y2="97.3396">
					<stop  offset="0" style="stop-color:#56408B"/>
					<stop  offset="0.0341" style="stop-color:#5A4390"/>
					<stop  offset="0.3164" style="stop-color:#7456B4"/>
					<stop  offset="0.5801" style="stop-color:#8764CF"/>
					<stop  offset="0.8158" style="stop-color:#936CDE"/>
					<stop  offset="1" style="stop-color:#976FE4"/>
				</linearGradient>
				<path id="XMLID_497_" class="st32" d="M361.941,276.009H287.33c-5.214,0-9.441-4.227-9.441-9.441V105.36
					c0-5.214,4.227-9.441,9.441-9.441h74.611c5.214,0,9.441,4.227,9.441,9.441v161.208
					C371.382,271.782,367.155,276.009,361.941,276.009z"/>
				<linearGradient id="XMLID_15_" gradientUnits="userSpaceOnUse" x1="277.8893" y1="183.9051" x2="371.0623" y2="183.9051">
					<stop  offset="0" style="stop-color:#623FE9"/>
					<stop  offset="0.1699" style="stop-color:#616CEC"/>
					<stop  offset="0.3463" style="stop-color:#5F93EF"/>
					<stop  offset="0.5208" style="stop-color:#5EB2F1"/>
					<stop  offset="0.6903" style="stop-color:#5EC8F3"/>
					<stop  offset="0.8526" style="stop-color:#5DD5F4"/>
					<stop  offset="1" style="stop-color:#5DDAF4"/>
				</linearGradient>
				<rect id="XMLID_496_" x="277.889" y="116.679" class="st33" width="93.173" height="134.453"/>
				<path id="XMLID_495_" class="st24" d="M331.453,262.788c0,3.765-3.052,6.818-6.817,6.818c-3.765,0-6.817-3.053-6.817-6.818
					c0-3.765,3.052-6.817,6.817-6.817C328.401,255.971,331.453,259.023,331.453,262.788z"/>
				<path class="st34" d="M286.369,95.919h7.861c-4.683,0-8.48,3.796-8.48,8.48v163.13c0,4.683,3.796,8.48,8.48,8.48h-7.861
					c-4.683,0-8.48-3.796-8.48-8.48v-163.13C277.889,99.716,281.686,95.919,286.369,95.919z"/>
				<path class="st35" d="M362.583,95.919h-7.861c4.683,0,8.48,3.796,8.48,8.48v163.13c0,4.683-3.796,8.48-8.48,8.48h7.861
					c4.683,0,8.48-3.796,8.48-8.48v-163.13C371.062,99.716,367.266,95.919,362.583,95.919z"/>
				<g>
					<rect x="311.236" y="106.132" class="st24" width="17.91" height="1.143"/>
				</g>
				<g>
					<rect x="330.975" y="106.132" class="st24" width="4.954" height="1.143"/>
				</g>
			</g>
			<g id="XMLID_470_">
				<path id="XMLID_493_" class="st36" d="M446.815,267.196v7.64c0,0.641-0.52,1.161-1.161,1.161H389.59
					c-0.641,0-1.161-0.52-1.161-1.161v-7.64c0-0.641,0.52-1.161,1.161-1.161h56.065
					C446.296,266.035,446.815,266.555,446.815,267.196z"/>
				<path id="XMLID_492_" class="st1" d="M446.815,267.911v3.467h-58.386v-3.467c0-1.036,0.84-1.876,1.876-1.876h54.634
					C445.975,266.035,446.815,266.875,446.815,267.911z"/>
				
					<rect id="XMLID_491_" x="391.407" y="266.338" transform="matrix(6.123234e-17 -1 1 6.123234e-17 125.3722 658.6897)" class="st37" width="1.247" height="0.642"/>
				
					<rect id="XMLID_490_" x="394.001" y="266.338" transform="matrix(6.123234e-17 -1 1 6.123234e-17 127.9658 661.2833)" class="st37" width="1.247" height="0.642"/>
				
					<rect id="XMLID_489_" x="396.594" y="266.338" transform="matrix(6.123234e-17 -1 1 6.123234e-17 130.5593 663.8768)" class="st37" width="1.247" height="0.642"/>
				
					<rect id="XMLID_488_" x="399.188" y="266.338" transform="matrix(6.123234e-17 -1 1 6.123234e-17 133.1528 666.4703)" class="st37" width="1.247" height="0.642"/>
				
					<rect id="XMLID_487_" x="401.158" y="266.962" transform="matrix(6.123234e-17 -1 1 6.123234e-17 135.1226 669.6877)" class="st37" width="2.495" height="0.642"/>
				
					<rect id="XMLID_486_" x="404.375" y="266.338" transform="matrix(6.123234e-17 -1 1 6.123234e-17 138.3399 671.6574)" class="st37" width="1.247" height="0.642"/>
				
					<rect id="XMLID_485_" x="406.969" y="266.338" transform="matrix(6.123234e-17 -1 1 6.123234e-17 140.9336 674.2511)" class="st37" width="1.247" height="0.642"/>
				
					<rect id="XMLID_484_" x="409.562" y="266.338" transform="matrix(6.123234e-17 -1 1 6.123234e-17 143.527 676.8445)" class="st37" width="1.247" height="0.642"/>
				
					<rect id="XMLID_483_" x="412.156" y="266.338" transform="matrix(6.123234e-17 -1 1 6.123234e-17 146.1206 679.4381)" class="st37" width="1.247" height="0.642"/>
				
					<rect id="XMLID_482_" x="414.125" y="266.962" transform="matrix(6.123234e-17 -1 1 6.123234e-17 148.0903 682.6555)" class="st37" width="2.495" height="0.642"/>
				
					<rect id="XMLID_481_" x="417.343" y="266.338" transform="matrix(6.123234e-17 -1 1 6.123234e-17 151.3078 684.6252)" class="st37" width="1.247" height="0.642"/>
				
					<rect id="XMLID_480_" x="419.936" y="266.338" transform="matrix(6.123234e-17 -1 1 6.123234e-17 153.9013 687.2188)" class="st37" width="1.247" height="0.642"/>
				
					<rect id="XMLID_479_" x="422.53" y="266.338" transform="matrix(6.123234e-17 -1 1 6.123234e-17 156.4949 689.8123)" class="st37" width="1.247" height="0.642"/>
				
					<rect id="XMLID_478_" x="425.123" y="266.338" transform="matrix(6.123234e-17 -1 1 6.123234e-17 159.0884 692.4059)" class="st37" width="1.247" height="0.642"/>
				
					<rect id="XMLID_477_" x="427.093" y="266.962" transform="matrix(6.123234e-17 -1 1 6.123234e-17 161.0581 695.6232)" class="st37" width="2.495" height="0.642"/>
				
					<rect id="XMLID_476_" x="430.31" y="266.338" transform="matrix(6.123234e-17 -1 1 6.123234e-17 164.2755 697.593)" class="st37" width="1.247" height="0.642"/>
				
					<rect id="XMLID_475_" x="432.904" y="266.338" transform="matrix(6.123234e-17 -1 1 6.123234e-17 166.8692 700.1866)" class="st37" width="1.247" height="0.642"/>
				
					<rect id="XMLID_474_" x="435.498" y="266.338" transform="matrix(6.123234e-17 -1 1 6.123234e-17 169.4625 702.78)" class="st37" width="1.247" height="0.642"/>
				
					<rect id="XMLID_473_" x="438.091" y="266.338" transform="matrix(6.123234e-17 -1 1 6.123234e-17 172.0564 705.3738)" class="st37" width="1.247" height="0.642"/>
				
					<rect id="XMLID_472_" x="440.061" y="266.962" transform="matrix(6.123234e-17 -1 1 6.123234e-17 174.0258 708.5909)" class="st37" width="2.495" height="0.642"/>
				
					<rect id="XMLID_471_" x="443.278" y="266.338" transform="matrix(6.123234e-17 -1 1 6.123234e-17 177.2432 710.5607)" class="st37" width="1.247" height="0.642"/>
			</g>
			<path class="st31" d="M371.382,158.401v-29.053c-7.2,0-14.401,0-21.601,0c-3.448,0-7.856-0.512-11.248,0.501
				c-0.015,0.005-0.03,0.009-0.045,0.013c-0.22,0.067-0.449,0.119-0.659,0.199c-0.07,0.027-0.115,0.075-0.142,0.13
				c-0.827,0.412-1.537,1.022-2.066,1.77c-0.036,0.02-0.07,0.048-0.096,0.093c-0.054,0.094-0.099,0.191-0.148,0.286
				c-0.277,0.468-0.487,0.979-0.617,1.523c-0.843,2.82-0.417,6.044-0.417,8.945c0,3.229,0,6.457,0,9.686
				c0,0.166,0.129,0.249,0.257,0.249v0.352c0,1.342,0.476,2.573,1.267,3.533c0.013,0.032,0.033,0.064,0.064,0.093
				c0.022,0.021,0.049,0.037,0.072,0.057c0.88,0.992,2.106,1.667,3.492,1.832c4.372,1.243,10.204,0.3,14.101,0.3
				c6.014,0,12.027,0,18.041,0c0-0.087,0-0.174,0-0.26C371.64,158.484,371.511,158.401,371.382,158.401z"/>
			<g>
				<linearGradient id="SVGID_3_" gradientUnits="userSpaceOnUse" x1="336.4728" y1="142.2578" x2="427.5674" y2="142.2578">
					<stop  offset="0" style="stop-color:#D77EDB"/>
					<stop  offset="0.1539" style="stop-color:#CD79DC"/>
					<stop  offset="0.4155" style="stop-color:#B26ADF"/>
					<stop  offset="0.7509" style="stop-color:#8753E5"/>
					<stop  offset="1" style="stop-color:#623FE9"/>
				</linearGradient>
				<path class="st22" d="M420.775,156.782h-77.51c-3.751,0-6.792-3.041-6.792-6.792v-15.463c0-3.751,3.041-6.792,6.792-6.792h77.51
					c3.751,0,6.792,3.041,6.792,6.792v15.463C427.567,153.74,424.526,156.782,420.775,156.782z"/>
				<path class="st39" d="M423.919,128.273c0.343,0.767,0.539,1.615,0.539,2.51v16.731c0,3.401-2.757,6.158-6.158,6.158h-78.778
					c-0.895,0-1.743-0.195-2.51-0.538c0.961,2.149,3.114,3.648,5.62,3.648h78.778c3.401,0,6.158-2.757,6.158-6.159v-16.731
					C427.567,131.386,426.068,129.234,423.919,128.273z"/>
				<path class="st1" d="M362.178,152.645h-14.818c-1.75,0-3.169-1.419-3.169-3.169v-14.818c0-1.75,1.419-3.169,3.169-3.169h14.818
					c1.75,0,3.169,1.419,3.169,3.169v14.818C365.347,151.227,363.929,152.645,362.178,152.645z"/>
				<g>
					<rect x="368.138" y="135.282" class="st1" width="52.147" height="1.143"/>
				</g>
				<g>
					<rect x="386.943" y="141.687" class="st1" width="33.342" height="1.143"/>
				</g>
				<g>
					<rect x="368.138" y="141.687" class="st1" width="14.639" height="1.143"/>
				</g>
				<g>
					<rect x="368.138" y="148.091" class="st1" width="27.442" height="1.143"/>
				</g>
			</g>
			<g>
				<linearGradient id="SVGID_4_" gradientUnits="userSpaceOnUse" x1="281.3306" y1="177.1487" x2="367.3859" y2="177.1487">
					<stop  offset="0" style="stop-color:#5DDAF4"/>
					<stop  offset="0.154" style="stop-color:#5EBAF2"/>
					<stop  offset="0.4365" style="stop-color:#6085EE"/>
					<stop  offset="0.682" style="stop-color:#615FEB"/>
					<stop  offset="0.878" style="stop-color:#6248EA"/>
					<stop  offset="1" style="stop-color:#623FE9"/>
				</linearGradient>
				<path class="st23" d="M360.593,190.869h-72.47c-3.751,0-6.792-3.041-6.792-6.792v-13.856c0-3.751,3.041-6.793,6.793-6.793h72.47
					c3.751,0,6.793,3.041,6.793,6.793v13.856C367.386,187.828,364.345,190.869,360.593,190.869z"/>
				<path class="st39" d="M363.94,163.579c0.324,0.725,0.509,1.526,0.509,2.371v15.805c0,3.213-2.605,5.818-5.818,5.818h-74.42
					c-0.845,0-1.647-0.184-2.371-0.509c0.908,2.03,2.941,3.446,5.309,3.446h74.42c3.213,0,5.818-2.605,5.818-5.818v-15.805
					C367.386,166.521,365.969,164.487,363.94,163.579z"/>
				<path class="st1" d="M305.439,186.604h-13.648c-1.75,0-3.169-1.419-3.169-3.169v-13.648c0-1.75,1.419-3.169,3.169-3.169h13.648
					c1.75,0,3.169,1.419,3.169,3.169v13.648C308.608,185.185,307.189,186.604,305.439,186.604z"/>
				<g>
					<rect x="311.244" y="170.169" class="st1" width="49.263" height="1.143"/>
				</g>
				<g>
					<rect x="329.008" y="176.219" class="st1" width="31.498" height="1.143"/>
				</g>
				<g>
					<rect x="311.244" y="176.219" class="st1" width="13.83" height="1.143"/>
				</g>
				<g>
					<rect x="311.244" y="182.269" class="st1" width="25.925" height="1.143"/>
				</g>
			</g>
			<g>
				<linearGradient id="SVGID_5_" gradientUnits="userSpaceOnUse" x1="267.6726" y1="212.0395" x2="358.7674" y2="212.0395">
					<stop  offset="0" style="stop-color:#623FE9"/>
					<stop  offset="0.3119" style="stop-color:#6E4AE8"/>
					<stop  offset="0.8802" style="stop-color:#8F68E5"/>
					<stop  offset="1" style="stop-color:#976FE4"/>
				</linearGradient>
				<path class="st38" d="M351.975,226.563h-77.51c-3.751,0-6.793-3.041-6.793-6.793v-15.463c0-3.751,3.041-6.792,6.792-6.792h77.51
					c3.751,0,6.792,3.041,6.792,6.792v15.463C358.767,223.522,355.726,226.563,351.975,226.563z"/>
				<path class="st39" d="M355.119,198.054c0.343,0.767,0.538,1.615,0.538,2.51v16.731c0,3.401-2.757,6.159-6.158,6.159h-78.778
					c-0.895,0-1.743-0.195-2.51-0.539c0.962,2.149,3.114,3.648,5.62,3.648h78.778c3.401,0,6.158-2.757,6.158-6.158v-16.731
					C358.767,201.168,357.268,199.016,355.119,198.054z"/>
				<path class="st1" d="M293.378,222.427h-14.818c-1.75,0-3.169-1.419-3.169-3.169V204.44c0-1.75,1.419-3.169,3.169-3.169h14.818
					c1.75,0,3.169,1.419,3.169,3.169v14.818C296.547,221.008,295.129,222.427,293.378,222.427z"/>
				<g>
					<rect x="299.338" y="205.064" class="st1" width="52.147" height="1.143"/>
				</g>
				<g>
					<rect x="318.142" y="211.468" class="st1" width="33.342" height="1.143"/>
				</g>
				<g>
					<rect x="299.338" y="211.468" class="st1" width="14.639" height="1.143"/>
				</g>
				<g>
					<rect x="299.338" y="217.872" class="st1" width="27.442" height="1.143"/>
				</g>
			</g>
			<g id="XMLID_466_">
				<linearGradient id="XMLID_26_" gradientUnits="userSpaceOnUse" x1="427.6593" y1="275.9487" x2="458.8138" y2="254.798">
					<stop  offset="0" style="stop-color:#623FE9"/>
					<stop  offset="0.3119" style="stop-color:#6E4AE8"/>
					<stop  offset="0.8802" style="stop-color:#8F68E5"/>
					<stop  offset="1" style="stop-color:#976FE4"/>
				</linearGradient>
				<path id="XMLID_469_" class="st42" d="M458.985,276.025h-31.67c-0.458,0-0.83-0.372-0.83-0.83v-19.526
					c0-0.459,0.372-0.83,0.83-0.83h31.67c0.458,0,0.83,0.372,0.83,0.83v19.526C459.815,275.653,459.444,276.025,458.985,276.025z"/>
				<linearGradient id="XMLID_27_" gradientUnits="userSpaceOnUse" x1="426.7052" y1="269.9263" x2="459.5952" y2="269.9263">
					<stop  offset="0" style="stop-color:#623FE9"/>
					<stop  offset="0.4927" style="stop-color:#6441E9"/>
					<stop  offset="0.6823" style="stop-color:#6B47E8"/>
					<stop  offset="0.8197" style="stop-color:#7752E7"/>
					<stop  offset="0.9312" style="stop-color:#8861E5"/>
					<stop  offset="1" style="stop-color:#976FE4"/>
				</linearGradient>
				<path id="XMLID_468_" class="st43" d="M459.595,275.529l-15.79-11.489c-0.39-0.284-0.919-0.284-1.31,0l-15.79,11.489
					c0.204,0.292,0.526,0.495,0.91,0.495h31.07C459.069,276.025,459.391,275.822,459.595,275.529z"/>
				<linearGradient id="XMLID_28_" gradientUnits="userSpaceOnUse" x1="426.7052" y1="260.9376" x2="459.5952" y2="260.9376">
					<stop  offset="0" style="stop-color:#623FE9"/>
					<stop  offset="0.0759" style="stop-color:#6945E8"/>
					<stop  offset="0.4281" style="stop-color:#825CE6"/>
					<stop  offset="0.7467" style="stop-color:#926AE5"/>
					<stop  offset="1" style="stop-color:#976FE4"/>
				</linearGradient>
				<path id="XMLID_467_" class="st44" d="M426.705,255.334l15.79,11.489c0.39,0.284,0.919,0.284,1.31,0l15.79-11.489
					c-0.204-0.292-0.526-0.495-0.91-0.495h-31.07C427.232,254.839,426.909,255.042,426.705,255.334z"/>
			</g>
			<path class="st31" d="M243.383,273.624c0-6.091,0-12.182,0-18.273c-0.25-0.198-0.506-0.389-0.792-0.513
				c-0.086-0.047-0.175-0.076-0.269-0.093c-0.002-0.001-0.005-0.001-0.007-0.001c-0.058-0.01-0.113-0.028-0.171-0.027
				c-0.228-0.032-0.475-0.021-0.752,0.066c-0.646,0.201-2.654,2.238-2.625,3.178c0.029,0.947,0.784,0.665,1.031,1.448
				c0.932,2.957-0.966,1.273-1.928,2.223c-0.106,0.104-0.2,0.2-0.293,0.296c-0.283,0.109-0.484,0.355-0.551,0.656
				c-0.413,0.607-0.527,1.27-0.267,2.563c0.198,0.986,0.252,1.223,0.419,1.347c0.164,0.23,0.419,0.388,0.722,0.393
				c0.096,0.064,0.2,0.139,0.321,0.236c0.972,0.781,2.437-1.701,2.074,1.737c-0.035,0.337-0.901,0.626-0.951,0.955
				c-0.077,0.506-0.533,0.767-0.409,1.418c0.153,0.799,1.892,2.554,2.56,2.74c1.368,0.382,0.145-0.026,1.525-0.063
				C243.031,273.909,243.205,273.775,243.383,273.624z"/>
			<g class="st45">
				<path class="st37" d="M385.467,230.517l-1.714,9.979l-6.55,27.131h0.758l-0.27,0.965l-1.007,1.161l-1.138-1.659l-9.653,3.108
					c-0.919,0.339-1.53,1.214-1.53,2.194v0.742v1.807h19.995v-1.807v-4.067h-0.984l0.683-2.445h0.477
					c3.494-11.27,8.593-18.326,8.593-26.04l0.003-4.21l8.201-19.5l7.682,21.995l3.754,27.755h0.78v2.962h-1.727v3.549l0.663,1.807
					h7.134l1.091-1.807v-3.549h-1.781v-2.962h1.157l-3.388-30.393l-1.577-20.439l0.081-1.86c0.131-0.443,0.227-0.893,0.29-1.346
					c0.063-0.454,0.092-0.91,0.086-1.367c-0.01-0.913-0.156-1.824-0.438-2.704l-0.394-1.653h-23.856L385.467,230.517z"/>
			</g>
			<g>
				<g>
					<path class="st28" d="M400.354,162.189c-0.37-0.357-0.868-0.566-1.21-0.95c-0.503-0.565-0.415-1.192-0.622-1.844
						c-0.221-0.698-0.702-1.314-0.94-2.023c-0.129-0.384-0.23-0.781-0.42-1.139c-0.847-1.592-3.044-2.136-4.697-2.283
						c-1.249-0.111-4.041-0.754-3.973,1.212c0.013,0.379,0.139,0.744,0.286,1.093c0.47,1.119,1.527,1.353,1.562,2.728
						c0.018,0.699-0.085,1.437,0.217,2.069c0.381,0.796,1.306,1.207,1.737,1.977c0.396,0.707,0.303,1.572,0.41,2.376
						c0.028,0.212,0.075,0.43,0.201,0.603c0.217,0.297,0.608,0.392,0.939,0.55c0.757,0.361,1.262,1.108,1.58,1.884
						c0.318,0.776,0.486,1.606,0.783,2.391c0.51,1.348,1.384,2.521,2.248,3.674c-0.334-0.63-0.171-1.482,0.372-1.944
						c0.44-0.374,1.058-0.487,1.496-0.864c0.699-0.602,0.729-1.655,0.704-2.577c-0.036-1.345-0.138-2.68,0.06-4.003
						C401.237,164.104,401.126,162.962,400.354,162.189z"/>
				</g>
				<rect x="411.207" y="265.908" class="st1" width="5.379" height="6.939"/>
				<polygon class="st1" points="380.524,271.902 372.381,272.021 375.352,268.593 376.277,265.284 381.932,266.864 				"/>
				<path class="st27" d="M389.526,203.776l-6.398,26.741l-1.714,9.979l-6.55,27.131h7.331c3.494-11.27,8.593-18.326,8.593-26.04
					l0.003-4.21l10.581-25.16l0,0c1.211-0.74,1.949-2.057,1.949-3.476v-4.966H389.526z"/>
				<path class="st27" d="M411.429,203.776l1.369,5.743c0.562,1.759,0.584,3.646,0.062,5.417l-0.081,1.86l1.577,20.439l3.388,30.393
					h-7.316l-3.754-27.755l-8.888-25.449v-10.648H411.429z"/>
				<path class="st31" d="M414.356,237.235l-1.577-20.439l0.081-1.86c0.522-1.771,0.501-3.658-0.062-5.417l-0.88-3.691l-2.153,0.145
					l0.226,3.546c0.562,1.759,0.584,3.646,0.062,5.417l0.855,1.86l1.577,20.439l3.388,30.393h1.871L414.356,237.235z"/>
				<path class="st1" d="M418.835,171.577l2.651,0.468l-6.315-11.928l-2.183-1.091l-1.559-2.261h1.403h0.702l0.078-1.793
					l-2.081-4.745c0.078-0.192,0.571-0.381,0.767-0.314l2.405,4.201l0.546-0.078l-1.345-5.224c0.134-0.173,0.704-0.135,0.877,0
					l1.169,4.6h0.507l-0.585-4.6c0.097-0.11,0.474-0.096,0.585,0l0.585,4.093l0.324-0.039l0.339-2.576
					c0.081-0.071,0.349-0.071,0.429,0l0.702,5.929v2.807l8.014,13.18c0.826,1.358,0.579,3.11-0.59,4.187l0,0
					c-0.617,0.568-1.408,0.91-2.244,0.971l-5.18,0.374V171.577z"/>
				<g class="st4">
					<path class="st37" d="M426.852,172.211c-0.038,0.857-0.393,1.694-1.061,2.309c-0.617,0.568-1.408,0.91-2.244,0.971
						l-4.712,0.341v1.905l5.179-0.374c0.836-0.06,1.627-0.403,2.244-0.971C427.426,175.316,427.673,173.568,426.852,172.211z"/>
				</g>
				<path class="st1" d="M381.414,171.577l-2.651,0.468l6.315-11.928l2.183-1.091l1.559-2.261h-1.403h-0.702l-0.078-1.793
					l2.081-4.745c-0.078-0.192-0.571-0.381-0.767-0.314l-2.405,4.201l-0.546-0.078l1.345-5.224c-0.134-0.173-0.704-0.135-0.877,0
					l-1.169,4.6h-0.507l0.585-4.6c-0.097-0.11-0.474-0.096-0.585,0l-0.585,4.093l-0.324-0.039l-0.339-2.576
					c-0.081-0.071-0.349-0.071-0.429,0l-0.702,5.929v2.807l-8.014,13.18c-0.826,1.358-0.579,3.11,0.59,4.187l0,0
					c0.617,0.568,1.408,0.91,2.244,0.971l5.18,0.374V171.577z"/>
				<g class="st4">
					<path class="st37" d="M377.638,175.023c-0.836-0.06-1.627-0.403-2.244-0.971c-1.123-1.035-1.384-2.689-0.672-4.022
						l-1.322,2.174c-0.826,1.358-0.579,3.11,0.59,4.187c0.617,0.568,1.408,0.91,2.244,0.971l5.179,0.374v-2.44L377.638,175.023z"/>
				</g>
				<path class="st31" d="M411.918,205.828l-0.489-2.052h-8.108h-5.535h-8.259l-0.997,3.172
					C394.904,205.721,409.141,206.263,411.918,205.828z"/>
				<path class="st48" d="M396.929,168.926l-8.108,8.81l-0.846,2.784c-0.317,1.043-0.419,2.141-0.3,3.225l1.497,7.868
					c0,0-0.079,8.405-1.678,12.162c0,0,25.278,0.842,24.87,0c-3.352-6.915-2.729-10.759-2.729-10.759l1.793-15.281l-8.108-8.81
					H396.929z"/>
				<path class="st35" d="M409.636,193.017l1.793-15.281l-8.108-8.81h-2.339l8.108,8.81l-1.793,15.281c0,0-0.624,3.844,2.729,10.759
					c0.122,0.252-2.069,0.353-5.188,0.37c4.305,0.022,7.678-0.059,7.527-0.37C409.012,196.861,409.636,193.017,409.636,193.017z"/>
				<path class="st48" d="M382.02,270.073v5.874h-19.995v-2.549c0-0.98,0.611-1.856,1.53-2.194l9.653-3.108l1.356,1.977H382.02z"/>
				<rect x="362.025" y="274.139" class="st24" width="19.995" height="1.807"/>
				<polygon class="st48" points="410.142,275.947 417.276,275.947 418.367,274.139 418.367,270.591 409.48,270.591 409.48,274.139 
									"/>
				<polygon class="st24" points="417.276,275.947 418.251,274.333 409.601,274.333 410.142,275.947 				"/>
				<polygon class="st48" points="403.32,164.327 409.345,168.784 418.835,170.798 418.835,178.204 413.144,178.204 
					408.154,176.957 403.32,168.926 				"/>
				<polygon class="st48" points="396.929,167.051 390.904,168.784 381.414,170.798 381.414,178.204 387.106,178.204 
					392.095,176.957 399.932,168.376 				"/>
				<path class="st31" d="M390.167,203.776c1.598-3.757,1.343-14.033,1.343-14.033l-1.497-7.868c-0.119-1.084-0.017-2.181,0.3-3.225
					l0.445-1.465c0.22-0.723-0.148-1.495-0.849-1.78l-0.269-0.109h-8.227v2.908h5.691l1.702-0.426l-0.833,2.742
					c-0.317,1.043-0.419,2.141-0.3,3.225l1.497,7.868c0,0-0.079,8.405-1.678,12.162H390.167z"/>
				<path class="st1" d="M400.124,169.39L400.124,169.39c-1.765,0-3.196-1.431-3.196-3.197v-4.439h6.393v4.439
					C403.32,167.959,401.889,169.39,400.124,169.39z"/>
				<path class="st1" d="M391.08,153.334c0,0-0.624,2.339-0.546,4.678l0.27,1.014l-1.172,1.848c-0.285,0.449,0.038,1.036,0.57,1.036
					h0.878v3.235c0,0.797,0.646,1.442,1.442,1.442h1.377c2.848,0,5.49-1.486,6.969-3.92l1.36-2.239l-0.546-7.095
					C401.683,153.334,395.992,149.124,391.08,153.334z"/>
				<g class="st4">
					<path class="st37" d="M406.853,184.439c0.133-0.348,0.173-0.727,0.305-1.076c0.132-0.349,0.396-0.687,0.764-0.746
						c-0.139,0.683-0.017,1.416,0.335,2.018c0.485-0.979,0.946-2.647,1.745-3.395c0.364-0.34,0.605-0.257,0.806-0.802
						c0.168-0.457,0.199-0.929,0.429-1.372c0.016-0.032,0.031-0.064,0.047-0.096l0.145-1.233l-8.108-8.81h-1.562
						c0.932-0.559,1.562-1.568,1.562-2.733v-4.439h-1.897l0.805-1.325l-0.546-7.095c0,0-5.691-4.21-10.603,0
						c0,0-0.227,0.854-0.39,2.043c0.684,0.47,1.452,0.788,2.164,0.832c1.062,0.066,1.95-0.233,2.608,0.78
						c0.505,0.777,0.532,1.813,0.396,2.7c-0.066,0.434-0.165,0.872-0.11,1.307c0.25,1.967,2.76,1.957,2.725,4.067
						c-0.013,0.804-0.283,1.581-0.37,2.381c-0.047,0.427-0.019,0.88,0.106,1.29c0.09,0.068,0.182,0.134,0.28,0.192h-0.2
						c0.113,0.277,0.263,0.534,0.501,0.723c0.48,0.382,1.13,0.445,1.706,0.655c1.13,0.413,1.332,1.659,1.2,2.729
						c-0.073,0.586-0.23,1.163-0.244,1.754c-0.015,0.591,0.139,1.224,0.583,1.614c0.749,0.661,1.988,0.39,2.794,0.98
						c0.754,0.553,0.847,1.649,0.68,2.568c-0.167,0.92-0.524,1.83-0.415,2.759c0.063,0.541,0.283,1.052,0.365,1.59
						c0.082,0.538-0.01,1.159-0.441,1.492C405.818,185.74,406.566,185.189,406.853,184.439z"/>
				</g>
				<g>
					<path class="st28" d="M413.14,174.895c-0.089-0.176-0.197-0.351-0.326-0.526c-0.613-0.833-1.593-1.46-1.818-2.47
						c-0.151-0.678,0.083-1.38,0.071-2.075c-0.015-0.902-0.472-1.787-1.199-2.321c-0.462-0.339-1.049-0.571-1.313-1.079
						c-0.197-0.379-0.167-0.83-0.191-1.256c-0.059-1.047-0.505-1.88-1.053-2.744c-0.585-0.921-1.343-1.409-1.369-2.633
						c-0.016-0.76,0.23-1.597-0.188-2.232c-0.244-0.372-0.672-0.587-0.941-0.941c-0.344-0.452-0.383-1.055-0.496-1.612
						c-0.97-4.777-6.362-4.891-10.181-4.549c-0.871,0.078-1.963,0.105-2.793,0.353c-0.471,0.141-0.917,0.447-1.105,0.902
						c-0.126,0.306-0.126,0.651-0.076,0.978c0.263,1.736,2.365,3.41,4.095,3.518c1.062,0.066,1.95-0.233,2.608,0.78
						c0.505,0.777,0.532,1.813,0.396,2.7c-0.066,0.434-0.165,0.872-0.11,1.307c0.25,1.967,2.76,1.957,2.725,4.067
						c-0.013,0.804-0.283,1.581-0.37,2.381c-0.087,0.799,0.057,1.705,0.686,2.205c0.48,0.382,1.13,0.445,1.706,0.655
						c1.13,0.413,1.332,1.659,1.2,2.729c-0.073,0.586-0.23,1.163-0.245,1.754c-0.014,0.591,0.139,1.224,0.583,1.614
						c0.749,0.661,1.988,0.389,2.794,0.98c0.754,0.553,0.847,1.649,0.68,2.568c-0.167,0.92-0.524,1.83-0.415,2.759
						c0.063,0.541,0.283,1.052,0.365,1.59c0.082,0.538-0.01,1.159-0.441,1.492c0.802-0.052,1.55-0.603,1.837-1.353
						c0.133-0.348,0.173-0.727,0.305-1.076c0.132-0.349,0.396-0.687,0.764-0.746c-0.139,0.683-0.017,1.416,0.335,2.018
						c0.485-0.979,0.946-2.647,1.745-3.395c0.364-0.34,0.605-0.257,0.806-0.802c0.168-0.456,0.199-0.929,0.428-1.372
						C413.347,177.701,413.849,176.294,413.14,174.895z"/>
				</g>
				<g class="st45">
					<g>
						<path class="st37" d="M407.355,184.856c0.646-0.499,0.442-1.341,0.346-2.025c-0.127-0.899,0.044-1.357,0.424-2.195
							c0.753-1.658-0.026-3.845-1.656-4.655c-0.197-0.098-0.406-0.179-0.577-0.318c-0.247-0.201-0.388-0.505-0.485-0.809
							c-0.486-1.533-0.07-3.407-1.122-4.623c-0.58-0.67-1.501-0.984-2.039-1.688c-1.083-1.418-0.096-3.56-0.789-5.204
							c-0.503-1.193-1.704-1.827-2.544-2.744c-1.065-1.163-0.818-2.199-0.502-3.657c0.126-0.582,0.2-1.236-0.13-1.731
							c-0.235-0.353-0.635-0.559-1.035-0.697c-2.215-0.765-5.666,0.422-6.148-2.753c-0.044-0.29-0.035-0.59,0.052-0.868
							c-0.395,0.161-0.75,0.435-0.912,0.825c-0.126,0.306-0.126,0.651-0.076,0.978c0.263,1.736,2.365,3.41,4.095,3.518
							c1.062,0.066,1.95-0.233,2.608,0.78c0.505,0.777,0.532,1.813,0.396,2.7c-0.067,0.434-0.165,0.872-0.11,1.307
							c0.25,1.967,2.76,1.957,2.725,4.067c-0.013,0.804-0.283,1.581-0.37,2.381c-0.087,0.799,0.057,1.705,0.686,2.205
							c0.479,0.382,1.13,0.445,1.706,0.655c1.13,0.413,1.332,1.659,1.2,2.729c-0.073,0.586-0.23,1.163-0.245,1.754
							c-0.014,0.591,0.139,1.224,0.583,1.614c0.749,0.661,1.988,0.39,2.794,0.98c0.754,0.553,0.847,1.649,0.68,2.568
							c-0.167,0.92-0.524,1.83-0.415,2.759c0.063,0.541,0.283,1.052,0.365,1.59c0.082,0.538-0.01,1.159-0.441,1.492
							c0.736-0.047,1.41-0.526,1.74-1.183C407.907,184.739,407.639,184.838,407.355,184.856z"/>
					</g>
					<g>
						<path class="st37" d="M411.86,180.921c0.13-0.088,0.241-0.201,0.341-0.459C412.08,180.598,411.966,180.75,411.86,180.921z"/>
					</g>
				</g>
				<g>
					<g>
						<path class="st49" d="M409.626,184.561c0.013,0.024,0.02,0.05,0.034,0.073c0.241-0.487,0.477-1.143,0.75-1.773
							C410.108,183.369,409.858,183.986,409.626,184.561z"/>
					</g>
					<g>
						<path class="st49" d="M408.093,184.298c-0.09,0.238-0.145,0.488-0.208,0.735c0.154-0.178,0.286-0.373,0.371-0.594
							c0.083-0.217,0.135-0.444,0.19-0.67C408.291,183.911,408.168,184.099,408.093,184.298z"/>
					</g>
					<g>
						<path class="st49" d="M413.14,174.895c-0.089-0.176-0.197-0.351-0.326-0.526c-0.613-0.833-1.593-1.46-1.818-2.47
							c-0.151-0.678,0.083-1.38,0.071-2.075c-0.015-0.902-0.472-1.787-1.199-2.321c-0.462-0.339-1.049-0.571-1.313-1.079
							c-0.197-0.379-0.167-0.83-0.191-1.256c-0.059-1.047-0.505-1.88-1.053-2.744c-0.585-0.921-1.343-1.409-1.369-2.633
							c-0.016-0.76,0.23-1.597-0.188-2.232c-0.244-0.372-0.672-0.587-0.941-0.941c-0.344-0.452-0.383-1.055-0.496-1.612
							c-0.97-4.777-6.362-4.891-10.181-4.549c-0.871,0.078-1.963,0.105-2.793,0.353c-0.471,0.141-0.917,0.447-1.105,0.902
							c-0.058,0.14-0.083,0.289-0.095,0.439c0.209-0.185,0.463-0.325,0.732-0.405c0.83-0.248,1.923-0.275,2.793-0.353
							c3.819-0.342,9.211-0.228,10.181,4.549c0.113,0.556,0.152,1.16,0.496,1.612c0.269,0.354,0.697,0.569,0.941,0.941
							c0.417,0.635,0.171,1.472,0.188,2.232c0.026,1.224,0.783,1.712,1.369,2.633c0.549,0.864,0.994,1.697,1.053,2.744
							c0.024,0.427-0.006,0.877,0.191,1.256c0.264,0.509,0.851,0.74,1.313,1.079c0.727,0.534,1.185,1.419,1.2,2.321
							c0.011,0.695-0.222,1.397-0.071,2.075c0.225,1.009,1.204,1.637,1.818,2.47c0.129,0.175,0.237,0.35,0.326,0.526
							c0.709,1.399,0.207,2.805-0.5,4.17c-0.152,0.294-0.218,0.601-0.293,0.907c0.127-0.089,0.235-0.205,0.333-0.471
							c0.168-0.457,0.199-0.929,0.428-1.372C413.347,177.701,413.849,176.294,413.14,174.895z"/>
					</g>
				</g>
			</g>
			<g class="st45">
				<path class="st37" d="M264.69,210.877l-5.115,0.391l-11.355,1.888c-5.474,1.49-15.958-1.578-15.958-1.578
					s-2.011-1.042-2.056-0.967c-0.277,0.469-0.562,0.921-0.852,1.353c-0.044,0.065-0.088,0.128-0.132,0.192
					c-0.296,0.432-0.597,0.848-0.902,1.243c-0.038,0.049-0.076,0.096-0.114,0.145c-0.313,0.4-0.629,0.785-0.945,1.147
					c-0.025,0.028-0.05,0.055-0.074,0.083c-0.331,0.375-0.661,0.733-0.988,1.067c-0.001,0.001-0.003,0.003-0.004,0.004
					c-0.33,0.337-0.656,0.651-0.978,0.948c-0.021,0.019-0.042,0.04-0.062,0.059c-0.307,0.283-0.608,0.544-0.9,0.79
					c-0.033,0.028-0.066,0.057-0.099,0.084c-0.283,0.235-0.555,0.452-0.819,0.654c-0.038,0.029-0.075,0.058-0.112,0.086
					c-0.256,0.194-0.499,0.372-0.731,0.535c-0.037,0.026-0.074,0.052-0.111,0.078c-0.226,0.157-0.438,0.299-0.635,0.427
					c-0.033,0.021-0.063,0.04-0.094,0.061c-0.192,0.123-0.369,0.233-0.527,0.327c-0.025,0.015-0.046,0.027-0.07,0.042
					c-0.153,0.091-0.289,0.169-0.401,0.231c-0.018,0.01-0.029,0.016-0.045,0.025c-0.107,0.059-0.195,0.106-0.255,0.137
					c-0.015,0.008-0.014,0.007-0.026,0.013c-0.048,0.025-0.08,0.04-0.08,0.04c-4.03,2.263-7.017,4.443-8.919,5.972l12.999,12.999
					c0.682,0.682,0.847,1.726,0.407,2.585l-12.651,24.716l-1.075-0.26l-0.478,1.191l0.961,1.56l0.591-0.71l3.461,3.592l7.576,0.522
					v1.894l-1.437,1.176h-11.405v-23.262c1.53-4.228,3.18-8.318,4.417-10.16l-4.417-2.852v-34.172
					c4.794-4.025,8.793-7.779,8.793-7.779c4.441-3.135,9.666-1.045,9.666-1.045l0.057,0.082l1.018-1.159
					c-0.142-0.001-0.284-0.009-0.423-0.035c-0.149-0.028-0.297-0.074-0.42-0.161c-0.1-0.071-0.166-0.152-0.225-0.236
					c-0.254-0.36-0.17-0.824-0.031-1.3c0.028-0.099,0.057-0.198,0.087-0.297c0.057-0.188,0.105-0.372,0.137-0.55
					c0.014-0.076,0.022-0.15,0.028-0.223c0.006-0.098,0.009-0.195-0.01-0.285c-0.059-0.292-0.24-0.531-0.502-0.666
					c0.27-0.176,0.736-0.299,1.017-0.522c0.055-0.043,0.115-0.084,0.152-0.137c0.004-0.005,0.005-0.018,0.008-0.025
					c0.043-0.088,0.055-0.302,0.04-0.529c-0.001-0.012-0.003-0.023-0.004-0.035c-0.005-0.063-0.011-0.126-0.02-0.188
					c-0.005-0.034-0.012-0.064-0.018-0.096c-0.007-0.039-0.014-0.079-0.023-0.115c-0.011-0.042-0.024-0.075-0.037-0.11
					c-0.007-0.021-0.014-0.045-0.022-0.063c-0.017-0.036-0.036-0.058-0.056-0.079c-0.007-0.007-0.012-0.021-0.02-0.026
					c-0.028-0.02-0.058-0.025-0.091-0.008c0.186-0.095,0.368-0.198,0.531-0.328c0.104-0.083,0.199-0.176,0.287-0.276
					c0.152-0.171,0.287-0.36,0.419-0.548c0.53-0.75,0.938-1.395,1.217-2.271c0.148-0.464,0.279-0.919,0.622-1.28
					c1.047-1.103,3.038-1.584,4.475-1.854c1.873-0.353,3.764-1.464,5.564-0.836c0.564,0.197,1.057,0.552,1.541,0.902
					c1.119,0.81,2.284,1.468,3.007,2.645c0.282,0.458,0.415,0.906,0.833,1.291c0.375,0.345,0.911,0.471,1.208,0.907
					c0.09,0.132,0.154,0.272,0.206,0.415c0.016,0.044,0.026,0.089,0.039,0.134c0.03,0.105,0.053,0.211,0.067,0.32
					c0.006,0.049,0.012,0.097,0.015,0.146c0.008,0.12,0.008,0.241,0.001,0.363c-0.002,0.035-0.001,0.069-0.004,0.104
					c-0.049,0.565-0.231,1.148-0.421,1.682c-0.348,0.978-0.696,1.956-1.044,2.935c-0.338-0.182-0.567-0.481-0.766-0.814
					c-0.621,0.452-1.365,0.729-2.158,0.763l-0.415,4.31l-1.371-0.668l-1.91,2.174c-1.52,1.73-4.155,1.9-5.886,0.38l-1.199-1.053
					l-1.905,2.168l9.43,4.715l20.148,0.784l3.004-3.919l2.351-7.968c0.507,0.761,0.737,1.672,0.651,2.582l-0.52,4.341
					C267.403,201.833,267.24,209.446,264.69,210.877z"/>
			</g>
			<g>
				
					<rect x="226.328" y="192.851" transform="matrix(-0.7512 -0.6601 0.6601 -0.7512 271.0006 497.5169)" class="st1" width="5.875" height="9.666"/>
				<polygon class="st39" points="227.712,195.002 230.905,200.182 234.662,195.993 230.249,192.115 				"/>
				<path class="st1" d="M227.476,195.238l5.627,4.945c1.73,1.52,4.365,1.35,5.886-0.38l0,0l1.91-2.174l1.371,0.668l0.415-4.31l0,0
					c1.409-0.062,2.679-0.866,3.337-2.113l-0.999-1.155l-4.567-4.013c-1.709-1.502-4.312-1.334-5.813,0.375L227.476,195.238z"/>
				<polygon class="st1" points="209.551,264.201 208.194,267.583 210.58,271.453 202.204,271.453 202.204,268.433 204.702,263.665 
									"/>
				<polygon class="st1" points="162.145,263.975 159.648,266.21 160.036,270.372 153.133,266.957 154.364,264.468 158.367,261.556 
									"/>
				<path class="st24" d="M206.808,224.169l15.183,15.183c0.682,0.682,0.847,1.726,0.407,2.585l-12.651,24.716l-6.074-1.469
					c0,0,5.617-18.417,8.686-22.989l-18.613-12.017L206.808,224.169z"/>
				<path class="st39" d="M207.558,265.964c0,0,5.474-19.666,8.543-24.237l-18.108-14.736l-4.247,3.187l18.613,12.017
					c-3.069,4.572-8.686,22.989-8.686,22.989L207.558,265.964z"/>
				<path class="st24" d="M194.922,215.661c0,0-5.617,1.585-7.968,5.373l-3.135,7.445l-12.134,15.006c0,0-7.524,3.77-15.622,18.269
					l4.996,4.441l16.035-16.053l20.701-17.744l7.251-8.229L194.922,215.661z"/>
				<path class="st56" d="M157.466,262.222c8.098-14.499,15.622-18.269,15.622-18.269l12.134-15.006l3.135-7.445
					c1.881-3.03,5.844-4.647,7.357-5.175l-0.793-0.666c0,0-5.617,1.585-7.968,5.373l-3.135,7.445l-12.134,15.006
					c0,0-7.524,3.77-15.622,18.269l4.996,4.441l0.413-0.413L157.466,262.222z"/>
				<path class="st1" d="M228.458,200.527l10.972,5.486l20.148,0.784l3.004-3.919l2.351-7.968l0,0
					c0.507,0.761,0.737,1.672,0.651,2.582l-0.52,4.341l-0.756,4.963l-1.987,3.194l-23.871,1.606l-10.622-3.918L228.458,200.527z"/>
				<path class="st52" d="M205.899,227.293c-0.792,0.679-1.225,1.101-1.291,1.166l-0.032,0.018
					c-7.984-0.697-12.145-7.678-13.242-11.291c1.484-0.711,3.588-1.526,3.588-1.526L205.899,227.293z"/>
				<path class="st28" d="M226.401,196.347c0,0-5.225-2.09-9.666,1.045c0,0-17.111,16.066-22.989,17.372
					c0,0,2.221,12.801,12.801,13.715c0,0,3.919-3.919,11.364-8.098c0,0,10.058-4.833,13.062-17.503L226.401,196.347z"/>
				<path class="st53" d="M194.681,215.7c5.878-1.306,22.989-17.372,22.989-17.372c3.75-2.647,8.046-1.572,9.296-1.172l-0.566-0.808
					c0,0-5.225-2.09-9.666,1.045c0,0-17.111,16.066-22.989,17.372c0,0,1.127,6.472,5.581,10.54
					C195.646,221.253,194.681,215.7,194.681,215.7z"/>
				<path class="st39" d="M227.933,203.643c-4.171,11.059-13.154,15.38-13.154,15.38c-6.731,3.779-10.825,7.356-12.058,8.498
					c1.135,0.493,2.402,0.836,3.825,0.959c0,0,3.919-3.919,11.364-8.098c0,0,8.966-4.308,12.496-15.454
					C230.615,204.268,228.352,202.532,227.933,203.643z"/>
				<polygon class="st24" points="202.824,269.347 204.065,270.719 207.788,270.784 209.747,268.433 213.208,272.025 
					220.784,272.548 220.784,274.442 219.347,275.617 201.453,275.617 201.453,269.282 				"/>
				<polygon class="st24" points="159.871,267.101 161.196,270.581 162.854,272.487 166.251,273.73 166.251,275.387 
					164.345,276.009 157.275,276.009 151.005,269.09 154.153,264.201 155.148,264.947 155.148,266.355 157.275,268.178 				"/>
				<path class="st28" d="M220.891,207.093l9.032,3.549l2.71-6.895l-9.032-3.549c-1.904-0.748-4.054,0.189-4.802,2.093l0,0
					C218.05,204.195,218.987,206.345,220.891,207.093z"/>
				<pattern  id="SVGID_6_" xlink:href="#Hatching" patternTransform="matrix(1 0 0 1 578.9999 301.4999)">
				</pattern>
				<path class="st40" d="M232.632,203.748l-1.711-0.672c0.016-0.067,0.035-0.13,0.051-0.197l-4.572-6.531
					c0,0-5.225-2.09-9.666,1.045c0,0-17.111,16.066-22.989,17.372c0,0,2.221,12.801,12.801,13.715c0,0,3.919-3.919,11.364-8.098
					c0,0,6.204-2.984,10.322-10.403l1.691,0.664L232.632,203.748z"/>
				<path class="st39" d="M221.826,205.222c-1.668-0.656-2.594-2.388-2.294-4.087c-0.305,0.329-0.561,0.713-0.735,1.156
					c-0.748,1.904,0.189,4.054,2.093,4.802l9.032,3.549l0.762-1.939L221.826,205.222z"/>
				<path class="st1" d="M232.288,204.624l8.089,2.172h21.552l3.004-3.919l2.351-7.968l0,0c0.507,0.761,0.737,1.672,0.651,2.582
					l-0.52,4.341l-0.699,4.59c-0.038,0.246-0.125,0.482-0.256,0.693c0,0-1.105,2.299-1.813,2.701l-5.603,0.3
					c-0.511,0.027-1.02,0.083-1.525,0.167l-11.638,1.935c-3.975,0.472-8.004,0.114-11.833-1.052l-3.869-1.178L232.288,204.624z"/>
				<path class="st39" d="M267.415,200.43l-0.699,4.59c-0.038,0.246-0.125,0.482-0.256,0.694c0,0-1.105,2.299-1.812,2.701
					l-5.603,0.3c-0.511,0.028-1.02,0.083-1.524,0.167l-11.638,1.935c-3.975,0.472-8.004,0.113-11.833-1.052l-3.377-1.028
					l-0.493,1.253l3.869,1.178c3.829,1.166,7.858,1.524,11.833,1.052l11.638-1.935c0.505-0.084,1.014-0.14,1.524-0.167l5.603-0.3
					c0.707-0.402,1.812-2.701,1.812-2.701c0.131-0.211,0.219-0.447,0.256-0.693l0.699-4.59l0.52-4.341
					c0.032-0.339,0.006-0.675-0.048-1.007L267.415,200.43z"/>
				<polygon class="st55" points="201.507,274.588 210.008,271.453 210.008,271.453 201.507,271.453 				"/>
				<polygon class="st55" points="151.394,268.489 153.607,270.841 160.08,270.666 160.08,270.666 155.167,268.524 152.901,266.113 
									"/>
				<g class="st4">
					<path class="st37" d="M245.024,190.718l-4.567-4.013c-1.709-1.502-4.312-1.334-5.813,0.375l-7.168,8.157l1.07,0.94
						c0.116-0.01,0.232-0.025,0.34-0.066c0.366-0.138,0.575-0.513,0.755-0.86c0.379-0.733,0.679-1.422,1.361-1.934
						c0.576-0.433,1.325-0.354,2.013-0.295c0.13,0.011,0.263,0.026,0.383,0.079c0.163,0.071,0.344,0.212,0.495,0.118
						c0.121-1.022,0.104-1.897,1.113-2.344c0.173-0.076,0.373-0.144,0.544-0.066c0.09,0.041,0.158,0.117,0.238,0.176
						c0.158,0.116,0.36,0.161,0.513,0.284c0.291,0.235,0.311,0.667,0.269,1.039c-0.066,0.596-0.248,1.119-0.26,1.711
						c-0.005,0.223-0.087,1.808-0.322,1.863c0.57-0.134,0.673-0.882,0.974-1.384c0.462-0.769,1.481-0.997,2.098-1.648
						c0.557-0.588,0.801-1.528,1.558-1.816c1.209-0.459,3.463,1.175,4.11,2.115c0.024,0.035,0.043,0.075,0.066,0.111
						c0.504-0.355,0.931-0.822,1.228-1.385L245.024,190.718z"/>
				</g>
				<g>
					<path class="st24" d="M227.864,188.981c0.152-0.171,0.287-0.36,0.419-0.548c0.53-0.75,0.938-1.395,1.217-2.271
						c0.148-0.464,0.279-0.919,0.622-1.28c1.047-1.103,3.038-1.584,4.475-1.854c1.873-0.353,3.764-1.464,5.564-0.836
						c0.564,0.197,1.057,0.552,1.541,0.902c1.119,0.81,2.284,1.468,3.007,2.645c0.282,0.458,0.414,0.906,0.833,1.291
						c0.375,0.345,0.911,0.471,1.208,0.907c0.619,0.907,0.271,2.131-0.097,3.166c-0.348,0.978-0.696,1.956-1.044,2.935
						c-0.675-0.363-0.914-1.193-1.349-1.825c-0.647-0.939-2.901-2.574-4.11-2.115c-0.758,0.288-1.001,1.227-1.558,1.816
						c-0.617,0.651-1.636,0.879-2.098,1.648c-0.301,0.502-0.404,1.25-0.974,1.384c0.235-0.055,0.317-1.64,0.322-1.863
						c0.012-0.592,0.194-1.115,0.26-1.711c0.041-0.372,0.021-0.804-0.27-1.039c-0.152-0.123-0.355-0.168-0.513-0.284
						c-0.08-0.058-0.148-0.135-0.238-0.176c-0.171-0.079-0.372-0.011-0.544,0.066c-1.01,0.447-0.992,1.322-1.114,2.344
						c-0.151,0.094-0.332-0.046-0.495-0.118c-0.12-0.053-0.252-0.067-0.383-0.079c-0.688-0.06-1.437-0.138-2.013,0.295
						c-0.682,0.513-0.983,1.201-1.361,1.934c-0.179,0.347-0.389,0.723-0.755,0.861c-0.143,0.054-0.298,0.066-0.45,0.076
						c-0.305,0.021-0.614,0.037-0.915-0.018c-0.149-0.028-0.297-0.074-0.42-0.161c-0.968-0.681,0.165-2.017-0.013-2.891
						c-0.059-0.292-0.24-0.531-0.502-0.666c0.322-0.211,0.944-0.336,1.169-0.659c0.131-0.188,0.024-1.409-0.241-1.274
						c0.186-0.095,0.368-0.198,0.531-0.328C227.681,189.173,227.776,189.08,227.864,188.981z"/>
				</g>
				<g>
					<g>
						<path class="st56" d="M236.103,192.776c0.03-0.275,0.026-0.583-0.096-0.821c-0.074,0.373-0.156,0.736-0.164,1.128
							c-0.004,0.223-0.087,1.808-0.322,1.863c0.123-0.029,0.221-0.091,0.308-0.168c0.008-0.134,0.013-0.245,0.014-0.291
							C235.855,193.895,236.037,193.372,236.103,192.776z"/>
					</g>
					<g>
						<path class="st56" d="M226.62,192.183c0.032,0.156,0.014,0.329-0.019,0.508c0.272-0.113,0.55-0.235,0.686-0.43
							c0.115-0.165,0.046-1.127-0.152-1.266c-0.281,0.222-0.747,0.345-1.017,0.522C226.38,191.653,226.561,191.891,226.62,192.183z"
							/>
					</g>
					<g>
						<path class="st56" d="M227.295,190.833c0.095-0.056,0.195-0.105,0.281-0.174c0.104-0.083,0.199-0.176,0.287-0.276
							c0.152-0.171,0.287-0.36,0.419-0.548c0.53-0.75,0.938-1.395,1.217-2.271c0.148-0.464,0.279-0.919,0.622-1.28
							c1.047-1.103,3.038-1.584,4.475-1.854c1.873-0.352,3.764-1.463,5.564-0.836c0.564,0.197,1.057,0.552,1.541,0.902
							c1.119,0.81,2.284,1.468,3.007,2.645c0.282,0.458,0.414,0.906,0.833,1.291c0.375,0.345,0.911,0.471,1.208,0.907
							c0.122,0.179,0.198,0.373,0.252,0.573c0.143-0.7,0.14-1.402-0.252-1.977c-0.297-0.436-0.833-0.562-1.208-0.907
							c-0.419-0.385-0.552-0.833-0.833-1.291c-0.724-1.177-1.889-1.835-3.007-2.645c-0.484-0.35-0.977-0.706-1.541-0.902
							c-1.8-0.627-3.691,0.483-5.564,0.836c-1.437,0.27-3.428,0.751-4.475,1.854c-0.343,0.361-0.474,0.816-0.622,1.28
							c-0.279,0.876-0.687,1.521-1.217,2.271c-0.133,0.188-0.267,0.377-0.419,0.548c-0.088,0.099-0.183,0.192-0.287,0.276
							c-0.163,0.13-0.345,0.233-0.531,0.328C227.304,189.452,227.41,190.598,227.295,190.833z"/>
					</g>
					<g>
						<path class="st56" d="M226.62,193.587c-0.026-0.129-0.085-0.243-0.155-0.347c-0.175,0.575-0.365,1.164-0.057,1.599
							C226.542,194.395,226.694,193.951,226.62,193.587z"/>
					</g>
				</g>
			</g>
			<g id="XMLID_164_">
				<g id="XMLID_461_">
					<path id="XMLID_465_" class="st48" d="M209.43,280.191c0,4.556-3.694,8.249-8.25,8.249s-8.249-3.693-8.249-8.249
						s3.693-8.249,8.249-8.249S209.43,275.635,209.43,280.191z"/>
					<g id="XMLID_462_">
						<polygon id="XMLID_464_" class="st1" points="200.41,282.767 197.74,280.097 198.683,279.155 200.41,280.882 203.678,277.616 
							204.62,278.558 						"/>
					</g>
				</g>
				<path id="XMLID_460_" class="st57" d="M192.931,280.191c0,2.615,1.22,4.941,3.118,6.453c0.896-0.745,1.655-1.683,2.196-2.8
					c1.716-3.548,0.713-7.699-2.179-10.118C194.159,275.237,192.931,277.569,192.931,280.191z"/>
				<g id="XMLID_446_">
					<path id="XMLID_459_" class="st28" d="M196.698,283.844c-2.026,4.188-7.063,5.94-11.25,3.914
						c-4.188-2.026-5.94-7.063-3.914-11.25c2.026-4.188,7.063-5.94,11.25-3.915C196.971,274.619,198.723,279.656,196.698,283.844z"
						/>
					<g id="XMLID_447_">
						<g>
							<path id="XMLID_455_" class="st1" d="M188.688,279.112l0.894-1.847l1.5,0.726l-0.893,1.847l1.848,0.894l-0.666,1.377
								l-1.848-0.894l-0.9,1.86l-1.5-0.726l0.9-1.86l-1.823-0.882l0.666-1.376L188.688,279.112z"/>
						</g>
					</g>
				</g>
				<path id="XMLID_445_" class="st57" d="M184.975,272.845c-1.445,0.814-2.666,2.058-3.443,3.663
					c-1.903,3.933-0.471,8.614,3.179,10.847c2.482-1.504,4.146-4.222,4.146-7.335C188.857,277.017,187.312,274.378,184.975,272.845z
					"/>
				<g id="XMLID_165_">
					<path id="XMLID_444_" class="st27" d="M187.697,280.02c0,4.739-3.842,8.581-8.581,8.581c-4.739,0-8.581-3.842-8.581-8.581
						c0-4.739,3.842-8.581,8.581-8.581C183.855,271.439,187.697,275.281,187.697,280.02z"/>
					<g id="XMLID_327_">
						<g>
							<path id="XMLID_567_" class="st1" d="M176.384,281.789v0.059l-0.78,0.771l-2.272-2.253v-0.148l2.272-2.253l0.78,0.77v0.059
								l-1.561,1.502L176.384,281.789z"/>
							<path id="XMLID_565_" class="st1" d="M181.404,275.83l-3.3,8.379h-1.255l3.29-8.379H181.404z"/>
							<path id="XMLID_563_" class="st1" d="M183.409,280.297l-1.561-1.502v-0.059l0.781-0.77l2.273,2.253v0.148l-2.273,2.253
								l-0.781-0.771v-0.059L183.409,280.297z"/>
						</g>
					</g>
				</g>
			</g>
			<g>
				<path id="XMLID_111_" class="st28" d="M267.092,282.759l1.595-0.001c0.323,0,0.584-0.262,0.584-0.585l-0.002-2.034
					c0-0.323-0.262-0.584-0.585-0.584l-1.248,0.001c-0.207,0-0.384-0.133-0.457-0.327c-0.044-0.117-0.092-0.232-0.143-0.345
					c-0.086-0.188-0.055-0.408,0.091-0.555l0.882-0.883c0.228-0.228,0.228-0.599,0-0.827l-1.439-1.438
					c-0.228-0.228-0.599-0.228-0.827,0l-0.889,0.89c-0.14,0.14-0.35,0.18-0.533,0.102c-0.127-0.054-0.264-0.109-0.382-0.155
					c-0.185-0.072-0.306-0.25-0.306-0.449v-1.261c0-0.323-0.262-0.585-0.585-0.585h-2.034c-0.323,0-0.585,0.262-0.585,0.585v1.249
					c0,0.206-0.133,0.384-0.327,0.456c-0.122,0.046-0.243,0.096-0.361,0.151c-0.188,0.087-0.408,0.056-0.555-0.09l-0.886-0.881
					c-0.229-0.228-0.599-0.227-0.827,0.002l-1.434,1.443c-0.228,0.229-0.226,0.599,0.003,0.827l0.892,0.887
					c0.141,0.14,0.181,0.35,0.103,0.532c-0.054,0.127-0.109,0.264-0.154,0.382c-0.072,0.185-0.25,0.306-0.448,0.307l-1.261,0.003
					c-0.323,0.001-0.584,0.263-0.583,0.586l0.005,2.034c0.001,0.323,0.263,0.584,0.586,0.583l1.249-0.003
					c0.207,0,0.384,0.133,0.458,0.326c0.044,0.116,0.092,0.231,0.144,0.344c0.086,0.188,0.056,0.408-0.09,0.555l-0.881,0.885
					c-0.228,0.229-0.227,0.599,0.002,0.827l1.441,1.435c0.229,0.228,0.599,0.227,0.827-0.002l0.888-0.892
					c0.14-0.14,0.35-0.18,0.532-0.103c0.127,0.054,0.264,0.109,0.382,0.155c0.185,0.072,0.306,0.25,0.306,0.449l0.002,1.261
					c0,0.323,0.263,0.584,0.585,0.584l2.034-0.003c0.323-0.001,0.584-0.263,0.584-0.586l-0.002-1.248
					c0-0.207,0.133-0.384,0.326-0.457c0.117-0.044,0.232-0.092,0.345-0.144c0.188-0.086,0.408-0.055,0.555,0.091l0.884,0.882
					c0.229,0.228,0.599,0.228,0.827-0.001l1.437-1.44c0.228-0.228,0.228-0.599-0.001-0.827l-0.891-0.889
					c-0.14-0.14-0.18-0.35-0.102-0.532C266.952,283.143,267.086,282.78,267.092,282.759z M258.997,280.643
					c0.338-1.798,2.201-2.814,3.876-2.169c1.272,0.49,2.047,1.867,1.795,3.207c-0.338,1.798-2.201,2.814-3.876,2.169
					C259.52,283.359,258.745,281.982,258.997,280.643z"/>
			</g>
			<g>
				<path id="XMLID_105_" class="st48" d="M256.918,279.432l2.503-0.002c0.507,0,0.917-0.411,0.917-0.918l-0.003-3.193
					c-0.001-0.507-0.412-0.917-0.919-0.917l-1.959,0.001c-0.324,0-0.603-0.209-0.718-0.513c-0.069-0.183-0.144-0.363-0.225-0.541
					c-0.135-0.295-0.086-0.641,0.143-0.871l1.385-1.386c0.358-0.359,0.358-0.94,0-1.298l-2.258-2.257
					c-0.358-0.358-0.94-0.358-1.298,0.001l-1.396,1.397c-0.22,0.22-0.55,0.283-0.836,0.16c-0.199-0.085-0.414-0.171-0.6-0.244
					c-0.291-0.113-0.48-0.393-0.48-0.705v-1.979c0-0.507-0.411-0.918-0.918-0.918h-3.192c-0.507,0-0.918,0.411-0.918,0.918v1.96
					c0,0.324-0.209,0.602-0.513,0.716c-0.192,0.072-0.381,0.151-0.567,0.237c-0.295,0.136-0.641,0.088-0.871-0.141l-1.39-1.382
					c-0.359-0.357-0.94-0.356-1.298,0.004l-2.251,2.264c-0.357,0.359-0.356,0.94,0.004,1.298l1.401,1.393
					c0.22,0.219,0.284,0.549,0.162,0.835c-0.085,0.199-0.17,0.414-0.242,0.6c-0.113,0.291-0.392,0.481-0.704,0.481l-1.98,0.005
					c-0.507,0.001-0.917,0.413-0.915,0.92l0.008,3.193c0.001,0.507,0.413,0.917,0.92,0.916l1.96-0.005
					c0.324-0.001,0.603,0.209,0.718,0.512c0.069,0.183,0.145,0.363,0.226,0.541c0.135,0.295,0.087,0.641-0.142,0.871l-1.383,1.389
					c-0.357,0.359-0.356,0.94,0.003,1.298l2.262,2.253c0.359,0.358,0.94,0.357,1.298-0.003l1.394-1.399
					c0.219-0.22,0.549-0.283,0.836-0.161c0.199,0.085,0.414,0.171,0.6,0.242c0.291,0.113,0.48,0.392,0.481,0.704l0.003,1.979
					c0.001,0.507,0.412,0.917,0.919,0.916l3.193-0.005c0.507-0.001,0.917-0.413,0.916-0.919l-0.003-1.959
					c-0.001-0.324,0.209-0.603,0.512-0.718c0.183-0.069,0.363-0.144,0.541-0.225c0.295-0.135,0.641-0.087,0.871,0.143l1.388,1.384
					c0.359,0.358,0.94,0.357,1.298-0.001l2.255-2.26c0.358-0.359,0.357-0.94-0.002-1.298l-1.398-1.395
					c-0.22-0.22-0.283-0.55-0.161-0.836C256.699,280.034,256.908,279.465,256.918,279.432z M244.212,276.109
					c0.531-2.822,3.455-4.416,6.083-3.404c1.997,0.769,3.213,2.93,2.817,5.033c-0.531,2.823-3.455,4.417-6.083,3.404
					C245.033,280.373,243.817,278.213,244.212,276.109z"/>
			</g>
			<g id="XMLID_37_">
				<path id="XMLID_104_" class="st58" d="M238.12,288.601h-24.899c-1.62,0-2.934-1.313-2.934-2.934v-15.688
					c0-1.62,1.313-2.934,2.934-2.934h24.899c1.62,0,2.934,1.313,2.934,2.934v15.688C241.054,287.288,239.741,288.601,238.12,288.601
					z"/>
				<path id="XMLID_103_" class="st59" d="M239.27,267.046h-1.39c0.985,0,1.784,0.798,1.784,1.784v17.988
					c0,0.985-0.799,1.784-1.784,1.784h1.39c0.985,0,1.784-0.799,1.784-1.784v-17.988
					C241.054,267.844,240.255,267.046,239.27,267.046z"/>
				<path id="XMLID_102_" class="st48" d="M232.256,281.212h-16.384c0-4.524,3.668-8.192,8.192-8.192
					C228.589,273.02,232.256,276.688,232.256,281.212z"/>
				<polygon id="XMLID_101_" class="st24" points="218.667,285.515 227.668,276.604 236.195,285.515 				"/>
				<polygon id="XMLID_38_" class="st56" points="211.368,285.515 220.37,276.604 228.897,285.515 				"/>
			</g>
		</g>
		<g id="XMLID_18_">
			<g id="XMLID_36_">
				<polygon class="st16" points="397.785,275.084 390.362,274.533 396.284,267.794 				"/>
			</g>
			<g id="XMLID_25_">
				<polygon class="st16" points="391.894,281.788 384.47,281.236 390.393,274.497 				"/>
			</g>
			<g id="XMLID_24_">
				<polygon class="st16" points="406.229,288.446 385.956,288.451 403.629,268.34 				"/>
			</g>
			<g id="XMLID_23_">
				<polygon class="st60" points="406.229,288.446 391.847,281.747 397.769,275.008 				"/>
			</g>
			<g id="XMLID_22_">
				<polygon class="st60" points="384.47,281.236 385.956,288.451 391.816,281.782 				"/>
			</g>
			<g id="XMLID_21_">
				<polygon class="st60" points="390.362,274.533 391.847,281.747 397.707,275.079 				"/>
			</g>
			<g id="XMLID_19_">
				<polygon class="st60" points="396.284,267.794 397.769,275.008 403.629,268.34 				"/>
			</g>
		</g>
	</g>
</g>
<g id="Layer_2">
</g>
<g id="Layer_1">
</g>
<g id="specctr">
	<g id="Dimensions">
	</g>
	<g id="Text_Properties">
	</g>
</g>
</svg>
