<?xml version="1.0" standalone="no"?>
<!DOCTYPE svg PUBLIC "-//W3C//DTD SVG 20010904//EN"
 "http://www.w3.org/TR/2001/REC-SVG-20010904/DTD/svg10.dtd">
<svg version="1.0" xmlns="http://www.w3.org/2000/svg"
 width="56.000000pt" height="70.000000pt" viewBox="0 0 56.000000 70.000000"
 preserveAspectRatio="xMidYMid meet">
<metadata>
Created by potrace 1.15, written by Peter Selinger 2001-2017
</metadata>
<g transform="translate(0.000000,70.000000) scale(0.100000,-0.100000)"
fill="#000000" stroke="none">
<path d="M230 610 c-7 -5 -11 -17 -7 -30 4 -17 3 -19 -8 -10 -24 20 -38 1 -21
-26 9 -13 16 -25 16 -26 0 -2 -16 -12 -35 -22 -57 -31 -75 -82 -75 -212 0 -90
3 -114 20 -141 36 -60 51 -64 216 -61 l149 3 0 170 c0 188 -5 207 -64 243 -29
17 -29 18 -10 41 24 29 14 49 -12 25 -19 -17 -19 -16 -13 13 5 25 2 32 -12 36
-31 8 -129 6 -144 -3z m170 -133 c48 -24 60 -68 60 -224 l0 -143 -136 0 -136
0 -30 30 -30 30 4 124 c3 117 5 126 28 151 14 15 34 31 45 35 31 13 167 11
195 -3z"/>
<path d="M232 420 c-92 -56 -69 -199 38 -231 32 -10 44 -9 76 7 44 21 84 75
84 111 0 70 -61 133 -130 133 -19 0 -50 -9 -68 -20z m139 -39 c51 -52 33 -128
-37 -157 -82 -34 -161 54 -120 134 20 39 41 51 89 52 29 0 45 -7 68 -29z"/>
</g>
</svg>
