<?xml version="1.0" encoding="utf-8"?>
<!-- Generator: Adobe Illustrator 17.0.0, SVG Export Plug-In . SVG Version: 6.00 Build 0)  -->
<!DOCTYPE svg PUBLIC "-//W3C//DTD SVG 1.1//EN" "http://www.w3.org/Graphics/SVG/1.1/DTD/svg11.dtd">
<svg version="1.1" id="Layer_1" xmlns="http://www.w3.org/2000/svg" xmlns:xlink="http://www.w3.org/1999/xlink" x="0px" y="0px"
	 width="150px" height="150px" viewBox="0 0 150 150" enable-background="new 0 0 150 150" xml:space="preserve">
<g>
	<g>
		<path fill="#233863" d="M67.903,116.606l1.038,0.322c1.422,0.442,2.948-0.356,3.391-1.778l23.676-75.847
			c0.442-1.422-0.356-2.948-1.778-3.391l-1.038-0.322c-1.422-0.442-2.948,0.356-3.391,1.778l-23.676,75.847
			C65.682,114.637,66.481,116.161,67.903,116.606z"/>
		<path fill="#233863" d="M69.745,117.53c-0.316,0-0.636-0.049-0.949-0.144l-1.038-0.322l0,0c-0.811-0.252-1.474-0.808-1.87-1.563
			c-0.396-0.756-0.476-1.619-0.221-2.426l23.676-75.847c0.252-0.811,0.808-1.474,1.563-1.87c0.756-0.396,1.619-0.476,2.426-0.221
			l1.038,0.322c1.677,0.522,2.614,2.313,2.092,3.99l-23.676,75.847c-0.252,0.808-0.808,1.474-1.563,1.87
			C70.759,117.408,70.255,117.53,69.745,117.53z"/>
	</g>
	<g>
		<path fill="#2F4770" d="M108.673,134.336L73.6,123.387c-3.784-1.179-5.891-5.203-4.711-8.986L92.393,39.11
			c1.179-3.784,5.203-5.891,8.986-4.711l35.07,10.949c3.784,1.179,5.891,5.203,4.711,8.986l-23.504,75.291
			C116.477,133.409,112.454,135.519,108.673,134.336z"/>
		<path fill="#233863" d="M110.805,135.141c-0.752,0-1.52-0.114-2.276-0.347l0,0l-35.07-10.949c-1.95-0.608-3.547-1.941-4.496-3.753
			c-0.949-1.812-1.136-3.882-0.528-5.835l23.504-75.288c1.256-4.029,5.556-6.284,9.585-5.025l35.07,10.949
			c4.029,1.256,6.284,5.559,5.025,9.585l-23.504,75.291C117.094,133.04,114.066,135.141,110.805,135.141z M108.814,133.879
			c1.708,0.531,3.52,0.369,5.104-0.461c1.585-0.829,2.749-2.227,3.283-3.934l23.504-75.291c1.1-3.526-0.872-7.288-4.398-8.388
			l-35.07-10.949c-3.526-1.099-7.285,0.872-8.388,4.398l-23.504,75.291c-0.534,1.708-0.369,3.52,0.461,5.104
			c0.829,1.585,2.227,2.749,3.934,3.283L108.814,133.879z"/>
	</g>
	<g>
		
			<rect x="90.3" y="47.148" transform="matrix(-0.9546 -0.298 0.298 -0.9546 199.6787 156.1669)" fill="#FFFFFF" width="42.888" height="31.429"/>
		<path fill="#233863" d="M127.527,84.73c-0.046,0-0.095-0.006-0.141-0.021l-40.94-12.779c-0.12-0.037-0.221-0.123-0.283-0.233
			c-0.058-0.114-0.071-0.243-0.034-0.365l9.364-30c0.037-0.12,0.123-0.221,0.233-0.283c0.114-0.058,0.243-0.071,0.365-0.034
			l40.94,12.779c0.12,0.037,0.221,0.123,0.283,0.233c0.058,0.114,0.071,0.243,0.034,0.365l-9.364,30
			C127.921,84.598,127.73,84.73,127.527,84.73z M87.187,71.155l40.024,12.494l9.079-29.088L96.268,42.067L87.187,71.155z"/>
	</g>
	<path fill="#FFFFFF" d="M131.956,48.649c-0.031,0-0.064-0.006-0.095-0.015l-28.575-8.922c-0.169-0.052-0.261-0.23-0.209-0.399
		s0.23-0.261,0.399-0.209l28.575,8.922c0.169,0.052,0.261,0.23,0.209,0.399C132.22,48.56,132.091,48.649,131.956,48.649z"/>
	<g>
		<path fill="#FBB250" d="M103.259,49.49l-6.373-1.99c-0.2-0.061-0.31-0.273-0.249-0.473l0.369-1.179
			c0.061-0.2,0.273-0.31,0.473-0.249l6.373,1.99c0.2,0.061,0.31,0.273,0.249,0.473l-0.369,1.179
			C103.667,49.441,103.455,49.552,103.259,49.49z"/>
		<path fill="#233863" d="M103.369,49.828c-0.071,0-0.138-0.009-0.209-0.031l0,0l-6.373-1.99c-0.365-0.114-0.571-0.507-0.458-0.872
			l0.369-1.179c0.055-0.178,0.175-0.322,0.341-0.408c0.166-0.086,0.353-0.104,0.531-0.049l6.373,1.99
			c0.178,0.055,0.322,0.178,0.408,0.341c0.086,0.166,0.104,0.353,0.049,0.531l-0.369,1.179c-0.055,0.178-0.178,0.322-0.341,0.408
			C103.593,49.801,103.483,49.828,103.369,49.828z M103.354,49.186c0.031,0.009,0.064-0.006,0.074-0.037l0.369-1.179
			c0.009-0.028-0.012-0.064-0.037-0.074l-6.373-1.99c-0.025-0.006-0.064,0.012-0.074,0.037l-0.369,1.179
			c-0.009,0.031,0.009,0.061,0.037,0.074L103.354,49.186z"/>
	</g>
	<g>
		<path fill="#FBB250" d="M112.73,52.448l-6.373-1.99c-0.2-0.061-0.31-0.273-0.249-0.473l0.369-1.179
			c0.061-0.2,0.273-0.31,0.473-0.249l6.373,1.99c0.2,0.061,0.31,0.273,0.249,0.473l-0.369,1.179
			C113.139,52.399,112.93,52.509,112.73,52.448z"/>
		<path fill="#233863" d="M112.844,52.786c-0.071,0-0.138-0.009-0.209-0.031l0,0l-6.373-1.99c-0.365-0.114-0.571-0.507-0.458-0.872
			l0.369-1.179c0.114-0.365,0.507-0.571,0.872-0.458l6.373,1.99c0.178,0.055,0.322,0.175,0.408,0.341
			c0.086,0.166,0.104,0.353,0.049,0.531l-0.369,1.179c-0.055,0.178-0.175,0.322-0.341,0.408
			C113.065,52.758,112.954,52.786,112.844,52.786z M112.825,52.144c0.025,0.009,0.064-0.012,0.074-0.037l0.369-1.179
			c0.009-0.028-0.012-0.064-0.037-0.074l-6.373-1.99c-0.028-0.006-0.064,0.012-0.074,0.037l-0.369,1.179
			c-0.009,0.031,0.006,0.064,0.037,0.074L112.825,52.144z"/>
	</g>
	<g>
		<path fill="#FBB250" d="M122.914,55.627l-6.373-1.99c-0.2-0.061-0.31-0.273-0.249-0.473l0.369-1.179
			c0.061-0.2,0.273-0.31,0.473-0.249l6.373,1.99c0.2,0.061,0.31,0.273,0.249,0.473l-0.369,1.179
			C123.323,55.578,123.111,55.688,122.914,55.627z"/>
		<path fill="#233863" d="M123.025,55.965c-0.068,0-0.138-0.009-0.206-0.031l0,0l-6.373-1.99c-0.365-0.114-0.571-0.507-0.458-0.872
			l0.369-1.179c0.055-0.178,0.178-0.322,0.341-0.408c0.166-0.086,0.353-0.104,0.531-0.049l6.373,1.99
			c0.365,0.114,0.571,0.507,0.458,0.872l-0.369,1.179C123.596,55.771,123.323,55.965,123.025,55.965z M123.01,55.323
			c0.031,0.009,0.064-0.006,0.074-0.037l0.369-1.179c0.009-0.031-0.009-0.064-0.037-0.074l-6.373-1.99
			c-0.025-0.009-0.064,0.012-0.074,0.037l-0.369,1.179c-0.009,0.031,0.006,0.064,0.037,0.074L123.01,55.323z"/>
	</g>
	<g>
		<path fill="#FBB250" d="M132.503,58.621l-6.373-1.99c-0.2-0.061-0.31-0.273-0.249-0.473l0.369-1.179
			c0.061-0.2,0.273-0.31,0.473-0.249l6.373,1.99c0.2,0.061,0.31,0.273,0.249,0.473l-0.369,1.179
			C132.911,58.572,132.702,58.683,132.503,58.621z"/>
		<path fill="#233863" d="M132.616,58.956c-0.071,0-0.138-0.009-0.209-0.031l0,0l-6.373-1.99c-0.178-0.055-0.322-0.178-0.408-0.341
			c-0.086-0.166-0.104-0.353-0.049-0.531l0.369-1.179c0.114-0.365,0.507-0.571,0.872-0.458l6.373,1.99
			c0.365,0.114,0.571,0.507,0.458,0.872l-0.369,1.179c-0.055,0.178-0.175,0.322-0.341,0.408
			C132.838,58.931,132.727,58.956,132.616,58.956z M132.598,58.317c0.031,0.009,0.064-0.006,0.074-0.037l0.369-1.179
			c0.009-0.031-0.009-0.064-0.04-0.074l-6.373-1.99c-0.031-0.009-0.064,0.006-0.074,0.037l-0.369,1.179
			c-0.009,0.028,0.012,0.064,0.037,0.074L132.598,58.317z"/>
	</g>
	<g>
		
			<rect x="84.454" y="79.596" transform="matrix(-0.9546 -0.298 0.298 -0.9546 180.9749 194.5075)" fill="#233863" width="41.721" height="7.724"/>
		<path fill="#233863" d="M124.072,93.833c-0.049,0-0.095-0.006-0.141-0.021L84.106,81.379c-0.252-0.08-0.393-0.347-0.313-0.599
			l2.3-7.371c0.037-0.12,0.123-0.221,0.233-0.283c0.114-0.058,0.243-0.071,0.365-0.034l39.825,12.432
			c0.252,0.08,0.393,0.347,0.313,0.599l-2.3,7.371c-0.037,0.12-0.123,0.221-0.233,0.283
			C124.226,93.814,124.149,93.833,124.072,93.833z M84.85,80.608l38.909,12.147l2.015-6.459L86.864,74.149L84.85,80.608z"/>
	</g>
	<path fill="#FFFFFF" d="M97.641,82.841c-0.08,0-0.16-0.012-0.236-0.037l-7.067-2.205c-0.421-0.132-0.654-0.58-0.522-0.998
		l0.617-1.975c0.064-0.203,0.203-0.372,0.39-0.47c0.187-0.098,0.405-0.12,0.608-0.055l7.067,2.205
		c0.203,0.064,0.369,0.203,0.47,0.39c0.098,0.187,0.12,0.405,0.055,0.608l-0.617,1.975C98.299,82.623,97.982,82.841,97.641,82.841z
		 M97.5,82.5c0.249,0.08,0.522-0.061,0.599-0.313l0.617-1.975c0.037-0.123,0.028-0.252-0.034-0.365
		c-0.058-0.114-0.16-0.197-0.283-0.233l-7.067-2.205c-0.12-0.037-0.252-0.028-0.365,0.034c-0.114,0.058-0.197,0.16-0.233,0.283
		l-0.617,1.975c-0.08,0.252,0.061,0.522,0.313,0.599L97.5,82.5z"/>
	<path fill="#FFFFFF" d="M108.566,86.25c-0.08,0-0.16-0.012-0.24-0.037l-7.067-2.205c-0.203-0.064-0.369-0.203-0.47-0.39
		c-0.098-0.187-0.12-0.405-0.055-0.608l0.617-1.972c0.064-0.203,0.203-0.372,0.39-0.47c0.187-0.098,0.405-0.12,0.608-0.055
		l7.067,2.205c0.203,0.064,0.369,0.203,0.47,0.39c0.098,0.187,0.12,0.405,0.055,0.608l-0.617,1.972
		c-0.064,0.203-0.203,0.369-0.39,0.47C108.817,86.219,108.692,86.25,108.566,86.25z M108.421,85.909
		c0.123,0.037,0.252,0.028,0.365-0.034c0.114-0.058,0.197-0.16,0.233-0.283l0.617-1.972c0.037-0.123,0.028-0.252-0.034-0.365
		c-0.058-0.114-0.16-0.197-0.283-0.233l-7.067-2.205c-0.123-0.037-0.252-0.028-0.365,0.034c-0.114,0.058-0.197,0.16-0.233,0.283
		l-0.617,1.975c-0.037,0.123-0.028,0.252,0.034,0.365c0.058,0.114,0.16,0.197,0.283,0.233L108.421,85.909z"/>
	<path fill="#FFFFFF" d="M119.607,89.699c-0.08,0-0.16-0.012-0.24-0.037l-7.067-2.205c-0.421-0.132-0.654-0.58-0.525-1.001
		l0.617-1.972c0.064-0.203,0.203-0.369,0.39-0.47c0.187-0.098,0.405-0.12,0.608-0.055l7.067,2.205
		c0.203,0.064,0.369,0.203,0.47,0.39c0.098,0.187,0.12,0.405,0.055,0.608l-0.617,1.972c-0.064,0.203-0.203,0.369-0.39,0.47
		C119.862,89.668,119.736,89.699,119.607,89.699z M119.465,89.358c0.123,0.037,0.252,0.028,0.365-0.034
		c0.114-0.058,0.197-0.16,0.233-0.283l0.617-1.972c0.037-0.123,0.028-0.252-0.034-0.365c-0.058-0.114-0.16-0.197-0.283-0.233
		l-7.067-2.205c-0.123-0.037-0.252-0.028-0.365,0.034c-0.114,0.058-0.197,0.16-0.233,0.283l-0.617,1.972
		c-0.08,0.252,0.061,0.522,0.313,0.599L119.465,89.358z"/>
	<g>
		<path fill="#5B708D" d="M88.901,96.247l-5.068-1.582c-1.422-0.442-2.22-1.969-1.778-3.391l0.918-2.939
			c0.442-1.422,1.969-2.221,3.391-1.778l5.068,1.582c1.422,0.442,2.22,1.969,1.778,3.391l-0.918,2.939
			C91.849,95.891,90.323,96.692,88.901,96.247z"/>
		<path fill="#233863" d="M89.705,96.849c-0.316,0-0.636-0.049-0.949-0.144l-5.068-1.582c-1.677-0.522-2.614-2.313-2.092-3.99
			l0.918-2.939c0.525-1.677,2.313-2.614,3.99-2.092l5.068,1.582c1.677,0.522,2.614,2.313,2.092,3.99l-0.918,2.939
			c-0.252,0.811-0.808,1.474-1.563,1.87C90.719,96.726,90.215,96.849,89.705,96.849z M85.559,86.916
			c-0.949,0-1.83,0.611-2.128,1.563l-0.918,2.939c-0.365,1.173,0.292,2.426,1.462,2.792l5.068,1.582l0,0
			c0.565,0.175,1.167,0.12,1.695-0.157c0.528-0.276,0.918-0.74,1.093-1.308l0.918-2.939c0.365-1.173-0.292-2.426-1.462-2.792
			l-5.068-1.582C86.001,86.947,85.78,86.916,85.559,86.916z"/>
	</g>
	<g>
		<path fill="#5B708D" d="M102.749,100.571l-5.068-1.582c-1.422-0.442-2.221-1.969-1.778-3.391l0.918-2.939
			c0.442-1.422,1.969-2.22,3.391-1.778l5.068,1.582c1.422,0.442,2.22,1.969,1.778,3.391l-0.918,2.939
			C105.694,100.215,104.171,101.013,102.749,100.571z"/>
		<path fill="#233863" d="M103.553,101.173c-0.316,0-0.636-0.049-0.946-0.144l0,0l-5.068-1.582c-1.677-0.522-2.614-2.313-2.092-3.99
			l0.918-2.939c0.252-0.811,0.808-1.474,1.563-1.87s1.619-0.476,2.426-0.221l5.068,1.582c1.677,0.522,2.614,2.313,2.092,3.99
			l-0.918,2.939c-0.252,0.811-0.808,1.474-1.563,1.87C104.567,101.05,104.06,101.173,103.553,101.173z M102.89,100.114
			c0.565,0.175,1.167,0.12,1.695-0.157c0.528-0.276,0.918-0.74,1.093-1.308l0.918-2.939c0.175-0.565,0.12-1.167-0.157-1.695
			c-0.276-0.528-0.74-0.918-1.308-1.093l-5.068-1.582c-0.565-0.175-1.167-0.12-1.698,0.157c-0.528,0.276-0.918,0.74-1.093,1.308
			l-0.918,2.939c-0.175,0.565-0.12,1.167,0.157,1.695c0.276,0.528,0.74,0.918,1.308,1.093L102.89,100.114z"/>
	</g>
	<g>
		<path fill="#5B708D" d="M116.388,104.828l-5.068-1.582c-1.422-0.442-2.221-1.969-1.778-3.391l0.918-2.939
			c0.442-1.422,1.969-2.22,3.391-1.778l5.068,1.582c1.422,0.442,2.22,1.969,1.778,3.391l-0.918,2.939
			C119.333,104.472,117.81,105.273,116.388,104.828z"/>
		<path fill="#233863" d="M117.193,105.43c-0.313,0-0.633-0.046-0.949-0.144l-5.068-1.582c-1.677-0.522-2.614-2.313-2.092-3.99
			l0.918-2.939c0.252-0.811,0.808-1.474,1.563-1.87c0.756-0.396,1.619-0.476,2.426-0.221l5.068,1.582
			c1.677,0.522,2.614,2.313,2.092,3.99l-0.918,2.939C119.809,104.555,118.55,105.43,117.193,105.43z M113.05,95.494
			c-0.356,0-0.709,0.086-1.035,0.258c-0.528,0.276-0.918,0.74-1.093,1.308L110.003,100c-0.365,1.173,0.292,2.426,1.462,2.792
			l5.068,1.582l0,0c1.173,0.365,2.423-0.289,2.792-1.462l0.918-2.939c0.365-1.173-0.292-2.426-1.462-2.792l-5.068-1.582
			C113.492,95.528,113.271,95.494,113.05,95.494z"/>
	</g>
	<g>
		<path fill="#5B708D" d="M85.516,107.091l-5.068-1.582c-1.422-0.442-2.221-1.969-1.778-3.391l0.918-2.939
			c0.442-1.422,1.969-2.22,3.391-1.778l5.068,1.582c1.422,0.442,2.221,1.969,1.778,3.391l-0.918,2.939
			C88.464,106.735,86.938,107.534,85.516,107.091z"/>
		<path fill="#233863" d="M86.321,107.693c-0.313,0-0.633-0.046-0.946-0.144l0,0l-5.068-1.582c-0.811-0.252-1.474-0.808-1.87-1.563
			c-0.396-0.756-0.476-1.619-0.221-2.426l0.918-2.939c0.522-1.677,2.31-2.614,3.99-2.092l5.068,1.582
			c0.808,0.252,1.474,0.808,1.87,1.563c0.396,0.756,0.476,1.619,0.221,2.426l-0.918,2.939
			C88.937,106.818,87.678,107.693,86.321,107.693z M85.66,106.634c1.173,0.365,2.426-0.289,2.792-1.462l0.918-2.939
			c0.175-0.565,0.12-1.167-0.157-1.698c-0.276-0.528-0.74-0.918-1.305-1.093l-5.068-1.582c-0.565-0.175-1.167-0.12-1.695,0.157
			c-0.528,0.276-0.918,0.74-1.093,1.308l-0.924,2.936c-0.175,0.565-0.12,1.167,0.157,1.698c0.276,0.528,0.74,0.918,1.308,1.093
			L85.66,106.634z"/>
	</g>
	<g>
		<path fill="#5B708D" d="M99.364,111.413l-5.068-1.582c-1.422-0.442-2.221-1.969-1.778-3.391l0.918-2.939
			c0.442-1.422,1.969-2.22,3.391-1.778l5.068,1.582c1.422,0.442,2.22,1.969,1.778,3.391l-0.918,2.939
			C102.31,111.056,100.786,111.858,99.364,111.413z"/>
		<path fill="#233863" d="M100.169,112.015c-0.313,0-0.633-0.046-0.946-0.144l0,0l-5.068-1.582c-0.811-0.252-1.474-0.808-1.87-1.563
			c-0.396-0.756-0.476-1.619-0.221-2.426l0.918-2.939c0.522-1.677,2.313-2.614,3.99-2.092l5.068,1.582
			c0.811,0.252,1.474,0.808,1.87,1.563s0.476,1.619,0.221,2.426l-0.918,2.939C102.786,111.139,101.526,112.015,100.169,112.015z
			 M99.506,110.955c1.173,0.365,2.423-0.292,2.792-1.462l0.918-2.939c0.175-0.565,0.12-1.167-0.157-1.698
			c-0.276-0.528-0.74-0.918-1.308-1.093l-5.068-1.582c-1.17-0.365-2.423,0.289-2.792,1.462l-0.918,2.939
			c-0.175,0.565-0.12,1.167,0.157,1.698c0.276,0.528,0.74,0.918,1.308,1.093L99.506,110.955z"/>
	</g>
	<g>
		<path fill="#5B708D" d="M113.004,115.672l-5.068-1.582c-1.422-0.442-2.22-1.969-1.778-3.391l0.918-2.939
			c0.442-1.422,1.969-2.22,3.391-1.778l5.068,1.582c1.422,0.442,2.221,1.969,1.778,3.391l-0.918,2.939
			C115.949,115.316,114.426,116.115,113.004,115.672z"/>
		<path fill="#233863" d="M113.808,116.274c-0.313,0-0.633-0.046-0.946-0.144l0,0l-5.068-1.582c-1.677-0.522-2.614-2.313-2.092-3.99
			l0.918-2.939c0.522-1.677,2.31-2.614,3.99-2.092l5.068,1.582c0.808,0.252,1.474,0.808,1.87,1.563s0.476,1.619,0.221,2.426
			l-0.918,2.939C116.425,115.399,115.166,116.274,113.808,116.274z M113.145,115.215c1.173,0.365,2.426-0.289,2.792-1.462
			l0.918-2.939c0.175-0.565,0.12-1.167-0.157-1.695c-0.276-0.528-0.74-0.918-1.305-1.093l-5.068-1.582
			c-0.565-0.175-1.167-0.12-1.695,0.157c-0.528,0.276-0.918,0.74-1.093,1.308l-0.918,2.939c-0.365,1.173,0.292,2.426,1.462,2.792
			L113.145,115.215z"/>
	</g>
	<g>
		<path fill="#3AADD3" d="M82.132,117.933l-5.068-1.582c-1.422-0.442-2.22-1.969-1.778-3.391l0.918-2.939
			c0.442-1.422,1.969-2.221,3.391-1.778l5.068,1.582c1.422,0.442,2.22,1.969,1.778,3.391l-0.918,2.939
			C85.08,117.577,83.554,118.378,82.132,117.933z"/>
		<path fill="#233863" d="M82.936,118.535c-0.316,0-0.636-0.049-0.946-0.144l0,0l-5.068-1.582c-0.811-0.252-1.474-0.808-1.87-1.563
			c-0.396-0.756-0.476-1.619-0.221-2.426l0.918-2.939c0.252-0.811,0.808-1.474,1.563-1.87s1.619-0.476,2.426-0.221l5.068,1.582
			c1.677,0.522,2.614,2.313,2.092,3.99l-0.918,2.939c-0.252,0.811-0.808,1.474-1.563,1.87
			C83.95,118.412,83.446,118.535,82.936,118.535z M82.273,117.475c0.565,0.175,1.167,0.12,1.698-0.157
			c0.528-0.276,0.918-0.74,1.093-1.308l0.918-2.939c0.175-0.565,0.12-1.167-0.157-1.695c-0.276-0.528-0.74-0.918-1.308-1.093
			l-5.068-1.582c-0.565-0.175-1.167-0.12-1.698,0.157c-0.528,0.276-0.918,0.74-1.093,1.308l-0.918,2.939
			c-0.175,0.565-0.12,1.167,0.157,1.695c0.276,0.528,0.74,0.918,1.308,1.093L82.273,117.475z"/>
	</g>
	<g>
		<path fill="#FBB250" d="M95.98,122.257l-5.068-1.582c-1.422-0.442-2.22-1.969-1.778-3.391l0.918-2.939
			c0.442-1.422,1.969-2.221,3.391-1.778l5.068,1.582c1.422,0.442,2.22,1.969,1.778,3.391l-0.918,2.939
			C98.925,121.901,97.399,122.699,95.98,122.257z"/>
		<path fill="#233863" d="M96.784,122.859c-0.316,0-0.636-0.049-0.946-0.144l-5.068-1.582c-0.811-0.252-1.474-0.808-1.87-1.563
			c-0.396-0.756-0.476-1.619-0.221-2.426l0.918-2.939c0.252-0.811,0.808-1.474,1.563-1.87s1.619-0.476,2.426-0.221l5.068,1.582
			c1.677,0.522,2.614,2.313,2.092,3.99l-0.918,2.939c-0.252,0.811-0.808,1.474-1.563,1.87
			C97.798,122.733,97.291,122.859,96.784,122.859z M92.638,112.924c-0.356,0-0.709,0.086-1.035,0.258
			c-0.528,0.276-0.918,0.74-1.093,1.308l-0.918,2.939c-0.175,0.565-0.12,1.167,0.157,1.695c0.276,0.528,0.74,0.918,1.308,1.093
			l5.068,1.582l0,0c0.565,0.175,1.167,0.12,1.695-0.157c0.528-0.276,0.918-0.74,1.093-1.308l0.918-2.939
			c0.365-1.173-0.289-2.423-1.462-2.792l-5.068-1.582C93.084,112.957,92.859,112.924,92.638,112.924z"/>
	</g>
	<g>
		<path fill="#537CBD" d="M109.619,126.514l-5.068-1.582c-1.422-0.442-2.221-1.969-1.778-3.391l0.918-2.939
			c0.442-1.422,1.969-2.22,3.391-1.778l5.068,1.582c1.422,0.442,2.22,1.969,1.778,3.391l-0.918,2.939
			C112.564,126.158,111.041,126.956,109.619,126.514z"/>
		<path fill="#233863" d="M110.424,127.116c-0.316,0-0.636-0.049-0.946-0.144l0,0l-5.068-1.582c-0.811-0.252-1.474-0.808-1.87-1.563
			s-0.476-1.619-0.221-2.426l0.918-2.939c0.252-0.811,0.808-1.474,1.563-1.87s1.619-0.476,2.426-0.221l5.068,1.582
			c0.811,0.252,1.474,0.808,1.87,1.563s0.476,1.619,0.221,2.426l-0.918,2.939c-0.252,0.811-0.808,1.474-1.563,1.87
			C111.437,126.993,110.931,127.116,110.424,127.116z M109.76,126.056c0.565,0.175,1.167,0.12,1.698-0.157
			c0.528-0.276,0.918-0.74,1.093-1.308l0.918-2.939c0.175-0.565,0.12-1.167-0.157-1.698c-0.276-0.528-0.74-0.918-1.308-1.093
			l-5.068-1.582c-0.565-0.175-1.167-0.12-1.698,0.157c-0.528,0.276-0.918,0.74-1.093,1.308l-0.918,2.939
			c-0.175,0.565-0.12,1.167,0.157,1.698c0.276,0.528,0.74,0.918,1.308,1.093L109.76,126.056z"/>
	</g>
	<g>
		<path fill="#233863" d="M108.117,135.998L73.111,125.07c-1.127-0.353-1.763-1.563-1.413-2.693l0,0
			c0.353-1.127,1.563-1.763,2.693-1.413l35.006,10.927c1.127,0.353,1.763,1.563,1.413,2.693l0,0
			C110.458,135.715,109.247,136.351,108.117,135.998z"/>
		<path fill="#233863" d="M108.756,136.575c-0.258,0-0.522-0.04-0.783-0.12l0,0l-35.006-10.927
			c-1.382-0.433-2.159-1.907-1.726-3.292c0.433-1.382,1.907-2.159,3.292-1.726l35.006,10.927c0.666,0.209,1.216,0.666,1.542,1.29
			s0.393,1.333,0.184,2.002C110.915,135.853,109.877,136.575,108.756,136.575z M108.262,135.54c0.878,0.273,1.818-0.218,2.092-1.096
			c0.132-0.424,0.092-0.875-0.117-1.271c-0.209-0.396-0.556-0.688-0.98-0.82l-35.006-10.927c-0.878-0.273-1.818,0.218-2.092,1.096
			c-0.273,0.878,0.218,1.818,1.096,2.092L108.262,135.54z"/>
	</g>
	<circle fill="#FFFFFF" cx="106.797" cy="119.198" r="0.762"/>
	<circle fill="#FFFFFF" cx="93.157" cy="115.034" r="0.762"/>
	<circle fill="#FFFFFF" cx="78.861" cy="110.464" r="0.762"/>
	<circle fill="#FFFFFF" cx="110.823" cy="124.745" r="0.396"/>
	<circle fill="#233863" cx="113.062" cy="96.88" r="0.51"/>
	<circle fill="#233863" cx="109.423" cy="108.268" r="0.51"/>
	<g>
		<circle fill="#2F4770" cx="124.785" cy="78.667" r="1.333"/>
		<path fill="#233863" d="M124.785,80.476c-0.998,0-1.812-0.811-1.812-1.812c0-0.998,0.811-1.812,1.812-1.812
			c0.998,0,1.812,0.811,1.812,1.812C126.594,79.665,125.783,80.476,124.785,80.476z M124.785,77.813
			c-0.47,0-0.854,0.384-0.854,0.854c0,0.47,0.384,0.854,0.854,0.854c0.47,0,0.854-0.384,0.854-0.854
			C125.639,78.194,125.255,77.813,124.785,77.813z"/>
	</g>
</g>
<g>
	<g>
		<g>
			<circle fill="#233863" cx="53.179" cy="98.584" r="12.884"/>
		</g>
		<g>
			<g>
				<circle fill="#233863" cx="51.846" cy="99.075" r="12.884"/>
				<g>
					<circle fill="#009749" cx="51.846" cy="99.075" r="12.884"/>
					<path fill="#233863" d="M61.917,107.715c-4.763,5.553-13.154,6.195-18.707,1.434c-5.553-4.763-6.195-13.154-1.434-18.707
						c4.76-5.553,13.154-6.195,18.707-1.434C66.038,93.768,66.68,102.162,61.917,107.715z M42.359,90.94
						c-4.487,5.23-3.882,13.136,1.351,17.623c5.23,4.487,13.136,3.882,17.623-1.348s3.882-13.136-1.351-17.623
						C54.755,85.104,46.846,85.709,42.359,90.94z"/>
				</g>
				<path fill="#FFFFFF" d="M59.917,105.998c-3.818,4.45-10.54,4.966-14.991,1.149s-4.966-10.544-1.149-14.991
					c3.818-4.45,10.544-4.966,14.991-1.149S63.735,101.548,59.917,105.998z M44.165,92.488c-3.633,4.235-3.142,10.636,1.093,14.269
					c4.235,3.633,10.636,3.142,14.269-1.093c3.633-4.235,3.142-10.636-1.093-14.269C54.199,87.764,47.798,88.252,44.165,92.488z"/>
				<path fill="#FFFFFF" d="M58.968,105.338c-3.403,3.968-9.401,4.429-13.369,1.023c-3.968-3.406-4.429-9.401-1.023-13.369
					c3.403-3.968,9.401-4.429,13.369-1.023C61.911,95.372,62.371,101.37,58.968,105.338z M44.964,93.326
					c-3.219,3.753-2.786,9.426,0.967,12.647c3.753,3.219,9.426,2.786,12.647-0.967c3.222-3.753,2.786-9.426-0.967-12.647
					C53.855,89.14,48.182,89.573,44.964,93.326z"/>
			</g>
			<circle fill="#233863" cx="56.269" cy="94.53" r="0.931"/>
			<circle fill="#233863" cx="47.768" cy="104.444" r="0.931"/>
		</g>
	</g>
	<g>
		<g>
			<circle fill="#233863" cx="30.971" cy="98.676" r="4.653"/>
		</g>
		<g>
			<g>
				<circle fill="#233863" cx="30.461" cy="98.744" r="4.653"/>
				<g>
					<circle fill="#009749" cx="30.461" cy="98.744" r="4.653"/>
					<path fill="#233863" d="M34.19,101.941c-0.23,0.27-0.494,0.516-0.789,0.737c-1.05,0.786-2.343,1.115-3.642,0.928
						c-1.299-0.187-2.445-0.869-3.231-1.92c-0.786-1.05-1.115-2.343-0.924-3.642c0.187-1.299,0.869-2.445,1.92-3.231
						c1.05-0.786,2.343-1.115,3.642-0.924c1.299,0.187,2.445,0.869,3.231,1.92l0,0C35.793,97.681,35.652,100.236,34.19,101.941z
						 M27.117,95.887c-0.537,0.627-0.888,1.391-1.007,2.227c-0.169,1.161,0.126,2.322,0.829,3.262
						c0.703,0.94,1.729,1.551,2.893,1.72c1.161,0.169,2.322-0.126,3.262-0.829c1.941-1.453,2.34-4.211,0.891-6.155
						c-0.703-0.94-1.729-1.551-2.893-1.72c-1.161-0.169-2.322,0.126-3.262,0.829C27.565,95.421,27.328,95.645,27.117,95.887z
						 M34.19,95.961L34.19,95.961L34.19,95.961z"/>
				</g>
				<path fill="#FFFFFF" d="M33.382,101.244c-0.181,0.212-0.39,0.408-0.62,0.58l0,0c-1.698,1.268-4.112,0.918-5.381-0.78
					c-0.614-0.82-0.869-1.834-0.722-2.85s0.679-1.913,1.502-2.531c1.698-1.268,4.112-0.918,5.381,0.777
					c0.614,0.82,0.869,1.834,0.725,2.85C34.159,100.028,33.852,100.697,33.382,101.244z M32.648,101.671
					c0.78-0.584,1.287-1.437,1.425-2.402c0.141-0.967-0.104-1.929-0.688-2.709c-1.204-1.612-3.498-1.944-5.111-0.74
					c-0.78,0.584-1.287,1.437-1.425,2.402c-0.141,0.967,0.104,1.929,0.688,2.709C28.741,102.543,31.035,102.875,32.648,101.671
					L32.648,101.671z"/>
				<path fill="#FFFFFF" d="M33.032,101.004c-0.16,0.187-0.344,0.359-0.55,0.516c-1.514,1.13-3.667,0.82-4.797-0.694
					c-0.547-0.731-0.777-1.637-0.645-2.543c0.132-0.906,0.608-1.708,1.339-2.254c1.514-1.13,3.667-0.82,4.797,0.694
					C34.153,98.028,34.051,99.813,33.032,101.004z M27.967,96.668c-0.396,0.461-0.651,1.026-0.74,1.64
					c-0.123,0.857,0.092,1.708,0.608,2.399c1.069,1.428,3.099,1.723,4.53,0.654c0.691-0.516,1.139-1.271,1.265-2.128
					c0.123-0.857-0.092-1.708-0.608-2.399c-0.516-0.691-1.271-1.139-2.128-1.265c-0.857-0.123-1.708,0.092-2.399,0.608l0,0
					C28.296,96.324,28.121,96.486,27.967,96.668z"/>
			</g>
			<circle fill="#233863" cx="32.378" cy="97.491" r="0.335"/>
			<circle fill="#233863" cx="28.6" cy="100.316" r="0.335"/>
		</g>
	</g>
	<g>
		<g>
			<circle fill="#233863" cx="34.81" cy="112.503" r="6.265"/>
		</g>
	</g>
	<g>
		<circle fill="#233863" cx="34.254" cy="112.911" r="6.265"/>
		<g>
			<circle fill="#009749" cx="34.254" cy="112.911" r="6.265"/>
			<path fill="#233863" d="M39.303,117.239c-1.889,2.202-5.08,2.985-7.841,1.708c-3.329-1.539-4.785-5.498-3.246-8.827
				c1.539-3.329,5.501-4.785,8.827-3.246c3.329,1.539,4.785,5.498,3.246,8.827C40.028,116.271,39.693,116.784,39.303,117.239z
				 M29.792,109.072c-0.35,0.408-0.645,0.869-0.878,1.37c-1.361,2.945-0.074,6.447,2.872,7.807c2.945,1.361,6.447,0.074,7.807-2.872
				c0.66-1.425,0.725-3.022,0.181-4.499c-0.544-1.474-1.625-2.65-3.053-3.308c-1.425-0.66-3.022-0.725-4.499-0.181
				C31.266,107.742,30.437,108.32,29.792,109.072z"/>
		</g>
		<path fill="#FFFFFF" d="M38.158,116.259c-1.459,1.701-3.928,2.306-6.063,1.321c-2.574-1.189-3.701-4.254-2.509-6.827
			c0.574-1.247,1.603-2.193,2.893-2.666c1.29-0.476,2.687-0.418,3.931,0.157c1.244,0.574,2.193,1.603,2.666,2.893
			c0.476,1.29,0.421,2.687-0.157,3.931C38.717,115.51,38.459,115.906,38.158,116.259z M30.495,109.683
			c-0.295,0.344-0.544,0.728-0.737,1.149c-1.146,2.478-0.061,5.427,2.417,6.572c2.478,1.146,5.427,0.058,6.572-2.417l0,0
			c0.553-1.198,0.608-2.543,0.15-3.784c-0.458-1.244-1.37-2.233-2.568-2.786c-1.198-0.553-2.543-0.608-3.787-0.15
			C31.739,108.562,31.039,109.051,30.495,109.683z"/>
		<path fill="#FFFFFF" d="M37.706,115.949c-0.504,0.587-1.152,1.038-1.898,1.311c-1.152,0.424-2.396,0.375-3.504-0.138
			c-1.109-0.513-1.953-1.428-2.377-2.58c-0.424-1.152-0.375-2.396,0.138-3.504l0,0c0.513-1.109,1.428-1.953,2.58-2.377
			c1.152-0.424,2.396-0.375,3.504,0.138c1.109,0.513,1.953,1.428,2.377,2.58c0.424,1.152,0.375,2.396-0.138,3.504
			C38.21,115.276,37.98,115.632,37.706,115.949z M30.897,110.101c-0.261,0.304-0.482,0.645-0.654,1.02l0,0
			c-0.491,1.063-0.537,2.254-0.132,3.357c0.405,1.103,1.213,1.981,2.276,2.472c1.063,0.491,2.254,0.537,3.357,0.132
			c1.103-0.405,1.981-1.216,2.469-2.276c0.491-1.063,0.537-2.254,0.132-3.357c-0.405-1.103-1.213-1.981-2.276-2.469
			c-1.063-0.491-2.254-0.537-3.357-0.132C32,109.106,31.379,109.539,30.897,110.101z"/>
	</g>
	<circle fill="#233863" cx="35.719" cy="110.196" r="0.451"/>
	<circle fill="#233863" cx="33.056" cy="115.964" r="0.451"/>
</g>
<g>
	<g>
		<path fill="#233863" d="M78.498,84.45l-33.215-1.655c-1.557-0.077-2.758-1.404-2.681-2.964l2.491-49.972
			c0.236-4.714,4.248-8.348,8.965-8.114l22.048,1.1c4.714,0.236,8.348,4.248,8.114,8.965l-2.478,49.705
			C81.656,83.222,80.203,84.536,78.498,84.45z"/>
		<g>
			<path fill="#FFFFFF" d="M76.361,84.45l-33.215-1.655c-1.557-0.077-2.758-1.404-2.681-2.964l2.491-49.972
				c0.236-4.714,4.248-8.348,8.965-8.114l22.048,1.1c4.714,0.236,8.348,4.248,8.114,8.965l-2.478,49.705
				C79.518,83.222,78.068,84.536,76.361,84.45z"/>
			<path fill="#233863" d="M76.517,84.932c-0.058,0-0.12,0-0.178-0.003l0,0l-33.215-1.655c-1.821-0.092-3.228-1.646-3.136-3.464
				l2.491-49.972c0.12-2.408,1.17-4.625,2.958-6.244c1.787-1.619,4.106-2.442,6.508-2.322l22.048,1.1
				c4.972,0.249,8.814,4.493,8.569,9.466l-2.478,49.705C79.988,83.446,78.406,84.932,76.517,84.932z M76.385,83.971
				c1.45,0.074,2.669-1.041,2.74-2.478l2.478-49.705c0.221-4.444-3.216-8.24-7.66-8.461l-22.048-1.1
				c-2.153-0.107-4.22,0.63-5.817,2.076c-1.6,1.447-2.537,3.427-2.644,5.583l-2.491,49.972c-0.064,1.293,0.934,2.396,2.227,2.46
				L76.385,83.971z"/>
		</g>
		<g>
			<g>
				<path fill="#FFFFFF" d="M73.572,22.838v-0.009l-31.425-1.566c-3.618-0.181-6.701,2.733-6.889,6.505l-0.129,2.595l31.781,1.585
					l0.129-2.595C67.221,25.701,70.111,22.857,73.572,22.838z"/>
				<path fill="#233863" d="M66.907,32.424c-0.009,0-0.015,0-0.025,0l-31.781-1.585c-0.264-0.012-0.467-0.236-0.455-0.501
					l0.129-2.595c0.098-1.95,0.918-3.747,2.31-5.058c1.397-1.321,3.2-1.993,5.083-1.901l31.425,1.566
					c0.129,0.006,0.249,0.064,0.332,0.16c0.086,0.095,0.129,0.221,0.12,0.347c-0.015,0.252-0.224,0.458-0.476,0.461
					c-3.228,0.018-5.891,2.681-6.06,6.06l-0.129,2.595c-0.006,0.126-0.061,0.246-0.157,0.332
					C67.141,32.381,67.027,32.424,66.907,32.424z M35.63,29.908l30.826,1.536l0.104-2.116c0.135-2.712,1.677-5.021,3.864-6.176
					l-28.301-1.41c-1.622-0.08-3.173,0.501-4.38,1.64c-1.21,1.142-1.926,2.709-2.009,4.41L35.63,29.908z"/>
			</g>
		</g>
		<g opacity="0.11">
			<path fill="#233863" d="M73.572,22.838v-0.009l-31.425-1.566c-3.618-0.181-6.701,2.733-6.889,6.505l-0.129,2.595l31.781,1.585
				l0.129-2.595C67.221,25.701,70.111,22.857,73.572,22.838z"/>
		</g>
		<g>
			<line fill="none" x1="50.169" y1="35.75" x2="58.179" y2="36.149"/>
			<path fill="#233863" d="M58.179,36.628c-0.009,0-0.015,0-0.025,0l-8.01-0.399c-0.264-0.012-0.467-0.236-0.455-0.501
				c0.012-0.264,0.246-0.467,0.501-0.455l8.01,0.399c0.264,0.012,0.467,0.236,0.455,0.501
				C58.646,36.428,58.434,36.628,58.179,36.628z"/>
		</g>
		<g>
			<line fill="none" x1="68.333" y1="36.886" x2="76.345" y2="37.285"/>
			<path fill="#233863" d="M76.345,37.764c-0.009,0-0.015,0-0.025,0l-8.01-0.399c-0.264-0.012-0.467-0.236-0.455-0.501
				c0.012-0.264,0.246-0.467,0.501-0.455l8.01,0.399c0.264,0.012,0.467,0.236,0.455,0.501
				C76.809,37.565,76.597,37.764,76.345,37.764z"/>
		</g>
		<g>
			<line fill="none" x1="49.699" y1="45.194" x2="65.608" y2="45.888"/>
			<path fill="#233863" d="M65.608,46.367c-0.006,0-0.015,0-0.021,0l-15.909-0.694c-0.264-0.012-0.47-0.236-0.458-0.501
				c0.012-0.264,0.224-0.47,0.501-0.458l15.909,0.694c0.264,0.012,0.47,0.236,0.458,0.501
				C66.075,46.167,65.863,46.367,65.608,46.367z"/>
		</g>
		<g>
			<line fill="none" x1="49.254" y1="50.396" x2="55.888" y2="50.768"/>
			<path fill="#233863" d="M55.888,51.247c-0.009,0-0.018,0-0.028,0l-6.634-0.372c-0.264-0.015-0.467-0.24-0.451-0.504
				c0.015-0.264,0.243-0.464,0.504-0.451l6.634,0.372c0.264,0.015,0.467,0.24,0.451,0.504C56.352,51.051,56.14,51.247,55.888,51.247
				z"/>
		</g>
		<g>
			<line fill="none" x1="49.933" y1="40.476" x2="61.358" y2="41.045"/>
			<path fill="#233863" d="M61.358,41.524c-0.009,0-0.015,0-0.025,0l-11.422-0.568c-0.264-0.012-0.467-0.236-0.455-0.501
				s0.24-0.467,0.501-0.455l11.422,0.568c0.264,0.012,0.467,0.236,0.455,0.501C61.821,41.324,61.61,41.524,61.358,41.524z"/>
		</g>
		<g>
			<line fill="none" x1="64.125" y1="41.183" x2="65.608" y2="41.256"/>
			<path fill="#233863" d="M65.608,41.736c-0.009,0-0.015,0-0.025,0L64.1,41.662c-0.264-0.012-0.467-0.236-0.455-0.501
				c0.012-0.264,0.227-0.47,0.501-0.455l1.483,0.074c0.264,0.012,0.467,0.236,0.455,0.501
				C66.075,41.536,65.863,41.736,65.608,41.736z"/>
		</g>
		<g>
			<path fill="#233863" stroke="#FFFFFF" stroke-width="0.6382" stroke-miterlimit="10" d="M76.533,49.371
				c-0.037,0.869-0.421,1.695-1.044,2.282c-0.418,0.405-0.915,0.682-1.474,0.817l-0.028,0.636c-0.012,0.304-0.138,0.587-0.353,0.789
				c-0.212,0.203-0.498,0.313-0.802,0.298c-0.326-0.012-0.599-0.147-0.802-0.369c-0.203-0.221-0.319-0.513-0.307-0.817l0.021-0.513
				l-1.053-0.046c-0.476-0.021-0.863-0.187-1.124-0.448c-0.255-0.261-0.384-0.623-0.365-1.038c0.034-0.823,0.605-1.216,1.603-1.173
				l2.491,0.107c0.098,0.003,0.236-0.028,0.338-0.107c0.132-0.092,0.2-0.218,0.206-0.372c0.009-0.218-0.068-0.365-0.23-0.458
				c-0.083-0.04-0.135-0.058-0.172-0.068c-0.052-0.009-0.083-0.018-0.083-0.018l-1.189-0.049c-0.823-0.058-1.572-0.415-2.104-0.977
				c-0.528-0.568-0.823-1.308-0.789-2.131c0.037-0.854,0.436-1.665,1.066-2.245c0.504-0.464,1.146-0.762,1.824-0.848l0.018-0.424
				c0.012-0.31,0.138-0.571,0.375-0.786c0.227-0.209,0.507-0.313,0.823-0.298c0.295,0.012,0.571,0.144,0.774,0.365
				c0.209,0.236,0.304,0.507,0.292,0.817l-0.015,0.378l0.402,0.018c0.992,0.043,1.554,0.544,1.517,1.37
				c-0.04,0.909-0.642,1.367-1.634,1.324l-2.322-0.098c-0.264-0.012-0.445,0.157-0.458,0.396c-0.009,0.249,0.117,0.461,0.335,0.47
				l1.143,0.049c0.885,0.037,1.689,0.384,2.263,0.952C76.262,47.724,76.57,48.501,76.533,49.371z"/>
		</g>
		
			<line fill="none" stroke="#233863" stroke-width="0.9576" stroke-linecap="round" stroke-miterlimit="10" x1="35.734" y1="27.789" x2="42.537" y2="28.069"/>
	</g>
	<g>
		<g>
			<g>
				<polyline fill="#3AADD3" points="13.533,54.358 39.466,89.195 61.702,72.641 35.277,37.147 35.05,41.094 31.398,40.228 
					31.183,43.971 27.728,43.151 27.519,46.763 24.128,45.958 23.922,49.503 20.535,48.698 20.348,51.911 16.634,51.026 
					16.407,54.905 13.533,54.358 				"/>
				<path fill="#233863" d="M39.466,89.671c-0.025,0-0.046-0.003-0.071-0.006c-0.126-0.018-0.24-0.086-0.313-0.187L13.149,54.644
					c-0.117-0.16-0.126-0.372-0.021-0.541c0.104-0.166,0.301-0.252,0.494-0.215l2.34,0.445l0.193-3.335
					c0.009-0.141,0.077-0.273,0.193-0.356c0.114-0.086,0.258-0.114,0.396-0.083l3.16,0.749l0.154-2.641
					c0.009-0.141,0.077-0.273,0.193-0.356c0.114-0.083,0.258-0.114,0.396-0.083l2.835,0.673l0.172-2.976
					c0.009-0.141,0.077-0.273,0.193-0.356c0.114-0.086,0.258-0.114,0.396-0.083l2.835,0.673l0.175-3.041
					c0.009-0.141,0.077-0.27,0.193-0.356c0.114-0.086,0.258-0.114,0.396-0.083l2.899,0.688l0.184-3.176
					c0.009-0.141,0.077-0.27,0.193-0.356c0.114-0.086,0.258-0.114,0.396-0.083l3.096,0.734l0.197-3.375
					c0.012-0.2,0.147-0.372,0.341-0.43s0.402,0.012,0.522,0.172l26.425,35.494c0.157,0.212,0.114,0.513-0.098,0.67L39.764,89.57
					C39.669,89.641,39.567,89.671,39.466,89.671z M14.65,55.059l24.914,33.464L61.032,72.54L35.679,38.486l-0.154,2.632
					c-0.009,0.141-0.077,0.27-0.193,0.356c-0.114,0.086-0.258,0.114-0.396,0.083l-3.096-0.734l-0.184,3.176
					c-0.009,0.141-0.077,0.27-0.193,0.356c-0.114,0.086-0.258,0.114-0.396,0.083l-2.899-0.688l-0.175,3.041
					c-0.009,0.141-0.077,0.27-0.193,0.356c-0.114,0.086-0.258,0.114-0.396,0.083l-2.835-0.673l-0.166,2.973
					c-0.009,0.141-0.077,0.273-0.193,0.356C24.094,49.97,23.95,50,23.812,49.97l-2.835-0.673l-0.154,2.641
					c-0.009,0.141-0.077,0.273-0.193,0.356c-0.114,0.086-0.258,0.114-0.396,0.083l-3.16-0.749l-0.19,3.308
					c-0.009,0.138-0.074,0.264-0.184,0.35c-0.107,0.086-0.249,0.117-0.384,0.092L14.65,55.059z"/>
			</g>
			<g>
				<line fill="none" x1="21.469" y1="58.821" x2="28.305" y2="53.732"/>
				<path fill="#FFFFFF" d="M21.469,59.297c-0.147,0-0.292-0.068-0.384-0.193c-0.157-0.212-0.114-0.513,0.098-0.67l6.837-5.089
					c0.212-0.157,0.513-0.114,0.67,0.098c0.157,0.212,0.114,0.513-0.098,0.67l-6.837,5.092
					C21.668,59.266,21.567,59.297,21.469,59.297z"/>
			</g>
			<g>
				<line fill="none" x1="23.493" y1="61.539" x2="36.06" y2="52.181"/>
				<path fill="#233863" d="M23.493,62.015c-0.147,0-0.292-0.068-0.384-0.193c-0.157-0.212-0.114-0.513,0.098-0.67l12.567-9.355
					c0.212-0.157,0.513-0.114,0.67,0.098c0.157,0.212,0.114,0.513-0.098,0.67L23.778,61.92
					C23.692,61.984,23.591,62.015,23.493,62.015z"/>
			</g>
			<g>
				<line fill="none" x1="37.417" y1="51.17" x2="39.101" y2="49.917"/>
				<path fill="#FFFFFF" d="M37.417,51.646c-0.147,0-0.292-0.068-0.384-0.193c-0.157-0.212-0.114-0.513,0.098-0.67l1.683-1.253
					c0.212-0.157,0.513-0.114,0.67,0.098c0.157,0.212,0.114,0.513-0.098,0.67l-1.683,1.253
					C37.617,51.616,37.519,51.646,37.417,51.646z"/>
			</g>
			<g>
				<line fill="none" x1="26.404" y1="65.449" x2="31.02" y2="62.012"/>
				<path fill="#233863" d="M26.404,65.928c-0.147,0-0.292-0.068-0.384-0.193c-0.157-0.212-0.114-0.513,0.098-0.67l4.619-3.437
					c0.212-0.157,0.513-0.114,0.67,0.098c0.157,0.212,0.114,0.513-0.098,0.67l-4.619,3.437
					C26.604,65.897,26.502,65.928,26.404,65.928z"/>
			</g>
			<g>
				<line fill="none" x1="33.016" y1="60.528" x2="42.015" y2="53.827"/>
				<path fill="#233863" d="M33.016,61.004c-0.147,0-0.292-0.068-0.384-0.193c-0.157-0.212-0.114-0.513,0.098-0.67l8.999-6.698
					c0.212-0.157,0.513-0.114,0.67,0.098c0.157,0.212,0.114,0.513-0.098,0.67l-8.999,6.698
					C33.216,60.974,33.115,61.004,33.016,61.004z"/>
			</g>
			<g>
				<line fill="none" x1="30.679" y1="71.195" x2="40.814" y2="63.649"/>
				<path fill="#FFFFFF" d="M30.679,71.671c-0.147,0-0.292-0.068-0.384-0.193c-0.157-0.212-0.114-0.513,0.098-0.67l10.135-7.543
					c0.212-0.157,0.513-0.114,0.67,0.098c0.157,0.212,0.114,0.513-0.098,0.67l-10.135,7.543
					C30.879,71.64,30.781,71.671,30.679,71.671z"/>
			</g>
			<g>
				<line fill="none" x1="45.71" y1="68.55" x2="50.381" y2="65.071"/>
				<path fill="#233863" d="M45.71,69.026c-0.147,0-0.292-0.068-0.384-0.193c-0.157-0.212-0.114-0.513,0.098-0.67l4.674-3.48
					c0.212-0.157,0.513-0.114,0.67,0.098c0.157,0.212,0.114,0.513-0.098,0.67l-4.674,3.48C45.909,68.996,45.808,69.026,45.71,69.026
					z"/>
			</g>
		</g>
	</g>
	<g>
		<g>
			<g>
				<polyline fill="#FBB250" points="48.554,47.847 45.323,73.753 65.043,76.21 68.333,49.816 66.302,51.398 64.801,49.469 
					62.872,50.971 61.453,49.146 59.592,50.593 58.197,48.802 56.373,50.221 54.979,48.431 53.326,49.718 51.797,47.755 
					49.801,49.309 48.578,47.74 				"/>
				<path fill="#233863" d="M65.043,76.689c-0.018,0-0.04,0-0.058-0.003l-19.72-2.46c-0.261-0.034-0.448-0.273-0.415-0.534
					l3.231-25.906c0.006-0.037,0.012-0.071,0.025-0.104c0.015-0.123,0.077-0.24,0.181-0.322c0.209-0.163,0.51-0.126,0.673,0.083
					l0.928,1.192l1.619-1.259c0.101-0.077,0.227-0.114,0.353-0.098c0.126,0.015,0.24,0.08,0.319,0.181l1.235,1.585l1.275-0.992
					c0.209-0.163,0.51-0.126,0.673,0.083l1.099,1.413l1.447-1.127c0.209-0.163,0.51-0.126,0.673,0.083l1.1,1.413l1.483-1.152
					c0.209-0.163,0.51-0.126,0.673,0.083l1.127,1.447l1.551-1.207c0.209-0.163,0.51-0.126,0.673,0.083l1.207,1.551l1.655-1.287
					c0.154-0.12,0.362-0.135,0.531-0.04c0.169,0.095,0.261,0.283,0.24,0.476l-3.292,26.394c-0.015,0.126-0.08,0.24-0.181,0.319
					C65.252,76.655,65.148,76.689,65.043,76.689z M45.857,73.335l18.771,2.34l3.09-24.773l-1.121,0.872
					c-0.209,0.163-0.51,0.126-0.673-0.083l-1.207-1.551l-1.551,1.207c-0.209,0.163-0.51,0.126-0.673-0.083l-1.127-1.447
					l-1.483,1.152c-0.101,0.077-0.227,0.114-0.353,0.098c-0.126-0.015-0.24-0.08-0.319-0.181l-1.099-1.413l-1.447,1.127
					c-0.209,0.163-0.51,0.126-0.673-0.083l-1.1-1.413l-1.275,0.992c-0.101,0.077-0.227,0.114-0.353,0.098
					c-0.126-0.015-0.24-0.08-0.319-0.181l-1.235-1.585l-1.619,1.259c-0.209,0.163-0.51,0.126-0.673-0.083l-0.522-0.673
					L45.857,73.335z"/>
			</g>
			<path fill="#FFFFFF" d="M56.631,54.211c-0.012,0-0.028,0-0.04-0.003l-6.063-0.756c-0.175-0.021-0.298-0.181-0.276-0.356
				c0.021-0.175,0.181-0.301,0.356-0.276l6.063,0.756c0.175,0.021,0.298,0.181,0.276,0.356
				C56.926,54.094,56.788,54.211,56.631,54.211z"/>
			<g>
				<line fill="none" x1="50.317" y1="55.157" x2="61.462" y2="56.548"/>
				<path fill="#233863" d="M61.462,56.867c-0.012,0-0.028,0-0.04-0.003l-11.146-1.391c-0.175-0.021-0.298-0.181-0.276-0.356
					c0.021-0.175,0.178-0.298,0.356-0.276l11.146,1.391c0.175,0.021,0.298,0.181,0.276,0.356
					C61.757,56.748,61.619,56.867,61.462,56.867z"/>
			</g>
			<path fill="#FFFFFF" d="M64.159,57.202c-0.012,0-0.028,0-0.04-0.003l-1.493-0.187c-0.175-0.021-0.298-0.181-0.276-0.356
				c0.021-0.175,0.178-0.301,0.356-0.276l1.493,0.187c0.175,0.021,0.298,0.181,0.276,0.356
				C64.457,57.086,64.318,57.202,64.159,57.202z"/>
			<g>
				<line fill="none" x1="49.951" y1="58.065" x2="54.048" y2="58.578"/>
				<path fill="#233863" d="M54.048,58.898c-0.012,0-0.028,0-0.04-0.003l-4.097-0.51c-0.175-0.021-0.298-0.181-0.276-0.356
					c0.021-0.175,0.181-0.298,0.356-0.276l4.097,0.51c0.175,0.021,0.298,0.181,0.276,0.356
					C54.346,58.778,54.208,58.898,54.048,58.898z"/>
			</g>
			<g>
				<line fill="none" x1="55.817" y1="58.799" x2="63.796" y2="59.794"/>
				<path fill="#233863" d="M63.796,60.111c-0.012,0-0.028,0-0.04-0.003l-7.979-0.995c-0.175-0.021-0.298-0.181-0.276-0.356
					c0.021-0.175,0.181-0.301,0.356-0.276l7.979,0.995c0.175,0.021,0.298,0.181,0.276,0.356
					C64.094,59.994,63.956,60.111,63.796,60.111z"/>
			</g>
			<g>
				<line fill="none" x1="49.42" y1="62.337" x2="58.406" y2="63.458"/>
				<path fill="#233863" d="M58.406,63.778c-0.012,0-0.028,0-0.04-0.003l-8.986-1.121c-0.175-0.021-0.298-0.181-0.276-0.356
					s0.178-0.301,0.356-0.276l8.986,1.121c0.175,0.021,0.298,0.181,0.276,0.356C58.704,63.661,58.566,63.778,58.406,63.778z"/>
			</g>
			<g>
				<line fill="none" x1="58.609" y1="67.635" x2="62.755" y2="68.151"/>
				<path fill="#233863" d="M62.755,68.63c-0.018,0-0.04,0-0.058-0.003l-4.146-0.516c-0.261-0.034-0.448-0.27-0.415-0.534
					c0.034-0.261,0.267-0.448,0.534-0.415l4.146,0.516c0.261,0.034,0.448,0.27,0.415,0.534C63.2,68.455,62.995,68.63,62.755,68.63z"
					/>
			</g>
		</g>
	</g>
</g>
<g>
	<g>
		<g>
			<path fill="#233863" d="M96.425,30.59c0.037-0.077,0.098-0.144,0.175-0.19l5.197-3.074c0.215-0.126,0.491-0.055,0.62,0.16
				c0.126,0.215,0.055,0.491-0.16,0.62l-5.197,3.074c-0.215,0.126-0.491,0.055-0.62-0.16C96.364,30.885,96.361,30.722,96.425,30.59z
				"/>
			<path fill="#233863" d="M92.89,29.758c-0.006-0.061-0.003-0.123,0.018-0.187l2.503-8.031c0.074-0.24,0.329-0.372,0.565-0.298
				c0.24,0.074,0.372,0.329,0.298,0.565l-2.503,8.031c-0.074,0.24-0.329,0.372-0.565,0.298C93.031,30.083,92.912,29.93,92.89,29.758
				z"/>
			<path fill="#233863" d="M84.223,22.23c-0.101-0.218-0.015-0.476,0.2-0.59c0.221-0.117,0.494-0.034,0.611,0.187l4.281,8.099
				c0.114,0.227,0.031,0.494-0.187,0.611c-0.221,0.117-0.494,0.034-0.611-0.187l-4.281-8.099
				C84.229,22.245,84.226,22.236,84.223,22.23z"/>
		</g>
		<g>
			<path fill="#233863" d="M61.895,116.413c-0.068,0.028-0.144,0.037-0.224,0.025l-5.138-0.958c-0.212-0.04-0.353-0.246-0.313-0.458
				c0.04-0.212,0.246-0.35,0.458-0.313l5.138,0.958c0.212,0.04,0.353,0.246,0.313,0.458
				C62.104,116.256,62.012,116.363,61.895,116.413z"/>
			<path fill="#233863" d="M63.726,118.968c-0.031,0.043-0.071,0.083-0.117,0.111l-6.207,3.805
				c-0.184,0.114-0.424,0.055-0.537-0.129c-0.114-0.184-0.055-0.424,0.129-0.537l6.207-3.805c0.184-0.114,0.424-0.055,0.537,0.129
				C63.821,118.676,63.809,118.845,63.726,118.968z"/>
			<path fill="#233863" d="M65.08,128.811c-0.058,0.2-0.261,0.319-0.467,0.27c-0.209-0.049-0.341-0.261-0.292-0.47l1.827-7.715
				c0.055-0.215,0.261-0.341,0.47-0.292c0.209,0.049,0.341,0.261,0.292,0.47l-1.827,7.715
				C65.086,128.799,65.083,128.805,65.08,128.811z"/>
		</g>
	</g>
	<g>
		<g>
			<path fill="#FBB250" d="M21.736,82.534l-0.215-5.494l9.459,8.796l-8.741,9.512l-0.215-5.491c0,0-8.163-1.64-13.32,7.856
				c0,0-1.655-7.03,4.312-12.402C13.013,85.31,15.704,82.589,21.736,82.534L21.736,82.534z"/>
			<path fill="#233863" d="M8.705,98.191c-0.021,0-0.043,0-0.064-0.003c-0.197-0.028-0.356-0.172-0.402-0.365
				c-0.018-0.074-1.649-7.368,4.456-12.865c0.092-0.095,2.73-2.697,8.544-2.89l-0.197-5.006c-0.006-0.193,0.101-0.372,0.279-0.455
				c0.175-0.08,0.384-0.046,0.525,0.083l9.459,8.796c0.193,0.178,0.206,0.479,0.028,0.676l-8.741,9.512
				c-0.132,0.144-0.335,0.193-0.519,0.126c-0.181-0.068-0.304-0.236-0.313-0.43l-0.2-5.095c-1.619-0.184-8.074-0.365-12.435,7.669
				C9.039,98.096,8.877,98.191,8.705,98.191z M22.043,78.182l0.169,4.334c0.006,0.129-0.043,0.255-0.132,0.35
				c-0.089,0.092-0.212,0.147-0.341,0.147c-5.768,0.052-8.36,2.607-8.384,2.635c-4.162,3.747-4.484,8.363-4.349,10.605
				c5.279-8.326,13.031-6.886,13.111-6.867c0.218,0.043,0.375,0.23,0.384,0.451l0.169,4.334l7.635-8.305L22.043,78.182z"/>
		</g>
		<g>
			<path fill="#FBB250" d="M118.464,101.351l-0.154,5.494l-8.851-9.41l9.358-8.904l-0.154,5.494c0,0,8.037,2.181,13.814-6.947
				c0,0,1.182,7.125-5.132,12.085C127.352,99.165,124.484,101.701,118.464,101.351L118.464,101.351z"/>
			<path fill="#233863" d="M118.311,107.325c-0.129,0-0.258-0.052-0.35-0.15l-8.851-9.41c-0.181-0.19-0.172-0.494,0.018-0.676
				l9.358-8.904c0.141-0.132,0.347-0.169,0.525-0.089c0.178,0.08,0.289,0.258,0.283,0.451l-0.141,5.098
				c1.603,0.295,8.031,0.906,12.921-6.821c0.107-0.166,0.304-0.252,0.501-0.212c0.193,0.04,0.344,0.193,0.378,0.39
				c0.012,0.074,1.152,7.463-5.307,12.54c-0.098,0.089-2.902,2.509-8.719,2.31l-0.138,5.009c-0.006,0.193-0.126,0.365-0.307,0.433
				C118.424,107.316,118.369,107.325,118.311,107.325z M110.135,97.454l7.73,8.219l0.12-4.337c0.003-0.129,0.058-0.252,0.154-0.341
				c0.095-0.086,0.224-0.132,0.35-0.126c5.725,0.329,8.517-2.042,8.544-2.067c4.416-3.47,5.04-8.053,5.052-10.295
				c-5.826,7.958-13.467,6.001-13.547,5.98c-0.215-0.058-0.359-0.255-0.353-0.476l0.12-4.334L110.135,97.454z"/>
		</g>
	</g>
</g>
<g>
	<path fill="#FFFFFF" d="M48.308,96.007h0.722v2.69h0.025c0.15-0.215,0.298-0.415,0.439-0.596l1.705-2.095h0.894l-2.018,2.371
		l2.178,3.213h-0.857l-1.84-2.74l-0.531,0.614v2.128h-0.722v-5.587H48.308z"/>
	<path fill="#FFFFFF" d="M52.678,100.844c0.215,0.141,0.596,0.289,0.961,0.289c0.531,0,0.777-0.264,0.777-0.596
		c0-0.347-0.206-0.537-0.746-0.734c-0.719-0.258-1.06-0.654-1.06-1.133c0-0.645,0.522-1.176,1.382-1.176
		c0.405,0,0.762,0.117,0.986,0.249l-0.181,0.531c-0.157-0.098-0.448-0.23-0.82-0.23c-0.43,0-0.67,0.249-0.67,0.544
		c0,0.332,0.24,0.479,0.762,0.679c0.697,0.264,1.053,0.614,1.053,1.21c0,0.703-0.547,1.198-1.499,1.198
		c-0.439,0-0.845-0.107-1.124-0.273L52.678,100.844z"/>
</g>
<g>
	<path fill="#FFFFFF" d="M34.051,76.827l0.9-0.67l2.494,3.366l0.031-0.021c-0.012-0.408-0.009-0.792-0.003-1.155l0.19-4.198
		l1.118-0.829l-0.329,4.834l5.697,1.996l-1.066,0.789l-4.84-1.723l-0.092,1.259l1.972,2.66l-0.897,0.67L34.051,76.827z"/>
	<path fill="#FFFFFF" d="M43.999,78.821c0.399-0.025,1.014-0.19,1.471-0.528c0.663-0.491,0.728-1.053,0.418-1.468
		c-0.322-0.433-0.756-0.479-1.612-0.227c-1.139,0.344-1.932,0.166-2.377-0.436c-0.599-0.808-0.436-1.953,0.639-2.752
		c0.507-0.378,1.06-0.559,1.462-0.605l0.264,0.832c-0.289,0.021-0.771,0.126-1.238,0.473c-0.537,0.399-0.608,0.931-0.335,1.302
		c0.307,0.415,0.746,0.378,1.582,0.141c1.115-0.313,1.886-0.209,2.439,0.537c0.651,0.878,0.427,2.006-0.765,2.887
		c-0.547,0.405-1.155,0.651-1.658,0.703L43.999,78.821z"/>
</g>
<g>
	<path fill="#FFFFFF" d="M31.849,110.98h0.476v1.778h0.015c0.098-0.141,0.197-0.273,0.292-0.393l1.127-1.385h0.59l-1.336,1.566
		l1.437,2.122h-0.562l-1.216-1.812l-0.35,0.405v1.407h-0.476v-3.689H31.849z"/>
	<path fill="#FFFFFF" d="M34.739,114.177c0.141,0.092,0.393,0.19,0.636,0.19c0.35,0,0.513-0.175,0.513-0.393
		c0-0.23-0.138-0.356-0.491-0.485c-0.476-0.169-0.7-0.433-0.7-0.749c0-0.427,0.344-0.777,0.915-0.777
		c0.267,0,0.504,0.077,0.651,0.163l-0.12,0.35c-0.104-0.064-0.295-0.154-0.541-0.154c-0.286,0-0.442,0.163-0.442,0.359
		c0,0.218,0.16,0.316,0.504,0.448c0.461,0.175,0.697,0.405,0.697,0.802c0,0.464-0.362,0.792-0.992,0.792
		c-0.289,0-0.559-0.071-0.743-0.181L34.739,114.177z"/>
</g>
<g>
	<path fill="#FFFFFF" d="M29.257,97.463h0.252v0.946h0.009c0.052-0.077,0.104-0.144,0.154-0.209l0.599-0.737h0.313l-0.709,0.832
		l0.765,1.127h-0.298l-0.645-0.961l-0.187,0.215v0.746h-0.252V97.463z"/>
	<path fill="#FFFFFF" d="M30.793,99.161c0.077,0.049,0.209,0.101,0.338,0.101c0.187,0,0.273-0.092,0.273-0.209
		c0-0.123-0.074-0.187-0.261-0.258c-0.252-0.089-0.372-0.23-0.372-0.399c0-0.227,0.184-0.412,0.485-0.412
		c0.141,0,0.267,0.04,0.347,0.086l-0.064,0.187c-0.055-0.034-0.157-0.08-0.289-0.08c-0.15,0-0.236,0.086-0.236,0.19
		c0,0.117,0.083,0.169,0.267,0.24c0.246,0.092,0.369,0.215,0.369,0.424c0,0.246-0.193,0.421-0.525,0.421
		c-0.154,0-0.298-0.037-0.396-0.095L30.793,99.161z"/>
</g>
<path fill="#D52128" d="M98.943,61.824l-0.12,0.381c0,0-0.952-0.129-2.122-0.415c-0.418-0.111-0.848-0.273-1.275-0.43
	c-0.915-0.448-1.235-0.762-0.835-1.471c0,0,0.141-0.332,1.511-1.271c0.442-0.286,1.001-0.596,1.726-0.986l0.279,0.335
	c0,0-0.31,0.421-1.01,1.106c-0.596,0.577-1.29,1.213-1.29,1.213L98.943,61.824z"/>
<g>
	<g>
		<path fill="#253874" d="M102.251,58.98c0,0-0.009-0.344-0.037-0.848c-0.043-0.826-0.147-2.079-0.479-2.927
			c-0.135-0.258-0.295-0.381-0.461-0.455c-0.034-0.021-0.074-0.034-0.111-0.049c-0.04-0.009-0.077-0.021-0.117-0.025
			c-0.178-0.034-0.378-0.025-0.639,0.111c-0.756,0.507-1.554,1.477-2.061,2.131c-0.31,0.399-0.513,0.676-0.513,0.676l-0.154,0.123
			l0.286,0.43l0.203-0.2l2.595-1.963l1.014,3.093l0.055,0.279l0.473-0.193L102.251,58.98z"/>
	</g>
</g>
<path fill="#009649" d="M98.937,61.821l-0.12,0.381c0,0,0.857,0.433,1.984,0.869c0.433,0.169,0.872,0.276,1.293,0.372
	c1.01,0.154,1.45,0.077,1.526-0.731c0,0,0.071-0.353-0.519-1.904c-0.2-0.485-0.421-0.912-0.795-1.649l-0.476,0.19
	c0,0,0.009,0.301,0.193,1.262c0.163,0.814,0.356,1.726,0.356,1.726L98.937,61.821z"/>
<path fill="#D52128" d="M110.955,59.862c0.16-0.181,0.307-0.35,0.458-0.519c0.221-0.249,0.433-0.507,0.663-0.743
	c0.175-0.181,0.39-0.301,0.657-0.276c0.393,0.034,0.657,0.276,0.737,0.709c0.058,0.31,0.086,0.627,0.117,0.943
	c0.2,1.935,0.396,3.87,0.596,5.802c0.021,0.215,0.028,0.43-0.028,0.639c-0.089,0.326-0.353,0.525-0.728,0.55
	c-0.332,0.021-0.608-0.141-0.728-0.451c-0.058-0.154-0.104-0.322-0.123-0.485c-0.123-1.13-0.233-2.263-0.35-3.394
	c-0.049-0.485-0.101-0.971-0.154-1.453c-0.003-0.028-0.009-0.055-0.012-0.092c-0.074,0.086-0.144,0.166-0.212,0.246
	c-0.209,0.243-0.418,0.485-0.623,0.731c-0.025,0.031-0.043,0.083-0.04,0.123c0.089,0.915,0.184,1.83,0.276,2.746
	c0.021,0.209,0.028,0.418-0.028,0.62c-0.089,0.335-0.353,0.537-0.728,0.562c-0.338,0.021-0.611-0.141-0.731-0.458
	c-0.058-0.154-0.098-0.316-0.12-0.476c-0.052-0.405-0.086-0.817-0.129-1.222c-0.003-0.04-0.009-0.077-0.015-0.138
	c-0.144,0.166-0.27,0.316-0.402,0.467c-0.218,0.249-0.43,0.507-0.663,0.743c-0.181,0.181-0.396,0.31-0.673,0.276
	c-0.584-0.071-0.891-0.7-0.58-1.219c0.101-0.169,0.23-0.326,0.356-0.476c0.556-0.657,1.118-1.308,1.677-1.966
	c0.025-0.031,0.049-0.077,0.046-0.114c-0.037-0.415-0.08-0.829-0.123-1.241c0-0.015-0.006-0.028-0.012-0.052
	c-0.246,0.286-0.482,0.568-0.725,0.848c-0.838,0.977-1.677,1.953-2.515,2.924c-0.163,0.19-0.347,0.362-0.599,0.424
	c-0.326,0.08-0.584-0.055-0.786-0.304c-0.203-0.252-0.224-0.531-0.08-0.823c0.141-0.289,0.369-0.513,0.574-0.756
	c1.072-1.256,2.144-2.509,3.216-3.762c0.258-0.301,0.519-0.602,0.783-0.9c0.16-0.178,0.335-0.338,0.571-0.402
	c0.387-0.104,0.78,0.12,0.924,0.513c0.098,0.273,0.104,0.562,0.138,0.845c0.037,0.313,0.071,0.63,0.104,0.943
	C110.946,59.81,110.949,59.828,110.955,59.862z"/>
<path fill="#253874" d="M121.072,62.135c0.169-0.077,0.286-0.212,0.344-0.405c0.061-0.193,0.043-0.372-0.049-0.531
	c-0.095-0.16-0.276-0.283-0.544-0.369l-4.917-1.539c-0.255-0.08-0.47-0.083-0.639-0.009c-0.172,0.074-0.289,0.212-0.35,0.412
	c-0.061,0.193-0.046,0.369,0.049,0.528c0.092,0.16,0.27,0.279,0.537,0.362l1.698,0.531l-1.723,5.504
	c-0.101,0.319-0.101,0.584-0.006,0.786c0.095,0.203,0.258,0.341,0.488,0.415c0.227,0.071,0.402,0.04,0.593-0.071
	c0.193-0.111,0.338-0.329,0.439-0.654l1.723-5.504l1.698,0.531C120.685,62.208,120.903,62.211,121.072,62.135z"/>
<path fill="#009649" d="M124.745,70.507c0.316,0.055,0.608,0.071,0.872,0.043c0.427-0.049,0.805-0.212,1.133-0.488
	c0.329-0.276,0.562-0.633,0.697-1.066c0.292-0.937-0.015-1.726-0.924-2.365c0.881-0.12,1.443-0.565,1.686-1.339
	c0.071-0.224,0.101-0.451,0.092-0.676c-0.009-0.224-0.058-0.442-0.147-0.654s-0.206-0.399-0.353-0.565
	c-0.172-0.197-0.387-0.359-0.642-0.491c-0.255-0.129-0.565-0.252-0.934-0.369l-2.509-0.786c-0.332-0.104-0.596-0.104-0.792,0
	c-0.197,0.104-0.347,0.326-0.455,0.666l-1.821,5.82c-0.104,0.335-0.107,0.602-0.012,0.799c0.098,0.2,0.316,0.35,0.654,0.458
	l2.368,0.74C124.066,70.362,124.429,70.452,124.745,70.507z M125.761,67.408c0.218,0.261,0.264,0.587,0.144,0.98
	c-0.24,0.765-0.885,0.983-1.938,0.651l-1.674-0.522l0.706-2.26l1.622,0.507C125.166,66.929,125.543,67.147,125.761,67.408z
	 M125.242,63.523c0.565,0.178,0.967,0.375,1.204,0.59c0.236,0.215,0.292,0.519,0.172,0.909c-0.058,0.184-0.154,0.335-0.286,0.455
	c-0.178,0.172-0.384,0.264-0.617,0.27c-0.233,0.009-0.547-0.049-0.934-0.172l-1.428-0.445l0.627-2.002L125.242,63.523z"/>
<g>
	<g>
		<path fill="#253874" d="M94.972,62.543l-0.086-0.028c-0.052-0.015-0.089-0.025-0.117-0.021c-0.028,0.003-0.049,0.012-0.068,0.034
			c-0.018,0.021-0.043,0.055-0.074,0.104l-0.427,0.673l0.031-0.799c0.003-0.058,0.003-0.101-0.003-0.129
			c-0.003-0.028-0.015-0.049-0.037-0.064s-0.055-0.034-0.107-0.049l-0.086-0.028c-0.052-0.015-0.098-0.018-0.135-0.009
			c-0.037,0.012-0.064,0.046-0.083,0.104l-0.332,1.063c-0.015,0.052-0.015,0.095,0,0.126c0.015,0.034,0.043,0.055,0.08,0.068
			c0.04,0.012,0.074,0.009,0.104-0.009c0.031-0.018,0.055-0.052,0.071-0.104l0.289-0.928l-0.049,0.924
			c0,0.031-0.003,0.058-0.003,0.089c0,0.028,0,0.055,0.006,0.08c0.006,0.025,0.018,0.049,0.037,0.068
			c0.018,0.021,0.043,0.037,0.077,0.046c0.043,0.012,0.08,0.012,0.111,0c0.031-0.012,0.055-0.031,0.071-0.055
			c0.018-0.025,0.04-0.061,0.074-0.111l0.485-0.786l-0.289,0.928c-0.015,0.052-0.015,0.092,0,0.126
			c0.015,0.034,0.04,0.055,0.077,0.068c0.04,0.012,0.074,0.009,0.104-0.009c0.031-0.018,0.055-0.052,0.071-0.104l0.332-1.063
			c0.018-0.058,0.015-0.104-0.009-0.132C95.065,62.58,95.025,62.558,94.972,62.543z M96.787,63.084
			c-0.021-0.006-0.043-0.009-0.061-0.006c-0.018,0.003-0.037,0.009-0.052,0.021c-0.018,0.012-0.034,0.025-0.049,0.037
			c-0.015,0.012-0.037,0.031-0.058,0.052l-0.384,0.326l-0.126-0.488c-0.018-0.074-0.037-0.126-0.049-0.154
			c-0.012-0.028-0.04-0.046-0.077-0.058c-0.037-0.012-0.071-0.009-0.101,0.006c-0.031,0.015-0.052,0.037-0.061,0.068
			c-0.006,0.018-0.006,0.043-0.003,0.074c0.003,0.031,0.012,0.071,0.028,0.126l0.175,0.611l-0.132,0.427
			c-0.018,0.055-0.018,0.101,0,0.138c0.018,0.037,0.046,0.058,0.086,0.071c0.04,0.012,0.077,0.009,0.114-0.009
			c0.034-0.018,0.061-0.055,0.077-0.111l0.132-0.427l0.504-0.408c0.043-0.034,0.071-0.058,0.092-0.08
			c0.018-0.021,0.034-0.043,0.04-0.064c0.009-0.031,0.006-0.058-0.009-0.089C96.849,63.114,96.821,63.096,96.787,63.084z
			 M98.256,63.707c-0.003-0.031-0.009-0.058-0.018-0.086c-0.009-0.028-0.025-0.052-0.046-0.074c-0.021-0.021-0.052-0.04-0.089-0.052
			c-0.037-0.012-0.071-0.015-0.101-0.009c-0.031,0.006-0.055,0.018-0.08,0.037c-0.025,0.018-0.046,0.043-0.071,0.074
			s-0.046,0.058-0.064,0.08l-0.62,0.762c-0.025,0.031-0.043,0.055-0.055,0.071s-0.021,0.037-0.028,0.055
			c-0.009,0.031-0.006,0.064,0.012,0.098c0.018,0.034,0.046,0.055,0.08,0.068c0.04,0.012,0.074,0.009,0.098-0.009
			c0.025-0.018,0.061-0.055,0.107-0.117l0.12-0.15l0.553,0.172l0.012,0.187c0.003,0.025,0.006,0.049,0.009,0.083
			c0.003,0.034,0.009,0.055,0.015,0.071c0.006,0.015,0.015,0.031,0.031,0.043c0.012,0.012,0.031,0.021,0.052,0.028
			c0.037,0.012,0.074,0.009,0.107-0.009c0.034-0.018,0.055-0.043,0.068-0.074c0.009-0.031,0.009-0.083,0.003-0.157l-0.086-0.977
			C98.262,63.775,98.259,63.738,98.256,63.707z M97.638,64.272l0.375-0.491l0.031,0.617L97.638,64.272z M100.332,64.235
			c-0.031,0.018-0.055,0.055-0.071,0.107l-0.249,0.799l-0.283-0.958c-0.006-0.028-0.015-0.055-0.021-0.08s-0.015-0.046-0.025-0.064
			c-0.009-0.018-0.021-0.034-0.037-0.046c-0.015-0.012-0.034-0.025-0.058-0.031c-0.031-0.009-0.064-0.009-0.095-0.003
			c-0.034,0.009-0.058,0.025-0.08,0.049c-0.018,0.021-0.034,0.055-0.046,0.098l-0.322,1.035c-0.015,0.052-0.015,0.092,0,0.126
			s0.043,0.058,0.08,0.071c0.037,0.012,0.074,0.009,0.104-0.009c0.034-0.018,0.055-0.055,0.074-0.104l0.246-0.786l0.273,0.943
			c0.009,0.025,0.015,0.052,0.025,0.077s0.018,0.049,0.031,0.068c0.012,0.021,0.028,0.037,0.046,0.052
			c0.018,0.012,0.04,0.025,0.064,0.031c0.098,0.031,0.166-0.012,0.203-0.129l0.332-1.057c0.015-0.052,0.015-0.095,0.003-0.129
			c-0.015-0.034-0.043-0.055-0.083-0.068C100.396,64.214,100.362,64.217,100.332,64.235z M102.463,64.886l-0.086-0.028
			c-0.052-0.015-0.089-0.025-0.117-0.021c-0.028,0.003-0.049,0.012-0.068,0.034c-0.018,0.021-0.043,0.055-0.074,0.104l-0.427,0.673
			l0.031-0.795c0.003-0.058,0.003-0.101-0.003-0.129c-0.003-0.028-0.015-0.049-0.037-0.064c-0.021-0.015-0.055-0.034-0.107-0.049
			l-0.086-0.028c-0.052-0.015-0.098-0.018-0.135-0.009c-0.037,0.009-0.064,0.046-0.083,0.104l-0.332,1.063
			c-0.015,0.052-0.015,0.095,0,0.126c0.015,0.034,0.043,0.055,0.08,0.068c0.04,0.012,0.074,0.009,0.104-0.009
			c0.031-0.018,0.055-0.052,0.071-0.104l0.289-0.928l-0.049,0.924c0,0.031-0.003,0.058-0.003,0.089c0,0.028,0,0.055,0.006,0.08
			c0.006,0.025,0.018,0.049,0.037,0.068c0.018,0.018,0.043,0.037,0.077,0.046c0.043,0.012,0.08,0.012,0.111,0
			c0.031-0.015,0.055-0.031,0.071-0.055c0.018-0.025,0.04-0.061,0.074-0.111l0.485-0.786l-0.289,0.928
			c-0.015,0.052-0.015,0.092,0,0.126c0.015,0.034,0.04,0.055,0.077,0.068c0.04,0.012,0.074,0.009,0.104-0.009
			c0.031-0.018,0.055-0.052,0.071-0.104l0.332-1.063c0.018-0.058,0.015-0.104-0.009-0.132
			C102.552,64.933,102.515,64.902,102.463,64.886z M104.155,65.553c-0.003-0.031-0.009-0.058-0.018-0.086
			c-0.009-0.028-0.025-0.052-0.046-0.074s-0.052-0.04-0.089-0.052s-0.071-0.015-0.101-0.009c-0.031,0.006-0.055,0.018-0.08,0.037
			c-0.021,0.018-0.046,0.043-0.071,0.074c-0.025,0.031-0.046,0.058-0.064,0.08l-0.62,0.762c-0.025,0.031-0.043,0.055-0.055,0.071
			c-0.012,0.018-0.021,0.037-0.028,0.055c-0.009,0.031-0.006,0.064,0.012,0.098c0.018,0.034,0.046,0.055,0.08,0.068
			c0.04,0.012,0.074,0.009,0.098-0.009c0.025-0.018,0.061-0.055,0.107-0.117l0.12-0.15l0.553,0.172l0.012,0.187
			c0.003,0.025,0.006,0.049,0.009,0.083c0.003,0.031,0.009,0.055,0.015,0.071c0.006,0.015,0.015,0.031,0.031,0.043
			c0.012,0.012,0.031,0.021,0.052,0.028c0.037,0.012,0.074,0.009,0.107-0.009c0.034-0.018,0.055-0.043,0.068-0.074
			c0.009-0.031,0.009-0.083,0.003-0.157l-0.086-0.977C104.162,65.624,104.158,65.584,104.155,65.553z M103.538,66.118l0.375-0.491
			l0.031,0.617L103.538,66.118z M106.919,66.281l-0.878-0.273c-0.046-0.015-0.083-0.015-0.114-0.003
			c-0.031,0.012-0.049,0.037-0.061,0.071c-0.009,0.034-0.006,0.064,0.009,0.092c0.015,0.028,0.049,0.049,0.095,0.064l0.301,0.095
			l-0.304,0.974c-0.018,0.055-0.018,0.101,0,0.135c0.018,0.037,0.046,0.058,0.086,0.074c0.04,0.012,0.077,0.009,0.111-0.009
			c0.034-0.018,0.058-0.055,0.077-0.114l0.304-0.974l0.301,0.095c0.046,0.015,0.086,0.015,0.117,0.003
			c0.031-0.012,0.049-0.037,0.061-0.071c0.012-0.034,0.006-0.064-0.009-0.092C106.999,66.318,106.969,66.296,106.919,66.281z
			 M108.308,66.689c-0.104-0.034-0.203-0.046-0.295-0.04c-0.092,0.006-0.175,0.031-0.252,0.074s-0.141,0.101-0.2,0.178
			c-0.058,0.077-0.101,0.166-0.135,0.27c-0.031,0.101-0.046,0.2-0.046,0.295s0.021,0.184,0.058,0.261
			c0.037,0.08,0.092,0.15,0.166,0.209c0.074,0.061,0.163,0.107,0.27,0.141s0.209,0.046,0.301,0.04s0.178-0.034,0.255-0.077
			c0.077-0.043,0.141-0.104,0.197-0.181c0.055-0.077,0.098-0.166,0.132-0.27c0.043-0.141,0.055-0.27,0.037-0.39
			c-0.018-0.12-0.071-0.224-0.154-0.313S108.449,66.732,108.308,66.689z M108.483,67.5c-0.034,0.107-0.08,0.19-0.135,0.252
			c-0.058,0.061-0.123,0.101-0.19,0.117c-0.071,0.015-0.141,0.012-0.212-0.009c-0.055-0.018-0.101-0.043-0.141-0.077
			c-0.04-0.034-0.071-0.077-0.095-0.129c-0.025-0.052-0.034-0.111-0.034-0.178s0.012-0.141,0.037-0.215
			c0.025-0.077,0.055-0.141,0.092-0.197c0.04-0.055,0.08-0.095,0.126-0.126c0.046-0.031,0.095-0.046,0.147-0.052
			c0.052-0.006,0.107,0,0.163,0.018c0.077,0.025,0.141,0.064,0.187,0.12c0.049,0.055,0.077,0.126,0.086,0.206
			C108.526,67.313,108.513,67.402,108.483,67.5z M110.623,67.457c-0.034,0.018-0.058,0.058-0.077,0.114l-0.209,0.666
			c-0.037,0.114-0.086,0.193-0.147,0.236c-0.061,0.043-0.147,0.046-0.255,0.012c-0.077-0.025-0.135-0.058-0.169-0.098
			c-0.034-0.04-0.052-0.089-0.055-0.144s0.009-0.12,0.034-0.197l0.206-0.66c0.018-0.055,0.018-0.101,0-0.135
			c-0.018-0.034-0.046-0.058-0.089-0.074c-0.04-0.012-0.077-0.009-0.111,0.009c-0.034,0.018-0.058,0.055-0.077,0.111l-0.203,0.645
			c-0.031,0.101-0.049,0.193-0.049,0.273c0,0.08,0.015,0.15,0.049,0.212c0.034,0.061,0.083,0.117,0.154,0.163
			c0.068,0.046,0.154,0.086,0.261,0.117c0.089,0.028,0.169,0.04,0.24,0.04s0.141-0.015,0.203-0.046
			c0.074-0.034,0.132-0.086,0.175-0.147c0.043-0.061,0.08-0.147,0.114-0.252l0.203-0.645c0.018-0.055,0.018-0.101,0-0.135
			c-0.018-0.034-0.046-0.058-0.089-0.071S110.657,67.439,110.623,67.457z M112.561,68.087c-0.031-0.028-0.068-0.049-0.107-0.068
			c-0.04-0.018-0.095-0.037-0.157-0.058l-0.448-0.141c-0.058-0.018-0.107-0.018-0.141,0c-0.034,0.018-0.061,0.055-0.08,0.114
			l-0.322,1.032c-0.018,0.055-0.018,0.098-0.003,0.135s0.046,0.061,0.089,0.074c0.04,0.012,0.077,0.009,0.111-0.009
			c0.034-0.018,0.058-0.055,0.077-0.114l0.135-0.43l0.095,0.031c0.049,0.015,0.089,0.034,0.117,0.058
			c0.028,0.025,0.052,0.055,0.074,0.101c0.021,0.046,0.04,0.107,0.058,0.184l0.055,0.215c0.012,0.052,0.025,0.089,0.031,0.117
			c0.009,0.028,0.021,0.049,0.037,0.071s0.04,0.037,0.071,0.046c0.025,0.009,0.049,0.009,0.074,0.006
			c0.021-0.003,0.043-0.012,0.058-0.028c0.015-0.012,0.028-0.031,0.034-0.046c0.006-0.018,0.006-0.052,0-0.104
			c-0.006-0.052-0.015-0.111-0.034-0.178c-0.018-0.068-0.04-0.132-0.071-0.197c-0.028-0.064-0.064-0.117-0.104-0.157
			c0.123,0.012,0.224-0.003,0.301-0.046c0.077-0.043,0.129-0.114,0.16-0.212c0.015-0.049,0.021-0.098,0.018-0.147
			c-0.003-0.049-0.015-0.095-0.04-0.138C112.629,68.157,112.598,68.12,112.561,68.087z M112.386,68.415
			c-0.015,0.049-0.04,0.08-0.071,0.101c-0.034,0.018-0.074,0.028-0.123,0.025c-0.049-0.003-0.107-0.015-0.172-0.037l-0.249-0.077
			l0.117-0.369l0.255,0.08c0.095,0.031,0.157,0.055,0.184,0.08c0.031,0.025,0.049,0.055,0.061,0.089
			C112.399,68.342,112.399,68.378,112.386,68.415z M113.606,68.391c-0.034,0.018-0.058,0.055-0.077,0.111l-0.332,1.057
			c-0.018,0.055-0.018,0.101,0,0.135c0.015,0.037,0.046,0.058,0.086,0.074c0.04,0.012,0.08,0.009,0.114-0.009
			c0.034-0.018,0.061-0.055,0.077-0.114l0.332-1.057c0.018-0.055,0.018-0.101,0-0.135c-0.018-0.034-0.046-0.058-0.089-0.074
			C113.676,68.369,113.639,68.372,113.606,68.391z M115.375,68.934c-0.055-0.04-0.123-0.074-0.209-0.098
			c-0.104-0.034-0.2-0.046-0.289-0.04c-0.089,0.006-0.16,0.031-0.218,0.077c-0.058,0.043-0.101,0.104-0.123,0.178
			c-0.025,0.077-0.025,0.147-0.003,0.212c0.021,0.064,0.061,0.123,0.12,0.172c0.055,0.052,0.129,0.104,0.221,0.157
			c0.068,0.04,0.123,0.074,0.16,0.101c0.04,0.028,0.068,0.061,0.086,0.098c0.018,0.037,0.021,0.077,0.006,0.123
			c-0.018,0.055-0.058,0.095-0.12,0.117c-0.061,0.021-0.135,0.018-0.218-0.006c-0.058-0.018-0.104-0.043-0.135-0.074
			c-0.031-0.031-0.052-0.061-0.061-0.098c-0.012-0.034-0.018-0.077-0.021-0.126c-0.003-0.04-0.012-0.074-0.025-0.098
			c-0.015-0.025-0.037-0.04-0.064-0.049c-0.037-0.012-0.068-0.009-0.098,0.006c-0.031,0.015-0.052,0.04-0.061,0.074
			c-0.018,0.055-0.015,0.12,0.003,0.193c0.018,0.074,0.055,0.135,0.104,0.19c0.071,0.077,0.175,0.138,0.31,0.178
			c0.111,0.034,0.215,0.046,0.307,0.037c0.092-0.012,0.172-0.043,0.233-0.092c0.061-0.052,0.107-0.117,0.132-0.2
			c0.021-0.068,0.028-0.129,0.018-0.184s-0.031-0.104-0.064-0.147c-0.034-0.043-0.08-0.086-0.135-0.129
			c-0.055-0.04-0.12-0.083-0.19-0.123c-0.055-0.034-0.098-0.058-0.12-0.077c-0.025-0.015-0.046-0.037-0.068-0.058
			c-0.021-0.021-0.037-0.046-0.046-0.071s-0.009-0.049,0-0.077c0.012-0.043,0.046-0.074,0.101-0.092
			c0.052-0.018,0.117-0.015,0.187,0.009c0.077,0.025,0.129,0.055,0.154,0.095c0.025,0.04,0.043,0.089,0.052,0.147
			c0.009,0.04,0.018,0.074,0.031,0.092c0.012,0.021,0.034,0.037,0.064,0.046c0.034,0.009,0.068,0.006,0.098-0.012
			c0.031-0.018,0.052-0.043,0.061-0.077c0.012-0.037,0.012-0.074,0.006-0.117c-0.006-0.043-0.025-0.089-0.055-0.135
			C115.476,69.011,115.43,68.974,115.375,68.934z M117.62,69.628l-0.086-0.028c-0.052-0.015-0.089-0.025-0.117-0.021
			c-0.028,0.003-0.049,0.012-0.068,0.034c-0.018,0.021-0.043,0.055-0.074,0.104l-0.427,0.673l0.031-0.799
			c0.003-0.058,0.003-0.101-0.003-0.129c-0.003-0.028-0.015-0.049-0.037-0.064c-0.021-0.015-0.055-0.034-0.107-0.049l-0.086-0.028
			c-0.052-0.015-0.098-0.018-0.135-0.009c-0.037,0.012-0.064,0.046-0.083,0.104l-0.332,1.063c-0.015,0.052-0.015,0.095,0,0.126
			c0.015,0.034,0.043,0.055,0.08,0.068c0.04,0.012,0.074,0.009,0.104-0.009c0.031-0.018,0.055-0.052,0.071-0.104l0.289-0.928
			l-0.049,0.924c0,0.031-0.003,0.058-0.003,0.089c0,0.028,0,0.055,0.006,0.08s0.018,0.049,0.037,0.068
			c0.018,0.021,0.043,0.037,0.074,0.046c0.043,0.012,0.08,0.012,0.111,0s0.055-0.031,0.071-0.055
			c0.018-0.025,0.04-0.061,0.074-0.111l0.485-0.786l-0.289,0.928c-0.015,0.052-0.015,0.092,0,0.126
			c0.015,0.034,0.043,0.055,0.077,0.068c0.04,0.012,0.074,0.009,0.104-0.009c0.031-0.018,0.055-0.052,0.071-0.104l0.332-1.063
			c0.018-0.058,0.015-0.104-0.009-0.132C117.706,69.671,117.675,69.644,117.62,69.628z M120.427,70.568
			c-0.031-0.034-0.068-0.064-0.114-0.086s-0.101-0.043-0.166-0.064l-0.442-0.138c-0.058-0.018-0.104-0.018-0.141,0
			c-0.037,0.018-0.061,0.055-0.08,0.117l-0.316,1.007c-0.018,0.058-0.018,0.104,0,0.138c0.018,0.034,0.055,0.061,0.117,0.08
			l0.415,0.129c0.071,0.021,0.135,0.04,0.19,0.049c0.055,0.009,0.107,0.012,0.154,0.009c0.074-0.009,0.141-0.037,0.2-0.083
			c0.058-0.049,0.098-0.111,0.123-0.184c0.052-0.163-0.003-0.301-0.166-0.412c0.157-0.018,0.255-0.095,0.298-0.23
			c0.012-0.04,0.018-0.077,0.015-0.117c-0.003-0.04-0.012-0.077-0.028-0.114C120.473,70.63,120.454,70.599,120.427,70.568z
			 M119.754,71.545l-0.295-0.092l0.123-0.393l0.286,0.089c0.095,0.031,0.163,0.068,0.203,0.114c0.04,0.046,0.049,0.101,0.028,0.169
			C120.055,71.566,119.941,71.603,119.754,71.545z M120.169,70.928c-0.031,0.031-0.068,0.046-0.107,0.046
			c-0.04,0-0.095-0.009-0.166-0.031l-0.252-0.08l0.107-0.347l0.224,0.074c0.101,0.031,0.172,0.064,0.215,0.104
			c0.043,0.037,0.052,0.089,0.031,0.157C120.209,70.882,120.193,70.909,120.169,70.928z M122.073,71.161
			c-0.003-0.031-0.009-0.058-0.018-0.086c-0.009-0.028-0.025-0.052-0.046-0.074s-0.052-0.04-0.089-0.052s-0.071-0.015-0.101-0.009
			c-0.031,0.006-0.058,0.018-0.08,0.037c-0.025,0.018-0.046,0.043-0.071,0.074c-0.025,0.031-0.046,0.058-0.064,0.08l-0.62,0.762
			c-0.025,0.031-0.043,0.055-0.055,0.071c-0.012,0.018-0.021,0.037-0.028,0.055c-0.009,0.031-0.006,0.064,0.012,0.098
			c0.018,0.034,0.046,0.055,0.08,0.068c0.04,0.012,0.074,0.009,0.098-0.009c0.025-0.018,0.061-0.055,0.107-0.117l0.12-0.15
			l0.553,0.172l0.012,0.187c0.003,0.025,0.006,0.052,0.009,0.083c0.003,0.031,0.009,0.055,0.015,0.071
			c0.006,0.015,0.015,0.031,0.031,0.043c0.012,0.012,0.031,0.021,0.052,0.028c0.037,0.012,0.074,0.009,0.107-0.009
			c0.034-0.018,0.055-0.043,0.068-0.074c0.009-0.031,0.009-0.083,0.003-0.157l-0.086-0.977
			C122.079,71.229,122.076,71.189,122.073,71.161z M121.456,71.726l0.375-0.491l0.031,0.617L121.456,71.726z M124.146,71.686
			c-0.031,0.018-0.055,0.055-0.071,0.107l-0.249,0.799l-0.283-0.958c-0.009-0.028-0.015-0.055-0.021-0.08
			c-0.006-0.025-0.015-0.046-0.025-0.064c-0.009-0.018-0.021-0.034-0.037-0.046s-0.034-0.025-0.058-0.031
			c-0.031-0.009-0.064-0.009-0.095,0c-0.034,0.009-0.058,0.025-0.08,0.049c-0.018,0.021-0.034,0.055-0.046,0.098l-0.322,1.035
			c-0.015,0.052-0.015,0.092,0,0.126s0.043,0.058,0.08,0.071c0.037,0.012,0.074,0.009,0.104-0.009
			c0.031-0.018,0.055-0.052,0.074-0.104l0.246-0.786l0.273,0.943c0.009,0.025,0.015,0.052,0.025,0.077s0.018,0.049,0.031,0.068
			c0.012,0.018,0.028,0.037,0.046,0.052c0.018,0.012,0.04,0.025,0.064,0.031c0.098,0.031,0.166-0.012,0.203-0.129l0.329-1.057
			c0.015-0.052,0.018-0.095,0.003-0.126c-0.015-0.034-0.043-0.055-0.083-0.068C124.214,71.665,124.177,71.668,124.146,71.686z
			 M126.287,72.445c0.009-0.034,0.006-0.064-0.009-0.095c-0.015-0.031-0.046-0.052-0.086-0.064c-0.031-0.009-0.055-0.009-0.08-0.003
			c-0.025,0.006-0.049,0.021-0.086,0.04l-0.716,0.387l0.147-0.47c0.018-0.055,0.018-0.101,0-0.135
			c-0.018-0.034-0.046-0.058-0.089-0.074c-0.043-0.012-0.08-0.009-0.114,0.009c-0.034,0.018-0.058,0.058-0.077,0.111l-0.313,0.998
			c-0.012,0.043-0.021,0.077-0.028,0.098c-0.006,0.025-0.006,0.046-0.003,0.064c0.006,0.025,0.015,0.046,0.034,0.064
			c0.018,0.018,0.04,0.031,0.061,0.04c0.04,0.012,0.08,0.009,0.114-0.009c0.034-0.018,0.061-0.055,0.077-0.114l0.086-0.276
			l0.292-0.141l0.172,0.596c0.006,0.025,0.012,0.055,0.021,0.086c0.009,0.031,0.021,0.061,0.04,0.083
			c0.018,0.025,0.049,0.043,0.086,0.052c0.04,0.012,0.077,0.012,0.107-0.003c0.031-0.015,0.052-0.037,0.061-0.068
			c0.009-0.028,0.009-0.055,0.006-0.089c-0.006-0.034-0.015-0.071-0.031-0.12l-0.215-0.666l0.433-0.209
			C126.241,72.515,126.274,72.485,126.287,72.445z"/>
	</g>
</g>
</svg>
