<?xml version="1.0" encoding="utf-8"?>
<!-- Generator: Adobe Illustrator 16.0.0, SVG Export Plug-In . SVG Version: 6.00 Build 0)  -->
<!DOCTYPE svg PUBLIC "-//W3C//DTD SVG 1.1//EN" "http://www.w3.org/Graphics/SVG/1.1/DTD/svg11.dtd">
<svg version="1.1" id="Layer_1" xmlns="http://www.w3.org/2000/svg" xmlns:xlink="http://www.w3.org/1999/xlink" x="0px" y="0px"
	 width="595.279px" height="841.891px" viewBox="0 0 595.279 841.891" enable-background="new 0 0 595.279 841.891"
	 xml:space="preserve">
<g id="Layer_1_1_">
	<g id="XMLID_882_">
		<g id="XMLID_920_">
			<path id="XMLID_887_" fill="#ABE0F9" d="M465.063,345.605c0,6.511-5.581,12.091-12.092,12.091s-12.092-5.581-12.092-12.091
				s5.581-12.092,12.092-12.092C460.411,333.513,465.063,339.094,465.063,345.605z"/>
		</g>
		<g id="XMLID_919_">
			<path id="XMLID_892_" fill="#ABE0F9" d="M371.119,155.859c0,7.441-6.511,13.952-13.951,13.952
				c-7.441,0-13.952-6.511-13.952-13.952s6.511-13.952,13.952-13.952C365.539,141.907,371.119,148.418,371.119,155.859z"/>
		</g>
		<g id="XMLID_63_">
			<circle id="XMLID_893_" fill="#ABE0F9" cx="473.434" cy="193.994" r="15.812"/>
		</g>
		<g id="XMLID_917_">
			<path id="XMLID_894_" fill="#ABE0F9" d="M568.307,284.217c0,13.021-10.231,23.253-23.254,23.253
				c-13.021,0-23.253-10.231-23.253-23.253c0-13.022,10.231-23.253,23.253-23.253C558.075,260.033,568.307,271.195,568.307,284.217z
				"/>
		</g>
		<g id="XMLID_885_">
			<g id="XMLID_895_">
				<path id="XMLID_896_" fill="#FFFFFF" d="M137.658,208.876L37.205,309.33v351.587c0,15.813,13.021,28.834,28.834,28.834h300.43
					c15.813,0,28.834-13.021,28.834-28.834V237.71c0-15.812-13.021-28.834-28.834-28.834H137.658z"/>
			</g>
			<g id="XMLID_897_">
				<polygon fill="#FFFFFF" points="137.658,309.33 137.658,208.876 37.205,309.33 				"/>
			</g>
			<g id="XMLID_62_">
				<path id="XMLID_1532_" fill="#0D3178" d="M128.358,319.562H37.205v-21.393h90.222l-0.93-90.222h22.322v90.222
					C148.82,310.26,139.519,319.562,128.358,319.562z"/>
			</g>
			<g id="XMLID_61_">
				<path id="XMLID_1531_" fill="#0D3178" d="M263.226,699.982H65.109c-21.393,0-38.135-16.742-38.135-38.135V304.679
					l106.964-106.964h234.392c21.393,0,38.135,16.742,38.135,38.135v133.938h-21.393V235.85c0-9.301-7.44-16.742-16.742-16.742
					H142.309L48.366,313.98v347.867c0,9.301,7.441,16.742,16.742,16.742h198.117V699.982z"/>
			</g>
			<g id="XMLID_58_">
				<rect id="XMLID_1528_" x="85.572" y="446.059" fill="#0D3178" width="193.466" height="21.393"/>
			</g>
			<g id="XMLID_57_">
				<rect id="XMLID_1527_" x="85.572" y="503.727" fill="#0D3178" width="193.466" height="21.393"/>
			</g>
			<g id="XMLID_56_">
				<rect id="XMLID_1526_" x="85.572" y="560.464" fill="#0D3178" width="193.466" height="21.393"/>
			</g>
			<g id="XMLID_925_">
				<rect id="XMLID_1525_" x="85.572" y="617.201" fill="#0D3178" width="193.466" height="21.394"/>
			</g>
			<g id="XMLID_41_">
				<g id="XMLID_55_">
					<path id="XMLID_2175_" fill="#FFFFFF" d="M526.45,689.751H316.242c-8.371,0-15.812-7.44-15.812-15.812V409.783
						c0-8.371,7.44-15.812,15.812-15.812H526.45c8.371,0,15.813,7.441,15.813,15.812v264.156
						C542.263,682.311,534.822,689.751,526.45,689.751z"/>
				</g>
				<g id="XMLID_926_">
					<path id="XMLID_1522_" fill="#0D3178" d="M526.45,699.982H289.269V409.783c0-14.882,12.092-26.043,26.044-26.043h210.208
						c14.882,0,26.043,12.091,26.043,26.043v264.156C552.494,687.891,540.403,699.982,526.45,699.982z M310.661,678.59H526.45
						c2.791,0,4.651-1.86,4.651-4.65V409.783c0-2.79-1.86-4.65-4.651-4.65H316.242c-2.79,0-4.65,1.86-4.65,4.65V678.59H310.661z"/>
				</g>
				<g id="XMLID_928_">
					<rect x="346.006" y="440.478" fill="#ABE0F9" width="149.751" height="51.157"/>
				</g>
				<g id="XMLID_52_">
					<g id="XMLID_930_">
						<rect id="XMLID_1521_" x="346.006" y="533.49" fill="#0D3178" width="22.323" height="21.393"/>
					</g>
					<g id="XMLID_929_">
						<rect id="XMLID_1520_" x="388.792" y="533.49" fill="#0D3178" width="22.323" height="21.393"/>
					</g>
					<g id="XMLID_54_">
						<rect id="XMLID_1519_" x="430.648" y="533.49" fill="#0D3178" width="22.323" height="21.393"/>
					</g>
					<g id="XMLID_53_">
						<rect id="XMLID_1518_" x="473.434" y="533.49" fill="#0D3178" width="22.323" height="21.393"/>
					</g>
				</g>
				<g id="XMLID_47_">
					<g id="XMLID_51_">
						<rect id="XMLID_1517_" x="346.006" y="573.485" fill="#0D3178" width="22.323" height="21.394"/>
					</g>
					<g id="XMLID_50_">
						<rect id="XMLID_1516_" x="388.792" y="573.485" fill="#0D3178" width="22.323" height="21.394"/>
					</g>
					<g id="XMLID_49_">
						<rect id="XMLID_1515_" x="430.648" y="573.485" fill="#0D3178" width="22.323" height="21.394"/>
					</g>
					<g id="XMLID_48_">
						<rect id="XMLID_1514_" x="473.434" y="573.485" fill="#0D3178" width="22.323" height="21.394"/>
					</g>
				</g>
				<g id="XMLID_42_">
					<g id="XMLID_46_">
						<rect id="XMLID_1513_" x="346.006" y="613.481" fill="#0D3178" width="22.323" height="21.393"/>
					</g>
					<g id="XMLID_45_">
						<rect id="XMLID_1512_" x="388.792" y="613.481" fill="#0D3178" width="22.323" height="21.393"/>
					</g>
					<g id="XMLID_44_">
						<rect id="XMLID_1511_" x="430.648" y="613.481" fill="#0D3178" width="22.323" height="21.393"/>
					</g>
					<g id="XMLID_43_">
						<rect id="XMLID_1510_" x="473.434" y="613.481" fill="#0D3178" width="22.323" height="21.393"/>
					</g>
				</g>
			</g>
			<g>
				<path fill="#0D3178" d="M171.701,303.689h11.085v41.409h0.382c2.293-3.313,4.586-6.371,6.752-9.174l26.247-32.235h13.761
					l-31.088,36.439l33.509,49.436h-13.124l-28.285-42.173l-8.154,9.429v32.744h-11.085V303.689z"/>
				<path fill="#0D3178" d="M238.842,378.098c3.313,2.166,9.174,4.459,14.78,4.459c8.154,0,11.977-4.077,11.977-9.173
					c0-5.352-3.185-8.282-11.467-11.34c-11.085-3.95-16.309-10.065-16.309-17.455c0-9.938,8.027-18.093,21.277-18.093
					c6.243,0,11.722,1.784,15.162,3.822l-2.803,8.154c-2.421-1.528-6.88-3.567-12.614-3.567c-6.625,0-10.32,3.822-10.32,8.409
					c0,5.097,3.695,7.39,11.722,10.448c10.702,4.077,16.181,9.428,16.181,18.602c0,10.83-8.409,18.475-23.062,18.475
					c-6.753,0-12.996-1.656-17.328-4.205L238.842,378.098z"/>
			</g>
		</g>
	</g>
</g>
<g id="specctr">
	<g id="Text_Properties">
	</g>
</g>
</svg>
