<?xml version="1.0" encoding="utf-8"?>
<!-- Generator: Adobe Illustrator 22.0.1, SVG Export Plug-In . SVG Version: 6.00 Build 0)  -->
<svg version="1.1" xmlns="http://www.w3.org/2000/svg" xmlns:xlink="http://www.w3.org/1999/xlink" x="0px" y="0px"
	 viewBox="0 0 64 64" style="enable-background:new 0 0 64 64;" xml:space="preserve">
<style type="text/css">
	.st0{fill:#FFFFFF;}
	.st1{fill:#249658;}
	.st2{fill:#333333;}
	.st3{display:none;}
	.st4{fill:none;}
	.st5{fill-rule:evenodd;clip-rule:evenodd;fill:#333333;}
	.st6{fill:#EA493D;}
	.st7{fill:#FAB100;}
	.st8{fill:#E2F7E4;}
	.st9{fill:#C97506;}
	.st10{display:inline;}
</style>
<g id="Layer_1">
	<g>
		<path class="st4" d="M49.2,14.8c-1.2-1.2-3.1-1.2-4.3,0L32,27.7L19.1,14.8c-1.2-1.2-3.1-1.2-4.3,0c-1.2,1.2-1.2,3.1,0,4.3L27.7,32
			L14.8,44.9c-1.2,1.2-1.2,3.1,0,4.3c0.6,0.6,1.4,0.9,2.1,0.9c0.8,0,1.5-0.3,2.1-0.9L32,36.3l12.9,12.9c0.6,0.6,1.4,0.9,2.1,0.9
			c0.8,0,1.5-0.3,2.1-0.9c1.2-1.2,1.2-3.1,0-4.3L36.3,32l12.9-12.9C50.4,17.9,50.4,16,49.2,14.8z"/>
		<path class="st6" d="M32,1C14.9,1,1,14.9,1,32s13.9,31,31,31s31-13.9,31-31S49.1,1,32,1z"/>
	</g>
	<path class="st0" d="M46.9,17.1c-1-1-2.7-1-3.7,0L32,28.3L20.8,17.1c-1-1-2.7-1-3.7,0c-1,1-1,2.7,0,3.7L28.3,32L17.1,43.2
		c-1,1-1,2.7,0,3.7c0.5,0.5,1.2,0.8,1.8,0.8c0.7,0,1.3-0.3,1.8-0.8L32,35.7l11.2,11.2c0.5,0.5,1.2,0.8,1.8,0.8
		c0.7,0,1.3-0.3,1.8-0.8c1-1,1-2.7,0-3.7L35.7,32l11.2-11.2C47.9,19.8,47.9,18.2,46.9,17.1z"/>
</g>
<g id="Layer_2" class="st3">
</g>
</svg>
