<?xml version="1.0" encoding="utf-8"?>
<!-- Generator: Adobe Illustrator 17.0.0, SVG Export Plug-In . SVG Version: 6.00 Build 0)  -->
<!DOCTYPE svg PUBLIC "-//W3C//DTD SVG 1.1//EN" "http://www.w3.org/Graphics/SVG/1.1/DTD/svg11.dtd">
<svg version="1.1" id="Layer_1" xmlns="http://www.w3.org/2000/svg" xmlns:xlink="http://www.w3.org/1999/xlink" x="0px" y="0px"
	 width="842.35px" height="595.3px" viewBox="0 0 842.35 595.3" enable-background="new 0 0 842.35 595.3" xml:space="preserve">
<g>
	<g>
		<path fill="#7D8590" d="M691.414,491.214c0,10.296-8.347,18.643-18.642,18.643H285.945c-10.296,0-18.643-8.347-18.643-18.643
			V104.386c0-10.296,8.347-18.643,18.643-18.643h386.828c10.295,0,18.642,8.347,18.642,18.643V491.214z"/>
		<rect x="299.926" y="118.368" fill="#4C4B51" width="358.864" height="358.865"/>
		<g>
			<g>
				<g>
					<rect x="414.186" y="425.816" fill="#649B64" width="134.974" height="23.931"/>
					<rect x="414.186" y="445.862" fill="#4A854A" width="134.974" height="2.927"/>
					<rect x="414.186" y="440.708" fill="#4A854A" width="134.974" height="2.927"/>
					<rect x="414.186" y="435.556" fill="#4A854A" width="134.974" height="2.927"/>
					<rect x="414.186" y="430.402" fill="#4A854A" width="134.974" height="2.927"/>
					<rect x="414.186" y="425.248" fill="#4A854A" width="134.974" height="2.928"/>
				</g>
				<rect x="470.368" y="425.256" fill="#C3BFC0" width="19.739" height="24.679"/>
			</g>
			<g>
				<g>
					<rect x="423.044" y="401.059" fill="#649B64" width="134.975" height="23.93"/>
					<rect x="423.044" y="421.104" fill="#4A854A" width="134.975" height="2.928"/>
					<rect x="423.044" y="415.951" fill="#4A854A" width="134.975" height="2.927"/>
					<rect x="423.044" y="410.798" fill="#4A854A" width="134.975" height="2.927"/>
					<rect x="423.044" y="405.645" fill="#4A854A" width="134.975" height="2.927"/>
					<rect x="423.044" y="400.491" fill="#4A854A" width="134.975" height="2.927"/>
				</g>
				<rect x="479.226" y="400.499" fill="#C3BFC0" width="19.739" height="24.678"/>
			</g>
			<g>
				<g>
					<rect x="412.372" y="376.133" fill="#649B64" width="134.974" height="23.931"/>
					<rect x="412.372" y="396.178" fill="#4A854A" width="134.974" height="2.927"/>
					<rect x="412.372" y="391.025" fill="#4A854A" width="134.974" height="2.927"/>
					<rect x="412.372" y="385.871" fill="#4A854A" width="134.974" height="2.928"/>
					<rect x="412.372" y="380.718" fill="#4A854A" width="134.974" height="2.927"/>
					<rect x="412.372" y="375.565" fill="#4A854A" width="134.974" height="2.927"/>
				</g>
				<rect x="468.554" y="375.572" fill="#C3BFC0" width="19.739" height="24.678"/>
			</g>
			<g>
				<g>
					<rect x="421.23" y="351.376" fill="#649B64" width="134.974" height="23.93"/>
					<rect x="421.23" y="371.42" fill="#4A854A" width="134.974" height="2.927"/>
					<rect x="421.23" y="366.267" fill="#4A854A" width="134.974" height="2.928"/>
					<rect x="421.23" y="361.114" fill="#4A854A" width="134.974" height="2.927"/>
					<rect x="421.23" y="355.961" fill="#4A854A" width="134.974" height="2.928"/>
					<rect x="421.23" y="350.808" fill="#4A854A" width="134.974" height="2.927"/>
				</g>
				<rect x="477.411" y="350.814" fill="#C3BFC0" width="19.739" height="24.679"/>
			</g>
			<g>
				<g>
					<rect x="431.752" y="326.697" fill="#649B64" width="134.974" height="23.931"/>
					<rect x="431.752" y="346.742" fill="#4A854A" width="134.974" height="2.927"/>
					<rect x="431.752" y="341.589" fill="#4A854A" width="134.974" height="2.927"/>
					<rect x="431.752" y="336.435" fill="#4A854A" width="134.974" height="2.928"/>
					<rect x="431.752" y="331.282" fill="#4A854A" width="134.974" height="2.927"/>
					<rect x="431.752" y="326.129" fill="#4A854A" width="134.974" height="2.927"/>
				</g>
				<rect x="487.933" y="326.136" fill="#C3BFC0" width="19.739" height="24.678"/>
			</g>
			<g>
				<g>
					<rect x="398.734" y="301.805" fill="#649B64" width="134.974" height="23.93"/>
					<rect x="398.734" y="321.85" fill="#4A854A" width="134.974" height="2.927"/>
					<rect x="398.734" y="316.696" fill="#4A854A" width="134.974" height="2.928"/>
					<rect x="398.734" y="311.544" fill="#4A854A" width="134.974" height="2.927"/>
					<rect x="398.734" y="306.39" fill="#4A854A" width="134.974" height="2.928"/>
					<rect x="398.734" y="301.237" fill="#4A854A" width="134.974" height="2.927"/>
				</g>
				<rect x="454.915" y="301.244" fill="#C3BFC0" width="19.739" height="24.679"/>
			</g>
			<g>
				<g>
					<rect x="407.804" y="451.308" fill="#649B64" width="134.975" height="23.931"/>
					<rect x="407.804" y="471.353" fill="#4A854A" width="134.975" height="2.927"/>
					<rect x="407.804" y="466.2" fill="#4A854A" width="134.975" height="2.927"/>
					<rect x="407.804" y="461.046" fill="#4A854A" width="134.975" height="2.928"/>
					<rect x="407.804" y="455.893" fill="#4A854A" width="134.975" height="2.927"/>
					<rect x="407.804" y="450.74" fill="#4A854A" width="134.975" height="2.927"/>
				</g>
				<rect x="463.986" y="450.747" fill="#C3BFC0" width="19.739" height="24.678"/>
			</g>
		</g>
		<g>
			<g>
				<g>
					<rect x="349.85" y="232.693" fill="#649B64" width="134.974" height="23.931"/>
					<rect x="349.85" y="233.651" fill="#4A854A" width="134.974" height="2.927"/>
					<rect x="349.85" y="238.804" fill="#4A854A" width="134.974" height="2.927"/>
					<rect x="349.85" y="243.957" fill="#4A854A" width="134.974" height="2.927"/>
					<rect x="349.85" y="249.111" fill="#4A854A" width="134.974" height="2.927"/>
					<rect x="349.85" y="254.263" fill="#4A854A" width="134.974" height="2.928"/>
				</g>
				<rect x="408.903" y="232.505" fill="#C3BFC0" width="19.739" height="24.679"/>
			</g>
			<g>
				<g>
					<rect x="340.992" y="257.45" fill="#649B64" width="134.974" height="23.93"/>
					<rect x="340.992" y="258.408" fill="#4A854A" width="134.974" height="2.928"/>
					<rect x="340.992" y="263.561" fill="#4A854A" width="134.974" height="2.927"/>
					<rect x="340.992" y="268.715" fill="#4A854A" width="134.974" height="2.927"/>
					<rect x="340.992" y="273.868" fill="#4A854A" width="134.974" height="2.927"/>
					<rect x="340.992" y="279.021" fill="#4A854A" width="134.974" height="2.927"/>
				</g>
				<rect x="400.046" y="257.263" fill="#C3BFC0" width="19.738" height="24.678"/>
			</g>
			<g>
				<g>
					<rect x="351.663" y="282.376" fill="#649B64" width="134.975" height="23.931"/>
					<rect x="351.663" y="283.334" fill="#4A854A" width="134.975" height="2.927"/>
					<rect x="351.663" y="288.488" fill="#4A854A" width="134.975" height="2.927"/>
					<rect x="351.663" y="293.641" fill="#4A854A" width="134.975" height="2.928"/>
					<rect x="351.663" y="298.794" fill="#4A854A" width="134.975" height="2.927"/>
					<rect x="351.663" y="303.948" fill="#4A854A" width="134.975" height="2.927"/>
				</g>
				<rect x="410.718" y="282.19" fill="#C3BFC0" width="19.739" height="24.678"/>
			</g>
			<g>
				<g>
					<rect x="342.806" y="307.134" fill="#649B64" width="134.974" height="23.93"/>
					<rect x="342.806" y="308.092" fill="#4A854A" width="134.974" height="2.927"/>
					<rect x="342.806" y="313.245" fill="#4A854A" width="134.974" height="2.928"/>
					<rect x="342.806" y="318.399" fill="#4A854A" width="134.974" height="2.927"/>
					<rect x="342.806" y="323.552" fill="#4A854A" width="134.974" height="2.927"/>
					<rect x="342.806" y="328.705" fill="#4A854A" width="134.974" height="2.927"/>
				</g>
				<rect x="401.859" y="306.947" fill="#C3BFC0" width="19.739" height="24.679"/>
			</g>
			<g>
				<g>
					<rect x="332.284" y="331.812" fill="#649B64" width="134.974" height="23.931"/>
					<rect x="332.284" y="332.77" fill="#4A854A" width="134.974" height="2.927"/>
					<rect x="332.284" y="337.924" fill="#4A854A" width="134.974" height="2.927"/>
					<rect x="332.284" y="343.077" fill="#4A854A" width="134.974" height="2.928"/>
					<rect x="332.284" y="348.23" fill="#4A854A" width="134.974" height="2.927"/>
					<rect x="332.284" y="353.384" fill="#4A854A" width="134.974" height="2.927"/>
				</g>
				<rect x="391.337" y="331.626" fill="#C3BFC0" width="19.739" height="24.678"/>
			</g>
			<g>
				<g>
					<rect x="365.302" y="356.705" fill="#649B64" width="134.974" height="23.93"/>
					<rect x="365.302" y="357.663" fill="#4A854A" width="134.974" height="2.927"/>
					<rect x="365.302" y="362.816" fill="#4A854A" width="134.974" height="2.928"/>
					<rect x="365.302" y="367.969" fill="#4A854A" width="134.974" height="2.927"/>
					<rect x="365.302" y="373.123" fill="#4A854A" width="134.974" height="2.927"/>
					<rect x="365.302" y="378.275" fill="#4A854A" width="134.974" height="2.927"/>
				</g>
				<rect x="424.356" y="356.517" fill="#C3BFC0" width="19.739" height="24.679"/>
			</g>
			<g>
				<g>
					<rect x="356.232" y="207.201" fill="#649B64" width="134.974" height="23.931"/>
					<rect x="356.232" y="208.159" fill="#4A854A" width="134.974" height="2.927"/>
					<rect x="356.232" y="213.313" fill="#4A854A" width="134.974" height="2.927"/>
					<rect x="356.232" y="218.466" fill="#4A854A" width="134.974" height="2.928"/>
					<rect x="356.232" y="223.619" fill="#4A854A" width="134.974" height="2.927"/>
					<rect x="356.232" y="228.773" fill="#4A854A" width="134.974" height="2.927"/>
				</g>
				<rect x="415.286" y="207.015" fill="#C3BFC0" width="19.739" height="24.678"/>
			</g>
		</g>
		<g>
			<g>
				<g>
					<rect x="495.748" y="305.06" fill="#649B64" width="134.974" height="23.931"/>
					<rect x="495.748" y="325.105" fill="#4A854A" width="134.974" height="2.927"/>
					<rect x="495.748" y="319.952" fill="#4A854A" width="134.974" height="2.927"/>
					<rect x="495.748" y="314.799" fill="#4A854A" width="134.974" height="2.927"/>
					<rect x="495.748" y="309.645" fill="#4A854A" width="134.974" height="2.927"/>
					<rect x="495.748" y="304.492" fill="#4A854A" width="134.974" height="2.928"/>
				</g>
				<rect x="551.93" y="304.499" fill="#C3BFC0" width="19.739" height="24.679"/>
			</g>
			<g>
				<g>
					<rect x="504.606" y="280.303" fill="#649B64" width="134.974" height="23.93"/>
					<rect x="504.606" y="300.348" fill="#4A854A" width="134.974" height="2.927"/>
					<rect x="504.606" y="295.195" fill="#4A854A" width="134.974" height="2.927"/>
					<rect x="504.606" y="290.041" fill="#4A854A" width="134.974" height="2.927"/>
					<rect x="504.606" y="284.888" fill="#4A854A" width="134.974" height="2.928"/>
					<rect x="504.606" y="279.735" fill="#4A854A" width="134.974" height="2.927"/>
				</g>
				<rect x="560.788" y="279.742" fill="#C3BFC0" width="19.738" height="24.678"/>
			</g>
			<g>
				<g>
					<rect x="493.934" y="255.376" fill="#649B64" width="134.975" height="23.931"/>
					<rect x="493.934" y="275.421" fill="#4A854A" width="134.975" height="2.928"/>
					<rect x="493.934" y="270.268" fill="#4A854A" width="134.975" height="2.927"/>
					<rect x="493.934" y="265.115" fill="#4A854A" width="134.975" height="2.928"/>
					<rect x="493.934" y="259.962" fill="#4A854A" width="134.975" height="2.927"/>
					<rect x="493.934" y="254.808" fill="#4A854A" width="134.975" height="2.927"/>
				</g>
				<rect x="550.115" y="254.815" fill="#C3BFC0" width="19.739" height="24.678"/>
			</g>
			<g>
				<g>
					<rect x="502.792" y="230.618" fill="#649B64" width="134.974" height="23.931"/>
					<rect x="502.792" y="250.664" fill="#4A854A" width="134.974" height="2.927"/>
					<rect x="502.792" y="245.51" fill="#4A854A" width="134.974" height="2.928"/>
					<rect x="502.792" y="240.358" fill="#4A854A" width="134.974" height="2.927"/>
					<rect x="502.792" y="235.204" fill="#4A854A" width="134.974" height="2.927"/>
					<rect x="502.792" y="230.051" fill="#4A854A" width="134.974" height="2.927"/>
				</g>
				<rect x="558.974" y="230.058" fill="#C3BFC0" width="19.739" height="24.679"/>
			</g>
			<g>
				<g>
					<rect x="513.314" y="205.94" fill="#649B64" width="134.974" height="23.931"/>
					<rect x="513.314" y="225.985" fill="#4A854A" width="134.974" height="2.928"/>
					<rect x="513.314" y="220.832" fill="#4A854A" width="134.974" height="2.927"/>
					<rect x="513.314" y="215.679" fill="#4A854A" width="134.974" height="2.928"/>
					<rect x="513.314" y="210.526" fill="#4A854A" width="134.974" height="2.927"/>
					<rect x="513.314" y="205.372" fill="#4A854A" width="134.974" height="2.927"/>
				</g>
				<rect x="569.496" y="205.379" fill="#C3BFC0" width="19.739" height="24.678"/>
			</g>
			<g>
				<g>
					<rect x="480.295" y="181.049" fill="#649B64" width="134.974" height="23.93"/>
					<rect x="480.295" y="201.093" fill="#4A854A" width="134.974" height="2.927"/>
					<rect x="480.295" y="195.94" fill="#4A854A" width="134.974" height="2.928"/>
					<rect x="480.295" y="190.787" fill="#4A854A" width="134.974" height="2.927"/>
					<rect x="480.295" y="185.633" fill="#4A854A" width="134.974" height="2.927"/>
					<rect x="480.295" y="180.481" fill="#4A854A" width="134.974" height="2.927"/>
				</g>
				<rect x="536.477" y="180.487" fill="#C3BFC0" width="19.739" height="24.679"/>
			</g>
			<g>
				<g>
					<rect x="489.366" y="330.551" fill="#649B64" width="134.974" height="23.931"/>
					<rect x="489.366" y="350.596" fill="#4A854A" width="134.974" height="2.928"/>
					<rect x="489.366" y="345.443" fill="#4A854A" width="134.974" height="2.927"/>
					<rect x="489.366" y="340.29" fill="#4A854A" width="134.974" height="2.928"/>
					<rect x="489.366" y="335.137" fill="#4A854A" width="134.974" height="2.927"/>
					<rect x="489.366" y="329.983" fill="#4A854A" width="134.974" height="2.927"/>
				</g>
				<rect x="545.547" y="329.99" fill="#C3BFC0" width="19.739" height="24.678"/>
			</g>
		</g>
		<g>
			<g>
				<g>
					<rect x="328.103" y="421.635" fill="#81C882" width="146.352" height="25.949"/>
					<rect x="328.103" y="443.37" fill="#64B264" width="146.352" height="3.174"/>
					<rect x="328.103" y="437.782" fill="#64B264" width="146.352" height="3.174"/>
					<rect x="328.103" y="432.194" fill="#64B264" width="146.352" height="3.174"/>
					<rect x="328.103" y="426.607" fill="#64B264" width="146.352" height="3.174"/>
					<rect x="328.103" y="421.019" fill="#64B264" width="146.352" height="3.174"/>
				</g>
				<rect x="389.021" y="421.027" fill="#F0ECED" width="21.403" height="26.759"/>
			</g>
			<g>
				<g>
					<rect x="337.707" y="394.791" fill="#81C882" width="146.352" height="25.948"/>
					<rect x="337.707" y="416.526" fill="#64B264" width="146.352" height="3.174"/>
					<rect x="337.707" y="410.938" fill="#64B264" width="146.352" height="3.174"/>
					<rect x="337.707" y="405.35" fill="#64B264" width="146.352" height="3.174"/>
					<rect x="337.707" y="399.763" fill="#64B264" width="146.352" height="3.174"/>
					<rect x="337.707" y="394.175" fill="#64B264" width="146.352" height="3.174"/>
				</g>
				<rect x="398.625" y="394.182" fill="#F0ECED" width="21.403" height="26.759"/>
			</g>
			<g>
				<g>
					<rect x="326.135" y="367.763" fill="#81C882" width="146.352" height="25.948"/>
					<rect x="326.135" y="389.498" fill="#64B264" width="146.352" height="3.174"/>
					<rect x="326.135" y="383.91" fill="#64B264" width="146.352" height="3.174"/>
					<rect x="326.135" y="378.322" fill="#64B264" width="146.352" height="3.174"/>
					<rect x="326.135" y="372.735" fill="#64B264" width="146.352" height="3.174"/>
					<rect x="326.135" y="367.147" fill="#64B264" width="146.352" height="3.174"/>
				</g>
				<rect x="387.053" y="367.155" fill="#F0ECED" width="21.403" height="26.759"/>
			</g>
			<g>
				<g>
					<rect x="335.74" y="340.919" fill="#81C882" width="146.352" height="25.948"/>
					<rect x="335.74" y="362.654" fill="#64B264" width="146.352" height="3.174"/>
					<rect x="335.74" y="357.066" fill="#64B264" width="146.352" height="3.174"/>
					<rect x="335.74" y="351.478" fill="#64B264" width="146.352" height="3.174"/>
					<rect x="335.74" y="345.891" fill="#64B264" width="146.352" height="3.174"/>
					<rect x="335.74" y="340.303" fill="#64B264" width="146.352" height="3.174"/>
				</g>
				<rect x="396.658" y="340.31" fill="#F0ECED" width="21.403" height="26.759"/>
			</g>
			<g>
				<g>
					<rect x="347.15" y="314.16" fill="#81C882" width="146.352" height="25.948"/>
					<rect x="347.15" y="335.894" fill="#64B264" width="146.352" height="3.174"/>
					<rect x="347.15" y="330.307" fill="#64B264" width="146.352" height="3.174"/>
					<rect x="347.15" y="324.719" fill="#64B264" width="146.352" height="3.175"/>
					<rect x="347.15" y="319.132" fill="#64B264" width="146.352" height="3.174"/>
					<rect x="347.15" y="313.544" fill="#64B264" width="146.352" height="3.174"/>
				</g>
				<rect x="408.067" y="313.552" fill="#F0ECED" width="21.403" height="26.759"/>
			</g>
			<g>
				<g>
					<rect x="311.348" y="287.17" fill="#81C882" width="146.352" height="25.948"/>
					<rect x="311.348" y="308.905" fill="#64B264" width="146.352" height="3.174"/>
					<rect x="311.348" y="303.317" fill="#64B264" width="146.352" height="3.174"/>
					<rect x="311.348" y="297.729" fill="#64B264" width="146.352" height="3.174"/>
					<rect x="311.348" y="292.142" fill="#64B264" width="146.352" height="3.174"/>
					<rect x="311.348" y="286.554" fill="#64B264" width="146.352" height="3.174"/>
				</g>
				<rect x="372.265" y="286.561" fill="#F0ECED" width="21.403" height="26.759"/>
			</g>
			<g>
				<g>
					<rect x="321.183" y="449.275" fill="#81C882" width="146.352" height="25.948"/>
					<rect x="321.183" y="471.01" fill="#64B264" width="146.352" height="3.174"/>
					<rect x="321.183" y="465.422" fill="#64B264" width="146.352" height="3.174"/>
					<rect x="321.183" y="459.835" fill="#64B264" width="146.352" height="3.174"/>
					<rect x="321.183" y="454.247" fill="#64B264" width="146.352" height="3.174"/>
					<rect x="321.183" y="448.659" fill="#64B264" width="146.352" height="3.174"/>
				</g>
				<rect x="382.101" y="448.666" fill="#F0ECED" width="21.403" height="26.759"/>
			</g>
		</g>
		<g>
			<g>
				<g>
					<rect x="489.283" y="421.635" fill="#81C882" width="146.352" height="25.949"/>
					<rect x="489.283" y="443.37" fill="#64B264" width="146.352" height="3.174"/>
					<rect x="489.283" y="437.782" fill="#64B264" width="146.352" height="3.174"/>
					<rect x="489.283" y="432.194" fill="#64B264" width="146.352" height="3.174"/>
					<rect x="489.283" y="426.607" fill="#64B264" width="146.352" height="3.174"/>
					<rect x="489.283" y="421.019" fill="#64B264" width="146.352" height="3.174"/>
				</g>
				<rect x="550.201" y="421.027" fill="#F0ECED" width="21.403" height="26.759"/>
			</g>
			<g>
				<g>
					<rect x="498.893" y="394.791" fill="#81C882" width="146.352" height="25.948"/>
					<rect x="498.893" y="416.526" fill="#64B264" width="146.352" height="3.174"/>
					<rect x="498.893" y="410.938" fill="#64B264" width="146.352" height="3.174"/>
					<rect x="498.893" y="405.35" fill="#64B264" width="146.352" height="3.174"/>
					<rect x="498.893" y="399.763" fill="#64B264" width="146.352" height="3.174"/>
					<rect x="498.893" y="394.175" fill="#64B264" width="146.352" height="3.174"/>
				</g>
				<rect x="559.81" y="394.182" fill="#F0ECED" width="21.403" height="26.759"/>
			</g>
			<g>
				<g>
					<rect x="494.125" y="367.763" fill="#81C882" width="146.352" height="25.948"/>
					<rect x="494.125" y="389.498" fill="#64B264" width="146.352" height="3.174"/>
					<rect x="494.125" y="383.91" fill="#64B264" width="146.352" height="3.174"/>
					<rect x="494.125" y="378.322" fill="#64B264" width="146.352" height="3.174"/>
					<rect x="494.125" y="372.735" fill="#64B264" width="146.352" height="3.174"/>
					<rect x="494.125" y="367.147" fill="#64B264" width="146.352" height="3.174"/>
				</g>
				<rect x="555.042" y="367.155" fill="#F0ECED" width="21.403" height="26.759"/>
			</g>
			<g>
				<g>
					<rect x="377.36" y="261.29" fill="#81C882" width="146.352" height="25.948"/>
					<rect x="377.36" y="283.024" fill="#64B264" width="146.352" height="3.174"/>
					<rect x="377.36" y="277.436" fill="#64B264" width="146.352" height="3.174"/>
					<rect x="377.36" y="271.848" fill="#64B264" width="146.352" height="3.175"/>
					<rect x="377.36" y="266.262" fill="#64B264" width="146.352" height="3.174"/>
					<rect x="377.36" y="260.674" fill="#64B264" width="146.352" height="3.174"/>
				</g>
				<rect x="438.278" y="260.681" fill="#F0ECED" width="21.403" height="26.759"/>
			</g>
			<g>
				<g>
					<rect x="503.032" y="341.326" fill="#81C882" width="146.352" height="25.949"/>
					<rect x="503.032" y="363.061" fill="#64B264" width="146.352" height="3.174"/>
					<rect x="503.032" y="357.473" fill="#64B264" width="146.352" height="3.174"/>
					<rect x="503.032" y="351.886" fill="#64B264" width="146.352" height="3.174"/>
					<rect x="503.032" y="346.298" fill="#64B264" width="146.352" height="3.174"/>
					<rect x="503.032" y="340.71" fill="#64B264" width="146.352" height="3.175"/>
				</g>
				<rect x="563.95" y="340.718" fill="#F0ECED" width="21.403" height="26.759"/>
			</g>
			<g>
				<g>
					<rect x="347.672" y="235.095" fill="#81C882" width="146.352" height="25.948"/>
					<rect x="347.672" y="256.829" fill="#64B264" width="146.352" height="3.174"/>
					<rect x="347.672" y="251.241" fill="#64B264" width="146.352" height="3.174"/>
					<rect x="347.672" y="245.654" fill="#64B264" width="146.352" height="3.174"/>
					<rect x="347.672" y="240.067" fill="#64B264" width="146.352" height="3.174"/>
					<rect x="347.672" y="234.479" fill="#64B264" width="146.352" height="3.174"/>
				</g>
				<rect x="408.59" y="234.486" fill="#F0ECED" width="21.402" height="26.759"/>
			</g>
			<g>
				<g>
					<rect x="497.5" y="449.275" fill="#81C882" width="146.352" height="25.948"/>
					<rect x="497.5" y="471.01" fill="#64B264" width="146.352" height="3.174"/>
					<rect x="497.5" y="465.422" fill="#64B264" width="146.352" height="3.174"/>
					<rect x="497.5" y="459.835" fill="#64B264" width="146.352" height="3.174"/>
					<rect x="497.5" y="454.247" fill="#64B264" width="146.352" height="3.174"/>
					<rect x="497.5" y="448.659" fill="#64B264" width="146.352" height="3.174"/>
				</g>
				<rect x="558.418" y="448.666" fill="#F0ECED" width="21.403" height="26.759"/>
			</g>
		</g>
	</g>
	<path fill="#FFC742" d="M188.849,185.754c-20.13,0-36.449,53.295-36.449,119.038c0,65.742,16.319,119.037,36.449,119.037
		c20.131,0,36.449-53.295,36.449-119.037C225.299,239.049,208.98,185.754,188.849,185.754z M194.449,399.837
		c-12.733,0-23.181-38.027-24.289-86.523l31.415-3.349v-13.982l-31.312-3.339c1.532-46.751,11.772-82.897,24.186-82.897
		c13.47,0,24.391,42.553,24.391,95.045C218.839,357.283,207.919,399.837,194.449,399.837z"/>
	<rect x="185.742" y="50.789" fill="#7D8590" width="34.955" height="494.022"/>
	<polygon fill="#5C5C5E" points="220.697,544.811 297.596,472.572 297.596,123.028 220.697,50.789 	"/>
	<path fill="#FFFFFF" d="M301.15,220.59c0,0.944-0.765,1.709-1.709,1.709l0,0c-0.944,0-1.709-0.765-1.709-1.709v-78.608
		c0-0.944,0.765-1.709,1.709-1.709l0,0c0.944,0,1.709,0.765,1.709,1.709V220.59z"/>
	<path fill="#FFFFFF" d="M301.15,338.268c0,0.943-0.765,1.709-1.709,1.709l0,0c-0.944,0-1.709-0.765-1.709-1.709v-78.609
		c0-0.944,0.765-1.709,1.709-1.709l0,0c0.944,0,1.709,0.765,1.709,1.709V338.268z"/>
	<path fill="#FFFFFF" d="M301.15,455.945c0,0.944-0.765,1.709-1.709,1.709l0,0c-0.944,0-1.709-0.765-1.709-1.709v-78.609
		c0-0.944,0.765-1.709,1.709-1.709l0,0c0.944,0,1.709,0.765,1.709,1.709V455.945z"/>
	<path fill="#5C5C5E" d="M379.156,519.178c0,5.148-4.173,9.321-9.321,9.321h-65.248c-5.148,0-9.321-4.173-9.321-9.321l0,0
		c0-5.148,4.173-9.321,9.321-9.321h65.248C374.983,509.857,379.156,514.03,379.156,519.178L379.156,519.178z"/>
	<path fill="#5C5C5E" d="M661.897,519.178c0,5.148-4.173,9.321-9.321,9.321h-65.248c-5.148,0-9.321-4.173-9.321-9.321l0,0
		c0-5.148,4.173-9.321,9.321-9.321h65.248C657.724,509.857,661.897,514.03,661.897,519.178L661.897,519.178z"/>
</g>
</svg>
