<?xml version="1.0" encoding="utf-8"?>
<!-- Generator: Adobe Illustrator 22.0.1, SVG Export Plug-In . SVG Version: 6.00 Build 0)  -->
<svg version="1.1" xmlns="http://www.w3.org/2000/svg" xmlns:xlink="http://www.w3.org/1999/xlink" x="0px" y="0px"
	 viewBox="0 0 64 64" style="enable-background:new 0 0 64 64;" xml:space="preserve">
<style type="text/css">
	.st0{fill:#FFFFFF;}
	.st1{fill:#249658;}
	.st2{fill:#333333;}
	.st3{display:none;}
	.st4{fill:none;}
	.st5{fill-rule:evenodd;clip-rule:evenodd;fill:#333333;}
	.st6{fill:#EA493D;}
	.st7{fill:#FAB100;}
	.st8{fill:#E2F7E4;}
	.st9{fill:#C97506;}
	.st10{display:inline;}
</style>
<g id="Layer_1">
	<g>
		<path class="st1" d="M32,1C14.9,1,1,14.9,1,32s13.9,31,31,31c17.1,0,31-13.9,31-31S49.1,1,32,1z"/>
		<path class="st0" d="M51.3,19.8c-0.9-0.9-2.4-0.9-3.4,0L28.1,39.4L16,28.5c-1-0.9-2.5-0.8-3.4,0.2c-0.9,1-0.8,2.5,0.2,3.4
			l13.6,12.2c0.4,0.4,1,0.6,1.6,0.6h0.3c0.6,0,1.2-0.2,1.7-0.7l21.3-21.1C52.2,22.2,52.2,20.7,51.3,19.8z"/>
	</g>
</g>
<g id="Layer_2" class="st3">
</g>
</svg>
