<svg id="Layer_1" data-name="Layer 1" xmlns="http://www.w3.org/2000/svg" xmlns:xlink="http://www.w3.org/1999/xlink" viewBox="0 0 50 50"><defs><style>.cls-1,.cls-2{fill:none;}.cls-1{clip-rule:evenodd;}.cls-3{clip-path:url(#clip-path);}.cls-4{clip-path:url(#clip-path-2);}.cls-5{fill:#414042;}.cls-6{clip-path:url(#clip-path-3);}.cls-7{clip-path:url(#clip-path-4);}.cls-8{clip-path:url(#clip-path-5);}.cls-9{clip-path:url(#clip-path-7);}.cls-10{clip-path:url(#clip-path-8);}.cls-11{clip-path:url(#clip-path-9);}.cls-12{clip-path:url(#clip-path-10);}.cls-13{clip-path:url(#clip-path-11);}.cls-14{clip-path:url(#clip-path-12);}.cls-15{clip-path:url(#clip-path-13);}.cls-16{fill:#fff;}.cls-17,.cls-18{fill:#41464b;}.cls-17{stroke:#41464b;stroke-miterlimit:10;stroke-width:0.2px;}.cls-19{fill:#ff7443;}.cls-20{fill:#fed65c;}.cls-21{fill:#4cbed8;}</style><clipPath id="clip-path"><path class="cls-1" d="M4.69,41.87v-.58h.58a.39.39,0,0,0,.39-.4.38.38,0,0,0-.39-.39H4.69v-.58a.4.4,0,1,0-.79,0v.58H3.32a.39.39,0,0,0-.4.39.4.4,0,0,0,.4.4H3.9v.58a.4.4,0,0,0,.79,0"/></clipPath><clipPath id="clip-path-2"><rect class="cls-2" x="2.92" y="9.06" width="44.78" height="35.34"/></clipPath><clipPath id="clip-path-3"><path class="cls-1" d="M2.86,12H4.21a.46.46,0,0,0,0-.91H2.86a.46.46,0,0,0,0,.91"/></clipPath><clipPath id="clip-path-4"><rect class="cls-2" x="2.16" y="-0.49" width="44.78" height="35.34"/></clipPath><clipPath id="clip-path-5"><path class="cls-1" d="M6.32,10.78a.46.46,0,0,0,0-.91H4.7a.46.46,0,0,0,0,.91Z"/></clipPath><clipPath id="clip-path-7"><path class="cls-1" d="M25.7,8.55h.75V9.3a.39.39,0,0,0,.77,0V8.55H28a.39.39,0,0,0,.39-.39A.38.38,0,0,0,28,7.78h-.75V7a.39.39,0,0,0-.77,0v.76H25.7a.38.38,0,0,0-.39.38.39.39,0,0,0,.39.39"/></clipPath><clipPath id="clip-path-8"><rect class="cls-2" x="2.16" y="6.64" width="44.78" height="35.34"/></clipPath><clipPath id="clip-path-9"><path class="cls-1" d="M44.89,18.64h.45v.45a.38.38,0,1,0,.76,0v-.45h.46a.38.38,0,1,0,0-.76H46.1v-.46a.38.38,0,0,0-.76,0v.46h-.45a.38.38,0,1,0,0,.76"/></clipPath><clipPath id="clip-path-10"><rect class="cls-2" x="2.16" y="3.64" width="44.78" height="35.34"/></clipPath><clipPath id="clip-path-11"><path class="cls-1" d="M48.22,42.13a.43.43,0,0,0-.41-.45H45a.46.46,0,0,0,0,.91h2.84a.43.43,0,0,0,.41-.46"/></clipPath><clipPath id="clip-path-12"><rect class="cls-2" x="3.44" y="10.91" width="44.78" height="35.34"/></clipPath><clipPath id="clip-path-13"><path class="cls-1" d="M34.53,10.6H36.2a.47.47,0,0,0,0-.92H34.53a.47.47,0,0,0,0,.92"/></clipPath></defs><title>1</title><g class="cls-3"><g class="cls-4"><rect class="cls-5" x="1.4" y="38" width="5.79" height="5.79"/></g></g><g class="cls-6"><g class="cls-7"><rect class="cls-5" x="0.94" y="9.57" width="5.18" height="3.96"/></g></g><g class="cls-8"><g class="cls-7"><rect class="cls-5" x="2.77" y="8.35" width="5.48" height="3.96"/></g></g><g class="cls-9"><g class="cls-10"><rect class="cls-5" x="23.79" y="5.12" width="6.09" height="6.09"/></g></g><g class="cls-11"><g class="cls-12"><rect class="cls-5" x="42.98" y="15.52" width="5.48" height="5.48"/></g></g><g class="cls-13"><g class="cls-14"><rect class="cls-5" x="43.04" y="40.15" width="6.7" height="3.96"/></g></g><g class="cls-15"><g class="cls-10"><rect class="cls-5" x="32.62" y="8.16" width="5.48" height="3.96"/></g></g><path class="cls-16" d="M39.15,14.31a1.17,1.17,0,0,0-.84-.36H16.09a1.15,1.15,0,0,0-.84.36,1.19,1.19,0,0,0-.34.84V32.42a1.19,1.19,0,0,0,.34.85,1.14,1.14,0,0,0,.84.35H38.31a1.16,1.16,0,0,0,.84-.35,1.19,1.19,0,0,0,.34-.85V15.15A1.19,1.19,0,0,0,39.15,14.31Z"/><path class="cls-17" d="M39.72,31.05h-25V15.15a1.42,1.42,0,0,1,1.41-1.42H38.31a1.4,1.4,0,0,1,1,.42,1.41,1.41,0,0,1,.41,1ZM15.13,30.6H39.26V15.15a1,1,0,0,0-.28-.68.92.92,0,0,0-.67-.29H16.09a.92.92,0,0,0-.68.29,1,1,0,0,0-.28.68Z"/><path class="cls-17" d="M38.31,33.85H16.09a1.42,1.42,0,0,1-1.41-1.43V30.6h25v1.82a1.44,1.44,0,0,1-.41,1A1.4,1.4,0,0,1,38.31,33.85Zm-23.18-2.8v1.37a1,1,0,0,0,.28.69,1,1,0,0,0,.68.29H38.31a1,1,0,0,0,.95-1V31.05Z"/><path class="cls-17" d="M31.09,38.69H23.3L24,33.4h6.5Zm-7.27-.45h6.76l-.53-4.39h-5.7Z"/><rect class="cls-18" x="26.08" y="32" width="2.24" height="0.46"/><polygon class="cls-17" points="32.68 39.41 32.22 39.41 32.22 38.69 22.17 38.69 22.17 39.41 21.72 39.41 21.72 38.24 32.68 38.24 32.68 39.41"/><rect class="cls-19" x="16.46" y="15.54" width="21.47" height="13.71"/><rect class="cls-18" x="23.29" y="21.69" width="7.81" height="0.46"/><rect class="cls-16" x="26.06" y="24.94" width="0.46" height="0.46"/><rect class="cls-16" x="26.97" y="24.94" width="0.46" height="0.46"/><rect class="cls-16" x="27.88" y="24.94" width="0.46" height="0.46"/><circle class="cls-16" cx="27.2" cy="15.54" r="3.91"/><circle class="cls-20" cx="27.2" cy="15.54" r="2.93"/><path class="cls-17" d="M27.2,19.67a4.14,4.14,0,1,1,4.13-4.13A4.14,4.14,0,0,1,27.2,19.67Zm0-7.81a3.68,3.68,0,1,0,3.68,3.68A3.68,3.68,0,0,0,27.2,11.86Z"/><path class="cls-18" d="M27.41,17H27a.88.88,0,0,1-.61-.25.86.86,0,0,1-.25-.61h.45a.45.45,0,0,0,.12.29.47.47,0,0,0,.29.12h.43a.45.45,0,0,0,.29-.12.4.4,0,0,0,.12-.29.38.38,0,0,0-.12-.29.41.41,0,0,0-.29-.13H27a.88.88,0,0,1-.61-.25.86.86,0,0,1-.25-.61.9.9,0,0,1,.25-.62A.88.88,0,0,1,27,14h.43a.87.87,0,0,1,.87.87h-.46a.42.42,0,0,0-.12-.3.44.44,0,0,0-.29-.11H27a.42.42,0,0,0-.29.12.43.43,0,0,0-.12.29.45.45,0,0,0,.12.29.4.4,0,0,0,.29.12h.43A.87.87,0,0,1,28,16.79.9.9,0,0,1,27.41,17Z"/><rect class="cls-18" x="26.97" y="13.46" width="0.46" height="0.8"/><rect class="cls-18" x="26.97" y="16.82" width="0.46" height="0.8"/><rect class="cls-18" x="28.77" y="15.31" width="0.5" height="0.46"/><rect class="cls-18" x="25.12" y="15.31" width="0.5" height="0.46"/><rect class="cls-20" x="11.42" y="35.85" width="1.95" height="3.33"/><rect class="cls-20" x="14.68" y="32.51" width="1.95" height="6.67"/><rect class="cls-20" x="17.93" y="38.07" width="1.95" height="1.11"/><path class="cls-17" d="M16.77,39.41H13.24a.09.09,0,0,1-.09-.09V37.93a.09.09,0,0,1,.09-.09h3.53a.09.09,0,0,1,.09.09v1.39A.09.09,0,0,1,16.77,39.41ZM13.6,39h2.8V38.3H13.6Z"/><path class="cls-17" d="M16.77,38.3H13.24a.09.09,0,0,1-.09-.09V36.82a.09.09,0,0,1,.09-.09h3.53a.09.09,0,0,1,.09.09v1.39A.09.09,0,0,1,16.77,38.3Zm-3.17-.46h2.8v-.65H13.6Z"/><path class="cls-17" d="M16.77,37.19H13.24a.09.09,0,0,1-.09-.09V35.71a.09.09,0,0,1,.09-.09h3.53a.09.09,0,0,1,.09.09V37.1A.09.09,0,0,1,16.77,37.19Zm-3.17-.46h2.8v-.66H13.6Z"/><path class="cls-17" d="M16.77,36.07H13.24a.09.09,0,0,1-.09-.08V34.6a.09.09,0,0,1,.09-.09h3.53a.09.09,0,0,1,.09.09V36A.09.09,0,0,1,16.77,36.07Zm-3.17-.45h2.8V35H13.6Z"/><path class="cls-17" d="M16.77,35H13.24a.09.09,0,0,1-.09-.09V33.48a.09.09,0,0,1,.09-.08h3.53a.09.09,0,0,1,.09.08v1.39A.09.09,0,0,1,16.77,35Zm-3.17-.45h2.8v-.66H13.6Z"/><path class="cls-17" d="M16.77,33.85H13.24a.09.09,0,0,1-.09-.09V32.37a.09.09,0,0,1,.09-.09h3.53a.09.09,0,0,1,.09.09v1.39A.09.09,0,0,1,16.77,33.85ZM13.6,33.4h2.8v-.66H13.6Z"/><path class="cls-17" d="M13.52,39.41H10a.09.09,0,0,1-.09-.09V37.93a.09.09,0,0,1,.09-.09h3.54a.09.09,0,0,1,.08.09v1.39A.09.09,0,0,1,13.52,39.41ZM10.35,39h2.8V38.3h-2.8Z"/><path class="cls-17" d="M13.52,38.3H10a.09.09,0,0,1-.09-.09V36.82a.09.09,0,0,1,.09-.09h3.54a.09.09,0,0,1,.08.09v1.39A.09.09,0,0,1,13.52,38.3Zm-3.17-.46h2.8v-.65h-2.8Z"/><path class="cls-17" d="M13.52,37.19H10a.09.09,0,0,1-.09-.09V35.71a.09.09,0,0,1,.09-.09h3.54a.09.09,0,0,1,.08.09V37.1A.09.09,0,0,1,13.52,37.19Zm-3.17-.46h2.8v-.66h-2.8Z"/><path class="cls-17" d="M20,39.41H16.49a.09.09,0,0,1-.09-.09V37.93a.09.09,0,0,1,.09-.09H20a.09.09,0,0,1,.09.09v1.39A.09.09,0,0,1,20,39.41ZM16.86,39h2.8V38.3h-2.8Z"/><rect class="cls-21" x="10.72" y="12.44" width="6.51" height="10.42" rx="0.65" ry="0.65"/><rect class="cls-16" x="11.76" y="12.44" width="1.95" height="10.42"/><path class="cls-17" d="M16.58,23.09H11.37a.88.88,0,0,1-.87-.88V13.09a.87.87,0,0,1,.87-.87h5.21a.87.87,0,0,1,.88.87v9.12A.88.88,0,0,1,16.58,23.09ZM11.37,12.67a.42.42,0,0,0-.42.42v9.12a.42.42,0,0,0,.42.42h5.21a.42.42,0,0,0,.43-.42V13.09a.42.42,0,0,0-.43-.42Z"/><rect class="cls-18" x="14.68" y="19.64" width="0.46" height="1.95"/><rect class="cls-18" x="15.59" y="17.69" width="0.46" height="3.91"/><rect class="cls-18" x="14.68" y="13.71" width="0.46" height="0.46"/><rect class="cls-18" x="14.68" y="14.62" width="0.46" height="0.46"/><rect class="cls-18" x="14.68" y="15.54" width="0.46" height="0.46"/><path class="cls-18" d="M12.06,30.35h-.5a1,1,0,0,1-1-1v-1.5a1,1,0,0,1,1-1h.5a1,1,0,0,1,.69.28,1,1,0,0,1,.29.69h-.46a.51.51,0,0,0-.15-.37.56.56,0,0,0-.37-.15h-.5a.58.58,0,0,0-.37.15.56.56,0,0,0-.15.37v1.5a.52.52,0,0,0,.16.37.51.51,0,0,0,.37.15h.5a.49.49,0,0,0,.36-.15.51.51,0,0,0,.15-.37H13a1,1,0,0,1-1,1Z"/><rect class="cls-18" x="10.04" y="27.86" width="1.52" height="0.46"/><rect class="cls-18" x="10.04" y="28.93" width="1.52" height="0.46"/></svg>