<?xml version="1.0" encoding="utf-8"?>
<!-- Generator: Adobe Illustrator 22.0.1, SVG Export Plug-In . SVG Version: 6.00 Build 0)  -->
<svg version="1.1" id="Layer_1" xmlns="http://www.w3.org/2000/svg" xmlns:xlink="http://www.w3.org/1999/xlink" x="0px" y="0px"
	 viewBox="0 0 50 50" style="enable-background:new 0 0 50 50;" xml:space="preserve">
<style type="text/css">
	.st0{fill:#FFFFFF;}
	.st1{fill:#414042;}
	.st2{fill:#9ECFEF;}
	.st3{fill:#FFCE44;}
	.st4{fill:#FFE167;}
	.st5{fill:#F5CC73;}
	.st6{clip-path:url(#SVGID_2_);}
	.st7{clip-path:url(#SVGID_4_);}
	.st8{clip-path:url(#SVGID_6_);}
	.st9{clip-path:url(#SVGID_8_);}
	.st10{clip-path:url(#SVGID_10_);}
	.st11{clip-path:url(#SVGID_12_);}
	.st12{clip-path:url(#SVGID_14_);}
	.st13{clip-path:url(#SVGID_16_);}
	.st14{clip-path:url(#SVGID_18_);}
	.st15{clip-path:url(#SVGID_20_);}
	.st16{clip-path:url(#SVGID_22_);}
	.st17{clip-path:url(#SVGID_24_);}
	.st18{clip-path:url(#SVGID_26_);}
	.st19{clip-path:url(#SVGID_28_);}
	.st20{clip-path:url(#SVGID_30_);}
	.st21{clip-path:url(#SVGID_34_);}
	.st22{clip-path:url(#SVGID_36_);fill:#9ECFEF;}
	.st23{clip-path:url(#SVGID_38_);}
	.st24{clip-path:url(#SVGID_40_);}
	.st25{clip-path:url(#SVGID_42_);}
	.st26{clip-path:url(#SVGID_44_);}
	.st27{clip-path:url(#SVGID_46_);fill:#414042;}
	.st28{clip-path:url(#SVGID_38_);fill-rule:evenodd;clip-rule:evenodd;fill:#414042;}
	.st29{clip-path:url(#SVGID_48_);}
	.st30{clip-path:url(#SVGID_52_);}
	.st31{clip-path:url(#SVGID_56_);}
	.st32{clip-path:url(#SVGID_58_);fill:#F77C4B;}
	.st33{clip-path:url(#SVGID_60_);}
	.st34{clip-path:url(#SVGID_62_);fill:#FFFFFF;}
	.st35{clip-path:url(#SVGID_64_);}
	.st36{clip-path:url(#SVGID_66_);fill:#414042;}
	.st37{clip-path:url(#SVGID_68_);}
	.st38{clip-path:url(#SVGID_70_);fill:#414042;}
	.st39{clip-path:url(#SVGID_72_);}
	.st40{clip-path:url(#SVGID_74_);fill:#414042;}
	.st41{clip-path:url(#SVGID_76_);}
	.st42{clip-path:url(#SVGID_78_);fill:#F77C4B;}
	.st43{clip-path:url(#SVGID_80_);}
	.st44{clip-path:url(#SVGID_82_);fill:#FFFFFF;}
	.st45{clip-path:url(#SVGID_84_);}
	.st46{clip-path:url(#SVGID_86_);fill:#FFFFFF;}
	.st47{clip-path:url(#SVGID_88_);}
	.st48{clip-path:url(#SVGID_90_);fill:#414042;}
	.st49{clip-path:url(#SVGID_92_);}
	.st50{clip-path:url(#SVGID_94_);fill:#414042;}
	.st51{clip-path:url(#SVGID_96_);}
	.st52{clip-path:url(#SVGID_98_);fill:#414042;}
	.st53{clip-path:url(#SVGID_100_);}
	.st54{clip-path:url(#SVGID_102_);fill:#414042;}
	.st55{clip-path:url(#SVGID_104_);}
	.st56{clip-path:url(#SVGID_106_);fill:#414042;}
	.st57{fill:#41464B;}
	.st58{fill:#4CBED8;}
	.st59{fill:#FF7443;}
	.st60{fill:none;stroke:#359CDB;stroke-width:0.393;stroke-linecap:round;stroke-linejoin:round;stroke-miterlimit:10;}
	.st61{fill:#AFAFAF;}
	.st62{fill:#FED65C;}
	.st63{clip-path:url(#SVGID_108_);}
	.st64{fill:#4CBDD8;}
	.st65{fill:#F9D264;}
	.st66{fill:#F9BB7D;}
	.st67{fill:#41464B;stroke:#414042;stroke-width:0.4;stroke-linecap:round;stroke-linejoin:round;stroke-miterlimit:10;}
	.st68{clip-path:url(#SVGID_110_);}
	.st69{clip-path:url(#SVGID_112_);}
	.st70{clip-path:url(#SVGID_114_);}
	.st71{clip-path:url(#SVGID_116_);}
	.st72{clip-path:url(#SVGID_118_);}
	.st73{clip-path:url(#SVGID_120_);}
	.st74{clip-path:url(#SVGID_122_);}
	.st75{clip-path:url(#SVGID_124_);fill:#414042;}
	.st76{clip-path:url(#SVGID_126_);}
	.st77{clip-path:url(#SVGID_128_);}
	.st78{clip-path:url(#SVGID_130_);}
	.st79{clip-path:url(#SVGID_132_);}
	.st80{clip-path:url(#SVGID_134_);}
	.st81{clip-path:url(#SVGID_136_);}
	.st82{clip-path:url(#SVGID_138_);}
	.st83{clip-path:url(#SVGID_140_);}
	.st84{clip-path:url(#SVGID_142_);}
	.st85{clip-path:url(#SVGID_144_);}
	.st86{clip-path:url(#SVGID_146_);}
	.st87{clip-path:url(#SVGID_148_);}
	.st88{clip-path:url(#SVGID_150_);}
	.st89{clip-path:url(#SVGID_152_);fill:#FFFFFF;}
	.st90{clip-path:url(#SVGID_154_);}
	.st91{clip-path:url(#SVGID_156_);}
	.st92{clip-path:url(#SVGID_158_);}
	.st93{clip-path:url(#SVGID_160_);}
	.st94{clip-path:url(#SVGID_162_);}
	.st95{clip-path:url(#SVGID_164_);}
	.st96{clip-path:url(#SVGID_166_);}
	.st97{clip-path:url(#SVGID_168_);}
	.st98{clip-path:url(#SVGID_170_);}
	.st99{clip-path:url(#SVGID_172_);}
	.st100{clip-path:url(#SVGID_174_);}
	.st101{clip-path:url(#SVGID_176_);}
	.st102{clip-path:url(#SVGID_178_);}
	.st103{clip-path:url(#SVGID_180_);fill:#414042;}
	.st104{clip-path:url(#SVGID_182_);}
	.st105{clip-path:url(#SVGID_184_);}
	.st106{clip-path:url(#SVGID_186_);}
	.st107{clip-path:url(#SVGID_188_);}
	.st108{clip-path:url(#SVGID_190_);}
	.st109{clip-path:url(#SVGID_192_);}
	.st110{fill:#41464B;stroke:#41464B;stroke-width:0.2;stroke-miterlimit:10;}
	.st111{clip-path:url(#SVGID_194_);}
	.st112{clip-path:url(#SVGID_196_);}
	.st113{clip-path:url(#SVGID_198_);}
	.st114{clip-path:url(#SVGID_200_);}
	.st115{clip-path:url(#SVGID_202_);}
	.st116{clip-path:url(#SVGID_204_);}
	.st117{clip-path:url(#SVGID_206_);}
	.st118{clip-path:url(#SVGID_208_);fill:#414042;}
	.st119{clip-path:url(#SVGID_210_);}
	.st120{clip-path:url(#SVGID_212_);}
	.st121{clip-path:url(#SVGID_214_);}
	.st122{clip-path:url(#SVGID_216_);}
	.st123{clip-path:url(#SVGID_218_);}
	.st124{clip-path:url(#SVGID_220_);}
	.st125{clip-path:url(#SVGID_222_);}
	.st126{clip-path:url(#SVGID_224_);}
	.st127{clip-path:url(#SVGID_226_);}
	.st128{clip-path:url(#SVGID_228_);}
	.st129{clip-path:url(#SVGID_230_);}
	.st130{clip-path:url(#SVGID_232_);}
	.st131{clip-path:url(#SVGID_234_);}
	.st132{clip-path:url(#SVGID_236_);fill:#414042;}
	.st133{clip-path:url(#SVGID_238_);}
	.st134{clip-path:url(#SVGID_240_);}
	.st135{clip-path:url(#SVGID_242_);}
	.st136{clip-path:url(#SVGID_244_);}
	.st137{clip-path:url(#SVGID_246_);}
	.st138{clip-path:url(#SVGID_248_);}
	.st139{fill:#FFD15D;}
	.st140{fill:#475059;}
	.st141{fill:#41464B;stroke:#41464B;stroke-width:0.223;stroke-linecap:round;stroke-linejoin:round;stroke-miterlimit:10;}
	.st142{fill:#41464B;stroke:#41464B;stroke-width:0.223;stroke-miterlimit:10;}
	.st143{fill:#41464B;stroke:#41464B;stroke-width:0.212;stroke-miterlimit:10;}
	.st144{fill:#5FE0ED;}
	.st145{fill:#48515A;}
	.st146{fill:#41464B;stroke:#41464B;stroke-width:0.2104;stroke-miterlimit:10;}
	.st147{fill:#41464B;stroke:#41464B;stroke-width:0.21;stroke-linecap:round;stroke-linejoin:round;stroke-miterlimit:10;}
	.st148{fill:#41464B;stroke:#41464B;stroke-width:0.2086;stroke-linecap:round;stroke-linejoin:round;stroke-miterlimit:10;}
	.st149{fill:#FDBE11;}
	.st150{fill:#41464B;stroke:#41464B;stroke-width:0.2513;stroke-miterlimit:10;}
	.st151{clip-path:url(#SVGID_250_);}
	.st152{clip-path:url(#SVGID_252_);}
	.st153{clip-path:url(#SVGID_254_);}
	.st154{clip-path:url(#SVGID_256_);}
	.st155{clip-path:url(#SVGID_258_);}
	.st156{clip-path:url(#SVGID_260_);}
	.st157{clip-path:url(#SVGID_262_);}
	.st158{clip-path:url(#SVGID_264_);fill:#414042;}
	.st159{clip-path:url(#SVGID_266_);}
	.st160{clip-path:url(#SVGID_268_);}
	.st161{clip-path:url(#SVGID_270_);}
	.st162{clip-path:url(#SVGID_272_);}
	.st163{clip-path:url(#SVGID_274_);}
	.st164{clip-path:url(#SVGID_276_);}
	.st165{clip-path:url(#SVGID_278_);}
	.st166{clip-path:url(#SVGID_280_);}
	.st167{clip-path:url(#SVGID_282_);}
	.st168{clip-path:url(#SVGID_284_);}
	.st169{clip-path:url(#SVGID_286_);}
	.st170{clip-path:url(#SVGID_288_);}
	.st171{clip-path:url(#SVGID_290_);}
	.st172{clip-path:url(#SVGID_292_);fill:#414042;}
	.st173{clip-path:url(#SVGID_294_);}
	.st174{clip-path:url(#SVGID_296_);}
	.st175{clip-path:url(#SVGID_298_);}
	.st176{clip-path:url(#SVGID_300_);}
	.st177{clip-path:url(#SVGID_302_);}
	.st178{clip-path:url(#SVGID_304_);}
	.st179{fill:#DEDEDD;}
	.st180{fill:#41464B;stroke:#41464B;stroke-width:0.2327;stroke-miterlimit:10;}
	.st181{fill:#41464B;stroke:#41464B;stroke-width:0.2327;stroke-linecap:round;stroke-linejoin:round;stroke-miterlimit:10;}
	.st182{fill:#F58E70;}
	.st183{clip-path:url(#SVGID_306_);}
	.st184{fill:#41464B;stroke:#41464B;stroke-width:0.2316;stroke-miterlimit:10;}
	.st185{fill:#FFB936;}
	.st186{fill:#E6E7E8;}
	.st187{clip-path:url(#SVGID_308_);}
	.st188{clip-path:url(#SVGID_310_);}
	.st189{clip-path:url(#SVGID_312_);}
	.st190{clip-path:url(#SVGID_314_);}
	.st191{clip-path:url(#SVGID_316_);}
	.st192{clip-path:url(#SVGID_318_);}
	.st193{clip-path:url(#SVGID_320_);}
	.st194{clip-path:url(#SVGID_322_);fill:#FFFFFF;}
	.st195{clip-path:url(#SVGID_324_);}
	.st196{clip-path:url(#SVGID_326_);}
	.st197{clip-path:url(#SVGID_328_);}
	.st198{clip-path:url(#SVGID_330_);}
	.st199{clip-path:url(#SVGID_332_);}
	.st200{clip-path:url(#SVGID_334_);}
	.st201{clip-path:url(#SVGID_336_);}
	.st202{clip-path:url(#SVGID_338_);}
	.st203{clip-path:url(#SVGID_340_);}
	.st204{clip-path:url(#SVGID_342_);}
	.st205{clip-path:url(#SVGID_344_);}
	.st206{clip-path:url(#SVGID_346_);}
	.st207{clip-path:url(#SVGID_348_);}
	.st208{clip-path:url(#SVGID_350_);fill:#FFFFFF;}
	.st209{clip-path:url(#SVGID_352_);}
	.st210{clip-path:url(#SVGID_354_);}
	.st211{clip-path:url(#SVGID_356_);}
	.st212{clip-path:url(#SVGID_358_);}
	.st213{clip-path:url(#SVGID_360_);}
	.st214{clip-path:url(#SVGID_362_);}
	.st215{clip-path:url(#SVGID_364_);}
	.st216{clip-path:url(#SVGID_366_);}
	.st217{clip-path:url(#SVGID_368_);}
	.st218{clip-path:url(#SVGID_370_);}
	.st219{clip-path:url(#SVGID_372_);}
	.st220{clip-path:url(#SVGID_374_);}
	.st221{clip-path:url(#SVGID_376_);}
	.st222{clip-path:url(#SVGID_378_);fill:#414042;}
	.st223{clip-path:url(#SVGID_380_);}
	.st224{clip-path:url(#SVGID_382_);}
	.st225{clip-path:url(#SVGID_384_);}
	.st226{clip-path:url(#SVGID_386_);}
	.st227{clip-path:url(#SVGID_388_);}
	.st228{clip-path:url(#SVGID_390_);}
	.st229{clip-path:url(#SVGID_392_);}
	.st230{clip-path:url(#SVGID_394_);}
	.st231{clip-path:url(#SVGID_396_);}
	.st232{clip-path:url(#SVGID_398_);}
	.st233{clip-path:url(#SVGID_400_);}
	.st234{clip-path:url(#SVGID_402_);}
	.st235{clip-path:url(#SVGID_404_);}
	.st236{clip-path:url(#SVGID_406_);fill:#414042;}
	.st237{clip-path:url(#SVGID_408_);}
	.st238{clip-path:url(#SVGID_410_);}
	.st239{clip-path:url(#SVGID_412_);}
	.st240{clip-path:url(#SVGID_414_);}
	.st241{clip-path:url(#SVGID_416_);}
	.st242{clip-path:url(#SVGID_418_);}
	.st243{fill:#F9C269;}
	.st244{fill:#7F7F7F;}
	.st245{fill:none;stroke:#41464B;stroke-width:0.223;stroke-linecap:round;stroke-linejoin:round;stroke-miterlimit:10;}
	.st246{clip-path:url(#SVGID_420_);}
	.st247{clip-path:url(#SVGID_422_);}
	.st248{clip-path:url(#SVGID_424_);}
	.st249{clip-path:url(#SVGID_426_);}
	.st250{clip-path:url(#SVGID_428_);}
	.st251{clip-path:url(#SVGID_430_);}
	.st252{clip-path:url(#SVGID_432_);}
	.st253{clip-path:url(#SVGID_434_);fill:#414042;}
	.st254{clip-path:url(#SVGID_436_);}
	.st255{clip-path:url(#SVGID_438_);}
	.st256{clip-path:url(#SVGID_440_);}
	.st257{clip-path:url(#SVGID_442_);}
	.st258{clip-path:url(#SVGID_444_);}
	.st259{clip-path:url(#SVGID_446_);}
	.st260{fill:#F79F63;}
</style>
<g>
	<defs>
		<path id="SVGID_29_" d="M84.733-37.439v0.305c0.421-0.042,0.829-0.145,1.218-0.305H84.733z"/>
	</defs>
	<clipPath id="SVGID_2_">
		<use xlink:href="#SVGID_29_"  style="overflow:visible;"/>
	</clipPath>
	<g class="st6">
		<defs>
			<rect id="SVGID_31_" x="-227.496" y="-162.635" width="416.103" height="501.394"/>
		</defs>
		<clipPath id="SVGID_4_">
			<use xlink:href="#SVGID_31_"  style="overflow:visible;"/>
		</clipPath>
	</g>
</g>
<g>
	<defs>
		<path id="SVGID_33_" d="M84.124-38.426h3.047c0.104-0.077,0.206-0.157,0.304-0.242v-1.318c0-0.743-0.604-1.345-1.349-1.345h-2.019
			c0.315,0,0.612-0.078,0.873-0.216c0.592-0.312,0.995-0.932,0.995-1.646c0-1.029-0.836-1.862-1.868-1.862
			c-1.032,0-1.868,0.834-1.868,1.862c0,0.727,0.418,1.357,1.028,1.663c0.252,0.127,0.538,0.198,0.84,0.198h-1.985
			c-0.745,0-1.349,0.602-1.349,1.345v1.329c0.809,0.691,1.837,1.136,2.965,1.218v-0.603C83.738-38.254,83.911-38.426,84.124-38.426"
			/>
	</defs>
	<clipPath id="SVGID_6_">
		<use xlink:href="#SVGID_33_"  style="overflow:visible;"/>
	</clipPath>
	<g class="st8">
		<defs>
			<rect id="SVGID_35_" x="-227.496" y="-162.635" width="416.103" height="501.394"/>
		</defs>
		<clipPath id="SVGID_8_">
			<use xlink:href="#SVGID_35_"  style="overflow:visible;"/>
		</clipPath>
	</g>
</g>
<g>
	<defs>
		<rect id="SVGID_37_" x="80.775" y="-41.393" width="26.91" height="27.875"/>
	</defs>
	<clipPath id="SVGID_10_">
		<use xlink:href="#SVGID_37_"  style="overflow:visible;"/>
	</clipPath>
	<g class="st10">
		<defs>
			<rect id="SVGID_39_" x="-227.496" y="-162.635" width="416.103" height="501.394"/>
		</defs>
		<clipPath id="SVGID_12_">
			<use xlink:href="#SVGID_39_"  style="overflow:visible;"/>
		</clipPath>
	</g>
</g>
<g>
	<defs>
		<path id="SVGID_391_" d="M4.688,41.869v-0.582H5.27c0.218,0,0.394-0.177,0.394-0.394c0-0.218-0.177-0.394-0.394-0.394H4.688
			v-0.582c0-0.218-0.177-0.394-0.394-0.394c-0.218,0-0.394,0.177-0.394,0.394v0.582H3.317c-0.218,0-0.394,0.177-0.394,0.394
			c0,0.218,0.177,0.394,0.394,0.394h0.582v0.582c0,0.218,0.177,0.394,0.394,0.394C4.512,42.263,4.688,42.086,4.688,41.869"/>
	</defs>
	<clipPath id="SVGID_14_">
		<use xlink:href="#SVGID_391_"  style="overflow:visible;"/>
	</clipPath>
	<g class="st12">
		<defs>
			<rect id="SVGID_393_" x="2.923" y="9.06" width="44.778" height="35.335"/>
		</defs>
		<clipPath id="SVGID_16_">
			<use xlink:href="#SVGID_393_"  style="overflow:visible;"/>
		</clipPath>
		<g class="st13">
			<rect x="1.4" y="37.998" class="st1" width="5.788" height="5.788"/>
		</g>
	</g>
</g>
<g>
	<defs>
		<path id="SVGID_395_" d="M2.856,12.002h1.353c0.215,0,0.39-0.205,0.39-0.457c0-0.252-0.174-0.457-0.39-0.457H2.856
			c-0.215,0-0.39,0.205-0.39,0.457C2.466,11.798,2.641,12.002,2.856,12.002"/>
	</defs>
	<clipPath id="SVGID_18_">
		<use xlink:href="#SVGID_395_"  style="overflow:visible;"/>
	</clipPath>
	<g class="st14">
		<defs>
			<rect id="SVGID_397_" x="2.161" y="-0.487" width="44.778" height="35.335"/>
		</defs>
		<clipPath id="SVGID_20_">
			<use xlink:href="#SVGID_397_"  style="overflow:visible;"/>
		</clipPath>
		<g class="st15">
			<rect x="0.943" y="9.565" class="st1" width="5.178" height="3.96"/>
		</g>
	</g>
</g>
<g>
	<defs>
		<path id="SVGID_399_" d="M6.319,10.784c0.227,0,0.411-0.205,0.411-0.457c0-0.252-0.184-0.457-0.411-0.457H4.705
			c-0.227,0-0.411,0.205-0.411,0.457c0,0.252,0.184,0.457,0.411,0.457H6.319z"/>
	</defs>
	<clipPath id="SVGID_22_">
		<use xlink:href="#SVGID_399_"  style="overflow:visible;"/>
	</clipPath>
	<g class="st16">
		<defs>
			<rect id="SVGID_401_" x="2.161" y="-0.487" width="44.778" height="35.335"/>
		</defs>
		<clipPath id="SVGID_24_">
			<use xlink:href="#SVGID_401_"  style="overflow:visible;"/>
		</clipPath>
		<g class="st17">
			<rect x="2.771" y="8.347" class="st1" width="5.483" height="3.96"/>
		</g>
	</g>
</g>
<g>
	<defs>
		<path id="SVGID_403_" d="M25.698,8.547h0.751v0.751c0,0.213,0.173,0.386,0.386,0.386c0.213,0,0.386-0.173,0.386-0.386V8.547h0.751
			c0.213,0,0.386-0.173,0.386-0.386c0-0.213-0.173-0.386-0.386-0.386h-0.751V7.024c0-0.213-0.173-0.386-0.386-0.386
			c-0.213,0-0.386,0.173-0.386,0.386v0.751h-0.751c-0.213,0-0.386,0.173-0.386,0.386C25.312,8.375,25.485,8.547,25.698,8.547"/>
	</defs>
	<clipPath id="SVGID_26_">
		<use xlink:href="#SVGID_403_"  style="overflow:visible;"/>
	</clipPath>
	<g class="st18">
		<defs>
			<rect id="SVGID_405_" x="2.161" y="6.638" width="44.778" height="35.335"/>
		</defs>
		<clipPath id="SVGID_28_">
			<use xlink:href="#SVGID_405_"  style="overflow:visible;"/>
		</clipPath>
		<rect x="23.789" y="5.115" style="clip-path:url(#SVGID_28_);fill:#414042;" width="6.092" height="6.092"/>
	</g>
</g>
<g>
	<defs>
		<path id="SVGID_407_" d="M44.886,18.643h0.451v0.451c0,0.212,0.172,0.384,0.384,0.384c0.212,0,0.384-0.172,0.384-0.384v-0.451
			h0.451c0.212,0,0.384-0.172,0.384-0.383c0-0.212-0.172-0.383-0.384-0.383h-0.451v-0.451c0-0.212-0.172-0.383-0.384-0.383
			c-0.212,0-0.384,0.172-0.384,0.383v0.451h-0.451c-0.212,0-0.384,0.172-0.384,0.383C44.503,18.471,44.675,18.643,44.886,18.643"/>
	</defs>
	<clipPath id="SVGID_30_">
		<use xlink:href="#SVGID_407_"  style="overflow:visible;"/>
	</clipPath>
	<g class="st20">
		<defs>
			<rect id="SVGID_409_" x="2.161" y="3.638" width="44.778" height="35.335"/>
		</defs>
		<clipPath id="SVGID_32_">
			<use xlink:href="#SVGID_409_"  style="overflow:visible;"/>
		</clipPath>
		<g style="clip-path:url(#SVGID_32_);">
			<rect x="42.98" y="15.518" class="st1" width="5.483" height="5.483"/>
		</g>
	</g>
</g>
<g>
	<defs>
		<path id="SVGID_411_" d="M48.221,42.133c0-0.252-0.183-0.457-0.408-0.457h-2.84c-0.225,0-0.408,0.205-0.408,0.457
			s0.183,0.457,0.408,0.457h2.84C48.039,42.59,48.221,42.386,48.221,42.133"/>
	</defs>
	<clipPath id="SVGID_34_">
		<use xlink:href="#SVGID_411_"  style="overflow:visible;"/>
	</clipPath>
	<g class="st21">
		<defs>
			<rect id="SVGID_413_" x="3.443" y="10.911" width="44.778" height="35.335"/>
		</defs>
		<clipPath id="SVGID_36_">
			<use xlink:href="#SVGID_413_"  style="overflow:visible;"/>
		</clipPath>
		<g style="clip-path:url(#SVGID_36_);">
			<rect x="43.043" y="40.153" class="st1" width="6.702" height="3.96"/>
		</g>
	</g>
</g>
<g>
	<defs>
		<path id="SVGID_415_" d="M34.532,10.598h1.665c0.213,0,0.386-0.205,0.386-0.457c0-0.252-0.173-0.457-0.386-0.457h-1.665
			c-0.213,0-0.386,0.205-0.386,0.457C34.146,10.394,34.319,10.598,34.532,10.598"/>
	</defs>
	<clipPath id="SVGID_38_">
		<use xlink:href="#SVGID_415_"  style="overflow:visible;"/>
	</clipPath>
	<g class="st23">
		<defs>
			<rect id="SVGID_417_" x="2.161" y="6.638" width="44.778" height="35.335"/>
		</defs>
		<clipPath id="SVGID_40_">
			<use xlink:href="#SVGID_417_"  style="overflow:visible;"/>
		</clipPath>
		<g class="st24">
			<rect x="32.623" y="8.161" class="st1" width="5.483" height="3.96"/>
		</g>
	</g>
</g>
<g>
	<g>
		<path class="st243" d="M27.09,14.353c-0.366,0-0.662,0.296-0.662,0.662v0.77l4.796,0.134c0.426-0.059,0.566,0.138,0.424,0.588
			l0,6.229h5.868c0.366,0,0.662-0.296,0.662-0.662v-7.721h-5.881H27.09z"/>
	</g>
	<g>
		<g>
			<circle class="st0" cx="32.811" cy="18.577" r="2.883"/>
		</g>
		<g>
			<circle class="st4" cx="32.811" cy="18.577" r="2.182"/>
		</g>
		<g>
			<path class="st59" d="M32.811,20.759c-1.203,0-2.182-0.979-2.182-2.182c0-1.203,0.979-2.182,2.182-2.182
				c1.203,0,2.182,0.979,2.182,2.182C34.993,19.78,34.015,20.759,32.811,20.759z"/>
		</g>
		<g>
			<path class="st1" d="M32.812,21.576c-1.653,0-2.998-1.345-2.998-2.998s1.345-2.998,2.998-2.998c1.653,0,2.998,1.345,2.998,2.998
				S34.465,21.576,32.812,21.576z M32.812,15.809c-1.527,0-2.768,1.242-2.768,2.768c0,1.527,1.242,2.768,2.768,2.768
				c1.526,0,2.768-1.242,2.768-2.768C35.58,17.051,34.338,15.809,32.812,15.809z"/>
			<path class="st1" d="M32.812,21.646c-1.692,0-3.069-1.377-3.069-3.069c0-1.692,1.377-3.069,3.069-3.069
				c1.692,0,3.069,1.376,3.069,3.069C35.88,20.269,34.504,21.646,32.812,21.646z M32.812,15.649c-1.614,0-2.928,1.313-2.928,2.928
				s1.314,2.928,2.928,2.928c1.614,0,2.928-1.314,2.928-2.928S34.426,15.649,32.812,15.649z M32.812,21.416
				c-1.565,0-2.839-1.273-2.839-2.839c0-1.565,1.273-2.838,2.839-2.838c1.565,0,2.838,1.273,2.838,2.838
				C35.65,20.142,34.377,21.416,32.812,21.416z M32.812,15.879c-1.488,0-2.698,1.21-2.698,2.698c0,1.488,1.21,2.698,2.698,2.698
				c1.487,0,2.698-1.21,2.698-2.698C35.509,17.09,34.299,15.879,32.812,15.879z"/>
		</g>
		<g>
			<path class="st1" d="M32.812,20.874c-1.267,0-2.297-1.03-2.297-2.297s1.031-2.297,2.297-2.297c1.267,0,2.297,1.03,2.297,2.297
				S34.078,20.874,32.812,20.874z M32.812,16.51c-1.14,0-2.067,0.927-2.067,2.067s0.927,2.067,2.067,2.067
				c1.139,0,2.067-0.927,2.067-2.067S33.951,16.51,32.812,16.51z"/>
			<path class="st1" d="M32.812,20.944c-1.305,0-2.368-1.062-2.368-2.367s1.062-2.367,2.368-2.367c1.305,0,2.367,1.062,2.367,2.367
				S34.117,20.944,32.812,20.944z M32.812,16.351c-1.228,0-2.227,0.999-2.227,2.226s0.999,2.226,2.227,2.226
				c1.228,0,2.226-0.999,2.226-2.226S34.039,16.351,32.812,16.351z M32.812,20.714c-1.179,0-2.138-0.959-2.138-2.137
				c0-1.178,0.959-2.137,2.138-2.137c1.178,0,2.137,0.959,2.137,2.137C34.949,19.755,33.99,20.714,32.812,20.714z M32.812,16.581
				c-1.101,0-1.997,0.896-1.997,1.996s0.896,1.996,1.997,1.996c1.101,0,1.996-0.896,1.996-1.996S33.912,16.581,32.812,16.581z"/>
		</g>
		<g>
			<path class="st1" d="M32.823,19.596c-0.308-0.003-0.567-0.157-0.73-0.286c-0.05-0.039-0.059-0.112-0.019-0.161
				c0.04-0.05,0.112-0.059,0.161-0.019c0.135,0.106,0.347,0.234,0.589,0.236c0.146,0,0.284-0.042,0.386-0.117
				c0.082-0.059,0.132-0.146,0.134-0.233c0.002-0.077-0.032-0.147-0.098-0.202c-0.114-0.093-0.269-0.125-0.432-0.158
				c-0.05-0.01-0.1-0.02-0.148-0.032c-0.354-0.087-0.555-0.28-0.551-0.532c0.005-0.287,0.283-0.494,0.549-0.528
				c0.293-0.038,0.585,0.053,0.783,0.242c0.046,0.044,0.048,0.117,0.004,0.163c-0.044,0.046-0.117,0.047-0.163,0.004
				c-0.146-0.139-0.372-0.207-0.596-0.18c-0.144,0.018-0.345,0.134-0.348,0.304c-0.003,0.197,0.286,0.283,0.375,0.304
				c0.045,0.011,0.092,0.021,0.139,0.03c0.175,0.035,0.374,0.076,0.532,0.205c0.122,0.1,0.187,0.237,0.182,0.387
				c-0.005,0.158-0.09,0.312-0.229,0.411C33.205,19.539,33.019,19.596,32.823,19.596z"/>
			<path class="st1" d="M32.823,19.667L32.823,19.667c-0.329-0.003-0.602-0.166-0.774-0.301c-0.039-0.031-0.064-0.075-0.069-0.124
				c-0.006-0.049,0.008-0.098,0.039-0.137c0.031-0.039,0.076-0.064,0.125-0.07c0.049-0.004,0.097,0.009,0.135,0.039
				c0.126,0.099,0.324,0.219,0.546,0.221c0.131,0,0.253-0.036,0.343-0.103c0.065-0.046,0.104-0.113,0.106-0.178
				c0.002-0.056-0.023-0.104-0.072-0.145c-0.101-0.082-0.247-0.112-0.401-0.143l-0.022-0.004c-0.044-0.009-0.087-0.018-0.129-0.028
				c-0.389-0.095-0.609-0.314-0.605-0.602c0.006-0.326,0.315-0.559,0.611-0.597c0.313-0.042,0.626,0.057,0.841,0.261
				c0.074,0.07,0.077,0.188,0.007,0.262c-0.07,0.075-0.187,0.077-0.262,0.007c-0.13-0.124-0.338-0.184-0.539-0.162
				c-0.118,0.015-0.284,0.112-0.286,0.235c-0.002,0.115,0.172,0.198,0.321,0.235c0.04,0.01,0.08,0.018,0.122,0.027
				c0.198,0.04,0.405,0.082,0.577,0.223c0.139,0.114,0.214,0.271,0.208,0.443c-0.005,0.18-0.102,0.354-0.258,0.466
				C33.234,19.605,33.034,19.667,32.823,19.667z M32.164,19.176c-0.001,0-0.003,0-0.005,0c-0.012,0.001-0.023,0.008-0.031,0.017
				c-0.007,0.009-0.011,0.021-0.009,0.033c0.002,0.012,0.008,0.022,0.017,0.03c0.155,0.122,0.399,0.268,0.687,0.271
				c0.181,0,0.352-0.052,0.481-0.147c0.121-0.087,0.196-0.22,0.2-0.357c0.004-0.127-0.052-0.245-0.156-0.33
				c-0.145-0.119-0.334-0.157-0.502-0.191c-0.058-0.012-0.101-0.021-0.142-0.031c-0.101-0.025-0.432-0.125-0.428-0.374
				c0.004-0.219,0.247-0.352,0.409-0.372c0.248-0.029,0.491,0.045,0.653,0.199c0.019,0.017,0.047,0.016,0.063-0.002
				c0.017-0.018,0.016-0.046-0.001-0.064c-0.184-0.174-0.453-0.257-0.726-0.223c-0.236,0.03-0.483,0.21-0.488,0.46
				c-0.004,0.216,0.178,0.385,0.497,0.463c0.04,0.01,0.082,0.019,0.124,0.027l0.021,0.004c0.172,0.035,0.334,0.068,0.463,0.172
				c0.083,0.068,0.127,0.16,0.124,0.258c-0.003,0.109-0.065,0.216-0.164,0.287c-0.113,0.084-0.265,0.13-0.427,0.13
				c-0.262-0.003-0.489-0.138-0.633-0.251C32.183,19.179,32.174,19.176,32.164,19.176z"/>
		</g>
		<g>
			<path class="st1" d="M32.812,17.788c-0.064,0-0.115-0.052-0.115-0.115v-0.262c0-0.064,0.052-0.115,0.115-0.115
				c0.064,0,0.115,0.052,0.115,0.115v0.262C32.927,17.736,32.875,17.788,32.812,17.788z"/>
			<path class="st1" d="M32.812,17.858c-0.102,0-0.185-0.083-0.185-0.185v-0.262c0-0.102,0.083-0.185,0.185-0.185
				c0.102,0,0.185,0.083,0.185,0.185v0.262C32.997,17.775,32.914,17.858,32.812,17.858z M32.812,17.366
				c-0.025,0-0.045,0.02-0.045,0.045v0.262c0,0.049,0.089,0.049,0.089,0v-0.262C32.856,17.386,32.836,17.366,32.812,17.366z"/>
		</g>
		<g>
			<path class="st1" d="M32.812,19.858c-0.064,0-0.115-0.052-0.115-0.115v-0.262c0-0.064,0.052-0.115,0.115-0.115
				c0.064,0,0.115,0.052,0.115,0.115v0.262C32.927,19.807,32.875,19.858,32.812,19.858z"/>
			<path class="st1" d="M32.812,19.929c-0.102,0-0.185-0.083-0.185-0.185v-0.262c0-0.102,0.083-0.185,0.185-0.185
				c0.102,0,0.185,0.083,0.185,0.185v0.262C32.997,19.846,32.914,19.929,32.812,19.929z M32.812,19.437
				c-0.025,0-0.045,0.02-0.045,0.045v0.262c0,0.049,0.089,0.049,0.089,0v-0.262C32.856,19.457,32.836,19.437,32.812,19.437z"/>
		</g>
	</g>
	<g>
		<path class="st243" d="M37.293,12.435h-1.179c-0.486,0-0.879,0.394-0.879,0.879v0h-1.899c-0.574,0-1.039,0.46-1.039,1.039h0.01
			h2.938h2.918v-1.049l0.005,0.005C38.168,12.823,37.779,12.435,37.293,12.435z"/>
	</g>
	<g>
		<path class="st0" d="M9.992,28.064c-0.365,0-0.662,0.297-0.662,0.662v9.807c0,0.365,0.297,0.662,0.662,0.662h14.257
			c0.365,0,0.662-0.297,0.662-0.662v-9.807c0-0.365-0.297-0.662-0.662-0.662H9.992z"/>
		<g>
			<path class="st142" d="M24.248,39.498H9.992c-0.532,0-0.965-0.433-0.965-0.965v-9.807c0-0.532,0.433-0.965,0.965-0.965h14.257
				c0.532,0,0.965,0.433,0.965,0.965v9.807C25.213,39.065,24.78,39.498,24.248,39.498z M9.992,28.064
				c-0.365,0-0.662,0.297-0.662,0.662v9.807c0,0.365,0.297,0.662,0.662,0.662h14.257c0.365,0,0.662-0.297,0.662-0.662v-9.807
				c0-0.365-0.297-0.662-0.662-0.662H9.992z"/>
		</g>
		<g>
			<g>
				<g>
					<path class="st142" d="M15.324,42.213c-0.084,0-0.152-0.068-0.152-0.152v-2.675c0-0.084,0.068-0.152,0.152-0.152
						c0.084,0,0.152,0.068,0.152,0.152v2.675C15.476,42.145,15.408,42.213,15.324,42.213z"/>
				</g>
				<g>
					<path class="st142" d="M18.909,42.213c-0.084,0-0.152-0.068-0.152-0.152v-2.675c0-0.084,0.068-0.152,0.152-0.152
						c0.084,0,0.152,0.068,0.152,0.152v2.675C19.061,42.145,18.993,42.213,18.909,42.213z"/>
				</g>
			</g>
			<g>
				<path class="st142" d="M20.434,42.222H13.8c-0.084,0-0.152-0.068-0.152-0.152s0.068-0.152,0.152-0.152h6.634
					c0.084,0,0.152,0.068,0.152,0.152S20.518,42.222,20.434,42.222z"/>
			</g>
		</g>
		<g>
			<path class="st142" d="M25.053,37.728H12.569c-0.084,0-0.152-0.068-0.152-0.152c0-0.084,0.068-0.152,0.152-0.152h12.484
				c0.084,0,0.152,0.068,0.152,0.152C25.204,37.66,25.137,37.728,25.053,37.728z"/>
		</g>
		<g>
			<path class="st244" d="M13.265,32.77h-2.479c-0.084,0-0.152-0.068-0.152-0.152s0.068-0.152,0.152-0.152h2.479
				c0.084,0,0.152,0.068,0.152,0.152S13.348,32.77,13.265,32.77z"/>
		</g>
		<g>
			<g>
				<path class="st142" d="M13.122,32.77h-2.479c-0.084,0-0.152-0.068-0.152-0.152s0.068-0.152,0.152-0.152h2.479
					c0.084,0,0.152,0.068,0.152,0.152S13.206,32.77,13.122,32.77z"/>
			</g>
			<g>
				<path class="st142" d="M23.573,32.77h-2.479c-0.084,0-0.152-0.068-0.152-0.152s0.068-0.152,0.152-0.152h2.479
					c0.084,0,0.152,0.068,0.152,0.152S23.656,32.77,23.573,32.77z"/>
			</g>
		</g>
		<g>
			<g>
				<circle class="st3" cx="17.038" cy="33.427" r="2.883"/>
			</g>
			<g>
				<circle class="st4" cx="17.038" cy="33.427" r="2.182"/>
			</g>
			<g>
				<path class="st5" d="M17.038,35.609c-1.203,0-2.182-0.979-2.182-2.182c0-1.203,0.979-2.182,2.182-2.182
					c1.203,0,2.182,0.979,2.182,2.182C19.22,34.631,18.241,35.609,17.038,35.609z"/>
			</g>
			<g>
				<path class="st1" d="M17.038,36.426c-1.653,0-2.998-1.345-2.998-2.998c0-1.653,1.345-2.998,2.998-2.998s2.998,1.345,2.998,2.998
					C20.036,35.081,18.691,36.426,17.038,36.426z M17.038,30.659c-1.527,0-2.768,1.242-2.768,2.768c0,1.527,1.242,2.768,2.768,2.768
					c1.526,0,2.768-1.242,2.768-2.768C19.806,31.901,18.564,30.659,17.038,30.659z"/>
				<path class="st1" d="M17.038,36.496c-1.692,0-3.069-1.377-3.069-3.069c0-1.692,1.377-3.069,3.069-3.069
					c1.692,0,3.069,1.376,3.069,3.069C20.107,35.119,18.73,36.496,17.038,36.496z M17.038,30.5c-1.614,0-2.928,1.313-2.928,2.928
					c0,1.614,1.314,2.928,2.928,2.928c1.614,0,2.928-1.314,2.928-2.928C19.966,31.813,18.653,30.5,17.038,30.5z M17.038,36.266
					c-1.565,0-2.839-1.273-2.839-2.839c0-1.565,1.273-2.838,2.839-2.838c1.565,0,2.838,1.273,2.838,2.838
					C19.877,34.993,18.603,36.266,17.038,36.266z M17.038,30.73c-1.488,0-2.698,1.21-2.698,2.698c0,1.488,1.21,2.698,2.698,2.698
					c1.487,0,2.698-1.21,2.698-2.698C19.736,31.94,18.526,30.73,17.038,30.73z"/>
			</g>
			<g>
				<path class="st1" d="M17.038,35.724c-1.267,0-2.297-1.03-2.297-2.297c0-1.267,1.031-2.297,2.297-2.297s2.297,1.03,2.297,2.297
					C19.335,34.694,18.305,35.724,17.038,35.724z M17.038,31.361c-1.14,0-2.067,0.927-2.067,2.067s0.927,2.067,2.067,2.067
					c1.139,0,2.067-0.927,2.067-2.067S18.178,31.361,17.038,31.361z"/>
				<path class="st1" d="M17.038,35.795c-1.305,0-2.368-1.062-2.368-2.367c0-1.305,1.062-2.367,2.368-2.367s2.367,1.062,2.367,2.367
					C19.405,34.733,18.343,35.795,17.038,35.795z M17.038,31.201c-1.228,0-2.227,0.999-2.227,2.226c0,1.228,0.999,2.226,2.227,2.226
					c1.228,0,2.226-0.999,2.226-2.226C19.265,32.2,18.266,31.201,17.038,31.201z M17.038,35.565c-1.179,0-2.138-0.959-2.138-2.137
					c0-1.178,0.959-2.137,2.138-2.137c1.178,0,2.137,0.959,2.137,2.137C19.175,34.606,18.216,35.565,17.038,35.565z M17.038,31.431
					c-1.101,0-1.997,0.896-1.997,1.996s0.896,1.996,1.997,1.996c1.101,0,1.996-0.896,1.996-1.996S18.139,31.431,17.038,31.431z"/>
			</g>
			<g>
				<path class="st1" d="M17.049,34.447c-0.308-0.003-0.567-0.157-0.73-0.286C16.269,34.122,16.26,34.049,16.3,34
					c0.04-0.05,0.112-0.059,0.161-0.019c0.135,0.106,0.347,0.234,0.589,0.236c0.146,0,0.284-0.042,0.386-0.117
					c0.082-0.059,0.132-0.146,0.134-0.233c0.002-0.077-0.032-0.147-0.098-0.202c-0.114-0.093-0.269-0.125-0.432-0.158
					c-0.05-0.01-0.1-0.02-0.148-0.032c-0.354-0.087-0.555-0.28-0.551-0.532c0.005-0.287,0.283-0.494,0.549-0.528
					c0.293-0.038,0.585,0.053,0.783,0.242c0.046,0.044,0.048,0.117,0.004,0.163s-0.117,0.047-0.163,0.004
					c-0.146-0.139-0.372-0.207-0.596-0.18c-0.144,0.018-0.345,0.134-0.348,0.304c-0.003,0.197,0.286,0.283,0.375,0.304
					c0.045,0.011,0.092,0.021,0.139,0.03c0.175,0.035,0.374,0.076,0.532,0.205c0.122,0.1,0.187,0.237,0.182,0.387
					c-0.005,0.158-0.09,0.312-0.229,0.411C17.431,34.389,17.246,34.447,17.049,34.447z"/>
				<path class="st1" d="M17.049,34.517L17.049,34.517c-0.329-0.003-0.602-0.166-0.774-0.301c-0.039-0.031-0.064-0.075-0.069-0.124
					c-0.006-0.049,0.008-0.098,0.039-0.137c0.031-0.039,0.076-0.064,0.125-0.07c0.049-0.004,0.097,0.009,0.135,0.039
					c0.126,0.099,0.324,0.219,0.546,0.221c0.131,0,0.253-0.036,0.343-0.103c0.065-0.046,0.104-0.113,0.106-0.178
					c0.002-0.056-0.023-0.104-0.072-0.145c-0.101-0.082-0.247-0.112-0.401-0.143l-0.022-0.004c-0.044-0.009-0.087-0.018-0.129-0.028
					c-0.389-0.095-0.609-0.314-0.605-0.602c0.006-0.326,0.315-0.559,0.611-0.597c0.313-0.042,0.626,0.057,0.841,0.261
					c0.074,0.07,0.077,0.188,0.007,0.262c-0.07,0.075-0.187,0.077-0.262,0.007c-0.13-0.124-0.338-0.184-0.539-0.162
					c-0.118,0.015-0.284,0.112-0.286,0.235c-0.002,0.115,0.172,0.198,0.321,0.235c0.04,0.01,0.08,0.018,0.122,0.027
					c0.198,0.04,0.405,0.082,0.577,0.223c0.139,0.114,0.214,0.271,0.208,0.443c-0.005,0.18-0.102,0.354-0.258,0.466
					C17.461,34.455,17.26,34.517,17.049,34.517z M16.39,34.026c-0.001,0-0.003,0-0.005,0c-0.012,0.001-0.023,0.008-0.031,0.017
					c-0.007,0.009-0.011,0.021-0.009,0.033c0.002,0.012,0.008,0.022,0.017,0.03c0.155,0.122,0.399,0.268,0.687,0.271
					c0.181,0,0.352-0.052,0.481-0.147c0.121-0.087,0.196-0.22,0.2-0.357c0.004-0.127-0.052-0.245-0.156-0.33
					c-0.145-0.119-0.335-0.157-0.502-0.191c-0.058-0.012-0.101-0.021-0.142-0.031c-0.101-0.025-0.432-0.125-0.428-0.374
					c0.004-0.219,0.247-0.352,0.409-0.372c0.248-0.029,0.491,0.045,0.653,0.199c0.019,0.017,0.047,0.016,0.063-0.002
					c0.017-0.018,0.016-0.046-0.001-0.064c-0.184-0.174-0.453-0.257-0.726-0.223c-0.236,0.03-0.483,0.21-0.488,0.46
					c-0.004,0.216,0.178,0.385,0.497,0.463c0.04,0.01,0.082,0.019,0.124,0.027l0.021,0.004c0.172,0.035,0.335,0.068,0.463,0.172
					c0.083,0.068,0.127,0.16,0.124,0.258c-0.003,0.109-0.065,0.216-0.164,0.287c-0.113,0.084-0.265,0.13-0.427,0.13
					c-0.262-0.003-0.489-0.138-0.633-0.251C16.41,34.029,16.4,34.026,16.39,34.026z"/>
			</g>
			<g>
				<path class="st1" d="M17.038,32.638c-0.064,0-0.115-0.052-0.115-0.115v-0.262c0-0.064,0.052-0.115,0.115-0.115
					c0.064,0,0.115,0.052,0.115,0.115v0.262C17.153,32.587,17.102,32.638,17.038,32.638z"/>
				<path class="st1" d="M17.038,32.709c-0.102,0-0.185-0.083-0.185-0.185v-0.262c0-0.102,0.083-0.185,0.185-0.185
					c0.102,0,0.185,0.083,0.185,0.185v0.262C17.224,32.626,17.14,32.709,17.038,32.709z M17.038,32.216
					c-0.025,0-0.045,0.02-0.045,0.045v0.262c0,0.049,0.089,0.049,0.089,0v-0.262C17.083,32.236,17.063,32.216,17.038,32.216z"/>
			</g>
			<g>
				<path class="st1" d="M17.038,34.709c-0.064,0-0.115-0.052-0.115-0.115v-0.262c0-0.064,0.052-0.115,0.115-0.115
					c0.064,0,0.115,0.052,0.115,0.115v0.262C17.153,34.657,17.102,34.709,17.038,34.709z"/>
				<path class="st1" d="M17.038,34.779c-0.102,0-0.185-0.083-0.185-0.185v-0.262c0-0.102,0.083-0.185,0.185-0.185
					c0.102,0,0.185,0.083,0.185,0.185v0.262C17.224,34.696,17.14,34.779,17.038,34.779z M17.038,34.287
					c-0.025,0-0.045,0.02-0.045,0.045v0.262c0,0.049,0.089,0.049,0.089,0v-0.262C17.083,34.307,17.063,34.287,17.038,34.287z"/>
			</g>
		</g>
	</g>
	<path class="st0" d="M31.06,33.901H19.176c-0.418,0-0.758-0.34-0.758-0.758V16.508c0-0.418,0.34-0.758,0.758-0.758H31.06
		c0.418,0,0.758,0.34,0.758,0.758v16.635C31.818,33.561,31.478,33.901,31.06,33.901z"/>
	<g>
		<path class="st142" d="M31.06,33.901H19.176c-0.418,0-0.758-0.34-0.758-0.758V16.508c0-0.418,0.34-0.758,0.758-0.758H31.06
			c0.418,0,0.758,0.34,0.758,0.758v16.635C31.818,33.561,31.478,33.901,31.06,33.901z M19.176,16.089
			c-0.231,0-0.418,0.188-0.418,0.418v16.635c0,0.231,0.188,0.418,0.418,0.418H31.06c0.231,0,0.418-0.188,0.418-0.418V16.508
			c0-0.231-0.188-0.418-0.418-0.418H19.176z"/>
	</g>
	<g>
		<path class="st142" d="M37.517,22.907h-5.868c-0.094,0-0.17-0.076-0.17-0.17c0-0.094,0.076-0.17,0.17-0.17h5.868
			c0.271,0,0.492-0.221,0.492-0.492v-7.721c0-0.094,0.076-0.17,0.17-0.17c0.094,0,0.17,0.076,0.17,0.17v7.721
			C38.349,22.533,37.975,22.907,37.517,22.907z"/>
	</g>
	<g>
		<g>
			<path class="st142" d="M26.428,15.955c-0.094,0-0.17-0.076-0.17-0.17v-0.77c0-0.459,0.373-0.832,0.832-0.832h5.207
				c0.094,0,0.17,0.076,0.17,0.17c0,0.094-0.076,0.17-0.17,0.17H27.09c-0.271,0-0.492,0.221-0.492,0.492v0.77
				C26.598,15.879,26.522,15.955,26.428,15.955z"/>
		</g>
		<g>
			<path class="st142" d="M38.173,14.513h-2.928c-0.094,0-0.17-0.076-0.17-0.17s0.076-0.17,0.17-0.17h2.758v-0.869
				c0-0.391-0.318-0.709-0.709-0.709h-1.179c-0.391,0-0.709,0.318-0.709,0.709c0,0.094-0.076,0.17-0.17,0.17h-1.899
				c-0.462,0-0.84,0.362-0.868,0.816c0.005,0.017,0.008,0.034,0.008,0.053c0,0.094-0.076,0.17-0.17,0.17h-0.01
				c-0.094,0-0.17-0.076-0.17-0.17c0-0.325,0.126-0.63,0.354-0.857c0.228-0.227,0.531-0.352,0.855-0.352h1.742
				c0.081-0.498,0.515-0.879,1.035-0.879h1.179c0.579,0,1.049,0.471,1.049,1.049v1.039C38.343,14.437,38.267,14.513,38.173,14.513z"
				/>
		</g>
	</g>
	<g>
		<g>
			<path class="st142" d="M21.22,19.869c-0.043,0-0.087-0.017-0.12-0.05l-0.539-0.539c-0.066-0.066-0.066-0.174,0-0.24
				c0.066-0.066,0.174-0.066,0.24,0l0.419,0.419l0.957-0.957c0.066-0.066,0.174-0.066,0.24,0c0.066,0.066,0.066,0.174,0,0.24
				l-1.078,1.078C21.307,19.852,21.264,19.869,21.22,19.869z"/>
		</g>
		<g>
			<g>
				<path class="st142" d="M29.549,19.849h-5.975c-0.094,0-0.17-0.076-0.17-0.17s0.076-0.17,0.17-0.17h5.975
					c0.094,0,0.17,0.076,0.17,0.17S29.643,19.849,29.549,19.849z"/>
			</g>
			<g>
				<path class="st142" d="M26.552,18.83h-2.978c-0.094,0-0.17-0.076-0.17-0.17s0.076-0.17,0.17-0.17h2.978
					c0.094,0,0.17,0.076,0.17,0.17S26.646,18.83,26.552,18.83z"/>
			</g>
		</g>
	</g>
	<g>
		<g>
			<path class="st142" d="M21.22,23.645c-0.043,0-0.087-0.017-0.12-0.05l-0.539-0.539c-0.066-0.066-0.066-0.174,0-0.24
				c0.066-0.066,0.174-0.066,0.24,0l0.419,0.419l0.957-0.957c0.066-0.066,0.174-0.066,0.24,0c0.066,0.066,0.066,0.174,0,0.24
				l-1.078,1.078C21.307,23.629,21.264,23.645,21.22,23.645z"/>
		</g>
		<g>
			<g>
				<path class="st142" d="M29.549,23.626h-5.975c-0.094,0-0.17-0.076-0.17-0.17c0-0.094,0.076-0.17,0.17-0.17h5.975
					c0.094,0,0.17,0.076,0.17,0.17C29.719,23.55,29.643,23.626,29.549,23.626z"/>
			</g>
			<g>
				<path class="st142" d="M26.552,22.607h-2.978c-0.094,0-0.17-0.076-0.17-0.17c0-0.094,0.076-0.17,0.17-0.17h2.978
					c0.094,0,0.17,0.076,0.17,0.17C26.722,22.531,26.646,22.607,26.552,22.607z"/>
			</g>
		</g>
	</g>
	<g>
		<g>
			<path class="st142" d="M21.22,27.422c-0.043,0-0.087-0.017-0.12-0.05l-0.539-0.539c-0.066-0.066-0.066-0.174,0-0.24
				c0.066-0.066,0.174-0.066,0.24,0l0.419,0.419l0.957-0.957c0.066-0.066,0.174-0.066,0.24,0c0.066,0.066,0.066,0.174,0,0.24
				l-1.078,1.078C21.307,27.406,21.264,27.422,21.22,27.422z"/>
		</g>
		<g>
			<g>
				<path class="st142" d="M29.549,27.383h-5.975c-0.094,0-0.17-0.076-0.17-0.17c0-0.094,0.076-0.17,0.17-0.17h5.975
					c0.094,0,0.17,0.076,0.17,0.17C29.719,27.307,29.643,27.383,29.549,27.383z"/>
			</g>
			<g>
				<path class="st142" d="M26.552,26.364h-2.978c-0.094,0-0.17-0.076-0.17-0.17c0-0.094,0.076-0.17,0.17-0.17h2.978
					c0.094,0,0.17,0.076,0.17,0.17C26.722,26.288,26.646,26.364,26.552,26.364z"/>
			</g>
		</g>
	</g>
	<g>
		<g>
			<path class="st142" d="M21.22,31.199c-0.043,0-0.087-0.017-0.12-0.05l-0.539-0.539c-0.066-0.066-0.066-0.174,0-0.24
				c0.066-0.066,0.174-0.066,0.24,0l0.419,0.419l0.957-0.957c0.066-0.066,0.174-0.066,0.24,0c0.066,0.066,0.066,0.174,0,0.24
				l-1.078,1.078C21.307,31.182,21.264,31.199,21.22,31.199z"/>
		</g>
		<g>
			<g>
				<path class="st142" d="M29.549,31.16h-5.975c-0.094,0-0.17-0.076-0.17-0.17s0.076-0.17,0.17-0.17h5.975
					c0.094,0,0.17,0.076,0.17,0.17S29.643,31.16,29.549,31.16z"/>
			</g>
			<g>
				<path class="st142" d="M26.552,30.141h-2.978c-0.094,0-0.17-0.076-0.17-0.17s0.076-0.17,0.17-0.17h2.978
					c0.094,0,0.17,0.076,0.17,0.17S26.646,30.141,26.552,30.141z"/>
			</g>
		</g>
	</g>
	<g>
		<g>
			<path class="st142" d="M35.405,29.482h-0.32c-0.094,0-0.17-0.076-0.17-0.17c0-0.094,0.076-0.17,0.17-0.17h0.32
				c0.094,0,0.17,0.076,0.17,0.17C35.575,29.405,35.499,29.482,35.405,29.482z"/>
		</g>
		<g>
			<path class="st142" d="M33.926,29.482h-0.3c-0.094,0-0.17-0.076-0.17-0.17c0-0.094,0.076-0.17,0.17-0.17h0.3
				c0.094,0,0.17,0.076,0.17,0.17C34.096,29.405,34.02,29.482,33.926,29.482z"/>
		</g>
	</g>
	<g>
		<g>
			<path class="st142" d="M39.162,19.329h-0.3c-0.094,0-0.17-0.076-0.17-0.17s0.076-0.17,0.17-0.17h0.3
				c0.094,0,0.17,0.076,0.17,0.17S39.256,19.329,39.162,19.329z"/>
		</g>
		<g>
			<path class="st142" d="M40.091,19.639c-0.094,0-0.17-0.076-0.17-0.17v-0.14h-0.14c-0.094,0-0.17-0.076-0.17-0.17
				s0.076-0.17,0.17-0.17h0.31c0.094,0,0.17,0.076,0.17,0.17v0.31C40.261,19.563,40.185,19.639,40.091,19.639z"/>
		</g>
		<g>
			<path class="st142" d="M40.091,28.033c-0.094,0-0.17-0.076-0.17-0.17v-0.64c0-0.094,0.076-0.17,0.17-0.17
				c0.094,0,0.17,0.076,0.17,0.17v0.64C40.261,27.957,40.185,28.033,40.091,28.033z M40.091,26.354c-0.094,0-0.17-0.076-0.17-0.17
				v-0.64c0-0.094,0.076-0.17,0.17-0.17c0.094,0,0.17,0.076,0.17,0.17v0.64C40.261,26.278,40.185,26.354,40.091,26.354z
				 M40.091,24.675c-0.094,0-0.17-0.076-0.17-0.17v-0.64c0-0.094,0.076-0.17,0.17-0.17c0.094,0,0.17,0.076,0.17,0.17v0.64
				C40.261,24.599,40.185,24.675,40.091,24.675z M40.091,22.997c-0.094,0-0.17-0.076-0.17-0.17v-0.64c0-0.094,0.076-0.17,0.17-0.17
				c0.094,0,0.17,0.076,0.17,0.17v0.64C40.261,22.92,40.185,22.997,40.091,22.997z M40.091,21.318c-0.094,0-0.17-0.076-0.17-0.17
				v-0.64c0-0.094,0.076-0.17,0.17-0.17c0.094,0,0.17,0.076,0.17,0.17v0.64C40.261,21.242,40.185,21.318,40.091,21.318z"/>
		</g>
		<g>
			<path class="st142" d="M40.091,29.482h-0.31c-0.094,0-0.17-0.076-0.17-0.17c0-0.094,0.076-0.17,0.17-0.17h0.14v-0.14
				c0-0.094,0.076-0.17,0.17-0.17c0.094,0,0.17,0.076,0.17,0.17v0.31C40.261,29.405,40.185,29.482,40.091,29.482z"/>
		</g>
		<g>
			<path class="st142" d="M38.742,29.482h-0.3c-0.094,0-0.17-0.076-0.17-0.17c0-0.094,0.076-0.17,0.17-0.17h0.3
				c0.094,0,0.17,0.076,0.17,0.17C38.912,29.405,38.836,29.482,38.742,29.482z"/>
		</g>
	</g>
	<g>
		<path class="st142" d="M36.92,30.91c-0.876,0-1.589-0.713-1.589-1.589c0-0.876,0.713-1.589,1.589-1.589s1.589,0.713,1.589,1.589
			C38.508,30.198,37.796,30.91,36.92,30.91z M36.92,28.073c-0.689,0-1.249,0.56-1.249,1.249c0,0.689,0.56,1.249,1.249,1.249
			c0.689,0,1.249-0.56,1.249-1.249C38.169,28.633,37.608,28.073,36.92,28.073z"/>
	</g>
	<g>
		<path class="st142" d="M13.472,25.934c-0.094,0-0.17-0.076-0.17-0.17v-0.62c0-0.094,0.076-0.17,0.17-0.17s0.17,0.076,0.17,0.17
			v0.62C13.642,25.858,13.566,25.934,13.472,25.934z M13.472,24.316c-0.094,0-0.17-0.076-0.17-0.17v-0.62
			c0-0.094,0.076-0.17,0.17-0.17s0.17,0.076,0.17,0.17v0.62C13.642,24.239,13.566,24.316,13.472,24.316z M13.472,22.697
			c-0.094,0-0.17-0.076-0.17-0.17v-0.62c0-0.094,0.076-0.17,0.17-0.17s0.17,0.076,0.17,0.17v0.62
			C13.642,22.621,13.566,22.697,13.472,22.697z M13.472,21.078c-0.094,0-0.17-0.076-0.17-0.17v-0.62c0-0.094,0.076-0.17,0.17-0.17
			s0.17,0.076,0.17,0.17v0.62C13.642,21.002,13.566,21.078,13.472,21.078z M13.472,19.459c-0.094,0-0.17-0.076-0.17-0.17v-0.62
			c0-0.094,0.076-0.17,0.17-0.17s0.17,0.076,0.17,0.17v0.62C13.642,19.383,13.566,19.459,13.472,19.459z"/>
	</g>
	<g>
		<path class="st142" d="M17.299,16.572h-0.62c-0.094,0-0.17-0.076-0.17-0.17s0.076-0.17,0.17-0.17h0.62
			c0.094,0,0.17,0.076,0.17,0.17S17.393,16.572,17.299,16.572z M15.68,16.572h-0.62c-0.094,0-0.17-0.076-0.17-0.17
			s0.076-0.17,0.17-0.17h0.62c0.094,0,0.17,0.076,0.17,0.17S15.774,16.572,15.68,16.572z"/>
	</g>
	<g>
		<path class="st142" d="M37.034,20.538c-0.094,0-0.17-0.076-0.17-0.17v-4.576c0-0.094,0.076-0.17,0.17-0.17
			c0.094,0,0.17,0.076,0.17,0.17v4.576C37.203,20.462,37.127,20.538,37.034,20.538z"/>
	</g>
	<g>
		<path class="st142" d="M9.734,20.283c-0.322,0-0.585-0.262-0.585-0.585s0.262-0.585,0.585-0.585c0.322,0,0.585,0.262,0.585,0.585
			S10.056,20.283,9.734,20.283z M9.734,19.454c-0.135,0-0.245,0.11-0.245,0.245c0,0.135,0.11,0.245,0.245,0.245
			s0.245-0.11,0.245-0.245C9.979,19.564,9.869,19.454,9.734,19.454z"/>
	</g>
	<polyline class="st245" points="36.742,28.773 37.256,29.316 36.752,29.77 	"/>
	<g>
		<path class="st142" d="M12.153,16.952c0-0.876,0.713-1.589,1.589-1.589s1.589,0.713,1.589,1.589s-0.713,1.589-1.589,1.589
			S12.153,17.828,12.153,16.952z M14.991,16.952c0-0.689-0.56-1.249-1.249-1.249s-1.249,0.56-1.249,1.249s0.56,1.249,1.249,1.249
			S14.991,17.64,14.991,16.952z"/>
	</g>
	<polyline class="st245" points="14.291,16.774 13.748,17.288 13.293,16.784 	"/>
</g>
</svg>
