<svg xmlns="http://www.w3.org/2000/svg" width="120.25" height="120.25" viewBox="0 0 120.25 120.25"><path fill="#EDEDED" d="M60.334 117.001c-31.614 0-57.334-25.72-57.334-57.333 0-31.614 25.72-57.334 57.334-57.334 31.613 0 57.333 25.72 57.333 57.334 0 31.613-25.72 57.333-57.333 57.333zm0-108.667c-28.306 0-51.334 23.028-51.334 51.334 0 28.305 23.028 51.333 51.334 51.333 28.305 0 51.333-23.028 51.333-51.333 0-28.306-23.028-51.334-51.333-51.334z"/><path fill="#F7F7F7" d="M58 25h3.922l9.946 22.895 14.14-11.151 28.387 28.386c.18-1.797.272-3.616.272-5.461 0-30.008-24.326-54.334-54.333-54.334-30.008-.001-54.334 24.325-54.334 54.333 0 30.007 24.326 54.333 54.334 54.333 1.54 0 3.061-.08 4.568-.206l-32.649-32.656 25.747-56.139zm56.395 40.129l-28.387-28.386-14.14 11.151-9.946-22.894h-3.922l-25.747 56.139 32.649 32.656c26.063-2.171 46.903-22.725 49.493-48.666z"/><linearGradient id="a" gradientUnits="userSpaceOnUse" x1="-17.565" y1="62.243" x2="47.893" y2="-3.215" gradientTransform="matrix(1 0 0 -1 59.16 103.65)"><stop offset="0" stop-opacity=".4"/><stop offset=".111" stop-color="#151515" stop-opacity=".355"/><stop offset=".339" stop-color="#4B4B4B" stop-opacity=".264"/><stop offset=".667" stop-color="#A2A2A2" stop-opacity=".132"/><stop offset=".995" stop-color="#fff" stop-opacity="0"/></linearGradient><path fill="url(#a)" d="M86.008 36.743l-.304.239c5.467 6.102 8.796 14.16 8.796 22.998 0 19.042-15.438 34.479-34.479 34.479-11.269 0-21.272-5.406-27.564-13.768l-.204.445 32.649 32.657c26.063-2.171 46.902-22.726 49.49-48.666l-28.384-28.384z"/><path fill="#FFBA34" d="M61.922 25.178v32.917h32.916c-.928-17.736-15.181-31.989-32.916-32.917z"/><path fill="#F8786B" d="M62.695 61.891l17.736 26.332c8.209-5.961 13.786-15.488 14.33-26.332h-32.066z"/><path fill="#91A8D1" d="M58.127 25.178c-18.434 1.007-32.995 16.188-32.995 34.854 0 19.285 15.645 34.855 34.853 34.855 6.273 0 12.162-1.705 17.271-4.57l-19.129-28.426v-36.713z"/></svg>