<?xml version="1.0" encoding="utf-8"?>
<!-- Generator: Adobe Illustrator 22.0.1, SVG Export Plug-In . SVG Version: 6.00 Build 0)  -->
<svg version="1.1" xmlns="http://www.w3.org/2000/svg" xmlns:xlink="http://www.w3.org/1999/xlink" x="0px" y="0px"
	 viewBox="0 0 64 64" style="enable-background:new 0 0 64 64;" xml:space="preserve">
<style type="text/css">
	.st0{fill:#FFFFFF;}
	.st1{fill:#249658;}
	.st2{fill:#333333;}
	.st3{display:none;}
	.st4{fill:none;}
	.st5{fill-rule:evenodd;clip-rule:evenodd;fill:#333333;}
	.st6{fill:#EA493D;}
	.st7{fill:#FAB100;}
	.st8{fill:#E2F7E4;}
	.st9{fill:#C97506;}
	.st10{display:inline;}
</style>
<g id="Layer_1">
	<g>
		<path class="st7" d="M32,63c17.1,0,31-13.9,31-31S49.1,1,32,1S1,14.9,1,32S14.9,63,32,63z"/>
		<g>
			<path class="st0" d="M32,20.8c2.3,0,4.2-1.9,4.2-4.2c0-2.3-1.9-4.2-4.2-4.2c-2.3,0-4.2,1.9-4.2,4.2C27.8,18.9,29.7,20.8,32,20.8z
				"/>
			<path class="st0" d="M29,48.3v2.3c0,1.7,1.3,3,3,3c0.8,0,1.6-0.3,2.1-0.9c0.5-0.5,0.9-1.3,0.9-2.1v-2.3v-8V28c0-1.7-1.3-3-3-3
				c-1.7,0-3,1.3-3,3v12.3V48.3z"/>
		</g>
	</g>
</g>
<g id="Layer_2" class="st3">
</g>
</svg>
