<svg xmlns="http://www.w3.org/2000/svg" xmlns:xlink="http://www.w3.org/1999/xlink" viewBox="0 0 24 24" enable-background="new 0 0 24 24"><style type="text/css">.st0{fill:#9ECFEF;} .st1{fill:#595959;} .st2{fill:#FFFFFF;} .st3{fill:#595959;stroke:#FFFFFF;stroke-width:0.25;stroke-miterlimit:10;} .st4{fill:#FFFFFF;stroke:#333333;stroke-width:0.25;stroke-miterlimit:10;} .st5{fill:#97C9E8;} .st6{fill:#595959;stroke:#595959;stroke-width:0.25;stroke-miterlimit:10;} .st7{fill:none;} .st8{fill:#595959;stroke:#FFFFFF;stroke-width:0.1916;stroke-miterlimit:10;} .st9{fill:#595959;stroke:#595959;stroke-width:0.2196;stroke-miterlimit:10;} .st10{fill:#FFFFFF;stroke:#595959;stroke-width:0.2196;stroke-miterlimit:10;} .st11{fill:#9ECFEF;stroke:#595959;stroke-width:0.25;stroke-miterlimit:10;} .st12{fill:#CA589D;} .st13{opacity:0.2;fill:#CA589D;} .st14{fill:#3CAF85;} .st15{fill:none;stroke:#2C3251;stroke-width:0.75;stroke-miterlimit:10;} .st16{fill:#595959;stroke:#FFFFFF;stroke-width:0.2467;stroke-miterlimit:10;} .st17{fill:#9ECFEF;stroke:#595959;stroke-width:0.5;stroke-miterlimit:10;} .st18{fill:#595959;stroke:#FFFFFF;stroke-width:0.4959;stroke-miterlimit:10;} .st19{fill:#595959;stroke:#595959;stroke-width:0.2246;stroke-miterlimit:10;} .st20{fill:none;stroke:#595959;stroke-width:0.7572;stroke-miterlimit:10;} .st21{fill:#595959;stroke:#595959;stroke-width:0.5;stroke-miterlimit:10;} .st22{fill:#595959;stroke:#595959;stroke-width:0.2986;stroke-miterlimit:10;} .st23{fill:#9ECFEF;stroke:#595959;stroke-width:0.75;stroke-miterlimit:10;} .st24{fill:#9ECEEE;stroke:#9ECEEE;stroke-width:0.75;stroke-miterlimit:10;} .st25{fill-rule:evenodd;clip-rule:evenodd;fill:#9ECFEF;} .st26{fill:none;stroke:#595959;stroke-miterlimit:10;} .st27{fill:none;stroke:#595959;stroke-width:0.9161;stroke-miterlimit:10;} .st28{fill:#B3B3B3;} .st29{fill:none;stroke:#324044;stroke-width:0.75;stroke-miterlimit:10;} .st30{fill:none;stroke:#FFFFFF;stroke-width:0.75;stroke-miterlimit:10;} .st31{fill:#FFFFFF;stroke:#FFFFFF;stroke-width:0.25;stroke-miterlimit:10;} .st32{fill:none;stroke:#2C3251;stroke-width:0.4222;stroke-miterlimit:10;} .st33{fill-rule:evenodd;clip-rule:evenodd;fill:#595959;stroke:#595959;stroke-width:0.5781;stroke-miterlimit:10;} .st34{fill:#595959;stroke:#595959;stroke-width:0.1786;stroke-miterlimit:10;} .st35{fill:#FFFFFF;stroke:#FFFFFF;stroke-width:0.2467;stroke-miterlimit:10;} .st36{fill-rule:evenodd;clip-rule:evenodd;fill:#595959;} .st37{fill-rule:evenodd;clip-rule:evenodd;fill:#FFFFFF;} .st38{clip-path:url(#SVGID_2_);} .st39{clip-path:url(#SVGID_4_);fill:#9ECFEF;} .st40{clip-path:url(#SVGID_6_);} .st41{clip-path:url(#SVGID_8_);fill:#9ECFEF;} .st42{clip-path:url(#SVGID_10_);} .st43{clip-path:url(#SVGID_12_);fill:#595959;} .st44{clip-path:url(#SVGID_14_);} .st45{clip-path:url(#SVGID_16_);fill:#595959;} .st46{clip-path:url(#SVGID_18_);} .st47{clip-path:url(#SVGID_20_);fill:#595959;} .st48{fill:none;stroke:#324044;stroke-width:0.7863;stroke-miterlimit:10;} .st49{fill:#FFFFFF;stroke:#FFFFFF;stroke-width:0.1017;stroke-linecap:round;stroke-linejoin:round;stroke-miterlimit:10;} .st50{fill:none;stroke:#FFFFFF;stroke-width:0.4;stroke-linecap:round;stroke-linejoin:round;stroke-miterlimit:10;} .st51{fill:#FFFFFF;stroke:#FFFFFF;stroke-width:0.1017;stroke-miterlimit:10;} .st52{fill:#FFFFFF;stroke:#FFFFFF;stroke-width:0.2937;stroke-miterlimit:10;}</style><defs><path id="SVGID_1_" d="M-24.5-21h11c.276 0 .5-.224.5-.5v-17c0-.276-.224-.5-.5-.5h-11c-.276 0-.5.224-.5.5v17c0 .276.224.5.5.5z"/></defs><clipPath id="SVGID_2_"><use xlink:href="#SVGID_1_" overflow="visible"/></clipPath><g class="st38"><defs><path id="SVGID_3_" d="M-41-301h320v697h-320z"/></defs><clipPath id="SVGID_4_"><use xlink:href="#SVGID_3_" overflow="visible"/></clipPath></g><defs><circle id="SVGID_5_" cx="-19" cy="-30" r="3"/></defs><use xlink:href="#SVGID_5_" overflow="visible" fill-rule="evenodd" clip-rule="evenodd" fill="#9ECFEF"/><clipPath id="SVGID_6_"><use xlink:href="#SVGID_5_" overflow="visible"/></clipPath><g class="st40"><defs><path id="SVGID_7_" d="M-41-301h320v697h-320z"/></defs><use xlink:href="#SVGID_7_" overflow="visible" fill="#9ECFEF"/><clipPath id="SVGID_8_"><use xlink:href="#SVGID_7_" overflow="visible"/></clipPath></g><defs><path id="SVGID_9_" d="M-9.125-29.795c-2.036 3.36-5.82 5.447-9.875 5.447s-7.839-2.087-9.875-5.447l-.125-.205.125-.205c2.036-3.36 5.82-5.447 9.875-5.447s7.839 2.087 9.875 5.447l.125.205-.125.205zm-4.908-.205c0-2.671-2.228-4.845-4.967-4.845s-4.966 2.173-4.966 4.845c0 2.671 2.228 4.845 4.966 4.845s4.967-2.174 4.967-4.845zm-14.002 0c1.194 1.865 2.978 3.286 5.043 4.093-1.11-1.03-1.802-2.484-1.802-4.093s.693-3.063 1.802-4.093c-2.065.807-3.849 2.228-5.043 4.093zm13.027-4.093c1.11 1.03 1.802 2.484 1.802 4.093s-.693 3.063-1.802 4.093c2.065-.807 3.849-2.228 5.043-4.093-1.194-1.865-2.978-3.286-5.043-4.093z"/></defs><clipPath id="SVGID_10_"><use xlink:href="#SVGID_9_" overflow="visible"/></clipPath><g class="st42"><defs><path id="SVGID_11_" d="M-41-301h320v697h-320z"/></defs><clipPath id="SVGID_12_"><use xlink:href="#SVGID_11_" overflow="visible"/></clipPath></g><defs><path id="SVGID_13_" d="M-25.57-20.214c0 .223.183.404.409.404h10.267v-1.215c0-.672.554-1.22 1.234-1.22h1.23v-2.841h.821v2.911c0 .325-.128.631-.36.86l-1.984 1.961c-.233.229-.542.356-.87.356h-10.338c-.679 0-1.23-.546-1.23-1.216v-4.871h.821v4.871zm12.559-1.219h-.649c-.228 0-.413.183-.413.408v.642l1.062-1.05z"/></defs><clipPath id="SVGID_14_"><use xlink:href="#SVGID_13_" overflow="visible"/></clipPath><g class="st44"><defs><path id="SVGID_15_" d="M-41-299.998h320v697h-320z"/></defs><clipPath id="SVGID_16_"><use xlink:href="#SVGID_15_" overflow="visible"/></clipPath></g><defs><path id="SVGID_17_" d="M-12.43-39.793c0-.216-.184-.393-.409-.393h-12.322c-.226 0-.409.176-.409.393v3.167h-.821v-3.167c0-.651.552-1.181 1.23-1.181h12.322c.679 0 1.23.53 1.23 1.181v3.166h-.821v-3.166"/></defs><clipPath id="SVGID_18_"><use xlink:href="#SVGID_17_" overflow="visible"/></clipPath><g class="st46"><defs><path id="SVGID_19_" d="M-41-301.974h320v697h-320z"/></defs><clipPath id="SVGID_20_"><use xlink:href="#SVGID_19_" overflow="visible"/></clipPath></g><g id="loans-icon"><path id="Rectangle-path" class="st2" d="M6.788 20.858h2.067v.691h-2.067z"/><path id="Shape" class="st2" d="M1.26 1.975v9.029c0 .281.235.507.524.507h2.751c.29 0 .524.227.524.507v3.169c0 .701.458 1.307 1.093 1.553.185.072.292.261.292.454v1.66h-1.385v3.677h.673v-2.48c0-.281.235-.507.524-.507h8.648c.29 0 .524.227.524.507v2.48h.683v-3.677h-1.356v-1.659c0-.192.106-.382.29-.454.636-.245 1.066-.852 1.066-1.554v-3.169c0-.281.235-.507.524-.507h5.531c.29 0 .524-.227.524-.507v-9.029c0-.281-.235-.507-.524-.507h-20.382c-.29 0-.524.227-.524.507zm13.14 14.228h-.356v2.145c0 .281-.235.507-.524.507h-5.868c-.29 0-.524-.227-.524-.507v-.986c0-.281.235-.507.524-.507h5.373v-.651h-5.719c-.866 0-1.573-.686-1.573-1.522v-2.662c0-.281.235-.507.524-.507h3.8c.29 0 .524.227.524.507v1.819h.722v-2.219c0-.169.087-.327.233-.421l1.603-1.039c.145-.094.233-.253.233-.421v-2.095c0-.82.687-1.484 1.534-1.484.29 0 .524.227.524.507v8.521h.01c-.001.556-.466 1.015-1.04 1.015zm7.085-5.39h-4.849c-.29 0-.524-.227-.524-.507v-4.328c0-.281-.235-.507-.524-.507h-1.435l.01.01c-.425.057-.801.259-1.069.555l-.01.01-.04.038-.04.057h-.01c-.109.153-.208.316-.267.498l-.02.077v.01l-.02.067v.01l-.01.067-.01.019v.057l-.01.019v.08600000000000001l-.01.086v1.235h.01v1.197h-.01v.086l-1.679 1.074c-.086.055-.186.084-.289.084h-8.212c-.29 0-.524-.227-.524-.507v-7.679c0-.281.235-.507.524-.507h19.018c.29 0 .524.227.524.507v7.679c0 .28-.234.507-.524.507z"/><path id="Shape_1_" class="st2" d="M14.747 5.097h-.831c-.119-.163-.258-.307-.416-.431l-.03-.019-.02-.019c-.416-.306-.92-.488-1.474-.488-1.326 0-2.414 1.053-2.414 2.346l.02.316v.038l.01.029c.178 1.034 1.049 1.838 2.137 1.944l.237.019.257-.019v.67l-.139.01h-.119c-1.712 0-3.107-1.35-3.107-3.006 0-1.666 1.405-3.016 3.117-3.016 1.178-.002 2.247.64 2.772 1.626z"/><path id="Shape_2_" class="st2" d="M4.006 4.124h1.729v-.655h-2.406v1.674h.677z"/><path id="Shape_3_" class="st2" d="M5.735 8.816h-1.729v-.982h-.677v1.675h2.406z"/><path id="Shape_4_" class="st2" d="M19.946 5.143h.677v-1.674h-2.406v.655h1.729z"/><path id="Shape_5_" class="st2" d="M20.623 7.834h-.677v.982h-1.729v.693h2.406z"/></g></svg>