<svg xmlns="http://www.w3.org/2000/svg" viewBox="0 0 24 24" enable-background="new 0 0 24 24"><style type="text/css">.st0{fill:#9ECFEF;} .st1{fill:#595959;} .st2{fill:#FFFFFF;} .st3{fill:#595959;stroke:#FFFFFF;stroke-width:0.25;stroke-miterlimit:10;} .st4{fill:#FFFFFF;stroke:#333333;stroke-width:0.25;stroke-miterlimit:10;} .st5{fill:#97C9E8;} .st6{fill:#595959;stroke:#595959;stroke-width:0.25;stroke-miterlimit:10;} .st7{fill:none;} .st8{fill:#595959;stroke:#FFFFFF;stroke-width:0.1916;stroke-miterlimit:10;} .st9{fill:#595959;stroke:#595959;stroke-width:0.2196;stroke-miterlimit:10;} .st10{fill:#FFFFFF;stroke:#595959;stroke-width:0.2196;stroke-miterlimit:10;} .st11{fill:#9ECFEF;stroke:#595959;stroke-width:0.25;stroke-miterlimit:10;} .st12{fill:#CA589D;} .st13{opacity:0.2;fill:#CA589D;} .st14{fill:#3CAF85;} .st15{fill:none;stroke:#2C3251;stroke-width:0.75;stroke-miterlimit:10;} .st16{fill:#595959;stroke:#FFFFFF;stroke-width:0.2467;stroke-miterlimit:10;} .st17{fill:#9ECFEF;stroke:#595959;stroke-width:0.5;stroke-miterlimit:10;} .st18{fill:#595959;stroke:#FFFFFF;stroke-width:0.4959;stroke-miterlimit:10;} .st19{fill:#595959;stroke:#595959;stroke-width:0.2246;stroke-miterlimit:10;} .st20{fill:none;stroke:#595959;stroke-width:0.7572;stroke-miterlimit:10;} .st21{fill:#595959;stroke:#595959;stroke-width:0.5;stroke-miterlimit:10;} .st22{fill:#FFFFFF;stroke:#FFFFFF;stroke-width:0.25;stroke-miterlimit:10;} .st23{fill:none;stroke:#FFFFFF;stroke-width:0.6;stroke-miterlimit:10;} .st24{fill:none;stroke:#FFFFFF;stroke-width:0.3;stroke-miterlimit:10;} .st25{fill:#FFFFFF;stroke:#FFFFFF;stroke-width:0.5;stroke-miterlimit:10;} .st26{fill:#595959;stroke:#595959;stroke-width:0.2986;stroke-miterlimit:10;} .st27{fill:#9ECFEF;stroke:#595959;stroke-width:0.75;stroke-miterlimit:10;} .st28{fill:#9ECEEE;stroke:#9ECEEE;stroke-width:0.75;stroke-miterlimit:10;} .st29{fill-rule:evenodd;clip-rule:evenodd;fill:#9ECFEF;} .st30{fill:none;stroke:#595959;stroke-miterlimit:10;} .st31{fill:none;stroke:#595959;stroke-width:0.9161;stroke-miterlimit:10;} .st32{fill:#B3B3B3;} .st33{fill:none;stroke:#324044;stroke-width:0.75;stroke-miterlimit:10;} .st34{fill:none;stroke:#FFFFFF;stroke-width:0.75;stroke-miterlimit:10;} .st35{fill:none;stroke:#2C3251;stroke-width:0.4222;stroke-miterlimit:10;} .st36{fill-rule:evenodd;clip-rule:evenodd;fill:#595959;stroke:#595959;stroke-width:0.5781;stroke-miterlimit:10;} .st37{fill:#595959;stroke:#595959;stroke-width:0.1786;stroke-miterlimit:10;} .st38{fill:#FFFFFF;stroke:#FFFFFF;stroke-width:0.2467;stroke-miterlimit:10;} .st39{fill-rule:evenodd;clip-rule:evenodd;fill:#595959;} .st40{fill-rule:evenodd;clip-rule:evenodd;fill:#FFFFFF;} .st41{clip-path:url(#SVGID_2_);} .st42{clip-path:url(#SVGID_4_);fill:#9ECFEF;} .st43{clip-path:url(#SVGID_6_);} .st44{clip-path:url(#SVGID_8_);fill:#9ECFEF;} .st45{clip-path:url(#SVGID_10_);} .st46{clip-path:url(#SVGID_12_);fill:#595959;} .st47{clip-path:url(#SVGID_14_);} .st48{clip-path:url(#SVGID_16_);fill:#595959;} .st49{clip-path:url(#SVGID_18_);} .st50{clip-path:url(#SVGID_20_);fill:#595959;}</style><path class="st0" d="M2.414 10.396h14.726v8.523h-14.726z"/><path class="st1" d="M18.215 20.253h-16.842c-.246 0-.445-.199-.445-.445v-10.372c0-.246.199-.445.445-.445h16.842c.246 0 .445.199.445.445v10.372c0 .246-.199.445-.445.445zm-16.397-.889h15.952v-9.483h-15.952v9.483z"/><path class="st0" d="M5.751 5.65h16.84v10.372h-16.84z"/><path class="st1" d="M22.591 16.466h-16.84c-.246 0-.445-.199-.445-.445v-10.371c0-.246.199-.445.445-.445h16.84c.246 0 .445.199.445.445v10.372c0 .245-.199.444-.445.444zm-16.395-.889h15.95v-9.483h-15.95v9.483z"/><path class="st2" d="M22.591 5.65v1.16l-7.244 4.482c-.729.451-1.652.451-2.381 0l-7.215-4.466v-1.176h16.84z"/><path class="st1" d="M14.157 12.075c-.504 0-.996-.14-1.424-.405l-7.216-4.466c-.131-.081-.21-.224-.21-.378v-1.176c0-.246.199-.445.444-.445h16.84c.246 0 .445.199.445.445v1.16c0 .154-.08.297-.211.378l-7.244 4.482c-.428.265-.92.405-1.424.405zm-7.962-5.497l7.005 4.336c.575.356 1.338.356 1.913 0l7.033-4.351v-.469h-15.951v.484zM1.373 12.688c-.161 0-.316-.087-.395-.24-.113-.218-.028-.486.19-.599l1.827-.946c.217-.113.487-.028.599.19.113.218.028.486-.19.599l-1.827.946-.204.05zM1.373 14.553c-.161 0-.316-.087-.395-.24-.113-.218-.028-.486.19-.599l1.827-.946c.217-.113.487-.028.599.19.113.218.028.486-.19.599l-1.827.946-.204.05zM1.373 16.418c-.161 0-.316-.088-.395-.24-.113-.218-.028-.486.19-.599l1.827-.946c.217-.113.487-.028.599.19.113.218.028.486-.19.599l-1.827.946-.204.05zM1.373 18.284c-.161 0-.316-.087-.395-.24-.113-.218-.028-.486.19-.599l1.827-.946c.217-.113.487-.028.599.19.113.218.028.486-.19.599l-1.827.946-.204.05zM16.523 15.067c-.831 0-1.506-.675-1.506-1.506s.676-1.506 1.506-1.506 1.506.676 1.506 1.506c0 .831-.676 1.506-1.506 1.506z"/><circle class="st2" cx="16.523" cy="13.561" r=".617"/><path class="st1" d="M20.917 13.449c-.39 0-.765-.176-1.056-.312-.567-.265-.712-.284-.868-.111-.164.182-.445.197-.628.033-.182-.164-.197-.445-.033-.628.628-.698 1.397-.338 1.906-.099.576.271.736.29.905.115.171-.177.452-.182.629-.012.177.171.182.452.011.629-.276.287-.575.385-.866.385zM20.917 14.821c-.39 0-.766-.176-1.056-.313-.567-.266-.712-.284-.868-.111-.164.183-.445.198-.628.033-.183-.164-.197-.445-.033-.628.628-.698 1.397-.338 1.906-.099.576.27.736.29.906.115.17-.176.452-.181.628-.011.177.171.182.452.011.629-.276.286-.575.385-.866.385z"/></svg>