<svg id="Layer_1" data-name="Layer 1" xmlns="http://www.w3.org/2000/svg" xmlns:xlink="http://www.w3.org/1999/xlink" viewBox="0 0 50 50"><defs><style>.cls-1,.cls-2{fill:none;}.cls-1{clip-rule:evenodd;}.cls-3{fill:#fff;}.cls-4{fill:#414042;}.cls-5{fill:#9ecfef;}.cls-6{fill:#ffce44;}.cls-7{fill:#ffe167;}.cls-8{fill:#f5cc73;}.cls-9{clip-path:url(#clip-path);}.cls-10{clip-path:url(#clip-path-2);}.cls-11{clip-path:url(#clip-path-3);}.cls-12{clip-path:url(#clip-path-4);}.cls-13{clip-path:url(#clip-path-5);}.cls-14{clip-path:url(#clip-path-7);}.cls-15{clip-path:url(#clip-path-9);}.cls-16{clip-path:url(#clip-path-11);}.cls-17{clip-path:url(#clip-path-12);}.cls-18{clip-path:url(#clip-path-13);}.cls-19{clip-path:url(#clip-path-15);}.cls-20{clip-path:url(#clip-path-16);}.cls-21{clip-path:url(#clip-path-17);}</style><clipPath id="clip-path"><path class="cls-1" d="M4.69,41.87v-.58h.58a.39.39,0,0,0,.39-.4.38.38,0,0,0-.39-.39H4.69v-.58a.4.4,0,1,0-.79,0v.58H3.32a.39.39,0,0,0-.4.39.4.4,0,0,0,.4.4H3.9v.58a.4.4,0,0,0,.79,0"/></clipPath><clipPath id="clip-path-2"><rect class="cls-2" x="2.92" y="9.06" width="44.78" height="35.34"/></clipPath><clipPath id="clip-path-3"><path class="cls-1" d="M2.86,19.13H4.21a.47.47,0,0,0,0-.92H2.86a.47.47,0,0,0,0,.92"/></clipPath><clipPath id="clip-path-4"><rect class="cls-2" x="2.16" y="6.64" width="44.78" height="35.34"/></clipPath><clipPath id="clip-path-5"><path class="cls-1" d="M6.32,17.91a.44.44,0,0,0,.41-.46A.43.43,0,0,0,6.32,17H4.7a.43.43,0,0,0-.41.45.44.44,0,0,0,.41.46Z"/></clipPath><clipPath id="clip-path-7"><path class="cls-1" d="M25.7,8.55h.75V9.3a.39.39,0,0,0,.77,0V8.55H28a.39.39,0,0,0,.39-.39A.38.38,0,0,0,28,7.78h-.75V7a.39.39,0,0,0-.77,0v.76H25.7a.38.38,0,0,0-.39.38.39.39,0,0,0,.39.39"/></clipPath><clipPath id="clip-path-9"><path class="cls-1" d="M44.89,21.64h.45v.45a.38.38,0,1,0,.76,0v-.45h.46a.38.38,0,0,0,0-.76H46.1v-.46a.38.38,0,0,0-.76,0v.46h-.45a.38.38,0,1,0,0,.76"/></clipPath><clipPath id="clip-path-11"><path class="cls-1" d="M48.22,28.06a.43.43,0,0,0-.41-.46H45a.46.46,0,0,0,0,.91h2.84a.43.43,0,0,0,.41-.45"/></clipPath><clipPath id="clip-path-12"><rect class="cls-2" x="3.44" y="-3.17" width="44.78" height="35.34"/></clipPath><clipPath id="clip-path-13"><path class="cls-1" d="M34.53,10.6H36.2a.47.47,0,0,0,0-.92H34.53a.47.47,0,0,0,0,.92"/></clipPath><clipPath id="clip-path-15"><path class="cls-1" d="M85,18.21v.31a4.23,4.23,0,0,0,1.21-.31Z"/></clipPath><clipPath id="clip-path-16"><path class="cls-1" d="M84.35,17.23h3L87.7,17V15.67a1.35,1.35,0,0,0-1.35-1.35h-2a2,2,0,0,0,.87-.21,1.89,1.89,0,0,0,1-1.65,1.87,1.87,0,1,0-2.71,1.66,1.83,1.83,0,0,0,.84.2h-2A1.34,1.34,0,0,0,81,15.67V17a5.07,5.07,0,0,0,3,1.21v-.6a.38.38,0,0,1,.39-.38"/></clipPath><clipPath id="clip-path-17"><rect class="cls-2" x="81" y="14.26" width="26.91" height="27.87"/></clipPath></defs><title>1</title><path class="cls-3" d="M31.89,39.52v-.61a.54.54,0,0,0-.54-.54H18.75a.54.54,0,0,0-.54.54v.61H31.89Z"/><path class="cls-4" d="M31.89,39.69H18.21a.17.17,0,0,1-.16-.17v-.61a.7.7,0,0,1,.7-.71h12.6a.71.71,0,0,1,.71.71v.61A.18.18,0,0,1,31.89,39.69Zm-13.51-.33H31.73v-.45a.38.38,0,0,0-.38-.38H18.75a.37.37,0,0,0-.37.38Z"/><path class="cls-4" d="M31.89,39.79H18.21a.27.27,0,0,1-.26-.27v-.61a.8.8,0,0,1,.8-.81h12.6a.81.81,0,0,1,.81.81v.61A.27.27,0,0,1,31.89,39.79ZM18.75,38.3a.61.61,0,0,0-.6.61v.61a.06.06,0,0,0,.06.06H31.89s.07,0,.07-.06v-.61a.62.62,0,0,0-.61-.61Zm13.08,1.16H18.28v-.55a.48.48,0,0,1,.47-.48h12.6a.49.49,0,0,1,.48.48Zm-13.35-.2H31.63v-.35a.29.29,0,0,0-.28-.28H18.75a.28.28,0,0,0-.27.28Z"/><rect class="cls-3" x="21.72" y="35.58" width="6.66" height="2.79"/><path class="cls-4" d="M28.38,38.53H21.72a.16.16,0,0,1-.16-.16V35.58a.17.17,0,0,1,.16-.17h6.66a.17.17,0,0,1,.16.17v2.79A.16.16,0,0,1,28.38,38.53Zm-6.49-.33h6.33V35.74H21.89Z"/><path class="cls-4" d="M28.38,38.63H21.72a.26.26,0,0,1-.26-.26V35.58a.27.27,0,0,1,.26-.27h6.66a.26.26,0,0,1,.26.27v2.79A.26.26,0,0,1,28.38,38.63Zm-6.66-3.12a.07.07,0,0,0-.06.07v2.79a.06.06,0,0,0,.06.06h6.66a.06.06,0,0,0,.06-.06V35.58s0-.07-.06-.07Zm6.6,2.79H21.79V35.64h6.53ZM22,38.1h6.13V35.84H22Z"/><path class="cls-3" d="M9.92,32.26v2.53a.78.78,0,0,0,.78.79H39.4a.78.78,0,0,0,.78-.79V32.26H9.92Z"/><path class="cls-3" d="M40.18,17.17v-.75a.78.78,0,0,0-.78-.78H10.7a.78.78,0,0,0-.78.78v.75Z"/><rect class="cls-5" x="9.92" y="17.17" width="30.26" height="15.09"/><path class="cls-4" d="M39.4,35.74H10.7a.94.94,0,0,1-.94-1V32.26a.17.17,0,0,1,.16-.17H40.18a.18.18,0,0,1,.17.17v2.53A1,1,0,0,1,39.4,35.74ZM10.08,32.42v2.37a.62.62,0,0,0,.62.62H39.4a.62.62,0,0,0,.62-.62V32.42Z"/><path class="cls-4" d="M39.4,35.84H10.7a1,1,0,0,1-1-1.05V32.26A.27.27,0,0,1,9.92,32H40.18a.27.27,0,0,1,.27.27v2.53A1,1,0,0,1,39.4,35.84ZM9.92,32.19a.07.07,0,0,0-.06.07v2.53a.85.85,0,0,0,.84.85H39.4a.85.85,0,0,0,.85-.85V32.26a.07.07,0,0,0-.07-.07ZM39.4,35.51H10.7a.72.72,0,0,1-.72-.72V32.32H40.12v2.47A.72.72,0,0,1,39.4,35.51Zm-29.22-3v2.27a.52.52,0,0,0,.52.52H39.4a.52.52,0,0,0,.52-.52V32.52Z"/><path class="cls-4" d="M40.18,32.42H9.92a.16.16,0,0,1-.16-.16V17.17A.16.16,0,0,1,9.92,17H40.18a.17.17,0,0,1,.17.16V32.26A.17.17,0,0,1,40.18,32.42Zm-30.1-.33H40V17.33H10.08Z"/><path class="cls-4" d="M40.18,32.52H9.92a.26.26,0,0,1-.26-.26V17.17a.26.26,0,0,1,.26-.26H40.18a.27.27,0,0,1,.27.26V32.26A.27.27,0,0,1,40.18,32.52ZM9.92,17.11a.06.06,0,0,0-.06.06V32.26a.06.06,0,0,0,.06.06H40.18a.07.07,0,0,0,.07-.06V17.17a.07.07,0,0,0-.07-.06Zm30.2,15.08H10v-15H40.12ZM10.18,32H39.92V17.44H10.18Z"/><path class="cls-4" d="M40.18,17.33H9.92a.16.16,0,0,1-.16-.16v-.75a.94.94,0,0,1,.94-.94H39.4a1,1,0,0,1,1,.94v.75A.17.17,0,0,1,40.18,17.33ZM10.08,17H40v-.59a.62.62,0,0,0-.62-.62H10.7a.62.62,0,0,0-.62.62Z"/><path class="cls-4" d="M40.18,17.44H9.92a.27.27,0,0,1-.26-.27v-.75a1,1,0,0,1,1-1H39.4a1,1,0,0,1,1.05,1v.75A.27.27,0,0,1,40.18,17.44ZM10.7,15.58a.85.85,0,0,0-.84.84v.75a.06.06,0,0,0,.06.06H40.18s.07,0,.07-.06v-.75a.85.85,0,0,0-.85-.84Zm29.42,1.53H10v-.69a.72.72,0,0,1,.72-.72H39.4a.72.72,0,0,1,.72.72Zm-29.94-.2H39.92v-.49a.52.52,0,0,0-.52-.52H10.7a.53.53,0,0,0-.52.52Z"/><path class="cls-3" d="M33.79,30H16.31a.16.16,0,0,1-.16-.16V27.13a.17.17,0,0,1,.16-.17H33.79a.18.18,0,0,1,.17.17v2.75A.17.17,0,0,1,33.79,30Zm-17.32-.33H33.63V27.29H16.47Z"/><path class="cls-3" d="M17.85,29a.16.16,0,0,1-.14-.08.17.17,0,0,1,.06-.23l1-.56a.17.17,0,0,1,.23.06.16.16,0,0,1-.06.22l-1,.57Z"/><path class="cls-3" d="M18.34,29.23a.17.17,0,0,1-.17-.16V27.94a.18.18,0,0,1,.17-.17.17.17,0,0,1,.16.17v1.13A.16.16,0,0,1,18.34,29.23Z"/><path class="cls-3" d="M18.83,29l-.09,0-1-.57a.16.16,0,0,1,.16-.28l1,.56a.18.18,0,0,1,.06.23A.17.17,0,0,1,18.83,29Z"/><path class="cls-3" d="M20.53,29a.17.17,0,0,1-.14-.08.18.18,0,0,1,.06-.23l1-.56a.16.16,0,0,1,.16.28l-1,.57Z"/><path class="cls-3" d="M21,29.23a.16.16,0,0,1-.16-.16V27.94a.17.17,0,0,1,.16-.17.18.18,0,0,1,.17.17v1.13A.17.17,0,0,1,21,29.23Z"/><path class="cls-3" d="M21.51,29l-.08,0-1-.57a.16.16,0,0,1-.06-.22.17.17,0,0,1,.23-.06l1,.56a.17.17,0,0,1,.06.23A.16.16,0,0,1,21.51,29Z"/><path class="cls-3" d="M23.22,29a.16.16,0,0,1-.14-.08.17.17,0,0,1,.06-.23l1-.56a.17.17,0,0,1,.23.06.16.16,0,0,1-.06.22l-1,.57Z"/><path class="cls-3" d="M23.71,29.23a.17.17,0,0,1-.17-.16V27.94a.18.18,0,0,1,.17-.17.17.17,0,0,1,.16.17v1.13A.16.16,0,0,1,23.71,29.23Z"/><path class="cls-3" d="M24.2,29l-.09,0-1-.57a.16.16,0,1,1,.16-.28l1,.56a.18.18,0,0,1,.06.23A.17.17,0,0,1,24.2,29Z"/><path class="cls-3" d="M25.91,29a.18.18,0,0,1-.15-.08.19.19,0,0,1,.06-.23l1-.56a.16.16,0,0,1,.16.28l-1,.57Z"/><path class="cls-3" d="M26.39,29.23a.16.16,0,0,1-.16-.16V27.94a.17.17,0,0,1,.16-.17.18.18,0,0,1,.17.17v1.13A.17.17,0,0,1,26.39,29.23Z"/><path class="cls-3" d="M26.88,29l-.08,0-1-.57a.17.17,0,0,1-.06-.22.17.17,0,0,1,.23-.06l1,.56a.17.17,0,0,1,.06.23A.16.16,0,0,1,26.88,29Z"/><path class="cls-3" d="M28.59,29a.17.17,0,0,1-.14-.08.18.18,0,0,1,.06-.23l1-.56a.16.16,0,0,1,.16.28l-1,.57Z"/><path class="cls-3" d="M29.08,29.23a.16.16,0,0,1-.16-.16V27.94a.16.16,0,1,1,.32,0v1.13A.16.16,0,0,1,29.08,29.23Z"/><path class="cls-3" d="M29.57,29l-.08,0-1-.57a.16.16,0,0,1-.06-.22.16.16,0,0,1,.22-.06l1,.56a.17.17,0,0,1,.06.23A.17.17,0,0,1,29.57,29Z"/><path class="cls-3" d="M31.28,29a.16.16,0,0,1-.14-.08.17.17,0,0,1,.06-.23l1-.56a.17.17,0,0,1,.23.06.17.17,0,0,1-.06.22l-1,.57Z"/><path class="cls-3" d="M31.77,29.23a.17.17,0,0,1-.17-.16V27.94a.18.18,0,0,1,.17-.17.17.17,0,0,1,.16.17v1.13A.16.16,0,0,1,31.77,29.23Z"/><path class="cls-3" d="M32.25,29l-.08,0-1-.57a.16.16,0,0,1,.16-.28l1,.56a.19.19,0,0,1,.06.23A.18.18,0,0,1,32.25,29Z"/><path class="cls-3" d="M25.05,10.25a19.12,19.12,0,0,1-7.28,2.54v9.9c0,3.68,7.28,6.28,7.28,6.28s7.29-2.6,7.29-6.28v-9.9A19.13,19.13,0,0,1,25.05,10.25Z"/><path class="cls-5" d="M25.05,27.65c-2.21-.88-6.05-3-6.05-5V13.84a20.53,20.53,0,0,0,6.05-2.16,20.53,20.53,0,0,0,6.05,2.16v8.85C31.1,24.68,27.27,26.78,25.05,27.65Z"/><path class="cls-4" d="M25.05,29.13H25c-.31-.1-7.4-2.68-7.4-6.43v-9.9a.17.17,0,0,1,.15-.17A19.07,19.07,0,0,0,25,10.11a.17.17,0,0,1,.17,0,19,19,0,0,0,7.21,2.51.16.16,0,0,1,.15.17v9.9c0,3.75-7.09,6.33-7.39,6.43Zm-7.12-16.2v9.76c0,3.35,6.45,5.86,7.12,6.11.67-.25,7.12-2.76,7.12-6.11V12.93a19.68,19.68,0,0,1-7.12-2.49A19.68,19.68,0,0,1,17.93,12.93Z"/><path class="cls-4" d="M25.05,29.23H25c-.3-.11-7.46-2.71-7.46-6.53v-9.9a.28.28,0,0,1,.24-.27A19.08,19.08,0,0,0,24.91,10a.24.24,0,0,1,.28,0,18.84,18.84,0,0,0,7.17,2.49.27.27,0,0,1,.24.27v9.9c0,3.82-7.15,6.42-7.46,6.53Zm0-19h0a19.42,19.42,0,0,1-7.26,2.52.07.07,0,0,0-.06.07v9.9c0,3.68,7,6.23,7.33,6.34h0c.3-.11,7.33-2.66,7.33-6.34v-9.9a.07.07,0,0,0-.06-.07,19,19,0,0,1-7.26-2.52Zm0,18.71h0c-.74-.28-7.19-2.78-7.19-6.2V12.84h.09A19.51,19.51,0,0,0,25,10.36l.05,0,.05,0a19.54,19.54,0,0,0,7.09,2.47h.08v9.85c0,3.41-6.45,5.92-7.18,6.2ZM18,13v9.67c0,3.23,6.15,5.67,7,6,.87-.33,7-2.77,7-6V13a20.13,20.13,0,0,1-7-2.46A20.06,20.06,0,0,1,18,13Z"/><circle class="cls-6" cx="25.05" cy="18.99" r="4.1"/><circle class="cls-7" cx="25.05" cy="18.99" r="3.1"/><path class="cls-8" d="M25.05,22.09a3.11,3.11,0,1,1,3.1-3.1A3.1,3.1,0,0,1,25.05,22.09Z"/><path class="cls-4" d="M25.05,23.25A4.27,4.27,0,1,1,29.31,19,4.26,4.26,0,0,1,25.05,23.25Zm0-8.2A3.94,3.94,0,1,0,29,19,3.94,3.94,0,0,0,25.05,15.05Z"/><path class="cls-4" d="M25.05,23.35A4.37,4.37,0,1,1,29.41,19,4.37,4.37,0,0,1,25.05,23.35Zm0-8.53A4.17,4.17,0,1,0,29.21,19,4.17,4.17,0,0,0,25.05,14.82Zm0,8.2a4,4,0,1,1,4-4A4,4,0,0,1,25.05,23Zm0-7.87A3.84,3.84,0,1,0,28.89,19,3.84,3.84,0,0,0,25.05,15.15Z"/><path class="cls-4" d="M25.05,22.25A3.27,3.27,0,1,1,28.32,19,3.26,3.26,0,0,1,25.05,22.25Zm0-6.2A2.94,2.94,0,1,0,28,19,2.94,2.94,0,0,0,25.05,16.05Z"/><path class="cls-4" d="M25.05,22.35A3.37,3.37,0,1,1,28.42,19,3.37,3.37,0,0,1,25.05,22.35Zm0-6.53A3.17,3.17,0,1,0,28.22,19,3.17,3.17,0,0,0,25.05,15.82Zm0,6.2a3,3,0,1,1,3-3A3,3,0,0,1,25.05,22Zm0-5.87A2.84,2.84,0,1,0,27.89,19,2.84,2.84,0,0,0,25.05,16.15Z"/><path class="cls-4" d="M25.07,20.44A1.8,1.8,0,0,1,24,20a.16.16,0,0,1,.2-.26,1.5,1.5,0,0,0,.84.34.92.92,0,0,0,.55-.17.47.47,0,0,0,.19-.33.38.38,0,0,0-.14-.29,1.43,1.43,0,0,0-.61-.22l-.21,0c-.51-.13-.79-.4-.79-.76a.85.85,0,0,1,.78-.75,1.36,1.36,0,0,1,1.12.34.17.17,0,0,1,0,.23.16.16,0,0,1-.23,0,1.05,1.05,0,0,0-.85-.26c-.2,0-.49.19-.49.43s.41.41.53.44l.2,0a1.74,1.74,0,0,1,.76.29.71.71,0,0,1,.26.55.78.78,0,0,1-.33.59A1.3,1.3,0,0,1,25.07,20.44Z"/><path class="cls-4" d="M25.07,20.54h0a1.88,1.88,0,0,1-1.1-.43.27.27,0,0,1-.1-.18.25.25,0,0,1,.05-.19.27.27,0,0,1,.18-.1.25.25,0,0,1,.19.05,1.39,1.39,0,0,0,.78.32.79.79,0,0,0,.49-.15.32.32,0,0,0,.15-.25.26.26,0,0,0-.1-.21,1.29,1.29,0,0,0-.57-.2h0l-.18,0c-.55-.13-.86-.44-.86-.85a1,1,0,0,1,.87-.85,1.47,1.47,0,0,1,1.2.37.28.28,0,0,1,0,.37.27.27,0,0,1-.38,0A1,1,0,0,0,24.9,18c-.17,0-.41.16-.41.34s.24.28.46.33l.17,0a1.69,1.69,0,0,1,.82.31.81.81,0,0,1,.3.63.88.88,0,0,1-.37.67A1.36,1.36,0,0,1,25.07,20.54Zm-.94-.7h0l0,0a0,0,0,0,0,0,.05.08.08,0,0,0,0,0,1.65,1.65,0,0,0,1,.38,1.16,1.16,0,0,0,.68-.2.71.71,0,0,0,.29-.51.6.6,0,0,0-.23-.47,1.55,1.55,0,0,0-.71-.27l-.2-.05c-.15,0-.62-.17-.61-.53s.35-.5.58-.53a1.17,1.17,0,0,1,.93.29.06.06,0,0,0,.09,0,.07.07,0,0,0,0-.09,1.29,1.29,0,0,0-1-.31.76.76,0,0,0-.7.65c0,.31.25.55.71.66L25,19h0a1.43,1.43,0,0,1,.65.25.44.44,0,0,1,.18.36.54.54,0,0,1-.23.41,1.05,1.05,0,0,1-.61.19,1.58,1.58,0,0,1-.9-.36Z"/><path class="cls-4" d="M25.05,17.86a.16.16,0,0,1-.16-.16v-.37a.17.17,0,0,1,.16-.17.18.18,0,0,1,.17.17v.37A.17.17,0,0,1,25.05,17.86Z"/><path class="cls-4" d="M25.05,18a.26.26,0,0,1-.26-.26v-.37a.27.27,0,1,1,.53,0v.37A.26.26,0,0,1,25.05,18Zm0-.7a.07.07,0,0,0-.06.07v.37c0,.07.13.07.13,0v-.37A.07.07,0,0,0,25.05,17.26Z"/><path class="cls-4" d="M25.05,20.81a.17.17,0,0,1-.16-.17v-.37a.16.16,0,0,1,.16-.16.17.17,0,0,1,.17.16v.37A.18.18,0,0,1,25.05,20.81Z"/><path class="cls-4" d="M25.05,20.91a.27.27,0,0,1-.26-.27v-.37a.27.27,0,0,1,.53,0v.37A.27.27,0,0,1,25.05,20.91Zm0-.7a.06.06,0,0,0-.06.06v.37c0,.07.13.07.13,0v-.37A.07.07,0,0,0,25.05,20.21Z"/><rect class="cls-6" x="40.7" y="32.34" width="1.49" height="9.89" transform="translate(78.73 -4.16) rotate(90)"/><path class="cls-4" d="M38.4,38.19a.16.16,0,0,1-.16-.16V36.54a.16.16,0,0,1,.32,0V38A.16.16,0,0,1,38.4,38.19Z"/><path class="cls-4" d="M38.4,38.29a.25.25,0,0,1-.26-.26V36.54a.25.25,0,0,1,.26-.26.26.26,0,0,1,.26.26V38A.26.26,0,0,1,38.4,38.29Zm0-1.81a.05.05,0,0,0-.06.06V38c0,.07.12.07.12,0V36.54A.06.06,0,0,0,38.4,36.48Z"/><path class="cls-4" d="M44.63,38.19a.17.17,0,0,1-.17-.16V36.54a.17.17,0,0,1,.17-.16.16.16,0,0,1,.16.16V38A.16.16,0,0,1,44.63,38.19Z"/><path class="cls-4" d="M44.63,38.29a.26.26,0,0,1-.27-.26V36.54a.27.27,0,0,1,.53,0V38A.26.26,0,0,1,44.63,38.29Zm0-1.81s-.07,0-.07.06V38c0,.07.13.07.13,0V36.54A.06.06,0,0,0,44.63,36.48Z"/><path class="cls-4" d="M43.52,38.19a.17.17,0,0,1-.17-.16V36.54a.17.17,0,0,1,.17-.16.16.16,0,0,1,.16.16V38A.16.16,0,0,1,43.52,38.19Z"/><path class="cls-4" d="M43.52,38.29a.26.26,0,0,1-.27-.26V36.54a.27.27,0,0,1,.53,0V38A.26.26,0,0,1,43.52,38.29Zm0-1.81s-.07,0-.07.06V38c0,.07.13.07.13,0V36.54A.06.06,0,0,0,43.52,36.48Z"/><path class="cls-4" d="M46.39,38.19H36.5a.16.16,0,0,1-.16-.16V36.54a.16.16,0,0,1,.16-.16h9.89a.17.17,0,0,1,.17.16V38A.17.17,0,0,1,46.39,38.19Zm-9.73-.32h9.57V36.7H36.66Z"/><path class="cls-4" d="M46.39,38.29H36.5a.25.25,0,0,1-.26-.26V36.54a.25.25,0,0,1,.26-.26h9.89a.26.26,0,0,1,.27.26V38A.26.26,0,0,1,46.39,38.29ZM36.5,36.48a.05.05,0,0,0-.06.06V38a.05.05,0,0,0,.06.06h9.89s.07,0,.07-.06V36.54s0-.06-.07-.06ZM46.33,38H36.56V36.6h9.77Zm-9.57-.2h9.37v-1H36.76Z"/><rect class="cls-6" x="38.91" y="30.85" width="1.49" height="9.89" transform="translate(75.45 -3.86) rotate(90)"/><path class="cls-4" d="M36.61,36.7a.16.16,0,0,1-.16-.16V35.05a.16.16,0,1,1,.32,0v1.49A.16.16,0,0,1,36.61,36.7Z"/><path class="cls-4" d="M36.61,36.8a.26.26,0,0,1-.26-.26V35.05a.26.26,0,0,1,.26-.27.27.27,0,0,1,.26.27v1.49A.26.26,0,0,1,36.61,36.8Zm0-1.82s-.06,0-.06.07v1.49c0,.07.12.07.12,0V35.05A.07.07,0,0,0,36.61,35Z"/><path class="cls-4" d="M42.84,36.7a.17.17,0,0,1-.17-.16V35.05a.18.18,0,0,1,.17-.17.17.17,0,0,1,.16.17v1.49A.16.16,0,0,1,42.84,36.7Z"/><path class="cls-4" d="M42.84,36.8a.27.27,0,0,1-.27-.26V35.05a.27.27,0,1,1,.53,0v1.49A.26.26,0,0,1,42.84,36.8Zm0-1.82a.07.07,0,0,0-.07.07v1.49c0,.07.13.07.13,0V35.05A.07.07,0,0,0,42.84,35Z"/><path class="cls-4" d="M41.73,36.7a.17.17,0,0,1-.17-.16V35.05a.18.18,0,0,1,.17-.17.17.17,0,0,1,.16.17v1.49A.16.16,0,0,1,41.73,36.7Z"/><path class="cls-4" d="M41.73,36.8a.27.27,0,0,1-.27-.26V35.05a.27.27,0,1,1,.53,0v1.49A.26.26,0,0,1,41.73,36.8Zm0-1.82a.07.07,0,0,0-.07.07v1.49c0,.07.13.07.13,0V35.05A.07.07,0,0,0,41.73,35Z"/><path class="cls-4" d="M44.6,36.7H34.71a.16.16,0,0,1-.16-.16V35.05a.17.17,0,0,1,.16-.17H44.6a.18.18,0,0,1,.17.17v1.49A.17.17,0,0,1,44.6,36.7Zm-9.73-.32h9.57V35.21H34.87Z"/><path class="cls-4" d="M44.6,36.8H34.71a.26.26,0,0,1-.26-.26V35.05a.26.26,0,0,1,.26-.27H44.6a.27.27,0,0,1,.27.27v1.49A.27.27,0,0,1,44.6,36.8ZM34.71,35s-.06,0-.06.07v1.49a.06.06,0,0,0,.06.06H44.6a.07.07,0,0,0,.07-.06V35.05A.07.07,0,0,0,44.6,35Zm9.83,1.5H34.77V35.11h9.77ZM35,36.28h9.37v-1H35Z"/><rect class="cls-6" x="39.72" y="33.83" width="1.49" height="9.89" transform="translate(79.24 -1.69) rotate(90)"/><path class="cls-4" d="M37.42,39.69a.17.17,0,0,1-.16-.17V38a.16.16,0,1,1,.32,0v1.49A.17.17,0,0,1,37.42,39.69Z"/><path class="cls-4" d="M37.42,39.79a.26.26,0,0,1-.26-.27V38a.26.26,0,0,1,.52,0v1.49A.26.26,0,0,1,37.42,39.79Zm0-1.82a.06.06,0,0,0-.06.06v1.49c0,.07.12.07.12,0V38A.06.06,0,0,0,37.42,38Z"/><path class="cls-4" d="M43.65,39.69a.18.18,0,0,1-.17-.17V38a.17.17,0,0,1,.17-.16.16.16,0,0,1,.16.16v1.49A.17.17,0,0,1,43.65,39.69Z"/><path class="cls-4" d="M43.65,39.79a.27.27,0,0,1-.27-.27V38a.27.27,0,0,1,.53,0v1.49A.27.27,0,0,1,43.65,39.79Zm0-1.82a.07.07,0,0,0-.07.06v1.49c0,.07.13.07.13,0V38A.06.06,0,0,0,43.65,38Z"/><path class="cls-4" d="M42.54,39.69a.18.18,0,0,1-.17-.17V38a.17.17,0,0,1,.17-.16.16.16,0,0,1,.16.16v1.49A.17.17,0,0,1,42.54,39.69Z"/><path class="cls-4" d="M42.54,39.79a.27.27,0,0,1-.27-.27V38a.27.27,0,0,1,.53,0v1.49A.27.27,0,0,1,42.54,39.79Zm0-1.82a.07.07,0,0,0-.07.06v1.49c0,.07.13.07.13,0V38A.06.06,0,0,0,42.54,38Z"/><path class="cls-4" d="M45.41,39.69H35.52a.17.17,0,0,1-.16-.17V38a.16.16,0,0,1,.16-.16h9.89a.17.17,0,0,1,.17.16v1.49A.18.18,0,0,1,45.41,39.69Zm-9.73-.33h9.57V38.19H35.68Z"/><path class="cls-4" d="M45.41,39.79H35.52a.26.26,0,0,1-.26-.27V38a.25.25,0,0,1,.26-.26h9.89a.26.26,0,0,1,.27.26v1.49A.27.27,0,0,1,45.41,39.79ZM35.52,38a.06.06,0,0,0-.06.06v1.49a.05.05,0,0,0,.06.06h9.89s.07,0,.07-.06V38a.07.07,0,0,0-.07-.06Zm9.83,1.49H35.58V38.09h9.77Zm-9.57-.2h9.37v-1H35.78Z"/><path class="cls-3" d="M5.75,39a.49.49,0,0,0,.49.49h7.37a.48.48,0,0,0,.48-.49V37.87H5.75Z"/><path class="cls-3" d="M14.09,25.34a.48.48,0,0,0-.48-.49H6.24a.49.49,0,0,0-.49.49V26.5h8.34Z"/><path class="cls-4" d="M9.92,26.08a.4.4,0,1,1,.4-.4A.4.4,0,0,1,9.92,26.08Zm0-.55a.15.15,0,0,0-.15.15.15.15,0,0,0,.3,0A.15.15,0,0,0,9.92,25.53Z"/><polygon class="cls-5" points="14.09 26.5 5.75 26.5 5.75 31.06 5.75 37.87 14.09 37.87 14.09 31.06 14.09 26.5"/><path class="cls-4" d="M13.61,39.69H6.24A.67.67,0,0,1,5.58,39V37.87a.17.17,0,0,1,.17-.16h8.34a.17.17,0,0,1,.17.16V39A.66.66,0,0,1,13.61,39.69ZM5.91,38v1a.33.33,0,0,0,.33.33h7.37a.32.32,0,0,0,.32-.33V38Z"/><path class="cls-4" d="M13.61,39.79H6.24A.76.76,0,0,1,5.48,39V37.87a.27.27,0,0,1,.27-.26h8.34a.27.27,0,0,1,.27.26V39A.76.76,0,0,1,13.61,39.79Zm-7.86-2a.07.07,0,0,0-.07.06V39a.55.55,0,0,0,.56.55h7.37a.55.55,0,0,0,.55-.55V37.87a.07.07,0,0,0-.07-.06Zm7.86,1.65H6.24A.43.43,0,0,1,5.81,39V37.94H14V39A.42.42,0,0,1,13.61,39.46ZM6,38.14V39a.23.23,0,0,0,.23.23h7.37a.22.22,0,0,0,.22-.23v-.89Z"/><path class="cls-4" d="M14.09,26.66H5.75a.17.17,0,0,1-.17-.16V25.34a.66.66,0,0,1,.66-.65h7.37a.65.65,0,0,1,.65.65V26.5A.17.17,0,0,1,14.09,26.66Zm-8.18-.32h8v-1a.32.32,0,0,0-.32-.32H6.24a.32.32,0,0,0-.33.32Z"/><path class="cls-4" d="M14.09,26.76H5.75a.26.26,0,0,1-.27-.26V25.34a.76.76,0,0,1,.76-.75h7.37a.76.76,0,0,1,.75.75V26.5A.26.26,0,0,1,14.09,26.76Zm-7.85-2a.56.56,0,0,0-.56.55V26.5s0,.06.07.06h8.34s.07,0,.07-.06V25.34a.55.55,0,0,0-.55-.55ZM14,26.44H5.81v-1.1a.42.42,0,0,1,.43-.42h7.37a.42.42,0,0,1,.42.42Zm-8-.2h7.82v-.9a.22.22,0,0,0-.22-.22H6.24a.22.22,0,0,0-.23.22Z"/><path class="cls-4" d="M14.09,38H5.75a.18.18,0,0,1-.17-.17V26.5a.17.17,0,0,1,.17-.16h8.34a.17.17,0,0,1,.17.16V37.87A.18.18,0,0,1,14.09,38Zm-8.18-.33h8v-11h-8Z"/><path class="cls-4" d="M14.09,38.14H5.75a.27.27,0,0,1-.27-.27V26.5a.27.27,0,0,1,.27-.26h8.34a.27.27,0,0,1,.27.26V37.87A.27.27,0,0,1,14.09,38.14ZM5.75,26.44a.07.07,0,0,0-.07.06V37.87a.07.07,0,0,0,.07.07h8.34a.07.07,0,0,0,.07-.07V26.5a.07.07,0,0,0-.07-.06ZM14,37.81H5.81V26.56H14Zm-8-.2h7.82V26.76H6Z"/><path class="cls-3" d="M9.92,34.53H9.87c-.09,0-2.22-.81-2.22-2v-2.9a.14.14,0,0,1,.13-.14,5.5,5.5,0,0,0,2.06-.72.15.15,0,0,1,.16,0,5.56,5.56,0,0,0,2.06.72.15.15,0,0,1,.14.14v2.9c0,1.16-2.14,1.94-2.23,2Zm-2-4.75v2.77c0,.77,1.38,1.46,2,1.68.6-.22,2-.91,2-1.68V29.78a5.75,5.75,0,0,1-2-.7A5.69,5.69,0,0,1,7.94,29.78Z"/><path class="cls-3" d="M9.93,32.73a1.32,1.32,0,0,1-.79-.31.14.14,0,0,1,0-.2.17.17,0,0,1,.21,0,.92.92,0,0,0,.6.25.68.68,0,0,0,.4-.12.29.29,0,0,0,.13-.23.25.25,0,0,0-.09-.19.93.93,0,0,0-.45-.16l-.16,0c-.39-.09-.6-.31-.6-.58a.67.67,0,0,1,.6-.59,1,1,0,0,1,.85.27.14.14,0,0,1,0,.2.15.15,0,0,1-.21,0,.73.73,0,0,0-.61-.19c-.14,0-.35.13-.35.3s.29.28.38.3l.14,0a1.29,1.29,0,0,1,.58.22.51.51,0,0,1,.2.43.58.58,0,0,1-.25.46A1,1,0,0,1,9.93,32.73Z"/><path class="cls-3" d="M9.92,30.82a.15.15,0,0,1-.14-.15v-.28a.14.14,0,0,1,.14-.14.15.15,0,0,1,.15.14v.28A.15.15,0,0,1,9.92,30.82Z"/><path class="cls-3" d="M9.92,33a.15.15,0,0,1-.14-.15v-.27a.14.14,0,0,1,.14-.15.15.15,0,0,1,.15.15v.27A.15.15,0,0,1,9.92,33Z"/><rect class="cls-3" x="36.81" y="29.22" width="9.71" height="5.73" rx="0.54" ry="0.54"/><path class="cls-4" d="M46,35.11H37.35a.7.7,0,0,1-.7-.7V29.76a.7.7,0,0,1,.7-.7H46a.7.7,0,0,1,.7.7v4.65A.7.7,0,0,1,46,35.11Zm-8.63-5.73a.38.38,0,0,0-.38.38v4.65a.37.37,0,0,0,.38.37H46a.36.36,0,0,0,.37-.37V29.76a.37.37,0,0,0-.37-.38Z"/><path class="cls-4" d="M46,35.21H37.35a.8.8,0,0,1-.8-.8V29.76a.8.8,0,0,1,.8-.8H46a.8.8,0,0,1,.8.8v4.65A.8.8,0,0,1,46,35.21Zm-8.63-6.05a.6.6,0,0,0-.6.6v4.65a.6.6,0,0,0,.6.6H46a.6.6,0,0,0,.6-.6V29.76a.6.6,0,0,0-.6-.6ZM46,34.88H37.35a.48.48,0,0,1-.48-.47V29.76a.49.49,0,0,1,.48-.48H46a.48.48,0,0,1,.47.48v4.65A.47.47,0,0,1,46,34.88Zm-8.63-5.4a.29.29,0,0,0-.28.28v4.65a.28.28,0,0,0,.28.27H46a.27.27,0,0,0,.27-.27V29.76a.28.28,0,0,0-.27-.28Z"/><rect class="cls-5" x="36.81" y="30.46" width="9.71" height="1.48"/><path class="cls-4" d="M46.52,32.1H36.81a.16.16,0,0,1-.16-.16V30.46a.17.17,0,0,1,.16-.17h9.71a.17.17,0,0,1,.16.17v1.48A.16.16,0,0,1,46.52,32.1ZM37,31.77h9.38V30.62H37Z"/><path class="cls-4" d="M43.22,33.11H37.7a.17.17,0,0,1-.17-.16.18.18,0,0,1,.17-.17h5.52a.18.18,0,0,1,.17.17A.17.17,0,0,1,43.22,33.11Z"/><path class="cls-4" d="M43.22,33.21H37.7a.27.27,0,1,1,0-.53h5.52a.27.27,0,1,1,0,.53Zm-5.52-.33a.07.07,0,0,0-.07.07.07.07,0,0,0,.07.06h5.52a.07.07,0,0,0,.07-.06.07.07,0,0,0-.07-.07Z"/><path class="cls-4" d="M42,34.09H39.38a.17.17,0,0,1-.16-.17.16.16,0,0,1,.16-.16H42a.17.17,0,0,1,.17.16A.18.18,0,0,1,42,34.09Z"/><path class="cls-4" d="M42,34.19H39.38a.27.27,0,0,1,0-.53H42a.27.27,0,1,1,0,.53Zm-2.58-.33a.06.06,0,0,0-.06.06.07.07,0,0,0,.06.07H42a.07.07,0,0,0,.07-.07.07.07,0,0,0-.07-.06Z"/><path class="cls-4" d="M38.67,34.09h-1a.18.18,0,0,1-.17-.17.17.17,0,0,1,.17-.16h1a.17.17,0,0,1,.17.16A.18.18,0,0,1,38.67,34.09Z"/><path class="cls-4" d="M38.67,34.19h-1a.27.27,0,1,1,0-.53h1a.27.27,0,1,1,0,.53Zm-1-.33a.07.07,0,0,0-.07.06.07.07,0,0,0,.07.07h1a.07.07,0,0,0,.07-.07.07.07,0,0,0-.07-.06Z"/><g class="cls-9"><g class="cls-10"><rect class="cls-4" x="1.4" y="38" width="5.79" height="5.79"/></g></g><g class="cls-11"><g class="cls-12"><rect class="cls-4" x="0.94" y="16.69" width="5.18" height="3.96"/></g></g><g class="cls-13"><g class="cls-12"><rect class="cls-4" x="2.77" y="15.47" width="5.48" height="3.96"/></g></g><g class="cls-14"><g class="cls-12"><rect class="cls-4" x="23.79" y="5.12" width="6.09" height="6.09"/></g></g><g class="cls-15"><g class="cls-12"><rect class="cls-4" x="42.98" y="18.52" width="5.48" height="5.48"/></g></g><g class="cls-16"><g class="cls-17"><rect class="cls-4" x="43.04" y="26.08" width="6.7" height="3.96"/></g></g><g class="cls-18"><g class="cls-12"><rect class="cls-4" x="32.62" y="8.16" width="5.48" height="3.96"/></g></g></svg>