<?xml version="1.0" encoding="utf-8"?>
<!-- Generator: Adobe Illustrator 17.0.0, SVG Export Plug-In . SVG Version: 6.00 Build 0)  -->
<!DOCTYPE svg PUBLIC "-//W3C//DTD SVG 1.1//EN" "http://www.w3.org/Graphics/SVG/1.1/DTD/svg11.dtd">
<svg version="1.1" id="Layer_1" xmlns="http://www.w3.org/2000/svg" xmlns:xlink="http://www.w3.org/1999/xlink" x="0px" y="0px"
	 width="50px" height="50px" viewBox="0 0 50 50" enable-background="new 0 0 50 50" xml:space="preserve">
<g>
	<defs>
		<path id="SVGID_1_" d="M-32.295-33.786v0.305c0.421-0.042,0.829-0.145,1.218-0.305H-32.295z"/>
	</defs>
	<clipPath id="SVGID_2_">
		<use xlink:href="#SVGID_1_"  overflow="visible"/>
	</clipPath>
</g>
<g>
	<defs>
		<path id="SVGID_3_" d="M-32.904-34.774h3.047l0.304-0.242v-1.318c0-0.743-0.604-1.345-1.349-1.345h-2.019
			c0.315,0,0.612-0.078,0.873-0.216c0.592-0.312,0.995-0.932,0.995-1.646c0-1.029-0.836-1.862-1.868-1.862s-1.868,0.834-1.868,1.862
			c0,0.727,0.418,1.357,1.028,1.663c0.252,0.127,0.538,0.198,0.84,0.198h-1.985c-0.745,0-1.349,0.602-1.349,1.345v1.329
			c0.809,0.691,1.837,1.136,2.965,1.218v-0.603C-33.29-34.602-33.117-34.774-32.904-34.774"/>
	</defs>
	<clipPath id="SVGID_4_">
		<use xlink:href="#SVGID_3_"  overflow="visible"/>
	</clipPath>
</g>
<g>
	<defs>
		<rect id="SVGID_5_" x="-36.253" y="-37.741" width="26.91" height="27.875"/>
	</defs>
	<clipPath id="SVGID_6_">
		<use xlink:href="#SVGID_5_"  overflow="visible"/>
	</clipPath>
</g>
<g>
	<g>
		<path fill="#233863" d="M23.045,38.08l0.338,0.105c0.463,0.144,0.96-0.116,1.104-0.579l7.709-24.696
			c0.144-0.463-0.116-0.96-0.579-1.104l-0.338-0.105c-0.463-0.144-0.96,0.116-1.104,0.579l-7.709,24.696
			C22.322,37.439,22.582,37.935,23.045,38.08z"/>
		<path fill="#233863" d="M23.645,38.381c-0.103,0-0.207-0.016-0.309-0.047l-0.338-0.105l0,0c-0.264-0.082-0.48-0.263-0.609-0.509
			c-0.129-0.246-0.155-0.527-0.072-0.79l7.709-24.696c0.082-0.264,0.263-0.48,0.509-0.609c0.246-0.129,0.527-0.155,0.79-0.072
			l0.338,0.105c0.546,0.17,0.851,0.753,0.681,1.299l-7.709,24.696c-0.082,0.263-0.263,0.48-0.509,0.609
			C23.975,38.341,23.811,38.381,23.645,38.381z"/>
	</g>
	<g>
		<path fill="#2F4770" d="M36.32,43.853L24.9,40.288c-1.232-0.384-1.918-1.694-1.534-2.926l7.653-24.515
			c0.384-1.232,1.694-1.918,2.926-1.534l11.419,3.565c1.232,0.384,1.918,1.694,1.534,2.926l-7.653,24.515
			C38.861,43.551,37.551,44.238,36.32,43.853z"/>
		<path fill="#233863" d="M37.014,44.115c-0.245,0-0.495-0.037-0.741-0.113l0,0l-11.419-3.565c-0.635-0.198-1.155-0.632-1.464-1.222
			c-0.309-0.59-0.37-1.264-0.172-1.9l7.653-24.514c0.409-1.312,1.809-2.046,3.121-1.636l11.419,3.565
			c1.312,0.409,2.046,1.81,1.636,3.121l-7.653,24.515C39.062,43.431,38.076,44.115,37.014,44.115z M36.366,43.704
			c0.556,0.173,1.146,0.12,1.662-0.15c0.516-0.27,0.895-0.725,1.069-1.281l7.653-24.515c0.358-1.148-0.284-2.373-1.432-2.731
			l-11.419-3.565c-1.148-0.358-2.372,0.284-2.731,1.432l-7.653,24.515c-0.174,0.556-0.12,1.146,0.15,1.662
			c0.27,0.516,0.725,0.895,1.281,1.069L36.366,43.704z"/>
	</g>
	<g>
		
			<rect x="30.337" y="15.463" transform="matrix(0.9546 0.298 -0.298 0.9546 7.8278 -10.1854)" fill="#FFFFFF" width="13.964" height="10.233"/>
		<path fill="#233863" d="M42.459,27.701c-0.015,0-0.031-0.002-0.046-0.007l-13.33-4.161c-0.039-0.012-0.072-0.04-0.092-0.076
			c-0.019-0.037-0.023-0.079-0.011-0.119l3.049-9.768c0.012-0.039,0.04-0.072,0.076-0.092c0.037-0.019,0.079-0.023,0.119-0.011
			l13.33,4.161c0.039,0.012,0.072,0.04,0.092,0.076c0.019,0.037,0.023,0.079,0.011,0.119l-3.049,9.768
			C42.587,27.658,42.525,27.701,42.459,27.701z M29.324,23.281l13.032,4.068l2.956-9.471L32.281,13.81L29.324,23.281z"/>
	</g>
	<path fill="#FFFFFF" d="M43.901,15.953c-0.01,0-0.021-0.002-0.031-0.005l-9.304-2.905c-0.055-0.017-0.085-0.075-0.068-0.13
		c0.017-0.055,0.075-0.085,0.13-0.068l9.304,2.905c0.055,0.017,0.085,0.075,0.068,0.13C43.987,15.924,43.945,15.953,43.901,15.953z"
		/>
	<g>
		<path fill="#FFB44F" d="M34.557,16.227l-2.075-0.648c-0.065-0.02-0.101-0.089-0.081-0.154l0.12-0.384
			c0.02-0.065,0.089-0.101,0.154-0.081l2.075,0.648c0.065,0.02,0.101,0.089,0.081,0.154l-0.12,0.384
			C34.69,16.211,34.621,16.247,34.557,16.227z"/>
		<path fill="#233863" d="M34.593,16.337c-0.023,0-0.045-0.003-0.068-0.01l0,0l-2.075-0.648c-0.119-0.037-0.186-0.165-0.149-0.284
			l0.12-0.384c0.018-0.058,0.057-0.105,0.111-0.133c0.054-0.028,0.115-0.034,0.173-0.016l2.075,0.648
			c0.058,0.018,0.105,0.058,0.133,0.111c0.028,0.054,0.034,0.115,0.016,0.173l-0.12,0.384c-0.018,0.058-0.058,0.105-0.111,0.133
			C34.666,16.328,34.63,16.337,34.593,16.337z M34.588,16.128c0.01,0.003,0.021-0.002,0.024-0.012l0.12-0.384
			c0.003-0.009-0.004-0.021-0.012-0.024l-2.075-0.648c-0.008-0.002-0.021,0.004-0.024,0.012l-0.12,0.384
			c-0.003,0.01,0.003,0.02,0.012,0.024L34.588,16.128z"/>
	</g>
	<g>
		<path fill="#FFB44F" d="M37.641,17.19l-2.075-0.648c-0.065-0.02-0.101-0.089-0.081-0.154l0.12-0.384
			c0.02-0.065,0.089-0.101,0.154-0.081l2.075,0.648c0.065,0.02,0.101,0.089,0.081,0.154l-0.12,0.384
			C37.774,17.174,37.706,17.21,37.641,17.19z"/>
		<path fill="#233863" d="M37.678,17.3c-0.023,0-0.045-0.003-0.068-0.01l0,0l-2.075-0.648c-0.119-0.037-0.186-0.165-0.149-0.284
			l0.12-0.384c0.037-0.119,0.165-0.186,0.284-0.149l2.075,0.648c0.058,0.018,0.105,0.057,0.133,0.111
			c0.028,0.054,0.034,0.115,0.016,0.173l-0.12,0.384c-0.018,0.058-0.057,0.105-0.111,0.133C37.75,17.291,37.714,17.3,37.678,17.3z
			 M37.672,17.091c0.008,0.003,0.021-0.004,0.024-0.012l0.12-0.384c0.003-0.009-0.004-0.021-0.012-0.024l-2.075-0.648
			c-0.009-0.002-0.021,0.004-0.024,0.012l-0.12,0.384c-0.003,0.01,0.002,0.021,0.012,0.024L37.672,17.091z"/>
	</g>
	<g>
		<path fill="#FFB44F" d="M40.957,18.225l-2.075-0.648c-0.065-0.02-0.101-0.089-0.081-0.154l0.12-0.384
			c0.02-0.065,0.089-0.101,0.154-0.081l2.075,0.648c0.065,0.02,0.101,0.089,0.081,0.154l-0.12,0.384
			C41.09,18.209,41.021,18.245,40.957,18.225z"/>
		<path fill="#233863" d="M40.993,18.335c-0.022,0-0.045-0.003-0.067-0.01l0,0l-2.075-0.648c-0.119-0.037-0.186-0.165-0.149-0.284
			l0.12-0.384c0.018-0.058,0.058-0.105,0.111-0.133c0.054-0.028,0.115-0.034,0.173-0.016l2.075,0.648
			c0.119,0.037,0.186,0.165,0.149,0.284l-0.12,0.384C41.179,18.272,41.09,18.335,40.993,18.335z M40.988,18.126
			c0.01,0.003,0.021-0.002,0.024-0.012l0.12-0.384c0.003-0.01-0.003-0.021-0.012-0.024l-2.075-0.648
			c-0.008-0.003-0.021,0.004-0.024,0.012l-0.12,0.384c-0.003,0.01,0.002,0.021,0.012,0.024L40.988,18.126z"/>
	</g>
	<g>
		<path fill="#FFB44F" d="M44.079,19.2l-2.075-0.648c-0.065-0.02-0.101-0.089-0.081-0.154l0.12-0.384
			c0.02-0.065,0.089-0.101,0.154-0.081l2.075,0.648c0.065,0.02,0.101,0.089,0.081,0.154l-0.12,0.384
			C44.212,19.184,44.144,19.22,44.079,19.2z"/>
		<path fill="#233863" d="M44.116,19.309c-0.023,0-0.045-0.003-0.068-0.01l0,0l-2.075-0.648c-0.058-0.018-0.105-0.058-0.133-0.111
			c-0.028-0.054-0.034-0.115-0.016-0.173l0.12-0.384c0.037-0.119,0.165-0.186,0.284-0.149l2.075,0.648
			c0.119,0.037,0.186,0.165,0.149,0.284l-0.12,0.384c-0.018,0.058-0.057,0.105-0.111,0.133
			C44.188,19.301,44.152,19.309,44.116,19.309z M44.11,19.101c0.01,0.003,0.021-0.002,0.024-0.012l0.12-0.384
			c0.003-0.01-0.003-0.021-0.013-0.024l-2.075-0.648c-0.01-0.003-0.021,0.002-0.024,0.012l-0.12,0.384
			c-0.003,0.009,0.004,0.021,0.012,0.024L44.11,19.101z"/>
	</g>
	<g>
		
			<rect x="28.434" y="26.028" transform="matrix(0.9546 0.298 -0.298 0.9546 9.7308 -9.2571)" fill="#233863" width="13.584" height="2.515"/>
		<path fill="#233863" d="M41.334,30.665c-0.016,0-0.031-0.002-0.046-0.007L28.321,26.61c-0.082-0.026-0.128-0.113-0.102-0.195
			l0.749-2.4c0.012-0.039,0.04-0.072,0.076-0.092c0.037-0.019,0.079-0.023,0.119-0.011L42.13,27.96
			c0.082,0.026,0.128,0.113,0.102,0.195l-0.749,2.4c-0.012,0.039-0.04,0.072-0.076,0.092C41.384,30.659,41.359,30.665,41.334,30.665
			z M28.563,26.359l12.669,3.955l0.656-2.103l-12.669-3.955L28.563,26.359z"/>
	</g>
	<path fill="#FFFFFF" d="M32.728,27.086c-0.026,0-0.052-0.004-0.077-0.012l-2.301-0.718c-0.137-0.043-0.213-0.189-0.17-0.325
		l0.201-0.643c0.021-0.066,0.066-0.121,0.127-0.153c0.061-0.032,0.132-0.039,0.198-0.018l2.301,0.718
		c0.066,0.021,0.12,0.066,0.153,0.127c0.032,0.061,0.039,0.132,0.018,0.198l-0.201,0.643C32.942,27.015,32.839,27.086,32.728,27.086
		z M32.682,26.975c0.081,0.026,0.17-0.02,0.195-0.102l0.201-0.643c0.012-0.04,0.009-0.082-0.011-0.119
		c-0.019-0.037-0.052-0.064-0.092-0.076l-2.301-0.718c-0.039-0.012-0.082-0.009-0.119,0.011c-0.037,0.019-0.064,0.052-0.076,0.092
		l-0.201,0.643c-0.026,0.082,0.02,0.17,0.102,0.195L32.682,26.975z"/>
	<path fill="#FFFFFF" d="M36.285,28.196c-0.026,0-0.052-0.004-0.078-0.012l-2.301-0.718c-0.066-0.021-0.12-0.066-0.153-0.127
		c-0.032-0.061-0.039-0.132-0.018-0.198l0.201-0.642c0.021-0.066,0.066-0.121,0.127-0.153c0.061-0.032,0.132-0.039,0.198-0.018
		l2.301,0.718c0.066,0.021,0.12,0.066,0.153,0.127c0.032,0.061,0.039,0.132,0.018,0.198l-0.201,0.642
		c-0.021,0.066-0.066,0.12-0.127,0.153C36.367,28.186,36.326,28.196,36.285,28.196z M36.238,28.085
		c0.04,0.012,0.082,0.009,0.119-0.011c0.037-0.019,0.064-0.052,0.076-0.092l0.201-0.642c0.012-0.04,0.009-0.082-0.011-0.119
		c-0.019-0.037-0.052-0.064-0.092-0.076l-2.301-0.718c-0.04-0.012-0.082-0.009-0.119,0.011c-0.037,0.019-0.064,0.052-0.076,0.092
		l-0.201,0.643c-0.012,0.04-0.009,0.082,0.011,0.119c0.019,0.037,0.052,0.064,0.092,0.076L36.238,28.085z"/>
	<path fill="#FFFFFF" d="M39.88,29.319c-0.026,0-0.052-0.004-0.078-0.012l-2.301-0.718c-0.137-0.043-0.213-0.189-0.171-0.326
		l0.201-0.642c0.021-0.066,0.066-0.12,0.127-0.153c0.061-0.032,0.132-0.039,0.198-0.018l2.301,0.718
		c0.066,0.021,0.12,0.066,0.153,0.127c0.032,0.061,0.039,0.132,0.018,0.198l-0.201,0.642c-0.021,0.066-0.066,0.12-0.127,0.153
		C39.963,29.309,39.922,29.319,39.88,29.319z M39.834,29.208c0.04,0.012,0.082,0.009,0.119-0.011
		c0.037-0.019,0.064-0.052,0.076-0.092l0.201-0.642c0.012-0.04,0.009-0.082-0.011-0.119c-0.019-0.037-0.052-0.064-0.092-0.076
		l-2.301-0.718c-0.04-0.012-0.082-0.009-0.119,0.011c-0.037,0.019-0.064,0.052-0.076,0.092l-0.201,0.642
		c-0.026,0.082,0.02,0.17,0.102,0.195L39.834,29.208z"/>
	<g>
		<path fill="#5A6F8E" d="M29.882,31.451l-1.65-0.515c-0.463-0.144-0.723-0.641-0.579-1.104l0.299-0.957
			c0.144-0.463,0.641-0.723,1.104-0.579l1.65,0.515c0.463,0.144,0.723,0.641,0.579,1.104l-0.299,0.957
			C30.842,31.335,30.345,31.596,29.882,31.451z"/>
		<path fill="#233863" d="M30.144,31.647c-0.103,0-0.207-0.016-0.309-0.047l-1.65-0.515c-0.546-0.17-0.851-0.753-0.681-1.299
			l0.299-0.957c0.171-0.546,0.753-0.851,1.299-0.681l1.65,0.515c0.546,0.17,0.851,0.753,0.681,1.299l-0.299,0.957
			c-0.082,0.264-0.263,0.48-0.509,0.609C30.474,31.607,30.31,31.647,30.144,31.647z M28.794,28.413
			c-0.309,0-0.596,0.199-0.693,0.509l-0.299,0.957c-0.119,0.382,0.095,0.79,0.476,0.909l1.65,0.515l0,0
			c0.184,0.057,0.38,0.039,0.552-0.051c0.172-0.09,0.299-0.241,0.356-0.426l0.299-0.957c0.119-0.382-0.095-0.79-0.476-0.909
			l-1.65-0.515C28.938,28.423,28.866,28.413,28.794,28.413z"/>
	</g>
	<g>
		<path fill="#5A6F8E" d="M34.391,32.859l-1.65-0.515c-0.463-0.144-0.723-0.641-0.579-1.104l0.299-0.957
			c0.144-0.463,0.641-0.723,1.104-0.579l1.65,0.515c0.463,0.144,0.723,0.641,0.579,1.104l-0.299,0.957
			C35.35,32.743,34.854,33.003,34.391,32.859z"/>
		<path fill="#233863" d="M34.653,33.055c-0.103,0-0.207-0.016-0.308-0.047l0,0l-1.65-0.515c-0.546-0.17-0.851-0.753-0.681-1.299
			l0.299-0.957c0.082-0.264,0.263-0.48,0.509-0.609c0.246-0.129,0.527-0.155,0.79-0.072l1.65,0.515
			c0.546,0.17,0.851,0.753,0.681,1.299l-0.299,0.957c-0.082,0.264-0.263,0.48-0.509,0.609
			C34.983,33.015,34.818,33.055,34.653,33.055z M34.437,32.71c0.184,0.057,0.38,0.039,0.552-0.051
			c0.172-0.09,0.299-0.241,0.356-0.426l0.299-0.957c0.057-0.184,0.039-0.38-0.051-0.552c-0.09-0.172-0.241-0.299-0.426-0.356
			l-1.65-0.515c-0.184-0.057-0.38-0.039-0.553,0.051c-0.172,0.09-0.299,0.241-0.356,0.426l-0.299,0.957
			c-0.057,0.184-0.039,0.38,0.051,0.552c0.09,0.172,0.241,0.299,0.426,0.356L34.437,32.71z"/>
	</g>
	<g>
		<path fill="#5A6F8E" d="M38.832,34.245l-1.65-0.515c-0.463-0.144-0.723-0.641-0.579-1.104l0.299-0.957
			c0.144-0.463,0.641-0.723,1.104-0.579l1.65,0.515c0.463,0.144,0.723,0.641,0.579,1.104l-0.299,0.957
			C39.791,34.129,39.295,34.39,38.832,34.245z"/>
		<path fill="#233863" d="M39.094,34.441c-0.102,0-0.206-0.015-0.309-0.047l-1.65-0.515c-0.546-0.17-0.851-0.753-0.681-1.299
			l0.299-0.957c0.082-0.264,0.263-0.48,0.509-0.609c0.246-0.129,0.527-0.155,0.79-0.072l1.65,0.515
			c0.546,0.17,0.851,0.753,0.681,1.299l-0.299,0.957C39.946,34.156,39.536,34.441,39.094,34.441z M37.745,31.206
			c-0.116,0-0.231,0.028-0.337,0.084c-0.172,0.09-0.299,0.241-0.356,0.426l-0.299,0.957c-0.119,0.382,0.095,0.79,0.476,0.909
			l1.65,0.515l0,0c0.382,0.119,0.789-0.094,0.909-0.476l0.299-0.957c0.119-0.382-0.095-0.79-0.476-0.909l-1.65-0.515
			C37.889,31.217,37.817,31.206,37.745,31.206z"/>
	</g>
	<g>
		<path fill="#5A6F8E" d="M28.78,34.982l-1.65-0.515c-0.463-0.144-0.723-0.641-0.579-1.104l0.299-0.957
			c0.144-0.463,0.641-0.723,1.104-0.579l1.65,0.515c0.463,0.144,0.723,0.641,0.579,1.104l-0.299,0.957
			C29.74,34.866,29.243,35.126,28.78,34.982z"/>
		<path fill="#233863" d="M29.042,35.178c-0.102,0-0.206-0.015-0.308-0.047l0,0l-1.65-0.515c-0.264-0.082-0.48-0.263-0.609-0.509
			c-0.129-0.246-0.155-0.527-0.072-0.79l0.299-0.957c0.17-0.546,0.752-0.851,1.299-0.681l1.65,0.515
			c0.263,0.082,0.48,0.263,0.609,0.509c0.129,0.246,0.155,0.527,0.072,0.79l-0.299,0.957C29.894,34.893,29.484,35.178,29.042,35.178
			z M28.827,34.833c0.382,0.119,0.79-0.094,0.909-0.476l0.299-0.957c0.057-0.184,0.039-0.38-0.051-0.553
			c-0.09-0.172-0.241-0.299-0.425-0.356l-1.65-0.515c-0.184-0.057-0.38-0.039-0.552,0.051c-0.172,0.09-0.299,0.241-0.356,0.426
			L26.7,33.409c-0.057,0.184-0.039,0.38,0.051,0.553c0.09,0.172,0.241,0.299,0.426,0.356L28.827,34.833z"/>
	</g>
	<g>
		<path fill="#5A6F8E" d="M33.289,36.389l-1.65-0.515c-0.463-0.144-0.723-0.641-0.579-1.104l0.299-0.957
			c0.144-0.463,0.641-0.723,1.104-0.579l1.65,0.515c0.463,0.144,0.723,0.641,0.579,1.104l-0.299,0.957
			C34.248,36.273,33.752,36.534,33.289,36.389z"/>
		<path fill="#233863" d="M33.551,36.585c-0.102,0-0.206-0.015-0.308-0.047l0,0l-1.65-0.515c-0.264-0.082-0.48-0.263-0.609-0.509
			c-0.129-0.246-0.155-0.527-0.072-0.79l0.299-0.957c0.17-0.546,0.753-0.851,1.299-0.681l1.65,0.515
			c0.264,0.082,0.48,0.263,0.609,0.509c0.129,0.246,0.155,0.527,0.072,0.79l-0.299,0.957C34.403,36.3,33.993,36.585,33.551,36.585z
			 M33.335,36.24c0.382,0.119,0.789-0.095,0.909-0.476l0.299-0.957c0.057-0.184,0.039-0.38-0.051-0.553
			c-0.09-0.172-0.241-0.299-0.426-0.356l-1.65-0.515c-0.381-0.119-0.789,0.094-0.909,0.476l-0.299,0.957
			c-0.057,0.184-0.039,0.38,0.051,0.553c0.09,0.172,0.241,0.299,0.426,0.356L33.335,36.24z"/>
	</g>
	<g>
		<path fill="#5A6F8E" d="M37.73,37.776l-1.65-0.515c-0.463-0.144-0.723-0.641-0.579-1.104L35.8,35.2
			c0.144-0.463,0.641-0.723,1.104-0.579l1.65,0.515c0.463,0.144,0.723,0.641,0.579,1.104l-0.299,0.957
			C38.689,37.66,38.193,37.92,37.73,37.776z"/>
		<path fill="#233863" d="M37.992,37.972c-0.102,0-0.206-0.015-0.308-0.047l0,0l-1.65-0.515c-0.546-0.17-0.851-0.753-0.681-1.299
			l0.299-0.957c0.17-0.546,0.752-0.851,1.299-0.681l1.65,0.515c0.263,0.082,0.48,0.263,0.609,0.509
			c0.129,0.246,0.155,0.527,0.072,0.79l-0.299,0.957C38.844,37.687,38.434,37.972,37.992,37.972z M37.776,37.627
			c0.382,0.119,0.79-0.094,0.909-0.476l0.299-0.957c0.057-0.184,0.039-0.38-0.051-0.552c-0.09-0.172-0.241-0.299-0.425-0.356
			l-1.65-0.515c-0.184-0.057-0.38-0.039-0.552,0.051c-0.172,0.09-0.299,0.241-0.356,0.426l-0.299,0.957
			c-0.119,0.382,0.095,0.79,0.476,0.909L37.776,37.627z"/>
	</g>
	<g>
		<path fill="#3AAED5" d="M27.678,38.512l-1.65-0.515c-0.463-0.144-0.723-0.641-0.579-1.104l0.299-0.957
			c0.144-0.463,0.641-0.723,1.104-0.579l1.65,0.515c0.463,0.144,0.723,0.641,0.579,1.104l-0.299,0.957
			C28.638,38.396,28.141,38.657,27.678,38.512z"/>
		<path fill="#233863" d="M27.94,38.708c-0.103,0-0.207-0.016-0.308-0.047l0,0l-1.65-0.515c-0.264-0.082-0.48-0.263-0.609-0.509
			c-0.129-0.246-0.155-0.527-0.072-0.79l0.299-0.957c0.082-0.264,0.263-0.48,0.509-0.609c0.246-0.129,0.527-0.155,0.79-0.072
			l1.65,0.515c0.546,0.17,0.851,0.753,0.681,1.299l-0.299,0.957c-0.082,0.264-0.263,0.48-0.509,0.609
			C28.27,38.668,28.106,38.708,27.94,38.708z M27.724,38.363c0.184,0.057,0.38,0.039,0.553-0.051
			c0.172-0.09,0.299-0.241,0.356-0.426l0.299-0.957c0.057-0.184,0.039-0.38-0.051-0.552c-0.09-0.172-0.241-0.299-0.426-0.356
			l-1.65-0.515c-0.184-0.057-0.38-0.039-0.553,0.051c-0.172,0.09-0.299,0.241-0.356,0.426l-0.299,0.957
			c-0.057,0.184-0.039,0.38,0.051,0.552c0.09,0.172,0.241,0.299,0.426,0.356L27.724,38.363z"/>
	</g>
	<g>
		<path fill="#FFB44F" d="M32.187,39.92l-1.65-0.515c-0.463-0.144-0.723-0.641-0.579-1.104l0.299-0.957
			c0.144-0.463,0.641-0.723,1.104-0.579l1.65,0.515c0.463,0.144,0.723,0.641,0.579,1.104l-0.299,0.957
			C33.146,39.804,32.649,40.064,32.187,39.92z"/>
		<path fill="#233863" d="M32.449,40.116c-0.103,0-0.207-0.016-0.308-0.047l-1.65-0.515c-0.264-0.082-0.48-0.263-0.609-0.509
			c-0.129-0.246-0.155-0.527-0.072-0.79l0.299-0.957c0.082-0.264,0.263-0.48,0.509-0.609c0.246-0.129,0.527-0.155,0.79-0.072
			l1.65,0.515c0.546,0.17,0.851,0.753,0.681,1.299l-0.299,0.957c-0.082,0.264-0.263,0.48-0.509,0.609
			C32.779,40.075,32.614,40.116,32.449,40.116z M31.099,36.881c-0.116,0-0.231,0.028-0.337,0.084
			c-0.172,0.09-0.299,0.241-0.356,0.426l-0.299,0.957c-0.057,0.184-0.039,0.38,0.051,0.552c0.09,0.172,0.241,0.299,0.426,0.356
			l1.65,0.515l0,0c0.184,0.057,0.38,0.039,0.552-0.051c0.172-0.09,0.299-0.241,0.356-0.426l0.299-0.957
			c0.119-0.382-0.094-0.789-0.476-0.909l-1.65-0.515C31.244,36.892,31.171,36.881,31.099,36.881z"/>
	</g>
	<g>
		<path fill="#3D85FD" d="M36.628,41.306l-1.65-0.515c-0.463-0.144-0.723-0.641-0.579-1.104l0.299-0.957
			c0.144-0.463,0.641-0.723,1.104-0.579l1.65,0.515c0.463,0.144,0.723,0.641,0.579,1.104l-0.299,0.957
			C37.587,41.19,37.091,41.45,36.628,41.306z"/>
		<path fill="#233863" d="M36.89,41.502c-0.103,0-0.207-0.016-0.308-0.047l0,0l-1.65-0.515c-0.264-0.082-0.48-0.263-0.609-0.509
			c-0.129-0.246-0.155-0.527-0.072-0.79l0.299-0.957c0.082-0.264,0.263-0.48,0.509-0.609c0.246-0.129,0.527-0.155,0.79-0.072
			l1.65,0.515c0.264,0.082,0.48,0.263,0.609,0.509c0.129,0.246,0.155,0.527,0.072,0.79l-0.299,0.957
			c-0.082,0.264-0.263,0.48-0.509,0.609C37.22,41.462,37.055,41.502,36.89,41.502z M36.674,41.157
			c0.184,0.057,0.38,0.039,0.553-0.051c0.172-0.09,0.299-0.241,0.356-0.426l0.299-0.957c0.057-0.184,0.039-0.38-0.051-0.553
			c-0.09-0.172-0.241-0.299-0.426-0.356l-1.65-0.515c-0.184-0.057-0.38-0.039-0.553,0.051c-0.172,0.09-0.299,0.241-0.356,0.426
			l-0.299,0.957c-0.057,0.184-0.039,0.38,0.051,0.553c0.09,0.172,0.241,0.299,0.426,0.356L36.674,41.157z"/>
	</g>
	<g>
		<path fill="#233863" d="M36.139,44.394l-11.398-3.558c-0.367-0.115-0.574-0.509-0.46-0.877l0,0
			c0.115-0.367,0.509-0.574,0.877-0.46l11.398,3.558c0.367,0.115,0.574,0.509,0.46,0.877l0,0
			C36.901,44.302,36.507,44.509,36.139,44.394z"/>
		<path fill="#233863" d="M36.347,44.582c-0.084,0-0.17-0.013-0.255-0.039l0,0l-11.398-3.558c-0.45-0.141-0.703-0.621-0.562-1.072
			c0.141-0.45,0.621-0.703,1.072-0.562l11.398,3.558c0.217,0.068,0.396,0.217,0.502,0.42c0.106,0.203,0.128,0.434,0.06,0.652
			C37.05,44.347,36.712,44.582,36.347,44.582z M36.186,44.245c0.286,0.089,0.592-0.071,0.681-0.357
			c0.043-0.138,0.03-0.285-0.038-0.414c-0.068-0.129-0.181-0.224-0.319-0.267l-11.398-3.558c-0.286-0.089-0.592,0.071-0.681,0.357
			c-0.089,0.286,0.071,0.592,0.357,0.681L36.186,44.245z"/>
	</g>
	<circle fill="#FFFFFF" cx="35.709" cy="38.924" r="0.248"/>
	<circle fill="#FFFFFF" cx="31.268" cy="37.568" r="0.248"/>
	<circle fill="#FFFFFF" cx="26.613" cy="36.08" r="0.248"/>
	<circle fill="#FFFFFF" cx="37.02" cy="40.73" r="0.129"/>
	<circle fill="#233863" cx="37.749" cy="31.657" r="0.166"/>
	<circle fill="#233863" cx="36.564" cy="35.365" r="0.166"/>
	<g>
		<circle fill="#2F4770" cx="41.566" cy="25.727" r="0.434"/>
		<path fill="#233863" d="M41.566,26.316c-0.325,0-0.59-0.264-0.59-0.59c0-0.325,0.264-0.59,0.59-0.59c0.325,0,0.59,0.264,0.59,0.59
			C42.155,26.052,41.891,26.316,41.566,26.316z M41.566,25.449c-0.153,0-0.278,0.125-0.278,0.278c0,0.153,0.125,0.278,0.278,0.278
			c0.153,0,0.278-0.125,0.278-0.278C41.844,25.573,41.719,25.449,41.566,25.449z"/>
	</g>
</g>
<g>
	<g>
		<g>
			<circle fill="#233863" cx="18.251" cy="32.212" r="4.195"/>
		</g>
		<g>
			<g>
				<circle fill="#233863" cx="17.817" cy="32.372" r="4.195"/>
				<g>
					<circle fill="#00984A" cx="17.817" cy="32.372" r="4.195"/>
					<path fill="#233863" d="M21.096,35.185c-1.551,1.808-4.283,2.017-6.091,0.467c-1.808-1.551-2.017-4.283-0.467-6.091
						s4.283-2.017,6.091-0.467C22.438,30.644,22.647,33.377,21.096,35.185z M14.728,29.723c-1.461,1.703-1.264,4.277,0.44,5.738
						c1.703,1.461,4.277,1.264,5.738-0.439c1.461-1.703,1.264-4.277-0.44-5.738C18.764,27.823,16.189,28.02,14.728,29.723z"/>
				</g>
				<path fill="#FFFFFF" d="M20.445,34.626c-1.243,1.449-3.432,1.617-4.881,0.374c-1.449-1.243-1.617-3.433-0.374-4.881
					c1.243-1.449,3.433-1.617,4.881-0.374S21.688,33.177,20.445,34.626z M15.316,30.227c-1.183,1.379-1.023,3.463,0.356,4.646
					s3.463,1.023,4.646-0.356c1.183-1.379,1.023-3.463-0.356-4.646C18.583,28.689,16.499,28.848,15.316,30.227z"/>
				<path fill="#FFFFFF" d="M20.136,34.411c-1.108,1.292-3.061,1.442-4.353,0.333s-1.442-3.061-0.333-4.353
					c1.108-1.292,3.061-1.442,4.353-0.333C21.094,31.166,21.244,33.119,20.136,34.411z M15.576,30.5
					c-1.048,1.222-0.907,3.069,0.315,4.118c1.222,1.048,3.069,0.907,4.118-0.315s0.907-3.069-0.315-4.118
					C18.471,29.137,16.624,29.278,15.576,30.5z"/>
			</g>
			<circle fill="#233863" cx="19.257" cy="30.892" r="0.303"/>
			<circle fill="#233863" cx="16.489" cy="34.12" r="0.303"/>
		</g>
	</g>
	<g>
		<g>
			<circle fill="#233863" cx="11.02" cy="32.242" r="1.515"/>
		</g>
		<g>
			<g>
				<circle fill="#233863" cx="10.854" cy="32.264" r="1.515"/>
				<g>
					<circle fill="#00984A" cx="10.854" cy="32.264" r="1.515"/>
					<path fill="#233863" d="M12.068,33.305c-0.075,0.088-0.161,0.168-0.257,0.24c-0.342,0.256-0.763,0.363-1.186,0.302
						c-0.423-0.061-0.796-0.283-1.052-0.625c-0.256-0.342-0.363-0.763-0.301-1.186c0.061-0.423,0.283-0.796,0.625-1.052
						c0.342-0.256,0.763-0.363,1.186-0.301c0.423,0.061,0.796,0.283,1.052,0.625l0,0C12.59,31.918,12.544,32.75,12.068,33.305z
						 M9.765,31.334c-0.175,0.204-0.289,0.453-0.328,0.725c-0.055,0.378,0.041,0.756,0.27,1.062c0.229,0.306,0.563,0.505,0.942,0.56
						c0.378,0.055,0.756-0.041,1.062-0.27c0.632-0.473,0.762-1.371,0.29-2.004c-0.229-0.306-0.563-0.505-0.942-0.56
						c-0.378-0.055-0.756,0.041-1.062,0.27C9.911,31.182,9.834,31.255,9.765,31.334z M12.068,31.358L12.068,31.358L12.068,31.358z"
						/>
				</g>
				<path fill="#FFFFFF" d="M11.805,33.078c-0.059,0.069-0.127,0.133-0.202,0.189l0,0c-0.553,0.413-1.339,0.299-1.752-0.254
					c-0.2-0.267-0.283-0.597-0.235-0.928c0.048-0.331,0.221-0.623,0.489-0.824c0.553-0.413,1.339-0.299,1.752,0.253
					c0.2,0.267,0.283,0.597,0.236,0.928C12.058,32.682,11.958,32.9,11.805,33.078z M11.566,33.217
					c0.254-0.19,0.419-0.468,0.464-0.782c0.046-0.315-0.034-0.628-0.224-0.882c-0.392-0.525-1.139-0.633-1.664-0.241
					c-0.254,0.19-0.419,0.468-0.464,0.782c-0.046,0.315,0.034,0.628,0.224,0.882C10.294,33.501,11.041,33.609,11.566,33.217
					L11.566,33.217z"/>
				<path fill="#FFFFFF" d="M11.691,33c-0.052,0.061-0.112,0.117-0.179,0.168c-0.493,0.368-1.194,0.267-1.562-0.226
					c-0.178-0.238-0.253-0.533-0.21-0.828c0.043-0.295,0.198-0.556,0.436-0.734c0.493-0.368,1.194-0.267,1.562,0.226
					C12.056,32.031,12.023,32.612,11.691,33z M10.042,31.588c-0.129,0.15-0.212,0.334-0.241,0.534
					c-0.04,0.279,0.03,0.556,0.198,0.781c0.348,0.465,1.009,0.561,1.475,0.213c0.225-0.168,0.371-0.414,0.412-0.693
					c0.04-0.279-0.03-0.556-0.198-0.781c-0.168-0.225-0.414-0.371-0.693-0.412c-0.279-0.04-0.556,0.03-0.781,0.198l0,0
					C10.149,31.476,10.092,31.529,10.042,31.588z"/>
			</g>
			<circle fill="#233863" cx="11.478" cy="31.856" r="0.109"/>
			<circle fill="#233863" cx="10.248" cy="32.776" r="0.109"/>
		</g>
	</g>
	<g>
		<g>
			<circle fill="#233863" cx="12.27" cy="36.744" r="2.04"/>
		</g>
	</g>
	<g>
		<circle fill="#233863" cx="12.089" cy="36.877" r="2.04"/>
		<g>
			<circle fill="#00984A" cx="12.089" cy="36.877" r="2.04"/>
			<path fill="#233863" d="M13.733,38.286c-0.615,0.717-1.654,0.972-2.553,0.556c-1.084-0.501-1.558-1.79-1.057-2.874
				c0.501-1.084,1.791-1.558,2.874-1.057c1.084,0.501,1.558,1.79,1.057,2.874C13.969,37.971,13.86,38.138,13.733,38.286z
				 M10.636,35.627c-0.114,0.133-0.21,0.283-0.286,0.446c-0.443,0.959-0.024,2.099,0.935,2.542c0.959,0.443,2.099,0.024,2.542-0.935
				c0.215-0.464,0.236-0.984,0.059-1.465c-0.177-0.48-0.529-0.863-0.994-1.077c-0.464-0.215-0.984-0.236-1.465-0.059
				C11.116,35.194,10.846,35.382,10.636,35.627z"/>
		</g>
		<path fill="#FFFFFF" d="M13.36,37.967c-0.475,0.554-1.279,0.751-1.974,0.43c-0.838-0.387-1.205-1.385-0.817-2.223
			c0.187-0.406,0.522-0.714,0.942-0.868c0.42-0.155,0.875-0.136,1.28,0.051c0.405,0.187,0.714,0.522,0.868,0.942
			c0.155,0.42,0.137,0.875-0.051,1.28C13.542,37.723,13.458,37.852,13.36,37.967z M10.865,35.826
			c-0.096,0.112-0.177,0.237-0.24,0.374c-0.373,0.807-0.02,1.767,0.787,2.14c0.807,0.373,1.767,0.019,2.14-0.787l0,0
			c0.18-0.39,0.198-0.828,0.049-1.232c-0.149-0.405-0.446-0.727-0.836-0.907c-0.39-0.18-0.828-0.198-1.233-0.049
			C11.27,35.461,11.042,35.62,10.865,35.826z"/>
		<path fill="#FFFFFF" d="M13.213,37.866c-0.164,0.191-0.375,0.338-0.618,0.427c-0.375,0.138-0.78,0.122-1.141-0.045
			c-0.361-0.167-0.636-0.465-0.774-0.84c-0.138-0.375-0.122-0.78,0.045-1.141l0,0c0.167-0.361,0.465-0.636,0.84-0.774
			c0.375-0.138,0.78-0.122,1.141,0.045c0.361,0.167,0.636,0.465,0.774,0.84c0.138,0.375,0.122,0.78-0.045,1.141
			C13.377,37.647,13.302,37.763,13.213,37.866z M10.996,35.962c-0.085,0.099-0.157,0.21-0.213,0.332l0,0
			c-0.16,0.346-0.175,0.734-0.043,1.093c0.132,0.359,0.395,0.645,0.741,0.805c0.346,0.16,0.734,0.175,1.093,0.043
			c0.359-0.132,0.645-0.396,0.804-0.741c0.16-0.346,0.175-0.734,0.043-1.093c-0.132-0.359-0.395-0.645-0.741-0.804
			c-0.346-0.16-0.734-0.175-1.093-0.043C11.355,35.638,11.153,35.779,10.996,35.962z"/>
	</g>
	<circle fill="#233863" cx="12.566" cy="35.993" r="0.147"/>
	<circle fill="#233863" cx="11.699" cy="37.871" r="0.147"/>
</g>
<g>
	<g>
		<path fill="#233863" d="M26.495,27.61L15.68,27.071c-0.507-0.025-0.898-0.457-0.873-0.965l0.811-16.271
			c0.077-1.535,1.383-2.718,2.919-2.642l7.179,0.358c1.535,0.077,2.718,1.383,2.642,2.919l-0.807,16.184
			C27.523,27.21,27.05,27.638,26.495,27.61z"/>
		<g>
			<path fill="#FFFFFF" d="M25.799,27.61l-10.815-0.539c-0.507-0.025-0.898-0.457-0.873-0.965l0.811-16.271
				c0.077-1.535,1.383-2.718,2.919-2.642l7.179,0.358c1.535,0.077,2.718,1.383,2.642,2.919l-0.807,16.184
				C26.827,27.21,26.355,27.638,25.799,27.61z"/>
			<path fill="#233863" d="M25.85,27.767c-0.019,0-0.039,0-0.058-0.001l0,0l-10.815-0.539c-0.593-0.03-1.051-0.536-1.021-1.128
				l0.811-16.271c0.039-0.784,0.381-1.506,0.963-2.033c0.582-0.527,1.337-0.795,2.119-0.756l7.179,0.358
				c1.619,0.081,2.87,1.463,2.79,3.082l-0.807,16.184C26.98,27.283,26.465,27.767,25.85,27.767z M25.807,27.454
				c0.472,0.024,0.869-0.339,0.892-0.807l0.807-16.184c0.072-1.447-1.047-2.683-2.494-2.755L17.833,7.35
				c-0.701-0.035-1.374,0.205-1.894,0.676c-0.521,0.471-0.826,1.116-0.861,1.818l-0.811,16.271c-0.021,0.421,0.304,0.78,0.725,0.801
				L25.807,27.454z"/>
		</g>
		<g>
			<g>
				<path fill="#FFFFFF" d="M24.891,7.549l0-0.003l-10.232-0.51c-1.178-0.059-2.182,0.89-2.243,2.118l-0.042,0.845l10.348,0.516
					l0.042-0.845C22.823,8.481,23.764,7.555,24.891,7.549z"/>
				<path fill="#233863" d="M22.721,10.67c-0.003,0-0.005,0-0.008,0l-10.348-0.516c-0.086-0.004-0.152-0.077-0.148-0.163
					l0.042-0.845c0.032-0.635,0.299-1.22,0.752-1.647c0.455-0.43,1.042-0.649,1.655-0.619l10.232,0.51
					c0.042,0.002,0.081,0.021,0.108,0.052c0.028,0.031,0.042,0.072,0.039,0.113c-0.005,0.082-0.073,0.149-0.155,0.15
					c-1.051,0.006-1.918,0.873-1.973,1.973l-0.042,0.845c-0.002,0.041-0.02,0.08-0.051,0.108
					C22.797,10.656,22.76,10.67,22.721,10.67z M12.537,9.851l10.037,0.5l0.034-0.689c0.044-0.883,0.546-1.635,1.258-2.011
					l-9.215-0.459c-0.528-0.026-1.033,0.163-1.426,0.534c-0.394,0.372-0.627,0.882-0.654,1.436L12.537,9.851z"/>
			</g>
		</g>
		<g opacity="0.11">
			<path fill="#233863" d="M24.891,7.549l0-0.003l-10.232-0.51c-1.178-0.059-2.182,0.89-2.243,2.118l-0.042,0.845l10.348,0.516
				l0.042-0.845C22.823,8.481,23.764,7.555,24.891,7.549z"/>
		</g>
		<g>
			<line fill="#FFFFFF" x1="17.271" y1="11.753" x2="19.879" y2="11.883"/>
			<path fill="#233863" d="M19.879,12.039c-0.003,0-0.005,0-0.008,0l-2.608-0.13c-0.086-0.004-0.152-0.077-0.148-0.163
				c0.004-0.086,0.08-0.152,0.163-0.148l2.608,0.13c0.086,0.004,0.152,0.077,0.148,0.163C20.031,11.974,19.962,12.039,19.879,12.039
				z"/>
		</g>
		<g>
			<line fill="#FFFFFF" x1="23.185" y1="12.123" x2="25.794" y2="12.253"/>
			<path fill="#233863" d="M25.794,12.409c-0.003,0-0.005,0-0.008,0l-2.608-0.13c-0.086-0.004-0.152-0.077-0.148-0.163
				c0.004-0.086,0.08-0.152,0.163-0.148l2.608,0.13c0.086,0.004,0.152,0.077,0.148,0.163C25.945,12.344,25.876,12.409,25.794,12.409
				z"/>
		</g>
		<g>
			<line fill="#FFFFFF" x1="17.118" y1="14.828" x2="22.298" y2="15.054"/>
			<path fill="#233863" d="M22.298,15.21c-0.002,0-0.005,0-0.007,0l-5.18-0.226c-0.086-0.004-0.153-0.077-0.149-0.163
				c0.004-0.086,0.073-0.153,0.163-0.149l5.18,0.226c0.086,0.004,0.153,0.077,0.149,0.163C22.45,15.145,22.381,15.21,22.298,15.21z"
				/>
		</g>
		<g>
			<line fill="#FFFFFF" x1="16.973" y1="16.522" x2="19.133" y2="16.643"/>
			<path fill="#233863" d="M19.133,16.799c-0.003,0-0.006,0-0.009,0l-2.16-0.121c-0.086-0.005-0.152-0.078-0.147-0.164
				c0.005-0.086,0.079-0.151,0.164-0.147l2.16,0.121c0.086,0.005,0.152,0.078,0.147,0.164
				C19.284,16.735,19.215,16.799,19.133,16.799z"/>
		</g>
		<g>
			<line fill="#FFFFFF" x1="17.194" y1="13.292" x2="20.914" y2="13.477"/>
			<path fill="#233863" d="M20.914,13.633c-0.003,0-0.005,0-0.008,0l-3.719-0.185c-0.086-0.004-0.152-0.077-0.148-0.163
				c0.004-0.086,0.078-0.152,0.163-0.148l3.719,0.185c0.086,0.004,0.152,0.077,0.148,0.163
				C21.065,13.568,20.996,13.633,20.914,13.633z"/>
		</g>
		<g>
			<line fill="#FFFFFF" x1="21.815" y1="13.522" x2="22.298" y2="13.546"/>
			<path fill="#233863" d="M22.298,13.702c-0.003,0-0.005,0-0.008,0l-0.483-0.024c-0.086-0.004-0.152-0.077-0.148-0.163
				c0.004-0.086,0.074-0.153,0.163-0.148l0.483,0.024c0.086,0.004,0.152,0.077,0.148,0.163
				C22.45,13.637,22.381,13.702,22.298,13.702z"/>
		</g>
		<g>
			<path fill="#233863" stroke="#FFFFFF" stroke-width="0.2078" stroke-miterlimit="10" d="M25.855,16.188
				c-0.012,0.283-0.137,0.552-0.34,0.743c-0.136,0.132-0.298,0.222-0.48,0.266l-0.009,0.207c-0.004,0.099-0.045,0.191-0.115,0.257
				c-0.069,0.066-0.162,0.102-0.261,0.097c-0.106-0.004-0.195-0.048-0.261-0.12c-0.066-0.072-0.104-0.167-0.1-0.266l0.007-0.167
				l-0.343-0.015c-0.155-0.007-0.281-0.061-0.366-0.146c-0.083-0.085-0.125-0.203-0.119-0.338c0.011-0.268,0.197-0.396,0.522-0.382
				l0.811,0.035c0.032,0.001,0.077-0.009,0.11-0.035c0.043-0.03,0.065-0.071,0.067-0.121c0.003-0.071-0.022-0.119-0.075-0.149
				c-0.027-0.013-0.044-0.019-0.056-0.022c-0.017-0.003-0.027-0.006-0.027-0.006l-0.387-0.016c-0.268-0.019-0.512-0.135-0.685-0.318
				c-0.172-0.185-0.268-0.426-0.257-0.694c0.012-0.278,0.142-0.542,0.347-0.731c0.164-0.151,0.373-0.248,0.594-0.276l0.006-0.138
				c0.004-0.101,0.045-0.186,0.122-0.256c0.074-0.068,0.165-0.102,0.268-0.097c0.096,0.004,0.186,0.047,0.252,0.119
				c0.068,0.077,0.099,0.165,0.095,0.266l-0.005,0.123l0.131,0.006c0.323,0.014,0.506,0.177,0.494,0.446
				c-0.013,0.296-0.209,0.445-0.532,0.431l-0.756-0.032c-0.086-0.004-0.145,0.051-0.149,0.129c-0.003,0.081,0.038,0.15,0.109,0.153
				l0.372,0.016c0.288,0.012,0.55,0.125,0.737,0.31C25.767,15.652,25.867,15.905,25.855,16.188z"/>
		</g>
		
			<line fill="none" stroke="#233863" stroke-width="0.3118" stroke-linecap="round" stroke-miterlimit="10" x1="12.571" y1="9.161" x2="14.786" y2="9.252"/>
	</g>
	<g>
		<g>
			<g>
				<polyline fill="#3AAED5" points="5.342,17.812 13.786,29.155 21.026,23.765 12.422,12.208 12.348,13.493 11.159,13.211 
					11.089,14.43 9.964,14.163 9.896,15.339 8.792,15.077 8.725,16.231 7.622,15.969 7.561,17.015 6.352,16.727 6.278,17.99 
					5.342,17.812 				"/>
				<path fill="#233863" d="M13.786,29.31c-0.008,0-0.015-0.001-0.023-0.002c-0.041-0.006-0.078-0.028-0.102-0.061L5.217,17.905
					c-0.038-0.052-0.041-0.121-0.007-0.176c0.034-0.054,0.098-0.082,0.161-0.07l0.762,0.145l0.063-1.086
					c0.003-0.046,0.025-0.089,0.063-0.116c0.037-0.028,0.084-0.037,0.129-0.027l1.029,0.244l0.05-0.86
					c0.003-0.046,0.025-0.089,0.063-0.116c0.037-0.027,0.084-0.037,0.129-0.027l0.923,0.219l0.056-0.969
					c0.003-0.046,0.025-0.089,0.063-0.116c0.037-0.028,0.084-0.037,0.129-0.027l0.923,0.219l0.057-0.99
					c0.003-0.046,0.025-0.088,0.063-0.116c0.037-0.028,0.084-0.037,0.129-0.027l0.944,0.224l0.06-1.034
					c0.003-0.046,0.025-0.088,0.063-0.116c0.037-0.028,0.084-0.037,0.129-0.027l1.008,0.239l0.064-1.099
					c0.004-0.065,0.048-0.121,0.111-0.14c0.063-0.019,0.131,0.004,0.17,0.056l8.604,11.557c0.051,0.069,0.037,0.167-0.032,0.218
					l-7.24,5.39C13.852,29.3,13.819,29.31,13.786,29.31z M5.706,18.04l8.112,10.896l6.99-5.204l-8.255-11.088l-0.05,0.857
					c-0.003,0.046-0.025,0.088-0.063,0.116c-0.037,0.028-0.084,0.037-0.129,0.027l-1.008-0.239l-0.06,1.034
					c-0.003,0.046-0.025,0.088-0.063,0.116c-0.037,0.028-0.084,0.037-0.129,0.027l-0.944-0.224l-0.057,0.99
					c-0.003,0.046-0.025,0.088-0.063,0.116c-0.037,0.028-0.084,0.037-0.129,0.027l-0.923-0.219L8.881,16.24
					c-0.003,0.046-0.025,0.089-0.063,0.116c-0.037,0.027-0.084,0.037-0.129,0.027l-0.923-0.219l-0.05,0.86
					c-0.003,0.046-0.025,0.089-0.063,0.116c-0.037,0.028-0.084,0.037-0.129,0.027l-1.029-0.244l-0.062,1.077
					c-0.003,0.045-0.024,0.086-0.06,0.114c-0.035,0.028-0.081,0.038-0.125,0.03L5.706,18.04z"/>
			</g>
			<g>
				<line fill="#FFFFFF" x1="7.926" y1="19.265" x2="10.152" y2="17.608"/>
				<path fill="#FFFFFF" d="M7.926,19.42c-0.048,0-0.095-0.022-0.125-0.063c-0.051-0.069-0.037-0.167,0.032-0.218l2.226-1.657
					c0.069-0.051,0.167-0.037,0.218,0.032c0.051,0.069,0.037,0.167-0.032,0.218L8.019,19.39C7.991,19.41,7.958,19.42,7.926,19.42z"
					/>
			</g>
			<g>
				<line fill="#FFFFFF" x1="8.585" y1="20.15" x2="12.677" y2="17.103"/>
				<path fill="#233863" d="M8.585,20.305c-0.048,0-0.095-0.022-0.125-0.063c-0.051-0.069-0.037-0.167,0.032-0.218l4.092-3.046
					c0.069-0.051,0.167-0.037,0.218,0.032c0.051,0.069,0.037,0.167-0.032,0.218l-4.092,3.046C8.65,20.295,8.617,20.305,8.585,20.305
					z"/>
			</g>
			<g>
				<line fill="#FFFFFF" x1="13.119" y1="16.774" x2="13.667" y2="16.366"/>
				<path fill="#FFFFFF" d="M13.119,16.929c-0.048,0-0.095-0.022-0.125-0.063c-0.051-0.069-0.037-0.167,0.032-0.218l0.548-0.408
					c0.069-0.051,0.167-0.037,0.218,0.032c0.051,0.069,0.037,0.167-0.032,0.218l-0.548,0.408
					C13.184,16.919,13.152,16.929,13.119,16.929z"/>
			</g>
			<g>
				<line fill="#FFFFFF" x1="9.533" y1="21.423" x2="11.036" y2="20.304"/>
				<path fill="#233863" d="M9.533,21.579c-0.048,0-0.095-0.022-0.125-0.063c-0.051-0.069-0.037-0.167,0.032-0.218l1.504-1.119
					c0.069-0.051,0.167-0.037,0.218,0.032c0.051,0.069,0.037,0.167-0.032,0.218l-1.504,1.119
					C9.598,21.569,9.565,21.579,9.533,21.579z"/>
			</g>
			<g>
				<line fill="#FFFFFF" x1="11.686" y1="19.821" x2="14.616" y2="17.639"/>
				<path fill="#233863" d="M11.686,19.976c-0.048,0-0.095-0.022-0.125-0.063c-0.051-0.069-0.037-0.167,0.032-0.218l2.93-2.181
					c0.069-0.051,0.167-0.037,0.218,0.032c0.051,0.069,0.037,0.167-0.032,0.218l-2.93,2.181
					C11.751,19.966,11.718,19.976,11.686,19.976z"/>
			</g>
			<g>
				<line fill="#FFFFFF" x1="10.925" y1="23.294" x2="14.225" y2="20.837"/>
				<path fill="#FFFFFF" d="M10.925,23.449c-0.048,0-0.095-0.022-0.125-0.063c-0.051-0.069-0.037-0.167,0.032-0.218l3.3-2.456
					c0.069-0.051,0.167-0.037,0.218,0.032c0.051,0.069,0.037,0.167-0.032,0.218l-3.3,2.456
					C10.99,23.439,10.958,23.449,10.925,23.449z"/>
			</g>
			<g>
				<line fill="#FFFFFF" x1="15.819" y1="22.433" x2="17.34" y2="21.3"/>
				<path fill="#233863" d="M15.819,22.588c-0.048,0-0.095-0.022-0.125-0.063c-0.051-0.069-0.037-0.167,0.032-0.218l1.522-1.133
					c0.069-0.051,0.167-0.037,0.218,0.032c0.051,0.069,0.037,0.167-0.032,0.218l-1.522,1.133
					C15.884,22.578,15.851,22.588,15.819,22.588z"/>
			</g>
		</g>
	</g>
	<g>
		<g>
			<g>
				<polyline fill="#FFB44F" points="16.745,15.692 15.693,24.127 22.114,24.927 23.185,16.333 22.524,16.848 22.035,16.22 
					21.407,16.709 20.945,16.115 20.339,16.586 19.885,16.003 19.291,16.465 18.837,15.882 18.299,16.301 17.801,15.662 
					17.151,16.168 16.753,15.657 				"/>
				<path fill="#233863" d="M22.114,25.083c-0.006,0-0.013,0-0.019-0.001l-6.421-0.801c-0.085-0.011-0.146-0.089-0.135-0.174
					l1.052-8.435c0.002-0.012,0.004-0.023,0.008-0.034c0.005-0.04,0.025-0.078,0.059-0.105c0.068-0.053,0.166-0.041,0.219,0.027
					l0.302,0.388l0.527-0.41c0.033-0.025,0.074-0.037,0.115-0.032c0.041,0.005,0.078,0.026,0.104,0.059l0.402,0.516l0.415-0.323
					c0.068-0.053,0.166-0.041,0.219,0.027l0.358,0.46l0.471-0.367c0.068-0.053,0.166-0.041,0.219,0.027l0.358,0.46l0.483-0.375
					c0.068-0.053,0.166-0.041,0.219,0.027l0.367,0.471l0.505-0.393c0.068-0.053,0.166-0.041,0.219,0.027l0.393,0.505l0.539-0.419
					c0.05-0.039,0.118-0.044,0.173-0.013c0.055,0.031,0.085,0.092,0.078,0.155l-1.072,8.594c-0.005,0.041-0.026,0.078-0.059,0.104
					C22.182,25.072,22.148,25.083,22.114,25.083z M15.867,23.991l6.112,0.762l1.006-8.066l-0.365,0.284
					c-0.068,0.053-0.166,0.041-0.219-0.027l-0.393-0.505l-0.505,0.393c-0.068,0.053-0.166,0.041-0.219-0.027l-0.367-0.471
					l-0.483,0.375c-0.033,0.025-0.074,0.037-0.115,0.032c-0.041-0.005-0.078-0.026-0.104-0.059l-0.358-0.46l-0.471,0.367
					c-0.068,0.053-0.166,0.041-0.219-0.027l-0.358-0.46l-0.415,0.323c-0.033,0.025-0.074,0.037-0.115,0.032
					c-0.041-0.005-0.078-0.026-0.104-0.059l-0.402-0.516l-0.527,0.41c-0.068,0.053-0.166,0.041-0.219-0.027l-0.17-0.219
					L15.867,23.991z"/>
			</g>
			<path fill="#FFFFFF" d="M19.375,17.764c-0.004,0-0.009,0-0.013-0.001l-1.974-0.246c-0.057-0.007-0.097-0.059-0.09-0.116
				c0.007-0.057,0.059-0.098,0.116-0.09l1.974,0.246c0.057,0.007,0.097,0.059,0.09,0.116C19.471,17.726,19.426,17.764,19.375,17.764
				z"/>
			<g>
				<line fill="#FFFFFF" x1="17.319" y1="18.072" x2="20.948" y2="18.525"/>
				<path fill="#233863" d="M20.948,18.629c-0.004,0-0.009,0-0.013-0.001l-3.629-0.453c-0.057-0.007-0.097-0.059-0.09-0.116
					c0.007-0.057,0.058-0.097,0.116-0.09l3.629,0.453c0.057,0.007,0.097,0.059,0.09,0.116C21.044,18.59,20.999,18.629,20.948,18.629
					z"/>
			</g>
			<path fill="#FFFFFF" d="M21.826,18.738c-0.004,0-0.009,0-0.013-0.001l-0.486-0.061c-0.057-0.007-0.097-0.059-0.09-0.116
				c0.007-0.057,0.058-0.098,0.116-0.09l0.486,0.061c0.057,0.007,0.097,0.059,0.09,0.116C21.923,18.7,21.878,18.738,21.826,18.738z"
				/>
			<g>
				<line fill="#FFFFFF" x1="17.2" y1="19.019" x2="18.534" y2="19.186"/>
				<path fill="#233863" d="M18.534,19.29c-0.004,0-0.009,0-0.013-0.001l-1.334-0.166c-0.057-0.007-0.097-0.059-0.09-0.116
					c0.007-0.057,0.059-0.097,0.116-0.09l1.334,0.166c0.057,0.007,0.097,0.059,0.09,0.116C18.631,19.251,18.586,19.29,18.534,19.29z
					"/>
			</g>
			<g>
				<line fill="#FFFFFF" x1="19.11" y1="19.258" x2="21.708" y2="19.582"/>
				<path fill="#233863" d="M21.708,19.685c-0.004,0-0.009,0-0.013-0.001l-2.598-0.324c-0.057-0.007-0.097-0.059-0.09-0.116
					c0.007-0.057,0.059-0.098,0.116-0.09l2.598,0.324c0.057,0.007,0.097,0.059,0.09,0.116C21.805,19.647,21.76,19.685,21.708,19.685
					z"/>
			</g>
			<g>
				<line fill="#FFFFFF" x1="17.027" y1="20.41" x2="19.953" y2="20.775"/>
				<path fill="#233863" d="M19.953,20.879c-0.004,0-0.009,0-0.013-0.001l-2.926-0.365c-0.057-0.007-0.097-0.059-0.09-0.116
					c0.007-0.057,0.058-0.098,0.116-0.09l2.926,0.365c0.057,0.007,0.097,0.059,0.09,0.116C20.05,20.841,20.005,20.879,19.953,20.879
					z"/>
			</g>
			<g>
				<line fill="#FFFFFF" x1="20.019" y1="22.135" x2="21.369" y2="22.303"/>
				<path fill="#233863" d="M21.369,22.459c-0.006,0-0.013,0-0.019-0.001L20,22.29c-0.085-0.011-0.146-0.088-0.135-0.174
					c0.011-0.085,0.087-0.146,0.174-0.135l1.35,0.168c0.085,0.011,0.146,0.088,0.135,0.174
					C21.514,22.402,21.447,22.459,21.369,22.459z"/>
			</g>
		</g>
	</g>
</g>
<g>
	<g>
		<g>
			<path fill="#233863" d="M32.332,10.073c0.012-0.025,0.032-0.047,0.057-0.062l1.692-1.001c0.07-0.041,0.16-0.018,0.202,0.052
				c0.041,0.07,0.018,0.16-0.052,0.202l-1.692,1.001c-0.07,0.041-0.16,0.018-0.202-0.052C32.312,10.169,32.311,10.116,32.332,10.073
				z"/>
			<path fill="#233863" d="M31.181,9.802c-0.002-0.02-0.001-0.04,0.006-0.061l0.815-2.615c0.024-0.078,0.107-0.121,0.184-0.097
				c0.078,0.024,0.121,0.107,0.097,0.184l-0.815,2.615c-0.024,0.078-0.107,0.121-0.184,0.097
				C31.227,9.908,31.188,9.858,31.181,9.802z"/>
			<path fill="#233863" d="M28.359,7.351c-0.033-0.071-0.005-0.155,0.065-0.192c0.072-0.038,0.161-0.011,0.199,0.061l1.394,2.637
				c0.037,0.074,0.01,0.161-0.061,0.199c-0.072,0.038-0.161,0.011-0.199-0.061l-1.394-2.637C28.361,7.356,28.36,7.353,28.359,7.351z
				"/>
		</g>
		<g>
			<path fill="#233863" d="M21.089,38.017c-0.022,0.009-0.047,0.012-0.073,0.008l-1.673-0.312c-0.069-0.013-0.115-0.08-0.102-0.149
				c0.013-0.069,0.08-0.114,0.149-0.102l1.673,0.312c0.069,0.013,0.115,0.08,0.102,0.149C21.157,37.966,21.127,38.001,21.089,38.017
				z"/>
			<path fill="#233863" d="M21.685,38.849c-0.01,0.014-0.023,0.027-0.038,0.036l-2.021,1.239c-0.06,0.037-0.138,0.018-0.175-0.042
				c-0.037-0.06-0.018-0.138,0.042-0.175l2.021-1.239c0.06-0.037,0.138-0.018,0.175,0.042
				C21.716,38.754,21.712,38.809,21.685,38.849z"/>
			<path fill="#233863" d="M22.126,42.054c-0.019,0.065-0.085,0.104-0.152,0.088c-0.068-0.016-0.111-0.085-0.095-0.153l0.595-2.512
				c0.018-0.07,0.085-0.111,0.153-0.095c0.068,0.016,0.111,0.085,0.095,0.153l-0.595,2.512
				C22.128,42.05,22.127,42.052,22.126,42.054z"/>
		</g>
	</g>
	<g>
		<g>
			<path fill="#FFB44F" d="M8.013,26.986l-0.07-1.789l3.08,2.864l-2.846,3.097l-0.07-1.788c0,0-2.658-0.534-4.337,2.558
				c0,0-0.539-2.289,1.404-4.038C5.173,27.89,6.049,27.004,8.013,26.986L8.013,26.986z M8.013,26.986"/>
			<path fill="#233863" d="M3.77,32.084c-0.007,0-0.014,0-0.021-0.001c-0.064-0.009-0.116-0.056-0.131-0.119
				c-0.006-0.024-0.537-2.399,1.451-4.189c0.03-0.031,0.889-0.878,2.782-0.941l-0.064-1.63c-0.002-0.063,0.033-0.121,0.091-0.148
				c0.057-0.026,0.125-0.015,0.171,0.027l3.08,2.864c0.063,0.058,0.067,0.156,0.009,0.22l-2.846,3.097
				c-0.043,0.047-0.109,0.063-0.169,0.041c-0.059-0.022-0.099-0.077-0.102-0.14l-0.065-1.659c-0.527-0.06-2.629-0.119-4.049,2.497
				C3.879,32.053,3.826,32.084,3.77,32.084z M8.113,25.569l0.055,1.411c0.002,0.042-0.014,0.083-0.043,0.114
				c-0.029,0.03-0.069,0.048-0.111,0.048c-1.878,0.017-2.722,0.849-2.73,0.858c-1.355,1.22-1.46,2.723-1.416,3.453
				c1.719-2.711,4.243-2.242,4.269-2.236c0.071,0.014,0.122,0.075,0.125,0.147l0.055,1.411l2.486-2.704L8.113,25.569z"/>
		</g>
		<g>
			<path fill="#FFB44F" d="M39.508,33.113l-0.05,1.789l-2.882-3.064l3.047-2.899l-0.05,1.789c0,0,2.617,0.71,4.498-2.262
				c0,0,0.385,2.32-1.671,3.935C42.402,32.401,41.468,33.227,39.508,33.113L39.508,33.113z M39.508,33.113"/>
			<path fill="#233863" d="M39.458,35.058c-0.042,0-0.084-0.017-0.114-0.049l-2.882-3.064c-0.059-0.062-0.056-0.161,0.006-0.22
				l3.047-2.899c0.046-0.043,0.113-0.055,0.171-0.029c0.058,0.026,0.094,0.084,0.092,0.147l-0.046,1.66
				c0.522,0.096,2.615,0.295,4.207-2.221c0.035-0.054,0.099-0.082,0.163-0.069c0.063,0.013,0.112,0.063,0.123,0.127
				c0.004,0.024,0.375,2.43-1.728,4.083c-0.032,0.029-0.945,0.817-2.839,0.752l-0.045,1.631c-0.002,0.063-0.041,0.119-0.1,0.141
				C39.495,35.055,39.477,35.058,39.458,35.058z M36.796,31.844l2.517,2.676l0.039-1.412c0.001-0.042,0.019-0.082,0.05-0.111
				c0.031-0.028,0.073-0.043,0.114-0.041c1.864,0.107,2.773-0.665,2.782-0.673c1.438-1.13,1.641-2.622,1.645-3.352
				c-1.897,2.591-4.385,1.954-4.411,1.947c-0.07-0.019-0.117-0.083-0.115-0.155l0.039-1.411L36.796,31.844z"/>
		</g>
	</g>
</g>
<g>
	<path fill="#FFFFFF" d="M16.665,31.373h0.235v0.876h0.008c0.049-0.07,0.097-0.135,0.143-0.194l0.555-0.682h0.291l-0.657,0.772
		l0.709,1.046H17.67l-0.599-0.892l-0.173,0.2v0.693h-0.235V31.373z"/>
	<path fill="#FFFFFF" d="M18.088,32.948c0.07,0.046,0.194,0.094,0.313,0.094c0.173,0,0.253-0.086,0.253-0.194
		c0-0.113-0.067-0.175-0.243-0.239c-0.234-0.084-0.345-0.213-0.345-0.369c0-0.21,0.17-0.383,0.45-0.383
		c0.132,0,0.248,0.038,0.321,0.081l-0.059,0.173c-0.051-0.032-0.146-0.075-0.267-0.075c-0.14,0-0.218,0.081-0.218,0.177
		c0,0.108,0.078,0.156,0.248,0.221c0.227,0.086,0.343,0.2,0.343,0.394c0,0.229-0.178,0.39-0.488,0.39
		c-0.143,0-0.275-0.035-0.366-0.089L18.088,32.948z"/>
</g>
<g>
	<path fill="#FFFFFF" d="M12.023,25.128l0.293-0.218l0.812,1.096l0.01-0.007c-0.004-0.133-0.003-0.258-0.001-0.376l0.062-1.367
		l0.364-0.27l-0.107,1.574l1.855,0.65l-0.347,0.257l-1.576-0.561l-0.03,0.41l0.642,0.866L13.708,27.4L12.023,25.128z"/>
	<path fill="#FFFFFF" d="M15.262,25.777c0.13-0.008,0.33-0.062,0.479-0.172c0.216-0.16,0.237-0.343,0.136-0.478
		c-0.105-0.141-0.246-0.156-0.525-0.074c-0.371,0.112-0.629,0.054-0.774-0.142c-0.195-0.263-0.142-0.636,0.208-0.896
		c0.165-0.123,0.345-0.182,0.476-0.197l0.086,0.271c-0.094,0.007-0.251,0.041-0.403,0.154c-0.175,0.13-0.198,0.303-0.109,0.424
		c0.1,0.135,0.243,0.123,0.515,0.046c0.363-0.102,0.614-0.068,0.794,0.175c0.212,0.286,0.139,0.653-0.249,0.94
		c-0.178,0.132-0.376,0.212-0.54,0.229L15.262,25.777z"/>
</g>
<g>
	<path fill="#FFFFFF" d="M11.306,36.248h0.155v0.579h0.005c0.032-0.046,0.064-0.089,0.095-0.128l0.367-0.451h0.192l-0.435,0.51
		l0.468,0.691h-0.183l-0.396-0.59l-0.114,0.132v0.458h-0.155V36.248z"/>
	<path fill="#FFFFFF" d="M12.247,37.289c0.046,0.03,0.128,0.062,0.207,0.062c0.114,0,0.167-0.057,0.167-0.128
		c0-0.075-0.045-0.116-0.16-0.158c-0.155-0.055-0.228-0.141-0.228-0.244c0-0.139,0.112-0.253,0.298-0.253
		c0.087,0,0.164,0.025,0.212,0.053l-0.039,0.114c-0.034-0.021-0.096-0.05-0.176-0.05c-0.093,0-0.144,0.053-0.144,0.117
		c0,0.071,0.052,0.103,0.164,0.146c0.15,0.057,0.227,0.132,0.227,0.261c0,0.151-0.118,0.258-0.323,0.258
		c-0.094,0-0.182-0.023-0.242-0.059L12.247,37.289z"/>
</g>
<g>
	<path fill="#FFFFFF" d="M10.462,31.847h0.082v0.308h0.003c0.017-0.025,0.034-0.047,0.05-0.068l0.195-0.24h0.102l-0.231,0.271
		l0.249,0.367h-0.097l-0.21-0.313l-0.061,0.07v0.243h-0.082V31.847z"/>
	<path fill="#FFFFFF" d="M10.962,32.4c0.025,0.016,0.068,0.033,0.11,0.033c0.061,0,0.089-0.03,0.089-0.068
		c0-0.04-0.024-0.061-0.085-0.084c-0.082-0.029-0.121-0.075-0.121-0.13c0-0.074,0.06-0.134,0.158-0.134
		c0.046,0,0.087,0.013,0.113,0.028l-0.021,0.061c-0.018-0.011-0.051-0.026-0.094-0.026c-0.049,0-0.077,0.028-0.077,0.062
		c0,0.038,0.027,0.055,0.087,0.078c0.08,0.03,0.12,0.07,0.12,0.138c0,0.08-0.063,0.137-0.171,0.137c-0.05,0-0.097-0.012-0.129-0.031
		L10.962,32.4z"/>
</g>
<path fill-rule="evenodd" clip-rule="evenodd" fill="#D62027" d="M33.152,20.243l-0.039,0.124c0,0-0.31-0.042-0.691-0.135
	c-0.136-0.036-0.276-0.089-0.415-0.14c-0.298-0.146-0.402-0.248-0.272-0.479c0,0,0.046-0.108,0.492-0.414
	c0.144-0.093,0.326-0.194,0.562-0.321l0.091,0.109c0,0-0.101,0.137-0.329,0.36c-0.194,0.188-0.42,0.395-0.42,0.395L33.152,20.243z"
	/>
<g>
	<g>
		<path fill="#253775" d="M34.229,19.317c0,0-0.003-0.112-0.012-0.276c-0.014-0.269-0.048-0.677-0.156-0.953
			c-0.044-0.084-0.096-0.124-0.15-0.148c-0.011-0.007-0.024-0.011-0.036-0.016c-0.013-0.003-0.025-0.007-0.038-0.008
			c-0.058-0.011-0.123-0.008-0.208,0.036c-0.246,0.165-0.506,0.481-0.671,0.694c-0.101,0.13-0.167,0.22-0.167,0.22l-0.05,0.04
			l0.093,0.14l0.066-0.065l0.845-0.639l0.33,1.007l0.018,0.091l0.154-0.063L34.229,19.317z"/>
	</g>
</g>
<path fill-rule="evenodd" clip-rule="evenodd" fill="#009749" d="M33.15,20.242l-0.039,0.124c0,0,0.279,0.141,0.646,0.283
	c0.141,0.055,0.284,0.09,0.421,0.121c0.329,0.05,0.472,0.025,0.497-0.238c0,0,0.023-0.115-0.169-0.62
	c-0.065-0.158-0.137-0.297-0.259-0.537l-0.155,0.062c0,0,0.003,0.098,0.063,0.411c0.053,0.265,0.116,0.562,0.116,0.562L33.15,20.242
	z"/>
<path fill-rule="evenodd" clip-rule="evenodd" fill="#D62027" d="M37.063,19.604c0.052-0.059,0.1-0.114,0.149-0.169
	c0.072-0.081,0.141-0.165,0.216-0.242c0.057-0.059,0.127-0.098,0.214-0.09c0.128,0.011,0.214,0.09,0.24,0.231
	c0.019,0.101,0.028,0.204,0.038,0.307c0.065,0.63,0.129,1.26,0.194,1.889c0.007,0.07,0.009,0.14-0.009,0.208
	c-0.029,0.106-0.115,0.171-0.237,0.179c-0.108,0.007-0.198-0.046-0.237-0.147c-0.019-0.05-0.034-0.105-0.04-0.158
	c-0.04-0.368-0.076-0.737-0.114-1.105c-0.016-0.158-0.033-0.316-0.05-0.473c-0.001-0.009-0.003-0.018-0.004-0.03
	c-0.024,0.028-0.047,0.054-0.069,0.08c-0.068,0.079-0.136,0.158-0.203,0.238c-0.008,0.01-0.014,0.027-0.013,0.04
	c0.029,0.298,0.06,0.596,0.09,0.894c0.007,0.068,0.009,0.136-0.009,0.202c-0.029,0.109-0.115,0.175-0.237,0.183
	c-0.11,0.007-0.199-0.046-0.238-0.149c-0.019-0.05-0.032-0.103-0.039-0.155c-0.017-0.132-0.028-0.266-0.042-0.398
	c-0.001-0.013-0.003-0.025-0.005-0.045c-0.047,0.054-0.088,0.103-0.131,0.152c-0.071,0.081-0.14,0.165-0.216,0.242
	c-0.059,0.059-0.129,0.101-0.219,0.09c-0.19-0.023-0.29-0.228-0.189-0.397c0.033-0.055,0.075-0.106,0.116-0.155
	c0.181-0.214,0.364-0.426,0.546-0.64c0.008-0.01,0.016-0.025,0.015-0.037c-0.012-0.135-0.026-0.27-0.04-0.404
	c0-0.005-0.002-0.009-0.004-0.017c-0.08,0.093-0.157,0.185-0.236,0.276c-0.273,0.318-0.546,0.636-0.819,0.952
	c-0.053,0.062-0.113,0.118-0.195,0.138c-0.106,0.026-0.19-0.018-0.256-0.099c-0.066-0.082-0.073-0.173-0.026-0.268
	c0.046-0.094,0.12-0.167,0.187-0.246c0.349-0.409,0.698-0.817,1.047-1.225c0.084-0.098,0.169-0.196,0.255-0.293
	c0.052-0.058,0.109-0.11,0.186-0.131c0.126-0.034,0.254,0.039,0.301,0.167c0.032,0.089,0.034,0.183,0.045,0.275
	c0.012,0.102,0.023,0.205,0.034,0.307C37.06,19.587,37.061,19.593,37.063,19.604z"/>
<path fill="#253775" d="M40.357,20.344c0.055-0.025,0.093-0.069,0.112-0.132c0.02-0.063,0.014-0.121-0.016-0.173
	c-0.031-0.052-0.09-0.092-0.177-0.12l-1.601-0.501c-0.083-0.026-0.153-0.027-0.208-0.003c-0.056,0.024-0.094,0.069-0.114,0.134
	c-0.02,0.063-0.015,0.12,0.016,0.172c0.03,0.052,0.088,0.091,0.175,0.118l0.553,0.173l-0.561,1.792
	c-0.033,0.104-0.033,0.19-0.002,0.256c0.031,0.066,0.084,0.111,0.159,0.135c0.074,0.023,0.131,0.013,0.193-0.023
	c0.063-0.036,0.11-0.107,0.143-0.213l0.561-1.792l0.553,0.173C40.231,20.368,40.302,20.369,40.357,20.344z"/>
<path fill="#009749" d="M41.553,23.07c0.103,0.018,0.198,0.023,0.284,0.014c0.139-0.016,0.262-0.069,0.369-0.159
	c0.107-0.09,0.183-0.206,0.227-0.347c0.095-0.305-0.005-0.562-0.301-0.77c0.287-0.039,0.47-0.184,0.549-0.436
	c0.023-0.073,0.033-0.147,0.03-0.22c-0.003-0.073-0.019-0.144-0.048-0.213c-0.029-0.069-0.067-0.13-0.115-0.184
	c-0.056-0.064-0.126-0.117-0.209-0.16c-0.083-0.042-0.184-0.082-0.304-0.12l-0.817-0.256c-0.108-0.034-0.194-0.034-0.258,0
	c-0.064,0.034-0.113,0.106-0.148,0.217l-0.593,1.895c-0.034,0.109-0.035,0.196-0.004,0.26c0.032,0.065,0.103,0.114,0.213,0.149
	l0.771,0.241C41.332,23.023,41.45,23.052,41.553,23.07z M41.884,22.061c0.071,0.085,0.086,0.191,0.047,0.319
	c-0.078,0.249-0.288,0.32-0.631,0.212l-0.545-0.17l0.23-0.736l0.528,0.165C41.69,21.905,41.813,21.976,41.884,22.061z
	 M41.715,20.796c0.184,0.058,0.315,0.122,0.392,0.192c0.077,0.07,0.095,0.169,0.056,0.296c-0.019,0.06-0.05,0.109-0.093,0.148
	c-0.058,0.056-0.125,0.086-0.201,0.088c-0.076,0.003-0.178-0.016-0.304-0.056L41.1,21.319l0.204-0.652L41.715,20.796z"/>
<g>
	<g>
		<path fill="#253775" d="M31.859,20.477l-0.028-0.009c-0.017-0.005-0.029-0.008-0.038-0.007s-0.016,0.004-0.022,0.011
			s-0.014,0.018-0.024,0.034l-0.139,0.219l0.01-0.26c0.001-0.019,0.001-0.033-0.001-0.042c-0.001-0.009-0.005-0.016-0.012-0.021
			s-0.018-0.011-0.035-0.016l-0.028-0.009c-0.017-0.005-0.032-0.006-0.044-0.003c-0.012,0.004-0.021,0.015-0.027,0.034l-0.108,0.346
			c-0.005,0.017-0.005,0.031,0,0.041c0.005,0.011,0.014,0.018,0.026,0.022c0.013,0.004,0.024,0.003,0.034-0.003
			c0.01-0.006,0.018-0.017,0.023-0.034l0.094-0.302l-0.016,0.301c0,0.01-0.001,0.019-0.001,0.029c0,0.009,0,0.018,0.002,0.026
			c0.002,0.008,0.006,0.016,0.012,0.022c0.006,0.007,0.014,0.012,0.025,0.015c0.014,0.004,0.026,0.004,0.036,0
			c0.01-0.004,0.018-0.01,0.023-0.018c0.006-0.008,0.013-0.02,0.024-0.036l0.158-0.256l-0.094,0.302
			c-0.005,0.017-0.005,0.03,0,0.041c0.005,0.011,0.013,0.018,0.025,0.022c0.013,0.004,0.024,0.003,0.034-0.003
			c0.01-0.006,0.018-0.017,0.023-0.034l0.108-0.346c0.006-0.019,0.005-0.034-0.003-0.043C31.889,20.489,31.876,20.482,31.859,20.477
			z M32.45,20.653c-0.007-0.002-0.014-0.003-0.02-0.002c-0.006,0.001-0.012,0.003-0.017,0.007c-0.006,0.004-0.011,0.008-0.016,0.012
			c-0.005,0.004-0.012,0.01-0.019,0.017l-0.125,0.106l-0.041-0.159c-0.006-0.024-0.012-0.041-0.016-0.05
			c-0.004-0.009-0.013-0.015-0.025-0.019c-0.012-0.004-0.023-0.003-0.033,0.002s-0.017,0.012-0.02,0.022
			c-0.002,0.006-0.002,0.014-0.001,0.024c0.001,0.01,0.004,0.023,0.009,0.041l0.057,0.199l-0.043,0.139
			c-0.006,0.018-0.006,0.033,0,0.045s0.015,0.019,0.028,0.023c0.013,0.004,0.025,0.003,0.037-0.003
			c0.011-0.006,0.02-0.018,0.025-0.036l0.043-0.139l0.164-0.133c0.014-0.011,0.023-0.019,0.03-0.026
			c0.006-0.007,0.011-0.014,0.013-0.021c0.003-0.01,0.002-0.019-0.003-0.029C32.47,20.663,32.461,20.657,32.45,20.653z
			 M32.928,20.856c-0.001-0.01-0.003-0.019-0.006-0.028c-0.003-0.009-0.008-0.017-0.015-0.024c-0.007-0.007-0.017-0.013-0.029-0.017
			c-0.012-0.004-0.023-0.005-0.033-0.003c-0.01,0.002-0.018,0.006-0.026,0.012c-0.008,0.006-0.015,0.014-0.023,0.024
			c-0.008,0.01-0.015,0.019-0.021,0.026l-0.202,0.248c-0.008,0.01-0.014,0.018-0.018,0.023s-0.007,0.012-0.009,0.018
			c-0.003,0.01-0.002,0.021,0.004,0.032c0.006,0.011,0.015,0.018,0.026,0.022c0.013,0.004,0.024,0.003,0.032-0.003
			s0.02-0.018,0.035-0.038l0.039-0.049l0.18,0.056l0.004,0.061c0.001,0.008,0.002,0.016,0.003,0.027s0.003,0.018,0.005,0.023
			c0.002,0.005,0.005,0.01,0.01,0.014c0.004,0.004,0.01,0.007,0.017,0.009c0.012,0.004,0.024,0.003,0.035-0.003
			c0.011-0.006,0.018-0.014,0.022-0.024c0.003-0.01,0.003-0.027,0.001-0.051l-0.028-0.318C32.93,20.878,32.929,20.866,32.928,20.856
			z M32.727,21.04l0.122-0.16l0.01,0.201L32.727,21.04z M33.604,21.028c-0.01,0.006-0.018,0.018-0.023,0.035l-0.081,0.26
			l-0.092-0.312c-0.002-0.009-0.005-0.018-0.007-0.026c-0.002-0.008-0.005-0.015-0.008-0.021c-0.003-0.006-0.007-0.011-0.012-0.015
			s-0.011-0.008-0.019-0.01c-0.01-0.003-0.021-0.003-0.031-0.001c-0.011,0.003-0.019,0.008-0.026,0.016
			c-0.006,0.007-0.011,0.018-0.015,0.032l-0.105,0.337c-0.005,0.017-0.005,0.03,0,0.041s0.014,0.019,0.026,0.023
			c0.012,0.004,0.024,0.003,0.034-0.003c0.011-0.006,0.018-0.018,0.024-0.034l0.08-0.256l0.089,0.307
			c0.003,0.008,0.005,0.017,0.008,0.025c0.003,0.008,0.006,0.016,0.01,0.022c0.004,0.007,0.009,0.012,0.015,0.017
			c0.006,0.004,0.013,0.008,0.021,0.01c0.032,0.01,0.054-0.004,0.066-0.042l0.108-0.344c0.005-0.017,0.005-0.031,0.001-0.042
			c-0.005-0.011-0.014-0.018-0.027-0.022C33.625,21.021,33.614,21.022,33.604,21.028z M34.298,21.24l-0.028-0.009
			c-0.017-0.005-0.029-0.008-0.038-0.007s-0.016,0.004-0.022,0.011c-0.006,0.007-0.014,0.018-0.024,0.034l-0.139,0.219l0.01-0.259
			c0.001-0.019,0.001-0.033-0.001-0.042c-0.001-0.009-0.005-0.016-0.012-0.021c-0.007-0.005-0.018-0.011-0.035-0.016l-0.028-0.009
			c-0.017-0.005-0.032-0.006-0.044-0.003c-0.012,0.003-0.021,0.015-0.027,0.034l-0.108,0.346c-0.005,0.017-0.005,0.031,0,0.041
			c0.005,0.011,0.014,0.018,0.026,0.022c0.013,0.004,0.024,0.003,0.034-0.003c0.01-0.006,0.018-0.017,0.023-0.034l0.094-0.302
			l-0.016,0.301c0,0.01-0.001,0.019-0.001,0.029c0,0.009,0,0.018,0.002,0.026c0.002,0.008,0.006,0.016,0.012,0.022
			s0.014,0.012,0.025,0.015c0.014,0.004,0.026,0.004,0.036,0c0.01-0.005,0.018-0.01,0.023-0.018c0.006-0.008,0.013-0.02,0.024-0.036
			l0.158-0.256l-0.094,0.302c-0.005,0.017-0.005,0.03,0,0.041s0.013,0.018,0.025,0.022c0.013,0.004,0.024,0.003,0.034-0.003
			c0.01-0.006,0.018-0.017,0.023-0.034l0.108-0.346c0.006-0.019,0.005-0.034-0.003-0.043S34.315,21.245,34.298,21.24z
			 M34.849,21.457c-0.001-0.01-0.003-0.019-0.006-0.028c-0.003-0.009-0.008-0.017-0.015-0.024c-0.007-0.007-0.017-0.013-0.029-0.017
			c-0.012-0.004-0.023-0.005-0.033-0.003c-0.01,0.002-0.018,0.006-0.026,0.012c-0.007,0.006-0.015,0.014-0.023,0.024
			s-0.015,0.019-0.021,0.026l-0.202,0.248c-0.008,0.01-0.014,0.018-0.018,0.023c-0.004,0.006-0.007,0.012-0.009,0.018
			c-0.003,0.01-0.002,0.021,0.004,0.032s0.015,0.018,0.026,0.022c0.013,0.004,0.024,0.003,0.032-0.003s0.02-0.018,0.035-0.038
			l0.039-0.049l0.18,0.056l0.004,0.061c0.001,0.008,0.002,0.016,0.003,0.027c0.001,0.01,0.003,0.018,0.005,0.023
			c0.002,0.005,0.005,0.01,0.01,0.014c0.004,0.004,0.01,0.007,0.017,0.009c0.012,0.004,0.024,0.003,0.035-0.003
			c0.011-0.006,0.018-0.014,0.022-0.024c0.003-0.01,0.003-0.027,0.001-0.051l-0.028-0.318C34.851,21.48,34.85,21.467,34.849,21.457z
			 M34.648,21.641l0.122-0.16l0.01,0.201L34.648,21.641z M35.749,21.694l-0.286-0.089c-0.015-0.005-0.027-0.005-0.037-0.001
			c-0.01,0.004-0.016,0.012-0.02,0.023c-0.003,0.011-0.002,0.021,0.003,0.03s0.016,0.016,0.031,0.021l0.098,0.031l-0.099,0.317
			c-0.006,0.018-0.006,0.033,0,0.044c0.006,0.012,0.015,0.019,0.028,0.024c0.013,0.004,0.025,0.003,0.036-0.003
			c0.011-0.006,0.019-0.018,0.025-0.037l0.099-0.317l0.098,0.031c0.015,0.005,0.028,0.005,0.038,0.001
			c0.01-0.004,0.016-0.012,0.02-0.023s0.002-0.021-0.003-0.03C35.775,21.706,35.765,21.699,35.749,21.694z M36.201,21.827
			c-0.034-0.011-0.066-0.015-0.096-0.013c-0.03,0.002-0.057,0.01-0.082,0.024s-0.046,0.033-0.065,0.058s-0.033,0.054-0.044,0.088
			c-0.01,0.033-0.015,0.065-0.015,0.096s0.007,0.06,0.019,0.085c0.012,0.026,0.03,0.049,0.054,0.068
			c0.024,0.02,0.053,0.035,0.088,0.046c0.035,0.011,0.068,0.015,0.098,0.013c0.03-0.002,0.058-0.011,0.083-0.025
			s0.046-0.034,0.064-0.059c0.018-0.025,0.032-0.054,0.043-0.088c0.014-0.046,0.018-0.088,0.012-0.127s-0.023-0.073-0.05-0.102
			S36.247,21.841,36.201,21.827z M36.258,22.091c-0.011,0.035-0.026,0.062-0.044,0.082c-0.019,0.02-0.04,0.033-0.062,0.038
			c-0.023,0.005-0.046,0.004-0.069-0.003c-0.018-0.006-0.033-0.014-0.046-0.025c-0.013-0.011-0.023-0.025-0.031-0.042
			c-0.008-0.017-0.011-0.036-0.011-0.058c0-0.022,0.004-0.046,0.012-0.07c0.008-0.025,0.018-0.046,0.03-0.064
			c0.013-0.018,0.026-0.031,0.041-0.041s0.031-0.015,0.048-0.017c0.017-0.002,0.035,0,0.053,0.006
			c0.025,0.008,0.046,0.021,0.061,0.039c0.016,0.018,0.025,0.041,0.028,0.067C36.272,22.03,36.268,22.059,36.258,22.091z
			 M36.955,22.077c-0.011,0.006-0.019,0.019-0.025,0.037l-0.068,0.217c-0.012,0.037-0.028,0.063-0.048,0.077
			c-0.02,0.014-0.048,0.015-0.083,0.004c-0.025-0.008-0.044-0.019-0.055-0.032s-0.017-0.029-0.018-0.047s0.003-0.039,0.011-0.064
			l0.067-0.215c0.006-0.018,0.006-0.033,0-0.044s-0.015-0.019-0.029-0.024c-0.013-0.004-0.025-0.003-0.036,0.003
			c-0.011,0.006-0.019,0.018-0.025,0.036l-0.066,0.21c-0.01,0.033-0.016,0.063-0.016,0.089c0,0.026,0.005,0.049,0.016,0.069
			c0.011,0.02,0.027,0.038,0.05,0.053c0.022,0.015,0.05,0.028,0.085,0.038c0.029,0.009,0.055,0.013,0.078,0.013
			c0.023,0,0.046-0.005,0.066-0.015c0.024-0.011,0.043-0.028,0.057-0.048s0.026-0.048,0.037-0.082l0.066-0.21
			c0.006-0.018,0.006-0.033,0-0.044c-0.006-0.011-0.015-0.019-0.029-0.023S36.966,22.071,36.955,22.077z M37.586,22.282
			c-0.01-0.009-0.022-0.016-0.035-0.022s-0.031-0.012-0.051-0.019l-0.146-0.046c-0.019-0.006-0.035-0.006-0.046,0
			c-0.011,0.006-0.02,0.018-0.026,0.037l-0.105,0.336c-0.006,0.018-0.006,0.032-0.001,0.044s0.015,0.02,0.029,0.024
			c0.013,0.004,0.025,0.003,0.036-0.003s0.019-0.018,0.025-0.037l0.044-0.14l0.031,0.01c0.016,0.005,0.029,0.011,0.038,0.019
			c0.009,0.008,0.017,0.018,0.024,0.033s0.013,0.035,0.019,0.06l0.018,0.07c0.004,0.017,0.008,0.029,0.01,0.038
			c0.003,0.009,0.007,0.016,0.012,0.023c0.005,0.007,0.013,0.012,0.023,0.015c0.008,0.003,0.016,0.003,0.024,0.002
			c0.007-0.001,0.014-0.004,0.019-0.009c0.005-0.004,0.009-0.01,0.011-0.015c0.002-0.006,0.002-0.017,0-0.034
			s-0.005-0.036-0.011-0.058c-0.006-0.022-0.013-0.043-0.023-0.064c-0.009-0.021-0.021-0.038-0.034-0.051
			c0.04,0.004,0.073-0.001,0.098-0.015c0.025-0.014,0.042-0.037,0.052-0.069c0.005-0.016,0.007-0.032,0.006-0.048
			s-0.005-0.031-0.013-0.045C37.608,22.305,37.598,22.293,37.586,22.282z M37.529,22.389c-0.005,0.016-0.013,0.026-0.023,0.033
			c-0.011,0.006-0.024,0.009-0.04,0.008c-0.016-0.001-0.035-0.005-0.056-0.012l-0.081-0.025l0.038-0.12l0.083,0.026
			c0.031,0.01,0.051,0.018,0.06,0.026c0.01,0.008,0.016,0.018,0.02,0.029C37.533,22.365,37.533,22.377,37.529,22.389z
			 M37.926,22.381c-0.011,0.006-0.019,0.018-0.025,0.036l-0.108,0.344c-0.006,0.018-0.006,0.033,0,0.044
			c0.005,0.012,0.015,0.019,0.028,0.024c0.013,0.004,0.026,0.003,0.037-0.003s0.02-0.018,0.025-0.037l0.108-0.344
			c0.006-0.018,0.006-0.033,0-0.044c-0.006-0.011-0.015-0.019-0.029-0.024C37.949,22.374,37.937,22.375,37.926,22.381z
			 M38.502,22.558c-0.018-0.013-0.04-0.024-0.068-0.032c-0.034-0.011-0.065-0.015-0.094-0.013s-0.052,0.01-0.071,0.025
			c-0.019,0.014-0.033,0.034-0.04,0.058c-0.008,0.025-0.008,0.048-0.001,0.069c0.007,0.021,0.02,0.04,0.039,0.056
			c0.018,0.017,0.042,0.034,0.072,0.051c0.022,0.013,0.04,0.024,0.052,0.033c0.013,0.009,0.022,0.02,0.028,0.032
			c0.006,0.012,0.007,0.025,0.002,0.04c-0.006,0.018-0.019,0.031-0.039,0.038c-0.02,0.007-0.044,0.006-0.071-0.002
			c-0.019-0.006-0.034-0.014-0.044-0.024s-0.017-0.02-0.02-0.032c-0.004-0.011-0.006-0.025-0.007-0.041
			c-0.001-0.013-0.004-0.024-0.008-0.032c-0.005-0.008-0.012-0.013-0.021-0.016c-0.012-0.004-0.022-0.003-0.032,0.002
			c-0.01,0.005-0.017,0.013-0.02,0.024c-0.006,0.018-0.005,0.039,0.001,0.063c0.006,0.024,0.018,0.044,0.034,0.062
			c0.023,0.025,0.057,0.045,0.101,0.058c0.036,0.011,0.07,0.015,0.1,0.012c0.03-0.004,0.056-0.014,0.076-0.03
			c0.02-0.017,0.035-0.038,0.043-0.065c0.007-0.022,0.009-0.042,0.006-0.06s-0.01-0.034-0.021-0.048
			c-0.011-0.014-0.026-0.028-0.044-0.042c-0.018-0.013-0.039-0.027-0.062-0.04c-0.018-0.011-0.032-0.019-0.039-0.025
			c-0.008-0.005-0.015-0.012-0.022-0.019s-0.012-0.015-0.015-0.023s-0.003-0.016,0-0.025c0.004-0.014,0.015-0.024,0.033-0.03
			c0.017-0.006,0.038-0.005,0.061,0.003c0.025,0.008,0.042,0.018,0.05,0.031c0.008,0.013,0.014,0.029,0.017,0.048
			c0.003,0.013,0.006,0.024,0.01,0.03c0.004,0.007,0.011,0.012,0.021,0.015c0.011,0.003,0.022,0.002,0.032-0.004
			s0.017-0.014,0.02-0.025c0.004-0.012,0.004-0.024,0.002-0.038c-0.002-0.014-0.008-0.029-0.018-0.044S38.52,22.571,38.502,22.558z
			 M39.233,22.784l-0.028-0.009c-0.017-0.005-0.029-0.008-0.038-0.007s-0.016,0.004-0.022,0.011
			c-0.006,0.007-0.014,0.018-0.024,0.034l-0.139,0.219l0.01-0.26c0.001-0.019,0.001-0.033-0.001-0.042
			c-0.001-0.009-0.005-0.016-0.012-0.021c-0.007-0.005-0.018-0.011-0.035-0.016l-0.028-0.009c-0.017-0.005-0.032-0.006-0.044-0.003
			c-0.012,0.004-0.021,0.015-0.027,0.034l-0.108,0.346c-0.005,0.017-0.005,0.031,0,0.041c0.005,0.011,0.014,0.018,0.026,0.022
			c0.013,0.004,0.024,0.003,0.034-0.003s0.018-0.017,0.023-0.034l0.094-0.302l-0.016,0.301c0,0.01-0.001,0.019-0.001,0.029
			c0,0.009,0,0.018,0.002,0.026c0.002,0.008,0.006,0.016,0.012,0.022c0.006,0.007,0.014,0.012,0.024,0.015
			c0.014,0.004,0.026,0.004,0.036,0c0.01-0.004,0.018-0.01,0.023-0.018c0.006-0.008,0.013-0.02,0.024-0.036l0.158-0.256
			l-0.094,0.302c-0.005,0.017-0.005,0.03,0,0.041c0.005,0.011,0.014,0.018,0.025,0.022c0.013,0.004,0.024,0.003,0.034-0.003
			s0.018-0.017,0.023-0.034l0.108-0.346c0.006-0.019,0.005-0.034-0.003-0.043S39.251,22.789,39.233,22.784z M40.147,23.09
			c-0.01-0.011-0.022-0.021-0.037-0.028s-0.033-0.014-0.054-0.021l-0.144-0.045c-0.019-0.006-0.034-0.006-0.046,0
			s-0.02,0.018-0.026,0.038l-0.103,0.328c-0.006,0.019-0.006,0.034,0,0.045c0.006,0.011,0.018,0.02,0.038,0.026l0.135,0.042
			c0.023,0.007,0.044,0.013,0.062,0.016c0.018,0.003,0.035,0.004,0.05,0.003c0.024-0.003,0.046-0.012,0.065-0.027
			c0.019-0.016,0.032-0.036,0.04-0.06c0.017-0.053-0.001-0.098-0.054-0.134c0.051-0.006,0.083-0.031,0.097-0.075
			c0.004-0.013,0.006-0.025,0.005-0.038c-0.001-0.013-0.004-0.025-0.009-0.037C40.162,23.11,40.156,23.1,40.147,23.09z
			 M39.928,23.408l-0.096-0.03l0.04-0.128l0.093,0.029c0.031,0.01,0.053,0.022,0.066,0.037c0.013,0.015,0.016,0.033,0.009,0.055
			C40.026,23.415,39.989,23.427,39.928,23.408z M40.063,23.207c-0.01,0.01-0.022,0.015-0.035,0.015c-0.013,0-0.031-0.003-0.054-0.01
			l-0.082-0.026l0.035-0.113L40,23.097c0.033,0.01,0.056,0.021,0.07,0.034c0.014,0.012,0.017,0.029,0.01,0.051
			C40.076,23.192,40.071,23.201,40.063,23.207z M40.683,23.283c-0.001-0.01-0.003-0.019-0.006-0.028
			c-0.003-0.009-0.008-0.017-0.015-0.024c-0.007-0.007-0.017-0.013-0.029-0.017c-0.012-0.004-0.023-0.005-0.033-0.003
			c-0.01,0.002-0.019,0.006-0.026,0.012c-0.008,0.006-0.015,0.014-0.023,0.024c-0.008,0.01-0.015,0.019-0.021,0.026l-0.202,0.248
			c-0.008,0.01-0.014,0.018-0.018,0.023c-0.004,0.006-0.007,0.012-0.009,0.018c-0.003,0.01-0.002,0.021,0.004,0.032
			s0.015,0.018,0.026,0.022c0.013,0.004,0.024,0.003,0.032-0.003c0.008-0.006,0.02-0.018,0.035-0.038l0.039-0.049l0.18,0.056
			l0.004,0.061c0.001,0.008,0.002,0.017,0.003,0.027s0.003,0.018,0.005,0.023c0.002,0.005,0.005,0.01,0.01,0.014
			c0.004,0.004,0.01,0.007,0.017,0.009c0.012,0.004,0.024,0.003,0.035-0.003c0.011-0.006,0.018-0.014,0.022-0.024
			c0.003-0.01,0.003-0.027,0.001-0.051l-0.028-0.318C40.685,23.305,40.684,23.292,40.683,23.283z M40.482,23.467l0.122-0.16
			l0.01,0.201L40.482,23.467z M41.358,23.454c-0.01,0.006-0.018,0.018-0.023,0.035l-0.081,0.26l-0.092-0.312
			c-0.003-0.009-0.005-0.018-0.007-0.026c-0.002-0.008-0.005-0.015-0.008-0.021c-0.003-0.006-0.007-0.011-0.012-0.015
			c-0.005-0.004-0.011-0.008-0.019-0.01c-0.01-0.003-0.021-0.003-0.031,0c-0.011,0.003-0.019,0.008-0.026,0.016
			c-0.006,0.007-0.011,0.018-0.015,0.032l-0.105,0.337c-0.005,0.017-0.005,0.03,0,0.041c0.005,0.011,0.014,0.019,0.026,0.023
			c0.012,0.004,0.024,0.003,0.034-0.003c0.01-0.006,0.018-0.017,0.024-0.034l0.08-0.256l0.089,0.307
			c0.003,0.008,0.005,0.017,0.008,0.025c0.003,0.008,0.006,0.016,0.01,0.022s0.009,0.012,0.015,0.017
			c0.006,0.004,0.013,0.008,0.021,0.01c0.032,0.01,0.054-0.004,0.066-0.042l0.107-0.344c0.005-0.017,0.006-0.031,0.001-0.041
			c-0.005-0.011-0.014-0.018-0.027-0.022C41.38,23.447,41.368,23.448,41.358,23.454z M42.055,23.701
			c0.003-0.011,0.002-0.021-0.003-0.031s-0.015-0.017-0.028-0.021c-0.01-0.003-0.018-0.003-0.026-0.001s-0.016,0.007-0.028,0.013
			l-0.233,0.126l0.048-0.153c0.006-0.018,0.006-0.033,0-0.044c-0.006-0.011-0.015-0.019-0.029-0.024
			c-0.014-0.004-0.026-0.003-0.037,0.003c-0.011,0.006-0.019,0.019-0.025,0.036l-0.102,0.325c-0.004,0.014-0.007,0.025-0.009,0.032
			c-0.002,0.008-0.002,0.015-0.001,0.021c0.002,0.008,0.005,0.015,0.011,0.021c0.006,0.006,0.013,0.01,0.02,0.013
			c0.013,0.004,0.026,0.003,0.037-0.003c0.011-0.006,0.02-0.018,0.025-0.037l0.028-0.09l0.095-0.046l0.056,0.194
			c0.002,0.008,0.004,0.018,0.007,0.028c0.003,0.01,0.007,0.02,0.013,0.027c0.006,0.008,0.016,0.014,0.028,0.017
			c0.013,0.004,0.025,0.004,0.035-0.001c0.01-0.005,0.017-0.012,0.02-0.022c0.003-0.009,0.003-0.018,0.002-0.029
			c-0.002-0.011-0.005-0.023-0.01-0.039l-0.07-0.217l0.141-0.068C42.04,23.724,42.051,23.714,42.055,23.701z"/>
	</g>
</g>
</svg>
