<svg xmlns="http://www.w3.org/2000/svg" viewBox="0 0 24 24" enable-background="new 0 0 24 24"><style type="text/css">.st0{fill:#9ECFEF;} .st1{fill:#595959;} .st2{fill:#FFFFFF;} .st3{fill:#595959;stroke:#FFFFFF;stroke-width:0.25;stroke-miterlimit:10;} .st4{fill:#FFFFFF;stroke:#333333;stroke-width:0.25;stroke-miterlimit:10;} .st5{fill:#97C9E8;} .st6{fill:#595959;stroke:#595959;stroke-width:0.25;stroke-miterlimit:10;} .st7{fill:none;} .st8{fill:#595959;stroke:#FFFFFF;stroke-width:0.1916;stroke-miterlimit:10;} .st9{fill:#595959;stroke:#595959;stroke-width:0.2196;stroke-miterlimit:10;} .st10{fill:#FFFFFF;stroke:#595959;stroke-width:0.2196;stroke-miterlimit:10;} .st11{fill:#9ECFEF;stroke:#595959;stroke-width:0.25;stroke-miterlimit:10;} .st12{fill:#CA589D;} .st13{opacity:0.2;fill:#CA589D;} .st14{fill:#3CAF85;} .st15{fill:none;stroke:#2C3251;stroke-width:0.75;stroke-miterlimit:10;} .st16{fill:#595959;stroke:#FFFFFF;stroke-width:0.2467;stroke-miterlimit:10;} .st17{fill:#9ECFEF;stroke:#595959;stroke-width:0.5;stroke-miterlimit:10;} .st18{fill:#595959;stroke:#FFFFFF;stroke-width:0.4959;stroke-miterlimit:10;} .st19{fill:#595959;stroke:#595959;stroke-width:0.2246;stroke-miterlimit:10;} .st20{fill:none;stroke:#595959;stroke-width:0.7572;stroke-miterlimit:10;} .st21{fill:#595959;stroke:#595959;stroke-width:0.5;stroke-miterlimit:10;} .st22{fill:#FFFFFF;stroke:#FFFFFF;stroke-width:0.25;stroke-miterlimit:10;} .st23{fill:none;stroke:#FFFFFF;stroke-width:0.6;stroke-miterlimit:10;} .st24{fill:none;stroke:#FFFFFF;stroke-width:0.3;stroke-miterlimit:10;} .st25{fill:#FFFFFF;stroke:#FFFFFF;stroke-width:0.5;stroke-miterlimit:10;} .st26{fill:#595959;stroke:#595959;stroke-width:0.2986;stroke-miterlimit:10;} .st27{fill:#9ECFEF;stroke:#595959;stroke-width:0.75;stroke-miterlimit:10;} .st28{fill:#9ECEEE;stroke:#9ECEEE;stroke-width:0.75;stroke-miterlimit:10;} .st29{fill-rule:evenodd;clip-rule:evenodd;fill:#9ECFEF;} .st30{fill:none;stroke:#595959;stroke-miterlimit:10;} .st31{fill:none;stroke:#595959;stroke-width:0.9161;stroke-miterlimit:10;} .st32{fill:#B3B3B3;} .st33{fill:none;stroke:#324044;stroke-width:0.75;stroke-miterlimit:10;} .st34{fill:none;stroke:#FFFFFF;stroke-width:0.75;stroke-miterlimit:10;} .st35{fill:none;stroke:#2C3251;stroke-width:0.4222;stroke-miterlimit:10;} .st36{fill-rule:evenodd;clip-rule:evenodd;fill:#595959;stroke:#595959;stroke-width:0.5781;stroke-miterlimit:10;} .st37{fill:#595959;stroke:#595959;stroke-width:0.1786;stroke-miterlimit:10;} .st38{fill:#FFFFFF;stroke:#FFFFFF;stroke-width:0.2467;stroke-miterlimit:10;} .st39{fill-rule:evenodd;clip-rule:evenodd;fill:#595959;} .st40{fill-rule:evenodd;clip-rule:evenodd;fill:#FFFFFF;} .st41{clip-path:url(#SVGID_2_);} .st42{clip-path:url(#SVGID_4_);fill:#9ECFEF;} .st43{clip-path:url(#SVGID_6_);} .st44{clip-path:url(#SVGID_8_);fill:#9ECFEF;} .st45{clip-path:url(#SVGID_10_);} .st46{clip-path:url(#SVGID_12_);fill:#595959;} .st47{clip-path:url(#SVGID_14_);} .st48{clip-path:url(#SVGID_16_);fill:#595959;} .st49{clip-path:url(#SVGID_18_);} .st50{clip-path:url(#SVGID_20_);fill:#595959;}</style><path class="st0" d="M2 11h4v9.689h-4zM2 20h16v2.2h-16zM2 4h16v7h-16z"/><path class="st2" d="M4 5h12v16h-12z"/><path class="st1" d="M18.5 11v-6.79c0-.51-.41-.92-.92-.92h-3.2v-.91h-1.84v-.46c0-.51-.41-.92-.92-.92h-2.74c-.51 0-.92.41-.92.92v.46h-1.84v.91h-3.2c-.51 0-.92.41-.92.92v17.87c0 .51.41.92.92.92h14.66c.51 0 .92-.41.92-.92v-2.08h-.92v2.08h-14.66v-17.87h3.2v1.83h8.26v-1.83h3.2v6.79h.92zm-5.04-5.88h-6.42v-1.83h1.84v-1.37h2.74v1.37h1.84v1.83z"/><path class="st2" d="M11.62 3.29v-1.37h-2.74v1.37h-1.84v1.83h6.42v-1.83h-1.84zm-.91 0h-.92v-.91h.92v.91z"/><path class="st3" d="M16.499 4.667h-1.666v.917h.834v5.416h.834l-.002-6.333zM16.5 20l-11.666.117v-14.568h.834v-.882h-1.668v16.333h12.499l.001-1z"/><path class="st1" d="M9.79 2.38h.92v.91h-.92zM9.053 9.088l-.648-.648-1.62 1.62-.648-.648-.648.648 1.296 1.297zM9.792 9.708h4.583v.917h-4.583zM9.053 12.296l-.648-.648-1.62 1.62-.648-.648-.648.648 1.296 1.297zM9.792 12.917h3.208v.917h-3.208zM9.053 15.505l-.648-.648-1.62 1.62-.648-.648-.648.648 1.296 1.296zM9.792 16.125h3.208v.917h-3.208zM18 11.5c-2.21 0-4 1.79-4 4s1.79 4 4 4 4-1.79 4-4-1.79-4-4-4zm0 7.27c-1.8 0-3.27-1.47-3.27-3.27s1.47-3.27 3.27-3.27 3.27 1.47 3.27 3.27-1.47 3.27-3.27 3.27z"/><path class="st2" d="M18 12.23c-1.8 0-3.27 1.47-3.27 3.27s1.47 3.27 3.27 3.27 3.27-1.47 3.27-3.27-1.47-3.27-3.27-3.27zm1.82 4.36h-2.55v-2.54h.73v1.81h1.82v.73z"/><path class="st1" d="M19.82 15.86v.73h-2.55v-2.54h.73v1.81z"/></svg>