<?xml version="1.0" encoding="utf-8"?>
<!-- Generator: Adobe Illustrator 17.0.0, SVG Export Plug-In . SVG Version: 6.00 Build 0)  -->
<!DOCTYPE svg PUBLIC "-//W3C//DTD SVG 1.1//EN" "http://www.w3.org/Graphics/SVG/1.1/DTD/svg11.dtd">
<svg version="1.1" id="Layer_1" xmlns="http://www.w3.org/2000/svg" xmlns:xlink="http://www.w3.org/1999/xlink" x="0px" y="0px"
	 width="842.35px" height="595.3px" viewBox="0 0 842.35 595.3" enable-background="new 0 0 842.35 595.3" xml:space="preserve">
<g>
	<g>
		<g>
			<g>
				<g>
					<path fill="#C2F8FF" d="M424.496,280.068c-3.029-2.625-43.047-20.009-50.146-20.232c-0.35-0.02-0.668-0.036-0.919-0.042
						c-0.485-0.012-0.763-0.004-0.763-0.004s-13.942,3.274-31.447,14.354c-3.848,2.438-5.152,6.539-5.152,6.539v23.147l29.306,3.674
						l33.39-21.761c0,0,10.623,7.19,7.606,1.883C418.063,292.156,430.607,285.365,424.496,280.068z"/>
					<path fill="#7C4F27" d="M404.209,330.688l-0.668-1.147c-0.177-0.298-0.387-0.565-0.599-0.825L396.116,317
						c-1.768-3.038-5.67-4.065-8.706-2.297l-1.147,0.668c-3.032,1.771-4.065,5.669-2.292,8.704l4.134,7.097l-5.256,4.616
						c-3.041,1.771-3.472,9.367-3.472,9.367c1.771,3.036,5.673,4.065,8.707,2.298l11.71-6.825c0.316-0.119,0.634-0.249,0.937-0.426
						l1.148-0.668c1.541-0.898,2.556-2.346,2.961-3.95C405.278,333.991,405.11,332.232,404.209,330.688z"/>
					<path fill="#99622B" d="M409.015,321.926l-0.67-1.145c-0.174-0.303-0.385-0.566-0.598-0.825l-6.825-11.716
						c-1.769-3.037-5.67-4.065-8.708-2.297l-1.145,0.668c-3.036,1.771-4.063,5.667-2.295,8.705l4.135,7.098l-5.258,4.615
						c-3.041,1.772-3.467,9.367-3.467,9.367c1.77,3.036,5.668,4.063,8.704,2.294l11.706-6.819c0.321-0.123,0.634-0.253,0.941-0.431
						l1.145-0.663c1.547-0.898,2.56-2.346,2.966-3.95C410.084,325.232,409.916,323.473,409.015,321.926z"/>
					<path fill="#BF8540" d="M409.015,313.451l-0.67-1.147c-0.174-0.304-0.385-0.568-0.598-0.827l-8.594-14.752
						c-1.768-3.039-3.901-1.03-6.939,0.737l-1.145,0.671c-3.036,1.772-4.063,5.668-2.295,8.704l4.135,7.095l-5.258,4.618
						c-3.041,1.774-3.467,9.367-3.467,9.367c1.77,3.038,5.668,4.068,8.704,2.295l11.706-6.822c0.321-0.12,0.634-0.251,0.941-0.429
						l1.145-0.668c1.547-0.893,2.56-2.341,2.966-3.949C410.084,316.751,409.916,314.992,409.015,313.451z"/>
					<g>
						
							<rect x="313.217" y="215.191" transform="matrix(-0.1497 -0.9887 0.9887 -0.1497 181.3818 642.7857)" fill="#39A6CC" width="107.736" height="56.418"/>
						<g>
							<path fill="#2D5096" d="M362.889,293.206l22.92-3.468c-0.963-6.368,3.417-12.321,9.786-13.284l-11.06-73.055
								c-6.368,0.964-12.315-3.42-13.278-9.789l-22.922,3.471c0.967,6.367-3.416,12.314-9.785,13.28l11.06,73.058
								C355.98,282.45,361.927,286.838,362.889,293.206z"/>
						</g>
						<path fill="#5DB080" d="M370.038,262.989c-12.698,1.922-24.321-5.282-25.958-16.098c-1.638-10.814,7.335-21.14,20.03-23.063
							s24.321,5.287,25.957,16.099C391.703,250.74,382.734,261.066,370.038,262.989z"/>
						<g>
							<g>
								<g>
									<g>
										<g>
											<path fill="#FFFFFF" d="M369.272,245.157l10.837-1.641c-0.126,3.404-1.867,6.169-4.376,6.552
												c-1.122,0.168-1.897,1.211-1.725,2.337c0.169,1.121,1.219,1.894,2.338,1.726c4.687-0.712,7.945-5.552,7.88-11.237
												l0.524-0.08c1.121-0.171,1.893-1.221,1.72-2.343c-0.165-1.117-1.215-1.894-2.337-1.725l-0.521,0.08
												c-1.393-4.692-4.952-8.055-8.908-8.458c-0.641-0.061-1.29-0.043-1.948,0.057c-4.684,0.71-7.948,5.546-7.88,11.237
												l-10.836,1.642c0.124-3.412,1.865-6.168,4.38-6.552c1.12-0.165,1.89-1.218,1.721-2.339
												c-0.169-1.128-1.216-1.895-2.336-1.723c-4.692,0.704-7.953,5.55-7.884,11.235l-0.523,0.081
												c-1.121,0.168-1.897,1.221-1.725,2.34c0.169,1.121,1.219,1.897,2.343,1.726l0.52-0.081
												c1.619,5.455,6.162,9.112,10.857,8.401C366.077,255.684,369.343,250.842,369.272,245.157z M373.934,234.45
												c2.311-0.02,4.515,2.023,5.559,5l-10.5,1.59c0.125-3.409,1.871-6.169,4.379-6.549
												C373.558,234.463,373.749,234.45,373.934,234.45z M360.778,252.329c-2.506,0.381-4.995-1.745-6.118-4.958l10.497-1.588
												c-0.13,3.396-1.863,6.153-4.365,6.547C360.782,252.327,360.781,252.329,360.778,252.329z M369.11,243.1L369.11,243.1
												C369.085,242.954,369.11,243.1,369.11,243.1z"/>
										</g>
									</g>
								</g>
							</g>
						</g>
					</g>
					<g>
						
							<rect x="331.872" y="211.842" transform="matrix(0.1185 -0.993 0.993 0.1185 101.6756 594.6346)" fill="#39A6CC" width="107.746" height="56.421"/>
						<g>
							<g>
								<g>
									<path fill="#2D5096" d="M368.491,286.932l23.015,2.748c0.763-6.396,6.57-10.969,12.967-10.206l8.758-73.365
										c-6.402-0.765-10.966-6.568-10.204-12.967l-23.018-2.747c-0.763,6.396-6.567,10.967-12.964,10.201l-8.757,73.368
										C364.689,274.727,369.253,280.54,368.491,286.932z"/>
								</g>
							</g>
						</g>
						<path fill="#5DB080" d="M383.414,259.703c-12.75-1.525-22.041-11.56-20.749-22.424c1.297-10.856,12.687-18.428,25.442-16.906
							c12.75,1.522,22.04,11.565,20.743,22.418C407.556,253.657,396.163,261.224,383.414,259.703z"/>
						<g>
							<g>
								<g>
									<g>
										<g>
											<path fill="#FFFFFF" d="M387.414,242.309l10.883,1.299c-1.027,3.249-3.439,5.449-5.961,5.149
												c-1.125-0.133-2.15,0.666-2.283,1.8c-0.135,1.125,0.67,2.146,1.797,2.279c4.707,0.563,9.137-3.239,10.585-8.733
												l0.523,0.061c1.127,0.136,2.15-0.673,2.285-1.801c0.135-1.124-0.67-2.152-1.795-2.285l-0.526-0.059
												c-0.093-4.893-2.631-9.08-6.336-10.523c-0.604-0.229-1.235-0.387-1.893-0.465c-4.707-0.56-9.14,3.238-10.587,8.742
												l-10.883-1.303c1.029-3.251,3.439-5.448,5.964-5.143c1.122,0.133,2.147-0.676,2.283-1.801
												c0.135-1.129-0.673-2.153-1.795-2.288c-4.709-0.559-9.138,3.241-10.589,8.74l-0.52-0.058
												c-1.131-0.136-2.156,0.672-2.291,1.795c-0.135,1.125,0.673,2.153,1.801,2.286l0.524,0.064
												c0.113,5.683,3.52,10.417,8.232,10.98C381.538,251.606,385.966,247.807,387.414,242.309z M394.758,233.222
												c2.231,0.598,3.813,3.154,4.027,6.303l-10.543-1.261c1.025-3.252,3.442-5.449,5.957-5.149
												C394.389,233.137,394.579,233.176,394.758,233.222z M377.318,246.965c-2.521-0.303-4.348-3.008-4.58-6.409l10.543,1.257
												c-1.028,3.244-3.433,5.44-5.95,5.152C377.324,246.965,377.321,246.965,377.318,246.965z M387.802,240.281
												L387.802,240.281C387.821,240.134,387.802,240.281,387.802,240.281z"/>
										</g>
									</g>
								</g>
							</g>
						</g>
					</g>
					<g>
						
							<rect x="358.587" y="221.647" transform="matrix(0.2969 -0.9549 0.9549 0.2969 51.4071 569.5303)" fill="#39A6CC" width="107.738" height="56.419"/>
						<g>
							<g>
								<g>
									<path fill="#2D5096" d="M386.939,292.82l22.136,6.891c1.911-6.15,8.451-9.595,14.605-7.677l21.942-70.558
										c-6.15-1.913-9.589-8.451-7.673-14.6l-22.136-6.887c-1.914,6.15-8.451,9.587-14.605,7.673l-21.945,70.559
										C385.419,280.135,388.852,286.673,386.939,292.82z"/>
								</g>
							</g>
						</g>
						<path fill="#5DB080" d="M406.561,268.758c-12.26-3.815-19.573-15.374-16.327-25.817c3.247-10.44,15.827-15.815,28.089-12.004
							c12.265,3.814,19.571,15.376,16.329,25.82C431.405,267.2,418.824,272.573,406.561,268.758z"/>
						<g>
							<g>
								<g>
									<g>
										<g>
											<path fill="#FFFFFF" d="M413.661,252.382l10.462,3.254c-1.594,3.01-4.373,4.735-6.796,3.984
												c-1.082-0.337-2.236,0.26-2.575,1.357c-0.336,1.077,0.272,2.233,1.354,2.567c4.525,1.408,9.574-1.523,11.997-6.667
												l0.503,0.154c1.08,0.342,2.234-0.271,2.576-1.354c0.334-1.082-0.272-2.234-1.354-2.572l-0.505-0.161
												c0.796-4.823-0.938-9.406-4.318-11.494c-0.552-0.337-1.142-0.607-1.778-0.801c-4.524-1.409-9.568,1.522-12,6.667
												l-10.465-3.254c1.602-3.009,4.374-4.732,6.8-3.979c1.082,0.337,2.237-0.269,2.572-1.355
												c0.339-1.083-0.266-2.236-1.351-2.572c-4.528-1.407-9.576,1.523-11.997,6.674l-0.505-0.159
												c-1.083-0.336-2.239,0.271-2.573,1.349c-0.336,1.086,0.269,2.243,1.352,2.58l0.503,0.155
												c-0.925,5.61,1.57,10.886,6.101,12.295C406.189,260.458,411.238,257.527,413.661,252.382z M422.528,244.78
												c2.091,0.993,3.178,3.795,2.822,6.929l-10.145-3.152c1.603-3.013,4.374-4.734,6.797-3.981
												C422.184,244.632,422.36,244.701,422.528,244.78z M402.883,255.123c-2.421-0.749-3.732-3.747-3.339-7.131l10.139,3.154
												c-1.601,2.999-4.364,4.725-6.785,3.982C402.89,255.128,402.886,255.128,402.883,255.123z M414.408,250.459
												L414.408,250.459C414.456,250.317,414.408,250.459,414.408,250.459z"/>
										</g>
									</g>
								</g>
							</g>
						</g>
					</g>
					<path fill="#D6AB6E" d="M411.27,267.348c-6.936,4.456-12.544,5.465-17.454,8.837c-6.499,4.464-12.132,11.395-18.968,15.309
						c-4.13,2.365-13.347,3.687-16.123,4.218c-5.066,0.969-10.501-7.068-14.184-10.678l-4.146-10.4l-14.735,10.759
						c-0.821,2.385-1.278,2.783-1.459,5.301c-0.437,6.032,1.835,13.178,1.835,13.178l8.313,133.197l-0.129,7.253
						c4.221,1.354,8.534,2.508,12.935,3.42h34.422l-7.543-82.282c0,0,8.388-7.738,10.417-22.563
						c0.727-5.359,3.151-28.057,5.572-32.899c2.929-5.856,6.489-12.667,11.622-17.905c3.625-3.702,8.028-7.758,11.862-10.815
						c4.01-1.503,7.294-7.935,5.953-12.046C418.086,265.01,415.007,264.942,411.27,267.348z"/>
				</g>
				<path fill="#2C5871" d="M328.461,443.325c13.141,4.573,30.05,7.09,44.75,7.09c2.815,0,5.597-0.123,8.367-0.303v-77.685h-53.117
					V443.325z"/>
			</g>
		</g>
		<circle fill="#00984A" cx="373.434" cy="380.484" r="4.236"/>
	</g>
	<g>
		<g>
			<path fill="#253775" d="M577.189,266.79c-14.792-82.046-85.956-142.774-168.8-144.045
				c-84.372-1.294-157.425,56.677-174.742,138.664c-0.641,3.035-1.311,6.065-2.002,9.26c-11.225,0-22.052-0.128-32.87,0.106
				c-2.222,0.048-4.415,1.45-6.622,2.228c0.868,2.045,1.32,4.428,2.667,6.084c13.56,16.678,27.256,33.246,40.938,49.826
				c5.612,6.8,9.324,6.785,14.704-0.132c12.872-16.548,25.737-33.102,38.464-49.761c1.265-1.655,1.56-4.052,2.305-6.104
				c-2.125-0.662-4.238-1.846-6.378-1.895c-9.128-0.213-18.264-0.091-28.025-0.091c0.296-1.969,0.417-3.116,0.645-4.241
				c14.781-73.163,83.084-124.569,158.375-119.204c82.511,5.879,145.124,77.917,139.374,160.352
				c-6.835,97.992-103.395,163.289-196.869,133.134c-22.44-7.239-42.018-19.187-58.922-35.592
				c-6.364-6.176-14.334-6.164-19.199-0.108c-4.188,5.214-3.475,12.085,2.117,17.416c38.888,37.07,85.278,53.827,138.703,49.113
				C523.117,462.792,595.352,367.538,577.189,266.79z"/>
		</g>
	</g>
	<g>
		<g>
			<g>
				<path fill="#39A6CC" d="M407.187,356.8c-4.574-0.001-8.281,3.705-8.281,8.284v62.123c0,4.575,3.707,8.283,8.286,8.283
					l107.712,0.003c4.574-0.003,8.282-3.714,8.285-8.286l-0.006-62.123c0.003-4.582-3.704-8.289-8.279-8.284L407.187,356.8
					L407.187,356.8z"/>
				<polygon fill="#253775" points="523.186,407.33 398.906,407.331 398.906,420.488 523.186,420.477 				"/>
				<polygon fill="#FFFFFF" points="458.984,398.759 405.322,398.751 405.322,401.192 458.987,401.186 				"/>
				<rect x="405.323" y="390.91" fill="#FFFFFF" width="53.659" height="2.437"/>
				<rect x="405.324" y="384.295" fill="#FFFFFF" width="53.661" height="2.435"/>
				<rect x="485.467" y="373.439" fill="#FBFFF9" width="28.047" height="27.753"/>
			</g>
		</g>
	</g>
</g>
</svg>
