<?xml version="1.0" encoding="utf-8"?>
<!-- Generator: Adobe Illustrator 23.0.1, SVG Export Plug-In . SVG Version: 6.00 Build 0)  -->
<svg version="1.1" id="Layer_1" xmlns="http://www.w3.org/2000/svg" xmlns:xlink="http://www.w3.org/1999/xlink" x="0px" y="0px"
	 viewBox="0 0 230.3 60" style="enable-background:new 0 0 230.3 60;" xml:space="preserve">
<style type="text/css">
	.st0{fill:#282D33;}
	.st1{fill:#FFFFFF;}
	.st2{fill:none;}
	.st3{fill:#5EB4E7;}
	.st4{fill:#FFFFFF;stroke:#282D33;stroke-width:0.6796;}
	.st5{fill:#F8C44F;}
	.st6{fill:#FFFFFF;stroke:#41464B;stroke-width:0.5954;stroke-linecap:round;stroke-linejoin:round;stroke-miterlimit:10;}
	.st7{fill:#FF7443;}
	.st8{fill:none;stroke:#41464B;stroke-width:0.5954;stroke-linecap:round;stroke-linejoin:round;stroke-miterlimit:10;}
	.st9{clip-path:url(#SVGID_2_);}
	.st10{clip-path:url(#SVGID_4_);}
	.st11{fill:#414042;}
	.st12{clip-path:url(#SVGID_6_);}
	.st13{clip-path:url(#SVGID_8_);}
	.st14{clip-path:url(#SVGID_10_);}
	.st15{clip-path:url(#SVGID_12_);}
	.st16{clip-path:url(#SVGID_14_);}
	.st17{clip-path:url(#SVGID_16_);}
	.st18{clip-path:url(#SVGID_18_);}
	.st19{clip-path:url(#SVGID_20_);fill:#414042;}
	.st20{clip-path:url(#SVGID_22_);}
	.st21{clip-path:url(#SVGID_24_);}
	.st22{clip-path:url(#SVGID_26_);}
	.st23{clip-path:url(#SVGID_28_);}
	.st24{clip-path:url(#SVGID_30_);}
	.st25{clip-path:url(#SVGID_32_);}
	.st26{clip-path:url(#SVGID_34_);}
	.st27{clip-path:url(#SVGID_36_);}
	.st28{clip-path:url(#SVGID_38_);}
	.st29{clip-path:url(#SVGID_40_);}
	.st30{clip-path:url(#SVGID_42_);}
	.st31{clip-path:url(#SVGID_44_);}
	.st32{clip-path:url(#SVGID_46_);}
	.st33{clip-path:url(#SVGID_48_);}
	.st34{clip-path:url(#SVGID_50_);}
	.st35{clip-path:url(#SVGID_52_);}
	.st36{fill:#F9C269;}
	.st37{fill:#41464B;stroke:#41464B;stroke-width:0.2355;stroke-miterlimit:10;}
	.st38{fill:#F9C269;stroke:#41464B;stroke-width:0.6219;stroke-linecap:round;stroke-linejoin:round;stroke-miterlimit:10;}
	.st39{fill:none;stroke:#282D33;stroke-width:0.5785;stroke-miterlimit:10;}
	.st40{fill:none;stroke:#282D33;stroke-width:0.5468;stroke-miterlimit:10;}
	.st41{fill:#48515A;}
	.st42{fill:#41464B;stroke:#41464B;stroke-width:0.1705;stroke-miterlimit:10;}
	.st43{fill:#FF7443;stroke:#41464B;stroke-width:0.528;stroke-miterlimit:10;}
	.st44{fill:none;stroke:#41464B;stroke-width:0.528;stroke-miterlimit:10;}
	.st45{fill:#FFFFFF;stroke:#41464B;stroke-width:0.6305;stroke-miterlimit:10;}
	.st46{fill:#5EB4E7;stroke:#41464B;stroke-width:0.6305;stroke-miterlimit:10;}
</style>
<g>
	<g>
		<g>
			<rect x="159.4" y="27.9" class="st0" width="0.6" height="0.3"/>
		</g>
		<g>
			<path class="st0" d="M144.7,52.2c-0.1,0-0.2,0-0.3,0v-0.6c0.2,0,0.4,0,0.6,0v0.6C145,52.2,144.8,52.2,144.7,52.2z M143.8,52.2
				c-0.2,0-0.4,0-0.7-0.1l0.1-0.6c0.2,0,0.4,0,0.6,0.1V52.2z M145.8,52.2v-0.6c0.2,0,0.4,0,0.6-0.1l0.1,0.6
				C146.3,52.1,146.1,52.1,145.8,52.2z M142.4,52c-0.2,0-0.4-0.1-0.6-0.1l0.1-0.6c0.2,0,0.4,0.1,0.6,0.1L142.4,52z M147.1,52
				l-0.1-0.6c0.2,0,0.4-0.1,0.6-0.1l0.1,0.6C147.7,51.9,147.5,52,147.1,52z M141,51.8c-0.2-0.1-0.4-0.1-0.6-0.2l0.2-0.6
				c0.2,0.1,0.4,0.1,0.6,0.2L141,51.8z M148.5,51.7l-0.2-0.6c0.2-0.1,0.4-0.1,0.6-0.2l0.2,0.6C148.9,51.6,148.7,51.7,148.5,51.7z
				 M139.6,51.4c-0.2-0.1-0.4-0.1-0.6-0.2l0.2-0.6c0.2,0.1,0.4,0.2,0.6,0.2L139.6,51.4z M149.9,51.4l-0.2-0.6
				c0.2-0.1,0.4-0.1,0.6-0.2l0.2,0.6C150.3,51.2,150.1,51.3,149.9,51.4z M138.4,50.9c-0.2-0.1-0.4-0.2-0.6-0.3l0.3-0.6
				c0.2,0.1,0.4,0.2,0.6,0.3L138.4,50.9z M151.2,50.9l-0.3-0.6c0.2-0.1,0.4-0.2,0.6-0.3l0.3,0.6C151.6,50.7,151.4,50.8,151.2,50.9z
				 M137.1,50.2c-0.2-0.1-0.4-0.2-0.6-0.3l0.3-0.5c0.2,0.1,0.4,0.2,0.5,0.3L137.1,50.2z M152.3,50.2l-0.3-0.6
				c0.2-0.1,0.4-0.2,0.5-0.3l0.3,0.5C152.7,50,152.5,50.1,152.3,50.2z M136,49.5c-0.2-0.1-0.4-0.3-0.5-0.4l0.4-0.5
				c0.2,0.1,0.3,0.3,0.5,0.4L136,49.5z M153.6,49.5l-0.4-0.5c0.2-0.1,0.3-0.2,0.5-0.4l0.4,0.5C153.9,49.2,153.7,49.3,153.6,49.5z
				 M134.9,48.6c-0.2-0.1-0.3-0.3-0.5-0.4l0.4-0.5c0.2,0.1,0.3,0.3,0.5,0.4L134.9,48.6z M154.6,48.6l-0.4-0.5
				c0.2-0.1,0.3-0.3,0.5-0.4l0.4,0.5C155,48.3,154.9,48.4,154.6,48.6z M133.8,47.7c-0.2-0.2-0.3-0.3-0.5-0.5l0.5-0.4
				c0.1,0.2,0.3,0.3,0.4,0.5L133.8,47.7z M155.7,47.7l-0.5-0.5c0.1-0.1,0.3-0.3,0.4-0.5l0.5,0.4C156,47.4,155.8,47.5,155.7,47.7z
				 M132.9,46.7c-0.1-0.2-0.3-0.3-0.4-0.5l0.5-0.4c0.1,0.2,0.3,0.3,0.4,0.5L132.9,46.7z M156.5,46.6l-0.5-0.4
				c0.1-0.2,0.3-0.3,0.4-0.5l0.5,0.4C156.9,46.3,156.8,46.4,156.5,46.6z M132,45.6c-0.1-0.2-0.2-0.4-0.4-0.5l0.5-0.3
				c0.1,0.2,0.2,0.4,0.3,0.5L132,45.6z M157.4,45.6l-0.5-0.4c0.1-0.2,0.2-0.3,0.3-0.5l0.5,0.3C157.7,45.2,157.5,45.4,157.4,45.6z
				 M131.3,44.4c-0.1-0.2-0.2-0.4-0.3-0.6l0.6-0.3c0.1,0.2,0.2,0.4,0.3,0.6L131.3,44.4z M158.1,44.3l-0.6-0.3
				c0.1-0.2,0.2-0.4,0.3-0.6l0.6,0.3C158.3,44,158.2,44.2,158.1,44.3z M130.8,43.2c-0.1-0.2-0.2-0.4-0.3-0.6l0.6-0.2
				c0.1,0.2,0.2,0.4,0.2,0.6L130.8,43.2z M158.8,43.2l-0.6-0.3c0.1-0.2,0.2-0.4,0.2-0.6l0.6,0.2C159,42.7,158.9,42.9,158.8,43.2z
				 M130.2,41.9c-0.1-0.2-0.1-0.4-0.2-0.6l0.6-0.2c0.1,0.2,0.1,0.4,0.2,0.6L130.2,41.9z M159.3,41.9l-0.6-0.2
				c0.1-0.2,0.1-0.4,0.2-0.6l0.6,0.2C159.4,41.4,159.4,41.6,159.3,41.9z M129.8,40.6c-0.1-0.2-0.1-0.4-0.1-0.6l0.6-0.1
				c0,0.2,0.1,0.4,0.1,0.6L129.8,40.6z M159.6,40.5l-0.6-0.2c0-0.2,0.1-0.4,0.1-0.6l0.7,0.2C159.7,40.1,159.7,40.3,159.6,40.5z
				 M129.5,39.2c0-0.2-0.1-0.4-0.1-0.6l0.6-0.1c0,0.2,0.1,0.4,0.1,0.6L129.5,39.2z M159.9,39.1l-0.6-0.1c0-0.2,0.1-0.4,0.1-0.6
				l0.6,0.1C160,38.7,159.9,38.9,159.9,39.1z M129.4,37.9c0-0.2,0-0.4,0-0.7h0.6c0,0.2,0,0.4,0,0.6L129.4,37.9z M160,37.8h-0.6
				c0-0.2,0-0.4,0-0.6h0.6C160.1,37.3,160,37.6,160,37.8z M160.1,36.4h-0.6v-0.6h0.6V36.4z M160.1,35h-0.6v-0.6h0.6V35z M160.1,33.7
				h-0.6V33h0.6V33.7z M160.1,32.4h-0.6v-0.6h0.6V32.4z M160.1,31h-0.6v-0.6h0.6V31z M160.1,29.6h-0.6V29h0.6V29.6z"/>
		</g>
		<g>
			<rect x="129.4" y="36.1" class="st0" width="0.6" height="0.3"/>
		</g>
	</g>
	<g>
		<path class="st0" d="M144.7,54.8c-10,0-18.2-8.1-18.2-18.2v-0.8h0.6v0.8c0,9.6,7.8,17.5,17.5,17.5V54.8z"/>
	</g>
	<g>
		<g>
			<rect x="38.8" y="27.9" class="st0" width="0.6" height="0.3"/>
		</g>
		<g>
			<path class="st0" d="M24.1,52.2c-0.1,0-0.2,0-0.3,0v-0.6c0.2,0,0.4,0,0.6,0v0.6C24.4,52.2,24.2,52.2,24.1,52.2z M23.1,52.2
				c-0.2,0-0.4,0-0.7-0.1l0.1-0.6c0.2,0,0.4,0,0.6,0.1V52.2z M25.2,52.2v-0.6c0.2,0,0.4,0,0.6-0.1l0.1,0.6
				C25.7,52.1,25.5,52.1,25.2,52.2z M21.8,52c-0.2,0-0.4-0.1-0.6-0.1l0.1-0.6c0.2,0,0.4,0.1,0.6,0.1L21.8,52z M26.5,52l-0.1-0.6
				c0.2,0,0.4-0.1,0.6-0.1l0.1,0.6C27.1,51.9,26.8,52,26.5,52z M20.4,51.8c-0.2-0.1-0.4-0.1-0.6-0.2L20,51c0.2,0.1,0.4,0.1,0.6,0.2
				L20.4,51.8z M27.9,51.7l-0.2-0.6c0.2-0.1,0.4-0.1,0.6-0.2l0.2,0.6C28.3,51.6,28.1,51.7,27.9,51.7z M19,51.4
				c-0.2-0.1-0.4-0.1-0.6-0.2l0.2-0.6c0.2,0.1,0.4,0.2,0.6,0.2L19,51.4z M29.3,51.4l-0.2-0.6c0.2-0.1,0.4-0.1,0.6-0.2l0.2,0.6
				C29.7,51.2,29.5,51.3,29.3,51.4z M17.8,50.9c-0.2-0.1-0.4-0.2-0.6-0.3l0.3-0.6c0.2,0.1,0.4,0.2,0.6,0.3L17.8,50.9z M30.5,50.9
				l-0.3-0.6c0.2-0.1,0.4-0.2,0.6-0.3l0.3,0.6C31,50.7,30.8,50.8,30.5,50.9z M16.5,50.2c-0.2-0.1-0.4-0.2-0.6-0.3l0.3-0.5
				c0.2,0.1,0.4,0.2,0.5,0.3L16.5,50.2z M31.7,50.2l-0.3-0.6c0.2-0.1,0.4-0.2,0.5-0.3l0.3,0.5C32.1,50,31.9,50.1,31.7,50.2z
				 M15.3,49.5c-0.2-0.1-0.4-0.3-0.5-0.4l0.4-0.5c0.2,0.1,0.3,0.3,0.5,0.4L15.3,49.5z M33,49.5L32.5,49c0.2-0.1,0.3-0.2,0.5-0.4
				l0.4,0.5C33.3,49.2,33.1,49.3,33,49.5z M14.3,48.6c-0.2-0.1-0.3-0.3-0.5-0.4l0.4-0.5c0.2,0.1,0.3,0.3,0.5,0.4L14.3,48.6z
				 M34,48.6l-0.4-0.5c0.2-0.1,0.3-0.3,0.5-0.4l0.4,0.5C34.3,48.3,34.2,48.4,34,48.6z M13.2,47.7c-0.2-0.2-0.3-0.3-0.5-0.5l0.5-0.4
				c0.1,0.2,0.3,0.3,0.4,0.5L13.2,47.7z M35.1,47.7l-0.5-0.5c0.1-0.1,0.3-0.3,0.4-0.5l0.5,0.4C35.4,47.4,35.2,47.5,35.1,47.7z
				 M12.3,46.7c-0.1-0.2-0.3-0.3-0.4-0.5l0.5-0.4c0.1,0.2,0.3,0.3,0.4,0.5L12.3,46.7z M35.9,46.6l-0.5-0.4c0.1-0.2,0.3-0.3,0.4-0.5
				l0.5,0.4C36.2,46.3,36.1,46.4,35.9,46.6z M11.4,45.6c-0.1-0.2-0.2-0.4-0.4-0.5l0.5-0.3c0.1,0.2,0.2,0.4,0.3,0.5L11.4,45.6z
				 M36.8,45.6l-0.5-0.4c0.1-0.2,0.2-0.3,0.3-0.5l0.5,0.3C37.1,45.2,36.9,45.4,36.8,45.6z M10.7,44.4c-0.1-0.2-0.2-0.4-0.3-0.6
				l0.6-0.3c0.1,0.2,0.2,0.4,0.3,0.6L10.7,44.4z M37.5,44.3L36.9,44c0.1-0.2,0.2-0.4,0.3-0.6l0.6,0.3C37.7,44,37.6,44.2,37.5,44.3z
				 M10.2,43.2c-0.1-0.2-0.2-0.4-0.3-0.6l0.6-0.2c0.1,0.2,0.2,0.4,0.2,0.6L10.2,43.2z M38.1,43.2l-0.6-0.3c0.1-0.2,0.2-0.4,0.2-0.6
				l0.6,0.2C38.4,42.7,38.2,42.9,38.1,43.2z M9.6,41.9c-0.1-0.2-0.1-0.4-0.2-0.6l0.6-0.2c0.1,0.2,0.1,0.4,0.2,0.6L9.6,41.9z
				 M38.7,41.9L38,41.7c0.1-0.2,0.1-0.4,0.2-0.6l0.6,0.2C38.8,41.4,38.8,41.6,38.7,41.9z M9.2,40.6c-0.1-0.2-0.1-0.4-0.1-0.6
				l0.6-0.1c0,0.2,0.1,0.4,0.1,0.6L9.2,40.6z M39,40.5l-0.6-0.2c0-0.2,0.1-0.4,0.1-0.6l0.7,0.2C39.1,40.1,39.1,40.3,39,40.5z
				 M8.9,39.2c0-0.2-0.1-0.4-0.1-0.6l0.6-0.1c0,0.2,0.1,0.4,0.1,0.6L8.9,39.2z M39.3,39.1L38.7,39c0-0.2,0.1-0.4,0.1-0.6l0.6,0.1
				C39.4,38.7,39.3,38.9,39.3,39.1z M8.8,37.9c0-0.2,0-0.4,0-0.7h0.6c0,0.2,0,0.4,0,0.6L8.8,37.9z M39.4,37.8h-0.6
				c0-0.2,0-0.4,0-0.6h0.6C39.5,37.3,39.4,37.6,39.4,37.8z M39.5,36.4h-0.6v-0.6h0.6V36.4z M39.5,35h-0.6v-0.6h0.6V35z M39.5,33.7
				h-0.6V33h0.6V33.7z M39.5,32.4h-0.6v-0.6h0.6V32.4z M39.5,31h-0.6v-0.6h0.6V31z M39.5,29.6h-0.6V29h0.6V29.6z"/>
		</g>
		<g>
			<rect x="8.8" y="36.1" class="st0" width="0.6" height="0.3"/>
		</g>
	</g>
	<g>
		<path class="st0" d="M24.1,54.8c-10,0-18.2-8.1-18.2-18.2v-0.8h0.6v0.8c0,9.6,7.8,17.5,17.5,17.5V54.8z"/>
	</g>
	<g>
		<path class="st0" d="M144.7,49.9v-0.6c6.9,0,12.4-5.6,12.4-12.4v-4.6h0.6v4.6C157.8,44.1,151.9,49.9,144.7,49.9z"/>
	</g>
	<g>
		<g>
			<path class="st0" d="M39.3,11.5v15.8h0.1h-0.6V11.5"/>
		</g>
	</g>
	<g>
		<g>
			<g>
				<g>
					<path class="st0" d="M49.3,28.9h-0.6v-12c0-0.5-0.4-1-1-1h-6.1v8.4H41v-9.2h6.8c0.8,0,1.6,0.7,1.6,1.6
						C49.3,16.7,49.3,28.9,49.3,28.9z"/>
				</g>
				<g>
					<path class="st1" d="M49,28.9v-12c0-0.7,0.5-1.3,1.3-1.3h6.4v8.9"/>
					<path class="st0" d="M49.3,28.9h-0.6v-12c0-0.8,0.7-1.6,1.6-1.6H57v9.2h-0.6V16h-6.1c-0.5,0-1,0.4-1,1
						C49.3,16.9,49.3,28.9,49.3,28.9z"/>
				</g>
			</g>
			<g>
				<g>
					<line class="st2" x1="42.6" y1="17.5" x2="45.5" y2="17.5"/>
					<rect x="42.6" y="17.1" class="st0" width="3" height="0.6"/>
				</g>
				<g>
					<line class="st2" x1="42.6" y1="19" x2="47.6" y2="19"/>
					<rect x="42.6" y="18.7" class="st0" width="5.1" height="0.6"/>
				</g>
				<g>
					<line class="st2" x1="42.6" y1="20.7" x2="47.6" y2="20.7"/>
					<rect x="42.6" y="20.3" class="st0" width="5.1" height="0.6"/>
				</g>
				<g>
					<line class="st2" x1="42.6" y1="22.3" x2="47.6" y2="22.3"/>
					<rect x="42.6" y="22" class="st0" width="5.1" height="0.6"/>
				</g>
				<g>
					<line class="st2" x1="42.6" y1="23.9" x2="47.6" y2="23.9"/>
					<rect x="42.6" y="23.6" class="st0" width="5.1" height="0.6"/>
				</g>
				<g>
					<line class="st2" x1="50.2" y1="23.9" x2="55.2" y2="23.9"/>
					<rect x="50.2" y="23.6" class="st0" width="5.1" height="0.6"/>
				</g>
			</g>
			<rect x="50.2" y="18.7" class="st3" width="5.1" height="3.9"/>
		</g>
		<g>
			<g>
				<g>
					<path class="st1" d="M56.7,31.8c0,0.1-0.1,0.2-0.2,0.2h-15c-0.1,0-0.2-0.1-0.2-0.2v-6.1c0-0.1,0.1-0.2,0.2-0.2h15
						c0.1,0,0.2,0.1,0.2,0.2C56.7,25.7,56.7,31.8,56.7,31.8z"/>
					<path class="st0" d="M56.5,32.4h-15c-0.3,0-0.6-0.3-0.6-0.6v-6.1c0-0.3,0.3-0.6,0.6-0.6h15c0.3,0,0.6,0.2,0.6,0.6v6.1
						C57,32.1,56.8,32.4,56.5,32.4z M41.6,31.7h14.8v-6H41.6V31.7z"/>
				</g>
				<g>
					<g>
						<g>
							<line class="st2" x1="42.6" y1="27.1" x2="43.7" y2="27.1"/>
							<rect x="42.6" y="26.8" class="st3" width="1.2" height="0.6"/>
						</g>
						<g>
							<line class="st2" x1="44.5" y1="27.1" x2="45.7" y2="27.1"/>
							<rect x="44.5" y="26.8" class="st3" width="1.2" height="0.6"/>
						</g>
						<g>
							<line class="st2" x1="46.5" y1="27.1" x2="47.6" y2="27.1"/>
							<rect x="46.5" y="26.8" class="st3" width="1.2" height="0.6"/>
						</g>
						<g>
							<line class="st2" x1="48.5" y1="27.1" x2="49.6" y2="27.1"/>
							<rect x="48.5" y="26.8" class="st3" width="1.2" height="0.6"/>
						</g>
						<g>
							<line class="st2" x1="50.4" y1="27.1" x2="51.5" y2="27.1"/>
							<rect x="50.4" y="26.8" class="st3" width="1.2" height="0.6"/>
						</g>
						<g>
							<line class="st2" x1="52.4" y1="27.1" x2="53.6" y2="27.1"/>
							<rect x="52.4" y="26.8" class="st3" width="1.2" height="0.6"/>
						</g>
						<g>
							<line class="st2" x1="54.3" y1="27.1" x2="55.5" y2="27.1"/>
							<rect x="54.3" y="26.8" class="st3" width="1.2" height="0.6"/>
						</g>
					</g>
					<g>
						<g>
							<line class="st2" x1="42.6" y1="28.8" x2="43.7" y2="28.8"/>
							<rect x="42.6" y="28.4" class="st3" width="1.2" height="0.6"/>
						</g>
						<g>
							<line class="st2" x1="44.5" y1="28.8" x2="45.7" y2="28.8"/>
							<rect x="44.5" y="28.4" class="st3" width="1.2" height="0.6"/>
						</g>
						<g>
							<line class="st2" x1="46.5" y1="28.8" x2="47.6" y2="28.8"/>
							<rect x="46.5" y="28.4" class="st3" width="1.2" height="0.6"/>
						</g>
						<g>
							<line class="st2" x1="48.5" y1="28.8" x2="49.6" y2="28.8"/>
							<rect x="48.5" y="28.4" class="st3" width="1.2" height="0.6"/>
						</g>
						<g>
							<line class="st2" x1="50.4" y1="28.8" x2="51.5" y2="28.8"/>
							<rect x="50.4" y="28.4" class="st3" width="1.2" height="0.6"/>
						</g>
						<g>
							<line class="st2" x1="52.4" y1="28.8" x2="53.6" y2="28.8"/>
							<rect x="52.4" y="28.4" class="st3" width="1.2" height="0.6"/>
						</g>
						<g>
							<line class="st2" x1="54.3" y1="28.8" x2="55.5" y2="28.8"/>
							<rect x="54.3" y="28.4" class="st3" width="1.2" height="0.6"/>
						</g>
					</g>
					<g>
						<g>
							<line class="st2" x1="42.6" y1="30.3" x2="43.7" y2="30.3"/>
							<rect x="42.6" y="30" class="st3" width="1.2" height="0.6"/>
						</g>
						<g>
							<line class="st2" x1="44.5" y1="30.3" x2="45.7" y2="30.3"/>
							<rect x="44.5" y="30" class="st3" width="1.2" height="0.6"/>
						</g>
						<g>
							<line class="st2" x1="46.5" y1="30.3" x2="53.6" y2="30.3"/>
							<rect x="46.5" y="30" class="st3" width="7.1" height="0.6"/>
						</g>
						<g>
							<line class="st2" x1="54.3" y1="30.3" x2="55.5" y2="30.3"/>
							<rect x="54.3" y="30" class="st3" width="1.2" height="0.6"/>
						</g>
					</g>
				</g>
			</g>
		</g>
		<polygon class="st1" points="53.4,20.7 52.9,21.1 52.3,21.4 52.3,20.7 52.3,20.1 52.9,20.4 		"/>
	</g>
	<g>
		<g>
			<path class="st0" d="M59,55.6c-0.2,0-0.5,0-0.7,0l0.1-0.6c0.2,0,0.4,0,0.6,0C59,55,59,55.6,59,55.6z"/>
		</g>
		<g>
			<path class="st0" d="M56.9,55.3c-0.4-0.1-0.8-0.3-1.3-0.6l0.3-0.5c0.3,0.2,0.7,0.4,1.1,0.5L56.9,55.3z M54.7,53.8
				c-0.3-0.3-0.6-0.7-0.8-1.1l0.5-0.3c0.2,0.3,0.4,0.6,0.7,1L54.7,53.8z M53.2,51.5c-0.1-0.4-0.2-0.8-0.3-1.4l0.6-0.1
				c0,0.4,0.1,0.8,0.2,1.2L53.2,51.5z M53.6,48.8h-0.7v-1.3h0.6v1.3H53.6z M53.6,46.2h-0.7V45h0.6v1.3H53.6z M53.6,43.6h-0.7v-1.3
				h0.6v1.3H53.6z M53.6,41h-0.7v-1.3h0.6V41H53.6z"/>
		</g>
		<g>
			<rect x="52.9" y="37.8" class="st0" width="0.6" height="0.6"/>
		</g>
	</g>
	<path class="st2" d="M123.5,23"/>
	<g>
		<g>
			<rect x="93.1" y="27.9" class="st0" width="0.6" height="0.3"/>
		</g>
		<g>
			<path class="st0" d="M78.4,52.2c-0.1,0-0.2,0-0.3,0v-0.6c0.2,0,0.4,0,0.6,0v0.6C78.7,52.2,78.5,52.2,78.4,52.2z M77.4,52.2
				c-0.2,0-0.4,0-0.7-0.1l0.1-0.6c0.2,0,0.4,0,0.6,0.1V52.2z M79.5,52.2v-0.6c0.2,0,0.4,0,0.6-0.1l0.1,0.6
				C80,52.1,79.8,52.1,79.5,52.2z M76.1,52c-0.2,0-0.4-0.1-0.6-0.1l0.1-0.6c0.2,0,0.4,0.1,0.6,0.1L76.1,52z M80.8,52l-0.1-0.6
				c0.2,0,0.4-0.1,0.6-0.1l0.1,0.6C81.4,51.9,81.1,52,80.8,52z M74.7,51.8c-0.2-0.1-0.4-0.1-0.6-0.2l0.2-0.6
				c0.2,0.1,0.4,0.1,0.6,0.2L74.7,51.8z M82.2,51.7L82,51.1c0.2-0.1,0.4-0.1,0.6-0.2l0.2,0.6C82.6,51.6,82.4,51.7,82.2,51.7z
				 M73.3,51.4c-0.2-0.1-0.4-0.1-0.6-0.2l0.2-0.6c0.2,0.1,0.4,0.2,0.6,0.2L73.3,51.4z M83.6,51.4l-0.2-0.6c0.2-0.1,0.4-0.1,0.6-0.2
				l0.2,0.6C84,51.2,83.8,51.3,83.6,51.4z M72.1,50.9c-0.2-0.1-0.4-0.2-0.6-0.3l0.3-0.6c0.2,0.1,0.4,0.2,0.6,0.3L72.1,50.9z
				 M84.8,50.9l-0.3-0.6c0.2-0.1,0.4-0.2,0.6-0.3l0.3,0.6C85.3,50.7,85.1,50.8,84.8,50.9z M70.8,50.2c-0.2-0.1-0.4-0.2-0.6-0.3
				l0.3-0.5c0.2,0.1,0.4,0.2,0.5,0.3L70.8,50.2z M86,50.2l-0.3-0.6c0.2-0.1,0.4-0.2,0.5-0.3l0.3,0.5C86.4,50,86.2,50.1,86,50.2z
				 M69.6,49.5c-0.2-0.1-0.4-0.3-0.5-0.4l0.4-0.5c0.2,0.1,0.3,0.3,0.5,0.4L69.6,49.5z M87.3,49.5L86.8,49c0.2-0.1,0.3-0.2,0.5-0.4
				l0.4,0.5C87.6,49.2,87.4,49.3,87.3,49.5z M68.6,48.6c-0.2-0.1-0.3-0.3-0.5-0.4l0.4-0.5c0.2,0.1,0.3,0.3,0.5,0.4L68.6,48.6z
				 M88.3,48.6l-0.4-0.5c0.2-0.1,0.3-0.3,0.5-0.4l0.4,0.5C88.6,48.3,88.5,48.4,88.3,48.6z M67.5,47.7c-0.2-0.2-0.3-0.3-0.5-0.5
				l0.5-0.4c0.1,0.2,0.3,0.3,0.4,0.5L67.5,47.7z M89.4,47.7l-0.5-0.5c0.1-0.1,0.3-0.3,0.4-0.5l0.5,0.4
				C89.7,47.4,89.5,47.5,89.4,47.7z M66.6,46.7c-0.1-0.2-0.3-0.3-0.4-0.5l0.5-0.4c0.1,0.2,0.3,0.3,0.4,0.5L66.6,46.7z M90.2,46.6
				l-0.5-0.4c0.1-0.2,0.3-0.3,0.4-0.5l0.5,0.4C90.5,46.3,90.4,46.4,90.2,46.6z M65.7,45.6c-0.1-0.2-0.2-0.4-0.4-0.5l0.5-0.3
				c0.1,0.2,0.2,0.4,0.3,0.5L65.7,45.6z M91.1,45.6l-0.5-0.4c0.1-0.2,0.2-0.3,0.3-0.5l0.5,0.3C91.4,45.2,91.2,45.4,91.1,45.6z
				 M65,44.4c-0.1-0.2-0.2-0.4-0.3-0.6l0.6-0.3c0.1,0.2,0.2,0.4,0.3,0.6L65,44.4z M91.8,44.3L91.2,44c0.1-0.2,0.2-0.4,0.3-0.6
				l0.6,0.3C92,44,91.9,44.2,91.8,44.3z M64.5,43.2c-0.1-0.2-0.2-0.4-0.3-0.6l0.6-0.2c0.1,0.2,0.2,0.4,0.2,0.6L64.5,43.2z
				 M92.4,43.2l-0.6-0.3c0.1-0.2,0.2-0.4,0.2-0.6l0.6,0.2C92.7,42.7,92.6,42.9,92.4,43.2z M63.9,41.9c-0.1-0.2-0.1-0.4-0.2-0.6
				l0.6-0.2c0.1,0.2,0.1,0.4,0.2,0.6L63.9,41.9z M93,41.9l-0.6-0.2c0.1-0.2,0.1-0.4,0.2-0.6l0.6,0.2C93.1,41.4,93.1,41.6,93,41.9z
				 M63.5,40.6c-0.1-0.2-0.1-0.4-0.1-0.6l0.6-0.1c0,0.2,0.1,0.4,0.1,0.6L63.5,40.6z M93.3,40.5l-0.6-0.2c0-0.2,0.1-0.4,0.1-0.6
				l0.7,0.2C93.4,40.1,93.4,40.3,93.3,40.5z M63.2,39.2c0-0.2-0.1-0.4-0.1-0.6l0.6-0.1c0,0.2,0.1,0.4,0.1,0.6L63.2,39.2z M93.6,39.1
				L93,39c0-0.2,0.1-0.4,0.1-0.6l0.6,0.1C93.7,38.7,93.6,38.9,93.6,39.1z M63.1,37.9c0-0.2,0-0.4,0-0.7h0.6c0,0.2,0,0.4,0,0.6
				L63.1,37.9z M93.7,37.8h-0.6c0-0.2,0-0.4,0-0.6h0.6C93.8,37.3,93.7,37.6,93.7,37.8z M93.8,36.4h-0.6v-0.6h0.6V36.4z M93.8,35
				h-0.6v-0.6h0.6V35z M93.8,33.7h-0.6V33h0.6V33.7z M93.8,32.4h-0.6v-0.6h0.6V32.4z M93.8,31h-0.6v-0.6h0.6V31z M93.8,29.6h-0.6V29
				h0.6V29.6z"/>
		</g>
		<g>
			<rect x="63.1" y="36.1" class="st0" width="0.6" height="0.3"/>
		</g>
	</g>
	<g>
		<path class="st0" d="M78.4,54.8c-10,0-18.2-8.1-18.2-18.2v-0.8h0.6v0.8c0,9.6,7.8,17.5,17.5,17.5V54.8z"/>
	</g>
	<g>
		<path class="st0" d="M78.4,49.9v-0.6c6.9,0,12.4-5.6,12.4-12.4v-4.6h0.6v4.6C91.5,44.1,85.6,49.9,78.4,49.9z"/>
	</g>
	<g>
		<path class="st0" d="M105.4,47.9c-0.7,0-1.3-0.1-1.9-0.2l0.3-0.7c0.6,0.1,1.2,0.2,1.8,0.2L105.4,47.9z M107.3,47.8l-0.1-0.7
			c0.6-0.1,1.2-0.2,1.6-0.5l0.4,0.7C108.7,47.4,108.1,47.6,107.3,47.8z M101.5,47c-0.6-0.2-1.2-0.6-1.6-1l0.6-0.6
			c0.4,0.4,0.9,0.6,1.5,0.9L101.5,47z M111.1,46.3l-0.6-0.6c0.4-0.4,0.9-0.6,1.3-1.1l0.7,0.5C112.1,45.5,111.5,46,111.1,46.3z
			 M98.5,44.8c-0.4-0.5-0.7-1-0.9-1.5l0.9-0.2c0.1,0.5,0.4,0.9,0.9,1.4L98.5,44.8z M113.6,43.7l-0.9-0.4c0.3-0.5,0.4-1,0.6-1.4
			l0.9,0.1C114.1,42.7,113.9,43.2,113.6,43.7z M97,41.6c0-0.4,0-0.6,0-1v-0.7h0.9v0.7c0,0.2,0,0.6,0,0.9L97,41.6z M114.4,40.5h-0.9
			v-1.6h0.9V40.5z M97.9,38.4H97v-1.6h0.9V38.4z M97.9,35.3H97v-1.6h0.9V35.3z M97.9,32.1H97v-1.6h0.9V32.1z M97.9,28.9H97v-1.6h0.9
			V28.9z M97.9,25.7H97v-1.6h0.9V25.7z M97.9,22.7H97v-1.6h0.9V22.7z M97.9,19.5H97v-1.6h0.9V19.5z"/>
	</g>
	<g>
		<path class="st0" d="M91.4,32.4h-0.6V15.6c0-1.9,1.5-3.4,3.4-3.4c1.9,0,3.4,1.6,3.4,3.4V17H97v-1.4c0-1.5-1.3-2.7-2.8-2.7
			s-2.8,1.3-2.8,2.7V32.4z"/>
	</g>
	<g>
		<g>
			<g>
				<path class="st4" d="M77,38"/>
			</g>
		</g>
		<g>
			<path class="st1" d="M72.3,32.5c-1.5,0-2.9,0.5-3.8,1.6c-1.1,1.1-1.6,2.4-1.6,3.8c0,1.5,0.5,2.9,1.6,3.8c2.1,2.1,5.6,2.1,7.7,0
				c1.1-1.1,1.6-2.4,1.6-3.8c0-1.5-0.5-2.9-1.6-3.8C75,33.1,73.6,32.5,72.3,32.5z"/>
			<path class="st0" d="M72.3,43.7L72.3,43.7c-1.6,0-3-0.6-4.1-1.7c-1.1-1.1-1.7-2.5-1.7-4c0-1.6,0.6-3,1.7-4.1
				c1.1-1.1,2.5-1.7,4.1-1.7c1.6,0,3,0.6,4.1,1.7c1.1,1.1,1.7,2.5,1.7,4c0,1.6-0.6,3-1.7,4.1C75.2,43.2,73.8,43.7,72.3,43.7z
				 M72.3,32.9c-1.4,0-2.6,0.5-3.6,1.5s-1.5,2.2-1.5,3.6c0,1.4,0.5,2.6,1.5,3.6s2.2,1.5,3.6,1.5l0,0c1.4,0,2.6-0.5,3.6-1.5
				s1.5-2.2,1.5-3.6c0-1.4-0.5-2.6-1.5-3.6S73.6,32.9,72.3,32.9z"/>
		</g>
		<path class="st3" d="M76.5,38c0,1.2-0.4,2.2-1.3,3.1c-1.7,1.7-4.4,1.7-6.1,0c-0.8-0.8-1.3-1.9-1.3-3.1c0-1.2,0.4-2.2,1.3-3.1
			c0.8-0.8,1.9-1.3,3.1-1.3c1.2,0,2.2,0.4,3.1,1.3C76.1,35.8,76.5,36.8,76.5,38z"/>
		<g>
			<path class="st1" d="M69.7,40.5c-0.6-0.6-1.1-1.6-1.1-2.5s0.3-1.8,1.1-2.5l0.5,0.5c-0.5,0.5-0.8,1.3-0.8,2s0.3,1.5,0.8,2
				L69.7,40.5z"/>
		</g>
		<rect x="79.1" y="36.5" class="st5" width="6.2" height="2.9"/>
		<g>
			<line class="st2" x1="84.5" y1="37.5" x2="81" y2="37.5"/>
			<rect x="81" y="37.1" class="st1" width="3.5" height="0.6"/>
		</g>
		<g>
			<rect x="79.1" y="36.8" class="st1" width="1.1" height="2.2"/>
			<path class="st0" d="M80.6,39.4h-1.8v-2.9h1.8V39.4z M79.6,38.7H80v-1.6h-0.4V38.7z"/>
		</g>
		<g>
			<path class="st1" d="M86,36.8c0.6,0.6,0.6,1.6,0,2.2c-0.2,0-0.3,0-0.5,0c0-0.7,0-1.5,0-2.2C85.6,36.8,85.8,36.8,86,36.8z"/>
			<path class="st0" d="M85.6,39.4h-0.5v-2.5v-0.3h1.1l0.1,0.1c0.7,0.7,0.7,1.9,0,2.7l-0.1,0H85.6z M85.8,37.1v1.6l0,0
				C86.2,38.3,86.2,37.7,85.8,37.1L85.8,37.1z"/>
		</g>
		<g>
			<g>
				<rect x="78.3" y="38.2" class="st0" width="1" height="0.6"/>
			</g>
			<g>
				<rect x="77.7" y="37" class="st0" width="1.2" height="0.6"/>
			</g>
		</g>
	</g>
	<g>
		<path class="st6" d="M14.9,18.2h-1.8h-0.6h-1.8h-3H5.4c-1,0-1.8,0.8-1.8,1.8V32l1.2-1.2L5.9,32l1.2-1.2L8.2,32l1.3-1.2l1.2,1.2
			l1.2-1.2L13,32V21.2V20"/>
		<path class="st6" d="M16.7,20v1.2h-3.6V20c0-0.5,0.2-1.1,0.6-1.4c0.3-0.3,0.7-0.4,1.2-0.4C15.8,18.2,16.7,19.1,16.7,20z"/>
		<path class="st7" d="M16,19.9v0.8h-2.4v-0.8c0-0.3,0.1-0.6,0.4-0.8c0.2-0.2,0.5-0.3,0.8-0.3C15.5,18.8,16,19.3,16,19.9z"/>
		<path class="st6" d="M7.1,26.6c0,0,0,1.2,1.7,1.2c2.1,0,2.1-2.9,0-3.3c-2.1-0.4-2.1-3.3,0-3.3c1.3,0,1.3,1.2,1.3,1.2"/>
		<line class="st8" x1="8.9" y1="20" x2="8.9" y2="21.2"/>
		<line class="st8" x1="8.9" y1="27.7" x2="8.9" y2="29"/>
	</g>
	<g>
		<g>
			<defs>
				<path id="SVGID_1_" d="M96.1,49.8v-0.6h0.6c0.2,0,0.4-0.2,0.4-0.4s-0.2-0.4-0.4-0.4h-0.6v-0.6c0-0.2-0.2-0.4-0.4-0.4
					s-0.4,0.2-0.4,0.4v0.6h-0.6c-0.2,0-0.4,0.2-0.4,0.4s0.2,0.4,0.4,0.4h0.6v0.6c0,0.2,0.2,0.4,0.4,0.4C95.9,50.2,96.1,50,96.1,49.8
					"/>
			</defs>
			<clipPath id="SVGID_2_">
				<use xlink:href="#SVGID_1_"  style="overflow:visible;"/>
			</clipPath>
			<g class="st9">
				<g>
					<g>
						<defs>
							<rect id="SVGID_3_" x="94.2" y="15.1" width="47.3" height="37.3"/>
						</defs>
						<clipPath id="SVGID_4_">
							<use xlink:href="#SVGID_3_"  style="overflow:visible;"/>
						</clipPath>
						<g class="st10">
							<rect x="92.6" y="45.6" class="st11" width="6.1" height="6.1"/>
						</g>
					</g>
				</g>
			</g>
		</g>
	</g>
	<g>
		<g>
			<defs>
				<path id="SVGID_5_" d="M100.3,11.2h1.5c0.2,0,0.4-0.2,0.4-0.5c0-0.3-0.2-0.5-0.4-0.5h-1.5c-0.2,0-0.4,0.2-0.4,0.5
					C99.9,10.9,100.1,11.2,100.3,11.2"/>
			</defs>
			<clipPath id="SVGID_6_">
				<use xlink:href="#SVGID_5_"  style="overflow:visible;"/>
			</clipPath>
			<g class="st12">
				<g>
					<g>
						<defs>
							<rect id="SVGID_7_" x="99.6" y="-1.9" width="47.3" height="37.3"/>
						</defs>
						<clipPath id="SVGID_8_">
							<use xlink:href="#SVGID_7_"  style="overflow:visible;"/>
						</clipPath>
						<g class="st13">
							<rect x="98.3" y="8.6" class="st11" width="5.5" height="4.2"/>
						</g>
					</g>
				</g>
			</g>
		</g>
	</g>
	<g>
		<g>
			<defs>
				<path id="SVGID_9_" d="M104,9.9c0.2,0,0.4-0.2,0.4-0.5c0-0.3-0.2-0.5-0.4-0.5h-1.7c-0.2,0-0.4,0.2-0.4,0.5
					c0,0.3,0.2,0.5,0.4,0.5H104z"/>
			</defs>
			<clipPath id="SVGID_10_">
				<use xlink:href="#SVGID_9_"  style="overflow:visible;"/>
			</clipPath>
			<g class="st14">
				<g>
					<g>
						<defs>
							<rect id="SVGID_11_" x="99.6" y="-1.9" width="47.3" height="37.3"/>
						</defs>
						<clipPath id="SVGID_12_">
							<use xlink:href="#SVGID_11_"  style="overflow:visible;"/>
						</clipPath>
						<g class="st15">
							<rect x="100.2" y="7.4" class="st11" width="5.8" height="4.2"/>
						</g>
					</g>
				</g>
			</g>
		</g>
	</g>
	<g>
		<g>
			<defs>
				<path id="SVGID_13_" d="M131.4,46.6h1.4c0.2,0,0.4-0.2,0.4-0.5c0-0.3-0.2-0.5-0.4-0.5h-1.5c-0.2,0-0.4,0.2-0.4,0.5
					C130.9,46.4,131.2,46.6,131.4,46.6"/>
			</defs>
			<clipPath id="SVGID_14_">
				<use xlink:href="#SVGID_13_"  style="overflow:visible;"/>
			</clipPath>
			<g class="st16">
				<g>
					<g>
						<defs>
							<rect id="SVGID_15_" x="130.6" y="33.4" width="47.3" height="37.3"/>
						</defs>
						<clipPath id="SVGID_16_">
							<use xlink:href="#SVGID_15_"  style="overflow:visible;"/>
						</clipPath>
						<g class="st17">
							<rect x="129.4" y="44" class="st11" width="5.5" height="4.2"/>
						</g>
					</g>
				</g>
			</g>
		</g>
	</g>
	<g>
		<g>
			<defs>
				<path id="SVGID_17_" d="M146.1,54.7h0.8v0.8c0,0.2,0.2,0.4,0.4,0.4c0.2,0,0.4-0.2,0.4-0.4v-0.8h0.6c0.2,0,0.4-0.2,0.4-0.4
					c0-0.2-0.2-0.4-0.4-0.4h-0.8v-0.7c0-0.2-0.2-0.4-0.4-0.4s-0.4,0.2-0.4,0.4v0.8h-0.8c-0.2,0-0.4,0.2-0.4,0.4
					C145.7,54.5,145.9,54.7,146.1,54.7"/>
			</defs>
			<clipPath id="SVGID_18_">
				<use xlink:href="#SVGID_17_"  style="overflow:visible;"/>
			</clipPath>
			<g class="st18">
				<g>
					<g>
						<defs>
							<rect id="SVGID_19_" x="121.2" y="52.7" width="47.3" height="37.3"/>
						</defs>
						<clipPath id="SVGID_20_">
							<use xlink:href="#SVGID_19_"  style="overflow:visible;"/>
						</clipPath>
						<rect x="144.1" y="51.1" class="st19" width="6.4" height="6.4"/>
					</g>
				</g>
			</g>
		</g>
	</g>
	<g>
		<g>
			<defs>
				<path id="SVGID_21_" d="M157,8h0.5v0.5c0,0.2,0.2,0.4,0.4,0.4s0.4-0.2,0.4-0.4V8h0.5c0.2,0,0.4-0.2,0.4-0.4s-0.2-0.4-0.4-0.4
					h-0.5V6.6c0-0.2-0.2-0.4-0.4-0.4s-0.4,0.2-0.4,0.4v0.5H157c-0.2,0-0.4,0.2-0.4,0.4S156.8,8,157,8"/>
			</defs>
			<clipPath id="SVGID_22_">
				<use xlink:href="#SVGID_21_"  style="overflow:visible;"/>
			</clipPath>
			<g class="st20">
				<g>
					<g>
						<defs>
							<rect id="SVGID_23_" x="111.9" y="-7.8" width="47.3" height="37.3"/>
						</defs>
						<clipPath id="SVGID_24_">
							<use xlink:href="#SVGID_23_"  style="overflow:visible;"/>
						</clipPath>
						<g class="st21">
							<rect x="155" y="4.7" class="st11" width="5.8" height="5.8"/>
						</g>
					</g>
				</g>
			</g>
		</g>
	</g>
	<g>
		<g>
			<defs>
				<path id="SVGID_25_" d="M160.1,46.4c0-0.3-0.2-0.5-0.4-0.5h-3c-0.2,0-0.4,0.2-0.4,0.5s0.2,0.5,0.4,0.5h3
					C159.9,47,160.1,46.7,160.1,46.4"/>
			</defs>
			<clipPath id="SVGID_26_">
				<use xlink:href="#SVGID_25_"  style="overflow:visible;"/>
			</clipPath>
			<g class="st22">
				<g>
					<g>
						<defs>
							<rect id="SVGID_27_" x="112.8" y="13.5" width="47.3" height="37.3"/>
						</defs>
						<clipPath id="SVGID_28_">
							<use xlink:href="#SVGID_27_"  style="overflow:visible;"/>
						</clipPath>
						<g class="st23">
							<rect x="154.6" y="44.4" class="st11" width="7.1" height="4.2"/>
						</g>
					</g>
				</g>
			</g>
		</g>
	</g>
	<g>
		<g>
			<defs>
				<path id="SVGID_29_" d="M24.5,48.4h1.8c0.2,0,0.4-0.2,0.4-0.5c0-0.3-0.2-0.5-0.4-0.5h-1.8c-0.2,0-0.4,0.2-0.4,0.5
					C24.1,48.2,24.3,48.4,24.5,48.4"/>
			</defs>
			<clipPath id="SVGID_30_">
				<use xlink:href="#SVGID_29_"  style="overflow:visible;"/>
			</clipPath>
			<g class="st24">
				<g>
					<g>
						<defs>
							<rect id="SVGID_31_" x="-9.7" y="44.3" width="47.3" height="37.3"/>
						</defs>
						<clipPath id="SVGID_32_">
							<use xlink:href="#SVGID_31_"  style="overflow:visible;"/>
						</clipPath>
						<g class="st25">
							<rect x="22.5" y="45.9" class="st11" width="5.8" height="4.2"/>
						</g>
					</g>
				</g>
			</g>
		</g>
	</g>
	<g>
		<g>
			<defs>
				<path id="SVGID_33_" d="M47.1,34.6h1.8c0.2,0,0.4-0.2,0.4-0.5c0-0.3-0.2-0.5-0.4-0.5h-1.8c-0.2,0-0.4,0.2-0.4,0.5
					C46.7,34.4,46.9,34.6,47.1,34.6"/>
			</defs>
			<clipPath id="SVGID_34_">
				<use xlink:href="#SVGID_33_"  style="overflow:visible;"/>
			</clipPath>
			<g class="st26">
				<g>
					<g>
						<defs>
							<rect id="SVGID_35_" x="12.9" y="30.4" width="47.3" height="37.3"/>
						</defs>
						<clipPath id="SVGID_36_">
							<use xlink:href="#SVGID_35_"  style="overflow:visible;"/>
						</clipPath>
						<g class="st27">
							<rect x="45.1" y="31.9" class="st11" width="5.8" height="4.2"/>
						</g>
					</g>
				</g>
			</g>
		</g>
	</g>
	<g>
		<g>
			<defs>
				<path id="SVGID_37_" d="M71.2,45.5H73c0.2,0,0.4-0.2,0.4-0.5c0-0.3-0.2-0.5-0.4-0.5h-1.8c-0.2,0-0.4,0.2-0.4,0.5
					C70.7,45.3,71,45.5,71.2,45.5"/>
			</defs>
			<clipPath id="SVGID_38_">
				<use xlink:href="#SVGID_37_"  style="overflow:visible;"/>
			</clipPath>
			<g class="st28">
				<g>
					<g>
						<defs>
							<rect id="SVGID_39_" x="36.9" y="41.2" width="47.3" height="37.3"/>
						</defs>
						<clipPath id="SVGID_40_">
							<use xlink:href="#SVGID_39_"  style="overflow:visible;"/>
						</clipPath>
						<g class="st29">
							<rect x="69.2" y="42.8" class="st11" width="5.8" height="4.2"/>
						</g>
					</g>
				</g>
			</g>
		</g>
	</g>
	<g>
		<path class="st0" d="M160.1,19v12.2h0h-0.6V18.9"/>
	</g>
	<g>
		<path class="st0" d="M171.2,8.5c0.2,0,0.4,0,0.6,0.1l-0.1,0.6c-0.2,0-0.4-0.1-0.6-0.1L171.2,8.5z M172.6,8.7
			c0.2,0,0.4,0.1,0.6,0.2L173,9.5c-0.2-0.1-0.4-0.1-0.6-0.2L172.6,8.7z M173.9,9.1c0.2,0.1,0.4,0.2,0.6,0.2l-0.3,0.6
			c-0.2-0.1-0.4-0.2-0.6-0.2L173.9,9.1z M175.1,9.6c0.2,0.1,0.4,0.2,0.6,0.3l-0.3,0.6c-0.2-0.1-0.4-0.2-0.5-0.3L175.1,9.6z
			 M176.4,10.4c0.2,0.1,0.4,0.3,0.5,0.4l-0.4,0.5c-0.2-0.1-0.3-0.2-0.5-0.4L176.4,10.4z M177.5,11.2c0.2,0.1,0.3,0.3,0.5,0.5
			l-0.5,0.4c-0.1-0.1-0.3-0.3-0.4-0.4L177.5,11.2z M178.4,12.2c0.1,0.2,0.3,0.3,0.4,0.5l-0.5,0.4c-0.1-0.2-0.3-0.3-0.4-0.5
			L178.4,12.2z M179.3,13.3c0.1,0.2,0.2,0.4,0.3,0.6l-0.6,0.3c-0.1-0.2-0.2-0.4-0.3-0.5L179.3,13.3z M179.9,14.5
			c0.1,0.2,0.2,0.4,0.3,0.6l-0.6,0.2c-0.1-0.2-0.2-0.4-0.3-0.6L179.9,14.5z M180.4,15.7c0.1,0.2,0.1,0.4,0.2,0.6l-0.6,0.2
			c-0.1-0.2-0.1-0.4-0.2-0.6L180.4,15.7z M180.8,17.1c0,0.2,0.1,0.4,0.1,0.6l-0.6,0.1c0-0.2-0.1-0.4-0.1-0.6L180.8,17.1z M181,18.5
			c0,0.2,0,0.4,0,0.7h-0.6c0-0.2,0-0.4,0-0.6L181,18.5z M180.3,19.8h0.6v0.6h-0.6V19.8z M180.3,21.1h0.6v0.6h-0.6V21.1z M180.3,22.5
			h0.6v0.6h-0.6V22.5z M180.3,23.8h0.6v0.6h-0.6V23.8z M180.3,25.1h0.6v0.6h-0.6V25.1z M180.3,26.5h0.6v0.6h-0.6V26.5z M180.3,27.8
			h0.6v0.6h-0.6V27.8z M180.3,29.2h0.6v0.6h-0.6V29.2z M180.3,30.5h0.6v0.6h-0.6V30.5z M180.3,31.8h0.6v0.6h-0.6V31.8z M180.3,33.2
			h0.6v0.6h-0.6V33.2z M180.3,34.5h0.6v0.6h-0.6V34.5z M180.3,35.8h0.6v0.7h-0.6V35.8z M180.3,37.2h0.6v0.6h-0.6V37.2z"/>
	</g>
	<g>
		<path class="st0" d="M170.3,8.5v0.6c-5.6,0-10.1,4.5-10.1,10.1v6h-0.6v-6C159.4,13.3,164.3,8.5,170.3,8.5z"/>
	</g>
	<g>
		<g>
			<defs>
				<path id="SVGID_41_" d="M172,31.1h1.5c0.2,0,0.4-0.2,0.4-0.5c0-0.3-0.2-0.5-0.4-0.5H172c-0.2,0-0.4,0.2-0.4,0.5
					C171.6,30.9,171.8,31.1,172,31.1"/>
			</defs>
			<clipPath id="SVGID_42_">
				<use xlink:href="#SVGID_41_"  style="overflow:visible;"/>
			</clipPath>
			<g class="st30">
				<g>
					<g>
						<defs>
							<rect id="SVGID_43_" x="171.3" y="17.9" width="47.3" height="37.3"/>
						</defs>
						<clipPath id="SVGID_44_">
							<use xlink:href="#SVGID_43_"  style="overflow:visible;"/>
						</clipPath>
						<g class="st31">
							<rect x="170" y="28.6" class="st11" width="5.5" height="4.2"/>
						</g>
					</g>
				</g>
			</g>
		</g>
	</g>
	<g>
		<g>
			<defs>
				<path id="SVGID_45_" d="M175.6,29.9c0.2,0,0.4-0.2,0.4-0.5s-0.2-0.5-0.4-0.5h-1.7c-0.2,0-0.4,0.2-0.4,0.5s0.2,0.5,0.4,0.5H175.6
					z"/>
			</defs>
			<clipPath id="SVGID_46_">
				<use xlink:href="#SVGID_45_"  style="overflow:visible;"/>
			</clipPath>
			<g class="st32">
				<g>
					<g>
						<defs>
							<rect id="SVGID_47_" x="171.3" y="17.9" width="47.3" height="37.3"/>
						</defs>
						<clipPath id="SVGID_48_">
							<use xlink:href="#SVGID_47_"  style="overflow:visible;"/>
						</clipPath>
						<g class="st33">
							<rect x="171.9" y="27.3" class="st11" width="5.8" height="4.2"/>
						</g>
					</g>
				</g>
			</g>
		</g>
	</g>
	<g>
		<g>
			<defs>
				<path id="SVGID_49_" d="M165.5,48.1h1.8c0.2,0,0.4-0.2,0.4-0.5s-0.2-0.5-0.4-0.5h-1.8c-0.2,0-0.4,0.2-0.4,0.5
					S165.3,48.1,165.5,48.1"/>
			</defs>
			<clipPath id="SVGID_50_">
				<use xlink:href="#SVGID_49_"  style="overflow:visible;"/>
			</clipPath>
			<g class="st34">
				<g>
					<g>
						<defs>
							<rect id="SVGID_51_" x="131.4" y="43.9" width="47.3" height="37.3"/>
						</defs>
						<clipPath id="SVGID_52_">
							<use xlink:href="#SVGID_51_"  style="overflow:visible;"/>
						</clipPath>
						<g class="st35">
							<rect x="163.5" y="45.6" class="st11" width="5.8" height="4.2"/>
						</g>
					</g>
				</g>
			</g>
		</g>
	</g>
	<g>
		<g>
			<g>
				<g>
					<rect x="138.7" y="39.4" class="st0" width="0.6" height="0.6"/>
				</g>
			</g>
			<g>
				<g>
					
						<rect x="137.4" y="40.1" transform="matrix(0.5001 -0.866 0.866 0.5001 33.8356 139.5071)" class="st0" width="0.6" height="0.6"/>
				</g>
			</g>
			<g>
				<g>
					
						<rect x="137.4" y="41.6" transform="matrix(0.8662 -0.4997 0.4997 0.8662 -2.5117 74.4394)" class="st0" width="0.6" height="0.6"/>
				</g>
			</g>
			<g>
				<g>
					<rect x="138.7" y="42.3" class="st0" width="0.6" height="0.6"/>
				</g>
			</g>
			<g>
				<g>
					
						<rect x="140" y="41.7" transform="matrix(0.5002 -0.8659 0.8659 0.5002 33.7535 142.5117)" class="st0" width="0.6" height="0.6"/>
				</g>
			</g>
			<g>
				<g>
					
						<rect x="140" y="40.2" transform="matrix(0.8662 -0.4997 0.4997 0.8662 -1.4547 75.507)" class="st0" width="0.6" height="0.6"/>
				</g>
			</g>
		</g>
		<g>
			<g>
				<path class="st36" d="M136.6,36.3c-0.4,0-0.7,0.3-0.7,0.7v0.8L141,38c0.4-0.1,0.6,0.1,0.4,0.6v6.5h6.2c0.4,0,0.7-0.3,0.7-0.7
					v-8.1h-6.2H136.6z"/>
			</g>
			<g>
				<path class="st36" d="M147.4,34.3h-1.3c-0.5,0-1,0.4-1,1l0,0h-2c-0.6,0-1.1,0.5-1.1,1.1l0,0h3.1h3.1v-1.1l0,0
					C148.4,34.7,147.9,34.3,147.4,34.3z"/>
			</g>
			<g>
				<path class="st37" d="M147.6,45.4h-6.2c-0.1,0-0.2-0.1-0.2-0.2s0.1-0.2,0.2-0.2h6.2c0.3,0,0.5-0.2,0.5-0.5v-8.1
					c0-0.1,0.1-0.2,0.2-0.2c0.1,0,0.2,0.1,0.2,0.2v8.2C148.6,45,148.2,45.4,147.6,45.4z"/>
			</g>
			<g>
				<path class="st37" d="M148.4,36.5h-3.1c-0.1,0-0.2-0.1-0.2-0.2s0.1-0.2,0.2-0.2h3v-1c0-0.4-0.3-0.7-0.7-0.7h-1.3
					c-0.4,0-0.7,0.3-0.7,0.7c0,0.1-0.1,0.2-0.2,0.2h-2c-0.5,0-0.8,0.4-1,0.8c0,0,0,0,0,0.1s-0.1,0.2-0.2,0.2l0,0
					c-0.1,0-0.2-0.1-0.2-0.2c0-0.3,0.1-0.6,0.4-1c0.2-0.2,0.5-0.4,1-0.4h1.8c0.1-0.5,0.5-1,1.1-1h1.3c0.6,0,1.1,0.5,1.1,1.1v1.1
					C148.6,36.4,148.5,36.5,148.4,36.5z"/>
			</g>
			<g>
				<path class="st37" d="M147.1,42.9c-0.1,0-0.2-0.1-0.2-0.2v-4.9c0-0.1,0.1-0.2,0.2-0.2c0.1,0,0.2,0.1,0.2,0.2v4.9
					C147.3,42.8,147.2,42.9,147.1,42.9z"/>
			</g>
			<polyline class="st38" points="142,45.2 135,45.2 135,36.2 142,36.2 			"/>
		</g>
	</g>
	<path class="st39" d="M39,11.5c0-3.3,2.8-6.9,7.1-6.7c3.9,0.1,7.1,2.5,7.1,5.8"/>
	<line class="st39" x1="53.2" y1="10.1" x2="53.2" y2="15.7"/>
	<g>
		<g>
			<path class="st0" d="M114.4,28.9v5h0.1h-0.6v-5"/>
		</g>
	</g>
	<path class="st40" d="M114.2,29c0-3.3,2.5-6.9,6.3-6.7c3.5,0.1,6.3,2.5,6.3,5.8v8.6"/>
	<g>
		<g>
			<g>
				<rect x="212.3" y="26.9" class="st0" width="0.6" height="0.3"/>
			</g>
			<g>
				<path class="st0" d="M197.6,51.2c-0.1,0-0.2,0-0.3,0v-0.6c0.2,0,0.4,0,0.6,0v0.6C198,51.2,197.7,51.2,197.6,51.2z M196.7,51.2
					c-0.2,0-0.4,0-0.7-0.1l0.1-0.6c0.2,0,0.4,0,0.6,0.1V51.2z M198.7,51.2v-0.6c0.2,0,0.4,0,0.6-0.1l0.1,0.6
					C199.2,51.1,199,51.1,198.7,51.2z M195.3,51c-0.2,0-0.4-0.1-0.6-0.1l0.1-0.6c0.2,0,0.4,0.1,0.6,0.1L195.3,51z M200.1,51
					l-0.1-0.6c0.2,0,0.4-0.1,0.6-0.1l0.1,0.6C200.6,50.9,200.4,51,200.1,51z M193.9,50.8c-0.2-0.1-0.4-0.1-0.6-0.2l0.2-0.6
					c0.2,0.1,0.4,0.1,0.6,0.2L193.9,50.8z M201.4,50.7l-0.2-0.6c0.2-0.1,0.4-0.1,0.6-0.2l0.2,0.6C201.9,50.6,201.7,50.7,201.4,50.7z
					 M192.6,50.3c-0.2-0.1-0.4-0.1-0.6-0.2l0.2-0.6c0.2,0.1,0.4,0.2,0.6,0.2L192.6,50.3z M202.8,50.3l-0.2-0.6
					c0.2-0.1,0.4-0.1,0.6-0.2l0.2,0.6C203.2,50.1,203,50.2,202.8,50.3z M191.3,49.8c-0.2-0.1-0.4-0.2-0.6-0.3l0.3-0.6
					c0.2,0.1,0.4,0.2,0.6,0.3L191.3,49.8z M204.1,49.8l-0.3-0.6c0.2-0.1,0.4-0.2,0.6-0.3l0.3,0.6C204.5,49.6,204.3,49.7,204.1,49.8z
					 M190,49.2c-0.2-0.1-0.4-0.2-0.6-0.3l0.3-0.5c0.2,0.1,0.4,0.2,0.5,0.3L190,49.2z M205.2,49.2l-0.3-0.6c0.2-0.1,0.4-0.2,0.5-0.3
					l0.3,0.5C205.7,49,205.5,49.1,205.2,49.2z M188.9,48.4c-0.2-0.1-0.4-0.3-0.5-0.4l0.4-0.5c0.2,0.1,0.3,0.3,0.5,0.4L188.9,48.4z
					 M206.5,48.4l-0.4-0.5c0.2-0.1,0.3-0.2,0.5-0.4L207,48C206.8,48.1,206.6,48.2,206.5,48.4z M187.8,47.6c-0.2-0.1-0.3-0.3-0.5-0.4
					l0.4-0.5c0.2,0.1,0.3,0.3,0.5,0.4L187.8,47.6z M207.6,47.6l-0.4-0.5c0.2-0.1,0.3-0.3,0.5-0.4l0.4,0.5
					C207.9,47.3,207.8,47.4,207.6,47.6z M186.8,46.6c-0.2-0.2-0.3-0.3-0.5-0.5l0.5-0.4c0.1,0.2,0.3,0.3,0.4,0.5L186.8,46.6z
					 M208.6,46.6l-0.5-0.5c0.1-0.1,0.3-0.3,0.4-0.5L209,46C208.9,46.3,208.7,46.4,208.6,46.6z M185.8,45.7c-0.1-0.2-0.3-0.3-0.4-0.5
					l0.5-0.4c0.1,0.2,0.3,0.3,0.4,0.5L185.8,45.7z M209.5,45.6l-0.5-0.4c0.1-0.2,0.3-0.3,0.4-0.5l0.5,0.4
					C209.8,45.3,209.7,45.4,209.5,45.6z M185,44.5c-0.1-0.2-0.2-0.4-0.4-0.5l0.5-0.3c0.1,0.2,0.2,0.4,0.3,0.5L185,44.5z M210.3,44.5
					l-0.5-0.4c0.1-0.2,0.2-0.3,0.3-0.5l0.5,0.3C210.6,44.1,210.4,44.3,210.3,44.5z M184.2,43.4c-0.1-0.2-0.2-0.4-0.3-0.6l0.6-0.3
					c0.1,0.2,0.2,0.4,0.3,0.6L184.2,43.4z M211.1,43.3l-0.6-0.3c0.1-0.2,0.2-0.4,0.3-0.6l0.6,0.3C211.3,42.9,211.2,43.2,211.1,43.3z
					 M183.7,42.1c-0.1-0.2-0.2-0.4-0.3-0.6l0.6-0.2c0.1,0.2,0.2,0.4,0.2,0.6L183.7,42.1z M211.7,42.1l-0.6-0.3
					c0.1-0.2,0.2-0.4,0.2-0.6l0.6,0.2C211.9,41.7,211.8,41.9,211.7,42.1z M183.2,40.8c-0.1-0.2-0.1-0.4-0.2-0.6l0.6-0.2
					c0.1,0.2,0.1,0.4,0.2,0.6L183.2,40.8z M212.2,40.8l-0.6-0.2c0.1-0.2,0.1-0.4,0.2-0.6l0.6,0.2C212.3,40.3,212.3,40.5,212.2,40.8z
					 M182.7,39.6c-0.1-0.2-0.1-0.4-0.1-0.6l0.6-0.1c0,0.2,0.1,0.4,0.1,0.6L182.7,39.6z M212.5,39.5l-0.6-0.2c0-0.2,0.1-0.4,0.1-0.6
					l0.7,0.2C212.6,39,212.6,39.2,212.5,39.5z M182.4,38.2c0-0.2-0.1-0.4-0.1-0.6l0.6-0.1c0,0.2,0.1,0.4,0.1,0.6L182.4,38.2z
					 M212.8,38.1l-0.6-0.1c0-0.2,0.1-0.4,0.1-0.6l0.6,0.1C213,37.7,212.8,37.9,212.8,38.1z M182.3,36.8c0-0.2,0-0.4,0-0.7h0.6
					c0,0.2,0,0.4,0,0.6L182.3,36.8z M213,36.7h-0.6c0-0.2,0-0.4,0-0.6h0.6C213.1,36.3,213,36.5,213,36.7z M213.1,35.3h-0.6v-0.6h0.6
					V35.3z M213.1,34h-0.6v-0.6h0.6V34z M213.1,32.6h-0.6V32h0.6V32.6z M213.1,31.3h-0.6v-0.6h0.6V31.3z M213.1,30h-0.6v-0.6h0.6V30
					z M213.1,28.6h-0.6v-0.6h0.6V28.6z"/>
			</g>
			<g>
				<rect x="182.3" y="35" class="st0" width="0.6" height="0.3"/>
			</g>
		</g>
		<g>
			<path class="st0" d="M197.6,53.7c-10,0-18.2-8.1-18.2-18.2v-0.8h0.6v0.8c0,9.6,7.8,17.5,17.5,17.5V53.7z"/>
		</g>
	</g>
	<g>
		<g>
			<circle class="st1" cx="193.2" cy="44.1" r="4.4"/>
			<path class="st7" d="M193.3,48.6c-2.5,0-4.5-2-4.5-4.5c0-2.5,2-4.5,4.5-4.5s4.5,2,4.5,4.5C197.9,46.6,195.9,48.6,193.3,48.6
				 M193.3,39.9c-2.3,0-4.2,1.9-4.2,4.2c0,2.3,1.9,4.2,4.2,4.2c2.3,0,4.2-1.9,4.2-4.2S195.6,39.9,193.3,39.9"/>
			<path class="st41" d="M196.9,44.3h-0.7c-0.1,0-0.2-0.1-0.2-0.2c0-0.1,0.1-0.2,0.2-0.2h0.7c0.1,0,0.2,0.1,0.2,0.2
				S197,44.3,196.9,44.3"/>
			<path class="st41" d="M196.9,44.3h-0.7c-0.1,0-0.2-0.1-0.2-0.2c0-0.1,0.1-0.2,0.2-0.2h0.7c0.1,0,0.2,0.1,0.2,0.2
				S197,44.3,196.9,44.3"/>
			<path class="st41" d="M195.1,47.5c-0.1,0-0.1,0-0.2-0.1l-0.3-0.5c0-0.1,0-0.2,0.1-0.2s0.2,0,0.2,0.1l0.3,0.5
				C195.3,47.3,195.3,47.4,195.1,47.5C195.2,47.5,195.2,47.5,195.1,47.5"/>
			<path class="st41" d="M195.9,42.7c-0.1,0-0.1,0-0.2-0.1c0-0.1,0-0.2,0.1-0.2l0.5-0.3c0.1,0,0.2,0,0.2,0.1s0,0.2-0.1,0.2
				L195.9,42.7C196,42.7,196,42.7,195.9,42.7"/>
			<path class="st41" d="M196.5,46.1L196.5,46.1l-0.6-0.3c-0.1,0-0.1-0.2-0.1-0.2c0-0.1,0.2-0.1,0.2-0.1l0.6,0.3
				c0.1,0,0.1,0.2,0.1,0.2C196.6,46.1,196.6,46.1,196.5,46.1"/>
			<path class="st41" d="M194.8,41.6C194.7,41.6,194.7,41.6,194.8,41.6c-0.2-0.1-0.2-0.2-0.2-0.3l0.3-0.5c0-0.1,0.2-0.1,0.2-0.1
				c0.1,0,0.1,0.2,0.1,0.2l-0.3,0.5C194.9,41.6,194.8,41.6,194.8,41.6"/>
			<polygon class="st41" points="193.4,46.3 193.1,46.3 193.1,43.8 194.9,43.8 194.9,44.1 193.4,44.1 			"/>
			<path class="st41" d="M193.3,41.2c-0.1,0-0.2-0.1-0.2-0.2v-0.5c0-0.1,0.1-0.2,0.2-0.2s0.2,0.1,0.2,0.2v0.5
				C193.4,41.2,193.4,41.2,193.3,41.2"/>
			<path class="st41" d="M193.3,48c-0.1,0-0.2-0.1-0.2-0.2v-0.5c0-0.1,0.1-0.2,0.2-0.2s0.2,0.1,0.2,0.2v0.5
				C193.4,47.9,193.4,48,193.3,48"/>
			<path class="st41" d="M190.4,44.3h-0.7c-0.1,0-0.2-0.1-0.2-0.2c0-0.1,0.1-0.2,0.2-0.2h0.7c0.1,0,0.2,0.1,0.2,0.2
				S190.5,44.3,190.4,44.3"/>
			<path class="st41" d="M193.3,41.2c-0.1,0-0.2-0.1-0.2-0.2v-0.5c0-0.1,0.1-0.2,0.2-0.2s0.2,0.1,0.2,0.2v0.5
				C193.4,41.2,193.4,41.2,193.3,41.2"/>
			<path class="st41" d="M193.3,48c-0.1,0-0.2-0.1-0.2-0.2v-0.5c0-0.1,0.1-0.2,0.2-0.2s0.2,0.1,0.2,0.2v0.5
				C193.4,47.9,193.4,48,193.3,48"/>
			<path class="st41" d="M190.4,44.3h-0.7c-0.1,0-0.2-0.1-0.2-0.2c0-0.1,0.1-0.2,0.2-0.2h0.7c0.1,0,0.2,0.1,0.2,0.2
				S190.5,44.3,190.4,44.3"/>
			<path class="st41" d="M191.4,47.5C191.4,47.5,191.3,47.5,191.4,47.5c-0.2-0.1-0.2-0.2-0.2-0.3l0.3-0.5c0-0.1,0.2-0.1,0.2-0.1
				c0.1,0,0.1,0.2,0.1,0.2l-0.3,0.5C191.5,47.5,191.5,47.5,191.4,47.5"/>
			<path class="st41" d="M190.7,42.7C190.7,42.7,190.6,42.7,190.7,42.7l-0.6-0.3c-0.1,0-0.1-0.2-0.1-0.2c0-0.1,0.2-0.1,0.2-0.1
				l0.5,0.3c0.1,0,0.1,0.2,0.1,0.2C190.8,42.7,190.8,42.7,190.7,42.7"/>
			<path class="st41" d="M190.1,46.1c-0.1,0-0.1,0-0.2-0.1c0-0.1,0-0.2,0.1-0.2l0.5-0.3c0.1,0,0.2,0,0.2,0.1c0,0.1,0,0.2-0.1,0.2
				L190.1,46.1C190.2,46.1,190.1,46.1,190.1,46.1"/>
			<path class="st41" d="M191.8,41.6c-0.1,0-0.1,0-0.2-0.1l-0.3-0.5c0-0.1,0-0.2,0.1-0.2s0.2,0,0.2,0.1l0.3,0.5
				C192.1,41.5,192,41.6,191.8,41.6L191.8,41.6"/>
		</g>
		<rect x="175.2" y="31.5" class="st1" width="17" height="11.6"/>
		<rect x="175.5" y="31.9" class="st1" width="16" height="10.7"/>
		<g>
			<g>
				<polygon class="st3" points="173.2,34.4 169.6,42.4 171.5,42.4 174.2,36.3 175.2,37.9 175.1,34.4 				"/>
			</g>
			<g>
				<polygon class="st3" points="189.9,28.6 187.1,31.4 189.6,31.4 191.2,29.9 192.3,30.9 193.1,26.7 188.8,27.4 				"/>
			</g>
			<g>
				<g>
					<path class="st42" d="M191.6,43.5h-15.8c-0.4,0-0.7-0.3-0.7-0.7V32.1c0-0.4,0.3-0.7,0.7-0.7h2.2c0.1,0,0.1,0.1,0.1,0.1
						c0,0.1-0.1,0.1-0.1,0.1h-2.2c-0.2,0-0.4,0.2-0.4,0.4v10.6c0,0.2,0.2,0.4,0.4,0.4h15.8c0.2,0,0.4-0.2,0.4-0.4V32.1
						c0-0.2-0.2-0.4-0.4-0.4h-2.2c-0.1,0-0.1-0.1-0.1-0.1c0-0.1,0.1-0.1,0.1-0.1h2.2c0.4,0,0.7,0.3,0.7,0.7v10.6
						C192.4,43.2,192.1,43.5,191.6,43.5z"/>
				</g>
				<g>
					<path class="st42" d="M188.6,31.6h-2.6c-0.1,0-0.1-0.1-0.1-0.1c0-0.1,0.1-0.1,0.1-0.1h2.6c0.1,0,0.1,0.1,0.1,0.1
						S188.7,31.6,188.6,31.6z"/>
				</g>
				<g>
					<path class="st42" d="M185,31.6h-2.5c-0.1,0-0.1-0.1-0.1-0.1c0-0.1,0.1-0.1,0.1-0.1h2.5c0.1,0,0.1,0.1,0.1,0.1
						C185.2,31.5,185.1,31.6,185,31.6z"/>
				</g>
				<g>
					<path class="st42" d="M181.5,31.6h-2.6c-0.1,0-0.1-0.1-0.1-0.1c0-0.1,0.1-0.1,0.1-0.1h2.6c0.1,0,0.1,0.1,0.1,0.1
						C181.7,31.5,181.6,31.6,181.5,31.6z"/>
				</g>
				<g>
					<path class="st42" d="M178.4,32.4h-0.2c-0.1,0-0.1-0.1-0.1-0.1v-1.7c0-0.1,0.1-0.1,0.1-0.1h0.5c0.1,0,0.1,0.1,0.1,0.1
						c0,0.1-0.1,0.1-0.1,0.1h-0.4v1.5h0.1c0.1,0,0.1,0.1,0.1,0.1S178.5,32.4,178.4,32.4z"/>
				</g>
				<g>
					<path class="st42" d="M181.9,32.4h-0.2c-0.1,0-0.1-0.1-0.1-0.1v-1.7c0-0.1,0.1-0.1,0.1-0.1h0.5c0.1,0,0.1,0.1,0.1,0.1
						c0,0.1-0.1,0.1-0.1,0.1h-0.4v1.5h0.1c0.1,0,0.1,0.1,0.1,0.1S182,32.4,181.9,32.4z"/>
				</g>
				<g>
					<path class="st42" d="M188.9,32.4h-0.2c-0.1,0-0.1-0.1-0.1-0.1v-1.7c0-0.1,0.1-0.1,0.1-0.1h0.5c0.1,0,0.1,0.1,0.1,0.1
						c0,0.1-0.1,0.1-0.1,0.1h-0.4v1.5h0.1c0.1,0,0.1,0.1,0.1,0.1C189.1,32.4,189,32.4,188.9,32.4z"/>
				</g>
				<g>
					<path class="st42" d="M185.4,32.4h-0.2c-0.1,0-0.1-0.1-0.1-0.1v-1.7c0-0.1,0.1-0.1,0.1-0.1h0.5c0.1,0,0.1,0.1,0.1,0.1
						c0,0.1-0.1,0.1-0.1,0.1h-0.4v1.5h0.1c0.1,0,0.1,0.1,0.1,0.1S185.5,32.4,185.4,32.4z"/>
				</g>
				<g>
					<path class="st42" d="M191.1,42.4h-14.8c-0.1,0-0.1-0.1-0.1-0.1v-9c0-0.1,0.1-0.1,0.1-0.1h14.8c0.1,0,0.1,0.1,0.1,0.1v9
						C191.2,42.3,191.2,42.4,191.1,42.4z M176.4,42.1h14.5v-8.7h-14.5V42.1z"/>
				</g>
				<g>
					<path class="st42" d="M191,35.2h-14.8c-0.1,0-0.1-0.1-0.1-0.1c0-0.1,0.1-0.1,0.1-0.1H191c0.1,0,0.1,0.1,0.1,0.1
						C191.2,35.1,191.1,35.2,191,35.2z"/>
				</g>
				<g>
					<path class="st42" d="M191.1,37h-14.8c-0.1,0-0.1-0.1-0.1-0.1c0-0.1,0.1-0.1,0.1-0.1h14.8c0.1,0,0.1,0.1,0.1,0.1L191.1,37z"/>
				</g>
				<g>
					<path class="st42" d="M191.1,38.8h-14.8c-0.1,0-0.1-0.1-0.1-0.1c0-0.1,0.1-0.1,0.1-0.1h14.8c0.1,0,0.1,0.1,0.1,0.1L191.1,38.8z
						"/>
				</g>
				<g>
					<path class="st42" d="M191.1,40.6h-14.8c-0.1,0-0.1-0.1-0.1-0.1c0-0.1,0.1-0.1,0.1-0.1h14.8c0.1,0,0.1,0.1,0.1,0.1L191.1,40.6z
						"/>
				</g>
				<g>
					<path class="st42" d="M188.2,42.4c-0.1,0-0.1-0.1-0.1-0.1v-8.9c0-0.1,0.1-0.1,0.1-0.1c0.1,0,0.1,0.1,0.1,0.1v8.9
						C188.3,42.3,188.3,42.4,188.2,42.4z"/>
				</g>
				<g>
					<path class="st42" d="M185.2,42.4c-0.1,0-0.1-0.1-0.1-0.1v-8.9c0-0.1,0.1-0.1,0.1-0.1c0.1,0,0.1,0.1,0.1,0.1v8.9
						C185.3,42.3,185.3,42.4,185.2,42.4z"/>
				</g>
				<g>
					<path class="st42" d="M182.2,42.4c-0.1,0-0.1-0.1-0.1-0.1v-8.9c0-0.1,0.1-0.1,0.1-0.1c0.1,0,0.1,0.1,0.1,0.1v8.9
						C182.3,42.3,182.2,42.4,182.2,42.4z"/>
				</g>
				<g>
					<path class="st42" d="M179.3,42.4c-0.1,0-0.1-0.1-0.1-0.1v-8.9c0-0.1,0.1-0.1,0.1-0.1c0.1,0,0.1,0.1,0.1,0.1v8.9
						C179.4,42.3,179.3,42.4,179.3,42.4z"/>
				</g>
			</g>
		</g>
	</g>
	<g>
		<circle class="st43" cx="210.5" cy="22.8" r="1.4"/>
		<rect x="205.7" y="19.7" class="st44" width="9.5" height="5.8"/>
		<path class="st44" d="M213.6,19.7c0,0.9,0.7,1.6,1.6,1.6"/>
		<path class="st44" d="M213.6,25.5c0-0.9,0.7-1.6,1.6-1.6"/>
		<path class="st44" d="M205.7,21.4c0.9,0,1.6-0.7,1.6-1.6"/>
		<path class="st44" d="M205.7,23.9c0.9,0,1.6,0.7,1.6,1.6"/>
	</g>
	<g>
		<rect x="214.3" y="18.4" class="st1" width="5" height="5.9"/>
		<path class="st45" d="M214.3,21.3c0,0.3,0.1,0.5,0.3,0.7c0.4,0.4,1.2,0.7,2.1,0.7s1.7-0.3,2.1-0.7c0.2-0.2,0.3-0.5,0.3-0.7"/>
		<path class="st45" d="M214.3,19.8c0,0.3,0.1,0.5,0.3,0.7c0.4,0.4,1.2,0.7,2.1,0.7s1.7-0.3,2.1-0.7c0.2-0.2,0.3-0.5,0.3-0.7"/>
		<path class="st45" d="M219.2,22.7c0,0.3-0.1,0.5-0.3,0.7"/>
		<path class="st45" d="M214.7,23.5c-0.2-0.2-0.3-0.5-0.3-0.7"/>
		<path class="st45" d="M214.3,18.3c0,0.3,0.1,0.5,0.3,0.7c0.4,0.4,1.2,0.7,2.1,0.7s1.7-0.3,2.1-0.7c0.2-0.2,0.3-0.5,0.3-0.7"/>
		<ellipse class="st46" cx="216.8" cy="16.8" rx="2.5" ry="1.5"/>
		<path class="st45" d="M214.3,24.2c0,0.8,1.1,1.5,2.5,1.5s2.5-0.7,2.5-1.5"/>
		<path class="st45" d="M214.7,23.5c0.4,0.4,1.2,0.7,2.1,0.7s1.7-0.3,2.1-0.7"/>
		<polyline class="st45" points="219.2,24.2 219.2,22.7 219.2,21.3 219.2,19.8 219.2,18.3 219.2,16.8 		"/>
		<polyline class="st45" points="214.3,24.2 214.3,22.7 214.3,21.3 214.3,19.8 214.3,18.3 214.3,16.8 		"/>
		<g>
			<path class="st45" d="M220.2,24.2c0,0.3,0.1,0.5,0.3,0.7c0.4,0.4,1.2,0.7,2.1,0.7c0.9,0,1.7-0.3,2.1-0.7c0.2-0.2,0.3-0.5,0.3-0.7
				"/>
			<path class="st45" d="M220.2,22.7c0,0.3,0.1,0.5,0.3,0.7c0.4,0.4,1.2,0.7,2.1,0.7c0.9,0,1.7-0.3,2.1-0.7c0.2-0.2,0.3-0.5,0.3-0.7
				"/>
			<path class="st45" d="M220.2,21.3c0,0.3,0.1,0.5,0.3,0.7c0.4,0.4,1.2,0.7,2.1,0.7c0.9,0,1.7-0.3,2.1-0.7c0.2-0.2,0.3-0.5,0.3-0.7
				"/>
			<ellipse class="st46" cx="222.7" cy="19.8" rx="2.5" ry="1.5"/>
			<polyline class="st45" points="225.1,19.8 225.1,21.3 225.1,22.7 225.1,24.2 			"/>
			<polyline class="st45" points="220.2,19.8 220.2,21.3 220.2,22.7 220.2,24.2 			"/>
		</g>
	</g>
</g>
</svg>
