<?xml version="1.0" encoding="utf-8"?>
<!-- Generator: Adobe Illustrator 17.0.0, SVG Export Plug-In . SVG Version: 6.00 Build 0)  -->
<!DOCTYPE svg PUBLIC "-//W3C//DTD SVG 1.1//EN" "http://www.w3.org/Graphics/SVG/1.1/DTD/svg11.dtd">
<svg version="1.1" id="Layer_1" xmlns="http://www.w3.org/2000/svg" xmlns:xlink="http://www.w3.org/1999/xlink" x="0px" y="0px"
	 width="595.279px" height="841.891px" viewBox="0 0 595.279 841.891" enable-background="new 0 0 595.279 841.891"
	 xml:space="preserve">
<rect id="XMLID_1117_" x="151.709" y="224.007" fill="#FFFFFF" stroke="#171C28" stroke-width="10" stroke-linecap="round" stroke-linejoin="round" stroke-miterlimit="10" width="269.736" height="348.797"/>
<line id="XMLID_1114_" fill="none" stroke="#171C28" stroke-width="10" stroke-linecap="round" stroke-linejoin="round" stroke-miterlimit="10" x1="252.994" y1="553.953" x2="301.361" y2="553.953"/>
<line id="XMLID_1113_" fill="none" stroke="#171C28" stroke-width="10" stroke-linecap="round" stroke-linejoin="round" stroke-miterlimit="10" x1="272.527" y1="244.221" x2="291.129" y2="244.221"/>
<path id="XMLID_1112_" fill="#FFFFFF" stroke="#171C28" stroke-width="10" stroke-linecap="round" stroke-linejoin="round" stroke-miterlimit="10" d="
	M102.314,591.158V452.569l32.555-43.716h50.227c0,0,10.231,10.231-3.721,26.974c0,0-27.903,3.721-31.624,21.393
	c-2.79,17.673,19.532,22.323,24.184,35.345c4.65,13.022,13.021,63.249-11.162,100.454L102.314,591.158z"/>
<polyline id="XMLID_1111_" fill="#0D3178" stroke="#171C28" stroke-width="10" stroke-linecap="round" stroke-linejoin="round" stroke-miterlimit="10" points="
	93.013,661.848 93.013,592.088 226.021,592.088 226.021,661.848 "/>
<g id="XMLID_916_">
	
		<path id="XMLID_1110_" fill="#FFFFFF" stroke="#171C28" stroke-width="10" stroke-linecap="round" stroke-linejoin="round" stroke-miterlimit="10" d="
		M502.268,519.538v-40.925c-19.533-18.603-39.065,0.93-39.065,0.93l6.511,20.463l-114.405-4.65
		c-19.533-28.834-37.205-1.86-37.205-1.86v79.99l57.668,53.018v33.484l106.034-0.93v-32.555c0-7.441,19.532-38.136,19.532-38.136
		v-38.135"/>
	
		<path id="XMLID_1109_" fill="#FFFFFF" stroke="#171C28" stroke-width="10" stroke-linecap="round" stroke-linejoin="round" stroke-miterlimit="10" d="
		M482.735,660.917v-32.554c0-7.441,19.533-38.136,19.533-38.136v-38.135"/>
	
		<path id="XMLID_1108_" fill="#FFFFFF" stroke="#171C28" stroke-width="10" stroke-linecap="round" stroke-linejoin="round" stroke-miterlimit="10" d="
		M502.268,519.538v-40.925c-19.533-18.603-39.065,0.93-39.065,0.93l6.511,20.463l-114.405-4.65
		c-19.533-28.834-37.205-1.86-37.205-1.86v79.99l57.668,53.018v33.484"/>
	<polygon id="XMLID_1107_" fill="#FFFFFF" points="367.4,481.403 388.792,460.011 408.324,455.359 427.858,463.73 441.809,459.08 
		458.552,462.801 456.692,472.102 486.455,502.796 448.321,526.049 377.631,526.049 363.679,516.748 	"/>
	
		<path id="XMLID_1106_" fill="#FFFFFF" stroke="#171C28" stroke-width="10" stroke-linecap="round" stroke-linejoin="round" stroke-miterlimit="10" d="
		M357.168,554.883V378.159c0,0-4.651-17.672,13.951-17.672c19.533,0,14.883,15.812,14.883,15.812v101.384"/>
	
		<path id="XMLID_1105_" fill="#FFFFFF" stroke="#171C28" stroke-width="10" stroke-linecap="round" stroke-linejoin="round" stroke-miterlimit="10" d="
		M388.792,459.08c0,0,16.742-16.742,36.274,1.86v16.742"/>
	
		<path id="XMLID_918_" fill="#FFFFFF" stroke="#171C28" stroke-width="10" stroke-linecap="round" stroke-linejoin="round" stroke-miterlimit="10" d="
		M431.578,468.382c0,0,12.091-19.533,31.624-0.931v20.463"/>
</g>
<g>
	<g id="XMLID_578_">
		<g id="XMLID_579_">
			<path fill="#00984A" d="M261.101,432.737c-1.224,0-2.441,0-3.669-1.217l-25.095-25.106c-2.449-2.441-2.449-6.114,0-8.552
				c2.441-2.441,6.114-2.445,8.552,0l25.099,25.099c2.449,2.449,2.449,6.114,0,8.559
				C264.767,431.52,263.539,432.737,261.101,432.737z"/>
		</g>
	</g>
	<g id="XMLID_558_">
		<g id="XMLID_577_">
			<path fill="#00984A" d="M262.322,432.737c-1.224,0-2.449,0-3.673-1.217c-2.445-2.449-2.445-6.114,0-8.559l83.131-83.127
				c2.445-2.449,6.114-2.449,8.556,0c2.445,2.449,2.445,6.114,0,8.556l-83.131,83.131
				C264.767,432.737,263.539,432.737,262.322,432.737z"/>
		</g>
	</g>
</g>
</svg>
