<?xml version="1.0" encoding="utf-8"?>
<!-- Generator: Adobe Illustrator 17.0.0, SVG Export Plug-In . SVG Version: 6.00 Build 0)  -->
<!DOCTYPE svg PUBLIC "-//W3C//DTD SVG 1.1//EN" "http://www.w3.org/Graphics/SVG/1.1/DTD/svg11.dtd">
<svg version="1.1" id="Layer_1" xmlns="http://www.w3.org/2000/svg" xmlns:xlink="http://www.w3.org/1999/xlink" x="0px" y="0px"
	 width="842.35px" height="595.3px" viewBox="0 0 842.35 595.3" enable-background="new 0 0 842.35 595.3" xml:space="preserve">
<g>
	<polygon fill="#FFFFFF" points="279.91,393.136 257.587,393.136 262.456,383.504 279.017,379.647 	"/>
	<path fill="#FFFFFF" d="M306.782,412.293l-13.311,3.369c-6.12,0-11.894-8.263-11.894-14.394l-1.417-22.55h26.622V412.293z"/>
	<rect x="497.742" y="300.484" fill="#FFFFFF" width="96.343" height="137.24"/>
	<path fill="#FFFFFF" d="M536.83,169.327h-38.861v-19.288h27.241c6.417,0,11.632,5.203,11.632,11.632v7.656L536.83,169.327
		L536.83,169.327z"/>
	<polygon fill="#FFFFFF" points="556.701,184.043 359.049,184.757 359.049,171.685 563.833,171.685 	"/>
	<g>
		<g>
			<g>
				<polygon fill="#FFFFFF" points="474.657,442.427 352.739,442.427 352.739,427.175 474.657,427.175 484.705,435.498 				"/>
				<path fill="#FFFFFF" d="M511.292,416.246H308.687V165.029c0-6.143,4.977-11.12,11.12-11.12h191.484l26.55,10.763v8.525
					l-26.55-0.833L511.292,416.246L511.292,416.246z"/>
				<g>
					<path fill="#FFD15D" d="M476.315,209.059c0-7.91,6.414-14.324,14.324-14.324s14.324,6.414,14.324,14.324
						s-6.414,14.324-14.324,14.324C482.729,223.383,476.315,216.969,476.315,209.059"/>
					<path fill="#475059" d="M493.02,214.568h-4.428c-1.619,0-2.843-1.156-2.843-2.687c0-0.605,0.497-1.102,1.102-1.102
						c0.612,0,1.102,0.497,1.102,1.102c0,0.463,0.537,0.483,0.639,0.483h4.428c0.497,0,0.905-0.408,0.905-0.905v-0.395
						c0-0.497-0.408-0.905-0.905-0.905h-4.605c-1.823,0-3.306-1.483-3.306-3.306s1.483-3.306,3.306-3.306h4.931
						c1.476,0,2.51,0.925,2.51,2.245c0,0.612-0.49,1.102-1.102,1.102c-0.605,0-1.102-0.49-1.102-1.102l0,0
						c0,0-0.109-0.041-0.306-0.041h-4.931c-0.605,0-1.102,0.497-1.102,1.102s0.497,1.102,1.102,1.102h4.605
						c1.714,0,3.108,1.394,3.108,3.108v0.394C496.128,213.174,494.734,214.568,493.02,214.568"/>
					<path fill="#475059" d="M490.619,217.874c-0.612,0-1.102-0.49-1.102-1.102v-15.426c0-0.612,0.49-1.102,1.102-1.102
						s1.102,0.49,1.102,1.102v15.426C491.721,217.384,491.231,217.874,490.619,217.874"/>
				</g>
				<g>
					<path fill="#FFD15D" d="M437.772,209.059c0-7.91,6.414-14.324,14.324-14.324s14.324,6.414,14.324,14.324
						s-6.414,14.324-14.324,14.324C444.186,223.383,437.772,216.969,437.772,209.059"/>
					<path fill="#475059" d="M454.477,214.568h-4.428c-1.619,0-2.843-1.156-2.843-2.687c0-0.605,0.497-1.102,1.102-1.102
						c0.612,0,1.102,0.497,1.102,1.102c0,0.463,0.537,0.483,0.639,0.483h4.428c0.497,0,0.905-0.408,0.905-0.905v-0.395
						c0-0.497-0.408-0.905-0.905-0.905h-4.605c-1.823,0-3.306-1.483-3.306-3.306s1.483-3.306,3.306-3.306h4.931
						c1.476,0,2.51,0.925,2.51,2.245c0,0.612-0.49,1.102-1.102,1.102c-0.605,0-1.102-0.49-1.102-1.102l0,0
						c0,0-0.109-0.041-0.306-0.041h-4.931c-0.605,0-1.102,0.497-1.102,1.102s0.497,1.102,1.102,1.102h4.605
						c1.714,0,3.108,1.394,3.108,3.108v0.394C457.585,213.174,456.191,214.568,454.477,214.568"/>
					<path fill="#475059" d="M452.076,217.874c-0.612,0-1.102-0.49-1.102-1.102v-15.426c0-0.612,0.49-1.102,1.102-1.102
						s1.102,0.49,1.102,1.102v15.426C453.178,217.384,452.688,217.874,452.076,217.874"/>
				</g>
				<g>
					<path fill="#FFD15D" d="M399.495,209.059c0-7.91,6.414-14.324,14.324-14.324s14.324,6.414,14.324,14.324
						s-6.414,14.324-14.324,14.324C405.909,223.383,399.495,216.969,399.495,209.059"/>
					<path fill="#475059" d="M416.2,214.568h-4.428c-1.619,0-2.843-1.156-2.843-2.687c0-0.605,0.497-1.102,1.102-1.102
						c0.612,0,1.102,0.497,1.102,1.102c0,0.463,0.537,0.483,0.639,0.483h4.428c0.497,0,0.905-0.408,0.905-0.905v-0.395
						c0-0.497-0.408-0.905-0.905-0.905h-4.605c-1.823,0-3.306-1.483-3.306-3.306s1.483-3.306,3.306-3.306h4.931
						c1.476,0,2.51,0.925,2.51,2.245c0,0.612-0.49,1.102-1.102,1.102c-0.605,0-1.102-0.49-1.102-1.102l0,0
						c0,0-0.109-0.041-0.306-0.041h-4.931c-0.605,0-1.102,0.497-1.102,1.102s0.497,1.102,1.102,1.102h4.605
						c1.714,0,3.108,1.394,3.108,3.108v0.394C419.308,213.174,417.914,214.568,416.2,214.568"/>
					<path fill="#475059" d="M413.799,217.874c-0.612,0-1.102-0.49-1.102-1.102v-15.426c0-0.612,0.49-1.102,1.102-1.102
						s1.102,0.49,1.102,1.102v15.426C414.901,217.384,414.411,217.874,413.799,217.874"/>
				</g>
				<path fill="#41464B" stroke="#41464B" stroke-width="0.2104" stroke-miterlimit="10" d="M539.378,173.185h-3.858v-7.703
					c0-6.382-5.191-11.573-11.573-11.573v-3.858c8.513,0,15.43,6.929,15.43,15.43L539.378,173.185L539.378,173.185z"/>
				
					<rect x="349.132" y="184.757" fill="#41464B" stroke="#41464B" stroke-width="0.2104" stroke-miterlimit="10" width="201.819" height="3.858"/>
				
					<rect x="322.117" y="150.039" fill="#41464B" stroke="#41464B" stroke-width="0.2104" stroke-miterlimit="10" width="201.819" height="3.858"/>
				<path fill="#FFFFFF" d="M531.663,165.482v1.917H356.847v5.786c0,4.25-3.465,7.715-7.715,7.715s-7.715-3.465-7.715-7.715v-7.703
					c0-2.738-0.572-5.358-1.607-7.715h184.138C528.198,157.766,531.663,161.219,531.663,165.482"/>
				<path fill="#41464B" stroke="#41464B" stroke-width="0.2104" stroke-miterlimit="10" d="M294.995,418.174v-3.858
					c6.501,0,11.799-5.191,11.799-11.573v-19.276l-0.095-217.987c0-8.513,6.929-15.43,15.43-15.43c8.513,0,15.43,6.929,15.43,15.43
					v7.703c0,6.382,5.191,11.573,11.573,11.573s11.573-5.191,11.573-11.573v-1.929h205.688v1.929c0,8.513-6.929,15.43-15.43,15.43
					h-35.694l-0.119,106.082h-3.858l0.119-109.94h39.54c5.727,0,10.489-4.179,11.418-9.644H364.443
					c-0.952,7.596-7.453,13.501-15.311,13.501c-8.513,0-15.43-6.929-15.43-15.43v-7.703c0-6.382-5.191-11.573-11.573-11.573
					s-11.573,5.191-11.573,11.573v5.774l0.095,231.488C310.64,411.245,303.627,418.174,294.995,418.174"/>
				
					<rect x="295.591" y="414.317" fill="#41464B" stroke="#41464B" stroke-width="0.2104" stroke-miterlimit="10" width="198.294" height="3.858"/>
				<path fill="#41464B" stroke="#41464B" stroke-width="0.2104" stroke-miterlimit="10" d="M297.007,418.21
					c-8.513,0-15.43-6.929-15.43-15.43v-6.941c0-6.81-5.548-12.358-12.358-12.358v-3.858c8.941,0,16.216,7.275,16.216,16.216v6.941
					c0,6.382,5.191,11.573,11.573,11.573v3.857H297.007z"/>
				<path fill="#41464B" stroke="#41464B" stroke-width="0.2104" stroke-miterlimit="10" d="M282.899,396.994h-28.324v-1.929
					c0-8.513,6.929-15.43,15.43-15.43h37.623c1.072,0,1.929,0.857,1.929,1.929s-0.857,1.929-1.929,1.929h-37.623
					c-5.727,0-10.489,4.179-11.418,9.644h24.312c1.072,0,1.929,0.857,1.929,1.929C284.827,396.137,283.958,396.994,282.899,396.994"
					/>
				<path fill="#41464B" stroke="#41464B" stroke-width="0.2104" stroke-miterlimit="10" d="M469.978,445.201H358.847
					c-5.322,0-9.644-4.322-9.644-9.644s4.322-9.644,9.644-9.644h111.131l20.919,9.644L469.978,445.201z M358.847,429.771
					c-3.191,0-5.786,2.595-5.786,5.786s2.596,5.786,5.786,5.786h110.285l12.549-5.786l-12.549-5.786H358.847z"/>
				
					<rect x="369.67" y="428.616" fill="#41464B" stroke="#41464B" stroke-width="0.2104" stroke-miterlimit="10" width="3.858" height="14.656"/>
				<rect x="371.598" y="433.569" fill="#41464B" width="96.474" height="3.858"/>
				<path fill="#D71920" d="M287.399,387.35c1.203,2.584,1.881,5.453,1.881,8.489v6.929c0,3.869,2.869,7.084,6.596,7.632
					c3.893-0.452,7.036-3.774,7.036-7.667v-15.394h-15.514L287.399,387.35L287.399,387.35z"/>
				<path fill="#5FE0ED" d="M497.742,445.261h100.296V344.964H497.742V445.261z M520.888,437.546h-15.43v-15.43h15.43V437.546z
					 M520.888,414.4h-15.43v-15.43h15.43V414.4z M520.888,391.255h-15.43v-15.43h15.43V391.255z M520.888,368.11h-15.43v-15.43
					h15.43V368.11z M544.033,437.546h-15.43v-15.43h15.43V437.546z M544.033,414.4h-15.43v-15.43h15.43V414.4z M544.033,391.255
					h-15.43v-15.43h15.43V391.255z M544.033,368.11h-15.43v-15.43h15.43V368.11z M567.178,437.546h-15.43v-15.43h15.43V437.546z
					 M567.178,414.4h-15.43v-15.43h15.43V414.4z M567.178,391.255h-15.43v-15.43h15.43V391.255z M567.178,368.11h-15.43v-15.43
					h15.43V368.11z M590.324,414.4v23.145h-15.43V414.4v-15.43h15.43V414.4z M590.324,391.255h-15.43v-15.43h15.43V391.255z
					 M590.324,368.11h-15.43v-15.43h15.43V368.11z"/>
				<path fill="#475059" d="M522.817,370.039h-19.288v-19.288h19.288V370.039z M507.386,366.181h11.573v-11.573h-11.573V366.181z"/>
				<path fill="#475059" d="M522.817,393.184h-19.288v-19.288h19.288V393.184z M507.386,389.326h11.573v-11.573h-11.573V389.326z"/>
				<path fill="#475059" d="M522.817,416.329h-19.288v-19.288h19.288V416.329z M507.386,412.471h11.573v-11.573h-11.573V412.471z"/>
				<path fill="#475059" d="M522.817,439.474h-19.288v-19.288h19.288V439.474z M507.386,435.617h11.573v-11.573h-11.573V435.617z"/>
				<path fill="#475059" d="M545.962,370.039h-19.288v-19.288h19.288V370.039z M530.532,366.181h11.573v-11.573h-11.573V366.181z"/>
				<path fill="#475059" d="M545.962,393.184h-19.288v-19.288h19.288V393.184z M530.532,389.326h11.573v-11.573h-11.573V389.326z"/>
				<path fill="#475059" d="M545.962,416.329h-19.288v-19.288h19.288V416.329z M530.532,412.471h11.573v-11.573h-11.573V412.471z"/>
				<path fill="#475059" d="M545.962,439.474h-19.288v-19.288h19.288V439.474z M530.532,435.617h11.573v-11.573h-11.573V435.617z"/>
				<path fill="#475059" d="M569.107,370.039h-19.288v-19.288h19.288V370.039z M553.677,366.181h11.573v-11.573h-11.573V366.181z"/>
				<path fill="#475059" d="M569.107,393.184h-19.288v-19.288h19.288V393.184z M553.677,389.326h11.573v-11.573h-11.573V389.326z"/>
				<path fill="#475059" d="M569.107,416.329h-19.288v-19.288h19.288V416.329z M553.677,412.471h11.573v-11.573h-11.573V412.471z"/>
				<path fill="#475059" d="M569.107,439.474h-19.288v-19.288h19.288V439.474z M553.677,435.617h11.573v-11.573h-11.573V435.617z"/>
				<path fill="#475059" d="M592.252,370.039h-19.288v-19.288h19.288V370.039z M576.822,366.181h11.573v-11.573h-11.573V366.181z"/>
				<path fill="#475059" d="M592.252,393.184h-19.288v-19.288h19.288V393.184z M576.822,389.326h11.573v-11.573h-11.573V389.326z"/>
				<path fill="#475059" d="M592.252,439.474h-19.288v-42.433h19.288V439.474z M576.822,435.617h11.573v-34.718h-11.573V435.617z"/>
				<rect x="497.742" y="343.036" fill="#475059" width="100.296" height="3.858"/>
				<rect x="505.458" y="308.318" fill="#9ECFEF" width="84.866" height="30.86"/>
				<path fill="#475059" d="M578.751,325.677h-3.858v-3.858h3.858V325.677z M571.036,325.677h-3.858v-3.858h3.858V325.677z
					 M563.321,325.677h-3.858v-3.858h3.858V325.677z M555.594,325.677h-3.858v-3.858h3.858V325.677z M547.879,325.677h-3.858v-3.858
					h3.858V325.677z M540.164,325.677h-3.858v-3.858h3.858V325.677z M532.448,325.677h-3.858v-3.858h3.858V325.677z
					 M524.733,325.677h-3.858v-3.858h3.858V325.677z M517.018,325.677h-3.846v-3.858h3.846V325.677z"/>
				<polygon fill="#41464B" stroke="#41464B" stroke-width="0.2104" stroke-miterlimit="10" points="598.039,344.869 
					594.181,344.869 594.181,304.353 501.6,304.353 501.6,344.869 497.742,344.869 497.742,300.484 598.039,300.484 				"/>
				
					<rect x="337.619" y="344.893" fill="#41464B" stroke="#41464B" stroke-width="0.2086" stroke-linecap="round" stroke-linejoin="round" stroke-miterlimit="10" width="15.228" height="3.858"/>
				
					<rect x="358.847" y="344.893" fill="#41464B" stroke="#41464B" stroke-width="0.2086" stroke-linecap="round" stroke-linejoin="round" stroke-miterlimit="10" width="15.228" height="3.858"/>
				
					<rect x="381.23" y="344.893" fill="#41464B" stroke="#41464B" stroke-width="0.2086" stroke-linecap="round" stroke-linejoin="round" stroke-miterlimit="10" width="15.228" height="3.858"/>
				
					<rect x="403.209" y="344.893" fill="#41464B" stroke="#41464B" stroke-width="0.2086" stroke-linecap="round" stroke-linejoin="round" stroke-miterlimit="10" width="15.228" height="3.858"/>
				
					<rect x="426.426" y="344.893" fill="#41464B" stroke="#41464B" stroke-width="0.2086" stroke-linecap="round" stroke-linejoin="round" stroke-miterlimit="10" width="15.228" height="3.858"/>
				
					<rect x="449.511" y="344.893" fill="#41464B" stroke="#41464B" stroke-width="0.2086" stroke-linecap="round" stroke-linejoin="round" stroke-miterlimit="10" width="15.228" height="3.858"/>
				
					<rect x="472.668" y="344.893" fill="#41464B" stroke="#41464B" stroke-width="0.2086" stroke-linecap="round" stroke-linejoin="round" stroke-miterlimit="10" width="15.228" height="3.858"/>
				
					<rect x="340.25" y="360.323" fill="#41464B" stroke="#41464B" stroke-width="0.21" stroke-linecap="round" stroke-linejoin="round" stroke-miterlimit="10" width="69.448" height="3.858"/>
				
					<rect x="340.25" y="369.967" fill="#41464B" stroke="#41464B" stroke-width="0.21" stroke-linecap="round" stroke-linejoin="round" stroke-miterlimit="10" width="69.448" height="3.858"/>
				
					<rect x="339.547" y="379.647" fill="#41464B" stroke="#41464B" stroke-width="0.21" stroke-linecap="round" stroke-linejoin="round" stroke-miterlimit="10" width="69.448" height="3.858"/>
				
					<rect x="340.25" y="389.255" fill="#41464B" stroke="#41464B" stroke-width="0.21" stroke-linecap="round" stroke-linejoin="round" stroke-miterlimit="10" width="69.448" height="3.858"/>
				
					<rect x="416.722" y="360.323" fill="#41464B" stroke="#41464B" stroke-width="0.21" stroke-linecap="round" stroke-linejoin="round" stroke-miterlimit="10" width="69.448" height="3.858"/>
				
					<rect x="416.722" y="369.967" fill="#41464B" stroke="#41464B" stroke-width="0.21" stroke-linecap="round" stroke-linejoin="round" stroke-miterlimit="10" width="69.448" height="3.858"/>
				
					<rect x="416.722" y="379.647" fill="#41464B" stroke="#41464B" stroke-width="0.21" stroke-linecap="round" stroke-linejoin="round" stroke-miterlimit="10" width="69.448" height="3.858"/>
				
					<rect x="416.722" y="389.255" fill="#41464B" stroke="#41464B" stroke-width="0.21" stroke-linecap="round" stroke-linejoin="round" stroke-miterlimit="10" width="69.448" height="3.858"/>
				<g>
					<g>
						<path fill="#0D3178" d="M368.062,243.157c0,32.092-26.023,58.114-58.114,58.114s-58.092-26.023-58.092-58.114
							s26.023-58.092,58.092-58.092C342.04,185.065,368.062,211.065,368.062,243.157z"/>
						<path fill="#9ECFEF" d="M309.948,304.183c-33.637,0-61.003-27.366-61.003-61.003s27.366-61.003,61.003-61.003
							s61.003,27.366,61.003,61.003C370.974,276.816,343.607,304.183,309.948,304.183z M309.948,187.976
							c-30.435,0-55.203,24.769-55.203,55.203s24.769,55.203,55.203,55.203s55.203-24.769,55.203-55.203
							C365.151,212.722,340.382,187.976,309.948,187.976z"/>
					</g>
					<g>
						<path fill="#FFFFFF" d="M346.832,216.709h-11.309l-3.538,13.28h-52.516v0.022c-0.134,0-0.291,0-0.448,0.045
							c-0.694,0.246-1.053,1.008-0.806,1.702l9.607,27.434h39.124l10.615-39.818h9.271c0.739,0,1.321-0.582,1.321-1.321
							C348.153,217.291,347.571,216.709,346.832,216.709z M330.036,237.267h-5.711l0.739-4.636h6.226L330.036,237.267z
							 M328.267,243.918h-4.994l0.829-5.308h5.576L328.267,243.918z M326.498,250.547h-4.277l0.829-5.308h4.86L326.498,250.547z
							 M307.686,256.527l-1.165-4.658h7.211l0.694,4.658H307.686z M298.415,256.527l-1.165-4.658h7.928l1.165,4.658H298.415z
							 M291.069,232.631l1.165,4.636h-9.271l-1.612-4.636H291.069z M300.363,232.631l1.165,4.636H293.6l-1.165-4.636H300.363z
							 M304.528,243.918l-1.321-5.308h8.555l0.784,5.308H304.528z M312.747,245.24l0.806,5.308h-7.345l-1.321-5.308H312.747z
							 M303.162,243.918h-7.928l-1.344-5.308h7.928L303.162,243.918z M313.083,238.588h9.675l-0.829,5.308h-8.04L313.083,238.588z
							 M312.882,237.267l-0.694-4.636h11.533l-0.739,4.636H312.882z M311.538,237.267h-8.667l-1.165-4.636h9.137L311.538,237.267z
							 M292.547,238.588l1.321,5.308h-8.6l-1.859-5.308H292.547z M285.762,245.24h8.465l1.321,5.308h-7.928L285.762,245.24z
							 M295.593,245.24h7.928l1.321,5.308h-7.928L295.593,245.24z M315.076,251.869h5.599l-0.717,4.546c0,0.045,0,0.067,0,0.112
							h-4.188L315.076,251.869z M314.875,250.547l-0.806-5.308h7.637l-0.829,5.308H314.875z M288.068,251.869h7.793l1.165,4.658
							h-7.323L288.068,251.869z M321.28,256.527l0.739-4.658h4.121l-1.232,4.658H321.28z"/>
						<path fill="#FFFFFF" d="M319.958,260.513c-2.844,0-5.218,1.993-5.823,4.636h-13.594c-0.605-2.665-2.979-4.636-5.823-4.636
							c-3.292,0-5.979,2.665-5.979,5.979c0,3.292,2.687,5.979,5.979,5.979s5.979-2.665,5.979-5.979h13.28
							c0,3.292,2.665,5.979,5.979,5.979c3.292,0,5.979-2.665,5.979-5.979C325.915,263.178,323.25,260.513,319.958,260.513z
							 M294.719,269.784c-1.836,0-3.314-1.478-3.314-3.314s1.5-3.314,3.314-3.314c1.836,0,3.314,1.478,3.314,3.314
							C298.056,268.306,296.556,269.784,294.719,269.784z M319.958,269.784c-1.836,0-3.314-1.478-3.314-3.314
							s1.478-3.314,3.314-3.314s3.314,1.478,3.314,3.314S321.772,269.784,319.958,269.784z"/>
					</g>
				</g>
				<polyline fill="#FFFFFF" stroke="#00984A" stroke-width="5" stroke-miterlimit="10" points="338.175,336.15 353.504,303.65 
					375.145,335.65 394.081,280.15 413.017,335.65 446.594,249.15 478.842,334.65 				"/>
			</g>
		</g>
	</g>
</g>
<g>
	<g>
		<path id="SVGID_279_" fill="#FFFFFF" d="M179.34,498.492v-6.929h6.929c2.596,0,4.691-2.107,4.691-4.691
			c0-2.595-2.107-4.691-4.691-4.691h-6.929v-6.929c0-2.595-2.107-4.691-4.691-4.691c-2.596,0-4.691,2.107-4.691,4.691v6.929h-6.941
			c-2.596,0-4.691,2.107-4.691,4.691c0,2.595,2.107,4.691,4.691,4.691h6.929v6.929c0,2.595,2.107,4.691,4.691,4.691
			C177.245,503.183,179.34,501.076,179.34,498.492"/>
	</g>
	<g>
		<g>
			<defs>
				<path id="SVGID_1_" d="M179.34,498.492v-6.929h6.929c2.596,0,4.691-2.107,4.691-4.691c0-2.595-2.107-4.691-4.691-4.691h-6.929
					v-6.929c0-2.595-2.107-4.691-4.691-4.691c-2.596,0-4.691,2.107-4.691,4.691v6.929h-6.941c-2.596,0-4.691,2.107-4.691,4.691
					c0,2.595,2.107,4.691,4.691,4.691h6.929v6.929c0,2.595,2.107,4.691,4.691,4.691C177.245,503.183,179.34,501.076,179.34,498.492"
					/>
			</defs>
			<clipPath id="SVGID_2_">
				<use xlink:href="#SVGID_1_"  overflow="visible"/>
			</clipPath>
			<g clip-path="url(#SVGID_2_)">
				<g>
					<rect id="SVGID_281_" x="158.326" y="107.868" fill="#FFFFFF" width="533.127" height="420.699"/>
				</g>
				<g>
					<g>
						<defs>
							<rect id="SVGID_3_" x="158.326" y="107.868" width="533.127" height="420.699"/>
						</defs>
						<clipPath id="SVGID_4_">
							<use xlink:href="#SVGID_3_"  overflow="visible"/>
						</clipPath>
						<g clip-path="url(#SVGID_4_)">
							<rect x="140.193" y="452.404" fill="#FFFFFF" width="68.912" height="68.912"/>
						</g>
					</g>
				</g>
				<g>
					<defs>
						<path id="SVGID_5_" d="M179.34,498.492v-6.929h6.929c2.596,0,4.691-2.107,4.691-4.691c0-2.595-2.107-4.691-4.691-4.691h-6.929
							v-6.929c0-2.595-2.107-4.691-4.691-4.691c-2.596,0-4.691,2.107-4.691,4.691v6.929h-6.941c-2.596,0-4.691,2.107-4.691,4.691
							c0,2.595,2.107,4.691,4.691,4.691h6.929v6.929c0,2.595,2.107,4.691,4.691,4.691
							C177.245,503.183,179.34,501.076,179.34,498.492"/>
					</defs>
					<clipPath id="SVGID_6_">
						<use xlink:href="#SVGID_5_"  overflow="visible"/>
					</clipPath>
					<g clip-path="url(#SVGID_6_)">
						<g>
							<path id="SVGID_283_" fill="#FFFFFF" d="M157.529,142.896h16.109c2.56,0,4.643-2.441,4.643-5.441s-2.072-5.441-4.643-5.441
								h-16.109c-2.56,0-4.643,2.441-4.643,5.441C152.885,140.467,154.969,142.896,157.529,142.896"/>
						</g>
						<g>
							<g>
								<defs>
									<path id="SVGID_7_" d="M157.529,142.896h16.109c2.56,0,4.643-2.441,4.643-5.441s-2.072-5.441-4.643-5.441h-16.109
										c-2.56,0-4.643,2.441-4.643,5.441C152.885,140.467,154.969,142.896,157.529,142.896"/>
								</defs>
								<clipPath id="SVGID_8_">
									<use xlink:href="#SVGID_7_"  overflow="visible"/>
								</clipPath>
								<g clip-path="url(#SVGID_8_)">
									<g>
										<rect id="SVGID_285_" x="149.254" y="-5.798" fill="#FFFFFF" width="533.127" height="420.699"/>
									</g>
									<g>
										<g>
											<defs>
												<rect id="SVGID_9_" x="149.254" y="-5.798" width="533.127" height="420.699"/>
											</defs>
											<clipPath id="SVGID_10_">
												<use xlink:href="#SVGID_9_"  overflow="visible"/>
											</clipPath>
											<g clip-path="url(#SVGID_10_)">
												<rect x="134.752" y="113.881" fill="#FFFFFF" width="61.649" height="47.148"/>
											</g>
										</g>
									</g>
									<g>
										<defs>
											<path id="SVGID_11_" d="M157.529,142.896h16.109c2.56,0,4.643-2.441,4.643-5.441s-2.072-5.441-4.643-5.441h-16.109
												c-2.56,0-4.643,2.441-4.643,5.441C152.885,140.467,154.969,142.896,157.529,142.896"/>
										</defs>
										<clipPath id="SVGID_12_">
											<use xlink:href="#SVGID_11_"  overflow="visible"/>
										</clipPath>
										<g clip-path="url(#SVGID_12_)">
											<g>
												<path id="SVGID_287_" fill="#FFFFFF" d="M198.759,128.394c2.703,0,4.893-2.441,4.893-5.441s-2.191-5.441-4.893-5.441
													h-19.216c-2.703,0-4.893,2.441-4.893,5.441s2.191,5.441,4.893,5.441H198.759z"/>
											</g>
											<g>
												<g>
													<defs>
														<path id="SVGID_13_" d="M198.759,128.394c2.703,0,4.893-2.441,4.893-5.441s-2.191-5.441-4.893-5.441h-19.216
															c-2.703,0-4.893,2.441-4.893,5.441s2.191,5.441,4.893,5.441H198.759z"/>
													</defs>
													<clipPath id="SVGID_14_">
														<use xlink:href="#SVGID_13_"  overflow="visible"/>
													</clipPath>
													<g clip-path="url(#SVGID_14_)">
														<g>
															<rect id="SVGID_289_" x="149.254" y="-5.798" fill="#FFFFFF" width="533.127" height="420.699"/>
														</g>
														<g>
															<g>
																<defs>
																	<rect id="SVGID_15_" x="149.254" y="-5.798" width="533.127" height="420.699"/>
																</defs>
																<clipPath id="SVGID_16_">
																	<use xlink:href="#SVGID_15_"  overflow="visible"/>
																</clipPath>
																<g clip-path="url(#SVGID_16_)">
																	<rect x="156.517" y="99.379" fill="#FFFFFF" width="65.281" height="47.148"/>
																</g>
															</g>
														</g>
														<g>
															<defs>
																<path id="SVGID_17_" d="M198.759,128.394c2.703,0,4.893-2.441,4.893-5.441s-2.191-5.441-4.893-5.441h-19.216
																	c-2.703,0-4.893,2.441-4.893,5.441s2.191,5.441,4.893,5.441H198.759z"/>
															</defs>
															<clipPath id="SVGID_18_">
																<use xlink:href="#SVGID_17_"  overflow="visible"/>
															</clipPath>
															<g clip-path="url(#SVGID_18_)">
																<g>
																	<path id="SVGID_291_" fill="#FFFFFF" d="M429.485,101.761h8.941v8.941c0,2.536,2.06,4.596,4.596,4.596
																		s4.596-2.06,4.596-4.596v-8.941h8.941c2.536,0,4.596-2.06,4.596-4.596s-2.06-4.596-4.596-4.596h-8.941v-8.941
																		c0-2.536-2.06-4.596-4.596-4.596s-4.596,2.06-4.596,4.596v8.941h-8.941c-2.536,0-4.596,2.06-4.596,4.596
																		C424.89,99.713,426.949,101.761,429.485,101.761"/>
																</g>
																<g>
																	<g>
																		<defs>
																			<path id="SVGID_19_" d="M429.485,101.761h8.941v8.941c0,2.536,2.06,4.596,4.596,4.596s4.596-2.06,4.596-4.596
																				v-8.941h8.941c2.536,0,4.596-2.06,4.596-4.596s-2.06-4.596-4.596-4.596h-8.941v-8.941
																				c0-2.536-2.06-4.596-4.596-4.596s-4.596,2.06-4.596,4.596v8.941h-8.941c-2.536,0-4.596,2.06-4.596,4.596
																				C424.89,99.713,426.949,101.761,429.485,101.761"/>
																		</defs>
																		<clipPath id="SVGID_20_">
																			<use xlink:href="#SVGID_19_"  overflow="visible"/>
																		</clipPath>
																		<g clip-path="url(#SVGID_20_)">
																			<g>
																				<rect id="SVGID_293_" x="149.254" y="79.032" fill="#FFFFFF" width="533.127" height="420.699"/>
																			</g>
																			<g>
																				<g>
																					<defs>
																						<rect id="SVGID_21_" x="149.254" y="79.032" width="533.127" height="420.699"/>
																					</defs>
																					<clipPath id="SVGID_22_">
																						<use xlink:href="#SVGID_21_"  overflow="visible"/>
																					</clipPath>
																					<rect x="406.757" y="60.899" clip-path="url(#SVGID_22_)" fill="#FFFFFF" width="72.531" height="72.531"/>
																				</g>
																			</g>
																			<g>
																				<defs>
																					<path id="SVGID_23_" d="M429.485,101.761h8.941v8.941c0,2.536,2.06,4.596,4.596,4.596s4.596-2.06,4.596-4.596
																						v-8.941h8.941c2.536,0,4.596-2.06,4.596-4.596s-2.06-4.596-4.596-4.596h-8.941v-8.941
																						c0-2.536-2.06-4.596-4.596-4.596s-4.596,2.06-4.596,4.596v8.941h-8.941c-2.536,0-4.596,2.06-4.596,4.596
																						C424.89,99.713,426.949,101.761,429.485,101.761"/>
																				</defs>
																				<clipPath id="SVGID_24_">
																					<use xlink:href="#SVGID_23_"  overflow="visible"/>
																				</clipPath>
																				<g clip-path="url(#SVGID_24_)">
																					<g>
																						<path id="SVGID_295_" fill="#FFFFFF" d="M657.938,221.964h5.37v5.37c0,2.524,2.048,4.572,4.572,4.572
																							c2.524,0,4.572-2.048,4.572-4.572v-5.37h5.37c2.524,0,4.572-2.048,4.572-4.56c0-2.524-2.048-4.56-4.572-4.56
																							h-5.37v-5.37c0-2.524-2.048-4.56-4.572-4.56s-4.572,2.048-4.572,4.56v5.37h-5.37
																							c-2.524,0-4.572,2.048-4.572,4.56C653.378,219.916,655.426,221.964,657.938,221.964"/>
																					</g>
																					<g>
																						<g>
																							<defs>
																								<path id="SVGID_25_" d="M657.938,221.964h5.37v5.37c0,2.524,2.048,4.572,4.572,4.572
																									c2.524,0,4.572-2.048,4.572-4.572v-5.37h5.37c2.524,0,4.572-2.048,4.572-4.56
																									c0-2.524-2.048-4.56-4.572-4.56h-5.37v-5.37c0-2.524-2.048-4.56-4.572-4.56s-4.572,2.048-4.572,4.56v5.37
																									h-5.37c-2.524,0-4.572,2.048-4.572,4.56C653.378,219.916,655.426,221.964,657.938,221.964"/>
																							</defs>
																							<clipPath id="SVGID_26_">
																								<use xlink:href="#SVGID_25_"  overflow="visible"/>
																							</clipPath>
																							<g clip-path="url(#SVGID_26_)">
																								<g>
																									<rect id="SVGID_297_" x="149.254" y="43.314" fill="#FFFFFF" width="533.127" height="420.699"/>
																								</g>
																								<g>
																									<g>
																										<defs>
																											<rect id="SVGID_27_" x="149.254" y="43.314" width="533.127" height="420.699"/>
																										</defs>
																										<clipPath id="SVGID_28_">
																											<use xlink:href="#SVGID_27_"  overflow="visible"/>
																										</clipPath>
																										<g clip-path="url(#SVGID_28_)">
																											<rect x="635.245" y="184.757" fill="#FFFFFF" width="65.281" height="65.281"/>
																										</g>
																									</g>
																								</g>
																								<g>
																									<defs>
																										<path id="SVGID_29_" d="M657.938,221.964h5.37v5.37c0,2.524,2.048,4.572,4.572,4.572
																											c2.524,0,4.572-2.048,4.572-4.572v-5.37h5.37c2.524,0,4.572-2.048,4.572-4.56
																											c0-2.524-2.048-4.56-4.572-4.56h-5.37v-5.37c0-2.524-2.048-4.56-4.572-4.56s-4.572,2.048-4.572,4.56v5.37
																											h-5.37c-2.524,0-4.572,2.048-4.572,4.56C653.378,219.916,655.426,221.964,657.938,221.964"/>
																									</defs>
																									<clipPath id="SVGID_30_">
																										<use xlink:href="#SVGID_29_"  overflow="visible"/>
																									</clipPath>
																									<g clip-path="url(#SVGID_30_)">
																										<g>
																											<path id="SVGID_299_" fill="#FFFFFF" d="M697.644,501.636c0-3-2.179-5.441-4.858-5.441h-33.813
																												c-2.679,0-4.858,2.441-4.858,5.441s2.179,5.441,4.858,5.441h33.813
																												C695.477,507.077,697.644,504.648,697.644,501.636"/>
																										</g>
																										<g>
																											<g>
																												<defs>
																													<path id="SVGID_31_" d="M697.644,501.636c0-3-2.179-5.441-4.858-5.441h-33.813
																														c-2.679,0-4.858,2.441-4.858,5.441s2.179,5.441,4.858,5.441h33.813
																														C695.477,507.077,697.644,504.648,697.644,501.636"/>
																												</defs>
																												<clipPath id="SVGID_32_">
																													<use xlink:href="#SVGID_31_"  overflow="visible"/>
																												</clipPath>
																											</g>
																										</g>
																									</g>
																								</g>
																							</g>
																						</g>
																					</g>
																				</g>
																			</g>
																		</g>
																	</g>
																</g>
															</g>
														</g>
													</g>
												</g>
											</g>
										</g>
									</g>
								</g>
							</g>
						</g>
					</g>
				</g>
			</g>
		</g>
	</g>
</g>
<path fill="none" d="M697.644,501.636c0-3-2.179-5.441-4.858-5.441h-33.813c-2.679,0-4.858,2.441-4.858,5.441
	s2.179,5.441,4.858,5.441h33.813C695.477,507.077,697.644,504.648,697.644,501.636"/>
</svg>
