<?xml version="1.0" encoding="utf-8"?>
<!-- Generator: Adobe Illustrator 22.0.1, SVG Export Plug-In . SVG Version: 6.00 Build 0)  -->
<svg version="1.1" id="Layer_1" xmlns="http://www.w3.org/2000/svg" xmlns:xlink="http://www.w3.org/1999/xlink" x="0px" y="0px"
	 viewBox="0 0 50 50" style="enable-background:new 0 0 50 50;" xml:space="preserve">
<style type="text/css">
	.st0{fill:#FFFFFF;}
	.st1{fill:#414042;}
	.st2{fill:#9ECFEF;}
	.st3{fill:#FFCE44;}
	.st4{fill:#FFE167;}
	.st5{fill:#F5CC73;}
	.st6{clip-path:url(#SVGID_2_);}
	.st7{clip-path:url(#SVGID_4_);}
	.st8{clip-path:url(#SVGID_6_);}
	.st9{clip-path:url(#SVGID_8_);}
	.st10{clip-path:url(#SVGID_10_);}
	.st11{clip-path:url(#SVGID_12_);}
	.st12{clip-path:url(#SVGID_14_);}
	.st13{clip-path:url(#SVGID_16_);}
	.st14{clip-path:url(#SVGID_18_);}
	.st15{clip-path:url(#SVGID_20_);}
	.st16{clip-path:url(#SVGID_22_);}
	.st17{clip-path:url(#SVGID_24_);}
	.st18{clip-path:url(#SVGID_26_);}
	.st19{clip-path:url(#SVGID_28_);}
	.st20{clip-path:url(#SVGID_30_);}
	.st21{clip-path:url(#SVGID_34_);}
	.st22{clip-path:url(#SVGID_36_);fill:#9ECFEF;}
	.st23{clip-path:url(#SVGID_38_);}
	.st24{clip-path:url(#SVGID_40_);}
	.st25{clip-path:url(#SVGID_42_);}
	.st26{clip-path:url(#SVGID_44_);}
	.st27{clip-path:url(#SVGID_46_);fill:#414042;}
	.st28{clip-path:url(#SVGID_38_);fill-rule:evenodd;clip-rule:evenodd;fill:#414042;}
	.st29{clip-path:url(#SVGID_48_);}
	.st30{clip-path:url(#SVGID_52_);}
	.st31{clip-path:url(#SVGID_56_);}
	.st32{clip-path:url(#SVGID_58_);fill:#F77C4B;}
	.st33{clip-path:url(#SVGID_60_);}
	.st34{clip-path:url(#SVGID_62_);fill:#FFFFFF;}
	.st35{clip-path:url(#SVGID_64_);}
	.st36{clip-path:url(#SVGID_66_);fill:#414042;}
	.st37{clip-path:url(#SVGID_68_);}
	.st38{clip-path:url(#SVGID_70_);fill:#414042;}
	.st39{clip-path:url(#SVGID_72_);}
	.st40{clip-path:url(#SVGID_74_);fill:#414042;}
	.st41{clip-path:url(#SVGID_76_);}
	.st42{clip-path:url(#SVGID_78_);fill:#F77C4B;}
	.st43{clip-path:url(#SVGID_80_);}
	.st44{clip-path:url(#SVGID_82_);fill:#FFFFFF;}
	.st45{clip-path:url(#SVGID_84_);}
	.st46{clip-path:url(#SVGID_86_);fill:#FFFFFF;}
	.st47{clip-path:url(#SVGID_88_);}
	.st48{clip-path:url(#SVGID_90_);fill:#414042;}
	.st49{clip-path:url(#SVGID_92_);}
	.st50{clip-path:url(#SVGID_94_);fill:#414042;}
	.st51{clip-path:url(#SVGID_96_);}
	.st52{clip-path:url(#SVGID_98_);fill:#414042;}
	.st53{clip-path:url(#SVGID_100_);}
	.st54{clip-path:url(#SVGID_102_);fill:#414042;}
	.st55{clip-path:url(#SVGID_104_);}
	.st56{clip-path:url(#SVGID_106_);fill:#414042;}
	.st57{fill:#41464B;}
	.st58{fill:#4CBED8;}
	.st59{fill:#FF7443;}
	.st60{fill:none;stroke:#359CDB;stroke-width:0.393;stroke-linecap:round;stroke-linejoin:round;stroke-miterlimit:10;}
	.st61{fill:#AFAFAF;}
	.st62{fill:#FED65C;}
	.st63{clip-path:url(#SVGID_108_);}
	.st64{fill:#4CBDD8;}
	.st65{fill:#F9D264;}
	.st66{fill:#F9BB7D;}
	.st67{fill:#41464B;stroke:#414042;stroke-width:0.4;stroke-linecap:round;stroke-linejoin:round;stroke-miterlimit:10;}
	.st68{clip-path:url(#SVGID_110_);}
	.st69{clip-path:url(#SVGID_112_);}
	.st70{clip-path:url(#SVGID_114_);}
	.st71{clip-path:url(#SVGID_116_);}
	.st72{clip-path:url(#SVGID_118_);}
	.st73{clip-path:url(#SVGID_120_);}
	.st74{clip-path:url(#SVGID_122_);}
	.st75{clip-path:url(#SVGID_124_);fill:#414042;}
	.st76{clip-path:url(#SVGID_126_);}
	.st77{clip-path:url(#SVGID_128_);}
	.st78{clip-path:url(#SVGID_130_);}
	.st79{clip-path:url(#SVGID_132_);}
	.st80{clip-path:url(#SVGID_134_);}
	.st81{clip-path:url(#SVGID_136_);}
	.st82{clip-path:url(#SVGID_138_);}
	.st83{clip-path:url(#SVGID_140_);}
	.st84{clip-path:url(#SVGID_142_);}
	.st85{clip-path:url(#SVGID_144_);}
	.st86{clip-path:url(#SVGID_146_);}
	.st87{clip-path:url(#SVGID_148_);}
	.st88{clip-path:url(#SVGID_150_);}
	.st89{clip-path:url(#SVGID_152_);fill:#FFFFFF;}
	.st90{clip-path:url(#SVGID_154_);}
	.st91{clip-path:url(#SVGID_156_);}
	.st92{clip-path:url(#SVGID_158_);}
	.st93{clip-path:url(#SVGID_160_);}
	.st94{clip-path:url(#SVGID_162_);}
	.st95{clip-path:url(#SVGID_164_);}
	.st96{clip-path:url(#SVGID_166_);}
	.st97{clip-path:url(#SVGID_168_);}
	.st98{clip-path:url(#SVGID_170_);}
	.st99{clip-path:url(#SVGID_172_);}
	.st100{clip-path:url(#SVGID_174_);}
	.st101{clip-path:url(#SVGID_176_);}
	.st102{clip-path:url(#SVGID_178_);}
	.st103{clip-path:url(#SVGID_180_);fill:#414042;}
	.st104{clip-path:url(#SVGID_182_);}
	.st105{clip-path:url(#SVGID_184_);}
	.st106{clip-path:url(#SVGID_186_);}
	.st107{clip-path:url(#SVGID_188_);}
	.st108{clip-path:url(#SVGID_190_);}
	.st109{clip-path:url(#SVGID_192_);}
	.st110{fill:#41464B;stroke:#41464B;stroke-width:0.2;stroke-miterlimit:10;}
	.st111{clip-path:url(#SVGID_194_);}
	.st112{clip-path:url(#SVGID_196_);}
	.st113{clip-path:url(#SVGID_198_);}
	.st114{clip-path:url(#SVGID_200_);}
	.st115{clip-path:url(#SVGID_202_);}
	.st116{clip-path:url(#SVGID_204_);}
	.st117{clip-path:url(#SVGID_206_);}
	.st118{clip-path:url(#SVGID_208_);fill:#414042;}
	.st119{clip-path:url(#SVGID_210_);}
	.st120{clip-path:url(#SVGID_212_);}
	.st121{clip-path:url(#SVGID_214_);}
	.st122{clip-path:url(#SVGID_216_);}
	.st123{clip-path:url(#SVGID_218_);}
	.st124{clip-path:url(#SVGID_220_);}
	.st125{fill:#FFD15D;}
	.st126{fill:#475059;}
	.st127{fill:#41464B;stroke:#41464B;stroke-width:0.223;stroke-linecap:round;stroke-linejoin:round;stroke-miterlimit:10;}
	.st128{fill:#41464B;stroke:#41464B;stroke-width:0.223;stroke-miterlimit:10;}
	.st129{fill:#41464B;stroke:#41464B;stroke-width:0.212;stroke-miterlimit:10;}
	.st130{fill:#5FE0ED;}
	.st131{fill:#48515A;}
	.st132{fill:#41464B;stroke:#41464B;stroke-width:0.2104;stroke-miterlimit:10;}
	.st133{fill:#41464B;stroke:#41464B;stroke-width:0.21;stroke-linecap:round;stroke-linejoin:round;stroke-miterlimit:10;}
	.st134{fill:#41464B;stroke:#41464B;stroke-width:0.2086;stroke-linecap:round;stroke-linejoin:round;stroke-miterlimit:10;}
	.st135{fill:#FDBE11;}
	.st136{fill:#41464B;stroke:#41464B;stroke-width:0.2513;stroke-miterlimit:10;}
	.st137{clip-path:url(#SVGID_222_);}
	.st138{clip-path:url(#SVGID_224_);}
	.st139{clip-path:url(#SVGID_226_);}
	.st140{clip-path:url(#SVGID_228_);}
	.st141{clip-path:url(#SVGID_230_);}
	.st142{clip-path:url(#SVGID_232_);}
	.st143{clip-path:url(#SVGID_234_);}
	.st144{clip-path:url(#SVGID_236_);fill:#414042;}
	.st145{clip-path:url(#SVGID_238_);}
	.st146{clip-path:url(#SVGID_240_);}
	.st147{clip-path:url(#SVGID_242_);}
	.st148{clip-path:url(#SVGID_244_);}
	.st149{clip-path:url(#SVGID_246_);}
	.st150{clip-path:url(#SVGID_248_);}
	.st151{clip-path:url(#SVGID_250_);}
	.st152{clip-path:url(#SVGID_252_);}
	.st153{clip-path:url(#SVGID_254_);}
	.st154{clip-path:url(#SVGID_256_);}
	.st155{clip-path:url(#SVGID_258_);}
	.st156{clip-path:url(#SVGID_260_);}
	.st157{clip-path:url(#SVGID_262_);}
	.st158{clip-path:url(#SVGID_264_);fill:#414042;}
	.st159{clip-path:url(#SVGID_266_);}
	.st160{clip-path:url(#SVGID_268_);}
	.st161{clip-path:url(#SVGID_270_);}
	.st162{clip-path:url(#SVGID_272_);}
	.st163{clip-path:url(#SVGID_274_);}
	.st164{clip-path:url(#SVGID_276_);}
	.st165{fill:#DEDEDD;}
	.st166{fill:#41464B;stroke:#41464B;stroke-width:0.2327;stroke-miterlimit:10;}
	.st167{fill:#41464B;stroke:#41464B;stroke-width:0.2327;stroke-linecap:round;stroke-linejoin:round;stroke-miterlimit:10;}
	.st168{fill:#F58E70;}
	.st169{clip-path:url(#SVGID_278_);}
	.st170{fill:#41464B;stroke:#41464B;stroke-width:0.2316;stroke-miterlimit:10;}
	.st171{fill:#FFB936;}
	.st172{fill:#E6E7E8;}
	.st173{clip-path:url(#SVGID_280_);}
	.st174{clip-path:url(#SVGID_282_);}
	.st175{clip-path:url(#SVGID_284_);}
	.st176{clip-path:url(#SVGID_286_);}
	.st177{clip-path:url(#SVGID_288_);}
	.st178{clip-path:url(#SVGID_290_);}
	.st179{clip-path:url(#SVGID_292_);}
	.st180{clip-path:url(#SVGID_294_);fill:#FFFFFF;}
	.st181{clip-path:url(#SVGID_296_);}
	.st182{clip-path:url(#SVGID_298_);}
	.st183{clip-path:url(#SVGID_300_);}
	.st184{clip-path:url(#SVGID_302_);}
	.st185{clip-path:url(#SVGID_304_);}
	.st186{clip-path:url(#SVGID_306_);}
	.st187{clip-path:url(#SVGID_308_);}
	.st188{clip-path:url(#SVGID_310_);}
	.st189{clip-path:url(#SVGID_312_);}
	.st190{clip-path:url(#SVGID_314_);}
	.st191{clip-path:url(#SVGID_316_);}
	.st192{clip-path:url(#SVGID_318_);}
	.st193{clip-path:url(#SVGID_320_);}
	.st194{clip-path:url(#SVGID_322_);fill:#FFFFFF;}
	.st195{clip-path:url(#SVGID_324_);}
	.st196{clip-path:url(#SVGID_326_);}
	.st197{clip-path:url(#SVGID_328_);}
	.st198{clip-path:url(#SVGID_330_);}
	.st199{clip-path:url(#SVGID_332_);}
	.st200{clip-path:url(#SVGID_334_);}
</style>
<g>
	<defs>
		<path id="SVGID_221_" d="M4.688,41.869v-0.582H5.27c0.218,0,0.394-0.177,0.394-0.394c0-0.218-0.177-0.394-0.394-0.394H4.688
			v-0.582c0-0.218-0.177-0.394-0.394-0.394c-0.218,0-0.394,0.177-0.394,0.394v0.582H3.317c-0.218,0-0.394,0.177-0.394,0.394
			c0,0.218,0.177,0.394,0.394,0.394h0.582v0.582c0,0.218,0.177,0.394,0.394,0.394C4.512,42.263,4.688,42.086,4.688,41.869"/>
	</defs>
	<clipPath id="SVGID_2_">
		<use xlink:href="#SVGID_221_"  style="overflow:visible;"/>
	</clipPath>
	<g class="st6">
		<defs>
			<rect id="SVGID_223_" x="2.923" y="9.06" width="44.778" height="35.335"/>
		</defs>
		<clipPath id="SVGID_4_">
			<use xlink:href="#SVGID_223_"  style="overflow:visible;"/>
		</clipPath>
		<g class="st7">
			<rect x="1.4" y="37.998" class="st1" width="5.788" height="5.788"/>
		</g>
	</g>
</g>
<g>
	<defs>
		<path id="SVGID_225_" d="M2.856,12.002h1.353c0.215,0,0.39-0.205,0.39-0.457c0-0.252-0.174-0.457-0.39-0.457H2.856
			c-0.215,0-0.39,0.205-0.39,0.457C2.466,11.798,2.641,12.002,2.856,12.002"/>
	</defs>
	<clipPath id="SVGID_6_">
		<use xlink:href="#SVGID_225_"  style="overflow:visible;"/>
	</clipPath>
	<g class="st8">
		<defs>
			<rect id="SVGID_227_" x="2.161" y="-0.487" width="44.778" height="35.335"/>
		</defs>
		<clipPath id="SVGID_8_">
			<use xlink:href="#SVGID_227_"  style="overflow:visible;"/>
		</clipPath>
		<g class="st9">
			<rect x="0.943" y="9.565" class="st1" width="5.178" height="3.96"/>
		</g>
	</g>
</g>
<g>
	<defs>
		<path id="SVGID_229_" d="M6.319,10.784c0.227,0,0.411-0.205,0.411-0.457c0-0.252-0.184-0.457-0.411-0.457H4.705
			c-0.227,0-0.411,0.205-0.411,0.457c0,0.252,0.184,0.457,0.411,0.457H6.319z"/>
	</defs>
	<clipPath id="SVGID_10_">
		<use xlink:href="#SVGID_229_"  style="overflow:visible;"/>
	</clipPath>
	<g class="st10">
		<defs>
			<rect id="SVGID_231_" x="2.161" y="-0.487" width="44.778" height="35.335"/>
		</defs>
		<clipPath id="SVGID_12_">
			<use xlink:href="#SVGID_231_"  style="overflow:visible;"/>
		</clipPath>
		<g class="st11">
			<rect x="2.771" y="8.347" class="st1" width="5.483" height="3.96"/>
		</g>
	</g>
</g>
<g>
	<defs>
		<path id="SVGID_233_" d="M25.698,8.547h0.751v0.751c0,0.213,0.173,0.386,0.386,0.386c0.213,0,0.386-0.173,0.386-0.386V8.547h0.751
			c0.213,0,0.386-0.173,0.386-0.386c0-0.213-0.173-0.386-0.386-0.386h-0.751V7.024c0-0.213-0.173-0.386-0.386-0.386
			c-0.213,0-0.386,0.173-0.386,0.386v0.751h-0.751c-0.213,0-0.386,0.173-0.386,0.386C25.312,8.375,25.485,8.547,25.698,8.547"/>
	</defs>
	<clipPath id="SVGID_14_">
		<use xlink:href="#SVGID_233_"  style="overflow:visible;"/>
	</clipPath>
	<g class="st12">
		<defs>
			<rect id="SVGID_235_" x="2.161" y="6.638" width="44.778" height="35.335"/>
		</defs>
		<clipPath id="SVGID_16_">
			<use xlink:href="#SVGID_235_"  style="overflow:visible;"/>
		</clipPath>
		<rect x="23.789" y="5.115" style="clip-path:url(#SVGID_16_);fill:#414042;" width="6.092" height="6.092"/>
	</g>
</g>
<g>
	<defs>
		<path id="SVGID_237_" d="M44.886,18.643h0.451v0.451c0,0.212,0.172,0.384,0.384,0.384c0.212,0,0.384-0.172,0.384-0.384v-0.451
			h0.451c0.212,0,0.384-0.172,0.384-0.383c0-0.212-0.172-0.383-0.384-0.383h-0.451v-0.451c0-0.212-0.172-0.383-0.384-0.383
			c-0.212,0-0.384,0.172-0.384,0.383v0.451h-0.451c-0.212,0-0.384,0.172-0.384,0.383C44.503,18.471,44.675,18.643,44.886,18.643"/>
	</defs>
	<clipPath id="SVGID_18_">
		<use xlink:href="#SVGID_237_"  style="overflow:visible;"/>
	</clipPath>
	<g class="st14">
		<defs>
			<rect id="SVGID_239_" x="2.161" y="3.638" width="44.778" height="35.335"/>
		</defs>
		<clipPath id="SVGID_20_">
			<use xlink:href="#SVGID_239_"  style="overflow:visible;"/>
		</clipPath>
		<g class="st15">
			<rect x="42.98" y="15.518" class="st1" width="5.483" height="5.483"/>
		</g>
	</g>
</g>
<g>
	<defs>
		<path id="SVGID_241_" d="M48.221,42.133c0-0.252-0.183-0.457-0.408-0.457h-2.84c-0.225,0-0.408,0.205-0.408,0.457
			s0.183,0.457,0.408,0.457h2.84C48.039,42.59,48.221,42.386,48.221,42.133"/>
	</defs>
	<clipPath id="SVGID_22_">
		<use xlink:href="#SVGID_241_"  style="overflow:visible;"/>
	</clipPath>
	<g class="st16">
		<defs>
			<rect id="SVGID_243_" x="3.443" y="10.911" width="44.778" height="35.335"/>
		</defs>
		<clipPath id="SVGID_24_">
			<use xlink:href="#SVGID_243_"  style="overflow:visible;"/>
		</clipPath>
		<g class="st17">
			<rect x="43.043" y="40.153" class="st1" width="6.702" height="3.96"/>
		</g>
	</g>
</g>
<g>
	<defs>
		<path id="SVGID_245_" d="M34.532,10.598h1.665c0.213,0,0.386-0.205,0.386-0.457c0-0.252-0.173-0.457-0.386-0.457h-1.665
			c-0.213,0-0.386,0.205-0.386,0.457C34.146,10.394,34.319,10.598,34.532,10.598"/>
	</defs>
	<clipPath id="SVGID_26_">
		<use xlink:href="#SVGID_245_"  style="overflow:visible;"/>
	</clipPath>
	<g class="st18">
		<defs>
			<rect id="SVGID_247_" x="2.161" y="6.638" width="44.778" height="35.335"/>
		</defs>
		<clipPath id="SVGID_28_">
			<use xlink:href="#SVGID_247_"  style="overflow:visible;"/>
		</clipPath>
		<g class="st19">
			<rect x="32.623" y="8.161" class="st1" width="5.483" height="3.96"/>
		</g>
	</g>
</g>
<g>
	<g>
		<g>
			<rect x="10.01" y="16.451" class="st0" width="27.415" height="18.277"/>
			<g>
				<path class="st58" d="M38.489,16.63c0-0.571-0.463-1.033-1.033-1.033H9.737c-0.57,0-1.033,0.462-1.033,1.033v19.125h29.785
					V16.63z M37.113,34.487H10.248V16.769h26.865V34.487z"/>
				<path class="st170" d="M38.711,35.891H8.482V16.543c0-0.692,0.563-1.255,1.255-1.255h27.719c0.692,0,1.256,0.563,1.256,1.256
					V35.891z M8.927,35.446h29.34V16.543c0-0.447-0.364-0.811-0.811-0.811H9.737c-0.447,0-0.811,0.364-0.811,0.811V35.446z
					 M37.336,34.622h-27.31V16.459h27.31V34.622z M10.47,34.178h26.421V16.904H10.47V34.178z"/>
			</g>
			<g>
				<polygon class="st0" points="27.597,39.508 20.239,39.508 21.417,35.755 26.418,35.755 				"/>
				<path class="st170" d="M27.9,39.731h-7.964l1.318-4.197h5.327L27.9,39.731z M20.541,39.286h6.753l-1.039-3.308H21.58
					L20.541,39.286z"/>
			</g>
			<g>
				<rect x="18.939" y="39.508" class="st0" width="9.958" height="1.252"/>
				<path class="st170" d="M29.119,40.983H18.716v-1.697h10.403V40.983z M19.161,40.538h9.514v-0.808h-9.514V40.538z"/>
			</g>
		</g>
	</g>
	<g id="XMLID_139_">
		<g id="XMLID_193_">
			<path class="st0" d="M31.896,34.144H15.297c-0.355,0-0.644-0.288-0.644-0.644V12.242c0-0.355,0.288-0.644,0.644-0.644h16.599
				c0.355,0,0.644,0.288,0.644,0.644V33.5C32.54,33.855,32.252,34.144,31.896,34.144z"/>
		</g>
		<g id="XMLID_183_">
			<rect x="14.653" y="11.599" class="st171" width="17.886" height="4.055"/>
		</g>
		<g id="XMLID_178_">
			<g id="XMLID_179_">
				<path id="XMLID_74_" class="st172" d="M17.791,32.627h-0.161v-0.963h0.161V32.627z M17.791,30.701h-0.161v-0.963h0.161V30.701z
					 M17.791,28.774h-0.161v-0.963h0.161V28.774z M17.791,26.848h-0.161v-0.963h0.161V26.848z M17.791,24.921h-0.161v-0.963h0.161
					V24.921z M17.791,22.995h-0.161v-0.963h0.161V22.995z M17.791,21.068h-0.161v-0.963h0.161V21.068z M17.791,19.142h-0.161v-0.963
					h0.161V19.142z"/>
			</g>
		</g>
		<g id="XMLID_177_">
			<path id="XMLID_73_" class="st172" d="M18.303,30.143c0,0.327-0.265,0.592-0.592,0.592c-0.327,0-0.592-0.265-0.592-0.592
				c0-0.327,0.265-0.592,0.592-0.592C18.038,29.551,18.303,29.816,18.303,30.143z"/>
		</g>
		<g id="XMLID_174_">
			<path id="XMLID_786_" class="st170" d="M14.912,34.188h-0.516V12.242c0-0.497,0.405-0.902,0.902-0.902h16.599
				c0.497,0,0.902,0.405,0.902,0.902v21.901h-0.516V12.242c0-0.212-0.173-0.385-0.386-0.385H15.297
				c-0.213,0-0.386,0.173-0.386,0.385V34.188z"/>
		</g>
		<g id="XMLID_155_">
			<rect id="XMLID_785_" x="14.653" y="15.396" class="st1" width="17.886" height="0.516"/>
		</g>
		<g id="XMLID_151_">
			<path id="XMLID_75_" class="st172" d="M18.303,24.4c0,0.327-0.265,0.592-0.592,0.592c-0.327,0-0.592-0.265-0.592-0.592
				c0-0.327,0.265-0.592,0.592-0.592C18.038,23.808,18.303,24.073,18.303,24.4z"/>
		</g>
		<g id="XMLID_150_">
			<path id="XMLID_76_" class="st172" d="M18.303,18.657c0,0.327-0.265,0.592-0.592,0.592c-0.327,0-0.592-0.265-0.592-0.592
				c0-0.327,0.265-0.592,0.592-0.592C18.038,18.065,18.303,18.33,18.303,18.657z"/>
		</g>
		<g id="XMLID_142_">
			<rect id="XMLID_784_" x="19.451" y="18.402" class="st1" width="11.156" height="0.516"/>
		</g>
		<g id="XMLID_157_">
			<rect id="XMLID_783_" x="19.451" y="23.7" class="st1" width="11.156" height="0.516"/>
		</g>
		<g id="XMLID_161_">
			<rect id="XMLID_782_" x="19.451" y="24.735" class="st1" width="11.156" height="0.516"/>
		</g>
		<g id="XMLID_162_">
			<rect id="XMLID_781_" x="19.451" y="25.769" class="st1" width="11.156" height="0.516"/>
		</g>
		<g id="XMLID_164_">
			<rect id="XMLID_780_" x="19.461" y="29.293" class="st1" width="11.156" height="0.516"/>
		</g>
		<g id="XMLID_176_">
			<rect id="XMLID_779_" x="19.451" y="30.261" class="st1" width="11.156" height="0.516"/>
		</g>
		<g id="XMLID_181_">
			<rect id="XMLID_778_" x="19.441" y="31.229" class="st1" width="7.69" height="0.516"/>
		</g>
		<g id="XMLID_163_">
			<rect id="XMLID_777_" x="19.451" y="26.803" class="st1" width="4.146" height="0.516"/>
		</g>
		<g id="XMLID_141_">
			<rect id="XMLID_775_" x="19.451" y="19.448" class="st1" width="11.156" height="0.516"/>
		</g>
		<g id="XMLID_144_">
			<rect id="XMLID_774_" x="19.451" y="20.494" class="st1" width="11.156" height="0.516"/>
		</g>
		<g id="XMLID_148_">
			<rect id="XMLID_773_" x="19.451" y="21.541" class="st1" width="4.146" height="0.516"/>
		</g>
		<g id="XMLID_9_">
			<rect id="XMLID_10_" x="15.436" y="12.777" class="st1" width="0.538" height="0.516"/>
		</g>
		<g id="XMLID_7_">
			<rect id="XMLID_8_" x="16.78" y="12.777" class="st1" width="0.538" height="0.516"/>
		</g>
		<g id="XMLID_5_">
			<rect id="XMLID_6_" x="18.123" y="12.777" class="st1" width="0.538" height="0.516"/>
		</g>
		<g id="XMLID_4_">
			<rect x="20.673" y="13.855" class="st0" width="11.259" height="0.77"/>
		</g>
		<g id="XMLID_2_">
			
				<rect x="17.504" y="13.855" transform="matrix(-1 -1.224647e-16 1.224647e-16 -1 37.5576 28.4806)" class="st0" width="2.549" height="0.77"/>
		</g>
		<g id="XMLID_1_">
			<rect x="15.436" y="13.855" class="st0" width="1.613" height="0.77"/>
		</g>
	</g>
</g>
<g>
	<rect x="34.814" y="32.728" class="st0" width="9.598" height="5.632"/>
	<polygon class="st170" points="44.886,38.694 34.635,38.694 34.635,32.42 36.055,32.42 36.055,32.988 35.203,32.988 35.203,38.126 
		44.318,38.126 44.318,32.988 43.465,32.988 43.465,32.42 44.886,32.42 	"/>
	<rect x="36.133" y="31.689" class="st0" width="7.213" height="5.708"/>
	<path class="st170" d="M39.749,38.25l-0.635-0.692h-3.343v-6.274h3.552l0.441,0.451l0.46-0.451h3.525v6.274h-3.293L39.749,38.25z
		 M36.339,36.989h3.025l0.407,0.444l0.453-0.444h2.957v-5.137h-2.725l-0.7,0.686l-0.672-0.686h-2.745V36.989z"/>
	<line class="st170" x1="36.878" y1="32.728" x2="38.618" y2="32.728"/>
	<rect x="36.878" y="32.444" class="st170" width="1.74" height="0.568"/>
	<line class="st170" x1="36.878" y1="33.864" x2="38.618" y2="33.864"/>
	<rect x="36.878" y="33.58" class="st170" width="1.74" height="0.568"/>
	<line class="st170" x1="36.878" y1="35" x2="38.618" y2="35"/>
	<rect x="36.878" y="34.716" class="st170" width="1.74" height="0.568"/>
	<line class="st170" x1="40.855" y1="32.728" x2="42.595" y2="32.728"/>
	<rect x="40.855" y="32.444" class="st170" width="1.74" height="0.568"/>
	<line class="st170" x1="40.855" y1="33.864" x2="42.595" y2="33.864"/>
	<rect x="40.855" y="33.58" class="st170" width="1.74" height="0.568"/>
	<line class="st170" x1="40.855" y1="35" x2="42.595" y2="35"/>
	<rect x="40.855" y="34.716" class="st170" width="1.74" height="0.568"/>
	<line class="st170" x1="39.76" y1="33.065" x2="39.76" y2="35.853"/>
	<rect x="39.476" y="33.065" class="st170" width="0.568" height="2.788"/>
	<line class="st170" x1="36.878" y1="36.137" x2="38.618" y2="36.137"/>
	<rect x="36.878" y="35.853" class="st170" width="1.74" height="0.568"/>
	<line class="st170" x1="40.855" y1="36.137" x2="42.595" y2="36.137"/>
	<rect x="40.855" y="35.853" class="st170" width="1.74" height="0.568"/>
</g>
<rect x="20.214" y="40.628" class="st0" width="10.829" height="1.28"/>
<path class="st132" d="M30.06,42.142h-9.334c-0.447,0-0.81-0.363-0.81-0.81s0.363-0.81,0.81-0.81h9.334l1.757,0.81L30.06,42.142z
	 M20.726,40.846c-0.268,0-0.486,0.218-0.486,0.486c0,0.268,0.218,0.486,0.486,0.486h9.263l1.054-0.486l-1.054-0.486H20.726z"/>
<rect x="21.636" y="40.749" class="st132" width="0.324" height="1.231"/>
<rect x="21.797" y="41.165" class="st132" width="8.103" height="0.324"/>
</svg>
