<?xml version="1.0" encoding="utf-8"?>
<!-- Generator: Adobe Illustrator 17.0.0, SVG Export Plug-In . SVG Version: 6.00 Build 0)  -->
<!DOCTYPE svg PUBLIC "-//W3C//DTD SVG 1.1//EN" "http://www.w3.org/Graphics/SVG/1.1/DTD/svg11.dtd">
<svg version="1.1" id="Layer_1" xmlns="http://www.w3.org/2000/svg" xmlns:xlink="http://www.w3.org/1999/xlink" x="0px" y="0px"
	 width="842.35px" height="595.3px" viewBox="0 0 842.35 595.3" enable-background="new 0 0 842.35 595.3" xml:space="preserve">
<g>
	
		<path fill="#0D3178" stroke="#FFFFFF" stroke-width="0.1017" stroke-linecap="round" stroke-linejoin="round" stroke-miterlimit="10" d="
		M578.722,433.106v79.572c0,4.217-3.398,7.615-7.615,7.615H209.611c-4.217,0-7.615-3.398-7.615-7.615v-71.312h-14.262v85.45
		c0,4.217,3.398,7.615,7.615,7.615H585.22c4.217,0,7.615-3.398,7.615-7.615v-93.71H578.722z M592.86,232.936V68.484
		c0-4.217-3.398-7.615-7.615-7.615H195.349c-4.217,0-7.615,3.398-7.615,7.615v103.681h14.238V82.623
		c0-4.217,3.398-7.615,7.615-7.615h361.496c4.217,0,7.615,3.398,7.615,7.615v160.83L592.86,232.936z"/>
	<path fill="#00984A" d="M541.367,276.17c0,11.906-11.063,30.807-1.563,45.416l2.332,4.837l-0.769-16.272V276.17z M697.087,277.038
		l-51.097-78.604c-1.637-2.505-4.986-3.2-7.466-1.538l-86.219,57.149c-1.414,0.943-2.307,2.505-2.406,4.217l-0.446,9.674
		l91.155-60.646l46.681,71.783l-87.906,48.145l-6.102,5.06c-3.845,2.505-11.063,4.068-15.279,4.986l-36.636,18.355v-28.277
		l2.307-0.943l0.025,32.518c-0.198,4.192,5.06,6.995,8.756,4.936l142.351-79.225C697.509,283.14,698.774,279.642,697.087,277.038
		L697.087,277.038z M603.948,281.875c-10.963-16.867-33.535-21.629-50.402-10.691c-16.867,10.963-21.629,33.535-10.691,50.402
		c10.939,16.867,33.535,21.629,50.402,10.691C610.124,321.313,614.911,298.741,603.948,281.875L603.948,281.875z M589.412,326.348
		c-13.593,8.83-31.799,4.986-40.629-8.607c-8.83-13.593-4.986-31.799,8.607-40.629c13.593-8.83,31.799-4.986,40.629,8.607
		C606.875,299.312,603.005,317.518,589.412,326.348z M642.791,237.525l6.623-4.316l-11.013-16.966l-23.614,15.354l4.316,6.623
		l16.966-11.038L642.791,237.525z M666.925,260.121l-6.623,4.316L667,274.781l-16.966,11.013l4.316,6.647l23.614-15.354
		L666.925,260.121z M580.458,346.564c-20.116,0-36.437,16.321-36.437,36.437c0,20.116,16.321,36.413,36.437,36.413
		c20.116,0,36.437-16.321,36.437-36.413C616.895,362.885,600.574,346.564,580.458,346.564L580.458,346.564z M580.458,411.551
		c-15.453,0-28.277-12.824-28.277-28.55c0-15.453,12.824-28.277,28.277-28.277c15.726,0,28.55,12.824,28.55,28.277
		C609.032,398.727,596.209,411.551,580.458,411.551z M666.603,362.314h7.913v-20.24h-28.153v7.937h20.24V362.314z M674.515,394.436
		h-7.913v12.328h-20.24v7.913h28.153V394.436z"/>
	<path fill="none" stroke="#00984A" stroke-width="10" stroke-linecap="round" stroke-linejoin="round" stroke-miterlimit="10" d="
		M611.215,326.423h79.373v104.351H545.162V326.423"/>
	
		<path fill="#0D3178" stroke="#FFFFFF" stroke-width="0.1017" stroke-linecap="round" stroke-linejoin="round" stroke-miterlimit="10" d="
		M535.86,470.585c0,3.547-2.877,6.424-6.424,6.424H233.77v14.163h309.432c3.547,0,6.424-2.877,6.424-6.424V110.552
		c0-3.547-2.877-6.424-6.424-6.424H233.77v14.932h295.69c3.547,0,6.424,2.877,6.424,6.424v345.1L535.86,470.585z"/>
	<circle fill="#ABE0F9" stroke="#FFFFFF" stroke-width="0.1017" stroke-miterlimit="10" cx="390.483" cy="310.226" r="64.119"/>
	<path fill="#ABE0F9" stroke="#FFFFFF" stroke-width="0.1017" stroke-miterlimit="10" d="M483.821,310.052
		c0-51.469-41.869-93.338-93.338-93.338s-93.338,41.869-93.338,93.338s41.869,93.338,93.338,93.338S483.821,361.521,483.821,310.052
		z M311.606,310.052c0-43.482,35.371-78.877,78.877-78.877c43.482,0,78.877,35.371,78.877,78.877
		c0,43.482-35.371,78.877-78.877,78.877C347.001,388.929,311.606,353.534,311.606,310.052z"/>
	
		<path fill="#0D3178" stroke="#FFFFFF" stroke-width="0.1017" stroke-linecap="round" stroke-linejoin="round" stroke-miterlimit="10" d="
		M397.8,368.044v-22.547c14.238-2.927,25.449-14.262,28.202-28.574h22.125V302.76h-22.2c-2.902-14.114-14.039-25.226-28.128-28.153
		v-22.175h-14.932v22.274c-13.94,3.001-24.928,14.064-27.805,28.078h-22.547v14.163h22.448c2.728,14.188,13.791,25.474,27.88,28.5
		v22.621H397.8L397.8,368.044z M368.779,310.052c0-11.98,9.748-21.704,21.704-21.704c11.98,0,21.704,9.748,21.704,21.704
		c0,11.98-9.748,21.704-21.704,21.704C378.503,331.756,368.779,322.033,368.779,310.052z"/>
	
		<path fill="#0D3178" stroke="#FFFFFF" stroke-width="0.1017" stroke-linecap="round" stroke-linejoin="round" stroke-miterlimit="10" d="
		M245.949,250.944v-82.548c0-1.315-1.067-2.381-2.381-2.381h-96.687c-1.315,0-2.381,1.067-2.381,2.381v82.548
		c0,1.315,1.067,2.381,2.381,2.381h38.471c1.315,0,2.381,1.067,2.381,2.381v96.687c0,1.315-1.067,2.381-2.381,2.381h-38.471
		c-1.315,0-2.381,1.067-2.381,2.381v81.829c0,1.315,1.067,2.381,2.381,2.381h96.687c1.315,0,2.381-1.067,2.381-2.381v-81.829
		c0-1.315-1.067-2.381-2.381-2.381h-39.191c-1.315,0-2.381-1.067-2.381-2.381v-96.687c0-1.315,1.067-2.381,2.381-2.381h39.215
		C244.882,253.325,245.949,252.258,245.949,250.944L245.949,250.944z M231.091,371.418v53.354c0,1.315-1.067,2.381-2.381,2.381
		h-67.591c-1.315,0-2.381-1.067-2.381-2.381v-53.354c0-1.315,1.067-2.381,2.381-2.381h67.591
		C230.025,369.036,231.091,370.103,231.091,371.418L231.091,371.418z M158.738,236.086v-52.734c0-1.315,1.067-2.381,2.381-2.381
		h67.591c1.315,0,2.381,1.067,2.381,2.381v52.734c0,1.315-1.067,2.381-2.381,2.381h-67.591
		C159.804,238.467,158.738,237.401,158.738,236.086z"/>
</g>
</svg>
