<?xml version="1.0" encoding="utf-8"?>
<!-- Generator: Adobe Illustrator 16.0.0, SVG Export Plug-In . SVG Version: 6.00 Build 0)  -->
<!DOCTYPE svg PUBLIC "-//W3C//DTD SVG 1.1//EN" "http://www.w3.org/Graphics/SVG/1.1/DTD/svg11.dtd">
<svg version="1.1" id="Layer_1" xmlns="http://www.w3.org/2000/svg" xmlns:xlink="http://www.w3.org/1999/xlink" x="0px" y="0px"
	 width="595.279px" height="841.891px" viewBox="0 0 595.279 841.891" enable-background="new 0 0 595.279 841.891"
	 xml:space="preserve">
<path fill="#D1D1D0" d="M544.086,580.48H36.907c-10.715,0-19.049-8.334-19.049-19.049c0-10.716,8.334-19.05,19.049-19.05h507.179
	c10.715,0,19.049,8.334,19.049,19.05C563.135,570.956,554.801,580.48,544.086,580.48z"/>
<path fill="#FFFFFF" stroke="#3B3E43" stroke-width="10" stroke-linecap="round" stroke-linejoin="round" stroke-miterlimit="10" d="
	M279.781,313.794c0,0-80.958,126.2-85.72,144.058c-5.953,16.668-27.384,76.195,41.669,96.436l95.245,1.19l95.244-100.007
	l-98.816-144.058L279.781,313.794z"/>
<path fill="#FFFFFF" stroke="#3B3E43" stroke-width="10" stroke-linecap="round" stroke-linejoin="round" stroke-miterlimit="10" d="
	M279.781,313.794c0,0-80.958,121.437-85.72,139.295c-4.763,16.668-19.05,96.436,50.003,101.198h85.721 M328.594,307.842
	l98.817,141.677"/>
<path fill="#FFFFFF" stroke="#3B3E43" stroke-width="10" stroke-linecap="round" stroke-linejoin="round" stroke-miterlimit="10" d="
	M321.451,237.599c0-9.524-7.144-15.477-15.478-15.477s-15.478,7.143-15.478,15.477c0-8.334-7.143-15.477-15.477-15.477
	s-15.478,7.143-15.478,15.477l21.43,59.528h47.622l25.002-57.147c0-9.524-7.143-16.668-15.477-16.668
	C327.404,222.122,321.451,229.265,321.451,237.599"/>
<path fill="none" stroke="#3B3E43" stroke-width="10" stroke-linecap="round" stroke-linejoin="round" stroke-miterlimit="10" d="
	M289.306,267.363v65.481 M316.689,267.363v65.481"/>
<path fill="#FFFFFF" stroke="#3B3E43" stroke-width="10" stroke-linecap="round" stroke-linejoin="round" stroke-miterlimit="10" d="
	M263.114,288.793h78.577v21.43h-78.577V288.793z"/>
<path fill="#89C33D" d="M269.067,293.555h65.48v10.715h-65.48V293.555z"/>
<circle fill="#FFFFFF" stroke="#3B3E43" stroke-width="10" stroke-linecap="round" stroke-linejoin="round" stroke-miterlimit="10" cx="309.545" cy="447.138" r="70.243"/>
<circle fill="#89C33D" cx="308.355" cy="447.137" r="61.909"/>
<path fill="none" stroke="#3B3E43" stroke-width="10" stroke-linecap="round" stroke-linejoin="round" stroke-miterlimit="10" d="
	M283.354,409.039c1.19-1.19,1.19-1.19,2.381-1.19c7.144-3.571,15.478-7.144,23.811-7.144c25.002,0,45.241,20.24,45.241,45.242
	c0,25.001-21.43,44.051-45.241,44.051c-23.811,0-45.241-20.24-45.241-45.242c0-5.952,1.191-11.905,3.572-16.667"/>
<path fill="#FFFFFF" stroke="#3B3E43" stroke-width="10" stroke-linecap="round" stroke-linejoin="round" stroke-miterlimit="10" d="
	M400.028,395.943h55.957v25.002h-55.957V395.943z"/>
<path fill="#89C33D" d="M429.792,399.515h21.43v21.431h-21.43V399.515z"/>
<path fill="#FFFFFF" stroke="#3B3E43" stroke-width="10" stroke-linecap="round" stroke-linejoin="round" stroke-miterlimit="10" d="
	M400.028,420.945h55.957v25.002h-55.957V420.945z"/>
<path fill="#89C33D" d="M429.792,423.326h21.43v21.43h-21.43V423.326z"/>
<path fill="#FFFFFF" stroke="#3B3E43" stroke-width="10" stroke-linecap="round" stroke-linejoin="round" stroke-miterlimit="10" d="
	M400.028,444.756h55.957v25.002h-55.957V444.756z"/>
<path fill="#89C33D" d="M429.792,448.328h21.43v21.43h-21.43V448.328z"/>
<path fill="#FFFFFF" stroke="#3B3E43" stroke-width="10" stroke-linecap="round" stroke-linejoin="round" stroke-miterlimit="10" d="
	M400.028,470.948h55.957v25.002h-55.957V470.948z"/>
<path fill="#89C33D" d="M429.792,473.33h21.43v21.43h-21.43V473.33z"/>
<path fill="#FFFFFF" stroke="#3B3E43" stroke-width="10" stroke-linecap="round" stroke-linejoin="round" stroke-miterlimit="10" d="
	M400.028,494.76h55.957v25.002h-55.957V494.76z"/>
<path fill="#89C33D" d="M429.792,498.331h21.43v21.431h-21.43V498.331z"/>
<path fill="#FFFFFF" stroke="#3B3E43" stroke-width="10" stroke-linecap="round" stroke-linejoin="round" stroke-miterlimit="10" d="
	M400.028,519.762h55.957v25.002h-55.957V519.762z"/>
<path fill="#89C33D" d="M429.792,523.333h21.43v19.049h-21.43V523.333z"/>
<path fill="#FFFFFF" stroke="#3B3E43" stroke-width="10" stroke-linecap="round" stroke-linejoin="round" stroke-miterlimit="10" d="
	M140.487,444.756h55.956v25.002h-55.956V444.756z"/>
<path fill="#89C33D" d="M171.441,448.328h21.43v21.43h-21.43V448.328z"/>
<path fill="#FFFFFF" stroke="#3B3E43" stroke-width="10" stroke-linecap="round" stroke-linejoin="round" stroke-miterlimit="10" d="
	M140.487,470.948h55.956v25.002h-55.956V470.948z"/>
<path fill="#89C33D" d="M171.441,473.33h21.43v21.43h-21.43V473.33z"/>
<path fill="#FFFFFF" stroke="#3B3E43" stroke-width="10" stroke-linecap="round" stroke-linejoin="round" stroke-miterlimit="10" d="
	M140.487,494.76h55.956v25.002h-55.956V494.76z"/>
<path fill="#89C33D" d="M171.441,498.331h21.43v21.431h-21.43V498.331z"/>
<path fill="#FFFFFF" stroke="#3B3E43" stroke-width="10" stroke-linecap="round" stroke-linejoin="round" stroke-miterlimit="10" d="
	M140.487,519.762h55.956v25.002h-55.956V519.762z"/>
<path fill="#89C33D" d="M171.441,523.333h21.43v19.049h-21.43V523.333z"/>
<path fill="#FFFFFF" stroke="#3B3E43" stroke-width="10" stroke-linecap="round" stroke-linejoin="round" stroke-miterlimit="10" d="
	M347.644,494.76H403.6v25.002h-55.956V494.76z"/>
<path fill="#89C33D" d="M377.407,498.331h21.43v21.431h-21.43V498.331z"/>
<path fill="#FFFFFF" stroke="#3B3E43" stroke-width="10" stroke-linecap="round" stroke-linejoin="round" stroke-miterlimit="10" d="
	M347.644,519.762H403.6v25.002h-55.956V519.762z"/>
<path fill="#89C33D" d="M377.407,523.333h21.43v19.049h-21.43V523.333z"/>
<g>
	<path fill="#FFFFFF" d="M288.616,425.603h4.646v17.356h0.16c0.961-1.389,1.923-2.67,2.83-3.845l11.002-13.512h5.768l-13.03,15.273
		l14.046,20.722h-5.501l-11.856-17.678l-3.418,3.952v13.726h-4.646V425.603z"/>
	<path fill="#FFFFFF" d="M316.757,456.791c1.389,0.908,3.845,1.869,6.195,1.869c3.418,0,5.02-1.709,5.02-3.845
		c0-2.243-1.335-3.472-4.807-4.753c-4.646-1.656-6.836-4.22-6.836-7.317c0-4.165,3.365-7.583,8.919-7.583
		c2.617,0,4.913,0.747,6.355,1.602l-1.175,3.418c-1.015-0.641-2.884-1.495-5.287-1.495c-2.777,0-4.326,1.603-4.326,3.524
		c0,2.137,1.549,3.098,4.913,4.38c4.486,1.709,6.783,3.952,6.783,7.797c0,4.54-3.525,7.744-9.667,7.744
		c-2.83,0-5.447-0.694-7.263-1.763L316.757,456.791z"/>
</g>
</svg>
