<svg id="Layer_1" data-name="Layer 1" xmlns="http://www.w3.org/2000/svg" xmlns:xlink="http://www.w3.org/1999/xlink" viewBox="0 0 50 50"><defs><style>.cls-1,.cls-2{fill:none;}.cls-1{clip-rule:evenodd;}.cls-3{clip-path:url(#clip-path);}.cls-4{clip-path:url(#clip-path-2);}.cls-5{clip-path:url(#clip-path-3);}.cls-6{fill:#fff;}.cls-7{fill:#414042;}.cls-8{fill:#41464b;}.cls-9{fill:#4cbed8;}.cls-10{fill:#ff7443;}.cls-11{fill:#afafaf;}.cls-12{fill:#fed65c;}.cls-13{clip-path:url(#clip-path-4);}.cls-14{clip-path:url(#clip-path-5);}.cls-15{clip-path:url(#clip-path-6);}.cls-16{clip-path:url(#clip-path-7);}.cls-17{clip-path:url(#clip-path-8);}.cls-18{clip-path:url(#clip-path-10);}.cls-19{clip-path:url(#clip-path-11);}.cls-20{clip-path:url(#clip-path-12);}.cls-21{clip-path:url(#clip-path-13);}.cls-22{clip-path:url(#clip-path-14);}.cls-23{clip-path:url(#clip-path-15);}.cls-24{clip-path:url(#clip-path-16);}</style><clipPath id="clip-path"><path class="cls-1" d="M-55,18.21v.31a4.23,4.23,0,0,0,1.21-.31Z"/></clipPath><clipPath id="clip-path-2"><path class="cls-1" d="M-55.65,17.23h3l.31-.25V15.67a1.35,1.35,0,0,0-1.35-1.35h-2a2,2,0,0,0,.87-.21,1.89,1.89,0,0,0,1-1.65,1.87,1.87,0,0,0-1.87-1.86,1.87,1.87,0,0,0-1.87,1.86,1.85,1.85,0,0,0,1,1.66,1.83,1.83,0,0,0,.84.2h-2A1.34,1.34,0,0,0-59,15.67V17a5.07,5.07,0,0,0,3,1.21v-.6a.38.38,0,0,1,.39-.38"/></clipPath><clipPath id="clip-path-3"><rect class="cls-2" x="-59" y="14.26" width="26.91" height="27.87"/></clipPath><clipPath id="clip-path-4"><path class="cls-1" d="M4.69,41.87v-.58h.58a.39.39,0,0,0,.39-.4.38.38,0,0,0-.39-.39H4.69v-.58a.4.4,0,1,0-.79,0v.58H3.32a.39.39,0,0,0-.4.39.4.4,0,0,0,.4.4H3.9v.58a.4.4,0,0,0,.79,0"/></clipPath><clipPath id="clip-path-5"><rect class="cls-2" x="2.92" y="9.06" width="44.78" height="35.34"/></clipPath><clipPath id="clip-path-6"><path class="cls-1" d="M2.86,12H4.21a.46.46,0,0,0,0-.91H2.86a.46.46,0,0,0,0,.91"/></clipPath><clipPath id="clip-path-7"><rect class="cls-2" x="2.16" y="-0.49" width="44.78" height="35.34"/></clipPath><clipPath id="clip-path-8"><path class="cls-1" d="M6.32,10.78a.46.46,0,0,0,0-.91H4.7a.46.46,0,0,0,0,.91Z"/></clipPath><clipPath id="clip-path-10"><path class="cls-1" d="M25.7,8.55h.75V9.3a.39.39,0,0,0,.77,0V8.55H28a.39.39,0,0,0,.39-.39A.38.38,0,0,0,28,7.78h-.75V7a.39.39,0,0,0-.77,0v.76H25.7a.38.38,0,0,0-.39.38.39.39,0,0,0,.39.39"/></clipPath><clipPath id="clip-path-11"><rect class="cls-2" x="2.16" y="6.64" width="44.78" height="35.34"/></clipPath><clipPath id="clip-path-12"><path class="cls-1" d="M44.89,18.64h.45v.45a.38.38,0,1,0,.76,0v-.45h.46a.38.38,0,1,0,0-.76H46.1v-.46a.38.38,0,0,0-.76,0v.46h-.45a.38.38,0,1,0,0,.76"/></clipPath><clipPath id="clip-path-13"><rect class="cls-2" x="2.16" y="3.64" width="44.78" height="35.34"/></clipPath><clipPath id="clip-path-14"><path class="cls-1" d="M48.22,42.13a.43.43,0,0,0-.41-.45H45a.46.46,0,0,0,0,.91h2.84a.43.43,0,0,0,.41-.46"/></clipPath><clipPath id="clip-path-15"><rect class="cls-2" x="3.44" y="10.91" width="44.78" height="35.34"/></clipPath><clipPath id="clip-path-16"><path class="cls-1" d="M34.53,10.6H36.2a.47.47,0,0,0,0-.92H34.53a.47.47,0,0,0,0,.92"/></clipPath></defs><title>1</title><path class="cls-6" d="M40.86,36H4a1.3,1.3,0,0,1-.91-.38,1.28,1.28,0,0,1-.38-.91V33.43H17.46l.78.86h8.4l.78-.86H42.15v1.29a1.28,1.28,0,0,1-.38.91A1.3,1.3,0,0,1,40.86,36Z"/><path class="cls-6" d="M39.38,33.36h-.82V14.2a.67.67,0,0,0-.21-.49.67.67,0,0,0-.48-.2H7a.7.7,0,0,0-.49.2.68.68,0,0,0-.2.49V33.36H5.49"/><path class="cls-7" d="M39.27,33.25h-.6v-19a.81.81,0,0,0-.23-.57.84.84,0,0,0-.57-.24H7a.82.82,0,0,0-.57.24.8.8,0,0,0-.24.57V33.25H5.61v-19a1.35,1.35,0,0,1,.41-1,1.41,1.41,0,0,1,1-.41H37.87a1.38,1.38,0,0,1,1,.41,1.43,1.43,0,0,1,.41,1Z"/><path class="cls-7" d="M39.38,33.36h-.82V14.2a.67.67,0,0,0-.21-.49.67.67,0,0,0-.48-.2H7a.7.7,0,0,0-.49.2.68.68,0,0,0-.2.49V33.36H5.49V14.2a1.47,1.47,0,0,1,.45-1.07A1.53,1.53,0,0,1,7,12.68H37.87a1.52,1.52,0,0,1,1.51,1.52Zm-.59-.22h.36V14.2a1.3,1.3,0,0,0-.37-.91,1.27,1.27,0,0,0-.91-.38H7a1.3,1.3,0,0,0-.91.38,1.28,1.28,0,0,0-.38.91V33.14h.37V14.2a.91.91,0,0,1,.27-.65A.93.93,0,0,1,7,13.28H37.87a.91.91,0,0,1,.65.27,1,1,0,0,1,.27.65Z"/><path class="cls-7" d="M40.86,36.49H4A1.73,1.73,0,0,1,2.77,36a1.71,1.71,0,0,1-.52-1.25V33H17.67l.78.86h8l.78-.86H42.63v1.77a1.78,1.78,0,0,1-1.77,1.77Zm-38-2.94v1.17a1.16,1.16,0,0,0,.34.83,1.17,1.17,0,0,0,.83.34H40.86a1.17,1.17,0,0,0,.83-.34,1.16,1.16,0,0,0,.34-.83V33.55H27.47l-.78.85h-8.5l-.78-.85Z"/><path class="cls-7" d="M40.86,36.6H4a1.88,1.88,0,0,1-1.88-1.88V32.84H17.73l.77.85h7.88l.77-.85H42.74v1.88a1.83,1.83,0,0,1-.55,1.33A1.86,1.86,0,0,1,40.86,36.6ZM2.36,33.07v1.65a1.64,1.64,0,0,0,.49,1.17A1.66,1.66,0,0,0,4,36.38H40.86A1.66,1.66,0,0,0,42,35.89a1.63,1.63,0,0,0,.48-1.17V33.07H27.26l-.78.85H18.4l-.78-.85ZM40.86,36H4a1.3,1.3,0,0,1-.91-.38,1.28,1.28,0,0,1-.38-.91V33.43H17.46l.78.86h8.4l.78-.86H42.15v1.29a1.28,1.28,0,0,1-.38.91A1.3,1.3,0,0,1,40.86,36ZM3,33.66v1.06a1,1,0,0,0,.31.75,1.06,1.06,0,0,0,.75.31H40.86a1.06,1.06,0,0,0,.75-.31,1,1,0,0,0,.31-.75V33.66H27.52l-.78.86h-8.6l-.78-.86Z"/><rect class="cls-8" x="5.61" y="34.42" width="0.6" height="0.6"/><rect class="cls-8" x="6.8" y="34.42" width="0.6" height="0.6"/><rect class="cls-8" x="7.99" y="34.42" width="0.6" height="0.6"/><rect class="cls-8" x="36.29" y="34.42" width="2.98" height="0.6"/><polygon class="cls-9" points="7.9 15.09 7.9 25.69 11.13 25.69 12.21 23.6 15.44 23.6 16.52 21.34 19.75 21.34 20.82 23.08 24.05 23.08 25.13 21.7 28.36 21.7 29.44 19.43 32.67 19.43 33.75 21.18 36.98 21.18 36.98 15.09 7.9 15.09"/><polygon class="cls-10" points="7.9 29.18 7.9 31.26 36.98 31.26 36.98 26.24 33.75 26.24 32.67 25.19 29.44 25.19 28.36 26.76 25.13 26.76 24.05 27.62 20.82 27.62 19.75 26.58 16.52 26.58 15.44 28.14 12.21 28.14 11.13 29.18 7.9 29.18"/><polygon class="cls-8" points="11.25 29.48 7.9 29.48 7.9 28.89 11.01 28.89 12.09 27.84 15.28 27.84 16.36 26.28 19.87 26.28 20.94 27.32 23.95 27.32 25.03 26.46 28.21 26.46 29.29 24.89 32.79 24.89 33.87 25.94 36.98 25.94 36.98 26.54 33.63 26.54 32.55 25.49 29.6 25.49 28.52 27.06 25.24 27.06 24.16 27.92 20.7 27.92 19.63 26.88 16.67 26.88 15.6 28.44 12.33 28.44 11.25 29.48"/><rect class="cls-8" x="9.09" y="19.86" width="6.35" height="0.6"/><rect class="cls-8" x="9.09" y="21.05" width="3.17" height="0.6"/><rect class="cls-8" x="19.86" y="16.28" width="6.46" height="0.6"/><rect class="cls-8" x="16.63" y="17.47" width="6.46" height="0.6"/><rect class="cls-8" x="16.63" y="16.28" width="2.15" height="0.6"/><rect class="cls-6" x="9.09" y="16.28" width="6.35" height="2.98"/><rect class="cls-8" x="12.56" y="17.47" width="1.52" height="0.6"/><rect class="cls-8" x="10.45" y="17.47" width="1.52" height="0.6"/><rect class="cls-6" x="32.81" y="16.28" width="0.6" height="0.6"/><rect class="cls-6" x="34" y="16.28" width="0.6" height="0.6"/><rect class="cls-6" x="35.19" y="16.28" width="0.6" height="0.6"/><path class="cls-6" d="M25.51,36.33V33.88a1.08,1.08,0,0,0-1.08-1.09,1.06,1.06,0,0,0-1,.62v-.09a1.09,1.09,0,0,0-1.09-1.08,1.08,1.08,0,0,0-1,.59,1.08,1.08,0,0,0-2.09-.34V28.15a1.07,1.07,0,0,0-2.13,0V39.38a2.16,2.16,0,0,0,1.08,1.87v3l6.17.14V41.18a2.16,2.16,0,0,0,1.08-1.87Z"/><path class="cls-7" d="M23.5,34.24a.2.2,0,0,1-.2-.2v-.72a.87.87,0,0,0-.88-.88.89.89,0,0,0-.83.56.19.19,0,0,1-.36-.14A1.26,1.26,0,0,1,22.42,32a1.29,1.29,0,0,1,1.28,1.28V34A.2.2,0,0,1,23.5,34.24Z"/><path class="cls-7" d="M23.5,34.35a.31.31,0,0,1-.31-.31v-.72a.78.78,0,0,0-.77-.77.77.77,0,0,0-.72.49.31.31,0,0,1-.4.18.31.31,0,0,1-.18-.41,1.39,1.39,0,0,1,2.69.51V34A.31.31,0,0,1,23.5,34.35Zm-1.08-2a1,1,0,0,1,1,1V34a.08.08,0,0,0,.16,0v-.72a1.17,1.17,0,0,0-2.25-.42s0,0,0,.06l.05,0a.1.1,0,0,0,.11,0A1,1,0,0,1,22.42,32.32Z"/><path class="cls-7" d="M18.27,44.48a.2.2,0,0,1-.2-.2V41.36a2.36,2.36,0,0,1-1.08-2V28.15a1.26,1.26,0,0,1,2.52,0v3.74a1.32,1.32,0,0,1,.82-.29,1.29,1.29,0,0,1,1.28,1.28v.72a.2.2,0,1,1-.4,0v-.72a.87.87,0,0,0-.88-.88.89.89,0,0,0-.83.56.19.19,0,0,1-.22.12.2.2,0,0,1-.16-.19V28.15a.87.87,0,1,0-1.73,0V39.38a2,2,0,0,0,1,1.7.19.19,0,0,1,.09.17v3A.19.19,0,0,1,18.27,44.48Z"/><path class="cls-7" d="M18.27,44.59a.31.31,0,0,1-.31-.31V41.42a2.49,2.49,0,0,1-1.08-2V28.15a1.38,1.38,0,0,1,2.75,0v3.52a1.4,1.4,0,0,1,2.09,1.21v.72a.31.31,0,0,1-.62,0v-.72a.78.78,0,0,0-.77-.77.76.76,0,0,0-.72.49.31.31,0,0,1-.35.19.3.3,0,0,1-.25-.3V28.15a.76.76,0,0,0-1.51,0V39.38a1.85,1.85,0,0,0,.92,1.6.3.3,0,0,1,.16.27v3A.31.31,0,0,1,18.27,44.59Zm0-17.59a1.15,1.15,0,0,0-1.14,1.15V39.38a2.26,2.26,0,0,0,1,1.88l.05,0v3a.08.08,0,0,0,.09.08.08.08,0,0,0,.08-.08v-3a.08.08,0,0,0,0-.07,2.09,2.09,0,0,1-1-1.8V28.15a1,1,0,0,1,2,0v4.34a.08.08,0,0,0,.06.08.08.08,0,0,0,.09,0,1,1,0,0,1,1.94.36v.72a.08.08,0,1,0,.16,0v-.72a1.17,1.17,0,0,0-1.9-.9l-.19.15v-4A1.15,1.15,0,0,0,18.25,27Z"/><path class="cls-7" d="M24.53,44.62a.2.2,0,0,1-.2-.2V41.18a.19.19,0,0,1,.1-.17,2,2,0,0,0,1-1.7V33.88a.89.89,0,0,0-.89-.89.87.87,0,0,0-.82.56.2.2,0,0,1-.26.11.19.19,0,0,1-.11-.25,1.28,1.28,0,0,1,2.47.47v5.43a2.36,2.36,0,0,1-1.08,2v3.13A.19.19,0,0,1,24.53,44.62Z"/><path class="cls-7" d="M24.53,44.73a.31.31,0,0,1-.31-.31V41.18a.32.32,0,0,1,.15-.27,1.85,1.85,0,0,0,.92-1.6V33.88a.77.77,0,0,0-.77-.78.78.78,0,0,0-.72.49.31.31,0,0,1-.58-.22,1.39,1.39,0,0,1,2.69.51v5.43a2.47,2.47,0,0,1-1.07,2v3.07A.31.31,0,0,1,24.53,44.73Zm0-11.85a1,1,0,0,1,1,1v5.43a2.1,2.1,0,0,1-1,1.8.07.07,0,0,0,0,.07v3.24a.07.07,0,0,0,.08.08.08.08,0,0,0,.08-.08V41.23l.05,0a2.27,2.27,0,0,0,1-1.88V33.88a1.17,1.17,0,0,0-1.17-1.17,1.15,1.15,0,0,0-1.08.74.08.08,0,0,0,0,.11.09.09,0,0,0,.11-.05A1,1,0,0,1,24.52,32.88Z"/><rect class="cls-6" x="16.83" y="44.42" width="9.03" height="3.16"/><path class="cls-7" d="M26.06,47.58h-.4V44.71a.08.08,0,0,0-.08-.09H17.11a.09.09,0,0,0-.09.09v2.87h-.39V44.31a.09.09,0,0,1,.09-.09H26a.09.09,0,0,1,.09.09Z"/><path class="cls-7" d="M26.17,47.69h-.62v-3H17.14v3h-.62V44.31a.2.2,0,0,1,.2-.2H26a.2.2,0,0,1,.2.2Zm-.39-.22h.16V44.34h-9.2v3.13h.17V44.71a.2.2,0,0,1,.2-.21h8.47a.2.2,0,0,1,.2.21Z"/><path class="cls-7" d="M19.32,33.31a.2.2,0,0,1-.2-.2v-.7a.19.19,0,0,1,.2-.19.18.18,0,0,1,.19.19v.7A.19.19,0,0,1,19.32,33.31Z"/><path class="cls-7" d="M19.32,33.42a.31.31,0,0,1-.31-.31v-.7a.31.31,0,1,1,.62,0v.7A.31.31,0,0,1,19.32,33.42Zm0-1.09a.08.08,0,0,0-.08.08v.7a.08.08,0,0,0,.08.08.09.09,0,0,0,.08-.08v-.7A.09.09,0,0,0,19.32,32.33Z"/><rect class="cls-6" x="36.17" y="24.39" width="11.73" height="12.3"/><path class="cls-11" d="M46.34,21.13H37.73a1.56,1.56,0,0,0-1.56,1.56v1.7H47.9v-1.7A1.56,1.56,0,0,0,46.34,21.13Z"/><rect class="cls-7" x="40.89" y="22.5" width="2.28" height="0.53"/><path class="cls-7" d="M43.29,23.14H40.78v-.76h2.51ZM41,22.91h2.05v-.3H41Z"/><path class="cls-11" d="M37.73,40h8.61a1.56,1.56,0,0,0,1.56-1.57V36.69H36.17v1.69A1.56,1.56,0,0,0,37.73,40Z"/><path class="cls-6" d="M43.6,38.32a.56.56,0,0,1-.6.52H41.07a.53.53,0,1,1,0-1H43A.56.56,0,0,1,43.6,38.32Z"/><path class="cls-8" d="M43.08,39.1H41a.79.79,0,0,1-.79-.78.8.8,0,0,1,.79-.79h2.09a.79.79,0,0,1,.78.79A.78.78,0,0,1,43.08,39.1Zm-2.09-1a.26.26,0,1,0,0,.52h2.09a.26.26,0,0,0,0-.52Z"/><path class="cls-7" d="M46.34,40.21H37.73a1.83,1.83,0,0,1-1.83-1.83V22.69a1.83,1.83,0,0,1,1.83-1.82h8.61a1.83,1.83,0,0,1,1.82,1.82V38.38A1.83,1.83,0,0,1,46.34,40.21ZM37.73,21.39a1.3,1.3,0,0,0-1.3,1.3V38.38a1.31,1.31,0,0,0,1.3,1.31h8.61a1.31,1.31,0,0,0,1.3-1.31V22.69a1.31,1.31,0,0,0-1.3-1.3Z"/><path class="cls-7" d="M46.33,40.33h-8.6a1.94,1.94,0,0,1-1.94-1.95V22.69a1.94,1.94,0,0,1,1.94-1.94h8.6a1.94,1.94,0,0,1,2,1.94V38.38A2,2,0,0,1,46.33,40.33ZM37.73,21A1.72,1.72,0,0,0,36,22.69V38.38a1.72,1.72,0,0,0,1.71,1.72h8.6a1.72,1.72,0,0,0,1.72-1.72V22.69A1.72,1.72,0,0,0,46.33,21Zm8.6,18.82h-8.6a1.42,1.42,0,0,1-1.42-1.42V22.69a1.42,1.42,0,0,1,1.42-1.41h8.6a1.41,1.41,0,0,1,1.42,1.41V38.38A1.41,1.41,0,0,1,46.33,39.8Zm-8.6-18.29a1.19,1.19,0,0,0-1.19,1.18V38.38a1.19,1.19,0,0,0,1.19,1.19h8.6a1.19,1.19,0,0,0,1.19-1.19V22.69a1.18,1.18,0,0,0-1.19-1.18Z"/><rect class="cls-7" x="36.17" y="24.13" width="11.73" height="0.53"/><path class="cls-7" d="M48,24.77h-12V24H48Zm-11.73-.23H47.79v-.3H36.28Z"/><rect class="cls-7" x="36.17" y="36.43" width="11.73" height="0.53"/><path class="cls-7" d="M48,37.07h-12v-.76H48Zm-11.73-.23H47.79v-.3H36.28Z"/><path class="cls-10" d="M44.52,30.05a3,3,0,0,1-5.14,2.13l2.13-2.13Z"/><path class="cls-12" d="M41.51,27v3l-2.13,2.13A3,3,0,0,1,41.51,27Z"/><path class="cls-8" d="M45.83,29.26H42.3V25.72h.26A3.27,3.27,0,0,1,45.83,29Zm-3-.53h2.47a2.73,2.73,0,0,0-2.47-2.47Z"/><rect class="cls-8" x="39.77" y="33.83" width="4.52" height="0.53"/><rect class="cls-8" x="40.9" y="34.88" width="2.26" height="0.53"/><g class="cls-13"><g class="cls-14"><rect class="cls-7" x="1.4" y="38" width="5.79" height="5.79"/></g></g><g class="cls-15"><g class="cls-16"><rect class="cls-7" x="0.94" y="9.57" width="5.18" height="3.96"/></g></g><g class="cls-17"><g class="cls-16"><rect class="cls-7" x="2.77" y="8.35" width="5.48" height="3.96"/></g></g><g class="cls-18"><g class="cls-19"><rect class="cls-7" x="23.79" y="5.12" width="6.09" height="6.09"/></g></g><g class="cls-20"><g class="cls-21"><rect class="cls-7" x="42.98" y="15.52" width="5.48" height="5.48"/></g></g><g class="cls-22"><g class="cls-23"><rect class="cls-7" x="43.04" y="40.15" width="6.7" height="3.96"/></g></g><g class="cls-24"><g class="cls-19"><rect class="cls-7" x="32.62" y="8.16" width="5.48" height="3.96"/></g></g></svg>