<?xml version="1.0" encoding="utf-8"?>
<!-- Generator: Adobe Illustrator 16.0.0, SVG Export Plug-In . SVG Version: 6.00 Build 0)  -->
<!DOCTYPE svg PUBLIC "-//W3C//DTD SVG 1.1//EN" "http://www.w3.org/Graphics/SVG/1.1/DTD/svg11.dtd">
<svg version="1.1" id="Layer_1" xmlns="http://www.w3.org/2000/svg" xmlns:xlink="http://www.w3.org/1999/xlink" x="0px" y="0px"
	 width="595.279px" height="841.891px" viewBox="0 0 595.279 841.891" enable-background="new 0 0 595.279 841.891"
	 xml:space="preserve">
<g>
	
		<path fill="#FFFFFF" stroke="#171C28" stroke-width="10" stroke-linecap="round" stroke-linejoin="round" stroke-miterlimit="10" d="
		M284.618,666.498H89.292c-5.581,0-9.302-3.721-9.302-9.301V489.774c0-5.581,3.721-9.302,9.302-9.302h195.326
		c5.581,0,9.301,3.721,9.301,9.302v167.423C293.919,661.848,289.269,666.498,284.618,666.498z"/>
	
		<line fill="none" stroke="#171C28" stroke-width="10" stroke-linecap="round" stroke-linejoin="round" stroke-miterlimit="10" x1="79.99" y1="526.979" x2="293.919" y2="526.979"/>
	
		<line fill="none" stroke="#171C28" stroke-width="10" stroke-linecap="round" stroke-linejoin="round" stroke-miterlimit="10" x1="256.715" y1="452.569" x2="256.715" y2="499.075"/>
	
		<line fill="none" stroke="#171C28" stroke-width="10" stroke-linecap="round" stroke-linejoin="round" stroke-miterlimit="10" x1="117.196" y1="452.569" x2="117.196" y2="499.075"/>
	
		<path fill="#FFFFFF" stroke="#171C28" stroke-width="10" stroke-linecap="round" stroke-linejoin="round" stroke-miterlimit="10" d="
		M135.798,610.69L135.798,610.69c0,10.231,8.371,18.603,18.603,18.603h9.302c10.231,0,18.603-8.371,18.603-18.603l0,0l0,0
		c0-10.231-8.371-18.603-18.603-18.603h-9.302h9.302c10.231,0,18.603-8.371,18.603-18.603l0,0l0,0
		c0-10.231-8.371-18.603-18.603-18.603h-9.302c-10.231,0-18.603,8.371-18.603,18.603l0,0"/>
	
		<polyline fill="#FFFFFF" stroke="#171C28" stroke-width="10" stroke-linecap="round" stroke-linejoin="round" stroke-miterlimit="10" points="
		228.811,629.293 228.811,554.883 210.208,573.485 	"/>
</g>
<g>
	<g id="XMLID_1787_">
		<path id="XMLID_1806_" fill="#FFFFFF" d="M467.853,326.072l48.366,52.087v79.991l-13.021,39.065v74.409h-97.663v-29.764
			c0,0-28.834-40.926-27.903-74.41"/>
		<g id="XMLID_1804_">
			
				<rect id="XMLID_1805_" x="307.712" y="174.114" fill="#FFFFFF" stroke="#171C28" stroke-width="10" stroke-linecap="round" stroke-linejoin="round" stroke-miterlimit="10" width="148.82" height="261.366"/>
		</g>
		
			<path id="XMLID_1803_" fill="none" stroke="#171C28" stroke-width="10" stroke-linecap="round" stroke-linejoin="round" stroke-miterlimit="10" d="
			M467.853,326.072l48.366,52.087v79.991l-13.021,39.065v74.409h-97.663v-29.764c0,0-28.834-40.926-27.903-74.41"/>
		
			<polyline id="XMLID_1802_" fill="none" stroke="#171C28" stroke-width="10" stroke-linecap="round" stroke-linejoin="round" stroke-miterlimit="10" points="
			353.448,369.788 353.448,389.321 368.329,402.343 393.443,402.343 409.255,391.181 409.255,369.788 		"/>
		
			<path id="XMLID_1801_" fill="#FFFFFF" stroke="#171C28" stroke-width="10" stroke-linecap="round" stroke-linejoin="round" stroke-miterlimit="10" d="
			M471.573,414.435l-52.087-52.087c0,0-31.625-14.882-31.625,31.624l46.507,46.506c0,0-3.721,43.716,32.555,79.061"/>
		
			<polyline id="XMLID_1800_" fill="#0D3178" stroke="#171C28" stroke-width="10" stroke-linecap="round" stroke-linejoin="round" stroke-miterlimit="10" points="
			385.072,662.777 385.072,570.695 526.45,570.695 526.45,662.777 		"/>
		
			<polyline id="XMLID_1799_" fill="none" stroke="#171C28" stroke-width="10" stroke-linecap="round" stroke-linejoin="round" stroke-miterlimit="10" points="
			409.255,233.06 409.255,213.527 393.443,200.505 368.329,200.505 353.448,211.667 353.448,233.06 		"/>
		<g id="XMLID_1791_">
			
				<ellipse id="XMLID_1798_" fill="#FFFFFF" stroke="#171C28" stroke-width="10" stroke-linecap="round" stroke-linejoin="round" stroke-miterlimit="10" cx="383.211" cy="300.959" rx="44.646" ry="44.646"/>
			<ellipse id="XMLID_1797_" fill="#0D3178" cx="383.211" cy="300.959" rx="35.345" ry="35.345"/>
		</g>
		<g>
			<path fill="#FFFFFF" d="M369.363,318.989v-3.782h14.126v-0.13c-1.13-0.782-2.174-1.564-3.129-2.303l-10.997-8.954v-4.694
				l12.431,10.605l16.865-11.431v4.477l-14.388,9.649l3.217,2.782h11.171v3.782H369.363z"/>
			<path fill="#FFFFFF" d="M394.746,296.084c0.738-1.13,1.521-3.13,1.521-5.042c0-2.782-1.391-4.086-3.13-4.086
				c-1.826,0-2.825,1.086-3.869,3.912c-1.347,3.781-3.433,5.563-5.954,5.563c-3.39,0-6.172-2.738-6.172-7.259
				c0-2.13,0.608-3.999,1.304-5.172l2.782,0.957c-0.521,0.826-1.217,2.347-1.217,4.303c0,2.26,1.303,3.521,2.868,3.521
				c1.738,0,2.521-1.26,3.564-3.999c1.392-3.651,3.217-5.52,6.345-5.52c3.695,0,6.304,2.869,6.304,7.867
				c0,2.304-0.565,4.433-1.435,5.911L394.746,296.084z"/>
		</g>
	</g>
</g>
</svg>
