<?xml version="1.0" encoding="utf-8"?>
<!-- Generator: Adobe Illustrator 16.0.0, SVG Export Plug-In . SVG Version: 6.00 Build 0)  -->
<!DOCTYPE svg PUBLIC "-//W3C//DTD SVG 1.1//EN" "http://www.w3.org/Graphics/SVG/1.1/DTD/svg11.dtd">
<svg version="1.1" id="Layer_1" xmlns="http://www.w3.org/2000/svg" xmlns:xlink="http://www.w3.org/1999/xlink" x="0px" y="0px"
	 width="216px" height="216px" viewBox="0 0 216 216" enable-background="new 0 0 216 216" xml:space="preserve">
<path fill="#A6DBF3" d="M84.702,13.961l0.557,50.556c0,0,0.975,16.713-13.649,16.713s-56.406-1.114-56.406-1.114l68.801-68.104"/>
<path fill="#0D3178" d="M160.018,42.22c2.565-2.488,5.131-4.978,7.699-7.463c4.969-4.808,9.735-4.783,14.723,0.147
	c9.006,8.906,18.004,17.824,26.968,26.774c4.788,4.78,4.813,9.924-0.06,14.797c-15.674,15.679-31.361,31.345-47.17,46.889
	c-2.572,2.53-3.722,5.089-3.695,8.735c0.15,21.311,0.086,42.623,0.065,63.936c-0.009,8.686-4.182,12.939-12.758,12.945
	c-40.555,0.021-81.108,0.02-121.662,0c-8.581-0.004-12.834-4.276-12.838-12.866c-0.017-36.964-0.066-73.929,0.125-110.889
	c0.013-2.452,1.335-5.493,3.075-7.25c22.163-22.391,44.473-44.635,66.9-66.763c1.667-1.645,4.5-2.952,6.809-2.98
	C107.554,8,126.915,8.076,146.273,8.115c7.896,0.016,12.229,4.438,12.271,12.424c0.038,6.961,0.008,13.923,0.008,20.883
	C159.042,41.688,159.529,41.954,160.018,42.22z M154.359,131.309c-11.195,11.369-21.271,21.783-31.6,31.945
	c-2.275,2.24-5.226,4.188-8.228,5.241c-16.486,5.789-33.064,11.323-49.672,16.762c-2.152,0.704-4.651,0.354-6.989,0.492
	c0.159-2.222-0.116-4.579,0.544-6.642c5.422-16.931,10.94-33.832,16.645-50.67c0.866-2.556,2.455-5.119,4.362-7.033
	c19.296-19.363,38.758-38.562,58.104-57.875c5.867-5.857,13.759-11.031,16.639-18.16c2.898-7.175,0.77-16.393,0.742-24.715
	c-0.021-7.125-1.817-8.941-8.84-8.955c-18.023-0.036-36.047-0.021-54.071,0c-1.583,0.001-3.165,0.19-4.968,0.306
	c0,13.441-0.328,26.264,0.066,39.065c0.914,29.727-2.343,33.651-32.494,32.66c-11.335-0.373-22.694-0.071-34.042-0.049
	c-1.765,0.003-3.529,0.152-5.197,0.229c-0.222,1.02-0.417,1.497-0.417,1.973c-0.026,37.461-0.072,74.923-0.008,112.386
	c0.008,4.936,2.406,7.094,7.659,7.101c41.554,0.051,83.109,0.053,124.664-0.002c5.411-0.009,7.602-2.208,7.623-7.642
	c0.083-20.812,0.041-41.623,0.026-62.438C154.906,134.518,154.704,133.744,154.359,131.309z M158.645,47.766
	c-2.896,2.486-6.215,4.995-9.141,7.899c-22.574,22.416-45.074,44.906-67.584,67.386c-1.053,1.053-2.434,2.072-2.893,3.377
	c-3.008,8.559-5.804,17.19-8.75,26.045c10.421,3.846,16.912,11.079,21.036,20.719c7.223-2.445,14.102-4.453,20.705-7.137
	c3.717-1.512,7.531-3.578,10.354-6.354c21.97-21.604,43.731-43.418,65.497-65.229c3.013-3.018,5.693-6.365,8.281-9.282
	C183.49,72.559,171.132,60.229,158.645,47.766z M18.929,79.122c1.635,0.126,2.903,0.307,4.172,0.308
	c15.515,0.019,31.03,0.05,46.545-0.004c9.308-0.032,13.094-3.784,13.128-13.027c0.058-15.645,0.028-31.291-0.004-46.936
	c-0.002-1.184-0.308-2.367-0.477-3.583C61.128,37.004,40.275,57.816,18.929,79.122z"/>
<path fill="#FFFFFF" stroke="#000000" stroke-miterlimit="10" d="M43.5,68.5"/>
</svg>
