<svg xmlns="http://www.w3.org/2000/svg" viewBox="0 0 938 305" enable-background="new 0 0 938 305"><style type="text/css">.st0{opacity:0.2;fill-rule:evenodd;clip-rule:evenodd;fill:#8C8C8C;} .st1{opacity:0.2;fill-rule:evenodd;clip-rule:evenodd;fill:url(#SVGID_1_);} .st2{opacity:0.2;fill-rule:evenodd;clip-rule:evenodd;fill:url(#SVGID_2_);} .st3{opacity:0.2;fill-rule:evenodd;clip-rule:evenodd;fill:url(#SVGID_3_);} .st4{fill:#E8EAED;} .st5{fill:#F1FBFD;} .st6{fill:#C8EEFC;} .st7{fill:#E2FFFF;} .st8{fill:#FFDEED;} .st9{fill:#7DBF8C;} .st10{fill:#00848A;} .st11{fill:#45C9B9;} .st12{fill:#07A8A3;} .st13{fill:#FEB05C;} .st14{fill:#F36E21;} .st15{fill:#FEC262;} .st16{fill:#FCB316;} .st17{fill:#FE920D;} .st18{fill:#22036A;} .st19{fill:#053C5E;} .st20{fill:url(#SVGID_4_);} .st21{fill:#01888B;} .st22{fill:#0E4866;} .st23{fill:#5299CE;} .st24{fill:#467DCC;} .st25{fill:#B9DDFF;} .st26{fill:#3E71AD;} .st27{opacity:0.3;fill:#C8EEFC;} .st28{opacity:0.47;fill:#FADCE9;} .st29{fill:#F0EFF3;} .st30{opacity:0.63;fill:#B9B8C7;} .st31{fill:#B9B8C7;} .st32{fill:#00666A;} .st33{fill:url(#SVGID_5_);} .st34{fill:#F4B5BE;} .st35{fill:#3C5AA7;} .st36{fill:#4161AC;} .st37{fill:#252969;} .st38{fill:#F9C4C9;} .st39{fill:#25286A;} .st40{fill:#062D5B;} .st41{fill:#0F3872;} .st42{fill:#005CDD;} .st43{fill:#25228A;} .st44{fill:url(#SVGID_6_);} .st45{fill:#63C0C4;} .st46{fill:#F9C5C9;} .st47{fill:#EE4678;} .st48{fill:#EE4E8B;} .st49{fill:#F4B8C3;} .st50{fill:#212B53;} .st51{fill:#FFD147;} .st52{fill:#69C5F7;} .st53{fill:#007EE3;} .st54{fill:#B2AACC;stroke:#7055A5;stroke-width:6;stroke-miterlimit:10;} .st55{fill:#DDD7F7;stroke:#7055A5;stroke-width:2;stroke-miterlimit:10;} .st56{fill:url(#SVGID_7_);stroke:#7055A5;stroke-width:3;stroke-miterlimit:10;} .st57{fill:#9991C6;} .st58{fill:#7055A5;} .st59{fill:url(#SVGID_8_);} .st60{fill:url(#SVGID_9_);} .st61{fill-rule:evenodd;clip-rule:evenodd;fill:#3C5AA7;} .st62{fill-rule:evenodd;clip-rule:evenodd;fill:#E8EAED;} .st63{fill:#9DA5AB;} .st64{fill:url(#SVGID_10_);} .st65{opacity:0.3;fill:#F3CD94;} .st66{fill:#BDC1C6;} .st67{opacity:0.5;} .st68{filter:url(#Adobe_OpacityMaskFilter);} .st69{filter:url(#Adobe_OpacityMaskFilter_1_);} .st70{mask:url(#SVGID_13_);fill:url(#SVGID_14_);} .st71{opacity:0.4;fill:url(#SVGID_15_);} .st72{fill:url(#SVGID_16_);} .st73{filter:url(#Adobe_OpacityMaskFilter_2_);} .st74{filter:url(#Adobe_OpacityMaskFilter_3_);} .st75{mask:url(#SVGID_17_);fill:url(#SVGID_18_);} .st76{opacity:0.4;fill:url(#SVGID_19_);} .st77{opacity:0.5;fill:#FFF6D6;} .st78{fill:#436A70;} .st79{fill:#FFFDC1;} .st80{filter:url(#Adobe_OpacityMaskFilter_4_);} .st81{filter:url(#Adobe_OpacityMaskFilter_5_);} .st82{mask:url(#SVGID_20_);fill:url(#SVGID_21_);} .st83{opacity:0.4;fill:url(#SVGID_22_);} .st84{filter:url(#Adobe_OpacityMaskFilter_6_);} .st85{filter:url(#Adobe_OpacityMaskFilter_7_);} .st86{mask:url(#SVGID_23_);fill:url(#SVGID_24_);} .st87{opacity:0.4;fill:url(#SVGID_25_);} .st88{filter:url(#Adobe_OpacityMaskFilter_8_);} .st89{filter:url(#Adobe_OpacityMaskFilter_9_);} .st90{mask:url(#SVGID_26_);fill:url(#SVGID_27_);} .st91{opacity:0.4;fill:url(#SVGID_28_);} .st92{opacity:0.3;fill:#C24B18;} .st93{fill:url(#SVGID_29_);} .st94{opacity:0.3;fill:#29929E;} .st95{fill:#3A6978;} .st96{fill:url(#SVGID_30_);} .st97{fill:url(#SVGID_31_);} .st98{filter:url(#Adobe_OpacityMaskFilter_10_);} .st99{filter:url(#Adobe_OpacityMaskFilter_11_);} .st100{mask:url(#SVGID_32_);fill:url(#SVGID_33_);} .st101{opacity:0.85;fill:url(#SVGID_34_);} .st102{fill:url(#SVGID_35_);} .st103{filter:url(#Adobe_OpacityMaskFilter_12_);} .st104{filter:url(#Adobe_OpacityMaskFilter_13_);} .st105{mask:url(#SVGID_36_);fill:url(#SVGID_37_);} .st106{opacity:0.85;fill:url(#SVGID_38_);} .st107{fill:url(#SVGID_39_);} .st108{filter:url(#Adobe_OpacityMaskFilter_14_);} .st109{filter:url(#Adobe_OpacityMaskFilter_15_);} .st110{mask:url(#SVGID_40_);fill:url(#SVGID_41_);} .st111{opacity:0.85;fill:url(#SVGID_42_);} .st112{fill:url(#SVGID_43_);} .st113{filter:url(#Adobe_OpacityMaskFilter_16_);} .st114{filter:url(#Adobe_OpacityMaskFilter_17_);} .st115{mask:url(#SVGID_44_);fill:url(#SVGID_45_);} .st116{opacity:0.85;fill:url(#SVGID_46_);} .st117{fill:url(#SVGID_47_);} .st118{filter:url(#Adobe_OpacityMaskFilter_18_);} .st119{filter:url(#Adobe_OpacityMaskFilter_19_);} .st120{mask:url(#SVGID_48_);fill:url(#SVGID_49_);} .st121{opacity:0.85;fill:url(#SVGID_50_);} .st122{fill:url(#SVGID_51_);} .st123{filter:url(#Adobe_OpacityMaskFilter_20_);} .st124{filter:url(#Adobe_OpacityMaskFilter_21_);} .st125{mask:url(#SVGID_52_);fill:url(#SVGID_53_);} .st126{opacity:0.85;fill:url(#SVGID_54_);} .st127{fill:url(#SVGID_55_);} .st128{filter:url(#Adobe_OpacityMaskFilter_22_);} .st129{filter:url(#Adobe_OpacityMaskFilter_23_);} .st130{mask:url(#SVGID_56_);fill:url(#SVGID_57_);} .st131{opacity:0.85;fill:url(#SVGID_58_);} .st132{fill:url(#SVGID_59_);} .st133{filter:url(#Adobe_OpacityMaskFilter_24_);} .st134{filter:url(#Adobe_OpacityMaskFilter_25_);} .st135{mask:url(#SVGID_60_);fill:url(#SVGID_61_);} .st136{opacity:0.85;fill:url(#SVGID_62_);} .st137{filter:url(#Adobe_OpacityMaskFilter_26_);} .st138{filter:url(#Adobe_OpacityMaskFilter_27_);} .st139{mask:url(#SVGID_63_);fill:url(#SVGID_64_);} .st140{opacity:0.6;fill:url(#SVGID_65_);} .st141{opacity:0.5;fill:#29929E;} .st142{fill:url(#SVGID_66_);} .st143{filter:url(#Adobe_OpacityMaskFilter_28_);} .st144{filter:url(#Adobe_OpacityMaskFilter_29_);} .st145{mask:url(#SVGID_67_);fill:url(#SVGID_68_);} .st146{opacity:0.7;fill:url(#SVGID_69_);} .st147{fill:url(#SVGID_70_);} .st148{opacity:0.41;fill:#29929E;} .st149{fill:url(#SVGID_71_);} .st150{fill:url(#SVGID_72_);} .st151{filter:url(#Adobe_OpacityMaskFilter_30_);} .st152{filter:url(#Adobe_OpacityMaskFilter_31_);} .st153{mask:url(#SVGID_73_);fill:url(#SVGID_74_);} .st154{opacity:0.85;fill:url(#SVGID_75_);} .st155{fill:url(#SVGID_76_);} .st156{fill:url(#SVGID_77_);} .st157{fill:url(#SVGID_78_);} .st158{filter:url(#Adobe_OpacityMaskFilter_32_);} .st159{filter:url(#Adobe_OpacityMaskFilter_33_);} .st160{mask:url(#SVGID_79_);fill:url(#SVGID_80_);} .st161{opacity:0.85;fill:url(#SVGID_81_);} .st162{fill:url(#SVGID_82_);} .st163{fill:url(#SVGID_83_);} .st164{filter:url(#Adobe_OpacityMaskFilter_34_);} .st165{filter:url(#Adobe_OpacityMaskFilter_35_);} .st166{mask:url(#SVGID_84_);fill:url(#SVGID_85_);} .st167{opacity:0.85;fill:url(#SVGID_86_);} .st168{fill:url(#SVGID_87_);} .st169{filter:url(#Adobe_OpacityMaskFilter_36_);} .st170{filter:url(#Adobe_OpacityMaskFilter_37_);} .st171{mask:url(#SVGID_88_);fill:url(#SVGID_89_);} .st172{opacity:0.85;fill:url(#SVGID_90_);} .st173{fill:#8C9499;} .st174{filter:url(#Adobe_OpacityMaskFilter_38_);} .st175{filter:url(#Adobe_OpacityMaskFilter_39_);} .st176{mask:url(#SVGID_91_);fill:url(#SVGID_92_);} .st177{opacity:0.4;fill:url(#SVGID_93_);} .st178{filter:url(#Adobe_OpacityMaskFilter_40_);} .st179{filter:url(#Adobe_OpacityMaskFilter_41_);} .st180{mask:url(#SVGID_94_);fill:url(#SVGID_95_);} .st181{opacity:0.4;fill:url(#SVGID_96_);} .st182{filter:url(#Adobe_OpacityMaskFilter_42_);} .st183{filter:url(#Adobe_OpacityMaskFilter_43_);} .st184{mask:url(#SVGID_97_);fill:url(#SVGID_98_);} .st185{opacity:0.4;fill:url(#SVGID_99_);} .st186{filter:url(#Adobe_OpacityMaskFilter_44_);} .st187{filter:url(#Adobe_OpacityMaskFilter_45_);} .st188{mask:url(#SVGID_100_);fill:url(#SVGID_101_);} .st189{opacity:0.4;fill:url(#SVGID_102_);} .st190{fill:#25384C;} .st191{fill:#395372;} .st192{fill:#141413;} .st193{fill:#232322;} .st194{fill:#1C1C1B;} .st195{fill:#0C0C0C;} .st196{fill:#353534;} .st197{fill:#1D2C3A;} .st198{fill:#17232D;} .st199{fill:#E5B7BD;} .st200{fill:#E5E1E1;} .st201{fill:#2D435E;} .st202{fill:#354C6D;} .st203{fill:#304156;} .st204{fill:#F4CF34;} .st205{fill:#F4DF87;} .st206{fill:#7F7E7E;} .st207{fill:#B7B6B6;} .st208{fill:#3B221D;} .st209{fill:#262628;} .st210{fill:#727272;} .st211{fill:#444443;} .st212{fill:#271F54;} .st213{fill:#752933;} .st214{fill:#404594;} .st215{fill:#272C6F;} .st216{fill:#E8BA36;} .st217{fill:#E8D6E8;} .st218{fill:#0E071B;} .st219{fill:#FFE14F;} .st220{fill:#151136;} .st221{fill:#FFFFFF;} .st222{fill:#B77E34;} .st223{fill:#E2A750;} .st224{fill:#513A20;} .st225{fill:#F9512B;} .st226{fill:#FFC73B;} .st227{fill-rule:evenodd;clip-rule:evenodd;fill:#585147;} .st228{fill-rule:evenodd;clip-rule:evenodd;fill:#0E0C11;} .st229{fill-rule:evenodd;clip-rule:evenodd;fill:#3E4243;} .st230{fill-rule:evenodd;clip-rule:evenodd;fill:#F9C4C9;} .st231{fill-rule:evenodd;clip-rule:evenodd;fill:#E5B7BD;} .st232{fill-rule:evenodd;clip-rule:evenodd;fill:#2B2E2C;} .st233{fill-rule:evenodd;clip-rule:evenodd;fill:#812925;} .st234{fill-rule:evenodd;clip-rule:evenodd;fill:#5B2D2C;} .st235{fill-rule:evenodd;clip-rule:evenodd;fill:#BDB8AA;} .st236{fill-rule:evenodd;clip-rule:evenodd;fill:#333029;} .st237{fill-rule:evenodd;clip-rule:evenodd;fill:#605548;} .st238{fill-rule:evenodd;clip-rule:evenodd;fill:#999487;} .st239{fill-rule:evenodd;clip-rule:evenodd;fill:none;stroke:#585147;stroke-width:0.3619;stroke-linejoin:round;stroke-miterlimit:10;} .st240{fill-rule:evenodd;clip-rule:evenodd;fill:#585147;stroke:#585147;stroke-width:0.3619;stroke-miterlimit:10;} .st241{fill-rule:evenodd;clip-rule:evenodd;} .st242{fill-rule:evenodd;clip-rule:evenodd;fill:#A59E90;} .st243{fill-rule:evenodd;clip-rule:evenodd;fill:#D0CBC0;} .st244{fill-rule:evenodd;clip-rule:evenodd;fill:#A3A9B8;} .st245{fill-rule:evenodd;clip-rule:evenodd;fill:none;stroke:#585147;stroke-width:0.3016;stroke-linejoin:round;stroke-miterlimit:10;} .st246{fill-rule:evenodd;clip-rule:evenodd;fill:#F49E14;} .st247{fill-rule:evenodd;clip-rule:evenodd;fill:#F7D854;} .st248{fill-rule:evenodd;clip-rule:evenodd;fill:none;stroke:#F49E14;stroke-width:0.3016;stroke-miterlimit:10;} .st249{fill-rule:evenodd;clip-rule:evenodd;fill:#894C35;} .st250{fill-rule:evenodd;clip-rule:evenodd;fill:#0E0C11;stroke:#0E0C11;stroke-width:0.1206;stroke-miterlimit:10;} .st251{opacity:0.2;} .st252{opacity:0.5;fill:#80868B;enable-background:new ;} .st253{opacity:0.6;} .st254{fill:url(#SVGID_103_);} .st255{fill:url(#SVGID_104_);} .st256{fill:url(#SVGID_105_);} .st257{fill:url(#SVGID_106_);} .st258{fill:url(#SVGID_107_);} .st259{fill:url(#SVGID_108_);} .st260{fill:url(#SVGID_109_);} .st261{opacity:0.3;fill:#FFFFFF;enable-background:new ;} .st262{fill:#F8F9FA;} .st263{fill:url(#SVGID_110_);} .st264{fill:#C5221F;} .st265{fill:url(#SVGID_111_);} .st266{fill:url(#SVGID_112_);} .st267{fill:url(#SVGID_113_);} .st268{opacity:0.3;fill:url(#SVGID_114_);enable-background:new ;} .st269{fill:url(#SVGID_115_);} .st270{opacity:0.8;fill:#E8EAED;enable-background:new ;} .st271{fill:#DADCE0;} .st272{fill:url(#SVGID_116_);} .st273{fill:url(#SVGID_117_);} .st274{fill:url(#SVGID_118_);}</style><path class="st0" d="M461.6 211.4v-83.6l-124.3-.1-16.2-.1v83.80000000000001m106.5 2.6h-394.6c-.5 0-.9-.1-1.3-.4-.4-.3-.5-.6-.5-.9v-148.70000000000002h3.6v61.1l139.5-.1v-61h3.6v61l139.4-.1v-60.9h3.6v60.9l16.2.1 124.3.1v-61.1h3.6v148.7c0 .4-.2.7-.5.9-.4.3-.8.4-1.3.4h-35.6zm-392.8-15.5v12.8h139.4v-83.7l-139.4.1v70.8zm282.6-12.3v-58.7l-139.6.1v83.69999999999999h139.6v-25.1z"/><radialGradient id="SVGID_1_" cx="246.347" cy="182.901" r="153.536" gradientUnits="userSpaceOnUse"><stop offset="0" stop-color="#BDC1C6"/><stop offset="1" stop-color="#9DA5AB"/></radialGradient><path class="st1" d="M31.1 211.7v-.2.2zm399.6-.3h-109.7v-25.1h2.9v3h.4v.3h.3v.2h.4v2.6h.7v1.5h1.1v-2.1h.3v-.5h.3v-.5h.5v-.7h1.8v-.5h1.6v-7.4h7.5v6.6h1v-.2h.4v.3h.4v1.6h.4v.5h.3v8.2h2.4v-1.5h.8l-.1-7h.7v-.8h.3v-15.4h11.5v3.1c0 1.3 0 2.5-.1 3.7h.4v7.7h.4v4.4h5.3v-1.5h1.7v-.5h.7l.1.5h2.7l.1 1.1h3.5v1.3h1.4v.4h2v-.4h1.2v-.3h1v-1.2h.4v-.5h.3v-.8h1.7v.8h.4v.5h.4v1.2h1.4v-.5h1.4v-2.8h8.4v-1.4h4.6v.8h.7v.5h7.3v-.8h1.5v-.8h1.4v-.2h.7v-.3h.7v-.2h.4v-.8h.3l.1.8h.7v-.8h.4v-.5h.4v-.3h.4v-.3h.7v-.2h1.1v-.5h2.4v-.3h1.7v.5h.4v-1h.4v-1.1h.7v1h.3v.5h.3v-3.1h4.9v3.1h.4v-.6h.3v-1.2h.8v1.2h.3v.6h.4v1.1h1v1.8h.4l-.1-6.2h1v-.3h1.4v-.3h1.7v-.3h1v-.5h1.1v.5h.4v-.6h1v.6h.7v-.1h1.1v.6h.7v-11.1h2.6v-.7h.7v-1.6h1.7v-.3h3.7v.3h2.4v.3h1.4v-.5h2v-1.1h4.5v.3h2.1v.2h1.1v3.3l2.1.1v40.699999999999996h-31.4zm-256.5-51.7v51.6h-139.4v-12.8h.4v-1h2.6v-19.5c.4-.3.9-.7 1.4-1.1.5-.4 1.1-.8 1.8-1.2h1.2c.3-.2.5-.5.7-.8h4.1v.9h1.4v-.2h.6v.4h3.2v1.1h-.3v2.8h3.8v-14.9l6.3-1.1v-.4h1v-.6h1.1v-.8h5.3v.3h1.6v.3h1.4v.30000000000000004h.7v.2h1.4v1c.5.1 1.2.2 2 .3l12 1.8v17.8c0 2 0 3.9.1 5.8h.6l-.1-2.6 3.2-.7c0-.1 0-.3.1-.7v-1.7h.30000000000000004v-.5h.7v-3.8h.4v-.8h1v-5.1h11.7v6.4h8.4v2.7c1.2 0 3.3-.1 6.2-.3 2.9-.2 6.7-.5 11.3-.9l4.8.7v-.6000000000000001h.4v-1.3h1v-.3h1.0999999999999999v-.3h.7v-.1h.4v-.8h3.8v-2.6h.4v-.3h.7v-.3h1.7v-6.7h7v3.4h1v-.3h2.8v-.2h3.9v.3h.7v.2h.3v.3h.4v1.3h.3v1.5h.7v1.8h.7v.3h.4v1h2.4v-.8h4.1v-17.6h.4v-.2h.4v-.3h.7v-.3h.6zm143.2 26.5v25.1h-139.6v-56.599999999999994h.7v-.3h4.6v-.5h1v.5h.7v-.5h.7v.8h3.8v.2h.7v2.6l1.1.1v1h1.6v.3h4.6v3.7h7.1v9.2h5.5v.3h.4v.2h.4v.3h.3v8h.7v-.2h1.8v-.5h.7v-1h2.1v.3h.7v-.5h2.5v-21.7l9.5-.3 4.2 3.6v5.5c0 1.7 0 3.4-.1 4.9h4.5v3.6h1.8v-.8h2.8v.8h1v-1.8h.4v-1h.4v-.5h1.8v-.5h1.7v.5h8.5v.3h1v-.5h1.7v.5h.7v-1.3h2.1v-.3h1v-.5h11.6v.3h2.9v.7h.3v.3h3.2v.2h2.1c1.2.6 2 1 2.1 1.1v3.1h1v.6h.4v1.5h.6v-.5h.7v-.3h.7v-1.3h.3v-.2h.5v-.3h.5v.3h.4v.2h.4v1.3h1.1v.3h2.1v.5h1l.1.3h.7v.3h.4v2.1h5.8999999999999995v.30000000000000004h3.8v.3h2.4v17.3h2.4v-2.3h2.5v-.3h.7v-3.8h2.5v-4.6h1.6z"/><radialGradient id="SVGID_2_" cx="667.318" cy="185.204" r="153.536" gradientTransform="translate(9.061)" gradientUnits="userSpaceOnUse"><stop offset="0" stop-color="#BDC1C6"/><stop offset="1" stop-color="#9DA5AB"/></radialGradient><path class="st2" d="M461.2 214v-.2.2zm395.7-13.3c0 .1-.1.1-.1.1-.1 0-.2 0-.4-.1h-.30000000000000004c-.2 0-.3 0-.3.1v.1l.1.2c.2.2.3.4.2.5h-.2l-.4-.1h-.5c-.3 0-.6.1-.7.4h-.4c-.3-.5-.7-.8-1.4-1h.1-.2l1.1 1-.6-.1h-1.6l1.4.1 1.2.2h-.1c-.2 0-.3 0-.4.1-.1.1 0 .2.1.4-.1.1-.1.2-.1.3 0 .1.2.2.5.2h.1c.1 0 .2 0 .3-.1h.1c.1 0 .3 0 .3.1.1 0 .1.1.1.2h-.2c-.5 0-.7.2-.8.5-1-.5-1.9-.8-2.8-.8h-.9c1.4.1 2.3.3 2.8.8h-.30000000000000004c-.3 0-.4.1-.6.2-.2-.1-.3-.1-.4-.1h-.2c-.1 0-.2.1-.2.2-.1.1-.2.2-.4.2h-.4c-.1 0-.2 0-.2.1-.1.1 0 .3.2.6l-.3-.1h-.1c-.2 0-.3.1-.4.2-.1.2.1.4.6.7h-1.2c-.2 0-.3 0-.3.1 0 0-.1.1 0 .1.3.1.4.1.5.2 0 .1-.1.1-.2.2-.4.1-.6.2-.6.3 0 .1.1.1.2.2.1 0 .1 0 .2.1 0 0 0 .1-.1.2-.2.1-.3.1-.3.2s.2.1.5.2c-.2.1-.3.2-.3.3 0 .1.2.1.4.2-.1.1-.1.2-.1.3.1.2.4.3.9.4l-.1.1v.1l.1.1h.2c0 .1 0 .2.1.2l.2.1h.4l.7-.4c0 .1-.1.3-.3.4-.4.1-.6.2-.6.3 0 .1.2.2.7.4-.3.1-.4.3-.4.4 0 .2.3.3.8.5l-.1.2c0 .1 0 .1.1.1h.4l.3-.1.1.1.2.1v.3c0 .1 0 .2.1.2l.2.1h.1c.1 0 .2 0 .4-.1.2.2.4.2.7.2h.4c.1 0 .2 0 .2.1h.30000000000000004c.1 0 .2 0 .2-.1l.1-.1h.4c.1 0 .2 0 .3-.1.1.1.2.1.3.1h.2c.1 0 .3-.1.4-.4h.30000000000000004c.1 0 .2 0 .3-.1 0 .1.1.2.3.2h.1c.1 0 .1 0 .2-.1l.2-.1c-.1.3 0 .4.1.5 0 0 .1.1.2.1h.1c.2 0 .5-.2 1-.4.1.1.3.2.6.2h.4c.2.2.3.3.5.3h.1c.2 0 .3-.1.5-.2h.5l-.2.6h-2.4.1c.4.4.6.8.8 1.1h-109.6v-25.1h2.9v3h.4v.3h.3v.2h.4v2.6h.7v1.5h1.1v-2.1h.3v-.5h.3v-.5h.5v-.7h1.8v-.5h1.6v-7.4h7.5v6.6h1v-.2h.4v.3h.4v1.6h.4v.5h.3v8.2h2.4v-1.5h.8l-.1-7h.7v-.8h.3v-15.4h11.5v3.1c0 1.3 0 2.5-.1 3.7h.4v7.7h.4v4.4h5.3v-1.5h1.7v-.5h.7l.1.5h2.7l.1 1.1h3.5v1.3h1.4v.4h2v-.4h1.2v-.3h1v-1.3h.4v-.5h.3v-.8h1.7v.8h.4v.5h.4v1.2h1.4v-.5h1.4v-2.8h8.4v-1.4h4.6v.8h.7v.5h7.3v-.8h1.5v-.7h1.4v-.3h.7v-.3h.7v-.2h.4v-.8h.3l.1.8h.7v-.8h.4v-.5h.4v-.2h.4v-.3h.7v-.2h1.1v-.5h2.4v-.3h1.7v.5h.4v-1h.4v-1.1h.7v1h.3v.5h.3v-3.1h4.9v3.1h.4v-.6h.3v-1.2h.8v1.2h.3v.6h.4v1.1h1v1.8h.4l-.1-6.2h1v-.3h1.4v-.3h1.7v-.3h1v-.4h1.1v.5h.4v-.5h1v.6h.7v-.4h1.1v.6h.7v-11.1h2.6v-.7h.7v-1.6h1.7v-.3h3.7v.3h2.4v.3h1.4v-.5h2v-1.2h4.5v.3h2.1v.2h1.1v3.3l2.1.1v40.699999999999996h-22.9c.2-.3.5-.7.8-1.1h-2.1c-.4-.5-.6-.9-.6-1.2.1.2.2.3.3.3h.1c.1 0 .3-.1.5-.2.1-.1.2-.2.3-.2.1 0 .2 0 .3.1.1.2.3.3.4.3h.4c.1.1.2.2.4.2h.1c.1 0 .3-.1.5-.2.3.2.5.3.6.3h.30000000000000004s0-.1.1-.1v-.2l-.2-.3v-.2h.30000000000000004l.2.2h.30000000000000004c.1 0 .2-.1.3-.3h.30000000000000004c.1 0 .2 0 .2-.1v-.1s0-.1-.1-.1c-.1-.1-.1-.1-.1-.2 0 0 0-.1.1-.1l.4.1h.4c.2 0 .4-.1.5-.3h.5c-.4.3-.6.5-.6.6 0 0 0 .1.1.1h.8c-.1.3 0 .5.2.6.1.1.3.2.4.2h.1c.2 0 .4-.1.6-.4.1.1.2.1.4.1 0 .1-.1.2-.1.2v.1h.2c.1 0 .2 0 .3-.1l.3-.1c.1.1.3.2.4.2h.1c.2 0 .4-.1.6-.2h.30000000000000004c.2 0 .3 0 .3-.1.1-.1.2-.3.2-.5l.3.1h.4c.1 0 .2 0 .2-.1.1-.1 0-.2-.1-.4h.2c.2 0 .3-.1.3-.2h.1c.2 0 .3 0 .3-.1.1-.1-.1-.3-.5-.6h.1c.4 0 .6-.1.7-.2 0-.1-.3-.2-.9-.4-.1 0-.2-.1-.2-.1 0-.1 0-.2.2-.2.8-.2 1.3-.4 1.3-.5 0-.1-.1-.1-.4-.2.2-.2.2-.3 0-.4.1 0 .2-.1.2-.1 0-.1 0-.1-.1-.2.3-.1.5-.2.5-.2 0-.1-.2-.2-.5-.3.4-.1.6-.2.6-.4 0-.1 0-.1-.1-.2h-.8c-.1 0-.2 0-.2-.1v-.1c.1 0 .2-.1.2-.2s0-.2-.2-.2c.2-.2.2-.4.2-.5-.1-.1-.2-.1-.5-.1h-.6000000000000001c.3-.3.4-.6.3-.8-.1-.1-.2-.2-.4-.2 0-.1.1-.2.1-.2v-.1h-.30000000000000004c-.1 0-.1 0-.2.1h-.3c-.3 0-.5-.1-.6-.2 0-.1 0-.2-.1-.3-.1-.1-.2-.1-.4-.1h-.2c-.2-.1-.2-.3 0-.4l.7-.5.1-.1h-.1l-.1.1h-.1l-.7.4c-.1-.2-.4-.3-.8-.3h.1c.2 0 .3-.1.4-.1.1-.1.1-.1 0-.2-.4-.1-.7-.2-.8-.2v-.30000000000000004c0-.1-.1-.1-.2-.1h-.6000000000000001v-.2c0-.1 0-.1-.1-.2h-.2c-.2 0-.4.1-.8.4l-.2.1c-.1 0-.1 0-.1-.1l.1-.4c-.1-.3-.3-.4-.4-.4h-.30000000000000004l-.1.1-.1.1s-.1 0-.1-.1c-.3-.2-.5-.3-.6-.3h-.1c-.1 0-.2.1-.3.2l-.2-.1c-.1-.1-.2-.1-.2-.1h-.1c-.1 0-.3.1-.4.2h-.5v.1h-.30000000000000004v-.1l-.1-.1h-.3c.2-.1.3-.2.2-.3 0-.1-.3-.1-.7-.1.1-.1.1-.2 0-.3-.1-.1-.2-.1-.4-.1h-.2c0-.2-.2-.3-.5-.2h-.3c-.2-.2-.3-.3-.5-.3h-.1c-.1 0-.3.1-.4.2-.1.1-.2.2-.3.2h-.2c-.3-.3-.6-.4-.8-.4h-.1c-.2 0-.4.1-.6.4l-.3-.1h-.4c-.3 0-.5.1-.5.4l-.3-.1h-.6000000000000001c-.3 0-.5.1-.6.4h-.30000000000000004c-.1 0-.2.1-.3.2h-.5c-.2-.2-.4-.2-.6-.2h-.1c-.1 0-.2 0-.4.1l-.4-.1c-.2-.1-.4-.1-.6-.1h-.2c-.2 0-.4.1-.6.2-.1 0-.2 0-.4-.1h-.4m-253.8-38.3v51.6h-139.4v-12.8h.4v-1h2.6v-19.5c.4-.3.9-.7 1.4-1.1.5-.4 1.1-.8 1.8-1.2h1.2c.3-.2.5-.5.7-.8h4.1v.9h1.4v-.2h.7v.4h3.2v1.1h-.3v2.8h3.8v-14.9l6.3-1.1v-.4h1v-.6h1.1v-.8h5.3v.3h1.6v.3h1.4v.30000000000000004h.7v.2h1.4v1c.5.1 1.2.2 2 .3l12 1.8v17.8c0 2 0 3.9.1 5.8h.6l-.1-2.6 3.2-.7c0-.1 0-.3.1-.7v-1.7h.30000000000000004v-.5h.7v-3.8h.4v-.8h1v-4.9h11.6v6.4h8.4v2.7c1.2 0 3.3-.1 6.2-.3 2.9-.2 6.7-.5 11.3-.9l4.8.7v-.6000000000000001h.4v-1.3h1v-.3h1.0999999999999999v-.3h.7v-.2h.4v-.8h3.8v-2.6h.4v-.3h.7v-.3h1.7v-6.7h7v3.4h1v-.3h2.8v-.2h3.9v.3h.7v.2h.3v.3h.4v1.3h.3v1.5h.7v1.8h.7v.3h.4v1h2.4v-.8h4.1v-17.6h.4v-.2h.4v-.2h.7v-.5h.6zm143.2 26.5v25.1h-139.5v-56.599999999999994h.7v-.3h4.6v-.5h1v.5h.7v-.5h.7v.8h3.8v.2h.7v2.6l1.1.1v1h1.6v.3h4.6v3.7h7.1v9.2h5.5v.3h.4v.2h.4v.3h.3v8h.7v-.2h1.8v-.5h.7v-1h2.1v.3h.7v-.5h2.5v-21.7l9.5-.3 4.2 3.6v5.5c0 1.7 0 3.4-.1 4.9h4.5v3.6h1.8v-.8h2.8v.8h1v-1.8h.4v-1h.4v-.5h1.8v-.5h1.7v.5h8.5v.3h1v-.5h1.7v.5h.7v-1.3h2.1v-.3h1v-.5h11.6v.3h2.9v.7h.3v.3h3.2v.2h2.1c1.2.6 2 1 2.1 1.1v3.1h1v.6h.4v1.5h.6v-.5h.7v-.3h.7v-1.3h.3v-.2h.5v-.3h.5v.3h.4v.2h.4v1.3h1.1v.3h2.1v.5h1l.1.3h.7v.3h.4v2.1h5.8999999999999995v.30000000000000004h3.8v.3h2.4v17.3h2.4v-2.3h2.5v-.6h.7v-3.8h2.5v-4.6h1.5z"/><linearGradient id="SVGID_3_" gradientUnits="userSpaceOnUse" x1="247.988" y1="233.705" x2="248.23" y2="58.252"><stop offset="0" stop-color="#F1F3F4"/><stop offset=".12" stop-color="#E3E6E8"/><stop offset=".276" stop-color="#CED1D5"/><stop offset=".478" stop-color="#C1C5CA"/><stop offset=".638" stop-color="#BDC1C6"/><stop offset=".929" stop-color="#fff"/></linearGradient><path class="st3" d="M321 64h140.5v61.1l-124.3-.1-16.2-.1v-60.9zm-143 0h139.4v60.9l-139.4.1v-61zm-143.2 0h139.6v61l-139.5.1-.1-61.1zm426.7 107.1v-.4l-2.1-.1v-3.3h-1.1v-.3h-2.1v-.3h-4.5v1.1h-2v.5h-1.4v-.3h-2.4v-.3h-3.7v.3h-1.7v1.6h-.7v.7h-2.6v11.1h-.7v-.4h-1.1v.4h-.7v-.6h-1v.6h-.4v-.5h-1.1v.5h-1v.3h-1.7v.3h-1.4v.3h-1l.1 6.2h-.4v-1.8h-1v-1.1h-.4v-.6h-.3v-1.2h-.8v1.2h-.3v.6h-.4v-3.1h-4.9v3.1h-.3v-.5h-.3v-1h-.7v1.1h-.4v1h-.4v-.5h-1.6v.3h-2.4v.5h-1.1v.2h-.7v.3h-.4v.3h-.4v.5h-.4v.8h-.7l-.1-.8h-.3v.8h-.4v.2h-.7v.3h-.7v.2h-1.4v.7h-1.5v.8h-7.3v-.8h-.7v-.8h-4.6v1.4h-8.4v2.8h-1.4v.5h-1.4v-1.2h-.4v-.5h-.4v-.8h-1.7v.8h-.3v.5h-.4v1.2h-1v.3h-1.2v.4h-2v-.4h-1.4v-1.3h-3.5l-.1-1.1h-2.7l-.1-.5h-.7v.5h-1.7v1.5h-5.3v-4.4h-.4v-7.7h-.4c0-1.1.1-2.4.1-3.7v-3.1h-11.5v15.4h-.3v.8h-.7l.1 7h-.8v1.5h-2.4v-8.2h-.3v-.5h-.4v-1.6h-.1v-.3h-.4v.2h-1v-6.6h-7.5v7.4h-1.6v.5h-1.8v.7h-.5v.5h-.2v.5h-.3v2.1h-1.1v-1.5h-.6v-2.6h-.4v-.2h-.3v-.3h-.4v-3h-2.9v-58.7l16.2.1 124.3.1v43.4zm-144.1 15.1h-1.5v4.6h-2.5v3.8h-.7v.3h-2.5v2.3h-2.4v-17.3h-2.4v-.3h-3.8v-.30000000000000004h-5.8999999999999995v-2.1h-.4v-.3h-.7l-.1-.3h-1v-.5h-2.1v-.3h-1.1v-1.3h-.4v-.2h-.4v-.3h-.5v.3h-.5v.2h-.3v1.3h-.7v.3h-.7v.5h-.6v-1.5h-.4v-.6h-1v-3.1c-.2-.1-.9-.5-2.1-1.1h-2.1v-.2h-3.2v-.3h-.4v-.7h-2.9v-.3h-11.6v.5h-1v.3h-2.1v1.3h-.7v-.5h-1.7v.5h-1v-.3h-8.5v-.5h-1.7v.5h-1.8v.5h-.4v1h-.4v1.8h-1v-.8h-2.8v.8h-1.8v-3.6h-4.5c0-1.5.1-3.1.1-4.9v-5.5l-4.2-3.6-9.5.3v21.7h-2.5v.5h-.7v-.3h-2.1v1h-.7v.5h-1.8v.2h-.7v-8h-.3v-.3h-.4v-.2h-.4v-.3h-5.5v-9.2h-7.1v-3.2h-4.6v-.3h-1.6v-1l-1.1-.1v-2.6h-.7v-.2h-3.8v-.8h-.7v.5h-.7v-.5h-1v.5h-4.6v.3h-.7v.3-27.4l139.6-.1v58.6zm-282.6 12.3v-70.7l139.4-.1v32.1h-.5v.3h-.7v.2h-.4v.2h-.4v17.6h-4.1v.8h-2.4v-1h-.4v-.3h-.7v-1.8h-.7v-1.5h-.3v-1.3h-.4v-.3h-.3v-.2h-.7v-.3h-3.9v.2h-2.8v.3h-1v-3.4h-7v6.7h-1.7v.3h-.7v.3h-.4v2.6h-3.8v.8h-.4v.2h-.7v.3h-1.1v.3h-1v1.3h-.4v.6000000000000001l-4.8-.7c-4.6.4-8.4.7-11.3.9-2.9.2-5 .3-6.2.3v-2.7h-8.4v-6.5h-11.7v4.9h-1v.8h-.4v3.8h-.7v.5h-.30000000000000004v1.7c0 .4 0 .6-.1.7l-3.2.7.1 2.6h-.6c0-1.9 0-3.9-.1-5.8v-17.8l-12-1.8c-.8-.1-1.5-.2-2-.3v-1h-1.4v-.2h-.7v-.30000000000000004h-1.4v-.3h-1.6v-.3h-5.3v.8h-1.2v.6h-1v.4l-6.3 1.1v14.9h-3.8v-2.8h.3v-1.1h-3.2v-.4h-.7v.2h-1.3v-.6h-4.1c-.2.3-.5.6-.7.8h-1.2c-.7.4-1.3.8-1.8 1.2-.5.4-1 .7-1.4 1.1v19.5h-2.6v1h-.4z"/><path class="st4" d="M861.4 231.1c.3-.3-10.5-.5-24.2-.5s-24.9.2-25.2.5c-.2.2 3.8.3 10.1.4 0 .2.6.4.6.4h-.2l-15.7 15.9-.4.4h-.1c-.7.2-1.3.4-1.3.4l-.2.7h.5v.1c-.3.2-2.7 1.5-4.6 2.5l-.8.4-1.5.9c-.1.1-.1.2-.1.3l-.3.2s-4-.5-1.6-2c1.1-.7 5-1.6 7.1-2l1.3-.3.2-.8s-.5 0-1.3.2c-2.4.3-7.5 1.1-10.4 2.7-2.6 1.4-3 2.6-2.7 3.4v.1l.1.1.1.2s0 .4 1.3.9c.5.2.9.4 1.2.5 0 0 .1 0 .2.1.2 0 .4.1.7.1s.1.1.4.1c0 0 .2.1.8.1h.6c.4 0 .8.1 1.1.1l.8.3c-.1.2-.4.6-.6.9l-.1.2c-.6.1-.9.2-1.3.4-.2.1-.4.3-.7.5h-.2c-.2 0-1.2.5-1.5.7-.3.2-.2.3.1.3h.1c-.4.2-2.2 1.4-1.9 1.8l.2.2c.7.3 2.2.3 2.2.3s1.4 0 2.8-.3h.30000000000000004c.2 0 .4-.1.5-.2 1.1-.4 1.9-1.6 1.9-1.8h.1c.2 0 .6-.1.8-.3.1-.2.2-.7.1-.7h-.2c.2-.2.4-.5.5-.5.1-.2-.1-.3-.4-.4l.2-.2c.3-.3.8-.6 1.3-.9l1.3-.3c.4 0 .8-.1 1.3-.1h.6c.6 0 1-.1 1-.1.4-.1.7-.1.7-.1.3 0 .6-.1.8-.1h.4c.5-.1 1.2-.3 2.3-.6 2-.6 3.3-1.3 3.3-1.3l.8-.4.3-.2h.1c3-1.6 5.1-3.4 6.3-5 1.2-1.7.9-3 .7-3.7l-.2-.4c.1-.1.3-.3.4-.5.1-.2 0-.3 0-.4.2-.1.4-.3.6-.5.8-.5 2.2-1.4 4.8-2.3 4.8-1.7 7.7-1.2 7.7-1.2 0 .2.1.2.1.2l-.3.2c-1.3.8-5.9 1.9-6.7 2.4-.3.2-.5.4-.5.5v.4c-.1 0 0 .3.2.4.2.1.7 0 1.1-.1h.1c.4-.1 1-.2 1.5-.3 1-.1 1.6.2 2 .3.4.1 3.3-.6 3.4-.6 0 0 .8-.3 1.7-.6.7-.3 1.9-1.5 2.9-2.3 0 0 .9-.5 1.1-.8.2-.2.2-.3.2-.3.7-.4 1.5-.8 2-1 .8-.3 2-1.4 2.3-1.7.2-.2.5-.6.7-1.1 0 0 1.1-2.1 1.1-1.9 0 .1.1.3.5.6s2 .4 3.4-.4-1.1-2.2-1.1-2.2 1.1 0 2-.1c.2 0 .3 0 .5-.1 4.7-.5 7.8-.6 7.9-.7zm-20.7 9.3zm.4-.3c.1-.1.2-.2.3-.2v.1c-.1.2-.6.4-.6.4l.3-.3zm-5-.3c-.1.2-.2.4-.5.6 0-.1-.2-.4.5-.6zm-25.9 14l.1-.3c.2-.1.4-.2.5-.3.1-.1.2-.4.4-.9.4-1.1 1-3 1-3l1.8-1.5 2.9-2.5c1.4-.2 2.5-.2 2.9-.2l.4.4-.1.4c-.2.8-.8 2.5-2.2 3.8-2.3 2.5-6.6 3.8-7.7 4.1zm15.5-22.3h4.6c0 .2.1.4.1.4h-.2l-17 13.6-.4.3c-.1 0-.1 0-.2.1h-.1l.3-.4 12.3-13.6h-.2c-.1 0 .5-.2.8-.4zm10.5.1h7.3s-2.3.5-4.9 1.1c-2.6.6-3.3 1.6-2.4 1.8.9.2 4.4-.8 4.4-.8s-.1.3-.8.8c-.7.5-2.8 2.6-2.8 2.6-1.8 1.1-1.2 1.7-1 1.9l.2.4s-.4.2-.6.4c-.2 0-.5-.1-1.1-.1h-.9c-1.3.1-3.3.4-6.1 1.3-3.1 1.1-4.7 2.1-5.5 2.7h-.1s0-.1-.2-.1-.4.1-.4.1-.1-.1-.3-.1l-.3.1s-.2-.1-.4.1c-.2.1-.3.5-.4.7-.5 0-1.4.1-2.5.2l15.3-13.1h-.2s.9-.2 1.4-.4c.7.4 1.5.4 2.3.4zM75.2 227.8s-41.8 36-55.6 29.2c-4.9-2.5 2.3-6.9 4.2-10.4 3-3.2 4.5-4 12.6-8.3 7.7-4 9.4-8.9 17.4-12l5.9-1.8 2.3.9 7.8-.3 5.4 2.8v-.1zM705.9 233.3c0-.1-.2-.2-.4-.3l-8.3-6.6c-.4-.3-1.3-.6-1.9-.6h-2.7l-.3-.3c-.4-.3-1.2-.5-1.8-.5h-5.6c-.6 0-.8.2-.4.5l.3.3h-3.1c-1.7-.9-4.4-1.7-6.5-1.6-2.1 0-3 .7-2.4 1.7h-4.5l-.3-.3c-.4-.3-1.2-.5-1.8-.5h-5.6c-.6 0-.8.2-.4.5l.3.3h-2.6c-.7 0-.9.3-.5.6l23.7 18.9c.4.3 1.3.6 1.9.6l37.5-.2c.7 0 .9-.3.5-.6l-15.1-11.9zm-28.2-7.4h-.9l-.4-.3h.9l.4.3zM740.7 238.7c.9.7 1.6 1.4 2.3 2.2.3.3.6.6.8.9l.5.5.1.1c.2.1.3.2.5.4l1 .8c.4.3.5.6.3.9l.1.1v.2l-.3.2c-.2.2-.5.4-1 .5l.1.1.1.1v.4s.1.2 0 .2h-.4s0 .1.1.1l.1.1c.5.4 1.2 1 1.8 1.4.4.3.8.5 1.3.8l.1.1h.30000000000000004l.3.1h.30000000000000004s.1 0 .1.1c.3.1.5.3.6.4h.2l.1.1s.1 0 .1.1c0 0 .1 0 .1.1h.2l.3.1c.1 0 .2.1.2.1.2 0 .3.1.4.1l.9.2c.1 0 .2 0 .3.1.2.1.3.2.4.3.1.2 0 .3-.2.5l-.1.1c-1.1.9-4.3 2-7.8 1.4l-.6-.1c-.5-.2-.8-.4-.9-.5-.2-.3-.4-.7-.4-1.1h-.1l-.1-.1s0-.1-.1-.1c-.5-.1-1-.1-1.2-.1-.4-.1-1.1-.2-.5-.3h1.2l-.5-.3-.3-.2c-.1 0-.3 0-.4-.1v-.1h.1c-.1-.1-.2-.1-.4-.2h.1-.1l-.1-.1h-.2l-.2-.1-.2-.1c-.1-.1-.2-.1-.3-.1l-.2-.1c-.1 0-.3-.1-.4-.2l-.3-.1h-.1l-.1-.1v-.1h-.30000000000000004c-.1 0-.1 0-.2-.1-.6-.3-.8-.4-1.2-.7-.2-.1-.4-.3-.7-.4l-.1-.1h.2c.1 0 .2 0 .3.1.1.1.3.2.4.2-.3-.2-.6-.4-.8-.7-.1-.1-.1-.1-.1-.2v-.6c.1-.1.2-.2.4-.2l1.2-.1h.1v-.1s-.1 0-.1-.1l-.1-.1c-.2 0-.6-.1-.9-.1-.1 0-.1 0-.2-.1l-.7-.3h-.1c-.4 0-.7 0-1.1-.1h-.8c-.8-.1-2.9-.4-3.5-.5-.7-.1-1.3-.3-1.8-.4-1-.2-2-.5-2.9-.8l-1.5-.5c-.5-.2-.8-.4-.9-.6h-.1l-.4-.2s-.1 0-.1-.1c-.2-.1-.3-.1-.4-.2 0 0-.1 0-.1-.1 0 0-.1 0-.1-.1h-.1s-.1 0-.1-.1c0 0-.1 0-.1-.1 0 0-.1 0-.1-.1l-.1-.1-.1-.1c-.2-.2-.3-.4-.2-.6 0-.1.1-.1.1-.1v-.1s0-.1.1-.1h.1s.1 0 .1-.1h.1l.3-.1h.6l-.9-.5c-1-.5-1.9-1-2.7-1.5-.9-.5-1.9-1.1-2.4-1.8-.3-.4-.4-.7-.5-1 0-.3.1-.5.4-.7l-.3-.5s0-.1-.1-.1l-.6-.9v-.1l-.2-.3-.7-1.4-.7-1.4-.8-1.5c-.1-.1-.1-.2-.1-.3l-.1-.2s0-.1-.1-.1l-.8-.6h.3l-.1-.2-.6-.1c-.5-.1-1-.1-1.6-.2l-2.3-.3h-.2v-.1h6.299999999999999s.1 0 .1.1l.2.1.2.1.1.1.2.1.3.3.2.1s.1 0 .1.1h.5l.8.6h-.1l3 2.2 2.2 1.6h.30000000000000004v-.2c0-.1 0-.2-.1-.2 0 0 0-.1-.1-.1 0 0 0-.1-.1-.1v-.1s0-.1-.1-.1c0 0-.1-.1-.1-.2l-.1-.1v-.1l-.1-.1-.5-.6-.1-.1-.1-.1-.1-.1-.1-.1s0-.1-.1-.1l-.2-.2-.1-.1v-.1l-.1-.1v-.1s0-.1-.1-.1c0 0 0-.1-.1-.1l-.1-.2-.1-.1-.1-.1-.8-.6h1.1c-.1-.1-.1-.2-.2-.2-.8-.2-1.5-.2-2.2-.3l-.7-.1h-.30000000000000004v-.1h4.4s.1 0 .1.1h.2l.1.1.2.1.1.1.2.2.3.3.2.1s.1 0 .1.1h.6l.8.6h-.1c.3.2.6.3.8.5.3.2.6.4.9.5.7.4 1.4.9 2 1.3l3.2 2c.4.3.9.5 1.4.8l1 .6h.1l1 .6c1.2.4 2.2.9 3.2 1.5.8.7 2.3 1.7 3.7 2.9z"/><path class="st32" d="M664.8 225.6h-6.3c-.7 0-1.2-.6-1.2-1.2v-1.3c0-.7.6-1.2 1.2-1.2h6.3c.7 0 1.2.6 1.2 1.2v1.3c.1.7-.5 1.2-1.2 1.2zM691.9 225.6h-6.3c-.7 0-1.2-.6-1.2-1.2v-1.3c0-.7.6-1.2 1.2-1.2h6.3c.7 0 1.2.6 1.2 1.2v1.3c0 .7-.5 1.2-1.2 1.2z"/><path class="st19" d="M653 178.6v43.8c0 .7.6 1.3 1.3 1.3h41.8c.7 0 1.3-.6 1.3-1.3v-43.8c0-.7-.6-1.3-1.3-1.3h-41.8c-.7 0-1.3.6-1.3 1.3z"/><linearGradient id="SVGID_4_" gradientUnits="userSpaceOnUse" x1="656.368" y1="200.504" x2="694.105" y2="200.504"><stop offset="0" stop-color="#E0F0EB"/><stop offset="1" stop-color="#C0E4EF"/></linearGradient><path class="st20" d="M656.4 181.9v37.2c0 .6.5 1.1 1.1 1.1h35.5c.6 0 1.1-.5 1.1-1.1v-37.2c0-.6-.5-1.1-1.1-1.1h-35.5c-.6 0-1.1.5-1.1 1.1z"/><circle class="st19" cx="675.2" cy="200.5" r="11.8"/><linearGradient id="SVGID_5_" gradientUnits="userSpaceOnUse" x1="688.105" y1="234.695" x2="707.661" y2="234.695" gradientTransform="matrix(.973 .232 -.232 .973 50.72 -189.497)"><stop offset="0" stop-color="#E0F0EB"/><stop offset="1" stop-color="#C0E4EF"/></linearGradient><circle class="st33" cx="675.2" cy="200.5" r="9.8"/><circle class="st21" cx="675.2" cy="200.5" r="2.6"/><path class="st19" d="M672.1 197c.2-.2.1-.4 0-.5l-.7-1c-.2-.2-.4-.2-.6 0-.2.2-.2.4 0 .6l.9.8c0 .2.2.2.4.1zM678.4 204c-.2.2-.1.4 0 .5l.7 1c.2.2.4.2.6 0 .2-.2.2-.4 0-.6l-.9-.8c-.1-.2-.3-.3-.4-.1zM671.7 203.5c-.2-.2-.4-.1-.5 0l-1 .7c-.2.2-.2.4 0 .6.2.2.4.2.6 0l.8-.9c.2 0 .3-.2.1-.4zM678.7 197.3c.2.2.4.1.5 0l1-.7c.2-.2.2-.4 0-.6-.2-.2-.4-.2-.6 0l-.8.9c-.2.1-.3.3-.1.4zM675.5 195.9c.2 0 .3-.2.4-.4l.2-1.2c0-.2-.2-.4-.4-.4s-.4.2-.4.4v1.2c-.1.1 0 .3.2.4zM675 205.2c-.2 0-.3.2-.4.4l-.2 1.2c0 .2.2.4.4.4s.4-.2.4-.4v-1.2c.1-.2 0-.4-.2-.4zM670.6 200.2c0-.2-.2-.3-.4-.4l-1.2-.2c-.2 0-.4.2-.4.4s.2.4.4.4h1.2c.2.2.4.1.4-.2zM679.9 200.8c0 .2.2.3.4.4l1.2.2c.2 0 .4-.2.4-.4s-.2-.4-.4-.4h-1.2c-.2-.1-.4-.1-.4.2zM678.4 197.3l-2.9 2.5.3-3.8h-.6l-.2 3.8-2.5-2.9-.4.4 2.5 2.9-3.8-.3-.1.6 3.9.2-2.9 2.6.4.4 2.8-2.6-.2 3.8.5.1.3-3.9 2.5 2.9.4-.3-2.5-2.9 3.8.2v-.5l-3.8-.3 2.9-2.5zM671.9 196.7c-2.1 1.8-2.3 5-.4 7.1 1.8 2.1 5 2.3 7.1.4 2.1-1.8 2.3-5 .4-7.1-1.8-2.1-5-2.2-7.1-.4zm6.1 6.8c-1.7 1.5-4.2 1.3-5.7-.3s-1.3-4.2.3-5.7c1.7-1.5 4.2-1.3 5.7.3 1.5 1.7 1.3 4.2-.3 5.7z"/><path class="st45" d="M676.5 193.9l.9.3-.7.9z"/><path class="st61" d="M670.9 217.6h10.2v4.9c0 2.8-2.3 5.1-5.1 5.1s-5.1-2.3-5.1-5.1v-4.9zm5.1 2.4c.6 0 1 .5 1 1 0 .4-.2.7-.5.9v2.6h-1v-2.6c-.3-.2-.5-.5-.5-.9 0-.6.5-1 1-1zM679.9 217.2h-1.2v-1.1l1.2-.5v1.6zm-1.8-2.7c-.5-.6-1.2-1-2-1s-1.6.4-2 1l-1.2-.5c.7-1.1 1.9-1.8 3.2-1.8 1.3 0 2.5.7 3.2 1.8l-1.2.5zm-4.7 1.6v1.1h-1.2v-1.5l1.2.4zM677.9 214.9l4.5-1.8c.3-.1.5.1.6.3.1.3 0 .5-.2.6l-4.5 1.8c-.3.1-.5-.1-.6-.3-.2-.2-.1-.5.2-.6zM685.1 211.9l4.4-2.2c.3-.1.5 0 .6.3.1.3.1.5-.2.7l-4.4 2.2c-.3.1-.5 0-.6-.3-.1-.3 0-.6.2-.7zM685.1 211.9l2.1-1 .4 1-2 1c-.3.1-.5 0-.6-.3-.2-.3-.1-.6.1-.7zM683.9 210.6l-1.7.8c-.8.4-1.2 1.1-1.1 1.9l1-.4c.1-.2.2-.4.5-.5l1.9-.9c.3-.1.5-.1.7 0l1-.5c-.6-.6-1.4-.8-2.3-.4zm-2.2 4.3c.6.6 1.5.9 2.3.5l1.7-.8c.8-.4 1.2-1.2 1.1-2l-1 .5c-.1.2-.2.4-.5.5l-1.9.9c-.3.1-.5.1-.7 0l-1 .4zM691.5 207.1l-1.7.8c-.8.4-1.2 1.1-1.1 1.9l1-.4c.1-.2.2-.4.5-.5l1.9-.9c.3-.1.5-.1.7 0l1-.5c-.7-.6-1.5-.8-2.3-.4zm-2.2 4.2c.6.6 1.5.9 2.3.5l1.7-.8c.8-.4 1.2-1.2 1.1-2l-1 .5c-.1.2-.2.4-.5.5l-1.9.9c-.3.1-.5.1-.7 0l-1 .4zM692.5 208.4l4.4-2.2c.3-.1.5 0 .6.3.1.3.1.5-.2.7l-4.4 2.2c-.3.1-.5 0-.6-.3-.1-.3 0-.6.2-.7zM698.9 203.6l-1.7.8c-.8.4-1.2 1.1-1.1 1.9l1-.4c.1-.2.2-.4.5-.5l1.9-.9c.3-.1.5-.1.7 0l1-.5c-.7-.6-1.5-.8-2.3-.4zm-2.2 4.2c.6.6 1.5.9 2.3.5l1.7-.8c.8-.4 1.2-1.2 1.1-2l-1 .5c-.1.2-.2.4-.5.5l-1.9.9c-.3.1-.5.1-.7 0l-1 .4zM674.2 214.9l-4.5-1.8c-.3-.1-.5.1-.6.3-.1.3 0 .5.2.6l4.5 1.8c.3.1.5-.1.6-.3.1-.2.1-.5-.2-.6zM668.1 210.6l1.7.8c.8.4 1.2 1.1 1.1 1.9l-1-.4c-.1-.2-.2-.4-.5-.5l-1.9-.9c-.3-.1-.5-.1-.7 0l-1-.5c.7-.6 1.5-.8 2.3-.4zm2.2 4.3c-.6.6-1.5.9-2.3.5l-1.7-.8c-.8-.4-1.2-1.2-1.1-2l1 .5c.1.2.2.4.5.5l1.9.9c.3.1.5.1.7 0l1 .4zM666.3 211.5l-4.5-1.8c-.3-.1-.5.1-.6.3-.1.3 0 .5.2.6l4.5 1.8c.3.1.5-.1.6-.3.2-.2.1-.5-.2-.6zM660.3 207.3l1.7.8c.8.4 1.2 1.1 1.1 1.9l-1-.4c-.1-.2-.2-.4-.5-.5l-1.9-.9c-.3-.1-.5-.1-.7 0l-1-.5c.6-.6 1.5-.8 2.3-.4zm2.2 4.2c-.6.6-1.5.9-2.3.5l-1.7-.8c-.8-.4-1.2-1.2-1.1-2l1 .5c.1.2.2.4.5.5l1.9.9c.3.1.5.1.7 0l1 .4zM658.6 208.2l-4.5-1.8c-.3-.1-.5.1-.6.3-.1.3 0 .5.2.6l4.5 1.8c.3.1.5-.1.6-.3.2-.2.1-.5-.2-.6zM652.6 203.9l1.7.8c.8.4 1.2 1.1 1.1 1.9l-1-.4c-.1-.2-.2-.4-.5-.5l-1.9-.9c-.3-.1-.5-.1-.7 0l-1-.5c.6-.6 1.4-.8 2.3-.4zm2.2 4.3c-.6.6-1.5.9-2.3.5l-1.7-.8c-.8-.4-1.2-1.2-1.1-2l1 .5c.1.2.2.4.5.5l1.9.9c.3.1.5.1.7 0l1 .4zM667 211.7l-2.1-.7c-.1.3-.2.6-.3 1l2 .8c.3.1.5-.1.6-.4.1-.3 0-.6-.2-.7z"/><path class="st62" d="M647.3 201.8h5.3v8.4h-5.3zM698.1 201.8h5.3v8.4h-5.3z"/><path class="st38" d="M85.6 151.3c.5 4.4-.6 6.8-.6 9.8-1.3-.6-2.5-1.1-3.4-1.6-.3 1.1-1.3 5.3-1.3 5.3 6.7 2.9 8.8 1.3 8.8 1.3 2.7-4-.5-15.2-.5-15.2-2.1 0-3 .4-3 .4z"/><path class="st190" d="M75.9 156.4c-.8 1.1-.7 6.1.6 7.7 0 0 3.7 1.2 4.9 1.5.5-2.4 1-4.8 1.3-5.9-4-2.1-6.8-3.3-6.8-3.3z"/><path class="st191" d="M82.1 165.9l1.4-6.2-2-.8-1.4 6.5z"/><path class="st192" d="M76.8 178.7s2.2-.2 2 2.4l-1.4.3-.6-2.7z"/><path class="st193" d="M73.5 178.7h3.2s1.7-.1 1.7 1.6c0 5 .2 7.1-1.4 7.1-2.5 0-.6-4.8-3.6-5.5 0 0-.7-.4-.7-1.3-.1-.6-.1-1.7.8-1.9z"/><path class="st194" d="M64.1 227h-6.3s-.4-1.7.9-3.9l4.3.1c0-.1 1.2 1.7 1.1 3.8z"/><path class="st195" d="M57.7 227h6.3v1h-6.3z"/><path class="st196" d="M58.5 225.2c0 .4 1.1.8 2.4.8 1.3 0 2.4-.4 2.4-.8s-1.1-.8-2.4-.8c-1.3 0-2.4.4-2.4.8z"/><path class="st194" d="M70.4 222.7s-.5 2.5-.1 4.3h11.9s.4-2.6-4.8-2.6l-3.3-2.2-3.7.5z"/><path class="st195" d="M70.3 228h4v-.7s1.6.7 3.9.7h3.9v-1h-11.8v1z"/><path class="st196" d="M77.7 224.4s.2 1.8 4.3 1.7c0 0-.5-1.6-4.3-1.7z"/><path class="st197" d="M76.2 181.1l.4 41.9s-3.2 1.6-6.3.3l-1.2-34.3h-.9l-4.4 34.5s-2.3 1.1-5.8-.2l3.5-42.1h14.7z"/><path class="st198" d="M76.4 207.2l.1 15.9s-3.2 1.6-6.3.4l-.7-21.3c1.7 6.7 5.4 5.7 6.9 5zM59.5 204.6c2.3 6.2 5.3 2.2 6.6 0l-2.4 18.8s-2.3 1.1-5.8-.2l1.6-18.6z"/><path class="st190" d="M64.7 153.7h5.6l.7 2.5h-6.7z"/><path class="st38" d="M69.8 153.9l.1 2.7-4.6.1-.1-3.6c1.9 1 3.8.9 4.6.8z"/><path class="st199" d="M65.2 153.2l-.1-2.8 4.6-.1.1 3.6c-.8.1-2.7.2-4.6-.7z"/><path class="st200" d="M64.8 155.9s3.2 1.4 5.8 0c0 0-1.1 3.7-2.2 4.8 0 .1-2.7-2.5-3.6-4.8z"/><path class="st201" d="M58.4 156.3s3-.6 6.2-1.3c1.5 2.2 2.5 3.1 3.6 4.4 1.4-1.7 1.7-3.1 2.1-4.4 1.4.2 4 .6 5.4 1.3 0 0 1.2 4.5.4 24.2 0 0-4.3 2.2-14.6.2 0 0-.4-9.6-1.7-15-1-5.8-1-6.3-1.4-9.4z"/><path class="st190" d="M65.6 158.1l-.2.9 2.8.6 2.7-.9-.1-.6 1.1.4.4-3c-.7-.1-1.4-.2-2-.3-.4 1.3-.8 2.7-2.1 4.4-1.1-1.3-2.1-2.3-3.6-4.4-.7.2-1.4.3-2.1.4l1.7 3.3 1.4-.8z"/><path class="st202" d="M62.8 155.2l1.9-1.5s2 4 3.6 5.7l-2.3-.9.3-1-1.6.5-1.9-2.8z"/><path class="st203" d="M72.1 155.2l-1.9-1.5s-.6 3.7-2 5.7l2.2-1.1-.1-.8 1.2.3.6-2.6z"/><path class="st191" d="M70.6 163.1l4.6-.2.2 2.2-2.1.6-2.5-.4zM61.8 163.3h4.5l.2 2.1-2.2.6-2.4-.6z"/><path class="st204" d="M73.2 164.8s-1.7.1-1.8-2.4c0 0 .8-.2 1.5-.9 0 0 .7.5 1.6.5-.1 0 .5 2.3-1.3 2.8z"/><path class="st205" d="M72.9 161.6l-1.3 2.2c.3.6.8.9 1.1 1l1.6-2.7c-.6-.1-1.2-.4-1.4-.5z"/><path class="st200" d="M66.3 163.2h-4.6l-.1-.8 4.7-.1z"/><path class="st190" d="M70 181.6h-.4c.2-10.8-1.5-22-1.6-22.1h.5s1.7 11.2 1.5 22.1z"/><path class="st202" d="M62.7 155.3c0 .2-.1.4-.2.5l-3.7.7c-.2 0-.4-.1-.4-.3 0-.2.1-.4.2-.5l3.7-.7c.2-.1.4 0 .4.3zM76 156.2c-.1.2-.2.4-.4.3l-3.3-1c-.2 0-.2-.3-.2-.5.1-.2.2-.4.4-.3l3.3 1c.2.1.2.3.2.5z"/><path class="st192" d="M61.4 181.1v-1.8s10.8.8 14.9-.2v1.9c-.1.1-7.6 1.6-14.9.1z"/><path class="st200" d="M68.1 179.6h3.3v2.2l-3.3.1z"/><path class="st206" d="M74.8 183.6c-.1-.1-.4-.5-.4-1.1 0-.6-.4-.6-.4-.6h-1.5c-.2 0-.4 0-.4.6 0 .7-.3 1.1-.3 1.1-.3.4-.4.8-.4 1.3 0 1.2.9 2.1 2 2.1s2-1 2-2.1c-.2-.4-.4-.8-.6-1.3zm-1.6 3c-.8 0-1.4-.7-1.4-1.5s.6-1.5 1.4-1.5c.8 0 1.4.7 1.4 1.5s-.6 1.5-1.4 1.5z"/><path class="st207" d="M75.2 183.6c-.1-.1-.4-.5-.5-1.1 0-.6-.4-.6-.4-.6s-1.2.1-1.5.1c-.2 0-.4 0-.4.7s-.2 1.1-.2 1.1c-.3.4-.4.9-.4 1.4.1 1.2 1 2.1 2.1 2 1.1-.1 1.9-1.1 1.8-2.3 0-.5-.2-1-.5-1.3zm-1.3 2.9c-.8 0-1.5-.6-1.5-1.4-.1-.8.5-1.6 1.3-1.6s1.5.6 1.5 1.4c0 .9-.5 1.6-1.3 1.6zM73.6 182.4c-.3 0-.5-.1-.5-.4v-.3c0-.2.1-.4.4-.5h.1c.2 0 .4.1.5.4v.3c-.1.2-.3.4-.5.5zm-.2-.9c-.1 0-.2.1-.2.2v.3c0 .1.1.2.2.2h.1c.1 0 .2-.1.2-.2v-.3c0-.2-.1-.2-.3-.2z"/><path class="st193" d="M73.8 182.8c0 .1-.1.1-.1.1-.1 0-.1 0-.1-.1v-.3c0-.1.1-.1.1-.1.1 0 .1 0 .1.1v.3z"/><path class="st208" d="M64.1 140.1s4.4.4 5.4.2c1.1-.1 4.4.3 4.4.3.4 2-.6 3.5-.6 3.5l-9.5 2.2-1.6.4c-.4-1.7-.8-3.5-.8-4.5 1.3-1.8 2.7-2.1 2.7-2.1z"/><path class="st38" d="M62.6 145.5l.7.6c.2-.4.3-.7.4-1.1.6-2.2.4-4.9.4-4.9 5.3-1.5 9.3.5 9.3.5-.2 2.5.6 7.9-1.3 10.7-.6.8-1.3 1.5-2.5 1.7-5.2.8-6.6-4.3-6.6-4.3s-1.6.4-2-2c-.3-1.9 1.6-1.2 1.6-1.2z"/><path class="st199" d="M73.3 144.2c0-1.4-.1-2.7 0-3.6 0 0-4-2-9.3-.5 0 0 .1 1.3-.1 2.9 2.2.9 5.6 1.9 9.4 1.2zM63.4 148.2c.4 1.3 2.1 4.5 5.7 4.3 1.9-.1 2.9-1.4 3.6-2.3-.2.4-.3.8-.6 1.2-.6.8-1.3 1.5-2.5 1.7-5.2.8-6.6-4.3-6.6-4.3s-1.3.4-1.8-1.2c.9 1.6 2.2.6 2.2.6z"/><path class="st201" d="M74.3 139s1.5-1.7 1.4-2.5c-.2-.8-1.2-1.9-1.2-1.9s-3.3-1.3-4.4-2.5c0 0-.6-.7-1.6.1-1 .9-3.9 2.3-5.2 2.6 0 0-.6.1-.8.5 0 0-2 2.7-3.1 3.7 0 0-1.6 1.5 1.7 2.3l13.2-2.3z"/><path class="st190" d="M69.5 131.9c-.3 0-.6.1-1 .4-1 .9-3.9 2.3-5.2 2.6 0 0-.6.1-.8.5 0 0-2 2.7-3.1 3.7 0 0-1.6 1.5 1.7 2.3l8.4-1.5c.3-3 .1-6.5 0-8z"/><path class="st202" d="M61.4 142.6l12.7-1.4.3-2.8s-7.6-2.2-13.4 2.2l.4 2z"/><path class="st209" d="M74 141.2s4.3 1.2.6 1.9c-3.7.8-10.2-.4-10.6-.8.1 0 7.2-1.1 10-1.1z"/><path class="st210" d="M74.4 142.8c-.6-.3-1.1-.7-1.6-1.1l-.5-.4c-.6 0-1.2.1-1.8.2 1.6.6 2.8 1.3 3.6 1.8l.6-.1c.1 0 .2 0 .3-.1-.3-.1-.5-.2-.6-.3z"/><path class="st204" d="M69.6 139.7s-1.7-.1-1.6-2.6c0 0 .8-.1 1.6-.8 0 0 .6.6 1.5.7.1.1.4 2.4-1.5 2.7z"/><path class="st205" d="M69.8 136.5l-1.5 2c.2.7.7 1 1 1.1l1.9-2.5c-.7-.1-1.2-.4-1.4-.6z"/><path class="st38" d="M59.5 175.4l.9-.8.8.1c.7-.3.9-.8 1.3-.9.3-.1.9-.5.9-.5.4.5-.2 1-.2 1h.1c.1 0 .2-.1.4-.1l.5-.1.4-.1.3-.1h.4c.2 0 1 .2 1.1.2h.2c.1.1.1.3 0 .5-.1.3-.5.3-.7.3-.1 0-.3-.1-.5-.1-.1 0-.1-.1-.3 0l-.3.1c-.2.1-.5.2-.7.2-.1 0-.1 0-.2.1 0 0 1.2.1 1.6.2.3 0 1.1.7 1.1.7.6.5-.2.8-.2.8s.1.1.1.2 0 .1-.1.2-.1.1-.2.1c-.2.1-.3.1-.5.1h-.2c-.1 0-.1 0-.2-.1l-.5-.2-.1-.1h-.9c.3.1.7.7 1.2.9l.2.1c.1 0 .1.1.1.2s-.1.1-.1.1c-.2.1-.4.1-.6.1-.1 0-.2 0-.3-.1l-.2-.1s-.1 0-.1-.1c-.6-.6-1.3-.8-2-.3-1.1.7-2.1-.5-2.1-.5l-.4-2z"/><path class="st211" d="M66.4 173.8h-.4c-.4 0-.7.3-.7.6l-.4 5.7-4.4-.3c-.4 0-.7.3-.7.6v.2c0 .4.3.7.6.7l4.4.3-.8 12.6c0 .4.3.6.6.7h.4c.4 0 .7-.2.7-.6l1.3-19.8c.1-.4-.2-.7-.6-.7z"/><path class="st193" d="M64.616 182.111l.016-.4 2.198.09-.016.4z"/><path class="st201" d="M56.8 166.2l2.8-2.5s.9-4.6-1.1-7.4c0 0-3.2 2.7-5.9 5.7.9.8 2.6 2.4 4.2 4.2z"/><path class="st38" d="M54.2 168.3l2.7-2.7c-1.6-1.8-2.6-2.8-3.6-3.6-2 2.2-4.6 5.3-4.5 6.6 0 0 0 3.6 11 8.7 0 0 .5-1.1.5-2.7l-6.1-6.3z"/><path class="st191" d="M58 165.1l-1.2 1.1s-3.8-3.6-4.6-4.2l1.7-1.8c-.1 0 3.1 2.9 4.1 4.9z"/><path class="st38" d="M88.8 143.6c-.3 0-.6.3-.6.7v-1.1c0-.4-.2-.7-.5-.7s-.5.3-.5.7v-.9c0-.4-.3-.7-.6-.7s-.6.3-.6.7v.8c0-.4-.3-.7-.6-.7s-.6.3-.6.7v4.9l-1.2-1.1c-.3-.3-.7-.3-1 0-.2.3-.2.7.1 1l2 2.5c.5.8 1.1 1.6 2.3 1.6 1.2 0 2.2-1 2.2-2.2v-5.5c.2-.4-.1-.7-.4-.7z"/><path class="st212" d="M813.5 172.6l-2.6 56.2h3.9l4.1-47.5v-8.7z"/><path class="st38" d="M818.9 144.4v4.6s-1.9-.7-3.6-1.9c.7-.9.9-4.4.9-4.4l2.7 1.7z"/><path class="st199" d="M816.1 143.8s.8 2.3 2.8 2.3v-2.3l-2.7-.6-.1.6z"/><path class="st38" d="M818.9 144.4v4.6s1.9-.7 3.6-1.9c-.7-.9-.9-4.4-.9-4.4l-2.7 1.7z"/><path class="st199" d="M821.7 143.8s-.8 2.3-2.8 2.3v-2.3l2.7-.6.1.6z"/><path class="st38" d="M814.6 137.3s-.4-.5-.8-.7c-.4-.1-.9.3-.7 1s.8 2.3 1.1 2.4c.3.1.4-.2.4-.2v-2.5zM818.9 131.2v13.2s-1 .1-2.1-.8c-1.1-.8-1.7-.8-2-1.8-.3-1-.3-5.6-.3-7 0-3.7 2.9-3.6 4.4-3.6z"/><path class="st213" d="M814.4 137.2s.2.1.3 0c.1-.1 0-2.9.4-3.8.3-.9 1-1 1.7-.8.6.2 1.2.5 2.2.5v-3.6s-3.2-.2-4.8 1.5c-1.2 1.2-.2 5.5 0 5.8 0 .4.2.4.2.4z"/><path class="st38" d="M823.1 137.3s.4-.5.8-.7c.4-.1.9.3.7 1s-.8 2.3-1.1 2.4c-.3.1-.4-.2-.4-.2v-2.5zM818.9 131.2v13.2s1 .1 2.1-.8c1.1-.8 1.7-.8 2-1.8.3-1 .3-5.6.3-7 0-3.7-3-3.6-4.4-3.6z"/><path class="st213" d="M823.4 137.2s-.2.1-.3 0c-.1-.1 0-2.9-.4-3.8-.3-.9-1-1-1.7-.8-.6.2-1.2.5-2.2.5v-3.6s3.2-.2 4.8 1.5c1.2 1.2.2 5.5 0 5.8-.1.4-.2.4-.2.4z"/><path class="st214" d="M818.9 149v23.6h-5.4s-7.4-22.9-6.6-23.6c.8-.7 8.4-1.9 8.4-1.9l3.6 1.9z"/><path class="st215" d="M818.9 149s-1.8 2.8-2.2 2.7c-.4-.1-2.8-4.3-2.8-4.3l1.7-.8 3.3 2.4z"/><path class="st216" d="M811.9 147.7s.7 3.7 2 5.8c1.3 2 5 2.8 5 2.8v16.3h-5.4s-4.4-11.8-4.4-12.5c0-.7 1.4-2.9.9-5.6l-1.2-6.2s1.3-.9 3.1-.6z"/><path class="st217" d="M811 147.7l5 25h-1.3l-5.1-24.7c0-.1.5-.4 1.4-.3zM809.9 163s3.2-2.7 8.9-2.7v1.6s-5.4-.1-8.4 2.5c-.2-.7-.5-1.4-.5-1.4z"/><path class="st214" d="M818.9 149v23.6h5.4s7.4-22.9 6.6-23.6c-.8-.7-8.4-1.9-8.4-1.9l-3.6 1.9z"/><path class="st215" d="M818.9 149s1.8 2.8 2.2 2.7c.4-.1 2.8-4.3 2.8-4.3l-1.7-.8-3.3 2.4z"/><path class="st216" d="M825.8 147.7s-.7 3.7-2 5.8c-1.3 2-5 2.8-5 2.8v16.3h5.4s4.4-11.8 4.4-12.5c0-.7-1.4-2.9-.9-5.6l1.2-6.2s-1.3-.9-3.1-.6z"/><path class="st217" d="M826.7 147.7l-5 25h1.3l5.1-24.7c0-.1-.5-.4-1.4-.3zM827.8 163s-3.2-2.7-8.9-2.7v1.6s5.4-.1 8.4 2.5c.2-.7.5-1.4.5-1.4z"/><path class="st216" d="M818.9 172.6v5h-5.7l.3-5z"/><path class="st217" d="M814.7 172.6h1.3v5h-1.3z"/><path class="st218" d="M814.4 228.8s.9 1.2.9 1.7-.1 1-2.2 1h-3s-.7-.4-.7-1l1.9-1.7h3.1z"/><path class="st212" d="M824.3 172.6l2.5 56.2h-3.8l-4.1-47.5v-8.7z"/><path class="st216" d="M818.9 172.6v5h5.6l-.2-5z"/><path class="st217" d="M821.7 172.6h1.3v5h-1.3z"/><path class="st218" d="M823.3 228.8s-.9 1.2-.9 1.7.1 1 2.2 1h3s.7-.4.7-1l-1.9-1.7h-3.1z"/><path class="st212" d="M817.2 180.2h3.4v3.8h-3.4z"/><path class="st214" d="M807.4 148.7s-13.4 5.5-9.4 17c2.4 7 13.7 9.4 13.7 9.4l.9-2.4s-8.6-4.5-9.4-7.4c-1.3-4.9 5.9-6.5 5.9-6.5s.9-7.9-1.7-10.1z"/><path class="st215" d="M812.6 172.7l-.9 2.4-1.9-.5 1.2-2.9z"/><path class="st219" d="M804.3 150.4l1.2 1.3s-2.5 2-3.2 2c-.7 0-1.6-.3-1.6-.3s.7-1.1 3.6-3zM800.2 154.1s1.3 1.1 1.3 1.2c0 0-.4.5-.5.5-.1 0-1.3-1-1.3-1l.5-.7z"/><path class="st220" d="M819.2 185.1l.2-1 4.1-2.1-4.7 1v.9h.2l.2 1.2zM818.5 185.1l-.2-1-4.1-2.1 4.7 1v.9h-.2l-.2 1.2z"/><path class="st221" d="M821.663 152.542l4.845.732-.418 2.769-4.845-.732z"/><path class="st222" d="M842.5 212.3s-.3 6.7 0 8.3c.3 1.6 0 2.5 0 2.5s-3.7-3.2-5.6-2.6-2.4 4.1.7 6c3.1 1.8 6 3.4 6 3.4s-3.5.3-3.3 1.2l7.7.6h10.2s1.7-1.4.3-1.6c-1.4-.2-3.1-.3-3.1-.3s6.3-4.5 5.5-7.1c-.8-2.6-3.7-2.1-4.7-1.3s-1.4 1.3-1.7 1.8c-.3.4 1.5-6.3 1.5-6.3l-13.5-4.6z"/><path class="st223" d="M852.3 191.6c-.1-.1-3.4-2.5-4.3-2-.9.4-2.4 1.5-3.8 1s-2.6-1.8-3.3-1.3-2.4 2.7-1.8 4.1c.6 1.4 6 5 6.7 7.6.7 2.6-.5 3.7-1.7 5.2-.6.8-2.6 2.7-1.7 6.2.9 3.6 3.7 13.7 4 15.4.3 1.7-.2 4.2.6 4.6.7.4 2.9.6 3.3 0 .3-.6-.2-1.1-.3-1.8-.1-.7-.6-12-.6-12l1.1.1v11.9s.1 1.8.5 1.9c.4.1 2.4.2 3-.1.6-.3.3-1.6 0-1.9-.3-.4-.5-.4-.6-1.2-.1-.7.5-6.4 1.4-8.7s2-6.2 2-7.2c0-.9 0-4.4-.7-5.5-.7-1.1-1.8-2.6-1.8-5.3s.2-7.7-.5-8.8c-.7-1.3-1.5-2.2-1.5-2.2z"/><path class="st222" d="M850.9 191.7s.8 1.4 1.1 1.7c.4.3 1.3.5 1.4 1.6.1 1.1-.5 3.8-2.5 3.5s-2.3-2.8-1.8-4.9c.6-2.1 1.2-2.9 1.8-1.9z"/><path class="st224" d="M839.9 190.4s0 .2.4.2.6-.5 1-.6c.4-.1 1.3 0 1-.5s-1-.8-1.5-.4c-.4.4-.9 1.2-.9 1.3z"/><path class="st222" d="M839.4 191.3s1.6 2.1 3 2.2c1.4.1 1.6 0 1.6 0s.4.2-.1.3c-.5.1-1.1.3-2.2-.2s-2.4-2-2.4-2l.1-.3z"/><circle class="st224" cx="847.1" cy="191.9" r=".5"/><path class="st225" d="M846 201.7s-2.2 2.4 2.6 2.8c4.8.4 5.7-.9 5.9-1.6.2-.8-.2-1.3-.2-1.3v-.3s.6 1.5.4 2.5l-.2 1s-1.9 1.8-5.4 1.6c-3.5-.3-3.9-1.5-3.9-1.5s-.5-1.1 0-2.2.8-1.1.8-1.1v.1z"/><circle class="st226" cx="850.3" cy="207.9" r="1.2"/><path class="st226" d="M850.1 206.7s-.2-.7-.1-.8c.1-.1.4-.1.4 0v.8h-.3z"/><path class="st214" d="M830.2 148.7s2.1.6 4.4 3.4c4.5 5.8 5.5 13.8 4.1 21.1-1.4 7.5-6.2 13.2-6.2 13.2l-2-1.2s3.4-7.8 3.7-13.8c.4-9-5.7-13.2-5.7-13.2l1.7-9.5z"/><path class="st219" d="M833.4 150.8l-1.1 1.3s2.4 2.8 2.8 2.9c.4.1 1.3 0 1.3 0s-.9-2.2-3-4.2zM837 156.2l-1.3.7.4.7 1.2-.7z"/><path class="st225" d="M843.2 203.5c-.4 0-.9 0-1.4-.1-1.9-.3-4.7-1.2-7.4-4.3-4.5-5-4.2-9.7-4-11l-1.1-.7c-1.1 0-7-.4-11.2-4-4.6-3.9-4-7.1-4-7.3l1.1.2-.5-.1.5.1s-.4 2.8 3.6 6.3c4.2 3.6 10.6 3.8 10.6 3.8h.2l1.9 1.2-.1.4s-.3 1.3 0 3.2c.3 1.8 1.2 4.4 3.7 7.3 4.8 5.4 10.2 3.8 10.2 3.8l-.1 1.1-2 .1z"/><path class="st38" d="M830.5 185.1s-1.5 1.3-1.7 1.7c-.2.4-1 2.4-.8 2.9.2.5.6.3.6.3s.1.4.3.5l.5-.2s.2.3.4.3l.5-.3s.4 0 .6-.1c.2-.1 1.2-1.1 1.4-2 .2-.9.3-1.9.3-1.9l-2.1-1.2z"/><path class="st215" d="M832.5 186.3l1-1.3-2.4-1.5-.7 1.6z"/><path class="st225" d="M813.2 173s.1-1.1 1.7-1.1c1.7 0 2.2 1.5 2 2.6-.2 1.1-1.5 2.1-1.5 2.1l-2.2-3.6z"/><path class="st38" d="M812.5 172.8s2 0 2.4.2c.5.2 2.3 1.2 2.5 1.7l-.3.6s.2.4.1.5c-.1.2-.5.2-.5.2s0 .3-.1.5c-.2.2-.6.1-.6.1s-.3.2-.6.3c-.2.1-1.6-.1-2.4-.7-.8-.5-1.4-1.3-1.4-1.3l.9-2.1z"/><path class="st227" d="M724.8 161.2c.1-.6.1-2.4-1.2-2.6-1.3-.2-2.8.4-2.8.4l.4 3.2 2.5-.3 1.1-.7z"/><path class="st228" d="M720 223.1c.2.7.3 1.7.8 2.5.2.4.5.8 1.1.8.1 0 .1.1.2.2.3.3.6.4.9.3.3-.1.5-.4.5-.8 0-.3 0-.6.3-.8.1-.1.2-.3.2-.5.1-.5.2-.9.2-1.4 0-.3-.2-.5-.3-.8 0-.1-.1-.2-.1-.4 0-.4-.3-.7-.6-.8-.3-.1-.6 0-.8.4-.1.1-.2.1-.3.1l-.7.1-.4.1c-.7-.1-1 .2-1 1zM708.8 223.1c.2.7.3 1.7.8 2.5.2.4.5.8 1.1.8.1 0 .1.1.2.2.3.3.6.4.9.3.3-.1.5-.4.5-.8 0-.3 0-.6.3-.8.1-.1.2-.3.2-.5.1-.5.2-.9.2-1.4 0-.3-.2-.5-.3-.8 0-.1-.1-.2-.1-.4 0-.4-.3-.7-.6-.8-.3-.1-.6 0-.8.4-.1.1-.2.1-.3.1l-.7.1-.4.1c-.6-.1-1 .2-1 1z"/><path class="st229" d="M714.7 198.2c-.5-.4-1.1-.5-1.7-.4-.4.1-.8.4-1 .9-.1.1-.2.2-.3.1l-2.4-.3c-.2 0-.4-.1-.5-.3-.6-.7-1.6-.9-2.3-.4-.1.1-.2.1-.2.2-.4-.9-1.1-1.1-1.9-1.2-.8-.1-1.5-.2-2.2.2-.3.2-.7.2-1 .3-.1 0-.1.2-.1.3.2 1 .3 2 .6 3l1.3 4.7 1.6 4.6 1.6 4.6c.6 1.7 1.2 3.3 1.7 5 .4 1 .7 1.9 1 2.9 0 .1.2 0 .3 0h3.7c.2 0 .2.2.3 0 .2-1.1.2-2.1.3-3.3.1-2.1.3-8.4.5-10.5v-.2c.3.1.6.1.8.2l.2.3c.1 0 .2.1.3.2.3.5.8 1 1 1.6l1.8 9.5c.3.8.3 1.5.5 2.3.1.2.5 0 .7 0h5c.2 0 .3.2.4 0 .5-1.7.7-3.5 1-5.3.5-3.3 1-6.6 1.6-9.9.2-1.4.6-2.8.9-4.3.1-.5.2-1.1.2-1.7.1-1.2.5-2.3.8-3.4l.2-.6-1.1-.3c0-.1 0-.3-.1-.5-.2-.7-.6-1.3-1.2-1.5-1.2-.5-2.4.4-2.7 2 0 .1-.1.3-.2.4-.2.3-.5.6-.8.8-.1.1-.1.2-.2.2h-.1v-1.1c0-1.2-.3-1.8-1-2.1-.8-.3-1.8-.1-2.2.7-.1.2-.2.5-.3.8l-.3 1.3c-.1.6-.1.6-.6.6v-.2c.1-1.7-.8-2.8-2.2-2.5-.8.2-1.3.8-1.5 1.7-.2.3-.2.4-.2.6z"/><path class="st230" d="M718 163.2h-3.3c-.2 0-.5 0-.8-.1-.7-.2-1.1-.6-1-1.4 0-.2 0-.3.1-.5v-.2h-.1c-.7-.1-1.4-.2-2-.3-.5-.1-1-.4-1.3-.8-.5-.6-1.1-1.4-1.2-2.5-.1-.7-.1-1.4-.1-2.2-.1-.2-.2-.3-.1-.5l.1-.4c0-.4.2-.6.4-.7.1-.1.2-.2.2-.3v-.7999999999999999c0-.5 0-1 .1-1.5.1-.9.2-1.5.4-2.2l.2-.9c.1-.3.1-.7.2-1.1.1-.7.3-1.5.4-2 .6-2.1 1.3-3.6 2.1-5 .1-.2.3-.5.5-.6.4-.3.7-.4 1.2-.5 1-.4 2.1-.6 3.4-.6.5 0 .9 0 1.5.1.9.1 1.6.3 2.6.7 1.3.5 2 1.3 2.3 2.4.2.8.3 1.7.5 2.8.2 1.4.3 3 .2 4.8 0 .3 0 .6-.3.9 0 0 0 .1-.1.2v.1c0 .1 0 .2-.1.4v.2c-.1.3-.1.6-.2.8-.1.6-.3 1.2-.3 1.8-.1 1-.1 2-.1 3v1.2c0 .6.2 1.2.5 1.9.3.8.5 1.5.5 2.3 0 .6-.3.7-.6.7h-.1c-.1 0-.2 0-.3-.1h-.2l-.3-.1s-.1 0-.1.1c-.1.1-.2.2-.3.2h-.1l-.1.1c-.2.3-.5.5-.9.6h-.1l-.8.1c-.9-.1-1.7-.1-2.5-.1z"/><path class="st231" d="M709.9 159.6c.5.2 1 .4 1.6.4.6 0 1.3.1 1.9 0 .8 0 1.6-.2 2.4-.3.4 0 .8-.1 1.2-.2.9-.2 2.1-.6 2.6-1.3.9-1.2 1.1-2.6 1.4-4.1.2-.9.4-1.7.4-2.6 0-.4.1-.7.4-1l.7-.5c.3-.2.4-.4.3-.6-.1-.3-.4-.4-.7-.3-.1 0-.2 0-.3.1-.1-.6-.5-.6-1-.3l.3-2.7c.2-.1.4-.2.7-.4.5-.2 1.2-.3 1.7-.2.3.1.5.2.6.5 0 .8 0 1.6.1 2.4 0 .1 0 .2-.1.3-.2.4-.5.7-.4 1.1 0 .1.1.1.2.2 0 .1 0 .2-.1.4-.2.9-.4 1.7-.5 2.6l-.1 4.8c0 .6.5 2.1.5 2.1-.1.9.2.9.2 1.7v.2h-.2l-.3-.1c-.3-.1-.9-.2-1.1.1l-.1.1c-.1 0-.1 0-.2.1s-.2.1-.2.2l-.1.1s0 .1-.1.1c-.1.1-.3.2-.4.2l-.9.1h-4.3l-1.8 1.4c-.6-.2-1-2-1-2.6 0-.5.3-1-.1-1l-2.1-.3c-.4-.1-.8-.3-1.1-.7l-.2-.2.2.2z"/><path class="st232" d="M720.6 203.7l.1 3.9v.4l.2 3.9.3 3.6c.1 1.3.2 2.5.4 3.8.1.7.1 1.3.1 2 0 .6.1.6.1 1.3h2c.7 0 .7.8.9 0l.8-4.7.7-4.4 1.1-6.7.6-2.7c.1-.7.2-1.3.4-2v-.5c-.3 0-.6 0-.9-.1-.1 0-.2-.2-.2-.3-.2-.6-.3-1.3-.8-1.6-.3-.2-.6-.5-1-.3-.1.1-.3-.1-.5-.2-.4-.1-.8 0-1.2.4l-.2.3c.5-.1.9-.7 1.3-.5l-.6 1.2-.3.2c-.2-.3-.3-.6-.5-1-.1.1-.2.2-.2.4-.1.2-.1.4-.2.5-.2.5-.3.5-.7.4-.5-.1-1.1-.2-1.6-.2l-1.9-.3-1.4-.2-2.4-.2-1.1-.1c-1.5 0-2.9 0-4.4-.1l-2.1-.1c-1.2 0-2.4-.4-3.6-.7-.8-.2-1.5-.4-2.3-.7h-.3c.1.7.2 1.4.4 2 .3.7.4 1.6.6 2.3.1.2-.4-1.5 2.8-.8 2.9.6 13.4 1.4 14 1.4.6.3 1.1.4 1.6.4z"/><path class="st233" d="M721.1 149.5l.5.1c.1 0 .2-.1.2-.1.3-.6.5-.5.8-1 .2-.6.5-1.1 1-1.5.3-.3.6-.5 1.1-.4.2 0 .3-.7.3-.9 0-.6.1-1.2 0-1.8 0-.7-.1-1.5-.3-2.2-.1-.7-.5-1.4-.9-2-.1-.2-.4-.4-.7-.6-1.1-.6-2.3-1-3.5-1.3-1.7-.4-3.3-.4-4.9 0-.6.1-1.2.3-1.6.8-.1.1-.2.2-.2.4-.1.3-.1.5.3.6.5.1 1 .1 1.5 0l3-.6c.6-.1 1.2-.1 1.8 0 1.2.2 1.4.9 1.4 1 .3 1.3.4 7.2.4 7.4v.1c-.1.6-.1 1.2-.2 2z"/><path class="st232" d="M713 222.4c.2-1.2.3-2 .3-3.2.1-2 .3-8.2.5-10.2l.1-.5c.3.2.4.3 1.1.5l.2.1c.3.5.7 1 .9 1.6.7 1.7 1.3 7.7 1.9 9.5l.2.8s-1.6-9.5-1.8-10.5c-.3-.9-.1-1.2-.4-1.8-.2-.4.7-.1-1.1-.5-1.8-.3-4-1.6-4.9-2.6-.1-.1-.2-.1-.3-.1.1.5.1.9.1 1.4.1 1.1 1.1 14 1.1 15 0 .5 0 .6.4.6.6-.1 1.2-.1 1.7-.1z"/><path class="st234" d="M712.8 227.3c.4-1.1.2-2.1.1-3.1h-.1c-.5.4-1.1.3-1.6 0-.7-.4-1.3-.3-2.1 0-1 .4-2 .7-3 1l-3.2.9c-.4.1-.5.4-.5.7 0 .2.3.6.6.7.2.1.5.1.7.1 1.2 0 2.5-.1 3.7-.2.9 0 1.8-.1 2.6-.1h2.8zM723.9 227.4c.3-1 .1-2.1.1-3.2l-.3.4c-.2.3-.4.3-.6.1-.6-.4-1.2-.5-1.9-.5-.3 0-.7 0-.9.2-.9.6-1.9.8-2.9 1.2-.3.1-.6.2-1 .4-.3.1-.5.4-.5.7 0 .3.3.6.5.7l.4.1h2.2c.9 0 1.7-.2 2.6-.1l1.6.1c.3-.1.5-.1.7-.1z"/><path class="st230" d="M722.2 151.1c.1 0 .3 0 .4-.1 1-.6 1.8-1.4 2.1-2.5.1-.5.2-1 0-1.5-.2-.7-.8-.8-1.5-.4-.8.5-1.2 1.3-1.7 2-.3.4-.3.9-.3 1.4.1.6.5 1.1 1 1.1z"/><path class="st235" d="M716.8 202h-2.9000000000000004c-1.5 0-3-.1-4.5-.2-1.6-.2-3.1-.4-4.7-.8-1.3-.4-2.3-.9-3.1-1.6-.8-.7-1.8-1.6-2.4-2.7-.5-1-1.1-2.1-1.3-3.4-.4-2.1 0-4.1.4-5.8.4-1.6.8-3.3 1.4-5.1l1.3-4.2.5-1.5c.1-.4.2-.7.4-1.1v-.1c-.6-.1-1.1-.4-1.4-.9h-.1l-.9-.1c-.3-.1-.5-.1-.7-.1h-.5c-.6-.2-1-.6-1.2-1.2-.2-.6-.1-1.3.3-1.8.4-.6.9-1.1 1.4-1.7.8-1 1.7-2 2.9-2.8.6-.4 1.3-.9 2.1-1.4.7-.4 3.5-1.4 4.6-1.6h.8c.7 0 1.8 0 3.5-.2h.1c.2 0 .6.2 1 .5.2.1.6.3.7.4.2-.1.6-.5.8-.7.7-.6 1-.8 1.2-.9 4.5-.5 8.6-1 8.6-1 1.5.3 2.6 1 3.5 2.2l.5.6c.9.8 1.3 1.8 1.4 3v4.2l.3 1.7c.2 1 .4 2.1.6 3.2.4 2.4.6 4.8.6 7.2.1 3.9-.2 7.5-.9 10.9-.4 2.2-1.3 3.6-2.5 5.3l-.2.3c-.3.4-.6.9-1.1 1l-.8.1-.5.1c-1.6.2-3.3.3-4.9.3-.7 0-1.5 0-2.3.1-.6-.2-1.3-.2-2-.2z"/><path class="st236" d="M707.6 164.9l1.2-.3 2.1-.3c.2 0 .4-.1.4-.3l.1-.3c.1-.3 0-.5-.3-.5-.7.1-1.4.2-2.1.5-.6.2-1 .7-1.5 1.1.1 0 .1.1.1.1z"/><path class="st237" d="M697.8 171c-.4.3-.7.7-.8 1.3v.3c.1.3.3.6.6.5.3 0 .6-.3.6-.6 0-.2.1-.4.3-.6 1.8-1.4 4.3-1.5 5.9 1.1 0 .1.1.2.1.2.2.3.5.4.8.3.3-.1.4-.5.3-.8 0-.1-.1-.2-.2-.3-.8-1.3-4.2-3.3-7.6-1.4z"/><path class="st238" d="M721.6 162.6l1-.5c.4-.3 1.1-.3 1.6-.2l.9.2c1.4.2 2.5.9 3.4 2 .2.3.5.6.8.9.6.6.9 1.3 1.1 2.1.2.9.1 1.7 0 2.6 0 .7-.1 1.4 0 2.1l1.1 6.6c.2 1.6.4 7.2.4 8.4 0 2.7-.4 5.4-.9 8-.4 2-1.2 3.3-2.4 5-.2.3-.5 1-.8 1.1l-4.1.4c-1.5.1-2.9.2-4.4.2-4.2 0-8.3.2-12.5-.6-1.3-.2-2.5-.5-3.7-1.1-.8-.4-1.5-1-2.2-1.6-.9-.8-1.4-1.7-1.9-2.7-.1-.2-.2-.4-.2-.5.2 0 .3.1.4.2 1 .7 2 1.3 3.2 1.6l3.2.6h.2c-.1-.5-.3-.9-.4-1.3-.4-1.8-.3-3.6-.2-5.5.3-3.3.9-6.6 1.9-9.8 0-.1 0-.2.1-.4-2.4.9-4.8 1.8-7.4 2.2 0-.1 0-.2.1-.3.5-1.6 1-3.2 1.6-4.9.1-.2.2-.3.4-.4l3.2-1.3c.5-.2.9-.4 1.2-.8.4-.5 1-.7 1.6-.7.4 0 .8-.1 1.3-.1.6-.1 1.1-.1 1.7.1.3.1.6.1.8.1 1.3-.3 2.6.8 2.5 2.2 0 .2 0 .3.2.4l3 1c.8.2 1.7.3 2.5.4.2 0 .4-.1.4-.3 0-.3 0-.5.2-.8l.7-1.3c0-.1.1-.2.2-.2.4-.1.7-.4 1-.7.5-.6 1-1.3 1.6-1.9 1.7-2.1 2.5-4.4 2.2-7.1-.1-.9-.4-1.8-.8-2.5-.6-1-3.8-.9-3.8-.9zm-3.9 21.4c-2.4-.6-3.9-2-6.3-2.8-.4-.1-.5 0-.6.4-.1.7-.2 1.4-.4 2.1 0 .1-.2.3-.3.4l-2.2 1.5-1.1.8c-.1.1-.1.2-.1.3-.4 2.5-.7 5.1-.6 7.7 0 .7.2 1.4.3 2 0 .2.1.4.3.6.3.4.6.7 1.2.7.8 0 1.6 0 2.4.1.6 0 .6 0 .7-.6h.2c1.7.5 3.4.6 5.1.6 1.2 0 2.3 0 3.5-.2.7-.1 1.2-.4 1.6-1 .7-1.1 1.2-2.3 1.2-3.7 0-1.7.1-3.4.2-5l.2-3.7v-.4c-1.5.3-3.8.6-5.3.2zm-9.4.5c.1 0 .1-.2.1-.3 0-.1-.1-.2-.1-.4-.1-.3 0-.4.3-.5l.9-.3.4-.1c.4 0 .4-.2.4-.5l.1-1.4c0-.2 0-.3-.2-.3l-1.4-.5c-.2-.1-.3 0-.3.1-.4 1.5-.9 3-1.3 4.4v.1c.4 0 .7-.2 1.1-.3z"/><path class="st239" d="M707.3 185.1c-.9 3-1.2 8.2-1 10.2.2 2 1.4 3.4 2.1 3.9"/><path class="st240" d="M717.3 168.4c-.1.4.1.6.3.9.2.2.7.2.9 0 .2-.3.4-.2.6-.2.4.2.8.3 1.2.6.9.7 1.7 1.4 2.5 2.1.8.7 1.5 1.5 2.1 2.4.1.2.3.3.5.5.3.2 1.2 1.4 1.4 1.2.2-.2.8-1-.2-2.6-.4-.6-1.5-1.5-2-2.1-1.3-1.5-4-2.9-4.8-3.2-.8-.5-2.4-.6-2.5.4z"/><path class="st241" d="M700.8 198.2c.2.7.4 1.7.7 2.4 0 .1.1.2.2.2 1.8.5 3.6.9 5.4 1.1l4.3.3c1.5.1 3 .2 4.4.2l6.5-.1c1.6 0 3.2-.1 4.7-.2l1.1-.1c.1 0 .2-.1.2-.2.2-.7.4-1.3.5-2 .1-.3-.1-.4-.4-.4-.2 0-.5 0-.7.1l-4.7.4c-2.6.2-5.1.1-7.7.1-2.4-.1-4.9-.2-7.3-.4-1.5-.1-3-.4-4.5-.6-.8-.3-1.7-.5-2.7-.8z"/><path class="st236" d="M705.9 186.2c.3-.2.6-.3.8-.5.9-.6 1.8-1.1 2.6-1.7l.1-.1c.6-.2.7-.7.8-1.3l.7-3.4c0-.2 0-.4-.2-.5l-1.8-1.3c-.4-.2-.7-.3-1.1-.1-.7.3-1.1.7-1.4 1.4-.7 1.5-1.2 3-1.5 4.6v.3c.3.9.6 1.7 1 2.6z"/><path class="st238" d="M702.8 173.7l.7.1c-.2-1.1.4-1.9 1-2.7.5-.6 1-1.3 1.3-2 .3-.8.9-1.5 1.6-2.1.2-.2.3-.3.4-.5 0 0-.1 0-.1.1-.9.6-1.8 1.2-2.6 1.9-.2.1-.3.3-.4.5-.6 1.5-1.2 2.9-1.7 4.4-.1 0-.1.1-.2.3zM725.9 163.3s-.7-.4-3.7.8c-2.9 1.2-4.3 2.2-4.3 2.2l-.9-1s-1.1.4-2.4.4c-1.3-.1-2.3-.3-2.6-.6-.4-.3-.6-.4-.6-.4l.2-1.2.9-1 1.1 1.6 1.2-.4 1.6-.7s1.1-.4 1.1-.3c0 .1 3.7-.6 3.7-.6s2.9-.6 3-.5c.1.1 1.3.6 1.3.7 0 .1.4 1 .4 1z"/><path class="st242" d="M713.9 164.1c-.2-.9-.5-2.1-.8-2.1-.4.1-.4.5-.6.6-.2.1-1 .7-1 1.1 0 .4-.4.8-.4.8s1.6.2 2.3.2c.6-.1.5-.6.5-.6z"/><path class="st243" d="M713.3 161.5c-.3.1-.9.2-1.2.5l-.2.2-.8 1.8c-.1.2-.1.3-.1.5 0 .1.1.2.2.3.1-.1.2-.1.2-.2.3-.5.5-1.1.8-1.7l.1-.2c.6.8 1.2 1.7 1.9 2.6.3-.4.6-.7.9-1l.7-.9c.2-.2.6-.2.8 0 .1.1.2.3.3.5l.7 1.4c.1.1 0 .2.2.2 2.2-.8 4.3-1.6 6.4-2.7l.9-.5c.6-.3.8-.9.5-1.5l-.9-1.4c-.1-.2-.3-.7-.5-.8-1-.3-.4 0-.4.2.4.7-.1 1-.7 1.3-.6.3-1.2.5-1.8.6-1.1.4-2.2.7-3.3 1l-2 .5c-.1 0-.3.1-.3.2-.4.5-.8.9-1.1 1.4-.1.1-.1.2-.3.3l-.9-2.3c-.2 0 0-.1-.1-.3z"/><path class="st236" d="M709.9 170.3l1.8.1c.2.1.3.2.4.3l.4.3c.2.1.4 0 .5-.2.6-1 1.2-1.9 1.6-2.9l.6-2.2c0-.1.1-.2.2-.2l1.5-.5c.3-.1.3-.2.2-.5-.2-.3-.4-.6-.5-1-.1-.2-.2-.2-.3-.1-.1.1-.2.1-.4.1-.5.2-.7.4-1.3.3-.4-.1-1-.1-1.5-.1 0-.1-.2-.1-.2-.1-.1-.1-.2-.3-.3-.3-.1 0-.1.1-.2.2-.2.2-.3.5-.4.8 0 .1 0 .2.1.3.1.2.2.3.3.4 0 .1 0 .3.1.4 0 .2-.3.8-.6 1.1-.7.9-1.7 2.7-2 3.8z"/><path class="st239" d="M706.7 170.6c-.8-1.3-4.1-3.4-7.4-1.6"/><path class="st236" d="M727.8 165.5c.6-.1 1.2-.4 1.6-.8 0 0 .1-.2 0-.3-.1-.2-.2-.4-.4-.6-.8-.8-1.7-1.4-2.8-1.8-.2-.1-.4-.1-.6 0-.3.2-.7.4-1 .5-.2.1-.2.2-.1.4.1.1.2.3.4.4.8.6 1.7 1.3 2.6 1.9.1.2.2.2.3.3z"/><path class="st239" d="M717.4 168.1l1.4-1.9c.5-.4 1.6-.5 2.3-.2.7.3 3.5 1.7 4.8 3.2l2 2.1c1 1.6.4 2.4.2 2.6l-1.1 1.8"/><path class="st230" d="M697.3 172.1c.2-.2.6-.6 1-.9 1.6-.9 3.3-1 5-.4.9.5 1.3 0 1.4-.1.1-.1.2-.3.2-.4.1-.2-.1-.6.1-.6.7-.3 1.9-.4 2.7-.3 1 .1 1.9.4 2.9.7.6.2 1.2.5 1.7.8.5.4 1.1.4 1.6.1l.6-.3c0 .2-.1.3-.1.4 0 .1.1.2.1.2l.2-.1.1-.1c.1-.1.2-.1.2-.2.1-.5 1.2-1.6 1.4-1.8.8-.8 1.4-1.1 2.7-.6 2.3.8 4.4 1.9 6 3.7.7.8 1.3 1.6 1.6 2.6v.5c-.8 1.6-1.8 3-3 4.3-1.3 1.4-2.9 2.2-4.7 2.7-.5.1-1.1.2-1.6.1-1.6-.3-3-1-4.4-1.7-1.1-.6-2.1-1.3-3.2-2l-1.5-1c-.1-.1-.3-.1-.4 0-1 .4-1.9.9-2.9 1.2-1.5.5-3 1-4.5 1.4-.5.2-1 .1-1.6 0-1-.2-1.6-.9-2.2-1.6-.5-.6-.8-1.2-.9-1.9.1 0-.4-2.2 1.5-4.7z"/><path class="st231" d="M717.6 168.3c1.6.4 3.4 1.5 4.3 2.3.7.6 1.3 1.2 1.9 1.9.2.2.2.3 0 .5-.9 1.7-2.1 3.2-3.4 4.6-.6.7-1.4 1.2-2.3 1.6-.3.2-.8.2-1.2.1-2-.4-3.6-1.5-5.1-2.7-.3-.2-.6-.4-.9-.7-1.3-.9-5.2-4.9-6-6.2-.5.4-.3 1.5-1.2 1.3l1.6.1c.1.8.5 1.5.8 2.2.2.5.5 1.1.8 1.6-.7.3-1.4.6-2.2.7-2.1.3-4.2.7-6.4 1l-.6.1c-.5.1-.8 0-1.1-.4-.4-.7-.5-1.6-.4-2.4v-.2c-.4.8-.6 1.7-.4 2.6l.1.7c0 .7.4 1.2.8 1.6.6.7 1.3 1.4 2.2 1.6.5.1 1.1.2 1.6 0 1.5-.4 3-.9 4.4-1.4 1-.4 2-.8 3-1.3.1-.1.3-.1.4 0 .4.2.7.4 1 .6 1.2.8 2.3 1.7 3.6 2.3 1.1.6 2.4 1 3.6 1.5 1.4.5 2.7.1 4-.4 1.7-.7 3-1.8 4.2-3.3.8-1 1.4-2 2-3.1.1-.2.2-.5.1-.7-.3-1-.9-1.8-1.6-2.6-1.7-1.8-3.8-3.3-6.1-4.1-.5-.2-1-.1-1.5.1.1.4.1.4 0 .5z"/><path class="st236" d="M724 170.4c-.3.6-.2 1 .2 1.3l1.2 1.1c.4.3.8.3 1.2.3.1 0 .2-.1.3-.2.6-.6.7-1.4.9-2.3l.3-1.2c0-.1.1-.2 0-.3l-.9-1.8-1.6.5c-.1 0-.2.1-.2.2l-.6 2.1c-.1.3-.1.5-.4.7l-.4-.4z"/><path class="st233" d="M708 156.3h.2c.2 0 .3-.1.3-.2.1-.5.2-1 .4-1.5 0-.1 0-.2.1-.3v1.9c.6.2.9.1 1.2-.4l.3-.4c.1.1.2.2.2.4.1.3.4.5.7.5h.1c.4 0 .8.1.9-.5 0 .1 0 .2.1.2.1.1.1.2.2.2.5.1.9.1 1.4.1v-3.4c0-.3-.1-.6-.2-.8-.2-.4-.7-.5-1.1-.5h-1.1c-.5 0-.5.2-1.4.1-.9-.1-1.2-.6-1.5.2-.4.9-.4 1.5-.5 2.4 0 .5-.1 1-.2 1.5-.1.2-.1.3-.1.5z"/><path class="st232" d="M714.6 208.5l-1 13.9h-2.7l.8-13.7.6-.6zM708.4 221.5h5.3v2h-5.3zM718.2 221.5h6.8v2h-6.8z"/><path class="st244" d="M706.3 199.8c0 .7.2 1.3.6 1.8.1.1.2.2.3.2 1.2.2 2.4.3 3.6.4h.5c.4 0 .5-.1.4-.5l-.3-1.6-.1-.5c0-.4-.2-.4-.5-.4l-4.1-.3c-.2 0-.3 0-.3.2l-.1.7z"/><path class="st235" d="M716 162.4l2-.5 3.3-1 1.8-.6c.6-.3 1-.6 1-1.3 0-.2 0-.2.1-.1.2.1.4.6.5.8l.9 1.4c.3.6.1 1.2-.5 1.5l-.9.5c-1.2.6-2.3 1.2-3.6 1.7l-1.2-2.7-3.7.7c.1-.4.2-.4.3-.4z"/><path class="st245" d="M728.3 173.5c.8-1 1.6-3.4 2-4.7"/><path class="st231" d="M714 169.7c-.5-.1-1-.1-1.4-.2-.4-.1-.9-.1-1.3.2-.3.2-.3.4 0 .7.1.1.2.2.2.3l.2.4c.2.3.2.7.6.9.5.3 1.1.6 1.7.4.4-.1.8 0 1.2.1h.5c.4 0 .6-.1.6-.5-.1-.8-.4-1.6-.9-2.2-.1-.1-.2-.1-.3-.1h-1.1z"/><path class="st246" d="M726.7 168.3c0 .3.2.5.5.5s.5-.2.5-.5-.2-.5-.5-.5-.5.3-.5.5z"/><path class="st247" d="M726.8 168.3c0 .2.1.3.3.3.2 0 .3-.1.3-.3 0-.2-.1-.3-.3-.3-.2 0-.3.1-.3.3z"/><path class="st248" d="M729.2 164l-2 1.1M709.1 163.4l-1.7 1.4"/><path class="st249" d="M722.1 224.4c-.5.8-2.4 1.6-3.8 2.1-1.3.4-2.1.1-2.3.1 0-.3.2-.5.4-.6.3-.1.6-.2 1-.4 1-.3 2-.6 2.9-1.2.2-.2.6-.2.9-.2.3 0 .6 0 .9.2zM702.9 226.6h-.5c0-.3.2-.5.5-.6l3.2-.9c1-.3 2-.6 3-1 .5-.2 1-.3 1.5-.2-1.3.6-3.9 2.2-7.7 2.7z"/><path class="st250" d="M724 227l-.1.4c-.2 0-.4.1-.7 0-.5 0-1 0-1.6-.1-.8-.1-1.7.1-2.6.1h-2.2c-.1 0-.3 0-.4-.1-.2 0-.3-.2-.4-.4h8zM712.9 227l-.1.3h-2.8c-.9 0-1.8.1-2.6.1l-3.7.2c-.2 0-.5 0-.7-.1-.2-.1-.4-.3-.5-.5h10.4z"/><path class="st4" d="M161 259.7c.6 1-2.5 2.6-3.4 3-.9.4-12.1 7.5-2.7 6.4.6-.1 2.5-.9 3.5-1.4v.1c.1.2.4.6 1 .6 1 0 5.1-.8 7.1-3.2 0 0-.1.1-.2.1 1.2-.9 3-2.4 2.6-2.5-.6-.2-.3-.4-.3-.4l1.3-.9s.5 0 1.1-.1h-.1s2.5-.3 6.3-2.3c3.7-2.1 6.7-3.5 6.6-3-.1.5-1.7 2.9-1.7 2.9l.4-.1c-.1.3-.3.9.1.9.5.1 1.3.5 1.9-.1.6-.6-.4-.3-.5-1.1h.3s3.3-4.5 1.7-4.6c-1.3-.1-6.1 2.4-8.1 3.4 1.9-1.5 3.3-2.8 3.9-3.3.5-.4 2-1.4 3.5-2.3.6-.1 1.1-.2 1.2-.3.1-.1 0-.2-.1-.3 1.4-.9 2.6-1.7 2.6-1.7h-.1c3.2-2.1 10-6.7 12.2-8.5 2.8-2.4 13.7-11.3 13.7-11.3l-.6.1c.4-.3.7-.4.7-.4 1.3-.4 2.8-.8 2.8-.8s.7-.2.9-.5c.2-.3-3.2.2-3.6.4-.4.1-1.3 1.1-1.3 1.1l-.7.4-1 .2s-8.2 6.2-10.5 7.8c-1 .7-3.7 2.6-6.5 4.6 4.3-4.3 12.1-13.1 12.1-13.1l-1.4.1.4-.4c1.4-.4 2.8-.9 2.8-.9s.7-.3.9-.6c.2-.3-3.4.3-3.8.4-.4.1-1.4 1.2-1.4 1.2h.3l-.3.3h-.5s-6.8 7.3-9.7 9.5c-2.1 1.5-12.1 9.3-12.8 10.4h-.1s-1.6 1.5-3.1 2.9c-1.8.4-3.6.9-4.2 1.1-1.2.5-5.7 4.8-7.2 6.2-.1-.7-1.3-1 .3-1.8 1.9-1 2.6-2.3 2.2-2.4-.4-.1-1.2.9-2.4.9-1.1.1-6.7 2.3-6.1 3.3zm6.9 1.7l-.2.2-1 .7c.4-.4.8-.7 1.1-1l.1.1zm2.1.1l.3-.2c-.1.1-.2.2-.3.2zm6.9-7.6c-.2.2-.4.4-.5.4-.3.2-2.1 1.3-4 2.5.8-1 1.9-2.2 2-2.3.1 0 1.1-.2 2.5-.6zm-10.1 6.6l.8.7-2.5 1.8c-.6.1-1.8.5-2.7 1-1.2.7-1.9 1.3-1.9 1.3s.2-.4 1.7-1.7c1.5-1.3 3.8-2.1 4.6-3.1z"/><path class="st38" d="M228.8 157.6s1.6-2.6 2.8-2.8c1.2-.2 3.6-1.2 3.4.2-.2 1.4-1.7.5-4.2 3.1-.2.1-2-.5-2-.5z"/><path class="st35" d="M213.4 151.4s4.1.6 6.3 5.2c2.2 4.6 4.4 7.8 5.4 6.7 1-1.1 3.7-6.5 3.7-6.5l3.1.8s-4.2 10-7.5 10.4c-3.3.3-7.6-8.8-7.6-8.8l-3.4-7.8z"/><path class="st38" d="M213.5 141s.8 7-.8 7.3c-1.5.4-1.4.9-1.4.9l.4 3.5s1.4 1.2 1.3 1.6c-.2.4-6.4.6-6.4.6l.7-3.8-.7-3.1-2-1.9s-1-1.3-1-2l1.2-4 3.3-1.4 2.9-.6 2.5 2.9z"/><path class="st39" d="M211.4 139.7s-1.6 1.6-4.1 1.3c0 0 .1 9-.7 11.4l-.6-5.9-.8-1.9s-.8.7 0 1.6c.2.2 1.1.3 1.1.3l.4 1.6s-2.7-.8-3.2-2.5-.6-2.9-.6-2.9-3.2-.1-3.6-1.9c-.4-1.5 1.3-5 3.3-4.2.4.2.9.5 1.4 1.1 0 0 .3-.3.8-.6.8-.6 2.1-1.3 3.2-1.3 1.8 0 7.5 1.9 5.7 7.2 0 .1-.9-2.8-2.3-3.3zM201.2 134.2c1.4.3 4 3.9 4 3.9l-2.3 4.6s-.6.9-1 3.9c-.4 3.1 2.6 4.8 1.2 7.4s-6 3-4.7 5.2c1.3 2.2-.5 5.1-1.4 5.3-.9.2-.1-2.1-2.3-2.1-2.2 0-7.5-4.9-4.1-7.2 3.4-2.2 1.4-5.9.7-6.8-.7-.8-4.9-16.8 9.9-14.2z"/><path class="st38" d="M219.1 203c0 .5-.2 8.3-.3 10.5-.1 2.2 1.7 10.2 1.7 10.2l-1.9-.3-2.8-20.4h3.3zM207 204s-4.8 17.1-5.2 20.8h1.6l7.3-21-3.7.2z"/><path class="st39" d="M218.5 175.9s3.6 16.3 3.4 21.7c-.2 5.3-.7 25.4-.7 25.4l-4.2-1.1s-.8-14-1.4-17.6c-.6-3.6-2.7-21.7-2.8-22.6-.2-.9 0-6 0-6l5.7.2zM207 174.8l9.5.4s-.9 8.4-1.5 15.1c-.6 6.8-8.5 33.2-8.5 33.2l-5.1-.4s4.4-16.5 4-21.4c-.3-3.5-.9-21 .4-23.5 1.2-2.5 1.2-3.4 1.2-3.4z"/><path class="st35" d="M214.5 152c-.9-.9-3-.7-3-.7s.7 1.4-1.7 1.7c-.4 0-2.6-1.3-2.6-1.3l-4.9 2.5s4.7 12 4.5 13.3c-.2 1.3-1.5 10.7-1.5 10.7l6.7.5 2.8.1 4.4-.4s-2.6-8.3-2.6-10.6c.1-2.2 2.1-11.3-2.1-15.8z"/><path class="st39" d="M223.8 225.6s-1.6-1.1-3.3-1.9c-.2-.1-1.9-.3-1.9-.3s-.6 2.3-.2 2.6c.4.3 5.4 1.5 5.8.8.4-.6-.4-1.2-.4-1.2zM207 226.2s-1.7-1.2-3.5-2c-.2-.1-2-.3-2-.3s-.6 2.4-.2 2.7c.4.3 5.8 1.6 6.1.9.3-.8-.4-1.3-.4-1.3z"/><path class="st38" d="M212.9 171.7s3.3-.7 3.6 0c.3.7-.5.7-.5.7s3.3.8 3.3 1.3-2.3 1.4-2.9 1.3c-.6-.1-3.8-1.9-3.8-1.9l.3-1.4z"/><path class="st35" d="M204.6 154.2c-1.4-.7-2.2 0-2.2 0s-2.6 13.9-1.2 15.1c1.4 1.2 11.8 5.3 11.8 5.3l.8-3.2s-10.1-4-10.1-4.3c0-.4 2.5-8.1 2.5-8.1s1.4-3.2-1.6-4.8zM204.6 137.5s-1.7 0-2.5 1.9.8 3.4.8 3.4-.4-1.8-.2-2.7c.5-1.6 1.9-2.6 1.9-2.6z"/></svg>