<?xml version="1.0" encoding="UTF-8"?>
<svg width="59px" height="41px" viewBox="0 0 59 41" version="1.1" xmlns="http://www.w3.org/2000/svg" xmlns:xlink="http://www.w3.org/1999/xlink">
    <!-- Generator: Sketch 55.2 (78181) - https://sketchapp.com -->
    <title>current</title>
    <desc>Created with Sketch.</desc>
    <g id="Page-1" stroke="none" stroke-width="1" fill="none" fill-rule="evenodd" stroke-linecap="round" stroke-linejoin="round">
        <g id="final" transform="translate(-422.000000, -1053.000000)" stroke="#171C28" stroke-width="2">
            <g id="Group-22" transform="translate(62.000000, 946.000000)">
                <g id="Group-20" transform="translate(0.000000, 67.000000)">
                    <g id="Group-6" transform="translate(331.000000, 0.000000)">
                        <g id="current" transform="translate(30.000000, 41.000000)">
                            <path d="M45.875,35.4583333 L2.125,35.4583333 C0.975,35.4583333 0.0416666667,34.5270833 0.0416666667,33.375 L0.0416666667,2.125 C0.0416666667,0.972916667 0.975,0.0416666667 2.125,0.0416666667 L45.875,0.0416666667 C47.025,0.0416666667 47.9583333,0.972916667 47.9583333,2.125 L47.9583333,33.375 C47.9583333,34.5270833 47.025,35.4583333 45.875,35.4583333 Z" id="Stroke-1" fill="#FFFFFF"></path>
                            <g id="Group-7" transform="translate(33.000000, 15.000000)">
                                <g id="Group-5">
                                    <polygon id="Stroke-1" fill="#BC0110" points="6.5 21.5 2.5 17.5 19.5 0.5 23.5 4.5"></polygon>
                                    <polygon id="Stroke-3" fill="#FFFFFF" points="0.5 23.5 6.5 21.5 2.5 17.5"></polygon>
                                </g>
                                <path d="M16.5,3.5 L20.5,7.5" id="Stroke-6"></path>
                            </g>
                            <path d="M5,12.5 L30.2868259,12.5" id="Stroke-11"></path>
                            <path d="M5,28.5 L11.7658592,28.5" id="Stroke-11-Copy"></path>
                            <path d="M16,28.5 L20.5269756,28.5" id="Stroke-11-Copy-2"></path>
                            <path d="M36.0539511,6.5 L5,6.5" id="Stroke-15"></path>
                        </g>
                    </g>
                </g>
            </g>
        </g>
    </g>
</svg>