<svg xmlns="http://www.w3.org/2000/svg" width="427.5" height="172" viewBox="0 0 427.5 172"><linearGradient id="a" gradientUnits="userSpaceOnUse" x1="161.065" y1="50.435" x2="357.94" y2="247.31"><stop offset="0" stop-opacity=".3"/><stop offset=".995" stop-color="#fff" stop-opacity="0"/></linearGradient><path fill="url(#a)" d="M296.012 54.75l-.012.25-200.25 60.75 56.25 56.25h261.251z"/><path fill="#FFBA34" d="M93 55v110h203v-110h-203zm5 4h193v101h-193v-101z"/><path fill="#fff" d="M94 59h197v101h-197z"/><path fill="#FFBA34" d="M102 63h184v93h-184z"/><path fill="#fff" d="M170.905 109.288c0-12.859 10.457-23.293 23.344-23.293 12.896 0 23.354 10.434 23.354 23.293 0 12.868-10.459 23.303-23.354 23.303-12.887 0-23.344-10.435-23.344-23.303z"/><linearGradient id="b" gradientUnits="userSpaceOnUse" x1="60.477" y1="38.22" x2="284.753" y2="262.495"><stop offset="0" stop-opacity=".2"/><stop offset=".995" stop-color="#fff" stop-opacity="0"/></linearGradient><path fill="url(#b)" d="M162.132 50.951l-.523 1.603-28.656-28.657-11.112 4.092-17.929-17.928-9.961 32.988-19.151-19.152-5.466 8.436-3.333 18.618-1.667 80.049 42.265 41h176.442z"/><path fill="#E27933" d="M113.125 80.145h-9.213v-70.084h-19.829v70.084h-9.283v-56.248h-19.83v97.83l-27.206-26.198-23.229 3.635 42.069 72.836h115.373v-120.878h-19.83v39.836h-9.194v-67.061h-19.828z"/></svg>