<svg xmlns="http://www.w3.org/2000/svg" width="311.145" height="168.084" viewBox="0 11.083 311.145 168.084" enable-background="new 0 11.083 311.145 168.084"><linearGradient id="a" gradientUnits="userSpaceOnUse" x1="70.579" y1="57.32" x2="257.186" y2="243.928"><stop offset="0" stop-opacity=".3"/><stop offset=".995" stop-color="#fff" stop-opacity="0"/></linearGradient><path fill="url(#a)" d="M116.376 11.521l-15.63 167.562h183.192z"/><path fill="#F7F7F7" d="M116.376 11.083h-116.043v168h155v-129.128z"/><path fill="#42C6BF" d="M29.333 46.083h82v7h-82zm0 22h52v6h-52zm0 22h67v6h-67zm0 21h82v7h-82zm0 22h52v7h-52z"/><linearGradient id="b" gradientUnits="userSpaceOnUse" x1="134.513" y1="60.591" x2="291.359" y2="217.437"><stop offset="0" stop-opacity=".15"/><stop offset=".995" stop-color="#fff" stop-opacity="0"/></linearGradient><path fill="url(#b)" d="M169.954 37.853l-28.134 37.711-36.397 14.116 89.504 89.403h116.218z"/><path fill="#fff" d="M110.333 55.475l44.034-17.391h5.99s4.083 9.512 4.355 10.328c.272.817-2.723 27.489-2.723 27.489l-22.052 18.781-15.483-3.27-14.123-14.431v-21.506z"/><path fill="#42C6BF" d="M138.218 23.166c-14.057 0-26.468 7.013-33.948 17.726-4.681 6.706-7.436 14.858-7.436 23.658 0 22.854 18.528 41.381 41.384 41.381 8.799 0 16.949-2.754 23.653-7.438 10.716-7.478 17.729-19.887 17.729-33.943 0-22.857-18.529-41.384-41.382-41.384zm-1.355 64.378l-5.611-16.833-16.832-5.61 16.777-8.389 28.107-14.051-14 27.999-8.441 16.884z"/></svg>