<svg xmlns="http://www.w3.org/2000/svg" width="423.49" height="216.889" viewBox="0 -13.057 423.49 216.889" enable-background="new 0 -13.057 423.49 216.889"><linearGradient id="a" gradientUnits="userSpaceOnUse" x1="72.734" y1="109.114" x2="243.167" y2="279.546"><stop offset="0" stop-opacity=".3"/><stop offset=".995" stop-color="#fff" stop-opacity="0"/></linearGradient><path fill="url(#a)" d="M268.25 159.825l-16.827 5.003-20.423-19.341-189.666 3.539-18 9.488-21.143 24.696 20.004 20.206h289.681z"/><linearGradient id="b" gradientUnits="userSpaceOnUse" x1="63.073" y1="21.788" x2="276.235" y2="234.949"><stop offset="0" stop-opacity=".3"/><stop offset=".995" stop-color="#fff" stop-opacity="0"/></linearGradient><path fill="url(#b)" d="M145.172 47.38l-110.188 2.495 153.211 153.541h112.805z"/><path fill="#82345B" d="M168.286 153.058l-133.528-103.307 48.587-62.801 133.528 103.307z"/><circle fill="#D37DA4" cx="125.844" cy="70.185" r="20.045"/><path fill="#82345B" d="M75.166 135.834l11.25-15.084 29.293-12.667 19.578-3.667h22.713l9.334 5.585v29.999s-6.833 3.537-9.499 5.436c-2.668 1.898-64.083 0-64.083 0l-18.586-9.602z"/><path fill="#D37DA4" d="M269.164 160.109c-.166-.391-.703-1.342-4.283-1.89-3.219-4.035-5.686-7.678-14.564-12.844-37.467-37.06-117.818-72.451-189.617-10.443-51.2 2.655-52.034 30.763-59.512 30.467-1.002 11.418-4.854 23.522 20.854 24.329 1.873-50.603 59.408-38.679 56.465 0h120.076c-6.268-39.818 53.645-50.676 54.82-3.204 15.126.094 18.909-9.883 15.761-26.415zm-112.137-23.648c-22.683 0-45.378.876-68.068.876v-12.063c20.23-16.968 47.732-19.212 68.068-16.388v27.575z"/><path fill="#82345B" d="M50.791 160.299c-12.406 0-22.473 9.608-22.473 21.488 0 11.857 10.066 21.479 22.473 21.479 12.4 0 22.467-9.622 22.467-21.479 0-11.88-10.067-21.488-22.467-21.488zm175.306 0c-12.406 0-22.461 9.608-22.461 21.488 0 11.857 10.055 21.479 22.461 21.479 12.408 0 22.459-9.622 22.459-21.479 0-11.88-10.051-21.488-22.459-21.488z"/><linearGradient id="c" gradientUnits="userSpaceOnUse" x1="246.125" y1="127.735" x2="407.269" y2="-33.408" gradientTransform="matrix(1 0 0 -1 -20.84 207.232)"><stop offset="0" stop-opacity=".2"/><stop offset=".995" stop-color="#fff" stop-opacity="0"/></linearGradient><path fill="url(#c)" d="M245.244 109.298l-31.202-13.349-8.033 2.824 29.672 29.672-26.744 9.405 65.15 65.15h149.403l-124.494-124.492z"/><path fill="#D37DA4" d="M294.775 72.09c-9.688-14.896-26.471-24.756-45.566-24.756-30.01 0-54.334 24.327-54.334 54.334 0 29.063 22.816 52.792 51.514 54.262.934.047 1.873.071 2.82.071 23.877 0 44.141-15.408 51.432-36.819.984-2.893 1.74-5.89 2.23-8.978.436-2.782.672-5.632.672-8.536-.001-10.912-3.233-21.064-8.768-29.578z"/><path fill="#82345B" d="M249.208 158.501c-.979 0-1.971-.024-2.949-.075-30.217-1.546-53.885-26.479-53.885-56.758 0-31.337 25.496-56.834 56.834-56.834 19.299 0 37.115 9.68 47.662 25.893 6 9.225 9.172 19.924 9.172 30.941 0 2.969-.238 5.971-.707 8.926-.494 3.146-1.277 6.307-2.33 9.395-7.841 23.034-29.463 38.512-53.797 38.512zm0-108.667c-28.582 0-51.834 23.254-51.834 51.834 0 27.617 21.584 50.354 49.139 51.766.898.045 1.801.067 2.695.067 22.193 0 41.91-14.114 49.064-35.125.957-2.815 1.674-5.696 2.125-8.562.428-2.699.645-5.438.645-8.146 0-10.047-2.893-19.805-8.361-28.214-9.623-14.79-25.871-23.62-43.473-23.62z"/><linearGradient id="d" gradientUnits="userSpaceOnUse" x1="257.049" y1="118.233" x2="313.953" y2="61.33" gradientTransform="matrix(1 0 0 -1 -20.84 207.232)"><stop offset="0" stop-opacity=".4"/><stop offset=".995" stop-color="#fff" stop-opacity="0"/></linearGradient><path fill="url(#d)" d="M300.64 119.182c.32-.943.609-1.902.881-2.869l-46.313-46.313-3 3.5-.25 11.5-5.393 14.667-15.857 2-13.5 6.333 46.133 46.133c17.498-4.705 31.502-17.926 37.299-34.951z"/><path fill="#fff" d="M280.876 95h-26v-25h-13v25h-25.001v13h25.001v26h13v-26h26z"/></svg>