<svg xmlns="http://www.w3.org/2000/svg" width="419.667" height="193.166" viewBox="0 0 419.667 193.166"><linearGradient id="a" gradientUnits="userSpaceOnUse" x1="152.468" y1="77.184" x2="375.684" y2="77.184"><stop offset="0" stop-opacity=".4"/><stop offset=".995" stop-color="#fff" stop-opacity="0"/></linearGradient><path fill="url(#a)" d="M247.737 66.123l-9.422-9.422-77.617 27.29 31.969 13.676z"/><linearGradient id="b" gradientUnits="userSpaceOnUse" x1="100.981" y1="-6.909" x2="591.356" y2="483.466"><stop offset="0" stop-opacity=".1"/><stop offset=".995" stop-color="#fff" stop-opacity="0"/></linearGradient><path fill="url(#b)" d="M348.089 1.702l-74.422 46.965-1.268 3.328-24.662 14.128-55.07 31.544-31.969-13.676-28.031-11.992-65 52.036-67.318-30.312 69.099 68.933-6.781 30.677h357v-120.112z"/><path d="M62.667 135.333h10v58h-10zm65-42h10v100h-10zm65 17h10v83h-10zm65-30h10v113h-10zm53.964-69.13l-21.862 5.407 13.703 8.27-106.296 66.365-65.362-26.311-64.732 52.118-62.098-32.482-4.634 8.861 67.902 35.517 65.268-52.547 64.638 26.021 110.439-68.954 1.549 15.343 14.334-17.554 23.775-29.11z" fill="#F8786B"/><linearGradient id="c" gradientUnits="userSpaceOnUse" x1="173.869" y1="70.04" x2="334.845" y2="231.016"><stop offset="0" stop-opacity=".2"/><stop offset=".995" stop-color="#fff" stop-opacity="0"/></linearGradient><path fill="url(#c)" d="M193.704 99.966l-31.203-13.349-8.033 2.824 29.672 29.671-26.744 9.239 65.15 64.982h149.402l-124.492-124.325z"/><path fill="#F8786B" d="M243.234 62.757c-9.689-14.896-26.472-24.757-45.567-24.757-30.008 0-54.334 24.327-54.334 54.334 0 29.061 22.816 52.793 51.513 54.263.935.047 1.875.071 2.821.071 23.877 0 44.142-15.408 51.432-36.819.984-2.893 1.741-5.891 2.229-8.978.439-2.781.672-5.631.672-8.537 0-10.911-3.229-21.063-8.766-29.577z"/><linearGradient id="d" gradientUnits="userSpaceOnUse" x1="184.667" y1="79.667" x2="241.571" y2="136.571"><stop offset="0" stop-opacity=".4"/><stop offset=".995" stop-color="#fff" stop-opacity="0"/></linearGradient><path fill="url(#d)" d="M249.099 109.849c.321-.944.609-1.902.88-2.871l-46.312-46.311-3 3.5-.25 11.5-5.393 14.667-15.857 2-13.5 6.333 46.133 46.133c17.497-4.706 31.502-17.926 37.299-34.951z"/><path fill="#fff" d="M229.667 85.333h-26v-25h-13v25h-25v13h25v26h13v-26h26z"/></svg>