<svg xmlns="http://www.w3.org/2000/svg" width="360.381" height="190.167" viewBox="0 0 360.381 190.167"><linearGradient id="a" gradientUnits="userSpaceOnUse" x1="73.732" y1=".334" x2="301.138" y2="227.74"><stop offset="0" stop-opacity=".2"/><stop offset=".995" stop-color="#fff" stop-opacity="0"/></linearGradient><path fill="url(#a)" d="M156.488 64.656l-41.655 33.922 91.696 91.589h114.179l-128.663-128.622-39.413-1.573-.432.396z"/><linearGradient id="b" gradientUnits="userSpaceOnUse" x1="172.06" y1="40.544" x2="361.86" y2="230.345"><stop offset="0" stop-opacity=".2"/><stop offset=".995" stop-color="#fff" stop-opacity="0"/></linearGradient><path fill="url(#b)" d="M320.708 190.167h39.673l-167.215-167.371-40.534 37.176 39.413 1.573z"/><linearGradient id="c" gradientUnits="userSpaceOnUse" x1="29.852" y1="44.214" x2="307.774" y2="322.137"><stop offset="0" stop-opacity=".2"/><stop offset=".995" stop-color="#fff" stop-opacity="0"/></linearGradient><path fill="url(#c)" d="M192.045 61.545l-39.413-1.573-41.485-1.657-7.647-7.648-45.786 5.514-9.063-.362 1.297 1.297-37.516 4.517 38.504 38.505-4.186 35.029 16.619 16.564-40.369 2.27 14.166 14.166h-18.166l-6 3.75 17.901 18.25h289.807z"/><path d="M47 72.167h9v63h-9zm34 0h9v63h-9zm34 0h8v63h-8zm-92 74h160v8h-160zm-10 17h180v9h-180zm-13 18h206v9h-206zm148-109h9v63h-9zm50.567-41.91c-9.689-14.896-26.472-24.756-45.567-24.756-10.958 0-21.151 3.255-29.686 8.836l-21.054-14.337-89.828 61.167h86.267c.688 28.45 23.226 51.482 51.48 52.93.935.047 1.875.071 2.821.071 23.877 0 44.142-15.408 51.432-36.819.984-2.893 1.741-5.89 2.229-8.978.439-2.782.673-5.631.673-8.536-.001-10.911-3.23-21.064-8.767-29.578z" fill="#42C5BE"/><linearGradient id="d" gradientUnits="userSpaceOnUse" x1="140" y1="47.167" x2="196.904" y2="104.071"><stop offset="0" stop-opacity=".4"/><stop offset=".995" stop-color="#fff" stop-opacity="0"/></linearGradient><path fill="url(#d)" d="M204.432 77.349c.321-.944.609-1.903.88-2.87l-46.312-46.312-3 3.5-.25 11.5-5.393 14.667-15.857 2-13.5 6.333 46.133 46.133c17.497-4.705 31.502-17.926 37.299-34.951z"/><path fill="#fff" d="M185 53.167h-26v-25h-13v25h-25v13h25v26h13v-26h26z"/></svg>