<svg xmlns="http://www.w3.org/2000/svg" width="395.667" height="203.832" viewBox="0 0 395.667 203.832"><linearGradient id="a" gradientUnits="userSpaceOnUse" x1="42.014" y1="32.52" x2="267.485" y2="257.991"><stop offset="0" stop-opacity=".4"/><stop offset=".995" stop-color="#fff" stop-opacity="0"/></linearGradient><path fill="url(#a)" d="M201.086 103.752l-195.54-34.764 67.694 67.773-13.871.955 66.156 65.95h175.475z"/><g fill-rule="evenodd" clip-rule="evenodd"><path fill="#82345B" d="M53.966 6.122l133.532 103.31-48.589 62.803-133.532-103.31z"/><circle fill="#D37DA4" cx="96.466" cy="89.363" r="20.045"/><path fill="#D37DA4" d="M222.088 180.292c-11.949 1.264-21.22 2.247-30.491 3.215-4.401.462-8.808 1.249-13.208 1.216-3.093-.022-6.258-.931-9.254-1.876-5.841-1.842-11.469-5.168-17.395-5.749-9.893-.971-19.963-.593-29.932-.186-12.609.511-23.441-3.501-32.833-11.62-8.392-7.256-16.594-14.729-24.878-22.109-4.172-3.717-6.357-7.989-2.391-13 3.933-4.967 8.55-3.998 13.197-.755 6.139 4.283 12.682 8.064 18.442 12.801 9.804 8.059 20.956 10.734 33.285 10.317 8.036-.273 16.101.066 24.116-.435 1.883-.119 3.621-2.534 5.428-3.891-1.85-1.341-3.615-3.678-5.561-3.842-6.894-.577-13.97.287-20.725-.864-2.781-.476-6.868-4.699-6.842-7.183.029-2.707 4.12-7.671 6.471-7.687 19.078-.145 38.213.044 57.216 1.553 5.03.398 11.482 4.639 14.139 9.02 7.65 12.609 13.692 26.192 21.216 41.075zm-43.421 23.374h50.92l.221-16.775-51.141 5.134z"/></g><linearGradient id="b" gradientUnits="userSpaceOnUse" x1="192.078" y1="80.163" x2="353.221" y2="241.306"><stop offset="0" stop-opacity=".2"/><stop offset=".995" stop-color="#fff" stop-opacity="0"/></linearGradient><path fill="url(#b)" d="M212.037 109.964l-31.203-13.349-8.033 2.825 29.672 29.672-26.744 9.404 65.15 65.15h149.402l-124.492-124.492z"/><path fill="#D37DA4" d="M261.567 72.756c-9.689-14.896-26.472-24.756-45.567-24.756-30.008 0-54.334 24.327-54.334 54.334 0 29.062 22.816 52.792 51.513 54.262.935.047 1.875.071 2.821.071 23.877 0 44.142-15.408 51.432-36.819.984-2.893 1.741-5.89 2.229-8.978.439-2.782.673-5.631.673-8.536-.001-10.912-3.23-21.064-8.767-29.578z"/><path fill="#82345B" d="M216 159.167c-.979 0-1.971-.025-2.949-.075-30.216-1.546-53.885-26.478-53.885-56.758 0-31.337 25.496-56.834 56.834-56.834 19.299 0 37.117 9.68 47.663 25.893 5.999 9.224 9.17 19.924 9.17 30.941 0 2.969-.237 5.971-.704 8.926-.496 3.146-1.28 6.307-2.33 9.394-7.844 23.035-29.465 38.513-53.799 38.513zm0-108.667c-28.582 0-51.834 23.254-51.834 51.834 0 27.617 21.585 50.354 49.141 51.765.895.045 1.8.068 2.693.068 22.193 0 41.912-14.115 49.064-35.125.959-2.815 1.674-5.697 2.127-8.562.426-2.698.642-5.438.642-8.146 0-10.047-2.892-19.804-8.361-28.214-9.62-14.79-25.871-23.62-43.472-23.62z"/><linearGradient id="c" gradientUnits="userSpaceOnUse" x1="203" y1="89.666" x2="259.904" y2="146.57"><stop offset="0" stop-opacity=".4"/><stop offset=".995" stop-color="#fff" stop-opacity="0"/></linearGradient><path fill="url(#c)" d="M267.432 119.848c.321-.944.609-1.903.88-2.87l-46.312-46.312-3 3.5-.25 11.5-5.393 14.667-15.857 2-13.5 6.333 46.133 46.133c17.497-4.706 31.502-17.926 37.299-34.951z"/><path fill="#fff" d="M247.667 95.666h-26v-25h-13v25h-25v13h25v26h13v-26h26z"/></svg>