<svg xmlns="http://www.w3.org/2000/svg" width="395.667" height="179.167" viewBox="0 0 395.667 179.167"><linearGradient id="a" gradientUnits="userSpaceOnUse" x1="122.827" y1="67.06" x2="930.785" y2="875.018"><stop offset="0" stop-opacity=".3"/><stop offset=".055" stop-color="#323232" stop-opacity=".261"/><stop offset=".129" stop-color="#6F6F6F" stop-opacity=".208"/><stop offset=".2" stop-color="#A2A2A2" stop-opacity=".157"/><stop offset=".267" stop-color="#CACACA" stop-opacity=".11"/><stop offset=".327" stop-color="#E7E7E7" stop-opacity=".067"/><stop offset=".38" stop-color="#F8F8F8" stop-opacity=".029"/><stop offset=".419" stop-color="#FEFEFE" stop-opacity=".001"/><stop offset=".995" stop-color="#fff" stop-opacity="0"/></linearGradient><path fill="url(#a)" d="M235.604 21.745l-32.787 29.843-5.484-5.276-1.117.91-26.784-26.768.044.09 15.373 35.839-40.443 32.568 42.979 42.84-110.63 47.376h316.355l-157.506-157.422z"/><path fill="#D390D4" d="M210.075 115.193l-25.227-58.808-15.373-35.838-.044-.089c-1.421-3.176-5.13-4.641-8.341-3.263l-156.301 67.05c-3.241 1.39-4.739 5.06-3.351 8.302l37.193 86.619h38.124l110.629-47.375 19.341-8.255c3.241-1.39 4.742-5.103 3.35-8.343z"/><path d="M142.282 122.006l43.292-18.57 4.57 10.654-43.292 18.57zm-89.726 51.111l-10.792-25.159 29.391-12.607 10.792 25.159zm-45.427-66.733l168.601-72.187 8.741 20.417-168.601 72.187z" fill="#85209E"/><path fill="#D390D4" d="M236.9 27.423c-9.689-14.897-26.473-24.756-45.567-24.756-30.008 0-54.334 24.327-54.334 54.333 0 29.061 22.816 52.792 51.513 54.261.935.048 1.875.072 2.821.072 23.877 0 44.142-15.409 51.432-36.818.984-2.892 1.741-5.891 2.229-8.979.439-2.78.673-5.63.673-8.536-.001-10.912-3.229-21.063-8.767-29.577z"/><path fill="#85209E" d="M191.333 113.833c-.979 0-1.971-.025-2.949-.074-30.216-1.547-53.885-26.478-53.885-56.759 0-31.337 25.496-56.833 56.834-56.833 19.299 0 37.117 9.68 47.663 25.893 5.999 9.223 9.17 19.923 9.17 30.94 0 2.968-.237 5.972-.704 8.927-.496 3.146-1.28 6.306-2.33 9.394-7.844 23.035-29.465 38.512-53.799 38.512zm0-108.666c-28.582 0-51.834 23.253-51.834 51.833 0 27.617 21.585 50.354 49.141 51.764.895.046 1.8.069 2.693.069 22.193 0 41.912-14.114 49.064-35.125.959-2.816 1.674-5.696 2.127-8.562.426-2.697.642-5.438.642-8.146 0-10.047-2.892-19.804-8.361-28.214-9.62-14.79-25.871-23.619-43.472-23.619z"/><linearGradient id="b" gradientUnits="userSpaceOnUse" x1="178.333" y1="44.333" x2="235.237" y2="101.236"><stop offset="0" stop-opacity=".4"/><stop offset=".995" stop-color="#fff" stop-opacity="0"/></linearGradient><path fill="url(#b)" d="M242.765 74.515c.321-.945.609-1.904.88-2.871l-46.312-46.312-3 3.5-.25 11.5-5.393 14.668-15.857 2-13.5 6.332 46.133 46.134c17.497-4.707 31.502-17.927 37.299-34.951z"/><path fill="#fff" d="M223 50.167h-26v-25h-13v25h-25v13h25v26h13v-26h26z"/></svg>