<?xml version="1.0" encoding="UTF-8"?>
<svg width="50px" height="47px" viewBox="0 0 50 47" version="1.1" xmlns="http://www.w3.org/2000/svg" xmlns:xlink="http://www.w3.org/1999/xlink">
    <!-- Generator: Sketch 55.2 (78181) - https://sketchapp.com -->
    <title>personal-loan</title>
    <desc>Created with Sketch.</desc>
    <g id="Page-1" stroke="none" stroke-width="1" fill="none" fill-rule="evenodd" stroke-linecap="round" stroke-linejoin="round">
        <g id="final" transform="translate(-1098.000000, -1046.000000)" stroke="#171C28" stroke-width="2">
            <g id="Group-22" transform="translate(62.000000, 946.000000)">
                <g id="Group-20" transform="translate(0.000000, 67.000000)">
                    <g id="Group-12" transform="translate(1005.000000, 0.000000)">
                        <g id="personal-loan" transform="translate(32.000000, 34.000000)">
                            <path d="M35.4583333,12.5416667 C38.3354167,12.5416667 40.6666667,14.8729167 40.6666667,17.75 C40.6666667,20.6270833 38.3354167,22.9583333 35.4583333,22.9583333 C32.58125,22.9583333 30.25,20.6270833 30.25,17.75 C30.25,14.8729167 32.58125,12.5416667 35.4583333,12.5416667 Z" id="Stroke-1" fill="#BC0110"></path>
                            <path d="M18.7916667,0.0416666667 C21.66875,0.0416666667 24,2.37291667 24,5.25 C24,8.12708333 21.66875,10.4583333 18.7916667,10.4583333 C15.9145833,10.4583333 13.5833333,8.12708333 13.5833333,5.25 C13.5833333,2.37291667 15.9145833,0.0416666667 18.7916667,0.0416666667 Z" id="Stroke-3" fill="#BC0110"></path>
                            <path d="M29.2083333,34.4166667 C29.2083333,34.4166667 38.0041667,30.7770833 41.1125,30.25 C43.7,29.8104167 45.3583333,30.9625 46.3604167,31.8041667 C47.5770833,32.8291667 47.1895833,34.8 45.69375,35.3395833 L21.1125,44.1916667 C19.3104167,44.8416667 17.31875,44.75 15.5833333,43.9375 L1.24166667,37.2229167 C0.510416667,36.8791667 0.0416666667,36.14375 0.0416666667,35.3354167 L0.0416666667,24.075 C0.0416666667,22.8354167 1.10833333,21.8833333 2.34166667,21.9979167 C4.72083333,22.21875 7.975,23.0395833 12.5416667,26.0833333 L12.8895833,26.0833333 L21.6479167,26.0833333 C26.5604167,26.0833333 29.2083333,29.8145833 29.2083333,34.4166667 L28.4625,34.4166667 L12.5416667,34.4166667" id="Stroke-5" fill="#FFFFFF"></path>
                        </g>
                    </g>
                </g>
            </g>
        </g>
    </g>
</svg>