<svg class="icon" xmlns="http://www.w3.org/2000/svg" xmlns:xlink="http://www.w3.org/1999/xlink"><defs><style>.icon { display: none; } .icon:target { display: inline; }</style></defs><svg class="icon" viewBox="0 0 427.5 172"><linearGradient id="a" gradientUnits="userSpaceOnUse" x1="161.065" y1="50.435" x2="357.94" y2="247.31"><stop offset="0" stop-opacity=".3"/><stop offset=".995" stop-color="#fff" stop-opacity="0"/></linearGradient><path fill="url(#a)" d="M296.012 54.75l-.012.25-200.25 60.75 56.25 56.25h261.251z"/><path fill="#FFBA34" d="M93 55v110h203v-110h-203zm5 4h193v101h-193v-101z"/><path fill="#fff" d="M94 59h197v101h-197z"/><path fill="#FFBA34" d="M102 63h184v93h-184z"/><path fill="#fff" d="M170.905 109.288c0-12.859 10.457-23.293 23.344-23.293 12.896 0 23.354 10.434 23.354 23.293 0 12.868-10.459 23.303-23.354 23.303-12.887 0-23.344-10.435-23.344-23.303z"/><linearGradient id="b" gradientUnits="userSpaceOnUse" x1="60.477" y1="38.22" x2="284.753" y2="262.495"><stop offset="0" stop-opacity=".2"/><stop offset=".995" stop-color="#fff" stop-opacity="0"/></linearGradient><path fill="url(#b)" d="M162.132 50.951l-.523 1.603-28.656-28.657-11.112 4.092-17.929-17.928-9.961 32.988-19.151-19.152-5.466 8.436-3.333 18.618-1.667 80.049 42.265 41h176.442z"/><path fill="#E27933" d="M113.125 80.145h-9.213v-70.084h-19.829v70.084h-9.283v-56.248h-19.83v97.83l-27.206-26.198-23.229 3.635 42.069 72.836h115.373v-120.878h-19.83v39.836h-9.194v-67.061h-19.828z"/></svg><svg class="icon" viewBox="0 11.083 311.145 168.084"><linearGradient id="a" gradientUnits="userSpaceOnUse" x1="70.579" y1="57.32" x2="257.186" y2="243.928"><stop offset="0" stop-opacity=".3"/><stop offset=".995" stop-color="#fff" stop-opacity="0"/></linearGradient><path fill="url(#a)" d="M116.376 11.521l-15.63 167.562h183.192z"/><path fill="#F7F7F7" d="M116.376 11.083h-116.043v168h155v-129.128z"/><path fill="#42C6BF" d="M29.333 46.083h82v7h-82zm0 22h52v6h-52zm0 22h67v6h-67zm0 21h82v7h-82zm0 22h52v7h-52z"/><linearGradient id="b" gradientUnits="userSpaceOnUse" x1="134.513" y1="60.591" x2="291.359" y2="217.437"><stop offset="0" stop-opacity=".15"/><stop offset=".995" stop-color="#fff" stop-opacity="0"/></linearGradient><path fill="url(#b)" d="M169.954 37.853l-28.134 37.711-36.397 14.116 89.504 89.403h116.218z"/><path fill="#fff" d="M110.333 55.475l44.034-17.391h5.99s4.083 9.512 4.355 10.328c.272.817-2.723 27.489-2.723 27.489l-22.052 18.781-15.483-3.27-14.123-14.431v-21.506z"/><path fill="#42C6BF" d="M138.218 23.166c-14.057 0-26.468 7.013-33.948 17.726-4.681 6.706-7.436 14.858-7.436 23.658 0 22.854 18.528 41.381 41.384 41.381 8.799 0 16.949-2.754 23.653-7.438 10.716-7.478 17.729-19.887 17.729-33.943 0-22.857-18.529-41.384-41.382-41.384zm-1.355 64.378l-5.611-16.833-16.832-5.61 16.777-8.389 28.107-14.051-14 27.999-8.441 16.884z"/></svg><svg class="icon" viewBox="0 0 360.381 190.167"><linearGradient id="a" gradientUnits="userSpaceOnUse" x1="73.732" y1=".334" x2="301.138" y2="227.74"><stop offset="0" stop-opacity=".2"/><stop offset=".995" stop-color="#fff" stop-opacity="0"/></linearGradient><path fill="url(#a)" d="M156.488 64.656l-41.655 33.922 91.696 91.589h114.179l-128.663-128.622-39.413-1.573-.432.396z"/><linearGradient id="b" gradientUnits="userSpaceOnUse" x1="172.06" y1="40.544" x2="361.86" y2="230.345"><stop offset="0" stop-opacity=".2"/><stop offset=".995" stop-color="#fff" stop-opacity="0"/></linearGradient><path fill="url(#b)" d="M320.708 190.167h39.673l-167.215-167.371-40.534 37.176 39.413 1.573z"/><linearGradient id="c" gradientUnits="userSpaceOnUse" x1="29.852" y1="44.214" x2="307.774" y2="322.137"><stop offset="0" stop-opacity=".2"/><stop offset=".995" stop-color="#fff" stop-opacity="0"/></linearGradient><path fill="url(#c)" d="M192.045 61.545l-39.413-1.573-41.485-1.657-7.647-7.648-45.786 5.514-9.063-.362 1.297 1.297-37.516 4.517 38.504 38.505-4.186 35.029 16.619 16.564-40.369 2.27 14.166 14.166h-18.166l-6 3.75 17.901 18.25h289.807z"/><path d="M47 72.167h9v63h-9zm34 0h9v63h-9zm34 0h8v63h-8zm-92 74h160v8h-160zm-10 17h180v9h-180zm-13 18h206v9h-206zm148-109h9v63h-9zm50.567-41.91c-9.689-14.896-26.472-24.756-45.567-24.756-10.958 0-21.151 3.255-29.686 8.836l-21.054-14.337-89.828 61.167h86.267c.688 28.45 23.226 51.482 51.48 52.93.935.047 1.875.071 2.821.071 23.877 0 44.142-15.408 51.432-36.819.984-2.893 1.741-5.89 2.229-8.978.439-2.782.673-5.631.673-8.536-.001-10.911-3.23-21.064-8.767-29.578z" fill="#42C5BE"/><linearGradient id="d" gradientUnits="userSpaceOnUse" x1="140" y1="47.167" x2="196.904" y2="104.071"><stop offset="0" stop-opacity=".4"/><stop offset=".995" stop-color="#fff" stop-opacity="0"/></linearGradient><path fill="url(#d)" d="M204.432 77.349c.321-.944.609-1.903.88-2.87l-46.312-46.312-3 3.5-.25 11.5-5.393 14.667-15.857 2-13.5 6.333 46.133 46.133c17.497-4.705 31.502-17.926 37.299-34.951z"/><path fill="#fff" d="M185 53.167h-26v-25h-13v25h-25v13h25v26h13v-26h26z"/></svg><svg class="icon" viewBox="0 -13.057 423.49 216.889"><linearGradient id="a" gradientUnits="userSpaceOnUse" x1="72.734" y1="109.114" x2="243.167" y2="279.546"><stop offset="0" stop-opacity=".3"/><stop offset=".995" stop-color="#fff" stop-opacity="0"/></linearGradient><path fill="url(#a)" d="M268.25 159.825l-16.827 5.003-20.423-19.341-189.666 3.539-18 9.488-21.143 24.696 20.004 20.206h289.681z"/><linearGradient id="b" gradientUnits="userSpaceOnUse" x1="63.073" y1="21.788" x2="276.235" y2="234.949"><stop offset="0" stop-opacity=".3"/><stop offset=".995" stop-color="#fff" stop-opacity="0"/></linearGradient><path fill="url(#b)" d="M145.172 47.38l-110.188 2.495 153.211 153.541h112.805z"/><path fill="#82345B" d="M168.286 153.058l-133.528-103.307 48.587-62.801 133.528 103.307z"/><circle fill="#D37DA4" cx="125.844" cy="70.185" r="20.045"/><path fill="#82345B" d="M75.166 135.834l11.25-15.084 29.293-12.667 19.578-3.667h22.713l9.334 5.585v29.999s-6.833 3.537-9.499 5.436c-2.668 1.898-64.083 0-64.083 0l-18.586-9.602z"/><path fill="#D37DA4" d="M269.164 160.109c-.166-.391-.703-1.342-4.283-1.89-3.219-4.035-5.686-7.678-14.564-12.844-37.467-37.06-117.818-72.451-189.617-10.443-51.2 2.655-52.034 30.763-59.512 30.467-1.002 11.418-4.854 23.522 20.854 24.329 1.873-50.603 59.408-38.679 56.465 0h120.076c-6.268-39.818 53.645-50.676 54.82-3.204 15.126.094 18.909-9.883 15.761-26.415zm-112.137-23.648c-22.683 0-45.378.876-68.068.876v-12.063c20.23-16.968 47.732-19.212 68.068-16.388v27.575z"/><path fill="#82345B" d="M50.791 160.299c-12.406 0-22.473 9.608-22.473 21.488 0 11.857 10.066 21.479 22.473 21.479 12.4 0 22.467-9.622 22.467-21.479 0-11.88-10.067-21.488-22.467-21.488zm175.306 0c-12.406 0-22.461 9.608-22.461 21.488 0 11.857 10.055 21.479 22.461 21.479 12.408 0 22.459-9.622 22.459-21.479 0-11.88-10.051-21.488-22.459-21.488z"/><linearGradient id="c" gradientUnits="userSpaceOnUse" x1="246.125" y1="127.735" x2="407.269" y2="-33.408" gradientTransform="matrix(1 0 0 -1 -20.84 207.232)"><stop offset="0" stop-opacity=".2"/><stop offset=".995" stop-color="#fff" stop-opacity="0"/></linearGradient><path fill="url(#c)" d="M245.244 109.298l-31.202-13.349-8.033 2.824 29.672 29.672-26.744 9.405 65.15 65.15h149.403l-124.494-124.492z"/><path fill="#D37DA4" d="M294.775 72.09c-9.688-14.896-26.471-24.756-45.566-24.756-30.01 0-54.334 24.327-54.334 54.334 0 29.063 22.816 52.792 51.514 54.262.934.047 1.873.071 2.82.071 23.877 0 44.141-15.408 51.432-36.819.984-2.893 1.74-5.89 2.23-8.978.436-2.782.672-5.632.672-8.536-.001-10.912-3.233-21.064-8.768-29.578z"/><path fill="#82345B" d="M249.208 158.501c-.979 0-1.971-.024-2.949-.075-30.217-1.546-53.885-26.479-53.885-56.758 0-31.337 25.496-56.834 56.834-56.834 19.299 0 37.115 9.68 47.662 25.893 6 9.225 9.172 19.924 9.172 30.941 0 2.969-.238 5.971-.707 8.926-.494 3.146-1.277 6.307-2.33 9.395-7.841 23.034-29.463 38.512-53.797 38.512zm0-108.667c-28.582 0-51.834 23.254-51.834 51.834 0 27.617 21.584 50.354 49.139 51.766.898.045 1.801.067 2.695.067 22.193 0 41.91-14.114 49.064-35.125.957-2.815 1.674-5.696 2.125-8.562.428-2.699.645-5.438.645-8.146 0-10.047-2.893-19.805-8.361-28.214-9.623-14.79-25.871-23.62-43.473-23.62z"/><linearGradient id="d" gradientUnits="userSpaceOnUse" x1="257.049" y1="118.233" x2="313.953" y2="61.33" gradientTransform="matrix(1 0 0 -1 -20.84 207.232)"><stop offset="0" stop-opacity=".4"/><stop offset=".995" stop-color="#fff" stop-opacity="0"/></linearGradient><path fill="url(#d)" d="M300.64 119.182c.32-.943.609-1.902.881-2.869l-46.313-46.313-3 3.5-.25 11.5-5.393 14.667-15.857 2-13.5 6.333 46.133 46.133c17.498-4.705 31.502-17.926 37.299-34.951z"/><path fill="#fff" d="M280.876 95h-26v-25h-13v25h-25.001v13h25.001v26h13v-26h26z"/></svg><svg class="icon" viewBox="0 0 395.667 179.167"><linearGradient id="a" gradientUnits="userSpaceOnUse" x1="122.827" y1="67.06" x2="930.785" y2="875.018"><stop offset="0" stop-opacity=".3"/><stop offset=".055" stop-color="#323232" stop-opacity=".261"/><stop offset=".129" stop-color="#6F6F6F" stop-opacity=".208"/><stop offset=".2" stop-color="#A2A2A2" stop-opacity=".157"/><stop offset=".267" stop-color="#CACACA" stop-opacity=".11"/><stop offset=".327" stop-color="#E7E7E7" stop-opacity=".067"/><stop offset=".38" stop-color="#F8F8F8" stop-opacity=".029"/><stop offset=".419" stop-color="#FEFEFE" stop-opacity=".001"/><stop offset=".995" stop-color="#fff" stop-opacity="0"/></linearGradient><path fill="url(#a)" d="M235.604 21.745l-32.787 29.843-5.484-5.276-1.117.91-26.784-26.768.044.09 15.373 35.839-40.443 32.568 42.979 42.84-110.63 47.376h316.355l-157.506-157.422z"/><path fill="#D390D4" d="M210.075 115.193l-25.227-58.808-15.373-35.838-.044-.089c-1.421-3.176-5.13-4.641-8.341-3.263l-156.301 67.05c-3.241 1.39-4.739 5.06-3.351 8.302l37.193 86.619h38.124l110.629-47.375 19.341-8.255c3.241-1.39 4.742-5.103 3.35-8.343z"/><path d="M142.282 122.006l43.292-18.57 4.57 10.654-43.292 18.57zm-89.726 51.111l-10.792-25.159 29.391-12.607 10.792 25.159zm-45.427-66.733l168.601-72.187 8.741 20.417-168.601 72.187z" fill="#85209E"/><path fill="#D390D4" d="M236.9 27.423c-9.689-14.897-26.473-24.756-45.567-24.756-30.008 0-54.334 24.327-54.334 54.333 0 29.061 22.816 52.792 51.513 54.261.935.048 1.875.072 2.821.072 23.877 0 44.142-15.409 51.432-36.818.984-2.892 1.741-5.891 2.229-8.979.439-2.78.673-5.63.673-8.536-.001-10.912-3.229-21.063-8.767-29.577z"/><path fill="#85209E" d="M191.333 113.833c-.979 0-1.971-.025-2.949-.074-30.216-1.547-53.885-26.478-53.885-56.759 0-31.337 25.496-56.833 56.834-56.833 19.299 0 37.117 9.68 47.663 25.893 5.999 9.223 9.17 19.923 9.17 30.94 0 2.968-.237 5.972-.704 8.927-.496 3.146-1.28 6.306-2.33 9.394-7.844 23.035-29.465 38.512-53.799 38.512zm0-108.666c-28.582 0-51.834 23.253-51.834 51.833 0 27.617 21.585 50.354 49.141 51.764.895.046 1.8.069 2.693.069 22.193 0 41.912-14.114 49.064-35.125.959-2.816 1.674-5.696 2.127-8.562.426-2.697.642-5.438.642-8.146 0-10.047-2.892-19.804-8.361-28.214-9.62-14.79-25.871-23.619-43.472-23.619z"/><linearGradient id="b" gradientUnits="userSpaceOnUse" x1="178.333" y1="44.333" x2="235.237" y2="101.236"><stop offset="0" stop-opacity=".4"/><stop offset=".995" stop-color="#fff" stop-opacity="0"/></linearGradient><path fill="url(#b)" d="M242.765 74.515c.321-.945.609-1.904.88-2.871l-46.312-46.312-3 3.5-.25 11.5-5.393 14.668-15.857 2-13.5 6.332 46.133 46.134c17.497-4.707 31.502-17.927 37.299-34.951z"/><path fill="#fff" d="M223 50.167h-26v-25h-13v25h-25v13h25v26h13v-26h26z"/></svg><svg class="icon" viewBox="0 0 395.667 203.832"><linearGradient id="a" gradientUnits="userSpaceOnUse" x1="42.014" y1="32.52" x2="267.485" y2="257.991"><stop offset="0" stop-opacity=".4"/><stop offset=".995" stop-color="#fff" stop-opacity="0"/></linearGradient><path fill="url(#a)" d="M201.086 103.752l-195.54-34.764 67.694 67.773-13.871.955 66.156 65.95h175.475z"/><g fill-rule="evenodd" clip-rule="evenodd"><path fill="#82345B" d="M53.966 6.122l133.532 103.31-48.589 62.803-133.532-103.31z"/><circle fill="#D37DA4" cx="96.466" cy="89.363" r="20.045"/><path fill="#D37DA4" d="M222.088 180.292c-11.949 1.264-21.22 2.247-30.491 3.215-4.401.462-8.808 1.249-13.208 1.216-3.093-.022-6.258-.931-9.254-1.876-5.841-1.842-11.469-5.168-17.395-5.749-9.893-.971-19.963-.593-29.932-.186-12.609.511-23.441-3.501-32.833-11.62-8.392-7.256-16.594-14.729-24.878-22.109-4.172-3.717-6.357-7.989-2.391-13 3.933-4.967 8.55-3.998 13.197-.755 6.139 4.283 12.682 8.064 18.442 12.801 9.804 8.059 20.956 10.734 33.285 10.317 8.036-.273 16.101.066 24.116-.435 1.883-.119 3.621-2.534 5.428-3.891-1.85-1.341-3.615-3.678-5.561-3.842-6.894-.577-13.97.287-20.725-.864-2.781-.476-6.868-4.699-6.842-7.183.029-2.707 4.12-7.671 6.471-7.687 19.078-.145 38.213.044 57.216 1.553 5.03.398 11.482 4.639 14.139 9.02 7.65 12.609 13.692 26.192 21.216 41.075zm-43.421 23.374h50.92l.221-16.775-51.141 5.134z"/></g><linearGradient id="b" gradientUnits="userSpaceOnUse" x1="192.078" y1="80.163" x2="353.221" y2="241.306"><stop offset="0" stop-opacity=".2"/><stop offset=".995" stop-color="#fff" stop-opacity="0"/></linearGradient><path fill="url(#b)" d="M212.037 109.964l-31.203-13.349-8.033 2.825 29.672 29.672-26.744 9.404 65.15 65.15h149.402l-124.492-124.492z"/><path fill="#D37DA4" d="M261.567 72.756c-9.689-14.896-26.472-24.756-45.567-24.756-30.008 0-54.334 24.327-54.334 54.334 0 29.062 22.816 52.792 51.513 54.262.935.047 1.875.071 2.821.071 23.877 0 44.142-15.408 51.432-36.819.984-2.893 1.741-5.89 2.229-8.978.439-2.782.673-5.631.673-8.536-.001-10.912-3.23-21.064-8.767-29.578z"/><path fill="#82345B" d="M216 159.167c-.979 0-1.971-.025-2.949-.075-30.216-1.546-53.885-26.478-53.885-56.758 0-31.337 25.496-56.834 56.834-56.834 19.299 0 37.117 9.68 47.663 25.893 5.999 9.224 9.17 19.924 9.17 30.941 0 2.969-.237 5.971-.704 8.926-.496 3.146-1.28 6.307-2.33 9.394-7.844 23.035-29.465 38.513-53.799 38.513zm0-108.667c-28.582 0-51.834 23.254-51.834 51.834 0 27.617 21.585 50.354 49.141 51.765.895.045 1.8.068 2.693.068 22.193 0 41.912-14.115 49.064-35.125.959-2.815 1.674-5.697 2.127-8.562.426-2.698.642-5.438.642-8.146 0-10.047-2.892-19.804-8.361-28.214-9.62-14.79-25.871-23.62-43.472-23.62z"/><linearGradient id="c" gradientUnits="userSpaceOnUse" x1="203" y1="89.666" x2="259.904" y2="146.57"><stop offset="0" stop-opacity=".4"/><stop offset=".995" stop-color="#fff" stop-opacity="0"/></linearGradient><path fill="url(#c)" d="M267.432 119.848c.321-.944.609-1.903.88-2.87l-46.312-46.312-3 3.5-.25 11.5-5.393 14.667-15.857 2-13.5 6.333 46.133 46.133c17.497-4.706 31.502-17.926 37.299-34.951z"/><path fill="#fff" d="M247.667 95.666h-26v-25h-13v25h-25v13h25v26h13v-26h26z"/></svg><svg class="icon" viewBox="0 0 419.667 193.166"><linearGradient id="a" gradientUnits="userSpaceOnUse" x1="152.468" y1="77.184" x2="375.684" y2="77.184"><stop offset="0" stop-opacity=".4"/><stop offset=".995" stop-color="#fff" stop-opacity="0"/></linearGradient><path fill="url(#a)" d="M247.737 66.123l-9.422-9.422-77.617 27.29 31.969 13.676z"/><linearGradient id="b" gradientUnits="userSpaceOnUse" x1="100.981" y1="-6.909" x2="591.356" y2="483.466"><stop offset="0" stop-opacity=".1"/><stop offset=".995" stop-color="#fff" stop-opacity="0"/></linearGradient><path fill="url(#b)" d="M348.089 1.702l-74.422 46.965-1.268 3.328-24.662 14.128-55.07 31.544-31.969-13.676-28.031-11.992-65 52.036-67.318-30.312 69.099 68.933-6.781 30.677h357v-120.112z"/><path d="M62.667 135.333h10v58h-10zm65-42h10v100h-10zm65 17h10v83h-10zm65-30h10v113h-10zm53.964-69.13l-21.862 5.407 13.703 8.27-106.296 66.365-65.362-26.311-64.732 52.118-62.098-32.482-4.634 8.861 67.902 35.517 65.268-52.547 64.638 26.021 110.439-68.954 1.549 15.343 14.334-17.554 23.775-29.11z" fill="#F8786B"/><linearGradient id="c" gradientUnits="userSpaceOnUse" x1="173.869" y1="70.04" x2="334.845" y2="231.016"><stop offset="0" stop-opacity=".2"/><stop offset=".995" stop-color="#fff" stop-opacity="0"/></linearGradient><path fill="url(#c)" d="M193.704 99.966l-31.203-13.349-8.033 2.824 29.672 29.671-26.744 9.239 65.15 64.982h149.402l-124.492-124.325z"/><path fill="#F8786B" d="M243.234 62.757c-9.689-14.896-26.472-24.757-45.567-24.757-30.008 0-54.334 24.327-54.334 54.334 0 29.061 22.816 52.793 51.513 54.263.935.047 1.875.071 2.821.071 23.877 0 44.142-15.408 51.432-36.819.984-2.893 1.741-5.891 2.229-8.978.439-2.781.672-5.631.672-8.537 0-10.911-3.229-21.063-8.766-29.577z"/><linearGradient id="d" gradientUnits="userSpaceOnUse" x1="184.667" y1="79.667" x2="241.571" y2="136.571"><stop offset="0" stop-opacity=".4"/><stop offset=".995" stop-color="#fff" stop-opacity="0"/></linearGradient><path fill="url(#d)" d="M249.099 109.849c.321-.944.609-1.902.88-2.871l-46.312-46.311-3 3.5-.25 11.5-5.393 14.667-15.857 2-13.5 6.333 46.133 46.133c17.497-4.706 31.502-17.926 37.299-34.951z"/><path fill="#fff" d="M229.667 85.333h-26v-25h-13v25h-25v13h25v26h13v-26h26z"/></svg></svg>