<svg xmlns="http://www.w3.org/2000/svg" viewBox="0 0 64 64" enable-background="new 0 0 64 64"><path fill="#fff" stroke="#4C5C68" stroke-linecap="round" stroke-linejoin="round" stroke-miterlimit="10" d="M16.3 10.9h29v37.5h-29z"/><path fill="#CEE8FA" d="M42.7 14.7v29.7c0 .2-.2.3-.3.3h-23.1c-.2 0-.3-.2-.3-.3v-29.7c0-.2.2-.3.3-.3h23.1c.2-.1.3.1.3.3z"/><path fill="#fff" stroke="#4C5C68" stroke-linecap="round" stroke-linejoin="round" stroke-miterlimit="10" d="M27.2 46.3h5.2M29.3 13h2"/><path fill="#fff" stroke="#4C5C68" stroke-linecap="round" stroke-linejoin="round" stroke-miterlimit="10" d="M11 50.3v-14.9l3.5-4.7h5.4s1.1 1.1-.4 2.9c0 0-3 .4-3.4 2.3-.3 1.9 2.1 2.4 2.6 3.8s1.4 6.8-1.2 10.8l-6.5-.2z"/><path fill="#FEBD2E" stroke="#4C5C68" stroke-linecap="round" stroke-linejoin="round" stroke-miterlimit="10" d="M10 57.9v-7.5h14.3v7.5"/><g fill="#fff"><path d="M54 42.6v-4.4c-2.1-2-4.2.1-4.2.1l.7 2.2-12.3-.5c-2.1-3.1-4-.2-4-.2v8.6l6.2 5.7v3.6l11.4-.1v-3.5c0-.8 2.1-4.1 2.1-4.1v-4.1"/><path stroke="#4C5C68" stroke-linecap="round" stroke-linejoin="round" stroke-miterlimit="10" d="M51.9 57.8v-3.5c0-.8 2.1-4.1 2.1-4.1v-4.1M54 42.6v-4.4c-2.1-2-4.2.1-4.2.1l.7 2.2-12.3-.5c-2.1-3.1-4-.2-4-.2v8.6l6.2 5.7v3.6"/><path d="M39.5 38.5l2.3-2.3 2.1-.5 2.1.9 1.5-.5 1.8.4-.2 1 3.2 3.3-4.1 2.5h-7.6l-1.5-1z"/><path stroke="#4C5C68" stroke-linecap="round" stroke-linejoin="round" stroke-miterlimit="10" d="M38.4 46.4v-19s-.5-1.9 1.5-1.9c2.1 0 1.6 1.7 1.6 1.7v10.9M41.8 36.1s1.8-1.8 3.9.2v1.8M46.4 37.1s1.3-2.1 3.4-.1v2.2"/></g></svg>