<?xml version="1.0" encoding="utf-8"?>
<!-- Generator: Adobe Illustrator 16.0.0, SVG Export Plug-In . SVG Version: 6.00 Build 0)  -->
<!DOCTYPE svg PUBLIC "-//W3C//DTD SVG 1.1//EN" "http://www.w3.org/Graphics/SVG/1.1/DTD/svg11.dtd">
<svg version="1.1" id="Layer_1" xmlns="http://www.w3.org/2000/svg" xmlns:xlink="http://www.w3.org/1999/xlink" x="0px" y="0px"
	 width="216px" height="216px" viewBox="0 0 216 216" enable-background="new 0 0 216 216" xml:space="preserve">
<g>
	
		<path id="XMLID_570_" fill="#FFFFFF" stroke="#171C28" stroke-width="5" stroke-linecap="round" stroke-linejoin="round" stroke-miterlimit="10" d="
		M114.75,194.736h-70.2c-9.112,0-16.537-7.424-16.537-16.536V34.763c0-8.438,6.75-15.525,15.525-15.525h122.175"/>
	
		<line id="XMLID_573_" fill="none" stroke="#171C28" stroke-width="5" stroke-linecap="round" stroke-linejoin="round" stroke-miterlimit="10" x1="141.075" y1="114.412" x2="141.075" y2="19.913"/>
	
		<path id="XMLID_569_" fill="#FFFFFF" stroke="#171C28" stroke-width="5" stroke-linecap="round" stroke-linejoin="round" stroke-miterlimit="10" d="
		M161.325,114.412v-87.75c0-4.388,3.712-8.1,8.1-8.1h2.025c4.725,0,8.774,4.05,8.774,8.775V105.3h-9.113"/>
	
		<line id="XMLID_568_" fill="none" stroke="#171C28" stroke-width="5" stroke-linecap="round" stroke-linejoin="round" stroke-miterlimit="10" x1="43.875" y1="42.525" x2="82.688" y2="42.525"/>
	
		<line id="XMLID_567_" fill="none" stroke="#171C28" stroke-width="5" stroke-linecap="round" stroke-linejoin="round" stroke-miterlimit="10" x1="43.875" y1="111.713" x2="124.875" y2="111.713"/>
	
		<line id="XMLID_566_" fill="none" stroke="#171C28" stroke-width="5" stroke-linecap="round" stroke-linejoin="round" stroke-miterlimit="10" x1="43.875" y1="125.889" x2="115.764" y2="125.889"/>
	
		<line id="XMLID_565_" fill="none" stroke="#171C28" stroke-width="5" stroke-linecap="round" stroke-linejoin="round" stroke-miterlimit="10" x1="43.875" y1="140.063" x2="104.962" y2="140.063"/>
	
		<line id="XMLID_564_" fill="none" stroke="#171C28" stroke-width="5" stroke-linecap="round" stroke-linejoin="round" stroke-miterlimit="10" x1="43.875" y1="153.9" x2="96.862" y2="153.9"/>
	
		<line id="XMLID_563_" fill="none" stroke="#171C28" stroke-width="5" stroke-linecap="round" stroke-linejoin="round" stroke-miterlimit="10" x1="43.875" y1="168.075" x2="86.063" y2="168.075"/>
	
		<line id="XMLID_562_" fill="none" stroke="#171C28" stroke-width="5" stroke-linecap="round" stroke-linejoin="round" stroke-miterlimit="10" x1="43.875" y1="56.7" x2="72.9" y2="56.7"/>
	
		<line id="XMLID_561_" fill="none" stroke="#171C28" stroke-width="5" stroke-linecap="round" stroke-linejoin="round" stroke-miterlimit="10" x1="79.987" y1="56.7" x2="125.889" y2="56.7"/>
	
		<rect id="XMLID_560_" x="42.188" y="70.875" fill="#0D3178" stroke="#171C28" stroke-width="5" stroke-linecap="round" stroke-linejoin="round" stroke-miterlimit="10" width="83.701" height="26.325"/>
	
		<circle id="XMLID_559_" fill="#FFFFFF" stroke="#171C28" stroke-width="5" stroke-linecap="round" stroke-linejoin="round" stroke-miterlimit="10" cx="148.5" cy="157.95" r="39.487"/>
	<g>
		<g id="XMLID_578_">
			<g id="XMLID_579_">
				<path fill="#00984A" d="M143.438,171.111c-0.338,0-0.674,0-1.013-0.336l-13.161-13.164c-0.676-0.674-0.676-1.688,0-2.361
					c0.674-0.674,1.688-0.675,2.361,0l13.162,13.162c0.676,0.676,0.676,1.688,0,2.363
					C144.45,170.775,144.111,171.111,143.438,171.111z"/>
			</g>
		</g>
		<g id="XMLID_558_">
			<g id="XMLID_577_">
				<path fill="#00984A" d="M143.775,171.111c-0.338,0-0.676,0-1.014-0.336c-0.675-0.676-0.675-1.688,0-2.363l22.95-22.949
					c0.675-0.676,1.688-0.676,2.362,0c0.675,0.676,0.675,1.688,0,2.362l-22.95,22.95
					C144.45,171.111,144.111,171.111,143.775,171.111z"/>
			</g>
		</g>
	</g>
</g>
</svg>
