<?xml version="1.0" encoding="utf-8"?>
<!-- Generator: Adobe Illustrator 16.0.0, SVG Export Plug-In . SVG Version: 6.00 Build 0)  -->
<!DOCTYPE svg PUBLIC "-//W3C//DTD SVG 1.1//EN" "http://www.w3.org/Graphics/SVG/1.1/DTD/svg11.dtd">
<svg version="1.1" id="Layer_1" xmlns="http://www.w3.org/2000/svg" xmlns:xlink="http://www.w3.org/1999/xlink" x="0px" y="0px"
	 width="216px" height="216px" viewBox="0 0 216 216" enable-background="new 0 0 216 216" xml:space="preserve">
<g>
	<g id="XMLID_136_">
		
			<path id="XMLID_138_" fill="#FFFFFF" stroke="#171C28" stroke-width="5" stroke-linecap="round" stroke-linejoin="round" stroke-miterlimit="10" d="
			M169.425,43.538H186.3c4.388,0,7.763,3.375,7.763,7.762v112.388c0,4.389-3.375,7.764-7.763,7.764H26.663
			c-4.388,0-7.763-3.375-7.763-7.764V51.3c0-4.387,3.375-7.762,7.763-7.762h129.262"/>
		
			<path id="XMLID_137_" fill="#FFFFFF" stroke="#171C28" stroke-width="5" stroke-linecap="round" stroke-linejoin="round" stroke-miterlimit="10" d="
			M25.987,163.688c0,0.338,0.338,0.676,0.675,0.676H186.3c0.339,0,0.675-0.338,0.675-0.676"/>
		
			<rect x="28.35" y="66.15" fill="#0D3178" stroke="#171C28" stroke-width="5" stroke-linecap="round" stroke-linejoin="round" stroke-miterlimit="10" width="107.325" height="19.913"/>
		
			<line fill="none" stroke="#171C28" stroke-width="5" stroke-linecap="round" stroke-linejoin="round" stroke-miterlimit="10" x1="28.35" y1="106.65" x2="181.912" y2="106.65"/>
		
			<line fill="none" stroke="#171C28" stroke-width="5" stroke-linecap="round" stroke-linejoin="round" stroke-miterlimit="10" x1="28.35" y1="123.525" x2="181.912" y2="123.525"/>
		
			<line fill="none" stroke="#171C28" stroke-width="5" stroke-linecap="round" stroke-linejoin="round" stroke-miterlimit="10" x1="28.35" y1="140.4" x2="181.912" y2="140.4"/>
	</g>
	
		<path fill="#FFFFFF" stroke="#171C28" stroke-width="5" stroke-linecap="round" stroke-linejoin="round" stroke-miterlimit="10" d="
		M86.737,153.9h-71.55v10.125c0,6.074,4.725,10.8,10.8,10.8h163.351c6.074,0,10.801-4.726,10.801-10.8V153.9h-84.375l-5.4,10.461
		H93.15L86.737,153.9z"/>
</g>
<circle fill="#FFFFFF" cx="174.825" cy="162" r="29.025"/>
<g>
	
		<path fill="#FFFFFF" stroke="#171C28" stroke-width="5" stroke-linecap="round" stroke-linejoin="round" stroke-miterlimit="10" d="
		M165.713,165.375c-0.338,0.338-0.338,0.338-0.676,0.675c-2.699,2.7-5.398,5.4-8.1,8.101c-0.338,0.338-0.338,0.676-0.676,1.013
		c-0.338,1.351-0.675,3.038-1.013,4.388c0,0.338-0.338,0.676-0.338,0.676c-5.063,3.375-9.787,6.412-14.513,9.787
		c-1.351-1.351-2.362-2.361-3.713-3.713c0-0.337,0.338-0.675,0.338-0.675c3.037-4.388,6.074-9.112,9.113-13.5
		c0.336-0.338,0.674-0.675,1.012-0.675c1.351-0.338,3.037-0.676,4.388-1.014c0.338,0,0.676-0.338,0.676-0.338
		c3.037-3.037,5.737-5.736,8.774-8.773c0,0,0,0,0-0.338c-0.338-0.338-1.014-1.014-1.35-1.35c-1.689-2.025-3.714-4.051-5.4-6.076
		c-0.338-0.338-0.676-0.338-1.014-0.338c-10.461,3.375-20.925-3.037-23.287-13.836c-0.674-3.039-0.338-7.426,1.014-10.125
		c0.337,0.336,0.337,0.336,0.675,0.336c3.037,3.039,5.737,5.738,8.774,8.775c2.363,2.361,4.726,2.361,7.088,0
		c1.013-1.014,2.025-2.025,3.375-3.375c2.025-2.025,2.025-4.725,0-6.75c-3.037-3.037-6.075-6.075-8.774-8.775
		c-0.338-0.336-0.338-0.336-0.676-0.675c1.688-0.337,3.038-1.013,4.388-1.013c7.426-0.676,13.5,2.025,17.889,8.438
		c2.699,4.051,3.375,8.775,2.361,13.5c0,0.676,0,1.014,0.338,1.352c1.014,1.013,2.024,2.361,3.037,3.375
		c0.338-0.338,0.676-0.676,1.014-1.014c5.736-5.736,11.813-11.475,17.549-17.55c3.714-3.713,9.789-4.05,13.839-0.338
		c4.05,3.713,4.05,10.125,0.337,14.175c-1.012,1.014-2.023,2.025-3.037,3.038c-4.725,4.726-9.787,9.787-14.514,14.513
		c-0.336,0.338-0.336,0.338-0.674,0.338c0.338,0.338,0.338,0.338,0.674,0.675c5.063,5.063,10.125,10.125,15.525,15.188
		c2.024,2.024,3.375,4.388,3.375,7.426c0,4.05-2.361,7.425-5.736,9.111c-3.713,1.688-7.764,0.676-10.801-2.024
		c-3.037-3.375-6.074-6.75-9.449-10.125c-3.713-3.712-7.088-7.763-10.801-11.813C166.05,165.713,165.713,165.713,165.713,165.375z
		 M189,180.9c0,2.361,1.688,4.05,4.05,4.05s4.05-1.688,4.05-4.05c0-2.025-1.688-4.051-4.05-4.051S189,178.537,189,180.9z"/>
	<g>
		<g>
			<path fill="#0D3178" d="M174.993,155.569c-0.837,0-1.634-0.337-2.243-0.947c-0.608-0.609-0.944-1.406-0.943-2.243
				c0-0.836,0.337-1.632,0.946-2.24l18.561-18.561c0.465-0.465,1.116-0.999,2.035-0.999c0.414,0,0.776,0.109,1.09,0.243
				c1.258,0.144,2.474,1.029,2.474,3.164c0,0.963-0.646,1.606-1.116,2.076l-18.562,18.561
				C176.626,155.233,175.829,155.569,174.993,155.569z"/>
			<path fill="#171C28" d="M193.349,132.079c0.212,0,0.434,0.082,0.714,0.222c0.001,0,0.002,0,0.002,0
				c1.012,0,1.348,0.675,1.348,1.686c0,0.339-0.337,0.676-0.676,1.014c-6.074,6.075-12.486,12.486-18.563,18.563
				c-0.338,0.338-0.76,0.507-1.181,0.507c-0.422,0-0.844-0.169-1.181-0.507c-0.674-0.674-0.676-1.688,0-2.361
				c4.388-4.389,8.438-8.438,12.824-12.825c2.024-2.024,3.713-3.713,5.737-5.737C192.77,132.243,193.049,132.079,193.349,132.079
				 M193.349,129.079c-1.658,0-2.74,1.083-3.096,1.438l-5.737,5.737l-6.428,6.428l-6.396,6.397
				c-0.892,0.889-1.384,2.061-1.385,3.298c-0.001,1.238,0.49,2.412,1.385,3.306c0.89,0.893,2.063,1.386,3.302,1.386
				c1.237,0,2.41-0.492,3.304-1.387l6.124-6.124l12.437-12.438c0.541-0.539,1.555-1.55,1.555-3.135c0-2.854-1.698-4.318-3.584-4.624
				C194.414,129.205,193.921,129.079,193.349,129.079L193.349,129.079z"/>
		</g>
	</g>
	
		<path fill="#FFFFFF" stroke="#171C28" stroke-width="5" stroke-linecap="round" stroke-linejoin="round" stroke-miterlimit="10" d="
		M189,180.9c0-2.363,1.688-4.051,4.05-4.051c2.025,0,4.05,1.688,4.05,4.051c0,2.023-1.688,4.05-4.05,4.05S189,183.264,189,180.9z"/>
</g>
</svg>
