<?xml version="1.0" encoding="utf-8"?>
<!-- Generator: Adobe Illustrator 16.0.0, SVG Export Plug-In . SVG Version: 6.00 Build 0)  -->
<!DOCTYPE svg PUBLIC "-//W3C//DTD SVG 1.1//EN" "http://www.w3.org/Graphics/SVG/1.1/DTD/svg11.dtd">
<svg version="1.1" id="Layer_1" xmlns="http://www.w3.org/2000/svg" xmlns:xlink="http://www.w3.org/1999/xlink" x="0px" y="0px"
	 width="216px" height="216px" viewBox="0 0 216 216" enable-background="new 0 0 216 216" xml:space="preserve">
<rect id="XMLID_1523_" x="179.213" y="102.6" fill="#FFFFFF" stroke="#171C28" stroke-width="3" stroke-linecap="round" stroke-linejoin="round" stroke-miterlimit="10" width="8.438" height="28.011"/>
<g id="XMLID_602_">
	
		<polyline id="XMLID_605_" fill="#FFFFFF" stroke="#171C28" stroke-width="3" stroke-linecap="round" stroke-linejoin="round" stroke-miterlimit="10" points="
		120.825,149.175 180.563,149.175 180.563,141.75 	"/>
	
		<polyline id="XMLID_603_" fill="#FFFFFF" stroke="#171C28" stroke-width="3" stroke-linecap="round" stroke-linejoin="round" stroke-miterlimit="10" points="
		180.563,141.75 180.563,57.375 67.163,57.375 67.163,72.563 	"/>
	
		<path id="XMLID_1521_" fill="#FFFFFF" stroke="#171C28" stroke-width="3" stroke-linecap="round" stroke-linejoin="round" stroke-miterlimit="10" d="
		M180.563,70.875H82.35c-7.763,0-15.188-5.737-15.188-13.163v-0.337c0-7.425,7.425-13.5,15.188-13.5h98.55v27H180.563z"/>
	
		<path id="XMLID_1520_" fill="#FFFFFF" stroke="#171C28" stroke-width="3" stroke-linecap="round" stroke-linejoin="round" stroke-miterlimit="10" d="
		M187.65,118.8h-40.164c-6.75,0-11.813-4.388-11.813-10.8v0.337c0-6.413,4.727-10.125,11.813-10.125h39.826V118.8H187.65z"/>
	
		<path id="XMLID_2_" fill="none" stroke="#171C28" stroke-width="2" stroke-linecap="round" stroke-linejoin="round" stroke-miterlimit="10" stroke-dasharray="0,2" d="
		M175.5,84.712"/>
	
		<ellipse id="XMLID_1516_" fill="#00984A" stroke="#171C28" stroke-width="3" stroke-linecap="round" stroke-linejoin="round" stroke-miterlimit="10" cx="146.475" cy="108.338" rx="4.389" ry="4.05"/>
	
		<polyline id="XMLID_1515_" fill="#0D3178" stroke="#171C28" stroke-linecap="round" stroke-linejoin="round" stroke-miterlimit="10" points="
		104.962,48.6 104.962,36.788 173.813,36.788 173.813,48.6 	"/>
	
		<polyline id="XMLID_1514_" fill="#0D3178" stroke="#171C28" stroke-linecap="round" stroke-linejoin="round" stroke-miterlimit="10" points="
		81,62.438 81,54 170.438,54 170.438,62.438 	"/>
</g>
<g id="XMLID_601_">
	
		<ellipse id="XMLID_396_" fill="#FFFFFF" stroke="#171C28" stroke-width="3" stroke-linecap="round" stroke-linejoin="round" stroke-miterlimit="10" cx="70.538" cy="116.1" rx="20.925" ry="26.663"/>
	
		<polygon id="XMLID_394_" fill="#0D3178" stroke="#171C28" stroke-width="3" stroke-linecap="round" stroke-linejoin="round" stroke-miterlimit="10" points="
		27.337,164.7 113.063,164.7 106.65,147.15 86.737,141.75 70.2,150.525 53.325,141.412 33.75,147.15 	"/>
	
		<path id="XMLID_391_" fill="#FFFFFF" stroke="#171C28" stroke-width="3" stroke-linecap="round" stroke-linejoin="round" stroke-miterlimit="10" d="
		M52.313,111.713c0,0,18.225,6.75,19.913-11.813c0,0,2.025,8.1,14.175,5.063"/>
</g>
<circle fill="#161B27" cx="88.188" cy="83.063" r="2.313"/>
<circle fill="#161B27" cx="95.111" cy="83.063" r="2.313"/>
<circle fill="#161B27" cx="102.034" cy="83.063" r="2.313"/>
<circle fill="#161B27" cx="108.957" cy="83.063" r="2.312"/>
<circle fill="#161B27" cx="115.881" cy="83.063" r="2.313"/>
<circle fill="#161B27" cx="122.805" cy="83.063" r="2.313"/>
<circle fill="#161B27" cx="129.729" cy="83.063" r="2.313"/>
<circle fill="#161B27" cx="136.652" cy="83.063" r="2.313"/>
<circle fill="#161B27" cx="143.576" cy="83.063" r="2.313"/>
<circle fill="#161B27" cx="117.36" cy="138.238" r="2.313"/>
<circle fill="#161B27" cx="124.283" cy="138.238" r="2.313"/>
<circle fill="#161B27" cx="131.207" cy="138.238" r="2.313"/>
<circle fill="#161B27" cx="138.13" cy="138.238" r="2.312"/>
<circle fill="#161B27" cx="145.054" cy="138.238" r="2.313"/>
<circle fill="#161B27" cx="151.978" cy="138.238" r="2.313"/>
<circle fill="#161B27" cx="158.901" cy="138.238" r="2.313"/>
<circle fill="#161B27" cx="165.825" cy="138.238" r="2.313"/>
<circle fill="#161B27" cx="172.749" cy="138.238" r="2.313"/>
<circle fill="#161B27" cx="150.5" cy="83.063" r="2.313"/>
<circle fill="#161B27" cx="157.424" cy="83.063" r="2.313"/>
<circle fill="#161B27" cx="164.348" cy="83.063" r="2.313"/>
<circle fill="#161B27" cx="171.271" cy="83.063" r="2.313"/>
</svg>
