<?xml version="1.0" encoding="utf-8"?>
<!-- Generator: Adobe Illustrator 16.0.0, SVG Export Plug-In . SVG Version: 6.00 Build 0)  -->
<!DOCTYPE svg PUBLIC "-//W3C//DTD SVG 1.1//EN" "http://www.w3.org/Graphics/SVG/1.1/DTD/svg11.dtd">
<svg version="1.1" id="Layer_1" xmlns="http://www.w3.org/2000/svg" xmlns:xlink="http://www.w3.org/1999/xlink" x="0px" y="0px"
	 width="216px" height="216px" viewBox="0 0 216 216" enable-background="new 0 0 216 216" xml:space="preserve">
<g>
	
		<polyline id="XMLID_628_" fill="#FFFFFF" stroke="#171C28" stroke-width="3" stroke-linecap="round" stroke-linejoin="round" stroke-miterlimit="10" points="
		150.188,61.425 150.188,194.736 29.025,194.736 29.025,18.563 114.75,18.563 	"/>
	
		<polyline id="XMLID_627_" fill="#FFFFFF" stroke="#171C28" stroke-width="3" stroke-linecap="round" stroke-linejoin="round" stroke-miterlimit="10" points="
		158.625,68.513 158.625,194.736 37.462,194.736 37.462,67.163 37.462,44.888 37.462,28.013 122.85,28.013 	"/>
	<polyline id="XMLID_626_" fill="#FFFFFF" points="167.736,77.288 167.736,197.438 47.587,197.438 47.587,183.264 47.587,157.95 
		47.587,38.813 132.3,38.813 	"/>
	
		<polyline id="XMLID_625_" fill="#FFFFFF" stroke="#171C28" stroke-width="3" stroke-linecap="round" stroke-linejoin="round" stroke-miterlimit="10" points="
		45.9,155.588 45.9,37.125 131.287,37.125 	"/>
	
		<polyline id="XMLID_623_" fill="#FFFFFF" stroke="#171C28" stroke-width="3" stroke-linecap="round" stroke-linejoin="round" stroke-miterlimit="10" points="
		143.438,194.736 45.9,194.736 45.9,180.563 	"/>
	
		<polygon id="XMLID_622_" fill="#FFFFFF" stroke="#171C28" stroke-width="3" stroke-linecap="round" stroke-linejoin="round" stroke-miterlimit="10" points="
		131.287,36.45 131.287,76.612 167.736,76.612 	"/>
	
		<line id="XMLID_621_" fill="none" stroke="#171C28" stroke-width="3" stroke-linecap="round" stroke-linejoin="round" stroke-miterlimit="10" x1="97.538" y1="91.125" x2="144.45" y2="91.125"/>
	
		<line id="XMLID_620_" fill="none" stroke="#171C28" stroke-width="3" stroke-linecap="round" stroke-linejoin="round" stroke-miterlimit="10" x1="97.538" y1="105.3" x2="129.264" y2="105.3"/>
	
		<line id="XMLID_619_" fill="none" stroke="#171C28" stroke-width="3" stroke-linecap="round" stroke-linejoin="round" stroke-miterlimit="10" x1="64.462" y1="119.813" x2="131.963" y2="119.813"/>
	
		<line id="XMLID_618_" fill="none" stroke="#171C28" stroke-width="3" stroke-linecap="round" stroke-linejoin="round" stroke-miterlimit="10" x1="64.462" y1="135.338" x2="121.162" y2="135.338"/>
	
		<line id="XMLID_615_" fill="none" stroke="#171C28" stroke-width="3" stroke-linecap="round" stroke-linejoin="round" stroke-miterlimit="10" x1="64.462" y1="150.861" x2="124.537" y2="150.861"/>
	
		<line id="XMLID_610_" fill="none" stroke="#171C28" stroke-width="3" stroke-linecap="round" stroke-linejoin="round" stroke-miterlimit="10" x1="66.15" y1="165.037" x2="131.287" y2="165.037"/>
	
		<rect id="XMLID_609_" x="64.462" y="83.7" fill="#00984A" stroke="#171C28" stroke-width="3" stroke-linecap="round" stroke-linejoin="round" stroke-miterlimit="10" width="21.6" height="21.6"/>
	
		<line id="XMLID_555_" fill="none" stroke="#171C28" stroke-width="3" stroke-linecap="round" stroke-linejoin="round" stroke-miterlimit="10" x1="167.4" y1="101.587" x2="167.4" y2="76.275"/>
	
		<path fill="#0D3178" stroke="#000000" stroke-width="0.2" stroke-linecap="round" stroke-linejoin="round" stroke-miterlimit="10" d="
		M186.639,164.361L172.8,147.15c-0.675-0.676-1.35-0.676-2.024-0.338l-1.688,1.35l-2.699-3.375
		c2.699-2.699,4.725-6.074,5.063-10.125c1.013-9.112-5.4-17.212-14.514-18.225c-9.112-1.014-17.213,5.399-18.225,14.513
		c-1.013,9.112,5.398,17.212,14.512,18.225c4.051,0.339,7.764-0.675,10.801-2.7l2.699,3.375l-1.35,1.352
		c-0.675,0.675-0.675,1.35-0.338,2.023l13.838,17.213c0.338,0.338,0.675,0.676,1.014,0.676l0,0c0.336,0,0.674,0,1.012-0.338
		l5.399-4.387C186.975,165.713,186.975,165.037,186.639,164.361z M153.563,146.475c-7.424-0.675-12.824-7.425-11.813-14.85
		c0.675-7.425,7.425-12.825,14.85-11.813c7.426,0.674,12.825,7.424,11.813,14.85C167.736,141.75,160.986,147.15,153.563,146.475z
		 M180.225,167.4l-11.813-14.852l3.038-2.361l11.813,14.85L180.225,167.4z"/>
</g>
</svg>
