<?xml version="1.0" encoding="utf-8"?>
<!-- Generator: Adobe Illustrator 16.0.0, SVG Export Plug-In . SVG Version: 6.00 Build 0)  -->
<!DOCTYPE svg PUBLIC "-//W3C//DTD SVG 1.1//EN" "http://www.w3.org/Graphics/SVG/1.1/DTD/svg11.dtd">
<svg version="1.1" id="Layer_1" xmlns="http://www.w3.org/2000/svg" xmlns:xlink="http://www.w3.org/1999/xlink" x="0px" y="0px"
	 width="216px" height="216px" viewBox="0 0 216 216" enable-background="new 0 0 216 216" xml:space="preserve">
<g>
	
		<rect id="XMLID_592_" x="48.41" y="18.871" fill="#FFFFFF" stroke="#171C28" stroke-width="5" stroke-linecap="round" stroke-linejoin="round" stroke-miterlimit="10" width="110.361" height="142.425"/>
	<path id="XMLID_591_" fill="#ABE0F9" d="M148.838,33.075v113.063c0,0.674-0.676,1.35-1.352,1.35h-87.75
		c-0.675,0-1.35-0.676-1.35-1.35V33.075c0-0.675,0.675-1.35,1.35-1.35h87.75C148.162,31.725,148.838,32.063,148.838,33.075z"/>
	
		<line id="XMLID_590_" fill="none" stroke="#171C28" stroke-width="5" stroke-linecap="round" stroke-linejoin="round" stroke-miterlimit="10" x1="89.775" y1="153.225" x2="109.35" y2="153.225"/>
	
		<line id="XMLID_589_" fill="none" stroke="#171C28" stroke-width="5" stroke-linecap="round" stroke-linejoin="round" stroke-miterlimit="10" x1="97.538" y1="26.325" x2="105.638" y2="26.325"/>
	
		<path id="XMLID_587_" fill="#FFFFFF" stroke="#171C28" stroke-width="5" stroke-linecap="round" stroke-linejoin="round" stroke-miterlimit="10" d="
		M28.013,168.75v-57.037l13.162-17.888h20.588c0,0,4.387,4.387-1.688,10.8c0,0-11.475,1.688-12.825,8.775
		c-1.35,7.086,7.763,9.108,9.788,14.512c2.025,5.4,5.4,25.65-4.725,40.838H28.013z"/>
	
		<polyline id="XMLID_586_" fill="#FFFFFF" stroke="#171C28" stroke-width="5" stroke-linecap="round" stroke-linejoin="round" stroke-miterlimit="10" points="
		24.3,197.438 24.3,168.75 78.638,168.75 78.638,197.438 	"/>
	<g id="XMLID_575_">
		
			<path id="XMLID_585_" fill="#FFFFFF" stroke="#171C28" stroke-width="5" stroke-linecap="round" stroke-linejoin="round" stroke-miterlimit="10" d="
			M191.7,139.389V122.85c-8.101-8.1-16.2,0-16.2,0l2.7,8.438l-46.575-1.688c-8.1-11.813-15.188-0.675-15.188-0.675v32.737
			l23.625,21.938v13.838L183.6,197.1v-13.5c0-3.037,7.764-15.521,7.764-15.521V152.55"/>
		
			<path id="XMLID_584_" fill="#FFFFFF" stroke="#171C28" stroke-width="5" stroke-linecap="round" stroke-linejoin="round" stroke-miterlimit="10" d="
			M183.6,197.1v-13.5c0-3.037,7.764-15.521,7.764-15.521V152.55"/>
		
			<path id="XMLID_583_" fill="#FFFFFF" stroke="#171C28" stroke-width="5" stroke-linecap="round" stroke-linejoin="round" stroke-miterlimit="10" d="
			M191.7,139.389V122.85c-8.101-8.1-16.2,0-16.2,0l2.7,8.438l-46.575-1.688c-8.1-11.813-15.188-0.675-15.188-0.675v32.737
			l23.625,21.938v13.838"/>
		<polygon id="XMLID_582_" fill="#FFFFFF" points="136.688,123.861 145.125,115.088 153.225,113.063 161.325,116.438 
			167.063,114.75 173.813,116.1 173.139,119.813 185.287,132.3 169.764,141.75 140.736,141.75 135,138.037 		"/>
		
			<path id="XMLID_581_" fill="#FFFFFF" stroke="#171C28" stroke-width="5" stroke-linecap="round" stroke-linejoin="round" stroke-miterlimit="10" d="
			M132.3,153.563V81.675c0,0-2.024-7.425,5.737-7.425c7.763,0,6.074,6.75,6.074,6.75v41.175"/>
		
			<path id="XMLID_580_" fill="#FFFFFF" stroke="#171C28" stroke-width="5" stroke-linecap="round" stroke-linejoin="round" stroke-miterlimit="10" d="
			M145.125,114.412c0,0,6.75-6.75,14.85,1.013v6.75"/>
		
			<path id="XMLID_576_" fill="#FFFFFF" stroke="#171C28" stroke-width="5" stroke-linecap="round" stroke-linejoin="round" stroke-miterlimit="10" d="
			M162.675,118.125c0,0,5.063-8.1,13.163-0.338v8.102"/>
	</g>
</g>
</svg>
