<?xml version="1.0" encoding="utf-8"?>
<!-- Generator: Adobe Illustrator 16.0.0, SVG Export Plug-In . SVG Version: 6.00 Build 0)  -->
<!DOCTYPE svg PUBLIC "-//W3C//DTD SVG 1.1//EN" "http://www.w3.org/Graphics/SVG/1.1/DTD/svg11.dtd">
<svg version="1.1" id="Layer_1" xmlns="http://www.w3.org/2000/svg" xmlns:xlink="http://www.w3.org/1999/xlink" x="0px" y="0px"
	 width="216px" height="216px" viewBox="0 0 216 216" enable-background="new 0 0 216 216" xml:space="preserve">
<g id="XMLID_656_">
	<g id="XMLID_654_">
		<g id="XMLID_646_">
			
				<polyline id="XMLID_274_" fill="#FFFFFF" stroke="#171C28" stroke-width="5" stroke-linecap="round" stroke-linejoin="round" stroke-miterlimit="10" points="
				79.65,197.438 79.65,173.475 40.163,173.475 40.163,197.438 			"/>
			
				<path id="XMLID_272_" fill="#FFFFFF" stroke="#171C28" stroke-width="5" stroke-linecap="round" stroke-linejoin="round" stroke-miterlimit="10" d="
				M38.138,106.313v-27c0,0,0-4.05-3.713-5.063c-3.712-1.013-5.4,3.038-6.075,7.087c-0.675,4.05-8.775,45.563-8.775,45.563
				s-1.35,6.074,1.35,10.125c2.7,4.05,25.65,23.625,25.65,23.625l2.362,7.425"/>
			
				<path id="XMLID_273_" fill="#FFFFFF" stroke="#171C28" stroke-width="5" stroke-linecap="round" stroke-linejoin="round" stroke-miterlimit="10" d="
				M69.188,168.412V148.5l-20.25-17.55l-5.063-15.862c0,0-0.675-4.051-4.388-3.375c0,0-5.063,1.35-4.05,4.725l6.413,20.927
				l-1.35,5.063"/>
		</g>
		<g id="XMLID_271_">
			
				<polyline id="XMLID_648_" fill="#FFFFFF" stroke="#171C28" stroke-width="5" stroke-linecap="round" stroke-linejoin="round" stroke-miterlimit="10" points="
				136.35,197.438 136.35,173.475 175.838,173.475 175.838,197.438 			"/>
			
				<path id="XMLID_417_" fill="#FFFFFF" stroke="#171C28" stroke-width="5" stroke-linecap="round" stroke-linejoin="round" stroke-miterlimit="10" d="
				M177.861,106.313v-27c0,0,0-4.05,3.714-5.063c3.712-1.013,5.399,3.038,6.075,7.087c0.675,4.05,8.772,45.899,8.772,45.899
				s1.353,6.076-1.351,10.125c-2.699,4.389-25.649,23.625-25.649,23.625l-2.36,7.426"/>
			
				<path id="XMLID_420_" fill="#FFFFFF" stroke="#171C28" stroke-width="5" stroke-linecap="round" stroke-linejoin="round" stroke-miterlimit="10" d="
				M146.813,168.412V148.5l20.25-17.55l5.063-15.862c0,0,0.675-4.051,4.388-3.375c0,0,5.063,1.35,4.051,4.725l-6.412,20.927
				l1.351,5.063"/>
		</g>
	</g>
	<g id="XMLID_655_">
		
			<ellipse id="XMLID_644_" fill="#FFFFFF" stroke="#171C28" stroke-width="5" stroke-linecap="round" stroke-linejoin="round" stroke-miterlimit="10" cx="106.987" cy="72.9" rx="55.013" ry="54.337"/>
		<ellipse id="XMLID_643_" fill="#0D3178" cx="106.987" cy="72.9" rx="43.201" ry="42.863"/>
	</g>
	<g enable-background="new    ">
		<path fill="#FFFFFF" d="M89.462,57.59h3.664v13.687h0.126c0.758-1.095,1.516-2.105,2.232-3.032l8.675-10.654h4.549L98.433,69.635
			l11.076,16.34h-4.338l-9.349-13.939l-2.695,3.116v10.823h-3.664L89.462,57.59L89.462,57.59z"/>
		<path fill="#FFFFFF" d="M111.656,82.185c1.096,0.716,3.033,1.474,4.886,1.474c2.694,0,3.959-1.348,3.959-3.032
			c0-1.769-1.054-2.737-3.79-3.748c-3.664-1.306-5.391-3.327-5.391-5.77c0-3.285,2.652-5.98,7.033-5.98
			c2.063,0,3.873,0.59,5.012,1.264l-0.928,2.695c-0.801-0.506-2.273-1.18-4.17-1.18c-2.188,0-3.41,1.264-3.41,2.78
			c0,1.685,1.222,2.442,3.875,3.453c3.537,1.348,5.348,3.116,5.348,6.148c0,3.58-2.779,6.106-7.622,6.106
			c-2.231,0-4.296-0.547-5.728-1.39L111.656,82.185z"/>
	</g>
</g>
</svg>
