<?xml version="1.0" encoding="utf-8"?>
<!-- Generator: Adobe Illustrator 16.0.0, SVG Export Plug-In . SVG Version: 6.00 Build 0)  -->
<!DOCTYPE svg PUBLIC "-//W3C//DTD SVG 1.1//EN" "http://www.w3.org/Graphics/SVG/1.1/DTD/svg11.dtd">
<svg version="1.1" id="Layer_1" xmlns="http://www.w3.org/2000/svg" xmlns:xlink="http://www.w3.org/1999/xlink" x="0px" y="0px"
	 width="216px" height="216px" viewBox="0 0 216 216" enable-background="new 0 0 216 216" xml:space="preserve">
<path fill="#FFFFFF" stroke="#4C5C68" stroke-width="5" stroke-linecap="round" stroke-linejoin="round" stroke-miterlimit="10" d="
	M55.05,163.104V36.541h97.875v126.563H55.05z"/>
<path fill="#CEE8FA" d="M144.111,49.612V149.85c0,0.676-0.674,1.014-1.012,1.014H65.138c-0.675,0-1.013-0.676-1.013-1.014V49.612
	c0-0.675,0.675-1.012,1.013-1.012H143.1C143.775,48.263,144.111,48.938,144.111,49.612z"/>
<path fill="#FFFFFF" d="M125.55,97.875c0,0.337,0,1.013-0.337,1.35L126.9,99.9l2.361,1.013c1.35,0.337,1.688,1.688,1.35,3.038
	l-1.35,4.05c-0.338,1.013-1.688,1.688-3.037,1.351l-3.713-1.351c-0.338,0-0.338,0-0.675,0.337c-1.013,1.688-2.7,3.375-4.051,4.725
	l-1.013,1.014l1.351,3.037l0.338,0.675c0.337,1.013,0,2.362-1.013,3.038c-1.352,0.675-2.7,1.35-4.051,1.688
	c-1.012,0.338-2.362,0-2.699-1.013l-1.688-3.713v-0.337l-2.026,0.337h-6.412l-1.013,3.038l-0.337,1.013
	c-0.337,1.013-1.688,1.688-3.038,1.351l-4.05-1.351c-1.013-0.338-1.688-1.688-1.35-3.038l1.35-3.712c0-0.338,0-0.338-0.338-0.338
	c-1.35-1.013-2.7-2.024-3.712-3.037l-1.688-2.024l-0.337-0.338l-3.038,1.351c-0.337,0.337-1.012,0.337-1.35,0.337
	c-1.012,0.338-2.025-0.337-2.362-1.35c-0.675-1.351-1.35-2.7-1.688-4.05c-0.337-1.013,0-2.363,1.013-2.7l3.712-1.688
	c0.337,0,0.337-0.337,0.337-0.675l-0.337-2.363v-2.7c0-1.013,0-1.688,0.337-2.7c-1.01-0.338-1.685-0.675-2.36-1.013l-1.35-0.337
	c-1.35-0.337-1.688-1.688-1.35-3.038c0.337-1.35,1.013-2.7,1.35-3.712c0.337-1.012,2.025-1.688,3.038-1.35l3.712,1.35h0.337
	c1.35-2.362,3.038-4.05,5.4-5.737l-1.35-3.038c0-0.337-0.337-0.675-0.337-0.675c-0.675-1.35,0-2.7,1.013-3.038l3.712-1.688
	c1.013-0.337,2.362,0,3.038,1.012l1.012,2.025c0.338,0.675,0.675,1.012,0.675,1.688c0,0.337,0.337,0.337,0.337,0.337l3.712-0.337
	h3.712c0.338,0,0.338,0,0.675-0.338l1.351-3.375c0.336-1.35,1.688-1.688,3.036-1.35l4.05,1.35c1.014,0.338,1.688,1.688,1.352,3.038
	L116.1,78.3c0,0.338,0,0.338,0.338,0.338c1.351,1.012,2.701,2.025,3.713,3.037c0.676,0.675,1.351,1.35,1.688,2.025l0.337,0.337
	l2.025-1.013l2.023-1.012c1.014-0.338,2.025,0.337,2.363,1.35c0.676,1.35,1.35,2.7,1.688,4.05c0.338,1.012,0,2.362-1.012,2.7
	L125.55,91.8c0,0-0.337,0-0.337,0.338l0.337,3.375V97.875L125.55,97.875z M103.95,80.663c-8.438,0-15.525,7.087-15.525,15.525
	s7.088,15.525,15.525,15.525c8.774,0,15.524-6.75,15.524-15.525C119.475,87.75,112.725,80.663,103.95,80.663L103.95,80.663z"/>
<path fill="#FFFFFF" stroke="#4C5C68" stroke-width="5" stroke-miterlimit="10" d="M125.55,97.875c0,0.337,0,1.013-0.337,1.35
	L126.9,99.9l2.361,1.013c1.35,0.337,1.688,1.688,1.35,3.038l-1.35,4.05c-0.338,1.013-1.688,1.688-3.037,1.351l-3.713-1.351
	c-0.338,0-0.338,0-0.675,0.337c-1.013,1.688-2.7,3.375-4.051,4.725l-1.013,1.014l1.351,3.037l0.338,0.675
	c0.337,1.013,0,2.362-1.013,3.038c-1.352,0.675-2.7,1.35-4.051,1.688c-1.012,0.338-2.362,0-2.699-1.013l-1.688-3.713v-0.337
	l-2.026,0.337h-6.412l-1.013,3.038l-0.337,1.013c-0.337,1.013-1.688,1.688-3.038,1.351l-4.05-1.351
	c-1.013-0.338-1.688-1.688-1.35-3.038l1.35-3.712c0-0.338,0-0.338-0.338-0.338c-1.35-1.013-2.7-2.024-3.712-3.037l-1.688-2.024
	l-0.337-0.338l-3.038,1.351c-0.337,0.337-1.012,0.337-1.35,0.337c-1.012,0.338-2.025-0.337-2.362-1.35
	c-0.675-1.351-1.35-2.7-1.688-4.05c-0.337-1.013,0-2.363,1.013-2.7l3.712-1.688c0.337,0,0.337-0.337,0.337-0.675l-0.337-2.363v-2.7
	c0-1.013,0-1.688,0.337-2.7c-1.01-0.338-1.685-0.675-2.36-1.013l-1.35-0.337c-1.35-0.337-1.688-1.688-1.35-3.038
	c0.337-1.35,1.013-2.7,1.35-3.712c0.337-1.012,2.025-1.688,3.038-1.35l3.712,1.35h0.337c1.35-2.362,3.038-4.05,5.4-5.737
	l-1.35-3.038c0-0.337-0.337-0.675-0.337-0.675c-0.675-1.35,0-2.7,1.013-3.038l3.712-1.688c1.013-0.337,2.362,0,3.038,1.012
	l1.012,2.025c0.338,0.675,0.675,1.012,0.675,1.688c0,0.337,0.337,0.337,0.337,0.337l3.712-0.337h3.712c0.338,0,0.338,0,0.675-0.338
	l1.351-3.375c0.336-1.35,1.688-1.688,3.036-1.35l4.05,1.35c1.014,0.338,1.688,1.688,1.352,3.038L116.1,78.3
	c0,0.338,0,0.338,0.338,0.338c1.351,1.012,2.701,2.025,3.713,3.037c0.676,0.675,1.351,1.35,1.688,2.025l0.337,0.337l2.025-1.013
	l2.023-1.012c1.014-0.338,2.025,0.337,2.363,1.35c0.676,1.35,1.35,2.7,1.688,4.05c0.338,1.012,0,2.362-1.012,2.7L125.55,91.8
	c0,0-0.337,0-0.337,0.338l0.337,3.375V97.875L125.55,97.875z"/>
<path fill="#0D3178" stroke="#4C5C68" stroke-width="5" stroke-linecap="round" stroke-linejoin="round" stroke-miterlimit="10" d="
	M103.95,84.038c6.75,0,12.149,5.4,12.149,12.15s-5.399,12.15-12.149,12.15s-12.15-5.4-12.15-12.15
	C92.138,89.438,97.538,84.038,103.95,84.038L103.95,84.038z"/>
<path fill="#FFFFFF" stroke="#4C5C68" stroke-width="5" stroke-linecap="round" stroke-linejoin="round" stroke-miterlimit="10" d="
	M91.8,156.264h17.55 M98.888,43.875h6.75"/>
<path fill="#FFFFFF" stroke="#4C5C68" stroke-width="5" stroke-linecap="round" stroke-linejoin="round" stroke-miterlimit="10" d="
	M37.125,169.764v-50.289l11.813-15.861h18.225c0,0,3.712,3.713-1.35,9.787c0,0-10.125,1.351-11.475,7.763
	c-1.012,6.413,7.087,8.101,8.775,12.825c1.688,4.726,4.725,22.949-4.05,36.449L37.125,169.764z"/>
<path fill="#0D3178" stroke="#4C5C68" stroke-width="5" stroke-linecap="round" stroke-linejoin="round" stroke-miterlimit="10" d="
	M33.75,195.412V170.1h48.263v25.313"/>
<g>
	<path fill="#FFFFFF" d="M182.25,143.775v-14.852c-7.088-6.75-14.175,0.338-14.175,0.338l2.362,7.426L128.925,135
		c-7.087-10.463-13.5-0.675-13.5-0.675v29.024l20.925,19.237v12.149l38.477-0.338v-11.813c0-2.7,7.087-13.838,7.087-13.838V154.91"
		/>
	
		<path fill="#FFFFFF" stroke="#4C5C68" stroke-width="5" stroke-linecap="round" stroke-linejoin="round" stroke-miterlimit="10" d="
		M175.162,195.075v-11.813c0-2.699,7.088-13.838,7.088-13.838v-13.837 M182.25,143.775v-14.852
		c-7.088-6.75-14.175,0.338-14.175,0.338l2.362,7.426L128.925,135c-7.087-10.463-13.5-0.675-13.5-0.675v29.024l20.925,19.237v12.149
		"/>
	<path fill="#FFFFFF" d="M133.313,129.938l7.764-7.763l7.087-1.688l7.088,3.039l5.063-1.688l6.074,1.351l-0.675,3.375l10.8,11.138
		l-13.838,8.438h-25.648l-5.063-3.375L133.313,129.938z"/>
	
		<path fill="#FFFFFF" stroke="#4C5C68" stroke-width="5" stroke-linecap="round" stroke-linejoin="round" stroke-miterlimit="10" d="
		M129.6,156.6V92.475c0,0-1.688-6.413,5.063-6.413c7.088,0,5.399,5.737,5.399,5.737v36.788 M141.075,121.838
		c0,0,6.075-6.074,13.161,0.676v6.074 M156.6,125.213c0,0,4.389-7.088,11.477-0.338v7.425"/>
</g>
</svg>
