<?xml version="1.0" encoding="utf-8"?>
<!-- Generator: Adobe Illustrator 16.0.0, SVG Export Plug-In . SVG Version: 6.00 Build 0)  -->
<!DOCTYPE svg PUBLIC "-//W3C//DTD SVG 1.1//EN" "http://www.w3.org/Graphics/SVG/1.1/DTD/svg11.dtd">
<svg version="1.1" id="Layer_1" xmlns="http://www.w3.org/2000/svg" xmlns:xlink="http://www.w3.org/1999/xlink" x="0px" y="0px"
	 width="216px" height="216px" viewBox="0 0 216 216" enable-background="new 0 0 216 216" xml:space="preserve">
<line id="XMLID_1146_" fill="none" stroke="#171C28" stroke-width="5" stroke-linecap="round" stroke-linejoin="round" stroke-miterlimit="10" x1="43.875" y1="187.986" x2="43.875" y2="57.375"/>
<path id="XMLID_1126_" fill="#FFFFFF" stroke="#171C28" stroke-width="5" stroke-linecap="round" stroke-linejoin="round" stroke-miterlimit="10" d="
	M53.663,44.212h87.075c7.425,0,13.838,6.075,13.838,13.837V176.85c0,7.088-5.737,12.824-12.825,12.824H40.5"/>
<path id="XMLID_1125_" fill="#FFFFFF" stroke="#171C28" stroke-width="5" stroke-linecap="round" stroke-linejoin="round" stroke-miterlimit="10" d="
	M44.212,133.986v49.275c0,3.713-3.038,6.75-6.75,6.75h-1.688c-4.05,0-7.087-3.375-7.087-7.088v-64.462h7.425"/>
<line id="XMLID_1124_" fill="none" stroke="#171C28" stroke-width="5" stroke-linecap="round" stroke-linejoin="round" stroke-miterlimit="10" x1="74.925" y1="66.15" x2="106.987" y2="66.15"/>
<line id="XMLID_1123_" fill="none" stroke="#171C28" stroke-width="5" stroke-linecap="round" stroke-linejoin="round" stroke-miterlimit="10" x1="74.925" y1="123.525" x2="142.088" y2="123.525"/>
<line id="XMLID_1119_" fill="none" stroke="#171C28" stroke-width="5" stroke-linecap="round" stroke-linejoin="round" stroke-miterlimit="10" x1="74.925" y1="135" x2="142.088" y2="135"/>
<line id="XMLID_1116_" fill="none" stroke="#171C28" stroke-width="5" stroke-linecap="round" stroke-linejoin="round" stroke-miterlimit="10" x1="74.925" y1="146.813" x2="142.088" y2="146.813"/>
<line id="XMLID_922_" fill="none" stroke="#171C28" stroke-width="5" stroke-linecap="round" stroke-linejoin="round" stroke-miterlimit="10" x1="74.925" y1="158.625" x2="142.088" y2="158.625"/>
<line id="XMLID_912_" fill="none" stroke="#171C28" stroke-width="5" stroke-linecap="round" stroke-linejoin="round" stroke-miterlimit="10" x1="74.925" y1="170.1" x2="110.025" y2="170.1"/>
<line id="XMLID_856_" fill="none" stroke="#171C28" stroke-width="5" stroke-linecap="round" stroke-linejoin="round" stroke-miterlimit="10" x1="74.925" y1="77.962" x2="99.225" y2="77.962"/>
<line id="XMLID_855_" fill="none" stroke="#171C28" stroke-width="5" stroke-linecap="round" stroke-linejoin="round" stroke-miterlimit="10" x1="104.962" y1="77.962" x2="142.764" y2="77.962"/>
<rect id="XMLID_839_" x="73.575" y="89.438" fill="#0D3178" stroke="#171C28" stroke-width="5" stroke-linecap="round" stroke-linejoin="round" stroke-miterlimit="10" width="69.524" height="21.938"/>
<rect id="XMLID_836_" x="167.537" y="61.893" fill="#FFFFFF" stroke="#171C28" stroke-width="5" stroke-linecap="round" stroke-linejoin="round" stroke-miterlimit="10" width="19.574" height="121.162"/>
<rect id="XMLID_818_" x="167.665" y="61.975" fill="#FFFFFF" stroke="#171C28" stroke-width="5" stroke-linecap="round" stroke-linejoin="round" stroke-miterlimit="10" width="18.899" height="49.275"/>
<polygon id="XMLID_814_" fill="#FFFFFF" stroke="#171C28" stroke-width="5" stroke-linecap="round" stroke-linejoin="round" stroke-miterlimit="10" points="
	178.537,43.875 186.975,61.087 167.4,61.087 "/>
<rect id="XMLID_801_" x="172.262" y="183.129" fill="#FFFFFF" stroke="#171C28" stroke-width="5" stroke-linecap="round" stroke-linejoin="round" stroke-miterlimit="10" width="9.787" height="9.113"/>
<line id="XMLID_798_" fill="none" stroke="#171C28" stroke-width="5" stroke-linecap="round" stroke-linejoin="round" stroke-miterlimit="10" x1="177.188" y1="182.25" x2="177.188" y2="137.361"/>
<line id="XMLID_796_" fill="none" stroke="#171C28" stroke-width="5" stroke-linecap="round" stroke-linejoin="round" stroke-miterlimit="10" x1="180.9" y1="97.2" x2="174.486" y2="97.2"/>
<line id="XMLID_793_" fill="none" stroke="#171C28" stroke-width="5" stroke-linecap="round" stroke-linejoin="round" stroke-miterlimit="10" x1="180.9" y1="90.45" x2="174.486" y2="90.45"/>
<line id="XMLID_764_" fill="none" stroke="#171C28" stroke-width="5" stroke-linecap="round" stroke-linejoin="round" stroke-miterlimit="10" x1="180.9" y1="83.7" x2="174.486" y2="83.7"/>
<path id="XMLID_763_" fill="#FFFFFF" stroke="#171C28" stroke-width="5" stroke-linecap="round" stroke-linejoin="round" stroke-miterlimit="10" d="
	M44.212,181.236V52.65c0-4.725,3.712-8.438,8.438-8.438l0,0c4.725,0,8.438,3.712,8.438,8.438v15.525"/>
<line id="XMLID_667_" fill="none" stroke="#171C28" stroke-width="5" stroke-linecap="round" stroke-linejoin="round" stroke-miterlimit="10" x1="60.75" y1="88.763" x2="60.75" y2="189"/>
</svg>
