<?xml version="1.0" encoding="utf-8"?>
<!-- Generator: Adobe Illustrator 16.0.0, SVG Export Plug-In . SVG Version: 6.00 Build 0)  -->
<!DOCTYPE svg PUBLIC "-//W3C//DTD SVG 1.1//EN" "http://www.w3.org/Graphics/SVG/1.1/DTD/svg11.dtd">
<svg version="1.1" id="Layer_1" xmlns="http://www.w3.org/2000/svg" xmlns:xlink="http://www.w3.org/1999/xlink" x="0px" y="0px"
	 width="216px" height="216px" viewBox="0 0 216 216" enable-background="new 0 0 216 216" xml:space="preserve">
<g>
	<g>
		<g>
			<g>
				
					<rect x="30.712" y="48.6" fill="#FFFFFF" stroke="#000000" stroke-width="3" stroke-miterlimit="10" width="112.726" height="118.125"/>
			</g>
			<g>
				
					<rect x="76.275" y="30.375" fill="#171C28" stroke="#000000" stroke-width="3" stroke-miterlimit="10" width="21.938" height="5.063"/>
			</g>
			<g>
				<g>
					<path fill="#FFFFFF" stroke="#000000" stroke-width="3" stroke-miterlimit="10" d="M102.263,182.588
						c0,2.699-2.7,5.063-5.738,5.063H77.962c-3.038,0-5.737-2.362-5.737-5.063c0-2.699,2.7-5.063,5.737-5.063h18.563
						C99.563,177.525,102.263,179.889,102.263,182.588z"/>
				</g>
				<g>
					<path fill="#171C28" stroke="#000000" stroke-width="3" stroke-miterlimit="10" d="M97.2,191.7H77.288
						c-5.063,0-9.113-4.05-9.113-9.112s4.05-9.113,9.113-9.113H97.2c5.063,0,9.112,4.051,9.112,9.113S101.925,191.7,97.2,191.7z
						 M76.95,176.514c-3.375,0-6.075,2.699-6.075,6.074s2.7,6.074,6.075,6.074h19.912c3.375,0,6.075-2.699,6.075-6.074
						s-2.7-6.074-6.075-6.074H76.95z"/>
				</g>
			</g>
			<g>
				<path fill="#171C28" stroke="#000000" stroke-width="3" stroke-miterlimit="10" d="M128.588,197.1H45.563
					c-7.763,0-13.837-6.412-13.837-13.836V32.4c0-7.762,6.413-13.837,13.837-13.837h82.688c7.763,0,13.838,6.413,13.838,13.837
					v150.864C142.425,190.688,136.014,197.1,128.588,197.1z M45.563,21.263c-6.075,0-11.138,5.063-11.138,11.137v150.864
					c0,6.074,5.063,11.137,11.138,11.137h82.688c6.075,0,11.138-5.063,11.138-11.137V32.4c0-6.075-5.063-11.137-11.138-11.137
					H45.563z"/>
			</g>
			<g>
				
					<rect x="32.4" y="47.587" fill="#171C28" stroke="#000000" stroke-width="3" stroke-miterlimit="10" width="109.688" height="2.7"/>
			</g>
			<g>
				
					<rect x="32.4" y="164.025" fill="#171C28" stroke="#000000" stroke-width="3" stroke-miterlimit="10" width="109.688" height="2.699"/>
			</g>
		</g>
		<g>
			<circle fill="#00984A" stroke="#000000" stroke-width="3" stroke-miterlimit="10" cx="51.975" cy="105.975" r="10.125"/>
		</g>
		<g>
			<circle fill="#0D3178" stroke="#000000" stroke-width="3" stroke-miterlimit="10" cx="82.013" cy="105.975" r="10.125"/>
		</g>
		<g>
			<circle fill="#FED65C" stroke="#000000" stroke-width="3" stroke-miterlimit="10" cx="112.05" cy="105.975" r="10.125"/>
		</g>
	</g>
	<g>
		<g>
			<g id="XMLID_1695_">
				<g id="XMLID_1701_">
					<path fill="#FFFFFF" stroke="#000000" stroke-width="3" stroke-miterlimit="10" d="M86.063,87.075l49.612,28.013
						c1.351,0.676,3.375,0.676,4.726,0l46.574-28.351"/>
				</g>
			</g>
			<g>
				<path fill="#FFFFFF" stroke="#000000" stroke-width="3" stroke-miterlimit="10" d="M179.889,143.1H93.15
					c-4.05,0-7.087-3.375-7.087-7.086V86.737c0-4.05,3.375-7.087,7.087-7.087h86.739c4.049,0,7.086,3.375,7.086,7.087v49.275
					C187.313,139.725,183.938,143.1,179.889,143.1z"/>
			</g>
		</g>
		<g>
			<g id="XMLID_1634_">
				<g id="XMLID_1694_">
					<path fill="#0D3178" stroke="#000000" stroke-width="3" stroke-miterlimit="10" d="M86.063,87.075l49.612,28.013
						c1.351,0.676,3.375,0.676,4.726,0L186.3,87.075c0,0,1.013-5.063-2.362-6.413c-3.375-1.35-52.313-1.35-52.313-1.35H93.15
						C93.15,79.313,85.388,80.325,86.063,87.075"/>
				</g>
			</g>
			<g id="XMLID_1574_">
				<g id="XMLID_1575_">
					<path fill="#171C28" stroke="#000000" stroke-width="3" stroke-miterlimit="10" d="M138.037,117.111
						c-1.012,0-2.023-0.336-3.037-0.674L85.388,88.425l1.35-2.362l49.612,28.013c1.014,0.675,2.363,0.675,3.375,0l46.575-28.35
						l1.351,2.362l-46.574,28.35C140.4,116.775,139.05,117.111,138.037,117.111z"/>
				</g>
			</g>
			<g>
				<path fill="#171C28" stroke="#000000" stroke-width="3" stroke-miterlimit="10" d="M179.889,144.45H93.15
					c-4.725,0-8.438-3.714-8.438-8.438V86.737c0-4.725,3.712-8.438,8.438-8.438h86.739c4.725,0,8.438,3.713,8.438,8.438v49.275
					C188.662,140.736,184.611,144.45,179.889,144.45z M93.15,80.663c-3.375,0-5.737,2.7-5.737,5.737v49.275
					c0,3.375,2.7,5.737,5.737,5.737h86.739c3.375,0,5.736-2.699,5.736-5.737V86.737c0-3.375-2.7-5.737-5.736-5.737H93.15V80.663z"/>
			</g>
		</g>
		<g>
			
				<rect x="86.458" y="124.394" transform="matrix(0.6462 -0.7632 0.7632 0.6462 -57.3142 127.8643)" fill="#171C28" stroke="#000000" stroke-width="3" stroke-miterlimit="10" width="45.565" height="2.7"/>
		</g>
		<g>
			
				<rect x="163.66" y="102.979" transform="matrix(0.7633 -0.6461 0.6461 0.7633 -42.1887 136.379)" fill="#171C28" stroke="#000000" stroke-width="3" stroke-miterlimit="10" width="2.7" height="45.563"/>
		</g>
	</g>
</g>
</svg>
