<?xml version="1.0" encoding="utf-8"?>
<!-- Generator: Adobe Illustrator 16.0.0, SVG Export Plug-In . SVG Version: 6.00 Build 0)  -->
<!DOCTYPE svg PUBLIC "-//W3C//DTD SVG 1.1//EN" "http://www.w3.org/Graphics/SVG/1.1/DTD/svg11.dtd">
<svg version="1.1" id="Layer_1" xmlns="http://www.w3.org/2000/svg" xmlns:xlink="http://www.w3.org/1999/xlink" x="0px" y="0px"
	 width="216px" height="216px" viewBox="0 0 216 216" enable-background="new 0 0 216 216" xml:space="preserve">
<g>
	
		<line id="XMLID_358_" fill="none" stroke="#171C28" stroke-width="5" stroke-linecap="round" stroke-linejoin="round" stroke-miterlimit="10" x1="70.538" y1="73.237" x2="70.538" y2="196.088"/>
	
		<path id="XMLID_357_" fill="none" stroke="#171C28" stroke-width="5" stroke-linecap="round" stroke-linejoin="round" stroke-miterlimit="10" d="
		M49.95,186.3V28.688c0-5.737,4.725-10.125,10.125-10.125l0,0c5.737,0,10.125,4.725,10.125,10.125v18.9"/>
	
		<line id="XMLID_356_" fill="none" stroke="#171C28" stroke-width="5" stroke-linecap="round" stroke-linejoin="round" stroke-miterlimit="10" x1="49.612" y1="194.736" x2="49.612" y2="34.425"/>
	
		<path id="XMLID_355_" fill="none" stroke="#171C28" stroke-width="5" stroke-linecap="round" stroke-linejoin="round" stroke-miterlimit="10" d="
		M61.763,18.563H168.75c9.45,0,16.875,7.425,16.875,16.875v145.8c0,8.775-7.088,15.525-15.525,15.525H45.563"/>
	
		<path id="XMLID_354_" fill="none" stroke="#171C28" stroke-width="5" stroke-linecap="round" stroke-linejoin="round" stroke-miterlimit="10" d="
		M49.95,128.588V189c0,4.725-3.713,8.438-8.438,8.438h-2.025c-5.063,0-8.775-4.049-8.775-8.774V109.35h9.45"/>
	
		<line id="XMLID_353_" fill="none" stroke="#171C28" stroke-width="5" stroke-linecap="round" stroke-linejoin="round" stroke-miterlimit="10" x1="87.75" y1="45.563" x2="127.236" y2="45.563"/>
	
		<line id="XMLID_352_" fill="none" stroke="#171C28" stroke-width="5" stroke-linecap="round" stroke-linejoin="round" stroke-miterlimit="10" x1="87.75" y1="115.764" x2="170.1" y2="115.764"/>
	
		<line id="XMLID_351_" fill="none" stroke="#171C28" stroke-width="5" stroke-linecap="round" stroke-linejoin="round" stroke-miterlimit="10" x1="87.75" y1="129.938" x2="170.1" y2="129.938"/>
	
		<line id="XMLID_350_" fill="none" stroke="#171C28" stroke-width="5" stroke-linecap="round" stroke-linejoin="round" stroke-miterlimit="10" x1="87.75" y1="144.45" x2="170.1" y2="144.45"/>
	
		<line id="XMLID_349_" fill="none" stroke="#171C28" stroke-width="5" stroke-linecap="round" stroke-linejoin="round" stroke-miterlimit="10" x1="87.75" y1="158.625" x2="170.1" y2="158.625"/>
	
		<line id="XMLID_348_" fill="none" stroke="#171C28" stroke-width="5" stroke-linecap="round" stroke-linejoin="round" stroke-miterlimit="10" x1="87.75" y1="173.139" x2="130.611" y2="173.139"/>
	
		<line id="XMLID_347_" fill="none" stroke="#171C28" stroke-width="5" stroke-linecap="round" stroke-linejoin="round" stroke-miterlimit="10" x1="87.75" y1="59.737" x2="117.45" y2="59.737"/>
	
		<line id="XMLID_346_" fill="none" stroke="#171C28" stroke-width="5" stroke-linecap="round" stroke-linejoin="round" stroke-miterlimit="10" x1="124.537" y1="59.737" x2="171.111" y2="59.737"/>
	
		<rect id="XMLID_342_" x="86.063" y="74.25" fill="#0D3178" stroke="#171C28" stroke-width="5" stroke-linecap="round" stroke-linejoin="round" stroke-miterlimit="10" width="85.05" height="27"/>
</g>
</svg>
