<?xml version="1.0" encoding="utf-8"?>
<!-- Generator: Adobe Illustrator 16.0.0, SVG Export Plug-In . SVG Version: 6.00 Build 0)  -->
<!DOCTYPE svg PUBLIC "-//W3C//DTD SVG 1.1//EN" "http://www.w3.org/Graphics/SVG/1.1/DTD/svg11.dtd">
<svg version="1.1" id="Layer_1" xmlns="http://www.w3.org/2000/svg" xmlns:xlink="http://www.w3.org/1999/xlink" x="0px" y="0px"
	 width="216px" height="216px" viewBox="0 0 216 216" enable-background="new 0 0 216 216" xml:space="preserve">
<g>
	
		<polyline id="XMLID_1471_" fill="#FFFFFF" stroke="#171C28" stroke-width="3" stroke-linecap="round" stroke-linejoin="round" stroke-miterlimit="10" points="
		114.075,183.938 18.563,183.938 18.563,144.787 53.325,131.287 94.5,111.713 123.188,126.563 	"/>
	<path id="XMLID_1470_" fill="#0D3178" d="M61.087,128.925L83.7,182.25c0,0,16.537,0,21.262,0l19.575-54l-29.362-14.514
		L61.087,128.925z"/>
	
		<path id="XMLID_1469_" fill="#FFFFFF" stroke="#171C28" stroke-width="3" stroke-linecap="round" stroke-linejoin="round" stroke-miterlimit="10" d="
		M100.575,22.275C82.35,21.6,75.938,26.663,69.862,34.087c-5.737,7.087-6.412,17.55-6.412,17.55l0.337,33.412h65.137l0.676-38.475
		C129.938,47.25,126.563,23.288,100.575,22.275z"/>
	
		<path id="XMLID_1468_" fill="#FFFFFF" stroke="#171C28" stroke-width="3" stroke-linecap="round" stroke-linejoin="round" stroke-miterlimit="10" d="
		M96.188,148.162h-0.675c-10.8,0-19.238-8.773-19.238-19.237v-15.862h39.15v15.862C115.425,139.389,106.987,148.162,96.188,148.162z
		"/>
	
		<path id="XMLID_1467_" fill="#FFFFFF" stroke="#171C28" stroke-width="3" stroke-linecap="round" stroke-linejoin="round" stroke-miterlimit="10" d="
		M103.275,120.15H86.063c-10.125,0-16.538-9.113-16.538-19.238v-8.1c-3.375,0-1.012,0-1.35,0c-3.037,0-6.412-2.7-6.412-5.737
		c0-3.038,3.037-5.738,6.075-5.738c0.337,0-2.025,0,1.35,0V42.862h52.987v38.813c0,0,1.013,0,1.351,0c3.037,0,5.738,2.7,5.738,5.738
		s-2.701,5.737-5.738,5.737c-0.338,0-1.351,0-1.351,0v8.1c0,5.4-3.375,10.463-7.087,14.175"/>
	<path id="XMLID_1466_" fill="#FFFFFF" d="M124.537,40.5l0.676,6.075L113.4,43.538l-2.363,9.112l-21.262-3.375l4.05,12.488
		c0,0-16.538-12.825-19.238-15.188c0,0-6.413-1.35-6.075,3.037c0,0-3.713-3.712,1.012-8.775"/>
	
		<path id="XMLID_1465_" fill="#FFFFFF" stroke="#171C28" stroke-width="3" stroke-linecap="round" stroke-linejoin="round" stroke-miterlimit="10" d="
		M122.514,46.913l-9.789-3.375l-2.361,9.112L89.1,49.275l4.05,12.488c0,0-17.55-12.488-20.25-15.188c0,0-3.712,0.337-3.712,4.725"/>
	
		<polyline id="XMLID_1464_" fill="#FFFFFF" stroke="#171C28" stroke-width="3" stroke-linecap="round" stroke-linejoin="round" stroke-miterlimit="10" points="
		51.3,133.313 51.3,166.05 64.125,166.05 60.75,174.825 	"/>
	
		<line id="XMLID_1463_" fill="none" stroke="#171C28" stroke-width="3" stroke-linecap="round" stroke-linejoin="round" stroke-miterlimit="10" x1="62.1" y1="129.938" x2="84.375" y2="183.264"/>
	
		<line id="XMLID_345_" fill="none" stroke="#171C28" stroke-width="3" stroke-linecap="round" stroke-linejoin="round" stroke-miterlimit="10" x1="124.537" y1="129.938" x2="102.263" y2="183.264"/>
	
		<circle id="XMLID_1461_" fill="#FFFFFF" stroke="#171C28" stroke-width="3" stroke-linecap="round" stroke-linejoin="round" stroke-miterlimit="10" cx="158.625" cy="154.912" r="38.813"/>
	<g>
		<path fill="#0D3178" d="M174.15,149.175h-3.039v-4.05c0-7.088-5.736-12.486-12.486-12.486c-6.412,0-11.813,5.063-12.486,11.475
			c0,0.338,0,0.675,0,1.351v4.388h-2.025h-0.338c-0.338,0-1.012,0-1.351,0.338c0,0-0.337,0.338-0.337,0.675v22.612
			c0,1.013,1.012,1.688,1.688,1.688h30.375c0.338,0,0.676,0,0.676-0.337c0.337-0.338,0.337-0.675,0.337-1.013v-0.338V151.2
			C175.162,150.188,175.5,149.175,174.15,149.175z M149.175,145.125c0-5.4,4.388-9.45,9.45-9.45s9.45,4.388,9.45,9.45v4.389h-18.9
			V145.125z M148.162,145.125c0-0.338,0-0.675,0-1.014C148.162,144.111,148.162,144.45,148.162,145.125z M145.125,152.213h3.375
			h22.275h1.35v18.898h-27V152.213z"/>
		<path fill="#0D3178" d="M158.625,160.65c-0.675,0-1.35,0.675-1.35,1.35v5.063c0,0.676,0.675,1.351,1.35,1.351
			s1.35-0.675,1.35-1.351V162C160.313,161.325,159.639,160.65,158.625,160.65z"/>
	</g>
</g>
</svg>
