<?xml version="1.0" encoding="utf-8"?>
<!-- Generator: Adobe Illustrator 16.0.0, SVG Export Plug-In . SVG Version: 6.00 Build 0)  -->
<!DOCTYPE svg PUBLIC "-//W3C//DTD SVG 1.1//EN" "http://www.w3.org/Graphics/SVG/1.1/DTD/svg11.dtd">
<svg version="1.1" id="Layer_1" xmlns="http://www.w3.org/2000/svg" xmlns:xlink="http://www.w3.org/1999/xlink" x="0px" y="0px"
	 width="216px" height="216px" viewBox="0 0 216 216" enable-background="new 0 0 216 216" xml:space="preserve">
<g>
	<g>
		
			<polygon id="XMLID_344_" fill="#FFFFFF" stroke="#171C28" stroke-width="3" stroke-linecap="round" stroke-linejoin="round" stroke-miterlimit="10" points="
			74.925,126.225 103.612,115.088 137.7,98.888 169.764,115.425 197.438,126.563 197.438,158.625 74.925,158.625 		"/>
		<path id="XMLID_343_" fill="#0D3178" d="M109.688,113.4l17.889,43.875c0,0,13.5,0,17.55,0l19.237-44.213l-27.338-12.826
			L109.688,113.4z"/>
		
			<path id="XMLID_341_" fill="#FFFFFF" stroke="#171C28" stroke-width="3" stroke-linecap="round" stroke-linejoin="round" stroke-miterlimit="10" d="
			M141.412,24.975c-14.85-0.675-20.25,3.375-25.313,9.788c-4.726,5.737-5.399,14.512-5.399,14.512l0.337,27.675h54l0.676-31.725
			C165.713,45.563,163.014,25.65,141.412,24.975z"/>
		
			<path id="XMLID_319_" fill="#FFFFFF" stroke="#171C28" stroke-width="3" stroke-linecap="round" stroke-linejoin="round" stroke-miterlimit="10" d="
			M137.7,128.925L137.7,128.925c-9.112,0-16.2-7.425-16.2-16.2V99.9h32.4v12.825C153.9,121.838,146.475,128.925,137.7,128.925z"/>
		
			<path id="XMLID_309_" fill="#FFFFFF" stroke="#171C28" stroke-width="3" stroke-linecap="round" stroke-linejoin="round" stroke-miterlimit="10" d="
			M143.775,105.638H129.6c-8.438,0-13.836-7.425-13.836-15.863v-6.75c-3.039,0-0.676,0-1.014,0c-2.7,0-5.4-2.025-5.4-4.725
			c0-2.7,2.363-4.725,5.063-4.725c0,0-1.688,0,1.013,0V41.513H159.3v32.063c0,0,0.675,0,1.013,0c2.701,0,4.726,2.025,4.726,4.725
			c0,2.7-2.024,4.725-4.726,4.725c-0.338,0-1.013,0-1.013,0v6.75c0,4.388-2.7,8.775-6.075,11.813"/>
		<path id="XMLID_308_" fill="#FFFFFF" d="M115.088,40.163c-2.699,4.387-0.338,7.087-0.338,7.087c0-3.712,5.063-2.362,5.063-2.362
			c2.025,2.025,15.862,12.487,15.862,12.487L132.3,47.25l17.55,3.038l1.688-7.425l9.788,2.7l0.337-4.05l-3.037-3.375"/>
		
			<path id="XMLID_299_" fill="#FFFFFF" stroke="#171C28" stroke-width="3" stroke-linecap="round" stroke-linejoin="round" stroke-miterlimit="10" d="
			M159.639,45.225l-7.764-2.7l-1.688,7.425l-17.551-3.038l3.375,10.125c0,0-14.513-10.462-16.537-12.488
			c0,0-3.037,0.338-3.037,3.713"/>
		
			<polyline id="XMLID_251_" fill="#FFFFFF" stroke="#171C28" stroke-width="3" stroke-linecap="round" stroke-linejoin="round" stroke-miterlimit="10" points="
			100.913,116.775 100.913,143.775 111.375,143.775 108.675,151.2 		"/>
		
			<polyline id="XMLID_211_" fill="#FFFFFF" stroke="#171C28" stroke-width="3" stroke-linecap="round" stroke-linejoin="round" stroke-miterlimit="10" points="
			168.75,116.775 168.75,139.05 161.325,139.05 162.338,148.5 		"/>
		
			<line id="XMLID_210_" fill="none" stroke="#171C28" stroke-width="3" stroke-linecap="round" stroke-linejoin="round" stroke-miterlimit="10" x1="109.688" y1="114.075" x2="128.25" y2="157.95"/>
		
			<line id="XMLID_209_" fill="none" stroke="#171C28" stroke-width="3" stroke-linecap="round" stroke-linejoin="round" stroke-miterlimit="10" x1="163.688" y1="113.063" x2="145.8" y2="157.95"/>
	</g>
	<g>
		
			<polygon id="XMLID_206_" fill="#FFFFFF" stroke="#171C28" stroke-width="3" stroke-linecap="round" stroke-linejoin="round" stroke-miterlimit="10" points="
			18.563,153.9 51.3,141.412 90.112,122.85 126.563,141.75 157.95,154.236 157.95,191.025 18.563,191.025 		"/>
		<path id="XMLID_186_" fill="#0D3178" d="M58.725,139.725l20.25,49.95c0,0,15.525,0,19.913,0l21.938-50.286l-31.05-14.514
			L58.725,139.725z"/>
		
			<path id="XMLID_185_" fill="#FFFFFF" stroke="#171C28" stroke-width="3" stroke-linecap="round" stroke-linejoin="round" stroke-miterlimit="10" d="
			M94.163,38.813c-16.875-0.675-23.288,4.05-29.025,11.138c-5.4,6.75-6.075,16.537-6.075,16.537L59.4,97.875h61.425l0.675-36.112
			C121.838,62.1,118.8,39.487,94.163,38.813z"/>
		
			<path id="XMLID_184_" fill="#FFFFFF" stroke="#171C28" stroke-width="3" stroke-linecap="round" stroke-linejoin="round" stroke-miterlimit="10" d="
			M90.112,157.275h-0.675c-10.125,0-18.225-8.102-18.225-18.227V124.2H108v14.85C108.337,149.175,100.237,157.275,90.112,157.275z"
			/>
		
			<path id="XMLID_183_" fill="#FFFFFF" stroke="#171C28" stroke-width="3" stroke-linecap="round" stroke-linejoin="round" stroke-miterlimit="10" d="
			M96.862,130.611h-16.2c-9.45,0-15.525-8.773-15.525-18.225v-7.425c-3.375,0-1.013,0-1.013,0c-3.038,0-6.075-2.362-6.075-5.4
			s2.7-5.4,5.738-5.4c0.337,0-2.025,0,1.35,0V58.05h49.95V94.5c0,0,0.675,0,1.013,0c3.037,0,5.399,2.362,5.399,5.4
			s-2.362,5.4-5.399,5.4c-0.338,0-1.013,0-1.013,0v7.425c0,5.063-3.038,10.125-6.75,13.5"/>
		<path id="XMLID_181_" fill="#FFFFFF" d="M117.111,55.35v6.413l-11.136-3.038l-2.025,8.438l-19.913-3.375L87.75,75.6
			c0,0-15.525-12.15-18.225-14.513c0,0-6.075-1.35-5.737,2.7c0,0-3.712-3.712,1.012-8.1"/>
		
			<path id="XMLID_180_" fill="#FFFFFF" stroke="#171C28" stroke-width="3" stroke-linecap="round" stroke-linejoin="round" stroke-miterlimit="10" d="
			M115.088,61.763l-9.113-3.038l-2.025,8.438l-19.913-3.375L87.75,75.6c0,0-16.538-11.813-18.9-14.175c0,0-3.712,0.338-3.375,4.388"
			/>
		
			<polyline id="XMLID_179_" fill="#FFFFFF" stroke="#171C28" stroke-width="3" stroke-linecap="round" stroke-linejoin="round" stroke-miterlimit="10" points="
			47.925,144.45 47.925,172.8 59.4,172.8 56.362,182.588 		"/>
		
			<polyline id="XMLID_158_" fill="#FFFFFF" stroke="#171C28" stroke-width="3" stroke-linecap="round" stroke-linejoin="round" stroke-miterlimit="10" points="
			119.813,140.736 119.813,172.8 116.775,172.8 115.425,183.264 		"/>
		
			<line id="XMLID_132_" fill="none" stroke="#171C28" stroke-width="3" stroke-linecap="round" stroke-linejoin="round" stroke-miterlimit="10" x1="58.05" y1="140.063" x2="78.975" y2="190.35"/>
		
			<line id="XMLID_27_" fill="none" stroke="#171C28" stroke-width="3" stroke-linecap="round" stroke-linejoin="round" stroke-miterlimit="10" x1="119.475" y1="139.05" x2="98.888" y2="190.35"/>
	</g>
</g>
</svg>
