<?xml version="1.0" encoding="utf-8"?>
<!-- Generator: Adobe Illustrator 16.0.0, SVG Export Plug-In . SVG Version: 6.00 Build 0)  -->
<!DOCTYPE svg PUBLIC "-//W3C//DTD SVG 1.1//EN" "http://www.w3.org/Graphics/SVG/1.1/DTD/svg11.dtd">
<svg version="1.1" id="Layer_1" xmlns="http://www.w3.org/2000/svg" xmlns:xlink="http://www.w3.org/1999/xlink" x="0px" y="0px"
	 width="216px" height="216px" viewBox="0 0 216 216" enable-background="new 0 0 216 216" xml:space="preserve">
<g>
	
		<polygon id="XMLID_1330_" fill="none" stroke="#171C28" stroke-width="3" stroke-linecap="round" stroke-linejoin="round" stroke-miterlimit="10" points="
		33.413,149.85 68.175,136.35 109.688,116.438 149.175,136.688 182.588,150.188 182.588,189.675 33.413,189.675 	"/>
	<path id="XMLID_1329_" fill="#0D3178" d="M75.6,134.325l21.6,53.661c0,0,16.536,0,21.6,0l23.625-54l-33.075-15.523L75.6,134.325z"
		/>
	
		<path id="XMLID_1328_" fill="none" stroke="#171C28" stroke-width="3" stroke-linecap="round" stroke-linejoin="round" stroke-miterlimit="10" d="
		M114.412,26.325c-18.225-0.675-24.975,4.387-31.05,11.813c-5.737,7.087-6.412,17.887-6.412,17.887l0.675,33.75h65.813l0.676-38.813
		C144.111,51.3,140.736,27.337,114.412,26.325z"/>
	
		<path id="XMLID_1324_" fill="#FFFFFF" stroke="#171C28" stroke-width="3" stroke-linecap="round" stroke-linejoin="round" stroke-miterlimit="10" d="
		M112.05,153.225h-4.725c-9.788,0-17.55-7.762-17.55-17.55v-17.55h39.489v17.889C129.6,145.463,121.838,153.225,112.05,153.225z"/>
	
		<path id="XMLID_1323_" fill="#FFFFFF" stroke="#171C28" stroke-width="3" stroke-linecap="round" stroke-linejoin="round" stroke-miterlimit="10" d="
		M117.111,124.875H99.9c-10.125,0-16.538-9.111-16.538-19.237v-8.1c-3.712,0-1.012,0-1.35,0c-3.038,0-6.413-2.7-6.413-5.738
		c0-3.037,3.038-5.737,6.075-5.737c0.338,0-2.025,0,1.35,0v-39.15h53.664v39.15c0,0,1.013,0,1.35,0c3.038,0,5.738,2.7,5.738,5.737
		c0,3.038-2.7,5.738-5.738,5.738c-0.337,0-1.35,0-1.35,0v8.1c0,5.399-3.375,10.799-7.426,14.512"/>
	<path id="XMLID_2_" fill="#FFFFFF" d="M83.323,43.562l53.364-0.46l3.35,3.448l-0.987,4.413L126.9,47.925l-2.025,9.113
		l-21.263-3.712l4.05,12.487c0,0-16.875-12.825-19.238-15.525c0,0-6.412-1.35-6.075,3.038c0,0-4.05-3.713,1.012-8.775L83.323,43.562
		z"/>
	
		<path id="XMLID_1285_" fill="none" stroke="#171C28" stroke-width="3" stroke-linecap="round" stroke-linejoin="round" stroke-miterlimit="10" d="
		M136.688,51.3l-9.787-3.375l-2.024,9.113l-21.263-3.712l4.05,12.487c0,0-17.55-12.825-20.25-15.188c0,0-4.05,0.337-3.712,4.725"/>
	
		<polyline id="XMLID_1284_" fill="none" stroke="#171C28" stroke-width="3" stroke-linecap="round" stroke-linejoin="round" stroke-miterlimit="10" points="
		64.8,138.375 64.8,171.45 77.625,171.45 74.25,180.563 	"/>
	
		<polyline id="XMLID_604_" fill="none" stroke="#171C28" stroke-width="3" stroke-linecap="round" stroke-linejoin="round" stroke-miterlimit="10" points="
		144.787,138.375 144.787,170.438 138.375,170.438 138.375,180.9 	"/>
	
		<line id="XMLID_600_" fill="none" stroke="#171C28" stroke-width="3" stroke-linecap="round" stroke-linejoin="round" stroke-miterlimit="10" x1="75.6" y1="135" x2="98.212" y2="188.662"/>
	<line id="XMLID_599_" fill="none" x1="141.075" y1="134.325" x2="119.139" y2="189.338"/>
</g>
<g>
	
		<path fill="#FFFFFF" stroke="#171C28" stroke-width="3" stroke-linecap="round" stroke-linejoin="round" stroke-miterlimit="10" d="
		M37.125,195.75l154.912-1.014c2.363,0,2.699,1.352,2.025,2.363c-3.037,3.037-13.162,9.449-13.162,9.449l-143.775,1.014"/>
	
		<path fill="#FFFFFF" stroke="#171C28" stroke-width="3" stroke-linecap="round" stroke-linejoin="round" stroke-miterlimit="10" d="
		M178.875,195.75l-154.913-1.014c-2.362,0-2.7,1.352-2.025,2.363c3.038,3.037,13.163,9.449,13.163,9.449l143.775,1.014"/>
	
		<path fill="#FFFFFF" stroke="#171C28" stroke-width="3" stroke-linecap="round" stroke-linejoin="round" stroke-miterlimit="10" d="
		M177.188,207.563H39.15c-3.712,0-7.087-3.037-7.087-7.088v-63.449c0-3.713,3.038-7.088,7.087-7.088h138.038
		c3.713,0,7.088,3.037,7.088,7.088v63.787C184.275,204.525,181.236,207.563,177.188,207.563z"/>
	
		<circle fill="#FFFFFF" stroke="#171C28" stroke-width="3" stroke-linecap="round" stroke-linejoin="round" stroke-miterlimit="10" cx="108.337" cy="168.75" r="10.125"/>
	<circle fill="#0D3178" cx="108.337" cy="168.75" r="6.75"/>
</g>
</svg>
