<?xml version="1.0" encoding="utf-8"?>
<!-- Generator: Adobe Illustrator 16.0.0, SVG Export Plug-In . SVG Version: 6.00 Build 0)  -->
<!DOCTYPE svg PUBLIC "-//W3C//DTD SVG 1.1//EN" "http://www.w3.org/Graphics/SVG/1.1/DTD/svg11.dtd">
<svg version="1.1" id="Layer_1" xmlns="http://www.w3.org/2000/svg" xmlns:xlink="http://www.w3.org/1999/xlink" x="0px" y="0px"
	 width="216px" height="216px" viewBox="0 0 216 216" enable-background="new 0 0 216 216" xml:space="preserve">
<path fill="#ABE0F9" d="M71.997,88.65L78.6,50.528l21.469,12.751l-1.194-10.404l17.25,2.5l6.05-7.788l8.7,4.288l1.088,32.875
	l5.737,1.625l2.362-37.75c0,0-9.699-31.631-46.381-20.878C75.25,38,72.077,42.125,72.226,74.125c0.024,9,0.024,9,0.024,9
	s-3.432,13.652,1.284,13.139s5.841,2.861,5.841,2.861"/>
<path fill="none" stroke="#4C5C68" stroke-width="5" stroke-linecap="round" stroke-linejoin="round" stroke-miterlimit="10" d="
	M138.714,89.775l0.677-38.813c-0.002,0.338-3.377-23.625-29.703-24.637c-18.225-0.675-24.975,4.387-31.048,11.813
	c-5.738,7.087-6.413,17.887-6.413,17.887l0.675,33.75"/>
<path fill="#FFFFFF" stroke="#4C5C68" stroke-width="5" stroke-miterlimit="10" d="M28.688,149.85l35.1-13.836l41.512-19.576
	l39.15,20.25l33.75,13.5v39.15H28.688V149.85z"/>
<path fill="#0D3178" d="M70.875,134.325l21.6,53.661h21.6l23.625-54l-33.075-15.523L70.875,134.325z"/>
<path fill="#FFFFFF" stroke="#4C5C68" stroke-width="5" stroke-linecap="round" stroke-linejoin="round" stroke-miterlimit="10" d="
	M107.325,153.225H102.6c-9.788,0-17.55-7.762-17.55-17.55v-17.888h39.825v17.888C124.875,145.463,117.111,153.225,107.325,153.225z
	 M131.963,46.913v39.15h1.35c3.037,0,5.737,2.7,5.737,5.737c0,3.038-2.7,5.738-5.737,5.738h-1.35v8.1
	c0,5.399-3.375,10.799-7.426,14.512 M112.389,124.875H95.175c-10.125,0-16.537-9.111-16.537-19.237v-8.1h-1.35
	c-3.038,0-6.413-2.7-6.413-5.738c0-3.037,3.038-5.737,6.075-5.737h1.35v-39.15"/>
<path fill="none" stroke="#4C5C68" stroke-width="5" stroke-linecap="round" stroke-linejoin="round" stroke-miterlimit="10" d="
	M131.963,50.962l-9.788-3.375l-2.362,9.113L98.55,52.987l4.05,12.488c0,0-17.55-12.825-20.25-15.188c0,0-4.05,0.337-3.712,4.725
	 M60.075,138.037v33.074H72.9l-3.375,9.113 M140.063,138.375v32.063h-6.074V180.9 M71.212,134.662l22.275,54 M136.688,133.65
	l-21.938,55.012"/>
</svg>
