<?xml version="1.0" encoding="utf-8"?>
<!-- Generator: Adobe Illustrator 16.0.0, SVG Export Plug-In . SVG Version: 6.00 Build 0)  -->
<!DOCTYPE svg PUBLIC "-//W3C//DTD SVG 1.1//EN" "http://www.w3.org/Graphics/SVG/1.1/DTD/svg11.dtd">
<svg version="1.1" id="Layer_1" xmlns="http://www.w3.org/2000/svg" xmlns:xlink="http://www.w3.org/1999/xlink" x="0px" y="0px"
	 width="216px" height="216px" viewBox="0 0 216 216" enable-background="new 0 0 216 216" xml:space="preserve">
<g>
	
		<polyline id="XMLID_653_" fill="#FFFFFF" stroke="#171C28" stroke-width="5" stroke-linecap="round" stroke-linejoin="round" stroke-miterlimit="10" points="
		159.639,61.425 159.639,194.736 38.813,194.736 38.813,18.563 124.2,18.563 	"/>
	
		<polyline id="XMLID_652_" fill="#FFFFFF" stroke="#171C28" stroke-width="5" stroke-linecap="round" stroke-linejoin="round" stroke-miterlimit="10" points="
		168.075,68.513 168.075,194.736 47.25,194.736 47.25,67.163 47.25,44.888 47.25,28.013 132.639,28.013 	"/>
	<polyline id="XMLID_651_" fill="#FFFFFF" points="177.188,77.288 177.188,197.438 57.038,197.438 57.038,183.264 57.038,157.95 
		57.038,38.813 141.75,38.813 	"/>
	
		<polyline id="XMLID_650_" fill="#FFFFFF" stroke="#171C28" stroke-width="5" stroke-linecap="round" stroke-linejoin="round" stroke-miterlimit="10" points="
		55.35,155.588 55.35,37.125 140.736,37.125 	"/>
	
		<polygon id="XMLID_647_" fill="#FFFFFF" stroke="#171C28" stroke-width="5" stroke-linecap="round" stroke-linejoin="round" stroke-miterlimit="10" points="
		140.736,36.45 140.736,76.612 177.188,76.612 	"/>
	
		<line id="XMLID_645_" fill="none" stroke="#171C28" stroke-width="5" stroke-linecap="round" stroke-linejoin="round" stroke-miterlimit="10" x1="107.325" y1="91.125" x2="153.9" y2="91.125"/>
	
		<line id="XMLID_639_" fill="none" stroke="#171C28" stroke-width="5" stroke-linecap="round" stroke-linejoin="round" stroke-miterlimit="10" x1="107.325" y1="105.3" x2="138.713" y2="105.3"/>
	
		<polyline id="XMLID_557_" fill="#FFFFFF" stroke="#171C28" stroke-width="5" stroke-linecap="round" stroke-linejoin="round" stroke-miterlimit="10" points="
		176.85,76.275 176.85,194.736 152.889,194.736 55.35,194.736 55.35,180.563 	"/>
	
		<line id="XMLID_638_" fill="none" stroke="#171C28" stroke-width="5" stroke-linecap="round" stroke-linejoin="round" stroke-miterlimit="10" x1="74.25" y1="119.813" x2="141.412" y2="119.813"/>
	
		<line id="XMLID_633_" fill="none" stroke="#171C28" stroke-width="5" stroke-linecap="round" stroke-linejoin="round" stroke-miterlimit="10" x1="74.25" y1="136.35" x2="141.412" y2="136.35"/>
	
		<line id="XMLID_632_" fill="none" stroke="#171C28" stroke-width="5" stroke-linecap="round" stroke-linejoin="round" stroke-miterlimit="10" x1="74.25" y1="150.861" x2="141.412" y2="150.861"/>
	
		<line id="XMLID_631_" fill="none" stroke="#171C28" stroke-width="5" stroke-linecap="round" stroke-linejoin="round" stroke-miterlimit="10" x1="81.675" y1="165.037" x2="140.736" y2="165.037"/>
	
		<rect id="XMLID_630_" x="74.25" y="83.7" fill="#0D3178" stroke="#171C28" stroke-width="5" stroke-linecap="round" stroke-linejoin="round" stroke-miterlimit="10" width="21.6" height="21.6"/>
</g>
</svg>
