<?xml version="1.0" encoding="utf-8"?>
<!-- Generator: Adobe Illustrator 16.0.0, SVG Export Plug-In . SVG Version: 6.00 Build 0)  -->
<!DOCTYPE svg PUBLIC "-//W3C//DTD SVG 1.1//EN" "http://www.w3.org/Graphics/SVG/1.1/DTD/svg11.dtd">
<svg version="1.1" id="Layer_1" xmlns="http://www.w3.org/2000/svg" xmlns:xlink="http://www.w3.org/1999/xlink" x="0px" y="0px"
	 width="216px" height="216px" viewBox="0 0 216 216" enable-background="new 0 0 216 216" xml:space="preserve">
<line fill="none" stroke="#171C28" stroke-width="3" stroke-linecap="round" stroke-linejoin="round" stroke-miterlimit="10" x1="65.475" y1="176.514" x2="87.075" y2="138.713"/>
<line fill="#FFFFFF" stroke="#171C28" stroke-width="3" stroke-linecap="round" stroke-linejoin="round" stroke-miterlimit="10" x1="153.563" y1="176.514" x2="131.963" y2="138.713"/>
<line fill="none" stroke="#171C28" stroke-width="3" stroke-linecap="round" stroke-linejoin="round" stroke-miterlimit="10" x1="109.688" y1="137.361" x2="109.688" y2="177.861"/>
<rect x="39.825" y="57.712" fill="#FFFFFF" stroke="#171C28" stroke-width="3" stroke-linecap="round" stroke-linejoin="round" stroke-miterlimit="10" width="136.35" height="81.337"/>
<rect x="28.013" y="47.587" fill="#FFFFFF" stroke="#171C28" stroke-width="3" stroke-linecap="round" stroke-linejoin="round" stroke-miterlimit="10" width="159.299" height="10.125"/>
<rect x="96.188" y="37.462" fill="#FFFFFF" stroke="#171C28" stroke-width="3" stroke-linecap="round" stroke-linejoin="round" stroke-miterlimit="10" width="23.287" height="10.125"/>
<line fill="none" stroke="#171C28" stroke-width="3" stroke-linecap="round" stroke-linejoin="round" stroke-miterlimit="10" x1="58.05" y1="71.212" x2="94.837" y2="71.212"/>
<line fill="none" stroke="#171C28" stroke-width="3" stroke-linecap="round" stroke-linejoin="round" stroke-miterlimit="10" x1="58.05" y1="88.087" x2="94.837" y2="88.087"/>
<line fill="none" stroke="#171C28" stroke-width="3" stroke-linecap="round" stroke-linejoin="round" stroke-miterlimit="10" x1="58.05" y1="104.962" x2="94.837" y2="104.962"/>
<line fill="none" stroke="#171C28" stroke-width="3" stroke-linecap="round" stroke-linejoin="round" stroke-miterlimit="10" x1="58.05" y1="125.55" x2="94.837" y2="125.55"/>
<path fill="#0D3178" d="M120.15,97.875c0,12.486,10.461,22.611,23.287,21.264c7.088-0.676,13.5-5.063,16.875-11.476
	c8.774-15.863-5.737-31.05-18.563-31.05v21.263L120.15,97.875L120.15,97.875z"/>
<path fill="#00984A" d="M135,74.25v16.875h-16.875C118.125,91.125,118.125,76.275,135,74.25z"/>
<g>
	<g>
		
			<path fill="#FFFFFF" stroke="#171C28" stroke-width="3" stroke-linecap="round" stroke-linejoin="round" stroke-miterlimit="10" d="
			M198.111,162.675c0,0.339,0,1.013-0.336,1.351c0.675,0.338,1.012,0.338,1.688,0.676c0.676,0.337,1.688,0.675,2.362,1.013
			c1.35,0.337,1.688,1.688,1.35,3.037c-0.337,1.351-1.013,2.7-1.35,4.05c-0.339,1.014-1.688,1.688-3.038,1.352
			c-1.35-0.338-2.362-1.014-3.712-1.352c-0.339,0-0.339,0-0.675,0.338c-1.014,1.688-2.7,3.375-4.051,4.726
			c-0.338,0.338-0.676,0.675-1.013,1.013c0.337,1.014,1.013,2.025,1.351,3.037c0,0.338,0.338,0.338,0.338,0.676
			c0.336,1.012,0,2.362-1.014,3.037c-1.351,0.675-2.699,1.35-4.05,1.688c-1.013,0.338-2.362,0-2.7-1.013
			c-0.675-1.35-1.013-2.362-1.688-3.712v-0.338c-0.676,0-1.352,0.338-2.025,0.338c-0.337,0-0.675,0-1.013,0l0,0
			c-1.013,0-2.362,0-3.375,0h-0.337c-0.338,0-0.338,0-0.676,0s-0.676,0-1.012,0c-0.339,1.012-0.676,2.024-1.014,3.037
			c0,0.338-0.338,0.675-0.338,1.014c-0.338,1.012-1.688,1.688-3.037,1.35s-2.7-1.014-4.051-1.35
			c-1.012-0.339-1.688-1.688-1.35-3.039c0.338-1.35,1.012-2.361,1.35-3.711c0-0.339,0-0.339-0.338-0.339
			c-1.35-1.013-2.699-2.024-3.711-3.036c-0.676-0.676-1.014-1.352-1.688-2.025c0,0,0,0-0.338-0.338
			c-1.013,0.338-2.024,1.013-3.037,1.351c-0.338,0.338-1.013,0.338-1.351,0.338c-1.014,0.337-2.024-0.338-2.362-1.351
			c-0.675-1.35-1.351-2.7-1.688-4.051c-0.338-1.013,0-2.361,1.014-2.699c1.35-0.676,2.361-1.014,3.712-1.688
			c0.338,0,0.338-0.337,0.338-0.675c0-0.675-0.338-1.688-0.338-2.361v-0.339l0,0c0-0.675,0-1.688,0-2.362
			c0-1.013,0-1.688,0.338-2.699c-1.013-0.338-1.688-0.676-2.362-1.014c-0.338,0-1.013-0.336-1.351-0.336
			c-1.351-0.339-1.688-1.688-1.351-3.039c0.338-1.35,1.014-2.699,1.351-3.711c0.338-1.014,2.024-1.688,3.038-1.352
			c1.35,0.338,2.361,1.013,3.712,1.352h0.338c1.351-2.363,3.037-4.051,5.399-5.738l0,0c-0.338-1.012-1.013-2.024-1.351-3.037
			c0-0.338-0.337-0.676-0.337-0.676c-0.676-1.35,0-2.699,1.012-3.037c1.352-0.676,2.363-1.012,3.713-1.688
			c1.014-0.338,2.362,0,3.037,1.012c0.338,0.676,0.676,1.352,1.014,2.025c0.338,0.675,0.675,1.014,0.675,1.688
			c0,0.338,0.338,0.338,0.338,0.338c1.351,0,2.362-0.338,3.713-0.338c0.337,0,1.013,0,1.351,0h0.338c0.336,0,0.674,0,1.35,0
			c0.338,0,0.675,0,0.675,0c0.339,0,0.339,0,0.675-0.338c0.338-1.012,1.014-2.361,1.352-3.375c0.337-1.35,1.688-1.688,3.037-1.35
			c1.351,0.338,2.699,1.014,4.05,1.35c1.013,0.338,1.688,1.688,1.351,3.039c-0.338,1.35-1.013,2.361-1.351,3.711
			c0,0.338,0,0.338,0.338,0.338c1.351,1.014,2.7,2.025,3.713,3.037c0.675,0.676,1.351,1.352,1.688,2.025c0,0,0,0,0.336,0.338
			c0.676-0.338,1.352-0.676,2.025-1.013c0.676-0.338,1.35-0.675,2.024-1.013c1.013-0.338,2.024,0.338,2.362,1.35
			c0.676,1.352,1.351,2.7,1.688,4.051c0.337,1.012,0,2.362-1.013,2.699c-1.352,0.676-2.362,1.013-3.713,1.688
			c0,0-0.338,0-0.338,0.338c0,1.014,0.338,2.362,0.338,3.375c0,0,0,0,0,0.338C198.111,161.325,198.111,162,198.111,162.675
			C198.111,162,198.111,162.338,198.111,162.675z M176.514,145.125c-8.438,0-15.525,7.088-15.525,15.525
			c0,8.437,7.088,15.523,15.525,15.523c8.773,0,15.523-6.75,15.523-15.523C192.037,152.213,184.95,145.125,176.514,145.125z"/>
	</g>
	
		<path fill="#FFFFFF" stroke="#171C28" stroke-width="3" stroke-linecap="round" stroke-linejoin="round" stroke-miterlimit="10" d="
		M198.111,162.675c0,0.339,0,1.013-0.336,1.351c0.675,0.338,1.012,0.338,1.688,0.676c0.676,0.337,1.688,0.675,2.362,1.013
		c1.35,0.337,1.688,1.688,1.35,3.037c-0.337,1.351-1.013,2.7-1.35,4.05c-0.339,1.014-1.688,1.688-3.038,1.352
		c-1.35-0.338-2.362-1.014-3.712-1.352c-0.339,0-0.339,0-0.675,0.338c-1.014,1.688-2.7,3.375-4.051,4.726
		c-0.338,0.338-0.676,0.675-1.013,1.013c0.337,1.014,1.013,2.025,1.351,3.037c0,0.338,0.338,0.338,0.338,0.676
		c0.336,1.012,0,2.362-1.014,3.037c-1.351,0.675-2.699,1.35-4.05,1.688c-1.013,0.338-2.362,0-2.7-1.013
		c-0.675-1.35-1.013-2.362-1.688-3.712v-0.338c-0.676,0-1.352,0.338-2.025,0.338c-0.337,0-0.675,0-1.013,0l0,0
		c-1.013,0-2.362,0-3.375,0h-0.337c-0.338,0-0.338,0-0.676,0s-0.676,0-1.012,0c-0.339,1.012-0.676,2.024-1.014,3.037
		c0,0.338-0.338,0.675-0.338,1.014c-0.338,1.012-1.688,1.688-3.037,1.35s-2.7-1.014-4.051-1.35c-1.012-0.339-1.688-1.688-1.35-3.039
		c0.338-1.35,1.012-2.361,1.35-3.711c0-0.339,0-0.339-0.338-0.339c-1.35-1.013-2.699-2.024-3.711-3.036
		c-0.676-0.676-1.014-1.352-1.688-2.025c0,0,0,0-0.338-0.338c-1.013,0.338-2.024,1.013-3.037,1.351
		c-0.338,0.338-1.013,0.338-1.351,0.338c-1.014,0.337-2.024-0.338-2.362-1.351c-0.675-1.35-1.351-2.7-1.688-4.051
		c-0.338-1.013,0-2.361,1.014-2.699c1.35-0.676,2.361-1.014,3.712-1.688c0.338,0,0.338-0.337,0.338-0.675
		c0-0.675-0.338-1.688-0.338-2.361v-0.339l0,0c0-0.675,0-1.688,0-2.362c0-1.013,0-1.688,0.338-2.699
		c-1.013-0.338-1.688-0.676-2.362-1.014c-0.338,0-1.013-0.336-1.351-0.336c-1.351-0.339-1.688-1.688-1.351-3.039
		c0.338-1.35,1.014-2.699,1.351-3.711c0.338-1.014,2.024-1.688,3.038-1.352c1.35,0.338,2.361,1.013,3.712,1.352h0.338
		c1.351-2.363,3.037-4.051,5.399-5.738l0,0c-0.338-1.012-1.013-2.024-1.351-3.037c0-0.338-0.337-0.676-0.337-0.676
		c-0.676-1.35,0-2.699,1.012-3.037c1.352-0.676,2.363-1.012,3.713-1.688c1.014-0.338,2.362,0,3.037,1.012
		c0.338,0.676,0.676,1.352,1.014,2.025c0.338,0.675,0.675,1.014,0.675,1.688c0,0.338,0.338,0.338,0.338,0.338
		c1.351,0,2.362-0.338,3.713-0.338c0.337,0,1.013,0,1.351,0h0.338c0.336,0,0.674,0,1.35,0c0.338,0,0.675,0,0.675,0
		c0.339,0,0.339,0,0.675-0.338c0.338-1.012,1.014-2.361,1.352-3.375c0.337-1.35,1.688-1.688,3.037-1.35
		c1.351,0.338,2.699,1.014,4.05,1.35c1.013,0.338,1.688,1.688,1.351,3.039c-0.338,1.35-1.013,2.361-1.351,3.711
		c0,0.338,0,0.338,0.338,0.338c1.351,1.014,2.7,2.025,3.713,3.037c0.675,0.676,1.351,1.352,1.688,2.025c0,0,0,0,0.336,0.338
		c0.676-0.338,1.352-0.676,2.025-1.013c0.676-0.338,1.35-0.675,2.024-1.013c1.013-0.338,2.024,0.338,2.362,1.35
		c0.676,1.352,1.351,2.7,1.688,4.051c0.337,1.012,0,2.362-1.013,2.699c-1.352,0.676-2.362,1.013-3.713,1.688
		c0,0-0.338,0-0.338,0.338c0,1.014,0.338,2.362,0.338,3.375c0,0,0,0,0,0.338C198.111,161.325,198.111,162,198.111,162.675
		C198.111,162,198.111,162.338,198.111,162.675z"/>
	
		<path fill="#0D3178" stroke="#171C28" stroke-width="3" stroke-linecap="round" stroke-linejoin="round" stroke-miterlimit="10" d="
		M176.514,148.5c6.75,0,12.148,5.4,12.148,12.15s-5.398,12.148-12.148,12.148s-12.15-5.398-12.15-12.148
		S169.764,148.5,176.514,148.5z"/>
</g>
</svg>
