<?xml version="1.0" encoding="utf-8"?>
<!-- Generator: Adobe Illustrator 16.0.0, SVG Export Plug-In . SVG Version: 6.00 Build 0)  -->
<!DOCTYPE svg PUBLIC "-//W3C//DTD SVG 1.1//EN" "http://www.w3.org/Graphics/SVG/1.1/DTD/svg11.dtd">
<svg version="1.1" id="Layer_1" xmlns="http://www.w3.org/2000/svg" xmlns:xlink="http://www.w3.org/1999/xlink" x="0px" y="0px"
	 width="216px" height="216px" viewBox="0 0 216 216" enable-background="new 0 0 216 216" xml:space="preserve">
<g>
	
		<line fill="none" stroke="#171C28" stroke-width="3" stroke-linecap="round" stroke-linejoin="round" stroke-miterlimit="10" x1="60.75" y1="185.287" x2="85.05" y2="142.764"/>
	
		<line fill="none" stroke="#171C28" stroke-width="3" stroke-linecap="round" stroke-linejoin="round" stroke-miterlimit="10" x1="159.639" y1="185.287" x2="135.338" y2="142.764"/>
	
		<line fill="none" stroke="#171C28" stroke-width="3" stroke-linecap="round" stroke-linejoin="round" stroke-miterlimit="10" x1="110.361" y1="141.075" x2="110.361" y2="186.639"/>
	
		<rect x="32.063" y="51.975" fill="#FFFFFF" stroke="#171C28" stroke-width="3" stroke-linecap="round" stroke-linejoin="round" stroke-miterlimit="10" width="152.888" height="91.125"/>
	
		<rect x="18.563" y="40.5" fill="#FFFFFF" stroke="#171C28" stroke-width="3" stroke-linecap="round" stroke-linejoin="round" stroke-miterlimit="10" width="178.875" height="11.475"/>
	
		<rect x="94.837" y="29.362" fill="#FFFFFF" stroke="#171C28" stroke-width="3" stroke-linecap="round" stroke-linejoin="round" stroke-miterlimit="10" width="25.988" height="11.475"/>
	
		<line fill="none" stroke="#171C28" stroke-width="3" stroke-linecap="round" stroke-linejoin="round" stroke-miterlimit="10" x1="52.313" y1="67.163" x2="93.487" y2="67.163"/>
	
		<line fill="none" stroke="#171C28" stroke-width="3" stroke-linecap="round" stroke-linejoin="round" stroke-miterlimit="10" x1="52.313" y1="86.063" x2="93.487" y2="86.063"/>
	
		<line fill="none" stroke="#171C28" stroke-width="3" stroke-linecap="round" stroke-linejoin="round" stroke-miterlimit="10" x1="52.313" y1="105.3" x2="93.487" y2="105.3"/>
	
		<line fill="none" stroke="#171C28" stroke-width="3" stroke-linecap="round" stroke-linejoin="round" stroke-miterlimit="10" x1="52.313" y1="127.912" x2="93.487" y2="127.912"/>
	<path fill="#0D3178" d="M122.175,97.2c0,13.837,11.813,25.313,26.325,23.962c8.1-0.676,15.861-5.063,19.575-12.148
		c9.786-17.889-7.425-35.776-21.601-35.776v23.625L122.175,97.2z"/>
	<path fill="#00984A" d="M138.713,70.538v18.9h-18.9C119.813,89.438,119.813,72.563,138.713,70.538z"/>
</g>
</svg>
