<?xml version="1.0" encoding="utf-8"?>
<!-- Generator: Adobe Illustrator 22.0.1, SVG Export Plug-In . SVG Version: 6.00 Build 0)  -->
<svg version="1.1" xmlns="http://www.w3.org/2000/svg" xmlns:xlink="http://www.w3.org/1999/xlink" x="0px" y="0px"
	 viewBox="0 0 756.489 469.916" style="enable-background:new 0 0 756.489 469.916;" xml:space="preserve">
<style type="text/css">
	.st0{fill:url(#SVGID_1_);}
	.st1{fill:url(#SVGID_2_);}
	.st2{fill:#FAFAFF;}
	.st3{fill:url(#XMLID_17_);}
	.st4{fill:#FFFFFF;}
	.st5{fill:#F0F1FE;}
	.st6{fill:#536DFE;}
	.st7{fill:#E0E3FD;}
	.st8{fill:#FF5F00;}
	.st9{fill:#D1D4FC;}
	.st10{fill:#FFDFD6;}
	.st11{fill:#FFDFCC;}
	.st12{fill:#B2B8FA;}
	.st13{fill:#5361F0;}
	.st14{fill:url(#SVGID_3_);}
	.st15{opacity:0.15;}
	.st16{fill:#3FCDBA;}
	.st17{opacity:0.47;}
	.st18{fill:#E0E4F0;}
	.st19{fill:#65B5B7;}
	.st20{fill:#191C3C;}
	.st21{fill:#FDFDFE;}
	.st22{fill:#575A8F;}
	.st23{fill:#6371C5;}
	.st24{opacity:0.3;}
	.st25{fill:#414042;}
	.st26{fill:#FEC55E;}
	.st27{fill:#FDE1A7;}
	.st28{fill:#F1F2F2;}
	.st29{fill:#212121;}
	.st30{fill:url(#SVGID_4_);}
	.st31{fill:url(#SVGID_5_);}
	.st32{fill:#56408B;}
	.st33{fill:url(#XMLID_20_);}
	.st34{opacity:0.1;fill:#191C3C;}
	.st35{fill:#D77EDB;}
	.st36{fill:#5DDAF4;}
	.st37{fill:url(#XMLID_26_);}
	.st38{opacity:0.2;fill:#414042;}
	.st39{opacity:0.2;fill:#525D7A;}
	.st40{fill:url(#XMLID_27_);}
	.st41{fill:url(#XMLID_28_);}
	.st42{opacity:0.06;fill:#FFFFFF;}
	.st43{opacity:0.1;fill:#525D7A;}
	.st44{fill:#E6E7E8;}
	.st45{fill:#525D7A;}
	.st46{fill:url(#SVGID_6_);}
	.st47{opacity:0.15;fill:#525D7A;}
	.st48{fill:url(#SVGID_7_);}
	.st49{fill:url(#SVGID_8_);}
	.st50{fill:url(#XMLID_29_);}
	.st51{fill:url(#XMLID_30_);}
	.st52{fill:url(#XMLID_31_);}
	.st53{opacity:0.2;}
	.st54{fill:#037982;}
	.st55{opacity:0.3;fill:#3F4949;}
	.st56{fill:#623FE9;}
	.st57{fill:#9EE9F8;}
	.st58{fill:#6C60EB;}
	.st59{fill:#3F3CBC;}
	.st60{opacity:0.3;fill:#525D7A;}
	.st61{fill:#7DE1F6;}
	.st62{fill:url(#);}
	.st63{fill:#F6F6F6;}
	.st64{fill:#7866A2;}
	.st65{opacity:0.3;fill:#231F20;}
	.st66{fill:#F5F7F9;}
	.st67{opacity:0.2;fill:#BABECA;}
	.st68{fill:#FED17E;}
	.st69{fill:url(#SVGID_9_);}
	.st70{opacity:0.5;}
	.st71{fill:url(#SVGID_10_);}
	.st72{fill:url(#SVGID_11_);}
	.st73{fill:url(#XMLID_32_);}
	.st74{fill:url(#XMLID_59_);}
	.st75{fill:url(#XMLID_61_);}
	.st76{fill:url(#XMLID_62_);}
	.st77{fill:url(#SVGID_12_);}
	.st78{fill:url(#SVGID_13_);}
	.st79{fill:url(#SVGID_14_);}
	.st80{fill:url(#XMLID_63_);}
	.st81{fill:url(#XMLID_64_);}
	.st82{fill:url(#XMLID_65_);}
	.st83{fill:url(#SVGID_15_);}
	.st84{fill:url(#SVGID_16_);}
	.st85{fill:url(#XMLID_66_);}
	.st86{fill:url(#XMLID_67_);}
	.st87{fill:url(#XMLID_68_);}
	.st88{fill:url(#XMLID_246_);}
	.st89{fill:url(#SVGID_17_);}
	.st90{fill:url(#SVGID_18_);}
	.st91{fill:url(#SVGID_19_);}
	.st92{fill:url(#XMLID_247_);}
	.st93{fill:url(#XMLID_248_);}
	.st94{fill:url(#XMLID_249_);}
	.st95{fill:url(#SVGID_20_);}
	.st96{fill:url(#SVGID_21_);}
	.st97{fill:url(#SVGID_22_);}
	.st98{fill:url(#SVGID_23_);}
	.st99{fill:#C1C6FB;}
	.st100{fill:url(#XMLID_250_);}
	.st101{opacity:0;fill:#FFFFFF;}
	.st102{opacity:0.0244;fill:#FDFDFF;}
	.st103{opacity:0.0488;fill:#FBFCFF;}
	.st104{opacity:0.0732;fill:#F9FAFF;}
	.st105{opacity:0.0976;fill:#F7F8FF;}
	.st106{opacity:0.122;fill:#F6F6FE;}
	.st107{opacity:0.1463;fill:#F4F5FE;}
	.st108{opacity:0.1707;fill:#F2F3FE;}
	.st109{opacity:0.1951;fill:#F0F1FE;}
	.st110{opacity:0.2195;fill:#EEEFFE;}
	.st111{opacity:0.2439;fill:#ECEEFE;}
	.st112{opacity:0.2683;fill:#EAECFE;}
	.st113{opacity:0.2927;fill:#E8EAFE;}
	.st114{opacity:0.3171;fill:#E7E8FD;}
	.st115{opacity:0.3415;fill:#E5E7FD;}
	.st116{opacity:0.3659;fill:#E3E5FD;}
	.st117{opacity:0.3902;fill:#E1E3FD;}
	.st118{opacity:0.4146;fill:#DFE2FD;}
	.st119{opacity:0.439;fill:#DDE0FD;}
	.st120{opacity:0.4634;fill:#DBDEFD;}
	.st121{opacity:0.4878;fill:#D9DCFD;}
	.st122{opacity:0.5122;fill:#D8DBFC;}
	.st123{opacity:0.5366;fill:#D6D9FC;}
	.st124{opacity:0.561;fill:#D4D7FC;}
	.st125{opacity:0.5854;fill:#D2D5FC;}
	.st126{opacity:0.6098;fill:#D0D4FC;}
	.st127{opacity:0.6341;fill:#CED2FC;}
	.st128{opacity:0.6585;fill:#CCD0FC;}
	.st129{opacity:0.6829;fill:#CACFFC;}
	.st130{opacity:0.7073;fill:#C9CDFB;}
	.st131{opacity:0.7317;fill:#C7CBFB;}
	.st132{opacity:0.7561;fill:#C5C9FB;}
	.st133{opacity:0.7805;fill:#C3C8FB;}
	.st134{opacity:0.8049;fill:#C1C6FB;}
	.st135{opacity:0.8293;fill:#BFC4FB;}
	.st136{opacity:0.8537;fill:#BDC2FB;}
	.st137{opacity:0.878;fill:#BBC1FB;}
	.st138{opacity:0.9024;fill:#BABFFA;}
	.st139{opacity:0.9268;fill:#B8BDFA;}
	.st140{opacity:0.9512;fill:#B6BBFA;}
	.st141{opacity:0.9756;fill:#B4BAFA;}
	.st142{fill:#FE5E31;}
	.st143{fill:#FFCEBD;}
	.st144{fill:#4D5068;}
	.st145{display:none;opacity:0.58;fill:url(#);}
	.st146{fill:#19103A;}
	.st147{opacity:0.3;fill:#30334F;}
	.st148{fill:#FFBBA1;}
	.st149{fill:url(#SVGID_24_);}
	.st150{opacity:0.1;fill:#A7A9AC;}
	.st151{fill:#F8F7FF;}
	.st152{fill:#DDD6FF;}
	.st153{fill:#C4B8FF;}
	.st154{fill:#FF95A9;}
	.st155{fill:#7760DB;}
	.st156{fill:#40327A;}
	.st157{fill:#FF9D45;}
	.st158{fill:#FFC359;}
	.st159{fill:#FF809F;}
	.st160{fill:#EEEBFF;}
	.st161{fill:#A796F2;}
	.st162{fill:#E5659B;}
	.st163{fill:none;}
	.st164{fill:#8184C4;}
	.st165{fill:#B3B5DC;}
	.st166{fill:url(#SVGID_25_);}
	.st167{fill:#FCD991;}
	.st168{fill:url(#SVGID_26_);}
	.st169{fill:url(#SVGID_27_);}
	.st170{fill:url(#SVGID_28_);}
	.st171{fill:#272834;}
	.st172{fill:#DFE2EC;}
	.st173{fill:#231F20;}
	.st174{fill:#FBFCFD;}
	.st175{fill:#ECEFF6;}
	.st176{opacity:0.39;}
	.st177{fill:#F9FAFC;}
	.st178{fill:#797BA5;}
	.st179{fill:#41446B;}
	.st180{fill:url(#SVGID_29_);}
	.st181{fill:#3A3C4E;}
	.st182{fill:url(#SVGID_30_);stroke:#FF0000;stroke-miterlimit:10;}
	.st183{fill:#FF0000;}
</style>
<g id="Layer_3">
	
		<linearGradient id="SVGID_1_" gradientUnits="userSpaceOnUse" x1="1927.892" y1="242.8339" x2="2452.4089" y2="241.936" gradientTransform="matrix(-1 0 0 1 2376.8174 0)">
		<stop  offset="0" style="stop-color:#DFE1FD"/>
		<stop  offset="0.1659" style="stop-color:#E7E9FD"/>
		<stop  offset="0.4977" style="stop-color:#F3F4FE"/>
		<stop  offset="0.7944" style="stop-color:#FFFFFF"/>
	</linearGradient>
	<path class="st0" d="M31.702,16.979h138.476c0.744,0.629,1.485,1.275,2.22,1.958c17.134,15.938,23.873,40.283,39.303,57.874
		c13.6,15.504,33.887,24.93,54.506,25.327c18.966,0.365,40.127-5.971,55.521,5.113c9.94,7.157,14.234,19.62,21.314,29.614
		c9.362,13.215,24.298,22.341,40.329,24.642c31.653,4.542,67.317-15.67,94.059,1.865c12.87,8.439,19.618,23.922,21.598,39.184
		c1.981,15.262-0.104,30.712-1.165,46.065c-1.878,27.18,0.506,57.189,19.213,76.996c21.094,22.336,58.272,26.46,74.565,52.505
		c12.032,19.235,14.488,76.188-10.055,87.973c-4.571,2.195-9.84,2.237-14.911,2.236c-19.444-0.002-38.888-0.004-58.331-0.006
		c-151.773-0.015-304.608-3.586-455.646-0.933c-6.92,0.122-14.07-0.334-20.998-1.587V16.979z"/>
	
		<linearGradient id="SVGID_2_" gradientUnits="userSpaceOnUse" x1="198.7679" y1="242.8465" x2="723.2856" y2="241.9487" gradientTransform="matrix(1 0 0 1 107.8826 0)">
		<stop  offset="0" style="stop-color:#DFE1FD"/>
		<stop  offset="0.1659" style="stop-color:#E7E9FD"/>
		<stop  offset="0.4977" style="stop-color:#F3F4FE"/>
		<stop  offset="0.7944" style="stop-color:#FFFFFF"/>
	</linearGradient>
	<path class="st1" d="M723.861,16.979H585.384c-0.744,0.629-1.485,1.275-2.22,1.958c-17.134,15.938-23.873,40.283-39.303,57.874
		c-13.6,15.504-33.887,24.93-54.506,25.327c-18.966,0.365-40.127-5.971-55.521,5.113c-9.94,7.157-14.234,19.62-21.314,29.614
		c-9.362,13.215-24.298,22.341-40.329,24.642c-31.653,4.542-67.317-15.67-94.059,1.865c-12.87,8.439-19.618,23.922-21.598,39.184
		c-1.981,15.262,0.104,30.712,1.165,46.065c1.878,27.18-0.506,57.189-19.213,76.996c-21.094,22.336-58.272,26.46-74.565,52.505
		c-12.032,19.235-14.488,76.188,10.055,87.973c4.571,2.195,9.84,2.237,14.911,2.236c19.444-0.002,38.888-0.004,58.331-0.006
		c151.773-0.015,304.608-3.586,455.646-0.933c6.92,0.122,14.07-0.334,20.997-1.587V16.979z"/>
	<g>
		<path id="XMLID_110_" class="st2" d="M677.058,464.807H338.766V156.363c0-7.379,5.982-13.36,13.36-13.36h311.571
			c7.379,0,13.36,5.982,13.36,13.36V464.807z"/>
		<linearGradient id="XMLID_17_" gradientUnits="userSpaceOnUse" x1="338.6548" y1="163.055" x2="676.9467" y2="163.055">
			<stop  offset="0" style="stop-color:#E040FB"/>
			<stop  offset="0.2536" style="stop-color:#C570FA"/>
			<stop  offset="0.6059" style="stop-color:#A2AEF8"/>
			<stop  offset="0.8647" style="stop-color:#8CD4F7"/>
			<stop  offset="1" style="stop-color:#84E3F7"/>
		</linearGradient>
		<path id="XMLID_107_" class="st3" d="M676.947,184.578v-31.324c0-6.474-5.249-11.722-11.722-11.722H350.377
			c-6.473,0-11.722,5.247-11.722,11.722v31.324H676.947z"/>
		<path id="XMLID_106_" class="st4" d="M367.98,163.054c0,2.04-1.652,3.692-3.691,3.692c-2.039,0-3.691-1.652-3.691-3.692
			c0-2.038,1.652-3.689,3.691-3.689C366.327,159.364,367.98,161.016,367.98,163.054z"/>
		<path id="XMLID_100_" class="st4" d="M384.541,163.054c0,2.04-1.653,3.692-3.692,3.692c-2.039,0-3.691-1.652-3.691-3.692
			c0-2.038,1.651-3.689,3.691-3.689C382.888,159.364,384.541,161.016,384.541,163.054z"/>
		<path id="XMLID_99_" class="st4" d="M401.102,163.054c0,2.04-1.653,3.692-3.691,3.692c-2.039,0-3.691-1.652-3.691-3.692
			c0-2.038,1.652-3.689,3.691-3.689C399.449,159.364,401.102,161.016,401.102,163.054z"/>
		<g>
			<path class="st4" d="M529.193,313.498H350.801c-1.452,0-2.629-1.177-2.629-2.629v-32.653c0-1.452,1.177-2.629,2.629-2.629
				h178.392c1.452,0,2.628,1.177,2.628,2.628v32.653C531.821,312.321,530.644,313.498,529.193,313.498z"/>
			<rect x="354.487" y="279.83" class="st5" width="25.932" height="2.309"/>
			<rect x="354.487" y="284.796" class="st6" width="12.966" height="2.309"/>
			<path class="st7" d="M351.629,308.177c3.471-2.875,7.205-6.567,11.179-9.188c1.4-0.923,2.986-1.882,5.024-2.069
				c2.877-0.265,5.411,1.073,7.535,2.288c2.54,1.452,5.326,2.921,8.746,3.31c4.212,0.479,8.383-0.776,12.139-2.033
				c3.273-1.096,6.601-2.266,8.928-4.049c2.241-1.716,3.496-3.956,6.386-5.26c0.51-0.23,1.082-0.43,1.711-0.475
				c1.09-0.078,2.128,0.32,2.894,0.801c2.001,1.257,2.718,3.051,3.755,4.686c1.037,1.635,2.783,3.332,5.583,3.718
				c3.644,0.502,6.942-1.456,8.797-3.437c1.855-1.981,3.3-4.304,6.535-5.445c1-0.353,2.295-0.558,3.282-0.193
				c1.09,0.403,1.317,1.292,1.433,2.067c0.482,3.215,0.965,6.431,1.447,9.646c0.201,1.336,0.349,4.538-0.918,5.633H351.629z"/>
			<path class="st7" d="M531.554,308.177c-3.371-2.875-6.998-6.567-10.858-9.188c-1.36-0.923-2.9-1.882-4.879-2.069
				c-2.794-0.265-5.256,1.073-7.319,2.288c-2.467,1.452-5.173,2.921-8.494,3.31c-4.091,0.479-8.142-0.776-11.79-2.033
				c-3.179-1.096-6.411-2.266-8.671-4.049c-2.176-1.716-3.395-3.956-6.203-5.26c-0.495-0.23-1.051-0.43-1.662-0.475
				c-1.059-0.078-2.067,0.32-2.811,0.801c-1.944,1.257-2.64,3.051-3.647,4.686c-1.007,1.635-2.703,3.332-5.422,3.718
				c-3.539,0.502-6.742-1.456-8.544-3.437c-1.801-1.981-3.205-4.304-6.347-5.445c-0.971-0.353-2.229-0.558-3.188-0.193
				c-1.058,0.403-1.279,1.292-1.392,2.067c-0.469,3.215-0.937,6.431-1.406,9.646c-0.195,1.336-0.338,4.538,0.891,5.633H531.554z"/>
			<g>
				<path class="st4" d="M665.428,202.913h-123.5c-2.611,0-4.727,2.116-4.727,4.727v47.37c0,2.611,2.116,4.727,4.727,4.727h123.5
					c2.611,0,4.727-2.116,4.727-4.727v-47.37C670.155,205.03,668.039,202.913,665.428,202.913z"/>
				<rect x="544.884" y="210.806" class="st5" width="2.421" height="41.04"/>
				<rect x="551.097" y="210.806" class="st5" width="2.421" height="41.04"/>
				<rect x="557.311" y="210.806" class="st5" width="2.421" height="41.04"/>
				<rect x="563.524" y="210.806" class="st5" width="2.421" height="41.04"/>
				<rect x="569.738" y="210.806" class="st5" width="2.421" height="41.04"/>
				<rect x="575.952" y="210.806" class="st5" width="2.421" height="41.04"/>
				<rect x="544.884" y="233.779" class="st8" width="2.421" height="18.066"/>
				<rect x="551.097" y="226.275" class="st8" width="2.421" height="25.57"/>
				<rect x="557.311" y="222.46" class="st8" width="2.421" height="29.385"/>
				<rect x="563.524" y="226.275" class="st8" width="2.421" height="25.57"/>
				<rect x="569.738" y="218.771" class="st8" width="2.421" height="33.074"/>
				<rect x="575.952" y="214.701" class="st8" width="2.421" height="37.144"/>
				<path class="st9" d="M605.996,217.767c0,3.707-3.005,6.712-6.712,6.712c-3.707,0-6.712-3.005-6.712-6.712
					s3.005-6.712,6.712-6.712C602.992,211.055,605.996,214.061,605.996,217.767z"/>
				<rect x="609.612" y="212.117" class="st5" width="54.282" height="1.808"/>
				<rect x="609.612" y="217.38" class="st5" width="54.282" height="1.808"/>
				<rect x="609.612" y="222.644" class="st10" width="22.74" height="1.808"/>
				<path class="st9" d="M605.996,243.714c0,3.707-3.005,6.712-6.712,6.712c-3.707,0-6.712-3.005-6.712-6.712
					s3.005-6.712,6.712-6.712C602.992,237.002,605.996,240.007,605.996,243.714z"/>
				<rect x="609.612" y="238.063" class="st5" width="54.282" height="1.808"/>
				<rect x="609.612" y="243.327" class="st5" width="54.282" height="1.808"/>
				<rect x="609.612" y="248.59" class="st10" width="22.74" height="1.808"/>
			</g>
			<g>
				<path class="st4" d="M663.732,400.635H353.539c-2.656,0-4.809,2.153-4.809,4.809v47.205c0,2.656,2.153,4.809,4.809,4.809
					h310.193c2.656,0,4.81-2.153,4.81-4.809v-47.205C668.541,402.788,666.388,400.635,663.732,400.635z"/>
				<rect x="377.27" y="408.527" class="st5" width="2.421" height="41.04"/>
				<rect x="388.483" y="408.527" class="st5" width="2.421" height="41.04"/>
				<rect x="399.697" y="408.527" class="st5" width="2.421" height="41.04"/>
				<rect x="410.91" y="408.527" class="st5" width="2.421" height="41.04"/>
				<rect x="422.124" y="408.527" class="st5" width="2.421" height="41.04"/>
				<rect x="433.338" y="408.527" class="st5" width="2.421" height="41.04"/>
				<rect x="377.27" y="431.501" class="st8" width="2.421" height="18.066"/>
				<rect x="388.483" y="423.996" class="st8" width="2.421" height="25.57"/>
				<rect x="353.447" y="408.527" class="st5" width="2.421" height="41.04"/>
				<rect x="364.66" y="408.527" class="st5" width="2.421" height="41.04"/>
				<rect x="353.447" y="431.501" class="st8" width="2.421" height="18.066"/>
				<rect x="364.66" y="423.996" class="st8" width="2.421" height="25.57"/>
				<rect x="399.697" y="420.181" class="st8" width="2.421" height="29.385"/>
				<rect x="410.91" y="423.996" class="st8" width="2.421" height="25.57"/>
				<rect x="422.124" y="416.492" class="st8" width="2.421" height="33.074"/>
				<rect x="433.338" y="412.422" class="st8" width="2.421" height="37.144"/>
				<rect x="467.527" y="408.527" class="st5" width="2.421" height="41.04"/>
				<rect x="478.74" y="408.527" class="st5" width="2.421" height="41.04"/>
				<rect x="489.954" y="408.527" class="st5" width="2.421" height="41.04"/>
				<rect x="501.167" y="408.527" class="st5" width="2.421" height="41.04"/>
				<rect x="512.381" y="408.527" class="st5" width="2.421" height="41.04"/>
				<rect x="523.595" y="408.527" class="st5" width="2.421" height="41.04"/>
				<rect x="467.527" y="431.501" class="st8" width="2.421" height="18.066"/>
				<rect x="478.74" y="423.996" class="st8" width="2.421" height="25.57"/>
				<rect x="443.704" y="408.527" class="st5" width="2.421" height="41.04"/>
				<rect x="454.917" y="408.527" class="st5" width="2.421" height="41.04"/>
				<rect x="443.704" y="431.501" class="st8" width="2.421" height="18.066"/>
				<rect x="454.917" y="423.996" class="st8" width="2.421" height="25.57"/>
				<rect x="489.954" y="420.181" class="st8" width="2.421" height="29.385"/>
				<rect x="501.167" y="423.996" class="st8" width="2.421" height="25.57"/>
				<rect x="512.381" y="416.492" class="st8" width="2.421" height="33.074"/>
				<rect x="523.595" y="412.422" class="st8" width="2.421" height="37.144"/>
				<path class="st9" d="M551.788,415.57c0,3.707-3.005,6.712-6.712,6.712c-3.707,0-6.712-3.005-6.712-6.712
					c0-3.707,3.005-6.712,6.712-6.712C548.783,408.858,551.788,411.863,551.788,415.57z"/>
				<rect x="555.404" y="409.879" class="st5" width="106.877" height="1.808"/>
				<rect x="555.404" y="415.142" class="st5" width="106.877" height="1.808"/>
				<polygon class="st10" points="630.738,422.173 555.404,422.254 555.404,420.447 630.738,420.365 				"/>
				<path class="st9" d="M551.788,441.516c0,3.707-3.005,6.712-6.712,6.712c-3.707,0-6.712-3.005-6.712-6.712
					s3.005-6.712,6.712-6.712C548.783,434.804,551.788,437.81,551.788,441.516z"/>
				<rect x="555.404" y="435.825" class="st5" width="106.877" height="1.808"/>
				<rect x="555.404" y="441.089" class="st5" width="106.877" height="1.808"/>
				<polygon class="st10" points="630.738,448.119 555.404,448.201 555.404,446.393 630.738,446.312 				"/>
			</g>
		</g>
		<g>
			<path class="st4" d="M527.143,261.047H353.118c-2.005,0-3.631-1.625-3.631-3.631v-50.84c0-2.005,1.625-3.631,3.631-3.631h174.025
				c2.005,0,3.63,1.625,3.63,3.631v50.84C530.774,259.422,529.148,261.047,527.143,261.047z"/>
			<g>
				<rect x="359.947" y="215.01" class="st7" width="57.317" height="35.744"/>
			</g>
			<rect x="420.541" y="215.628" class="st5" width="97.725" height="3.355"/>
			<rect x="420.541" y="223.828" class="st5" width="97.725" height="3.355"/>
			<rect x="420.541" y="232.029" class="st5" width="97.725" height="3.355"/>
			<rect x="420.541" y="240.23" class="st11" width="60.728" height="3.355"/>
			<g id="Page-1">
				<g id="OBAPI-Copy" transform="translate(-120.000000, -271.000000)">
					<g id="options" transform="translate(0.000000, 256.000000)">
						<g id="Customer-Servicing" transform="translate(71.000000, 0.000000)">
							<g id="user-profile" transform="translate(50.000000, 16.000000)">
								<path class="st12" d="M393.413,232.274c0.015,0.197,0.029,0.424,0.046,0.68c0.055,0.854,0.128,1.994,0.236,2.471
									l1.049,0.684c2.045,0.452,3.841,1.182,5.096,2.183c1.179,0.941,1.887,2.122,1.887,3.54l-0.001,4.431
									c-0.001,0.541-0.208,1.031-0.544,1.387c-0.338,0.355-0.801,0.577-1.312,0.577h-21.301c-0.51,0-0.974-0.222-1.312-0.577
									c-0.338-0.361-0.546-0.85-0.546-1.387v-4.431c0-1.418,0.709-2.593,1.89-3.531c1.256-0.996,3.058-1.721,5.106-2.174
									l1.056-0.727c0.101-0.474,0.158-1.623,0.202-2.477c0.014-0.264,0.026-0.502,0.037-0.677
									c-0.167-0.191-0.327-0.39-0.482-0.599c-0.63-0.848-1.156-1.841-1.521-2.894c-0.344-1.001-0.541-2.056-0.541-3.095
									c0-0.071,0-0.091,0.004-0.113c-0.004-0.135-0.007-0.261-0.007-0.371c0-0.544-0.008-0.982-0.016-1.406
									c-0.076-4.451-0.135-7.854,6.783-7.854c6.917,0,6.859,3.403,6.782,7.854c-0.008,0.424-0.015,0.862-0.015,1.406
									c0,0.036-0.001,0.108-0.004,0.212l-0.003,0.162c0.001,0.014,0.003,0.05,0.006,0.109c0,1.039-0.199,2.094-0.545,3.095
									c-0.363,1.053-0.89,2.046-1.521,2.894C393.759,231.866,393.588,232.075,393.413,232.274z"/>
							</g>
						</g>
					</g>
				</g>
			</g>
		</g>
		<g>
			<path class="st4" d="M527.211,388.735H351.421c-2.081,0-3.768-1.687-3.768-3.768v-52.764c0-2.081,1.687-3.768,3.768-3.768
				h175.791c2.081,0,3.768,1.687,3.768,3.768v52.764C530.979,387.048,529.292,388.735,527.211,388.735z"/>
			<path class="st13" d="M347.653,335.615v-3.412c0-2.081,1.687-3.768,3.768-3.768h175.791c2.081,0,3.768,1.687,3.768,3.768v3.412
				H347.653z"/>
			<rect x="362.97" y="341.597" class="st5" width="154.768" height="3.482"/>
			<rect x="362.97" y="350.108" class="st5" width="154.768" height="3.482"/>
			<rect x="362.97" y="358.619" class="st5" width="154.768" height="3.482"/>
			<rect x="362.97" y="367.129" class="st11" width="63.026" height="3.482"/>
		</g>
		<g>
			<path class="st4" d="M666.856,388.742H541.485c-2.075,0-3.757-1.682-3.757-3.757V279.251c0-2.075,1.682-3.757,3.757-3.757
				h125.371c2.075,0,3.757,1.682,3.757,3.757v105.734C670.613,387.06,668.931,388.742,666.856,388.742z"/>
			<path class="st11" d="M559.036,295.786h-11.648c-1.376,0-2.491-1.115-2.491-2.491v-11.648c0-1.376,1.115-2.491,2.491-2.491
				h11.648c1.376,0,2.491,1.115,2.491,2.491v11.648C561.527,294.671,560.412,295.786,559.036,295.786z"/>
			<g>
				<rect x="565.331" y="281.382" class="st5" width="101.837" height="2.458"/>
			</g>
			<g>
				<rect x="630.398" y="287.575" class="st5" width="36.771" height="2.458"/>
			</g>
			<g>
				<rect x="565.331" y="287.575" class="st5" width="60.472" height="2.458"/>
			</g>
			<g>
				<rect x="565.331" y="294.245" class="st5" width="76.137" height="2.458"/>
			</g>
			<path class="st9" d="M560.532,314.63c0,3.707-3.005,6.712-6.712,6.712c-3.707,0-6.712-3.005-6.712-6.712
				c0-3.707,3.005-6.712,6.712-6.712C557.527,307.918,560.532,310.923,560.532,314.63z"/>
			<rect x="564.148" y="308.979" class="st5" width="98.61" height="1.808"/>
			<rect x="564.148" y="314.243" class="st5" width="98.61" height="1.808"/>
			<rect x="564.148" y="319.507" class="st10" width="67.067" height="1.808"/>
			<path class="st9" d="M560.532,340.577c0,3.707-3.005,6.712-6.712,6.712c-3.707,0-6.712-3.005-6.712-6.712
				c0-3.707,3.005-6.712,6.712-6.712C557.527,333.865,560.532,336.87,560.532,340.577z"/>
			<rect x="564.148" y="334.926" class="st5" width="98.61" height="1.808"/>
			<rect x="564.148" y="340.189" class="st5" width="98.61" height="1.808"/>
			<rect x="564.148" y="345.453" class="st10" width="67.067" height="1.808"/>
			<path class="st9" d="M560.532,369.467c0,3.707-3.005,6.712-6.712,6.712c-3.707,0-6.712-3.005-6.712-6.712
				c0-3.707,3.005-6.712,6.712-6.712C557.527,362.755,560.532,365.76,560.532,369.467z"/>
			<rect x="564.148" y="363.816" class="st5" width="98.61" height="1.808"/>
			<rect x="564.148" y="369.08" class="st5" width="98.61" height="1.808"/>
			<rect x="564.148" y="374.343" class="st10" width="67.067" height="1.808"/>
		</g>
	</g>
	<g class="st15">
		<g>
			<path class="st12" d="M218.264,385.956c5.9-13.754,11.861-27.619,20.446-39.878c2.825-4.034,7.162-8.325,11.906-7.004
				c4.355,1.212,6.089,6.42,6.578,10.914c2.3,21.124-7.665,41.676-19.7,59.189c-13.474,19.606-29.904,37.177-48.562,51.935
				l-3.462,1.291C196.535,436.608,207.199,411.75,218.264,385.956z"/>
		</g>
		<g>
			<g>
				<path class="st22" d="M191.593,456.056c28.126-27.785,47.546-66.057,56.461-104.29c0.318-1.365,2.386-0.611,2.057,0.749
					c-4.733,19.6-12.033,38.465-21.858,56.081c-9.941,17.824-22.567,32.862-36.584,47.552
					C191.617,456.203,191.539,456.11,191.593,456.056L191.593,456.056z"/>
			</g>
		</g>
		<g>
			<g>
				<path class="st22" d="M255.154,368.251c-3.478,4.466-7.929,8.042-13.197,10.163c-0.802,0.323-1.37-0.865-0.571-1.224
					c4.999-2.25,9.308-5.375,12.743-9.668C254.631,366.894,255.654,367.608,255.154,368.251L255.154,368.251z"/>
			</g>
		</g>
		<g>
			<g>
				<path class="st22" d="M247.133,386.97c-3.255,4.811-8.175,10.856-13.587,13.264c-0.357,0.159-0.594-0.29-0.346-0.547
					c2.036-2.103,4.659-3.665,6.838-5.646c2.462-2.239,4.698-4.712,6.867-7.233C247.021,386.674,247.236,386.818,247.133,386.97
					L247.133,386.97z"/>
			</g>
		</g>
		<g>
			<g>
				<path class="st22" d="M233.982,410.233c-2.691,3.354-6.363,5.866-10.179,7.786c-0.536,0.269-0.936-0.586-0.394-0.844
					c3.876-1.849,7.078-4.395,10.268-7.225C233.852,409.794,234.132,410.045,233.982,410.233L233.982,410.233z"/>
			</g>
		</g>
		<g>
			<g>
				<path class="st22" d="M237.709,364.864c0.172,6.662,0.204,12.538,2.033,19.022c0.328,1.163-1.492,1.462-1.834,0.333
					c-1.815-6.006-2.84-13.418-1.282-19.591C236.793,363.969,237.694,364.287,237.709,364.864L237.709,364.864z"/>
			</g>
		</g>
		<g>
			<g>
				<path class="st22" d="M229.819,381.535c-1.713,6.755-2.185,13.523-0.828,20.384c0.186,0.943-1.302,1.212-1.467,0.267
					c-1.231-7.076-0.83-14.121,1.814-20.826C229.461,381.047,229.899,381.221,229.819,381.535L229.819,381.535z"/>
			</g>
		</g>
		<g>
			<g>
				<path class="st22" d="M218.598,401.166c-2.144,8.165-3.787,15.224-2.945,23.746c0.138,1.395-2.016,1.795-2.154,0.392
					c-0.798-8.076,0.059-17.463,4.159-24.631C217.979,400.112,218.74,400.625,218.598,401.166L218.598,401.166z"/>
			</g>
		</g>
		<g>
			<path class="st12" d="M198.425,453.853c16.893-13.455,33.785-26.91,50.678-40.365c5.962-4.748,12.01-9.55,18.984-12.624
				c6.974-3.074,15.098-4.276,22.239-1.612c1.004,0.375,2.006,0.84,2.752,1.609c2.324,2.397,1.196,6.375-0.312,9.353
				c-11.949,23.588-37.532,36.737-62.291,46.022c-14.767,5.538-30.759,10.315-46.118,6.73
				C184.357,462.966,192.988,458.183,198.425,453.853z"/>
		</g>
		<g>
			<g>
				<path class="st22" d="M287.028,406.546c-11.864,11.188-25.725,19.723-39.834,27.766c-15.637,8.914-31.35,17.696-46.894,26.771
					c-1.218,0.711-2.398-1.175-1.164-1.855c15.141-8.335,30.144-16.924,45.183-25.442c14.659-8.303,29.295-16.66,41.788-28.098
					C286.698,405.148,287.621,405.987,287.028,406.546L287.028,406.546z"/>
			</g>
		</g>
		<g>
			<g>
				<path class="st22" d="M283.813,418.725c-5.315,1.763-10.679,3.671-16.153,4.887c-1.297,0.288-1.943-1.621-0.628-2
					c5.413-1.562,11.062-2.46,16.599-3.465C284.005,418.08,284.195,418.599,283.813,418.725L283.813,418.725z"/>
			</g>
		</g>
		<g>
			<g>
				<path class="st22" d="M263.895,434.454c-3.61,0.493-7.22,0.986-10.829,1.48c-3.559,0.486-7.254,1.303-10.851,1.032
					c-0.694-0.052-0.987-1.032-0.226-1.274c3.296-1.046,6.891-1.119,10.315-1.445c3.843-0.366,7.686-0.731,11.529-1.097
					C264.679,433.07,264.715,434.342,263.895,434.454L263.895,434.454z"/>
			</g>
		</g>
		<g>
			<g>
				<path class="st22" d="M238.026,449.468c-3.162-0.33-6.262-0.79-9.452-0.607c-2.619,0.151-5.254,1.244-7.831,1.006
					c-0.706-0.065-0.656-0.978-0.232-1.318c2.175-1.739,6.256-1.792,8.937-1.735c3.067,0.065,6.089,0.549,8.844,1.915
					C238.72,448.942,238.445,449.512,238.026,449.468L238.026,449.468z"/>
			</g>
		</g>
		<g>
			<g>
				<path class="st22" d="M271.442,406.7c-1.36,3.224-2.564,6.5-3.445,9.887c-0.673,2.589-0.84,5.413-2.015,7.812
					c-0.16,0.326-0.625,0.185-0.659-0.145c-0.312-3.052,0.993-6.3,1.894-9.192c0.939-3.013,2.032-5.958,3.275-8.859
					C270.765,405.57,271.708,406.069,271.442,406.7L271.442,406.7z"/>
			</g>
		</g>
		<g>
			<g>
				<path class="st22" d="M254.692,419.464c-2.477,4.258-4.64,9.25-7.763,13.055c-0.211,0.257-0.57-0.046-0.452-0.32
					c1.94-4.506,5.371-8.698,8.009-12.843C254.565,419.232,254.769,419.333,254.692,419.464L254.692,419.464z"/>
			</g>
		</g>
		<g>
			<g>
				<path class="st22" d="M237.097,430.004c-1.303,2.528-2.724,5.03-3.922,7.61c-1.048,2.257-1.746,4.806-3.61,6.526
					c-0.327,0.302-0.817,0.047-0.757-0.395c0.346-2.51,2.061-4.536,3.293-6.692c1.413-2.474,2.672-5.049,4.004-7.567
					C236.442,428.85,237.427,429.363,237.097,430.004L237.097,430.004z"/>
			</g>
		</g>
		<g>
			<path class="st164" d="M187.152,358.678c2.351-3.058,6.762-4.878,10.191-3.111c3.126,1.611,4.328,5.411,5.031,8.857
				c6.339,31.09-4.936,66.918-14.876,97.051l-3.031,1.387c-2.868-31.07-5.727-62.51-1.015-93.354
				C184.035,365.694,184.801,361.736,187.152,358.678z"/>
		</g>
		<g>
			<g>
				<path class="st22" d="M186.975,451.517c3.76-27.774,4.847-55.671,5.923-83.647c0.036-0.931,1.501-0.988,1.443-0.069
					c-1.778,27.893-2.235,56.213-6.91,83.814C187.38,451.913,186.935,451.81,186.975,451.517L186.975,451.517z"/>
			</g>
		</g>
		<g>
			<g>
				<path class="st22" d="M200.118,376.471c-1.036,2.034-2.072,4.069-3.108,6.103c-0.906,1.779-1.638,3.75-3.045,5.186
					c-0.356,0.363-0.971,0.043-0.876-0.457c0.373-1.966,1.579-3.712,2.516-5.463c1.078-2.013,2.155-4.026,3.233-6.038
					C199.277,374.983,200.54,375.641,200.118,376.471L200.118,376.471z"/>
			</g>
		</g>
		<g>
			<g>
				<path class="st22" d="M199.462,392.271c-1.724,4.245-3.161,9.333-5.752,13.115c-0.212,0.309-0.643,0.155-0.608-0.22
					c0.429-4.579,3.325-9.426,5.741-13.219C199.085,391.566,199.631,391.854,199.462,392.271L199.462,392.271z"/>
			</g>
		</g>
		<g>
			<g>
				<path class="st22" d="M197.59,411.767c-0.229,2.513-1.463,5.065-2.286,7.456c-0.736,2.136-1.289,4.413-2.394,6.386
					c-0.187,0.334-0.651,0.138-0.608-0.22c0.304-2.527,1.36-5.056,2.108-7.494c0.663-2.162,1.103-4.513,2.268-6.458
					C196.976,410.941,197.639,411.228,197.59,411.767L197.59,411.767z"/>
			</g>
		</g>
		<g>
			<g>
				<path class="st22" d="M185.712,386.889c1.969,2.246,3.514,4.678,4.738,7.409c0.921,2.055,2.388,5.07,1.872,7.349
					c-0.098,0.434-0.648,0.497-0.893,0.157c-1.314-1.828-1.547-4.729-2.383-6.859c-1.038-2.646-2.399-5.185-3.869-7.615
					C184.982,387.006,185.442,386.581,185.712,386.889L185.712,386.889z"/>
			</g>
		</g>
		<g>
			<g>
				<path class="st22" d="M184.103,409.236c0.957,2.738,1.753,5.483,2.511,8.281c0.672,2.479,1.708,5.074,1.784,7.65
					c0.015,0.519-0.77,0.851-1.032,0.324c-1.214-2.447-1.545-5.387-2.156-8.037c-0.625-2.71-1.177-5.382-1.608-8.129
					C183.556,409.028,184.011,408.972,184.103,409.236L184.103,409.236z"/>
			</g>
		</g>
	</g>
	<g class="st15">
		<g>
			<path class="st12" d="M154.466,385.956c-5.9-13.754-11.861-27.619-20.446-39.878c-2.825-4.034-7.162-8.325-11.906-7.004
				c-4.355,1.212-6.089,6.42-6.578,10.914c-2.3,21.124,7.665,41.676,19.7,59.189c13.474,19.606,29.904,37.177,48.562,51.935
				l3.462,1.291C176.194,436.608,165.531,411.75,154.466,385.956z"/>
		</g>
		<g>
			<g>
				<path class="st22" d="M181.136,456.056c-28.126-27.785-47.546-66.057-56.461-104.29c-0.318-1.365-2.386-0.611-2.057,0.749
					c4.733,19.6,12.033,38.465,21.858,56.081c9.941,17.824,22.567,32.862,36.584,47.552
					C181.112,456.203,181.191,456.11,181.136,456.056L181.136,456.056z"/>
			</g>
		</g>
		<g>
			<g>
				<path class="st22" d="M117.575,368.251c3.478,4.466,7.929,8.042,13.197,10.163c0.802,0.323,1.37-0.865,0.571-1.224
					c-4.999-2.25-9.308-5.375-12.743-9.668C118.098,366.894,117.075,367.608,117.575,368.251L117.575,368.251z"/>
			</g>
		</g>
		<g>
			<g>
				<path class="st22" d="M125.596,386.97c3.255,4.811,8.175,10.856,13.587,13.264c0.357,0.159,0.594-0.29,0.346-0.547
					c-2.036-2.103-4.659-3.665-6.839-5.646c-2.462-2.239-4.698-4.712-6.867-7.233C125.709,386.674,125.494,386.818,125.596,386.97
					L125.596,386.97z"/>
			</g>
		</g>
		<g>
			<g>
				<path class="st22" d="M138.747,410.233c2.691,3.354,6.363,5.866,10.179,7.786c0.536,0.269,0.936-0.586,0.394-0.844
					c-3.876-1.849-7.078-4.395-10.268-7.225C138.877,409.794,138.597,410.045,138.747,410.233L138.747,410.233z"/>
			</g>
		</g>
		<g>
			<g>
				<path class="st22" d="M135.021,364.864c-0.172,6.662-0.204,12.538-2.033,19.022c-0.328,1.163,1.492,1.462,1.834,0.333
					c1.815-6.006,2.84-13.418,1.282-19.591C135.937,363.969,135.036,364.287,135.021,364.864L135.021,364.864z"/>
			</g>
		</g>
		<g>
			<g>
				<path class="st22" d="M142.91,381.535c1.713,6.755,2.185,13.523,0.828,20.384c-0.186,0.943,1.302,1.212,1.467,0.267
					c1.231-7.076,0.83-14.121-1.814-20.826C143.269,381.047,142.83,381.221,142.91,381.535L142.91,381.535z"/>
			</g>
		</g>
		<g>
			<g>
				<path class="st22" d="M154.131,401.166c2.144,8.165,3.787,15.224,2.945,23.746c-0.138,1.395,2.016,1.795,2.154,0.392
					c0.798-8.076-0.059-17.463-4.159-24.631C154.751,400.112,153.989,400.625,154.131,401.166L154.131,401.166z"/>
			</g>
		</g>
		<g>
			<path class="st164" d="M174.305,453.853c-16.893-13.455-33.785-26.91-50.678-40.365c-5.962-4.748-12.01-9.55-18.984-12.624
				c-6.974-3.074-15.098-4.276-22.239-1.612c-1.004,0.375-2.006,0.84-2.752,1.609c-2.324,2.397-1.196,6.375,0.312,9.353
				c11.949,23.588,37.532,36.737,62.291,46.022c14.767,5.538,30.759,10.315,46.118,6.73
				C188.372,462.966,179.741,458.183,174.305,453.853z"/>
		</g>
		<g>
			<g>
				<path class="st22" d="M85.701,406.546c11.864,11.188,25.725,19.723,39.834,27.766c15.637,8.914,31.35,17.696,46.894,26.771
					c1.218,0.711,2.398-1.175,1.164-1.855c-15.141-8.335-30.144-16.924-45.183-25.442c-14.659-8.303-29.295-16.66-41.788-28.098
					C86.031,405.148,85.108,405.987,85.701,406.546L85.701,406.546z"/>
			</g>
		</g>
		<g>
			<g>
				<path class="st22" d="M88.916,418.725c5.315,1.763,10.679,3.671,16.153,4.887c1.297,0.288,1.943-1.621,0.628-2
					c-5.413-1.562-11.062-2.46-16.599-3.465C88.724,418.08,88.534,418.599,88.916,418.725L88.916,418.725z"/>
			</g>
		</g>
		<g>
			<g>
				<path class="st22" d="M108.834,434.454c3.61,0.493,7.22,0.986,10.829,1.48c3.559,0.486,7.254,1.303,10.851,1.032
					c0.694-0.052,0.987-1.032,0.226-1.274c-3.296-1.046-6.891-1.119-10.315-1.445c-3.843-0.366-7.686-0.731-11.529-1.097
					C108.05,433.07,108.014,434.342,108.834,434.454L108.834,434.454z"/>
			</g>
		</g>
		<g>
			<g>
				<path class="st22" d="M134.703,449.468c3.162-0.33,6.262-0.79,9.452-0.607c2.619,0.151,5.254,1.244,7.831,1.006
					c0.706-0.065,0.656-0.978,0.232-1.318c-2.175-1.739-6.256-1.792-8.937-1.735c-3.067,0.065-6.089,0.549-8.844,1.915
					C134.009,448.942,134.284,449.512,134.703,449.468L134.703,449.468z"/>
			</g>
		</g>
		<g>
			<g>
				<path class="st22" d="M101.287,406.7c1.36,3.224,2.564,6.5,3.445,9.887c0.673,2.589,0.84,5.413,2.015,7.812
					c0.16,0.326,0.625,0.185,0.659-0.145c0.312-3.052-0.993-6.3-1.894-9.192c-0.939-3.013-2.032-5.958-3.275-8.859
					C101.965,405.57,101.021,406.069,101.287,406.7L101.287,406.7z"/>
			</g>
		</g>
		<g>
			<g>
				<path class="st22" d="M118.037,419.464c2.477,4.258,4.64,9.25,7.763,13.055c0.211,0.257,0.57-0.046,0.452-0.32
					c-1.94-4.506-5.371-8.698-8.009-12.843C118.164,419.232,117.961,419.333,118.037,419.464L118.037,419.464z"/>
			</g>
		</g>
		<g>
			<g>
				<path class="st22" d="M135.633,430.004c1.303,2.528,2.724,5.03,3.922,7.61c1.048,2.257,1.746,4.806,3.61,6.526
					c0.327,0.302,0.817,0.047,0.757-0.395c-0.346-2.51-2.061-4.536-3.293-6.692c-1.413-2.474-2.672-5.049-4.004-7.567
					C136.287,428.85,135.303,429.363,135.633,430.004L135.633,430.004z"/>
			</g>
		</g>
		<g>
			<path class="st12" d="M185.577,358.678c-2.351-3.058-6.762-4.878-10.191-3.111c-3.126,1.611-4.328,5.411-5.031,8.857
				c-6.339,31.09,4.936,66.918,14.876,97.051l3.031,1.387c2.868-31.07,5.727-62.51,1.015-93.354
				C188.695,365.694,187.928,361.736,185.577,358.678z"/>
		</g>
		<g>
			<g>
				<path class="st22" d="M185.755,451.517c-3.76-27.774-4.847-55.671-5.923-83.647c-0.036-0.931-1.501-0.988-1.443-0.069
					c1.778,27.893,2.235,56.213,6.91,83.814C185.35,451.913,185.794,451.81,185.755,451.517L185.755,451.517z"/>
			</g>
		</g>
		<g>
			<g>
				<path class="st22" d="M172.611,376.471c1.036,2.034,2.072,4.069,3.108,6.103c0.906,1.779,1.638,3.75,3.045,5.186
					c0.356,0.363,0.971,0.043,0.876-0.457c-0.373-1.966-1.579-3.712-2.516-5.463c-1.078-2.013-2.155-4.026-3.233-6.038
					C173.452,374.983,172.189,375.641,172.611,376.471L172.611,376.471z"/>
			</g>
		</g>
		<g>
			<g>
				<path class="st22" d="M173.268,392.271c1.724,4.245,3.161,9.333,5.752,13.115c0.212,0.309,0.643,0.155,0.608-0.22
					c-0.429-4.579-3.325-9.426-5.741-13.219C173.644,391.566,173.099,391.854,173.268,392.271L173.268,392.271z"/>
			</g>
		</g>
		<g>
			<g>
				<path class="st22" d="M175.139,411.767c0.229,2.513,1.463,5.065,2.286,7.456c0.736,2.136,1.289,4.413,2.394,6.386
					c0.187,0.334,0.651,0.138,0.608-0.22c-0.304-2.527-1.36-5.056-2.108-7.494c-0.663-2.162-1.103-4.513-2.268-6.458
					C175.754,410.941,175.09,411.228,175.139,411.767L175.139,411.767z"/>
			</g>
		</g>
		<g>
			<g>
				<path class="st22" d="M187.017,386.889c-1.969,2.246-3.514,4.678-4.738,7.409c-0.921,2.055-2.388,5.07-1.872,7.349
					c0.098,0.434,0.648,0.497,0.893,0.157c1.314-1.828,1.547-4.729,2.383-6.859c1.038-2.646,2.399-5.185,3.869-7.615
					C187.748,387.006,187.288,386.581,187.017,386.889L187.017,386.889z"/>
			</g>
		</g>
		<g>
			<g>
				<path class="st22" d="M188.626,409.236c-0.957,2.738-1.753,5.483-2.511,8.281c-0.672,2.479-1.708,5.074-1.784,7.65
					c-0.015,0.519,0.77,0.851,1.032,0.324c1.214-2.447,1.545-5.387,2.156-8.037c0.625-2.71,1.177-5.382,1.608-8.129
					C189.173,409.028,188.718,408.972,188.626,409.236L188.626,409.236z"/>
			</g>
		</g>
	</g>
	<g class="st70">
		<g>
			<path class="st12" d="M298.127,428.512c0.163-0.583,0.213-1.196,0.1-1.789c-0.045-0.238-0.124-0.484-0.306-0.644
				c-0.125-0.11-0.285-0.169-0.442-0.225c-2.138-0.767-4.562,0.032-6.268,1.413c-1.533,1.242-2.651,2.911-3.745,4.553
				c-0.581,0.873-1.163,1.746-1.744,2.619l-0.097,2.889c1.917-1.099,4.024-1.818,6.038-2.729c2.55-1.153,4.972-2.715,6.187-5.338
				C297.961,429.02,298.055,428.769,298.127,428.512z"/>
		</g>
		<g>
			<g>
				<path class="st20" d="M286.411,435.166c2.924-2.092,6.366-3.492,8.777-6.229c0.073-0.082-0.046-0.204-0.122-0.122
					c-2.469,2.689-5.794,4.159-8.699,6.276C286.323,435.124,286.366,435.198,286.411,435.166L286.411,435.166z"/>
			</g>
		</g>
		<g>
			<g>
				<path class="st20" d="M293.116,428.235c-0.821,1.077-1.623,2.391-1.857,3.748c-0.013,0.077,0.099,0.142,0.138,0.058
					c0.596-1.284,1.085-2.526,1.923-3.687C293.41,428.229,293.206,428.116,293.116,428.235L293.116,428.235z"/>
			</g>
		</g>
		<g>
			<g>
				<path class="st20" d="M289.91,430.406c-0.272,0.505-0.497,1.009-0.712,1.541c-0.199,0.493-0.553,1.054-0.531,1.592
					c0.004,0.102,0.127,0.157,0.202,0.084c0.356-0.345,0.465-0.891,0.644-1.345c0.232-0.59,0.446-1.168,0.613-1.78
					C290.161,430.37,289.974,430.286,289.91,430.406L289.91,430.406z"/>
			</g>
		</g>
		<g>
			<g>
				<path class="st20" d="M287.9,434.273c0.426,0.149,0.888,0.168,1.337,0.186c0.399,0.016,0.81,0.067,1.175-0.11
					c0.105-0.051,0.068-0.205-0.031-0.236c-0.367-0.113-0.763-0.023-1.144-0.022c-0.436,0.001-0.874-0.06-1.308-0.03
					C287.807,434.071,287.784,434.233,287.9,434.273L287.9,434.273z"/>
			</g>
		</g>
		<g>
			<g>
				<path class="st20" d="M290.795,432.554c0.552,0.304,1.372,0.588,1.99,0.344c0.082-0.032,0.101-0.162,0-0.187
					c-0.272-0.067-0.537-0.036-0.815-0.059c-0.378-0.031-0.76-0.119-1.125-0.217C290.775,432.417,290.73,432.518,290.795,432.554
					L290.795,432.554z"/>
			</g>
		</g>
		<g>
			<path class="st12" d="M281.734,424.721c-0.744-1.36-1.841-2.822-3.391-2.848c-1.277-0.021-2.39,1.036-2.77,2.256
				c-0.38,1.219-0.161,2.548,0.23,3.763c1.41,4.373,5.154,7.917,9.598,9.085l0.177-0.314
				C285.066,432.488,283.754,428.412,281.734,424.721z"/>
		</g>
		<g>
			<g>
				<path class="st20" d="M277.594,424.639c3.376,2.731,4.559,7.625,6.545,11.333c0.05,0.094,0.219,0.028,0.177-0.075
					c-0.91-2.196-1.995-4.333-3.032-6.471c-0.918-1.893-1.891-3.6-3.568-4.909C277.63,424.45,277.507,424.569,277.594,424.639
					L277.594,424.639z"/>
			</g>
		</g>
		<g>
			<g>
				<path class="st20" d="M280.557,424.374c0.073,0.61,0.066,1.212-0.057,1.816c-0.096,0.472-0.361,0.921-0.378,1.397
					c-0.003,0.086,0.107,0.125,0.165,0.068c0.743-0.721,0.638-2.381,0.481-3.31C280.749,424.227,280.543,424.253,280.557,424.374
					L280.557,424.374z"/>
			</g>
		</g>
		<g>
			<g>
				<path class="st20" d="M277.791,428.608c0.959,0.802,2.245,1.748,3.54,1.802c0.107,0.004,0.146-0.15,0.054-0.2
					c-0.571-0.317-1.211-0.472-1.804-0.743c-0.596-0.273-1.155-0.611-1.687-0.993C277.816,428.416,277.716,428.546,277.791,428.608
					L277.791,428.608z"/>
			</g>
		</g>
		<g>
			<g>
				<path class="st20" d="M281.771,427.59c0.018,0.431,0.013,0.861-0.028,1.291c-0.041,0.43-0.169,0.851-0.115,1.282
					c0.012,0.096,0.145,0.158,0.2,0.054c0.401-0.745,0.221-1.844,0.111-2.65C281.927,427.471,281.767,427.494,281.771,427.59
					L281.771,427.59z"/>
			</g>
		</g>
		<g>
			<g>
				<rect x="285.297" y="397.269" class="st164" width="0.827" height="66.425"/>
			</g>
		</g>
		<g>
			<g>
				<path class="st20" d="M285.58,409.031c0.088,0,0.088-0.137,0-0.137C285.492,408.895,285.492,409.031,285.58,409.031
					L285.58,409.031z"/>
			</g>
		</g>
		<g>
			<g>
				<path class="st20" d="M287.667,413.485c0.034,0,0.034-0.053,0-0.053C287.632,413.431,287.632,413.485,287.667,413.485
					L287.667,413.485z"/>
			</g>
		</g>
		<g id="XMLID_675_">
			<g id="XMLID_683_">
				<path class="st164" d="M298.565,400.412c0,7.448-6.038,13.485-13.485,13.485c-7.448,0-13.485-6.037-13.485-13.485
					s6.038-13.485,13.485-13.485C292.527,386.927,298.565,392.964,298.565,400.412z"/>
			</g>
			<g id="XMLID_682_">
				<path class="st165" d="M297.091,400.412c0,6.634-5.378,12.011-12.011,12.011c-6.634,0-12.012-5.378-12.012-12.011
					c0-6.634,5.378-12.012,12.012-12.012C291.713,388.401,297.091,393.778,297.091,400.412z"/>
			</g>
			<g id="XMLID_681_">
				<path class="st7" d="M295.681,400.412c0,5.855-4.746,10.601-10.601,10.601s-10.601-4.746-10.601-10.601
					s4.747-10.601,10.601-10.601S295.681,394.557,295.681,400.412z"/>
			</g>
			<g id="XMLID_676_">
				<g id="XMLID_679_">
					<g id="XMLID_680_">
						<path class="st12" d="M286.461,405.82h-3.928c-0.903,0-1.639-0.736-1.639-1.639v-0.839h2.332v0.146h3.234
							c0.622,0,1.128-0.506,1.128-1.127c0-0.405-0.329-0.735-0.734-0.735h-2.895c-1.69,0-3.066-1.376-3.066-3.067v-0.42
							c0-1.909,1.552-3.461,3.46-3.461h3.928c0.903,0,1.639,0.736,1.639,1.639v0.953h-2.332v-0.26h-3.234
							c-0.622,0-1.127,0.507-1.127,1.128v0.42c0,0.405,0.329,0.735,0.733,0.735h2.895c1.69,0,3.066,1.376,3.066,3.067
							C289.921,404.267,288.368,405.82,286.461,405.82z"/>
					</g>
				</g>
				<g id="XMLID_677_">
					<g id="XMLID_678_">
						<rect x="284.241" y="393.544" class="st12" width="2.333" height="13.736"/>
					</g>
				</g>
			</g>
		</g>
	</g>
	<g class="st70">
		<g>
			<path class="st12" d="M267.351,397.534c0.163-0.583,0.212-1.196,0.1-1.789c-0.045-0.238-0.124-0.484-0.306-0.645
				c-0.125-0.11-0.285-0.169-0.442-0.225c-2.138-0.767-4.562,0.032-6.268,1.413c-1.533,1.242-2.651,2.911-3.745,4.553
				c-0.581,0.873-1.163,1.746-1.744,2.619l-0.097,2.889c1.917-1.099,4.024-1.818,6.038-2.729c2.551-1.153,4.972-2.715,6.187-5.337
				C267.186,398.042,267.279,397.791,267.351,397.534z"/>
		</g>
		<g>
			<g>
				<path class="st20" d="M255.635,404.188c2.924-2.092,6.366-3.492,8.777-6.228c0.073-0.083-0.046-0.204-0.122-0.122
					c-2.469,2.689-5.794,4.159-8.699,6.276C255.548,404.146,255.59,404.221,255.635,404.188L255.635,404.188z"/>
			</g>
		</g>
		<g>
			<g>
				<path class="st20" d="M262.34,397.257c-0.821,1.077-1.623,2.391-1.857,3.748c-0.013,0.077,0.099,0.142,0.138,0.058
					c0.596-1.284,1.085-2.526,1.923-3.686C262.634,397.252,262.43,397.138,262.34,397.257L262.34,397.257z"/>
			</g>
		</g>
		<g>
			<g>
				<path class="st20" d="M259.134,399.429c-0.272,0.506-0.497,1.009-0.712,1.541c-0.199,0.493-0.553,1.054-0.531,1.592
					c0.004,0.102,0.127,0.157,0.202,0.084c0.356-0.345,0.465-0.891,0.644-1.345c0.232-0.59,0.446-1.168,0.613-1.78
					C259.385,399.393,259.199,399.308,259.134,399.429L259.134,399.429z"/>
			</g>
		</g>
		<g>
			<g>
				<path class="st20" d="M257.124,403.296c0.427,0.149,0.888,0.168,1.337,0.186c0.399,0.016,0.81,0.067,1.175-0.11
					c0.105-0.051,0.068-0.206-0.031-0.236c-0.367-0.113-0.763-0.023-1.144-0.022c-0.436,0.001-0.874-0.06-1.308-0.03
					C257.031,403.093,257.008,403.255,257.124,403.296L257.124,403.296z"/>
			</g>
		</g>
		<g>
			<g>
				<path class="st20" d="M260.019,401.576c0.551,0.304,1.372,0.588,1.99,0.344c0.082-0.033,0.101-0.162,0-0.187
					c-0.272-0.067-0.537-0.036-0.815-0.059c-0.378-0.031-0.76-0.119-1.125-0.217C259.999,401.439,259.954,401.54,260.019,401.576
					L260.019,401.576z"/>
			</g>
		</g>
		<g>
			<path class="st164" d="M250.959,393.744c-0.744-1.36-1.841-2.822-3.391-2.848c-1.277-0.021-2.39,1.036-2.77,2.256
				c-0.38,1.219-0.161,2.548,0.23,3.763c1.41,4.373,5.154,7.917,9.598,9.085l0.177-0.314
				C254.291,401.51,252.978,397.434,250.959,393.744z"/>
		</g>
		<g>
			<g>
				<path class="st20" d="M246.818,393.661c3.376,2.731,4.559,7.625,6.545,11.333c0.051,0.094,0.22,0.028,0.177-0.075
					c-0.91-2.196-1.995-4.333-3.032-6.471c-0.918-1.893-1.891-3.6-3.568-4.909C246.854,393.473,246.732,393.591,246.818,393.661
					L246.818,393.661z"/>
			</g>
		</g>
		<g>
			<g>
				<path class="st20" d="M249.782,393.396c0.073,0.61,0.066,1.212-0.057,1.816c-0.096,0.471-0.361,0.921-0.378,1.397
					c-0.003,0.086,0.107,0.125,0.165,0.069c0.743-0.721,0.637-2.381,0.481-3.31C249.973,393.249,249.767,393.275,249.782,393.396
					L249.782,393.396z"/>
			</g>
		</g>
		<g>
			<g>
				<path class="st20" d="M247.015,397.631c0.959,0.802,2.245,1.749,3.54,1.802c0.107,0.004,0.146-0.149,0.054-0.2
					c-0.571-0.317-1.211-0.472-1.804-0.743c-0.596-0.273-1.154-0.611-1.686-0.993C247.041,397.439,246.94,397.568,247.015,397.631
					L247.015,397.631z"/>
			</g>
		</g>
		<g>
			<g>
				<path class="st20" d="M250.996,396.612c0.018,0.431,0.013,0.861-0.028,1.291c-0.041,0.43-0.169,0.851-0.115,1.282
					c0.012,0.096,0.144,0.158,0.2,0.054c0.4-0.745,0.221-1.844,0.111-2.65C251.152,396.493,250.992,396.517,250.996,396.612
					L250.996,396.612z"/>
			</g>
		</g>
		<g>
			<g>
				<rect x="254.521" y="366.291" class="st164" width="0.827" height="97.309"/>
			</g>
		</g>
		<g>
			<g>
				<path class="st20" d="M254.804,378.054c0.088,0,0.088-0.137,0-0.137C254.716,377.917,254.716,378.054,254.804,378.054
					L254.804,378.054z"/>
			</g>
		</g>
		<g>
			<g>
				<path class="st20" d="M256.891,382.507c0.034,0,0.034-0.053,0-0.053C256.857,382.453,256.857,382.507,256.891,382.507
					L256.891,382.507z"/>
			</g>
		</g>
		<g id="XMLID_666_">
			<g id="XMLID_674_">
				<path class="st164" d="M267.789,369.434c0,7.448-6.038,13.485-13.485,13.485c-7.448,0-13.485-6.037-13.485-13.485
					c0-7.448,6.038-13.485,13.485-13.485C261.752,355.949,267.789,361.987,267.789,369.434z"/>
			</g>
			<g id="XMLID_673_">
				<path class="st165" d="M266.315,369.434c0,6.634-5.378,12.011-12.011,12.011c-6.634,0-12.012-5.378-12.012-12.011
					c0-6.634,5.378-12.012,12.012-12.012C260.937,357.423,266.315,362.8,266.315,369.434z"/>
			</g>
			<g id="XMLID_672_">
				<path class="st7" d="M264.94,369.434c0,5.855-4.746,10.601-10.601,10.601c-5.855,0-10.602-4.746-10.602-10.601
					c0-5.855,4.747-10.601,10.602-10.601C260.194,358.833,264.94,363.579,264.94,369.434z"/>
			</g>
			<g id="XMLID_667_">
				<g id="XMLID_670_">
					<g id="XMLID_671_">
						<path class="st12" d="M255.685,374.842h-3.928c-0.903,0-1.639-0.736-1.639-1.639v-0.839h2.332v0.146h3.234
							c0.622,0,1.127-0.506,1.127-1.127c0-0.405-0.329-0.734-0.733-0.734h-2.895c-1.69,0-3.066-1.376-3.066-3.067v-0.42
							c0-1.909,1.552-3.461,3.46-3.461h3.928c0.903,0,1.639,0.736,1.639,1.639v0.953h-2.332v-0.26h-3.234
							c-0.622,0-1.127,0.507-1.127,1.129v0.42c0,0.406,0.329,0.735,0.733,0.735h2.895c1.69,0,3.066,1.376,3.066,3.067
							C259.145,373.29,257.593,374.842,255.685,374.842z"/>
					</g>
				</g>
				<g id="XMLID_668_">
					<g id="XMLID_669_">
						<rect x="253.466" y="362.566" class="st12" width="2.333" height="13.736"/>
					</g>
				</g>
			</g>
		</g>
	</g>
	<g class="st70">
		<g>
			<path class="st12" d="M302.295,332.747c0.232-0.831,0.303-1.704,0.142-2.549c-0.065-0.339-0.177-0.69-0.436-0.918
				c-0.178-0.157-0.407-0.24-0.63-0.32c-3.046-1.093-6.501,0.045-8.932,2.014c-2.185,1.769-3.778,4.148-5.336,6.488
				c-0.828,1.244-1.656,2.488-2.485,3.732l-0.138,4.117c2.732-1.566,5.734-2.591,8.603-3.889c3.634-1.644,7.085-3.869,8.816-7.606
				C302.059,333.471,302.193,333.113,302.295,332.747z"/>
		</g>
		<g>
			<g>
				<path class="st20" d="M285.601,342.228c4.167-2.981,9.071-4.976,12.506-8.875c0.104-0.118-0.066-0.29-0.173-0.173
					c-3.519,3.831-8.255,5.927-12.395,8.943C285.476,342.169,285.536,342.275,285.601,342.228L285.601,342.228z"/>
			</g>
		</g>
		<g>
			<g>
				<path class="st20" d="M295.155,332.352c-1.169,1.534-2.313,3.407-2.645,5.341c-0.019,0.11,0.141,0.202,0.196,0.083
					c0.85-1.83,1.546-3.6,2.74-5.253C295.574,332.345,295.283,332.183,295.155,332.352L295.155,332.352z"/>
			</g>
		</g>
		<g>
			<g>
				<path class="st20" d="M290.587,335.447c-0.387,0.72-0.708,1.438-1.015,2.196c-0.284,0.703-0.788,1.502-0.756,2.268
					c0.006,0.145,0.18,0.223,0.288,0.119c0.507-0.492,0.663-1.27,0.918-1.917c0.331-0.841,0.635-1.664,0.873-2.537
					C290.944,335.395,290.679,335.275,290.587,335.447L290.587,335.447z"/>
			</g>
		</g>
		<g>
			<g>
				<path class="st20" d="M287.723,340.957c0.608,0.213,1.265,0.239,1.905,0.265c0.569,0.023,1.155,0.096,1.675-0.156
					c0.149-0.073,0.098-0.293-0.044-0.336c-0.523-0.16-1.087-0.032-1.631-0.031c-0.621,0.002-1.245-0.085-1.864-0.042
					C287.59,340.668,287.557,340.899,287.723,340.957L287.723,340.957z"/>
			</g>
		</g>
		<g>
			<g>
				<path class="st20" d="M291.847,338.507c0.786,0.433,1.954,0.838,2.835,0.491c0.117-0.046,0.144-0.231,0-0.266
					c-0.387-0.095-0.765-0.051-1.161-0.084c-0.538-0.044-1.083-0.169-1.603-0.309C291.819,338.312,291.754,338.455,291.847,338.507
					L291.847,338.507z"/>
			</g>
		</g>
		<g>
			<path class="st12" d="M278.937,327.346c-1.06-1.938-2.623-4.021-4.831-4.058c-1.82-0.031-3.405,1.477-3.947,3.214
				c-0.542,1.737-0.23,3.63,0.328,5.363c2.009,6.232,7.344,11.281,13.676,12.945l0.253-0.447
				C283.685,338.412,281.815,332.605,278.937,327.346z"/>
		</g>
		<g>
			<g>
				<path class="st20" d="M273.038,327.229c4.81,3.891,6.496,10.865,9.326,16.149c0.072,0.135,0.313,0.04,0.252-0.106
					c-1.296-3.129-2.843-6.174-4.321-9.221c-1.308-2.697-2.694-5.13-5.083-6.995C273.089,326.96,272.914,327.129,273.038,327.229
					L273.038,327.229z"/>
			</g>
		</g>
		<g>
			<g>
				<path class="st20" d="M277.26,326.85c0.103,0.869,0.094,1.727-0.081,2.587c-0.137,0.672-0.514,1.312-0.538,1.991
					c-0.004,0.122,0.152,0.178,0.236,0.098c1.059-1.027,0.909-3.392,0.685-4.717C277.533,326.641,277.24,326.678,277.26,326.85
					L277.26,326.85z"/>
			</g>
		</g>
		<g>
			<g>
				<path class="st20" d="M273.318,332.884c1.366,1.143,3.199,2.491,5.045,2.567c0.152,0.006,0.208-0.213,0.077-0.286
					c-0.814-0.452-1.726-0.673-2.57-1.059c-0.85-0.389-1.645-0.87-2.403-1.415C273.355,332.611,273.211,332.795,273.318,332.884
					L273.318,332.884z"/>
			</g>
		</g>
		<g>
			<g>
				<path class="st20" d="M278.99,331.434c0.025,0.615,0.019,1.226-0.04,1.839c-0.058,0.612-0.241,1.212-0.164,1.827
					c0.017,0.137,0.206,0.226,0.286,0.077c0.571-1.062,0.315-2.628,0.158-3.776C279.212,331.264,278.984,331.297,278.99,331.434
					L278.99,331.434z"/>
			</g>
		</g>
		<g>
			<g>
				<rect x="284.013" y="288.229" class="st164" width="1.179" height="99.738"/>
			</g>
		</g>
		<g>
			<g>
				<path class="st20" d="M284.417,304.96c0.088,0,0.088-0.137,0-0.137C284.329,304.823,284.329,304.96,284.417,304.96
					L284.417,304.96z"/>
			</g>
		</g>
		<g>
			<g>
				<path class="st20" d="M287.39,311.323c0.034,0,0.034-0.053,0-0.053C287.356,311.27,287.356,311.323,287.39,311.323
					L287.39,311.323z"/>
			</g>
		</g>
		<g id="XMLID_657_">
			<g id="XMLID_665_">
				<path class="st164" d="M302.919,292.707c0,10.612-8.603,19.215-19.215,19.215c-10.612,0-19.215-8.603-19.215-19.215
					c0-10.612,8.603-19.215,19.215-19.215C294.316,273.492,302.919,282.095,302.919,292.707z"/>
			</g>
			<g id="XMLID_664_">
				<path class="st165" d="M300.819,292.707c0,9.452-7.663,17.115-17.115,17.115c-9.453,0-17.116-7.663-17.116-17.115
					c0-9.453,7.663-17.115,17.116-17.115C293.156,275.592,300.819,283.255,300.819,292.707z"/>
			</g>
			<g id="XMLID_663_">
				<path class="st7" d="M298.845,292.707c0,8.343-6.763,15.106-15.106,15.106c-8.343,0-15.106-6.763-15.106-15.106
					c0-8.343,6.763-15.106,15.106-15.106C292.081,277.601,298.845,284.365,298.845,292.707z"/>
			</g>
			<g id="XMLID_658_">
				<g id="XMLID_661_">
					<g id="XMLID_662_">
						<path class="st12" d="M285.672,300.413h-5.597c-1.287,0-2.335-1.048-2.335-2.335v-1.196h3.324v0.208h4.608
							c0.886,0,1.607-0.721,1.607-1.607c0-0.578-0.469-1.047-1.045-1.047h-4.125c-2.408,0-4.368-1.96-4.368-4.37v-0.599
							c0-2.72,2.212-4.931,4.93-4.931h5.597c1.287,0,2.335,1.048,2.335,2.335v1.358h-3.323v-0.37h-4.609
							c-0.886,0-1.606,0.722-1.606,1.608v0.599c0,0.578,0.469,1.047,1.045,1.047h4.125c2.408,0,4.368,1.96,4.368,4.37
							C290.602,298.201,288.39,300.413,285.672,300.413z"/>
					</g>
				</g>
				<g id="XMLID_659_">
					<g id="XMLID_660_">
						<rect x="282.509" y="282.921" class="st12" width="3.323" height="19.572"/>
					</g>
				</g>
			</g>
		</g>
	</g>
	<g>
		<g>
			<rect x="314.395" y="327.896" class="st20" width="1.368" height="86.402"/>
		</g>
		<g>
			<g>
				<path class="st20" d="M314.862,347.286c0.088,0,0.088-0.137,0-0.137C314.774,347.149,314.774,347.286,314.862,347.286
					L314.862,347.286z"/>
			</g>
		</g>
		<g>
			<g>
				<path class="st20" d="M318.31,354.671c0.034,0,0.034-0.053,0-0.053C318.276,354.618,318.276,354.671,318.31,354.671
					L318.31,354.671z"/>
			</g>
		</g>
		<g id="XMLID_572_">
			<g id="XMLID_581_">
				<linearGradient id="SVGID_3_" gradientUnits="userSpaceOnUse" x1="291.7538" y1="333.0889" x2="336.317" y2="333.0889">
					<stop  offset="0" style="stop-color:#FEC55E"/>
					<stop  offset="1" style="stop-color:#FF5722"/>
				</linearGradient>
				<path class="st14" d="M336.317,333.089c0,12.306-9.976,22.281-22.282,22.281c-12.306,0-22.282-9.976-22.282-22.281
					c0-12.306,9.976-22.282,22.282-22.282C326.341,310.807,336.317,320.783,336.317,333.089z"/>
			</g>
			<g id="XMLID_580_">
				<path class="st167" d="M333.882,333.089c0,10.961-8.885,19.846-19.846,19.846c-10.961,0-19.847-8.885-19.847-19.846
					c0-10.961,8.886-19.847,19.847-19.847C324.996,313.243,333.882,322.128,333.882,333.089z"/>
			</g>
			<g id="XMLID_579_">
				<path class="st26" d="M331.552,333.089c0,9.674-7.842,17.516-17.516,17.516c-9.674,0-17.517-7.842-17.517-17.516
					c0-9.674,7.843-17.517,17.517-17.517C323.709,315.572,331.552,323.415,331.552,333.089z"/>
			</g>
			<g id="XMLID_573_">
				<g id="XMLID_577_">
					<g id="XMLID_578_">
						<path class="st20" d="M316.318,342.024h-6.49c-1.492,0-2.708-1.216-2.708-2.708v-1.387h3.854v0.241h5.344
							c1.028,0,1.863-0.836,1.863-1.863c0-0.67-0.544-1.214-1.212-1.214h-4.783c-2.792,0-5.066-2.273-5.066-5.068v-0.694
							c0-3.154,2.565-5.718,5.717-5.718h6.49c1.493,0,2.708,1.216,2.708,2.708v1.575h-3.854v-0.429h-5.344
							c-1.027,0-1.863,0.837-1.863,1.865v0.694c0,0.67,0.544,1.214,1.212,1.214h4.783c2.793,0,5.066,2.273,5.066,5.067
							C322.035,339.459,319.47,342.024,316.318,342.024z"/>
					</g>
				</g>
				<g id="XMLID_574_">
					<g id="XMLID_575_">
						<rect x="312.65" y="321.741" class="st20" width="3.854" height="22.695"/>
					</g>
				</g>
			</g>
		</g>
	</g>
	<g>
		<g>
			<path class="st13" d="M383.536,421.068c0.352-1.26,0.459-2.583,0.215-3.864c-0.098-0.514-0.268-1.046-0.661-1.392
				c-0.269-0.238-0.617-0.364-0.955-0.486c-4.617-1.656-9.854,0.069-13.539,3.052c-3.312,2.682-5.727,6.288-8.089,9.835
				c-1.255,1.885-2.511,3.771-3.766,5.657l-0.21,6.241c4.142-2.373,8.692-3.928,13.041-5.895c5.509-2.491,10.74-5.865,13.363-11.529
				C383.178,422.166,383.38,421.623,383.536,421.068z"/>
		</g>
		<g>
			<g>
				<path class="st20" d="M358.229,435.441c6.317-4.519,13.75-7.543,18.958-13.453c0.157-0.178-0.1-0.44-0.263-0.263
					c-5.334,5.807-12.514,8.984-18.789,13.556C358.04,435.35,358.131,435.511,358.229,435.441L358.229,435.441z"/>
			</g>
		</g>
		<g>
			<g>
				<path class="st20" d="M372.711,420.47c-1.773,2.326-3.506,5.165-4.01,8.096c-0.029,0.166,0.213,0.306,0.297,0.125
					c1.288-2.774,2.343-5.457,4.154-7.963C373.347,420.459,372.907,420.214,372.711,420.47L372.711,420.47z"/>
			</g>
		</g>
		<g>
			<g>
				<path class="st20" d="M365.787,425.161c-0.587,1.092-1.074,2.18-1.538,3.328c-0.431,1.065-1.194,2.277-1.146,3.439
					c0.009,0.22,0.273,0.339,0.436,0.181c0.769-0.745,1.005-1.924,1.391-2.905c0.502-1.275,0.963-2.523,1.324-3.845
					C366.329,425.083,365.927,424.901,365.787,425.161L365.787,425.161z"/>
			</g>
		</g>
		<g>
			<g>
				<path class="st20" d="M361.446,433.514c0.921,0.323,1.918,0.363,2.887,0.402c0.863,0.034,1.75,0.145,2.538-0.237
					c0.226-0.11,0.148-0.444-0.066-0.51c-0.792-0.243-1.648-0.049-2.472-0.047c-0.941,0.003-1.887-0.129-2.826-0.064
					C361.244,433.075,361.194,433.426,361.446,433.514L361.446,433.514z"/>
			</g>
		</g>
		<g>
			<g>
				<path class="st20" d="M367.698,429.799c1.191,0.657,2.963,1.271,4.298,0.744c0.178-0.07,0.218-0.349,0-0.403
					c-0.587-0.145-1.159-0.078-1.76-0.127c-0.816-0.067-1.641-0.257-2.431-0.468C367.655,429.504,367.557,429.722,367.698,429.799
					L367.698,429.799z"/>
			</g>
		</g>
		<g>
			<path class="st13" d="M348.128,412.881c-1.607-2.937-3.976-6.096-7.324-6.152c-2.758-0.046-5.161,2.239-5.983,4.872
				c-0.821,2.634-0.349,5.503,0.498,8.129c3.046,9.446,11.132,17.1,20.732,19.622l0.383-0.678
				C355.325,429.656,352.49,420.853,348.128,412.881z"/>
		</g>
		<g>
			<g>
				<path class="st20" d="M339.185,412.704c7.291,5.898,9.846,16.47,14.136,24.48c0.109,0.204,0.474,0.061,0.382-0.161
					c-1.965-4.744-4.31-9.358-6.55-13.977c-1.982-4.088-4.084-7.777-7.706-10.604C339.263,412.296,338.998,412.552,339.185,412.704
					L339.185,412.704z"/>
			</g>
		</g>
		<g>
			<g>
				<path class="st20" d="M345.586,412.13c0.157,1.317,0.143,2.617-0.122,3.922c-0.207,1.018-0.779,1.988-0.816,3.018
					c-0.007,0.186,0.231,0.27,0.357,0.148c1.606-1.557,1.377-5.142,1.038-7.15C345.999,411.813,345.555,411.87,345.586,412.13
					L345.586,412.13z"/>
			</g>
		</g>
		<g>
			<g>
				<path class="st20" d="M339.61,421.277c2.071,1.733,4.85,3.777,7.647,3.891c0.231,0.01,0.315-0.323,0.117-0.433
					c-1.233-0.686-2.616-1.019-3.896-1.605c-1.288-0.59-2.494-1.319-3.643-2.145C339.666,420.863,339.448,421.142,339.61,421.277
					L339.61,421.277z"/>
			</g>
		</g>
		<g>
			<g>
				<path class="st20" d="M348.208,419.078c0.038,0.932,0.029,1.859-0.06,2.788c-0.088,0.928-0.366,1.837-0.248,2.769
					c0.026,0.208,0.312,0.342,0.433,0.117c0.865-1.609,0.477-3.984,0.24-5.723C348.545,418.821,348.2,418.871,348.208,419.078
					L348.208,419.078z"/>
			</g>
		</g>
		<g>
			<rect x="356.033" y="353.587" class="st20" width="1.368" height="110.621"/>
		</g>
		<g>
			<g>
				<path class="st20" d="M356.434,378.912c0.088,0,0.088-0.137,0-0.137C356.346,378.776,356.346,378.912,356.434,378.912
					L356.434,378.912z"/>
			</g>
		</g>
		<g>
			<g>
				<path class="st20" d="M360.942,388.58c0.034,0,0.034-0.053,0-0.053C360.908,388.526,360.908,388.58,360.942,388.58
					L360.942,388.58z"/>
			</g>
		</g>
		<g id="XMLID_308_">
			<g id="XMLID_373_">
				<linearGradient id="SVGID_4_" gradientUnits="userSpaceOnUse" x1="327.6845" y1="381.5294" x2="385.9399" y2="381.5294">
					<stop  offset="0" style="stop-color:#FEC55E"/>
					<stop  offset="1" style="stop-color:#FF5722"/>
				</linearGradient>
				<path class="st30" d="M385.94,381.53c0,16.087-13.041,29.127-29.128,29.127c-16.087,0-29.128-13.041-29.128-29.127
					c0-16.087,13.041-29.128,29.128-29.128C372.899,352.402,385.94,365.443,385.94,381.53z"/>
			</g>
			<g id="XMLID_366_">
				<path class="st167" d="M382.756,381.53c0,14.328-11.616,25.944-25.944,25.944c-14.329,0-25.945-11.616-25.945-25.944
					c0-14.329,11.616-25.944,25.945-25.944C371.141,355.585,382.756,367.201,382.756,381.53z"/>
			</g>
			<g id="XMLID_365_">
				<path class="st26" d="M379.711,381.53c0,12.646-10.252,22.898-22.898,22.898s-22.899-10.252-22.899-22.898
					c0-12.647,10.252-22.899,22.899-22.899S379.711,368.883,379.711,381.53z"/>
			</g>
			<g id="XMLID_309_">
				<g id="XMLID_363_">
					<g id="XMLID_364_">
						<path class="st20" d="M359.796,393.211h-8.484c-1.951,0-3.54-1.589-3.54-3.54v-1.813h5.038v0.315h6.986
							c1.343,0,2.435-1.093,2.435-2.435c0-0.876-0.711-1.587-1.584-1.587h-6.253c-3.65,0-6.622-2.971-6.622-6.624v-0.908
							c0-4.123,3.353-7.475,7.473-7.475h8.484c1.951,0,3.54,1.589,3.54,3.54v2.059h-5.038v-0.561h-6.986
							c-1.343,0-2.435,1.094-2.435,2.438v0.908c0,0.876,0.711,1.587,1.584,1.587h6.253c3.651,0,6.622,2.971,6.622,6.624
							C367.269,389.857,363.916,393.211,359.796,393.211z"/>
					</g>
				</g>
				<g id="XMLID_361_">
					<g id="XMLID_362_">
						<rect x="355.002" y="366.695" class="st20" width="5.038" height="29.668"/>
					</g>
				</g>
			</g>
		</g>
	</g>
	<g>
		<g>
			<rect x="315.78" y="424.888" class="st20" width="1.368" height="39.32"/>
		</g>
		<g>
			<g>
				<path class="st20" d="M316.247,444.277c0.088,0,0.088-0.137,0-0.137C316.159,444.14,316.159,444.277,316.247,444.277
					L316.247,444.277z"/>
			</g>
		</g>
		<g>
			<g>
				<path class="st20" d="M319.695,451.662c0.034,0,0.034-0.053,0-0.053S319.661,451.662,319.695,451.662L319.695,451.662z"/>
			</g>
		</g>
		<g id="XMLID_290_">
			<g id="XMLID_298_">
				<linearGradient id="SVGID_5_" gradientUnits="userSpaceOnUse" x1="293.1386" y1="430.0799" x2="337.7019" y2="430.0799">
					<stop  offset="0" style="stop-color:#FEC55E"/>
					<stop  offset="1" style="stop-color:#FF5722"/>
				</linearGradient>
				<path class="st31" d="M337.702,430.08c0,12.306-9.976,22.281-22.282,22.281c-12.306,0-22.282-9.976-22.282-22.281
					c0-12.306,9.976-22.282,22.282-22.282C327.726,407.798,337.702,417.774,337.702,430.08z"/>
			</g>
			<g id="XMLID_297_">
				<path class="st167" d="M335.267,430.08c0,10.961-8.885,19.846-19.846,19.846c-10.961,0-19.847-8.885-19.847-19.846
					c0-10.961,8.886-19.846,19.847-19.846C326.381,410.234,335.267,419.119,335.267,430.08z"/>
			</g>
			<g id="XMLID_296_">
				<path class="st26" d="M332.937,430.08c0,9.674-7.842,17.516-17.516,17.516c-9.674,0-17.517-7.842-17.517-17.516
					c0-9.674,7.843-17.517,17.517-17.517C325.094,412.564,332.937,420.406,332.937,430.08z"/>
			</g>
			<g id="XMLID_291_">
				<g id="XMLID_294_">
					<g id="XMLID_295_">
						<path class="st20" d="M317.703,439.016h-6.49c-1.492,0-2.708-1.216-2.708-2.708v-1.387h3.854v0.241h5.344
							c1.027,0,1.863-0.836,1.863-1.863c0-0.67-0.544-1.214-1.212-1.214h-4.783c-2.792,0-5.065-2.273-5.065-5.068v-0.694
							c0-3.154,2.565-5.718,5.717-5.718h6.49c1.493,0,2.708,1.216,2.708,2.708v1.575h-3.854v-0.429h-5.344
							c-1.027,0-1.863,0.837-1.863,1.865v0.694c0,0.67,0.544,1.214,1.212,1.214h4.783c2.793,0,5.066,2.273,5.066,5.067
							C323.419,436.451,320.855,439.016,317.703,439.016z"/>
					</g>
				</g>
				<g id="XMLID_292_">
					<g id="XMLID_293_">
						<rect x="314.035" y="418.732" class="st20" width="3.854" height="22.695"/>
					</g>
				</g>
			</g>
		</g>
	</g>
	<g id="XMLID_14_">
		<g id="XMLID_216_">
			<g id="XMLID_245_">
				<path class="st21" d="M593.015,464.181h-45.635c-5.458,0-9.883-4.425-9.883-9.883v-45.635c0-5.458,4.425-9.883,9.883-9.883
					h45.635c5.458,0,9.883,4.425,9.883,9.883v45.635C602.897,459.756,598.473,464.181,593.015,464.181z"/>
			</g>
			<g id="XMLID_244_">
				<linearGradient id="SVGID_6_" gradientUnits="userSpaceOnUse" x1="537.4966" y1="408.5919" x2="602.8973" y2="408.5919">
					<stop  offset="0" style="stop-color:#E040FB"/>
					<stop  offset="0.2536" style="stop-color:#C570FA"/>
					<stop  offset="0.6059" style="stop-color:#A2AEF8"/>
					<stop  offset="0.8647" style="stop-color:#8CD4F7"/>
					<stop  offset="1" style="stop-color:#84E3F7"/>
				</linearGradient>
				<path class="st46" d="M593.301,398.78h-46.208c-5.3,0-9.596,4.296-9.596,9.596v10.027h65.401v-10.027
					C602.897,403.077,598.601,398.78,593.301,398.78z"/>
			</g>
			<g id="XMLID_98_">
				<g id="XMLID_243_">
					<path class="st144" d="M582.563,408.008c0,2.748-2.228,4.976-4.976,4.976c-2.748,0-4.976-2.228-4.976-4.976
						c0-2.748,2.228-4.976,4.976-4.976C580.335,403.032,582.563,405.26,582.563,408.008z"/>
				</g>
				<g id="XMLID_242_">
					<path class="st171" d="M580.986,408.008c0,1.877-1.522,3.399-3.399,3.399c-1.877,0-3.399-1.522-3.399-3.399
						c0-1.877,1.522-3.399,3.399-3.399C579.464,404.609,580.986,406.131,580.986,408.008z"/>
				</g>
			</g>
			<g id="XMLID_95_">
				<g id="XMLID_97_">
					<path class="st144" d="M552.412,408.008c0,2.748-2.228,4.976-4.976,4.976c-2.748,0-4.976-2.228-4.976-4.976
						c0-2.748,2.228-4.976,4.976-4.976C550.184,403.032,552.412,405.26,552.412,408.008z"/>
				</g>
				<g id="XMLID_96_">
					<path class="st171" d="M550.835,408.008c0,1.877-1.522,3.399-3.399,3.399c-1.877,0-3.399-1.522-3.399-3.399
						c0-1.877,1.522-3.399,3.399-3.399C549.314,404.609,550.835,406.131,550.835,408.008z"/>
				</g>
			</g>
			<g id="XMLID_93_">
				<g id="XMLID_94_">
					<path class="st13" d="M577.43,409.207L577.43,409.207c-1.469,0-2.66-1.191-2.66-2.66v-9.021c0-4.706,3.431-8.916,8.115-9.374
						c5.374-0.525,9.916,3.703,9.916,8.971v1.656h-5.32v-1.439c0-1.932-1.387-3.697-3.309-3.892c-2.21-0.225-4.08,1.511-4.08,3.675
						v9.423C580.09,408.016,578.899,409.207,577.43,409.207z"/>
				</g>
			</g>
			<g id="XMLID_234_">
				<g id="XMLID_92_">
					<path class="st13" d="M547.279,409.207L547.279,409.207c-1.469,0-2.66-1.191-2.66-2.66v-9.021c0-4.706,3.431-8.916,8.114-9.374
						c5.374-0.525,9.916,3.703,9.916,8.971v1.656h-5.321v-1.439c0-1.932-1.387-3.697-3.309-3.892
						c-2.21-0.225-4.081,1.511-4.081,3.675v9.423C549.94,408.016,548.748,409.207,547.279,409.207z"/>
				</g>
			</g>
			<g id="XMLID_233_" class="st24">
				<path class="st20" d="M593.301,398.78h-4.765c5.3,0,9.596,4.296,9.596,9.596v46.208c0,5.3-4.296,9.596-9.596,9.596h4.765
					c5.3,0,9.596-4.297,9.596-9.596v-46.208C602.897,403.077,598.601,398.78,593.301,398.78z"/>
			</g>
			<g id="XMLID_232_">
				<path class="st172" d="M570.954,429.775h-5.327c-0.373,0-0.676-0.303-0.676-0.676v-5.327c0-0.373,0.303-0.676,0.676-0.676h5.327
					c0.373,0,0.676,0.303,0.676,0.676v5.327C571.63,429.472,571.327,429.775,570.954,429.775z"/>
			</g>
			<g id="XMLID_231_">
				<path class="st172" d="M581.693,429.775h-5.327c-0.373,0-0.676-0.303-0.676-0.676v-5.327c0-0.373,0.303-0.676,0.676-0.676h5.327
					c0.373,0,0.676,0.303,0.676,0.676v5.327C582.369,429.472,582.066,429.775,581.693,429.775z"/>
			</g>
			<g id="XMLID_230_">
				<path class="st172" d="M592.432,429.775h-5.327c-0.374,0-0.676-0.303-0.676-0.676v-5.326c0-0.373,0.303-0.676,0.676-0.676h5.327
					c0.373,0,0.676,0.303,0.676,0.676v5.327C593.108,429.472,592.805,429.775,592.432,429.775z"/>
			</g>
			<g id="XMLID_229_">
				<path class="st172" d="M549.476,439.424h-5.326c-0.373,0-0.676-0.303-0.676-0.676v-5.327c0-0.373,0.303-0.676,0.676-0.676h5.326
					c0.373,0,0.676,0.303,0.676,0.676v5.327C550.152,439.121,549.849,439.424,549.476,439.424z"/>
			</g>
			<g id="XMLID_228_">
				<path class="st172" d="M560.215,439.424h-5.326c-0.373,0-0.676-0.303-0.676-0.676v-5.327c0-0.373,0.303-0.676,0.676-0.676h5.326
					c0.373,0,0.676,0.303,0.676,0.676v5.327C560.891,439.121,560.588,439.424,560.215,439.424z"/>
			</g>
			<g id="XMLID_227_">
				<path class="st172" d="M570.954,439.424h-5.326c-0.373,0-0.676-0.303-0.676-0.676v-5.327c0-0.373,0.303-0.676,0.676-0.676h5.326
					c0.373,0,0.676,0.303,0.676,0.676v5.327C571.63,439.121,571.327,439.424,570.954,439.424z"/>
			</g>
			<g id="XMLID_226_">
				<path class="st172" d="M581.693,439.424h-5.326c-0.373,0-0.676-0.303-0.676-0.676v-5.327c0-0.373,0.303-0.676,0.676-0.676h5.326
					c0.373,0,0.676,0.303,0.676,0.676v5.327C582.369,439.121,582.066,439.424,581.693,439.424z"/>
			</g>
			<g id="XMLID_225_">
				<path class="st172" d="M592.432,439.424h-5.326c-0.374,0-0.676-0.303-0.676-0.676v-5.327c0-0.373,0.303-0.676,0.676-0.676h5.327
					c0.373,0,0.676,0.303,0.676,0.676v5.327C593.108,439.121,592.805,439.424,592.432,439.424z"/>
			</g>
			<g id="XMLID_224_">
				<path class="st172" d="M549.476,449.072h-5.326c-0.373,0-0.676-0.303-0.676-0.676v-5.327c0-0.373,0.303-0.676,0.676-0.676h5.326
					c0.373,0,0.676,0.303,0.676,0.676v5.327C550.152,448.77,549.849,449.072,549.476,449.072z"/>
			</g>
			<g id="XMLID_223_">
				<path class="st172" d="M560.215,449.072h-5.326c-0.373,0-0.676-0.303-0.676-0.676v-5.327c0-0.373,0.303-0.676,0.676-0.676h5.326
					c0.373,0,0.676,0.303,0.676,0.676v5.327C560.891,448.77,560.588,449.072,560.215,449.072z"/>
			</g>
			<g id="XMLID_222_">
				<path class="st172" d="M570.954,449.072h-5.327c-0.373,0-0.676-0.303-0.676-0.676v-5.327c0-0.373,0.303-0.676,0.676-0.676h5.326
					c0.373,0,0.676,0.303,0.676,0.676v5.327C571.63,448.77,571.327,449.072,570.954,449.072z"/>
			</g>
			<g id="XMLID_221_">
				<path class="st172" d="M581.693,449.072h-5.327c-0.373,0-0.676-0.303-0.676-0.676v-5.327c0-0.373,0.303-0.676,0.676-0.676h5.326
					c0.373,0,0.676,0.303,0.676,0.676v5.327C582.369,448.77,582.066,449.072,581.693,449.072z"/>
			</g>
			<g id="XMLID_220_">
				<path class="st172" d="M592.432,449.072h-5.327c-0.373,0-0.676-0.303-0.676-0.676v-5.327c0-0.373,0.303-0.676,0.676-0.676h5.327
					c0.373,0,0.676,0.303,0.676,0.676v5.327C593.108,448.77,592.805,449.072,592.432,449.072z"/>
			</g>
			<g id="XMLID_219_">
				<path class="st172" d="M549.476,458.721h-5.326c-0.373,0-0.676-0.303-0.676-0.676v-5.326c0-0.373,0.303-0.676,0.676-0.676h5.326
					c0.373,0,0.676,0.303,0.676,0.676v5.326C550.152,458.418,549.849,458.721,549.476,458.721z"/>
			</g>
			<g id="XMLID_218_">
				<path class="st172" d="M560.215,458.721h-5.326c-0.373,0-0.676-0.303-0.676-0.676v-5.326c0-0.373,0.303-0.676,0.676-0.676h5.326
					c0.373,0,0.676,0.303,0.676,0.676v5.326C560.891,458.418,560.588,458.721,560.215,458.721z"/>
			</g>
			<g id="XMLID_217_">
				<path class="st172" d="M570.954,458.721h-5.327c-0.373,0-0.676-0.303-0.676-0.676v-5.326c0-0.373,0.303-0.676,0.676-0.676h5.327
					c0.373,0,0.676,0.303,0.676,0.676v5.326C571.63,458.418,571.327,458.721,570.954,458.721z"/>
			</g>
		</g>
		<g id="XMLID_214_" class="st24">
			<g id="XMLID_215_">
				<path class="st173" d="M549.391,463.529v-0.425v-0.583v-2.58c0-0.609-0.494-1.104-1.103-1.104h-0.431v-1.577v-11.978
					c0-0.632-0.302-1.412-0.734-1.982c-0.144-0.19-0.302-0.357-0.467-0.486l-5.227-4.101c-0.166-0.13-0.29-0.28-0.373-0.44
					c-0.083-0.16-0.124-0.331-0.124-0.501c0-0.341,0.166-0.682,0.497-0.942l5.227-4.105c0.166-0.13,0.324-0.297,0.467-0.486
					c0.144-0.19,0.273-0.403,0.382-0.626c0.217-0.446,0.352-0.933,0.352-1.354l0,0v-10.976v-1.84h0.341
					c0.609,0,1.103-0.494,1.103-1.104v-2.465v-0.698v-0.425c0-0.375-0.304-0.679-0.678-0.679h-0.425h-10.701v6.332v36.837
					c0,4.938,4.003,8.94,8.94,8.94h2.34C549.117,464.143,549.391,463.878,549.391,463.529z"/>
			</g>
		</g>
		<g id="XMLID_15_">
			<g id="XMLID_69_">
				<g id="XMLID_212_">
					<g id="XMLID_213_">
						<path class="st174" d="M522.013,460.852v-15.57c0-0.843,0.538-1.948,1.201-2.468l5.227-4.101c0.663-0.52,0.663-1.363,0-1.883
							l-5.227-4.105c-0.663-0.52-1.201-1.623-1.201-2.466v-14.871h23.707v14.871c0,0.843-0.538,1.946-1.201,2.466l-5.227,4.105
							c-0.663,0.52-0.663,1.363,0,1.883l5.227,4.101c0.663,0.52,1.201,1.625,1.201,2.468v15.57H522.013z"/>
					</g>
				</g>
				<g id="XMLID_90_">
					<g id="XMLID_91_">
						<path class="st175" d="M525.842,442.814l5.227-4.101c0.663-0.52,0.663-1.363,0-1.883l-5.227-4.105
							c-0.663-0.52-1.201-1.623-1.201-2.466v-14.871h-2.629v14.871c0,0.843,0.538,1.947,1.201,2.466l5.227,4.105
							c0.663,0.52,0.663,1.363,0,1.883l-5.227,4.101c-0.663,0.52-1.201,1.625-1.201,2.468v15.57h2.629v-15.57
							C524.642,444.439,525.179,443.334,525.842,442.814z"/>
					</g>
				</g>
				<g id="XMLID_88_" class="st176">
					<g id="XMLID_89_">
						<path class="st177" d="M544.519,432.724c0.663-0.52,1.201-1.623,1.201-2.466v-14.871h-3.154v14.871
							c0,0.843-0.538,1.947-1.201,2.466l-5.227,4.105c-0.663,0.52-0.663,1.363,0,1.883l5.227,4.101
							c0.663,0.52,1.201,1.625,1.201,2.468v15.57h3.154v-15.57c0-0.843-0.538-1.948-1.201-2.468l-5.227-4.101
							c-0.663-0.52-0.663-1.363,0-1.883L544.519,432.724z"/>
					</g>
				</g>
				<g id="XMLID_86_">
					<g id="XMLID_87_">
						<path class="st26" d="M525.969,459.29h18.084v-7.113c0-1.491-0.834-2.857-2.16-3.538l-5.19-2.666
							c-1.215-0.624-2.66-0.608-3.86,0.044l-4.793,2.602c-1.282,0.696-2.08,2.037-2.08,3.496V459.29z"/>
					</g>
				</g>
				<g id="XMLID_84_" class="st24">
					<g id="XMLID_85_">
						<rect x="522.013" y="415.387" class="st173" width="23.707" height="3.895"/>
					</g>
				</g>
				<g id="XMLID_82_">
					<g id="XMLID_83_">
						<path class="st22" d="M546.457,417.442h-25.363c-0.39,0-0.707-0.316-0.707-0.707v-3.957c0-0.39,0.316-0.707,0.707-0.707
							h25.362c0.39,0,0.707,0.316,0.707,0.707v3.957C547.164,417.126,546.847,417.442,546.457,417.442z"/>
					</g>
				</g>
				<g id="XMLID_80_">
					<g id="XMLID_81_">
						<path class="st178" d="M546.485,412.072h-25.419c-0.375,0-0.679,0.304-0.679,0.679v1.123h26.776v-1.123
							C547.164,412.376,546.86,412.072,546.485,412.072z"/>
					</g>
				</g>
				<g id="XMLID_78_" class="st24">
					<g id="XMLID_79_">
						<rect x="522.013" y="457.26" class="st173" width="23.707" height="3.592"/>
					</g>
				</g>
				<g id="XMLID_76_">
					<g id="XMLID_77_">
						<path class="st22" d="M546.548,464.207h-25.363c-0.39,0-0.707-0.316-0.707-0.707v-3.957c0-0.39,0.316-0.707,0.707-0.707
							h25.363c0.39,0,0.707,0.316,0.707,0.707v3.957C547.255,463.891,546.938,464.207,546.548,464.207z"/>
					</g>
				</g>
				<g id="XMLID_74_">
					<g id="XMLID_75_">
						<path class="st179" d="M520.479,462.521v1.008c0,0.375,0.304,0.679,0.679,0.679h25.418c0.375,0,0.679-0.304,0.679-0.679
							v-1.008H520.479z"/>
					</g>
				</g>
				<g id="XMLID_72_">
					<g id="XMLID_73_">
						<path class="st26" d="M535.109,442.31h-0.892c-0.364,0-0.66-0.295-0.66-0.66v-2.095c0-0.364,0.295-0.66,0.66-0.66h0.892
							c0.364,0,0.66,0.295,0.66,0.66v2.095C535.768,442.014,535.473,442.31,535.109,442.31z"/>
					</g>
				</g>
				<g id="XMLID_70_">
					<g id="XMLID_71_">
						<path class="st26" d="M534.878,428.672c-3.506,0-6.663-1.469-8.909-3.817v3.53c0,1.55,0.837,2.979,2.189,3.738l4.446,2.493
							c0.589,0.33,0.953,0.953,0.953,1.627v1.071c0,0.611,0.495,1.105,1.106,1.105c0.611,0,1.106-0.495,1.106-1.105v-1.025
							c0-0.699,0.391-1.34,1.013-1.66l4.944-2.539c1.429-0.734,2.327-2.206,2.327-3.812v-3.715
							C541.794,427.08,538.526,428.672,534.878,428.672z"/>
					</g>
				</g>
			</g>
		</g>
	</g>
	<g id="XMLID_60_">
		<g id="XMLID_258_">
			<rect x="222.265" y="309.383" class="st26" width="26.033" height="18.178"/>
		</g>
		<g id="XMLID_259_">
			<linearGradient id="SVGID_7_" gradientUnits="userSpaceOnUse" x1="211.4726" y1="292.4451" x2="259.0898" y2="292.4451">
				<stop  offset="0" style="stop-color:#FEC55E"/>
				<stop  offset="1" style="stop-color:#FF5722"/>
			</linearGradient>
			<circle class="st48" cx="235.281" cy="292.445" r="23.809"/>
		</g>
		<g id="XMLID_257_">
			<polygon class="st13" points="249.985,328.621 241.328,335.86 228.444,335.86 220.577,328.621 220.577,317.246 249.985,317.246 
							"/>
		</g>
		<g id="XMLID_256_">
			<path class="st99" d="M250.457,320.467H220.04c-0.408,0-0.742-0.334-0.742-0.742v-0.697c0-0.408,0.334-0.742,0.742-0.742h30.417
				c0.408,0,0.742,0.334,0.742,0.742v0.698C251.199,320.133,250.865,320.467,250.457,320.467z"/>
		</g>
		<g id="XMLID_255_">
			<path class="st99" d="M250.457,324.112H220.04c-0.408,0-0.742-0.334-0.742-0.742v-0.697c0-0.408,0.334-0.742,0.742-0.742h30.417
				c0.408,0,0.742,0.334,0.742,0.742v0.697C251.199,323.778,250.865,324.112,250.457,324.112z"/>
		</g>
		<g id="XMLID_13_">
			<path class="st99" d="M250.457,327.756H220.04c-0.408,0-0.742-0.334-0.742-0.742v-0.697c0-0.408,0.334-0.742,0.742-0.742h30.417
				c0.408,0,0.742,0.334,0.742,0.742v0.697C251.199,327.422,250.865,327.756,250.457,327.756z"/>
		</g>
		<g id="XMLID_12_">
			<path class="st20" d="M238.523,339.795h-7.539c-1.607,0-2.909-1.302-2.909-2.909v-1.366h13.358v1.367
				C241.432,338.493,240.129,339.795,238.523,339.795z"/>
		</g>
		<g id="XMLID_11_">
			<path class="st68" d="M252.634,292.445c0,9.584-7.769,17.353-17.353,17.353s-17.352-7.769-17.352-17.353
				c0-9.583,7.769-17.352,17.352-17.352S252.634,282.862,252.634,292.445z"/>
		</g>
	</g>
	<g class="st24">
		<g>
			<path class="st20" d="M192.164,464.01v-2.818h-0.766c-0.415-4.722-1.709-4.87-6.328-6.808l-9.536-0.17l-1.929-5.687l-1.572-0.659
				l1.035-2.103l1.764,0.525l16.979-30.499h-1.015h-9.122h-5.709l-11.376,27.447l3.389,1.01l-0.782,1.59l-2.39-1.002l-4.592,10.948
				l-0.519-0.222l-1.11,2.59l13.67,5.855v0.002H192.164z"/>
		</g>
	</g>
	<g>
		<g>
			
				<rect x="222.586" y="445.543" transform="matrix(-1 -1.224647e-16 1.224647e-16 -1 450.4105 896.8224)" class="st143" width="5.238" height="5.736"/>
		</g>
		<g>
			
				<rect x="170.376" y="442.675" transform="matrix(-0.8973 -0.4415 0.4415 -0.8973 131.5323 921.6907)" class="st143" width="5.238" height="5.737"/>
		</g>
		<g>
			<polygon class="st181" points="184.551,348.147 193.281,367.103 211.511,394.538 219.718,447.414 230.443,447.414 
				226.951,397.497 215.977,361.865 213.234,348.147 			"/>
		</g>
		<g class="st24">
			<g>
				<path class="st20" d="M189.901,359.764l24.891-3.822l1.185,5.923l1.297,4.211c-2.783,7.227-5.656,17.284-5.85,28.33
					l-18.143-27.304L189.901,359.764z"/>
			</g>
		</g>
		<g>
			
				<rect x="174.008" y="277.688" transform="matrix(-1 -1.224647e-16 1.224647e-16 -1 358.9854 568.0966)" class="st143" width="10.97" height="12.72"/>
		</g>
		<g class="st24">
			<polygon class="st143" points="174.008,284.713 184.978,280.723 184.978,277.688 174.008,277.688 			"/>
		</g>
		<g>
			<path class="st4" d="M187.045,284.048l-14.715,3.741v2.744c0,0-5.736,7.732-5.487,11.722
				c0.249,3.991,15.464,44.395,17.708,45.892h28.682c0,0-11.473-30.179-12.221-33.421c0,0-3.492-16.212-9.727-21.2
				c0,0-1.951-3.159-3.697-4.073C187.588,289.453,185.798,287.54,187.045,284.048z"/>
		</g>
		<g class="st24">
			<path class="st171" d="M185.382,318.893l8.634-11.063l-7.83-6.769c-2.674-2.779-7.095-2.865-9.874-0.191v0
				c-2.779,2.674-2.865,7.095-0.19,9.874L185.382,318.893z"/>
		</g>
		<g>
			<path class="st4" d="M186.595,317.53l8.486-11.093l-10.722-8.203c-2.101-1.607-5.107-1.207-6.714,0.893l-2.668,3.485
				c-1.607,2.1-1.208,5.106,0.893,6.713L186.595,317.53z"/>
		</g>
		<g class="st24">
			<path class="st20" d="M204.38,324.467c1.226,3.358,2.632,7.143,3.96,10.695l-6.477-3.049l-16.5-13.293l6.428-8.402
				L204.38,324.467z"/>
		</g>
		<g>
			<path class="st143" d="M231.108,342.245l-27.02-12.72l-16.5-13.293l6.428-8.402l13.481,15.044l24.485,15.304l-0.958,1.157
				l4.931,0.217c2.107,0.092,7.789-0.716,10.033,1.612l-9.893,1.081H231.108z"/>
		</g>
		<g>
			<path class="st144" d="M184.551,348.147c0,0-1.746,8.48,0,13.967c1.746,5.487,4.24,8.686,4.24,8.686l-2.508,26.697
				l-18.959,45.742l10.243,3.052l22.198-39.874l15.969-45.767l-2.5-12.503H184.551z"/>
		</g>
		<g>
			<path class="st143" d="M169.669,280.473h15.857c2.49,0,4.508-2.018,4.508-4.508v-5.136h3.251c0.694-5.29-4.224-9.104-5.061-11.78
				c-1.273-4.074,1.809-5.512,1.809-5.512h-20.365V280.473z"/>
		</g>
		<g>
			
				<rect x="182.971" y="346.651" transform="matrix(-1 -1.224647e-16 1.224647e-16 -1 397.5351 697.7542)" class="st171" width="31.592" height="4.453"/>
		</g>
		<g>
			<path class="st143" d="M232.51,340.609l3.277-3.164c0.572-0.29,0.8-0.988,0.51-1.56l0,0c-0.29-0.572-0.988-0.8-1.56-0.51
				l-4.274,2.167c-0.572,0.29-0.8,0.988-0.511,1.56l0,0C230.243,339.672,231.939,340.898,232.51,340.609z"/>
		</g>
		<g>
			<path class="st142" d="M220.722,449.4h9.543l3.979,4.498h8.177c5.155,0,9.873,2.895,12.208,7.491l0,0h-33.907V449.4z"/>
		</g>
		<g>
			<path class="st4" d="M222.586,455.395c0,1.653,1.34,2.993,2.993,2.993c1.653,0,2.993-1.34,2.993-2.993s-1.34-2.993-2.993-2.993
				C223.926,452.402,222.586,453.742,222.586,455.395z"/>
		</g>
		<g>
			
				<rect x="219.386" y="461.389" transform="matrix(-1 -1.224647e-16 1.224647e-16 -1 475.3519 925.5966)" class="st144" width="36.581" height="2.818"/>
		</g>
		<g>
			<path class="st142" d="M167.541,444.836l8.801,3.692l1.929,5.687l9.536,0.17c4.754,1.994,5.989,2.078,6.365,7.219l0,0H176.52
				l-13.616-5.711L167.541,444.836z"/>
		</g>
		<g>
			<path class="st4" d="M166.941,451.085c-0.639,1.524,0.078,3.278,1.603,3.918c1.524,0.639,3.278-0.078,3.918-1.602
				c0.639-1.524-0.078-3.278-1.602-3.918C169.334,448.844,167.581,449.561,166.941,451.085z"/>
		</g>
		<g>
			
				<rect x="174.99" y="461.192" transform="matrix(-1 -1.224647e-16 1.224647e-16 -1 369.8912 925.2026)" class="st144" width="19.911" height="2.818"/>
		</g>
		<g>
			
				<rect x="161.274" y="458.377" transform="matrix(-0.9192 -0.3937 0.3937 -0.9192 142.757 948.8605)" class="st144" width="14.877" height="2.818"/>
		</g>
		<g>
			<path class="st144" d="M190.13,270.744c-3.28,0.072-5.012,2.091-7.286,3.057c-1.079,0.458-3.253,1.02-3.903,0.046
				c-0.872-1.309-0.191-4.537-0.065-6.076c0.118-1.446,0.385-5.117,1.008-6.428c0.651-1.369,1.857-2.796,3.303-3.467
				c0.695-0.323,1.445-0.471,2.216-0.354c1.13,0.171,1.664,0.633,2.863,0.197c1.2-0.437,2.254-1.5,2.908-2.569
				c0.401-0.655,0.709-1.409,0.625-2.172c-0.107-0.969-0.842-1.777-1.703-2.234c-2.142-1.137-3.884-0.696-6.032,0.018
				c-0.997,0.331-2.205,0.401-2.991-0.295c-0.29-0.256-0.494-0.593-0.742-0.891c-1.316-1.579-3.988-1.759-5.504-0.37
				c-1.54,1.411-1.973,2.562-4.004,3.238c-1.332,0.444-2.991,1.064-3.819,2.274c-1.385,2.024,0.282,3.092,0.624,4.984
				c0.158,0.874-0.513,1.648-1.003,2.389c-0.959,1.451-1.326,5.498-0.999,7.207c0.153,0.803,0.484,1.618,1.139,2.107
				c1.518,1.134,1.332,2.843,1.345,4.661c0.01,1.511-1.303,2.197-1.363,3.539c-0.127,2.851,4.086,2.743,4.992,0.492
				c1.158-2.874,0.21-6.265,0.267-9.246c0.033-1.752,1.839-3.909,3.662-2.677c1.055,0.713,0.967,1.858,0.912,2.895
				c-0.085,1.604-0.098,3.313-0.218,4.956c-0.18,2.47-1.099,5.775,1.555,7.36c2.323,1.327,4.444,0.559,6.957,0.508
				c1.213-0.024,2.496-0.069,3.517-0.724c1.302-0.835,1.844-2.436,2.298-3.915c0.31-1.008,0.619-2.017,0.929-3.025
				c0.293-0.954,0.588-1.929,0.556-2.926C192.14,272.306,191.128,270.722,190.13,270.744z"/>
		</g>
		<g class="st53">
			<g class="st24">
				<g>
					<path class="st20" d="M178.499,330.749c0.937-0.509,1.875-1.018,2.812-1.527c-1.121-0.386-2.284-0.649-3.461-0.783
						c1.373-0.169,2.713-0.598,3.929-1.259c-2.697-0.546-4.691-2.771-6.401-4.927c-1.295-1.633-2.531-3.311-3.738-5.01
						c1.905,5.261,4.129,11.122,6.207,16.327c2.575-0.496,5.206-0.7,7.827-0.598C183.283,332.231,180.891,331.49,178.499,330.749z"
						/>
				</g>
			</g>
			<g class="st24">
				<g>
					<path class="st20" d="M177.866,333.614c2.23,5.584,4.278,10.377,5.567,12.826c-0.38-3.172-0.761-6.345-1.141-9.517
						c-0.06-0.499-0.122-1.008-0.339-1.461C181.274,334.043,179.458,333.722,177.866,333.614z"/>
				</g>
			</g>
		</g>
		<g>
			<g class="st24">
				<g>
					<path class="st20" d="M215.384,408.213c0.177-0.071,0.373-0.067,0.563-0.076c0.618-0.028,1.23-0.195,1.776-0.485
						c-0.82,0.011-1.642-0.134-2.409-0.425c-0.559-0.212-1.136-0.391-1.683-0.524c0.053-0.271,1.036-1.507,1.383-1.258
						c-0.364-0.261-0.801-0.429-1.236-0.541c0.007-0.4,0.471-0.614,0.864-0.688c0.393-0.074,0.859-0.15,1.034-0.509
						c-1.539-1.246-2.522-2.794-3.43-4.428l3.055,19.684c0.602,1.18,1.093,2.397,1.354,3.649c-0.067-2.174,0.047-4.354,0.361-6.507
						c0.311-2.132-1.128-3.971-1.906-5.945c-0.134-0.341-0.268-0.693-0.26-1.059C214.859,408.735,215.044,408.349,215.384,408.213z"
						/>
				</g>
			</g>
			<g class="st24">
				<g>
					<path class="st20" d="M216.656,422.612c0.027,0.889,0.077,1.777,0.168,2.662C216.913,424.37,216.837,423.484,216.656,422.612z"
						/>
				</g>
			</g>
		</g>
	</g>
	<g>
		<rect x="82.67" y="463.524" class="st20" width="594.095" height="1.368"/>
	</g>
</g>
<g id="Layer_2">
</g>
<g id="Layer_1">
</g>
<g id="specctr">
	<g id="Dimensions">
	</g>
	<g id="Text_Properties">
	</g>
</g>
</svg>
