<?xml version="1.0" encoding="utf-8"?>
<!-- Generator: Adobe Illustrator 23.0.1, SVG Export Plug-In . SVG Version: 6.00 Build 0)  -->
<svg version="1.1" id="Layer_1" xmlns="http://www.w3.org/2000/svg" xmlns:xlink="http://www.w3.org/1999/xlink" x="0px" y="0px"
	 viewBox="0 0 64 64" style="enable-background:new 0 0 64 64;" xml:space="preserve">
<style type="text/css">
	.Drop_x0020_Shadow{fill:none;}
	.Outer_x0020_Glow_x0020_5_x0020_pt{fill:none;}
	.Blue_x0020_Neon{fill:none;stroke:#8AACDA;stroke-width:7;stroke-linecap:round;stroke-linejoin:round;}
	.Chrome_x0020_Highlight{fill:url(#SVGID_1_);stroke:#FFFFFF;stroke-width:0.3629;stroke-miterlimit:1;}
	.Jive_GS{fill:#FFDD00;}
	.Alyssa_GS{fill:#A6D0E4;}
	.st0{fill:#FFFFFF;stroke:#171C28;stroke-linecap:round;stroke-linejoin:round;stroke-miterlimit:10;}
	.st1{fill:#FFFFFF;}
	.st2{fill:#171C28;}
	.st3{fill:none;stroke:#4C5C68;stroke-width:0.9106;stroke-miterlimit:10;}
	.st4{fill:none;stroke:#171C28;stroke-linecap:round;stroke-linejoin:round;stroke-miterlimit:10;}
	.st5{fill:none;stroke:#4C5C68;stroke-width:1.0828;stroke-linecap:round;stroke-linejoin:round;stroke-miterlimit:10;}
	.st6{fill:none;stroke:#4C5C68;stroke-width:1.1103;stroke-linecap:round;stroke-linejoin:round;stroke-miterlimit:10;}
	.st7{fill:#C74634;stroke:#171C28;stroke-linecap:round;stroke-linejoin:round;stroke-miterlimit:10;}
	.st8{fill:#C74634;}
	.st9{fill:#FFFFFF;stroke:#171C28;stroke-width:0.9273;stroke-linecap:round;stroke-linejoin:round;stroke-miterlimit:10;}
	.st10{fill:#4C5C68;}
	.st11{fill:#FFFFFF;stroke:#171C28;stroke-width:0.9403;stroke-linecap:round;stroke-linejoin:round;stroke-miterlimit:10;}
	.st12{fill:none;stroke:#4C5C68;stroke-linecap:round;stroke-linejoin:round;stroke-miterlimit:10;}
	.st13{fill:#CEE8FA;}
	.st14{fill:#CEE8FA;stroke:#4C5C68;stroke-linecap:round;stroke-linejoin:round;stroke-miterlimit:10;}
	.st15{fill:#F9CA38;stroke:#4C5C68;stroke-linecap:round;stroke-linejoin:round;stroke-miterlimit:10;}
	.st16{fill:#FFFFFF;stroke:#4C5C68;stroke-linecap:round;stroke-linejoin:round;stroke-miterlimit:10;}
	.st17{fill:#FFFFFF;stroke:#FEBD2E;stroke-linecap:round;stroke-linejoin:round;stroke-miterlimit:10;}
	.st18{fill:#FEBD2E;stroke:#4C5C68;stroke-linecap:round;stroke-linejoin:round;stroke-miterlimit:10;}
	.st19{fill:#286090;}
	.st20{fill:#F9CA38;}
	.st21{fill:#FFFFFF;stroke:#4C5C68;stroke-width:1.2173;stroke-linecap:round;stroke-linejoin:round;stroke-miterlimit:10;}
	.st22{fill:#FFFFFF;stroke:#4C5C68;stroke-width:0.8881;stroke-linecap:round;stroke-linejoin:round;stroke-miterlimit:10;}
	.st23{fill:none;stroke:#CEE8FA;stroke-width:1.0985;stroke-linecap:round;stroke-linejoin:round;stroke-miterlimit:10;}
	.st24{opacity:0.6;fill:#286090;}
	.st25{fill:none;stroke:#4C5C68;stroke-width:1.0254;stroke-linecap:round;stroke-linejoin:round;stroke-miterlimit:10;}
	.st26{fill:#FFFFFF;stroke:#4C5C68;stroke-miterlimit:10;}
	.st27{fill:none;stroke:#286090;stroke-linecap:round;stroke-linejoin:round;stroke-miterlimit:10;stroke-dasharray:0,2;}
	.st28{fill:none;stroke:#286090;stroke-linecap:round;stroke-linejoin:round;stroke-miterlimit:10;}
	.st29{fill:#FEBD2E;}
	.st30{fill:none;stroke:#CEE8FA;stroke-linecap:round;stroke-linejoin:round;stroke-miterlimit:10;}
	.st31{fill:#FFFFFF;stroke:#171C28;stroke-miterlimit:10;}
	.st32{fill:#FFFFFF;stroke:#171C28;stroke-width:1.0268;stroke-linecap:round;stroke-linejoin:round;stroke-miterlimit:10;}
	.st33{fill:none;stroke:#171C28;stroke-width:1.0268;stroke-linecap:round;stroke-linejoin:round;stroke-miterlimit:10;}
	.st34{fill:#6B6B6B;}
	.st35{fill:none;stroke:#FFFFFF;stroke-width:1.0985;stroke-linecap:round;stroke-linejoin:round;stroke-miterlimit:10;}
	.st36{fill:#FFFFFF;stroke:#171C28;stroke-width:1.0688;stroke-linecap:round;stroke-linejoin:round;stroke-miterlimit:10;}
	.st37{fill:none;stroke:#4C5C68;stroke-width:1.1073;stroke-linecap:round;stroke-linejoin:round;stroke-miterlimit:10;}
	.st38{fill:none;stroke:#4C5C68;stroke-width:1.0096;stroke-linecap:round;stroke-linejoin:round;stroke-miterlimit:10;}
	.st39{fill:#FFFFFF;stroke:#171C28;stroke-width:1.1331;stroke-linecap:round;stroke-linejoin:round;stroke-miterlimit:10;}
	.st40{fill:none;stroke:#171C28;stroke-linecap:round;stroke-linejoin:round;stroke-miterlimit:10;stroke-dasharray:0,2;}
	.st41{fill:none;stroke:#BC0110;stroke-linecap:round;stroke-linejoin:round;stroke-miterlimit:10;}
	.st42{fill:none;stroke:#333333;stroke-width:2;stroke-linecap:round;stroke-linejoin:round;stroke-miterlimit:10;}
	.st43{fill:#FFFFFF;stroke:#171C28;stroke-width:1.211;stroke-linecap:round;stroke-linejoin:round;stroke-miterlimit:10;}
	.st44{fill:#171C28;stroke:#000000;stroke-width:0.2;stroke-linecap:round;stroke-linejoin:round;stroke-miterlimit:10;}
	.st45{fill:#FFFFFF;stroke:#4C5C68;stroke-width:0.9531;stroke-linecap:round;stroke-linejoin:round;stroke-miterlimit:10;}
	.st46{fill:#5FB0E5;}
	.st47{fill:#D2E9F7;}
	.st48{fill:#0686D8;}
	.st49{fill:#9ECFEF;}
	.st50{fill:none;stroke:#4C5C68;stroke-miterlimit:10;}
	.st51{fill:#4C5C68;stroke:#4C5C68;stroke-width:0.4;stroke-linecap:round;stroke-linejoin:round;stroke-miterlimit:10;}
	.st52{fill:#FED65C;}
	.st53{fill:none;stroke:#FFFFFF;stroke-linecap:round;stroke-linejoin:round;stroke-miterlimit:10;}
	.st54{fill:#EBF0F2;}
	.st55{fill:#B8D1CD;}
	.st56{fill:#DCEAE7;}
	.st57{fill:#EFB19E;}
	.st58{fill:#CCED9F;}
	.st59{fill:#A4EDE6;}
	.st60{fill:#111416;}
	.st61{fill:#567771;}
	.st62{fill:#FACC40;}
	.st63{fill:#FFF380;}
	.st64{fill:#E2932B;}
	.st65{fill:#78A09A;}
	.st66{fill:#253330;}
	.st67{fill:#FFFFFF;stroke:#4C5C68;stroke-width:1.1677;stroke-linecap:round;stroke-linejoin:round;stroke-miterlimit:10;}
	.st68{fill:#FFFFFF;stroke:#4C5C68;stroke-width:1.1657;stroke-linecap:round;stroke-linejoin:round;stroke-miterlimit:10;}
	.st69{fill:#FFFFFF;stroke:#171C28;stroke-width:0.9983;stroke-linecap:round;stroke-linejoin:round;stroke-miterlimit:10;}
	.st70{fill:#FFFFFF;stroke:#171C28;stroke-width:1.0727;stroke-linecap:round;stroke-linejoin:round;stroke-miterlimit:10;}
	.st71{fill:#C74634;stroke:#FFFFFF;stroke-linecap:round;stroke-linejoin:round;stroke-miterlimit:10;}
	.st72{fill:#CEE8FA;stroke:#4C5C68;stroke-width:0.965;stroke-linecap:round;stroke-linejoin:round;stroke-miterlimit:10;}
	.st73{fill:#41464B;}
	.st74{fill:#FFFFFF;stroke:#171C28;stroke-width:1.1013;stroke-linecap:round;stroke-linejoin:round;stroke-miterlimit:10;}
	.st75{fill:none;stroke:#171C28;stroke-width:1.1013;stroke-linecap:round;stroke-linejoin:round;stroke-miterlimit:10;}
	.st76{fill:#C74634;stroke:#171C28;stroke-width:1.1013;stroke-linecap:round;stroke-linejoin:round;stroke-miterlimit:10;}
	.st77{stroke:#171C28;stroke-linecap:round;stroke-linejoin:round;stroke-miterlimit:10;}
	.st78{fill:#FFFFFF;stroke:#171C28;stroke-width:0.9891;stroke-linecap:round;stroke-linejoin:round;stroke-miterlimit:10;}
	.st79{fill:none;stroke:#171C28;stroke-width:0.5274;stroke-linecap:round;stroke-linejoin:round;stroke-miterlimit:10;}
	.st80{fill:none;stroke:#4C5C68;stroke-width:1.1135;stroke-linecap:round;stroke-linejoin:round;stroke-miterlimit:10;}
	.st81{fill:#F9CA38;stroke:#4C5C68;stroke-width:1.1723;stroke-miterlimit:10;}
	.st82{fill:none;stroke:#4C5C68;stroke-width:1.0796;stroke-linecap:round;stroke-linejoin:round;stroke-miterlimit:10;}
	.st83{fill:none;stroke:#4C5C68;stroke-width:1.136;stroke-linecap:round;stroke-linejoin:round;stroke-miterlimit:10;}
	.st84{fill:#FFFFFF;stroke:#4C5C68;stroke-width:1.0796;stroke-linecap:round;stroke-linejoin:round;stroke-miterlimit:10;}
	.st85{fill:#007395;}
	.st86{fill:#FFFFFF;stroke:#171C28;stroke-width:0.8477;stroke-linecap:round;stroke-linejoin:round;stroke-miterlimit:10;}
	.st87{fill:#FFFFFF;stroke:#171C28;stroke-width:1.0138;stroke-linecap:round;stroke-linejoin:round;stroke-miterlimit:10;}
	.st88{fill:#FFFFFF;stroke:#171C28;stroke-width:0.9779;stroke-linecap:round;stroke-linejoin:round;stroke-miterlimit:10;}
	.st89{fill:none;stroke:#595959;stroke-width:1.6811;stroke-linecap:round;stroke-linejoin:round;}
	.st90{fill:none;stroke:#595959;stroke-width:1.6811;stroke-miterlimit:10;}
</style>
<linearGradient id="SVGID_1_" gradientUnits="userSpaceOnUse" x1="-945.6256" y1="-1132.7476" x2="-945.6256" y2="-1133.7476">
	<stop  offset="0" style="stop-color:#656565"/>
	<stop  offset="0.618" style="stop-color:#1B1B1B"/>
	<stop  offset="0.6292" style="stop-color:#545454"/>
	<stop  offset="0.9831" style="stop-color:#3E3E3E"/>
</linearGradient>
<path id="XMLID_1988_" class="st0" d="M23.7,5.4H53c2.6,0,4.6,2.1,4.6,4.6v40c0,2.4-1.9,4.3-4.3,4.3H19.2"/>
<path id="XMLID_1987_" class="st1" d="M25.3,54.2h-3.9c-0.6,0-1-0.5-1-1V8.1c0-1.4,1.1-2.5,2.5-2.5h0.6c1.4,0,2.5,1.1,2.5,2.5v45.3
	C26.1,53.8,25.7,54.2,25.3,54.2z"/>
<line id="XMLID_1986_" class="st0" x1="26.1" y1="20.4" x2="26.1" y2="54.2"/>
<path id="XMLID_1985_" class="st0" d="M20.4,51.5V8.2c0-1.6,1.3-2.8,2.8-2.8h0c1.6,0,2.8,1.3,2.8,2.8v5.2"/>
<line id="XMLID_1984_" class="st0" x1="20.4" y1="53.9" x2="20.4" y2="9.8"/>
<line id="XMLID_1983_" class="st0" x1="30.8" y1="38.7" x2="53.5" y2="38.7"/>
<line id="XMLID_1982_" class="st0" x1="30.8" y1="42.6" x2="53.5" y2="42.6"/>
<g>
	<path class="st0" d="M38.3,21.6c1-0.7,1.8-0.7,2.4-0.6c1.9,0.5,2.1,3.8,3.3,6.1"/>
	<path class="st0" d="M46.9,29.4c0.1,0,0.2,0,0.2,0c3.7,0,4.6-4.6,5.5-8.3"/>
	<path class="st0" d="M35.8,24.3c-1.2,1.7-2.7,4.2-4.3,7.8"/>
	<circle class="st7" cx="37" cy="22.9" r="1.8"/>
	<circle class="st7" cx="45.3" cy="28.5" r="1.8"/>
	<line class="st0" x1="31.4" y1="12.8" x2="31.4" y2="34"/>
	<line class="st0" x1="52.7" y1="34" x2="31.4" y2="34"/>
</g>
<g>
	<polygon id="XMLID_1767_" class="st0" points="6.3,50.6 13.2,47.9 21.4,44 29.1,48 35.8,50.7 35.8,58.4 6.3,58.4 	"/>
	<path id="XMLID_1766_" class="st7" d="M14.6,47.5l4.3,10.6c0,0,3.3,0,4.2,0l4.7-10.6l-6.6-3.1L14.6,47.5z"/>
	<path id="XMLID_1765_" class="st0" d="M22.3,26.2c-3.6-0.1-4.9,0.8-6.1,2.4c-1.1,1.4-1.3,3.5-1.3,3.5l0.1,6.6h13l0.1-7.7
		C28.1,31.1,27.5,26.4,22.3,26.2z"/>
	<path id="XMLID_1764_" class="st0" d="M21.8,51.3h-0.9c-1.9,0-3.4-1.5-3.4-3.4v-3.5h7.8v3.5C25.3,49.7,23.7,51.3,21.8,51.3z"/>
	<path id="XMLID_1763_" class="st0" d="M22.8,45.6h-3.4c-2,0-3.3-1.8-3.3-3.8v-1.6c-0.7,0-0.2,0-0.2,0c-0.6,0-1.3-0.5-1.3-1.1
		s0.6-1.1,1.2-1.1c0,0,0,0,0.7,0v-7.7h10.1V38c0,0,0.2,0,0.2,0c0.6,0,1.1,0.5,1.1,1.1s-0.5,1.1-1.1,1.1c-0.1,0-0.2,0-0.2,0v1.6
		c0,1.1-0.7,2.1-1.4,2.8"/>
	<path id="XMLID_1762_" class="st1" d="M16.5,29.1c-0.8,1-0.8,2.4-0.8,2.4c0-0.9,1.3-0.6,1.3-0.6c0.5,0.5,3.8,3,3.8,3l-0.8-2.5
		l4.2,0.7l0.4-1.8l2.7,0.6L27,29.7l-0.5-0.3"/>
	<path id="XMLID_1761_" class="st0" d="M26.7,31.1l-1.9-0.7l-0.4,1.8l-4.2-0.7l0.8,2.5c0,0-3.7-2.7-4.2-3.2c0,0-0.1,0.5-0.1,1.3"/>
	<polyline id="XMLID_1760_" class="st0" points="12.5,48.3 12.5,54.8 15,54.8 14.4,56.6 	"/>
	<polyline id="XMLID_1759_" class="st0" points="28.3,48.3 28.3,54.7 27,54.7 27,56.7 	"/>
	<line id="XMLID_1757_" class="st79" x1="14.7" y1="47.6" x2="19.1" y2="58.2"/>
</g>
</svg>
