<svg id="Layer_1" data-name="Layer 1" xmlns="http://www.w3.org/2000/svg" xmlns:xlink="http://www.w3.org/1999/xlink" viewBox="0 0 24 24"><defs><style>.cls-1,.cls-3{fill:none;}.cls-2{fill:#9ecfef;}.cls-3{clip-rule:evenodd;}.cls-4{clip-path:url(#clip-path);}.cls-5{clip-path:url(#clip-path-2);}.cls-6{clip-path:url(#clip-path-3);}.cls-7{clip-path:url(#clip-path-4);}.cls-8{clip-path:url(#clip-path-5);}.cls-9{fill:#fff;}.cls-10{fill:#595959;}</style><clipPath id="clip-path"><rect class="cls-1" x="-20" y="-103" width="12" height="18" rx="0.5" ry="0.5"/></clipPath><clipPath id="clip-path-2"><circle class="cls-2" cx="-14" cy="-94" r="3"/></clipPath><clipPath id="clip-path-3"><path class="cls-3" d="M-4.12-93.79A11.56,11.56,0,0,1-14-88.35a11.56,11.56,0,0,1-9.88-5.45L-24-94l.12-.21A11.56,11.56,0,0,1-14-99.65a11.56,11.56,0,0,1,9.88,5.45L-4-94ZM-9-94a4.91,4.91,0,0,0-5-4.84A4.91,4.91,0,0,0-19-94a4.91,4.91,0,0,0,5,4.84A4.91,4.91,0,0,0-9-94Zm-14,0a10.51,10.51,0,0,0,5,4.09A5.57,5.57,0,0,1-19.79-94,5.57,5.57,0,0,1-18-98.09,10.51,10.51,0,0,0-23-94Zm13-4.09A5.57,5.57,0,0,1-8.21-94,5.57,5.57,0,0,1-10-89.91,10.51,10.51,0,0,0-5-94,10.51,10.51,0,0,0-10-98.09Z"/></clipPath><clipPath id="clip-path-4"><path class="cls-3" d="M-20.57-84.21a.41.41,0,0,0,.41.4H-9.89V-85a1.23,1.23,0,0,1,1.23-1.22h1.23v-2.84h.82v2.91a1.2,1.2,0,0,1-.36.86l-2,2a1.23,1.23,0,0,1-.87.36H-20.16a1.22,1.22,0,0,1-1.23-1.22v-4.87h.82ZM-8-85.43h-.65a.41.41,0,0,0-.41.41v.64Z"/></clipPath><clipPath id="clip-path-5"><path class="cls-3" d="M-7.43-103.79a.4.4,0,0,0-.41-.39H-20.16a.4.4,0,0,0-.41.39v3.17h-.82v-3.17A1.21,1.21,0,0,1-20.16-105H-7.84a1.21,1.21,0,0,1,1.23,1.18v3.17h-.82v-3.17"/></clipPath></defs><title>forex-booking</title><circle class="cls-2" cx="-14" cy="-94" r="3"/><g class="cls-5"><rect class="cls-2" x="-36" y="-365" width="320" height="697"/></g><circle class="cls-9" cx="16.22" cy="7.25" r="6.25"/><circle class="cls-2" cx="16.22" cy="7.25" r="4.75"/><path class="cls-9" d="M18.62,4.79,17.28,6.64h.66a.28.28,0,1,1,0,.55h-.87L17,7.4l-.13.23h1.13a.28.28,0,0,1,0,.55H16.71V9.6a.4.4,0,0,1-.4.4H16a.4.4,0,0,1-.4-.4V8.18H14.47a.28.28,0,1,1,0-.55h1.06L15.4,7.4l-.11-.21h-.82a.28.28,0,1,1,0-.55h.61L13.81,4.78c-.09-.13,0-.29.21-.29h.43a.25.25,0,0,1,.21.11L15.54,6l.4.65h.54L16.89,6l.89-1.38A.25.25,0,0,1,18,4.5h.42C18.6,4.5,18.71,4.66,18.62,4.79Z"/><path class="cls-10" d="M16.22,1a6.23,6.23,0,0,0-5.79,4,6.67,6.67,0,0,1,.87.44,5.25,5.25,0,1,1,8.21,5.93,6.59,6.59,0,0,1,.7.65,6.21,6.21,0,0,0-4-11Z"/><circle class="cls-9" cx="14.62" cy="16.18" r="5.67"/><circle class="cls-2" cx="14.62" cy="16.18" r="4.31"/><circle class="cls-2" cx="14.62" cy="16.18" r="4.31"/><path class="cls-10" d="M15.28,10.57a5.59,5.59,0,0,0-1.16,0,6.46,6.46,0,0,1,0,.74c0,.05,0,.1,0,.15a4.61,4.61,0,0,1,1,0A4.77,4.77,0,1,1,10,17.22a6,6,0,0,1-.84.23,5.64,5.64,0,1,0,6.17-6.87Z"/><path class="cls-9" d="M15.67,14.6a1.83,1.83,0,0,1,.8.15h0a.22.22,0,0,0,.31-.14l.13-.47a.22.22,0,0,0-.11-.26h0a2.51,2.51,0,0,0-1.15-.21,2.4,2.4,0,0,0-2.35,1.63h-.73a.27.27,0,0,0-.27.28h0a.27.27,0,0,0,.28.27h.61a3.05,3.05,0,0,0,0,.39c0,.11,0,.21,0,.31h-.6a.27.27,0,0,0-.27.28h0a.27.27,0,0,0,.28.27h.7a2.22,2.22,0,0,0,2.3,1.57,3,3,0,0,0,1.26-.25h0a.22.22,0,0,0,.11-.25l-.12-.45a.22.22,0,0,0-.31-.14h0a2.08,2.08,0,0,1-.83.17,1.35,1.35,0,0,1-1.29-.66l1.76,0a.22.22,0,0,0,.22-.22v-.1a.22.22,0,0,0-.22-.22l-1.93,0a2.36,2.36,0,0,1,0-.33,2.33,2.33,0,0,1,0-.37l1.92,0a.22.22,0,0,0,.22-.22v-.1a.22.22,0,0,0-.22-.22l-1.74,0A1.38,1.38,0,0,1,15.67,14.6Z"/><circle class="cls-9" cx="7.57" cy="10.98" r="5.25"/><circle class="cls-2" cx="7.57" cy="11.07" r="4.75"/><path class="cls-9" d="M9.23,12.08a1.49,1.49,0,0,1-1.37,1.48v.6a.3.3,0,1,1-.59,0v-.55a2.87,2.87,0,0,1-1.37-.36l.23-.7a2.45,2.45,0,0,0,1.14.37h.08a1.4,1.4,0,0,0,.51-.08.69.69,0,0,0,.48-.67.77.77,0,0,0-.48-.72,3.27,3.27,0,0,0-.47-.21l-.12,0c-.83-.33-1.22-.81-1.22-1.39A1.47,1.47,0,0,1,7.27,8.36V7.75a.3.3,0,1,1,.59,0v.55a2.51,2.51,0,0,1,1.19.31l-.23.67a2,2,0,0,0-1-.29H7.78a1,1,0,0,0-.51.12.64.64,0,0,0-.34.57.63.63,0,0,0,.34.57,3.34,3.34,0,0,0,.59.28h0C8.78,10.88,9.23,11.33,9.23,12.08Z"/><path class="cls-10" d="M7.57,4.74A6.22,6.22,0,1,0,13.79,11,6.22,6.22,0,0,0,7.57,4.74Zm0,11.49A5.25,5.25,0,1,1,12.82,11,5.25,5.25,0,0,1,7.57,16.23Z"/><path class="cls-10" d="M19,15a4,4,0,1,0,4,4A4,4,0,0,0,19,15Zm0,7.27A3.27,3.27,0,1,1,22.23,19,3.28,3.28,0,0,1,19,22.24Z"/><path class="cls-9" d="M19,15.7A3.27,3.27,0,1,0,22.23,19,3.28,3.28,0,0,0,19,15.7Z"/><rect class="cls-10" x="18.59" y="17.17" width="0.75" height="4.19"/><rect class="cls-10" x="18.59" y="17.17" width="0.75" height="4.19" transform="translate(-0.31 38.23) rotate(-90)"/></svg>