<svg width="1280" height="686" viewBox="0 0 1280 686" xmlns="http://www.w3.org/2000/svg"><title>Desktop</title><desc>Created with Sketch.</desc><g fill-rule="nonzero" fill="none"><path d="M1120.447 641.128v-611.154c.154-16.396-13.024-29.815-29.438-29.974h-902.573c-7.885.077-15.416 3.279-20.936 8.903-5.521 5.624-8.579 13.208-8.501 21.084v611.141h-158.391v27.338h-.606s.189.189.606.53v1.463h1.957c7.767 5.336 34.83 19.541 103.178 19.541h1068.327c68.499 0 95.626-14.192 103.405-19.541h2.526v-29.331h-159.553zm-29.211-28.687h-900.439v-571.756h900.439v571.756z" fill="#2A2D30"/><path fill="#fff" d="M190.021 40.433h900v571.338h-900z"/></g></svg>