<?xml version="1.0" encoding="utf-8"?>
<!-- Generator: Adobe Illustrator 22.0.1, SVG Export Plug-In . SVG Version: 6.00 Build 0)  -->
<svg version="1.1" id="Layer_1" xmlns="http://www.w3.org/2000/svg" xmlns:xlink="http://www.w3.org/1999/xlink" x="0px" y="0px"
	 viewBox="0 0 50 50" style="enable-background:new 0 0 50 50;" xml:space="preserve">
<style type="text/css">
	.st0{fill:#FFFFFF;}
	.st1{fill:#414042;}
	.st2{fill:#9ECFEF;}
	.st3{fill:#FFCE44;}
	.st4{fill:#FFE167;}
	.st5{fill:#F5CC73;}
	.st6{clip-path:url(#SVGID_2_);}
	.st7{clip-path:url(#SVGID_4_);}
	.st8{clip-path:url(#SVGID_6_);}
	.st9{clip-path:url(#SVGID_8_);}
	.st10{clip-path:url(#SVGID_10_);}
	.st11{clip-path:url(#SVGID_12_);}
	.st12{clip-path:url(#SVGID_14_);}
	.st13{clip-path:url(#SVGID_16_);}
	.st14{clip-path:url(#SVGID_18_);}
	.st15{clip-path:url(#SVGID_20_);}
	.st16{clip-path:url(#SVGID_22_);}
	.st17{clip-path:url(#SVGID_24_);}
	.st18{clip-path:url(#SVGID_26_);}
	.st19{clip-path:url(#SVGID_28_);}
	.st20{clip-path:url(#SVGID_30_);}
	.st21{clip-path:url(#SVGID_34_);}
	.st22{clip-path:url(#SVGID_36_);fill:#9ECFEF;}
	.st23{clip-path:url(#SVGID_38_);}
	.st24{clip-path:url(#SVGID_40_);}
	.st25{clip-path:url(#SVGID_42_);}
	.st26{clip-path:url(#SVGID_44_);}
	.st27{clip-path:url(#SVGID_46_);fill:#414042;}
	.st28{clip-path:url(#SVGID_38_);fill-rule:evenodd;clip-rule:evenodd;fill:#414042;}
	.st29{clip-path:url(#SVGID_48_);}
	.st30{clip-path:url(#SVGID_52_);}
	.st31{clip-path:url(#SVGID_56_);}
	.st32{clip-path:url(#SVGID_58_);fill:#F77C4B;}
	.st33{clip-path:url(#SVGID_60_);}
	.st34{clip-path:url(#SVGID_62_);fill:#FFFFFF;}
	.st35{clip-path:url(#SVGID_64_);}
	.st36{clip-path:url(#SVGID_66_);fill:#414042;}
	.st37{clip-path:url(#SVGID_68_);}
	.st38{clip-path:url(#SVGID_70_);fill:#414042;}
	.st39{clip-path:url(#SVGID_72_);}
	.st40{clip-path:url(#SVGID_74_);fill:#414042;}
	.st41{clip-path:url(#SVGID_76_);}
	.st42{clip-path:url(#SVGID_78_);fill:#F77C4B;}
	.st43{clip-path:url(#SVGID_80_);}
	.st44{clip-path:url(#SVGID_82_);fill:#FFFFFF;}
	.st45{clip-path:url(#SVGID_84_);}
	.st46{clip-path:url(#SVGID_86_);fill:#FFFFFF;}
	.st47{clip-path:url(#SVGID_88_);}
	.st48{clip-path:url(#SVGID_90_);fill:#414042;}
	.st49{clip-path:url(#SVGID_92_);}
	.st50{clip-path:url(#SVGID_94_);fill:#414042;}
	.st51{clip-path:url(#SVGID_96_);}
	.st52{clip-path:url(#SVGID_98_);fill:#414042;}
	.st53{clip-path:url(#SVGID_100_);}
	.st54{clip-path:url(#SVGID_102_);fill:#414042;}
	.st55{clip-path:url(#SVGID_104_);}
	.st56{clip-path:url(#SVGID_106_);fill:#414042;}
	.st57{fill:#41464B;}
	.st58{fill:#4CBED8;}
	.st59{fill:#FF7443;}
	.st60{fill:none;stroke:#359CDB;stroke-width:0.393;stroke-linecap:round;stroke-linejoin:round;stroke-miterlimit:10;}
	.st61{fill:#AFAFAF;}
	.st62{fill:#FED65C;}
	.st63{clip-path:url(#SVGID_108_);}
	.st64{fill:#4CBDD8;}
	.st65{fill:#F9D264;}
	.st66{fill:#F9BB7D;}
	.st67{fill:#41464B;stroke:#414042;stroke-width:0.4;stroke-linecap:round;stroke-linejoin:round;stroke-miterlimit:10;}
	.st68{clip-path:url(#SVGID_110_);}
	.st69{clip-path:url(#SVGID_112_);}
	.st70{clip-path:url(#SVGID_114_);}
	.st71{clip-path:url(#SVGID_116_);}
	.st72{clip-path:url(#SVGID_118_);}
	.st73{clip-path:url(#SVGID_120_);}
	.st74{clip-path:url(#SVGID_122_);}
	.st75{clip-path:url(#SVGID_124_);fill:#414042;}
	.st76{clip-path:url(#SVGID_126_);}
	.st77{clip-path:url(#SVGID_128_);}
	.st78{clip-path:url(#SVGID_130_);}
	.st79{clip-path:url(#SVGID_132_);}
	.st80{clip-path:url(#SVGID_134_);}
	.st81{clip-path:url(#SVGID_136_);}
	.st82{clip-path:url(#SVGID_138_);}
	.st83{clip-path:url(#SVGID_140_);}
	.st84{clip-path:url(#SVGID_142_);}
	.st85{clip-path:url(#SVGID_144_);}
	.st86{clip-path:url(#SVGID_146_);}
	.st87{clip-path:url(#SVGID_148_);}
	.st88{clip-path:url(#SVGID_150_);}
	.st89{clip-path:url(#SVGID_152_);fill:#FFFFFF;}
	.st90{clip-path:url(#SVGID_154_);}
	.st91{clip-path:url(#SVGID_156_);}
	.st92{clip-path:url(#SVGID_158_);}
	.st93{clip-path:url(#SVGID_160_);}
	.st94{clip-path:url(#SVGID_162_);}
	.st95{clip-path:url(#SVGID_164_);}
	.st96{clip-path:url(#SVGID_166_);}
	.st97{clip-path:url(#SVGID_168_);}
	.st98{clip-path:url(#SVGID_170_);}
	.st99{clip-path:url(#SVGID_172_);}
	.st100{clip-path:url(#SVGID_174_);}
	.st101{clip-path:url(#SVGID_176_);}
	.st102{clip-path:url(#SVGID_178_);}
	.st103{clip-path:url(#SVGID_180_);fill:#414042;}
	.st104{clip-path:url(#SVGID_182_);}
	.st105{clip-path:url(#SVGID_184_);}
	.st106{clip-path:url(#SVGID_186_);}
	.st107{clip-path:url(#SVGID_188_);}
	.st108{clip-path:url(#SVGID_190_);}
	.st109{clip-path:url(#SVGID_192_);}
	.st110{fill:#41464B;stroke:#41464B;stroke-width:0.2;stroke-miterlimit:10;}
	.st111{clip-path:url(#SVGID_194_);}
	.st112{clip-path:url(#SVGID_196_);}
	.st113{clip-path:url(#SVGID_198_);}
	.st114{clip-path:url(#SVGID_200_);}
	.st115{clip-path:url(#SVGID_202_);}
	.st116{clip-path:url(#SVGID_204_);}
	.st117{clip-path:url(#SVGID_206_);}
	.st118{clip-path:url(#SVGID_208_);fill:#414042;}
	.st119{clip-path:url(#SVGID_210_);}
	.st120{clip-path:url(#SVGID_212_);}
	.st121{clip-path:url(#SVGID_214_);}
	.st122{clip-path:url(#SVGID_216_);}
	.st123{clip-path:url(#SVGID_218_);}
	.st124{clip-path:url(#SVGID_220_);}
	.st125{clip-path:url(#SVGID_222_);}
	.st126{clip-path:url(#SVGID_224_);}
	.st127{clip-path:url(#SVGID_226_);}
	.st128{clip-path:url(#SVGID_228_);}
	.st129{clip-path:url(#SVGID_230_);}
	.st130{clip-path:url(#SVGID_232_);}
	.st131{clip-path:url(#SVGID_234_);}
	.st132{clip-path:url(#SVGID_236_);fill:#414042;}
	.st133{clip-path:url(#SVGID_238_);}
	.st134{clip-path:url(#SVGID_240_);}
	.st135{clip-path:url(#SVGID_242_);}
	.st136{clip-path:url(#SVGID_244_);}
	.st137{clip-path:url(#SVGID_246_);}
	.st138{clip-path:url(#SVGID_248_);}
	.st139{fill:#FFD15D;}
	.st140{fill:#475059;}
	.st141{fill:#41464B;stroke:#41464B;stroke-width:0.223;stroke-linecap:round;stroke-linejoin:round;stroke-miterlimit:10;}
	.st142{fill:#41464B;stroke:#41464B;stroke-width:0.223;stroke-miterlimit:10;}
	.st143{fill:#41464B;stroke:#41464B;stroke-width:0.212;stroke-miterlimit:10;}
	.st144{fill:#5FE0ED;}
	.st145{fill:#48515A;}
	.st146{fill:#41464B;stroke:#41464B;stroke-width:0.2104;stroke-miterlimit:10;}
	.st147{fill:#41464B;stroke:#41464B;stroke-width:0.21;stroke-linecap:round;stroke-linejoin:round;stroke-miterlimit:10;}
	.st148{fill:#41464B;stroke:#41464B;stroke-width:0.2086;stroke-linecap:round;stroke-linejoin:round;stroke-miterlimit:10;}
	.st149{fill:#FDBE11;}
	.st150{fill:#41464B;stroke:#41464B;stroke-width:0.2513;stroke-miterlimit:10;}
	.st151{clip-path:url(#SVGID_250_);}
	.st152{clip-path:url(#SVGID_252_);}
	.st153{clip-path:url(#SVGID_254_);}
	.st154{clip-path:url(#SVGID_256_);}
	.st155{clip-path:url(#SVGID_258_);}
	.st156{clip-path:url(#SVGID_260_);}
	.st157{clip-path:url(#SVGID_262_);}
	.st158{clip-path:url(#SVGID_264_);fill:#414042;}
	.st159{clip-path:url(#SVGID_266_);}
	.st160{clip-path:url(#SVGID_268_);}
	.st161{clip-path:url(#SVGID_270_);}
	.st162{clip-path:url(#SVGID_272_);}
	.st163{clip-path:url(#SVGID_274_);}
	.st164{clip-path:url(#SVGID_276_);}
	.st165{clip-path:url(#SVGID_278_);}
	.st166{clip-path:url(#SVGID_280_);}
	.st167{clip-path:url(#SVGID_282_);}
	.st168{clip-path:url(#SVGID_284_);}
	.st169{clip-path:url(#SVGID_286_);}
	.st170{clip-path:url(#SVGID_288_);}
	.st171{clip-path:url(#SVGID_290_);}
	.st172{clip-path:url(#SVGID_292_);fill:#414042;}
	.st173{clip-path:url(#SVGID_294_);}
	.st174{clip-path:url(#SVGID_296_);}
	.st175{clip-path:url(#SVGID_298_);}
	.st176{clip-path:url(#SVGID_300_);}
	.st177{clip-path:url(#SVGID_302_);}
	.st178{clip-path:url(#SVGID_304_);}
	.st179{fill:#DEDEDD;}
	.st180{fill:#41464B;stroke:#41464B;stroke-width:0.2327;stroke-miterlimit:10;}
	.st181{fill:#41464B;stroke:#41464B;stroke-width:0.2327;stroke-linecap:round;stroke-linejoin:round;stroke-miterlimit:10;}
	.st182{fill:#F58E70;}
	.st183{clip-path:url(#SVGID_306_);}
	.st184{fill:#41464B;stroke:#41464B;stroke-width:0.2316;stroke-miterlimit:10;}
	.st185{fill:#FFB936;}
	.st186{fill:#E6E7E8;}
	.st187{clip-path:url(#SVGID_308_);}
	.st188{clip-path:url(#SVGID_310_);}
	.st189{clip-path:url(#SVGID_312_);}
	.st190{clip-path:url(#SVGID_314_);}
	.st191{clip-path:url(#SVGID_316_);}
	.st192{clip-path:url(#SVGID_318_);}
	.st193{clip-path:url(#SVGID_320_);}
	.st194{clip-path:url(#SVGID_322_);fill:#FFFFFF;}
	.st195{clip-path:url(#SVGID_324_);}
	.st196{clip-path:url(#SVGID_326_);}
	.st197{clip-path:url(#SVGID_328_);}
	.st198{clip-path:url(#SVGID_330_);}
	.st199{clip-path:url(#SVGID_332_);}
	.st200{clip-path:url(#SVGID_334_);}
	.st201{clip-path:url(#SVGID_336_);}
	.st202{clip-path:url(#SVGID_338_);}
	.st203{clip-path:url(#SVGID_340_);}
	.st204{clip-path:url(#SVGID_342_);}
	.st205{clip-path:url(#SVGID_344_);}
	.st206{clip-path:url(#SVGID_346_);}
	.st207{clip-path:url(#SVGID_348_);}
	.st208{clip-path:url(#SVGID_350_);fill:#FFFFFF;}
	.st209{clip-path:url(#SVGID_352_);}
	.st210{clip-path:url(#SVGID_354_);}
	.st211{clip-path:url(#SVGID_356_);}
	.st212{clip-path:url(#SVGID_358_);}
	.st213{clip-path:url(#SVGID_360_);}
	.st214{clip-path:url(#SVGID_362_);}
	.st215{clip-path:url(#SVGID_364_);}
	.st216{clip-path:url(#SVGID_366_);}
	.st217{clip-path:url(#SVGID_368_);}
	.st218{clip-path:url(#SVGID_370_);}
	.st219{clip-path:url(#SVGID_372_);}
	.st220{clip-path:url(#SVGID_374_);}
	.st221{clip-path:url(#SVGID_376_);}
	.st222{clip-path:url(#SVGID_378_);fill:#414042;}
	.st223{clip-path:url(#SVGID_380_);}
	.st224{clip-path:url(#SVGID_382_);}
	.st225{clip-path:url(#SVGID_384_);}
	.st226{clip-path:url(#SVGID_386_);}
	.st227{clip-path:url(#SVGID_388_);}
	.st228{clip-path:url(#SVGID_390_);}
	.st229{fill:#F79F63;}
	.st230{fill:#F9C269;}
	.st231{fill:#7F7F7F;}
</style>
<g>
	<defs>
		<path id="SVGID_193_" d="M4.688,41.869v-0.582H5.27c0.218,0,0.394-0.177,0.394-0.394c0-0.218-0.177-0.394-0.394-0.394H4.688
			v-0.582c0-0.218-0.177-0.394-0.394-0.394c-0.218,0-0.394,0.177-0.394,0.394v0.582H3.317c-0.218,0-0.394,0.177-0.394,0.394
			c0,0.218,0.177,0.394,0.394,0.394h0.582v0.582c0,0.218,0.177,0.394,0.394,0.394C4.512,42.263,4.688,42.086,4.688,41.869"/>
	</defs>
	<clipPath id="SVGID_2_">
		<use xlink:href="#SVGID_193_"  style="overflow:visible;"/>
	</clipPath>
	<g class="st6">
		<defs>
			<rect id="SVGID_195_" x="2.923" y="9.06" width="44.778" height="35.335"/>
		</defs>
		<clipPath id="SVGID_4_">
			<use xlink:href="#SVGID_195_"  style="overflow:visible;"/>
		</clipPath>
		<g class="st7">
			<rect x="1.4" y="37.998" class="st1" width="5.788" height="5.788"/>
		</g>
	</g>
</g>
<g>
	<defs>
		<path id="SVGID_197_" d="M2.856,12.002h1.353c0.215,0,0.39-0.205,0.39-0.457c0-0.252-0.174-0.457-0.39-0.457H2.856
			c-0.215,0-0.39,0.205-0.39,0.457C2.466,11.798,2.641,12.002,2.856,12.002"/>
	</defs>
	<clipPath id="SVGID_6_">
		<use xlink:href="#SVGID_197_"  style="overflow:visible;"/>
	</clipPath>
	<g class="st8">
		<defs>
			<rect id="SVGID_199_" x="2.161" y="-0.487" width="44.778" height="35.335"/>
		</defs>
		<clipPath id="SVGID_8_">
			<use xlink:href="#SVGID_199_"  style="overflow:visible;"/>
		</clipPath>
		<g class="st9">
			<rect x="0.943" y="9.565" class="st1" width="5.178" height="3.96"/>
		</g>
	</g>
</g>
<g>
	<defs>
		<path id="SVGID_201_" d="M6.319,10.784c0.227,0,0.411-0.205,0.411-0.457c0-0.252-0.184-0.457-0.411-0.457H4.705
			c-0.227,0-0.411,0.205-0.411,0.457c0,0.252,0.184,0.457,0.411,0.457H6.319z"/>
	</defs>
	<clipPath id="SVGID_10_">
		<use xlink:href="#SVGID_201_"  style="overflow:visible;"/>
	</clipPath>
	<g class="st10">
		<defs>
			<rect id="SVGID_203_" x="2.161" y="-0.487" width="44.778" height="35.335"/>
		</defs>
		<clipPath id="SVGID_12_">
			<use xlink:href="#SVGID_203_"  style="overflow:visible;"/>
		</clipPath>
		<g class="st11">
			<rect x="2.771" y="8.347" class="st1" width="5.483" height="3.96"/>
		</g>
	</g>
</g>
<g>
	<defs>
		<path id="SVGID_205_" d="M25.698,8.547h0.751v0.751c0,0.213,0.173,0.386,0.386,0.386c0.213,0,0.386-0.173,0.386-0.386V8.547h0.751
			c0.213,0,0.386-0.173,0.386-0.386c0-0.213-0.173-0.386-0.386-0.386h-0.751V7.024c0-0.213-0.173-0.386-0.386-0.386
			c-0.213,0-0.386,0.173-0.386,0.386v0.751h-0.751c-0.213,0-0.386,0.173-0.386,0.386C25.312,8.375,25.485,8.547,25.698,8.547"/>
	</defs>
	<clipPath id="SVGID_14_">
		<use xlink:href="#SVGID_205_"  style="overflow:visible;"/>
	</clipPath>
	<g class="st12">
		<defs>
			<rect id="SVGID_207_" x="2.161" y="6.638" width="44.778" height="35.335"/>
		</defs>
		<clipPath id="SVGID_16_">
			<use xlink:href="#SVGID_207_"  style="overflow:visible;"/>
		</clipPath>
		<rect x="23.789" y="5.115" style="clip-path:url(#SVGID_16_);fill:#414042;" width="6.092" height="6.092"/>
	</g>
</g>
<g>
	<defs>
		<path id="SVGID_209_" d="M44.886,18.643h0.451v0.451c0,0.212,0.172,0.384,0.384,0.384c0.212,0,0.384-0.172,0.384-0.384v-0.451
			h0.451c0.212,0,0.384-0.172,0.384-0.383c0-0.212-0.172-0.383-0.384-0.383h-0.451v-0.451c0-0.212-0.172-0.383-0.384-0.383
			c-0.212,0-0.384,0.172-0.384,0.383v0.451h-0.451c-0.212,0-0.384,0.172-0.384,0.383C44.503,18.471,44.675,18.643,44.886,18.643"/>
	</defs>
	<clipPath id="SVGID_18_">
		<use xlink:href="#SVGID_209_"  style="overflow:visible;"/>
	</clipPath>
	<g class="st14">
		<defs>
			<rect id="SVGID_211_" x="2.161" y="3.638" width="44.778" height="35.335"/>
		</defs>
		<clipPath id="SVGID_20_">
			<use xlink:href="#SVGID_211_"  style="overflow:visible;"/>
		</clipPath>
		<g class="st15">
			<rect x="42.98" y="15.518" class="st1" width="5.483" height="5.483"/>
		</g>
	</g>
</g>
<g>
	<defs>
		<path id="SVGID_213_" d="M48.221,42.133c0-0.252-0.183-0.457-0.408-0.457h-2.84c-0.225,0-0.408,0.205-0.408,0.457
			s0.183,0.457,0.408,0.457h2.84C48.039,42.59,48.221,42.386,48.221,42.133"/>
	</defs>
	<clipPath id="SVGID_22_">
		<use xlink:href="#SVGID_213_"  style="overflow:visible;"/>
	</clipPath>
	<g class="st16">
		<defs>
			<rect id="SVGID_215_" x="3.443" y="10.911" width="44.778" height="35.335"/>
		</defs>
		<clipPath id="SVGID_24_">
			<use xlink:href="#SVGID_215_"  style="overflow:visible;"/>
		</clipPath>
		<g class="st17">
			<rect x="43.043" y="40.153" class="st1" width="6.702" height="3.96"/>
		</g>
	</g>
</g>
<g>
	<defs>
		<path id="SVGID_217_" d="M34.532,10.598h1.665c0.213,0,0.386-0.205,0.386-0.457c0-0.252-0.173-0.457-0.386-0.457h-1.665
			c-0.213,0-0.386,0.205-0.386,0.457C34.146,10.394,34.319,10.598,34.532,10.598"/>
	</defs>
	<clipPath id="SVGID_26_">
		<use xlink:href="#SVGID_217_"  style="overflow:visible;"/>
	</clipPath>
	<g class="st18">
		<defs>
			<rect id="SVGID_219_" x="2.161" y="6.638" width="44.778" height="35.335"/>
		</defs>
		<clipPath id="SVGID_28_">
			<use xlink:href="#SVGID_219_"  style="overflow:visible;"/>
		</clipPath>
		<g class="st19">
			<rect x="32.623" y="8.161" class="st1" width="5.483" height="3.96"/>
		</g>
	</g>
</g>
<g>
	<g>
		<g>
			<path class="st229" d="M12.343,31.021l2.168,2.468C14.511,32.223,13.566,31.178,12.343,31.021z"/>
		</g>
		<g>
			<path class="st229" d="M18.497,33.143l0-3.811c-0.684-0.597-1.58-0.959-2.56-0.959c-1.686,0-3.122,1.071-3.664,2.57l0.069,0.078
				c1.223,0.157,2.168,1.202,2.168,2.468l-2.168-2.468c-0.105-0.013-0.212-0.02-0.32-0.02c-1.374,0-2.488,1.114-2.488,2.488
				s1.114,2.488,2.488,2.488h3.032h2.181h3.217c1.196,0,2.174-0.937,2.24-2.117l0.002-0.084h-3.563
				C18.731,33.579,18.542,33.366,18.497,33.143z"/>
		</g>
	</g>
	<g>
		<path class="st230" d="M27.09,14.353c-0.366,0-0.662,0.296-0.662,0.662v0.77l4.796,0.134c0.426-0.059,0.566,0.138,0.424,0.588
			l0,6.229h5.868c0.366,0,0.662-0.296,0.662-0.662v-7.721h-5.881H27.09z"/>
	</g>
	<g>
		<path class="st230" d="M37.293,12.435h-1.179c-0.486,0-0.879,0.394-0.879,0.879v0h-1.899c-0.574,0-1.039,0.46-1.039,1.039h0.01
			h2.938h2.918v-1.049l0.005,0.005C38.168,12.823,37.779,12.435,37.293,12.435z"/>
	</g>
	<g>
		<path class="st142" d="M31.06,33.901H19.176c-0.418,0-0.758-0.34-0.758-0.758V16.508c0-0.418,0.34-0.758,0.758-0.758H31.06
			c0.418,0,0.758,0.34,0.758,0.758v16.635C31.818,33.561,31.478,33.901,31.06,33.901z M19.176,16.089
			c-0.231,0-0.418,0.188-0.418,0.418v16.635c0,0.231,0.188,0.418,0.418,0.418H31.06c0.231,0,0.418-0.188,0.418-0.418V16.508
			c0-0.231-0.188-0.418-0.418-0.418H19.176z"/>
	</g>
	<g>
		<path class="st142" d="M26.428,15.955c-0.094,0-0.17-0.076-0.17-0.17v-0.77c0-0.459,0.373-0.832,0.832-0.832h5.207
			c0.094,0,0.17,0.076,0.17,0.17c0,0.094-0.076,0.17-0.17,0.17H27.09c-0.271,0-0.492,0.221-0.492,0.492v0.77
			C26.598,15.879,26.522,15.955,26.428,15.955z"/>
	</g>
	<g>
		<path class="st142" d="M37.517,22.907h-5.868c-0.094,0-0.17-0.076-0.17-0.17c0-0.094,0.076-0.17,0.17-0.17h5.868
			c0.271,0,0.492-0.221,0.492-0.492v-7.721c0-0.094,0.076-0.17,0.17-0.17c0.094,0,0.17,0.076,0.17,0.17v7.721
			C38.349,22.533,37.975,22.907,37.517,22.907z"/>
	</g>
	<g>
		<path class="st142" d="M38.173,14.513h-2.928c-0.094,0-0.17-0.076-0.17-0.17s0.076-0.17,0.17-0.17h2.758v-0.869
			c0-0.391-0.318-0.709-0.709-0.709h-1.179c-0.391,0-0.709,0.318-0.709,0.709c0,0.094-0.076,0.17-0.17,0.17h-1.899
			c-0.462,0-0.84,0.362-0.868,0.816c0.005,0.017,0.008,0.034,0.008,0.053c0,0.094-0.076,0.17-0.17,0.17h-0.01
			c-0.094,0-0.17-0.076-0.17-0.17c0-0.325,0.126-0.63,0.354-0.857c0.228-0.227,0.531-0.352,0.855-0.352h1.742
			c0.081-0.498,0.515-0.879,1.035-0.879h1.179c0.579,0,1.049,0.471,1.049,1.049v1.039C38.343,14.437,38.267,14.513,38.173,14.513z"
			/>
	</g>
	<g>
		<g>
			<path class="st142" d="M21.22,19.869c-0.043,0-0.087-0.017-0.12-0.05l-0.539-0.539c-0.066-0.066-0.066-0.174,0-0.24
				c0.066-0.066,0.174-0.066,0.24,0l0.419,0.419l0.957-0.957c0.066-0.066,0.174-0.066,0.24,0c0.066,0.066,0.066,0.174,0,0.24
				l-1.078,1.078C21.307,19.852,21.264,19.869,21.22,19.869z"/>
		</g>
		<g>
			<g>
				<path class="st142" d="M29.549,19.849h-5.975c-0.094,0-0.17-0.076-0.17-0.17s0.076-0.17,0.17-0.17h5.975
					c0.094,0,0.17,0.076,0.17,0.17S29.643,19.849,29.549,19.849z"/>
			</g>
			<g>
				<path class="st142" d="M26.552,18.83h-2.978c-0.094,0-0.17-0.076-0.17-0.17s0.076-0.17,0.17-0.17h2.978
					c0.094,0,0.17,0.076,0.17,0.17S26.646,18.83,26.552,18.83z"/>
			</g>
		</g>
	</g>
	<g>
		<g>
			<path class="st142" d="M21.22,23.645c-0.043,0-0.087-0.017-0.12-0.05l-0.539-0.539c-0.066-0.066-0.066-0.174,0-0.24
				c0.066-0.066,0.174-0.066,0.24,0l0.419,0.419l0.957-0.957c0.066-0.066,0.174-0.066,0.24,0c0.066,0.066,0.066,0.174,0,0.24
				l-1.078,1.078C21.307,23.629,21.264,23.645,21.22,23.645z"/>
		</g>
		<g>
			<g>
				<path class="st142" d="M29.549,23.626h-5.975c-0.094,0-0.17-0.076-0.17-0.17c0-0.094,0.076-0.17,0.17-0.17h5.975
					c0.094,0,0.17,0.076,0.17,0.17C29.719,23.55,29.643,23.626,29.549,23.626z"/>
			</g>
			<g>
				<path class="st142" d="M26.552,22.607h-2.978c-0.094,0-0.17-0.076-0.17-0.17c0-0.094,0.076-0.17,0.17-0.17h2.978
					c0.094,0,0.17,0.076,0.17,0.17C26.722,22.531,26.646,22.607,26.552,22.607z"/>
			</g>
		</g>
	</g>
	<g>
		<g>
			<path class="st142" d="M21.22,27.422c-0.043,0-0.087-0.017-0.12-0.05l-0.539-0.539c-0.066-0.066-0.066-0.174,0-0.24
				c0.066-0.066,0.174-0.066,0.24,0l0.419,0.419l0.957-0.957c0.066-0.066,0.174-0.066,0.24,0c0.066,0.066,0.066,0.174,0,0.24
				l-1.078,1.078C21.307,27.406,21.264,27.422,21.22,27.422z"/>
		</g>
		<g>
			<g>
				<path class="st142" d="M29.549,27.383h-5.975c-0.094,0-0.17-0.076-0.17-0.17c0-0.094,0.076-0.17,0.17-0.17h5.975
					c0.094,0,0.17,0.076,0.17,0.17C29.719,27.307,29.643,27.383,29.549,27.383z"/>
			</g>
			<g>
				<path class="st142" d="M26.552,26.364h-2.978c-0.094,0-0.17-0.076-0.17-0.17c0-0.094,0.076-0.17,0.17-0.17h2.978
					c0.094,0,0.17,0.076,0.17,0.17C26.722,26.288,26.646,26.364,26.552,26.364z"/>
			</g>
		</g>
	</g>
	<g>
		<g>
			<path class="st142" d="M21.22,31.199c-0.043,0-0.087-0.017-0.12-0.05l-0.539-0.539c-0.066-0.066-0.066-0.174,0-0.24
				c0.066-0.066,0.174-0.066,0.24,0l0.419,0.419l0.957-0.957c0.066-0.066,0.174-0.066,0.24,0c0.066,0.066,0.066,0.174,0,0.24
				l-1.078,1.078C21.307,31.182,21.264,31.199,21.22,31.199z"/>
		</g>
		<g>
			<g>
				<path class="st142" d="M29.549,31.16h-5.975c-0.094,0-0.17-0.076-0.17-0.17s0.076-0.17,0.17-0.17h5.975
					c0.094,0,0.17,0.076,0.17,0.17S29.643,31.16,29.549,31.16z"/>
			</g>
			<g>
				<path class="st142" d="M26.552,30.141h-2.978c-0.094,0-0.17-0.076-0.17-0.17s0.076-0.17,0.17-0.17h2.978
					c0.094,0,0.17,0.076,0.17,0.17S26.646,30.141,26.552,30.141z"/>
			</g>
		</g>
	</g>
	<g>
		<g>
			<path class="st142" d="M35.405,29.482h-0.32c-0.094,0-0.17-0.076-0.17-0.17c0-0.094,0.076-0.17,0.17-0.17h0.32
				c0.094,0,0.17,0.076,0.17,0.17C35.575,29.405,35.499,29.482,35.405,29.482z"/>
		</g>
		<g>
			<path class="st142" d="M33.926,29.482h-0.3c-0.094,0-0.17-0.076-0.17-0.17c0-0.094,0.076-0.17,0.17-0.17h0.3
				c0.094,0,0.17,0.076,0.17,0.17C34.096,29.405,34.02,29.482,33.926,29.482z"/>
		</g>
	</g>
	<g>
		<g>
			<path class="st142" d="M39.162,19.329h-0.3c-0.094,0-0.17-0.076-0.17-0.17s0.076-0.17,0.17-0.17h0.3
				c0.094,0,0.17,0.076,0.17,0.17S39.256,19.329,39.162,19.329z"/>
		</g>
		<g>
			<path class="st142" d="M40.091,19.639c-0.094,0-0.17-0.076-0.17-0.17v-0.14h-0.14c-0.094,0-0.17-0.076-0.17-0.17
				s0.076-0.17,0.17-0.17h0.31c0.094,0,0.17,0.076,0.17,0.17v0.31C40.261,19.563,40.185,19.639,40.091,19.639z"/>
		</g>
		<g>
			<path class="st142" d="M40.091,28.033c-0.094,0-0.17-0.076-0.17-0.17v-0.64c0-0.094,0.076-0.17,0.17-0.17
				c0.094,0,0.17,0.076,0.17,0.17v0.64C40.261,27.957,40.185,28.033,40.091,28.033z M40.091,26.354c-0.094,0-0.17-0.076-0.17-0.17
				v-0.64c0-0.094,0.076-0.17,0.17-0.17c0.094,0,0.17,0.076,0.17,0.17v0.64C40.261,26.278,40.185,26.354,40.091,26.354z
				 M40.091,24.675c-0.094,0-0.17-0.076-0.17-0.17v-0.64c0-0.094,0.076-0.17,0.17-0.17c0.094,0,0.17,0.076,0.17,0.17v0.64
				C40.261,24.599,40.185,24.675,40.091,24.675z M40.091,22.997c-0.094,0-0.17-0.076-0.17-0.17v-0.64c0-0.094,0.076-0.17,0.17-0.17
				c0.094,0,0.17,0.076,0.17,0.17v0.64C40.261,22.92,40.185,22.997,40.091,22.997z M40.091,21.318c-0.094,0-0.17-0.076-0.17-0.17
				v-0.64c0-0.094,0.076-0.17,0.17-0.17c0.094,0,0.17,0.076,0.17,0.17v0.64C40.261,21.242,40.185,21.318,40.091,21.318z"/>
		</g>
		<g>
			<path class="st142" d="M40.091,29.482h-0.31c-0.094,0-0.17-0.076-0.17-0.17c0-0.094,0.076-0.17,0.17-0.17h0.14v-0.14
				c0-0.094,0.076-0.17,0.17-0.17c0.094,0,0.17,0.076,0.17,0.17v0.31C40.261,29.405,40.185,29.482,40.091,29.482z"/>
		</g>
		<g>
			<path class="st142" d="M38.742,29.482h-0.3c-0.094,0-0.17-0.076-0.17-0.17c0-0.094,0.076-0.17,0.17-0.17h0.3
				c0.094,0,0.17,0.076,0.17,0.17C38.912,29.405,38.836,29.482,38.742,29.482z"/>
		</g>
	</g>
	<g>
		<path class="st142" d="M36.92,30.91c-0.876,0-1.589-0.713-1.589-1.589c0-0.876,0.713-1.589,1.589-1.589s1.589,0.713,1.589,1.589
			C38.508,30.198,37.796,30.91,36.92,30.91z M36.92,28.073c-0.689,0-1.249,0.56-1.249,1.249c0,0.689,0.56,1.249,1.249,1.249
			c0.689,0,1.249-0.56,1.249-1.249C38.169,28.633,37.608,28.073,36.92,28.073z"/>
	</g>
	<g>
		<g>
			<path class="st142" d="M36.914,29.971c-0.094,0-0.17-0.076-0.17-0.17v-0.959c0-0.094,0.076-0.17,0.17-0.17
				c0.094,0,0.17,0.076,0.17,0.17v0.959C37.084,29.895,37.008,29.971,36.914,29.971z"/>
		</g>
		<g>
			<path class="st142" d="M37.403,29.502h-0.959c-0.094,0-0.17-0.076-0.17-0.17c0-0.094,0.076-0.17,0.17-0.17h0.959
				c0.094,0,0.17,0.076,0.17,0.17C37.573,29.425,37.497,29.502,37.403,29.502z"/>
		</g>
	</g>
	<g>
		<g>
			<g>
				<path class="st142" d="M20.589,36.147h-3.354c-0.094,0-0.17-0.076-0.17-0.17c0-0.094,0.076-0.17,0.17-0.17h3.217
					c1.1,0,2.009-0.859,2.07-1.956c0.005-0.094,0.085-0.165,0.179-0.16c0.094,0.005,0.165,0.085,0.16,0.179
					C22.79,35.147,21.869,36.147,20.589,36.147z"/>
			</g>
			<g>
				<path class="st142" d="M15.054,36.147h-3.032c-1.466,0-2.658-1.192-2.658-2.658s1.559-2.658,2.658-2.658
					c1.466,0,2.658,1.192,2.658,2.658c0,0.094-0.076,0.17-0.17,0.17c-0.094,0-0.17-0.076-0.17-0.17c0-1.278-1.04-2.318-2.318-2.318
					c-1.278,0-2.318,1.04-2.318,2.318c0,1.278,1.04,2.318,2.318,2.318h3.032c0.094,0,0.17,0.076,0.17,0.17
					C15.224,36.071,15.148,36.147,15.054,36.147z"/>
			</g>
			<g>
				<path class="st142" d="M12.274,31.113c-0.019,0-0.039-0.003-0.058-0.01c-0.088-0.032-0.134-0.129-0.102-0.218
					c0.281-0.778,0.788-1.445,1.464-1.928c0.691-0.494,1.874-0.755,2.36-0.755c0.983,0,1.932,0.355,2.671,1.001
					c0.071,0.062,0.078,0.169,0.016,0.24c-0.062,0.071-0.169,0.078-0.24,0.016c-0.678-0.591-1.547-0.917-2.448-0.917
					c-1.564,0-2.972,0.988-3.504,2.458C12.409,31.07,12.343,31.113,12.274,31.113z"/>
			</g>
		</g>
		<g>
			<g>
				<path class="st142" d="M16.11,37.745c-0.094,0-0.17-0.076-0.17-0.17v-2.678c0-0.094,0.076-0.17,0.17-0.17
					c0.094,0,0.17,0.076,0.17,0.17v2.678C16.28,37.669,16.204,37.745,16.11,37.745z"/>
			</g>
			<g>
				<path class="st142" d="M16.614,35.437c-0.043,0-0.087-0.017-0.12-0.05l-0.246-0.384l-0.522,0.384
					c-0.066,0.066-0.174,0.066-0.24,0c-0.066-0.066-0.066-0.174,0-0.24l0.504-0.504c0.032-0.032,0.075-0.05,0.12-0.05
					c0.045,0,0.088,0.018,0.12,0.05l0.504,0.504c0.066,0.066,0.066,0.174,0,0.24C16.701,35.42,16.657,35.437,16.614,35.437z"/>
			</g>
		</g>
	</g>
	<g>
		<path class="st142" d="M13.472,25.934c-0.094,0-0.17-0.076-0.17-0.17v-0.62c0-0.094,0.076-0.17,0.17-0.17s0.17,0.076,0.17,0.17
			v0.62C13.642,25.858,13.566,25.934,13.472,25.934z M13.472,24.316c-0.094,0-0.17-0.076-0.17-0.17v-0.62
			c0-0.094,0.076-0.17,0.17-0.17s0.17,0.076,0.17,0.17v0.62C13.642,24.239,13.566,24.316,13.472,24.316z M13.472,22.697
			c-0.094,0-0.17-0.076-0.17-0.17v-0.62c0-0.094,0.076-0.17,0.17-0.17s0.17,0.076,0.17,0.17v0.62
			C13.642,22.621,13.566,22.697,13.472,22.697z M13.472,21.078c-0.094,0-0.17-0.076-0.17-0.17v-0.62c0-0.094,0.076-0.17,0.17-0.17
			s0.17,0.076,0.17,0.17v0.62C13.642,21.002,13.566,21.078,13.472,21.078z M13.472,19.459c-0.094,0-0.17-0.076-0.17-0.17v-0.62
			c0-0.094,0.076-0.17,0.17-0.17s0.17,0.076,0.17,0.17v0.62C13.642,19.383,13.566,19.459,13.472,19.459z"/>
	</g>
	<g>
		<path class="st142" d="M13.472,17.073c-0.365,0-0.662-0.297-0.662-0.662c0-0.365,0.297-0.662,0.662-0.662
			c0.365,0,0.662,0.297,0.662,0.662C14.134,16.776,13.837,17.073,13.472,17.073z M13.472,16.089c-0.178,0-0.322,0.144-0.322,0.322
			s0.144,0.322,0.322,0.322s0.322-0.144,0.322-0.322S13.649,16.089,13.472,16.089z"/>
	</g>
	<g>
		<path class="st142" d="M17.299,16.572h-0.62c-0.094,0-0.17-0.076-0.17-0.17s0.076-0.17,0.17-0.17h0.62
			c0.094,0,0.17,0.076,0.17,0.17S17.393,16.572,17.299,16.572z M15.68,16.572h-0.62c-0.094,0-0.17-0.076-0.17-0.17
			s0.076-0.17,0.17-0.17h0.62c0.094,0,0.17,0.076,0.17,0.17S15.774,16.572,15.68,16.572z"/>
	</g>
	<g>
		<path class="st142" d="M37.034,20.538c-0.094,0-0.17-0.076-0.17-0.17v-4.576c0-0.094,0.076-0.17,0.17-0.17
			c0.094,0,0.17,0.076,0.17,0.17v4.576C37.203,20.462,37.127,20.538,37.034,20.538z"/>
	</g>
	<g>
		<path class="st142" d="M9.734,20.283c-0.322,0-0.585-0.262-0.585-0.585s0.262-0.585,0.585-0.585c0.322,0,0.585,0.262,0.585,0.585
			S10.056,20.283,9.734,20.283z M9.734,19.454c-0.135,0-0.245,0.11-0.245,0.245c0,0.135,0.11,0.245,0.245,0.245
			s0.245-0.11,0.245-0.245C9.979,19.564,9.869,19.454,9.734,19.454z"/>
	</g>
</g>
</svg>
