<?xml version="1.0" encoding="utf-8"?>
<!-- Generator: Adobe Illustrator 22.0.1, SVG Export Plug-In . SVG Version: 6.00 Build 0)  -->
<svg version="1.1" id="Layer_1" xmlns="http://www.w3.org/2000/svg" xmlns:xlink="http://www.w3.org/1999/xlink" x="0px" y="0px"
	 viewBox="0 0 50 50" style="enable-background:new 0 0 50 50;" xml:space="preserve">
<style type="text/css">
	.st0{fill:#FFFFFF;}
	.st1{fill:#414042;}
	.st2{fill:#9ECFEF;}
	.st3{fill:#FFCE44;}
	.st4{fill:#FFE167;}
	.st5{fill:#F5CC73;}
	.st6{clip-path:url(#SVGID_2_);}
	.st7{clip-path:url(#SVGID_4_);}
	.st8{clip-path:url(#SVGID_6_);}
	.st9{clip-path:url(#SVGID_8_);}
	.st10{clip-path:url(#SVGID_10_);}
	.st11{clip-path:url(#SVGID_12_);}
	.st12{clip-path:url(#SVGID_14_);}
	.st13{clip-path:url(#SVGID_16_);}
	.st14{clip-path:url(#SVGID_18_);}
	.st15{clip-path:url(#SVGID_20_);}
	.st16{clip-path:url(#SVGID_22_);}
	.st17{clip-path:url(#SVGID_24_);}
	.st18{clip-path:url(#SVGID_26_);}
	.st19{clip-path:url(#SVGID_28_);}
	.st20{clip-path:url(#SVGID_30_);}
	.st21{clip-path:url(#SVGID_34_);}
	.st22{clip-path:url(#SVGID_36_);fill:#9ECFEF;}
	.st23{clip-path:url(#SVGID_38_);}
	.st24{clip-path:url(#SVGID_40_);}
	.st25{clip-path:url(#SVGID_42_);}
	.st26{clip-path:url(#SVGID_44_);}
	.st27{clip-path:url(#SVGID_46_);fill:#414042;}
	.st28{clip-path:url(#SVGID_38_);fill-rule:evenodd;clip-rule:evenodd;fill:#414042;}
	.st29{clip-path:url(#SVGID_48_);}
	.st30{clip-path:url(#SVGID_52_);}
	.st31{clip-path:url(#SVGID_56_);}
	.st32{clip-path:url(#SVGID_58_);fill:#F77C4B;}
	.st33{clip-path:url(#SVGID_60_);}
	.st34{clip-path:url(#SVGID_62_);fill:#FFFFFF;}
	.st35{clip-path:url(#SVGID_64_);}
	.st36{clip-path:url(#SVGID_66_);fill:#414042;}
	.st37{clip-path:url(#SVGID_68_);}
	.st38{clip-path:url(#SVGID_70_);fill:#414042;}
	.st39{clip-path:url(#SVGID_72_);}
	.st40{clip-path:url(#SVGID_74_);fill:#414042;}
	.st41{clip-path:url(#SVGID_76_);}
	.st42{clip-path:url(#SVGID_78_);fill:#F77C4B;}
	.st43{clip-path:url(#SVGID_80_);}
	.st44{clip-path:url(#SVGID_82_);fill:#FFFFFF;}
	.st45{clip-path:url(#SVGID_84_);}
	.st46{clip-path:url(#SVGID_86_);fill:#FFFFFF;}
	.st47{clip-path:url(#SVGID_88_);}
	.st48{clip-path:url(#SVGID_90_);fill:#414042;}
	.st49{clip-path:url(#SVGID_92_);}
	.st50{clip-path:url(#SVGID_94_);fill:#414042;}
	.st51{clip-path:url(#SVGID_96_);}
	.st52{clip-path:url(#SVGID_98_);fill:#414042;}
	.st53{clip-path:url(#SVGID_100_);}
	.st54{clip-path:url(#SVGID_102_);fill:#414042;}
	.st55{clip-path:url(#SVGID_104_);}
	.st56{clip-path:url(#SVGID_106_);fill:#414042;}
	.st57{fill:#41464B;}
	.st58{fill:#4CBED8;}
	.st59{fill:#FF7443;}
	.st60{fill:none;stroke:#359CDB;stroke-width:0.393;stroke-linecap:round;stroke-linejoin:round;stroke-miterlimit:10;}
	.st61{fill:#AFAFAF;}
	.st62{fill:#FED65C;}
	.st63{clip-path:url(#SVGID_108_);}
	.st64{fill:#4CBDD8;}
	.st65{fill:#F9D264;}
	.st66{fill:#F9BB7D;}
	.st67{fill:#41464B;stroke:#414042;stroke-width:0.4;stroke-linecap:round;stroke-linejoin:round;stroke-miterlimit:10;}
	.st68{clip-path:url(#SVGID_110_);}
	.st69{clip-path:url(#SVGID_112_);}
	.st70{clip-path:url(#SVGID_114_);}
	.st71{clip-path:url(#SVGID_116_);}
	.st72{clip-path:url(#SVGID_118_);}
	.st73{clip-path:url(#SVGID_120_);}
	.st74{clip-path:url(#SVGID_122_);}
	.st75{clip-path:url(#SVGID_124_);fill:#414042;}
	.st76{clip-path:url(#SVGID_126_);}
	.st77{clip-path:url(#SVGID_128_);}
	.st78{clip-path:url(#SVGID_130_);}
	.st79{clip-path:url(#SVGID_132_);}
	.st80{clip-path:url(#SVGID_134_);}
	.st81{clip-path:url(#SVGID_136_);}
	.st82{clip-path:url(#SVGID_138_);}
	.st83{clip-path:url(#SVGID_140_);}
	.st84{clip-path:url(#SVGID_142_);}
	.st85{clip-path:url(#SVGID_144_);}
	.st86{clip-path:url(#SVGID_146_);}
	.st87{clip-path:url(#SVGID_148_);}
	.st88{clip-path:url(#SVGID_150_);}
	.st89{clip-path:url(#SVGID_152_);fill:#FFFFFF;}
	.st90{clip-path:url(#SVGID_154_);}
	.st91{clip-path:url(#SVGID_156_);}
	.st92{clip-path:url(#SVGID_158_);}
	.st93{clip-path:url(#SVGID_160_);}
	.st94{clip-path:url(#SVGID_162_);}
	.st95{clip-path:url(#SVGID_164_);}
	.st96{clip-path:url(#SVGID_166_);}
	.st97{clip-path:url(#SVGID_168_);}
	.st98{clip-path:url(#SVGID_170_);}
	.st99{clip-path:url(#SVGID_172_);}
	.st100{clip-path:url(#SVGID_174_);}
	.st101{clip-path:url(#SVGID_176_);}
	.st102{clip-path:url(#SVGID_178_);}
	.st103{clip-path:url(#SVGID_180_);fill:#414042;}
	.st104{clip-path:url(#SVGID_182_);}
	.st105{clip-path:url(#SVGID_184_);}
	.st106{clip-path:url(#SVGID_186_);}
	.st107{clip-path:url(#SVGID_188_);}
	.st108{clip-path:url(#SVGID_190_);}
	.st109{clip-path:url(#SVGID_192_);}
	.st110{fill:#41464B;stroke:#41464B;stroke-width:0.2;stroke-miterlimit:10;}
	.st111{clip-path:url(#SVGID_194_);}
	.st112{clip-path:url(#SVGID_196_);}
	.st113{clip-path:url(#SVGID_198_);}
	.st114{clip-path:url(#SVGID_200_);}
	.st115{clip-path:url(#SVGID_202_);}
	.st116{clip-path:url(#SVGID_204_);}
	.st117{clip-path:url(#SVGID_206_);}
	.st118{clip-path:url(#SVGID_208_);fill:#414042;}
	.st119{clip-path:url(#SVGID_210_);}
	.st120{clip-path:url(#SVGID_212_);}
	.st121{clip-path:url(#SVGID_214_);}
	.st122{clip-path:url(#SVGID_216_);}
	.st123{clip-path:url(#SVGID_218_);}
	.st124{clip-path:url(#SVGID_220_);}
	.st125{clip-path:url(#SVGID_222_);}
	.st126{clip-path:url(#SVGID_224_);}
	.st127{clip-path:url(#SVGID_226_);}
	.st128{clip-path:url(#SVGID_228_);}
	.st129{clip-path:url(#SVGID_230_);}
	.st130{clip-path:url(#SVGID_232_);}
	.st131{clip-path:url(#SVGID_234_);}
	.st132{clip-path:url(#SVGID_236_);fill:#414042;}
	.st133{clip-path:url(#SVGID_238_);}
	.st134{clip-path:url(#SVGID_240_);}
	.st135{clip-path:url(#SVGID_242_);}
	.st136{clip-path:url(#SVGID_244_);}
	.st137{clip-path:url(#SVGID_246_);}
	.st138{clip-path:url(#SVGID_248_);}
	.st139{fill:#FFD15D;}
	.st140{fill:#475059;}
	.st141{fill:#41464B;stroke:#41464B;stroke-width:0.223;stroke-linecap:round;stroke-linejoin:round;stroke-miterlimit:10;}
	.st142{fill:#41464B;stroke:#41464B;stroke-width:0.223;stroke-miterlimit:10;}
	.st143{fill:#41464B;stroke:#41464B;stroke-width:0.212;stroke-miterlimit:10;}
	.st144{fill:#5FE0ED;}
	.st145{fill:#48515A;}
	.st146{fill:#41464B;stroke:#41464B;stroke-width:0.2104;stroke-miterlimit:10;}
	.st147{fill:#41464B;stroke:#41464B;stroke-width:0.21;stroke-linecap:round;stroke-linejoin:round;stroke-miterlimit:10;}
	.st148{fill:#41464B;stroke:#41464B;stroke-width:0.2086;stroke-linecap:round;stroke-linejoin:round;stroke-miterlimit:10;}
	.st149{fill:#FDBE11;}
	.st150{fill:#41464B;stroke:#41464B;stroke-width:0.2513;stroke-miterlimit:10;}
	.st151{clip-path:url(#SVGID_250_);}
	.st152{clip-path:url(#SVGID_252_);}
	.st153{clip-path:url(#SVGID_254_);}
	.st154{clip-path:url(#SVGID_256_);}
	.st155{clip-path:url(#SVGID_258_);}
	.st156{clip-path:url(#SVGID_260_);}
	.st157{clip-path:url(#SVGID_262_);}
	.st158{clip-path:url(#SVGID_264_);fill:#414042;}
	.st159{clip-path:url(#SVGID_266_);}
	.st160{clip-path:url(#SVGID_268_);}
	.st161{clip-path:url(#SVGID_270_);}
	.st162{clip-path:url(#SVGID_272_);}
	.st163{clip-path:url(#SVGID_274_);}
	.st164{clip-path:url(#SVGID_276_);}
	.st165{clip-path:url(#SVGID_278_);}
	.st166{clip-path:url(#SVGID_280_);}
	.st167{clip-path:url(#SVGID_282_);}
	.st168{clip-path:url(#SVGID_284_);}
	.st169{clip-path:url(#SVGID_286_);}
	.st170{clip-path:url(#SVGID_288_);}
	.st171{clip-path:url(#SVGID_290_);}
	.st172{clip-path:url(#SVGID_292_);fill:#414042;}
	.st173{clip-path:url(#SVGID_294_);}
	.st174{clip-path:url(#SVGID_296_);}
	.st175{clip-path:url(#SVGID_298_);}
	.st176{clip-path:url(#SVGID_300_);}
	.st177{clip-path:url(#SVGID_302_);}
	.st178{clip-path:url(#SVGID_304_);}
	.st179{fill:#DEDEDD;}
	.st180{fill:#41464B;stroke:#41464B;stroke-width:0.2327;stroke-miterlimit:10;}
	.st181{fill:#41464B;stroke:#41464B;stroke-width:0.2327;stroke-linecap:round;stroke-linejoin:round;stroke-miterlimit:10;}
	.st182{fill:#F58E70;}
	.st183{clip-path:url(#SVGID_306_);}
	.st184{fill:#41464B;stroke:#41464B;stroke-width:0.2316;stroke-miterlimit:10;}
	.st185{fill:#FFB936;}
	.st186{fill:#E6E7E8;}
	.st187{clip-path:url(#SVGID_308_);}
	.st188{clip-path:url(#SVGID_310_);}
	.st189{clip-path:url(#SVGID_312_);}
	.st190{clip-path:url(#SVGID_314_);}
	.st191{clip-path:url(#SVGID_316_);}
	.st192{clip-path:url(#SVGID_318_);}
	.st193{clip-path:url(#SVGID_320_);}
	.st194{clip-path:url(#SVGID_322_);fill:#FFFFFF;}
	.st195{clip-path:url(#SVGID_324_);}
	.st196{clip-path:url(#SVGID_326_);}
	.st197{clip-path:url(#SVGID_328_);}
	.st198{clip-path:url(#SVGID_330_);}
	.st199{clip-path:url(#SVGID_332_);}
	.st200{clip-path:url(#SVGID_334_);}
	.st201{clip-path:url(#SVGID_336_);}
	.st202{clip-path:url(#SVGID_338_);}
	.st203{clip-path:url(#SVGID_340_);}
	.st204{clip-path:url(#SVGID_342_);}
	.st205{clip-path:url(#SVGID_344_);}
	.st206{clip-path:url(#SVGID_346_);}
	.st207{clip-path:url(#SVGID_348_);}
	.st208{clip-path:url(#SVGID_350_);fill:#FFFFFF;}
	.st209{clip-path:url(#SVGID_352_);}
	.st210{clip-path:url(#SVGID_354_);}
	.st211{clip-path:url(#SVGID_356_);}
	.st212{clip-path:url(#SVGID_358_);}
	.st213{clip-path:url(#SVGID_360_);}
	.st214{clip-path:url(#SVGID_362_);}
	.st215{clip-path:url(#SVGID_364_);}
	.st216{clip-path:url(#SVGID_366_);}
	.st217{clip-path:url(#SVGID_368_);}
	.st218{clip-path:url(#SVGID_370_);}
	.st219{clip-path:url(#SVGID_372_);}
	.st220{clip-path:url(#SVGID_374_);}
	.st221{clip-path:url(#SVGID_376_);}
	.st222{clip-path:url(#SVGID_378_);fill:#414042;}
	.st223{clip-path:url(#SVGID_380_);}
	.st224{clip-path:url(#SVGID_382_);}
	.st225{clip-path:url(#SVGID_384_);}
	.st226{clip-path:url(#SVGID_386_);}
	.st227{clip-path:url(#SVGID_388_);}
	.st228{clip-path:url(#SVGID_390_);}
	.st229{fill:#F79F63;}
	.st230{fill:#F9C269;}
	.st231{fill:#7F7F7F;}
</style>
<g>
	<circle class="st0" cx="37.05" cy="34.545" r="5.751"/>
	<path class="st59" d="M37.136,40.488c-3.306,0-5.996-2.69-5.996-5.996c0-3.306,2.69-5.996,5.996-5.996
		c3.306,0,5.996,2.69,5.996,5.996C43.132,37.798,40.442,40.488,37.136,40.488 M37.136,28.975c-3.042,0-5.517,2.475-5.517,5.517
		c0,3.042,2.475,5.517,5.517,5.517c3.042,0,5.517-2.475,5.517-5.517C42.652,31.45,40.178,28.975,37.136,28.975"/>
	<path class="st145" d="M41.94,34.734h-0.959c-0.132,0-0.24-0.107-0.24-0.24c0-0.133,0.107-0.24,0.24-0.24h0.959
		c0.132,0,0.24,0.107,0.24,0.24C42.18,34.627,42.073,34.734,41.94,34.734"/>
	<path class="st145" d="M41.94,34.734h-0.959c-0.132,0-0.24-0.107-0.24-0.24c0-0.133,0.107-0.24,0.24-0.24h0.959
		c0.132,0,0.24,0.107,0.24,0.24C42.18,34.627,42.073,34.734,41.94,34.734"/>
	<path class="st145" d="M39.562,38.926c-0.083,0-0.164-0.043-0.208-0.12l-0.426-0.739c-0.066-0.115-0.027-0.261,0.088-0.328
		c0.114-0.066,0.261-0.027,0.328,0.088l0.426,0.739c0.066,0.115,0.027,0.261-0.088,0.328C39.644,38.915,39.603,38.926,39.562,38.926
		"/>
	<path class="st145" d="M40.527,32.706c-0.083,0-0.164-0.043-0.208-0.12c-0.066-0.115-0.027-0.261,0.088-0.328l0.739-0.426
		c0.115-0.066,0.261-0.027,0.328,0.088c0.066,0.115,0.027,0.261-0.088,0.328l-0.739,0.426
		C40.608,32.696,40.567,32.706,40.527,32.706"/>
	<path class="st145" d="M41.344,37.085c-0.041,0-0.082-0.01-0.12-0.032l-0.739-0.426c-0.115-0.066-0.154-0.213-0.088-0.328
		c0.066-0.115,0.213-0.154,0.328-0.088l0.739,0.427c0.115,0.066,0.154,0.213,0.088,0.328C41.508,37.042,41.427,37.085,41.344,37.085
		"/>
	<path class="st145" d="M39.07,31.217c-0.041,0-0.082-0.01-0.12-0.032c-0.115-0.066-0.154-0.213-0.088-0.328l0.426-0.739
		c0.066-0.115,0.213-0.154,0.328-0.088c0.115,0.066,0.154,0.213,0.088,0.328l-0.426,0.739C39.234,31.174,39.153,31.217,39.07,31.217
		"/>
	<polygon class="st145" points="37.383,37.373 36.903,37.373 36.903,34.015 39.302,34.015 39.302,34.495 37.383,34.495 	"/>
	<path class="st145" d="M37.143,30.657c-0.132,0-0.24-0.107-0.24-0.24v-0.72c0-0.133,0.107-0.24,0.24-0.24
		c0.132,0,0.24,0.107,0.24,0.24v0.72C37.383,30.55,37.276,30.657,37.143,30.657"/>
	<path class="st145" d="M37.143,39.531c-0.132,0-0.24-0.107-0.24-0.24v-0.72c0-0.133,0.107-0.24,0.24-0.24
		c0.132,0,0.24,0.107,0.24,0.24v0.72C37.383,39.424,37.276,39.531,37.143,39.531"/>
	<path class="st145" d="M33.305,34.734h-0.959c-0.132,0-0.24-0.107-0.24-0.24c0-0.133,0.107-0.24,0.24-0.24h0.959
		c0.132,0,0.24,0.107,0.24,0.24C33.545,34.627,33.438,34.734,33.305,34.734"/>
	<path class="st145" d="M37.143,30.657c-0.132,0-0.24-0.107-0.24-0.24v-0.72c0-0.133,0.107-0.24,0.24-0.24
		c0.132,0,0.24,0.107,0.24,0.24v0.72C37.383,30.55,37.276,30.657,37.143,30.657"/>
	<path class="st145" d="M37.143,39.531c-0.132,0-0.24-0.107-0.24-0.24v-0.72c0-0.133,0.107-0.24,0.24-0.24
		c0.132,0,0.24,0.107,0.24,0.24v0.72C37.383,39.424,37.276,39.531,37.143,39.531"/>
	<path class="st145" d="M33.305,34.734h-0.959c-0.132,0-0.24-0.107-0.24-0.24c0-0.133,0.107-0.24,0.24-0.24h0.959
		c0.132,0,0.24,0.107,0.24,0.24C33.545,34.627,33.438,34.734,33.305,34.734"/>
	<path class="st145" d="M34.698,38.926c-0.041,0-0.082-0.01-0.12-0.032c-0.115-0.066-0.154-0.213-0.088-0.328l0.426-0.739
		c0.066-0.115,0.213-0.154,0.328-0.088c0.115,0.066,0.154,0.213,0.088,0.328l-0.426,0.739C34.861,38.883,34.78,38.926,34.698,38.926
		"/>
	<path class="st145" d="M33.733,32.706c-0.041,0-0.082-0.01-0.12-0.032l-0.739-0.426c-0.115-0.066-0.154-0.213-0.088-0.328
		c0.066-0.115,0.213-0.154,0.328-0.088l0.739,0.426c0.115,0.066,0.154,0.213,0.088,0.328C33.897,32.663,33.816,32.706,33.733,32.706
		"/>
	<path class="st145" d="M32.915,37.085c-0.083,0-0.164-0.043-0.208-0.12c-0.066-0.115-0.027-0.261,0.088-0.328l0.739-0.427
		c0.114-0.066,0.261-0.027,0.328,0.088c0.066,0.115,0.027,0.261-0.088,0.328l-0.739,0.426
		C32.997,37.074,32.956,37.085,32.915,37.085"/>
	<path class="st145" d="M35.19,31.217c-0.083,0-0.164-0.043-0.208-0.12l-0.426-0.739c-0.066-0.115-0.027-0.261,0.088-0.328
		c0.114-0.067,0.261-0.027,0.328,0.088l0.426,0.739c0.066,0.115,0.027,0.261-0.088,0.328C35.272,31.206,35.23,31.217,35.19,31.217"
		/>
</g>
<rect x="13.416" y="18.07" class="st0" width="22.248" height="15.26"/>
<g>
	<defs>
		<path id="SVGID_363_" d="M4.688,41.869v-0.582H5.27c0.218,0,0.394-0.177,0.394-0.394c0-0.218-0.177-0.394-0.394-0.394H4.688
			v-0.582c0-0.218-0.177-0.394-0.394-0.394c-0.218,0-0.394,0.177-0.394,0.394v0.582H3.317c-0.218,0-0.394,0.177-0.394,0.394
			c0,0.218,0.177,0.394,0.394,0.394h0.582v0.582c0,0.218,0.177,0.394,0.394,0.394C4.512,42.263,4.688,42.086,4.688,41.869"/>
	</defs>
	<clipPath id="SVGID_2_">
		<use xlink:href="#SVGID_363_"  style="overflow:visible;"/>
	</clipPath>
	<g class="st6">
		<defs>
			<rect id="SVGID_365_" x="2.923" y="9.06" width="44.778" height="35.335"/>
		</defs>
		<clipPath id="SVGID_4_">
			<use xlink:href="#SVGID_365_"  style="overflow:visible;"/>
		</clipPath>
		<g class="st7">
			<rect x="1.4" y="37.998" class="st1" width="5.788" height="5.788"/>
		</g>
	</g>
</g>
<g>
	<defs>
		<path id="SVGID_367_" d="M2.856,12.002h1.353c0.215,0,0.39-0.205,0.39-0.457c0-0.252-0.174-0.457-0.39-0.457H2.856
			c-0.215,0-0.39,0.205-0.39,0.457C2.466,11.798,2.641,12.002,2.856,12.002"/>
	</defs>
	<clipPath id="SVGID_6_">
		<use xlink:href="#SVGID_367_"  style="overflow:visible;"/>
	</clipPath>
	<g class="st8">
		<defs>
			<rect id="SVGID_369_" x="2.161" y="-0.487" width="44.778" height="35.335"/>
		</defs>
		<clipPath id="SVGID_8_">
			<use xlink:href="#SVGID_369_"  style="overflow:visible;"/>
		</clipPath>
		<g class="st9">
			<rect x="0.943" y="9.565" class="st1" width="5.178" height="3.96"/>
		</g>
	</g>
</g>
<g>
	<defs>
		<path id="SVGID_371_" d="M6.319,10.784c0.227,0,0.411-0.205,0.411-0.457c0-0.252-0.184-0.457-0.411-0.457H4.705
			c-0.227,0-0.411,0.205-0.411,0.457c0,0.252,0.184,0.457,0.411,0.457H6.319z"/>
	</defs>
	<clipPath id="SVGID_10_">
		<use xlink:href="#SVGID_371_"  style="overflow:visible;"/>
	</clipPath>
	<g class="st10">
		<defs>
			<rect id="SVGID_373_" x="2.161" y="-0.487" width="44.778" height="35.335"/>
		</defs>
		<clipPath id="SVGID_12_">
			<use xlink:href="#SVGID_373_"  style="overflow:visible;"/>
		</clipPath>
		<g class="st11">
			<rect x="2.771" y="8.347" class="st1" width="5.483" height="3.96"/>
		</g>
	</g>
</g>
<g>
	<defs>
		<path id="SVGID_375_" d="M25.698,8.547h0.751v0.751c0,0.213,0.173,0.386,0.386,0.386c0.213,0,0.386-0.173,0.386-0.386V8.547h0.751
			c0.213,0,0.386-0.173,0.386-0.386c0-0.213-0.173-0.386-0.386-0.386h-0.751V7.024c0-0.213-0.173-0.386-0.386-0.386
			c-0.213,0-0.386,0.173-0.386,0.386v0.751h-0.751c-0.213,0-0.386,0.173-0.386,0.386C25.312,8.375,25.485,8.547,25.698,8.547"/>
	</defs>
	<clipPath id="SVGID_14_">
		<use xlink:href="#SVGID_375_"  style="overflow:visible;"/>
	</clipPath>
	<g class="st12">
		<defs>
			<rect id="SVGID_377_" x="2.161" y="6.638" width="44.778" height="35.335"/>
		</defs>
		<clipPath id="SVGID_16_">
			<use xlink:href="#SVGID_377_"  style="overflow:visible;"/>
		</clipPath>
		<rect x="23.789" y="5.115" style="clip-path:url(#SVGID_16_);fill:#414042;" width="6.092" height="6.092"/>
	</g>
</g>
<g>
	<defs>
		<path id="SVGID_379_" d="M44.886,18.643h0.451v0.451c0,0.212,0.172,0.384,0.384,0.384c0.212,0,0.384-0.172,0.384-0.384v-0.451
			h0.451c0.212,0,0.384-0.172,0.384-0.383c0-0.212-0.172-0.383-0.384-0.383h-0.451v-0.451c0-0.212-0.172-0.383-0.384-0.383
			c-0.212,0-0.384,0.172-0.384,0.383v0.451h-0.451c-0.212,0-0.384,0.172-0.384,0.383C44.503,18.471,44.675,18.643,44.886,18.643"/>
	</defs>
	<clipPath id="SVGID_18_">
		<use xlink:href="#SVGID_379_"  style="overflow:visible;"/>
	</clipPath>
	<g class="st14">
		<defs>
			<rect id="SVGID_381_" x="2.161" y="3.638" width="44.778" height="35.335"/>
		</defs>
		<clipPath id="SVGID_20_">
			<use xlink:href="#SVGID_381_"  style="overflow:visible;"/>
		</clipPath>
		<g class="st15">
			<rect x="42.98" y="15.518" class="st1" width="5.483" height="5.483"/>
		</g>
	</g>
</g>
<g>
	<defs>
		<path id="SVGID_383_" d="M48.221,42.133c0-0.252-0.183-0.457-0.408-0.457h-2.84c-0.225,0-0.408,0.205-0.408,0.457
			s0.183,0.457,0.408,0.457h2.84C48.039,42.59,48.221,42.386,48.221,42.133"/>
	</defs>
	<clipPath id="SVGID_22_">
		<use xlink:href="#SVGID_383_"  style="overflow:visible;"/>
	</clipPath>
	<g class="st16">
		<defs>
			<rect id="SVGID_385_" x="3.443" y="10.911" width="44.778" height="35.335"/>
		</defs>
		<clipPath id="SVGID_24_">
			<use xlink:href="#SVGID_385_"  style="overflow:visible;"/>
		</clipPath>
		<g class="st17">
			<rect x="43.043" y="40.153" class="st1" width="6.702" height="3.96"/>
		</g>
	</g>
</g>
<g>
	<defs>
		<path id="SVGID_387_" d="M34.532,10.598h1.665c0.213,0,0.386-0.205,0.386-0.457c0-0.252-0.173-0.457-0.386-0.457h-1.665
			c-0.213,0-0.386,0.205-0.386,0.457C34.146,10.394,34.319,10.598,34.532,10.598"/>
	</defs>
	<clipPath id="SVGID_26_">
		<use xlink:href="#SVGID_387_"  style="overflow:visible;"/>
	</clipPath>
	<g class="st18">
		<defs>
			<rect id="SVGID_389_" x="2.161" y="6.638" width="44.778" height="35.335"/>
		</defs>
		<clipPath id="SVGID_28_">
			<use xlink:href="#SVGID_389_"  style="overflow:visible;"/>
		</clipPath>
		<g class="st19">
			<rect x="32.623" y="8.161" class="st1" width="5.483" height="3.96"/>
		</g>
	</g>
</g>
<g>
	<g>
		<polygon class="st139" points="10.833,21.795 6.132,32.25 8.579,32.25 12.189,24.215 13.404,26.314 13.283,21.795 		"/>
	</g>
	<g>
		<polygon class="st139" points="32.71,14.109 28.96,17.859 32.361,17.865 34.413,15.813 35.846,17.248 36.842,11.627 
			31.223,12.621 		"/>
	</g>
	<g>
		<g>
			<path class="st142" d="M34.911,33.647H14.205c-0.549,0-0.997-0.447-0.997-0.996V18.772c0-0.549,0.447-0.997,0.997-0.997h2.945
				c0.11,0,0.199,0.089,0.199,0.199c0,0.11-0.089,0.199-0.199,0.199h-2.945c-0.33,0-0.599,0.269-0.599,0.599v13.879
				c0,0.33,0.269,0.599,0.599,0.599h20.706c0.33,0,0.599-0.269,0.599-0.599V18.772c0-0.33-0.269-0.599-0.599-0.599h-2.897
				c-0.11,0-0.199-0.089-0.199-0.199c0-0.11,0.089-0.199,0.199-0.199h2.897c0.549,0,0.997,0.447,0.997,0.997v13.879
				C35.907,33.2,35.46,33.647,34.911,33.647z"/>
		</g>
		<g>
			<path class="st142" d="M30.938,18.173h-3.427c-0.11,0-0.199-0.089-0.199-0.199c0-0.11,0.089-0.199,0.199-0.199h3.427
				c0.11,0,0.199,0.089,0.199,0.199C31.137,18.084,31.047,18.173,30.938,18.173z"/>
		</g>
		<g>
			<path class="st142" d="M26.271,18.173h-3.368c-0.11,0-0.199-0.089-0.199-0.199c0-0.11,0.089-0.199,0.199-0.199h3.368
				c0.11,0,0.199,0.089,0.199,0.199C26.47,18.084,26.381,18.173,26.271,18.173z"/>
		</g>
		<g>
			<path class="st142" d="M21.745,18.173h-3.415c-0.11,0-0.199-0.089-0.199-0.199c0-0.11,0.089-0.199,0.199-0.199h3.415
				c0.11,0,0.199,0.089,0.199,0.199C21.944,18.084,21.855,18.173,21.745,18.173z"/>
		</g>
		<g>
			<path class="st142" d="M17.657,19.198h-0.339c-0.11,0-0.199-0.089-0.199-0.199v-2.269c0-0.11,0.089-0.199,0.199-0.199h0.69
				c0.11,0,0.199,0.089,0.199,0.199c0,0.11-0.089,0.199-0.199,0.199h-0.491v1.871h0.14c0.11,0,0.199,0.089,0.199,0.199
				C17.856,19.109,17.767,19.198,17.657,19.198z"/>
		</g>
		<g>
			<path class="st142" d="M22.241,19.198h-0.339c-0.11,0-0.199-0.089-0.199-0.199v-2.269c0-0.11,0.089-0.199,0.199-0.199h0.69
				c0.11,0,0.199,0.089,0.199,0.199c0,0.11-0.089,0.199-0.199,0.199h-0.491v1.871h0.14c0.11,0,0.199,0.089,0.199,0.199
				C22.44,19.109,22.351,19.198,22.241,19.198z"/>
		</g>
		<g>
			<path class="st142" d="M31.434,19.198h-0.339c-0.11,0-0.199-0.089-0.199-0.199v-2.269c0-0.11,0.089-0.199,0.199-0.199h0.69
				c0.11,0,0.199,0.089,0.199,0.199c0,0.11-0.089,0.199-0.199,0.199h-0.491v1.871h0.14c0.11,0,0.199,0.089,0.199,0.199
				C31.632,19.109,31.543,19.198,31.434,19.198z"/>
		</g>
		<g>
			<path class="st142" d="M26.849,19.198H26.51c-0.11,0-0.199-0.089-0.199-0.199v-2.269c0-0.11,0.089-0.199,0.199-0.199h0.69
				c0.11,0,0.199,0.089,0.199,0.199c0,0.11-0.089,0.199-0.199,0.199h-0.491v1.871h0.14c0.11,0,0.199,0.089,0.199,0.199
				C27.048,19.109,26.959,19.198,26.849,19.198z"/>
		</g>
		<g>
			<path class="st142" d="M34.242,32.238H14.873c-0.11,0-0.199-0.089-0.199-0.199v-11.72c0-0.11,0.089-0.199,0.199-0.199h19.369
				c0.11,0,0.199,0.089,0.199,0.199v11.72C34.441,32.149,34.352,32.238,34.242,32.238z M15.072,31.84h18.971V20.518H15.072V31.84z"
				/>
		</g>
		<g>
			<path class="st142" d="M34.194,22.847h-19.32c-0.11,0-0.199-0.089-0.199-0.199c0-0.11,0.089-0.199,0.199-0.199h19.32
				c0.11,0,0.199,0.089,0.199,0.199C34.392,22.758,34.303,22.847,34.194,22.847z"/>
		</g>
		<g>
			<path class="st142" d="M34.217,25.186h-19.32c-0.11,0-0.199-0.089-0.199-0.199c0-0.11,0.089-0.199,0.199-0.199h19.32
				c0.11,0,0.199,0.089,0.199,0.199C34.416,25.097,34.327,25.186,34.217,25.186z"/>
		</g>
		<g>
			<path class="st142" d="M34.217,27.549h-19.32c-0.11,0-0.199-0.089-0.199-0.199c0-0.11,0.089-0.199,0.199-0.199h19.32
				c0.11,0,0.199,0.089,0.199,0.199C34.416,27.46,34.327,27.549,34.217,27.549z"/>
		</g>
		<g>
			<path class="st142" d="M34.217,29.888h-19.32c-0.11,0-0.199-0.089-0.199-0.199c0-0.11,0.089-0.199,0.199-0.199h19.32
				c0.11,0,0.199,0.089,0.199,0.199C34.416,29.799,34.327,29.888,34.217,29.888z"/>
		</g>
		<g>
			<path class="st142" d="M30.393,32.215c-0.11,0-0.199-0.089-0.199-0.199V20.345c0-0.11,0.089-0.199,0.199-0.199
				c0.11,0,0.199,0.089,0.199,0.199v11.672C30.592,32.126,30.503,32.215,30.393,32.215z"/>
		</g>
		<g>
			<path class="st142" d="M26.51,32.215c-0.11,0-0.199-0.089-0.199-0.199V20.345c0-0.11,0.089-0.199,0.199-0.199
				c0.11,0,0.199,0.089,0.199,0.199v11.672C26.709,32.126,26.62,32.215,26.51,32.215z"/>
		</g>
		<g>
			<path class="st142" d="M22.627,32.215c-0.11,0-0.199-0.089-0.199-0.199V20.345c0-0.11,0.089-0.199,0.199-0.199
				c0.11,0,0.199,0.089,0.199,0.199v11.672C22.826,32.126,22.737,32.215,22.627,32.215z"/>
		</g>
		<g>
			<path class="st142" d="M18.745,32.215c-0.11,0-0.199-0.089-0.199-0.199V20.345c0-0.11,0.089-0.199,0.199-0.199
				c0.11,0,0.199,0.089,0.199,0.199v11.672C18.943,32.126,18.854,32.215,18.745,32.215z"/>
		</g>
	</g>
</g>
</svg>
