<?xml version="1.0" encoding="utf-8"?>
<!-- Generator: Adobe Illustrator 22.0.1, SVG Export Plug-In . SVG Version: 6.00 Build 0)  -->
<svg version="1.1" id="Layer_1" xmlns="http://www.w3.org/2000/svg" xmlns:xlink="http://www.w3.org/1999/xlink" x="0px" y="0px"
	 viewBox="0 0 50 50" style="enable-background:new 0 0 50 50;" xml:space="preserve">
<style type="text/css">
	.st0{fill:#FFFFFF;}
	.st1{fill:#414042;}
	.st2{fill:#9ECFEF;}
	.st3{fill:#FFCE44;}
	.st4{fill:#FFE167;}
	.st5{fill:#F5CC73;}
	.st6{clip-path:url(#SVGID_2_);}
	.st7{clip-path:url(#SVGID_4_);}
	.st8{clip-path:url(#SVGID_6_);}
	.st9{clip-path:url(#SVGID_8_);}
	.st10{clip-path:url(#SVGID_10_);}
	.st11{clip-path:url(#SVGID_12_);}
	.st12{clip-path:url(#SVGID_14_);}
	.st13{clip-path:url(#SVGID_16_);}
	.st14{clip-path:url(#SVGID_18_);}
	.st15{clip-path:url(#SVGID_20_);}
	.st16{clip-path:url(#SVGID_22_);}
	.st17{clip-path:url(#SVGID_24_);}
	.st18{clip-path:url(#SVGID_26_);}
	.st19{clip-path:url(#SVGID_28_);}
	.st20{clip-path:url(#SVGID_30_);}
	.st21{clip-path:url(#SVGID_34_);}
	.st22{clip-path:url(#SVGID_36_);fill:#9ECFEF;}
	.st23{clip-path:url(#SVGID_38_);}
	.st24{clip-path:url(#SVGID_40_);}
	.st25{clip-path:url(#SVGID_42_);}
	.st26{clip-path:url(#SVGID_44_);}
	.st27{clip-path:url(#SVGID_46_);fill:#414042;}
	.st28{clip-path:url(#SVGID_38_);fill-rule:evenodd;clip-rule:evenodd;fill:#414042;}
	.st29{clip-path:url(#SVGID_48_);}
	.st30{clip-path:url(#SVGID_52_);}
	.st31{clip-path:url(#SVGID_56_);}
	.st32{clip-path:url(#SVGID_58_);fill:#F77C4B;}
	.st33{clip-path:url(#SVGID_60_);}
	.st34{clip-path:url(#SVGID_62_);fill:#FFFFFF;}
	.st35{clip-path:url(#SVGID_64_);}
	.st36{clip-path:url(#SVGID_66_);fill:#414042;}
	.st37{clip-path:url(#SVGID_68_);}
	.st38{clip-path:url(#SVGID_70_);fill:#414042;}
	.st39{clip-path:url(#SVGID_72_);}
	.st40{clip-path:url(#SVGID_74_);fill:#414042;}
	.st41{clip-path:url(#SVGID_76_);}
	.st42{clip-path:url(#SVGID_78_);fill:#F77C4B;}
	.st43{clip-path:url(#SVGID_80_);}
	.st44{clip-path:url(#SVGID_82_);fill:#FFFFFF;}
	.st45{clip-path:url(#SVGID_84_);}
	.st46{clip-path:url(#SVGID_86_);fill:#FFFFFF;}
	.st47{clip-path:url(#SVGID_88_);}
	.st48{clip-path:url(#SVGID_90_);fill:#414042;}
	.st49{clip-path:url(#SVGID_92_);}
	.st50{clip-path:url(#SVGID_94_);fill:#414042;}
	.st51{clip-path:url(#SVGID_96_);}
	.st52{clip-path:url(#SVGID_98_);fill:#414042;}
	.st53{clip-path:url(#SVGID_100_);}
	.st54{clip-path:url(#SVGID_102_);fill:#414042;}
	.st55{clip-path:url(#SVGID_104_);}
	.st56{clip-path:url(#SVGID_106_);fill:#414042;}
	.st57{fill:#41464B;}
	.st58{fill:#4CBED8;}
	.st59{fill:#FF7443;}
	.st60{fill:none;stroke:#359CDB;stroke-width:0.393;stroke-linecap:round;stroke-linejoin:round;stroke-miterlimit:10;}
	.st61{fill:#AFAFAF;}
	.st62{fill:#FED65C;}
	.st63{clip-path:url(#SVGID_108_);}
	.st64{fill:#4CBDD8;}
	.st65{fill:#F9D264;}
	.st66{fill:#F9BB7D;}
	.st67{fill:#41464B;stroke:#414042;stroke-width:0.4;stroke-linecap:round;stroke-linejoin:round;stroke-miterlimit:10;}
	.st68{clip-path:url(#SVGID_110_);}
	.st69{clip-path:url(#SVGID_112_);}
	.st70{clip-path:url(#SVGID_114_);}
	.st71{clip-path:url(#SVGID_116_);}
	.st72{clip-path:url(#SVGID_118_);}
	.st73{clip-path:url(#SVGID_120_);}
	.st74{clip-path:url(#SVGID_122_);}
	.st75{clip-path:url(#SVGID_124_);fill:#414042;}
	.st76{clip-path:url(#SVGID_126_);}
	.st77{clip-path:url(#SVGID_128_);}
	.st78{clip-path:url(#SVGID_130_);}
	.st79{clip-path:url(#SVGID_132_);}
	.st80{clip-path:url(#SVGID_134_);}
	.st81{clip-path:url(#SVGID_136_);}
	.st82{clip-path:url(#SVGID_138_);}
	.st83{clip-path:url(#SVGID_140_);}
	.st84{clip-path:url(#SVGID_142_);}
	.st85{clip-path:url(#SVGID_144_);}
	.st86{clip-path:url(#SVGID_146_);}
	.st87{clip-path:url(#SVGID_148_);}
	.st88{clip-path:url(#SVGID_150_);}
	.st89{clip-path:url(#SVGID_152_);fill:#FFFFFF;}
	.st90{clip-path:url(#SVGID_154_);}
	.st91{clip-path:url(#SVGID_156_);}
	.st92{clip-path:url(#SVGID_158_);}
	.st93{clip-path:url(#SVGID_160_);}
	.st94{clip-path:url(#SVGID_162_);}
	.st95{clip-path:url(#SVGID_164_);}
	.st96{clip-path:url(#SVGID_166_);}
	.st97{clip-path:url(#SVGID_168_);}
	.st98{clip-path:url(#SVGID_170_);}
	.st99{clip-path:url(#SVGID_172_);}
	.st100{clip-path:url(#SVGID_174_);}
	.st101{clip-path:url(#SVGID_176_);}
	.st102{clip-path:url(#SVGID_178_);}
	.st103{clip-path:url(#SVGID_180_);fill:#414042;}
	.st104{clip-path:url(#SVGID_182_);}
	.st105{clip-path:url(#SVGID_184_);}
	.st106{clip-path:url(#SVGID_186_);}
	.st107{clip-path:url(#SVGID_188_);}
	.st108{clip-path:url(#SVGID_190_);}
	.st109{clip-path:url(#SVGID_192_);}
	.st110{fill:#41464B;stroke:#41464B;stroke-width:0.2;stroke-miterlimit:10;}
	.st111{clip-path:url(#SVGID_194_);}
	.st112{clip-path:url(#SVGID_196_);}
	.st113{clip-path:url(#SVGID_198_);}
	.st114{clip-path:url(#SVGID_200_);}
	.st115{clip-path:url(#SVGID_202_);}
	.st116{clip-path:url(#SVGID_204_);}
	.st117{clip-path:url(#SVGID_206_);}
	.st118{clip-path:url(#SVGID_208_);fill:#414042;}
	.st119{clip-path:url(#SVGID_210_);}
	.st120{clip-path:url(#SVGID_212_);}
	.st121{clip-path:url(#SVGID_214_);}
	.st122{clip-path:url(#SVGID_216_);}
	.st123{clip-path:url(#SVGID_218_);}
	.st124{clip-path:url(#SVGID_220_);}
	.st125{fill:#FFD15D;}
	.st126{fill:#475059;}
	.st127{fill:#41464B;stroke:#41464B;stroke-width:0.223;stroke-linecap:round;stroke-linejoin:round;stroke-miterlimit:10;}
	.st128{fill:#41464B;stroke:#41464B;stroke-width:0.223;stroke-miterlimit:10;}
	.st129{fill:#41464B;stroke:#41464B;stroke-width:0.212;stroke-miterlimit:10;}
	.st130{fill:#5FE0ED;}
	.st131{fill:#48515A;}
	.st132{fill:#41464B;stroke:#41464B;stroke-width:0.2104;stroke-miterlimit:10;}
	.st133{fill:#41464B;stroke:#41464B;stroke-width:0.21;stroke-linecap:round;stroke-linejoin:round;stroke-miterlimit:10;}
	.st134{fill:#41464B;stroke:#41464B;stroke-width:0.2086;stroke-linecap:round;stroke-linejoin:round;stroke-miterlimit:10;}
	.st135{fill:#FDBE11;}
	.st136{fill:#41464B;stroke:#41464B;stroke-width:0.2513;stroke-miterlimit:10;}
	.st137{clip-path:url(#SVGID_222_);}
	.st138{clip-path:url(#SVGID_224_);}
	.st139{clip-path:url(#SVGID_226_);}
	.st140{clip-path:url(#SVGID_228_);}
	.st141{clip-path:url(#SVGID_230_);}
	.st142{clip-path:url(#SVGID_232_);}
	.st143{clip-path:url(#SVGID_234_);}
	.st144{clip-path:url(#SVGID_236_);fill:#414042;}
	.st145{clip-path:url(#SVGID_238_);}
	.st146{clip-path:url(#SVGID_240_);}
	.st147{clip-path:url(#SVGID_242_);}
	.st148{clip-path:url(#SVGID_244_);}
	.st149{clip-path:url(#SVGID_246_);}
	.st150{clip-path:url(#SVGID_248_);}
	.st151{clip-path:url(#SVGID_250_);}
	.st152{clip-path:url(#SVGID_252_);}
	.st153{clip-path:url(#SVGID_254_);}
	.st154{clip-path:url(#SVGID_256_);}
	.st155{clip-path:url(#SVGID_258_);}
	.st156{clip-path:url(#SVGID_260_);}
	.st157{clip-path:url(#SVGID_262_);}
	.st158{clip-path:url(#SVGID_264_);fill:#414042;}
	.st159{clip-path:url(#SVGID_266_);}
	.st160{clip-path:url(#SVGID_268_);}
	.st161{clip-path:url(#SVGID_270_);}
	.st162{clip-path:url(#SVGID_272_);}
	.st163{clip-path:url(#SVGID_274_);}
	.st164{clip-path:url(#SVGID_276_);}
	.st165{fill:#DEDEDD;}
	.st166{fill:#41464B;stroke:#41464B;stroke-width:0.2327;stroke-miterlimit:10;}
	.st167{fill:#41464B;stroke:#41464B;stroke-width:0.2327;stroke-linecap:round;stroke-linejoin:round;stroke-miterlimit:10;}
	.st168{fill:#F58E70;}
	.st169{clip-path:url(#SVGID_278_);}
	.st170{fill:#41464B;stroke:#41464B;stroke-width:0.2316;stroke-miterlimit:10;}
	.st171{fill:#FFB936;}
	.st172{fill:#E6E7E8;}
	.st173{clip-path:url(#SVGID_280_);}
	.st174{clip-path:url(#SVGID_282_);}
	.st175{clip-path:url(#SVGID_284_);}
	.st176{clip-path:url(#SVGID_286_);}
	.st177{clip-path:url(#SVGID_288_);}
	.st178{clip-path:url(#SVGID_290_);}
	.st179{clip-path:url(#SVGID_292_);}
	.st180{clip-path:url(#SVGID_294_);fill:#FFFFFF;}
	.st181{clip-path:url(#SVGID_296_);}
	.st182{clip-path:url(#SVGID_298_);}
	.st183{clip-path:url(#SVGID_300_);}
	.st184{clip-path:url(#SVGID_302_);}
	.st185{clip-path:url(#SVGID_304_);}
	.st186{clip-path:url(#SVGID_306_);}
	.st187{clip-path:url(#SVGID_308_);}
	.st188{clip-path:url(#SVGID_310_);}
	.st189{clip-path:url(#SVGID_312_);}
	.st190{clip-path:url(#SVGID_314_);}
	.st191{clip-path:url(#SVGID_316_);}
	.st192{clip-path:url(#SVGID_318_);}
	.st193{clip-path:url(#SVGID_320_);}
	.st194{clip-path:url(#SVGID_322_);fill:#FFFFFF;}
	.st195{clip-path:url(#SVGID_324_);}
	.st196{clip-path:url(#SVGID_326_);}
	.st197{clip-path:url(#SVGID_328_);}
	.st198{clip-path:url(#SVGID_330_);}
	.st199{clip-path:url(#SVGID_332_);}
	.st200{clip-path:url(#SVGID_334_);}
</style>
<path class="st0" d="M32.365,36.806l-8.993,4.177l-1.604-0.883l0-3.294h-5.857V16.918h3.126l2.826-4.661h9.561
	c0.519,0,0.94,0.421,0.94,0.94V36.806z"/>
<path class="st0" d="M21.768,33.698h-2.651v-20.05c0-0.732,0.593-1.326,1.326-1.326h0c0.732,0,1.326,0.593,1.326,1.326V33.698z"/>
<path class="st0" d="M16.578,36.805h-2.806V18.084c0-0.729,0.591-1.321,1.321-1.321h0.165c0.729,0,1.321,0.591,1.321,1.321V36.805z"
	/>
<g>
	<defs>
		<path id="SVGID_193_" d="M4.688,41.869v-0.582H5.27c0.218,0,0.394-0.177,0.394-0.394c0-0.218-0.177-0.394-0.394-0.394H4.688
			v-0.582c0-0.218-0.177-0.394-0.394-0.394c-0.218,0-0.394,0.177-0.394,0.394v0.582H3.317c-0.218,0-0.394,0.177-0.394,0.394
			c0,0.218,0.177,0.394,0.394,0.394h0.582v0.582c0,0.218,0.177,0.394,0.394,0.394C4.512,42.263,4.688,42.086,4.688,41.869"/>
	</defs>
	<clipPath id="SVGID_2_">
		<use xlink:href="#SVGID_193_"  style="overflow:visible;"/>
	</clipPath>
	<g class="st6">
		<defs>
			<rect id="SVGID_195_" x="2.923" y="9.06" width="44.778" height="35.335"/>
		</defs>
		<clipPath id="SVGID_4_">
			<use xlink:href="#SVGID_195_"  style="overflow:visible;"/>
		</clipPath>
		<g class="st7">
			<rect x="1.4" y="37.998" class="st1" width="5.788" height="5.788"/>
		</g>
	</g>
</g>
<g>
	<defs>
		<path id="SVGID_197_" d="M2.856,12.002h1.353c0.215,0,0.39-0.205,0.39-0.457c0-0.252-0.174-0.457-0.39-0.457H2.856
			c-0.215,0-0.39,0.205-0.39,0.457C2.466,11.798,2.641,12.002,2.856,12.002"/>
	</defs>
	<clipPath id="SVGID_6_">
		<use xlink:href="#SVGID_197_"  style="overflow:visible;"/>
	</clipPath>
	<g class="st8">
		<defs>
			<rect id="SVGID_199_" x="2.161" y="-0.487" width="44.778" height="35.335"/>
		</defs>
		<clipPath id="SVGID_8_">
			<use xlink:href="#SVGID_199_"  style="overflow:visible;"/>
		</clipPath>
		<g class="st9">
			<rect x="0.943" y="9.565" class="st1" width="5.178" height="3.96"/>
		</g>
	</g>
</g>
<g>
	<defs>
		<path id="SVGID_201_" d="M6.319,10.784c0.227,0,0.411-0.205,0.411-0.457c0-0.252-0.184-0.457-0.411-0.457H4.705
			c-0.227,0-0.411,0.205-0.411,0.457c0,0.252,0.184,0.457,0.411,0.457H6.319z"/>
	</defs>
	<clipPath id="SVGID_10_">
		<use xlink:href="#SVGID_201_"  style="overflow:visible;"/>
	</clipPath>
	<g class="st10">
		<defs>
			<rect id="SVGID_203_" x="2.161" y="-0.487" width="44.778" height="35.335"/>
		</defs>
		<clipPath id="SVGID_12_">
			<use xlink:href="#SVGID_203_"  style="overflow:visible;"/>
		</clipPath>
		<g class="st11">
			<rect x="2.771" y="8.347" class="st1" width="5.483" height="3.96"/>
		</g>
	</g>
</g>
<g>
	<defs>
		<path id="SVGID_205_" d="M25.698,8.547h0.751v0.751c0,0.213,0.173,0.386,0.386,0.386c0.213,0,0.386-0.173,0.386-0.386V8.547h0.751
			c0.213,0,0.386-0.173,0.386-0.386c0-0.213-0.173-0.386-0.386-0.386h-0.751V7.024c0-0.213-0.173-0.386-0.386-0.386
			c-0.213,0-0.386,0.173-0.386,0.386v0.751h-0.751c-0.213,0-0.386,0.173-0.386,0.386C25.312,8.375,25.485,8.547,25.698,8.547"/>
	</defs>
	<clipPath id="SVGID_14_">
		<use xlink:href="#SVGID_205_"  style="overflow:visible;"/>
	</clipPath>
	<g class="st12">
		<defs>
			<rect id="SVGID_207_" x="2.161" y="6.638" width="44.778" height="35.335"/>
		</defs>
		<clipPath id="SVGID_16_">
			<use xlink:href="#SVGID_207_"  style="overflow:visible;"/>
		</clipPath>
		<rect x="23.789" y="5.115" style="clip-path:url(#SVGID_16_);fill:#414042;" width="6.092" height="6.092"/>
	</g>
</g>
<path class="st0" d="M33.431,40.87H24.23V25.158c0-1.032,0.837-1.869,1.869-1.869h9.063l1.963,0.311l0.425,0.837l-2.388,0.245
	v14.459C35.162,40.095,34.387,40.87,33.431,40.87z"/>
<rect x="11.48" y="35.718" class="st0" width="2.239" height="0.862"/>
<g>
	<defs>
		<path id="SVGID_209_" d="M44.886,18.643h0.451v0.451c0,0.212,0.172,0.384,0.384,0.384c0.212,0,0.384-0.172,0.384-0.384v-0.451
			h0.451c0.212,0,0.384-0.172,0.384-0.383c0-0.212-0.172-0.383-0.384-0.383h-0.451v-0.451c0-0.212-0.172-0.383-0.384-0.383
			c-0.212,0-0.384,0.172-0.384,0.383v0.451h-0.451c-0.212,0-0.384,0.172-0.384,0.383C44.503,18.471,44.675,18.643,44.886,18.643"/>
	</defs>
	<clipPath id="SVGID_18_">
		<use xlink:href="#SVGID_209_"  style="overflow:visible;"/>
	</clipPath>
	<g class="st14">
		<defs>
			<rect id="SVGID_211_" x="2.161" y="3.638" width="44.778" height="35.335"/>
		</defs>
		<clipPath id="SVGID_20_">
			<use xlink:href="#SVGID_211_"  style="overflow:visible;"/>
		</clipPath>
		<g class="st15">
			<rect x="42.98" y="15.518" class="st1" width="5.483" height="5.483"/>
		</g>
	</g>
</g>
<g>
	<defs>
		<path id="SVGID_213_" d="M48.221,42.133c0-0.252-0.183-0.457-0.408-0.457h-2.84c-0.225,0-0.408,0.205-0.408,0.457
			s0.183,0.457,0.408,0.457h2.84C48.039,42.59,48.221,42.386,48.221,42.133"/>
	</defs>
	<clipPath id="SVGID_22_">
		<use xlink:href="#SVGID_213_"  style="overflow:visible;"/>
	</clipPath>
	<g class="st16">
		<defs>
			<rect id="SVGID_215_" x="3.443" y="10.911" width="44.778" height="35.335"/>
		</defs>
		<clipPath id="SVGID_24_">
			<use xlink:href="#SVGID_215_"  style="overflow:visible;"/>
		</clipPath>
		<g class="st17">
			<rect x="43.043" y="40.153" class="st1" width="6.702" height="3.96"/>
		</g>
	</g>
</g>
<g>
	<defs>
		<path id="SVGID_217_" d="M34.532,10.598h1.665c0.213,0,0.386-0.205,0.386-0.457c0-0.252-0.173-0.457-0.386-0.457h-1.665
			c-0.213,0-0.386,0.205-0.386,0.457C34.146,10.394,34.319,10.598,34.532,10.598"/>
	</defs>
	<clipPath id="SVGID_26_">
		<use xlink:href="#SVGID_217_"  style="overflow:visible;"/>
	</clipPath>
	<g class="st18">
		<defs>
			<rect id="SVGID_219_" x="2.161" y="6.638" width="44.778" height="35.335"/>
		</defs>
		<clipPath id="SVGID_28_">
			<use xlink:href="#SVGID_219_"  style="overflow:visible;"/>
		</clipPath>
		<g class="st19">
			<rect x="32.623" y="8.161" class="st1" width="5.483" height="3.96"/>
		</g>
	</g>
</g>
<g>
	<g>
		<g>
			<g>
				<ellipse class="st125" cx="37.453" cy="16.998" rx="3.14" ry="2.965"/>
			</g>
			<g>
				<g>
					<path class="st126" d="M37.888,18.147h-0.97c-0.307,0-0.556-0.237-0.556-0.528c0-0.091,0.078-0.165,0.174-0.165
						c0.096,0,0.174,0.074,0.174,0.165c0,0.11,0.093,0.199,0.207,0.199h0.97c0.145,0,0.263-0.113,0.263-0.251V17.41
						c0-0.137-0.118-0.248-0.263-0.248h-0.956c-0.337,0-0.612-0.259-0.612-0.578v-0.157c0-0.319,0.274-0.578,0.612-0.578h1.028
						c0.266,0,0.483,0.204,0.483,0.456c0,0.091-0.078,0.165-0.174,0.165c-0.096,0-0.174-0.074-0.174-0.165
						c0-0.07-0.06-0.126-0.134-0.126h-1.028c-0.145,0-0.263,0.111-0.263,0.249v0.157c0,0.137,0.118,0.248,0.263,0.248h0.956
						c0.337,0,0.612,0.259,0.612,0.578v0.157C38.5,17.886,38.226,18.147,37.888,18.147z"/>
				</g>
				<g>
					<path class="st126" d="M37.459,18.645c-0.096,0-0.174-0.074-0.174-0.165v-2.965c0-0.091,0.078-0.165,0.174-0.165
						s0.174,0.074,0.174,0.165v2.965C37.633,18.571,37.555,18.645,37.459,18.645z"/>
				</g>
			</g>
		</g>
		<g>
			<g>
				<ellipse class="st125" cx="8.882" cy="31.324" rx="3.14" ry="2.965"/>
			</g>
			<g>
				<g>
					<path class="st126" d="M9.317,32.473h-0.97c-0.307,0-0.556-0.237-0.556-0.528c0-0.091,0.078-0.165,0.174-0.165
						c0.096,0,0.174,0.074,0.174,0.165c0,0.11,0.093,0.199,0.207,0.199h0.97c0.145,0,0.263-0.113,0.263-0.251v-0.157
						c0-0.137-0.118-0.248-0.263-0.248H8.361c-0.337,0-0.612-0.259-0.612-0.578v-0.157c0-0.319,0.274-0.578,0.612-0.578h1.028
						c0.266,0,0.483,0.204,0.483,0.456c0,0.091-0.078,0.165-0.174,0.165c-0.096,0-0.174-0.074-0.174-0.165
						c0-0.07-0.06-0.126-0.134-0.126H8.361c-0.145,0-0.263,0.111-0.263,0.249v0.157c0,0.137,0.118,0.248,0.263,0.248h0.956
						c0.337,0,0.612,0.259,0.612,0.578v0.157C9.929,32.212,9.655,32.473,9.317,32.473z"/>
				</g>
				<g>
					<path class="st126" d="M8.888,32.971c-0.096,0-0.174-0.074-0.174-0.165v-2.965c0-0.091,0.078-0.165,0.174-0.165
						s0.174,0.074,0.174,0.165v2.965C9.063,32.897,8.985,32.971,8.888,32.971z"/>
				</g>
			</g>
		</g>
		<g>
			<g>
				<g>
					<path class="st127" d="M33.263,39.225h-1.939c-0.518,0-0.938-0.4-0.938-0.892h0.349c0,0.31,0.265,0.562,0.59,0.562h1.939
						c0.386,0,0.7-0.299,0.7-0.667v-0.313c0-0.365-0.314-0.661-0.7-0.661h-1.912c-0.579,0-1.049-0.445-1.049-0.991V35.95
						c0-0.546,0.471-0.991,1.049-0.991h2.055c0.436,0,0.791,0.335,0.791,0.747h-0.349c0-0.23-0.198-0.417-0.442-0.417h-2.055
						c-0.386,0-0.7,0.297-0.7,0.662v0.313c0,0.365,0.314,0.662,0.7,0.662h1.912c0.579,0,1.049,0.444,1.049,0.991v0.313
						C34.312,38.778,33.842,39.225,33.263,39.225z"/>
				</g>
				<g>
					<rect x="32.23" y="34.127" class="st127" width="0.349" height="5.929"/>
				</g>
			</g>
		</g>
		<g>
			<rect x="32.918" y="27.045" class="st127" width="1.744" height="0.329"/>
		</g>
		<g>
			<rect x="32.918" y="28.033" class="st127" width="1.744" height="0.329"/>
		</g>
		<g>
			<rect x="32.918" y="29.022" class="st127" width="1.744" height="0.329"/>
		</g>
		<g>
			<rect x="32.918" y="30.01" class="st127" width="1.744" height="0.329"/>
		</g>
		<g>
			<rect x="32.918" y="30.998" class="st127" width="1.744" height="0.329"/>
		</g>
		<g>
			<g>
				<rect x="14.777" y="16.175" class="st128" width="4.186" height="0.329"/>
			</g>
			<g>
				<rect x="11.986" y="37.257" class="st128" width="9.768" height="0.329"/>
			</g>
			<g>
				<path class="st128" d="M34.313,41.869H23.15v-0.329h11.164c0.673,0,1.221-0.517,1.221-1.153V24.245h0.349v16.141
					C35.883,41.204,35.179,41.869,34.313,41.869z"/>
			</g>
			<g>
				<path class="st128" d="M33.092,23.257h-0.349V12.716c0-0.636-0.548-1.153-1.221-1.153H20.359v-0.329h11.164
					c0.866,0,1.57,0.665,1.57,1.482V23.257z"/>
			</g>
			<g>
				<rect x="25.94" y="23.092" class="st128" width="11.164" height="0.329"/>
			</g>
			<g>
				<rect x="17.568" y="33.963" class="st128" width="4.186" height="0.329"/>
			</g>
			<g>
				<path class="st129" d="M23.15,41.869c-0.866,0-1.57-0.665-1.57-1.482v-27.67c0-0.636-0.548-1.153-1.221-1.153
					s-1.221,0.517-1.221,1.153V32.81c0,0.817-0.704,1.482-1.57,1.482s-1.57-0.665-1.57-1.482V17.657
					c0-0.636-0.548-1.153-1.221-1.153s-1.221,0.517-1.221,1.153v18.447c0,0.817-0.704,1.482-1.57,1.482v-0.329
					c0.673,0,1.221-0.517,1.221-1.153V17.657c0-0.817,0.704-1.482,1.57-1.482s1.57,0.665,1.57,1.482V32.81
					c0,0.636,0.548,1.153,1.221,1.153s1.221-0.517,1.221-1.153V12.716c0-0.817,0.704-1.482,1.57-1.482s1.57,0.665,1.57,1.482v27.67
					c0,0.636,0.548,1.153,1.221,1.153s1.221-0.517,1.221-1.153V24.575c0-0.817,0.704-1.482,1.57-1.482
					c0.807,0,1.473,0.577,1.56,1.318h0.489l0.68-0.35l0.743,0.35h0.266l0.739-0.349l0.739,0.349h0.269l0.797-0.347l0.736,0.347
					h0.266l0.739-0.349l0.739,0.349h0.266l0.739-0.349l0.739,0.349h0.266l0.739-0.349l0.739,0.349h0.121
					c-0.085-0.558-0.595-0.988-1.209-0.988v-0.329c0.866,0,1.57,0.665,1.57,1.482v0.165H38.11l-0.657-0.31l-0.657,0.31h-0.431
					l-0.657-0.31l-0.657,0.31h-0.431l-0.657-0.31l-0.657,0.31h-0.431l-0.66-0.311l-0.714,0.311h-0.429l-0.656-0.31l-0.657,0.31
					H29.33l-0.653-0.308l-0.599,0.308h-0.917v-0.165c0-0.636-0.548-1.153-1.221-1.153c-0.673,0-1.221,0.517-1.221,1.153v15.812
					C24.719,41.204,24.015,41.869,23.15,41.869z"/>
			</g>
			<g>
				<g>
					<path class="st59" d="M16.697,32.81c0,0.454,0.391,0.824,0.872,0.824c0.481,0,0.872-0.369,0.872-0.824V16.833h-1.954
						c0.136,0.252,0.21,0.533,0.21,0.824V32.81z"/>
				</g>
			</g>
			<g>
				<path class="st128" d="M11.986,37.586c-0.866,0-1.57-0.665-1.57-1.482v-0.165h0.564l0.657,0.31l0.657-0.31h0.431l0.734,0.347
					l-0.156,0.295l-0.661-0.312h-0.266l-0.739,0.349l-0.739-0.349h-0.121c0.085,0.558,0.595,0.988,1.209,0.988V37.586z"/>
			</g>
			<g>
				<rect x="25.94" y="27.045" class="st127" width="5.233" height="0.329"/>
			</g>
			<g>
				<rect x="25.94" y="28.033" class="st127" width="5.233" height="0.329"/>
			</g>
			<g>
				<rect x="25.94" y="29.022" class="st127" width="5.233" height="0.329"/>
			</g>
			<g>
				<rect x="25.94" y="30.01" class="st127" width="5.233" height="0.329"/>
			</g>
			<g>
				<rect x="25.94" y="30.998" class="st127" width="5.233" height="0.329"/>
			</g>
			<g>
				<rect x="25.94" y="31.986" class="st127" width="5.233" height="0.329"/>
			</g>
		</g>
		<g>
			<rect x="32.918" y="31.986" class="st127" width="1.744" height="0.329"/>
		</g>
		<g>
			<g>
				<g>
					<g>
						<rect x="20.01" y="16.671" class="st130" width="10.815" height="4.939"/>
					</g>
					<g>
						<g>
							<path class="st57" d="M25.886,20.292h-0.979c-0.304,0-0.56-0.248-0.56-0.542h0.349c0,0.113,0.099,0.213,0.211,0.213h0.979
								c0.148,0,0.228-0.142,0.228-0.275V19.53c0-0.143-0.083-0.225-0.228-0.225h-0.966c-0.319,0-0.55-0.256-0.55-0.609v-0.158
								c0-0.329,0.221-0.55,0.55-0.55h1.038c0.272,0,0.486,0.197,0.486,0.448h-0.349c0-0.078-0.069-0.119-0.137-0.119h-1.038
								c-0.055,0-0.201,0-0.201,0.221v0.158c0,0.104,0.042,0.28,0.201,0.28h0.966c0.34,0,0.577,0.228,0.577,0.555v0.158
								C26.464,20.027,26.21,20.292,25.886,20.292z"/>
						</g>
						<g>
							<rect x="25.243" y="17.657" class="st131" width="0.349" height="2.965"/>
						</g>
					</g>
					<g>
						<rect x="27.162" y="18.975" class="st57" width="1.047" height="0.329"/>
					</g>
					<g>
						<rect x="27.162" y="19.633" class="st57" width="1.047" height="0.329"/>
					</g>
					<g>
						<rect x="27.162" y="18.316" class="st57" width="1.047" height="0.329"/>
					</g>
					<g>
						<g>
							<rect x="22.626" y="18.975" class="st57" width="1.047" height="0.329"/>
						</g>
						<g>
							<rect x="22.626" y="18.316" class="st57" width="1.047" height="0.329"/>
						</g>
						<g>
							<rect x="22.626" y="19.633" class="st57" width="1.047" height="0.329"/>
						</g>
					</g>
				</g>
			</g>
			<g>
				<path class="st128" d="M30.476,21.28H20.359v-4.282h10.117V21.28z M20.707,20.951h9.419v-3.624h-9.419V20.951z"/>
			</g>
		</g>
	</g>
</g>
</svg>
