<?xml version="1.0" encoding="utf-8"?>
<!-- Generator: Adobe Illustrator 23.0.1, SVG Export Plug-In . SVG Version: 6.00 Build 0)  -->
<svg version="1.1" id="Layer_1" xmlns="http://www.w3.org/2000/svg" xmlns:xlink="http://www.w3.org/1999/xlink" x="0px" y="0px"
	 viewBox="0 0 64 64" style="enable-background:new 0 0 64 64;" xml:space="preserve">
<style type="text/css">
	.Drop_x0020_Shadow{fill:none;}
	.Outer_x0020_Glow_x0020_5_x0020_pt{fill:none;}
	.Blue_x0020_Neon{fill:none;stroke:#8AACDA;stroke-width:7;stroke-linecap:round;stroke-linejoin:round;}
	.Chrome_x0020_Highlight{fill:url(#SVGID_1_);stroke:#FFFFFF;stroke-width:0.3629;stroke-miterlimit:1;}
	.Jive_GS{fill:#FFDD00;}
	.Alyssa_GS{fill:#A6D0E4;}
	.st0{fill:#FFFFFF;stroke:#171C28;stroke-linecap:round;stroke-linejoin:round;stroke-miterlimit:10;}
	.st1{fill:#FFFFFF;}
	.st2{fill:#171C28;}
	.st3{fill:none;stroke:#4C5C68;stroke-width:0.9106;stroke-miterlimit:10;}
	.st4{fill:none;stroke:#171C28;stroke-linecap:round;stroke-linejoin:round;stroke-miterlimit:10;}
	.st5{fill:none;stroke:#4C5C68;stroke-width:1.0828;stroke-linecap:round;stroke-linejoin:round;stroke-miterlimit:10;}
	.st6{fill:none;stroke:#4C5C68;stroke-width:1.1103;stroke-linecap:round;stroke-linejoin:round;stroke-miterlimit:10;}
	.st7{fill:#C74634;stroke:#171C28;stroke-linecap:round;stroke-linejoin:round;stroke-miterlimit:10;}
	.st8{fill:#C74634;}
	.st9{fill:#FFFFFF;stroke:#171C28;stroke-width:0.9273;stroke-linecap:round;stroke-linejoin:round;stroke-miterlimit:10;}
	.st10{fill:#4C5C68;}
	.st11{fill:#FFFFFF;stroke:#171C28;stroke-width:0.9403;stroke-linecap:round;stroke-linejoin:round;stroke-miterlimit:10;}
	.st12{fill:none;stroke:#4C5C68;stroke-linecap:round;stroke-linejoin:round;stroke-miterlimit:10;}
	.st13{fill:#CEE8FA;}
	.st14{fill:#CEE8FA;stroke:#4C5C68;stroke-linecap:round;stroke-linejoin:round;stroke-miterlimit:10;}
	.st15{fill:#F9CA38;stroke:#4C5C68;stroke-linecap:round;stroke-linejoin:round;stroke-miterlimit:10;}
	.st16{fill:#FFFFFF;stroke:#4C5C68;stroke-linecap:round;stroke-linejoin:round;stroke-miterlimit:10;}
	.st17{fill:#FFFFFF;stroke:#FEBD2E;stroke-linecap:round;stroke-linejoin:round;stroke-miterlimit:10;}
	.st18{fill:#FEBD2E;stroke:#4C5C68;stroke-linecap:round;stroke-linejoin:round;stroke-miterlimit:10;}
	.st19{fill:#286090;}
	.st20{fill:#F9CA38;}
	.st21{fill:#FFFFFF;stroke:#4C5C68;stroke-width:1.2173;stroke-linecap:round;stroke-linejoin:round;stroke-miterlimit:10;}
	.st22{fill:#FFFFFF;stroke:#4C5C68;stroke-width:0.8881;stroke-linecap:round;stroke-linejoin:round;stroke-miterlimit:10;}
	.st23{fill:none;stroke:#CEE8FA;stroke-width:1.0985;stroke-linecap:round;stroke-linejoin:round;stroke-miterlimit:10;}
	.st24{opacity:0.6;fill:#286090;}
	.st25{fill:none;stroke:#4C5C68;stroke-width:1.0254;stroke-linecap:round;stroke-linejoin:round;stroke-miterlimit:10;}
	.st26{fill:#FFFFFF;stroke:#4C5C68;stroke-miterlimit:10;}
	.st27{fill:none;stroke:#286090;stroke-linecap:round;stroke-linejoin:round;stroke-miterlimit:10;stroke-dasharray:0,2;}
	.st28{fill:none;stroke:#286090;stroke-linecap:round;stroke-linejoin:round;stroke-miterlimit:10;}
	.st29{fill:#FEBD2E;}
	.st30{fill:none;stroke:#CEE8FA;stroke-linecap:round;stroke-linejoin:round;stroke-miterlimit:10;}
	.st31{fill:#FFFFFF;stroke:#171C28;stroke-miterlimit:10;}
	.st32{fill:#FFFFFF;stroke:#171C28;stroke-width:1.0268;stroke-linecap:round;stroke-linejoin:round;stroke-miterlimit:10;}
	.st33{fill:none;stroke:#171C28;stroke-width:1.0268;stroke-linecap:round;stroke-linejoin:round;stroke-miterlimit:10;}
	.st34{fill:#6B6B6B;}
	.st35{fill:none;stroke:#FFFFFF;stroke-width:1.0985;stroke-linecap:round;stroke-linejoin:round;stroke-miterlimit:10;}
	.st36{fill:#FFFFFF;stroke:#171C28;stroke-width:1.0688;stroke-linecap:round;stroke-linejoin:round;stroke-miterlimit:10;}
	.st37{fill:none;stroke:#4C5C68;stroke-width:1.1073;stroke-linecap:round;stroke-linejoin:round;stroke-miterlimit:10;}
	.st38{fill:none;stroke:#4C5C68;stroke-width:1.0096;stroke-linecap:round;stroke-linejoin:round;stroke-miterlimit:10;}
	.st39{fill:#FFFFFF;stroke:#171C28;stroke-width:1.1331;stroke-linecap:round;stroke-linejoin:round;stroke-miterlimit:10;}
	.st40{fill:none;stroke:#171C28;stroke-linecap:round;stroke-linejoin:round;stroke-miterlimit:10;stroke-dasharray:0,2;}
	.st41{fill:none;stroke:#BC0110;stroke-linecap:round;stroke-linejoin:round;stroke-miterlimit:10;}
	.st42{fill:none;stroke:#333333;stroke-width:2;stroke-linecap:round;stroke-linejoin:round;stroke-miterlimit:10;}
	.st43{fill:#FFFFFF;stroke:#171C28;stroke-width:1.211;stroke-linecap:round;stroke-linejoin:round;stroke-miterlimit:10;}
	.st44{fill:#171C28;stroke:#000000;stroke-width:0.2;stroke-linecap:round;stroke-linejoin:round;stroke-miterlimit:10;}
	.st45{fill:#FFFFFF;stroke:#4C5C68;stroke-width:0.9531;stroke-linecap:round;stroke-linejoin:round;stroke-miterlimit:10;}
	.st46{fill:#5FB0E5;}
	.st47{fill:#D2E9F7;}
	.st48{fill:#0686D8;}
	.st49{fill:#9ECFEF;}
	.st50{fill:none;stroke:#4C5C68;stroke-miterlimit:10;}
	.st51{fill:#4C5C68;stroke:#4C5C68;stroke-width:0.4;stroke-linecap:round;stroke-linejoin:round;stroke-miterlimit:10;}
	.st52{fill:#FED65C;}
	.st53{fill:none;stroke:#FFFFFF;stroke-linecap:round;stroke-linejoin:round;stroke-miterlimit:10;}
	.st54{fill:#EBF0F2;}
	.st55{fill:#B8D1CD;}
	.st56{fill:#DCEAE7;}
	.st57{fill:#EFB19E;}
	.st58{fill:#CCED9F;}
	.st59{fill:#A4EDE6;}
	.st60{fill:#111416;}
	.st61{fill:#567771;}
	.st62{fill:#FACC40;}
	.st63{fill:#FFF380;}
	.st64{fill:#E2932B;}
	.st65{fill:#78A09A;}
	.st66{fill:#253330;}
	.st67{fill:#FFFFFF;stroke:#4C5C68;stroke-width:1.1677;stroke-linecap:round;stroke-linejoin:round;stroke-miterlimit:10;}
	.st68{fill:#FFFFFF;stroke:#4C5C68;stroke-width:1.1657;stroke-linecap:round;stroke-linejoin:round;stroke-miterlimit:10;}
	.st69{fill:#FFFFFF;stroke:#171C28;stroke-width:0.9983;stroke-linecap:round;stroke-linejoin:round;stroke-miterlimit:10;}
	.st70{fill:#FFFFFF;stroke:#171C28;stroke-width:1.0727;stroke-linecap:round;stroke-linejoin:round;stroke-miterlimit:10;}
	.st71{fill:#C74634;stroke:#FFFFFF;stroke-linecap:round;stroke-linejoin:round;stroke-miterlimit:10;}
	.st72{fill:#CEE8FA;stroke:#4C5C68;stroke-width:0.965;stroke-linecap:round;stroke-linejoin:round;stroke-miterlimit:10;}
	.st73{fill:#41464B;}
	.st74{fill:#FFFFFF;stroke:#171C28;stroke-width:1.1013;stroke-linecap:round;stroke-linejoin:round;stroke-miterlimit:10;}
	.st75{fill:none;stroke:#171C28;stroke-width:1.1013;stroke-linecap:round;stroke-linejoin:round;stroke-miterlimit:10;}
	.st76{fill:#C74634;stroke:#171C28;stroke-width:1.1013;stroke-linecap:round;stroke-linejoin:round;stroke-miterlimit:10;}
	.st77{stroke:#171C28;stroke-linecap:round;stroke-linejoin:round;stroke-miterlimit:10;}
	.st78{fill:#FFFFFF;stroke:#171C28;stroke-width:0.9891;stroke-linecap:round;stroke-linejoin:round;stroke-miterlimit:10;}
	.st79{fill:none;stroke:#171C28;stroke-width:0.5274;stroke-linecap:round;stroke-linejoin:round;stroke-miterlimit:10;}
	.st80{fill:none;stroke:#4C5C68;stroke-width:1.1135;stroke-linecap:round;stroke-linejoin:round;stroke-miterlimit:10;}
	.st81{fill:#F9CA38;stroke:#4C5C68;stroke-width:1.1723;stroke-miterlimit:10;}
	.st82{fill:none;stroke:#4C5C68;stroke-width:1.0796;stroke-linecap:round;stroke-linejoin:round;stroke-miterlimit:10;}
	.st83{fill:none;stroke:#4C5C68;stroke-width:1.136;stroke-linecap:round;stroke-linejoin:round;stroke-miterlimit:10;}
	.st84{fill:#FFFFFF;stroke:#4C5C68;stroke-width:1.0796;stroke-linecap:round;stroke-linejoin:round;stroke-miterlimit:10;}
	.st85{fill:#007395;}
	.st86{fill:#FFFFFF;stroke:#171C28;stroke-width:0.8477;stroke-linecap:round;stroke-linejoin:round;stroke-miterlimit:10;}
	.st87{fill:#FFFFFF;stroke:#171C28;stroke-width:1.0138;stroke-linecap:round;stroke-linejoin:round;stroke-miterlimit:10;}
	.st88{fill:#FFFFFF;stroke:#171C28;stroke-width:0.9779;stroke-linecap:round;stroke-linejoin:round;stroke-miterlimit:10;}
	.st89{fill:none;stroke:#595959;stroke-width:1.6811;stroke-linecap:round;stroke-linejoin:round;}
	.st90{fill:none;stroke:#595959;stroke-width:1.6811;stroke-miterlimit:10;}
</style>
<linearGradient id="SVGID_1_" gradientUnits="userSpaceOnUse" x1="-584.8459" y1="-1207.0479" x2="-584.8459" y2="-1208.0479">
	<stop  offset="0" style="stop-color:#656565"/>
	<stop  offset="0.618" style="stop-color:#1B1B1B"/>
	<stop  offset="0.6292" style="stop-color:#545454"/>
	<stop  offset="0.9831" style="stop-color:#3E3E3E"/>
</linearGradient>
<g>
	<g>
		<polyline id="XMLID_1877_" class="st0" points="40.9,17.7 40.9,55.9 6.3,55.9 6.3,5.5 30.7,5.5 		"/>
		<polyline id="XMLID_1876_" class="st0" points="43.3,19.8 43.3,55.9 8.7,55.9 8.7,19.4 8.7,13 8.7,8.2 33.1,8.2 		"/>
		<polyline id="XMLID_1874_" class="st1" points="45.9,22.3 45.9,56.6 11.5,56.6 11.5,52.6 11.5,45.4 11.5,11.3 35.8,11.3 		"/>
		<line id="XMLID_1860_" class="st0" x1="45.8" y1="33" x2="45.8" y2="22"/>
		<polyline id="XMLID_1859_" class="st0" points="11,44.7 11,10.8 35.5,10.8 		"/>
		<line id="XMLID_1848_" class="st0" x1="38.9" y1="55.9" x2="11" y2="55.9"/>
		<g id="XMLID_1837_">
			<ellipse id="XMLID_1847_" class="st0" cx="28.7" cy="26.2" rx="8.9" ry="8.8"/>
			<ellipse id="XMLID_1846_" class="st8" cx="28.7" cy="26.2" rx="7" ry="6.9"/>
			<g id="XMLID_1838_">
				<path id="XMLID_1839_" class="st1" d="M28.6,22c0.2,0,0.4,0.2,0.4,0.4v0.2c0.6,0.1,1.1,0.3,1.5,0.5c0.2,0.1,0.3,0.2,0.3,0.5
					c0,0.3-0.2,0.5-0.6,0.5c-0.1,0-0.2,0-0.3-0.1c-0.3-0.2-0.7-0.4-1-0.4v1.9c1.5,0.4,2.1,1,2.1,2c0,1.1-0.8,1.8-2.1,1.9v0.6
					c0,0.2-0.2,0.4-0.4,0.4s-0.4-0.2-0.4-0.4v-0.6c-0.7-0.1-1.4-0.3-2-0.8c-0.2-0.1-0.3-0.3-0.3-0.5c0-0.3,0.2-0.5,0.5-0.5
					c0.1,0,0.2,0,0.3,0.1c0.5,0.3,0.9,0.6,1.5,0.7v-1.9c-1.4-0.4-2.1-0.9-2.1-2c0-1.1,0.8-1.8,2.1-1.9v-0.2
					C28.2,22.2,28.4,22,28.6,22z M28.2,25.3v-1.7c-0.6,0.1-0.9,0.4-0.9,0.8C27.3,24.8,27.5,25.1,28.2,25.3z M29,26.7v1.8
					c0.6-0.1,1-0.4,1-0.9C30,27.2,29.8,26.9,29,26.7z"/>
			</g>
		</g>
		<polygon id="XMLID_1820_" class="st0" points="35.4,10.6 35.4,22.1 45.9,22.1 		"/>
		<line id="XMLID_1819_" class="st0" x1="16.4" y1="38.9" x2="32.6" y2="38.9"/>
		<line id="XMLID_1818_" class="st0" x1="16.4" y1="43.3" x2="33.5" y2="43.3"/>
		<line id="XMLID_1817_" class="st0" x1="16.8" y1="47.4" x2="35.5" y2="47.4"/>
		<g>
			<polyline class="st84" points="45,50 41.7,56.7 40.4,53.4 37.4,53.8 40.3,48.1 			"/>
			<polyline class="st84" points="50.5,48.1 53.4,53.8 50.3,53.4 49,56.7 45.7,50 			"/>
			<circle class="st0" cx="45.2" cy="42.3" r="7.6"/>
			<circle class="st2" cx="45.2" cy="42.3" r="3.8"/>
		</g>
	</g>
	<g id="XMLID_1816_">
		<path class="st1" d="M45.7,57.9c-6.4,0-11.5-5.1-11.5-11.5s5.1-11.5,11.5-11.5s11.5,5.1,11.5,11.5S52,57.9,45.7,57.9z"/>
		<g>
			<path class="st2" d="M45.7,35.5c6,0,10.9,4.9,10.9,10.9s-4.9,10.9-10.9,10.9s-10.9-4.9-10.9-10.9S39.7,35.5,45.7,35.5 M45.7,34.4
				c-6.7,0-12.1,5.4-12.1,12.1S39,58.5,45.7,58.5s12.1-5.4,12.1-12.1S52.3,34.4,45.7,34.4L45.7,34.4z"/>
		</g>
	</g>
	<g>
		<path class="st8" d="M46.3,40.6v5.1h4.9V47h-4.9v5.1H45V47h-4.9v-1.3H45v-5.1H46.3z"/>
	</g>
</g>
</svg>
