<svg xmlns="http://www.w3.org/2000/svg" xmlns:xlink="http://www.w3.org/1999/xlink" viewBox="0 0 50 50"><defs><style>.cls-1{fill:#4cbed8;}.cls-2,.cls-3{fill:none;}.cls-2{clip-rule:evenodd;}.cls-4{isolation:isolate;}.cls-5{fill:#414042;}.cls-15,.cls-6{fill:#41464b;}.cls-7{clip-path:url(#clip-path);}.cls-8{mix-blend-mode:multiply;}.cls-9{fill:#4cbdd8;}.cls-10{fill:#f9d264;}.cls-11{fill:#f9bb7d;}.cls-12{fill:#fff;}.cls-13{fill:#ff7443;}.cls-14{fill:#fed65c;}.cls-15{stroke:#414042;stroke-linecap:round;stroke-linejoin:round;stroke-width:0.4px;}.cls-16{clip-path:url(#clip-path-2);}.cls-17{clip-path:url(#clip-path-3);}.cls-18{clip-path:url(#clip-path-4);}.cls-19{clip-path:url(#clip-path-5);}.cls-20{clip-path:url(#clip-path-6);}.cls-21{clip-path:url(#clip-path-8);}.cls-22{clip-path:url(#clip-path-9);}.cls-23{clip-path:url(#clip-path-10);}.cls-24{clip-path:url(#clip-path-11);}.cls-25{clip-path:url(#clip-path-12);}.cls-26{clip-path:url(#clip-path-13);}.cls-27{clip-path:url(#clip-path-14);}</style><clipPath id="clip-path"><polygon class="cls-1" points="38.1 13.14 24.91 16.36 19.82 20.64 13.05 18.97 8.11 22.55 8.11 29.69 38.1 29.69 38.1 13.14"/></clipPath><clipPath id="clip-path-2"><path class="cls-2" d="M4.69,41.87v-.58h.58a.39.39,0,0,0,.39-.4.38.38,0,0,0-.39-.39H4.69v-.58a.4.4,0,1,0-.79,0v.58H3.32a.39.39,0,0,0-.4.39.4.4,0,0,0,.4.4H3.9v.58a.4.4,0,0,0,.79,0"/></clipPath><clipPath id="clip-path-3"><rect class="cls-3" x="2.92" y="9.06" width="44.78" height="35.34"/></clipPath><clipPath id="clip-path-4"><path class="cls-2" d="M2.86,12H4.21a.46.46,0,0,0,0-.91H2.86a.46.46,0,0,0,0,.91"/></clipPath><clipPath id="clip-path-5"><rect class="cls-3" x="2.16" y="-0.49" width="44.78" height="35.34"/></clipPath><clipPath id="clip-path-6"><path class="cls-2" d="M6.32,10.78a.46.46,0,0,0,0-.91H4.7a.46.46,0,0,0,0,.91Z"/></clipPath><clipPath id="clip-path-8"><path class="cls-2" d="M25.7,8.55h.75V9.3a.39.39,0,0,0,.77,0V8.55H28a.39.39,0,0,0,.39-.39A.38.38,0,0,0,28,7.78h-.75V7a.39.39,0,0,0-.77,0v.76H25.7a.38.38,0,0,0-.39.38.39.39,0,0,0,.39.39"/></clipPath><clipPath id="clip-path-9"><rect class="cls-3" x="2.16" y="6.64" width="44.78" height="35.34"/></clipPath><clipPath id="clip-path-10"><path class="cls-2" d="M44.89,18.64h.45v.45a.38.38,0,1,0,.76,0v-.45h.46a.38.38,0,1,0,0-.76H46.1v-.46a.38.38,0,0,0-.76,0v.46h-.45a.38.38,0,1,0,0,.76"/></clipPath><clipPath id="clip-path-11"><rect class="cls-3" x="2.16" y="3.64" width="44.78" height="35.34"/></clipPath><clipPath id="clip-path-12"><path class="cls-2" d="M48.22,42.13a.43.43,0,0,0-.41-.45H45a.46.46,0,0,0,0,.91h2.84a.43.43,0,0,0,.41-.46"/></clipPath><clipPath id="clip-path-13"><rect class="cls-3" x="3.44" y="10.91" width="44.78" height="35.34"/></clipPath><clipPath id="clip-path-14"><path class="cls-2" d="M34.53,10.6H36.2a.47.47,0,0,0,0-.92H34.53a.47.47,0,0,0,0,.92"/></clipPath></defs><title>1</title><g class="cls-4"><g id="Layer_1" data-name="Layer 1"><path class="cls-5" d="M39.27,31.66h-.6V12.6a.79.79,0,0,0-.8-.8H7a.78.78,0,0,0-.57.24.8.8,0,0,0-.24.56V31.66H5.61V12.6a1.38,1.38,0,0,1,.41-1,1.41,1.41,0,0,1,1-.41H37.87a1.4,1.4,0,0,1,1.4,1.4Z"/><path class="cls-5" d="M39.38,31.77h-.82V12.6a.68.68,0,0,0-.21-.49.67.67,0,0,0-.48-.2H7a.71.71,0,0,0-.49.21.67.67,0,0,0-.2.48V31.77H5.49V12.6A1.52,1.52,0,0,1,7,11.09H37.87a1.54,1.54,0,0,1,1.07.44,1.5,1.5,0,0,1,.44,1.07Zm-.59-.23h.36V12.6a1.26,1.26,0,0,0-1.28-1.28H7a1.29,1.29,0,0,0-.91.37,1.31,1.31,0,0,0-.38.91V31.54h.37V12.6A1,1,0,0,1,6.36,12,.92.92,0,0,1,7,11.69H37.87a.94.94,0,0,1,.65.26,1,1,0,0,1,.27.65Z"/><path class="cls-5" d="M40.86,34.9H4a1.77,1.77,0,0,1-1.25-.52,1.73,1.73,0,0,1-.52-1.25V31.36H17.67l.78.85h8l.78-.85H42.63v1.77a1.78,1.78,0,0,1-1.77,1.77ZM2.85,32v1.18A1.16,1.16,0,0,0,4,34.3H40.86A1.16,1.16,0,0,0,42,33.13V32H27.47l-.78.86h-8.5L17.41,32Z"/><path class="cls-5" d="M40.86,35H4a1.88,1.88,0,0,1-1.33-.55,1.86,1.86,0,0,1-.55-1.33V31.24H17.73l.77.86h7.88l.77-.86H42.74v1.89a1.84,1.84,0,0,1-.55,1.33A1.9,1.9,0,0,1,40.86,35ZM2.36,31.47v1.66A1.66,1.66,0,0,0,4,34.78H40.86a1.64,1.64,0,0,0,1.65-1.65V31.47H27.26l-.78.85H18.4l-.78-.85Zm38.5,2.94H4a1.28,1.28,0,0,1-1.29-1.28V31.84H17.46l.78.85h8.4l.78-.85H42.15v1.29a1.28,1.28,0,0,1-1.29,1.28ZM3,32.07v1.06A1.06,1.06,0,0,0,4,34.19H40.86a1.08,1.08,0,0,0,1.06-1.06V32.07H27.52l-.78.85h-8.6l-.78-.85Z"/><rect class="cls-6" x="5.61" y="32.83" width="0.6" height="0.6"/><rect class="cls-6" x="6.8" y="32.83" width="0.6" height="0.6"/><rect class="cls-6" x="7.99" y="32.83" width="0.6" height="0.6"/><rect class="cls-6" x="36.29" y="32.83" width="2.98" height="0.6"/><polygon class="cls-1" points="38.1 13.14 24.91 16.36 19.82 20.64 13.05 18.97 8.11 22.55 8.11 29.69 38.1 29.69 38.1 13.14"/><g class="cls-7"><g class="cls-8"><rect class="cls-9" x="8.07" y="13.73" width="1.61" height="15.68"/><rect class="cls-9" x="11.29" y="13.73" width="1.61" height="15.68"/><rect class="cls-9" x="14.5" y="13.73" width="1.61" height="15.68"/><rect class="cls-9" x="17.72" y="13.73" width="1.61" height="15.68"/><rect class="cls-9" x="20.93" y="13.73" width="1.61" height="15.68"/><rect class="cls-9" x="24.15" y="13.73" width="1.61" height="15.68"/><rect class="cls-9" x="27.36" y="13.73" width="1.61" height="15.68"/><rect class="cls-9" x="30.58" y="13.73" width="1.61" height="15.68"/><rect class="cls-9" x="33.88" y="13.73" width="1.61" height="15.68"/><rect class="cls-9" x="37.09" y="12.87" width="1.61" height="16.54"/></g></g><path class="cls-10" d="M8.11,22.78a.25.25,0,0,1-.19-.09.21.21,0,0,1,0-.31l4.94-3.59a.31.31,0,0,1,.21,0l6.65,1.64,5-4.2.09,0,13-3.44a.24.24,0,0,1,.3.15.22.22,0,0,1-.16.28L25,16.56,20,20.81a.27.27,0,0,1-.23.05L13.1,19.22,8.26,22.73A.3.3,0,0,1,8.11,22.78Z"/><path class="cls-1" d="M8.39,13.54a.4.4,0,0,1-.4.4.4.4,0,0,1,0-.8A.4.4,0,0,1,8.39,13.54Z"/><path class="cls-1" d="M9.71,13.54a.39.39,0,0,1-.39.4.4.4,0,0,1,0-.8A.39.39,0,0,1,9.71,13.54Z"/><path class="cls-1" d="M11,13.54a.4.4,0,1,1-.39-.4A.4.4,0,0,1,11,13.54Z"/><circle class="cls-11" cx="8.11" cy="22.55" r="0.71"/><circle class="cls-11" cx="13.05" cy="18.97" r="0.71"/><circle class="cls-11" cx="19.82" cy="20.64" r="0.71" transform="translate(-0.12 0.12) rotate(-0.34)"/><circle class="cls-11" cx="25" cy="16.42" r="0.71" transform="translate(-0.1 0.15) rotate(-0.34)"/><circle class="cls-11" cx="33.04" cy="14.19" r="0.71" transform="translate(-0.08 0.2) rotate(-0.34)"/><polygon class="cls-12" points="42.02 23.19 32.97 23.19 32.97 38.22 44.15 38.22 44.15 25.32 42.02 23.19"/><rect class="cls-13" x="34.25" y="27.3" width="0.96" height="1.27"/><rect class="cls-13" x="35.52" y="25.73" width="0.96" height="1.65"/><rect class="cls-13" x="36.8" y="28.24" width="0.96" height="0.67"/><rect class="cls-13" x="38.07" y="26.23" width="0.96" height="0.69"/><rect class="cls-13" x="39.35" y="25.29" width="0.96" height="2.47"/><rect class="cls-13" x="40.62" y="27.69" width="0.96" height="0.84"/><rect class="cls-13" x="41.9" y="26.71" width="0.96" height="1.52"/><rect class="cls-14" x="34.25" y="28.88" width="0.96" height="0.63"/><rect class="cls-14" x="35.52" y="27.71" width="0.96" height="1.81"/><rect class="cls-14" x="36.8" y="29.23" width="0.96" height="0.29"/><rect class="cls-14" x="38.07" y="27.24" width="0.96" height="2.28"/><rect class="cls-14" x="39.35" y="28.07" width="0.96" height="1.45"/><rect class="cls-14" x="40.62" y="28.85" width="0.96" height="0.67"/><rect class="cls-14" x="41.9" y="28.55" width="0.96" height="0.97"/><path class="cls-6" d="M42.85,30.2h-.32v-.32h.32Zm-.64,0H41.9v-.32h.31Zm-.63,0h-.32v-.32h.32Zm-.64,0h-.32v-.32h.32Zm-.64,0H40v-.32h.32Zm-.64,0h-.31v-.32h.31Zm-.63,0h-.32v-.32H39Zm-.64,0h-.32v-.32h.32Zm-.64,0h-.32v-.32h.32Zm-.64,0H36.8v-.32h.31Zm-.63,0h-.32v-.32h.32Zm-.64,0h-.32v-.32h.32Zm-.64,0h-.32v-.32h.32Zm-.63,0h-.32v-.32h.32Z"/><polygon class="cls-15" points="44.31 38.41 32.79 38.41 32.79 38.09 43.99 38.09 43.99 25.2 41.99 23.2 33.11 23.2 33.11 38.22 32.79 38.22 32.79 22.88 42.12 22.88 44.31 25.07 44.31 38.41"/><polygon class="cls-15" points="44.15 25.3 41.9 25.3 41.9 23.04 42.21 23.04 42.21 24.98 44.15 24.98 44.15 25.3"/><rect class="cls-9" x="34.25" y="31.53" width="8.69" height="0.54" rx="0.07" ry="0.07"/><rect class="cls-9" x="34.25" y="32.78" width="8.69" height="0.54" rx="0.07" ry="0.07"/><rect class="cls-9" x="34.25" y="34.03" width="8.69" height="0.54" rx="0.07" ry="0.07"/><rect class="cls-9" x="34.25" y="35.28" width="8.69" height="0.54" rx="0.07" ry="0.07"/><rect class="cls-9" x="34.25" y="36.53" width="8.69" height="0.54" rx="0.07" ry="0.07"/><g class="cls-16"><g class="cls-17"><rect class="cls-5" x="1.4" y="38" width="5.79" height="5.79"/></g></g><g class="cls-18"><g class="cls-19"><rect class="cls-5" x="0.94" y="9.57" width="5.18" height="3.96"/></g></g><g class="cls-20"><g class="cls-19"><rect class="cls-5" x="2.77" y="8.35" width="5.48" height="3.96"/></g></g><g class="cls-21"><g class="cls-22"><rect class="cls-5" x="23.79" y="5.12" width="6.09" height="6.09"/></g></g><g class="cls-23"><g class="cls-24"><rect class="cls-5" x="42.98" y="15.52" width="5.48" height="5.48"/></g></g><g class="cls-25"><g class="cls-26"><rect class="cls-5" x="43.04" y="40.15" width="6.7" height="3.96"/></g></g><g class="cls-27"><g class="cls-22"><rect class="cls-5" x="32.62" y="8.16" width="5.48" height="3.96"/></g></g></g></g></svg>