<?xml version="1.0" encoding="utf-8"?>
<!-- Generator: Adobe Illustrator 23.0.1, SVG Export Plug-In . SVG Version: 6.00 Build 0)  -->
<svg version="1.1" id="Layer_1" xmlns="http://www.w3.org/2000/svg" xmlns:xlink="http://www.w3.org/1999/xlink" x="0px" y="0px"
	 viewBox="0 0 64 64" style="enable-background:new 0 0 64 64;" xml:space="preserve">
<style type="text/css">
	.Drop_x0020_Shadow{fill:none;}
	.Outer_x0020_Glow_x0020_5_x0020_pt{fill:none;}
	.Blue_x0020_Neon{fill:none;stroke:#8AACDA;stroke-width:7;stroke-linecap:round;stroke-linejoin:round;}
	.Chrome_x0020_Highlight{fill:url(#SVGID_1_);stroke:#FFFFFF;stroke-width:0.3629;stroke-miterlimit:1;}
	.Jive_GS{fill:#FFDD00;}
	.Alyssa_GS{fill:#A6D0E4;}
	.st0{fill:#FFFFFF;stroke:#171C28;stroke-linecap:round;stroke-linejoin:round;stroke-miterlimit:10;}
	.st1{fill:#FFFFFF;}
	.st2{fill:#171C28;}
	.st3{fill:none;stroke:#4C5C68;stroke-width:0.9106;stroke-miterlimit:10;}
	.st4{fill:none;stroke:#171C28;stroke-linecap:round;stroke-linejoin:round;stroke-miterlimit:10;}
	.st5{fill:none;stroke:#4C5C68;stroke-width:1.0828;stroke-linecap:round;stroke-linejoin:round;stroke-miterlimit:10;}
	.st6{fill:none;stroke:#4C5C68;stroke-width:1.1103;stroke-linecap:round;stroke-linejoin:round;stroke-miterlimit:10;}
	.st7{fill:#C74634;stroke:#171C28;stroke-linecap:round;stroke-linejoin:round;stroke-miterlimit:10;}
	.st8{fill:#C74634;}
	.st9{fill:#FFFFFF;stroke:#171C28;stroke-width:0.9273;stroke-linecap:round;stroke-linejoin:round;stroke-miterlimit:10;}
	.st10{fill:#4C5C68;}
	.st11{fill:#FFFFFF;stroke:#171C28;stroke-width:0.9403;stroke-linecap:round;stroke-linejoin:round;stroke-miterlimit:10;}
	.st12{fill:none;stroke:#4C5C68;stroke-linecap:round;stroke-linejoin:round;stroke-miterlimit:10;}
	.st13{fill:#CEE8FA;}
	.st14{fill:#CEE8FA;stroke:#4C5C68;stroke-linecap:round;stroke-linejoin:round;stroke-miterlimit:10;}
	.st15{fill:#F9CA38;stroke:#4C5C68;stroke-linecap:round;stroke-linejoin:round;stroke-miterlimit:10;}
	.st16{fill:#FFFFFF;stroke:#4C5C68;stroke-linecap:round;stroke-linejoin:round;stroke-miterlimit:10;}
	.st17{fill:#FFFFFF;stroke:#FEBD2E;stroke-linecap:round;stroke-linejoin:round;stroke-miterlimit:10;}
	.st18{fill:#FEBD2E;stroke:#4C5C68;stroke-linecap:round;stroke-linejoin:round;stroke-miterlimit:10;}
	.st19{fill:#286090;}
	.st20{fill:#F9CA38;}
	.st21{fill:#FFFFFF;stroke:#4C5C68;stroke-width:1.2173;stroke-linecap:round;stroke-linejoin:round;stroke-miterlimit:10;}
	.st22{fill:#FFFFFF;stroke:#4C5C68;stroke-width:0.8881;stroke-linecap:round;stroke-linejoin:round;stroke-miterlimit:10;}
	.st23{fill:none;stroke:#CEE8FA;stroke-width:1.0985;stroke-linecap:round;stroke-linejoin:round;stroke-miterlimit:10;}
	.st24{opacity:0.6;fill:#286090;}
	.st25{fill:none;stroke:#4C5C68;stroke-width:1.0254;stroke-linecap:round;stroke-linejoin:round;stroke-miterlimit:10;}
	.st26{fill:#FFFFFF;stroke:#4C5C68;stroke-miterlimit:10;}
	.st27{fill:none;stroke:#286090;stroke-linecap:round;stroke-linejoin:round;stroke-miterlimit:10;stroke-dasharray:0,2;}
	.st28{fill:none;stroke:#286090;stroke-linecap:round;stroke-linejoin:round;stroke-miterlimit:10;}
	.st29{fill:#FEBD2E;}
	.st30{fill:none;stroke:#CEE8FA;stroke-linecap:round;stroke-linejoin:round;stroke-miterlimit:10;}
	.st31{fill:#FFFFFF;stroke:#171C28;stroke-miterlimit:10;}
	.st32{fill:#FFFFFF;stroke:#171C28;stroke-width:1.0268;stroke-linecap:round;stroke-linejoin:round;stroke-miterlimit:10;}
	.st33{fill:none;stroke:#171C28;stroke-width:1.0268;stroke-linecap:round;stroke-linejoin:round;stroke-miterlimit:10;}
	.st34{fill:#6B6B6B;}
	.st35{fill:none;stroke:#FFFFFF;stroke-width:1.0985;stroke-linecap:round;stroke-linejoin:round;stroke-miterlimit:10;}
	.st36{fill:#FFFFFF;stroke:#171C28;stroke-width:1.0688;stroke-linecap:round;stroke-linejoin:round;stroke-miterlimit:10;}
	.st37{fill:none;stroke:#4C5C68;stroke-width:1.1073;stroke-linecap:round;stroke-linejoin:round;stroke-miterlimit:10;}
	.st38{fill:none;stroke:#4C5C68;stroke-width:1.0096;stroke-linecap:round;stroke-linejoin:round;stroke-miterlimit:10;}
	.st39{fill:#FFFFFF;stroke:#171C28;stroke-width:1.1331;stroke-linecap:round;stroke-linejoin:round;stroke-miterlimit:10;}
	.st40{fill:none;stroke:#171C28;stroke-linecap:round;stroke-linejoin:round;stroke-miterlimit:10;stroke-dasharray:0,2;}
	.st41{fill:none;stroke:#BC0110;stroke-linecap:round;stroke-linejoin:round;stroke-miterlimit:10;}
	.st42{fill:none;stroke:#333333;stroke-width:2;stroke-linecap:round;stroke-linejoin:round;stroke-miterlimit:10;}
	.st43{fill:#FFFFFF;stroke:#171C28;stroke-width:1.211;stroke-linecap:round;stroke-linejoin:round;stroke-miterlimit:10;}
	.st44{fill:#171C28;stroke:#000000;stroke-width:0.2;stroke-linecap:round;stroke-linejoin:round;stroke-miterlimit:10;}
	.st45{fill:#FFFFFF;stroke:#4C5C68;stroke-width:0.9531;stroke-linecap:round;stroke-linejoin:round;stroke-miterlimit:10;}
	.st46{fill:#5FB0E5;}
	.st47{fill:#D2E9F7;}
	.st48{fill:#0686D8;}
	.st49{fill:#9ECFEF;}
	.st50{fill:none;stroke:#4C5C68;stroke-miterlimit:10;}
	.st51{fill:#4C5C68;stroke:#4C5C68;stroke-width:0.4;stroke-linecap:round;stroke-linejoin:round;stroke-miterlimit:10;}
	.st52{fill:#FED65C;}
	.st53{fill:none;stroke:#FFFFFF;stroke-linecap:round;stroke-linejoin:round;stroke-miterlimit:10;}
	.st54{fill:#EBF0F2;}
	.st55{fill:#B8D1CD;}
	.st56{fill:#DCEAE7;}
	.st57{fill:#EFB19E;}
	.st58{fill:#CCED9F;}
	.st59{fill:#A4EDE6;}
	.st60{fill:#111416;}
	.st61{fill:#567771;}
	.st62{fill:#FACC40;}
	.st63{fill:#FFF380;}
	.st64{fill:#E2932B;}
	.st65{fill:#78A09A;}
	.st66{fill:#253330;}
	.st67{fill:#FFFFFF;stroke:#4C5C68;stroke-width:1.1677;stroke-linecap:round;stroke-linejoin:round;stroke-miterlimit:10;}
	.st68{fill:#FFFFFF;stroke:#4C5C68;stroke-width:1.1657;stroke-linecap:round;stroke-linejoin:round;stroke-miterlimit:10;}
	.st69{fill:#FFFFFF;stroke:#171C28;stroke-width:0.9983;stroke-linecap:round;stroke-linejoin:round;stroke-miterlimit:10;}
	.st70{fill:#FFFFFF;stroke:#171C28;stroke-width:1.0727;stroke-linecap:round;stroke-linejoin:round;stroke-miterlimit:10;}
	.st71{fill:#C74634;stroke:#FFFFFF;stroke-linecap:round;stroke-linejoin:round;stroke-miterlimit:10;}
	.st72{fill:#CEE8FA;stroke:#4C5C68;stroke-width:0.965;stroke-linecap:round;stroke-linejoin:round;stroke-miterlimit:10;}
	.st73{fill:#41464B;}
	.st74{fill:#FFFFFF;stroke:#171C28;stroke-width:1.1013;stroke-linecap:round;stroke-linejoin:round;stroke-miterlimit:10;}
	.st75{fill:none;stroke:#171C28;stroke-width:1.1013;stroke-linecap:round;stroke-linejoin:round;stroke-miterlimit:10;}
	.st76{fill:#C74634;stroke:#171C28;stroke-width:1.1013;stroke-linecap:round;stroke-linejoin:round;stroke-miterlimit:10;}
	.st77{stroke:#171C28;stroke-linecap:round;stroke-linejoin:round;stroke-miterlimit:10;}
	.st78{fill:#FFFFFF;stroke:#171C28;stroke-width:0.9891;stroke-linecap:round;stroke-linejoin:round;stroke-miterlimit:10;}
	.st79{fill:none;stroke:#171C28;stroke-width:0.5274;stroke-linecap:round;stroke-linejoin:round;stroke-miterlimit:10;}
	.st80{fill:none;stroke:#4C5C68;stroke-width:1.1135;stroke-linecap:round;stroke-linejoin:round;stroke-miterlimit:10;}
	.st81{fill:#F9CA38;stroke:#4C5C68;stroke-width:1.1723;stroke-miterlimit:10;}
	.st82{fill:none;stroke:#4C5C68;stroke-width:1.0796;stroke-linecap:round;stroke-linejoin:round;stroke-miterlimit:10;}
	.st83{fill:none;stroke:#4C5C68;stroke-width:1.136;stroke-linecap:round;stroke-linejoin:round;stroke-miterlimit:10;}
	.st84{fill:#FFFFFF;stroke:#4C5C68;stroke-width:1.0796;stroke-linecap:round;stroke-linejoin:round;stroke-miterlimit:10;}
	.st85{fill:#007395;}
	.st86{fill:#FFFFFF;stroke:#171C28;stroke-width:0.8477;stroke-linecap:round;stroke-linejoin:round;stroke-miterlimit:10;}
	.st87{fill:#FFFFFF;stroke:#171C28;stroke-width:1.0138;stroke-linecap:round;stroke-linejoin:round;stroke-miterlimit:10;}
	.st88{fill:#FFFFFF;stroke:#171C28;stroke-width:0.9779;stroke-linecap:round;stroke-linejoin:round;stroke-miterlimit:10;}
	.st89{fill:none;stroke:#595959;stroke-width:1.6811;stroke-linecap:round;stroke-linejoin:round;}
	.st90{fill:none;stroke:#595959;stroke-width:1.6811;stroke-miterlimit:10;}
</style>
<linearGradient id="SVGID_1_" gradientUnits="userSpaceOnUse" x1="-1166" y1="-842" x2="-1166" y2="-843">
	<stop  offset="0" style="stop-color:#656565"/>
	<stop  offset="0.618" style="stop-color:#1B1B1B"/>
	<stop  offset="0.6292" style="stop-color:#545454"/>
	<stop  offset="0.9831" style="stop-color:#3E3E3E"/>
</linearGradient>
<rect id="XMLID_1117_" x="12.1" y="15.1" transform="matrix(5.604146e-11 -1 1 5.604146e-11 1.2106 60.4267)" class="st0" width="37.5" height="29"/>
<g>
	<g>
		<path class="st0" d="M37.2,29c0,0.1,0,0.3-0.1,0.4c0.2,0.1,0.3,0.1,0.5,0.2c0.2,0.1,0.5,0.2,0.7,0.3c0.4,0.1,0.5,0.5,0.4,0.9
			c-0.1,0.4-0.3,0.8-0.4,1.2c-0.1,0.3-0.5,0.5-0.9,0.4c-0.4-0.1-0.7-0.3-1.1-0.4c-0.1,0-0.1,0-0.2,0.1c-0.3,0.5-0.8,1-1.2,1.4
			c-0.1,0.1-0.2,0.2-0.3,0.3c0.1,0.3,0.3,0.6,0.4,0.9c0,0.1,0.1,0.1,0.1,0.2c0.1,0.3,0,0.7-0.3,0.9c-0.4,0.2-0.8,0.4-1.2,0.5
			c-0.3,0.1-0.7,0-0.8-0.3c-0.2-0.4-0.3-0.7-0.5-1.1c0,0,0-0.1,0-0.1c-0.2,0-0.4,0.1-0.6,0.1c-0.1,0-0.2,0-0.3,0c0,0,0,0,0,0
			c-0.3,0-0.7,0-1,0c0,0-0.1,0-0.1,0c-0.1,0-0.1,0-0.2,0c-0.1,0-0.2,0-0.3,0c-0.1,0.3-0.2,0.6-0.3,0.9c0,0.1-0.1,0.2-0.1,0.3
			c-0.1,0.3-0.5,0.5-0.9,0.4c-0.4-0.1-0.8-0.3-1.2-0.4c-0.3-0.1-0.5-0.5-0.4-0.9c0.1-0.4,0.3-0.7,0.4-1.1c0-0.1,0-0.1-0.1-0.1
			c-0.4-0.3-0.8-0.6-1.1-0.9c-0.2-0.2-0.3-0.4-0.5-0.6c0,0,0,0-0.1-0.1c-0.3,0.1-0.6,0.3-0.9,0.4c-0.1,0.1-0.3,0.1-0.4,0.1
			c-0.3,0.1-0.6-0.1-0.7-0.4c-0.2-0.4-0.4-0.8-0.5-1.2c-0.1-0.3,0-0.7,0.3-0.8c0.4-0.2,0.7-0.3,1.1-0.5c0.1,0,0.1-0.1,0.1-0.2
			c0-0.2-0.1-0.5-0.1-0.7c0,0,0-0.1,0-0.1c0,0,0,0,0,0c0-0.2,0-0.5,0-0.7c0-0.3,0-0.5,0.1-0.8c-0.3-0.1-0.5-0.2-0.7-0.3
			c-0.1,0-0.3-0.1-0.4-0.1c-0.4-0.1-0.5-0.5-0.4-0.9c0.1-0.4,0.3-0.8,0.4-1.1c0.1-0.3,0.6-0.5,0.9-0.4c0.4,0.1,0.7,0.3,1.1,0.4
			c0,0,0.1,0,0.1,0c0.4-0.7,0.9-1.2,1.6-1.7c0,0,0,0,0,0c-0.1-0.3-0.3-0.6-0.4-0.9c0-0.1-0.1-0.2-0.1-0.2c-0.2-0.4,0-0.8,0.3-0.9
			c0.4-0.2,0.7-0.3,1.1-0.5c0.3-0.1,0.7,0,0.9,0.3c0.1,0.2,0.2,0.4,0.3,0.6c0.1,0.2,0.2,0.3,0.2,0.5c0,0.1,0.1,0.1,0.1,0.1
			c0.4,0,0.7-0.1,1.1-0.1c0.1,0,0.3,0,0.4,0c0,0,0.1,0,0.1,0c0.1,0,0.2,0,0.4,0c0.1,0,0.2,0,0.2,0c0.1,0,0.1,0,0.2-0.1
			c0.1-0.3,0.3-0.7,0.4-1c0.1-0.4,0.5-0.5,0.9-0.4c0.4,0.1,0.8,0.3,1.2,0.4c0.3,0.1,0.5,0.5,0.4,0.9c-0.1,0.4-0.3,0.7-0.4,1.1
			c0,0.1,0,0.1,0.1,0.1c0.4,0.3,0.8,0.6,1.1,0.9c0.2,0.2,0.4,0.4,0.5,0.6c0,0,0,0,0.1,0.1c0.2-0.1,0.4-0.2,0.6-0.3
			c0.2-0.1,0.4-0.2,0.6-0.3c0.3-0.1,0.6,0.1,0.7,0.4c0.2,0.4,0.4,0.8,0.5,1.2c0.1,0.3,0,0.7-0.3,0.8c-0.4,0.2-0.7,0.3-1.1,0.5
			c0,0-0.1,0-0.1,0.1c0,0.3,0.1,0.7,0.1,1c0,0,0,0,0,0.1c0,0.2,0,0.4,0,0.6C37.2,28.9,37.2,29,37.2,29z M30.8,23.9
			c-2.5,0-4.6,2.1-4.6,4.6c0,2.5,2.1,4.6,4.6,4.6c2.6,0,4.6-2,4.6-4.6C35.4,26,33.4,23.9,30.8,23.9z"/>
	</g>
	<path class="st0" d="M37.2,29c0,0.1,0,0.3-0.1,0.4c0.2,0.1,0.3,0.1,0.5,0.2c0.2,0.1,0.5,0.2,0.7,0.3c0.4,0.1,0.5,0.5,0.4,0.9
		c-0.1,0.4-0.3,0.8-0.4,1.2c-0.1,0.3-0.5,0.5-0.9,0.4c-0.4-0.1-0.7-0.3-1.1-0.4c-0.1,0-0.1,0-0.2,0.1c-0.3,0.5-0.8,1-1.2,1.4
		c-0.1,0.1-0.2,0.2-0.3,0.3c0.1,0.3,0.3,0.6,0.4,0.9c0,0.1,0.1,0.1,0.1,0.2c0.1,0.3,0,0.7-0.3,0.9c-0.4,0.2-0.8,0.4-1.2,0.5
		c-0.3,0.1-0.7,0-0.8-0.3c-0.2-0.4-0.3-0.7-0.5-1.1c0,0,0-0.1,0-0.1c-0.2,0-0.4,0.1-0.6,0.1c-0.1,0-0.2,0-0.3,0c0,0,0,0,0,0
		c-0.3,0-0.7,0-1,0c0,0-0.1,0-0.1,0c-0.1,0-0.1,0-0.2,0c-0.1,0-0.2,0-0.3,0c-0.1,0.3-0.2,0.6-0.3,0.9c0,0.1-0.1,0.2-0.1,0.3
		c-0.1,0.3-0.5,0.5-0.9,0.4c-0.4-0.1-0.8-0.3-1.2-0.4c-0.3-0.1-0.5-0.5-0.4-0.9c0.1-0.4,0.3-0.7,0.4-1.1c0-0.1,0-0.1-0.1-0.1
		c-0.4-0.3-0.8-0.6-1.1-0.9c-0.2-0.2-0.3-0.4-0.5-0.6c0,0,0,0-0.1-0.1c-0.3,0.1-0.6,0.3-0.9,0.4c-0.1,0.1-0.3,0.1-0.4,0.1
		c-0.3,0.1-0.6-0.1-0.7-0.4c-0.2-0.4-0.4-0.8-0.5-1.2c-0.1-0.3,0-0.7,0.3-0.8c0.4-0.2,0.7-0.3,1.1-0.5c0.1,0,0.1-0.1,0.1-0.2
		c0-0.2-0.1-0.5-0.1-0.7c0,0,0-0.1,0-0.1c0,0,0,0,0,0c0-0.2,0-0.5,0-0.7c0-0.3,0-0.5,0.1-0.8c-0.3-0.1-0.5-0.2-0.7-0.3
		c-0.1,0-0.3-0.1-0.4-0.1c-0.4-0.1-0.5-0.5-0.4-0.9c0.1-0.4,0.3-0.8,0.4-1.1c0.1-0.3,0.6-0.5,0.9-0.4c0.4,0.1,0.7,0.3,1.1,0.4
		c0,0,0.1,0,0.1,0c0.4-0.7,0.9-1.2,1.6-1.7c0,0,0,0,0,0c-0.1-0.3-0.3-0.6-0.4-0.9c0-0.1-0.1-0.2-0.1-0.2c-0.2-0.4,0-0.8,0.3-0.9
		c0.4-0.2,0.7-0.3,1.1-0.5c0.3-0.1,0.7,0,0.9,0.3c0.1,0.2,0.2,0.4,0.3,0.6c0.1,0.2,0.2,0.3,0.2,0.5c0,0.1,0.1,0.1,0.1,0.1
		c0.4,0,0.7-0.1,1.1-0.1c0.1,0,0.3,0,0.4,0c0,0,0.1,0,0.1,0c0.1,0,0.2,0,0.4,0c0.1,0,0.2,0,0.2,0c0.1,0,0.1,0,0.2-0.1
		c0.1-0.3,0.3-0.7,0.4-1c0.1-0.4,0.5-0.5,0.9-0.4c0.4,0.1,0.8,0.3,1.2,0.4c0.3,0.1,0.5,0.5,0.4,0.9c-0.1,0.4-0.3,0.7-0.4,1.1
		c0,0.1,0,0.1,0.1,0.1c0.4,0.3,0.8,0.6,1.1,0.9c0.2,0.2,0.4,0.4,0.5,0.6c0,0,0,0,0.1,0.1c0.2-0.1,0.4-0.2,0.6-0.3
		c0.2-0.1,0.4-0.2,0.6-0.3c0.3-0.1,0.6,0.1,0.7,0.4c0.2,0.4,0.4,0.8,0.5,1.2c0.1,0.3,0,0.7-0.3,0.8c-0.4,0.2-0.7,0.3-1.1,0.5
		c0,0-0.1,0-0.1,0.1c0,0.3,0.1,0.7,0.1,1c0,0,0,0,0,0.1c0,0.2,0,0.4,0,0.6C37.2,28.9,37.2,29,37.2,29z"/>
	<path class="st0" d="M30.8,24.9c2,0,3.6,1.6,3.6,3.6c0,2-1.6,3.6-3.6,3.6c-2,0-3.6-1.6-3.6-3.6C27.3,26.5,28.9,24.9,30.8,24.9z"/>
</g>
<line id="XMLID_1114_" class="st0" x1="27.2" y1="46.3" x2="32.4" y2="46.3"/>
<line id="XMLID_1113_" class="st0" x1="29.3" y1="13" x2="31.3" y2="13"/>
<path id="XMLID_1112_" class="st0" d="M11,50.3V35.4l3.5-4.7h5.4c0,0,1.1,1.1-0.4,2.9c0,0-3,0.4-3.4,2.3c-0.3,1.9,2.1,2.4,2.6,3.8
	c0.5,1.4,1.4,6.8-1.2,10.8L11,50.3z"/>
<polyline id="XMLID_1111_" class="st7" points="10,57.9 10,50.4 24.3,50.4 24.3,57.9 "/>
<g id="XMLID_916_">
	<path id="XMLID_1110_" class="st0" d="M54,42.6v-4.4c-2.1-2-4.2,0.1-4.2,0.1l0.7,2.2L38.2,40c-2.1-3.1-4-0.2-4-0.2v8.6l6.2,5.7v3.6
		l11.4-0.1v-3.5c0-0.8,2.1-4.1,2.1-4.1v-4.1"/>
	<path id="XMLID_1109_" class="st0" d="M51.9,57.8v-3.5c0-0.8,2.1-4.1,2.1-4.1v-4.1"/>
	<path id="XMLID_1108_" class="st0" d="M54,42.6v-4.4c-2.1-2-4.2,0.1-4.2,0.1l0.7,2.2L38.2,40c-2.1-3.1-4-0.2-4-0.2v8.6l6.2,5.7v3.6
		"/>
	<polygon id="XMLID_1107_" class="st1" points="39.5,38.5 41.8,36.2 43.9,35.7 46,36.6 47.5,36.1 49.3,36.5 49.1,37.5 52.3,40.8 
		48.2,43.3 40.6,43.3 39.1,42.3 	"/>
	<path id="XMLID_1106_" class="st0" d="M38.4,46.4V27.4c0,0-0.5-1.9,1.5-1.9c2.1,0,1.6,1.7,1.6,1.7v10.9"/>
	<path id="XMLID_1105_" class="st0" d="M41.8,36.1c0,0,1.8-1.8,3.9,0.2v1.8"/>
	<path id="XMLID_918_" class="st0" d="M46.4,37.1c0,0,1.3-2.1,3.4-0.1v2.2"/>
</g>
</svg>
