<?xml version="1.0" encoding="utf-8"?>
<!-- Generator: Adobe Illustrator 17.0.0, SVG Export Plug-In . SVG Version: 6.00 Build 0)  -->
<!DOCTYPE svg PUBLIC "-//W3C//DTD SVG 1.1//EN" "http://www.w3.org/Graphics/SVG/1.1/DTD/svg11.dtd">
<svg version="1.1" id="Layer_1" xmlns="http://www.w3.org/2000/svg" xmlns:xlink="http://www.w3.org/1999/xlink" x="0px" y="0px"
	 width="842.35px" height="595.3px" viewBox="0 0 842.35 595.3" enable-background="new 0 0 842.35 595.3" xml:space="preserve">
<g>
	<g>
		<rect x="533.587" y="506.183" fill="#EBEBEB" width="48.271" height="0.361"/>
	</g>
</g>
<g>
	<polygon fill="#FFB573" points="550.374,533.354 538.778,533.172 536.113,506.269 547.71,506.45 	"/>
	<polygon fill="#FFB573" points="610.036,533.396 598.438,533.396 589.402,506.538 601,506.538 	"/>
	<path fill="#263238" d="M596.89,532.053h14.14c0.474,0,0.885,0.329,0.987,0.792l2.291,10.309c0.238,1.069-0.603,2.081-1.698,2.063
		c-4.549-0.078-7.869-0.345-13.599-0.345c-3.525,0-14.156,0.366-19.024,0.366c-4.761,0-5.504-4.814-3.511-5.25
		c8.936-1.955,15.67-4.651,18.531-7.222C595.524,532.302,596.197,532.053,596.89,532.053z"/>
	<path fill="#263238" d="M538.88,531.83l12.664,0.199c0.474,0.008,0.879,0.343,0.975,0.808l2.129,10.344
		c0.221,1.072-0.606,2.072-1.701,2.036c-4.567-0.149-11.164-0.52-16.906-0.61c-6.714-0.105-12.518,0.17-20.391,0.047
		c-4.761-0.075-6.006-4.908-4.007-5.313c9.103-1.842,16.514-1.939,24.429-6.65C536.933,532.178,537.879,531.815,538.88,531.83z"/>
	<path fill="#FFB573" d="M546.001,187.752c-3.721,8.265-7.724,16.048-12.228,23.81c-2.245,3.861-4.589,7.693-7.125,11.451
		c-2.49,3.775-5.208,7.489-8.209,11.115l-1.15,1.357l-0.576,0.677c-0.201,0.233-0.328,0.399-0.732,0.827
		c-1.343,1.411-3.196,3.089-6.156,4.015c-1.43,0.463-3.074,0.619-4.552,0.482c-1.52-0.125-2.796-0.544-3.918-1.017
		c-2.181-0.983-3.635-2.191-4.813-3.315c-2.301-2.283-3.766-4.46-5.048-6.639c-1.272-2.172-2.322-4.314-3.287-6.451
		c-3.738-8.58-6.134-17.071-7.953-25.933l8.315-2.587c1.777,3.787,3.614,7.701,5.543,11.439c1.916,3.755,3.881,7.455,6.005,10.872
		c1.047,1.709,2.137,3.35,3.26,4.8c1.113,1.434,2.281,2.754,3.186,3.408c0.428,0.33,0.764,0.406,0.585,0.269
		c-0.113-0.087-0.339-0.173-0.77-0.25c-0.401-0.074-0.938-0.003-1.344,0.092c-0.871,0.278-1.004,0.488-0.908,0.3l1.615-2.217
		c4.602-6.506,8.809-13.815,12.79-21.225c3.982-7.388,7.854-15.095,11.472-22.565L546.001,187.752z"/>
	<g>
		<path fill="#407BFF" d="M550.828,180.483c3.127,10.638-18.887,39.642-18.887,39.642l-22.197-14.284
			c0,0,6.524-14.798,15.382-26.082C534.22,168.173,547.395,168.808,550.828,180.483z"/>
		<path opacity="0.2" d="M550.828,180.483c3.127,10.638-18.887,39.642-18.887,39.642l-22.197-14.284c0,0,6.524-14.798,15.382-26.082
			C534.22,168.173,547.395,168.808,550.828,180.483z"/>
	</g>
	<path opacity="0.2" d="M537.297,192.973c-4.566,1.951-11.285,12.946-14.781,21.096l9.421,6.054c0,0,8.481-11.169,14.16-22.194
		C543.12,194.663,539.71,191.947,537.297,192.973z"/>
	<path fill="#FFB573" d="M488.354,199.699l2.851-13.079l-13.202-0.102c0,0-3.525,9.823,3.566,14.411L488.354,199.699z"/>
	<polygon fill="#FFB573" points="489.701,174.355 479.122,178.167 478.004,186.518 491.205,186.62 	"/>
	<polygon opacity="0.2" points="536.116,506.276 537.488,520.143 549.089,520.325 547.718,506.458 	"/>
	<polygon opacity="0.2" points="601.005,506.545 589.402,506.545 594.066,520.389 605.669,520.389 	"/>
	<g>
		<path fill="#407BFF" d="M602.527,175.779c-12.493,44.055-9.973,90.817-11.101,100.279c-9.072-0.659-43.24-3.206-61.866-4.597
			c-8.114-66.012,8.127-99.928,8.127-99.928s3.977-0.773,9.387-1.328c1.697-0.174,3.526-0.327,5.432-0.426
			c1.053-0.063,2.122-0.097,3.206-0.119c6.999-0.114,18.428,0.997,26.302,1.96c1.648,0.205,3.328,0.453,4.95,0.718
			c1.507,0.257,2.985,0.531,4.377,0.809C597.654,174.405,602.527,175.779,602.527,175.779z"/>
		<path opacity="0.2" d="M602.527,175.779c-12.493,44.055-9.973,90.817-11.101,100.279c-9.072-0.659-43.24-3.206-61.866-4.597
			c-8.114-66.012,8.127-99.928,8.127-99.928s3.977-0.773,9.387-1.328c1.697-0.174,3.526-0.327,5.432-0.426
			c1.053-0.063,2.122-0.097,3.206-0.119c6.999-0.114,18.428,0.997,26.302,1.96c1.648,0.205,3.328,0.453,4.95,0.718
			c1.507,0.257,2.985,0.531,4.377,0.809C597.654,174.405,602.527,175.779,602.527,175.779z"/>
	</g>
	<path opacity="0.2" d="M589.328,194.678c-1.113,4.262,0.159,23.711,4.609,28.508c0.607-6.228,1.416-12.73,2.485-19.376
		L589.328,194.678z"/>
	<path fill="#FFB573" d="M581.607,141.812c-2.289,8.338-5.098,23.718,0.402,29.805c-4.939,4.229-11.344,9.063-21.418,8.669
		c-10.074-0.395-7.804-7.175-4.879-10.625c9.603-1.551,9.88-8.57,8.726-15.266L581.607,141.812z"/>
	<path fill="#263238" d="M581.088,169.218c0,0-4.157,6.86-20.893,11.046c2.771,2.56,4.116,8.621,4.116,8.621
		s21.834-5.268,21.172-17.494C584.339,170.242,581.088,169.218,581.088,169.218z"/>
	<path fill="#263238" d="M554.244,187.355c0,0,2.2-5.293,5.951-7.09c-1.744-1.815-4.375-7.273-2.799-11.287
		c-2.598-0.12-3.882,0.241-3.882,0.241S546.899,177.561,554.244,187.355z"/>
	
		<ellipse transform="matrix(0.9849 0.1731 -0.1731 0.9849 40.843 -93.8087)" fill="#263238" cx="558.37" cy="187.311" rx="1.124" ry="2.087"/>
	
		<ellipse transform="matrix(0.9964 0.0853 -0.0853 0.9964 18.5744 -46.8403)" fill="#263238" cx="557.369" cy="193.92" rx="1.124" ry="2.087"/>
	<path opacity="0.2" d="M574.608,146.946l-10.161,7.441c0.279,1.585,0.468,3.186,0.464,4.728c3.643-0.253,8.89-3.841,9.553-7.587
		C574.793,149.661,574.849,147.846,574.608,146.946z"/>
	<path fill="#263238" d="M558.4,110.279c-9.014-0.194-10.829,21.585-4.987,25.393C559.255,139.48,575.275,110.642,558.4,110.279z"/>
	<path fill="#FFB573" d="M583.562,129.153c-1.556,11.405-1.888,18.159-8.112,23.609c-9.363,8.198-23.114,1.898-24.997-9.741
		c-1.694-10.477,1.135-27.368,12.689-31.093C574.526,108.259,585.118,117.748,583.562,129.153z"/>
	<path fill="#263238" d="M581.927,140.321c-5.809,3.049-12.45-28.513,2.919-26.866C604.083,115.516,593.532,134.231,581.927,140.321
		z"/>
	<path fill="#263238" d="M556.193,113.392c0,7.062,22.928,14.084,30.794,11.676c7.867-2.408,9.83-8.597,5.619-13.004
		C585.462,104.589,556.193,99.542,556.193,113.392z"/>
	<path fill="#263238" d="M557.115,114.34c0,0,0.516,3.172,3.306,6.249c-2.047-0.119-4.089-3.027-4.739-4.72
		C555.033,114.176,557.115,114.34,557.115,114.34z"/>
	<path fill="#FFB573" d="M587.796,142.167c-1.821,2.513-4.633,3.951-7.158,4.312c-3.798,0.543-5.2-2.973-3.729-6.298
		c1.324-2.992,4.896-6.88,8.508-5.899C588.976,135.249,589.879,139.294,587.796,142.167z"/>
	<path fill="#263238" d="M533.184,517.397l19.636,0.299c0,0-6.549-77.571-4.78-113.668c0.539-10.981,2.744-26.34,5.645-42.8
		c3.664-20.74,5.426-29.013,10.164-55.225c3.379-18.69,6.381-31.514,6.381-31.514l-40.669-3.023c0,0-17.247,93.487-16.851,128.883
		C513.116,437.152,533.184,517.397,533.184,517.397z"/>
	<path opacity="0.2" d="M555.922,299.26c-7.311,18.206-7.456,60.86-4.089,72.867c0.578-3.555,1.199-7.196,1.85-10.895
		c3.67-20.749,5.433-29.014,10.172-55.225c0.087-0.52,0.188-1.026,0.275-1.532C561.615,302.266,558.855,300.402,555.922,299.26z"/>
	<path fill="#263238" d="M551.503,273.098c0,0,3.592,97.801,6.317,131.674c2.985,37.094,30.789,112.937,30.789,112.937h21.243
		c0,0-14.173-69.417-18.521-105.44c-4.952-41.033,0.089-136.2,0.089-136.2L551.503,273.098z"/>
	<polygon fill="#407BFF" points="586.067,518.168 611.081,518.168 611.081,510.695 583.119,510.209 	"/>
	<polygon fill="#407BFF" points="530.711,517.815 554.111,518.182 554.229,510.622 528.078,509.814 	"/>
	
		<ellipse transform="matrix(0.9972 0.0743 -0.0743 0.9972 11.2855 -41.5814)" fill="#263238" cx="564.841" cy="130.98" rx="1.107" ry="1.694"/>
	
		<ellipse transform="matrix(0.9972 0.0742 -0.0742 0.9972 11.187 -40.7652)" fill="#263238" cx="554.296" cy="130.196" rx="1.107" ry="1.694"/>
	<path fill="#ED893E" d="M558.718,130.991c0,0-2.522,5.224-5.05,7.647c1.536,1.663,4.394,1.168,4.394,1.168L558.718,130.991z"/>
	<path fill="#263238" d="M561.809,142.595c3.584-0.214,5.414-2.555,5.498-2.665c0.092-0.12,0.069-0.292-0.051-0.384
		c-0.12-0.092-0.293-0.069-0.385,0.051c-0.021,0.027-2.158,2.745-6.24,2.441c-0.151-0.011-0.283,0.102-0.294,0.254
		c-0.011,0.151,0.102,0.283,0.254,0.294C561.016,142.616,561.422,142.618,561.809,142.595z"/>
	<path fill="#263238" d="M569.45,127.899c0.091-0.005,0.182-0.034,0.265-0.087c0.255-0.165,0.328-0.505,0.163-0.76
		c-1.649-2.553-4.185-2.593-4.292-2.593c-0.304-0.002-0.551,0.244-0.552,0.547c-0.001,0.302,0.242,0.549,0.544,0.552l0,0
		c0.083,0.001,2.061,0.053,3.376,2.091C569.066,127.821,569.258,127.91,569.45,127.899z"/>
	<path fill="#263238" d="M551.127,126.313c0.178-0.011,0.347-0.107,0.443-0.272c1.219-2.097,3.191-2.241,3.275-2.246
		c0.302-0.018,0.533-0.277,0.516-0.579c-0.017-0.302-0.273-0.533-0.575-0.518c-0.109,0.008-2.639,0.164-4.166,2.792
		c-0.153,0.262-0.063,0.599,0.199,0.751C550.916,126.295,551.023,126.319,551.127,126.313z"/>
	<g>
		<path fill="#407BFF" d="M593.054,534.08c1.073,0,2.23-0.223,3.035-0.417c0.108-0.026,0.189-0.114,0.207-0.223
			c0.018-0.109-0.032-0.218-0.125-0.277c-0.422-0.264-4.164-2.562-5.446-1.904c-0.199,0.102-0.442,0.32-0.471,0.777
			c-0.039,0.615,0.153,1.103,0.568,1.452C591.347,533.929,592.172,534.08,593.054,534.08z M595.293,533.277
			c-1.969,0.395-3.484,0.323-4.118-0.209c-0.278-0.234-0.4-0.56-0.373-0.997c0.013-0.214,0.1-0.285,0.174-0.322
			C591.642,531.406,593.773,532.397,595.293,533.277z"/>
		<path fill="#407BFF" d="M596.025,533.671c0.052,0,0.104-0.015,0.15-0.044c0.085-0.055,0.132-0.152,0.124-0.252
			c-0.011-0.142-0.288-3.488-1.636-4.589c-0.351-0.287-0.745-0.406-1.17-0.353c0,0,0,0,0,0c-0.657,0.081-0.829,0.486-0.874,0.72
			c-0.245,1.293,2.075,3.834,3.275,4.485C595.935,533.66,595.98,533.671,596.025,533.671z M593.684,528.969
			c0.226,0,0.434,0.079,0.631,0.241c0.864,0.706,1.235,2.656,1.37,3.634c-1.193-0.906-2.671-2.826-2.526-3.59
			c0.013-0.07,0.044-0.233,0.401-0.277l0,0C593.602,528.972,593.643,528.969,593.684,528.969z"/>
		<path fill="#407BFF" d="M537.714,533.415c0.097-0.032,0.169-0.115,0.185-0.218c0.018-0.115-0.039-0.229-0.141-0.285
			c-0.522-0.281-5.147-2.717-6.568-1.954c-0.274,0.147-0.435,0.398-0.465,0.724v0c-0.05,0.547,0.116,0.999,0.494,1.344
			c1.254,1.146,4.585,0.742,6.459,0.398C537.69,533.422,537.702,533.419,537.714,533.415z M531.55,531.399
			c0.879-0.289,3.392,0.714,5.217,1.62c-2.567,0.385-4.474,0.244-5.178-0.399c-0.248-0.226-0.351-0.517-0.317-0.888
			c0.013-0.143,0.066-0.23,0.178-0.29C531.481,531.425,531.514,531.411,531.55,531.399z"/>
		<path fill="#407BFF" d="M537.714,533.415c0.025-0.008,0.049-0.02,0.071-0.035c0.08-0.056,0.125-0.15,0.117-0.247
			c-0.011-0.133-0.274-3.261-1.731-4.495c-0.444-0.377-0.954-0.543-1.516-0.495l0,0c-0.757,0.065-0.98,0.444-1.035,0.752
			c-0.233,1.308,2.501,3.859,3.891,4.509C537.576,533.433,537.648,533.437,537.714,533.415z M534.421,528.742
			c0.072-0.024,0.163-0.042,0.282-0.052l0,0c0.416-0.036,0.781,0.084,1.114,0.367c0.957,0.811,1.341,2.685,1.475,3.6
			c-1.415-0.881-3.269-2.881-3.13-3.666C534.17,528.941,534.193,528.817,534.421,528.742z M534.679,528.416l-0.006,0.002
			L534.679,528.416z"/>
	</g>
	<g>
		<path fill="#FFB573" d="M605.505,183.002c4.041,8.127,7.673,16.241,11.009,24.62c1.694,4.169,3.255,8.399,4.787,12.665
			c0.75,2.144,1.474,4.292,2.167,6.474l0.523,1.63l0.558,1.872c0.403,1.283,0.644,2.569,0.941,3.851
			c1.903,10.306,0.78,20.072-1.324,29.22c-1.07,4.583-2.456,9.029-4.067,13.361c-0.828,2.16-1.708,4.292-2.64,6.402
			c-0.933,2.135-1.896,4.142-3.07,6.309l-7.985-3.475c1.116-3.942,2.239-8.195,3.032-12.345c0.87-4.162,1.535-8.339,1.991-12.474
			c0.411-4.136,0.686-8.24,0.496-12.216c-0.108-3.978-0.64-7.815-1.595-11.326c-0.276-0.853-0.489-1.74-0.821-2.546
			c-0.167-0.431-0.272-0.776-0.482-1.278l-0.616-1.487c-0.804-1.983-1.687-3.958-2.526-5.944c-1.691-3.977-3.517-7.924-5.29-11.898
			l-10.904-23.743L605.505,183.002z"/>
		<g>
			<path fill="#407BFF" d="M602.524,175.78c10.582,3.314,20.987,39.194,20.987,39.194l-24.483,10.716c0,0-7.92-17.339-12.474-30.928
				C581.593,179.961,589.706,171.766,602.524,175.78z"/>
			<path opacity="0.2" d="M602.524,175.78c10.582,3.314,20.987,39.194,20.987,39.194l-24.483,10.716c0,0-7.92-17.339-12.474-30.928
				C581.593,179.961,589.706,171.766,602.524,175.78z"/>
		</g>
		<path fill="#FFB573" d="M607.054,283.925l-5.712,10.302l13.449,3.504c0,0,4.071-9.994-0.731-13.161L607.054,283.925z"/>
		<polygon fill="#FFB573" points="600.342,305.925 612.7,306.95 614.791,297.731 601.343,294.227 		"/>
	</g>
</g>
<g>
	<polygon opacity="0.19" fill="#407BFF" points="526.105,361.781 220.392,361.781 241.949,56.083 547.662,56.083 	"/>
	<polygon opacity="0.2" fill="#FFFFFF" points="289.279,361.781 245.3,361.781 354.838,56.083 398.817,56.083 	"/>
	<polygon opacity="0.2" fill="#FFFFFF" points="396.06,361.781 299.078,361.781 408.616,56.083 505.598,56.083 	"/>
	<g>
		<polygon fill="#00984A" points="242.768,108.289 233.811,107.657 237.765,51.594 293.84,51.594 293.84,60.572 246.132,60.572 		
			"/>
		<polygon fill="#00984A" points="272.283,366.27 215.575,366.27 219.572,309.589 228.53,310.221 225.209,357.291 272.283,357.291 
					"/>
		<polygon fill="#00984A" points="548.482,108.289 539.525,107.657 542.845,60.572 495.771,60.572 495.771,51.594 552.479,51.594 		
			"/>
		<polygon fill="#00984A" points="530.289,366.27 474.215,366.27 474.215,357.291 521.922,357.291 525.284,309.589 534.242,310.221 
					"/>
	</g>
	<g opacity="0.3">
		<path fill="#407BFF" d="M378.007,316.7c-0.263,0-0.525-0.065-0.762-0.194c-0.089-0.048-2.212-1.211-5.784-3.4
			c-1.503-0.913-3.271-2.023-5.246-3.287c-6.282-4.083-12.34-8.386-18.013-12.796c-1.373-1.072-2.752-2.168-4.154-3.303
			c-5.232-4.278-10.059-8.583-14.353-12.8c-1.105-1.089-2.19-2.189-3.276-3.314c-4.081-4.229-7.81-8.553-11.088-12.85
			c-0.841-1.087-1.65-2.195-2.444-3.316c-3.049-4.279-5.691-8.626-7.847-12.916c-0.555-1.083-1.095-2.216-1.599-3.356
			c-1.946-4.311-3.439-8.684-4.432-12.983c-0.253-1.021-0.481-2.131-0.696-3.37c-0.151-0.816-0.277-1.664-0.389-2.512
			c-0.436-3.304-0.821-6.677-1.181-10.314c-0.114-1.082-0.217-2.172-0.32-3.263c-0.377-4.278-0.686-8.572-0.917-12.788l-0.024-0.43
			c-0.056-0.961-0.111-1.914-0.155-2.867c-0.199-4.157-0.343-8.449-0.426-12.754l-0.041-3.281
			c-0.049-4.551-0.041-8.842,0.025-12.759c0.014-1.102,0.039-2.198,0.065-3.281c0.106-4.715,0.257-9.007,0.449-12.755l0.011-0.246
			c0.049-1.045,0.097-2.058,0.155-3.049c0.258-4.656,0.56-9.067,0.873-12.753c0.104-1.27,0.192-2.335,0.285-3.29
			c0.335-3.638,0.581-5.668,0.581-5.668c0.09-0.753,0.701-1.337,1.457-1.394c0.267-0.02,26.926-2.067,55.32-7.062
			c5.756-1.011,11.353-2.108,16.636-3.258c7.787-1.695,14.922-3.547,21.202-5.505c0.313-0.098,0.652-0.096,0.965,0.006
			c5.998,1.956,12.866,3.807,20.412,5.501c5.118,1.15,10.559,2.246,16.172,3.257c27.685,4.993,54.051,7.04,54.315,7.06
			c0.84,0.064,1.484,0.773,1.467,1.616c0,0-0.039,2.03-0.219,5.677c-0.044,0.975-0.107,2.074-0.179,3.288
			c-0.207,3.709-0.528,8.121-0.927,12.752c-0.075,0.919-0.162,1.857-0.251,2.822l-0.044,0.472c-0.343,3.78-0.797,8.071-1.35,12.752
			c-0.131,1.106-0.258,2.19-0.399,3.286c-0.49,3.937-1.087,8.228-1.774,12.749l-0.499,3.271c-0.697,4.343-1.446,8.634-2.228,12.768
			c-0.175,0.93-0.36,1.863-0.546,2.803l-0.099,0.495c-0.821,4.191-1.736,8.484-2.715,12.758c-0.258,1.103-0.517,2.2-0.787,3.297
			c-0.871,3.628-1.733,7-2.631,10.298c-0.231,0.845-0.477,1.689-0.745,2.52c-0.387,1.23-0.772,2.336-1.174,3.37
			c-1.587,4.265-3.69,8.623-6.242,12.933c-0.645,1.108-1.342,2.237-2.064,3.343c-2.746,4.265-5.99,8.6-9.637,12.874
			c-0.947,1.115-1.909,2.22-2.91,3.312c-3.859,4.274-8.191,8.588-12.867,12.817c-1.24,1.123-2.481,2.221-3.732,3.306
			c-4.886,4.214-10.313,8.512-16.132,12.779c-1.568,1.138-3.1,2.233-4.617,3.301c-6.293,4.408-12.951,8.706-19.79,12.778
			c-2.16,1.268-4.082,2.377-5.719,3.292c-3.869,2.183-6.151,3.343-6.247,3.391C378.499,316.643,378.254,316.7,378.007,316.7z
			 M300.315,128.473c-0.103,0.948-0.253,2.4-0.428,4.298c-0.092,0.949-0.178,1.998-0.272,3.156c-0.32,3.76-0.621,8.139-0.876,12.769
			c-0.058,0.985-0.104,1.986-0.154,3.02l-0.013,0.252c-0.189,3.723-0.34,7.985-0.446,12.672c-0.025,1.073-0.051,2.158-0.063,3.255
			c-0.066,3.894-0.073,8.156-0.024,12.674l0.04,3.269c0.082,4.263,0.224,8.525,0.422,12.654c0.044,0.943,0.099,1.884,0.154,2.834
			l0.025,0.435c0.23,4.185,0.535,8.444,0.907,12.663c0.103,1.084,0.205,2.164,0.318,3.245c0.357,3.611,0.741,6.951,1.171,10.22
			c0.104,0.793,0.221,1.587,0.367,2.368c0.205,1.183,0.419,2.221,0.659,3.191c0.951,4.12,2.378,8.293,4.243,12.427
			c0.484,1.095,0.996,2.172,1.53,3.212c2.09,4.157,4.645,8.364,7.603,12.514c0.772,1.089,1.555,2.161,2.375,3.221
			c3.21,4.209,6.859,8.439,10.855,12.58c1.067,1.107,2.135,2.188,3.217,3.256c4.225,4.147,8.979,8.387,14.13,12.6
			c1.383,1.118,2.747,2.203,4.102,3.262c5.6,4.353,11.583,8.603,17.782,12.631c1.943,1.243,3.689,2.34,5.18,3.246
			c2.303,1.411,4.012,2.399,4.919,2.913c0.968-0.508,2.836-1.505,5.378-2.939c1.626-0.909,3.528-2.007,5.66-3.258
			c6.763-4.027,13.354-8.282,19.579-12.643c1.501-1.058,3.022-2.143,4.57-3.268c5.746-4.213,11.106-8.459,15.926-12.616
			c1.232-1.067,2.455-2.15,3.679-3.258c4.597-4.158,8.853-8.397,12.649-12.598c0.979-1.071,1.916-2.146,2.84-3.234
			c3.559-4.169,6.716-8.387,9.392-12.542c0.698-1.07,1.366-2.151,1.99-3.223c2.462-4.158,4.483-8.345,6.012-12.454
			c0.384-0.989,0.746-2.031,1.116-3.206c0.258-0.796,0.49-1.594,0.707-2.392c0.89-3.265,1.744-6.606,2.609-10.213
			c0.271-1.095,0.526-2.179,0.78-3.263c0.971-4.233,1.877-8.493,2.692-12.654l0.1-0.499c0.184-0.929,0.367-1.85,0.541-2.772
			c0.776-4.107,1.52-8.369,2.211-12.671l0.497-3.258c0.683-4.491,1.276-8.754,1.764-12.668c0.14-1.09,0.267-2.163,0.391-3.224
			c0.555-4.689,1.006-8.951,1.346-12.705l0.044-0.476c0.089-0.956,0.175-1.885,0.25-2.795c0-0.002,0-0.004,0.001-0.006
			c0.395-4.601,0.713-8.979,0.919-12.663c0.072-1.203,0.135-2.286,0.179-3.254c0.086-1.769,0.14-3.151,0.172-4.099
			c-6.017-0.513-29.076-2.639-53.126-6.977c-5.657-1.019-11.142-2.124-16.305-3.284c-7.442-1.671-14.242-3.495-20.219-5.424
			c-6.25,1.93-13.307,3.755-20.986,5.426c-5.325,1.16-10.965,2.264-16.763,3.283C329.673,125.869,306.046,127.994,300.315,128.473z"
			/>
		<g>
			<path fill="#407BFF" d="M406.572,178.916c-0.738,10.472-9.826,18.961-20.298,18.961s-18.363-8.489-17.624-18.961
				c0.738-10.472,9.826-18.961,20.298-18.961C399.42,159.955,407.31,168.444,406.572,178.916z"/>
			<polygon fill="#407BFF" points="391.78,185.528 387.144,185.528 382.509,185.528 369.42,246.593 396.257,246.593 			"/>
		</g>
		<g opacity="0.2">
			<path fill="#407BFF" d="M429.186,119.913h-74.831c5.546-0.975,11.163-2.065,16.7-3.271h41.892
				C418.314,117.848,423.778,118.939,429.186,119.913z"/>
			<path fill="#407BFF" d="M483.266,135.896H298.023c0.098-1.206,0.188-2.296,0.282-3.271h185.14
				C483.402,133.6,483.338,134.69,483.266,135.896z"/>
			<path fill="#407BFF" d="M482.344,148.607c-0.088,1.065-0.19,2.155-0.295,3.284H296.984c0.054-1.129,0.105-2.219,0.168-3.284
				H482.344z"/>
			<path fill="#407BFF" d="M480.703,164.602c-0.127,1.077-0.255,2.168-0.397,3.271H296.473c0.014-1.103,0.039-2.193,0.064-3.271
				H480.703z"/>
			<path fill="#407BFF" d="M478.537,180.584c-0.167,1.09-0.332,2.168-0.5,3.271H296.488c-0.012-1.103-0.026-2.18-0.039-3.271
				H478.537z"/>
			<path fill="#407BFF" d="M475.819,196.566c-0.205,1.09-0.423,2.181-0.642,3.284H297.092c-0.064-1.103-0.128-2.193-0.179-3.284
				H475.819z"/>
			<path fill="#407BFF" d="M472.472,212.561c-0.256,1.09-0.513,2.18-0.782,3.271H298.324c-0.115-1.09-0.218-2.181-0.321-3.271
				H472.472z"/>
			<path fill="#407BFF" d="M468.344,228.543c-0.347,1.103-0.719,2.193-1.142,3.283H300.557c-0.269-1.09-0.488-2.18-0.679-3.283
				H468.344z"/>
			<path fill="#407BFF" d="M461.073,244.525c-0.642,1.103-1.323,2.206-2.027,3.284H306.459c-0.553-1.078-1.078-2.181-1.564-3.284
				H461.073z"/>
			<path fill="#407BFF" d="M449.53,260.52c-0.937,1.104-1.886,2.193-2.873,3.271H316.594c-0.835-1.078-1.63-2.168-2.412-3.271
				H449.53z"/>
			<path fill="#407BFF" d="M433.896,276.502c-1.233,1.116-2.464,2.207-3.707,3.284h-99.381c-1.091-1.077-2.169-2.168-3.244-3.284
				H433.896z"/>
			<path fill="#407BFF" d="M414.157,292.484c-1.555,1.129-3.081,2.22-4.592,3.284h-60.388c-1.361-1.064-2.734-2.155-4.129-3.284
				H414.157z"/>
			<path fill="#407BFF" d="M389.878,308.479c-2.141,1.257-4.053,2.36-5.682,3.271h-11.903c-1.5-0.911-3.257-2.014-5.221-3.271
				H389.878z"/>
		</g>
	</g>
</g>
</svg>
