<?xml version="1.0" encoding="utf-8"?>
<!-- Generator: Adobe Illustrator 23.0.1, SVG Export Plug-In . SVG Version: 6.00 Build 0)  -->
<svg version="1.1" id="Layer_1" xmlns="http://www.w3.org/2000/svg" xmlns:xlink="http://www.w3.org/1999/xlink" x="0px" y="0px"
	 viewBox="0 0 64 64" style="enable-background:new 0 0 64 64;" xml:space="preserve">
<style type="text/css">
	.Drop_x0020_Shadow{fill:none;}
	.Outer_x0020_Glow_x0020_5_x0020_pt{fill:none;}
	.Blue_x0020_Neon{fill:none;stroke:#8AACDA;stroke-width:7;stroke-linecap:round;stroke-linejoin:round;}
	.Chrome_x0020_Highlight{fill:url(#SVGID_1_);stroke:#FFFFFF;stroke-width:0.3629;stroke-miterlimit:1;}
	.Jive_GS{fill:#FFDD00;}
	.Alyssa_GS{fill:#A6D0E4;}
	.st0{fill:#FFFFFF;stroke:#171C28;stroke-linecap:round;stroke-linejoin:round;stroke-miterlimit:10;}
	.st1{fill:#FFFFFF;}
	.st2{fill:#171C28;}
	.st3{fill:none;stroke:#4C5C68;stroke-width:0.9106;stroke-miterlimit:10;}
	.st4{fill:none;stroke:#171C28;stroke-linecap:round;stroke-linejoin:round;stroke-miterlimit:10;}
	.st5{fill:none;stroke:#4C5C68;stroke-width:1.0828;stroke-linecap:round;stroke-linejoin:round;stroke-miterlimit:10;}
	.st6{fill:none;stroke:#4C5C68;stroke-width:1.1103;stroke-linecap:round;stroke-linejoin:round;stroke-miterlimit:10;}
	.st7{fill:#C74634;stroke:#171C28;stroke-linecap:round;stroke-linejoin:round;stroke-miterlimit:10;}
	.st8{fill:#C74634;}
	.st9{fill:#FFFFFF;stroke:#171C28;stroke-width:0.9273;stroke-linecap:round;stroke-linejoin:round;stroke-miterlimit:10;}
	.st10{fill:#4C5C68;}
	.st11{fill:#FFFFFF;stroke:#171C28;stroke-width:0.9403;stroke-linecap:round;stroke-linejoin:round;stroke-miterlimit:10;}
	.st12{fill:none;stroke:#4C5C68;stroke-linecap:round;stroke-linejoin:round;stroke-miterlimit:10;}
	.st13{fill:#CEE8FA;}
	.st14{fill:#CEE8FA;stroke:#4C5C68;stroke-linecap:round;stroke-linejoin:round;stroke-miterlimit:10;}
	.st15{fill:#F9CA38;stroke:#4C5C68;stroke-linecap:round;stroke-linejoin:round;stroke-miterlimit:10;}
	.st16{fill:#FFFFFF;stroke:#4C5C68;stroke-linecap:round;stroke-linejoin:round;stroke-miterlimit:10;}
	.st17{fill:#FFFFFF;stroke:#FEBD2E;stroke-linecap:round;stroke-linejoin:round;stroke-miterlimit:10;}
	.st18{fill:#FEBD2E;stroke:#4C5C68;stroke-linecap:round;stroke-linejoin:round;stroke-miterlimit:10;}
	.st19{fill:#286090;}
	.st20{fill:#F9CA38;}
	.st21{fill:#FFFFFF;stroke:#4C5C68;stroke-width:1.2173;stroke-linecap:round;stroke-linejoin:round;stroke-miterlimit:10;}
	.st22{fill:#FFFFFF;stroke:#4C5C68;stroke-width:0.8881;stroke-linecap:round;stroke-linejoin:round;stroke-miterlimit:10;}
	.st23{fill:none;stroke:#CEE8FA;stroke-width:1.0985;stroke-linecap:round;stroke-linejoin:round;stroke-miterlimit:10;}
	.st24{opacity:0.6;fill:#286090;}
	.st25{fill:none;stroke:#4C5C68;stroke-width:1.0254;stroke-linecap:round;stroke-linejoin:round;stroke-miterlimit:10;}
	.st26{fill:#FFFFFF;stroke:#4C5C68;stroke-miterlimit:10;}
	.st27{fill:none;stroke:#286090;stroke-linecap:round;stroke-linejoin:round;stroke-miterlimit:10;stroke-dasharray:0,2;}
	.st28{fill:none;stroke:#286090;stroke-linecap:round;stroke-linejoin:round;stroke-miterlimit:10;}
	.st29{fill:#FEBD2E;}
	.st30{fill:none;stroke:#CEE8FA;stroke-linecap:round;stroke-linejoin:round;stroke-miterlimit:10;}
	.st31{fill:#FFFFFF;stroke:#171C28;stroke-miterlimit:10;}
	.st32{fill:#FFFFFF;stroke:#171C28;stroke-width:1.0268;stroke-linecap:round;stroke-linejoin:round;stroke-miterlimit:10;}
	.st33{fill:none;stroke:#171C28;stroke-width:1.0268;stroke-linecap:round;stroke-linejoin:round;stroke-miterlimit:10;}
	.st34{fill:#6B6B6B;}
	.st35{fill:none;stroke:#FFFFFF;stroke-width:1.0985;stroke-linecap:round;stroke-linejoin:round;stroke-miterlimit:10;}
	.st36{fill:#FFFFFF;stroke:#171C28;stroke-width:1.0688;stroke-linecap:round;stroke-linejoin:round;stroke-miterlimit:10;}
	.st37{fill:none;stroke:#4C5C68;stroke-width:1.1073;stroke-linecap:round;stroke-linejoin:round;stroke-miterlimit:10;}
	.st38{fill:none;stroke:#4C5C68;stroke-width:1.0096;stroke-linecap:round;stroke-linejoin:round;stroke-miterlimit:10;}
	.st39{fill:#FFFFFF;stroke:#171C28;stroke-width:1.1331;stroke-linecap:round;stroke-linejoin:round;stroke-miterlimit:10;}
	.st40{fill:none;stroke:#171C28;stroke-linecap:round;stroke-linejoin:round;stroke-miterlimit:10;stroke-dasharray:0,2;}
	.st41{fill:none;stroke:#BC0110;stroke-linecap:round;stroke-linejoin:round;stroke-miterlimit:10;}
	.st42{fill:none;stroke:#333333;stroke-width:2;stroke-linecap:round;stroke-linejoin:round;stroke-miterlimit:10;}
	.st43{fill:#FFFFFF;stroke:#171C28;stroke-width:1.211;stroke-linecap:round;stroke-linejoin:round;stroke-miterlimit:10;}
	.st44{fill:#171C28;stroke:#000000;stroke-width:0.2;stroke-linecap:round;stroke-linejoin:round;stroke-miterlimit:10;}
	.st45{fill:#FFFFFF;stroke:#4C5C68;stroke-width:0.9531;stroke-linecap:round;stroke-linejoin:round;stroke-miterlimit:10;}
	.st46{fill:#5FB0E5;}
	.st47{fill:#D2E9F7;}
	.st48{fill:#0686D8;}
	.st49{fill:#9ECFEF;}
	.st50{fill:none;stroke:#4C5C68;stroke-miterlimit:10;}
	.st51{fill:#4C5C68;stroke:#4C5C68;stroke-width:0.4;stroke-linecap:round;stroke-linejoin:round;stroke-miterlimit:10;}
	.st52{fill:#FED65C;}
	.st53{fill:none;stroke:#FFFFFF;stroke-linecap:round;stroke-linejoin:round;stroke-miterlimit:10;}
	.st54{fill:#EBF0F2;}
	.st55{fill:#B8D1CD;}
	.st56{fill:#DCEAE7;}
	.st57{fill:#EFB19E;}
	.st58{fill:#CCED9F;}
	.st59{fill:#A4EDE6;}
	.st60{fill:#111416;}
	.st61{fill:#567771;}
	.st62{fill:#FACC40;}
	.st63{fill:#FFF380;}
	.st64{fill:#E2932B;}
	.st65{fill:#78A09A;}
	.st66{fill:#253330;}
	.st67{fill:#FFFFFF;stroke:#4C5C68;stroke-width:1.1677;stroke-linecap:round;stroke-linejoin:round;stroke-miterlimit:10;}
	.st68{fill:#FFFFFF;stroke:#4C5C68;stroke-width:1.1657;stroke-linecap:round;stroke-linejoin:round;stroke-miterlimit:10;}
	.st69{fill:#FFFFFF;stroke:#171C28;stroke-width:0.9983;stroke-linecap:round;stroke-linejoin:round;stroke-miterlimit:10;}
	.st70{fill:#FFFFFF;stroke:#171C28;stroke-width:1.0727;stroke-linecap:round;stroke-linejoin:round;stroke-miterlimit:10;}
	.st71{fill:#C74634;stroke:#FFFFFF;stroke-linecap:round;stroke-linejoin:round;stroke-miterlimit:10;}
	.st72{fill:#CEE8FA;stroke:#4C5C68;stroke-width:0.965;stroke-linecap:round;stroke-linejoin:round;stroke-miterlimit:10;}
	.st73{fill:#41464B;}
	.st74{fill:#FFFFFF;stroke:#171C28;stroke-width:1.1013;stroke-linecap:round;stroke-linejoin:round;stroke-miterlimit:10;}
	.st75{fill:none;stroke:#171C28;stroke-width:1.1013;stroke-linecap:round;stroke-linejoin:round;stroke-miterlimit:10;}
	.st76{fill:#C74634;stroke:#171C28;stroke-width:1.1013;stroke-linecap:round;stroke-linejoin:round;stroke-miterlimit:10;}
	.st77{stroke:#171C28;stroke-linecap:round;stroke-linejoin:round;stroke-miterlimit:10;}
	.st78{fill:#FFFFFF;stroke:#171C28;stroke-width:0.9891;stroke-linecap:round;stroke-linejoin:round;stroke-miterlimit:10;}
	.st79{fill:none;stroke:#171C28;stroke-width:0.5274;stroke-linecap:round;stroke-linejoin:round;stroke-miterlimit:10;}
	.st80{fill:none;stroke:#4C5C68;stroke-width:1.1135;stroke-linecap:round;stroke-linejoin:round;stroke-miterlimit:10;}
	.st81{fill:#F9CA38;stroke:#4C5C68;stroke-width:1.1723;stroke-miterlimit:10;}
	.st82{fill:none;stroke:#4C5C68;stroke-width:1.0796;stroke-linecap:round;stroke-linejoin:round;stroke-miterlimit:10;}
	.st83{fill:none;stroke:#4C5C68;stroke-width:1.136;stroke-linecap:round;stroke-linejoin:round;stroke-miterlimit:10;}
	.st84{fill:#FFFFFF;stroke:#4C5C68;stroke-width:1.0796;stroke-linecap:round;stroke-linejoin:round;stroke-miterlimit:10;}
	.st85{fill:#007395;}
	.st86{fill:#FFFFFF;stroke:#171C28;stroke-width:0.8477;stroke-linecap:round;stroke-linejoin:round;stroke-miterlimit:10;}
	.st87{fill:#FFFFFF;stroke:#171C28;stroke-width:1.0138;stroke-linecap:round;stroke-linejoin:round;stroke-miterlimit:10;}
	.st88{fill:#FFFFFF;stroke:#171C28;stroke-width:0.9779;stroke-linecap:round;stroke-linejoin:round;stroke-miterlimit:10;}
	.st89{fill:none;stroke:#595959;stroke-width:1.6811;stroke-linecap:round;stroke-linejoin:round;}
	.st90{fill:none;stroke:#595959;stroke-width:1.6811;stroke-miterlimit:10;}
</style>
<linearGradient id="SVGID_1_" gradientUnits="userSpaceOnUse" x1="-434.9593" y1="-1207.0479" x2="-434.9593" y2="-1208.0479">
	<stop  offset="0" style="stop-color:#656565"/>
	<stop  offset="0.618" style="stop-color:#1B1B1B"/>
	<stop  offset="0.6292" style="stop-color:#545454"/>
	<stop  offset="0.9831" style="stop-color:#3E3E3E"/>
</linearGradient>
<g>
	<path class="st0" d="M52.5,32C50.9,47.7,43.3,60.6,32,60.6S13.4,47.7,11.6,32c-1-8.9,1.9-16.8,6.6-22.1C22,5.8,26.9,3.4,32,3.4
		c4.7,0,9.4,2,13.2,6.1C50.1,14.7,53.3,23.2,52.5,32z"/>
	<g>
		<path class="st2" d="M15.6,42.9c9.3,0,18.6-5.9,21.3-13.4c0.7-2.1,1.1-4.2,1-6.3c-0.2-3.4-2.2-5.8-5.2-6.1
			c-3.2-0.3-5.7,1.5-6.5,4.8c-1,4.3-2.6,6.7-5.3,8.2c-1,0.6-2.2,0.7-3.5,0.9c-0.9,0.1-1.8,0.3-2.7,0.5c-0.2,0.1-0.4,0.2-0.5,0.4
			c-0.1,0.2-0.1,0.4,0,0.6c0.1,0.4,0.6,0.6,1,0.5c0.8-0.2,1.6-0.4,2.4-0.5c1.3-0.2,2.7-0.4,4-1.1c4-2.1,5.3-5.8,6.1-9.2
			c0.6-2.5,2.4-3.9,4.8-3.6c2.2,0.2,3.7,2,3.8,4.7c0.1,1.9-0.2,3.8-0.9,5.7C33,36,24.3,41.4,15.6,41.4l-0.4,0c0,0,0,0-0.1,0
			c-0.2,0-0.3,0.1-0.5,0.2c-0.2,0.1-0.3,0.4-0.3,0.6c0,0.2,0.1,0.4,0.2,0.5c0.1,0.1,0.3,0.2,0.5,0.2L15.6,42.9z"/>
		<path class="st8" d="M14.5,42.1c0-0.2,0.1-0.4,0.3-0.6c0.1-0.1,0.3-0.2,0.5-0.2c0,0,0,0,0.1,0l0.4,0C24.3,41.4,33,36,35.4,29
			c0.7-1.9,1-3.8,0.9-5.7c-0.1-2.6-1.6-4.4-3.8-4.7c-2.4-0.3-4.2,1.1-4.8,3.6c-0.8,3.3-2.2,7.1-6.1,9.2c-1.3,0.7-2.6,0.9-4,1.1
			c-0.9,0.1-1.7,0.2-2.4,0.5c-0.4,0.1-0.8-0.1-1-0.5c-0.1-0.2,0-0.4,0-0.6c0.1-0.2,0.3-0.3,0.5-0.4c0.9-0.3,1.8-0.4,2.7-0.5
			c1.2-0.2,2.4-0.4,3.5-0.9c2.8-1.5,4.3-3.8,5.3-8.2c0.8-3.2,3.3-5.1,6.5-4.8c3,0.3,5,2.7,5.2,6.1c0.1,2.1-0.2,4.2-1,6.3
			c-2.7,7.5-12,13.4-21.3,13.4l-0.4,0c-0.2,0-0.4-0.1-0.5-0.2C14.6,42.5,14.5,42.4,14.5,42.1z"/>
		<path class="st2" d="M49.5,36.6c-5-1-6.9-3.6-6.6-8.8l0-0.7c0.2-4.1,0.5-8.7-3.5-12.2c-2.9-2.5-6.8-3.5-10.4-2.6
			c-3.5,0.9-6.3,3.5-7.6,7.1c-0.2,0.5-0.3,1.1-0.5,1.7c-0.2,0.7-0.4,1.5-0.7,2.1c-0.9,1.9-2.5,2.7-4.9,2.6c-0.2,0-0.4,0.1-0.6,0.2
			c-0.2,0.1-0.2,0.3-0.3,0.5c0,0.2,0.1,0.4,0.2,0.6c0.1,0.2,0.3,0.2,0.5,0.3c3,0.2,5.2-1,6.4-3.4c0.4-0.8,0.6-1.6,0.8-2.4l0-0.2
			c0.1-0.5,0.3-1,0.4-1.4c1.2-3.2,3.5-5.4,6.6-6.2c0.8-0.2,1.5-0.3,2.3-0.3c2.4,0,4.7,0.9,6.6,2.6c3.4,3,3.2,6.9,3,11l0,0.7
			c-0.3,6,2.1,9.2,7.8,10.4c0.4,0.1,0.8-0.2,0.9-0.6C50.2,37.1,49.9,36.7,49.5,36.6z"/>
		<path class="st8" d="M50.1,37.5c-0.1,0.4-0.5,0.7-0.9,0.6c-5.7-1.2-8.1-4.4-7.8-10.4l0-0.7c0.2-4.1,0.4-8-3-11
			c-1.9-1.7-4.3-2.6-6.6-2.6c-0.8,0-1.6,0.1-2.3,0.3c-3.1,0.8-5.4,3-6.6,6.2c-0.2,0.5-0.3,1-0.4,1.4l0,0.2c-0.2,0.8-0.4,1.6-0.8,2.4
			c-1.2,2.5-3.4,3.7-6.4,3.4c-0.2,0-0.4-0.1-0.5-0.3c-0.1-0.2-0.2-0.4-0.2-0.6c0-0.2,0.1-0.4,0.3-0.5c0.2-0.1,0.3-0.2,0.6-0.2
			c2.4,0.2,4-0.7,4.9-2.6c0.3-0.7,0.5-1.4,0.7-2.1c0.2-0.6,0.3-1.2,0.5-1.7c1.3-3.6,4.1-6.2,7.6-7.1c3.6-0.9,7.5,0.1,10.4,2.6
			c4,3.5,3.7,8.1,3.5,12.2l0,0.7c-0.3,5.2,1.7,7.8,6.6,8.8C49.9,36.7,50.2,37.1,50.1,37.5z"/>
		<path class="st2" d="M50.3,31.8c-0.1-0.2-0.3-0.3-0.5-0.4c-2.2-0.6-2.2-2.1-1.8-4.5l0.1-0.4c0.5-3.1,0.4-5.5-0.2-7.5
			C45.6,11.5,39.6,7,32,6.8C26.5,6.7,19.1,9.5,16.3,18l-0.9,2.7c-0.1,0.2,0,0.4,0,0.6c0.1,0.2,0.2,0.3,0.4,0.4
			c0.4,0.1,0.8-0.1,1-0.5l0.9-2.7c2.5-7.5,8.9-10.2,13.8-10.2c0.1,0,0.2,0,0.4,0c7,0.2,12.3,4.2,14.4,11.1c0.6,1.7,0.6,4,0.2,6.8
			l-0.1,0.4c-0.3,1.9-0.8,5.2,2.9,6.3c0.4,0.1,0.8-0.1,0.9-0.5C50.5,32.1,50.4,31.9,50.3,31.8z"/>
		<path class="st2" d="M49.5,32.9c-3.7-1.1-3.2-4.3-2.9-6.3l0.1-0.4c0.4-2.8,0.4-5.1-0.2-6.8C44.3,12.5,39,8.5,32,8.3
			c-0.1,0-0.2,0-0.4,0c-4.9,0-11.3,2.6-13.8,10.2l-0.9,2.7c-0.1,0.4-0.6,0.6-1,0.5c-0.2-0.1-0.4-0.2-0.4-0.4c-0.1-0.2-0.1-0.4,0-0.6
			l0.9-2.7C19.1,9.5,26.5,6.7,32,6.8c7.6,0.2,13.5,4.8,15.9,12.1c0.6,2,0.7,4.4,0.2,7.5l-0.1,0.4c-0.4,2.4-0.4,3.9,1.8,4.5
			c0.2,0.1,0.4,0.2,0.5,0.4c0.1,0.2,0.1,0.4,0.1,0.6C50.3,32.7,49.8,33,49.5,32.9z"/>
		<path class="st2" d="M47.7,47.2c0.1-0.2,0.1-0.4,0-0.6c-0.2-0.4-0.6-0.6-1-0.4c-1.4,0.6-2.8-0.1-4-0.9c-3-1.9-5.9-2.6-8.7-2.6
			c-3,0-5.8,0.8-8.2,1.6c-2,0.7-4,1.2-6.1,1.7c-1,0.2-1.9,0.5-2.8,0.7c-0.2,0.1-0.4,0.2-0.5,0.4s-0.1,0.4-0.1,0.6
			c0.1,0.4,0.6,0.6,0.9,0.5c0.9-0.2,1.9-0.5,2.8-0.7c2.1-0.5,4.2-1,6.2-1.7c6.5-2.3,11.1-2.1,15.5,0.8c1.4,0.9,3.4,1.9,5.5,1
			C47.5,47.6,47.6,47.4,47.7,47.2z"/>
		<path class="st2" d="M41.8,46.6c-4.4-2.9-9.1-3.1-15.5-0.8c-2,0.7-4.2,1.2-6.2,1.7c-0.9,0.2-1.9,0.5-2.8,0.7
			c-0.4,0.1-0.8-0.1-0.9-0.5c-0.1-0.2,0-0.4,0.1-0.6s0.3-0.3,0.5-0.4c0.9-0.3,1.9-0.5,2.8-0.7c2-0.5,4.1-1,6.1-1.7
			c2.4-0.9,5.2-1.6,8.2-1.6c2.8,0,5.7,0.7,8.7,2.6c1.2,0.8,2.6,1.5,4,0.9c0.4-0.2,0.8,0,1,0.4c0.1,0.2,0.1,0.4,0,0.6
			c-0.1,0.2-0.2,0.3-0.4,0.4C45.2,48.5,43.2,47.6,41.8,46.6z"/>
		<path class="st2" d="M44.7,51.7c0-0.4-0.4-0.7-0.8-0.7c-1.6,0.1-3-0.7-3.7-1.1c-3.4-2.2-7.4-2.4-12-0.9c-1.5,0.5-3,0.9-4.7,1.3
			l-0.2,0c-1,0.2-2,0.5-2.9,0.7c-0.2,0.1-0.4,0.2-0.5,0.4c-0.1,0.2-0.1,0.4-0.1,0.6c0.1,0.2,0.2,0.4,0.4,0.5
			c0.2,0.1,0.4,0.1,0.6,0.1c1-0.3,1.9-0.5,2.9-0.7l0.1,0c1.5-0.4,3.2-0.7,4.8-1.3c1.8-0.6,3.5-0.9,5.1-0.9c2.1,0,3.9,0.5,5.7,1.6
			c1,0.6,2.6,1.4,4.4,1.4l0.2,0C44.4,52.5,44.8,52.1,44.7,51.7z"/>
		<path class="st2" d="M39.4,51.1c-1.7-1.1-3.6-1.6-5.7-1.6c-1.6,0-3.2,0.3-5.1,0.9c-1.6,0.6-3.3,1-4.8,1.3l-0.1,0
			c-1,0.2-1.9,0.4-2.9,0.7c-0.2,0.1-0.4,0-0.6-0.1c-0.2-0.1-0.3-0.3-0.4-0.5c-0.1-0.2,0-0.4,0.1-0.6c0.1-0.2,0.3-0.3,0.5-0.4
			c1-0.3,2-0.5,2.9-0.7l0.2,0c1.6-0.4,3.1-0.7,4.7-1.3c4.7-1.6,8.6-1.3,12,0.9c0.7,0.4,2.1,1.2,3.7,1.1c0.4,0,0.8,0.3,0.8,0.7
			c0,0.4-0.3,0.8-0.8,0.8l-0.2,0C42,52.5,40.4,51.8,39.4,51.1z"/>
		<path class="st2" d="M14.8,36.9c-0.1,0.2,0,0.4,0.1,0.6c0.1,0.2,0.3,0.3,0.5,0.4c0.9,0.2,1.8,0,2.5-0.3c0.3-0.1,0.6-0.2,0.8-0.3
			c6.3-1.4,12.8-3.9,13.7-12.4l0.1-0.5l0.5,0c0.2,0,0.4,0,0.5-0.1c0.4-0.2,0.6-0.6,0.5-1c-0.1-0.2-0.2-0.4-0.4-0.5
			c-0.1-0.1-0.3-0.1-0.5,0l-0.1,0l-0.1,0c-0.3-0.1-0.8-0.1-1.3,0.2c-0.3,0.2-0.5,0.6-0.5,1.1c-0.6,7.5-5.5,10-12.6,11.6
			c-0.3,0.1-0.7,0.2-1,0.3c-0.6,0.2-1.1,0.4-1.6,0.3c-0.1,0-0.1,0-0.2,0C15.2,36.3,14.9,36.5,14.8,36.9z"/>
		<path class="st8" d="M15.7,36.3c0.5,0.1,1,0,1.6-0.3c0.4-0.1,0.7-0.3,1-0.3c7.1-1.6,12-4.1,12.6-11.6c0-0.5,0.2-0.8,0.5-1.1
			c0.4-0.4,1-0.3,1.3-0.2l0.1,0l0.1,0c0.2-0.1,0.4,0,0.5,0c0.2,0.1,0.3,0.3,0.4,0.5c0.1,0.4-0.1,0.9-0.5,1c-0.2,0.1-0.4,0.1-0.5,0.1
			l-0.5,0l-0.1,0.5c-1,8.5-7.5,11-13.7,12.4c-0.3,0.1-0.5,0.2-0.8,0.3c-0.7,0.3-1.6,0.6-2.5,0.3c-0.2-0.1-0.4-0.2-0.5-0.4
			c-0.1-0.2-0.1-0.4-0.1-0.6c0.1-0.3,0.4-0.6,0.7-0.6C15.6,36.3,15.7,36.3,15.7,36.3z"/>
		<path class="st2" d="M40.5,55.6c0.1-0.4-0.1-0.8-0.5-1c-5.4-1.7-10.1-1.7-14.4,0.2l-0.2,0.1l-0.2,0c-0.1,0-0.2-0.1-0.3-0.1
			c-0.2-0.1-0.4-0.1-0.6-0.2c-0.1,0-0.1,0-0.2,0c-0.1,0-0.3,0-0.4,0.1c-0.2,0.1-0.3,0.3-0.3,0.5c-0.1,0.4,0.2,0.8,0.6,0.9
			c0.1,0,0.2,0.1,0.4,0.1c0.5,0.2,1.1,0.3,1.6,0.1c4.1-1.8,8.4-1.9,13.5-0.2C40,56.2,40.4,56,40.5,55.6z"/>
		<path class="st2" d="M39.6,56.1c-5.1-1.6-9.4-1.6-13.5,0.2c-0.5,0.2-1.1,0.1-1.6-0.1c-0.1,0-0.3-0.1-0.4-0.1
			c-0.4-0.1-0.7-0.5-0.6-0.9c0-0.2,0.2-0.4,0.3-0.5c0.1-0.1,0.3-0.1,0.4-0.1c0.1,0,0.1,0,0.2,0c0.2,0,0.4,0.1,0.6,0.2
			c0.1,0,0.2,0.1,0.3,0.1l0.2,0l0.2-0.1c4.4-1.9,9.1-1.9,14.4-0.2c0.4,0.1,0.6,0.6,0.5,1C40.4,56,40,56.2,39.6,56.1z"/>
		<path class="st2" d="M49.5,42.1c0-0.4-0.4-0.7-0.8-0.8c-3.3,0.1-6.3-1.2-9.3-4c-0.5-0.4-1.1-0.9-2.1-0.8c-0.2,0-0.4,0.1-0.5,0.3
			c-0.1,0.2-0.2,0.4-0.2,0.6c0,0.2,0.1,0.4,0.3,0.5c0.2,0.1,0.4,0.2,0.5,0.1c0,0,0.1,0,0.1,0c0.2,0,0.5,0.1,0.8,0.4
			c3.2,3,6.6,4.4,10.2,4.4h0.2C49.2,42.9,49.5,42.6,49.5,42.1z"/>
		<path class="st8" d="M38.4,38.5c-0.3-0.3-0.5-0.4-0.8-0.4c0,0-0.1,0-0.1,0c-0.2,0-0.4,0-0.5-0.1c-0.2-0.1-0.3-0.3-0.3-0.5
			c0-0.2,0-0.4,0.2-0.6c0.1-0.2,0.3-0.3,0.5-0.3c1-0.1,1.6,0.4,2.1,0.8c3.1,2.8,6,4.1,9.3,4c0.4,0,0.8,0.3,0.8,0.8
			c0,0.4-0.3,0.8-0.7,0.8h-0.2C44.9,42.9,41.6,41.5,38.4,38.5z"/>
	</g>
</g>
</svg>
