<svg xmlns="http://www.w3.org/2000/svg" viewBox="0 0 24 24"><defs><style>.cls-1{fill:#fff;}.cls-1,.cls-4,.cls-5{stroke:#595959;stroke-miterlimit:10;}.cls-2{fill:#595959;}.cls-3,.cls-4{fill:#9ecfef;}.cls-5{fill:none;}</style></defs><title>wearables</title><rect class="cls-1" x="2.5" y="4.01" width="17.05" height="15.84" rx=".38" ry=".38"/><path class="cls-2" d="M4.38 5.41h8.53v.75h-8.53zM4.38 9.91h13.49v.75h-13.49zM4.38 6.91h13.49v.75h-13.49zM11.18 18.15h.7v-5.24h1.4v5.24h.7v-5.99h-2.8v5.99zM7.84 18.15h.61v-2.62h1.22v2.62h.62v-3.37h-2.45v3.37zM4.38 18.15h.59v-4.12h1.2v4.12h.6v-4.87h-2.39v4.87zM4.38 8.41h13.49v.75h-13.49z"/><path class="cls-3" d="M5.08 14.18h.97v3.98h-.97zM8.56 15.72h.99v2.44h-.99z"/><path class="cls-2" d="M15 18.15h.7v-2.62h1.38v2.62h.69v-3.37h-2.77v3.37z"/><path class="cls-3" d="M15.82 15.72h1.12v2.44h-1.12zM12 13.02h1.15v5.14h-1.15z"/><rect class="cls-4" x="5.03" y="1.35" width="11.99" height="2.66" rx=".13" ry=".13"/><rect class="cls-5" x="19.52" y="10.6" width="2.43" height="2.66" rx=".06" ry=".06"/><rect class="cls-4" x="5.03" y="19.85" width="11.99" height="2.66" rx=".13" ry=".13"/></svg>