<svg xmlns="http://www.w3.org/2000/svg" width="146.917" height="141.667" viewBox="0 0 146.917 141.667"><path d="M118.686 38.31l6.581-12.488-57.47 2.218 30.656 48.66 7.304-13.858c9.36 7.14 15.411 18.396 15.411 31.077 0 21.542-17.433 39.012-38.959 39.08l.125.003c30.007 0 54.334-24.326 54.334-54.333 0-16.026-6.945-30.419-17.982-40.359zm-88.907 63.203l-6.581 12.488 57.47-2.218-30.656-48.66-7.304 13.858c-9.36-7.14-15.411-18.396-15.411-31.077 0-21.542 17.433-39.012 38.959-39.08l-.125-.003c-30.007 0-54.334 24.326-54.334 54.333 0 16.026 6.945 30.418 17.982 40.359z" fill="#fff"/></svg>