<?xml version="1.0" encoding="utf-8"?>
<!-- Generator: Adobe Illustrator 16.0.0, SVG Export Plug-In . SVG Version: 6.00 Build 0)  -->
<!DOCTYPE svg PUBLIC "-//W3C//DTD SVG 1.1//EN" "http://www.w3.org/Graphics/SVG/1.1/DTD/svg11.dtd">
<svg version="1.1" id="Layer_1" xmlns="http://www.w3.org/2000/svg" xmlns:xlink="http://www.w3.org/1999/xlink" x="0px" y="0px"
	 width="216px" height="216px" viewBox="0 0 216 216" enable-background="new 0 0 216 216" xml:space="preserve">
<g id="Layer_1_1_">
	<g id="XMLID_273_">
		<g id="XMLID_264_">
			<g id="XMLID_120_">
				<g id="XMLID_339_">
					<path fill="#FFFFFF" d="M160.65,160.65l-57.375,45.563c-1.688,1.35-4.387,1.012-6.075-0.676l-75.938-95.512
						c-1.35-1.688-1.013-4.388,0.675-6.075l57.375-45.563c1.688-1.35,4.388-1.013,6.075,0.675l76.274,95.513
						C162.675,156.6,162.675,159.3,160.65,160.65z"/>
				</g>
				<g id="XMLID_338_">
					
						<rect x="65.977" y="80.353" transform="matrix(-0.7818 0.6235 -0.6235 -0.7818 224.1175 213.2275)" fill="#ABE0F9" width="17.55" height="130.947"/>
				</g>
				<g id="XMLID_337_">
					
						<rect x="97.771" y="91.844" transform="matrix(-0.7818 0.6236 -0.6236 -0.7818 267.0604 178.3188)" fill="#ABE0F9" width="9.113" height="88.092"/>
				</g>
				<g id="XMLID_317_">
					<path id="XMLID_10_" fill="#0D3178" d="M93.837,207.563L17.563,112.05c-2.7-3.375-2.025-8.1,1.35-10.462l57.375-45.563
						c3.038-2.362,8.1-2.025,10.462,1.35l15.188,18.9l-5.063,4.05l-15.188-18.9c-0.337-0.337-1.013-0.337-1.35,0l-57.375,45.563
						c-0.337,0-0.337,0.675-0.337,1.013L98.9,203.513L93.837,207.563z"/>
				</g>
			</g>
			<g>
				<g id="XMLID_252_">
					<path fill="#FFFFFF" d="M187.65,205.875h-86.738c-4.388,0-8.1-3.713-8.1-8.1V63.788c0-4.388,3.712-8.1,8.1-8.1h86.738
						c4.387,0,8.1,3.712,8.1,8.1v133.988C195.75,202.162,192.037,205.875,187.65,205.875z"/>
				</g>
				<g id="XMLID_256_">
					<rect x="103.275" y="55.688" fill="#ABE0F9" width="19.238" height="150.188"/>
				</g>
				<g id="XMLID_258_">
					<rect x="127.912" y="55.688" fill="#ABE0F9" width="9.45" height="150.188"/>
				</g>
				<g id="XMLID_268_">
					<path id="XMLID_84_" fill="#0D3178" d="M187.65,209.25h-86.738c-6.413,0-11.475-5.063-11.475-11.475V63.788
						c0-6.413,5.063-11.475,11.475-11.475h11.812v6.75h-11.812c-2.7,0-4.725,2.025-4.725,4.725v133.988
						c0,2.699,2.025,4.725,4.725,4.725h86.738c2.699,0,4.725-2.025,4.725-4.725V63.788c0-2.7-2.025-4.725-4.725-4.725h-42.863v-6.75
						h42.863c6.412,0,11.475,5.063,11.475,11.475v133.988C199.125,204.188,194.063,209.25,187.65,209.25z"/>
				</g>
				<g id="XMLID_251_">
					<rect id="XMLID_83_" x="117.787" y="52.313" fill="#0D3178" width="19.575" height="6.75"/>
				</g>
			</g>
		</g>
	</g>
	<g id="XMLID_107_">
		<path fill="#ABE0F9" d="M201.15,45.9c0,3.038-2.363,5.063-5.063,5.063c-3.038,0-5.063-2.362-5.063-5.063
			c0-2.7,2.362-5.063,5.063-5.063C198.787,40.837,201.15,43.2,201.15,45.9z"/>
	</g>
	<g id="XMLID_106_">
		<path fill="#ABE0F9" d="M45.225,21.938c0,3.712-3.038,6.413-6.413,6.413c-3.712,0-6.413-3.038-6.413-6.413
			c0-3.712,3.038-6.413,6.413-6.413S45.225,18.225,45.225,21.938z"/>
	</g>
	<g id="XMLID_105_">
		<path fill="#ABE0F9" d="M101.587,36.788c0,1.688-1.35,3.038-3.038,3.038s-3.037-1.35-3.037-3.038s1.35-3.038,3.037-3.038
			S101.587,35.1,101.587,36.788z"/>
	</g>
	<g id="XMLID_104_">
		<path fill="#ABE0F9" d="M207.225,11.813c0,2.025-1.688,3.375-3.375,3.375c-2.024,0-3.375-1.688-3.375-3.375
			c0-2.025,1.688-3.375,3.375-3.375C205.875,8.438,207.225,10.125,207.225,11.813z"/>
	</g>
	<g id="XMLID_101_">
		<path fill="#ABE0F9" d="M141.075,11.813c0,2.7-2.362,5.063-5.063,5.063s-5.063-2.362-5.063-5.063s2.362-5.063,5.063-5.063
			S141.075,9.112,141.075,11.813z"/>
	</g>
	<g>
		<g>
			<g>
				<g>
					<defs>
						<path id="SVGID_1_" d="M2248.425,198.787H2092.5c-2.7,0-4.725-2.024-4.725-4.725V84.038c0-2.7,2.024-4.725,4.725-4.725
							h155.925c2.7,0,4.726,2.025,4.726,4.725v110.025C2253.15,196.763,2250.787,198.787,2248.425,198.787"/>
					</defs>
					<clipPath id="SVGID_2_">
						<use xlink:href="#SVGID_1_"  overflow="visible"/>
					</clipPath>
				</g>
			</g>
			<g>
				<g>
					<defs>
						<path id="SVGID_3_" d="M2250.112,201.15h-157.274c-4.388,0-7.763-3.375-7.763-7.763v-52.65h7.087v52.65l0.338,0.675h157.275
							l0.675-0.675V82.35l-0.675-0.675h-56.7v-7.087h56.7c4.387,0,7.762,3.375,7.762,7.763v111.038
							C2257.875,197.775,2254.162,201.15,2250.112,201.15"/>
					</defs>
					<clipPath id="SVGID_4_">
						<use xlink:href="#SVGID_3_"  overflow="visible"/>
					</clipPath>
				</g>
			</g>
			<g>
				<g>
					<defs>
						<rect id="SVGID_5_" x="2096.55" y="88.425" width="149.513" height="96.525"/>
					</defs>
					<clipPath id="SVGID_6_">
						<use xlink:href="#SVGID_5_"  overflow="visible"/>
					</clipPath>
				</g>
			</g>
			<g>
				<g>
					<defs>
						<path id="SVGID_7_" d="M2250.112,205.875h-160.649c-3.713,0-7.088-2.7-7.763-6.75l-1.013-7.088h74.588l2.699,4.051h20.588
							l3.037-4.051h78.638l-1.013,6.075C2258.213,202.5,2254.5,205.875,2250.112,205.875"/>
					</defs>
					<clipPath id="SVGID_8_">
						<use xlink:href="#SVGID_7_"  overflow="visible"/>
					</clipPath>
				</g>
			</g>
			<g>
				<g>
					<defs>
						<path id="SVGID_9_" d="M2250.45,208.237h-161.325c-5.737,0-10.463-4.05-11.475-9.45l-1.688-11.137h81l2.699,4.05h16.875
							l3.038-4.05h85.05l-1.688,10.125C2261.925,203.85,2256.862,208.237,2250.45,208.237z M2084.4,194.4l0.337,2.699
							c0.337,2.025,2.024,3.713,4.388,3.713h161.324c2.7,0,5.063-2.025,5.4-4.388l0.338-2.024h-72.9l-3.037,4.05h-24.301
							l-2.699-4.05H2084.4z"/>
					</defs>
					<clipPath id="SVGID_10_">
						<use xlink:href="#SVGID_9_"  overflow="visible"/>
					</clipPath>
				</g>
			</g>
			<g>
				<g>
					<defs>
						<path id="SVGID_11_" d="M2174.513,129.938h-97.875c-5.4,0-9.788-4.388-9.788-9.787V54.337c0-5.4,4.388-9.788,9.788-9.788
							h97.875c5.399,0,9.787,4.388,9.787,9.788v65.813C2183.963,125.55,2179.912,129.938,2174.513,129.938"/>
					</defs>
					<clipPath id="SVGID_12_">
						<use xlink:href="#SVGID_11_"  overflow="visible"/>
					</clipPath>
				</g>
			</g>
			<g>
				<g>
					<defs>
						<path id="SVGID_13_" d="M2066.85,63.112V50.625c0-3.375,2.7-6.075,5.738-6.075h105.637c3.375,0,5.738,2.7,5.738,6.075v12.487
							H2066.85"/>
					</defs>
					<clipPath id="SVGID_14_">
						<use xlink:href="#SVGID_13_"  overflow="visible"/>
					</clipPath>
				</g>
			</g>
			<g>
				<g>
					<defs>
						<path id="SVGID_15_" d="M2178.9,134.325h-107.325c-5.4,0-9.788-4.388-9.788-9.45v-72.9c0-5.063,4.388-9.45,9.788-9.45h15.862
							v7.087h-15.862c-1.351,0-2.362,1.013-2.362,2.363v72.9c0,1.35,1.012,2.362,2.362,2.362H2178.9c1.35,0,2.362-1.013,2.362-2.362
							v-72.9c0-1.35-1.013-2.363-2.362-2.363h-70.875v-7.087h70.875c5.399,0,9.787,4.388,9.787,9.45v72.9
							C2188.688,130.275,2184.3,134.325,2178.9,134.325"/>
					</defs>
					<clipPath id="SVGID_16_">
						<use xlink:href="#SVGID_15_"  overflow="visible"/>
					</clipPath>
				</g>
			</g>
			<g>
				<g>
					<defs>
						<rect id="SVGID_17_" x="2092.162" y="42.525" width="9.113" height="6.75"/>
					</defs>
					<clipPath id="SVGID_18_">
						<use xlink:href="#SVGID_17_"  overflow="visible"/>
					</clipPath>
				</g>
			</g>
			<g>
				<g>
					<defs>
						<rect id="SVGID_19_" x="2066.85" y="60.75" width="117.45" height="6.75"/>
					</defs>
					<clipPath id="SVGID_20_">
						<use xlink:href="#SVGID_19_"  overflow="visible"/>
					</clipPath>
				</g>
			</g>
			<g>
				<g>
					<defs>
						<rect id="SVGID_21_" x="2078.325" y="51.638" width="4.388" height="6.75"/>
					</defs>
					<clipPath id="SVGID_22_">
						<use xlink:href="#SVGID_21_"  overflow="visible"/>
					</clipPath>
				</g>
			</g>
			<g>
				<g>
					<defs>
						<rect id="SVGID_23_" x="2089.8" y="51.638" width="4.388" height="6.75"/>
					</defs>
					<clipPath id="SVGID_24_">
						<use xlink:href="#SVGID_23_"  overflow="visible"/>
					</clipPath>
				</g>
			</g>
			<g>
				<g>
					<defs>
						<rect id="SVGID_25_" x="2101.275" y="51.638" width="4.387" height="6.75"/>
					</defs>
					<clipPath id="SVGID_26_">
						<use xlink:href="#SVGID_25_"  overflow="visible"/>
					</clipPath>
				</g>
			</g>
			<g>
				<g>
					<polyline id="SVGID_195_" fill="#CCCCCC" points="2101.275,96.188 2101.275,92.475 2115.112,86.063 2115.112,90.112 
						2106,94.163 2115.112,98.212 2115.112,102.263 2101.275,96.188 					"/>
				</g>
				<g>
					<defs>
						<polyline id="SVGID_27_" points="2101.275,96.188 2101.275,92.475 2115.112,86.063 2115.112,90.112 2106,94.163 
							2115.112,98.212 2115.112,102.263 2101.275,96.188 						"/>
					</defs>
					<clipPath id="SVGID_28_">
						<use xlink:href="#SVGID_27_"  overflow="visible"/>
					</clipPath>
					<g clip-path="url(#SVGID_28_)">
						<g>
							<rect id="SVGID_197_" x="-416.138" y="-337.163" fill="#CCCCCC" width="3143.476" height="1640.587"/>
						</g>
					</g>
				</g>
			</g>
			<g>
				<g>
					<polyline id="SVGID_199_" fill="#CCCCCC" points="2127.6,81.675 2131.313,81.675 2120.85,104.625 2117.475,104.625 
						2127.6,81.675 					"/>
				</g>
				<g>
					<defs>
						<polyline id="SVGID_29_" points="2127.6,81.675 2131.313,81.675 2120.85,104.625 2117.475,104.625 2127.6,81.675 						"/>
					</defs>
					<clipPath id="SVGID_30_">
						<use xlink:href="#SVGID_29_"  overflow="visible"/>
					</clipPath>
					<g clip-path="url(#SVGID_30_)">
						<g>
							<rect id="SVGID_201_" x="-416.138" y="-337.163" fill="#CCCCCC" width="3143.476" height="1640.587"/>
						</g>
					</g>
				</g>
			</g>
			<g>
				<g>
					<polyline id="SVGID_203_" fill="#CCCCCC" points="2149.537,92.475 2149.537,96.188 2135.7,102.263 2135.7,98.212 
						2144.813,94.163 2135.7,90.112 2135.7,86.063 2149.537,92.475 					"/>
				</g>
				<g>
					<defs>
						<polyline id="SVGID_31_" points="2149.537,92.475 2149.537,96.188 2135.7,102.263 2135.7,98.212 2144.813,94.163 
							2135.7,90.112 2135.7,86.063 2149.537,92.475 						"/>
					</defs>
					<clipPath id="SVGID_32_">
						<use xlink:href="#SVGID_31_"  overflow="visible"/>
					</clipPath>
					<g clip-path="url(#SVGID_32_)">
						<g>
							<rect id="SVGID_205_" x="-416.138" y="-337.163" fill="#CCCCCC" width="3143.476" height="1640.587"/>
						</g>
					</g>
				</g>
			</g>
			<g>
				<g>
					<defs>
						<rect id="SVGID_33_" x="2193.412" y="99.9" width="39.15" height="6.75"/>
					</defs>
					<clipPath id="SVGID_34_">
						<use xlink:href="#SVGID_33_"  overflow="visible"/>
					</clipPath>
				</g>
			</g>
			<g>
				<g>
					<defs>
						<rect id="SVGID_35_" x="2204.888" y="116.1" width="13.837" height="6.75"/>
					</defs>
					<clipPath id="SVGID_36_">
						<use xlink:href="#SVGID_35_"  overflow="visible"/>
					</clipPath>
				</g>
			</g>
			<g>
				<g>
					<defs>
						<rect id="SVGID_37_" x="2154.263" y="136.688" width="39.149" height="6.75"/>
					</defs>
					<clipPath id="SVGID_38_">
						<use xlink:href="#SVGID_37_"  overflow="visible"/>
					</clipPath>
				</g>
			</g>
			<g>
				<g>
					<defs>
						<rect id="SVGID_39_" x="2200.162" y="136.688" width="20.588" height="6.75"/>
					</defs>
					<clipPath id="SVGID_40_">
						<use xlink:href="#SVGID_39_"  overflow="visible"/>
					</clipPath>
				</g>
			</g>
			<g>
				<g>
					<defs>
						<rect id="SVGID_41_" x="2140.425" y="136.688" width="6.75" height="6.75"/>
					</defs>
					<clipPath id="SVGID_42_">
						<use xlink:href="#SVGID_41_"  overflow="visible"/>
					</clipPath>
				</g>
			</g>
			<g>
				<g>
					<defs>
						<rect id="SVGID_43_" x="2106" y="150.525" width="39.15" height="6.75"/>
					</defs>
					<clipPath id="SVGID_44_">
						<use xlink:href="#SVGID_43_"  overflow="visible"/>
					</clipPath>
				</g>
			</g>
			<g>
				<g>
					<defs>
						<rect id="SVGID_45_" x="2131.313" y="166.725" width="39.15" height="6.75"/>
					</defs>
					<clipPath id="SVGID_46_">
						<use xlink:href="#SVGID_45_"  overflow="visible"/>
					</clipPath>
				</g>
			</g>
			<g>
				<g>
					<defs>
						<rect id="SVGID_47_" x="2179.575" y="166.725" width="20.587" height="6.75"/>
					</defs>
					<clipPath id="SVGID_48_">
						<use xlink:href="#SVGID_47_"  overflow="visible"/>
					</clipPath>
				</g>
			</g>
		</g>
	</g>
</g>
<g id="specctr">
	<g id="Text_Properties">
	</g>
</g>
</svg>
