<?xml version="1.0" encoding="utf-8"?>
<!-- Generator: Adobe Illustrator 16.0.0, SVG Export Plug-In . SVG Version: 6.00 Build 0)  -->
<!DOCTYPE svg PUBLIC "-//W3C//DTD SVG 1.1//EN" "http://www.w3.org/Graphics/SVG/1.1/DTD/svg11.dtd">
<svg version="1.1" id="Layer_1" xmlns="http://www.w3.org/2000/svg" xmlns:xlink="http://www.w3.org/1999/xlink" x="0px" y="0px"
	 width="216px" height="216px" viewBox="0 0 216 216" enable-background="new 0 0 216 216" xml:space="preserve">
<circle fill="#ABE0F9" cx="158.625" cy="66.15" r="2.025"/>
<circle fill="#ABE0F9" cx="55.013" cy="68.175" r="2.025"/>
<circle fill="#ABE0F9" cx="175.838" cy="57.375" r="4.388"/>
<circle fill="#ABE0F9" cx="53.325" cy="42.863" r="4.387"/>
<circle fill="#ABE0F9" cx="156.6" cy="42.863" r="2.7"/>
<circle fill="#ABE0F9" cx="38.475" cy="74.25" r="2.7"/>
<path fill="#FFFFFF" d="M123.862,116.438l14.851-15.862c3.375-4.725,11.137,0,7.087,4.387L133.65,121.5h5.737l13.5-14.513
	c0,0,1.35-9.112,1.688-10.462l0.337-11.475c-1.012-2.025,0-4.387,2.025-5.4c2.025-1.012,4.388,0,5.4,2.025v13.163
	c0.337,1.013,0.337,16.538,0.337,16.538l-16.2,33.75H121.5v-24.3C121.838,119.475,122.85,117.45,123.862,116.438L123.862,116.438z"
	/>
<path fill="#0D3178" d="M147.825,147.487H118.8v-27c0.338-2.024,1.351-4.725,2.7-6.075l14.85-15.862
	c1.351-2.025,4.051-3.037,6.75-2.7c2.7,0.337,4.726,2.025,5.4,4.387c0.675,2.025,0.338,4.388-1.35,6.075l-7.426,10.463l11.476-12.15
	c0.337-2.7,0.675-7.763,1.013-9.45v-12.15c0-2.025,0.337-4.725,3.375-6.075c1.688-0.675,3.375-0.675,5.063,0
	c1.688,0.675,3.037,1.688,3.712,3.375l0.338,0.337l0.675,13.837c0.338,1.35,0.338,5.063,0.338,16.875v0.675L147.825,147.487
	L147.825,147.487z M124.2,142.425h20.587l15.525-31.725c0-6.413,0-13.838-0.338-15.188v-0.338l-0.675-13.5
	c0-0.337-0.337-0.337-0.675-0.337h-1.013c-0.337,0.337-0.337,1.35-0.337,1.688v1.35l0.337,11.813v0.337
	c-0.337,0.675-0.675,5.738-1.013,10.125v1.013L141.075,124.2h-11.813l14.513-20.25c0.675-0.675,0.675-1.013,0.675-1.35
	s-0.675-1.013-1.688-1.013c-0.675,0-1.351,0-2.025,1.013l-15.188,15.525c-0.675,0.675-1.35,2.025-1.35,3.037V142.425L124.2,142.425z
	"/>
<path fill="#ABE0F9" d="M151.875,180.563v-31.05c0-1.688-1.35-3.038-3.037-3.038h-33.075c-1.688,0-3.038,1.351-3.038,3.038v31.05
	H151.875z"/>
<path fill="#FFFFFF" d="M92.138,116.438l-14.513-15.862c-3.375-4.725-11.138,0-7.087,4.387l11.813,16.2h-5.738l-13.5-14.512
	c0,0-1.35-9.112-1.688-10.462L60.75,84.712c1.013-2.025,0-4.387-2.025-5.4s-4.388,0-5.4,2.025V94.5
	c-0.338,1.013-0.338,16.537-0.338,16.537l16.2,33.75H94.5v-24.3C94.163,119.475,93.15,117.45,92.138,116.438L92.138,116.438z"/>
<path fill="#0D3178" d="M96.862,147.487H67.837L50.625,112.05v-0.675c0-12.15,0-15.525,0.337-16.875l0.675-13.837l0.337-0.337
	c1.35-3.375,5.4-4.725,8.438-3.375c3.038,1.35,3.038,4.05,3.375,6.075v1.35L63.45,95.85c0.337,1.688,0.675,6.75,1.012,9.45
	L75.6,117.45l-7.763-10.463c-1.35-1.688-2.025-3.712-1.35-6.075c0.675-2.363,3.038-4.05,5.4-4.388c2.7-0.337,5.063,0.675,6.75,2.7
	L93.15,114.75c1.35,1.35,2.7,4.05,2.7,6.075v0.337L96.862,147.487z M71.212,142.425H91.8v-21.6c-0.337-1.013-1.012-2.362-1.35-3.038
	L75.6,101.925c-0.675-0.675-1.35-0.675-2.363-0.675c-0.675,0-1.35,0.675-1.688,1.013c0,0.337,0,0.675,0.338,1.012l14.85,20.587
	H74.925L59.4,107.325v-1.013c-0.337-4.388-1.012-9.112-1.012-10.125v-0.675l0.337-11.138v-1.35c0-0.675,0-1.688-0.337-1.688
	c-0.675-0.337-1.35,0-1.688,0.337l-0.675,13.838c-0.337,1.35-0.337,8.775-0.337,15.188L71.212,142.425z"/>
<path fill="#ABE0F9" d="M64.125,180.563v-31.05c0-1.688,1.35-3.038,3.038-3.038h33.075c1.688,0,3.038,1.351,3.038,3.038v31.05
	H64.125z"/>
<path fill="#0D3178" d="M154.575,180.563h-5.063v-31.05c0-0.338,0-0.338-0.338-0.338H116.1c-0.337,0-0.337,0-0.337,0.338v31.05
	H110.7v-31.05c0-3.038,2.362-5.4,5.399-5.4h33.075c3.038,0,5.4,2.362,5.4,5.4V180.563z M105.638,180.563h-5.063v-31.05
	c0-0.338,0-0.338-0.338-0.338H67.163c-0.337,0-0.337,0-0.337,0.338v31.05h-5.063v-31.05c0-3.038,2.362-5.4,5.4-5.4h33.075
	c3.038,0,5.4,2.362,5.4,5.4V180.563z"/>
<ellipse fill="#ABE0F9" cx="107.578" cy="68.293" rx="31.056" ry="31.056"/>
<path fill="#0D3178" d="M131.625,91.125l-3.037-2.7c1.688-1.688,3.037-3.375,4.05-5.4l3.375,2.025
	C135,87.413,133.313,89.438,131.625,91.125z M107.663,101.587h-0.675c-8.775-0.337-16.875-3.712-23.287-10.125
	c-6.075-6.413-9.45-14.85-9.113-23.625S78.3,50.962,84.712,44.55c6.413-6.075,14.513-9.45,23.625-9.112
	c8.775,0.337,16.875,3.712,23.288,10.125c6.075,6.413,9.45,14.85,9.112,23.625c0,3.375-0.675,6.75-1.688,10.125l-4.05-1.35
	c1.013-2.7,1.35-5.737,1.688-8.775c0-7.763-2.7-15.188-8.1-20.587c-5.4-5.4-12.488-8.775-20.25-8.775s-15.188,2.7-20.587,8.1
	c-5.4,5.4-8.775,12.488-8.775,20.25c0,7.763,2.7,15.188,8.1,20.588c5.4,5.4,12.487,8.775,20.25,8.775c5.399,0,10.8-1.35,15.524-4.05
	l2.025,3.375C119.475,99.9,113.4,101.587,107.663,101.587L107.663,101.587z"/>
<g>
	<path fill="#0D3178" d="M93.516,54.611h3.181v11.882h0.109c0.658-0.951,1.316-1.828,1.938-2.632l7.531-9.25h3.948l-8.92,10.456
		l9.615,14.186h-3.765l-8.116-12.102l-2.34,2.706v9.396h-3.181V54.611z"/>
	<path fill="#0D3178" d="M112.781,75.962c0.95,0.622,2.632,1.28,4.24,1.28c2.34,0,3.438-1.17,3.438-2.632
		c0-1.536-0.914-2.376-3.291-3.254c-3.181-1.133-4.68-2.888-4.68-5.009c0-2.852,2.304-5.191,6.105-5.191
		c1.791,0,3.363,0.512,4.352,1.097l-0.805,2.34c-0.695-0.438-1.975-1.023-3.619-1.023c-1.902,0-2.962,1.097-2.962,2.413
		c0,1.462,1.06,2.121,3.363,2.998c3.071,1.17,4.644,2.706,4.644,5.338c0,3.107-2.413,5.301-6.617,5.301
		c-1.938,0-3.729-0.476-4.973-1.207L112.781,75.962z"/>
</g>
</svg>
