<?xml version="1.0" encoding="utf-8"?>
<!-- Generator: Adobe Illustrator 17.0.0, SVG Export Plug-In . SVG Version: 6.00 Build 0)  -->
<!DOCTYPE svg PUBLIC "-//W3C//DTD SVG 1.1//EN" "http://www.w3.org/Graphics/SVG/1.1/DTD/svg11.dtd">
<svg version="1.1" id="Layer_1" xmlns="http://www.w3.org/2000/svg" xmlns:xlink="http://www.w3.org/1999/xlink" x="0px" y="0px"
	 width="216px" height="216px" viewBox="0 0 216 216" enable-background="new 0 0 216 216" xml:space="preserve">
<polygon fill="#3A494C" points="25.096,167.283 19.378,167.283 19.378,156.393 30.814,156.393 30.814,161.305 "/>
<polygon fill="#3A494C" points="92.143,166.469 97.861,166.469 97.861,155.578 86.425,155.578 86.425,160.491 "/>
<path fill="#506266" d="M99.959,159.729H22.417c-2.143,0-3.879-1.737-3.879-3.879V70.292c0-2.143,1.737-3.879,3.879-3.879h77.542
	c2.142,0,3.879,1.737,3.879,3.879v85.557C103.838,157.992,102.101,159.729,99.959,159.729z"/>
<path fill="#343738" d="M96.731,151.783H25.644c-0.396,0-0.718-0.321-0.718-0.718V75.077c0-0.396,0.321-0.718,0.718-0.718h71.086
	c0.396,0,0.718,0.321,0.718,0.718v75.988C97.449,151.461,97.127,151.783,96.731,151.783z"/>
<path opacity="0.14" d="M58.398,161.023c-7.442,0.049-14.907-0.459-22.335,0.205c-3.041,0.272-19.066,2.224-17.746,7.398
	c1.167,4.573,11.771,4.437,15.234,4.671c6.662,0.449,13.347,0.124,20.008-0.181c27.032-1.239,54.109-1.809,81.186-1.71
	c13.262,0.048,26.525,0.257,39.782,0.626c4.299,0.12,8.598,0.481,12.899,0.204c2.132-0.137,4.524-0.302,6.538-1.08
	c3.143-1.215,1.328-3.152-0.913-3.781c-2.767-0.777-5.705-1.105-8.555-1.409c-5.823-0.621-11.69-0.711-17.509-1.36
	c-12.18-1.359-24.366-3.075-36.63-3.354C103.838,160.647,82.671,160.863,58.398,161.023z"/>
<g>
	<g>
		<g>
			<g>
				<circle fill="#F6D738" cx="84.683" cy="123.795" r="30.163"/>
			</g>
			<g>
				<circle fill="#F3CC30" cx="84.683" cy="123.795" r="25.599"/>
			</g>
			<g>
				<path fill="#EDBD31" d="M98.076,101.946c2.549,3.98,4.027,8.712,4.027,13.789c0,14.138-11.461,25.599-25.599,25.599
					c-4.91,0-9.497-1.384-13.393-3.78c4.55,7.103,12.511,11.81,21.572,11.81c14.138,0,25.599-11.461,25.599-25.599
					C110.282,114.537,105.398,106.45,98.076,101.946z"/>
			</g>
			<g>
				<path fill="#F7DB5E" d="M63.568,126.137c0-12.48,10.117-22.597,22.597-22.597c7.295,0,13.781,3.458,17.913,8.822
					c-3.902-6.774-11.216-11.335-19.595-11.335c-12.48,0-22.597,10.117-22.597,22.597c0,5.185,1.748,9.962,4.685,13.775
					C64.661,134.084,63.568,130.238,63.568,126.137z"/>
			</g>
			<path fill="#D49A34" d="M86.796,107.272v3.261c1.309,0.211,2.379,0.644,3.211,1.298c0.832,0.655,1.625,1.658,2.379,3.012
				l-3.245,1.814c-0.976-1.775-2.252-2.662-3.827-2.662c-0.976,0-1.786,0.289-2.429,0.865c-0.643,0.577-0.965,1.298-0.965,2.163
				c0,0.788,0.261,1.442,0.782,1.963c0.51,0.51,1.542,1.115,3.095,1.814c1.342,0.61,2.451,1.184,3.328,1.722
				c0.876,0.538,1.536,1.057,1.98,1.556c1.253,1.354,1.88,2.99,1.88,4.909c0,1.886-0.566,3.55-1.697,4.992
				c-1.121,1.431-2.618,2.396-4.493,2.895v3.444h-2.912v-3.345c-2.174-0.355-3.833-1.104-4.975-2.246
				c-1.143-1.142-1.986-2.906-2.529-5.291l3.661-0.765c0.499,1.686,1.109,2.89,1.83,3.611c0.754,0.688,1.758,1.032,3.012,1.032
				c1.22,0,2.241-0.394,3.062-1.181c0.81-0.776,1.215-1.78,1.215-3.012c0-1.098-0.339-1.98-1.015-2.646
				c-0.344-0.322-0.851-0.685-1.523-1.09c-0.671-0.405-1.528-0.846-2.571-1.323c-2.152-0.965-3.566-1.852-4.243-2.662
				c-1.076-1.209-1.614-2.657-1.614-4.343c0-0.799,0.127-1.542,0.383-2.23c0.255-0.688,0.624-1.312,1.106-1.872
				c0.483-0.56,1.079-1.045,1.789-1.456c0.71-0.41,1.514-0.732,2.413-0.965v-3.261H86.796z"/>
		</g>
	</g>
	<circle opacity="0.12" cx="84.683" cy="123.795" r="30.163"/>
</g>
<g>
	<path fill="#E5D1BD" d="M141.174,71.24c0.639-0.443,1.278-0.885,1.917-1.328c0.198-0.137,0.664-0.624,0.923-0.349
		c0.126,0.134,0.588,0.553,1.026,0.998c0.475,0.234,0.94,0.487,1.434,0.679c1.248,0.487,4.402,0.191,4.632,1.872
		c0.045,0.325,0.089,0.658,0.009,0.97c-0.065,0.254-0.21,0.48-0.363,0.694c-0.12,0.167-0.265,0.461-0.478,0.492
		c-0.223,0.032-0.742-0.237-0.968-0.309c-0.648-0.207-1.296-0.413-1.944-0.62c-0.636-0.203-1.401-0.388-1.884-0.004
		c-0.106,0.084-0.19,0.191-0.308,0.26c-0.133,0.078-0.297,0.1-0.458,0.116c-0.587,0.06-1.196,0.077-1.793,0.007
		c-0.544-0.064-0.728-0.435-1.059-0.811c-0.387-0.439-0.952-0.579-1.343-1.005c-0.221-0.24-0.353-0.574-0.25-0.857
		c0.083-0.229,0.299-0.384,0.505-0.527C140.905,71.426,141.039,71.333,141.174,71.24z"/>
	<path fill="#001552" d="M164.695,78.222c-1.355,0.462-2.783,0.605-4.474,0.476c-4.177-0.318-8.345-1.241-12.306-2.725
		c0.03-1.814,0.453-3.597,1.238-5.211c3.417,0.517,6.859,0.784,10.283,0.797c1.678,0.006,3.146-0.249,4.124-1.552
		c2.178-2.902,4.108-5.97,5.769-9.172c0.367-0.708,0.733-1.437,1.338-1.979c1.109-0.994,2.914-1.18,4.448-0.658
		c1.534,0.523,2.797,1.669,3.635,2.984c0.601,0.943,1.013,2.025,0.889,3.071c-0.128,1.082-0.804,2-1.493,2.848
		c-3.07,3.785-6.765,7.117-10.933,9.86C166.371,77.515,165.547,77.931,164.695,78.222z"/>
</g>
<g>
	<g>
		<path fill="#E5D1BD" d="M195.792,157.74c-0.563,0.635-1.126,1.27-1.689,1.904c-2.401-1.643-4.704-3.525-6.841-5.589
			c1.175-0.518,1.925-2.043,3.564-0.839C191.356,153.606,195.68,157.866,195.792,157.74z"/>
		<path fill="#4D4D4D" d="M192.989,159.609c-0.088,0.419,0.028,0.886,0.32,1.28c0.777,1.049,0.768,2.242,0.948,3.527
			c0.059,0.425,0.083,0.939-0.263,1.193c-0.172,0.126-0.405,0.156-0.559,0.304c-0.253,0.244-0.148,0.705,0.127,0.924
			c0.276,0.219,0.652,0.254,1.004,0.249c0.392-0.005,0.784-0.049,1.168-0.131c0.578-0.123,1.181-0.366,1.487-0.872
			c0.307-0.509,0.327-1.235,0.559-1.797c0.318-0.77,0.529-1.495,0.616-2.331c0.163-1.587-0.013-3.186-0.171-4.766
			c-0.016-0.161-0.038-0.33-0.152-0.471c-0.122-0.15-0.327-0.239-0.522-0.316c-1.085-0.429-2.731-1.105-3.169,0.14
			c-0.187,0.531,0.032,1.166-0.206,1.723C193.98,158.72,193.068,159.232,192.989,159.609z"/>
	</g>
	<path fill="#007637" d="M156.855,132.644c-0.278,0.643-0.561,1.32-0.499,2.018c0.078,0.88,0.684,1.611,1.273,2.269
		c8.348,9.329,18.812,16.466,29.163,23.505c0.179,0.121,0.386,0.249,0.596,0.199c0.151-0.036,0.266-0.156,0.371-0.27
		c2.492-2.713,4.985-5.426,7.477-8.139c0.601-0.654,1.237-1.392,1.257-2.279c0.02-0.885-0.578-1.649-1.145-2.329
		c-4.831-5.791-9.663-11.582-14.494-17.373c-0.281-0.337-0.575-0.707-0.594-1.145c-0.014-0.323,0.127-0.631,0.264-0.924
		c1.873-3.995,3.745-7.99,5.618-11.985c1.708-3.644,4.595-13.158,2.43-16.551c-2.296-3.596-12.092-8.128-15.889-6.182
		C165.374,97.201,161.443,122.029,156.855,132.644z"/>
	<g>
		<path fill="#E5D1BD" d="M176.157,167.936c-0.85-0.18-1.7-0.36-2.551-0.54c0.048-3.119,0.353-6.276,0.904-9.376
			c1.093,0.812,2.799,0.685,2.697,2.858C177.174,161.581,175.989,167.901,176.157,167.936z"/>
		<path fill="#4D4D4D" d="M173.015,166.342c-0.403,0.144-0.733,0.505-0.903,0.989c-0.098,0.281-0.146,0.603-0.289,0.843
			c-0.14,0.236-0.358,0.37-0.57,0.498c-1.013,0.611-1.803,0.889-2.71,1.715c-0.324,0.295-0.694,0.538-1.092,0.719
			c-0.12,0.055-0.25,0.108-0.328,0.215c-0.094,0.127-0.095,0.302-0.064,0.457c0.128,0.645,0.717,1.126,1.354,1.288
			c0.76,0.193,1.569,0.069,2.34,0.213c0.906,0.169,1.791-0.013,2.639-0.348c1.715-0.676,3.168-1.891,4.59-3.032
			c0.127-0.102,0.258-0.214,0.313-0.396c0.059-0.195,0.019-0.433-0.025-0.656c-0.243-1.24-0.59-3.135-1.886-2.869
			c-0.553,0.114-0.967,0.66-1.57,0.74C174.319,166.783,173.377,166.212,173.015,166.342z"/>
	</g>
	<path fill="#00984A" d="M165.848,158.154c4.816,0.836,9.586,2.079,14.246,3.713c2.021-3.306,3.09-7.171,4.009-11.017
		c2.359-9.871,3.885-19.973,5.408-30.061c0.789-5.228,1.579-10.456,2.368-15.683c0.65-4.309,2.54-9.076-1.716-12.075
		c-1.248-0.88-2.709-1.401-4.16-1.879c-1.763-0.58-3.571-1.117-5.426-1.135c-1.855-0.018-3.79,0.544-5.075,1.883
		c-1.891,1.97-1.947,5-2.068,7.728c-0.304,6.825-2.005,13.315-3.03,20.029c-1.062,6.959-1.452,13.995-2.102,20.999
		C167.757,146.537,167.092,152.415,165.848,158.154z"/>
	<path fill="#0D3178" d="M182.699,55.361c6.938,4.312,11.077,16.498,12.204,23.441c1.456,8.965,0.553,18.171-0.837,27.157
		c-11.294-3.062-22.674-5.78-34.121-8.15c1.23,0.255,4.94-6.654,5.489-7.697c1.426-2.71,3.075-6.144,3.244-9.283
		c0.353-6.543-1.748-13.329-0.093-19.83c1.169-4.59,5.017-7.507,9.552-7.18C179.772,53.936,181.293,54.487,182.699,55.361z"/>
</g>
<g>
	<g>
		<g>
			<circle fill="#F6D738" cx="116.744" cy="93.63" r="39.734"/>
		</g>
		<g>
			<circle fill="#F3CC30" cx="116.744" cy="93.63" r="33.722"/>
		</g>
		<g>
			<path fill="#EDBD31" d="M135.778,65.749c3.097,5.401,4.736,11.722,4.407,18.402c-0.914,18.601-16.735,32.94-35.336,32.026
				c-6.46-0.317-12.405-2.434-17.377-5.84c5.527,9.639,15.697,16.348,27.618,16.934c18.601,0.914,34.422-13.424,35.336-32.026
				C151.024,83.104,145.121,72.149,135.778,65.749z"/>
		</g>
		<g>
			<path fill="#F7DB5E" d="M88.812,95.346c0.807-16.42,14.772-29.077,31.192-28.27c9.598,0.472,17.908,5.44,22.997,12.766
				c-4.696-9.165-14.024-15.638-25.048-16.18c-16.42-0.807-30.386,11.85-31.193,28.27c-0.335,6.822,1.655,13.22,5.273,18.427
				C89.736,105.873,88.547,100.742,88.812,95.346z"/>
		</g>
	</g>
</g>
<g>
	<path fill="#E5D1BD" d="M145.151,80.206c0.639-0.443,1.278-0.885,1.917-1.328c0.198-0.137,0.664-0.624,0.923-0.349
		c0.126,0.134,0.588,0.553,1.026,0.998c0.475,0.234,0.94,0.487,1.434,0.679c1.248,0.487,4.402,0.191,4.632,1.872
		c0.045,0.325,0.089,0.658,0.009,0.97c-0.065,0.254-0.21,0.48-0.363,0.694c-0.12,0.167-0.265,0.461-0.478,0.492
		c-0.223,0.032-0.742-0.237-0.968-0.309c-0.648-0.207-1.296-0.413-1.944-0.62c-0.636-0.203-1.401-0.388-1.884-0.004
		c-0.106,0.084-0.19,0.191-0.308,0.26c-0.133,0.078-0.297,0.1-0.458,0.116c-0.587,0.06-1.196,0.077-1.793,0.007
		c-0.544-0.064-0.728-0.435-1.059-0.811c-0.387-0.439-0.952-0.579-1.343-1.005c-0.221-0.24-0.353-0.574-0.25-0.857
		c0.083-0.229,0.299-0.384,0.505-0.527C144.882,80.392,145.017,80.299,145.151,80.206z"/>
	<path fill="#001552" d="M168.672,87.187c-1.355,0.462-2.783,0.605-4.474,0.476c-4.177-0.318-8.345-1.241-12.306-2.725
		c0.03-1.814,0.453-3.597,1.238-5.211c3.417,0.517,6.859,0.784,10.283,0.797c1.678,0.006,3.146-0.249,4.124-1.552
		c2.178-2.902,4.108-5.97,5.769-9.172c0.367-0.708,0.733-1.437,1.338-1.979c1.109-0.994,2.914-1.18,4.448-0.658
		s2.797,1.669,3.635,2.984c0.601,0.943,1.013,2.025,0.889,3.071c-0.128,1.082-0.804,2-1.493,2.848
		c-3.07,3.785-6.765,7.117-10.933,9.86C170.348,86.481,169.524,86.897,168.672,87.187z"/>
</g>
<g>
	<g>
		<g>
			<path fill="#E5D1BD" d="M174.2,56.746c1.539-0.313,3.078-0.626,4.616-0.939c-0.062-0.686-0.153-1.369-0.275-2.046
				c-0.094-0.522-0.44-1.293-0.269-1.783c0.201-0.578,0.713-1.122,0.954-1.712c0.249-0.609,0.428-1.245,0.548-1.892
				c0.196-1.054,0.242-2.138,0.19-3.208c-0.04-0.82-0.457-1.544-0.678-2.335c-0.168-0.599-0.344-1.215-0.728-1.703
				c-0.675-0.857-1.845-1.143-2.933-1.219c-3.098-0.218-8.617,1.205-8.292,5.187c0.071,0.874,0.284,1.73,0.496,2.581
				c0.447,1.796,0.645,5.236,2.847,5.844c0.621,0.171,1.319,0.032,1.894,0.32C173.584,54.351,173.6,55.782,174.2,56.746z"/>
		</g>
	</g>
	<path fill="#A09187" d="M179.594,49.764c0.278-0.53,0.539-1.073,0.589-1.16c0.582-1.023,1.06-2.195,0.771-3.388
		c-0.184-0.761-0.66-1.428-1.195-2.012c-2.014-2.198-5.051-3.45-8.017-3.303c-1.786,0.088-4.146,1.22-4.199,3.299
		c1.67,0.16,2.411,2.286,3.943,2.971c0.709,0.317,1.517,0.291,2.293,0.259c0.172-0.007,0.353-0.017,0.498-0.11
		c0.21-0.136,0.28-0.402,0.391-0.626c0.213-0.431,0.673-0.766,1.152-0.715c0.478,0.051,0.881,0.581,0.707,1.03
		c-0.177,0.456-0.75,0.574-1.227,0.681c-0.145,0.033-0.32,0.105-0.328,0.254c-0.005,0.1,0.072,0.183,0.145,0.253
		c1.254,1.215,2.508,2.429,3.762,3.644C178.958,50.921,179.286,50.35,179.594,49.764z"/>
	<path fill="#534741" d="M171.403,41.888c0.737,0.193,1.447,0.531,2.154,0.801c0.296,0.113,1.345,0.606,1.636,0.433
		c0.292-0.173,0.02-1.009,0.319-1.365c0.849-1.01,1.799,0.025,2.276,0.807c0.555,0.911,0.894,2.005,1.78,2.688
		c0.189,0.146,0.4,0.269,0.563,0.442c0.557,0.593,0.368,1.505,0.143,2.254c0.056-0.188,0.548-0.483,0.698-0.629
		c0.245-0.238,0.48-0.485,0.705-0.741c0.469-0.533,0.893-1.104,1.267-1.706c0.718-1.155,1.075-2.493,1.99-3.518
		c0.346-0.388,0.784-0.689,1.137-1.072c0.588-0.638,0.918-1.498,0.909-2.371c-0.346,0.805-1.436,1.069-2.318,0.824
		c-0.882-0.245-1.605-0.863-2.314-1.443c-0.709-0.579-1.482-1.158-2.384-1.295c-0.819-0.124-1.631,0.134-2.453,0.158
		c-0.867,0.025-1.727-0.211-2.593-0.31c-2.498-0.286-5.073,0.648-6.684,2.457c-1.027,1.153-1.667,2.671-1.805,4.213
		c-0.081,0.909-0.194,1.709,0.734,2.248c-0.322-0.187,0.805-1.867,0.96-2.038c0.623-0.689,1.205-0.975,2.121-0.99
		C170.639,41.729,171.025,41.789,171.403,41.888z"/>
</g>
<g>
	<g>
		<g>
			<path fill="#63767C" d="M87.199,162.732L25.82,151.723c-0.271-0.049-0.489-0.413-0.489-0.815V75.234
				c0-0.401,0.219-0.766,0.489-0.815L87.199,63.41c0.448-0.08,0.812,0.275,0.812,0.793v97.736
				C88.011,162.457,87.647,162.812,87.199,162.732z"/>
			<g>
				<g>
					<path fill="#506266" d="M70.745,113.071c0,12.037-7.705,21.15-16.603,20.406c-8.293-0.694-14.613-9.811-14.613-20.406
						s6.32-19.712,14.613-20.406C63.04,91.921,70.745,101.034,70.745,113.071z"/>
				</g>
				<path fill="#A4BBBC" d="M66.727,113.071c0,9.124-5.791,16.147-12.585,15.709c-6.435-0.415-11.407-7.439-11.407-15.709
					s4.972-15.295,11.407-15.709C60.935,96.924,66.727,103.947,66.727,113.071z"/>
				<path fill="#4D4D4D" d="M58.398,113.071c0,3.085-1.924,5.543-4.256,5.491c-2.288-0.052-4.112-2.509-4.112-5.491
					s1.824-5.439,4.112-5.491C56.474,107.528,58.398,109.986,58.398,113.071z"/>
				<path opacity="0.11" fill="#FFFFFF" d="M57.509,109.593c0.373,0.82,0.588,1.778,0.588,2.803c0,3.082-1.919,5.542-4.245,5.496
					c-1.311-0.026-2.467-0.844-3.214-2.094c0.707,1.618,2.029,2.73,3.561,2.765c2.333,0.053,4.258-2.406,4.258-5.492
					C58.456,111.75,58.1,110.54,57.509,109.593z"/>
				<g>
					<g>
						<path fill="#4D4D4D" d="M54.484,128.494c0-1.163,0-2.326,0-3.489c0-0.481-0.569-0.509-0.569-0.028c0,1.16,0,2.32,0,3.481
							C53.915,128.938,54.484,128.975,54.484,128.494L54.484,128.494z"/>
					</g>
					<g>
						<path fill="#4D4D4D" d="M54.484,101.137c0-1.163,0-2.326,0-3.489c0-0.481-0.569-0.445-0.569,0.036c0,1.16,0,2.32,0,3.481
							C53.915,101.645,54.484,101.619,54.484,101.137L54.484,101.137z"/>
					</g>
				</g>
				<g>
					<g>
						<path fill="#4D4D4D" d="M42.95,113.574c0.808-0.004,1.622-0.008,2.441-0.012c0.341-0.002,0.338-0.722-0.003-0.72
							c-0.819,0.007-1.633,0.013-2.441,0.019C42.615,112.864,42.617,113.575,42.95,113.574L42.95,113.574z"/>
					</g>
					<g>
						<path fill="#4D4D4D" d="M63.573,113.473c0.958-0.005,1.923-0.009,2.896-0.014c0.404-0.002,0.402-0.788-0.003-0.784
							c-0.973,0.008-1.938,0.015-2.896,0.023C63.176,112.701,63.178,113.475,63.573,113.473L63.573,113.473z"/>
					</g>
				</g>
				<g>
					<g>
						<path fill="#4D4D4D" d="M46.488,124.175c0.575-0.788,1.153-1.58,1.733-2.375c0.241-0.33-0.15-0.848-0.391-0.517
							c-0.579,0.796-1.155,1.587-1.728,2.375C45.866,123.983,46.25,124.501,46.488,124.175L46.488,124.175z"/>
					</g>
					<g>
						<path fill="#4D4D4D" d="M60.799,104.564c0.647-0.886,1.297-1.778,1.951-2.673c0.271-0.372-0.169-0.886-0.44-0.514
							c-0.651,0.895-1.299,1.786-1.944,2.673C60.1,104.415,60.532,104.93,60.799,104.564L60.799,104.564z"/>
					</g>
				</g>
				<g>
					<g>
						<path fill="#4D4D4D" d="M46.511,102.081c0.543,0.829,1.089,1.661,1.638,2.497c0.228,0.347,0.639-0.143,0.41-0.491
							c-0.55-0.837-1.098-1.669-1.643-2.498C46.691,101.248,46.287,101.739,46.511,102.081L46.511,102.081z"/>
					</g>
					<g>
						<path fill="#4D4D4D" d="M59.993,122.639c0.607,0.926,1.218,1.856,1.831,2.792c0.255,0.388,0.715-0.092,0.459-0.481
							c-0.615-0.936-1.228-1.867-1.837-2.793C60.194,121.774,59.742,122.256,59.993,122.639L59.993,122.639z"/>
					</g>
				</g>
			</g>
			<path fill="#798E91" d="M78.88,130.231l-0.03-0.002c-0.587-0.037-1.06-0.634-1.06-1.332V97.943c0-0.698,0.474-1.293,1.06-1.329
				l0.03-0.002c0.589-0.036,1.069,0.505,1.069,1.209v31.205C79.949,129.729,79.469,130.269,78.88,130.231z"/>
		</g>
		<path fill="#798E91" d="M88.772,162.743h-1.573V63.41h1.573c0.211,0,0.382,0.171,0.382,0.382v98.569
			C89.154,162.572,88.983,162.743,88.772,162.743z"/>
	</g>
	<g>
		<path fill="#798E91" d="M28.109,94.388v-5.187c0-1.339-1.085-2.424-2.424-2.424c-1.339,0-2.424,1.085-2.424,2.424v5.187H28.109z"
			/>
		<path fill="#798E91" d="M23.261,95.067v5.187c0,1.339,1.085,2.424,2.424,2.424c1.339,0,2.424-1.085,2.424-2.424v-5.187H23.261z"/>
	</g>
	<g>
		<path fill="#798E91" d="M27.495,129.422v-5.187c0-1.339-1.085-2.424-2.424-2.424c-1.339,0-2.424,1.085-2.424,2.424v5.187H27.495z"
			/>
		<path fill="#798E91" d="M22.647,130.1v5.187c0,1.339,1.085,2.424,2.424,2.424c1.339,0,2.424-1.085,2.424-2.424V130.1H22.647z"/>
	</g>
</g>
</svg>
