<?xml version="1.0" encoding="utf-8"?>
<!-- Generator: Adobe Illustrator 16.0.0, SVG Export Plug-In . SVG Version: 6.00 Build 0)  -->
<!DOCTYPE svg PUBLIC "-//W3C//DTD SVG 1.1//EN" "http://www.w3.org/Graphics/SVG/1.1/DTD/svg11.dtd">
<svg version="1.1" id="Layer_1" xmlns="http://www.w3.org/2000/svg" xmlns:xlink="http://www.w3.org/1999/xlink" x="0px" y="0px"
	 width="216px" height="216px" viewBox="0 0 216 216" enable-background="new 0 0 216 216" xml:space="preserve">
<g>
	<path fill="#0D3178" d="M172.905,65.369L154.83,47.291c-2.661-2.658-7.373-2.27-10.508,0.865l-9.953,9.952l27.721,27.718
		l9.949-9.95C175.175,72.74,175.562,68.026,172.905,65.369z"/>
	<path fill="#0D3178" d="M82.198,110.28l-6.127,6.127L63.648,128.83c-0.307,0.305-1.146,1.145-1.449,2.327
		c-0.063,0.135-0.118,0.272-0.166,0.413L51.04,166.065c-0.302,0.967-0.107,1.936,0.525,2.566c0.629,0.629,1.6,0.827,2.565,0.522
		l34.498-10.995c0.138-0.043,0.278-0.1,0.415-0.165c1.181-0.301,2.022-1.144,2.325-1.447l66.103-66.101l-27.722-27.721
		L82.198,110.28z M68.472,159l-7.273-7.275l4.578-14.369l17.065,17.063L68.472,159z M128.684,77.297l-51.531,51.53
		c-0.98,0.98-2.573,0.98-3.554,0c-0.98-0.981-0.98-2.573,0-3.555l51.533-51.53c0.979-0.982,2.571-0.982,3.552,0
		C129.665,74.723,129.665,76.315,128.684,77.297z"/>
</g>
</svg>
