<?xml version="1.0" encoding="utf-8"?>
<!-- Generator: Adobe Illustrator 16.0.0, SVG Export Plug-In . SVG Version: 6.00 Build 0)  -->
<!DOCTYPE svg PUBLIC "-//W3C//DTD SVG 1.1//EN" "http://www.w3.org/Graphics/SVG/1.1/DTD/svg11.dtd">
<svg version="1.1" id="Layer_1" xmlns="http://www.w3.org/2000/svg" xmlns:xlink="http://www.w3.org/1999/xlink" x="0px" y="0px"
	 width="216px" height="216px" viewBox="0 0 216 216" enable-background="new 0 0 216 216" xml:space="preserve">
<circle fill="none" stroke="#0E3179" stroke-width="10" stroke-miterlimit="10" cx="108.376" cy="107.727" r="97.284"/>
<path fill-rule="evenodd" clip-rule="evenodd" fill="#0D3178" d="M166.896,42.512c-0.119,4.485-0.286,8.97-0.345,13.456
	c-0.048,3.641,0.011,7.284,0.066,10.926c0.043,2.722,0.016,5.457,0.268,8.163c0.573,6.178,1.299,12.344,1.957,18.468
	c-3.163,2.018-6.534,4.006-9.734,6.237c-10.773,7.501-20.353,16.369-29.434,25.787c-10.309,10.688-19.824,22.036-28.316,34.212
	c-4.175,5.985-8.102,12.131-11.461,18.618c-0.117,0.224-0.243,0.447-0.41,0.757c-2.325-2.557-4.601-5.062-6.884-7.564
	c-6.688-7.326-13.262-14.755-20.105-21.934c-4.785-5.018-10.51-8.969-16.609-12.254c-4.995-2.69-10.223-4.954-15.346-7.41
	c-0.097-0.047-0.18-0.123-0.422-0.293c12.687-8.648,25.31-17.253,38.037-25.927c6.376,12.916,12.698,25.721,19.121,38.729
	c0.263-0.396,0.389-0.519,0.448-0.672c3.439-8.923,7.967-17.311,12.728-25.578c7.208-12.518,14.958-24.699,23.393-36.434
	c6.535-9.094,13.817-17.555,22.355-24.877c5.285-4.531,10.92-8.554,17.397-11.28c0.941-0.396,1.901-0.753,2.853-1.128
	C166.599,42.512,166.747,42.512,166.896,42.512z"/>
</svg>
