<?xml version="1.0" encoding="utf-8"?>
<!-- Generator: Adobe Illustrator 16.0.0, SVG Export Plug-In . SVG Version: 6.00 Build 0)  -->
<!DOCTYPE svg PUBLIC "-//W3C//DTD SVG 1.1//EN" "http://www.w3.org/Graphics/SVG/1.1/DTD/svg11.dtd">
<svg version="1.1" id="Layer_1" xmlns="http://www.w3.org/2000/svg" xmlns:xlink="http://www.w3.org/1999/xlink" x="0px" y="0px"
	 width="216px" height="216px" viewBox="0 0 216 216" enable-background="new 0 0 216 216" xml:space="preserve">
<path fill="#0E3179" d="M150.195,75.459c-0.399-0.495-0.813-0.979-1.228-1.46c-10.521-12.183-26.061-19.915-43.383-19.915
	c-31.614,0-57.334,25.72-57.334,57.334c0,15.49,6.185,29.555,16.202,39.883c1.627,1.678,3.353,3.258,5.173,4.727
	c9.843,7.949,22.352,12.726,35.959,12.726c31.613,0,57.333-25.72,57.333-57.333C162.919,97.811,158.145,85.302,150.195,75.459z"/>
<path fill="#F7F7F7" d="M91.322,136.243L59.785,104.67l78.391,13.938l6.381,4.906l0.096,0.066l10.354,10.408
	c3.146-6.877,4.912-14.516,4.912-22.57c0-30.008-24.326-54.334-54.333-54.334S51.252,81.41,51.252,111.418
	c0,30.007,24.326,54.333,54.334,54.333c2.568,0,5.092-0.19,7.564-0.536l-28.292-28.359L91.322,136.243z M155.007,133.988
	l-10.354-10.408l-0.098-0.066l-6.38-4.906l-78.39-13.938l31.537,31.573l-6.463,0.612l28.292,28.357
	C131.816,162.613,147.439,150.532,155.007,133.988L155.007,133.988z"/>
<linearGradient id="SVGID_1_" gradientUnits="userSpaceOnUse" x1="470.4795" y1="663.9756" x2="575.707" y2="769.2031" gradientTransform="matrix(1 0 0 1 -396 -574)">
	<stop  offset="0" style="stop-color:#000000;stop-opacity:0.4"/>
	<stop  offset="0.995" style="stop-color:#FFFFFF;stop-opacity:0"/>
</linearGradient>
<path fill="url(#SVGID_1_)" d="M155.007,133.988l-10.354-10.408l-0.098-0.066l-6.38-4.906l-78.39-13.938l31.537,31.573l-6.463,0.612
	l28.292,28.357C131.816,162.613,147.439,150.532,155.007,133.988z"/>
<path fill="#16469D" d="M82.343,75.383l-22.636,29.26l62.213,48.128l22.637-29.258L82.343,75.383z M109.527,119.876
	c-3.154,4.078-9.021,4.827-13.101,1.671c-4.08-3.154-4.828-9.02-1.673-13.1c3.156-4.078,9.021-4.828,13.101-1.671
	C111.936,109.932,112.686,115.797,109.527,119.876z"/>
<circle fill="#F7F7F7" cx="102.143" cy="114.162" r="9.338"/>
<path fill="#0E3179" d="M152.048,139.545c-0.411-0.727-0.833-1.445-1.265-2.156c-1.237-2.041-4.242-4.018-6.586-4.203
	c-8.854-0.701-17.771-0.789-26.656-0.723c-1.096,0.008-3,2.319-3.016,3.581c-0.012,1.157,1.894,3.125,3.188,3.347
	c3.146,0.535,6.441,0.133,9.655,0.401c0.905,0.077,1.729,1.166,2.591,1.79c-0.842,0.633-1.65,1.757-2.527,1.813
	c-3.734,0.234-7.492,0.076-11.234,0.203c-5.744,0.194-10.939-1.052-15.508-4.807c-2.684-2.207-5.731-3.969-8.592-5.964
	c-2.166-1.511-4.316-1.962-6.147,0.353c-1.849,2.334-0.83,4.323,1.112,6.057c3.859,3.438,7.682,6.918,11.59,10.301
	c4.377,3.781,9.423,5.65,15.298,5.414c4.646-0.19,9.336-0.366,13.944,0.086c2.319,0.229,4.545,1.355,6.812,2.222
	C141.759,152.766,147.706,146.702,152.048,139.545L152.048,139.545z"/>
<circle fill="none" cx="105.585" cy="111.418" r="54.333"/>
<path fill="#D37DA4" d="M150.27,75.386c-0.42-0.476-0.865-0.926-1.299-1.387c0.414,0.48,0.825,0.965,1.225,1.46L150.27,75.386z"/>
<linearGradient id="SVGID_2_" gradientUnits="userSpaceOnUse" x1="433.7256" y1="695.5654" x2="579.1136" y2="840.9545" gradientTransform="matrix(1 0 0 1 -396 -574)">
	<stop  offset="0" style="stop-color:#000000;stop-opacity:0.2"/>
	<stop  offset="0.995" style="stop-color:#FFFFFF;stop-opacity:0"/>
</linearGradient>
<path fill="url(#SVGID_2_)" d="M67.17,151.021l0.171,0.149l-0.159-0.149H67.17z"/>
<path fill="#1B6D69" d="M67.685,151.5h0.025l-0.369-0.327L67.685,151.5z"/>
<circle fill="none" stroke="#0E3179" stroke-width="2" stroke-miterlimit="10" cx="135.831" cy="98.635" r="12.606"/>
<g>
	<path fill="#0E3179" d="M137.984,106.795h-4.348v-6.046h-6.361v-4.426h6.361v-5.849h4.348v5.849h6.402v4.426h-6.402V106.795z"/>
</g>
<g enable-background="new    ">
	<path fill="#0E3179" d="M96.772,108.801h1.315v4.914h0.045c0.272-0.394,0.544-0.756,0.801-1.089l3.115-3.825h1.633l-3.689,4.324
		l3.977,5.867h-1.558l-3.357-5.005l-0.968,1.119v3.886h-1.315V108.801z"/>
	<path fill="#0E3179" d="M104.739,117.631c0.393,0.258,1.089,0.529,1.754,0.529c0.968,0,1.422-0.483,1.422-1.089
		c0-0.635-0.378-0.982-1.361-1.346c-1.315-0.469-1.936-1.194-1.936-2.071c0-1.18,0.953-2.147,2.525-2.147
		c0.741,0,1.392,0.212,1.8,0.454l-0.333,0.968c-0.287-0.182-0.816-0.424-1.497-0.424c-0.786,0-1.225,0.454-1.225,0.998
		c0,0.605,0.438,0.877,1.391,1.24c1.27,0.483,1.92,1.119,1.92,2.208c0,1.285-0.998,2.192-2.737,2.192
		c-0.802,0-1.542-0.196-2.057-0.499L104.739,117.631z"/>
</g>
</svg>
