<?xml version="1.0" encoding="utf-8"?>
<!-- Generator: Adobe Illustrator 16.0.0, SVG Export Plug-In . SVG Version: 6.00 Build 0)  -->
<!DOCTYPE svg PUBLIC "-//W3C//DTD SVG 1.1//EN" "http://www.w3.org/Graphics/SVG/1.1/DTD/svg11.dtd">
<svg version="1.1" id="Layer_1" xmlns="http://www.w3.org/2000/svg" xmlns:xlink="http://www.w3.org/1999/xlink" x="0px" y="0px"
	 width="120.25px" height="120.25px" viewBox="0 0 120.25 120.25" enable-background="new 0 0 120.25 120.25" xml:space="preserve">
<linearGradient id="SVGID_1_" gradientUnits="userSpaceOnUse" x1="190.3457" y1="-237.439" x2="336.3577" y2="-383.452" gradientTransform="matrix(1 0 0 -1 -198 -166.75)">
	<stop  offset="0" style="stop-color:#000000;stop-opacity:0.2"/>
	<stop  offset="0.995" style="stop-color:#FFFFFF;stop-opacity:0"/>
</linearGradient>
<path fill="url(#SVGID_1_)" d="M21.918,100.271l0.171,0.15l-0.159-0.15H21.918z"/>
<path fill="#1B6D69" d="M22.433,100.75h0.025l-0.369-0.327L22.433,100.75z"/>
<path fill="#0D3178" d="M59.834,3.084C28.22,3.084,2.5,28.804,2.5,60.418c0,31.613,25.72,57.333,57.334,57.333
	c31.613,0,57.333-25.72,57.333-57.333C117.167,28.804,91.447,3.084,59.834,3.084L59.834,3.084z"/>
<path fill="#F7F7F7" d="M59.834,6.084C29.874,6.084,5.5,30.458,5.5,60.418c0,29.959,24.374,54.334,54.334,54.334
	c29.959,0,54.333-24.375,54.333-54.334C114.167,30.458,89.793,6.084,59.834,6.084L59.834,6.084z"/>
<path fill="none" d="M59.834,114.751c7.242,0,14.148-1.429,20.467-4.001H39.362C45.681,113.325,52.589,114.751,59.834,114.751z"/>
<path fill="#0D3178" d="M59.188,19.462L11.771,51.75h94.834L59.188,19.462z"/>
<path fill="none" d="M59.834,114.751c14.003,0,26.768-5.301,36.4-14.001H23.433C33.066,109.45,45.83,114.751,59.834,114.751z"/>
<linearGradient id="SVGID_2_" gradientUnits="userSpaceOnUse" x1="192.6406" y1="-235.8887" x2="339.2796" y2="-382.5277" gradientTransform="matrix(1 0 0 -1 -198 -166.75)">
	<stop  offset="0" style="stop-color:#000000;stop-opacity:0.2"/>
	<stop  offset="0.995" style="stop-color:#FFFFFF;stop-opacity:0"/>
</linearGradient>
<path fill="url(#SVGID_2_)" d="M34.439,108.441c-0.766-0.406-1.521-0.83-2.266-1.271C32.918,107.611,33.673,108.036,34.439,108.441z
	"/>
<linearGradient id="SVGID_3_" gradientUnits="userSpaceOnUse" x1="228.3252" y1="-200.2021" x2="374.9652" y2="-346.8422" gradientTransform="matrix(1 0 0 -1 -198 -166.75)">
	<stop  offset="0" style="stop-color:#000000;stop-opacity:0.2"/>
	<stop  offset="0.995" style="stop-color:#FFFFFF;stop-opacity:0"/>
</linearGradient>
<path fill="url(#SVGID_3_)" d="M114.167,60.418l-0.024-0.958l-7.56-7.552l-4.097-0.158H13.911l-2.141,0.258l17.73,17.73V57.75h5v33
	h-4.605l-0.009,0.075l5.944,5.925h64.396C108.891,87.124,114.167,74.389,114.167,60.418z M52.5,90.75h-5v-33h5V90.75z M70.5,90.75
	h-5v-33h5V90.75z M83.5,90.75v-33h5v33H83.5z"/>
<linearGradient id="SVGID_4_" gradientUnits="userSpaceOnUse" x1="219.3154" y1="-209.5713" x2="365.5522" y2="-355.8081" gradientTransform="matrix(1 0 0 -1 -198 -166.75)">
	<stop  offset="0" style="stop-color:#000000;stop-opacity:0.2"/>
	<stop  offset="0.995" style="stop-color:#FFFFFF;stop-opacity:0"/>
</linearGradient>
<path fill="url(#SVGID_4_)" d="M87.469,107.193c-0.75,0.445-1.511,0.871-2.283,1.279C85.958,108.064,86.719,107.639,87.469,107.193z
	"/>
<linearGradient id="SVGID_5_" gradientUnits="userSpaceOnUse" x1="193.1934" y1="-235.3359" x2="339.8334" y2="-381.9749" gradientTransform="matrix(1 0 0 -1 -198 -166.75)">
	<stop  offset="0" style="stop-color:#000000;stop-opacity:0.2"/>
	<stop  offset="0.995" style="stop-color:#FFFFFF;stop-opacity:0"/>
</linearGradient>
<path fill="url(#SVGID_5_)" d="M36.799,109.622c-0.768-0.36-1.525-0.737-2.272-1.133C35.273,108.884,36.031,109.262,36.799,109.622z
	"/>
<linearGradient id="SVGID_6_" gradientUnits="userSpaceOnUse" x1="211.4365" y1="-217.0957" x2="358.0725" y2="-363.7317" gradientTransform="matrix(1 0 0 -1 -198 -166.75)">
	<stop  offset="0" style="stop-color:#000000;stop-opacity:0.2"/>
	<stop  offset="0.995" style="stop-color:#FFFFFF;stop-opacity:0"/>
</linearGradient>
<path fill="url(#SVGID_6_)" d="M96.234,100.75H23.458c2.675,2.413,5.589,4.563,8.704,6.412c-0.762-0.453-1.512-0.924-2.25-1.412
	h59.865c-0.737,0.488-1.488,0.959-2.25,1.411c4.744-2.817,9.025-6.331,12.695-10.409C98.964,98.15,97.633,99.486,96.234,100.75z"/>
<linearGradient id="SVGID_7_" gradientUnits="userSpaceOnUse" x1="205.8652" y1="-222.6602" x2="352.5085" y2="-369.3035" gradientTransform="matrix(1 0 0 -1 -198 -166.75)">
	<stop  offset="0" style="stop-color:#000000;stop-opacity:0.2"/>
	<stop  offset="0.995" style="stop-color:#FFFFFF;stop-opacity:0"/>
</linearGradient>
<path fill="url(#SVGID_7_)" d="M39.362,110.75c-0.821-0.335-1.633-0.689-2.434-1.064c6.961,3.244,14.718,5.065,22.905,5.065
	c9.146,0,17.758-2.271,25.319-6.263c-1.572,0.83-3.192,1.586-4.854,2.262H39.362z"/>
<path fill="#0D3178" d="M29.5,57.75h5v33h-5V57.75z M47.5,57.75h5v33h-5V57.75z M65.5,57.75h5v33h-5V57.75z M83.5,57.75h5v33h-5
	V57.75z"/>
<path fill="#1B6D69" d="M36.929,109.686l-0.13-0.063L36.929,109.686z M87.527,107.161l-0.06,0.032L87.527,107.161z M85.186,108.473
	l-0.031,0.016L85.186,108.473z M34.526,108.488l-0.087-0.047L34.526,108.488z M32.174,107.17l-0.012-0.008L32.174,107.17z"/>
<path fill="#0D3178" d="M29.912,105.75c0.738,0.488,1.488,0.959,2.25,1.412l0.012,0.008c0.744,0.441,1.5,0.865,2.266,1.271
	l0.087,0.048c0.747,0.396,1.505,0.772,2.272,1.133l0.13,0.063c0.801,0.373,1.612,0.729,2.434,1.063h40.938
	c1.66-0.676,3.28-1.433,4.854-2.263l0.031-0.016c0.772-0.406,1.533-0.834,2.283-1.277l0.059-0.033
	c0.763-0.452,1.514-0.924,2.25-1.411L29.912,105.75L29.912,105.75z"/>
<path fill="#1B6D69" d="M100.227,96.75l-0.002,0.002L100.227,96.75z"/>
<path fill="#0D3178" d="M19.441,96.75c1.106,1.229,2.275,2.396,3.488,3.521l0.159,0.15l0.369,0.327h72.775
	c1.398-1.263,2.729-2.599,3.99-3.998l0.002-0.002L19.441,96.75L19.441,96.75z"/>
</svg>
