<?xml version="1.0" encoding="utf-8"?>
<!-- Generator: Adobe Illustrator 16.0.0, SVG Export Plug-In . SVG Version: 6.00 Build 0)  -->
<!DOCTYPE svg PUBLIC "-//W3C//DTD SVG 1.1//EN" "http://www.w3.org/Graphics/SVG/1.1/DTD/svg11.dtd">
<svg version="1.1" id="Layer_1" xmlns="http://www.w3.org/2000/svg" xmlns:xlink="http://www.w3.org/1999/xlink" x="0px" y="0px"
	 width="120.25px" height="120.25px" viewBox="0 0 120.25 120.25" enable-background="new 0 0 120.25 120.25" xml:space="preserve">
<path fill="#0D3178" d="M61.334,3.084c-14.593,0-27.922,5.488-38.053,14.498c-1.745,1.553-3.393,3.211-4.938,4.963
	C9.427,32.653,4,45.91,4,60.418c0,31.613,25.72,57.333,57.334,57.333c31.613,0,57.333-25.72,57.333-57.333
	C118.667,28.804,92.947,3.084,61.334,3.084L61.334,3.084z"/>
<path fill="#F7F7F7" d="M115.667,60.418c0-2.922-0.237-5.788-0.683-8.585l-24.68-24.616L68.51,85.036l-31.152,24.142
	c7.232,3.563,15.368,5.573,23.977,5.573C91.341,114.751,115.667,90.425,115.667,60.418z"/>
<linearGradient id="SVGID_1_" gradientUnits="userSpaceOnUse" x1="224.2754" y1="-237.7339" x2="392.1124" y2="-237.7339" gradientTransform="matrix(1 0 0 -1 -198 -166.75)">
	<stop  offset="0" style="stop-color:#000000;stop-opacity:0.2"/>
	<stop  offset="0.995" style="stop-color:#FFFFFF;stop-opacity:0"/>
</linearGradient>
<path fill="url(#SVGID_1_)" d="M115.667,60.418c0-2.922-0.237-5.788-0.683-8.585l-24.68-24.616L68.51,85.036l-31.152,24.142
	c7.232,3.563,15.368,5.573,23.977,5.573C91.341,114.751,115.667,90.425,115.667,60.418z"/>
<path fill="none" d="M61.334,114.751c21.732,0,40.477-12.765,49.166-31.201l-66.266,28.427
	C49.613,113.762,55.355,114.751,61.334,114.751z"/>
<path fill="#0D3178" d="M100.382,72.573l2.396,5.584l-22.695,9.735l-2.395-5.584L100.382,72.573z"/>
<path fill="#828282" d="M99.805,46.981l-4.582-10.702l-0.175,0.075l4.589,10.699L99.805,46.981z"/>
<path fill="none" d="M90.305,27.217l-0.068,0.181c0.216,0.097,0.418,0.219,0.609,0.359L90.305,27.217z M102.786,78.159
	l-22.694,9.733l-2.395-5.584l22.693-9.733L102.786,78.159z"/>
<path fill="#F7F7F7" d="M90.236,27.397l0.068-0.181l0.541,0.54c0.282,0.208,0.543,0.454,0.752,0.751l23.387,23.325
	c-4.115-25.927-26.565-45.748-53.65-45.748C31.326,6.084,7,30.41,7,60.418c0,0.499,0.014,0.994,0.027,1.49L87.55,27.365
	C88.445,26.981,89.412,27.027,90.236,27.397z"/>
<path fill="#91A8D1" d="M99.637,47.053L12.545,84.342c3.707,7.54,9.111,14.094,15.714,19.168L25,95.912l15.406-6.609l5.639,13.143
	l0.02,0.048l-0.181,0.077l-11.589,4.972c1.002,0.575,2.021,1.124,3.063,1.638c2.209,1.088,4.512,2.012,6.877,2.797L110.5,83.55
	c0.881-1.866,1.65-3.795,2.316-5.771L99.637,47.053L99.637,47.053z M80.088,87.896l-2.396-5.586l22.695-9.733l2.396,5.584
	L80.088,87.896z M91.945,29.123c-0.096-0.222-0.213-0.426-0.348-0.615l-0.752-0.751c-0.191-0.141-0.396-0.263-0.609-0.359
	c-0.824-0.37-1.791-0.416-2.687-0.032L7.027,61.908c0.105,3.943,0.633,7.781,1.537,11.473l86.483-37.027L91.945,29.123z"/>
<path fill="#BCBCBC" d="M90.846,27.757l0.752,0.751C91.389,28.211,91.129,27.965,90.846,27.757z"/>
<path fill="#828282" d="M46.064,102.492l-0.019-0.047l-0.161,0.125L46.064,102.492z"/>
<path fill="#0D3178" d="M25,95.912l3.259,7.598c1.916,1.473,3.931,2.82,6.036,4.031l11.589-4.971l0.161-0.125l-5.639-13.144
	L25,95.912z M95.048,36.354L8.564,73.381c0.938,3.829,2.279,7.499,3.98,10.961l87.093-37.289L95.048,36.354z"/>
<circle fill="none" cx="61.333" cy="60.418" r="54.333"/>
<linearGradient id="SVGID_2_" gradientUnits="userSpaceOnUse" x1="190.3457" y1="-237.189" x2="336.3577" y2="-383.202" gradientTransform="matrix(1 0 0 -1 -198 -166.75)">
	<stop  offset="0" style="stop-color:#000000;stop-opacity:0.2"/>
	<stop  offset="0.995" style="stop-color:#FFFFFF;stop-opacity:0"/>
</linearGradient>
<path fill="url(#SVGID_2_)" d="M21.918,100.021l0.171,0.15l-0.159-0.15H21.918z"/>
<path fill="#1B6D69" d="M22.433,100.5h0.025l-0.369-0.327L22.433,100.5z"/>
</svg>
