<svg xmlns="http://www.w3.org/2000/svg" width="289.333" height="220.333" viewBox="0 0 289.333 220.333"><path fill="#A6A6A6" d="M180.177 158.817c-7.913-10.442-12.61-23.775-12.61-37.886 0-3.153.237-6.597.688-9.597h-77.866l74.342 59.578 15.446-12.095zm5.244 6.067l-21.369 17.91-83.186-67.687.297.086.17-.086v98.227h164v-31.62c-5 1.175-10.063 1.809-15.201 1.809-17.397-.001-33.411-7.14-44.711-18.639zm42.341-58.57c-3.324 0-6.285 1.915-8.882 5.743-2.598 3.829-3.896 8.167-3.896 13.018 0 3.052.752 5.569 2.252 7.551 1.501 1.981 3.398 2.971 5.688 2.971 3.421 0 6.504-1.907 9.25-5.722 2.744-3.817 4.116-8.113 4.116-12.888 0-3.2-.781-5.78-2.344-7.736-1.563-1.958-3.625-2.937-6.184-2.937zm47.353-14.453c-9.629-14.803-26.305-24.6-45.279-24.6-26.653 0-48.782 19.32-53.181 44.716-.522 3.016-.811 6.11-.811 9.275 0 12.147 4.022 23.348 10.795 32.368 1.574 2.099 3.298 4.079 5.154 5.924 9.141 9.083 21.509 14.924 35.239 15.626.928.047 1.861.073 2.803.073 5.17 0 10.171-.729 14.905-2.086 16.985-4.872 30.536-17.863 36.201-34.501.979-2.874 1.73-5.853 2.215-8.922.437-2.763.67-5.594.67-8.48.001-10.844-3.208-20.933-8.711-29.393zm-18.441 56.459c-3.421 2.721-7.157 4.953-11.207 6.222-4.049 1.267-8.747 2.022-14.087 2.022-11.595 0-20.724-2.877-27.382-8.749-6.659-5.872-9.986-13.884-9.986-24.103 0-7.065 1.642-13.642 4.928-19.758 3.287-6.12 7.631-10.664 13.035-13.655 5.405-2.992 11.65-4.484 18.739-4.484 9.157 0 16.715 2.724 22.673 8.163 5.959 5.441 8.938 12.347 8.938 20.718 0 4.356-1.06 8.586-3.173 12.685-2.119 4.099-4.914 7.398-8.386 9.896-3.47 2.5-7.051 3.748-10.745 3.748-2.486 0-4.253-.448-5.297-1.347-1.048-.899-1.682-2.493-1.902-4.782-1.624 1.921-3.424 3.41-5.394 4.466-1.969 1.06-3.924 1.588-5.87 1.588-3.815 0-6.998-1.574-9.547-4.725-2.547-3.153-3.821-7.065-3.821-11.742 0-3.867.912-7.633 2.733-11.302 1.821-3.667 4.219-6.623 7.199-8.864 2.978-2.239 6.044-3.359 9.195-3.359 4.728 0 8.433 2.434 11.115 6.963l1.292-5.59h6.678l-5.938 27.231c-.345 1.574-.517 2.524-.517 3.018 0 .688.245 1.229.739 1.71.49.479 1.093.697 1.809.697 1.603 0 3.651-1.037 6.147-3.094 2.497-2.055 4.47-4.639 5.911-7.739 1.438-3.102 2.158-6.333 2.158-9.681 0-6.646-2.511-12.191-7.534-16.634-5.02-4.444-11.297-6.666-18.831-6.666-8.887 0-16.243 3.009-22.063 9.027-5.823 6.02-8.733 13.634-8.733 22.838 0 8.963 2.8 15.916 8.4 20.865 5.601 4.947 13.461 7.42 23.576 7.42 5.958 0 11.152-1.008 15.584-3.028 1.673-.789 3.411-2.268 5.206-3.486 1.796-1.218 3.471-2.479 5.023-5.479h6.646c-1.452 3.003-3.889 6.27-7.311 8.99z"/><path fill="#47DA63" d="M141.055 41.245c-12.817-19.705-35.013-32.745-60.272-32.745-39.693 0-71.867 32.175-71.867 71.869 0 38.438 30.177 69.828 68.135 71.771 1.237.063 2.479.096 3.732.096 6.197 0 12.203-.809 17.938-2.284 23.496-6.045 42.34-23.654 50.093-46.419 1.3-3.823 2.3-7.788 2.946-11.876.262-1.661.451-3.345.6-5.043.18-2.059.29-4.137.29-6.244-.001-14.437-4.271-27.865-11.595-39.125z"/><path fill="#fff" d="M113.779 48.036l-47.149 47.155-21.411-21.41-11.334 11.333 32.745 32.745 58.482-58.484z"/></svg>