<svg xmlns="http://www.w3.org/2000/svg" width="214.25" height="160" viewBox="0 0 214.25 160"><path d="M153.162 45.301c-3.345 0-6.324 1.927-8.938 5.778-2.615 3.854-3.92 8.219-3.92 13.101 0 3.071.756 5.604 2.266 7.6 1.512 1.993 3.42 2.99 5.725 2.99 3.443 0 6.545-1.919 9.309-5.759 2.762-3.841 4.143-8.163 4.143-12.97 0-3.221-.786-5.816-2.359-7.785-1.575-1.97-3.65-2.955-6.226-2.955zm-47.887 52.836c-7.963-10.509-12.692-23.602-12.692-37.803 0-3.172.241-6.288.695-9.334h-78.36l74.813 59.632 15.544-12.495zm5.279 6.105l-21.506 18.023-83.714-68.116.022.087-.106-.087v98.851h165v-31.82c-4.808 1.182-9.828 1.82-15 1.82-17.506 0-33.326-7.186-44.696-18.758zm90.262-73.486c-9.688-14.897-26.471-24.756-45.566-24.756-26.823 0-49.092 19.442-53.519 45-.526 3.034-.815 6.149-.815 9.334 0 12.225 4.049 23.497 10.863 32.574 1.584 2.111 3.318 4.104 5.188 5.96 9.199 9.141 21.645 15.02 35.462 15.727.935.048 1.875.072 2.821.072 5.204 0 10.236-.733 15-2.1 17.094-4.903 30.73-17.976 36.432-34.72.984-2.893 1.741-5.89 2.229-8.979.439-2.781.673-5.631.673-8.535-.001-10.911-3.23-21.063-8.768-29.577zm-18.558 57.054c-3.441 2.737-7.202 4.866-11.276 6.144-4.075 1.275-8.803 1.976-14.178 1.976-11.669 0-20.854-2.924-27.556-8.833-6.701-5.909-10.051-13.988-10.051-24.271 0-7.11 1.653-13.735 4.961-19.892 3.307-6.156 7.678-10.735 13.117-13.745 5.439-3.011 11.725-4.515 18.859-4.515 9.215 0 16.82 2.74 22.816 8.215 5.995 5.475 8.994 12.424 8.994 20.848 0 4.385-1.066 8.641-3.194 12.766-2.132 4.125-4.944 7.445-8.438 9.959-3.492 2.516-7.096 3.772-10.813 3.772-2.503 0-4.28-.452-5.331-1.356-1.054-.904-1.691-2.509-1.914-4.813-1.635 1.933-3.445 3.432-5.427 4.495-1.981 1.066-3.95 1.599-5.907 1.599-3.841 0-7.043-1.584-9.607-4.756s-3.847-7.11-3.847-11.816c0-3.891.918-7.681 2.751-11.373 1.834-3.69 4.246-6.664 7.245-8.919 2.997-2.254 6.082-3.381 9.254-3.381 4.757 0 8.485 2.303 11.187 6.86l1.298-5.774h6.721l-5.977 27.551c-.348 1.586-.52 2.614-.52 3.11 0 .692.247 1.275.744 1.759.494.482 1.101.722 1.82.722 1.611 0 3.674-1.036 6.187-3.104s4.497-4.665 5.948-7.786c1.446-3.122 2.172-6.368 2.172-9.738 0-6.688-2.527-12.269-7.582-16.74-5.053-4.472-11.369-6.707-18.951-6.707-8.943 0-16.345 3.028-22.204 9.086s-8.788 13.72-8.788 22.983c0 9.019 2.817 16.018 8.453 20.997 5.637 4.979 13.547 7.469 23.728 7.469 5.995 0 11.222-1.016 15.682-3.048 1.685-.793 3.433-2.047 5.239-3.272 1.809-1.227 3.494-2.28 5.055-5.28h6.689c-1.463 2.998-3.914 6.069-7.359 8.808z" fill="#A6A6A6"/></svg>