<?xml version="1.0" encoding="utf-8"?>
<!-- Generator: Adobe Illustrator 16.0.0, SVG Export Plug-In . SVG Version: 6.00 Build 0)  -->
<!DOCTYPE svg PUBLIC "-//W3C//DTD SVG 1.1//EN" "http://www.w3.org/Graphics/SVG/1.1/DTD/svg11.dtd">
<svg version="1.1" id="Layer_1" xmlns="http://www.w3.org/2000/svg" xmlns:xlink="http://www.w3.org/1999/xlink" x="0px" y="0px"
	 width="216px" height="216px" viewBox="0 0 216 216" enable-background="new 0 0 216 216" xml:space="preserve">
<g>
	<g>
		<path fill-rule="evenodd" clip-rule="evenodd" fill="#0D3178" d="M190.87,49.949c-5.659-0.172-11.326-0.06-16.99-0.058
			c-36.646,0.009-73.291-0.055-109.935,0.137c-4.342,0.022-6.196-1.431-7.115-5.509c-1.167-5.174-2.917-10.216-4.399-15.321
			c-1.219-4.195-4.04-6.482-8.361-6.546c-7.661-0.114-15.328-0.152-22.987,0.027c-4.853,0.113-8.074,3.433-8.078,7.759
			c-0.004,4.417,3.024,7.579,7.98,7.853c4.318,0.24,8.687,0.389,12.982,0.007c3.973-0.352,5.396,1.392,6.429,4.904
			c8.576,29.154,17.267,58.275,26.054,87.367c1.158,3.833,1.087,7.101-0.461,10.949c-5.743,14.278,0.464,23.946,15.802,25.248
			c1.814,0.153,3.661,0.127,5.479,0c23.911-1.684,47.819-3.4,69.508-4.95c7.081,0,11.908-0.055,16.735,0.012
			c7.76,0.107,10.587-1.383,10.659-5.766c0.074-4.414-2.908-6.719-10.366-6.418c-22.454,0.906-44.895,2.179-67.338,3.334
			c-8.469,0.436-16.933,1.153-25.404,1.223c-1.573,0.014-4.092-2.2-4.546-3.837c-0.78-2.818,1.193-4.282,4.271-4.633
			c20.496-2.338,40.975-4.805,61.456-7.273c12.386-1.493,24.765-3.075,37.148-4.598c4.108-0.505,6.628-2.571,7.437-6.789
			c4.261-22.192,8.688-44.354,12.846-66.565C201,53.421,198.117,50.169,190.87,49.949z M70.268,88.765
			c-2.382-7.545-4.58-15.149-6.94-23.106h38.344V90.66c-9.772,0-19.38,0.046-28.986-0.081
			C71.846,90.567,70.522,89.571,70.268,88.765z M101.905,127.577c-5.912,0.687-11.654,1.431-17.418,1.937
			c-0.845,0.074-2.371-0.806-2.6-1.548c-2.975-9.632-5.771-19.319-8.763-29.504h28.78V127.577z M141.272,122.806
			c-10.287,1.26-20.61,2.522-31.558,3.863V98.425h31.558V122.806z M141.423,90.31h-31.581V65.878h31.581V90.31z M173.024,116.426
			c-0.255,1.129-1.634,2.691-2.671,2.843c-6.884,1.005-13.814,1.68-21.129,2.507V98.453h27.292
			C175.331,104.738,174.335,110.617,173.024,116.426z M178.108,90.346h-28.8V65.887h33.496
			C181.216,74.154,179.69,82.101,178.108,90.346z M165.252,173.295c-8.787-0.021-15.643,6.606-15.727,15.204
			c-0.086,8.751,7.098,16.001,15.76,15.902c8.517-0.097,15.347-7.059,15.378-15.675
			C180.694,179.981,174.038,173.314,165.252,173.295z M76.357,173.24c-8.95-0.074-15.925,6.749-15.915,15.566
			c0.011,8.419,7.177,15.628,15.52,15.611c8.495-0.017,15.583-7.017,15.662-15.47C91.705,180.315,84.897,173.311,76.357,173.24z"/>
	</g>
</g>
</svg>
