<?xml version="1.0" encoding="utf-8"?>
<!-- Generator: Adobe Illustrator 16.0.0, SVG Export Plug-In . SVG Version: 6.00 Build 0)  -->
<!DOCTYPE svg PUBLIC "-//W3C//DTD SVG 1.1//EN" "http://www.w3.org/Graphics/SVG/1.1/DTD/svg11.dtd">
<svg version="1.1" id="Layer_1" xmlns="http://www.w3.org/2000/svg" xmlns:xlink="http://www.w3.org/1999/xlink" x="0px" y="0px"
	 width="216px" height="216px" viewBox="0 0 216 216" enable-background="new 0 0 216 216" xml:space="preserve">
<g>
	<g>
		<path fill-rule="evenodd" clip-rule="evenodd" fill="#0D3178" d="M202,71.282v-5.04c-1.871-4.629-5.422-7.39-9.752-9.722
			c-19.659-10.588-39.1-21.586-58.832-32.034c-7.07-3.744-14.74-6.357-22.136-9.486h-7.56c-11.012,1.896-19.975,8.336-29.501,13.459
			c-17.33,9.318-34.474,18.983-51.813,28.284c-4.231,2.27-7.599,5.013-9.406,9.499v5.04c1.44,3.702,3.075,7.524,7.206,8.663
			c3.687,1.017,7.626,1.119,11.921,1.687c0,2.276,0.028,4.62-0.007,6.963c-0.041,2.739-0.012,5.292,3.273,6.508
			c0.708,0.262,1.211,2.023,1.216,3.097c0.071,20.137,0.064,40.272,0.016,60.409c-0.002,1.019-0.288,2.765-0.836,2.939
			c-4.791,1.529-3.8,5.472-3.57,8.754c0.276,3.951-0.652,6.111-4.815,7.561c-8.216,2.859-12.069,9.815-14.404,17.746v8.387
			c63,0.005,126,0.005,189,0v-7.547c-2.232-9.83-7.583-16.875-17.527-20.007c-0.756-0.238-1.425-1.829-1.526-2.854
			c-0.23-2.353,0.08-4.759-0.163-7.109c-0.132-1.286-0.657-3.311-1.496-3.606c-3.447-1.212-2.962-3.824-2.96-6.435
			c0.019-19.137,0.011-38.275,0.01-57.414c0-1.932-0.218-3.653,2.314-4.705c1.16-0.481,1.921-2.878,2.124-4.5
			c0.342-2.718,0.094-5.512,0.094-8.821C191.541,81.72,199.166,80.849,202,71.282z M191.343,194.441H23.399
			c1.67-4.764,4.816-7.498,9.18-8.765c1.981-0.574,4.137-0.764,6.214-0.765c45.78-0.041,91.561-0.04,137.34-0.025
			C184.313,184.891,189.039,187.839,191.343,194.441z M69.582,170.97c0.123,1.401,0.236,2.705,0.384,4.408H41.531v-4.408H69.582z
			 M46.039,161.369v-65.93h18.727v65.93H46.039z M69.747,85.691H41.553c-0.098-1.29-0.197-2.606-0.324-4.287h28.518V85.691z
			 M79.038,84.869c0.087-1.089,0.133-2.182,0.217-3.604h4.82c0,2.356,0.005,4.534-0.001,6.712c-0.009,2.961-0.274,5.959,3.509,7.201
			c0.587,0.193,0.983,1.836,0.986,2.809c0.056,20.275,0.046,40.55,0.028,60.825c0,0.815,0.012,2.219-0.356,2.357
			c-6.159,2.325-3.633,7.622-4.173,11.85c-0.087,0.682-0.142,1.365-0.249,2.419c-1.409,0.113-2.728,0.218-4.769,0.38
			c0-3.028,0.386-5.834-0.128-8.465c-0.377-1.929-1.939-3.626-2.967-5.429c-0.549-0.963-1.556-1.931-1.56-2.9
			c-0.091-20.414-0.074-40.829-0.048-61.244c0.001-0.797,0.115-2.175,0.502-2.304C80.533,93.577,78.721,88.811,79.038,84.869z
			 M107.07,86.077c-3.35,0-6.709-0.171-10.043,0.046c-3.512,0.229-4.577-1.143-3.487-4.729h28.149v4.684H107.07z M116.904,95.48
			v65.847H98.089V95.48H116.904z M97.025,170.68c6.972,0.191,13.956,0.187,20.926-0.004c3.456-0.093,4.652,1.071,3.436,4.89H93.677
			C92.421,172.145,93.125,170.571,97.025,170.68z M130.91,81.442h5.033c0,2.465,0.02,4.807-0.005,7.15
			c-0.029,2.772,0.232,5.25,3.392,6.506c0.734,0.291,1.286,1.982,1.29,3.031c0.075,20.133,0.059,40.268,0.047,60.4
			c-0.001,0.829,0.117,2.251-0.233,2.396c-6.923,2.858-3.655,9.061-4.652,13.836c-0.027,0.127-0.129,0.238-0.448,0.805h-4.163
			c-0.086-1.886-0.165-3.635-0.244-5.382c-0.153-3.374,0.892-7.216-3.835-8.694c-0.5-0.156-0.671-1.972-0.674-3.019
			c-0.037-19.995-0.066-39.989,0.062-59.982c0.009-1.28,1.308-2.552,2-3.831c0.813-1.505,2.1-2.948,2.325-4.54
			C131.189,87.394,130.91,84.575,130.91,81.442z M173.538,171.114v4.295h-28.223c-0.078-1.276-0.157-2.584-0.262-4.295H173.538z
			 M150.164,161.266V95.38h18.694v65.886H150.164z M173.347,85.821h-27.938c-0.128-1.337-0.253-2.645-0.432-4.511h28.37V85.821z
			 M107.073,71.93c-26.173,0-52.347,0-78.521-0.001c-1.12,0-2.343,0.26-3.331-0.106c-1.044-0.387-2.412-1.247-2.627-2.145
			c-0.214-0.893,0.547-2.468,1.373-3.074c1.899-1.393,4.093-2.389,6.177-3.527c21.211-11.59,42.471-23.093,63.615-34.806
			c9.267-5.133,18.2-5.13,27.461-0.005c22.493,12.449,45.107,24.677,67.598,37.13c1.563,0.866,2.507,2.85,3.739,4.314
			c-1.761,0.74-3.519,2.114-5.283,2.123C160.541,71.972,133.807,71.93,107.073,71.93z M107.469,30.052
			c-7.801,0.013-13.876,5.968-13.932,13.654c-0.06,8.219,6.057,14.382,14.182,14.292c7.685-0.085,13.737-6.208,13.745-13.907
			C121.473,36.114,115.415,30.038,107.469,30.052z M112.924,45.072c-1.821,1.217-3.525,3.153-5.495,3.479
			c-2.869,0.476-4.605-1.646-4.623-4.586c-0.018-3.016,1.908-4.999,4.685-4.538c1.962,0.327,3.644,2.341,5.45,3.602
			C112.936,43.71,112.93,44.392,112.924,45.072z"/>
	</g>
</g>
</svg>
