<?xml version="1.0" encoding="utf-8"?>
<!-- Generator: Adobe Illustrator 16.0.0, SVG Export Plug-In . SVG Version: 6.00 Build 0)  -->
<!DOCTYPE svg PUBLIC "-//W3C//DTD SVG 1.1//EN" "http://www.w3.org/Graphics/SVG/1.1/DTD/svg11.dtd">
<svg version="1.1" id="Layer_1" xmlns="http://www.w3.org/2000/svg" xmlns:xlink="http://www.w3.org/1999/xlink" x="0px" y="0px"
	 width="120.25px" height="120.25px" viewBox="0 0 120.25 120.25" enable-background="new 0 0 120.25 120.25" xml:space="preserve">
<path fill="#0E3179" d="M104.195,24.459c-0.399-0.495-0.813-0.979-1.229-1.46C92.445,10.816,76.906,3.084,59.584,3.084
	C27.97,3.084,2.25,28.804,2.25,60.418c0,15.49,6.185,29.555,16.202,39.883c1.627,1.678,3.353,3.258,5.173,4.727
	c9.843,7.949,22.352,12.727,35.959,12.727c31.613,0,57.333-25.72,57.333-57.333C116.919,46.811,112.145,34.302,104.195,24.459z"/>
<path fill="#F7F7F7" d="M45.322,85.243L13.785,53.67l78.391,13.938l6.381,4.906l0.096,0.066l10.354,10.408
	c3.146-6.877,4.912-14.516,4.912-22.57c0-30.008-24.326-54.334-54.333-54.334S5.252,30.41,5.252,60.418
	c0,30.007,24.326,54.333,54.334,54.333c2.568,0,5.092-0.19,7.564-0.536L38.858,85.855L45.322,85.243z M109.007,82.988L98.652,72.58
	l-0.098-0.066l-6.38-4.906L13.785,53.67l31.537,31.573l-6.463,0.612l28.292,28.356C85.816,111.613,101.439,99.532,109.007,82.988
	L109.007,82.988z"/>
<linearGradient id="SVGID_1_" gradientUnits="userSpaceOnUse" x1="622.4805" y1="-779.7266" x2="727.7076" y2="-884.9537" gradientTransform="matrix(1 0 0 -1 -594 -740.75)">
	<stop  offset="0" style="stop-color:#000000;stop-opacity:0.4"/>
	<stop  offset="0.995" style="stop-color:#FFFFFF;stop-opacity:0"/>
</linearGradient>
<path fill="url(#SVGID_1_)" d="M109.007,82.988L98.652,72.58l-0.098-0.066l-6.38-4.906L13.785,53.67l31.537,31.573l-6.463,0.612
	l28.292,28.356C85.816,111.613,101.439,99.532,109.007,82.988z"/>
<path fill="#16469D" d="M36.343,24.383l-22.636,29.26l62.213,48.128l22.637-29.258L36.343,24.383z M63.527,68.876
	c-3.154,4.078-9.021,4.827-13.102,1.671c-4.08-3.154-4.828-9.02-1.673-13.1c3.156-4.078,9.021-4.828,13.101-1.671
	C65.936,58.932,66.686,64.797,63.527,68.876z"/>
<circle fill="#F7F7F7" cx="56.143" cy="63.162" r="9.338"/>
<path fill="#0E3179" d="M106.048,88.545c-0.411-0.727-0.833-1.445-1.265-2.156c-1.237-2.041-4.242-4.018-6.586-4.203
	c-8.854-0.701-17.771-0.789-26.656-0.723c-1.096,0.008-3,2.319-3.016,3.581c-0.012,1.157,1.894,3.125,3.188,3.347
	c3.146,0.535,6.441,0.133,9.655,0.401c0.905,0.077,1.729,1.166,2.591,1.79c-0.842,0.633-1.65,1.757-2.527,1.813
	c-3.733,0.234-7.492,0.076-11.233,0.203c-5.744,0.194-10.939-1.052-15.508-4.807c-2.684-2.207-5.731-3.969-8.592-5.964
	c-2.166-1.511-4.316-1.962-6.147,0.353c-1.849,2.334-0.83,4.323,1.112,6.057c3.859,3.438,7.682,6.918,11.59,10.302
	c4.377,3.78,9.423,5.649,15.298,5.414c4.646-0.19,9.336-0.366,13.943,0.086c2.319,0.229,4.545,1.354,6.813,2.222
	C95.759,101.766,101.706,95.702,106.048,88.545L106.048,88.545z"/>
<circle fill="none" cx="59.585" cy="60.418" r="54.333"/>
<path fill="#D37DA4" d="M104.27,24.386c-0.42-0.476-0.865-0.926-1.299-1.387c0.414,0.48,0.825,0.965,1.225,1.46L104.27,24.386z"/>
<linearGradient id="SVGID_2_" gradientUnits="userSpaceOnUse" x1="585.8535" y1="-811.4419" x2="730.6149" y2="-956.2043" gradientTransform="matrix(1 0 0 -1 -594 -740.75)">
	<stop  offset="0" style="stop-color:#000000;stop-opacity:0.2"/>
	<stop  offset="0.995" style="stop-color:#FFFFFF;stop-opacity:0"/>
</linearGradient>
<path fill="url(#SVGID_2_)" d="M21.17,100.021l0.171,0.148l-0.159-0.148H21.17z"/>
<path fill="#1B6D69" d="M21.685,100.5h0.025l-0.369-0.327L21.685,100.5z"/>
<g enable-background="new    ">
	<path fill="#0E3179" d="M50.772,57.801h1.315v4.914h0.045c0.272-0.395,0.544-0.756,0.801-1.089l3.115-3.825h1.633l-3.689,4.324
		l3.977,5.867h-1.558l-3.357-5.006l-0.968,1.119v3.887h-1.315L50.772,57.801L50.772,57.801z"/>
	<path fill="#0E3179" d="M58.738,66.631c0.394,0.258,1.09,0.529,1.755,0.529c0.968,0,1.422-0.483,1.422-1.09
		c0-0.635-0.378-0.981-1.36-1.346c-1.316-0.469-1.937-1.193-1.937-2.07c0-1.18,0.952-2.147,2.524-2.147
		c0.741,0,1.393,0.212,1.801,0.454l-0.334,0.969c-0.286-0.183-0.815-0.425-1.496-0.425c-0.786,0-1.225,0.454-1.225,0.998
		c0,0.604,0.438,0.877,1.391,1.24c1.27,0.483,1.92,1.118,1.92,2.208c0,1.285-0.998,2.191-2.737,2.191
		c-0.802,0-1.542-0.195-2.057-0.498L58.738,66.631z"/>
</g>
</svg>
