<?xml version="1.0" encoding="utf-8"?>
<!-- Generator: Adobe Illustrator 16.0.0, SVG Export Plug-In . SVG Version: 6.00 Build 0)  -->
<!DOCTYPE svg PUBLIC "-//W3C//DTD SVG 1.1//EN" "http://www.w3.org/Graphics/SVG/1.1/DTD/svg11.dtd">
<svg version="1.1" id="Layer_1" xmlns="http://www.w3.org/2000/svg" xmlns:xlink="http://www.w3.org/1999/xlink" x="0px" y="0px"
	 width="216px" height="216px" viewBox="0 0 216 216" enable-background="new 0 0 216 216" xml:space="preserve">
<path fill="#D1D1D0" d="M197.424,165.889H13.392c-3.888,0-6.912-3.023-6.912-6.912s3.024-6.912,6.912-6.912h184.032
	c3.889,0,6.912,3.023,6.912,6.912C204.336,162.432,201.313,165.889,197.424,165.889z"/>
<path fill="none" stroke="#3B3E43" stroke-width="3" stroke-linecap="round" stroke-linejoin="round" stroke-miterlimit="10" d="
	M96.193,89.325V9.836h45.36v79.488L96.193,89.325L96.193,89.325z M145.152,55.728l14.688,15.984v24.192L155.52,108v22.896h-29.808
	v-9.072c0,0-8.64-12.528-8.208-22.464"/>
<path fill="#FFFFFF" stroke="#3B3E43" stroke-width="3" stroke-linecap="round" stroke-linejoin="round" stroke-miterlimit="10" d="
	M110.16,69.12v6.048l4.752,3.888h7.344l4.752-3.456v-6.48"/>
<path fill="#FFFFFF" stroke="#3B3E43" stroke-width="3" stroke-linecap="round" stroke-linejoin="round" stroke-miterlimit="10" d="
	M146.016,82.944L130.032,66.96c0,0-9.505-4.32-9.505,9.504l14.257,14.256c0,0-0.864,13.392,9.937,24.192"/>
<path fill="#0D3178" stroke="#3B3E43" stroke-width="3" stroke-linecap="round" stroke-linejoin="round" stroke-miterlimit="10" d="
	M119.664,158.544v-28.08h43.199v28.08"/>
<path fill="none" stroke="#3B3E43" stroke-width="3" stroke-linecap="round" stroke-linejoin="round" stroke-miterlimit="10" d="
	M127.008,27.648V21.6l-4.752-3.888h-7.344l-4.752,3.456v6.48"/>
<ellipse fill="none" stroke="#3B3E43" stroke-width="3" stroke-linecap="round" stroke-linejoin="round" stroke-miterlimit="10" cx="119.232" cy="48.384" rx="13.392" ry="13.824"/>
<ellipse fill="#0D3178" cx="119.232" cy="48.384" rx="10.8" ry="10.8"/>
<path fill="#FFFFFF" d="M112.752,48.384c0-0.432,0.432-0.864,0.864-0.864h0.432c0-0.864,0.433-1.728,0.864-2.16
	c0-0.432,0.432-0.432,0.863-0.432c0.433,0,0.865,0.432,0.865,0.864v0.432c-0.434,0.432-0.434,0.864-0.865,1.728h3.023
	c0.434-2.16,1.297-3.456,3.023-3.456c1.729,0,2.593,1.296,3.023,3.024h0.434c0.432,0,0.432,0.432,0.432,0.864l-0.432,0.864h-0.864
	c0,1.296-0.433,2.16-1.296,3.024c0,0.432-0.434,0.432-0.864,0.432s-0.862-0.432-0.862-0.864v-0.432
	c0.432-0.864,0.862-1.296,0.862-2.16h-3.022c-0.434,2.16-1.297,3.024-3.024,3.024s-2.592-1.296-3.024-3.024h-0.432
	C113.184,49.248,112.752,48.816,112.752,48.384z M117.936,49.248h-2.592c0,0.864,0.432,1.296,1.297,1.296
	C117.072,50.544,117.504,50.112,117.936,49.248z M120.096,47.952h2.592c0-0.864-0.432-1.296-1.295-1.296
	C120.96,46.656,120.527,46.656,120.096,47.952z"/>
<path fill="none" stroke="#3B3E43" stroke-width="3" stroke-linecap="round" stroke-linejoin="round" stroke-miterlimit="10" d="
	M75.168,97.632h22.464V108H75.168V97.632z"/>
<path fill="#0D3178" d="M87.264,98.928h8.64v8.64h-8.64V98.928z"/>
<path fill="none" stroke="#3B3E43" stroke-width="3" stroke-linecap="round" stroke-linejoin="round" stroke-miterlimit="10" d="
	M75.168,107.568h22.464v10.368H75.168V107.568z"/>
<path fill="#0D3178" d="M87.264,108.864h8.64v8.64h-8.64V108.864z"/>
<path fill="none" stroke="#3B3E43" stroke-width="3" stroke-linecap="round" stroke-linejoin="round" stroke-miterlimit="10" d="
	M75.168,117.072h22.464v10.367H75.168V117.072z"/>
<path fill="#0D3178" d="M87.264,118.8h8.64v8.64h-8.64V118.8z"/>
<path fill="none" stroke="#3B3E43" stroke-width="3" stroke-linecap="round" stroke-linejoin="round" stroke-miterlimit="10" d="
	M75.168,127.439h22.464v10.369H75.168V127.439z"/>
<path fill="#0D3178" d="M87.264,128.736h8.64v8.64h-8.64V128.736z"/>
<path fill="none" stroke="#3B3E43" stroke-width="3" stroke-linecap="round" stroke-linejoin="round" stroke-miterlimit="10" d="
	M75.168,137.376h22.464v10.368H75.168V137.376z"/>
<path fill="#0D3178" d="M87.264,138.672h8.64v8.641h-8.64V138.672z"/>
<path fill="none" stroke="#3B3E43" stroke-width="3" stroke-linecap="round" stroke-linejoin="round" stroke-miterlimit="10" d="
	M75.168,147.313h22.464v10.367H75.168V147.313z"/>
<path fill="#0D3178" d="M87.264,148.176h8.64v7.344h-8.64V148.176z"/>
<path fill="none" stroke="#3B3E43" stroke-width="3" stroke-linecap="round" stroke-linejoin="round" stroke-miterlimit="10" d="
	M54,137.376h22.464v10.368H54V137.376z"/>
<path fill="#0D3178" d="M66.096,138.672h8.64v8.641h-8.64V138.672z"/>
<path fill="none" stroke="#3B3E43" stroke-width="3" stroke-linecap="round" stroke-linejoin="round" stroke-miterlimit="10" d="
	M54,147.313h22.464v10.367H54V147.313z"/>
<path fill="#0D3178" d="M66.096,148.176h8.64v7.344h-8.64V148.176z"/>
</svg>
