<?xml version="1.0" encoding="utf-8"?>
<!-- Generator: Adobe Illustrator 16.0.0, SVG Export Plug-In . SVG Version: 6.00 Build 0)  -->
<!DOCTYPE svg PUBLIC "-//W3C//DTD SVG 1.1//EN" "http://www.w3.org/Graphics/SVG/1.1/DTD/svg11.dtd">
<svg version="1.1" id="Layer_1" xmlns="http://www.w3.org/2000/svg" xmlns:xlink="http://www.w3.org/1999/xlink" x="0px" y="0px"
	 width="216px" height="216px" viewBox="0 0 216 216" enable-background="new 0 0 216 216" xml:space="preserve">
<path fill="#0D3178" d="M87.264,99.928h8.64v8.641h-8.64V99.928z"/>
<path fill="#D1D1D0" d="M197.424,165.889H13.392c-3.888,0-6.912-3.021-6.912-6.912c0-3.889,3.024-6.912,6.912-6.912h184.032
	c3.889,0,6.912,3.023,6.912,6.912C204.336,162.432,201.313,165.889,197.424,165.889z"/>
<path fill="#0D3178" d="M87.264,109.864h8.64v8.64h-8.64V109.864z"/>
<path fill="#0D3178" d="M87.264,119.8h8.64v8.64h-8.64V119.8z"/>
<path fill="#0D3178" d="M87.264,129.736h8.64v8.64h-8.64V129.736z"/>
<path fill="#0D3178" d="M87.264,139.672h8.64v8.641h-8.64V139.672z"/>
<path fill="#0D3178" d="M87.264,149.176h8.64v7.344h-8.64V149.176z"/>
<path fill="#0D3178" d="M66.096,139.672h8.64v8.641h-8.64V139.672z"/>
<path fill="#0D3178" d="M66.096,149.176h8.64v7.344h-8.64V149.176z"/>
<path fill="none" stroke="#3B3E43" stroke-width="3" stroke-linecap="round" stroke-linejoin="round" stroke-miterlimit="10" d="
	M96.193,89.325V9.836h45.36v79.488L96.193,89.325L96.193,89.325z M145.152,55.728l14.688,15.984v24.192L155.52,108v22.896h-29.808
	v-9.072c0,0-8.64-12.528-8.208-22.464"/>
<path fill="#FFFFFF" stroke="#3B3E43" stroke-width="3" stroke-linecap="round" stroke-linejoin="round" stroke-miterlimit="10" d="
	M110.16,69.12v6.048l4.752,3.888h7.344l4.752-3.456v-6.48"/>
<path fill="#FFFFFF" stroke="#3B3E43" stroke-width="3" stroke-linecap="round" stroke-linejoin="round" stroke-miterlimit="10" d="
	M146.016,82.944L130.032,66.96c0,0-9.505-4.32-9.505,9.504l14.257,14.256c0,0-0.864,13.392,9.937,24.192"/>
<path fill="#0D3178" stroke="#3B3E43" stroke-width="3" stroke-linecap="round" stroke-linejoin="round" stroke-miterlimit="10" d="
	M119.664,158.544v-28.08h43.199v28.08"/>
<path fill="none" stroke="#3B3E43" stroke-width="3" stroke-linecap="round" stroke-linejoin="round" stroke-miterlimit="10" d="
	M127.008,27.648V21.6l-4.752-3.888h-7.344l-4.752,3.456v6.48"/>
<ellipse fill="none" stroke="#3B3E43" stroke-width="3" stroke-linecap="round" stroke-linejoin="round" stroke-miterlimit="10" cx="119.232" cy="48.384" rx="13.392" ry="13.824"/>
<ellipse fill="#00984A" cx="119.232" cy="48.384" rx="10.8" ry="10.8"/>
<path fill="none" stroke="#3B3E43" stroke-width="3" stroke-linecap="round" stroke-linejoin="round" stroke-miterlimit="10" d="
	M75.168,97.632h22.464V108H75.168V97.632z"/>
<path fill="none" stroke="#3B3E43" stroke-width="3" stroke-linecap="round" stroke-linejoin="round" stroke-miterlimit="10" d="
	M75.168,107.568h22.464v10.368H75.168V107.568z"/>
<path fill="none" stroke="#3B3E43" stroke-width="3" stroke-linecap="round" stroke-linejoin="round" stroke-miterlimit="10" d="
	M75.168,117.072h22.464v10.367H75.168V117.072z"/>
<path fill="none" stroke="#3B3E43" stroke-width="3" stroke-linecap="round" stroke-linejoin="round" stroke-miterlimit="10" d="
	M75.168,127.439h22.464v10.369H75.168V127.439z"/>
<path fill="none" stroke="#3B3E43" stroke-width="3" stroke-linecap="round" stroke-linejoin="round" stroke-miterlimit="10" d="
	M75.168,137.376h22.464v10.368H75.168V137.376z"/>
<path fill="none" stroke="#3B3E43" stroke-width="3" stroke-linecap="round" stroke-linejoin="round" stroke-miterlimit="10" d="
	M75.168,147.313h22.464v10.367H75.168V147.313z"/>
<path fill="none" stroke="#3B3E43" stroke-width="3" stroke-linecap="round" stroke-linejoin="round" stroke-miterlimit="10" d="
	M54,137.376h22.464v10.368H54V137.376z"/>
<path fill="none" stroke="#3B3E43" stroke-width="3" stroke-linecap="round" stroke-linejoin="round" stroke-miterlimit="10" d="
	M54,147.313h22.464v10.367H54V147.313z"/>
<g enable-background="new    ">
	<path fill="#FFFFFF" d="M115.564,52.945v-1.043h3.897v-0.036c-0.313-0.216-0.601-0.432-0.862-0.636l-3.035-2.471v-1.295
		l3.432,2.926l4.652-3.154v1.235l-3.969,2.663l0.887,0.768h3.082v1.043H115.564z"/>
	<path fill="#FFFFFF" d="M122.57,46.622c0.203-0.312,0.42-0.864,0.42-1.392c0-0.768-0.385-1.127-0.864-1.127
		c-0.504,0-0.778,0.3-1.067,1.079c-0.371,1.043-0.947,1.535-1.643,1.535c-0.936,0-1.703-0.755-1.703-2.003
		c0-0.587,0.168-1.104,0.359-1.427l0.768,0.264c-0.145,0.228-0.336,0.647-0.336,1.187c0,0.624,0.359,0.972,0.792,0.972
		c0.479,0,0.695-0.348,0.983-1.104c0.384-1.007,0.888-1.523,1.75-1.523c1.021,0,1.74,0.792,1.74,2.171
		c0,0.635-0.156,1.223-0.396,1.631L122.57,46.622z"/>
</g>
</svg>
