<?xml version="1.0" encoding="utf-8"?>
<!-- Generator: Adobe Illustrator 16.0.0, SVG Export Plug-In . SVG Version: 6.00 Build 0)  -->
<!DOCTYPE svg PUBLIC "-//W3C//DTD SVG 1.1//EN" "http://www.w3.org/Graphics/SVG/1.1/DTD/svg11.dtd">
<svg version="1.1" id="Layer_1" xmlns="http://www.w3.org/2000/svg" xmlns:xlink="http://www.w3.org/1999/xlink" x="0px" y="0px"
	 width="118px" height="118px" viewBox="0 0 118 118" enable-background="new 0 0 118 118" xml:space="preserve">
<path fill="#0D3178" d="M58.834,115.667C27.496,115.667,2,90.172,2,58.834S27.496,2,58.834,2s56.833,25.496,56.833,56.834
	S90.172,115.667,58.834,115.667z M58.834,7C30.253,7,7,30.252,7,58.834c0,28.581,23.253,51.833,51.834,51.833
	s51.833-23.252,51.833-51.833C110.667,30.252,87.415,7,58.834,7z"/>
<path fill="#F7F7F7" d="M59.834,113.167h0.078H59.834z M58.834,4.5C28.874,4.5,4.5,28.875,4.5,58.834s24.374,54.333,54.334,54.333
	c29.959,0,54.333-24.374,54.333-54.333S88.793,4.5,58.834,4.5z M81.416,48.932c0,12.527-10.156,22.684-22.684,22.684
	c-6.178,0-11.777-2.474-15.868-6.48l-0.002,0.003l14.456,14.455c0.559-0.016,1.117-0.033,1.682-0.033
	c16.555,0,30.773,7.375,37.803,18.125c7.526-7.357,12.924-16.879,15.184-27.563L75.129,33.266
	C79.021,37.339,81.416,42.854,81.416,48.932L81.416,48.932z"/>
<linearGradient id="SVGID_1_" gradientUnits="userSpaceOnUse" x1="256.1084" y1="-217.3154" x2="306.2326" y2="-267.4386" gradientTransform="matrix(1 0 0 -1 -198 -169)">
	<stop  offset="0" style="stop-color:#000000;stop-opacity:0.2"/>
	<stop  offset="0.995" style="stop-color:#FFFFFF;stop-opacity:0"/>
</linearGradient>
<path fill="url(#SVGID_1_)" d="M81.416,48.932c0,12.527-10.156,22.684-22.684,22.684c-6.178,0-11.777-2.474-15.868-6.48
	l-0.002,0.003l14.456,14.455c0.559-0.016,1.117-0.033,1.682-0.033c16.555,0,30.773,7.375,37.803,18.125
	c7.526-7.357,12.924-16.879,15.184-27.563L75.129,33.266C79.021,37.339,81.416,42.854,81.416,48.932L81.416,48.932z"/>
<path fill="#F7F7F7" d="M74.393,32.53l0.004,0.005L74.393,32.53z"/>
<linearGradient id="SVGID_2_" gradientUnits="userSpaceOnUse" x1="272.1016" y1="-201.2397" x2="310.7708" y2="-239.9089" gradientTransform="matrix(1 0 0 -1 -198 -169)">
	<stop  offset="0" style="stop-color:#000000;stop-opacity:0.3"/>
	<stop  offset="0.995" style="stop-color:#FFFFFF;stop-opacity:0"/>
</linearGradient>
<path fill="url(#SVGID_2_)" d="M74.393,32.53l0.004,0.005L74.393,32.53z"/>
<path fill="#0D3178" d="M74.396,32.535l0.731,0.731C74.891,33.016,74.646,32.773,74.396,32.535z M75.129,33.266l-0.732-0.731
	l-0.004-0.005c-4.072-3.889-9.584-6.282-15.66-6.282c-12.527,0-22.685,10.156-22.685,22.684c0,6.35,2.612,12.085,6.816,16.203
	c4.091,4.008,9.69,6.48,15.868,6.48c12.527,0,22.684-10.157,22.684-22.684C81.416,42.854,79.021,37.339,75.129,33.266z"/>
<path fill="#0D3178" d="M59,79.561c-0.564,0-1.123,0.017-1.682,0.032c-15.922,0.484-29.484,7.81-36.236,18.3
	c9.768,9.439,23.057,15.273,37.713,15.273h0.078c9.257,0,17.97-2.334,25.596-6.422c4.537-2.434,8.684-5.494,12.334-9.061
	C89.773,86.936,75.555,79.561,59,79.561z"/>
</svg>
