<?xml version="1.0" encoding="utf-8"?>
<!-- Generator: Adobe Illustrator 16.0.0, SVG Export Plug-In . SVG Version: 6.00 Build 0)  -->
<!DOCTYPE svg PUBLIC "-//W3C//DTD SVG 1.1//EN" "http://www.w3.org/Graphics/SVG/1.1/DTD/svg11.dtd">
<svg version="1.1" id="Layer_1" xmlns="http://www.w3.org/2000/svg" xmlns:xlink="http://www.w3.org/1999/xlink" x="0px" y="0px"
	 width="216px" height="216px" viewBox="0 0 216 216" enable-background="new 0 0 216 216" xml:space="preserve">
<g>
	<g>
		<path fill-rule="evenodd" clip-rule="evenodd" fill="#0D3178" d="M91.701,26.548c-37.222-0.146-66.79,29.221-66.849,66.396
			c-0.059,37.023,29.549,66.751,66.594,66.867c36.564,0.115,66.469-29.568,66.818-66.325
			C158.615,56.763,128.713,26.695,91.701,26.548z M91.187,149.445c-31.326-0.311-56.006-25.197-55.979-56.45
			c0.025-31.33,25.132-56.461,56.093-56.149c31.707,0.321,56.46,25.172,56.334,56.558
			C147.509,124.48,122.055,149.752,91.187,149.445z M195.062,174.346c-7.283-7.557-14.482-15.256-22.398-22.107
			c-3.232-2.799-8.228-4.791-12.461-4.865c-4.292-0.074-7.701,0.242-10.994-3.223c-1.044-1.1-5.219-0.9-6.413,0.275
			c-1.216,1.197-1.547,5.459-0.491,6.406c3.924,3.518,4.543,7.32,2.224,13.066c1.592,3.012,2.831,7.17,5.479,10.021
			c7.36,7.928,15.163,15.465,23.068,22.861c6.008,5.621,16.219,5.121,21.873-0.6C200.587,190.475,200.791,180.289,195.062,174.346z
			 M187.962,186.875c-0.249,1.43-2.59,2.496-4.182,3.883c-1.952-1.123-3.566-1.678-4.672-2.754
			c-7.261-7.057-14.446-14.191-21.578-21.379c-2.479-2.5-2.75-5.295-0.023-7.846c2.525-2.359,5.098-2.023,7.472,0.34
			c7.174,7.146,14.461,14.189,21.396,21.561C187.697,182.084,188.303,184.922,187.962,186.875z M89.448,47.527
			c-0.332,0.027-0.664,0.047-0.994,0.069C65.499,49.121,46.518,68.252,46.04,90.201c-0.076,3.477,0.83,6.129,4.541,6.453
			c3.664,0.322,5.557-2.137,5.73-5.51c0.931-18.025,15.738-32.931,34.043-33.262c3.615-0.065,6.277-1.777,5.982-5.755
			C96.032,48.008,92.972,47.241,89.448,47.527z M62.108,112.998c-0.77-0.012-1.541-0.021-2.311-0.031
			c-1.362,1.898-3.936,3.922-3.76,5.67c0.193,1.924,2.645,4.646,4.59,5.139c3.194,0.807,5.633-1.777,5.25-4.951
			C65.63,116.76,63.433,114.932,62.108,112.998z"/>
	</g>
</g>
</svg>
