<?xml version="1.0" encoding="utf-8"?>
<!-- Generator: Adobe Illustrator 16.0.0, SVG Export Plug-In . SVG Version: 6.00 Build 0)  -->
<!DOCTYPE svg PUBLIC "-//W3C//DTD SVG 1.1//EN" "http://www.w3.org/Graphics/SVG/1.1/DTD/svg11.dtd">
<svg version="1.1" id="Layer_1" xmlns="http://www.w3.org/2000/svg" xmlns:xlink="http://www.w3.org/1999/xlink" x="0px" y="0px"
	 width="214.25px" height="160px" viewBox="0 0 214.25 160" enable-background="new 0 0 214.25 160" xml:space="preserve">
<path fill="#0D3178" d="M171.875,16h-128C30.62,16,20,26.745,20,40v63c0,13.255,10.62,24,23.875,24h14.353L35.25,149.875
	L103.875,127h68C185.13,127,196,116.255,196,103V40C196,26.745,185.13,16,171.875,16z M57.025,93.077
	c-5.188,0-9.748-1.539-13.567-5.074l6.328-6.954c1.824,2.395,4.788,3.819,7.753,3.819c2.907,0,6.156-1.368,6.156-4.22
	c0-7.411-18.926-3.42-18.926-16.874c0-8.608,7.468-13.111,15.392-13.111c4.561,0,8.95,1.197,12.37,4.219l-6.1,6.669
	c-1.425-1.824-4.275-2.679-6.441-2.679c-2.509,0-5.986,1.14-5.986,4.161c0,7.354,18.585,2.622,18.585,16.76
	C72.589,88.802,65.349,93.077,57.025,93.077z M131,92h-9V61h-0.505l-10.604,31h-6.784L93.903,61H94v31h-9V52h13.35l9.292,26h0.113
	l9.35-26H131V92z M154.95,93.077c-5.188,0-9.748-1.539-13.567-5.074l6.328-6.954c1.824,2.395,4.788,3.819,7.753,3.819
	c2.907,0,6.156-1.368,6.156-4.22c0-7.411-18.927-3.42-18.927-16.874c0-8.608,7.469-13.111,15.393-13.111
	c4.561,0,8.95,1.197,12.37,4.219l-6.101,6.669c-1.424-1.824-4.274-2.679-6.44-2.679c-2.509,0-5.985,1.14-5.985,4.161
	c0,7.354,18.584,2.622,18.584,16.76C170.514,88.802,163.273,93.077,154.95,93.077L154.95,93.077z"/>
</svg>
