<?xml version="1.0" encoding="utf-8"?>
<!-- Generator: Adobe Illustrator 16.0.0, SVG Export Plug-In . SVG Version: 6.00 Build 0)  -->
<!DOCTYPE svg PUBLIC "-//W3C//DTD SVG 1.1//EN" "http://www.w3.org/Graphics/SVG/1.1/DTD/svg11.dtd">
<svg version="1.1" id="Layer_1" xmlns="http://www.w3.org/2000/svg" xmlns:xlink="http://www.w3.org/1999/xlink" x="0px" y="0px"
	 width="216px" height="216px" viewBox="0 0 216 216" enable-background="new 0 0 216 216" xml:space="preserve">
<path fill="#0D3178" d="M129.146,84.916H84.968c-4.575,0-8.24,3.709-8.24,8.284v21.744c0,4.574,3.666,8.283,8.24,8.283h4.954
	l-7.931,7.896l23.686-7.896h23.47c4.575,0,8.327-3.709,8.327-8.283V93.199C137.474,88.625,133.722,84.916,129.146,84.916z
	 M89.507,111.52c-1.791,0-3.365-0.531-4.683-1.752l2.184-2.401c0.629,0.827,1.652,1.319,2.676,1.319
	c1.003,0,2.125-0.473,2.125-1.457c0-2.558-6.532-1.181-6.532-5.824c0-2.971,2.578-4.525,5.313-4.525c1.574,0,3.089,0.413,4.27,1.456
	l-2.105,2.302c-0.492-0.629-1.475-0.924-2.223-0.924c-0.866,0-2.066,0.394-2.066,1.436c0,2.538,6.415,0.905,6.415,5.784
	C94.878,110.043,92.38,111.52,89.507,111.52z M115.039,111.146h-3.106v-10.699h-0.174l-3.66,10.699h-2.342l-3.522-10.699h0.034
	v10.699h-3.106V97.341h4.608l3.208,8.974h0.038l3.228-8.974h4.796V111.146z M123.306,111.52c-1.791,0-3.365-0.531-4.683-1.752
	l2.184-2.401c0.63,0.827,1.652,1.319,2.676,1.319c1.004,0,2.125-0.473,2.125-1.457c0-2.558-6.532-1.181-6.532-5.824
	c0-2.971,2.577-4.525,5.313-4.525c1.574,0,3.089,0.413,4.27,1.456l-2.105,2.302c-0.491-0.629-1.476-0.924-2.223-0.924
	c-0.866,0-2.066,0.394-2.066,1.436c0,2.538,6.414,0.905,6.414,5.784C128.677,110.043,126.178,111.52,123.306,111.52L123.306,111.52z
	"/>
<circle fill="#00984A" cx="131.236" cy="82.916" r="12.054"/>
<path fill="#FFFFFF" d="M138.487,74.835c-0.015,0.556-0.035,1.111-0.042,1.667c-0.007,0.451,0.001,0.902,0.008,1.354
	c0.005,0.337,0.002,0.676,0.033,1.012c0.071,0.766,0.161,1.529,0.242,2.288c-0.392,0.25-0.81,0.497-1.206,0.773
	c-1.335,0.929-2.521,2.029-3.647,3.196c-1.277,1.324-2.456,2.73-3.509,4.239c-0.517,0.741-1.004,1.503-1.42,2.307
	c-0.014,0.028-0.029,0.056-0.051,0.094c-0.287-0.316-0.57-0.627-0.853-0.938c-0.829-0.907-1.644-1.828-2.491-2.718
	c-0.594-0.621-1.303-1.111-2.059-1.519c-0.619-0.333-1.267-0.613-1.901-0.918c-0.012-0.006-0.022-0.015-0.052-0.036
	c1.572-1.071,3.136-2.138,4.713-3.213c0.79,1.601,1.573,3.188,2.369,4.799c0.033-0.049,0.049-0.064,0.056-0.083
	c0.427-1.105,0.987-2.145,1.577-3.169c0.894-1.552,1.854-3.061,2.898-4.515c0.81-1.127,1.712-2.175,2.771-3.083
	c0.654-0.562,1.353-1.06,2.155-1.397c0.117-0.049,0.235-0.093,0.354-0.14C138.451,74.835,138.469,74.835,138.487,74.835z"/>
</svg>
