<svg xmlns="http://www.w3.org/2000/svg" xmlns:xlink="http://www.w3.org/1999/xlink" width="120.25" height="120.25" viewBox="0 0 120.25 120.25"><path fill="#F8786B" d="M110.457 28.662c-10.639-16.355-28.613-26.12-48.082-26.12-31.613 0-57.334 25.72-57.334 57.334 0 30.546 23.879 55.696 54.359 57.257.988.049 1.988.076 2.975.076 15.565 0 30.024-6.284 40.543-16.802l.192-.195c5.978-6.035 10.671-13.441 13.536-21.855 1.061-3.114 1.852-6.303 2.352-9.478.473-2.979.711-6.009.711-9.002 0-11.116-3.199-21.909-9.252-31.215z"/><path fill="#F7F7F7" d="M72.084 43.343l-5.381-3.247 8.584-2.123 13.547-3.35.602-.383.186.187.047-.012-.025.032 27.348 27.489c.025-.685.053-1.371.053-2.062 0-30.009-24.326-54.334-54.334-54.334s-54.336 24.327-54.336 54.336l.018.69 21.951 8.836 41.74-26.059zm17.352-9.101l-.602.382.787-.196z"/><path d="M5.041 2.542h114.668v114.667h-114.668z" fill="none"/><defs><path id="a" d="M88.834 34.624l.787-.195-.185-.187z"/></defs><clipPath id="c"><use xlink:href="#a" overflow="visible"/></clipPath><defs><filter id="b" filterUnits="userSpaceOnUse" x="88.834" y="34.242" width=".787" height=".382"><feColorMatrix values="1 0 0 0 0 0 1 0 0 0 0 0 1 0 0 0 0 0 1 0"/></filter></defs><mask maskUnits="userSpaceOnUse" x="88.834" y="34.242" width=".787" height=".382" id="e"><g filter="url(#b)"><linearGradient id="d" gradientUnits="userSpaceOnUse" x1="92.717" y1="3239.271" x2="93.717" y2="3239.271" gradientTransform="matrix(310.561 0 0 -310.561 -28841.19 1006026)"><stop offset="0" stop-color="#333"/><stop offset=".995"/><stop offset="1"/></linearGradient><path clip-path="url(#c)" fill="url(#d)" d="M88.834 34.242h.787v.382h-.787z"/></g></mask><linearGradient id="f" gradientUnits="userSpaceOnUse" x1="92.717" y1="3239.271" x2="93.717" y2="3239.271" gradientTransform="matrix(310.561 0 0 -310.561 -28841.19 1006026.5)"><stop offset="0" stop-color="#231F20"/><stop offset=".995" stop-color="#fff"/><stop offset="1" stop-color="#fff"/></linearGradient><path clip-path="url(#c)" mask="url(#e)" fill="url(#f)" d="M88.834 34.242h.787v.382h-.787z"/><defs><path id="g" d="M5.041 2.542h114.668v114.667h-114.668z"/></defs><clipPath id="h"><use xlink:href="#g" overflow="visible"/></clipPath><path clip-path="url(#h)" fill="#F7F7F7" d="M80.332 45.847l-5.629 6.893-.607-6.025-43.366 27.076-22.115-8.903c1.365 14.936 8.771 28.121 19.76 37.092v-24.772h4v27.75c6.479 4.367 13.947 7.375 22 8.614v-48.364h4v48.813c1.432.114 2.873.188 4.334.188 29.316 0 53.195-23.222 54.281-52.271l-27.347-27.489-9.311 11.398z"/><linearGradient id="i" gradientUnits="userSpaceOnUse" x1="32.051" y1="41.453" x2="95.007" y2="104.408"><stop offset="0" stop-opacity=".3"/><stop offset=".995" stop-color="#fff" stop-opacity="0"/></linearGradient><path clip-path="url(#h)" fill="url(#i)" d="M80.332 45.847l-5.629 6.893-.607-6.025-43.366 27.076-22.115-8.903c1.365 14.936 8.771 28.121 19.76 37.092v-24.772h4v27.75c6.479 4.367 13.947 7.375 22 8.614v-48.364h4v48.813c1.432.114 2.873.188 4.334.188 29.316 0 53.195-23.222 54.281-52.271l-27.347-27.489-9.311 11.398z"/><path d="M80.332 45.848l-5.629 6.892-.609-6.024-43.364 27.075-22.115-8.904c1.365 14.937 8.771 28.122 19.76 37.093v-24.772h4v27.75c6.477 4.367 13.947 7.375 22 8.614v-48.364h4v48.812c1.432.115 2.873.188 4.334.188 29.316 0 53.195-23.221 54.281-52.272l-27.347-27.487-9.311 11.399z" fill="none"/><path fill="#F8786B" d="M28.375 77.208v24.773c1.287 1.05 2.619 2.046 4 2.977v-27.75h-4zm26-12v48.364c1.316.203 2.652.343 4 .45v-48.814h-4z"/><path fill="#64C6C1" d="M89.668 34.417l-.047.012.022.02z"/><path fill="#F8786B" d="M89.621 34.428l-22.918 5.668 5.381 3.247-41.74 26.06-21.951-8.837c.012.929.045 1.853.104 2.771.033.519.07 1.037.119 1.551l22.113 8.902 43.367-27.075.607 6.024 14.938-18.291-.02-.02z"/><path d="M5.041 2.542h114.668v114.667h-114.668z" fill="none"/></svg>