<?xml version="1.0" encoding="utf-8"?>
<!-- Generator: Adobe Illustrator 16.0.0, SVG Export Plug-In . SVG Version: 6.00 Build 0)  -->
<!DOCTYPE svg PUBLIC "-//W3C//DTD SVG 1.1//EN" "http://www.w3.org/Graphics/SVG/1.1/DTD/svg11.dtd">
<svg version="1.1" id="Layer_1" xmlns="http://www.w3.org/2000/svg" xmlns:xlink="http://www.w3.org/1999/xlink" x="0px" y="0px"
	 width="216px" height="216px" viewBox="0 0 216 216" enable-background="new 0 0 216 216" xml:space="preserve">
<path fill="#D1D1D0" d="M200.73,167.586H13.407c-4.096,0-7.076-2.979-7.076-6.703s3.352-7.076,7.076-7.076h187.697
	c3.725,0,7.076,3.352,7.076,7.076C207.807,164.607,204.828,167.586,200.73,167.586L200.73,167.586z"/>
<path fill="none" stroke="#3B3E43" stroke-width="3" stroke-linecap="round" stroke-linejoin="round" stroke-miterlimit="10" d="
	M119.117,103.453V34.929h39.104v68.524H119.117z M161.256,74.483l12.662,13.779v20.855l-3.353,10.428v19.738h-25.696v-7.821
	c0,0-7.448-10.8-7.076-19.365"/>
<path fill="#0D3178" d="M131.09,86.027v5.214l4.096,3.352h6.332l4.096-2.979v-5.586"/>
<path fill="#FFFFFF" stroke="#3B3E43" stroke-width="3" stroke-linecap="round" stroke-linejoin="round" stroke-miterlimit="10" d="
	M162,97.945l-13.779-13.779c0,0-8.193-3.724-8.193,8.193l12.29,12.29c0,0-0.745,11.545,8.565,20.855"/>
<path fill="#0D3178" stroke="#3B3E43" stroke-width="3" stroke-linecap="round" stroke-linejoin="round" stroke-miterlimit="10" d="
	M139.283,163.117V138.91h37.24v24.207"/>
<path fill="none" stroke="#0D3178" stroke-width="3" stroke-linecap="round" stroke-linejoin="round" stroke-miterlimit="10" d="
	M145.613,50.276v-5.214l-4.096-3.352h-6.332l-4.096,2.979v5.586"/>
<ellipse fill="#FFFFFF" stroke="#3B3E43" stroke-width="3" stroke-linecap="round" stroke-linejoin="round" stroke-miterlimit="10" cx="138.91" cy="68.152" rx="11.545" ry="11.917"/>
<ellipse fill="#0D3178" cx="138.91" cy="68.152" rx="9.31" ry="9.31"/>
<path fill="#FFFFFF" d="M103.159,66.662H45.435c-5.214,0-8.938,4.097-8.938,8.938V162l2.234-2.234L40.965,162l1.862-2.234
	L44.689,162l2.235-2.234L49.159,162l2.234-2.234L53.627,162l1.862-2.234L57.724,162l1.862-2.234L61.821,162l1.862-2.234L65.545,162
	l1.862-2.234L69.269,162l2.234-2.234L73.738,162l2.235-2.234L77.834,162l2.234-2.234L82.304,162l2.234-2.234L86.4,162l1.862-2.234
	L90.497,162l1.862-2.234L94.221,162h5.958"/>
<path fill="none" stroke="#3B3E43" stroke-width="3" stroke-linecap="round" stroke-linejoin="round" stroke-miterlimit="10" d="
	M103.159,66.662H45.435c-5.214,0-8.938,4.097-8.938,8.938V162l2.234-2.234L40.965,162l1.862-2.234L44.689,162l2.235-2.234
	L49.159,162l2.234-2.234L53.627,162l1.862-2.234L57.724,162l1.862-2.234L61.821,162l1.862-2.234L65.545,162l1.862-2.234L69.269,162
	l2.234-2.234L73.738,162l2.235-2.234L77.834,162l2.234-2.234L82.304,162l2.234-2.234L86.4,162l1.862-2.234L90.497,162l1.862-2.234
	L94.221,162"/>
<path fill="#0D3178" d="M100.179,162.744h7.076c1.117,0,2.235-1.117,2.235-2.234V72.248c0-2.979-2.607-5.586-5.587-5.586
	c-2.979,0-5.586,2.607-5.586,5.586v88.635C98.317,162,99.062,162.744,100.179,162.744z"/>
<path fill="none" stroke="#3B3E43" stroke-width="3" stroke-linecap="round" stroke-linejoin="round" stroke-miterlimit="10" d="
	M98.317,96.083v42.455 M98.317,82.304V72.248c0-2.979,2.607-5.586,5.586-5.586c2.979,0,5.587,2.607,5.587,5.586v61.449
	 M65.172,81.186H43.945 M89.007,119.172H44.317 M89.007,126.993H44.317 M89.007,134.441H44.317 M89.007,142.262H44.317
	 M89.007,150.083h-23.09 M89.007,88.634H72.993 M65.917,88.634H43.945"/>
<path fill="#0D3178" d="M89.982,111.199H43.803V96.675h46.179V111.199z"/>
<g>
	<path fill="#FFFFFF" d="M134.02,74.029V72.75h4.78v-0.044c-0.382-0.265-0.735-0.529-1.059-0.779l-3.722-3.03v-1.589l4.207,3.589
		l5.707-3.869v1.515l-4.869,3.266l1.089,0.941h3.78v1.279H134.02z"/>
	<path fill="#FFFFFF" d="M142.609,66.276c0.25-0.382,0.516-1.059,0.516-1.706c0-0.941-0.471-1.383-1.06-1.383
		c-0.618,0-0.956,0.368-1.31,1.324c-0.455,1.28-1.161,1.883-2.015,1.883c-1.147,0-2.089-0.926-2.089-2.457
		c0-0.721,0.206-1.353,0.441-1.75l0.941,0.323c-0.177,0.28-0.412,0.794-0.412,1.457c0,0.765,0.441,1.191,0.971,1.191
		c0.589,0,0.854-0.427,1.206-1.354c0.471-1.235,1.089-1.868,2.148-1.868c1.25,0,2.133,0.971,2.133,2.662c0,0.78-0.191,1.5-0.485,2
		L142.609,66.276z"/>
</g>
</svg>
