<?xml version="1.0" encoding="utf-8"?>
<!-- Generator: Adobe Illustrator 17.0.0, SVG Export Plug-In . SVG Version: 6.00 Build 0)  -->
<!DOCTYPE svg PUBLIC "-//W3C//DTD SVG 1.1//EN" "http://www.w3.org/Graphics/SVG/1.1/DTD/svg11.dtd">
<svg version="1.1" id="Layer_1" xmlns="http://www.w3.org/2000/svg" xmlns:xlink="http://www.w3.org/1999/xlink" x="0px" y="0px"
	 width="216px" height="216px" viewBox="0 0 216 216" enable-background="new 0 0 216 216" xml:space="preserve">
<g id="XMLID_565_">
	<g id="XMLID_572_">
		<g id="XMLID_576_">
			<g id="XMLID_577_">
				<g>
					<g>
						<g>
							<g>
								<g>
									<g>
										<g>
											<g>
												<g>
													<g>
														<g>
															<g>
																<circle fill="#BCD589" cx="30.125" cy="137.882" r="10.577"/>
															</g>
														</g>
													</g>
												</g>
											</g>
										</g>
									</g>
								</g>
							</g>
						</g>
					</g>
				</g>
			</g>
		</g>
		<g id="XMLID_573_">
			<g id="XMLID_574_">
				<g id="XMLID_575_">
					<g>
						<g>
							<g>
								<g>
									<g>
										<g>
											<g>
												<g>
													<g>
														<g>
															<g>
																<g>
																	<path fill="#424243" d="M39.962,137.882c-0.039,4.078-2.59,7.858-6.467,9.247c-3.909,1.4-8.328,0.191-10.978-3.005
																		c-2.618-3.157-2.938-7.782-0.836-11.29c2.112-3.526,6.34-5.426,10.379-4.6
																		C36.635,129.17,39.917,133.232,39.962,137.882c0.009,0.951,1.488,0.954,1.479,0
																		c-0.046-4.738-3.005-8.995-7.46-10.639c-4.42-1.631-9.587-0.209-12.571,3.426
																		c-3.022,3.681-3.45,9.009-0.957,13.091c2.468,4.04,7.265,6.115,11.901,5.216c5.259-1.02,9.035-5.793,9.087-11.095
																		C41.45,136.93,39.971,136.929,39.962,137.882z"/>
																</g>
															</g>
														</g>
													</g>
												</g>
											</g>
										</g>
									</g>
								</g>
							</g>
						</g>
					</g>
				</g>
			</g>
		</g>
	</g>
	<g id="XMLID_569_">
		<g id="XMLID_570_">
			<g id="XMLID_571_">
				<g>
					<g>
						<g>
							<g>
								<g>
									<g>
										<g>
											<g>
												<g>
													<g>
														<g>
															<g>
																<path fill="#424243" d="M26.126,140.66c1.159,1.331,2.317,2.663,3.476,3.994c-0.072-0.174-0.144-0.349-0.217-0.523
																	c0,3.818,0,7.635,0,11.453c0,0.952,1.479,0.953,1.479,0c0-2.37,0-4.739,0-7.109c0-1.276,0-2.551,0-3.827
																	c0-0.256,0.037-0.56-0.064-0.801c-0.159-0.38-0.584-0.733-0.848-1.037c-0.927-1.065-1.854-2.13-2.781-3.195
																	C26.546,138.895,25.503,139.945,26.126,140.66L26.126,140.66z"/>
															</g>
														</g>
													</g>
												</g>
											</g>
										</g>
									</g>
								</g>
							</g>
						</g>
					</g>
				</g>
			</g>
		</g>
	</g>
	<g id="XMLID_566_">
		<g id="XMLID_567_">
			<g id="XMLID_568_">
				<g>
					<g>
						<g>
							<g>
								<g>
									<g>
										<g>
											<g>
												<g>
													<g>
														<g>
															<g>
																<path fill="#424243" d="M30.648,145.838c1.553-1.235,3.106-2.469,4.66-3.704c0.745-0.592-0.308-1.633-1.046-1.046
																	c-1.553,1.235-3.106,2.469-4.66,3.704C28.857,145.384,29.91,146.424,30.648,145.838L30.648,145.838z"/>
															</g>
														</g>
													</g>
												</g>
											</g>
										</g>
									</g>
								</g>
							</g>
						</g>
					</g>
				</g>
			</g>
		</g>
	</g>
</g>
<g>
	<g>
		<rect x="34.739" y="73.554" fill="#F0F1F1" width="149.799" height="3.706"/>
	</g>
	<g>
		<path fill="#424243" d="M184.538,78.089H34.739c-0.458,0-0.829-0.371-0.829-0.829v-3.706c0-0.458,0.371-0.829,0.829-0.829h149.799
			c0.458,0,0.829,0.371,0.829,0.829v3.706C185.367,77.718,184.996,78.089,184.538,78.089z M35.568,76.431h148.141v-2.048H35.568
			V76.431z"/>
	</g>
</g>
<g>
	<g>
		<rect x="34.88" y="81.264" fill="#F0F1F1" width="149.757" height="82.002"/>
	</g>
	<g>
		<path fill="#424243" d="M184.637,164.148H34.88c-0.487,0-0.882-0.395-0.882-0.882V81.264c0-0.487,0.395-0.882,0.882-0.882h149.757
			c0.487,0,0.882,0.395,0.882,0.882v82.002C185.519,163.753,185.124,164.148,184.637,164.148z M35.762,162.383h147.993V82.146
			H35.762V162.383z"/>
	</g>
</g>
<g>
	<g>
		<rect x="52.786" y="96.009" fill="#F0F1F1" width="113.402" height="67.403"/>
	</g>
	<g>
		<path fill="#424243" d="M166.187,164.292H52.786c-0.486,0-0.88-0.394-0.88-0.88V96.009c0-0.486,0.394-0.88,0.88-0.88h113.402
			c0.486,0,0.88,0.394,0.88,0.88v67.403C167.067,163.898,166.673,164.292,166.187,164.292z M53.665,162.533h111.642V96.889H53.665
			V162.533z"/>
	</g>
</g>
<g>
	<g id="XMLID_560_">
		<g id="XMLID_564_">
			<g>
				<g>
					<g>
						<g>
							<g>
								<path fill="#CFD0D2" d="M183.909,153.157h-2.421c-0.567,0-1.026,0.459-1.026,1.026v0.506c0,0.567,0.459,1.026,1.026,1.026
									h2.421V153.157z"/>
							</g>
						</g>
					</g>
				</g>
			</g>
		</g>
		<g id="XMLID_561_">
			<g>
				<g>
					<g>
						<g>
							<g>
								<path fill="#424243" d="M184.05,155.856h-2.562c-0.644,0-1.167-0.524-1.167-1.167v-0.506c0-0.644,0.524-1.167,1.167-1.167
									h2.562V155.856z M181.488,153.298c-0.488,0-0.885,0.397-0.885,0.885v0.506c0,0.488,0.397,0.885,0.885,0.885h2.279v-2.276
									H181.488z"/>
							</g>
						</g>
					</g>
				</g>
			</g>
		</g>
	</g>
	<g id="XMLID_555_">
		<g id="XMLID_559_">
			<g>
				<g>
					<g>
						<g>
							<g>
								<path fill="#CFD0D2" d="M181.874,152.148h-5.259c-0.401,0-0.726-0.325-0.726-0.726v-1.107c0-0.401,0.325-0.726,0.726-0.726
									h5.259c0.401,0,0.726,0.325,0.726,0.726v1.107C182.6,151.824,182.275,152.148,181.874,152.148z"/>
							</g>
						</g>
					</g>
				</g>
			</g>
		</g>
		<g id="XMLID_556_">
			<g>
				<g>
					<g>
						<g>
							<g>
								<path fill="#424243" d="M181.574,152.289h-4.659c-0.644,0-1.167-0.524-1.167-1.167v-0.506c0-0.644,0.524-1.167,1.167-1.167
									h4.659c0.644,0,1.167,0.524,1.167,1.167v0.506C182.741,151.766,182.217,152.289,181.574,152.289z M176.915,149.732
									c-0.488,0-0.885,0.397-0.885,0.885v0.506c0,0.488,0.397,0.885,0.885,0.885h4.659c0.488,0,0.885-0.397,0.885-0.885v-0.506
									c0-0.488-0.397-0.885-0.885-0.885H176.915z"/>
							</g>
						</g>
					</g>
				</g>
			</g>
		</g>
	</g>
	<g id="XMLID_550_">
		<g id="XMLID_554_">
			<g>
				<g>
					<g>
						<g>
							<g>
								<path fill="#CFD0D2" d="M183.907,137.622h-2.421c-0.567,0-1.026,0.459-1.026,1.026v0.506c0,0.567,0.459,1.026,1.026,1.026
									h2.421V137.622z"/>
							</g>
						</g>
					</g>
				</g>
			</g>
		</g>
		<g id="XMLID_551_">
			<g>
				<g>
					<g>
						<g>
							<g>
								<path fill="#424243" d="M184.049,140.321h-2.562c-0.644,0-1.167-0.523-1.167-1.167v-0.506c0-0.644,0.523-1.167,1.167-1.167
									h2.562V140.321z M181.487,137.763c-0.488,0-0.885,0.397-0.885,0.885v0.506c0,0.488,0.397,0.885,0.885,0.885h2.279v-2.276
									H181.487z"/>
							</g>
						</g>
					</g>
				</g>
			</g>
		</g>
	</g>
	<g id="XMLID_529_">
		<g id="XMLID_549_">
			<g>
				<g>
					<g>
						<g>
							<g>
								<path fill="#CFD0D2" d="M181.873,136.614h-5.259c-0.401,0-0.726-0.325-0.726-0.726v-1.107c0-0.401,0.325-0.726,0.726-0.726
									h5.259c0.401,0,0.726,0.325,0.726,0.726v1.107C182.598,136.289,182.274,136.614,181.873,136.614z"/>
							</g>
						</g>
					</g>
				</g>
			</g>
		</g>
		<g id="XMLID_546_">
			<g>
				<g>
					<g>
						<g>
							<g>
								<path fill="#424243" d="M181.573,136.755h-4.659c-0.644,0-1.167-0.523-1.167-1.167v-0.506c0-0.644,0.523-1.167,1.167-1.167
									h4.659c0.644,0,1.167,0.523,1.167,1.167v0.506C182.74,136.232,182.216,136.755,181.573,136.755z M176.914,134.197
									c-0.488,0-0.885,0.397-0.885,0.885v0.506c0,0.488,0.397,0.885,0.885,0.885h4.659c0.488,0,0.885-0.397,0.885-0.885v-0.506
									c0-0.488-0.397-0.885-0.885-0.885H176.914z"/>
							</g>
						</g>
					</g>
				</g>
			</g>
		</g>
	</g>
	<g id="XMLID_511_">
		<g id="XMLID_515_">
			<g>
				<g>
					<g>
						<g>
							<g>
								<path fill="#CFD0D2" d="M176.056,143.661h-5.259c-0.401,0-0.726-0.325-0.726-0.726v-1.107c0-0.401,0.325-0.726,0.726-0.726
									h5.259c0.401,0,0.726,0.325,0.726,0.726v1.107C176.782,143.337,176.457,143.661,176.056,143.661z"/>
							</g>
						</g>
					</g>
				</g>
			</g>
		</g>
		<g id="XMLID_512_">
			<g>
				<g>
					<g>
						<g>
							<g>
								<path fill="#424243" d="M175.756,143.803h-4.659c-0.644,0-1.167-0.523-1.167-1.167v-0.506c0-0.644,0.524-1.167,1.167-1.167
									h4.659c0.644,0,1.167,0.523,1.167,1.167v0.506C176.923,143.279,176.399,143.803,175.756,143.803z M171.097,141.245
									c-0.488,0-0.885,0.397-0.885,0.885v0.506c0,0.488,0.397,0.885,0.885,0.885h4.659c0.488,0,0.885-0.397,0.885-0.885v-0.506
									c0-0.488-0.397-0.885-0.885-0.885H171.097z"/>
							</g>
						</g>
					</g>
				</g>
			</g>
		</g>
	</g>
</g>
<g>
	<g id="XMLID_506_">
		<g id="XMLID_510_">
			<g>
				<g>
					<g>
						<g>
							<g>
								<path fill="#CFD0D2" d="M159.787,86.139h2.421c0.567,0,1.026-0.459,1.026-1.026v-0.506c0-0.567-0.459-1.026-1.026-1.026
									h-2.421V86.139z"/>
							</g>
						</g>
					</g>
				</g>
			</g>
		</g>
		<g id="XMLID_507_">
			<g>
				<g>
					<g>
						<g>
							<g>
								<path fill="#424243" d="M159.646,83.44h2.562c0.644,0,1.167,0.524,1.167,1.167v0.506c0,0.644-0.523,1.167-1.167,1.167
									h-2.562V83.44z M162.207,85.998c0.488,0,0.885-0.397,0.885-0.885v-0.506c0-0.488-0.397-0.885-0.885-0.885h-2.279v2.276
									H162.207z"/>
							</g>
						</g>
					</g>
				</g>
			</g>
		</g>
	</g>
	<g id="XMLID_501_">
		<g id="XMLID_505_">
			<g>
				<g>
					<g>
						<g>
							<g>
								<path fill="#CFD0D2" d="M161.821,87.147h5.259c0.401,0,0.726,0.325,0.726,0.726v1.107c0,0.401-0.325,0.726-0.726,0.726
									h-5.259c-0.401,0-0.726-0.325-0.726-0.726v-1.107C161.096,87.472,161.421,87.147,161.821,87.147z"/>
							</g>
						</g>
					</g>
				</g>
			</g>
		</g>
		<g id="XMLID_502_">
			<g>
				<g>
					<g>
						<g>
							<g>
								<path fill="#424243" d="M162.122,87.006h4.659c0.644,0,1.167,0.524,1.167,1.167v0.506c0,0.644-0.523,1.167-1.167,1.167
									h-4.659c-0.644,0-1.167-0.524-1.167-1.167v-0.506C160.955,87.53,161.478,87.006,162.122,87.006z M166.78,89.564
									c0.488,0,0.885-0.397,0.885-0.885v-0.506c0-0.488-0.397-0.885-0.885-0.885h-4.659c-0.488,0-0.885,0.397-0.885,0.885v0.506
									c0,0.488,0.397,0.885,0.885,0.885H166.78z"/>
							</g>
						</g>
					</g>
				</g>
			</g>
		</g>
	</g>
	<g id="XMLID_496_">
		<g id="XMLID_500_">
			<g>
				<g>
					<g>
						<g>
							<g>
								<path fill="#CFD0D2" d="M166.845,102.85h2.421c0.567,0,1.026-0.459,1.026-1.026v-0.506c0-0.567-0.459-1.026-1.026-1.026
									h-2.421V102.85z"/>
							</g>
						</g>
					</g>
				</g>
			</g>
		</g>
		<g id="XMLID_497_">
			<g>
				<g>
					<g>
						<g>
							<g>
								<path fill="#424243" d="M166.704,100.151h2.562c0.644,0,1.167,0.524,1.167,1.167v0.506c0,0.644-0.524,1.167-1.167,1.167
									h-2.562V100.151z M169.266,102.709c0.488,0,0.885-0.397,0.885-0.885v-0.506c0-0.488-0.397-0.885-0.885-0.885h-2.279v2.276
									H169.266z"/>
							</g>
						</g>
					</g>
				</g>
			</g>
		</g>
	</g>
	<g id="XMLID_491_">
		<g id="XMLID_495_">
			<g>
				<g>
					<g>
						<g>
							<g>
								<path fill="#CFD0D2" d="M168.88,103.858h5.259c0.401,0,0.726,0.325,0.726,0.726v1.107c0,0.401-0.325,0.726-0.726,0.726
									h-5.259c-0.401,0-0.726-0.325-0.726-0.726v-1.107C168.154,104.183,168.479,103.858,168.88,103.858z"/>
							</g>
						</g>
					</g>
				</g>
			</g>
		</g>
		<g id="XMLID_492_">
			<g>
				<g>
					<g>
						<g>
							<g>
								<path fill="#424243" d="M169.18,103.717h4.659c0.644,0,1.167,0.524,1.167,1.167v0.506c0,0.644-0.523,1.167-1.167,1.167
									h-4.659c-0.644,0-1.167-0.524-1.167-1.167v-0.506C168.013,104.241,168.537,103.717,169.18,103.717z M173.839,106.275
									c0.488,0,0.885-0.397,0.885-0.885v-0.506c0-0.488-0.397-0.885-0.885-0.885h-4.659c-0.488,0-0.885,0.397-0.885,0.885v0.506
									c0,0.488,0.397,0.885,0.885,0.885H173.839z"/>
							</g>
						</g>
					</g>
				</g>
			</g>
		</g>
	</g>
	<g id="XMLID_486_">
		<g id="XMLID_490_">
			<g>
				<g>
					<g>
						<g>
							<g>
								<path fill="#CFD0D2" d="M174.697,96.811h5.259c0.401,0,0.726,0.325,0.726,0.726v1.107c0,0.401-0.325,0.726-0.726,0.726
									h-5.259c-0.401,0-0.726-0.325-0.726-0.726v-1.107C173.971,97.136,174.296,96.811,174.697,96.811z"/>
							</g>
						</g>
					</g>
				</g>
			</g>
		</g>
		<g id="XMLID_487_">
			<g>
				<g>
					<g>
						<g>
							<g>
								<path fill="#424243" d="M174.997,96.67h4.659c0.644,0,1.167,0.524,1.167,1.167v0.506c0,0.644-0.524,1.167-1.167,1.167
									h-4.659c-0.644,0-1.167-0.524-1.167-1.167v-0.506C173.83,97.193,174.354,96.67,174.997,96.67z M179.656,99.227
									c0.488,0,0.885-0.397,0.885-0.885v-0.506c0-0.488-0.397-0.885-0.885-0.885h-4.659c-0.488,0-0.885,0.397-0.885,0.885v0.506
									c0,0.488,0.397,0.885,0.885,0.885H179.656z"/>
							</g>
						</g>
					</g>
				</g>
			</g>
		</g>
	</g>
</g>
<g>
	<g>
		<polygon fill="#B9BABC" points="33.098,77.26 57.652,77.26 57.652,81.181 33.245,81.181 		"/>
	</g>
	<g>
		<path fill="#424243" d="M57.652,82.198H33.245c-0.547,0-0.996-0.432-1.016-0.979l-0.147-3.921
			c-0.01-0.276,0.092-0.545,0.284-0.744c0.192-0.199,0.456-0.312,0.733-0.312h24.554c0.562,0,1.017,0.455,1.017,1.017v3.921
			C58.669,81.742,58.214,82.198,57.652,82.198z M34.225,80.163h22.41v-1.887H34.154L34.225,80.163z"/>
	</g>
</g>
<g>
	<g>
		<polygon fill="#B9BABC" points="186.205,77.26 158.367,77.26 158.367,81.181 186.155,81.181 		"/>
	</g>
	<g>
		<path fill="#424243" d="M186.155,82.21h-27.788c-0.568,0-1.029-0.461-1.029-1.029V77.26c0-0.568,0.461-1.029,1.029-1.029h27.838
			c0.275,0,0.539,0.11,0.732,0.306c0.193,0.196,0.3,0.461,0.297,0.736l-0.05,3.921C187.177,81.757,186.718,82.21,186.155,82.21z
			 M159.396,80.151h25.743l0.024-1.862h-25.767V80.151z"/>
	</g>
</g>
<g>
	<g>
		<path fill="#AECC62" d="M32.82,153.741c-3.936,0-7.408,1.979-9.479,4.997c-0.707-0.176-1.445-0.27-2.206-0.27
			c-5.039,0-9.125,4.085-9.125,9.125c0,0.515,0.045,1.018,0.127,1.51h9.865h8.131h13.505c0.433-1.21,0.67-2.514,0.67-3.873
			C44.308,158.885,39.165,153.741,32.82,153.741z"/>
	</g>
	<g>
		<path fill="#424243" d="M43.638,169.89H12.137c-0.385,0-0.714-0.278-0.777-0.658c-0.091-0.546-0.137-1.098-0.137-1.639
			c0-5.466,4.447-9.912,9.912-9.912c0.627,0,1.253,0.06,1.869,0.178c2.316-3.081,5.946-4.904,9.816-4.904
			c6.769,0,12.276,5.507,12.276,12.276c0,1.419-0.241,2.812-0.716,4.139C44.267,169.681,43.971,169.89,43.638,169.89z
			 M12.83,168.315h30.238c0.3-0.997,0.452-2.032,0.452-3.085c0-5.9-4.8-10.7-10.7-10.7c-3.529,0-6.829,1.74-8.829,4.655
			c-0.186,0.271-0.521,0.398-0.839,0.319c-0.66-0.164-1.338-0.247-2.016-0.247c-4.597,0-8.337,3.74-8.337,8.337
			C12.798,167.831,12.809,168.073,12.83,168.315z"/>
	</g>
</g>
<g>
	<g>
		<path fill="#AECC62" d="M181.399,153.741c3.936,0,7.408,1.979,9.479,4.997c0.707-0.176,1.445-0.27,2.206-0.27
			c5.039,0,9.125,4.085,9.125,9.125c0,0.515-0.045,1.018-0.127,1.51h-9.865h-8.131h-13.505c-0.433-1.21-0.67-2.514-0.67-3.873
			C169.911,158.885,175.054,153.741,181.399,153.741z"/>
	</g>
	<g>
		<path fill="#424243" d="M202.082,169.89h-31.501c-0.333,0-0.629-0.209-0.742-0.522c-0.475-1.327-0.716-2.719-0.716-4.139
			c0-6.769,5.507-12.276,12.276-12.276c3.87,0,7.5,1.823,9.816,4.904c0.616-0.118,1.242-0.178,1.869-0.178
			c5.466,0,9.912,4.447,9.912,9.912c0,0.541-0.046,1.092-0.137,1.639C202.796,169.612,202.467,169.89,202.082,169.89z
			 M171.151,168.315h30.238c0.021-0.242,0.032-0.484,0.032-0.722c0-4.597-3.74-8.337-8.337-8.337c-0.678,0-1.357,0.083-2.016,0.247
			c-0.319,0.079-0.653-0.048-0.84-0.319c-2-2.914-5.3-4.655-8.829-4.655c-5.9,0-10.7,4.8-10.7,10.7
			C170.699,166.282,170.851,167.317,171.151,168.315z"/>
	</g>
</g>
<g>
	<g id="XMLID_481_">
		<g id="XMLID_485_">
			<g>
				<g>
					<g>
						<g>
							<g>
								<path fill="#CFD0D2" d="M51.783,147.25h-2.356c-0.551,0-0.998,0.447-0.998,0.998v0.493c0,0.551,0.447,0.998,0.998,0.998
									h2.356V147.25z"/>
							</g>
						</g>
					</g>
				</g>
			</g>
		</g>
		<g id="XMLID_482_">
			<g>
				<g>
					<g>
						<g>
							<g>
								<path fill="#424243" d="M51.92,149.877h-2.493c-0.626,0-1.136-0.51-1.136-1.136v-0.493c0-0.626,0.509-1.136,1.136-1.136
									h2.493V149.877z M49.427,147.387c-0.475,0-0.861,0.386-0.861,0.861v0.493c0,0.475,0.386,0.861,0.861,0.861h2.218v-2.215
									H49.427z"/>
							</g>
						</g>
					</g>
				</g>
			</g>
		</g>
	</g>
	<g id="XMLID_476_">
		<g id="XMLID_480_">
			<g>
				<g>
					<g>
						<g>
							<g>
								<path fill="#CFD0D2" d="M49.803,146.269h-5.118c-0.39,0-0.706-0.316-0.706-0.706v-1.077c0-0.39,0.316-0.706,0.706-0.706
									h5.118c0.39,0,0.706,0.316,0.706,0.706v1.077C50.509,145.952,50.193,146.269,49.803,146.269z"/>
							</g>
						</g>
					</g>
				</g>
			</g>
		</g>
		<g id="XMLID_477_">
			<g>
				<g>
					<g>
						<g>
							<g>
								<path fill="#424243" d="M49.511,146.406h-4.534c-0.626,0-1.136-0.51-1.136-1.136v-0.492c0-0.626,0.509-1.136,1.136-1.136
									h4.534c0.626,0,1.136,0.51,1.136,1.136v0.492C50.646,145.896,50.137,146.406,49.511,146.406z M44.977,143.917
									c-0.475,0-0.861,0.386-0.861,0.861v0.492c0,0.475,0.386,0.861,0.861,0.861h4.534c0.475,0,0.861-0.386,0.861-0.861v-0.492
									c0-0.475-0.386-0.861-0.861-0.861H44.977z"/>
							</g>
						</g>
					</g>
				</g>
			</g>
		</g>
	</g>
	<g id="XMLID_471_">
		<g id="XMLID_475_">
			<g>
				<g>
					<g>
						<g>
							<g>
								<path fill="#CFD0D2" d="M51.782,132.132h-2.356c-0.551,0-0.998,0.447-0.998,0.998v0.493c0,0.551,0.447,0.998,0.998,0.998
									h2.356V132.132z"/>
							</g>
						</g>
					</g>
				</g>
			</g>
		</g>
		<g id="XMLID_472_">
			<g>
				<g>
					<g>
						<g>
							<g>
								<path fill="#424243" d="M51.919,134.759h-2.493c-0.626,0-1.136-0.509-1.136-1.136v-0.492c0-0.626,0.509-1.136,1.136-1.136
									h2.493V134.759z M49.426,132.269c-0.475,0-0.861,0.386-0.861,0.861v0.492c0,0.475,0.386,0.861,0.861,0.861h2.218v-2.215
									H49.426z"/>
							</g>
						</g>
					</g>
				</g>
			</g>
		</g>
	</g>
	<g id="XMLID_466_">
		<g id="XMLID_470_">
			<g>
				<g>
					<g>
						<g>
							<g>
								<path fill="#CFD0D2" d="M49.802,131.151h-5.118c-0.39,0-0.706-0.316-0.706-0.706v-1.077c0-0.39,0.316-0.706,0.706-0.706
									h5.118c0.39,0,0.706,0.316,0.706,0.706v1.077C50.508,130.834,50.192,131.151,49.802,131.151z"/>
							</g>
						</g>
					</g>
				</g>
			</g>
		</g>
		<g id="XMLID_467_">
			<g>
				<g>
					<g>
						<g>
							<g>
								<path fill="#424243" d="M49.509,131.288h-4.534c-0.626,0-1.136-0.509-1.136-1.136v-0.493c0-0.626,0.509-1.136,1.136-1.136
									h4.534c0.626,0,1.136,0.509,1.136,1.136v0.493C50.645,130.778,50.136,131.288,49.509,131.288z M44.976,128.799
									c-0.475,0-0.861,0.386-0.861,0.861v0.493c0,0.475,0.386,0.861,0.861,0.861h4.534c0.475,0,0.861-0.386,0.861-0.861v-0.493
									c0-0.475-0.386-0.861-0.861-0.861H44.976z"/>
							</g>
						</g>
					</g>
				</g>
			</g>
		</g>
	</g>
	<g id="XMLID_461_">
		<g id="XMLID_465_">
			<g>
				<g>
					<g>
						<g>
							<g>
								<path fill="#CFD0D2" d="M44.141,138.009h-5.118c-0.39,0-0.706-0.316-0.706-0.706v-1.077c0-0.39,0.316-0.706,0.706-0.706
									h5.118c0.39,0,0.706,0.316,0.706,0.706v1.077C44.847,137.693,44.531,138.009,44.141,138.009z"/>
							</g>
						</g>
					</g>
				</g>
			</g>
		</g>
		<g id="XMLID_462_">
			<g>
				<g>
					<g>
						<g>
							<g>
								<path fill="#424243" d="M43.849,138.147h-4.534c-0.626,0-1.136-0.509-1.136-1.136v-0.493c0-0.626,0.509-1.136,1.136-1.136
									h4.534c0.626,0,1.136,0.509,1.136,1.136v0.493C44.984,137.637,44.475,138.147,43.849,138.147z M39.315,135.657
									c-0.475,0-0.861,0.386-0.861,0.861v0.493c0,0.475,0.386,0.861,0.861,0.861h4.534c0.475,0,0.861-0.386,0.861-0.861v-0.493
									c0-0.475-0.386-0.861-0.861-0.861H39.315z"/>
							</g>
						</g>
					</g>
				</g>
			</g>
		</g>
	</g>
</g>
<g>
	<g id="XMLID_456_">
		<g id="XMLID_460_">
			<g>
				<g>
					<g>
						<g>
							<g>
								<path fill="#CFD0D2" d="M35.572,86.258h2.356c0.551,0,0.998-0.447,0.998-0.998v-0.493c0-0.551-0.447-0.998-0.998-0.998
									h-2.356V86.258z"/>
							</g>
						</g>
					</g>
				</g>
			</g>
		</g>
		<g id="XMLID_457_">
			<g>
				<g>
					<g>
						<g>
							<g>
								<path fill="#424243" d="M35.435,83.631h2.493c0.626,0,1.136,0.51,1.136,1.136v0.493c0,0.626-0.509,1.136-1.136,1.136h-2.493
									V83.631z M37.928,86.121c0.475,0,0.861-0.386,0.861-0.861v-0.493c0-0.475-0.386-0.861-0.861-0.861H35.71v2.215H37.928z"/>
							</g>
						</g>
					</g>
				</g>
			</g>
		</g>
	</g>
	<g id="XMLID_451_">
		<g id="XMLID_455_">
			<g>
				<g>
					<g>
						<g>
							<g>
								<path fill="#CFD0D2" d="M37.552,87.239h5.118c0.39,0,0.706,0.316,0.706,0.706v1.077c0,0.39-0.316,0.706-0.706,0.706h-5.118
									c-0.39,0-0.706-0.316-0.706-0.706v-1.077C36.846,87.555,37.162,87.239,37.552,87.239z"/>
							</g>
						</g>
					</g>
				</g>
			</g>
		</g>
		<g id="XMLID_452_">
			<g>
				<g>
					<g>
						<g>
							<g>
								<path fill="#424243" d="M37.845,87.102h4.534c0.626,0,1.136,0.51,1.136,1.136v0.492c0,0.626-0.509,1.136-1.136,1.136h-4.534
									c-0.626,0-1.136-0.51-1.136-1.136v-0.492C36.709,87.611,37.218,87.102,37.845,87.102z M42.378,89.591
									c0.475,0,0.861-0.386,0.861-0.861v-0.492c0-0.475-0.386-0.861-0.861-0.861h-4.534c-0.475,0-0.861,0.386-0.861,0.861v0.492
									c0,0.475,0.386,0.861,0.861,0.861H42.378z"/>
							</g>
						</g>
					</g>
				</g>
			</g>
		</g>
	</g>
	<g id="XMLID_446_">
		<g id="XMLID_450_">
			<g>
				<g>
					<g>
						<g>
							<g>
								<path fill="#CFD0D2" d="M35.573,101.376h2.356c0.551,0,0.998-0.447,0.998-0.998v-0.493c0-0.551-0.447-0.998-0.998-0.998
									h-2.356V101.376z"/>
							</g>
						</g>
					</g>
				</g>
			</g>
		</g>
		<g id="XMLID_447_">
			<g>
				<g>
					<g>
						<g>
							<g>
								<path fill="#424243" d="M35.436,98.749h2.493c0.626,0,1.136,0.509,1.136,1.136v0.492c0,0.626-0.509,1.136-1.136,1.136
									h-2.493V98.749z M37.929,101.239c0.475,0,0.861-0.386,0.861-0.861v-0.492c0-0.475-0.386-0.861-0.861-0.861h-2.218v2.215
									H37.929z"/>
							</g>
						</g>
					</g>
				</g>
			</g>
		</g>
	</g>
	<g id="XMLID_441_">
		<g id="XMLID_445_">
			<g>
				<g>
					<g>
						<g>
							<g>
								<path fill="#CFD0D2" d="M37.554,102.357h5.118c0.39,0,0.706,0.316,0.706,0.706v1.077c0,0.39-0.316,0.706-0.706,0.706h-5.118
									c-0.39,0-0.706-0.316-0.706-0.706v-1.077C36.847,102.673,37.164,102.357,37.554,102.357z"/>
							</g>
						</g>
					</g>
				</g>
			</g>
		</g>
		<g id="XMLID_442_">
			<g>
				<g>
					<g>
						<g>
							<g>
								<path fill="#424243" d="M37.846,102.22h4.534c0.626,0,1.136,0.509,1.136,1.136v0.493c0,0.626-0.509,1.136-1.136,1.136
									h-4.534c-0.626,0-1.136-0.509-1.136-1.136v-0.493C36.71,102.729,37.219,102.22,37.846,102.22z M42.38,104.709
									c0.475,0,0.861-0.386,0.861-0.861v-0.493c0-0.475-0.386-0.861-0.861-0.861h-4.534c-0.475,0-0.861,0.386-0.861,0.861v0.493
									c0,0.475,0.386,0.861,0.861,0.861H42.38z"/>
							</g>
						</g>
					</g>
				</g>
			</g>
		</g>
	</g>
	<g id="XMLID_436_">
		<g id="XMLID_440_">
			<g>
				<g>
					<g>
						<g>
							<g>
								<path fill="#CFD0D2" d="M43.214,95.498h5.118c0.39,0,0.706,0.316,0.706,0.706v1.077c0,0.39-0.316,0.706-0.706,0.706h-5.118
									c-0.39,0-0.706-0.316-0.706-0.706v-1.077C42.508,95.815,42.824,95.498,43.214,95.498z"/>
							</g>
						</g>
					</g>
				</g>
			</g>
		</g>
		<g id="XMLID_437_">
			<g>
				<g>
					<g>
						<g>
							<g>
								<path fill="#424243" d="M43.507,95.361h4.534c0.626,0,1.136,0.509,1.136,1.136v0.493c0,0.626-0.509,1.136-1.136,1.136
									h-4.534c-0.626,0-1.136-0.509-1.136-1.136v-0.493C42.371,95.871,42.88,95.361,43.507,95.361z M48.04,97.851
									c0.475,0,0.861-0.386,0.861-0.861v-0.493c0-0.475-0.386-0.861-0.861-0.861h-4.534c-0.475,0-0.861,0.386-0.861,0.861v0.493
									c0,0.475,0.386,0.861,0.861,0.861H48.04z"/>
							</g>
						</g>
					</g>
				</g>
			</g>
		</g>
	</g>
</g>
<g opacity="0.81">
	<g>
		<rect x="53.632" y="96.689" fill="#D8D8D8" width="111.62" height="2.518"/>
	</g>
</g>
<g>
	<g>
		<rect x="38.111" y="158.413" fill="#F0F0F1" width="143.295" height="5.662"/>
	</g>
	<g>
		<path fill="#424243" d="M181.406,164.999H38.111c-0.51,0-0.924-0.414-0.924-0.924v-5.662c0-0.51,0.414-0.924,0.924-0.924h143.295
			c0.51,0,0.924,0.414,0.924,0.924v5.662C182.33,164.585,181.917,164.999,181.406,164.999z M39.035,163.15h141.447v-3.813H39.035
			V163.15z"/>
	</g>
</g>
<g>
	<g>
		<rect x="50.473" y="152.826" fill="#F0F0F1" width="118.571" height="5.662"/>
	</g>
	<g>
		<path fill="#424243" d="M169.044,159.328H50.473c-0.464,0-0.841-0.376-0.841-0.841v-5.662c0-0.464,0.376-0.841,0.841-0.841
			h118.571c0.464,0,0.841,0.376,0.841,0.841v5.662C169.885,158.952,169.509,159.328,169.044,159.328z M51.314,157.646h116.89v-3.98
			H51.314V157.646z"/>
	</g>
</g>
<g>
	<g>
		<g id="XMLID_429_">
			<g id="XMLID_430_">
				<g id="XMLID_434_">
					<g id="XMLID_435_">
						<g>
							<g>
								<g>
									<g>
										<g>
											<rect x="71.071" y="111.228" fill="#FFFFFF" width="5.816" height="27.445"/>
										</g>
									</g>
								</g>
							</g>
						</g>
					</g>
				</g>
				<g id="XMLID_431_">
					<g id="XMLID_432_">
						<g id="XMLID_433_">
							<g>
								<g>
									<g>
										<g>
											<g>
												<path fill="#424243" d="M76.888,138.134c-2.705,0-1.953,0-4.658,0c-0.386,0-0.772,0-1.158,0
													c0.18,0.18,0.36,0.36,0.54,0.54c0-3.09,0-6.18,0-9.269c0-4.926,0-9.852,0-14.779c0-1.133,0-2.265,0-3.398
													c-0.18,0.18-0.36,0.36-0.54,0.54c2.705,0,1.953,0,4.658,0c0.386,0,0.772,0,1.158,0c-0.18-0.18-0.36-0.36-0.54-0.54
													c0,3.09,0,6.18,0,9.269c0,4.926,0,9.852,0,14.779c0,1.133,0,2.265,0,3.398c0,0.695,1.079,0.696,1.079,0
													c0-3.09,0-6.18,0-9.269c0-4.926,0-9.852,0-14.779c0-1.133,0-2.265,0-3.398c0-0.292-0.247-0.54-0.54-0.54
													c-2.705,0-1.953,0-4.658,0c-0.386,0-0.772,0-1.158,0c-0.292,0-0.54,0.247-0.54,0.54c0,3.09,0,6.18,0,9.269
													c0,4.926,0,9.852,0,14.779c0,1.133,0,2.265,0,3.398c0,0.292,0.247,0.54,0.54,0.54c2.705,0,1.953,0,4.658,0
													c0.386,0,0.772,0,1.158,0C77.582,139.213,77.583,138.134,76.888,138.134z"/>
											</g>
										</g>
									</g>
								</g>
							</g>
						</g>
					</g>
				</g>
			</g>
		</g>
		<g id="XMLID_427_">
			<g id="XMLID_428_">
				<g>
					<g>
						<g>
							<g>
								<g>
									<rect x="72.363" y="112.671" fill="#9ED1E3" width="3.145" height="7.053"/>
								</g>
							</g>
						</g>
					</g>
				</g>
			</g>
		</g>
		<g id="XMLID_425_">
			<g id="XMLID_426_">
				<g>
					<g>
						<g>
							<g>
								<g>
									<rect x="72.363" y="129.413" fill="#9ED1E3" width="3.145" height="7.954"/>
								</g>
							</g>
						</g>
					</g>
				</g>
			</g>
		</g>
		<g id="XMLID_423_">
			<g id="XMLID_424_">
				<g>
					<g>
						<g>
							<g>
								<g>
									<rect x="72.363" y="120.959" fill="#9ED1E3" width="3.145" height="7.954"/>
								</g>
							</g>
						</g>
					</g>
				</g>
			</g>
		</g>
		<g id="XMLID_421_">
			<g id="XMLID_422_">
				<g>
					<g>
						<g>
							<g>
								<g>
									<rect x="72.363" y="112.505" fill="#9ED1E3" width="3.145" height="7.954"/>
								</g>
							</g>
						</g>
					</g>
				</g>
			</g>
		</g>
	</g>
	<g>
		<g>
			<rect x="73.678" y="112.314" fill="#FFFFFF" width="0.368" height="25.546"/>
		</g>
	</g>
</g>
<g>
	<g>
		<g id="XMLID_414_">
			<g id="XMLID_415_">
				<g id="XMLID_419_">
					<g id="XMLID_420_">
						<g>
							<g>
								<g>
									<g>
										<g>
											<rect x="40.41" y="100.066" fill="#FFFFFF" width="6.517" height="30.75"/>
										</g>
									</g>
								</g>
							</g>
						</g>
					</g>
				</g>
				<g id="XMLID_416_">
					<g id="XMLID_417_">
						<g id="XMLID_418_">
							<g>
								<g>
									<g>
										<g>
											<g>
												<path fill="#424243" d="M46.927,130.211c-3.031,0-2.188,0-5.219,0c-0.433,0-0.865,0-1.298,0
													c0.202,0.202,0.403,0.403,0.605,0.605c0-3.462,0-6.924,0-10.386c0-5.519,0-11.039,0-16.558c0-1.269,0-2.538,0-3.807
													c-0.202,0.202-0.403,0.403-0.605,0.605c3.031,0,2.188,0,5.219,0c0.433,0,0.865,0,1.298,0
													c-0.202-0.202-0.403-0.403-0.605-0.605c0,3.462,0,6.924,0,10.385c0,5.519,0,11.039,0,16.558c0,1.269,0,2.538,0,3.807
													c0,0.778,1.209,0.78,1.209,0c0-3.462,0-6.924,0-10.386c0-5.519,0-11.039,0-16.558c0-1.269,0-2.538,0-3.807
													c0-0.327-0.277-0.605-0.605-0.605c-3.031,0-2.188,0-5.219,0c-0.433,0-0.865,0-1.298,0c-0.327,0-0.605,0.277-0.605,0.605
													c0,3.462,0,6.924,0,10.385c0,5.519,0,11.039,0,16.558c0,1.269,0,2.538,0,3.807c0,0.327,0.277,0.605,0.605,0.605
													c3.031,0,2.188,0,5.219,0c0.433,0,0.865,0,1.298,0C47.705,131.421,47.706,130.211,46.927,130.211z"/>
											</g>
										</g>
									</g>
								</g>
							</g>
						</g>
					</g>
				</g>
			</g>
		</g>
		<g id="XMLID_412_">
			<g id="XMLID_413_">
				<g>
					<g>
						<g>
							<g>
								<g>
									<rect x="41.858" y="101.682" fill="#9ED1E3" width="3.523" height="7.903"/>
								</g>
							</g>
						</g>
					</g>
				</g>
			</g>
		</g>
		<g id="XMLID_410_">
			<g id="XMLID_411_">
				<g>
					<g>
						<g>
							<g>
								<g>
									<rect x="41.858" y="120.44" fill="#9ED1E3" width="3.523" height="8.912"/>
								</g>
							</g>
						</g>
					</g>
				</g>
			</g>
		</g>
		<g id="XMLID_408_">
			<g id="XMLID_409_">
				<g>
					<g>
						<g>
							<g>
								<g>
									<rect x="41.858" y="110.968" fill="#9ED1E3" width="3.523" height="8.912"/>
								</g>
							</g>
						</g>
					</g>
				</g>
			</g>
		</g>
		<g id="XMLID_406_">
			<g id="XMLID_407_">
				<g>
					<g>
						<g>
							<g>
								<g>
									<rect x="41.858" y="101.496" fill="#9ED1E3" width="3.523" height="8.912"/>
								</g>
							</g>
						</g>
					</g>
				</g>
			</g>
		</g>
	</g>
	<g>
		<g>
			<rect x="43.331" y="101.282" fill="#FFFFFF" width="0.412" height="28.622"/>
		</g>
	</g>
</g>
<g>
	<g>
		<g id="XMLID_399_">
			<g id="XMLID_400_">
				<g id="XMLID_404_">
					<g id="XMLID_405_">
						<g>
							<g>
								<g>
									<g>
										<g>
											<rect x="171.658" y="100.066" fill="#FFFFFF" width="6.517" height="30.75"/>
										</g>
									</g>
								</g>
							</g>
						</g>
					</g>
				</g>
				<g id="XMLID_401_">
					<g id="XMLID_402_">
						<g id="XMLID_403_">
							<g>
								<g>
									<g>
										<g>
											<g>
												<path fill="#424243" d="M178.174,130.211c-3.031,0-2.188,0-5.219,0c-0.433,0-0.865,0-1.298,0
													c0.202,0.202,0.403,0.403,0.605,0.605c0-3.462,0-6.924,0-10.386c0-5.519,0-11.039,0-16.558c0-1.269,0-2.538,0-3.807
													c-0.202,0.202-0.403,0.403-0.605,0.605c3.031,0,2.188,0,5.219,0c0.433,0,0.865,0,1.298,0
													c-0.202-0.202-0.403-0.403-0.605-0.605c0,3.462,0,6.924,0,10.385c0,5.519,0,11.039,0,16.558c0,1.269,0,2.538,0,3.807
													c0,0.778,1.209,0.78,1.209,0c0-3.462,0-6.924,0-10.386c0-5.519,0-11.039,0-16.558c0-1.269,0-2.538,0-3.807
													c0-0.327-0.277-0.605-0.605-0.605c-3.031,0-2.188,0-5.219,0c-0.433,0-0.865,0-1.298,0c-0.327,0-0.605,0.277-0.605,0.605
													c0,3.462,0,6.924,0,10.385c0,5.519,0,11.039,0,16.558c0,1.269,0,2.538,0,3.807c0,0.327,0.277,0.605,0.605,0.605
													c3.031,0,2.188,0,5.219,0c0.433,0,0.865,0,1.298,0C178.952,131.421,178.954,130.211,178.174,130.211z"/>
											</g>
										</g>
									</g>
								</g>
							</g>
						</g>
					</g>
				</g>
			</g>
		</g>
		<g id="XMLID_397_">
			<g id="XMLID_398_">
				<g>
					<g>
						<g>
							<g>
								<g>
									<rect x="173.105" y="101.682" fill="#9ED1E3" width="3.523" height="7.903"/>
								</g>
							</g>
						</g>
					</g>
				</g>
			</g>
		</g>
		<g id="XMLID_395_">
			<g id="XMLID_396_">
				<g>
					<g>
						<g>
							<g>
								<g>
									<rect x="173.105" y="120.44" fill="#9ED1E3" width="3.523" height="8.912"/>
								</g>
							</g>
						</g>
					</g>
				</g>
			</g>
		</g>
		<g id="XMLID_393_">
			<g id="XMLID_394_">
				<g>
					<g>
						<g>
							<g>
								<g>
									<rect x="173.105" y="110.968" fill="#9ED1E3" width="3.523" height="8.912"/>
								</g>
							</g>
						</g>
					</g>
				</g>
			</g>
		</g>
		<g id="XMLID_391_">
			<g id="XMLID_392_">
				<g>
					<g>
						<g>
							<g>
								<g>
									<rect x="173.105" y="101.496" fill="#9ED1E3" width="3.523" height="8.912"/>
								</g>
							</g>
						</g>
					</g>
				</g>
			</g>
		</g>
	</g>
	<g>
		<g>
			<rect x="174.578" y="101.282" fill="#FFFFFF" width="0.412" height="28.622"/>
		</g>
	</g>
</g>
<g>
	<g id="XMLID_384_">
		<g id="XMLID_385_">
			<g id="XMLID_389_">
				<g id="XMLID_390_">
					<g>
						<g>
							<g>
								<g>
									<g>
										<rect x="141.351" y="111.228" fill="#FFFFFF" width="5.816" height="27.445"/>
									</g>
								</g>
							</g>
						</g>
					</g>
				</g>
			</g>
			<g id="XMLID_386_">
				<g id="XMLID_387_">
					<g id="XMLID_388_">
						<g>
							<g>
								<g>
									<g>
										<g>
											<path fill="#424243" d="M147.167,138.134c-2.705,0-1.953,0-4.658,0c-0.386,0-0.772,0-1.158,0
												c0.18,0.18,0.36,0.36,0.54,0.54c0-3.09,0-6.18,0-9.269c0-4.926,0-9.852,0-14.779c0-1.133,0-2.265,0-3.398
												c-0.18,0.18-0.36,0.36-0.54,0.54c2.705,0,1.953,0,4.658,0c0.386,0,0.772,0,1.158,0c-0.18-0.18-0.36-0.36-0.54-0.54
												c0,3.09,0,6.18,0,9.269c0,4.926,0,9.852,0,14.779c0,1.133,0,2.265,0,3.398c0,0.695,1.079,0.696,1.079,0
												c0-3.09,0-6.18,0-9.269c0-4.926,0-9.852,0-14.779c0-1.133,0-2.265,0-3.398c0-0.292-0.247-0.54-0.54-0.54
												c-2.705,0-1.953,0-4.658,0c-0.386,0-0.772,0-1.158,0c-0.292,0-0.54,0.247-0.54,0.54c0,3.09,0,6.18,0,9.269
												c0,4.926,0,9.852,0,14.779c0,1.133,0,2.265,0,3.398c0,0.292,0.247,0.54,0.54,0.54c2.705,0,1.953,0,4.658,0
												c0.386,0,0.772,0,1.158,0C147.862,139.213,147.863,138.134,147.167,138.134z"/>
										</g>
									</g>
								</g>
							</g>
						</g>
					</g>
				</g>
			</g>
		</g>
	</g>
	<g id="XMLID_382_">
		<g id="XMLID_383_">
			<g>
				<g>
					<g>
						<g>
							<g>
								<rect x="142.643" y="112.671" fill="#9ED1E3" width="3.145" height="7.053"/>
							</g>
						</g>
					</g>
				</g>
			</g>
		</g>
	</g>
	<g id="XMLID_380_">
		<g id="XMLID_381_">
			<g>
				<g>
					<g>
						<g>
							<g>
								<rect x="142.643" y="129.413" fill="#9ED1E3" width="3.145" height="7.954"/>
							</g>
						</g>
					</g>
				</g>
			</g>
		</g>
	</g>
	<g id="XMLID_378_">
		<g id="XMLID_379_">
			<g>
				<g>
					<g>
						<g>
							<g>
								<rect x="142.643" y="120.959" fill="#9ED1E3" width="3.145" height="7.954"/>
							</g>
						</g>
					</g>
				</g>
			</g>
		</g>
	</g>
	<g id="XMLID_376_">
		<g id="XMLID_377_">
			<g>
				<g>
					<g>
						<g>
							<g>
								<rect x="142.643" y="112.505" fill="#9ED1E3" width="3.145" height="7.954"/>
							</g>
						</g>
					</g>
				</g>
			</g>
		</g>
	</g>
</g>
<g>
	<g>
		<rect x="143.958" y="112.314" fill="#FFFFFF" width="0.368" height="25.546"/>
	</g>
</g>
<g>
	<g>
		<g>
			<g>
				<g>
					<rect x="79.039" y="98.523" fill="#F0F1F1" width="11.867" height="53.309"/>
				</g>
			</g>
			<g>
				<g>
					<path fill="#424243" d="M90.906,152.588H79.039c-0.417,0-0.756-0.338-0.756-0.756V98.523c0-0.417,0.338-0.756,0.756-0.756
						h11.867c0.417,0,0.756,0.338,0.756,0.756v53.309C91.662,152.249,91.323,152.588,90.906,152.588z M79.794,151.076H90.15V99.278
						H79.794V151.076z"/>
				</g>
			</g>
		</g>
		<g>
			<g>
				<g>
					<rect x="76.711" y="95.855" fill="#F0F1F1" width="16.524" height="3.008"/>
				</g>
			</g>
			<g>
				<g>
					<path fill="#424243" d="M93.234,99.589H76.71c-0.401,0-0.727-0.325-0.727-0.727v-3.008c0-0.401,0.325-0.727,0.727-0.727h16.524
						c0.401,0,0.727,0.325,0.727,0.727v3.008C93.961,99.264,93.636,99.589,93.234,99.589z M77.437,98.136h15.071v-1.555H77.437
						V98.136z"/>
				</g>
			</g>
		</g>
		<g>
			<g>
				<g>
					<rect x="76.711" y="149.611" fill="#F0F1F1" width="16.524" height="3.003"/>
				</g>
			</g>
			<g>
				<g>
					<path fill="#424243" d="M93.234,153.34H76.71c-0.401,0-0.726-0.325-0.726-0.726v-3.003c0-0.401,0.325-0.726,0.726-0.726h16.524
						c0.401,0,0.726,0.325,0.726,0.726v3.003C93.96,153.015,93.635,153.34,93.234,153.34z M77.436,151.888h15.072v-1.551H77.436
						V151.888z"/>
				</g>
			</g>
		</g>
	</g>
	<g>
		<g>
			<g>
				<path fill="#424243" d="M81.912,149.549c-0.244,0-0.441-0.198-0.441-0.441V98.677c0-0.244,0.197-0.441,0.441-0.441
					c0.244,0,0.441,0.197,0.441,0.441v50.431C82.353,149.351,82.156,149.549,81.912,149.549z"/>
			</g>
		</g>
	</g>
	<g>
		<g>
			<g>
				<path fill="#424243" d="M84.926,149.549c-0.244,0-0.441-0.198-0.441-0.441V98.677c0-0.244,0.197-0.441,0.441-0.441
					c0.244,0,0.441,0.197,0.441,0.441v50.431C85.367,149.351,85.17,149.549,84.926,149.549z"/>
			</g>
		</g>
	</g>
	<g>
		<g>
			<g>
				<path fill="#424243" d="M87.94,149.549c-0.244,0-0.441-0.198-0.441-0.441V98.677c0-0.244,0.197-0.441,0.441-0.441
					s0.441,0.197,0.441,0.441v50.431C88.381,149.351,88.184,149.549,87.94,149.549z"/>
			</g>
		</g>
	</g>
</g>
<g>
	<g>
		<g>
			<g>
				<g>
					<rect x="56.886" y="98.523" fill="#F0F1F1" width="11.867" height="53.309"/>
				</g>
			</g>
			<g>
				<g>
					<path fill="#424243" d="M68.754,152.588H56.886c-0.417,0-0.756-0.338-0.756-0.756V98.523c0-0.417,0.338-0.756,0.756-0.756
						h11.867c0.417,0,0.756,0.338,0.756,0.756v53.309C69.509,152.249,69.171,152.588,68.754,152.588z M57.642,151.076h10.356V99.278
						H57.642V151.076z"/>
				</g>
			</g>
		</g>
		<g>
			<g>
				<g>
					<rect x="54.558" y="95.855" fill="#F0F1F1" width="16.524" height="3.008"/>
				</g>
			</g>
			<g>
				<g>
					<path fill="#424243" d="M71.082,99.589H54.558c-0.401,0-0.727-0.325-0.727-0.727v-3.008c0-0.401,0.325-0.727,0.727-0.727
						h16.524c0.401,0,0.727,0.325,0.727,0.727v3.008C71.808,99.264,71.483,99.589,71.082,99.589z M55.285,98.136h15.071v-1.555
						H55.285V98.136z"/>
				</g>
			</g>
		</g>
		<g>
			<g>
				<g>
					<rect x="54.558" y="149.611" fill="#F0F1F1" width="16.524" height="3.003"/>
				</g>
			</g>
			<g>
				<g>
					<path fill="#424243" d="M71.082,153.34H54.558c-0.401,0-0.726-0.325-0.726-0.726v-3.003c0-0.401,0.325-0.726,0.726-0.726
						h16.524c0.401,0,0.726,0.325,0.726,0.726v3.003C71.808,153.015,71.483,153.34,71.082,153.34z M55.284,151.888h15.072v-1.551
						H55.284V151.888z"/>
				</g>
			</g>
		</g>
	</g>
	<g>
		<g>
			<g>
				<path fill="#424243" d="M59.76,149.549c-0.244,0-0.441-0.198-0.441-0.441V98.677c0-0.244,0.197-0.441,0.441-0.441
					s0.441,0.197,0.441,0.441v50.431C60.201,149.351,60.003,149.549,59.76,149.549z"/>
			</g>
		</g>
	</g>
	<g>
		<g>
			<g>
				<path fill="#424243" d="M62.774,149.549c-0.244,0-0.441-0.198-0.441-0.441V98.677c0-0.244,0.197-0.441,0.441-0.441
					c0.244,0,0.441,0.197,0.441,0.441v50.431C63.215,149.351,63.017,149.549,62.774,149.549z"/>
			</g>
		</g>
	</g>
	<g>
		<g>
			<g>
				<path fill="#424243" d="M65.788,149.549c-0.244,0-0.441-0.198-0.441-0.441V98.677c0-0.244,0.197-0.441,0.441-0.441
					c0.244,0,0.441,0.197,0.441,0.441v50.431C66.229,149.351,66.031,149.549,65.788,149.549z"/>
			</g>
		</g>
	</g>
</g>
<g>
	<g>
		<g>
			<g>
				<g>
					<rect x="149.711" y="98.523" fill="#F0F1F1" width="11.867" height="53.309"/>
				</g>
			</g>
			<g>
				<g>
					<path fill="#424243" d="M161.578,152.588H149.71c-0.417,0-0.756-0.338-0.756-0.756V98.523c0-0.417,0.338-0.756,0.756-0.756
						h11.867c0.417,0,0.756,0.338,0.756,0.756v53.309C162.333,152.249,161.995,152.588,161.578,152.588z M150.466,151.076h10.356
						V99.278h-10.356V151.076z"/>
				</g>
			</g>
		</g>
		<g>
			<g>
				<g>
					<rect x="147.382" y="95.855" fill="#F0F1F1" width="16.524" height="3.008"/>
				</g>
			</g>
			<g>
				<g>
					<path fill="#424243" d="M163.906,99.589h-16.524c-0.401,0-0.727-0.325-0.727-0.727v-3.008c0-0.401,0.325-0.727,0.727-0.727
						h16.524c0.401,0,0.727,0.325,0.727,0.727v3.008C164.633,99.264,164.307,99.589,163.906,99.589z M148.109,98.136h15.071v-1.555
						h-15.071V98.136z"/>
				</g>
			</g>
		</g>
		<g>
			<g>
				<g>
					<rect x="147.382" y="149.611" fill="#F0F1F1" width="16.524" height="3.003"/>
				</g>
			</g>
			<g>
				<g>
					<path fill="#424243" d="M163.906,153.34h-16.524c-0.401,0-0.726-0.325-0.726-0.726v-3.003c0-0.401,0.325-0.726,0.726-0.726
						h16.524c0.401,0,0.726,0.325,0.726,0.726v3.003C164.632,153.015,164.307,153.34,163.906,153.34z M148.108,151.888h15.072
						v-1.551h-15.072V151.888z"/>
				</g>
			</g>
		</g>
	</g>
	<g>
		<g>
			<g>
				<path fill="#424243" d="M152.584,149.549c-0.244,0-0.441-0.198-0.441-0.441V98.677c0-0.244,0.197-0.441,0.441-0.441
					c0.244,0,0.441,0.197,0.441,0.441v50.431C153.025,149.351,152.827,149.549,152.584,149.549z"/>
			</g>
		</g>
	</g>
	<g>
		<g>
			<g>
				<path fill="#424243" d="M155.598,149.549c-0.244,0-0.441-0.198-0.441-0.441V98.677c0-0.244,0.197-0.441,0.441-0.441
					c0.244,0,0.441,0.197,0.441,0.441v50.431C156.039,149.351,155.841,149.549,155.598,149.549z"/>
			</g>
		</g>
	</g>
	<g>
		<g>
			<g>
				<path fill="#424243" d="M158.612,149.549c-0.244,0-0.441-0.198-0.441-0.441V98.677c0-0.244,0.197-0.441,0.441-0.441
					c0.244,0,0.441,0.197,0.441,0.441v50.431C159.053,149.351,158.856,149.549,158.612,149.549z"/>
			</g>
		</g>
	</g>
</g>
<g>
	<g>
		<g>
			<g>
				<g>
					<rect x="127.558" y="98.523" fill="#F0F1F1" width="11.867" height="53.309"/>
				</g>
			</g>
			<g>
				<g>
					<path fill="#424243" d="M139.425,152.588h-11.867c-0.417,0-0.756-0.338-0.756-0.756V98.523c0-0.417,0.338-0.756,0.756-0.756
						h11.867c0.417,0,0.756,0.338,0.756,0.756v53.309C140.181,152.249,139.843,152.588,139.425,152.588z M128.314,151.076h10.356
						V99.278h-10.356V151.076z"/>
				</g>
			</g>
		</g>
		<g>
			<g>
				<g>
					<rect x="125.23" y="95.855" fill="#F0F1F1" width="16.524" height="3.008"/>
				</g>
			</g>
			<g>
				<g>
					<path fill="#424243" d="M141.754,99.589H125.23c-0.401,0-0.727-0.325-0.727-0.727v-3.008c0-0.401,0.325-0.727,0.727-0.727
						h16.524c0.401,0,0.727,0.325,0.727,0.727v3.008C142.48,99.264,142.155,99.589,141.754,99.589z M125.957,98.136h15.071v-1.555
						h-15.071V98.136z"/>
				</g>
			</g>
		</g>
		<g>
			<g>
				<g>
					<rect x="125.23" y="149.611" fill="#F0F1F1" width="16.524" height="3.003"/>
				</g>
			</g>
			<g>
				<g>
					<path fill="#424243" d="M141.754,153.34H125.23c-0.401,0-0.726-0.325-0.726-0.726v-3.003c0-0.401,0.325-0.726,0.726-0.726
						h16.524c0.401,0,0.726,0.325,0.726,0.726v3.003C142.48,153.015,142.155,153.34,141.754,153.34z M125.956,151.888h15.072v-1.551
						h-15.072V151.888z"/>
				</g>
			</g>
		</g>
	</g>
	<g>
		<g>
			<g>
				<path fill="#424243" d="M130.431,149.549c-0.244,0-0.441-0.198-0.441-0.441V98.677c0-0.244,0.197-0.441,0.441-0.441
					c0.244,0,0.441,0.197,0.441,0.441v50.431C130.873,149.351,130.675,149.549,130.431,149.549z"/>
			</g>
		</g>
	</g>
	<g>
		<g>
			<g>
				<path fill="#424243" d="M133.446,149.549c-0.244,0-0.441-0.198-0.441-0.441V98.677c0-0.244,0.197-0.441,0.441-0.441
					s0.441,0.197,0.441,0.441v50.431C133.887,149.351,133.689,149.549,133.446,149.549z"/>
			</g>
		</g>
	</g>
	<g>
		<g>
			<g>
				<path fill="#424243" d="M136.46,149.549c-0.244,0-0.441-0.198-0.441-0.441V98.677c0-0.244,0.197-0.441,0.441-0.441
					c0.244,0,0.441,0.197,0.441,0.441v50.431C136.901,149.351,136.703,149.549,136.46,149.549z"/>
			</g>
		</g>
	</g>
</g>
<g>
	<g id="XMLID_369_">
		<g id="XMLID_370_">
			<g id="XMLID_374_">
				<g id="XMLID_375_">
					<g>
						<g>
							<g>
								<g>
									<g>
										<rect x="98.933" y="120.378" fill="#435E7D" width="10.655" height="31.533"/>
									</g>
								</g>
							</g>
						</g>
					</g>
				</g>
			</g>
			<g id="XMLID_371_">
				<g id="XMLID_372_">
					<g id="XMLID_373_">
						<g>
							<g>
								<g>
									<g>
										<g>
											<path fill="#424243" d="M109.588,151.291c-3.108,0-6.216,0-9.324,0c-0.444,0-0.887,0-1.331,0
												c0.207,0.207,0.413,0.413,0.62,0.62c0-3.55,0-7.1,0-10.65c0-5.66,0-11.32,0-16.979c0-1.301,0-2.602,0-3.904
												c-0.207,0.207-0.413,0.413-0.62,0.62c3.108,0,6.216,0,9.324,0c0.444,0,0.887,0,1.331,0
												c-0.207-0.207-0.413-0.413-0.62-0.62c0,3.55,0,7.1,0,10.65c0,5.66,0,11.32,0,16.979c0,1.301,0,2.602,0,3.904
												c0,0.798,1.24,0.799,1.24,0c0-3.55,0-7.1,0-10.65c0-5.66,0-11.32,0-16.979c0-1.301,0-2.602,0-3.904
												c0-0.335-0.284-0.62-0.62-0.62c-3.108,0-6.216,0-9.324,0c-0.444,0-0.887,0-1.331,0c-0.335,0-0.62,0.284-0.62,0.62
												c0,3.55,0,7.1,0,10.65c0,5.66,0,11.32,0,16.979c0,1.301,0,2.602,0,3.904c0,0.335,0.284,0.62,0.62,0.62
												c3.108,0,6.216,0,9.324,0c0.444,0,0.887,0,1.331,0C110.386,152.531,110.387,151.291,109.588,151.291z"/>
										</g>
									</g>
								</g>
							</g>
						</g>
					</g>
				</g>
			</g>
		</g>
	</g>
	<g id="XMLID_367_">
		<g id="XMLID_368_">
			<g>
				<g>
					<g>
						<g>
							<g>
								<rect x="100.721" y="143.476" fill="#2B3D4D" width="6.821" height="6.859"/>
							</g>
						</g>
					</g>
				</g>
			</g>
		</g>
	</g>
	<g id="XMLID_365_">
		<g id="XMLID_366_">
			<g>
				<g>
					<g>
						<g>
							<g>
								<rect x="100.721" y="123.292" fill="#2B3D4D" width="6.821" height="18.946"/>
							</g>
						</g>
					</g>
				</g>
			</g>
		</g>
	</g>
</g>
<g>
	<g id="XMLID_358_">
		<g id="XMLID_359_">
			<g id="XMLID_363_">
				<g id="XMLID_364_">
					<g>
						<g>
							<g>
								<g>
									<g>
										<rect x="109.747" y="120.378" fill="#435E7D" width="10.655" height="31.533"/>
									</g>
								</g>
							</g>
						</g>
					</g>
				</g>
			</g>
			<g id="XMLID_360_">
				<g id="XMLID_361_">
					<g id="XMLID_362_">
						<g>
							<g>
								<g>
									<g>
										<g>
											<path fill="#424243" d="M109.747,151.291c3.108,0,6.216,0,9.324,0c0.444,0,0.887,0,1.331,0
												c-0.207,0.207-0.413,0.413-0.62,0.62c0-3.55,0-7.1,0-10.65c0-5.66,0-11.32,0-16.979c0-1.301,0-2.602,0-3.904
												c0.207,0.207,0.413,0.413,0.62,0.62c-3.108,0-6.216,0-9.324,0c-0.444,0-0.887,0-1.331,0
												c0.207-0.207,0.413-0.413,0.62-0.62c0,3.55,0,7.1,0,10.65c0,5.66,0,11.32,0,16.979c0,1.301,0,2.602,0,3.904
												c0,0.798-1.24,0.799-1.24,0c0-3.55,0-7.1,0-10.65c0-5.66,0-11.32,0-16.979c0-1.301,0-2.602,0-3.904
												c0-0.335,0.284-0.62,0.62-0.62c3.108,0,6.216,0,9.324,0c0.444,0,0.887,0,1.331,0c0.335,0,0.62,0.284,0.62,0.62
												c0,3.55,0,7.1,0,10.65c0,5.66,0,11.32,0,16.979c0,1.301,0,2.602,0,3.904c0,0.335-0.284,0.62-0.62,0.62
												c-3.108,0-6.216,0-9.324,0c-0.444,0-0.887,0-1.331,0C108.949,152.531,108.947,151.291,109.747,151.291z"/>
										</g>
									</g>
								</g>
							</g>
						</g>
					</g>
				</g>
			</g>
		</g>
	</g>
	<g id="XMLID_356_">
		<g id="XMLID_357_">
			<g>
				<g>
					<g>
						<g>
							<g>
								<rect x="111.792" y="143.476" fill="#2B3D4D" width="6.821" height="6.859"/>
							</g>
						</g>
					</g>
				</g>
			</g>
		</g>
	</g>
	<g id="XMLID_354_">
		<g id="XMLID_355_">
			<g>
				<g>
					<g>
						<g>
							<g>
								<rect x="111.792" y="123.292" fill="#2B3D4D" width="6.821" height="18.946"/>
							</g>
						</g>
					</g>
				</g>
			</g>
		</g>
	</g>
</g>
<g id="XMLID_349_">
	<g id="XMLID_353_">
		<g>
			<g>
				<g>
					<g>
						<g>
							<g>
								<g>
									<g>
										<circle fill="#F0F1F1" cx="106.337" cy="141.158" r="0.759"/>
									</g>
								</g>
							</g>
						</g>
					</g>
				</g>
			</g>
		</g>
	</g>
	<g id="XMLID_350_">
		<g>
			<g>
				<g>
					<g>
						<g>
							<g>
								<g>
									<g>
										<path fill="#424243" d="M106.337,141.985c-0.456,0-0.827-0.371-0.827-0.827s0.371-0.827,0.827-0.827
											c0.456,0,0.827,0.371,0.827,0.827S106.793,141.985,106.337,141.985z M106.337,140.466c-0.381,0-0.691,0.31-0.691,0.691
											c0,0.381,0.31,0.692,0.691,0.692c0.381,0,0.691-0.31,0.691-0.692C107.029,140.777,106.718,140.466,106.337,140.466z"/>
									</g>
								</g>
							</g>
						</g>
					</g>
				</g>
			</g>
		</g>
	</g>
</g>
<g id="XMLID_344_">
	<g id="XMLID_348_">
		<g>
			<g>
				<g>
					<g>
						<g>
							<g>
								<g>
									<g>
										<circle fill="#F0F1F1" cx="113.1" cy="141.158" r="0.759"/>
									</g>
								</g>
							</g>
						</g>
					</g>
				</g>
			</g>
		</g>
	</g>
	<g id="XMLID_345_">
		<g>
			<g>
				<g>
					<g>
						<g>
							<g>
								<g>
									<g>
										<path fill="#424243" d="M113.1,141.985c-0.456,0-0.827-0.371-0.827-0.827s0.371-0.827,0.827-0.827
											c0.456,0,0.827,0.371,0.827,0.827S113.556,141.985,113.1,141.985z M113.1,140.466c-0.381,0-0.692,0.31-0.692,0.691
											c0,0.381,0.31,0.692,0.692,0.692c0.381,0,0.691-0.31,0.691-0.692C113.792,140.777,113.482,140.466,113.1,140.466z"/>
									</g>
								</g>
							</g>
						</g>
					</g>
				</g>
			</g>
		</g>
	</g>
</g>
<g>
	<g>
		<rect x="27.23" y="163.301" fill="#F0F0F1" width="165.057" height="7.39"/>
	</g>
	<g>
		<path fill="#424243" d="M192.287,171.824c-0.626,0-1.133-0.507-1.133-1.133v-6.257H28.363v6.257c0,0.626-0.507,1.133-1.133,1.133
			c-0.626,0-1.133-0.507-1.133-1.133v-7.39c0-0.626,0.507-1.133,1.133-1.133h165.057c0.626,0,1.133,0.507,1.133,1.133v7.39
			C193.42,171.316,192.913,171.824,192.287,171.824z"/>
	</g>
</g>
<g>
	<g>
		<rect x="52.077" y="91.626" fill="#F0F1F1" width="114.705" height="4.265"/>
	</g>
	<g>
		<path fill="#424243" d="M166.782,96.48H52.077c-0.326,0-0.589-0.264-0.589-0.589v-4.265c0-0.326,0.264-0.589,0.589-0.589h114.705
			c0.326,0,0.589,0.264,0.589,0.589v4.265C167.372,96.216,167.108,96.48,166.782,96.48z M52.667,95.301h113.526v-3.086H52.667
			V95.301z"/>
	</g>
</g>
<g>
	<g>
		<rect x="55.902" y="79.112" fill="#F0F1F1" width="104.751" height="12.458"/>
	</g>
	<g>
		<path fill="#424243" d="M160.652,92.22H55.902c-0.359,0-0.65-0.291-0.65-0.65V79.112c0-0.359,0.291-0.65,0.65-0.65h104.751
			c0.359,0,0.65,0.291,0.65,0.65V91.57C161.303,91.929,161.012,92.22,160.652,92.22z M56.552,90.919h103.45V79.762H56.552V90.919z"
			/>
	</g>
</g>
<g>
	<g>
		<rect x="55.556" y="42.142" fill="#F0F1F1" width="105.119" height="33.263"/>
	</g>
	<g>
		<path fill="#424243" d="M160.676,76.273H55.556c-0.48,0-0.869-0.389-0.869-0.869V42.142c0-0.48,0.389-0.869,0.869-0.869h105.119
			c0.48,0,0.869,0.389,0.869,0.869v33.263C161.544,75.885,161.155,76.273,160.676,76.273z M56.425,74.536h103.382V43.011H56.425
			V74.536z"/>
	</g>
</g>
<g>
	<g>
		<polygon fill="#CECFD1" points="166.315,75.79 51.828,75.79 53.388,79.049 164.615,79.049 		"/>
	</g>
	<g>
		<path fill="#424243" d="M164.615,79.747H53.388c-0.269,0-0.513-0.154-0.629-0.397l-1.56-3.259
			c-0.104-0.216-0.089-0.47,0.039-0.673c0.128-0.203,0.351-0.326,0.59-0.326h114.487c0.244,0,0.47,0.127,0.597,0.336
			c0.126,0.209,0.135,0.468,0.022,0.685l-1.7,3.259C165.114,79.602,164.875,79.747,164.615,79.747z M53.828,78.351h110.364
			l0.972-1.863H52.936L53.828,78.351z"/>
	</g>
</g>
<g>
	<g>
		<circle fill="#B9BABC" cx="61.989" cy="85.592" r="1.948"/>
	</g>
	<g>
		<path fill="#424243" d="M61.989,88.054c-1.358,0-2.463-1.105-2.463-2.463c0-1.358,1.105-2.463,2.463-2.463
			c1.358,0,2.463,1.105,2.463,2.463C64.452,86.95,63.347,88.054,61.989,88.054z M61.989,84.158c-0.79,0-1.434,0.643-1.434,1.434
			c0,0.79,0.643,1.434,1.434,1.434c0.79,0,1.434-0.643,1.434-1.434C63.423,84.801,62.78,84.158,61.989,84.158z"/>
	</g>
</g>
<g>
	<g>
		<circle fill="#B9BABC" cx="154.762" cy="85.592" r="1.948"/>
	</g>
	<g>
		<path fill="#424243" d="M154.762,88.054c-1.358,0-2.463-1.105-2.463-2.463c0-1.358,1.105-2.463,2.463-2.463
			c1.358,0,2.463,1.105,2.463,2.463C157.225,86.95,156.12,88.054,154.762,88.054z M154.762,84.158c-0.79,0-1.434,0.643-1.434,1.434
			c0,0.79,0.643,1.434,1.434,1.434s1.434-0.643,1.434-1.434C156.196,84.801,155.552,84.158,154.762,84.158z"/>
	</g>
</g>
<g>
	<g>
		<g>
			<path fill="#424243" d="M166.159,93.899H51.992c-0.162,0-0.294-0.132-0.294-0.294c0-0.162,0.132-0.294,0.294-0.294h114.168
				c0.162,0,0.294,0.132,0.294,0.294C166.453,93.767,166.321,93.899,166.159,93.899z"/>
		</g>
	</g>
</g>
<g opacity="0.68">
	<g>
		<rect x="56.587" y="79.78" fill="#D8D8D8" width="103.418" height="2.518"/>
	</g>
</g>
<g>
	<g>
		<g>
			<g>
				<polygon fill="#CFD0D2" points="22.545,171.716 23.982,171.716 23.982,164.114 22.545,162.678 21.109,164.114 21.109,171.716 
									"/>
			</g>
		</g>
		<g>
			<g>
				<path fill="#454446" d="M23.982,172.166h-2.872c-0.249,0-0.45-0.202-0.45-0.45v-7.601c0-0.119,0.047-0.234,0.132-0.318
					l1.436-1.436c0.176-0.176,0.461-0.176,0.636,0l1.436,1.436c0.084,0.084,0.132,0.199,0.132,0.318v7.601
					C24.432,171.964,24.23,172.166,23.982,172.166z M21.559,171.266h1.972v-6.965l-0.986-0.986l-0.986,0.986V171.266z"/>
			</g>
		</g>
	</g>
	<g>
		<g>
			<g>
				<path fill="#D7AB52" d="M26.342,130.351c-0.337,0-0.665,0.36-0.965,0.885h-5.663c-0.299-0.525-0.627-0.885-0.965-0.885H26.342z"
					/>
			</g>
		</g>
		<g>
			<g>
				<path fill="#454446" d="M25.377,131.685h-5.663c-0.162,0-0.311-0.087-0.391-0.227c-0.364-0.639-0.572-0.657-0.574-0.657
					c-0.249,0-0.45-0.201-0.45-0.45c0-0.249,0.202-0.45,0.45-0.45h7.593c0.249,0,0.45,0.201,0.45,0.45c0,0.249-0.202,0.45-0.45,0.45
					c-0.002,0-0.209,0.018-0.574,0.658C25.688,131.599,25.539,131.685,25.377,131.685z"/>
			</g>
		</g>
	</g>
	<g>
		<g>
			<g>
				<path fill="#FFFFFF" d="M24.488,129.627h-3.886c0.085-0.873,0.518-2.222,1.943-2.222
					C23.971,127.405,24.403,128.754,24.488,129.627z"/>
			</g>
		</g>
		<g>
			<g>
				<path fill="#454446" d="M24.488,130.776h-3.886c-0.127,0-0.248-0.054-0.333-0.148c-0.085-0.094-0.127-0.22-0.115-0.346
					c0.124-1.271,0.817-2.628,2.391-2.628c1.573,0,2.267,1.358,2.39,2.628c0.012,0.126-0.029,0.252-0.115,0.346
					C24.736,130.723,24.615,130.776,24.488,130.776z M21.134,129.876h2.823c-0.146-0.591-0.509-1.322-1.411-1.322
					C21.643,128.554,21.28,129.285,21.134,129.876z"/>
			</g>
		</g>
	</g>
	<g>
		<g>
			<g>
				<path fill="#59595B" d="M24.443,130.351h-3.796c-0.047,0-0.085-0.308-0.045-0.724h3.886
					C24.529,130.043,24.491,130.351,24.443,130.351z"/>
			</g>
		</g>
		<g>
			<g>
				<path fill="#454446" d="M24.443,131.034h-3.796c-0.13,0-0.256-0.056-0.345-0.154c-0.056-0.062-0.227-0.249-0.148-1.064
					c0.022-0.231,0.216-0.407,0.448-0.407h3.886c0.231,0,0.425,0.176,0.448,0.406c0.08,0.813-0.091,1.002-0.148,1.064
					C24.7,130.978,24.574,131.034,24.443,131.034z"/>
			</g>
		</g>
	</g>
	<g>
		<g>
			<g>
				<path fill="#FFFFFF" d="M25.377,131.235c-0.803,1.409-1.395,4.008-1.395,4.008H21.11c0,0-0.592-2.599-1.396-4.008H25.377z"/>
			</g>
		</g>
		<g>
			<g>
				<path fill="#454446" d="M23.982,135.693H21.11c-0.21,0-0.392-0.145-0.439-0.35c-0.006-0.025-0.587-2.551-1.348-3.885
					c-0.079-0.139-0.079-0.31,0.002-0.449s0.229-0.224,0.389-0.224h5.663c0.16,0,0.309,0.085,0.389,0.224
					c0.081,0.139,0.081,0.31,0.002,0.449c-0.761,1.336-1.342,3.86-1.347,3.885C24.374,135.548,24.192,135.693,23.982,135.693z
					 M21.464,134.793h2.164c0.159-0.634,0.531-2.002,1.022-3.108h-4.21C20.932,132.792,21.304,134.159,21.464,134.793z"/>
			</g>
		</g>
	</g>
	<g>
		<g>
			<g>
				<path fill="#454446" d="M23.729,140.221h-2.367c-0.249,0-0.45-0.202-0.45-0.45c0-0.249,0.202-0.45,0.45-0.45h2.367
					c0.249,0,0.45,0.201,0.45,0.45C24.179,140.019,23.977,140.221,23.729,140.221z"/>
			</g>
		</g>
	</g>
	<g>
		<g>
			<g>
				<path fill="#454446" d="M22.545,163.128c-0.249,0-0.45-0.201-0.45-0.45v-32.327c0-0.249,0.202-0.45,0.45-0.45
					c0.249,0,0.45,0.202,0.45,0.45v32.327C22.995,162.927,22.794,163.128,22.545,163.128z"/>
			</g>
		</g>
	</g>
</g>
<g>
	<g>
		<g>
			<g>
				<polygon fill="#CFD0D2" points="198.115,171.716 199.551,171.716 199.551,164.114 198.115,162.678 196.679,164.114 
					196.679,171.716 				"/>
			</g>
		</g>
		<g>
			<g>
				<path fill="#454446" d="M199.551,172.166h-2.872c-0.249,0-0.45-0.202-0.45-0.45v-7.601c0-0.119,0.047-0.234,0.132-0.318
					l1.436-1.436c0.176-0.176,0.461-0.176,0.636,0l1.436,1.436c0.084,0.084,0.132,0.199,0.132,0.318v7.601
					C200.001,171.964,199.799,172.166,199.551,172.166z M197.129,171.266h1.972v-6.965l-0.986-0.986l-0.986,0.986V171.266z"/>
			</g>
		</g>
	</g>
	<g>
		<g>
			<g>
				<path fill="#D7AB52" d="M201.911,130.351c-0.337,0-0.665,0.36-0.965,0.885h-5.663c-0.299-0.525-0.627-0.885-0.965-0.885H201.911
					z"/>
			</g>
		</g>
		<g>
			<g>
				<path fill="#454446" d="M200.946,131.685h-5.663c-0.162,0-0.311-0.087-0.391-0.227c-0.364-0.639-0.572-0.657-0.574-0.657
					c-0.249,0-0.45-0.201-0.45-0.45c0-0.249,0.202-0.45,0.45-0.45h7.593c0.249,0,0.45,0.201,0.45,0.45c0,0.249-0.202,0.45-0.45,0.45
					c-0.002,0-0.209,0.018-0.574,0.658C201.257,131.599,201.108,131.685,200.946,131.685z"/>
			</g>
		</g>
	</g>
	<g>
		<g>
			<g>
				<path fill="#FFFFFF" d="M200.058,129.627h-3.886c0.085-0.873,0.518-2.222,1.943-2.222
					C199.541,127.405,199.973,128.754,200.058,129.627z"/>
			</g>
		</g>
		<g>
			<g>
				<path fill="#454446" d="M200.058,130.776h-3.886c-0.127,0-0.248-0.054-0.333-0.148c-0.085-0.094-0.127-0.22-0.115-0.346
					c0.124-1.271,0.817-2.628,2.391-2.628c1.573,0,2.267,1.358,2.39,2.628c0.012,0.126-0.029,0.252-0.115,0.346
					C200.306,130.723,200.185,130.776,200.058,130.776z M196.703,129.876h2.823c-0.146-0.591-0.509-1.322-1.411-1.322
					C197.212,128.554,196.849,129.285,196.703,129.876z"/>
			</g>
		</g>
	</g>
	<g>
		<g>
			<g>
				<path fill="#59595B" d="M200.013,130.351h-3.796c-0.047,0-0.085-0.308-0.045-0.724h3.886
					C200.099,130.043,200.06,130.351,200.013,130.351z"/>
			</g>
		</g>
		<g>
			<g>
				<path fill="#454446" d="M200.013,131.034h-3.796c-0.13,0-0.256-0.056-0.345-0.154c-0.056-0.062-0.227-0.249-0.148-1.064
					c0.022-0.231,0.216-0.407,0.448-0.407h3.886c0.231,0,0.425,0.176,0.448,0.406c0.08,0.813-0.091,1.002-0.148,1.064
					C200.269,130.978,200.143,131.034,200.013,131.034z"/>
			</g>
		</g>
	</g>
	<g>
		<g>
			<g>
				<path fill="#FFFFFF" d="M200.946,131.235c-0.803,1.409-1.395,4.008-1.395,4.008h-2.872c0,0-0.592-2.599-1.396-4.008H200.946z"/>
			</g>
		</g>
		<g>
			<g>
				<path fill="#454446" d="M199.551,135.693h-2.872c-0.21,0-0.392-0.145-0.439-0.35c-0.006-0.025-0.587-2.551-1.348-3.885
					c-0.079-0.139-0.079-0.31,0.002-0.449s0.229-0.224,0.389-0.224h5.663c0.16,0,0.309,0.085,0.389,0.224
					c0.081,0.139,0.081,0.31,0.002,0.449c-0.761,1.336-1.342,3.86-1.347,3.885C199.943,135.548,199.761,135.693,199.551,135.693z
					 M197.033,134.793h2.164c0.159-0.634,0.531-2.002,1.022-3.108h-4.21C196.502,132.792,196.874,134.159,197.033,134.793z"/>
			</g>
		</g>
	</g>
	<g>
		<g>
			<g>
				<path fill="#454446" d="M199.298,140.221h-2.367c-0.249,0-0.45-0.202-0.45-0.45c0-0.249,0.202-0.45,0.45-0.45h2.367
					c0.249,0,0.45,0.201,0.45,0.45C199.748,140.019,199.547,140.221,199.298,140.221z"/>
			</g>
		</g>
	</g>
	<g>
		<g>
			<g>
				<path fill="#454446" d="M198.115,163.128c-0.249,0-0.45-0.201-0.45-0.45v-32.327c0-0.249,0.202-0.45,0.45-0.45
					c0.249,0,0.45,0.202,0.45,0.45v32.327C198.565,162.927,198.363,163.128,198.115,163.128z"/>
			</g>
		</g>
	</g>
</g>
<g>
	<path fill-rule="evenodd" clip-rule="evenodd" fill="#D62027" d="M75.412,64.037v1.016c0,0-2.409,0.408-5.46,0.603
		c-1.095,0.047-2.264-0.018-3.414-0.077c-2.563-0.392-3.57-0.914-3.145-2.934c0,0,0.093-0.911,2.701-4.234
		c0.854-1.028,1.974-2.201,3.44-3.701l0.936,0.602c0,0-0.436,1.255-1.61,3.446c-1.01,1.85-2.208,3.925-2.208,3.925L75.412,64.037z"
		/>
	<g>
		<g>
			<path fill="#253775" d="M81.276,54.623c0,0-0.284-0.826-0.73-2.031c-0.729-1.972-1.937-4.929-3.382-6.732
				c-0.64-0.642-1.233-0.845-1.766-0.812c-0.532-0.034-1.126,0.17-1.766,0.812c-1.445,1.803-2.652,4.761-3.382,6.732
				c-0.446,1.205-0.73,2.031-0.73,2.031l-0.277,0.414l1.016,0.827l0.338-0.639l4.801-6.729l4.801,6.729l0.346,0.639l0.999-0.827
				L81.276,54.623z"/>
		</g>
	</g>
	<path fill-rule="evenodd" clip-rule="evenodd" fill="#009749" d="M75.395,64.03v1.014c0,0,2.407,0.399,5.468,0.602
		c1.177,0.078,2.323,0.013,3.419-0.076c2.567-0.392,3.575-0.913,3.15-2.929c0,0-0.093-0.91-2.705-4.228
		c-0.856-1.026-1.714-1.896-3.182-3.395l-1.012,0.826c0,0,0.249,0.726,1.426,2.914c1.012,1.847,2.174,3.919,2.174,3.919
		L75.395,64.03z"/>
	<path fill-rule="evenodd" clip-rule="evenodd" fill="#D62027" d="M103.054,50.155c0.249-0.559,0.479-1.082,0.713-1.604
		c0.345-0.771,0.667-1.554,1.047-2.307c0.288-0.57,0.717-1.023,1.383-1.169c0.978-0.214,1.802,0.169,2.325,1.161
		c0.375,0.711,0.683,1.458,1.001,2.198c1.953,4.539,3.9,9.081,5.849,13.621c0.216,0.504,0.395,1.019,0.415,1.573
		c0.031,0.861-0.461,1.544-1.347,1.887c-0.79,0.306-1.579,0.122-2.105-0.545c-0.262-0.331-0.496-0.7-0.664-1.086
		c-1.153-2.65-2.284-5.31-3.424-7.966c-0.489-1.138-0.984-2.272-1.477-3.408c-0.028-0.065-0.061-0.127-0.103-0.216
		c-0.115,0.266-0.221,0.51-0.326,0.755c-0.321,0.747-0.645,1.492-0.956,2.242c-0.039,0.095-0.04,0.235,0,0.33
		c0.913,2.152,1.834,4.3,2.753,6.449c0.209,0.489,0.382,0.99,0.407,1.527c0.041,0.877-0.447,1.57-1.337,1.916
		c-0.8,0.311-1.589,0.124-2.123-0.554c-0.256-0.326-0.48-0.689-0.652-1.066c-0.433-0.948-0.829-1.913-1.24-2.871
		c-0.039-0.091-0.08-0.18-0.145-0.324c-0.222,0.514-0.416,0.976-0.62,1.434c-0.343,0.772-0.662,1.557-1.047,2.307
		c-0.298,0.58-0.729,1.051-1.425,1.181c-1.471,0.274-2.69-1.024-2.33-2.514c0.118-0.488,0.31-0.962,0.506-1.426
		c0.851-2.015,1.717-4.023,2.573-6.036c0.039-0.091,0.06-0.221,0.024-0.306c-0.406-0.976-0.825-1.947-1.241-2.919
		c-0.015-0.034-0.037-0.065-0.069-0.119c-0.376,0.882-0.742,1.746-1.112,2.607c-1.292,3.002-2.583,6.005-3.883,9.004
		c-0.253,0.584-0.57,1.145-1.133,1.485c-0.732,0.441-1.459,0.312-2.136-0.14c-0.685-0.458-0.946-1.12-0.819-1.933
		c0.127-0.809,0.505-1.527,0.82-2.267c1.645-3.856,3.293-7.71,4.944-11.563c0.398-0.929,0.803-1.854,1.217-2.776
		c0.249-0.553,0.554-1.076,1.08-1.411c0.861-0.547,1.984-0.305,2.632,0.541c0.449,0.586,0.679,1.281,0.974,1.944
		c0.327,0.735,0.646,1.474,0.968,2.211C102.991,50.042,103.014,50.08,103.054,50.155z"/>
	<path fill="#253775" d="M129.317,47.994c0.354-0.314,0.531-0.729,0.531-1.244c0-0.515-0.174-0.933-0.524-1.251
		c-0.349-0.319-0.882-0.478-1.599-0.478h-13.091c-0.68,0-1.199,0.155-1.557,0.464c-0.359,0.309-0.538,0.731-0.538,1.266
		c0,0.516,0.172,0.93,0.517,1.244c0.344,0.314,0.87,0.471,1.578,0.471h4.525v14.657c0,0.853,0.193,1.491,0.58,1.912
		c0.386,0.422,0.887,0.633,1.501,0.633c0.605,0,1.004-0.209,1.386-0.626c0.382-0.417,0.573-1.057,0.573-1.919V48.466h4.525
		C128.432,48.466,128.963,48.309,129.317,47.994z"/>
	<path fill="#009749" d="M144.579,65.511c0.81-0.108,1.527-0.293,2.151-0.555c0.996-0.441,1.788-1.123,2.374-2.046
		c0.587-0.923,0.88-1.962,0.88-3.115c0-2.494-1.346-4.171-4.036-5.034c2.048-0.956,3.073-2.465,3.073-4.528
		c0-0.6-0.098-1.169-0.293-1.709c-0.196-0.539-0.48-1.031-0.852-1.477c-0.372-0.445-0.801-0.813-1.285-1.104
		c-0.568-0.347-1.211-0.581-1.927-0.703c-0.717-0.122-1.564-0.183-2.542-0.183h-6.682c-0.885,0-1.525,0.199-1.921,0.598
		c-0.396,0.399-0.594,1.053-0.594,1.962v15.496c0,0.891,0.193,1.54,0.58,1.948c0.386,0.408,1.031,0.612,1.934,0.612h6.305
		C142.824,65.672,143.769,65.618,144.579,65.511z M144.691,57.221c0.726,0.469,1.089,1.223,1.089,2.264
		c0,2.034-1.402,3.051-4.204,3.051h-4.456v-6.019h4.316C142.88,56.518,143.965,56.752,144.691,57.221z M140.487,48.193
		c1.508,0,2.631,0.171,3.366,0.513c0.736,0.342,1.103,1.034,1.103,2.074c0,0.488-0.117,0.928-0.349,1.322
		c-0.298,0.553-0.729,0.928-1.292,1.125c-0.563,0.197-1.362,0.295-2.395,0.295h-3.799v-5.329H140.487z"/>
	<g>
		<g>
			<path fill="#253775" d="M66.328,68.786H66.1c-0.137,0-0.236,0.012-0.298,0.036c-0.062,0.024-0.107,0.068-0.137,0.132
				c-0.03,0.063-0.063,0.167-0.101,0.31l-0.527,1.957l-0.527-1.957c-0.038-0.143-0.072-0.246-0.101-0.31
				c-0.03-0.063-0.075-0.107-0.137-0.132c-0.062-0.024-0.161-0.036-0.298-0.036h-0.228c-0.14,0-0.251,0.027-0.334,0.082
				c-0.082,0.054-0.124,0.16-0.124,0.316v2.827c0,0.138,0.031,0.241,0.094,0.308c0.063,0.067,0.143,0.101,0.242,0.101
				c0.102,0,0.184-0.034,0.246-0.102c0.062-0.068,0.093-0.171,0.093-0.307v-2.466l0.581,2.276c0.02,0.075,0.039,0.147,0.058,0.216
				c0.019,0.069,0.045,0.132,0.078,0.189c0.033,0.057,0.079,0.103,0.138,0.14c0.059,0.036,0.132,0.055,0.218,0.055
				c0.114,0,0.203-0.028,0.267-0.085c0.064-0.057,0.108-0.12,0.132-0.189c0.024-0.069,0.055-0.177,0.093-0.325l0.581-2.276v2.466
				c0,0.137,0.031,0.239,0.094,0.307c0.063,0.068,0.143,0.102,0.24,0.102c0.104,0,0.187-0.034,0.249-0.102
				c0.062-0.068,0.093-0.171,0.093-0.307v-2.827c0-0.156-0.041-0.261-0.124-0.316C66.579,68.813,66.468,68.786,66.328,68.786z
				 M71.141,68.725c-0.059,0-0.11,0.01-0.151,0.032c-0.041,0.021-0.079,0.052-0.112,0.091c-0.034,0.04-0.065,0.083-0.093,0.128
				c-0.028,0.046-0.063,0.102-0.104,0.168l-0.685,1.085l-0.678-1.085c-0.104-0.167-0.182-0.279-0.234-0.335
				c-0.052-0.056-0.128-0.084-0.229-0.084c-0.096,0-0.176,0.03-0.241,0.09c-0.065,0.06-0.098,0.132-0.098,0.214
				c0,0.05,0.016,0.11,0.048,0.178c0.032,0.068,0.087,0.163,0.164,0.285l0.885,1.353v1.133c0,0.15,0.034,0.26,0.101,0.333
				c0.068,0.072,0.156,0.108,0.265,0.108c0.107,0,0.195-0.036,0.265-0.11c0.069-0.073,0.104-0.183,0.104-0.331v-1.133l0.908-1.372
				c0.076-0.112,0.129-0.2,0.161-0.263c0.031-0.063,0.047-0.127,0.047-0.19c0-0.078-0.031-0.147-0.093-0.206
				S71.233,68.725,71.141,68.725z M75.284,69.4c-0.044-0.115-0.081-0.207-0.11-0.277c-0.029-0.069-0.064-0.134-0.106-0.194
				c-0.042-0.06-0.097-0.109-0.166-0.148c-0.068-0.038-0.154-0.057-0.256-0.057c-0.101,0-0.185,0.019-0.254,0.057
				c-0.068,0.038-0.124,0.088-0.166,0.15c-0.042,0.062-0.082,0.139-0.119,0.233c-0.037,0.094-0.069,0.174-0.095,0.24l-0.927,2.32
				c-0.038,0.093-0.065,0.165-0.082,0.217c-0.017,0.052-0.025,0.102-0.025,0.151c0,0.085,0.035,0.16,0.106,0.227
				c0.071,0.067,0.152,0.1,0.245,0.1c0.109,0,0.187-0.031,0.235-0.094c0.048-0.063,0.105-0.183,0.173-0.362l0.173-0.458h1.474
				l0.173,0.448c0.023,0.055,0.051,0.119,0.083,0.191c0.032,0.072,0.062,0.126,0.09,0.161s0.063,0.063,0.104,0.083
				c0.041,0.02,0.091,0.03,0.148,0.03c0.099,0,0.183-0.035,0.254-0.104c0.07-0.069,0.105-0.145,0.105-0.228
				c0-0.08-0.037-0.207-0.111-0.383L75.284,69.4z M74.104,70.962l0.537-1.475l0.547,1.475H74.104z M80.851,68.725
				c-0.102,0-0.183,0.034-0.244,0.104c-0.06,0.069-0.09,0.173-0.09,0.311v2.125l-1.412-2.106c-0.04-0.062-0.078-0.121-0.115-0.178
				c-0.037-0.057-0.073-0.103-0.109-0.139c-0.035-0.036-0.077-0.064-0.124-0.085c-0.047-0.021-0.103-0.032-0.169-0.032
				c-0.084,0-0.162,0.023-0.235,0.069c-0.073,0.046-0.124,0.106-0.156,0.179c-0.026,0.067-0.04,0.158-0.04,0.275v2.757
				c0,0.135,0.031,0.238,0.094,0.308c0.063,0.071,0.146,0.106,0.25,0.106c0.101,0,0.183-0.035,0.247-0.105
				c0.064-0.07,0.096-0.173,0.096-0.31v-2.094l1.378,2.081c0.04,0.057,0.079,0.112,0.119,0.167c0.04,0.054,0.082,0.102,0.129,0.143
				c0.046,0.041,0.096,0.07,0.148,0.089c0.053,0.019,0.112,0.028,0.178,0.028c0.264,0,0.396-0.157,0.396-0.47v-2.81
				c0-0.138-0.03-0.242-0.091-0.311C81.04,68.759,80.957,68.725,80.851,68.725z M86.27,68.786h-0.227
				c-0.137,0-0.236,0.012-0.298,0.036c-0.062,0.024-0.108,0.068-0.137,0.132c-0.03,0.063-0.063,0.167-0.101,0.31l-0.527,1.957
				l-0.527-1.957c-0.038-0.143-0.072-0.246-0.101-0.31c-0.03-0.063-0.075-0.107-0.137-0.132c-0.062-0.024-0.161-0.036-0.298-0.036
				h-0.227c-0.14,0-0.252,0.027-0.334,0.082c-0.082,0.054-0.124,0.16-0.124,0.316v2.827c0,0.138,0.031,0.241,0.094,0.308
				c0.063,0.067,0.143,0.101,0.242,0.101c0.102,0,0.184-0.034,0.246-0.102c0.062-0.068,0.093-0.171,0.093-0.307v-2.466l0.581,2.276
				c0.02,0.075,0.039,0.147,0.058,0.216c0.019,0.069,0.045,0.132,0.078,0.189c0.033,0.057,0.079,0.103,0.138,0.14
				c0.059,0.036,0.132,0.055,0.218,0.055c0.114,0,0.203-0.028,0.267-0.085c0.064-0.057,0.108-0.12,0.132-0.189
				c0.024-0.069,0.055-0.177,0.093-0.325l0.581-2.276v2.466c0,0.137,0.031,0.239,0.094,0.307c0.063,0.068,0.143,0.102,0.24,0.102
				c0.104,0,0.187-0.034,0.249-0.102s0.093-0.171,0.093-0.307v-2.827c0-0.156-0.041-0.261-0.124-0.316
				C86.522,68.813,86.411,68.786,86.27,68.786z M90.997,69.4c-0.045-0.115-0.081-0.207-0.11-0.277
				c-0.029-0.069-0.064-0.134-0.106-0.194c-0.042-0.06-0.097-0.109-0.166-0.148c-0.068-0.038-0.154-0.057-0.256-0.057
				c-0.101,0-0.185,0.019-0.254,0.057c-0.068,0.038-0.124,0.088-0.166,0.15c-0.042,0.062-0.082,0.139-0.119,0.233
				c-0.037,0.094-0.069,0.174-0.095,0.24l-0.927,2.32c-0.038,0.093-0.065,0.165-0.082,0.217c-0.016,0.052-0.025,0.102-0.025,0.151
				c0,0.085,0.036,0.16,0.106,0.227c0.071,0.067,0.153,0.1,0.245,0.1c0.109,0,0.187-0.031,0.235-0.094
				c0.048-0.063,0.105-0.183,0.173-0.362l0.173-0.458h1.474l0.173,0.448c0.023,0.055,0.051,0.119,0.083,0.191
				c0.032,0.072,0.062,0.126,0.09,0.161s0.063,0.063,0.104,0.083c0.041,0.02,0.091,0.03,0.148,0.03c0.099,0,0.183-0.035,0.254-0.104
				c0.07-0.069,0.105-0.145,0.105-0.228c0-0.08-0.037-0.207-0.111-0.383L90.997,69.4z M89.817,70.962l0.537-1.475l0.547,1.475
				H89.817z M98.141,68.786h-2.335c-0.12,0-0.212,0.027-0.276,0.08c-0.064,0.054-0.095,0.127-0.095,0.219
				c0,0.089,0.03,0.161,0.091,0.216c0.061,0.055,0.154,0.082,0.279,0.082h0.801v2.596c0,0.148,0.034,0.258,0.103,0.331
				c0.068,0.073,0.157,0.11,0.266,0.11c0.107,0,0.195-0.036,0.262-0.108c0.068-0.072,0.101-0.183,0.101-0.333v-2.596h0.801
				c0.125,0,0.219-0.027,0.282-0.082c0.063-0.054,0.094-0.126,0.094-0.216c0-0.089-0.031-0.162-0.093-0.217
				S98.267,68.786,98.141,68.786z M102.782,68.95c-0.27-0.15-0.592-0.225-0.968-0.225c-0.277,0-0.524,0.043-0.742,0.128
				c-0.218,0.085-0.402,0.208-0.554,0.369c-0.152,0.161-0.268,0.356-0.348,0.585c-0.08,0.229-0.12,0.481-0.12,0.755
				c0,0.268,0.038,0.518,0.115,0.748c0.077,0.231,0.19,0.428,0.34,0.592c0.15,0.164,0.337,0.291,0.562,0.381
				c0.224,0.09,0.478,0.135,0.762,0.135c0.285,0,0.538-0.044,0.759-0.132c0.221-0.088,0.407-0.214,0.559-0.38
				c0.152-0.166,0.265-0.361,0.341-0.587c0.076-0.226,0.114-0.477,0.114-0.753c0-0.374-0.069-0.699-0.208-0.976
				C103.255,69.314,103.051,69.1,102.782,68.95z M102.717,71.277c-0.093,0.193-0.219,0.336-0.376,0.429
				c-0.157,0.093-0.33,0.139-0.518,0.139c-0.147,0-0.282-0.027-0.404-0.08c-0.123-0.054-0.232-0.134-0.327-0.242
				c-0.095-0.108-0.168-0.244-0.22-0.408c-0.052-0.164-0.078-0.348-0.078-0.551c0-0.201,0.026-0.383,0.078-0.545
				c0.052-0.162,0.123-0.294,0.213-0.398s0.197-0.183,0.322-0.238c0.124-0.054,0.26-0.082,0.407-0.082
				c0.206,0,0.389,0.049,0.548,0.148c0.159,0.098,0.282,0.243,0.367,0.435c0.086,0.192,0.129,0.418,0.129,0.68
				C102.857,70.845,102.811,71.083,102.717,71.277z M108.281,68.725c-0.11,0-0.199,0.036-0.265,0.108
				c-0.066,0.072-0.099,0.182-0.099,0.33v1.772c0,0.306-0.059,0.533-0.178,0.684c-0.119,0.15-0.322,0.226-0.608,0.226
				c-0.208,0-0.369-0.037-0.485-0.111c-0.115-0.074-0.196-0.178-0.241-0.312c-0.045-0.134-0.068-0.301-0.068-0.501v-1.757
				c0-0.146-0.033-0.256-0.1-0.329c-0.067-0.073-0.157-0.11-0.271-0.11c-0.109,0-0.197,0.036-0.263,0.11
				c-0.067,0.073-0.1,0.183-0.1,0.329v1.718c0,0.27,0.03,0.502,0.089,0.696c0.059,0.194,0.152,0.353,0.279,0.478
				c0.127,0.124,0.291,0.216,0.492,0.276c0.201,0.059,0.441,0.089,0.72,0.089c0.234,0,0.439-0.028,0.613-0.083
				c0.175-0.055,0.328-0.143,0.46-0.263c0.153-0.141,0.258-0.306,0.313-0.492s0.083-0.42,0.083-0.7v-1.718
				c0-0.148-0.034-0.258-0.103-0.33C108.481,68.761,108.392,68.725,108.281,68.725z M113.531,71.473
				c-0.093-0.15-0.199-0.292-0.318-0.425c-0.119-0.133-0.243-0.234-0.373-0.302c0.31-0.067,0.541-0.179,0.694-0.339
				c0.152-0.159,0.229-0.372,0.229-0.639c0-0.13-0.023-0.253-0.068-0.369c-0.045-0.116-0.112-0.218-0.199-0.306
				c-0.087-0.088-0.188-0.155-0.302-0.202c-0.094-0.042-0.2-0.07-0.317-0.084s-0.258-0.021-0.423-0.021h-1.195
				c-0.158,0-0.273,0.035-0.344,0.105c-0.071,0.07-0.106,0.183-0.106,0.339v2.749c0,0.145,0.032,0.254,0.096,0.329
				c0.064,0.075,0.155,0.112,0.272,0.112c0.109,0,0.197-0.036,0.265-0.107c0.068-0.072,0.101-0.183,0.101-0.334v-1.148h0.257
				c0.13,0,0.238,0.017,0.324,0.051c0.086,0.034,0.17,0.098,0.254,0.19c0.083,0.093,0.178,0.228,0.283,0.405l0.294,0.483
				c0.069,0.114,0.124,0.2,0.164,0.258c0.041,0.058,0.089,0.107,0.145,0.145c0.056,0.038,0.125,0.057,0.208,0.057
				c0.069,0,0.13-0.013,0.183-0.04c0.053-0.027,0.094-0.063,0.125-0.11c0.03-0.046,0.046-0.093,0.046-0.14
				c0-0.046-0.026-0.129-0.078-0.25C113.697,71.759,113.624,71.623,113.531,71.473z M112.647,70.266
				c-0.12,0.03-0.269,0.045-0.445,0.045h-0.658v-0.982h0.678c0.252,0,0.421,0.018,0.507,0.054c0.091,0.037,0.162,0.094,0.213,0.169
				c0.051,0.076,0.077,0.163,0.077,0.262c0,0.127-0.032,0.226-0.095,0.298C112.859,70.185,112.767,70.236,112.647,70.266z
				 M116.218,68.725c-0.107,0-0.195,0.036-0.262,0.11c-0.068,0.073-0.101,0.183-0.101,0.329v2.815c0,0.146,0.034,0.256,0.103,0.33
				s0.155,0.111,0.261,0.111c0.11,0,0.2-0.036,0.268-0.11c0.068-0.073,0.103-0.183,0.103-0.331v-2.815
				c0-0.148-0.034-0.258-0.103-0.33C116.418,68.761,116.328,68.725,116.218,68.725z M121.163,70.521
				c-0.116-0.081-0.257-0.15-0.423-0.207c-0.166-0.057-0.351-0.109-0.555-0.156c-0.163-0.041-0.28-0.072-0.351-0.093
				c-0.071-0.021-0.141-0.05-0.21-0.088c-0.069-0.037-0.124-0.082-0.163-0.134c-0.04-0.052-0.059-0.114-0.059-0.185
				c0-0.115,0.058-0.214,0.174-0.296c0.116-0.082,0.269-0.123,0.459-0.123c0.204,0,0.353,0.038,0.445,0.113
				c0.092,0.076,0.172,0.181,0.237,0.316c0.051,0.094,0.099,0.162,0.142,0.203c0.044,0.041,0.108,0.062,0.192,0.062
				c0.092,0,0.169-0.035,0.231-0.104c0.062-0.069,0.093-0.147,0.093-0.233c0-0.094-0.025-0.191-0.074-0.29
				c-0.049-0.099-0.128-0.194-0.235-0.284c-0.107-0.09-0.242-0.162-0.404-0.217c-0.162-0.054-0.355-0.082-0.578-0.082
				c-0.279,0-0.521,0.041-0.727,0.123c-0.206,0.082-0.364,0.199-0.472,0.352c-0.109,0.153-0.163,0.327-0.163,0.524
				c0,0.206,0.052,0.379,0.155,0.518c0.103,0.139,0.242,0.249,0.418,0.329c0.176,0.081,0.394,0.151,0.654,0.211
				c0.195,0.044,0.35,0.085,0.466,0.124c0.116,0.039,0.211,0.095,0.285,0.169c0.073,0.074,0.11,0.17,0.11,0.289
				c0,0.15-0.068,0.274-0.204,0.374s-0.313,0.15-0.53,0.15c-0.158,0-0.286-0.025-0.383-0.074c-0.097-0.05-0.173-0.112-0.226-0.189
				c-0.054-0.076-0.104-0.171-0.15-0.285c-0.038-0.096-0.084-0.168-0.137-0.217c-0.054-0.049-0.119-0.073-0.197-0.073
				c-0.096,0-0.174,0.031-0.236,0.094c-0.062,0.063-0.093,0.138-0.093,0.225c0,0.151,0.052,0.307,0.155,0.467
				c0.103,0.16,0.237,0.288,0.402,0.384c0.232,0.133,0.528,0.2,0.885,0.2c0.299,0,0.557-0.049,0.774-0.146
				c0.218-0.097,0.383-0.232,0.496-0.405c0.113-0.172,0.169-0.366,0.169-0.582c0-0.18-0.032-0.333-0.098-0.457
				C121.37,70.705,121.28,70.602,121.163,70.521z M126.633,68.786h-0.228c-0.137,0-0.236,0.012-0.298,0.036
				c-0.062,0.024-0.108,0.068-0.137,0.132c-0.03,0.063-0.063,0.167-0.101,0.31l-0.527,1.957l-0.527-1.957
				c-0.038-0.143-0.072-0.246-0.101-0.31c-0.03-0.063-0.075-0.107-0.137-0.132c-0.062-0.024-0.161-0.036-0.298-0.036h-0.228
				c-0.14,0-0.252,0.027-0.334,0.082c-0.082,0.054-0.124,0.16-0.124,0.316v2.827c0,0.138,0.031,0.241,0.094,0.308
				c0.063,0.067,0.143,0.101,0.242,0.101c0.102,0,0.184-0.034,0.246-0.102s0.093-0.171,0.093-0.307v-2.466l0.581,2.276
				c0.02,0.075,0.039,0.147,0.058,0.216c0.019,0.069,0.045,0.132,0.078,0.189c0.033,0.057,0.079,0.103,0.138,0.14
				c0.059,0.036,0.132,0.055,0.218,0.055c0.114,0,0.203-0.028,0.267-0.085c0.064-0.057,0.108-0.12,0.132-0.189
				c0.024-0.069,0.055-0.177,0.093-0.325l0.581-2.276v2.466c0,0.137,0.031,0.239,0.094,0.307c0.063,0.068,0.143,0.102,0.24,0.102
				c0.104,0,0.187-0.034,0.249-0.102c0.062-0.068,0.093-0.171,0.093-0.307v-2.827c0-0.156-0.041-0.261-0.124-0.316
				C126.885,68.813,126.773,68.786,126.633,68.786z M134.038,70.467c0.363-0.166,0.544-0.427,0.544-0.785
				c0-0.104-0.017-0.203-0.052-0.296c-0.035-0.094-0.085-0.179-0.151-0.256c-0.066-0.077-0.142-0.141-0.228-0.191
				c-0.101-0.06-0.214-0.101-0.341-0.122c-0.127-0.021-0.277-0.032-0.45-0.032h-1.175c-0.157,0-0.27,0.034-0.34,0.104
				c-0.07,0.069-0.105,0.182-0.105,0.34v2.686c0,0.154,0.034,0.267,0.103,0.337c0.068,0.071,0.183,0.106,0.343,0.106h1.108
				c0.191,0,0.359-0.009,0.502-0.028c0.143-0.019,0.27-0.051,0.381-0.096c0.176-0.076,0.317-0.195,0.42-0.355
				c0.104-0.16,0.156-0.34,0.156-0.54C134.753,70.908,134.515,70.617,134.038,70.467z M132.475,69.329h0.596
				c0.267,0,0.466,0.03,0.596,0.089c0.13,0.059,0.195,0.179,0.195,0.359c0,0.085-0.021,0.161-0.062,0.229
				c-0.053,0.096-0.129,0.161-0.229,0.195c-0.1,0.034-0.241,0.051-0.424,0.051h-0.673V69.329z M133.264,71.815h-0.789v-1.043h0.764
				c0.255,0,0.448,0.041,0.576,0.122c0.129,0.081,0.193,0.212,0.193,0.392C134.009,71.639,133.76,71.815,133.264,71.815z
				 M138.701,69.4c-0.045-0.115-0.081-0.207-0.11-0.277c-0.029-0.069-0.064-0.134-0.106-0.194c-0.042-0.06-0.097-0.109-0.166-0.148
				c-0.069-0.038-0.154-0.057-0.256-0.057c-0.101,0-0.185,0.019-0.254,0.057c-0.068,0.038-0.124,0.088-0.166,0.15
				c-0.042,0.062-0.082,0.139-0.119,0.233c-0.037,0.094-0.069,0.174-0.095,0.24l-0.927,2.32c-0.038,0.093-0.065,0.165-0.082,0.217
				c-0.017,0.052-0.025,0.102-0.025,0.151c0,0.085,0.035,0.16,0.106,0.227c0.071,0.067,0.153,0.1,0.245,0.1
				c0.109,0,0.187-0.031,0.235-0.094c0.048-0.063,0.105-0.183,0.173-0.362l0.173-0.458h1.474l0.173,0.448
				c0.023,0.055,0.051,0.119,0.083,0.191c0.032,0.072,0.062,0.126,0.09,0.161s0.063,0.063,0.104,0.083
				c0.041,0.02,0.091,0.03,0.148,0.03c0.099,0,0.183-0.035,0.254-0.104c0.07-0.069,0.105-0.145,0.105-0.228
				c0-0.08-0.037-0.207-0.111-0.383L138.701,69.4z M137.521,70.962l0.537-1.475l0.547,1.475H137.521z M144.268,68.725
				c-0.102,0-0.183,0.034-0.244,0.104c-0.06,0.069-0.09,0.173-0.09,0.311v2.125l-1.412-2.106c-0.04-0.062-0.078-0.121-0.115-0.178
				c-0.037-0.057-0.073-0.103-0.109-0.139c-0.036-0.036-0.077-0.064-0.124-0.085c-0.047-0.021-0.103-0.032-0.169-0.032
				c-0.084,0-0.162,0.023-0.235,0.069c-0.072,0.046-0.124,0.106-0.156,0.179c-0.026,0.067-0.04,0.158-0.04,0.275v2.757
				c0,0.135,0.031,0.238,0.094,0.308c0.063,0.071,0.146,0.106,0.25,0.106c0.101,0,0.183-0.035,0.247-0.105
				c0.064-0.07,0.096-0.173,0.096-0.31v-2.094l1.378,2.081c0.04,0.057,0.079,0.112,0.119,0.167s0.082,0.102,0.129,0.143
				c0.046,0.041,0.096,0.07,0.148,0.089c0.053,0.019,0.112,0.028,0.178,0.028c0.264,0,0.396-0.157,0.396-0.47v-2.81
				c0-0.138-0.03-0.242-0.092-0.311C144.457,68.759,144.374,68.725,144.268,68.725z M149.922,71.904
				c-0.036-0.076-0.091-0.164-0.163-0.264l-1.029-1.453l0.893-0.834c0.11-0.104,0.166-0.209,0.166-0.314
				c0-0.088-0.033-0.162-0.098-0.223c-0.065-0.061-0.151-0.091-0.256-0.091c-0.081,0-0.145,0.017-0.194,0.051
				c-0.049,0.034-0.108,0.087-0.177,0.159l-1.442,1.482v-1.253c0-0.148-0.034-0.258-0.103-0.33
				c-0.068-0.072-0.158-0.108-0.268-0.108c-0.112,0-0.201,0.036-0.266,0.11c-0.065,0.073-0.098,0.183-0.098,0.329v2.657
				c0,0.114,0.002,0.201,0.007,0.261c0.005,0.06,0.019,0.113,0.042,0.158c0.031,0.055,0.076,0.099,0.133,0.132
				c0.058,0.032,0.118,0.049,0.181,0.049c0.109,0,0.198-0.036,0.267-0.108c0.069-0.072,0.104-0.183,0.104-0.333V71.24l0.601-0.568
				l0.868,1.316c0.035,0.059,0.074,0.124,0.119,0.195c0.045,0.072,0.099,0.129,0.163,0.172c0.064,0.043,0.148,0.065,0.25,0.065
				c0.109,0,0.195-0.029,0.259-0.088c0.063-0.059,0.095-0.128,0.095-0.207C149.976,72.053,149.958,71.98,149.922,71.904z"/>
		</g>
	</g>
</g>
</svg>
