<?xml version="1.0" encoding="utf-8"?>
<!-- Generator: Adobe Illustrator 17.0.0, SVG Export Plug-In . SVG Version: 6.00 Build 0)  -->
<!DOCTYPE svg PUBLIC "-//W3C//DTD SVG 1.1//EN" "http://www.w3.org/Graphics/SVG/1.1/DTD/svg11.dtd">
<svg version="1.1" id="Layer_1" xmlns="http://www.w3.org/2000/svg" xmlns:xlink="http://www.w3.org/1999/xlink" x="0px" y="0px"
	 width="216px" height="216px" viewBox="0 0 216 216" enable-background="new 0 0 216 216" xml:space="preserve">
<g>
	<g>
		<rect x="67.579" y="45.14" fill="none" width="40.209" height="122.643"/>
		<path fill="none" d="M101.481,178.148c0,3.57,2.805,6.478,6.306,6.616v-13.232C104.287,171.67,101.481,174.578,101.481,178.148z"
			/>
		<path fill="none" d="M108.036,184.771c3.626,0,6.561-2.965,6.561-6.622c0-3.658-2.932-6.623-6.558-6.623
			c-0.087,0-0.145,0.003-0.251,0.007v13.232C107.894,184.767,107.949,184.771,108.036,184.771z"/>
		<rect x="107.788" y="45.14" fill="none" width="40.846" height="122.643"/>
		<path fill="none" d="M127.87,38.775c1.458,0,2.64-1.234,2.64-2.704c0-1.471-1.182-2.706-2.64-2.706h-20.083v5.411H127.87z"/>
		<path fill="none" d="M85.538,36.07c0,1.47,1.182,2.704,2.639,2.704h19.61v-5.411h-19.61C86.72,33.364,85.538,34.599,85.538,36.07z
			"/>
		<path fill="#2D6775" d="M101.481,178.148c0-3.57,2.805-6.479,6.306-6.617v-3.749H67.579V45.14h40.209v-6.366h-19.61
			c-1.458,0-2.639-1.234-2.639-2.704c0-1.471,1.182-2.706,2.639-2.706h19.61v-6.153H70.943c-6.181,0-11.321,4.933-11.321,11.167
			v139.049c0,6.24,5.14,11.363,11.321,11.363h36.845v-4.025C104.287,184.626,101.481,181.718,101.481,178.148z"/>
		<path fill="#154B59" d="M145.104,27.211h-37.316v6.153h20.083c1.458,0,2.64,1.235,2.64,2.706c0,1.47-1.182,2.704-2.64,2.704
			h-20.083v6.366h40.846v122.643h-40.846v3.749c0.106-0.003,0.161-0.007,0.248-0.007c3.626,0,6.561,2.965,6.561,6.623
			c0,3.657-2.932,6.622-6.558,6.622c-0.087,0-0.145-0.003-0.251-0.007v4.025h37.316c6.188,0,11.274-5.133,11.274-11.368V38.377
			C156.378,32.14,151.282,27.211,145.104,27.211z"/>
	</g>
	<g>
		<g>
			<g>
				<path fill="#78787A" d="M98.169,72.897c1.079,0.723,1.652,1.663,1.718,2.819c-0.11,2.323-1.351,3.553-3.723,3.69l-6.936-0.008
					V67.079h6.542c2.076,0.121,3.172,1.329,3.287,3.624C99.019,71.799,98.723,72.53,98.169,72.897z M91.702,72.018h3.452
					c0.992-0.016,1.501-0.529,1.529-1.537c-0.028-0.603-0.529-0.92-1.504-0.953h-3.476V72.018z M91.702,77.475h4.027
					c1.156-0.016,1.748-0.611,1.775-1.783c-0.027-0.789-0.611-1.2-1.75-1.233h-4.052V77.475z"/>
				<path fill="#78787A" d="M102.344,67.062h2.457v12.336h-2.457V67.062z"/>
				<path fill="#78787A" d="M109.765,67.07v10.026h6.574v2.301h-9.04V67.07H109.765z"/>
				<path fill="#78787A" d="M120.86,67.07v10.026h6.575v2.301h-9.04V67.07H120.86z"/>
			</g>
		</g>
		<rect x="78.417" y="83.993" fill="#78787A" width="59.828" height="2.137"/>
		<g>
			<rect x="83.876" y="97.147" fill="#8D8D8E" width="18.35" height="1.792"/>
			<rect x="83.876" y="100.73" fill="#8D8D8E" width="34.043" height="1.792"/>
			<rect x="83.876" y="107.774" fill="#8D8D8E" width="34.167" height="1.915"/>
			<rect x="83.876" y="104.19" fill="#8D8D8E" width="43.497" height="1.854"/>
			<rect x="83.876" y="111.79" fill="#8D8D8E" width="52.579" height="1.792"/>
			<circle fill="#BC5555" cx="81.32" cy="97.941" r="1.134"/>
			<circle fill="#BC5555" cx="81.32" cy="101.68" r="1.134"/>
			<circle fill="#BC5555" cx="81.32" cy="105.038" r="1.134"/>
			<circle fill="#BC5555" cx="81.32" cy="108.777" r="1.134"/>
			<circle fill="#BC5555" cx="81.32" cy="112.745" r="1.134"/>
		</g>
		<rect x="78.417" y="138.098" fill="#78787A" width="59.828" height="2.137"/>
		<g>
			<g>
				<path fill="#78787A" d="M79.906,130.757v-0.727h2.264v0.727H79.906z"/>
				<path fill="#78787A" d="M85.75,130.757v-0.727h2.264v0.727H85.75z"/>
				<path fill="#78787A" d="M91.592,130.757v-0.727h2.264v0.727H91.592z"/>
				<path fill="#78787A" d="M97.434,130.757v-0.727h2.264v0.727H97.434z"/>
				<path fill="#78787A" d="M103.277,130.757v-0.727h2.264v0.727H103.277z"/>
				<path fill="#78787A" d="M109.12,130.757v-0.727h2.264v0.727H109.12z"/>
				<path fill="#78787A" d="M114.964,130.757v-0.727h2.264v0.727H114.964z"/>
				<path fill="#78787A" d="M120.806,130.757v-0.727h2.264v0.727H120.806z"/>
				<path fill="#78787A" d="M126.649,130.757v-0.727h2.264v0.727H126.649z"/>
				<path fill="#78787A" d="M132.492,130.757v-0.727h2.264v0.727H132.492z"/>
			</g>
		</g>
		<g>
			<rect x="83.876" y="119.451" fill="#8D8D8E" width="34.167" height="1.854"/>
			<rect x="83.876" y="115.867" fill="#8D8D8E" width="43.497" height="1.854"/>
			<rect x="83.876" y="123.467" fill="#8D8D8E" width="52.579" height="1.792"/>
			<circle fill="#BC5555" cx="81.32" cy="116.713" r="1.134"/>
			<circle fill="#BC5555" cx="81.32" cy="120.453" r="1.134"/>
			<circle fill="#BC5555" cx="81.32" cy="124.421" r="1.134"/>
		</g>
	</g>
</g>
</svg>
