<?xml version="1.0" encoding="utf-8"?>
<!-- Generator: Adobe Illustrator 17.0.0, SVG Export Plug-In . SVG Version: 6.00 Build 0)  -->
<!DOCTYPE svg PUBLIC "-//W3C//DTD SVG 1.1//EN" "http://www.w3.org/Graphics/SVG/1.1/DTD/svg11.dtd">
<svg version="1.1" id="Layer_1" xmlns="http://www.w3.org/2000/svg" xmlns:xlink="http://www.w3.org/1999/xlink" x="0px" y="0px"
	 width="216px" height="216px" viewBox="0 0 216 216" enable-background="new 0 0 216 216" xml:space="preserve">
<path fill="#D1D1D0" d="M200.73,167.586H13.407c-4.096,0-7.076-2.979-7.076-6.703s3.352-7.076,7.076-7.076h187.696
	c3.726,0,7.076,3.353,7.076,7.076C207.807,164.607,204.828,167.586,200.73,167.586L200.73,167.586z"/>
<path fill="none" stroke="#3B3E43" stroke-width="5" stroke-linecap="round" stroke-linejoin="round" stroke-miterlimit="10" d="
	M129.229,158.275H47.296c-4.841,0-8.938-4.096-8.938-8.938c0-4.842,4.097-8.938,8.938-8.938h44.317"/>
<path fill="#00984A" stroke="#3B3E43" stroke-width="5" stroke-linecap="round" stroke-linejoin="round" stroke-miterlimit="10" d="
	M113.214,151.2h-10.055c-5.586,0-10.055-4.47-10.055-10.056v-0.373c0-5.586,4.469-10.056,10.055-10.056h10.055V151.2z"/>
<path fill="#FFFFFF" stroke="#3B3E43" stroke-width="5" stroke-linecap="round" stroke-linejoin="round" stroke-miterlimit="10" d="
	M113.959,134.814h7.447 M113.959,147.104h7.447"/>
<path fill="none" stroke="#3B3E43" stroke-width="5" stroke-linecap="round" stroke-linejoin="round" stroke-miterlimit="10" d="
	M173.545,104.276c0-13.035-10.801-23.462-23.834-23.462c-13.035,0-21.973,10.427-21.973,23.462c0,10.055,7.076,18.621,16.758,21.972
	v16.387h14.152v-16.387C168.703,123.27,173.545,114.703,173.545,104.276L173.545,104.276z"/>
<path fill="#3B3E43" d="M162.744,152.316h-20.109c-1.117,0-1.861-0.744-1.861-1.861v-1.117c0-1.117,0.744-1.861,1.861-1.861h20.109
	c1.117,0,1.863,0.744,1.863,1.861v1.117C164.607,151.572,163.49,152.316,162.744,152.316z M162.744,159.393h-20.109
	c-1.117,0-1.861-0.744-1.861-1.86v-1.117c0-1.117,0.744-1.862,1.861-1.862h20.109c1.117,0,1.863,0.745,1.863,1.862v1.117
	C164.607,158.648,163.49,159.393,162.744,159.393z M159.766,159.393c0,2.234-1.861,4.099-4.097,4.099h-5.958
	c-2.234,0-4.098-1.863-4.098-4.099H159.766z"/>
<circle fill="#00984A" cx="150.828" cy="104.648" r="14.524"/>
<path fill="none" stroke="#3B3E43" stroke-width="5" stroke-linecap="round" stroke-linejoin="round" stroke-miterlimit="10" d="
	M119.918,96.828l-7.82-4.097 M133.324,75.973l-5.959-7.076 M151.572,70.014l0.373-8.565 M180.248,96.828l7.449-4.097
	 M173.545,75.973l6.703-5.586"/>
<g>
	
		<path fill="#FFFFFF" stroke="#171C28" stroke-width="2.0031" stroke-linecap="round" stroke-linejoin="round" stroke-miterlimit="10" d="
		M86.868,111.744H74.97V77.537c0-1.893,0.676-3.515,2.028-4.462c1.082-0.946,2.434-1.623,3.921-1.623c3.38,0,5.95,2.704,5.95,6.085
		l0.135,30.287l0,0c0,2.163,1.758,3.921,3.921,3.921l0,0c2.163,0,3.921-1.758,3.921-3.921V62.934l2.84-3.515H87.004h-2.569H59.421
		c-2.84,0-5.138,2.298-5.138,5.138v47.323h36.642"/>
	<rect x="48.333" y="71.993" fill="#FFFFFF" width="25.96" height="50.568"/>
	
		<path fill="#FFFFFF" stroke="#171C28" stroke-width="2.0031" stroke-linecap="round" stroke-linejoin="round" stroke-miterlimit="10" d="
		M100.794,68.477h-5.814v-6.22c0-1.623,1.352-2.975,2.839-2.975l0,0c1.623,0,2.84,1.352,2.84,2.975L100.794,68.477z"/>
	
		<path fill="#FFFFFF" stroke="#171C28" stroke-width="2.0031" stroke-linecap="round" stroke-linejoin="round" stroke-miterlimit="10" d="
		M81.054,71.452H74.97h-2.028h-6.085h-10.14h-7.978c-3.38,0-6.085,2.704-6.085,6.085v53.542l4.056-4.056l4.056,4.056l4.056-4.056
		l3.921,4.056l4.056-4.056l4.056,4.056l4.056-4.056l4.056,4.056V94.572v-4.056"/>
	
		<line fill="none" stroke="#171C28" stroke-width="2.0031" stroke-linecap="round" stroke-linejoin="round" stroke-miterlimit="10" x1="47.117" y1="83.621" x2="70.913" y2="83.621"/>
	
		<line fill="none" stroke="#171C28" stroke-width="2.0031" stroke-linecap="round" stroke-linejoin="round" stroke-miterlimit="10" x1="53.066" y1="78.889" x2="64.964" y2="78.889"/>
	
		<line fill="none" stroke="#171C28" stroke-width="2.0031" stroke-linecap="round" stroke-linejoin="round" stroke-miterlimit="10" x1="47.117" y1="87.947" x2="70.913" y2="87.947"/>
	
		<path fill="#FFFFFF" stroke="#171C28" stroke-width="2.0031" stroke-linecap="round" stroke-linejoin="round" stroke-miterlimit="10" d="
		M88.355,111.609H75.24V77.807c0-3.515,2.704-6.355,6.085-6.355l0,0c3.245,0,6.085,2.839,6.085,6.49l0.135,32.856L88.355,111.609z"
		/>
	<g enable-background="new    ">
		<path fill="#0D3178" d="M50.638,108.153h1.733v6.473h0.06c0.359-0.518,0.717-0.996,1.056-1.434l4.103-5.039h2.151l-4.859,5.696
			l5.238,7.728h-2.051l-4.421-6.592l-1.275,1.474v5.118h-1.733V108.153z"/>
		<path fill="#0D3178" d="M61.135,119.784c0.518,0.339,1.434,0.697,2.31,0.697c1.275,0,1.872-0.637,1.872-1.434
			c0-0.836-0.498-1.295-1.792-1.773c-1.733-0.617-2.549-1.573-2.549-2.728c0-1.554,1.255-2.828,3.326-2.828
			c0.976,0,1.832,0.279,2.37,0.598l-0.438,1.275c-0.379-0.239-1.075-0.558-1.972-0.558c-1.036,0-1.613,0.597-1.613,1.315
			c0,0.797,0.578,1.155,1.832,1.633c1.673,0.637,2.529,1.474,2.529,2.908c0,1.693-1.314,2.888-3.605,2.888
			c-1.056,0-2.031-0.259-2.708-0.657L61.135,119.784z"/>
	</g>
</g>
</svg>
