<?xml version="1.0" encoding="utf-8"?>
<!-- Generator: Adobe Illustrator 17.0.0, SVG Export Plug-In . SVG Version: 6.00 Build 0)  -->
<!DOCTYPE svg PUBLIC "-//W3C//DTD SVG 1.1//EN" "http://www.w3.org/Graphics/SVG/1.1/DTD/svg11.dtd">
<svg version="1.1" id="Layer_1" xmlns="http://www.w3.org/2000/svg" xmlns:xlink="http://www.w3.org/1999/xlink" x="0px" y="0px"
	 width="427.5px" height="172px" viewBox="0 0 427.5 172" enable-background="new 0 0 427.5 172" xml:space="preserve">
<g>
	<g>
		<path fill="#E6AB6E" d="M313.48,80.595c-4.04-2.762-9.448-1.436-15.083,1.87c-12.274-4.294-40.909,25.313-40.909,25.313
			c-10.018-2.471-31.36,0.671-31.36,0.671c-5.065-3.443-19.699-3.887-34.043-3.37c-3.914-0.528-6.353-0.824-6.353-0.824
			l-1.115,1.188c-2.355,0.132-4.642,0.29-6.844,0.449c-3.343-0.459-5.413-0.707-5.413-0.707l-1.141,1.23
			c-7.426,0.649-12.527,1.257-12.527,1.257l-39.594,42.535c0,0,9.474-0.718,21.938-1.489c19.029,2.292,65.129,7.895,75.59,9.511
			c5.694,0.866,10.589,0.175,14.418-0.845c12.696,1.542,21.595-4.352,21.595-4.352s14.82-8.313,30.336-16.393
			c15.516-8.102,27.436-25.17,27.436-25.17s26.518-24.199,16.773-31.588C323.52,77.099,318.65,77.918,313.48,80.595z"/>
	</g>
	<g>
		<linearGradient id="SVGID_1_" gradientUnits="userSpaceOnUse" x1="186.0638" y1="67.1013" x2="308.0829" y2="67.1013">
			<stop  offset="0" style="stop-color:#DD3F18"/>
			<stop  offset="0.4157" style="stop-color:#E74A1B"/>
			<stop  offset="1" style="stop-color:#FD6120"/>
		</linearGradient>
		<path fill="url(#SVGID_1_)" d="M247.332,6.098c-33.668-0.581-61.115,26.39-61.268,60.006
			c-0.148,33.763,27.05,61.505,60.724,62.002c33.695,0.571,61.146-26.285,61.294-60.016C308.22,34.421,281.032,6.642,247.332,6.098z
			"/>
		<g>
			<path fill="#FFB82B" d="M308.082,68.089c-0.148,33.731-27.6,60.586-61.294,60.016c-33.673-0.496-60.872-28.238-60.724-62.002
				c0.153-33.615,27.6-60.586,61.268-60.006C281.032,6.642,308.22,34.421,308.082,68.089z"/>
		</g>
		<path fill="#F5D5A4" d="M246.788,125.084c-33.145-0.459-59.863-27.373-60.581-60.428c-0.01,0.502-0.142,0.951-0.142,1.447
			c-0.148,33.763,27.05,61.505,60.724,62.002c33.695,0.571,61.146-26.285,61.294-60.016c0-0.528-0.148-1.03-0.164-1.574
			C307.01,99.581,279.991,125.66,246.788,125.084z"/>
		<path fill="#FFB82B" d="M247.359,9.61c33.039,0.533,59.651,27.294,60.55,60.069c0.01-0.539,0.174-1.045,0.174-1.589
			c0.137-33.668-27.051-61.447-60.75-61.991c-33.668-0.581-61.115,26.39-61.268,60.006c0,0.665,0.153,1.289,0.18,1.959
			C187.258,35.197,214.224,9.06,247.359,9.61z"/>
		<g>
			
				<linearGradient id="SVGID_2_" gradientUnits="userSpaceOnUse" x1="73.6128" y1="115.4258" x2="73.6128" y2="18.8398" gradientTransform="matrix(-1 0 0 1 320.6807 0)">
				<stop  offset="0" style="stop-color:#FF7B00"/>
				<stop  offset="0.0242" style="stop-color:#FF7D01"/>
				<stop  offset="0.6742" style="stop-color:#FFAB0F"/>
				<stop  offset="1" style="stop-color:#FFBD14"/>
			</linearGradient>
			<path fill="url(#SVGID_2_)" d="M295.397,67.872c-0.111,26.766-21.833,47.975-48.546,47.547
				c-26.691-0.433-48.25-22.382-48.112-49.062c0.101-26.75,21.859-47.954,48.535-47.51
				C273.987,19.248,295.513,41.197,295.397,67.872z"/>
		</g>
		<path fill="#F5D5A4" d="M246.883,112.959c-26.285-0.428-47.495-21.748-48.001-47.88c-0.027,0.418-0.143,0.845-0.143,1.278
			c-0.137,26.681,21.421,48.63,48.112,49.062c26.713,0.428,48.435-20.781,48.546-47.547c0-0.401-0.111-0.781-0.122-1.151
			C294.473,92.842,273.141,113.381,246.883,112.959z"/>
		<g>
			<path fill="#F5D5A4" d="M246.91,103.526c-12.945-0.227-24.732-7.631-30.779-19.345c-2.768-5.36-4.204-11.455-4.178-17.666
				c0.079-20.096,15.315-35.828,34.671-35.828c20.301,0.369,35.664,16.604,35.585,36.974c-0.095,20.122-15.353,35.865-34.745,35.865
				H246.91z"/>
			<path fill="#FFD336" d="M280.725,67.645c-0.079,18.595-15.215,33.33-33.805,33.066c-18.563-0.317-33.578-15.527-33.483-34.164
				c0.063-18.527,15.221-33.361,33.773-33.04C265.795,33.835,280.81,49.093,280.725,67.645z"/>
		</g>
		<path fill="#F5D5A4" d="M280.54,69.351c0-0.048,0-0.116,0-0.169c-1.046,15.934-15.659,28.365-33.62,28.112
			c-17.882-0.269-32.332-13.024-33.304-28.957c0,0.021-0.005,0.069-0.005,0.069c0.909,17.756,15.374,32.02,33.309,32.305
			C264.929,100.975,279.574,87.112,280.54,69.351z"/>
		<path fill="#FFB82B" d="M247.216,36.074c18.125,0.312,32.712,14.861,33.388,32.786c0.021-0.423,0.122-0.798,0.122-1.215
			c0.084-18.553-14.93-33.81-33.515-34.138c-18.553-0.322-33.71,14.513-33.773,33.04c0,0.475,0.116,0.898,0.127,1.368
			C214.282,49.958,229.069,35.752,247.216,36.074z"/>
	</g>
	<g>
		<g>
			<linearGradient id="SVGID_3_" gradientUnits="userSpaceOnUse" x1="220.1132" y1="164.193" x2="220.1132" y2="79.3487">
				<stop  offset="0.0242" style="stop-color:#F7BB7C"/>
				<stop  offset="1" style="stop-color:#FFD1A1"/>
			</linearGradient>
			<path fill="url(#SVGID_3_)" d="M100.535,109.283c0,0,13.752-9.596,21.838-13.166c15.617-6.882,29.385-21.31,53.964-15.363
				c24.584,5.936,43,9.934,58.738,10.314c7.256,0.185,30.71-1.785,29.089,13.647c-1.484,14.212-25.831,9.96-31.329,10.351
				c-5.508,0.396-35.685,1.31-35.685,1.31s39.466,6.829,50.71,14.038c0,0,28.978-10.43,43.924-12.363
				c0,0,31.535-44.247,45.614-34.186c9.96,7.114-15.754,31.967-15.754,31.967s-11.434,17.407-26.713,25.947
				c-15.273,8.524-29.86,17.248-29.86,17.248s-9.19,6.559-22.493,4.896c-13.33-1.669-87.828-8.123-87.828-8.123
				s-19.398,0.122-26.496,2.155c-6.728,1.938-15.801,6.226-15.801,6.226L100.535,109.283z"/>
		</g>
	</g>
	<g>
		<g>
			<linearGradient id="SVGID_4_" gradientUnits="userSpaceOnUse" x1="127.1705" y1="165" x2="127.1705" y2="82.2111">
				<stop  offset="0" style="stop-color:#CDEFFA"/>
				<stop  offset="1" style="stop-color:#FAFAFA"/>
			</linearGradient>
			<polygon fill="url(#SVGID_4_)" points="118.369,164.952 118.602,82.211 135.972,82.269 135.729,165 			"/>
		</g>
	</g>
	<g>
		<g>
			<linearGradient id="SVGID_5_" gradientUnits="userSpaceOnUse" x1="101.0441" y1="164.9524" x2="101.0441" y2="82.0791">
				<stop  offset="0" style="stop-color:#062A54"/>
				<stop  offset="0.2719" style="stop-color:#072C58"/>
				<stop  offset="0.5179" style="stop-color:#083263"/>
				<stop  offset="0.7539" style="stop-color:#0B3C75"/>
				<stop  offset="0.9825" style="stop-color:#104B8F"/>
				<stop  offset="1" style="stop-color:#104C91"/>
			</linearGradient>
			<polygon fill="url(#SVGID_5_)" points="83.487,164.815 83.724,82.079 118.602,82.211 118.369,164.952 			"/>
		</g>
	</g>
	<g>
		<linearGradient id="SVGID_6_" gradientUnits="userSpaceOnUse" x1="227.5312" y1="63.4996" x2="253.0715" y2="63.4996">
			<stop  offset="0" style="stop-color:#062A54"/>
			<stop  offset="0.2719" style="stop-color:#072C58"/>
			<stop  offset="0.5179" style="stop-color:#083263"/>
			<stop  offset="0.7539" style="stop-color:#0B3C75"/>
			<stop  offset="0.9825" style="stop-color:#104B8F"/>
			<stop  offset="1" style="stop-color:#104C91"/>
		</linearGradient>
		<path fill="url(#SVGID_6_)" d="M227.531,45.417h4.669v17.44h0.159c0.968-1.396,1.933-2.683,2.844-3.865l11.054-13.575h5.796
			l-13.092,15.347l14.11,20.819h-5.525l-11.913-17.761l-3.434,3.969v13.791h-4.669V45.417z"/>
		<linearGradient id="SVGID_7_" gradientUnits="userSpaceOnUse" x1="254.6444" y1="68.5712" x2="271.6538" y2="68.5712">
			<stop  offset="0" style="stop-color:#062A54"/>
			<stop  offset="0.2719" style="stop-color:#072C58"/>
			<stop  offset="0.5179" style="stop-color:#083263"/>
			<stop  offset="0.7539" style="stop-color:#0B3C75"/>
			<stop  offset="0.9825" style="stop-color:#104B8F"/>
			<stop  offset="1" style="stop-color:#104C91"/>
		</linearGradient>
		<path fill="url(#SVGID_7_)" d="M255.824,76.753c1.396,0.913,3.865,1.879,6.226,1.879c3.434,0,5.042-1.717,5.042-3.862
			c0-2.255-1.341-3.489-4.828-4.778c-4.669-1.662-6.868-4.238-6.868-7.351c0-4.184,3.38-7.618,8.961-7.618
			c2.628,0,4.937,0.749,6.386,1.608l-1.182,3.434c-1.018-0.642-2.897-1.501-5.311-1.501c-2.792,0-4.347,1.61-4.347,3.541
			c0,2.145,1.555,3.111,4.937,4.4c4.507,1.717,6.814,3.972,6.814,7.834c0,4.561-3.541,7.782-9.713,7.782
			c-2.842,0-5.472-0.699-7.297-1.772L255.824,76.753z"/>
	</g>
</g>
</svg>
