<?xml version="1.0" encoding="utf-8"?>
<!-- Generator: Adobe Illustrator 16.0.0, SVG Export Plug-In . SVG Version: 6.00 Build 0)  -->
<!DOCTYPE svg PUBLIC "-//W3C//DTD SVG 1.1//EN" "http://www.w3.org/Graphics/SVG/1.1/DTD/svg11.dtd">
<svg version="1.1" id="Layer_1" xmlns="http://www.w3.org/2000/svg" xmlns:xlink="http://www.w3.org/1999/xlink" x="0px" y="0px"
	 width="216px" height="216px" viewBox="0 0 216 216" enable-background="new 0 0 216 216" xml:space="preserve">
<path fill="#FFFFFF" stroke="#4C5C68" stroke-width="3" stroke-linecap="round" stroke-linejoin="round" stroke-miterlimit="10" d="
	M23.288,83.025h162v87.75h-162V83.025z"/>
<path fill="#6DCFF6" stroke="#4C5C68" stroke-width="3" stroke-linecap="round" stroke-linejoin="round" stroke-miterlimit="10" d="
	M23.288,75.263v-20.25h162v20.25"/>
<path fill="#FFFFFF" stroke="#4C5C68" stroke-width="3" stroke-linecap="round" stroke-linejoin="round" stroke-miterlimit="10" d="
	M141.75,34.763h22.612v140.063H141.75V34.763z"/>
<path fill="#6DCFF6" stroke="#4C5C68" stroke-width="3" stroke-linecap="round" stroke-linejoin="round" stroke-miterlimit="10" d="
	M143.438,117.787h19.237v57.038h-19.237V117.787z"/>
<path fill="#FFFFFF" stroke="#4C5C68" stroke-width="3" stroke-linecap="round" stroke-linejoin="round" stroke-miterlimit="10" d="
	M151.537,195.412L141.75,175.5h22.612L151.537,195.412z"/>
<path fill="#6DCFF6" stroke="#4C5C68" stroke-width="3" stroke-linecap="round" stroke-linejoin="round" stroke-miterlimit="10" d="
	M147.487,23.962h11.138v10.462h-11.138V23.962z"/>
<path fill="none" stroke="#4C5C68" stroke-width="3" stroke-linecap="round" stroke-linejoin="round" stroke-miterlimit="10" d="
	M142.088,119.138h20.925"/>
<path fill="none" stroke="#4C5C68" stroke-width="3" stroke-linecap="round" stroke-linejoin="round" stroke-miterlimit="10" d="
	M153.9,35.438v51.975"/>
<path fill="#FFFFFF" stroke="#4C5C68" stroke-width="3" stroke-linecap="round" stroke-linejoin="round" stroke-miterlimit="10" d="
	M32.737,66.487h51.3 M66.487,96.862H105.3 M66.487,160.987H105.3 M66.487,111.713h63.45 M66.487,120.487h63.45 M66.487,129.263
	h63.45 M31.725,93.15h7.087 M31.725,160.65h7.087 M112.05,160.65h7.088"/>
<path fill="#FFFFFF" stroke="#FFFFFF" stroke-width="3" stroke-linecap="round" stroke-linejoin="round" stroke-miterlimit="10" d="
	M149.476,133.987h7.425 M149.476,141.75h7.425 M149.476,149.85h7.425"/>
<g>
	<path fill="#0D3178" d="M28.232,110.25h3.445v12.869h0.119c0.712-1.029,1.425-1.979,2.099-2.851l8.157-10.019h4.276l-9.662,11.325
		l10.414,15.363h-4.079l-8.791-13.106l-2.534,2.93v10.177h-3.445V110.25z"/>
	<path fill="#0D3178" d="M49.101,133.375c1.029,0.673,2.851,1.386,4.593,1.386c2.534,0,3.722-1.268,3.722-2.851
		c0-1.663-0.99-2.574-3.563-3.524c-3.445-1.228-5.068-3.128-5.068-5.425c0-3.089,2.495-5.623,6.613-5.623
		c1.94,0,3.643,0.555,4.712,1.188l-0.871,2.534c-0.752-0.476-2.138-1.109-3.92-1.109c-2.059,0-3.207,1.188-3.207,2.613
		c0,1.584,1.148,2.297,3.643,3.247c3.326,1.268,5.029,2.931,5.029,5.781c0,3.366-2.613,5.741-7.167,5.741
		c-2.099,0-4.039-0.515-5.385-1.307L49.101,133.375z"/>
</g>
</svg>
