<?xml version="1.0" encoding="utf-8"?>
<!-- Generator: Adobe Illustrator 16.0.0, SVG Export Plug-In . SVG Version: 6.00 Build 0)  -->
<!DOCTYPE svg PUBLIC "-//W3C//DTD SVG 1.1//EN" "http://www.w3.org/Graphics/SVG/1.1/DTD/svg11.dtd">
<svg version="1.1" id="Layer_1" xmlns="http://www.w3.org/2000/svg" xmlns:xlink="http://www.w3.org/1999/xlink" x="0px" y="0px"
	 width="120.25px" height="120.25px" viewBox="0 0 120.25 120.25" enable-background="new 0 0 120.25 120.25" xml:space="preserve">
<path fill="#F7F7F7" d="M60.334,2.334C28.72,2.334,3,28.054,3,59.668c0,31.613,25.72,57.333,57.334,57.333
	c8.167,0,15.936-1.729,22.973-4.819c14.965-6.572,26.605-19.352,31.639-35.066c1.763-5.506,2.723-11.364,2.723-17.446
	C117.667,28.054,91.947,2.334,60.334,2.334L60.334,2.334z"/>
<linearGradient id="SVGID_1_" gradientUnits="userSpaceOnUse" x1="255.0645" y1="-219.3379" x2="304.0604" y2="-268.3339" gradientTransform="matrix(1 0 0 -1 -198 -166.75)">
	<stop  offset="0" style="stop-color:#000000;stop-opacity:0.2"/>
	<stop  offset="0.995" style="stop-color:#FFFFFF;stop-opacity:0"/>
</linearGradient>
<path fill="url(#SVGID_1_)" d="M114.943,77.114L80.912,43.081l-5.694,6.041L40.39,69.264l42.917,42.918
	C98.271,105.607,109.912,92.83,114.943,77.114z"/>
<path fill="#00984A" d="M71.27,39.413c-5.475,0-8.93,2.664-10.936,5.073c-2.004-2.409-5.46-5.073-10.937-5.073
	c-9.323,0-15.584,8.636-15.584,16.701c0,11.739,22.553,27.476,25.124,29.229c0.421,0.287,0.909,0.432,1.396,0.432
	c0.487,0,0.976-0.145,1.396-0.432c2.571-1.755,25.125-17.49,25.125-29.229C86.855,48.049,80.593,39.413,71.27,39.413z"/>
</svg>
