<?xml version="1.0" encoding="utf-8"?>
<!-- Generator: Adobe Illustrator 16.0.0, SVG Export Plug-In . SVG Version: 6.00 Build 0)  -->
<!DOCTYPE svg PUBLIC "-//W3C//DTD SVG 1.1//EN" "http://www.w3.org/Graphics/SVG/1.1/DTD/svg11.dtd">
<svg version="1.1" id="Layer_1" xmlns="http://www.w3.org/2000/svg" xmlns:xlink="http://www.w3.org/1999/xlink" x="0px" y="0px"
	 width="216px" height="216px" viewBox="0 0 216 216" enable-background="new 0 0 216 216" xml:space="preserve">
<path fill="#D1D1D0" d="M200.73,167.586H13.407c-4.096,0-7.076-2.979-7.076-6.703s3.352-7.076,7.076-7.076h187.697
	c3.725,0,7.076,3.352,7.076,7.076C207.807,164.607,204.828,167.586,200.73,167.586L200.73,167.586z"/>
<path fill="#FFFFFF" stroke="#3B3E43" stroke-width="3" stroke-linecap="round" stroke-linejoin="round" stroke-miterlimit="10" d="
	M184.814,151.609h-16.759V49.196h16.759V151.609z"/>
<path fill="#0D3178" stroke="#3B3E43" stroke-width="3" stroke-linecap="round" stroke-linejoin="round" stroke-miterlimit="10" d="
	M183.336,90.876h-14.152v-41.71h14.152V90.876z"/>
<path fill="#FFFFFF" stroke="#3B3E43" stroke-width="3" stroke-linecap="round" stroke-linejoin="round" stroke-miterlimit="10" d="
	M176.896,33.89l7.82,14.896h-16.758L176.896,33.89z M180.346,159.445h-8.193v-7.82h8.193V159.445z M176.523,151.2v-37.986
	 M173.918,79.324 M179.504,79.324 M173.918,73.366 M179.504,73.366 M173.918,67.407 M179.504,67.407"/>
<path fill="#FFFFFF" stroke="#3B3E43" stroke-width="3" stroke-linecap="round" stroke-linejoin="round" stroke-miterlimit="10" d="
	M24.579,94.965h132.579v61.821H24.579V94.965z"/>
<path fill="#FFFFFF" stroke="#3B3E43" stroke-width="3" stroke-linecap="round" stroke-linejoin="round" stroke-miterlimit="10" d="
	M33.517,109.862h115.448 M33.517,121.035h115.448"/>
<path fill="#0D3178" stroke="#3B3E43" stroke-width="3" stroke-linecap="round" stroke-linejoin="round" stroke-miterlimit="10" d="
	M33.517,133.697h58.097v10.427H33.517V133.697z"/>
<path fill="#6DCFF6" d="M179.626,60.646c0,0.518-0.471,0.938-1.052,0.938h-4.629c-0.581,0-1.052-0.42-1.052-0.938l0,0
	c0-0.518,0.471-0.938,1.052-0.938h4.629C179.155,59.708,179.626,60.128,179.626,60.646L179.626,60.646z"/>
<path fill="#6DCFF6" d="M179.626,66.896c0,0.518-0.471,0.938-1.052,0.938h-4.629c-0.581,0-1.052-0.42-1.052-0.938l0,0
	c0-0.518,0.471-0.938,1.052-0.938h4.629C179.155,65.958,179.626,66.378,179.626,66.896L179.626,66.896z"/>
<path fill="#6DCFF6" d="M179.626,73.146c0,0.518-0.471,0.938-1.052,0.938h-4.629c-0.581,0-1.052-0.42-1.052-0.938l0,0
	c0-0.518,0.471-0.938,1.052-0.938h4.629C179.155,72.208,179.626,72.628,179.626,73.146L179.626,73.146z"/>
<path fill="#6DCFF6" d="M179.626,79.396c0,0.518-0.471,0.938-1.052,0.938h-4.629c-0.581,0-1.052-0.42-1.052-0.938l0,0
	c0-0.518,0.471-0.938,1.052-0.938h4.629C179.155,78.458,179.626,78.878,179.626,79.396L179.626,79.396z"/>
</svg>
