<?xml version="1.0" encoding="utf-8"?>
<!-- Generator: Adobe Illustrator 17.0.0, SVG Export Plug-In . SVG Version: 6.00 Build 0)  -->
<!DOCTYPE svg PUBLIC "-//W3C//DTD SVG 1.1//EN" "http://www.w3.org/Graphics/SVG/1.1/DTD/svg11.dtd">
<svg version="1.1" id="Layer_1" xmlns="http://www.w3.org/2000/svg" xmlns:xlink="http://www.w3.org/1999/xlink" x="0px" y="0px"
	 width="216px" height="216px" viewBox="0 0 216 216" enable-background="new 0 0 216 216" xml:space="preserve">
<g>
	<g>
		<path fill="none" stroke="#4C5C68" stroke-width="3" stroke-linecap="round" stroke-linejoin="round" stroke-miterlimit="10" d="
			M101.626,109.688v21.973h8.566l-2.234,6.33"/>
		
			<path fill="#FFFFFF" stroke="#3B3E43" stroke-width="3" stroke-linecap="round" stroke-linejoin="round" stroke-miterlimit="10" d="
			M33.847,140.226l26.814-10.428l32.027-15.269l30.166,15.642l25.696,10.428v30.166H33.847V140.226z"/>
		<path fill="#00984A" d="M66.247,128.309l16.759,40.966h16.386l18.249-41.338l-25.697-11.918L66.247,128.309z"/>
		
			<path fill="#00984A" stroke="#3B3E43" stroke-width="3" stroke-linecap="round" stroke-linejoin="round" stroke-miterlimit="10" d="
			M96.041,45.261c-14.152-0.373-18.993,3.352-23.834,9.31c-4.469,5.586-4.841,13.779-4.841,13.779l0.372,25.697h50.649l0.372-29.793
			C119.13,64.626,116.522,46.006,96.041,45.261z"/>
		
			<path fill="#FFFFFF" stroke="#3B3E43" stroke-width="3" stroke-linecap="round" stroke-linejoin="round" stroke-miterlimit="10" d="
			M92.688,142.833c-8.565,0-15.269-6.703-15.269-15.27v-11.917h30.538v11.917C107.958,136.13,101.254,142.833,92.688,142.833z
			 M98.275,120.861H85.24c-7.82,0-12.662-7.076-12.662-14.896v-6.331h-0.745c-2.607,0-4.841-1.862-4.841-4.469
			s2.234-4.469,4.841-4.469h1.117V60.902h40.965v30.166h1.118c2.606,0,4.469,1.862,4.469,4.469s-1.862,4.469-4.469,4.469h-1.118
			v6.331c0,4.097-2.606,8.193-5.586,11.172"/>
		<path fill="#00984A" d="M115.034,59.04v5.213l-9.311-2.607l-1.862,7.076l-16.386-2.607l2.979,9.683
			c0,0-12.662-10.055-14.896-11.917c0,0-5.586-1.117-5.586,2.234c0,0-1.118-2.607,1.489-7.076"/>
		<path fill="none" stroke="#3B3E43" stroke-width="3" stroke-linecap="round" stroke-linejoin="round" stroke-miterlimit="10" d="
			M113.544,64.254l-7.82-2.607l-1.862,7.076l-16.386-2.607l2.979,9.683c0,0-13.407-9.683-15.641-11.545c0,0-2.979,0.373-2.979,3.724
			"/>
		
			<path fill="#FFFFFF" stroke="#3B3E43" stroke-width="3" stroke-linecap="round" stroke-linejoin="round" stroke-miterlimit="10" d="
			M58.054,132.405v23.462h9.311l-2.235,7.821 M117.269,129.426v26.441h-2.607l-1.117,8.565 M66.62,128.681l17.131,41.338
			 M116.895,127.937l-16.759,42.082"/>
	</g>
	
		<path fill="#FFFFFF" stroke="#171C28" stroke-width="1.9452" stroke-linecap="round" stroke-linejoin="round" stroke-miterlimit="10" d="
		M168.629,101.678h-11.554V68.46c0-1.838,0.657-3.414,1.97-4.333c1.05-0.919,2.363-1.576,3.807-1.576
		c3.283,0,5.778,2.626,5.778,5.909l0.131,29.411l0,0c0,2.101,1.707,3.808,3.808,3.808l0,0c2.1,0,3.807-1.707,3.807-3.808V54.28
		l2.757-3.414h-10.373h-2.494h-24.29c-2.757,0-4.989,2.232-4.989,4.989v45.954h35.582"/>
	<rect x="131.209" y="63.076" fill="#FFFFFF" width="25.209" height="49.106"/>
	
		<path fill="#FFFFFF" stroke="#171C28" stroke-width="1.9452" stroke-linecap="round" stroke-linejoin="round" stroke-miterlimit="10" d="
		M182.153,59.663h-5.646v-6.04c0-1.576,1.313-2.889,2.757-2.889l0,0c1.576,0,2.757,1.313,2.757,2.889L182.153,59.663z"/>
	
		<path fill="#FFFFFF" stroke="#171C28" stroke-width="1.9452" stroke-linecap="round" stroke-linejoin="round" stroke-miterlimit="10" d="
		M162.983,62.551h-5.909h-1.97h-5.909h-9.847h-7.747c-3.283,0-5.909,2.626-5.909,5.909v51.994l3.939-3.939l3.939,3.939l3.939-3.939
		l3.808,3.939l3.939-3.939l3.939,3.939l3.939-3.939l3.939,3.939V85.003v-3.939"/>
	
		<line fill="none" stroke="#171C28" stroke-width="1.9452" stroke-linecap="round" stroke-linejoin="round" stroke-miterlimit="10" x1="130.027" y1="74.368" x2="153.136" y2="74.368"/>
	
		<line fill="none" stroke="#171C28" stroke-width="1.9452" stroke-linecap="round" stroke-linejoin="round" stroke-miterlimit="10" x1="135.804" y1="69.773" x2="147.359" y2="69.773"/>
	
		<line fill="none" stroke="#171C28" stroke-width="1.9452" stroke-linecap="round" stroke-linejoin="round" stroke-miterlimit="10" x1="130.027" y1="78.57" x2="153.136" y2="78.57"/>
	
		<path fill="#FFFFFF" stroke="#171C28" stroke-width="1.9452" stroke-linecap="round" stroke-linejoin="round" stroke-miterlimit="10" d="
		M170.073,101.547h-12.736V68.722c0-3.414,2.626-6.171,5.909-6.171l0,0c3.151,0,5.909,2.757,5.909,6.302l0.131,31.905
		L170.073,101.547z"/>
	<g enable-background="new    ">
		<path fill="#0D3178" d="M133.447,98.191h1.683v6.286h0.058c0.348-0.503,0.696-0.967,1.025-1.393l3.984-4.893h2.089l-4.719,5.531
			l5.086,7.504h-1.992l-4.294-6.402l-1.238,1.431v4.97h-1.682V98.191z"/>
		<path fill="#0D3178" d="M143.64,109.486c0.503,0.329,1.392,0.677,2.244,0.677c1.238,0,1.818-0.619,1.818-1.392
			c0-0.812-0.484-1.257-1.741-1.721c-1.683-0.599-2.475-1.528-2.475-2.65c0-1.509,1.218-2.747,3.23-2.747
			c0.948,0,1.779,0.271,2.302,0.58l-0.425,1.238c-0.368-0.232-1.045-0.542-1.915-0.542c-1.006,0-1.567,0.58-1.567,1.276
			c0,0.773,0.561,1.122,1.779,1.586c1.625,0.619,2.456,1.431,2.456,2.824c0,1.644-1.276,2.804-3.501,2.804
			c-1.025,0-1.973-0.251-2.63-0.638L143.64,109.486z"/>
	</g>
</g>
</svg>
