<?xml version="1.0" encoding="utf-8"?>
<!-- Generator: Adobe Illustrator 16.0.0, SVG Export Plug-In . SVG Version: 6.00 Build 0)  -->
<!DOCTYPE svg PUBLIC "-//W3C//DTD SVG 1.1//EN" "http://www.w3.org/Graphics/SVG/1.1/DTD/svg11.dtd">
<svg version="1.1" id="Layer_1" xmlns="http://www.w3.org/2000/svg" xmlns:xlink="http://www.w3.org/1999/xlink" x="0px" y="0px"
	 width="216px" height="216px" viewBox="0 0 216 216" enable-background="new 0 0 216 216" xml:space="preserve">
<g>
	
		<polygon id="XMLID_1431_" fill="#FFFFFF" stroke="#171C28" stroke-width="3" stroke-linecap="round" stroke-linejoin="round" stroke-miterlimit="10" points="
		76.275,123.525 104.962,112.388 138.713,96.188 171.112,113.063 198.45,123.862 198.45,156.263 76.275,156.263 	"/>
	<path id="XMLID_1430_" fill="#0D3178" d="M110.7,111.037l17.888,43.875c0,0,13.5,0,17.55,0l19.237-44.212l-27.338-12.825
		L110.7,111.037z"/>
	
		<path id="XMLID_1429_" fill="#FFFFFF" stroke="#171C28" stroke-width="3" stroke-linecap="round" stroke-linejoin="round" stroke-miterlimit="10" d="
		M142.425,22.612c-14.85-0.675-20.25,3.375-25.313,9.788c-4.725,5.738-5.399,14.513-5.399,14.513l0.337,27.675h54l0.675-31.725
		C166.725,42.862,164.025,23.288,142.425,22.612z"/>
	
		<path id="XMLID_1400_" fill="#FFFFFF" stroke="#171C28" stroke-width="3" stroke-linecap="round" stroke-linejoin="round" stroke-miterlimit="10" d="
		M138.713,126.563L138.713,126.563c-9.113,0-16.2-7.425-16.2-16.2V97.538h32.399v12.825
		C154.912,119.138,147.825,126.563,138.713,126.563z"/>
	
		<path id="XMLID_1399_" fill="#FFFFFF" stroke="#171C28" stroke-width="3" stroke-linecap="round" stroke-linejoin="round" stroke-miterlimit="10" d="
		M144.787,103.275h-14.175c-8.438,0-13.837-7.425-13.837-15.862v-6.75c-3.038,0-0.676,0-1.013,0c-2.7,0-5.4-2.025-5.4-4.725
		s2.362-4.725,5.063-4.725c0,0-1.688,0,1.013,0V39.15h43.875v32.063c0,0,0.675,0,1.013,0c2.7,0,4.725,2.025,4.725,4.725
		s-2.024,4.725-4.725,4.725c-0.338,0-1.013,0-1.013,0v6.75c0,4.387-2.7,8.775-6.075,11.813"/>
	<path id="XMLID_159_" fill="#FFFFFF" d="M116.1,37.462c-2.699,4.725-0.337,7.087-0.337,7.087c0-3.712,5.063-2.362,5.063-2.362
		c2.024,2.025,15.862,12.487,15.862,12.487l-3.375-10.125l17.55,3.038l1.688-7.425l9.788,2.7l0.337-4.05l-3.037-3.375"/>
	
		<path id="XMLID_1397_" fill="#FFFFFF" stroke="#171C28" stroke-width="3" stroke-linecap="round" stroke-linejoin="round" stroke-miterlimit="10" d="
		M160.987,42.862l-8.1-2.7l-1.688,7.425l-17.55-3.038l3.375,10.125c0,0-14.513-10.462-16.538-12.487c0,0-3.037,0.337-3.037,3.712"/>
	
		<polyline id="XMLID_1396_" fill="#FFFFFF" stroke="#171C28" stroke-width="3" stroke-linecap="round" stroke-linejoin="round" stroke-miterlimit="10" points="
		101.925,114.075 101.925,141.075 112.388,141.075 109.688,148.5 	"/>
	
		<polyline id="XMLID_153_" fill="#FFFFFF" stroke="#171C28" stroke-width="3" stroke-linecap="round" stroke-linejoin="round" stroke-miterlimit="10" points="
		169.763,114.075 169.763,136.35 162.338,136.35 163.35,145.8 	"/>
	
		<line id="XMLID_152_" fill="none" stroke="#171C28" stroke-width="3" stroke-linecap="round" stroke-linejoin="round" stroke-miterlimit="10" x1="111.037" y1="111.375" x2="129.263" y2="155.588"/>
	
		<line id="XMLID_151_" fill="none" stroke="#171C28" stroke-width="3" stroke-linecap="round" stroke-linejoin="round" stroke-miterlimit="10" x1="164.7" y1="110.7" x2="146.813" y2="155.588"/>
</g>
<g>
	
		<polygon id="XMLID_150_" fill="#FFFFFF" stroke="#171C28" stroke-width="3" stroke-linecap="round" stroke-linejoin="round" stroke-miterlimit="10" points="
		19.575,151.537 52.313,138.713 91.125,120.15 127.575,139.05 158.963,151.875 158.963,188.325 19.575,188.325 	"/>
	<path id="XMLID_149_" fill="#0D3178" d="M59.737,137.362l20.25,49.95c0,0,15.525,0,19.913,0l21.938-50.287l-30.713-14.513
		L59.737,137.362z"/>
	
		<path id="XMLID_148_" fill="#FFFFFF" stroke="#171C28" stroke-width="3" stroke-linecap="round" stroke-linejoin="round" stroke-miterlimit="10" d="
		M95.175,36.112C78.3,35.438,71.888,40.163,66.15,47.25c-5.4,6.75-5.737,16.875-5.737,16.875l0.337,31.388h61.425L122.85,59.4
		C122.85,59.4,119.813,37.125,95.175,36.112z"/>
	
		<path id="XMLID_147_" fill="#FFFFFF" stroke="#171C28" stroke-width="3" stroke-linecap="round" stroke-linejoin="round" stroke-miterlimit="10" d="
		M91.462,154.575h-0.675c-10.125,0-18.225-8.101-18.225-18.226V121.5h36.787v14.85C109.35,146.475,101.25,154.575,91.462,154.575z"
		/>
	
		<path id="XMLID_146_" fill="#FFFFFF" stroke="#171C28" stroke-width="3" stroke-linecap="round" stroke-linejoin="round" stroke-miterlimit="10" d="
		M97.875,128.25h-16.2c-9.45,0-15.525-8.775-15.525-18.225V102.6c-3.375,0-1.012,0-1.012,0c-3.038,0-6.075-2.363-6.075-5.4
		c0-3.038,2.7-5.4,5.737-5.4c0.338,0-2.025,0,1.35,0V55.35h49.95V91.8c0,0,0.676,0,1.013,0c3.038,0,5.4,2.363,5.4,5.4
		c0,3.037-2.362,5.4-5.4,5.4c-0.337,0-1.013,0-1.013,0v7.425c0,5.063-3.037,10.125-6.75,13.5"/>
	<path id="XMLID_145_" fill="#FFFFFF" d="M118.125,52.65v6.413l-11.138-3.038l-2.025,8.438L85.05,61.087L88.763,72.9
		c0,0-15.525-12.15-18.225-14.512c0,0-6.075-1.35-5.738,2.7c0,0-3.712-3.712,1.013-8.1"/>
	
		<path id="XMLID_144_" fill="#FFFFFF" stroke="#171C28" stroke-width="3" stroke-linecap="round" stroke-linejoin="round" stroke-miterlimit="10" d="
		M116.1,59.4l-9.112-3.038l-2.025,8.438L85.05,61.425l3.713,11.813c0,0-16.538-11.813-18.9-14.175c0,0-3.712,0.337-3.375,4.388"/>
	
		<polyline id="XMLID_143_" fill="#FFFFFF" stroke="#171C28" stroke-width="3" stroke-linecap="round" stroke-linejoin="round" stroke-miterlimit="10" points="
		48.938,142.088 48.938,170.1 60.413,170.1 57.712,179.888 	"/>
	
		<polyline id="XMLID_142_" fill="#FFFFFF" stroke="#171C28" stroke-width="3" stroke-linecap="round" stroke-linejoin="round" stroke-miterlimit="10" points="
		121.162,138.375 121.162,170.1 117.787,170.1 116.438,180.9 	"/>
	
		<line id="XMLID_141_" fill="none" stroke="#171C28" stroke-width="3" stroke-linecap="round" stroke-linejoin="round" stroke-miterlimit="10" x1="59.4" y1="137.362" x2="79.987" y2="187.65"/>
	
		<line id="XMLID_140_" fill="none" stroke="#171C28" stroke-width="3" stroke-linecap="round" stroke-linejoin="round" stroke-miterlimit="10" x1="120.487" y1="136.35" x2="100.237" y2="187.65"/>
</g>
</svg>
