<?xml version="1.0" encoding="utf-8"?>
<!-- Generator: Adobe Illustrator 16.0.0, SVG Export Plug-In . SVG Version: 6.00 Build 0)  -->
<!DOCTYPE svg PUBLIC "-//W3C//DTD SVG 1.1//EN" "http://www.w3.org/Graphics/SVG/1.1/DTD/svg11.dtd">
<svg version="1.1" id="Layer_1" xmlns="http://www.w3.org/2000/svg" xmlns:xlink="http://www.w3.org/1999/xlink" x="0px" y="0px"
	 width="216px" height="216px" viewBox="0 0 216 216" enable-background="new 0 0 216 216" xml:space="preserve">
<g>
	
		<polygon id="XMLID_1203_" fill="none" stroke="#171C28" stroke-width="3" stroke-linecap="round" stroke-linejoin="round" stroke-miterlimit="10" points="
		33.413,149.85 68.175,136.35 109.688,116.438 149.175,136.688 182.588,150.188 182.588,189.675 33.413,189.675 	"/>
	
		<path id="XMLID_1202_" fill="#0D3178" stroke="#171C28" stroke-width="3" stroke-linecap="round" stroke-linejoin="round" stroke-miterlimit="10" d="
		M75.6,134.325l21.6,53.662c0,0,16.537,0,21.6,0l23.625-54l-33.075-15.524L75.6,134.325z"/>
	
		<path id="XMLID_1201_" fill="none" stroke="#171C28" stroke-width="3" stroke-linecap="round" stroke-linejoin="round" stroke-miterlimit="10" d="
		M114.412,26.325c-18.225-0.675-24.975,4.387-31.05,11.813c-5.737,7.087-6.412,17.887-6.412,17.887l0.675,33.75h65.813l0.675-38.813
		C144.112,51.3,140.737,27.337,114.412,26.325z"/>
	
		<path id="XMLID_1200_" fill="#FFFFFF" stroke="#171C28" stroke-width="3" stroke-linecap="round" stroke-linejoin="round" stroke-miterlimit="10" d="
		M112.05,153.225h-4.725c-9.788,0-17.55-7.762-17.55-17.55v-17.55h39.488v17.888C129.6,145.463,121.838,153.225,112.05,153.225z"/>
	
		<path id="XMLID_1199_" fill="#FFFFFF" stroke="#171C28" stroke-width="3" stroke-linecap="round" stroke-linejoin="round" stroke-miterlimit="10" d="
		M117.112,124.875H99.9c-10.125,0-16.538-9.112-16.538-19.237v-8.1c-3.712,0-1.012,0-1.35,0c-3.038,0-6.413-2.7-6.413-5.738
		c0-3.037,3.038-5.737,6.075-5.737c0.338,0-2.025,0,1.35,0v-39.15h53.663v39.15c0,0,1.013,0,1.35,0c3.038,0,5.738,2.7,5.738,5.737
		c0,3.038-2.7,5.738-5.738,5.738c-0.337,0-1.35,0-1.35,0v8.1c0,5.399-3.375,10.8-7.425,14.513"/>
	<path id="XMLID_1198_" fill="#FFFFFF" d="M138.037,44.55l1.013,6.413L126.9,47.925l-2.025,9.113l-21.263-3.712l4.05,12.487
		c0,0-16.875-12.825-19.238-15.525c0,0-6.412-1.35-6.075,3.038c0,0-4.05-3.713,1.012-8.775"/>
	
		<path id="XMLID_1192_" fill="none" stroke="#171C28" stroke-width="3" stroke-linecap="round" stroke-linejoin="round" stroke-miterlimit="10" d="
		M136.688,51.3l-9.787-3.375l-2.025,9.113l-21.263-3.712l4.05,12.487c0,0-17.55-12.825-20.25-15.188c0,0-4.05,0.337-3.712,4.725"/>
	
		<polyline id="XMLID_1191_" fill="none" stroke="#171C28" stroke-width="3" stroke-linecap="round" stroke-linejoin="round" stroke-miterlimit="10" points="
		64.8,138.375 64.8,171.45 77.625,171.45 74.25,180.563 	"/>
	
		<polyline id="XMLID_1165_" fill="none" stroke="#171C28" stroke-width="3" stroke-linecap="round" stroke-linejoin="round" stroke-miterlimit="10" points="
		144.787,138.375 144.787,170.438 138.375,170.438 138.375,180.9 	"/>
	
		<line id="XMLID_1164_" fill="none" stroke="#171C28" stroke-width="3" stroke-linecap="round" stroke-linejoin="round" stroke-miterlimit="10" x1="75.6" y1="135" x2="98.212" y2="188.662"/>
	<line id="XMLID_1163_" fill="none" x1="141.075" y1="134.325" x2="119.138" y2="189.338"/>
</g>
</svg>
