<?xml version="1.0" encoding="utf-8"?>
<!-- Generator: Adobe Illustrator 16.0.0, SVG Export Plug-In . SVG Version: 6.00 Build 0)  -->
<!DOCTYPE svg PUBLIC "-//W3C//DTD SVG 1.1//EN" "http://www.w3.org/Graphics/SVG/1.1/DTD/svg11.dtd">
<svg version="1.1" id="Layer_1" xmlns="http://www.w3.org/2000/svg" xmlns:xlink="http://www.w3.org/1999/xlink" x="0px" y="0px"
	 width="216px" height="216px" viewBox="0 0 216 216" enable-background="new 0 0 216 216" xml:space="preserve">
<path fill="#D1D1D0" d="M200.73,167.586H13.407c-4.096,0-7.076-2.979-7.076-6.703s3.352-7.076,7.076-7.076h187.697
	c3.725,0,7.076,3.352,7.076,7.076C207.807,164.607,204.828,167.586,200.73,167.586L200.73,167.586z"/>
<path fill="#FFFFFF" stroke="#3B3E43" stroke-width="3" stroke-linecap="round" stroke-linejoin="round" stroke-miterlimit="10" d="
	M51.021,130.717l26.814-10.428l32.028-15.269l30.165,15.642l25.697,10.428v30.166H51.021V130.717z"/>
<path fill="#0D3178" d="M83.421,118.8l16.758,40.966h16.386l18.249-41.338l-25.697-11.917L83.421,118.8z"/>
<path fill="#143F90" stroke="#3B3E43" stroke-width="3" stroke-linecap="round" stroke-linejoin="round" stroke-miterlimit="10" d="
	M113.214,35.752c-14.152-0.373-18.993,3.352-23.834,9.31c-4.469,5.586-4.841,13.779-4.841,13.779l0.372,25.697h50.648l0.373-29.793
	C136.303,55.117,133.697,36.497,113.214,35.752z"/>
<path fill="#FFFFFF" stroke="#3B3E43" stroke-width="3" stroke-linecap="round" stroke-linejoin="round" stroke-miterlimit="10" d="
	M109.862,133.324c-8.566,0-15.269-6.703-15.269-15.27v-11.917h30.538v11.917C125.131,126.621,118.428,133.324,109.862,133.324z
	 M115.448,111.352h-13.035c-7.82,0-12.662-7.076-12.662-14.896v-6.331h-0.745c-2.607,0-4.841-1.862-4.841-4.469
	s2.234-4.469,4.841-4.469h1.117V51.393h40.966v30.166h1.117c2.607,0,4.469,1.862,4.469,4.469c0,2.607-1.861,4.469-4.469,4.469
	h-1.117v6.331c0,4.097-2.607,8.193-5.586,11.172"/>
<path fill="#143F90" stroke="#3B3E43" stroke-width="3" stroke-linecap="round" stroke-linejoin="round" stroke-miterlimit="10" d="
	M132.207,49.531v5.213l-9.311-2.607l-1.861,7.076l-16.387-2.607l2.979,9.683c0,0-12.662-10.055-14.896-11.917
	c0,0-5.586-1.117-5.586,2.234c0,0-1.118-2.607,1.489-7.076"/>
<path fill="none" stroke="#3B3E43" stroke-width="3" stroke-linecap="round" stroke-linejoin="round" stroke-miterlimit="10" d="
	M130.717,54.745l-7.82-2.607l-1.861,7.076l-16.387-2.607l2.979,9.683c0,0-13.407-9.683-15.641-11.545c0,0-2.979,0.373-2.979,3.724"
	/>
<path fill="#FFFFFF" stroke="#3B3E43" stroke-width="3" stroke-linecap="round" stroke-linejoin="round" stroke-miterlimit="10" d="
	M75.228,122.896v23.462h9.311l-2.235,7.821 M134.441,119.917v26.441h-2.607l-1.117,8.565 M83.793,119.172l17.131,41.338
	 M134.068,118.428l-16.758,42.082"/>
</svg>
