<?xml version="1.0" encoding="utf-8"?>
<!-- Generator: Adobe Illustrator 16.0.0, SVG Export Plug-In . SVG Version: 6.00 Build 0)  -->
<!DOCTYPE svg PUBLIC "-//W3C//DTD SVG 1.1//EN" "http://www.w3.org/Graphics/SVG/1.1/DTD/svg11.dtd">
<svg version="1.1" id="Layer_1" xmlns="http://www.w3.org/2000/svg" xmlns:xlink="http://www.w3.org/1999/xlink" x="0px" y="0px"
	 width="216px" height="216px" viewBox="0 0 216 216" enable-background="new 0 0 216 216" xml:space="preserve">
<path fill="#D1D1D0" d="M200.73,167.586H13.407c-4.096,0-7.076-2.979-7.076-6.703c0-3.724,3.352-7.076,7.076-7.076h187.696
	c3.726,0,7.076,3.353,7.076,7.076C207.807,164.607,204.828,167.586,200.73,167.586L200.73,167.586z"/>
<path fill="#FFFFFF" stroke="#3B3E43" stroke-width="3" stroke-linecap="round" stroke-linejoin="round" stroke-miterlimit="10" d="
	M184.814,151.609h-16.76V49.196h16.76V151.609z"/>
<path fill="#0D3178" stroke="#3B3E43" stroke-width="3" stroke-linecap="round" stroke-linejoin="round" stroke-miterlimit="10" d="
	M183.336,90.876h-14.152v-41.71h14.152V90.876z"/>
<path fill="#FFFFFF" stroke="#3B3E43" stroke-width="3" stroke-linecap="round" stroke-linejoin="round" stroke-miterlimit="10" d="
	M176.896,33.89l7.819,14.896h-16.758L176.896,33.89z M180.346,159.445h-8.193v-7.82h8.193V159.445z M176.523,151.2v-37.986
	 M173.918,79.324 M179.504,79.324 M173.918,73.366 M179.504,73.366 M173.918,67.407 M179.504,67.407"/>
<path fill="#FFFFFF" stroke="#3B3E43" stroke-width="3" stroke-linecap="round" stroke-linejoin="round" stroke-miterlimit="10" d="
	M24.579,94.965h132.579v61.821H24.579V94.965z"/>
<path fill="#FFFFFF" stroke="#3B3E43" stroke-width="3" stroke-linecap="round" stroke-linejoin="round" stroke-miterlimit="10" d="
	M33.517,109.861h115.448 M33.517,121.035h115.448"/>
<path fill="#0D3178" stroke="#3B3E43" stroke-width="3" stroke-linecap="round" stroke-linejoin="round" stroke-miterlimit="10" d="
	M33.517,133.697h58.097v10.427H33.517V133.697z"/>
<path fill="#6DCFF6" d="M179.301,62.114c0,0.572-0.464,1.035-1.035,1.035h-4.141c-0.571,0-1.035-0.463-1.035-1.035l0,0
	c0-0.572,0.464-1.036,1.035-1.036h4.141C178.837,61.079,179.301,61.542,179.301,62.114L179.301,62.114z"/>
<path fill="#6DCFF6" d="M179.301,67.187c0,0.572-0.464,1.035-1.035,1.035h-4.141c-0.571,0-1.035-0.463-1.035-1.035l0,0
	c0-0.572,0.464-1.036,1.035-1.036h4.141C178.837,66.151,179.301,66.614,179.301,67.187L179.301,67.187z"/>
<path fill="#6DCFF6" d="M179.301,72.259c0,0.572-0.464,1.035-1.035,1.035h-4.141c-0.571,0-1.035-0.463-1.035-1.035l0,0
	c0-0.572,0.464-1.036,1.035-1.036h4.141C178.837,71.223,179.301,71.687,179.301,72.259L179.301,72.259z"/>
<path fill="#6DCFF6" d="M179.301,77.331c0,0.572-0.464,1.035-1.035,1.035h-4.141c-0.571,0-1.035-0.463-1.035-1.035l0,0
	c0-0.572,0.464-1.036,1.035-1.036h4.141C178.837,76.295,179.301,76.759,179.301,77.331L179.301,77.331z"/>
</svg>
