<?xml version="1.0" encoding="utf-8"?>
<!-- Generator: Adobe Illustrator 16.0.0, SVG Export Plug-In . SVG Version: 6.00 Build 0)  -->
<!DOCTYPE svg PUBLIC "-//W3C//DTD SVG 1.1//EN" "http://www.w3.org/Graphics/SVG/1.1/DTD/svg11.dtd">
<svg version="1.1" id="Layer_1" xmlns="http://www.w3.org/2000/svg" xmlns:xlink="http://www.w3.org/1999/xlink" x="0px" y="0px"
	 width="216px" height="216px" viewBox="0 0 216 216" enable-background="new 0 0 216 216" xml:space="preserve">
<path fill="#D1D1D0" d="M200.73,167.586H13.407c-4.096,0-7.076-2.979-7.076-6.703s3.352-7.076,7.076-7.076h187.697
	c3.725,0,7.076,3.352,7.076,7.076C207.807,164.607,204.828,167.586,200.73,167.586L200.73,167.586z"/>
<path fill="#FFFFFF" stroke="#3B3E43" stroke-width="3" stroke-linecap="round" stroke-linejoin="round" stroke-miterlimit="10" d="
	M131.834,134.441H30.538c-2.235,0-4.097-1.862-4.097-4.097V38.731c0-2.234,1.862-4.097,4.097-4.097h125.503
	c2.234,0,4.097,1.862,4.097,4.097v49.903 M27.559,118.428h103.903"/>
<path fill="#FFFFFF" stroke="#3B3E43" stroke-width="3" stroke-linecap="round" stroke-linejoin="round" stroke-miterlimit="10" d="
	M85.655,124.759h11.172"/>
<path fill="none" stroke="#4C5C68" stroke-width="3" stroke-linecap="round" stroke-linejoin="round" stroke-miterlimit="10" d="
	M83.793,96.828v7.448 M91.241,96.828v7.448 M98.689,96.828v7.448"/>
<path fill="#FFFFFF" stroke="#3B3E43" stroke-width="3" stroke-linecap="round" stroke-linejoin="round" stroke-miterlimit="10" d="
	M74.855,134.441h37.987v18.621H74.855V134.441z M65.917,158.275v-5.213h58.097v5.213"/>
<path fill="#6DCFF6" d="M150.828,109.862H36.124V44.317h114.704v47.296V109.862z"/>
<path fill="#FFFFFF" stroke="#3B3E43" stroke-width="3" stroke-linecap="round" stroke-linejoin="round" stroke-miterlimit="10" d="
	M141.145,94.965h42.828v65.917h-42.828V94.965z"/>
<path fill="#3B3E43" d="M154.924,98.689h16.387v1.49h-16.387V98.689z"/>
<circle fill="#3B3E43" cx="163.117" cy="156.042" r="1.862"/>
<path fill="#6DCFF6" d="M146.358,101.669h32.4v51.766h-32.4V101.669z"/>
<text transform="matrix(1 0 0 1 152.3877 133.6182)" fill="#FFFFFF" font-family="'MyriadPro-Regular'" font-size="21.7621">Ks</text>
</svg>
