<?xml version="1.0" encoding="utf-8"?>
<!-- Generator: Adobe Illustrator 16.0.0, SVG Export Plug-In . SVG Version: 6.00 Build 0)  -->
<!DOCTYPE svg PUBLIC "-//W3C//DTD SVG 1.1//EN" "http://www.w3.org/Graphics/SVG/1.1/DTD/svg11.dtd">
<svg version="1.1" id="Layer_1" xmlns="http://www.w3.org/2000/svg" xmlns:xlink="http://www.w3.org/1999/xlink" x="0px" y="0px"
	 width="216px" height="216px" viewBox="0 0 216 216" enable-background="new 0 0 216 216" xml:space="preserve">
<path fill="#6DCFF6" d="M58.841,92.731h11.172v37.615H58.841V92.731z M120.662,92.731h11.172v37.615h-11.172V92.731z
	 M150.828,92.731H162v37.615h-11.172V92.731z M89.752,92.731h13.407v37.615H89.752V92.731z"/>
<path fill="#D1D1D0" d="M200.73,167.586H13.407c-4.096,0-7.076-2.979-7.076-6.703c0-3.724,3.352-7.076,7.076-7.076h187.696
	c3.726,0,7.076,3.353,7.076,7.076C207.807,164.607,204.828,167.586,200.73,167.586L200.73,167.586z"/>
<path fill="#0D3178" d="M47.296,151.945h125.131v5.213H47.296V151.945z"/>
<path fill="none" stroke="#3B3E43" stroke-width="3" stroke-linecap="round" stroke-linejoin="round" stroke-miterlimit="10" d="
	M42.828,71.131h134.814 M58.841,94.593v36.497 M70.014,94.593v36.497 M89.007,94.593v36.497 M103.159,94.593v36.497 M119.918,94.593
	v36.497 M131.462,94.593v36.497 M150.828,94.593v36.497 M162.373,94.593v36.497 M42.828,76.717h134.814 M51.021,140.771h121.034"/>
<path fill="none" stroke="#3B3E43" stroke-width="3" stroke-linecap="round" stroke-linejoin="round" stroke-miterlimit="10" d="
	M44.317,148.965h132.207v11.174H44.317V148.965z M52.51,76.717h22.345V87.89H52.51V76.717z M83.421,76.717h22.345V87.89H83.421
	V76.717z M114.331,76.717h22.345V87.89h-22.345V76.717z M145.241,76.717h22.345V87.89h-22.345V76.717z M53.255,132.207H75.6v8.193
	H53.255V132.207z M84.166,132.207h22.345v8.193H84.166V132.207z M115.076,132.207h22.345v8.193h-22.345V132.207z M145.986,132.207
	h22.345v8.193h-22.345V132.207z M50.648,67.035l60.331-40.221l59.586,39.848"/>
<path fill="#0D3178" d="M70.014,64.8l40.593-27.931l43.944,28.303L70.014,64.8z"/>
</svg>
