<?xml version="1.0" encoding="utf-8"?>
<!-- Generator: Adobe Illustrator 16.0.0, SVG Export Plug-In . SVG Version: 6.00 Build 0)  -->
<!DOCTYPE svg PUBLIC "-//W3C//DTD SVG 1.1//EN" "http://www.w3.org/Graphics/SVG/1.1/DTD/svg11.dtd">
<svg version="1.1" id="Layer_1" xmlns="http://www.w3.org/2000/svg" xmlns:xlink="http://www.w3.org/1999/xlink" x="0px" y="0px"
	 width="216px" height="216px" viewBox="0 0 216 216" enable-background="new 0 0 216 216" xml:space="preserve">
<g>
	
		<path id="XMLID_1141_" fill="#FFFFFF" stroke="#171C28" stroke-width="3" stroke-linecap="round" stroke-linejoin="round" stroke-miterlimit="10" d="
		M103.612,153.9l33.414-10.463c0,0,4.05-1.351,6.412,2.024c2.024,3.712-1.351,6.412-5.4,8.438
		c-3.712,2.023-43.875,23.287-43.875,23.287s-5.738,3.713-10.8,2.361c-5.4-1.35-32.063-12.824-32.063-12.824H38.813"/>
	
		<path id="XMLID_1140_" fill="#FFFFFF" stroke="#171C28" stroke-width="3" stroke-linecap="round" stroke-linejoin="round" stroke-miterlimit="10" d="
		M38.475,138.375h17.887l23.963,8.438h17.887c0,0,4.388,0,4.725,3.713c0,0,0.337,5.063-3.712,5.738H75.6l-5.4,3.375"/>
	
		<polyline id="XMLID_1139_" fill="#0D3178" stroke="#171C28" stroke-width="3" stroke-linecap="round" stroke-linejoin="round" stroke-miterlimit="10" points="
		11.813,131.287 38.475,131.287 38.475,173.813 11.813,173.813 	"/>
	<g id="XMLID_1120_">
		
			<path id="XMLID_1138_" fill="#FFFFFF" stroke="#171C28" stroke-width="3" stroke-linecap="round" stroke-linejoin="round" stroke-miterlimit="10" d="
			M98.212,77.625l21.263-19.237h25.649l12.487,4.05h23.963v31.388h-9.788c0,0-12.149,10.462-28.013,8.775"/>
		<g id="XMLID_1135_">
			
				<rect id="XMLID_1137_" x="49.612" y="84.375" fill="#FFFFFF" stroke="#171C28" stroke-width="3" stroke-linecap="round" stroke-linejoin="round" stroke-miterlimit="10" width="94.164" height="48.264"/>
			
				<rect id="XMLID_1136_" x="48.6" y="88.763" fill="#FFFFFF" stroke="#4C5C68" stroke-width="3" stroke-linecap="round" stroke-linejoin="round" stroke-miterlimit="10" width="89.1" height="36.112"/>
		</g>
		<g id="XMLID_1132_">
			
				<rect id="XMLID_1134_" x="47.25" y="77.625" fill="#FFFFFF" stroke="#171C28" stroke-width="3" stroke-linecap="round" stroke-linejoin="round" stroke-miterlimit="10" width="90.45" height="47.925"/>
		</g>
		<g id="XMLID_1129_">
			
				<path id="XMLID_1130_" fill="#FFFFFF" stroke="#171C28" stroke-width="3" stroke-linecap="round" stroke-linejoin="round" stroke-miterlimit="10" d="
				M127.912,104.625L127.912,104.625c-1.012,0.675-1.688,1.013-2.699,1.013c-2.363,0-4.388-2.025-4.388-4.388
				s2.024-4.388,4.388-4.388c2.362,0,4.387,2.025,4.387,4.388c0,0.675,0,1.35-0.336,1.688"/>
		</g>
		
			<path id="XMLID_1128_" fill="#FFFFFF" stroke="#171C28" stroke-width="3" stroke-linecap="round" stroke-linejoin="round" stroke-miterlimit="10" d="
			M130.95,72.9l-16.538,16.538c0,0-4.725,10.125,10.125,10.125l15.188-15.188c0,0,14.176,1.35,25.65-10.8"/>
		
			<polyline id="XMLID_1127_" fill="#0D3178" stroke="#171C28" stroke-width="3" stroke-linecap="round" stroke-linejoin="round" stroke-miterlimit="10" points="
			211.275,100.575 181.575,100.575 181.575,55.013 211.275,55.013 		"/>
		<g id="XMLID_1121_">
			
				<path id="XMLID_1122_" fill="#FFFFFF" stroke="#171C28" stroke-width="3" stroke-linecap="round" stroke-linejoin="round" stroke-miterlimit="10" d="
				M62.1,104.625C62.1,104.625,61.763,104.625,62.1,104.625c-1.013,0.675-1.688,1.013-2.7,1.013c-2.362,0-4.387-2.025-4.387-4.388
				s2.025-4.388,4.387-4.388c2.363,0,4.388,2.025,4.388,4.388c0,0.675,0,1.35-0.337,1.688"/>
		</g>
		<g id="XMLID_135_">
			
				<ellipse id="XMLID_494_" fill="#FFFFFF" stroke="#171C28" stroke-width="3" stroke-linecap="round" stroke-linejoin="round" stroke-miterlimit="10" cx="92.475" cy="101.588" rx="13.5" ry="13.5"/>
			<ellipse id="XMLID_493_" fill="#0D3178" cx="92.475" cy="101.587" rx="10.462" ry="10.462"/>
		</g>
		<g enable-background="new    ">
			<path fill="#FFFFFF" d="M86.235,95.283h1.399v5.227h0.048c0.289-0.418,0.579-0.804,0.852-1.157l3.313-4.069h1.737l-3.924,4.6
				l4.23,6.24h-1.657l-3.57-5.323l-1.029,1.19v4.133h-1.399V95.283z"/>
			<path fill="#FFFFFF" d="M94.708,104.676c0.418,0.273,1.158,0.563,1.866,0.563c1.029,0,1.512-0.515,1.512-1.158
				c0-0.675-0.402-1.045-1.447-1.431c-1.399-0.499-2.059-1.271-2.059-2.203c0-1.255,1.013-2.284,2.686-2.284
				c0.788,0,1.479,0.226,1.914,0.482l-0.354,1.029c-0.306-0.193-0.868-0.45-1.592-0.45c-0.836,0-1.303,0.482-1.303,1.062
				c0,0.644,0.467,0.933,1.48,1.318c1.351,0.515,2.042,1.19,2.042,2.349c0,1.367-1.062,2.332-2.911,2.332
				c-0.853,0-1.641-0.209-2.187-0.531L94.708,104.676z"/>
		</g>
	</g>
</g>
</svg>
