<?xml version="1.0" encoding="utf-8"?>
<!-- Generator: Adobe Illustrator 16.0.0, SVG Export Plug-In . SVG Version: 6.00 Build 0)  -->
<!DOCTYPE svg PUBLIC "-//W3C//DTD SVG 1.1//EN" "http://www.w3.org/Graphics/SVG/1.1/DTD/svg11.dtd">
<svg version="1.1" id="Layer_1" xmlns="http://www.w3.org/2000/svg" xmlns:xlink="http://www.w3.org/1999/xlink" x="0px" y="0px"
	 width="120.25px" height="120.25px" viewBox="0 0 120.25 120.25" enable-background="new 0 0 120.25 120.25" xml:space="preserve">
<path fill="#F7F7F7" d="M61.084,2.751C29.47,2.751,3.75,28.471,3.75,60.085c0,31.613,25.72,57.333,57.334,57.333
	c31.613,0,57.333-25.72,57.333-57.333C118.417,28.471,92.697,2.751,61.084,2.751z"/>
<path fill="#FFFFFF" d="M26,82.25h13v17H26V82.25z M42,102.25v8.342c5,1.997,10.447,3.271,16.098,3.674
	c0.3,0.021-0.098,0.034,0.902,0.051V102.25H42z M26,62.25h13v17H26V62.25z M62,102.25v12.143c6-0.106,11-1.172,17-3.047v-9.096H62z
	 M27.717,102.25c3.371,3,7.283,5.198,11.283,7.052v-7.052H27.717z M26,44.25h13v15H26V44.25z M42,44.25h17v15H42V44.25z M62,82.25
	h17v17H62V82.25z M42,62.25h17v17H42V62.25z M82,110.184c4-1.979,8.848-3.934,12.777-7.934H82V110.184z M42,82.25h17v17H42V82.25z
	 M62,62.25h17v17H62V62.25z M82,82.25h15v17H82V82.25z"/>
<path fill="none" d="M62,82.25h17v17H62V82.25z M42,62.25h17v17H42V62.25z M42,82.25h17v17H42V82.25z"/>
<path fill="#6DCFF6" d="M78.75,79.25H62v-35h-3v15H42v-15h-3v15H26v3h13v17H26v3h13v17H26v1.516c0,0.566,1.05,1.484,1.717,1.484H39
	v7.052c1,0.462,2,0.89,3,1.29v-8.342h17v12.066c1,0.048,1.686,0.084,2.537,0.091L62,114.391V102.25h17v9.096
	c1-0.355,2-0.748,3-1.162v-7.934h12.777c0.67,0,1.223-0.925,2.223-1.495V99.25H82v-17h15v-3H78.75z M59,99.25H42v-17h17V99.25z
	 M59,79.25H42v-17h17V79.25z M79,99.25H62v-17h17V99.25z"/>
<path fill="#FFFFFF" d="M61.75,44.167v0.25H62L61.75,44.167z M96.75,79.209v0.208h0.208L96.75,79.209z M62,44v35.25h35v-0.041L62,44
	z"/>
<linearGradient id="SVGID_1_" gradientUnits="userSpaceOnUse" x1="423.6895" y1="691.4111" x2="512.8957" y2="780.6183" gradientTransform="matrix(1 0 0 1 -396 -670.75)">
	<stop  offset="0.606" style="stop-color:#000000;stop-opacity:0.8"/>
	<stop  offset="0.995" style="stop-color:#FFFFFF;stop-opacity:0"/>
</linearGradient>
<path fill="url(#SVGID_1_)" d="M97,79.189v21.564c2-1.652,3.482-3.443,5.107-5.338c1.703-1.984,3.315-4.104,4.725-6.32L97,79.189
	L97,79.189z"/>
<linearGradient id="SVGID_2_" gradientUnits="userSpaceOnUse" x1="480.5371" y1="725.3779" x2="513.5396" y2="758.3793" gradientTransform="matrix(1 0 0 1 -396 -670.75)">
	<stop  offset="0" style="stop-color:#000000;stop-opacity:0.3"/>
	<stop  offset="0.995" style="stop-color:#FFFFFF;stop-opacity:0"/>
</linearGradient>
<path fill="url(#SVGID_2_)" d="M115.391,59.042L98.51,42.161l-9.787,16.115l1.019,1.017l-18.423,8.555l29.394,29.393
	c9.114-9.719,14.707-22.779,14.707-37.153L115.391,59.042z"/>
<path fill="#0D3178" d="M84.792,36.167c-6.354,0-11.965,3.17-15.347,8.014c-2.117,3.031-3.362,6.718-3.362,10.695
	c0,10.332,8.376,18.708,18.709,18.708c3.978,0,7.663-1.245,10.694-3.361c4.844-3.383,8.014-8.992,8.014-15.347
	C103.5,44.544,95.123,36.167,84.792,36.167z"/>
<g>
	<path fill="#FFFFFF" d="M75.299,45.445h2.095v7.826h0.072c0.434-0.626,0.867-1.204,1.276-1.734l4.96-6.092h2.601l-5.875,6.887
		l6.332,9.342H84.28l-5.346-7.97l-1.541,1.782v6.188h-2.095V45.445z"/>
	<path fill="#FFFFFF" d="M87.986,59.507c0.626,0.409,1.733,0.843,2.793,0.843c1.541,0,2.264-0.771,2.264-1.734
		c0-1.011-0.603-1.565-2.167-2.143c-2.095-0.746-3.082-1.902-3.082-3.298c0-1.878,1.517-3.419,4.021-3.419
		c1.181,0,2.216,0.337,2.865,0.723l-0.529,1.541c-0.457-0.289-1.3-0.674-2.384-0.674c-1.252,0-1.95,0.722-1.95,1.589
		c0,0.963,0.698,1.396,2.215,1.974c2.022,0.771,3.059,1.782,3.059,3.516c0,2.046-1.59,3.492-4.358,3.492
		c-1.276,0-2.456-0.313-3.274-0.795L87.986,59.507z"/>
</g>
</svg>
