<?xml version="1.0" encoding="utf-8"?>
<!-- Generator: Adobe Illustrator 16.0.0, SVG Export Plug-In . SVG Version: 6.00 Build 0)  -->
<!DOCTYPE svg PUBLIC "-//W3C//DTD SVG 1.1//EN" "http://www.w3.org/Graphics/SVG/1.1/DTD/svg11.dtd">
<svg version="1.1" id="Layer_1" xmlns="http://www.w3.org/2000/svg" xmlns:xlink="http://www.w3.org/1999/xlink" x="0px" y="0px"
	 width="216px" height="216px" viewBox="0 0 216 216" enable-background="new 0 0 216 216" xml:space="preserve">
<g>
	
		<path fill="#FFFFFF" stroke="#171C28" stroke-width="3" stroke-linecap="round" stroke-linejoin="round" stroke-miterlimit="10" d="
		M182.925,138.375c16.538-41.513-3.036-88.763-44.55-105.3C108,20.587,74.25,28.35,51.975,49.612"/>
	<g>
		
			<line fill="none" stroke="#171C28" stroke-width="3" stroke-linecap="round" stroke-linejoin="round" stroke-miterlimit="10" x1="64.8" y1="18.563" x2="51.638" y2="50.962"/>
		
			<line fill="none" stroke="#171C28" stroke-width="3" stroke-linecap="round" stroke-linejoin="round" stroke-miterlimit="10" x1="84.038" y1="64.125" x2="51.638" y2="50.962"/>
	</g>
	<g>
		
			<path fill="#FFFFFF" stroke="#171C28" stroke-width="3" stroke-linecap="round" stroke-linejoin="round" stroke-miterlimit="10" d="
			M163.688,166.389C141.75,187.65,108,195.412,77.625,182.925c-41.175-16.875-61.087-63.786-44.55-105.3"/>
		
			<line fill="none" stroke="#171C28" stroke-width="3" stroke-linecap="round" stroke-linejoin="round" stroke-miterlimit="10" x1="151.2" y1="197.438" x2="164.361" y2="165.037"/>
		
			<line fill="none" stroke="#171C28" stroke-width="3" stroke-linecap="round" stroke-linejoin="round" stroke-miterlimit="10" x1="131.963" y1="151.875" x2="164.361" y2="165.037"/>
	</g>
</g>
<g>
	
		<polyline id="XMLID_1756_" fill="#FFFFFF" stroke="#171C28" stroke-width="3" stroke-linecap="round" stroke-linejoin="round" stroke-miterlimit="10" points="
		154.236,83.025 154.236,114.075 61.763,114.075 61.763,74.587 154.236,74.587 	"/>
	<g id="XMLID_642_">
		
			<line id="XMLID_1755_" fill="none" stroke="#171C28" stroke-width="3" stroke-linecap="round" stroke-linejoin="round" stroke-miterlimit="10" x1="61.763" y1="120.825" x2="154.236" y2="120.825"/>
		
			<line id="XMLID_1754_" fill="none" stroke="#171C28" stroke-width="3" stroke-linecap="round" stroke-linejoin="round" stroke-miterlimit="10" x1="61.763" y1="127.912" x2="154.236" y2="127.912"/>
		
			<line id="XMLID_1658_" fill="none" stroke="#171C28" stroke-width="3" stroke-linecap="round" stroke-linejoin="round" stroke-miterlimit="10" x1="61.763" y1="134.325" x2="154.236" y2="134.325"/>
		
			<line id="XMLID_1472_" fill="none" stroke="#171C28" stroke-width="3" stroke-linecap="round" stroke-linejoin="round" stroke-miterlimit="10" x1="61.763" y1="141.412" x2="154.236" y2="141.412"/>
	</g>
	
		<polyline id="XMLID_640_" fill="none" stroke="#171C28" stroke-width="3" stroke-linecap="round" stroke-linejoin="round" stroke-miterlimit="10" points="
		137.7,81 141.75,81 146.139,88.087 146.139,97.2 142.088,101.25 134.325,101.25 	"/>
	
		<polyline id="XMLID_636_" fill="none" stroke="#171C28" stroke-width="3" stroke-linecap="round" stroke-linejoin="round" stroke-miterlimit="10" points="
		80.325,81 74.587,81 68.513,88.087 68.513,97.2 74.25,101.25 80.325,101.25 	"/>
	<g id="XMLID_39_">
		
			<ellipse id="XMLID_635_" fill="#FFFFFF" stroke="#171C28" stroke-width="3" stroke-linecap="round" stroke-linejoin="round" stroke-miterlimit="10" cx="109.014" cy="94.5" rx="13.5" ry="13.5"/>
		<ellipse id="XMLID_634_" fill="#0D3178" cx="109.014" cy="94.5" rx="10.462" ry="10.462"/>
	</g>
	<g enable-background="new    ">
		<path fill="#FFFFFF" d="M103.186,88.682h1.369v5.113h0.047c0.283-0.409,0.566-0.787,0.834-1.133l3.24-3.98h1.699l-3.838,4.5
			l4.137,6.104h-1.62l-3.492-5.207l-1.007,1.164v4.043h-1.369V88.682z"/>
		<path fill="#FFFFFF" d="M111.477,97.869c0.41,0.268,1.133,0.551,1.826,0.551c1.006,0,1.479-0.504,1.479-1.133
			c0-0.66-0.394-1.022-1.416-1.4c-1.369-0.487-2.014-1.242-2.014-2.155c0-1.227,0.99-2.233,2.627-2.233
			c0.771,0,1.447,0.22,1.872,0.472l-0.347,1.007c-0.299-0.188-0.849-0.44-1.557-0.44c-0.818,0-1.274,0.472-1.274,1.038
			c0,0.63,0.456,0.913,1.447,1.29c1.321,0.504,1.998,1.164,1.998,2.297c0,1.338-1.038,2.281-2.848,2.281
			c-0.833,0-1.604-0.204-2.14-0.52L111.477,97.869z"/>
	</g>
</g>
</svg>
