<?xml version="1.0" encoding="utf-8"?>
<!-- Generator: Adobe Illustrator 16.0.0, SVG Export Plug-In . SVG Version: 6.00 Build 0)  -->
<!DOCTYPE svg PUBLIC "-//W3C//DTD SVG 1.1//EN" "http://www.w3.org/Graphics/SVG/1.1/DTD/svg11.dtd">
<svg version="1.1" id="Layer_1" xmlns="http://www.w3.org/2000/svg" xmlns:xlink="http://www.w3.org/1999/xlink" x="0px" y="0px"
	 width="500px" height="500px" viewBox="0 0 500 500" enable-background="new 0 0 500 500" xml:space="preserve">
<path fill="#00984A" d="M212.309,333.584l43.333-43.333l-43.084-43.084l43.333-43.333L212.559,160.5l29.185-29.185
	c-12.616-11.441-31.176-21.546-57.407-21.546c-56.392,0-94.271,52.24-94.271,101.028c0,71.023,136.427,166.212,151.982,176.828
	c0.588,0.4,1.2,0.752,1.827,1.061l11.768-11.768L212.309,333.584L212.309,333.584z M410.932,210.797
	c0.002-48.788-37.882-101.028-94.278-101.028c-18.794,0-33.648,5.192-45.204,12.346l0.354,0.354L233.772,160.5l43.333,43.333
	l-43.333,43.333l43.083,43.084l-43.333,43.333l42.145,42.146C316.276,345.883,410.932,269.961,410.932,210.797z"/>
</svg>
