<?xml version="1.0" encoding="utf-8"?>
<!-- Generator: Adobe Illustrator 16.0.0, SVG Export Plug-In . SVG Version: 6.00 Build 0)  -->
<!DOCTYPE svg PUBLIC "-//W3C//DTD SVG 1.1//EN" "http://www.w3.org/Graphics/SVG/1.1/DTD/svg11.dtd">
<svg version="1.1" id="Layer_1" xmlns="http://www.w3.org/2000/svg" xmlns:xlink="http://www.w3.org/1999/xlink" x="0px" y="0px"
	 width="216px" height="216px" viewBox="0 0 216 216" enable-background="new 0 0 216 216" xml:space="preserve">
<g>
	
		<path fill="#FFFFFF" stroke="#171C28" stroke-width="3" stroke-linecap="round" stroke-linejoin="round" stroke-miterlimit="10" d="
		M103.275,197.1H32.4c-2.025,0-3.375-1.35-3.375-3.375v-60.75c0-2.023,1.35-3.375,3.375-3.375h70.875
		c2.025,0,3.375,1.352,3.375,3.375v60.75C106.65,195.412,104.962,197.1,103.275,197.1z"/>
	
		<line fill="none" stroke="#171C28" stroke-width="3" stroke-linecap="round" stroke-linejoin="round" stroke-miterlimit="10" x1="29.025" y1="146.475" x2="106.65" y2="146.475"/>
	
		<line fill="none" stroke="#171C28" stroke-width="3" stroke-linecap="round" stroke-linejoin="round" stroke-miterlimit="10" x1="93.15" y1="119.475" x2="93.15" y2="136.35"/>
	
		<line fill="none" stroke="#171C28" stroke-width="3" stroke-linecap="round" stroke-linejoin="round" stroke-miterlimit="10" x1="42.525" y1="119.475" x2="42.525" y2="136.35"/>
	
		<path fill="#FFFFFF" stroke="#171C28" stroke-width="3" stroke-linecap="round" stroke-linejoin="round" stroke-miterlimit="10" d="
		M49.275,176.85L49.275,176.85c0,3.713,3.038,6.75,6.75,6.75H59.4c3.712,0,6.75-3.037,6.75-6.75l0,0l0,0
		c0-3.711-3.038-6.75-6.75-6.75h-3.375H59.4c3.712,0,6.75-3.037,6.75-6.75l0,0l0,0c0-3.711-3.038-6.75-6.75-6.75h-3.375
		c-3.712,0-6.75,3.039-6.75,6.75l0,0"/>
	
		<polyline fill="#FFFFFF" stroke="#171C28" stroke-width="3" stroke-linecap="round" stroke-linejoin="round" stroke-miterlimit="10" points="
		83.025,183.6 83.025,156.6 76.275,163.35 	"/>
</g>
<g>
	<g id="XMLID_1787_">
		<path id="XMLID_1806_" fill="#FFFFFF" d="M169.764,73.575l17.549,18.9V121.5l-4.725,14.175v27H147.15v-10.8
			c0,0-10.463-14.85-10.125-27"/>
		<g id="XMLID_1804_">
			
				<rect id="XMLID_1805_" x="111.654" y="18.437" fill="#FFFFFF" stroke="#171C28" stroke-width="3" stroke-linecap="round" stroke-linejoin="round" stroke-miterlimit="10" width="54" height="94.836"/>
		</g>
		
			<path id="XMLID_1803_" fill="none" stroke="#171C28" stroke-width="3" stroke-linecap="round" stroke-linejoin="round" stroke-miterlimit="10" d="
			M169.764,73.575l17.549,18.9V121.5l-4.725,14.175v27H147.15v-10.8c0,0-10.463-14.85-10.125-27"/>
		
			<polyline id="XMLID_1802_" fill="none" stroke="#171C28" stroke-width="3" stroke-linecap="round" stroke-linejoin="round" stroke-miterlimit="10" points="
			128.25,89.438 128.25,96.525 133.65,101.25 142.764,101.25 148.5,97.2 148.5,89.438 		"/>
		
			<path id="XMLID_1801_" fill="#FFFFFF" stroke="#171C28" stroke-width="3" stroke-linecap="round" stroke-linejoin="round" stroke-miterlimit="10" d="
			M171.111,105.638l-18.898-18.9c0,0-11.477-5.4-11.477,11.475l16.875,16.875c0,0-1.35,15.862,11.813,28.688"/>
		
			<polyline id="XMLID_1800_" fill="#0D3178" stroke="#171C28" stroke-width="3" stroke-linecap="round" stroke-linejoin="round" stroke-miterlimit="10" points="
			139.725,195.75 139.725,162.338 191.025,162.338 191.025,195.75 		"/>
		
			<polyline id="XMLID_1799_" fill="none" stroke="#171C28" stroke-width="3" stroke-linecap="round" stroke-linejoin="round" stroke-miterlimit="10" points="
			148.5,39.825 148.5,32.737 142.764,28.013 133.65,28.013 128.25,32.063 128.25,39.825 		"/>
		<g id="XMLID_1791_">
			
				<ellipse id="XMLID_1798_" fill="#FFFFFF" stroke="#171C28" stroke-width="3" stroke-linecap="round" stroke-linejoin="round" stroke-miterlimit="10" cx="139.05" cy="64.463" rx="16.2" ry="16.2"/>
			<ellipse id="XMLID_1797_" fill="#0D3178" cx="139.05" cy="64.463" rx="12.825" ry="12.825"/>
		</g>
	</g>
	<g enable-background="new    ">
		<path fill="#FFFFFF" d="M131.948,72.136v-1.647h6.154v-0.057c-0.492-0.341-0.947-0.682-1.363-1.003l-4.791-3.901v-2.045
			l5.415,4.62l7.348-4.98v1.95l-6.268,4.204l1.401,1.212h4.866v1.647H131.948z"/>
		<path fill="#FFFFFF" d="M143.007,62.16c0.321-0.492,0.663-1.363,0.663-2.196c0-1.212-0.606-1.78-1.364-1.78
			c-0.795,0-1.23,0.474-1.685,1.705c-0.587,1.647-1.496,2.424-2.595,2.424c-1.477,0-2.688-1.193-2.688-3.163
			c0-0.928,0.265-1.742,0.567-2.253l1.212,0.417c-0.227,0.36-0.53,1.023-0.53,1.875c0,0.984,0.568,1.534,1.25,1.534
			c0.758,0,1.099-0.549,1.553-1.742c0.606-1.591,1.401-2.405,2.765-2.405c1.609,0,2.746,1.25,2.746,3.427
			c0,1.004-0.246,1.932-0.625,2.576L143.007,62.16z"/>
	</g>
</g>
</svg>
