<?xml version="1.0" encoding="utf-8"?>
<!-- Generator: Adobe Illustrator 23.0.1, SVG Export Plug-In . SVG Version: 6.00 Build 0)  -->
<svg version="1.1" id="Layer_1" xmlns="http://www.w3.org/2000/svg" xmlns:xlink="http://www.w3.org/1999/xlink" x="0px" y="0px"
	 viewBox="0 0 64 64" style="enable-background:new 0 0 64 64;" xml:space="preserve">
<style type="text/css">
	.Drop_x0020_Shadow{fill:none;}
	.Outer_x0020_Glow_x0020_5_x0020_pt{fill:none;}
	.Blue_x0020_Neon{fill:none;stroke:#8AACDA;stroke-width:7;stroke-linecap:round;stroke-linejoin:round;}
	.Chrome_x0020_Highlight{fill:url(#SVGID_1_);stroke:#FFFFFF;stroke-width:0.3629;stroke-miterlimit:1;}
	.Jive_GS{fill:#FFDD00;}
	.Alyssa_GS{fill:#A6D0E4;}
	.st0{fill:#FFFFFF;stroke:#171C28;stroke-linecap:round;stroke-linejoin:round;stroke-miterlimit:10;}
	.st1{fill:#FFFFFF;}
	.st2{fill:#171C28;}
	.st3{fill:none;stroke:#4C5C68;stroke-width:0.9106;stroke-miterlimit:10;}
	.st4{fill:none;stroke:#171C28;stroke-linecap:round;stroke-linejoin:round;stroke-miterlimit:10;}
	.st5{fill:none;stroke:#4C5C68;stroke-width:1.0828;stroke-linecap:round;stroke-linejoin:round;stroke-miterlimit:10;}
	.st6{fill:none;stroke:#4C5C68;stroke-width:1.1103;stroke-linecap:round;stroke-linejoin:round;stroke-miterlimit:10;}
	.st7{fill:#C74634;stroke:#171C28;stroke-linecap:round;stroke-linejoin:round;stroke-miterlimit:10;}
	.st8{fill:#C74634;}
	.st9{fill:#FFFFFF;stroke:#171C28;stroke-width:0.9273;stroke-linecap:round;stroke-linejoin:round;stroke-miterlimit:10;}
	.st10{fill:#4C5C68;}
	.st11{fill:#FFFFFF;stroke:#171C28;stroke-width:0.9403;stroke-linecap:round;stroke-linejoin:round;stroke-miterlimit:10;}
	.st12{fill:none;stroke:#4C5C68;stroke-linecap:round;stroke-linejoin:round;stroke-miterlimit:10;}
	.st13{fill:#CEE8FA;}
	.st14{fill:#CEE8FA;stroke:#4C5C68;stroke-linecap:round;stroke-linejoin:round;stroke-miterlimit:10;}
	.st15{fill:#F9CA38;stroke:#4C5C68;stroke-linecap:round;stroke-linejoin:round;stroke-miterlimit:10;}
	.st16{fill:#FFFFFF;stroke:#4C5C68;stroke-linecap:round;stroke-linejoin:round;stroke-miterlimit:10;}
	.st17{fill:#FFFFFF;stroke:#FEBD2E;stroke-linecap:round;stroke-linejoin:round;stroke-miterlimit:10;}
	.st18{fill:#FEBD2E;stroke:#4C5C68;stroke-linecap:round;stroke-linejoin:round;stroke-miterlimit:10;}
	.st19{fill:#286090;}
	.st20{fill:#F9CA38;}
	.st21{fill:#FFFFFF;stroke:#4C5C68;stroke-width:1.2173;stroke-linecap:round;stroke-linejoin:round;stroke-miterlimit:10;}
	.st22{fill:#FFFFFF;stroke:#4C5C68;stroke-width:0.8881;stroke-linecap:round;stroke-linejoin:round;stroke-miterlimit:10;}
	.st23{fill:none;stroke:#CEE8FA;stroke-width:1.0985;stroke-linecap:round;stroke-linejoin:round;stroke-miterlimit:10;}
	.st24{opacity:0.6;fill:#286090;}
	.st25{fill:none;stroke:#4C5C68;stroke-width:1.0254;stroke-linecap:round;stroke-linejoin:round;stroke-miterlimit:10;}
	.st26{fill:#FFFFFF;stroke:#4C5C68;stroke-miterlimit:10;}
	.st27{fill:none;stroke:#286090;stroke-linecap:round;stroke-linejoin:round;stroke-miterlimit:10;stroke-dasharray:0,2;}
	.st28{fill:none;stroke:#286090;stroke-linecap:round;stroke-linejoin:round;stroke-miterlimit:10;}
	.st29{fill:#FEBD2E;}
	.st30{fill:none;stroke:#CEE8FA;stroke-linecap:round;stroke-linejoin:round;stroke-miterlimit:10;}
	.st31{fill:#FFFFFF;stroke:#171C28;stroke-miterlimit:10;}
	.st32{fill:#FFFFFF;stroke:#171C28;stroke-width:1.0268;stroke-linecap:round;stroke-linejoin:round;stroke-miterlimit:10;}
	.st33{fill:none;stroke:#171C28;stroke-width:1.0268;stroke-linecap:round;stroke-linejoin:round;stroke-miterlimit:10;}
	.st34{fill:#6B6B6B;}
	.st35{fill:none;stroke:#FFFFFF;stroke-width:1.0985;stroke-linecap:round;stroke-linejoin:round;stroke-miterlimit:10;}
	.st36{fill:#FFFFFF;stroke:#171C28;stroke-width:1.0688;stroke-linecap:round;stroke-linejoin:round;stroke-miterlimit:10;}
	.st37{fill:none;stroke:#4C5C68;stroke-width:1.1073;stroke-linecap:round;stroke-linejoin:round;stroke-miterlimit:10;}
	.st38{fill:none;stroke:#4C5C68;stroke-width:1.0096;stroke-linecap:round;stroke-linejoin:round;stroke-miterlimit:10;}
	.st39{fill:#FFFFFF;stroke:#171C28;stroke-width:1.1331;stroke-linecap:round;stroke-linejoin:round;stroke-miterlimit:10;}
	.st40{fill:none;stroke:#171C28;stroke-linecap:round;stroke-linejoin:round;stroke-miterlimit:10;stroke-dasharray:0,2;}
	.st41{fill:none;stroke:#BC0110;stroke-linecap:round;stroke-linejoin:round;stroke-miterlimit:10;}
	.st42{fill:none;stroke:#333333;stroke-width:2;stroke-linecap:round;stroke-linejoin:round;stroke-miterlimit:10;}
	.st43{fill:#FFFFFF;stroke:#171C28;stroke-width:1.211;stroke-linecap:round;stroke-linejoin:round;stroke-miterlimit:10;}
	.st44{fill:#171C28;stroke:#000000;stroke-width:0.2;stroke-linecap:round;stroke-linejoin:round;stroke-miterlimit:10;}
	.st45{fill:#FFFFFF;stroke:#4C5C68;stroke-width:0.9531;stroke-linecap:round;stroke-linejoin:round;stroke-miterlimit:10;}
	.st46{fill:#5FB0E5;}
	.st47{fill:#D2E9F7;}
	.st48{fill:#0686D8;}
	.st49{fill:#9ECFEF;}
	.st50{fill:none;stroke:#4C5C68;stroke-miterlimit:10;}
	.st51{fill:#4C5C68;stroke:#4C5C68;stroke-width:0.4;stroke-linecap:round;stroke-linejoin:round;stroke-miterlimit:10;}
	.st52{fill:#FED65C;}
	.st53{fill:none;stroke:#FFFFFF;stroke-linecap:round;stroke-linejoin:round;stroke-miterlimit:10;}
	.st54{fill:#EBF0F2;}
	.st55{fill:#B8D1CD;}
	.st56{fill:#DCEAE7;}
	.st57{fill:#EFB19E;}
	.st58{fill:#CCED9F;}
	.st59{fill:#A4EDE6;}
	.st60{fill:#111416;}
	.st61{fill:#567771;}
	.st62{fill:#FACC40;}
	.st63{fill:#FFF380;}
	.st64{fill:#E2932B;}
	.st65{fill:#78A09A;}
	.st66{fill:#253330;}
	.st67{fill:#FFFFFF;stroke:#4C5C68;stroke-width:1.1677;stroke-linecap:round;stroke-linejoin:round;stroke-miterlimit:10;}
	.st68{fill:#FFFFFF;stroke:#4C5C68;stroke-width:1.1657;stroke-linecap:round;stroke-linejoin:round;stroke-miterlimit:10;}
	.st69{fill:#FFFFFF;stroke:#171C28;stroke-width:0.9983;stroke-linecap:round;stroke-linejoin:round;stroke-miterlimit:10;}
	.st70{fill:#FFFFFF;stroke:#171C28;stroke-width:1.0727;stroke-linecap:round;stroke-linejoin:round;stroke-miterlimit:10;}
	.st71{fill:#C74634;stroke:#FFFFFF;stroke-linecap:round;stroke-linejoin:round;stroke-miterlimit:10;}
	.st72{fill:#CEE8FA;stroke:#4C5C68;stroke-width:0.965;stroke-linecap:round;stroke-linejoin:round;stroke-miterlimit:10;}
	.st73{fill:#41464B;}
	.st74{fill:#FFFFFF;stroke:#171C28;stroke-width:1.1013;stroke-linecap:round;stroke-linejoin:round;stroke-miterlimit:10;}
	.st75{fill:none;stroke:#171C28;stroke-width:1.1013;stroke-linecap:round;stroke-linejoin:round;stroke-miterlimit:10;}
	.st76{fill:#C74634;stroke:#171C28;stroke-width:1.1013;stroke-linecap:round;stroke-linejoin:round;stroke-miterlimit:10;}
	.st77{stroke:#171C28;stroke-linecap:round;stroke-linejoin:round;stroke-miterlimit:10;}
	.st78{fill:#FFFFFF;stroke:#171C28;stroke-width:0.9891;stroke-linecap:round;stroke-linejoin:round;stroke-miterlimit:10;}
	.st79{fill:none;stroke:#171C28;stroke-width:0.5274;stroke-linecap:round;stroke-linejoin:round;stroke-miterlimit:10;}
	.st80{fill:none;stroke:#4C5C68;stroke-width:1.1135;stroke-linecap:round;stroke-linejoin:round;stroke-miterlimit:10;}
	.st81{fill:#F9CA38;stroke:#4C5C68;stroke-width:1.1723;stroke-miterlimit:10;}
	.st82{fill:none;stroke:#4C5C68;stroke-width:1.0796;stroke-linecap:round;stroke-linejoin:round;stroke-miterlimit:10;}
	.st83{fill:none;stroke:#4C5C68;stroke-width:1.136;stroke-linecap:round;stroke-linejoin:round;stroke-miterlimit:10;}
	.st84{fill:#FFFFFF;stroke:#4C5C68;stroke-width:1.0796;stroke-linecap:round;stroke-linejoin:round;stroke-miterlimit:10;}
	.st85{fill:#007395;}
	.st86{fill:#FFFFFF;stroke:#171C28;stroke-width:0.8477;stroke-linecap:round;stroke-linejoin:round;stroke-miterlimit:10;}
	.st87{fill:#FFFFFF;stroke:#171C28;stroke-width:1.0138;stroke-linecap:round;stroke-linejoin:round;stroke-miterlimit:10;}
	.st88{fill:#FFFFFF;stroke:#171C28;stroke-width:0.9779;stroke-linecap:round;stroke-linejoin:round;stroke-miterlimit:10;}
	.st89{fill:none;stroke:#595959;stroke-width:1.6811;stroke-linecap:round;stroke-linejoin:round;}
	.st90{fill:none;stroke:#595959;stroke-width:1.6811;stroke-miterlimit:10;}
</style>
<linearGradient id="SVGID_1_" gradientUnits="userSpaceOnUse" x1="-801" y1="-918.0768" x2="-801" y2="-919.0768">
	<stop  offset="0" style="stop-color:#656565"/>
	<stop  offset="0.618" style="stop-color:#1B1B1B"/>
	<stop  offset="0.6292" style="stop-color:#545454"/>
	<stop  offset="0.9831" style="stop-color:#3E3E3E"/>
</linearGradient>
<g>
	<rect x="7.8" y="18.7" class="st0" width="48.3" height="20.1"/>
	<rect x="17.5" y="32.5" class="st0" width="29" height="26"/>
	<rect x="17.1" y="6" class="st0" width="29.7" height="12.7"/>
	<circle class="st2" cx="51.7" cy="22.9" r="1"/>
	<circle class="st2" cx="48.4" cy="22.9" r="1"/>
	<g>
		<rect x="23.6" y="42.1" class="st8" width="21.3" height="7.2"/>
		<g>
			<g>
				<path class="st1" d="M25.2,44.6l-0.8,1v0l1.2-0.2V46l-1.2-0.1v0l0.8,1l-0.5,0.3L24.2,46h0l-0.5,1.1l-0.5-0.3l0.8-1v0L22.8,46
					v-0.6l1.2,0.2v0l-0.8-1l0.5-0.3l0.5,1.1h0l0.5-1.1L25.2,44.6z"/>
			</g>
			<g>
				<path class="st1" d="M30.6,44.6l-0.8,1v0l1.2-0.2V46l-1.2-0.1v0l0.8,1l-0.5,0.3L29.6,46h0l-0.5,1.1l-0.5-0.3l0.8-1v0L28.2,46
					v-0.6l1.2,0.2v0l-0.8-1l0.5-0.3l0.5,1.1h0l0.5-1.1L30.6,44.6z"/>
			</g>
			<g>
				<path class="st1" d="M36,44.6l-0.8,1v0l1.2-0.2V46l-1.2-0.1v0l0.8,1l-0.5,0.3L35,46h0l-0.5,1.1L34,46.9l0.8-1v0L33.6,46v-0.6
					l1.2,0.2v0l-0.8-1l0.5-0.3l0.5,1.1h0l0.5-1.1L36,44.6z"/>
			</g>
			<g>
				<path class="st1" d="M41.4,44.6l-0.8,1v0l1.2-0.2V46l-1.2-0.1v0l0.8,1l-0.5,0.3L40.4,46h0l-0.5,1.1l-0.5-0.3l0.8-1v0L39,46v-0.6
					l1.2,0.2v0l-0.8-1l0.5-0.3l0.5,1.1h0l0.5-1.1L41.4,44.6z"/>
			</g>
		</g>
		<g>
			<path class="st1" d="M25,44.6h-4.6v-1.3c0-1.2,1-2.2,2.2-2.2h0.3c1.2,0,2.2,1,2.2,2.2V44.6z"/>
			<rect x="19.4" y="44.8" class="st1" width="6.4" height="4.6"/>
			<g>
				<path class="st2" d="M26.1,44.4h-0.7v-1c0-1.5-1.2-2.8-2.8-2.8c-1.4,0-2.6,1.1-2.8,2.5c0,0.1,0,0.2,0,0.3v1h-0.5
					c0,0-0.1,0-0.1,0c-0.1,0-0.2,0-0.3,0c0,0-0.1,0.1-0.1,0.1v5c0,0.2,0.2,0.4,0.4,0.4h6.7c0.1,0,0.1,0,0.1-0.1
					c0.1-0.1,0.1-0.2,0-0.3c0,0,0-0.1,0-0.1v-5C26.4,44.6,26.4,44.4,26.1,44.4z M20.6,43.4c0-1.2,0.9-2.1,2.1-2.1
					c1.2,0,2.1,1,2.1,2.1v1h-4.2V43.4z M20.4,43.4c0-0.1,0-0.2,0-0.2C20.4,43.2,20.4,43.3,20.4,43.4z M19.7,45h0.7h4.9h0.4v4.2h-6
					V45z"/>
				<path class="st2" d="M22.7,46.9c-0.2,0-0.3,0.1-0.3,0.3v1.1c0,0.2,0.1,0.3,0.3,0.3s0.3-0.1,0.3-0.3v-1.1
					C23,47.1,22.9,46.9,22.7,46.9z"/>
			</g>
		</g>
	</g>
	<line class="st0" x1="13" y1="32.5" x2="51" y2="32.5"/>
</g>
</svg>
