<svg xmlns="http://www.w3.org/2000/svg" width="120.25" height="120.25" viewBox="974 171 120.25 120.25" enable-background="new 974 171 120.25 120.25"><path fill="#F7F7F7" d="M1034.334 173.334c-31.614 0-57.334 25.72-57.334 57.334 0 31.613 25.72 57.333 57.334 57.333 31.613 0 57.333-25.72 57.333-57.333 0-31.614-25.72-57.334-57.333-57.334zm35.666 34.291l18.491 18.679c-2.135-28.054-25.558-50.063-54.157-50.063-30.008 0-54.521 24.373-54.521 54.381 0 16.036 6.813 30.492 17.813 40.438v-63.434h72.374zm-.375 64.012c12-9.961 18.854-24.615 18.854-40.969 0-1.407-.164-2.797-.27-4.177l-18.584-18.491v63.637z"/><linearGradient id="a" gradientUnits="userSpaceOnUse" x1="1045.889" y1="239.818" x2="1115.708" y2="239.818"><stop offset="0" stop-opacity=".3"/><stop offset=".995" stop-color="#fff" stop-opacity="0"/></linearGradient><path fill="url(#a)" d="M1069.625 271.637c12-9.961 18.854-24.615 18.854-40.969 0-1.407-.164-2.797-.27-4.177l-18.584-18.491v63.637z"/><path fill="#42C6BF" d="M997.625 207.625v63.434c3 2.738 7 5.133 10 7.135v-58.568h3v60.118c7 3.368 15.168 5.258 23.521 5.258 5.221 0 10.169-.751 14.947-2.126 7.719-2.221 14.531-6.102 20.531-11.238v-64.012h-71.999zm19 16h38v3h-38v-3zm0 10h24v3h-24v-3zm0 10h31v3h-31v-3zm24 23h-24v-3h24v3zm14-10h-38v-3h38.361-.361v3z"/><path fill="#F7F7F7" d="M1016.625 223.625h38v3h-38zm-9-4v58.568c1 .545 2 1.064 3 1.55v-60.118h-3zm9 14h24v3h-24zm0 10h31v3h-31zm38.361 10h-38.361v3h38v-3zm-38.361 10h24v3h-24z"/><linearGradient id="b" gradientUnits="userSpaceOnUse" x1="920.526" y1="81.97" x2="1203.438" y2="364.881"><stop offset="0" stop-opacity=".4"/><stop offset=".995" stop-color="#fff" stop-opacity="0"/></linearGradient><path fill="url(#b)" d="M1087.714 220.561l-9.18-9.18c3.231 3.589 5.216 8.324 5.216 13.533 0 6.879-3.432 12.952-8.676 16.613-3.281 2.292-7.271 3.64-11.577 3.64-5.379 0-10.254-2.11-13.88-5.53l-.014.009 26.151 26.151c7.659-9.028 12.433-20.584 12.864-33.248.021-.625.048-1.25.048-1.881.001-3.455-.336-6.831-.952-10.107z"/><path fill="#126864" d="M1078.534 211.381l-1.506-1.506-.214-.194c-3.563-3.117-8.213-5.021-13.317-5.021-6.879 0-12.953 3.432-16.614 8.676-2.292 3.281-3.64 7.272-3.64 11.578 0 5.808 2.458 11.029 6.374 14.723 3.626 3.42 8.501 5.53 13.88 5.53 4.306 0 8.296-1.348 11.577-3.64 5.244-3.661 8.676-9.734 8.676-16.613 0-5.209-1.984-9.944-5.216-13.533z"/><path fill="#fff" d="M1074.066 223.762c-2.403 1.193-10.132 3.578-13.787 0 0 0 8.46.735 8.773 0 .314-.734-.939-1.927-7.521-3.302-6.579-1.377-11.279 0-11.279 0v8.807s4.178-2.11 6.266-1.102c2.089 1.009 7.833 2.477 11.281 2.201 3.446-.274 8.982-4.677 10.026-6.146 1.046-1.467-1.357-1.651-3.759-.458z"/></svg>