<svg xmlns="http://www.w3.org/2000/svg" width="120.25" height="120.25" viewBox="662 171 120.25 120.25" enable-background="new 662 171 120.25 120.25"><path fill="#F7F7F7" d="M695.625 219.625v58.568c1 .545 2 1.064 3 1.55v-60.118h-3zm26.709-45.291c-31.614 0-57.334 25.72-57.334 57.334 0 31.613 25.72 57.333 57.334 57.333 31.613 0 57.333-25.72 57.333-57.333 0-31.614-25.72-57.334-57.333-57.334zm35.666 34.291l18.491 18.679c-2.135-28.054-25.558-50.063-54.157-50.063-30.008 0-54.521 24.373-54.521 54.381 0 16.036 6.813 30.492 17.813 40.438v-63.434h72.374zm-.375 64.012c12-9.961 18.854-24.615 18.854-40.969 0-1.407-.164-2.797-.27-4.177l-18.584-18.491v63.637z"/><linearGradient id="a" gradientUnits="userSpaceOnUse" x1="733.889" y1="240.818" x2="803.708" y2="240.818"><stop offset="0" stop-opacity=".3"/><stop offset=".995" stop-color="#fff" stop-opacity="0"/></linearGradient><path fill="url(#a)" d="M757.625 272.637c12-9.961 18.854-24.615 18.854-40.969 0-1.407-.164-2.797-.27-4.177l-18.584-18.491v63.637z"/><path fill="#F7F7F7" d="M704.625 224.625h38v3h-38zm0 10h24v3h-24zm0 10h31v3h-31zm0 20h24v3h-24z"/><path d="M704.625 234.625h24v3h-24zm0-10h38v3h-38zm0 20h31v3h-31zm0 13h38v-3h-38zm0 7h24v3h-24zm0-20h24v3h-24zm0 10h24v3h-24zm0 10h24v3h-24zm0-40h38v3h-38zm0 10h24v3h-24z" fill="none"/><path fill="#126864" d="M695.625 279.193l3 1.55 47.668-10.285 7.667-3.5-3.334-48.836-57.333-1.5-3.5 9.503z"/><path fill="#42C6BF" d="M753.419 208.625c0 2.187-1.287 3.958-2.875 3.958s-2.875-1.771-2.875-3.958h-2.542c0 2.187-1.287 3.958-2.875 3.958s-2.875-1.771-2.875-3.958h-2.542c0 2.187-1.287 3.958-2.875 3.958s-2.875-1.771-2.875-3.958h-2.542c0 2.187-1.287 3.958-2.875 3.958s-2.875-1.771-2.875-3.958h-2.542c0 2.187-1.287 3.958-2.875 3.958s-2.875-1.771-2.875-3.958h-2.542c0 2.187-1.287 3.958-2.875 3.958s-2.875-1.771-2.875-3.958h-2.542c0 2.187-1.287 3.958-2.875 3.958s-2.875-1.771-2.875-3.958h-2.542c0 2.187-1.287 3.958-2.875 3.958s-2.875-1.771-2.875-3.958h-4v63.434c3 2.738 7 5.133 10 7.135v-58.568h3v60.118c7 3.368 15.168 5.258 23.521 5.258 5.221 0 10.169-.751 14.947-2.126 7.719-2.221 14.531-6.102 20.531-11.238v-64.012h-4.205zm-48.794 16h38v3h-38v-3zm24 43h-24v-3h24v3zm0-10h-24v-3h24v3zm0-10h-24v-3h24v3zm0-10h-24v-3h24v3zm18.236 26.187c-.729 1.002-1.84 1.683-3.336 2.042v3.008h-3.177v-2.837c-.815-.096-1.68-.316-2.598-.667-.917-.351-1.735-.846-2.455-1.49l2.1-3.292c.777.567 1.472.975 2.087 1.22.614.247 1.225.37 1.83.37.719 0 1.229-.129 1.533-.384.301-.256.455-.657.455-1.206 0-.378-.182-.715-.541-1.007-.36-.293-.813-.582-1.361-.865-.549-.285-1.136-.584-1.76-.895-.625-.313-1.211-.686-1.76-1.122-.55-.435-1.003-.946-1.361-1.531-.361-.586-.541-1.296-.541-2.128 0-1.439.385-2.631 1.15-3.576.767-.947 1.84-1.57 3.222-1.874v-2.952h3.177v2.895c.909.152 1.709.436 2.398.853.691.417 1.32.927 1.889 1.533l-2.412 2.78c-.512-.453-1-.794-1.463-1.021-.464-.228-.961-.34-1.489-.34-.606 0-1.061.104-1.362.312-.303.208-.454.597-.454 1.163 0 .359.18.672.538.937.36.266.814.529 1.363.795l1.759.853c.625.302 1.21.671 1.759 1.106.55.436 1.004.954 1.364 1.561.359.605.538 1.334.538 2.185 0 1.379-.363 2.571-1.092 3.574z"/></svg>