<svg xmlns="http://www.w3.org/2000/svg" width="120.25" height="120.25" viewBox="494 171 120.25 120.25" enable-background="new 494 171 120.25 120.25"><path fill="#F7F7F7" d="M554.334 173.334c-31.614 0-57.334 25.72-57.334 57.334 0 31.613 25.72 57.332 57.334 57.332 31.613 0 57.333-25.719 57.333-57.332 0-31.614-25.72-57.334-57.333-57.334zm0 3c-30.008 0-54.334 24.326-54.334 54.334 0 30.006 24.326 54.332 54.334 54.332.992 0 1.978-.029 2.957-.082.791-.043 1.577-.103 2.358-.179 5.482-.534 10.724-1.89 15.605-3.93 8.119-3.393 15.234-8.7 20.788-15.356 7.196-8.626 11.769-19.52 12.492-31.455.029-.483.067-.963.084-1.449.021-.625.048-1.25.048-1.881.001-30.008-24.325-54.334-54.332-54.334z"/><linearGradient id="a" gradientUnits="userSpaceOnUse" x1="536.742" y1="202.25" x2="701.707" y2="367.215"><stop offset="0" stop-opacity=".3"/><stop offset=".995" stop-color="#fff" stop-opacity="0"/></linearGradient><path fill="url(#a)" d="M608.535 233.998l-26.83-26.831-42.414 12.458 2.781 2.781-18.997 6.224 52.18 52.18c18.641-7.789 31.999-25.665 33.28-46.812z"/><linearGradient id="b" gradientUnits="userSpaceOnUse" x1="544.712" y1="241.962" x2="587.111" y2="284.361"><stop offset="0" stop-opacity=".3"/><stop offset=".995" stop-color="#fff" stop-opacity="0"/></linearGradient><path fill="url(#b)" d="M558.043 228.631v19.412l-1.501-1.501-.192 14.417-1.225 4.667-6.385 1.666-7.473-.934 18.382 18.381c5.482-.534 10.724-1.89 15.605-3.93 8.119-3.393 15.234-8.7 20.788-15.356l-36.823-36.822h-1.176z"/><path fill="#126864" d="M555.375 228.631v20.013c0 3.321.202 6.858-.081 9.839-.282 2.943-1.453 5.32-3.719 6.295-1.098.467-2.523.72-3.925.507-3.59-.554-5.076-3.359-5.403-7.135l-.128-1.984c-.034-.446-.011-1.565-.297-1.82-.21-.183-1.075-.171-1.646-.171-.466.004-1.378.047-1.605.219-.441.325-.32 1.939-.253 2.738.098 1.143.097 2.095.253 2.916.382 1.951.808 3.491 1.564 4.771 1.688 2.863 4.262 4.188 8.193 4.435h.715c.955-.156 1.808-.185 2.617-.381.87-.21 1.574-.518 2.322-.84 1.39-.609 2.529-1.858 3.296-3.089.821-1.313 1.445-2.892 1.73-4.646.294-1.792.21-3.867.21-6.161v-25.505h-3.843z"/><path fill="#42C6BF" d="M589.624 228.631v-1.941c-.195-4.865-1.332-8.88-3.042-12.332-3.367-6.817-8.729-11.821-15.746-14.988-3.553-1.604-7.663-2.813-12.378-3.042.323-1.409-.573-2.284-1.646-2.575h-1.012c-1.054.336-1.866 1.107-1.647 2.575-9.214.595-15.962 4.158-21.239 8.951-2.574 2.338-4.823 5.13-6.591 8.53-1.72 3.316-2.977 7.499-3.248 11.95v2.871h32.3v.001h34.249z"/></svg>