<svg xmlns="http://www.w3.org/2000/svg" width="120.25" height="120.25" viewBox="822 171 120.25 120.25" enable-background="new 822 171 120.25 120.25"><path fill="#F7F7F7" d="M882.334 174.334c-31.614 0-57.334 25.719-57.334 57.334 0 31.613 25.72 57.332 57.334 57.332 31.613 0 57.333-25.719 57.333-57.332 0-31.615-25.72-57.334-57.333-57.334zm-19.209 80.291l23.226-23.409 13.381-22.216 17.404-3.076 19.104 19.104c-3.275-26.874-26.15-47.694-53.907-47.694-30.008 0-54.334 24.326-54.334 54.334 0 28.589 22.088 52.002 50.126 54.151l-10.354-10.354-4.646-20.84z"/><linearGradient id="a" gradientUnits="userSpaceOnUse" x1="822.889" y1="171.129" x2="991.611" y2="339.851"><stop offset="0" stop-opacity=".4"/><stop offset=".995" stop-color="#fff" stop-opacity="0"/></linearGradient><path fill="url(#a)" d="M882.334 286c.992 0 1.978-.029 2.957-.082 28.009-1.504 50.369-24.219 51.328-52.369.021-.625.048-1.25.048-1.881 0-.514-.024-1.021-.038-1.531-.048-1.725-.183-3.428-.388-5.108l-19.104-19.104-17.405 3.075-13.382 22.216-23.226 23.409 4.646 20.84 10.354 10.354c.526.04 1.05.089 1.579.114.873.044 1.749.067 2.631.067z"/><path d="M917.137 205.924l-20.078-17.564v7.669h-14.73v19.789h14.73v7.67zm-69.444 51.976l20.078-17.563v7.669h14.73v19.789h-14.73v7.67z" fill="#42C6BF"/><linearGradient id="b" gradientUnits="userSpaceOnUse" x1="808.983" y1="158.347" x2="1013.929" y2="363.292"><stop offset="0" stop-opacity=".3"/><stop offset=".995" stop-color="#fff" stop-opacity="0"/></linearGradient><path fill="url(#b)" d="M899.896 214.161l-8.271 13.715-2.037-2.037-2.488-2.488-20.469 27.739-.001.002 32.306 32.306c16.631-5.335 29.765-18.458 35.109-35.086l-34.149-34.151z"/><path fill="#126864" d="M900.998 215.264l-1.853-1.854-.263-.24c-4.384-3.835-10.105-6.176-16.386-6.176-8.464 0-15.938 4.223-20.441 10.675-2.82 4.037-4.479 8.946-4.479 14.245 0 7.145 3.024 13.57 7.843 18.114 4.461 4.208 10.459 6.804 17.077 6.804 5.298 0 10.207-1.658 14.244-4.478 6.452-4.505 10.675-11.977 10.675-20.44.001-6.409-2.44-12.236-6.417-16.65z"/><path fill="#42C6BF" d="M886.963 226.998c-.629-.558-1.23-.979-1.8-1.257-.57-.281-1.182-.419-1.832-.419-.746 0-1.305.128-1.676.383-.373.257-.56.735-.56 1.432 0 .442.222.827.662 1.151.443.327 1.002.651 1.678.978l2.164 1.051c.769.37 1.488.824 2.164 1.36.676.535 1.235 1.175 1.679 1.92.442.745.662 1.641.662 2.688 0 1.702-.447 3.168-1.344 4.4-.897 1.232-2.264 2.071-4.104 2.514v3.701h-3.908v-3.492c-1.004-.118-2.067-.39-3.196-.819-1.128-.433-2.136-1.041-3.021-1.834l2.583-4.051c.956.699 1.811 1.198 2.567 1.502.756.303 1.507.454 2.252.454.885 0 1.513-.159 1.887-.472.37-.314.56-.81.56-1.484 0-.464-.224-.88-.665-1.238-.443-.36-1.002-.716-1.676-1.064-.675-.351-1.397-.719-2.165-1.101-.769-.385-1.489-.844-2.165-1.382-.677-.533-1.234-1.163-1.675-1.884-.444-.721-.666-1.594-.666-2.617 0-1.771.474-3.237 1.416-4.4.942-1.165 2.264-1.932 3.964-2.307v-3.631h3.908v3.562c1.119.188 2.103.536 2.951 1.048.851.514 1.624 1.142 2.324 1.886l-2.968 3.422z"/></svg>