<svg xmlns="http://www.w3.org/2000/svg" width="120.25" height="120.25" viewBox="822 0 120.25 120.25" enable-background="new 822 0 120.25 120.25"><path fill="#F7F7F7" d="M882.125 2.317c-14.593 0-27.922 5.488-38.053 14.498-1.745 1.553-3.393 3.211-4.938 4.963-8.915 10.107-14.343 23.365-14.343 37.873 0 31.613 25.721 57.333 57.334 57.333s57.333-25.72 57.333-57.333-25.72-57.334-57.333-57.334zm54.333 57.334c0-2.922-.237-5.788-.683-8.585l-24.68-24.616-21.794 57.82-31.152 24.142c7.232 3.563 15.369 5.573 23.978 5.573 30.005-.001 54.331-24.327 54.331-54.334z"/><linearGradient id="a" gradientUnits="userSpaceOnUse" x1="994.666" y1="-219.807" x2="1162.505" y2="-219.807" gradientTransform="matrix(1 0 0 -1 -147.6 -149.59)"><stop offset="0" stop-opacity=".2"/><stop offset=".995" stop-color="#fff" stop-opacity="0"/></linearGradient><path fill="url(#a)" d="M936.458 59.651c0-2.922-.237-5.788-.683-8.585l-24.68-24.616-21.794 57.82-31.152 24.142c7.232 3.563 15.369 5.573 23.978 5.573 30.005-.001 54.331-24.327 54.331-54.334z"/><path d="M882.125 113.984c21.732 0 40.477-12.765 49.166-31.201l-66.266 28.427c5.379 1.785 11.121 2.774 17.1 2.774z" fill="none"/><path fill="#126864" d="M900.845 87.155l-2.395-5.583 22.694-9.734 2.395 5.583z"/><path fill="#828282" d="M920.596 46.214l-4.582-10.701-.175.074 4.589 10.699z"/><path d="M911.096 26.45l-.068.182c.216.097.418.219.609.358l-.541-.54zm-12.625 55.105l22.693-9.734 2.395 5.584-22.693 9.734z" fill="none"/><path fill="#F7F7F7" d="M911.027 26.63l.068-.181.541.54c.282.208.543.454.752.751l23.387 23.325c-4.115-25.927-26.565-45.748-53.65-45.748-30.008 0-54.334 24.326-54.334 54.334 0 .499.014.994.027 1.49l80.522-34.543c.896-.384 1.863-.337 2.687.032z"/><path fill="#42C6BF" d="M920.428 46.286l-87.092 37.289c3.707 7.54 9.111 14.094 15.714 19.168l-3.259-7.598 15.406-6.609 5.639 13.143.02.048-.181.077-11.589 4.972c1.002.575 2.021 1.124 3.063 1.638 2.209 1.088 4.513 2.012 6.877 2.797l66.266-28.427c.881-1.866 1.65-3.795 2.316-5.771l-13.18-30.727zm-19.549 40.844l-2.396-5.586 22.695-9.733 2.396 5.584-22.695 9.735zm11.857-58.774c-.096-.223-.213-.426-.348-.615l-.752-.751c-.191-.141-.396-.263-.609-.358-.824-.371-1.791-.416-2.687-.032l-80.522 34.542c.104 3.943.633 7.781 1.537 11.473l86.482-37.027-3.101-7.232z"/><path fill="#BCBCBC" d="M911.637 26.99l.752.751c-.209-.297-.469-.543-.752-.751z"/><path fill="#828282" d="M866.855 101.726l-.019-.047-.161.125z"/><path fill="#126864" d="M845.791 95.146l3.259 7.598c1.916 1.473 3.931 2.82 6.036 4.031l11.589-4.971.161-.125-5.639-13.144-15.406 6.611zm70.048-59.559l-86.483 37.027c.938 3.829 2.278 7.499 3.979 10.961l87.093-37.289-4.589-10.699z"/><circle cx="882.124" cy="59.651" r="54.333" fill="none"/></svg>