<svg xmlns="http://www.w3.org/2000/svg" width="120.25" height="120.25" viewBox="1732 0 120.25 120.25" enable-background="new 1732 0 120.25 120.25"><path fill="#F7F7F7" d="M1792.334 1.334c-31.614 0-57.334 25.72-57.334 57.334 0 31.613 25.72 57.333 57.334 57.333 31.613 0 57.333-25.72 57.333-57.333 0-31.614-25.72-57.334-57.333-57.334zm50.19 36.507c-8.172-19.671-27.563-33.507-50.19-33.507-30.008 0-54.334 24.326-54.334 54.334 0 21.238 12.194 39.619 29.956 48.555 7.333 3.688 15.609 5.778 24.378 5.778.992 0 1.978-.03 2.957-.083 5.217-.28 10.235-1.298 14.958-2.947 14.589-5.095 26.325-16.242 32.233-30.43 2.449-5.881 3.908-12.279 4.137-18.992.021-.625.048-1.25.048-1.881 0-7.379-1.478-14.412-4.143-20.827z"/><linearGradient id="a" gradientUnits="userSpaceOnUse" x1="1747.633" y1="14.924" x2="1951.241" y2="218.531"><stop offset="0" stop-opacity=".2"/><stop offset=".995" stop-color="#fff" stop-opacity="0"/></linearGradient><path fill="url(#a)" d="M1842.524 37.841l-12.84-12.841-3.184 2.5-22.125 22.125-1.818-1.818 23.568-21.557-61.5 1-2.525.093 22.467 22.466 5.938 5.938 6.46-4.097-15.465 19.6-26.766 22.75 13.222 13.223c7.333 3.688 15.609 5.778 24.378 5.778.992 0 1.978-.03 2.957-.083 28.009-1.503 50.369-24.219 51.328-52.369.021-.625.048-1.25.048-1.881 0-7.379-1.478-14.412-4.143-20.827z"/><path d="M1762.1 90.625h30.126l-14.884-14.885z" fill="none"/><path fill="#42C6BF" d="M1829.684 24.625h-63.059v.313l5.563-5.228c.626-.62.794-1.624.169-2.244-.624-.621-1.536-.621-2.16 0l-7.895 7.937c-.625.621-.604 1.624.021 2.245l7.947 7.937c.307.31.722.465 1.128.465s.82-.155 1.125-.465c.625-.62.289-1.623-.337-2.244l-5.562-5.228v-.487h55.691l-15.957 15.771 2.121 2.028 21.205-20.8zm-7.208 66.777l-7.905-7.937c-.624-.621-1.557-.621-2.18 0-.626.62-.686 1.624-.061 2.244l5.295 5.228v-.313h-55.525l15.242-14.697-2.122-2.215-20.485 19.912h62.891v.487l-5.293 5.228c-.626.621-.786 1.624-.161 2.244.305.31.765.465 1.171.465s.844-.155 1.15-.465l7.956-7.937c.623-.62.651-1.623.027-2.244z"/><linearGradient id="b" gradientUnits="userSpaceOnUse" x1="1780.288" y1="48.679" x2="1912.539" y2="180.929"><stop offset="0" stop-opacity=".2"/><stop offset=".995" stop-color="#fff" stop-opacity="0"/></linearGradient><path fill="url(#b)" d="M1842.482 79.541l-35.134-35.134-12.786 10.322-.063-.063-.396.433-14.389 11.615 1.952 1.952-6.083 6.638 34.665 34.666c14.59-5.094 26.326-16.241 32.234-30.429z"/><path fill="#126864" d="M1809.002 46.061l-1.653-1.653-.235-.213c-3.91-3.422-9.014-5.51-14.616-5.51-7.55 0-14.217 3.767-18.235 9.522-2.516 3.601-3.994 7.981-3.994 12.707 0 6.374 2.697 12.105 6.995 16.159 3.979 3.754 9.331 6.069 15.234 6.069 4.727 0 9.105-1.479 12.706-3.994 5.756-4.019 9.522-10.685 9.522-18.234 0-5.717-2.177-10.915-5.724-14.853z"/><path d="M1792.644 48.397l-11.839 7.228h23.677zm-12.019 20.228h23v3h-23zm4-11h3v9h-3zm12 9h3v-9h-3zm-6 0h3v-9h-3z" fill="#fff"/></svg>