<svg xmlns="http://www.w3.org/2000/svg" width="120.25" height="120.25" viewBox="2050 0 120.25 120.25" enable-background="new 2050 0 120.25 120.25"><path fill="#F7F7F7" d="M2110.334 3.75c-14.593 0-27.922 5.488-38.053 14.498-1.745 1.553-3.393 3.211-4.938 4.963-8.915 10.107-14.343 23.365-14.343 37.873 0 31.613 25.721 57.333 57.334 57.333s57.333-25.72 57.333-57.333-25.72-57.334-57.333-57.334zm54.333 57.334c0-2.922-.237-5.788-.683-8.585l-24.68-24.616-21.795 57.819-31.152 24.142c7.232 3.563 15.369 5.573 23.978 5.573 30.006 0 54.332-24.326 54.332-54.333zm-25.431-33.021l.068-.181.541.54c.282.208.543.454.752.751l23.387 23.325c-4.115-25.927-26.565-45.748-53.65-45.748-30.008 0-54.334 24.326-54.334 54.334 0 .499.014.994.027 1.49l80.522-34.543c.896-.385 1.863-.338 2.687.032z"/><linearGradient id="a" gradientUnits="userSpaceOnUse" x1="2023.252" y1="71.65" x2="2293.811" y2="71.65"><stop offset="0" stop-opacity=".2"/><stop offset=".995" stop-color="#fff" stop-opacity="0"/></linearGradient><path fill="url(#a)" d="M2163.984 52.499l-24.68-24.616-6.268 16.627-15.527 41.192-3.088 2.393-28.064 21.749c7.232 3.563 15.369 5.573 23.978 5.573 9.101 0 17.671-2.249 25.206-6.204 13.484-7.076 23.633-19.644 27.459-34.74 1.086-4.283 1.667-8.768 1.667-13.389 0-2.922-.237-5.788-.683-8.585z"/><path fill="#42C6BF" d="M2148.637 47.719l-87.092 37.289c3.707 7.54 9.111 14.094 15.714 19.168l-3.259-7.598 15.406-6.609 5.639 13.143.02.048-.181.077-11.589 4.972c1.002.575 2.021 1.124 3.063 1.638 2.209 1.088 4.513 2.012 6.877 2.797l66.266-28.427c.881-1.866 1.65-3.795 2.316-5.771l-13.18-30.727zm-7.692-17.93c-.096-.223-.213-.426-.348-.615l-.752-.751c-.191-.141-.396-.263-.609-.358-.824-.371-1.791-.416-2.687-.032l-80.522 34.542c.104 3.943.633 7.781 1.537 11.473l86.482-37.027-3.101-7.232z"/><path fill="#126864" d="M2074 96.578l3.259 7.598c1.916 1.473 3.931 2.82 6.036 4.031l11.589-4.971.161-.125-5.639-13.144-15.406 6.611zm70.048-59.558l-86.483 37.027c.938 3.829 2.278 7.499 3.979 10.961l87.093-37.289-4.589-10.699z"/><linearGradient id="b" gradientUnits="userSpaceOnUse" x1="2020.447" y1="68.488" x2="2348.076" y2="68.488"><stop offset="0" stop-opacity=".2"/><stop offset=".995" stop-color="#fff" stop-opacity="0"/></linearGradient><path fill="url(#b)" d="M2133.037 44.51l-16.745-16.745-11.862 21.748-10.15-10.151-7.922 20.669 28.064 28.064 21.119 21.118c13.484-7.076 23.633-19.644 27.459-34.74l-29.963-29.963z"/><path d="M2110.334 115.417c21.732 0 40.477-12.765 49.166-31.201l-66.266 28.427c5.379 1.785 11.121 2.774 17.1 2.774z" fill="none"/><path fill="#126864" d="M2129.019 88.633l-2.395-5.583 22.694-9.734 2.395 5.583z"/><path fill="#828282" d="M2148.805 47.646l-4.582-10.701-.175.075 4.589 10.699z"/><path d="M2139.305 27.883l-.068.182c.216.097.418.219.609.358l-.541-.54zm-12.647 55.124l22.693-9.734 2.395 5.584-22.693 9.734z" fill="none"/><path fill="#BCBCBC" d="M2139.846 28.423l.752.751c-.209-.297-.469-.543-.752-.751z"/><path fill="#828282" d="M2095.064 103.158l-.019-.047-.161.125z"/><circle cx="2110.333" cy="61.084" r="54.333" fill="none"/><path fill="#126864" d="M2120.002 31.061l-1.653-1.653-.235-.213c-3.91-3.422-9.014-5.51-14.616-5.51-7.55 0-14.217 3.767-18.235 9.522-2.516 3.601-3.994 7.981-3.994 12.707 0 6.374 2.697 12.105 6.995 16.159 3.979 3.754 9.331 6.069 15.234 6.069 4.727 0 9.105-1.479 12.706-3.994 5.756-4.019 9.522-10.685 9.522-18.234 0-5.717-2.177-10.915-5.724-14.853z"/><path fill="#fff" d="M2116.625 43.625h-11v-10h-5v10h-10v5h10v11h5v-11h11z"/></svg>