<svg xmlns="http://www.w3.org/2000/svg" width="120.25" height="120.25" viewBox="1888 0 120.25 120.25" enable-background="new 1888 0 120.25 120.25"><path fill="#F7F7F7" d="M1948.334 3.334c-31.614 0-57.334 25.72-57.334 57.334 0 31.613 25.72 57.333 57.334 57.333 31.613 0 57.333-25.72 57.333-57.333 0-31.614-25.72-57.334-57.333-57.334zm0 3c-30.008 0-54.334 24.326-54.334 54.334 0 29.485 23.493 53.469 52.78 54.294.518.015 1.032.039 1.554.039.992 0 1.978-.03 2.957-.083 28.009-1.503 50.369-24.219 51.328-52.369l.021-.796c.011-.361.027-.721.027-1.085 0-30.008-24.326-54.334-54.333-54.334z"/><linearGradient id="a" gradientUnits="userSpaceOnUse" x1="1931.4" y1="44.99" x2="2089.845" y2="203.435"><stop offset="0" stop-opacity=".2"/><stop offset=".995" stop-color="#fff" stop-opacity="0"/></linearGradient><path fill="url(#a)" d="M1951.291 114.918c28.009-1.503 50.369-24.219 51.328-52.369l.021-.796-33.483-33.597-15.81 31.44-4.763-4.763-20.175 41.757 18.371 18.371c.518.015 1.032.039 1.554.039.992.001 1.978-.029 2.957-.082z"/><path fill="#42C6BF" d="M1970.625 92.813c0 2.658-2.154 4.813-4.812 4.813h-34.377c-2.657 0-4.812-2.154-4.812-4.813v-61.375c0-2.658 2.154-4.813 4.812-4.813h34.377c2.657 0 4.812 2.155 4.812 4.813v61.375z"/><g fill="#126864"><circle cx="1948.223" cy="46.132" r="6.761"/><path d="M1959.625 65.217c0-5.485-4.461-9.958-11.501-9.958-7.039 0-11.499 4.482-11.499 9.97v.396h23v-.408z"/></g><path d="M1936.625 71.625h23v2h-23zm0 5h23v2h-23zm0 5h23v2h-23zm0 5h23v2h-23z" fill="#126864"/></svg>