<svg xmlns="http://www.w3.org/2000/svg" width="120.25" height="120.25" viewBox="0 171 120.25 120.25" enable-background="new 0 171 120.25 120.25"><path fill="#F7F7F7" d="M63.291 284.918c18.142-.974 33.904-10.853 43.025-25.338l-56.012-56.013v14.134c0 .145.146.291.294.291h8.886c.291 0 .438.146.583.291l13.55 16.317c.145.148.291.438.438.73v15.736c0 .29-.293.583-.584.583h-3.059c-.293 0-.439-.146-.439-.438-.145-3.787-2.33-7.431-6.117-9.471-3.934-2.039-8.888-1.456-12.239 1.457-2.623 2.187-3.789 5.101-3.935 8.014 0 .292-.146.438-.437.438h-13.696c-.292 0-.437-.146-.437-.438-.146-4.225-2.624-8.159-6.995-9.907-4.08-1.603-9.908-.146-12.676 3.205-1.603 2.039-2.332 4.37-2.478 6.702 0 .292-.145.438-.437.438h-.323l29.135 29.135c6.46 2.71 13.55 4.216 20.995 4.216.993.001 1.979-.029 2.958-.082zm-41.253-26.566c-3.702 0-6.702-3.002-6.702-6.701 0-3.702 3-6.703 6.702-6.703s6.702 3.001 6.702 6.703c0 3.699-3 6.701-6.702 6.701zm30.014-6.702c0-3.702 3-6.703 6.702-6.703 3.703 0 6.703 3.001 6.703 6.703 0 3.699-3 6.701-6.703 6.701-3.702.001-6.702-3.001-6.702-6.701zm8.282-78.316c-31.614 0-57.334 25.72-57.334 57.334 0 31.613 25.72 57.333 57.334 57.333 31.613 0 57.333-25.72 57.333-57.333 0-31.614-25.72-57.334-57.333-57.334z"/><linearGradient id="a" gradientUnits="userSpaceOnUse" x1="21.448" y1="218.803" x2="112.273" y2="309.628"><stop offset="0" stop-opacity=".3"/><stop offset=".995" stop-color="#fff" stop-opacity="0"/></linearGradient><path fill="url(#a)" d="M50.304 203.567l-9.175 19.561-6.796-6.796-20.083 16.668-4.046 13v5.65l29.135 29.135c6.46 2.71 13.55 4.216 20.995 4.216.992 0 1.978-.03 2.957-.083 18.142-.974 33.904-10.853 43.025-25.338l-56.012-56.013z"/><path fill="#F7F7F7" d="M39.339 280.785l-29.135-29.135c5.502 13.127 16.011 23.629 29.135 29.135zm75.28-48.236c.021-.625.048-1.25.048-1.881 0-30.008-24.326-54.334-54.333-54.334-19.895 0-37.283 10.698-46.75 26.649h36.282c.293 0 .583.147.438.584l56.012 56.013c4.962-7.878 7.965-17.114 8.303-27.031z"/><path fill="#42C6BF" d="M10.964 251.212c.146-2.332.875-4.663 2.478-6.702 2.768-3.351 8.596-4.808 12.676-3.205 4.371 1.748 6.849 5.683 6.995 9.907 0 .292.145.438.437.438h13.697c.29 0 .437-.146.437-.438.146-2.913 1.312-5.827 3.935-8.014 3.351-2.913 8.305-3.496 12.239-1.457 3.787 2.04 5.973 5.684 6.117 9.471 0 .292.146.438.439.438h3.059c.291 0 .584-.293.584-.583v-15.736c-.146-.293-.293-.582-.438-.73l-13.55-16.317c-.146-.146-.292-.291-.583-.291h-8.886c-.148 0-.294-.146-.294-.291v-14.134c.146-.437-.145-.584-.438-.584h-36.284c-4.812 8.109-7.584 17.571-7.584 27.684 0 7.438 1.499 14.526 4.204 20.982h.323c.292 0 .437-.146.437-.438zm39.778-28.994c0-.146.144-.293.291-.293h6.993c.146 0 .146 0 .292.146l11.073 13.696c0 .146-.145.438-.289.438h-18.069c-.147 0-.291-.146-.291-.291v-13.696z"/><circle fill="#126864" cx="22.038" cy="251.649" r="6.702"/><circle fill="#126864" cx="58.754" cy="251.649" r="6.702"/></svg>