<svg xmlns="http://www.w3.org/2000/svg" width="120.25" height="120.25" viewBox="0 0 120.25 120.25"><path fill="#F7F7F7" d="M60.334 2.334c-31.614 0-57.334 25.72-57.334 57.334 0 31.613 25.72 57.333 57.334 57.333 31.613 0 57.333-25.72 57.333-57.333 0-31.614-25.72-57.334-57.333-57.334zm0 3c-30.008 0-54.334 24.326-54.334 54.334 0 30.007 24.326 54.333 54.334 54.333.992 0 1.978-.03 2.957-.083 28.009-1.503 50.369-24.219 51.328-52.369.021-.625.048-1.25.048-1.881 0-30.008-24.326-54.334-54.333-54.334z"/><linearGradient id="a" gradientUnits="userSpaceOnUse" x1="40.15" y1="38.926" x2="113.636" y2="112.411"><stop offset="0" stop-opacity=".3"/><stop offset=".995" stop-color="#fff" stop-opacity="0"/></linearGradient><path fill="url(#a)" d="M114.619 61.549l-14.067-13.957-19.052-.092-11.435 11.247-4.493-.122h-41.572l-.052.791-4.448.158-1.6 2.598 5.359 5.383-.501 5.818 40.532 40.539c28.01-1.503 50.37-24.213 51.329-52.363z"/><path fill="#42C6BF" d="M86.771 41.145c-9.238 0-16.902 6.709-18.279 15.552l-.59-.071h-48.642c-1.277 0-2.635.931-2.635 2.208v1.573c0 1.277 1.357 2.219 2.635 2.219h2.365v9.474c0 1.278 1.124 2.262 2.401 2.262 1.377.195 2.599-.884 2.599-2.163v-9.572h6v7.508c0 1.279.722 2.262 1.999 2.262 1.278 0 2.001-.982 2.001-2.262v-7.508h31.377c.195 0 .393.068.59-.029 1.474 8.846 9.041 15.562 18.277 15.562 10.221 0 18.572-8.236 18.572-18.556 0-10.321-8.451-18.459-18.67-18.459z"/><circle fill="#126864" cx="90.284" cy="59.805" r="5.196"/></svg>