<svg xmlns="http://www.w3.org/2000/svg" width="120.25" height="120.25" viewBox="322 171 120.25 120.25" enable-background="new 322 171 120.25 120.25"><path fill="#F7F7F7" d="M382.334 173.334c-31.614 0-57.334 25.72-57.334 57.334 0 31.613 25.72 57.332 57.334 57.332 31.613 0 57.333-25.719 57.333-57.332 0-31.614-25.72-57.334-57.333-57.334z"/><linearGradient id="a" gradientUnits="userSpaceOnUse" x1="371.653" y1="226.032" x2="466.205" y2="320.584"><stop offset="0" stop-opacity=".3"/><stop offset=".995" stop-color="#fff" stop-opacity="0"/></linearGradient><path fill="url(#a)" d="M385.291 284.918c28.009-1.504 50.369-24.219 51.328-52.369.021-.625.048-1.25.048-1.881l-.004-.151-31.104-31.104-27.803 44.053-2.639-2.639-19.973 29.225 13.073 13.073c4.504 1.209 9.229 1.875 14.115 1.875.994 0 1.98-.029 2.959-.082z"/><path fill="#42C6BF" d="M355.146 199.413l-12.665-5.661c-8.982 9.692-14.48 22.659-14.48 36.916 0 12.203 4.024 23.466 10.816 32.536l16.329 6.848v-70.639z"/><linearGradient id="b" gradientUnits="userSpaceOnUse" x1="365.767" y1="257.72" x2="387.973" y2="279.926"><stop offset="0" stop-opacity=".3"/><stop offset=".995" stop-color="#fff" stop-opacity="0"/></linearGradient><path fill="url(#b)" d="M355.146 270.052l24.979-5.052v-15.875z"/><path fill="#126864" d="M355.146 270.052v-70.639l21.518-12.916v71.437z"/><path fill="#42C6BF" d="M405.56 270.052v-70.639l-28.896-12.916v71.437z"/><path fill="#126864" d="M382.125 197.75l18.875 7.125v4.625l-18.875-5.875m0 3.542l18.875 7.125v4.625l-18.875-5.875"/></svg>