<svg xmlns="http://www.w3.org/2000/svg" width="120.25" height="120.25" viewBox="1434 0 120.25 120.25" enable-background="new 1434 0 120.25 120.25"><path fill="#F7F7F7" d="M1494.334 2.334c-31.614 0-57.334 25.72-57.334 57.334 0 31.613 25.72 57.333 57.334 57.333 31.613 0 57.333-25.72 57.333-57.333 0-31.614-25.72-57.334-57.333-57.334zm35.666 34.291l18.491 18.679c-2.135-28.054-25.558-50.063-54.157-50.063-30.008 0-54.521 24.373-54.521 54.381 0 16.036 6.813 30.492 17.813 40.438v-63.435h72.374zm-.375 64.012c12-9.961 18.854-24.615 18.854-40.969 0-1.407-.164-2.797-.27-4.177l-18.584-18.491v63.637z"/><linearGradient id="a" gradientUnits="userSpaceOnUse" x1="1505.889" y1="68.818" x2="1575.708" y2="68.818"><stop offset="0" stop-opacity=".3"/><stop offset=".995" stop-color="#fff" stop-opacity="0"/></linearGradient><path fill="url(#a)" d="M1529.625 100.637c12-9.961 18.854-24.615 18.854-40.969 0-1.407-.164-2.797-.27-4.177l-18.584-18.491v63.637z"/><path fill="#42C6BF" d="M1457.625 36.625v63.434c3 2.738 7 5.133 10 7.135v-58.569h3v60.118c7 3.368 15.168 5.258 23.521 5.258 5.221 0 10.169-.751 14.947-2.126 7.719-2.221 14.531-6.102 20.531-11.238v-64.012h-71.999zm19 16h38v3h-38v-3zm0 10h24v3h-24v-3zm0 10h31v3h-31v-3zm24 23h-24v-3h24v3zm14-10h-38v-3h38.361-.361v3z"/><path fill="#F7F7F7" d="M1476.625 52.625h38v3h-38zm-9-4v58.568c1 .545 2 1.064 3 1.55v-60.118h-3zm9 14h24v3h-24zm0 10h31v3h-31zm38.361 10h-38.361v3h38v-3zm-38.361 10h24v3h-24z"/><path fill="#126864" d="M1516.625 25.625v2h-4.776c-5.21 0-9.454 4-9.575 9h2.559c.068-2 1.13-4.155 2.74-5.453.648-.328 1.447-.547 2.428-.547h6.625v13h-4.776c-2.414 0-4.546-.908-5.812-2.768-.6.537-1.313 1.083-2.133 1.475 1.725 2.549 4.643 4.293 7.944 4.293h4.776v2h17v-23h-17z"/></svg>