<svg xmlns="http://www.w3.org/2000/svg" width="120.25" height="120.25" viewBox="1282 0 120.25 120.25" enable-background="new 1282 0 120.25 120.25"><path fill="#F7F7F7" d="M1342.334 3.334c-31.614 0-57.334 25.72-57.334 57.334 0 31.613 25.72 57.333 57.334 57.333 31.613 0 57.333-25.72 57.333-57.333 0-31.614-25.72-57.334-57.333-57.334zm54.295 55.803c-.813-29.298-24.802-52.803-54.295-52.803-30.008 0-54.334 24.326-54.334 54.334 0 29.125 22.919 52.895 51.705 54.267.871.042 1.747.066 2.629.066.992 0 1.978-.03 2.957-.083 28.009-1.503 50.369-24.219 51.328-52.369.021-.625.048-1.25.048-1.881 0-.514-.024-1.021-.038-1.531z"/><linearGradient id="a" gradientUnits="userSpaceOnUse" x1="1014.515" y1="-266.616" x2="1659.601" y2="378.471"><stop offset="0" stop-opacity=".4"/><stop offset=".995" stop-color="#fff" stop-opacity="0"/></linearGradient><path fill="url(#a)" d="M1345.291 114.918c28.009-1.503 50.369-24.219 51.328-52.369.021-.625.048-1.25.048-1.881 0-.514-.024-1.021-.038-1.531l-25.582-25.492-38.283 36.119 1.176 1.176-20.683 17.547 26.448 26.448c.871.042 1.747.066 2.629.066.992 0 1.978-.03 2.957-.083z"/><linearGradient id="b" gradientUnits="userSpaceOnUse" x1="1319.429" y1="37.939" x2="1331.263" y2="49.773"><stop offset="0" stop-opacity=".35"/><stop offset=".995" stop-color="#fff" stop-opacity="0"/></linearGradient><path fill="url(#b)" d="M1336.723 43.775l-11.141-11.14-.644 1.042-.625-.624-10.583 10.645 11.803 11.804 10.615-10.615-.269-.269z"/><linearGradient id="c" gradientUnits="userSpaceOnUse" x1="1325.906" y1="44.48" x2="1343.823" y2="62.397"><stop offset="0" stop-opacity=".35"/><stop offset=".995" stop-color="#fff" stop-opacity="0"/></linearGradient><path fill="url(#c)" d="M1361.925 37.492l-14.273-14.272-5.318 7.51-.471 1.664-1.238 1.069v5.109l-.873 5.135.873.873v.42l-16.5 16.625h-10.125l-9.503 4.264 16.13 16.32 29.016-29.033.66.683 11.796-11.784 2.401-.356z"/><path fill="#42C6BF" d="M1357.534 47.381l-1.506-1.506-.214-.194c-3.563-3.117-8.213-5.021-13.317-5.021-6.879 0-12.953 3.432-16.614 8.676-2.292 3.281-3.64 7.272-3.64 11.578 0 5.808 2.458 11.029 6.374 14.723 3.626 3.42 8.501 5.53 13.88 5.53 4.306 0 8.296-1.348 11.577-3.64 5.244-3.661 8.676-9.734 8.676-16.613 0-5.209-1.984-9.944-5.216-13.533z"/><path fill="#126864" d="M1346.127 56.918c-.512-.453-1-.794-1.463-1.021-.464-.228-.961-.34-1.489-.34-.606 0-1.061.104-1.362.312-.303.208-.454.597-.454 1.163 0 .359.18.672.538.937.36.266.814.529 1.363.795l1.759.853c.625.302 1.21.671 1.759 1.106.55.436 1.004.954 1.364 1.561.359.605.538 1.334.538 2.185 0 1.383-.363 2.574-1.092 3.577-.729 1.002-1.84 1.683-3.336 2.042v3.008h-3.177v-2.837c-.815-.096-1.68-.316-2.598-.667-.917-.351-1.735-.846-2.455-1.49l2.1-3.292c.777.567 1.472.975 2.087 1.22.614.247 1.225.37 1.83.37.719 0 1.229-.129 1.533-.384.301-.256.455-.657.455-1.206 0-.378-.182-.715-.541-1.007-.36-.293-.813-.582-1.361-.865-.549-.285-1.136-.584-1.76-.895-.625-.313-1.211-.686-1.76-1.122-.55-.435-1.003-.946-1.361-1.531-.361-.586-.541-1.296-.541-2.128 0-1.439.385-2.631 1.15-3.576.767-.947 1.84-1.57 3.222-1.874v-2.952h3.177v2.895c.909.152 1.709.436 2.398.853.691.417 1.32.927 1.889 1.533l-2.412 2.777z"/><path d="M1310.625 59.625h15v3h-15zm46 0h15v3h-15zm-17-28h3v15h-3zm-17.463 7.165l10.606 10.606-2.121 2.121-10.606-10.606zm.017 45.273l-2.121-2.121 10.606-10.606 2.121 2.121zm17.446-6.438h3v15h-3zm23.614 6.397l-10.606-10.606 2.121-2.121 10.606 10.606zm-.064-45.232l2.121 2.121-10.606 10.606-2.121-2.121z" fill="#42C6BF"/><circle fill="#126864" cx="1342.334" cy="29.334" r="6.114"/><path fill="#42C5BE" d="M1342.334 37.448c-4.475 0-8.114-3.64-8.114-8.114s3.64-8.114 8.114-8.114 8.114 3.64 8.114 8.114-3.639 8.114-8.114 8.114zm0-12.228c-2.269 0-4.114 1.846-4.114 4.114s1.846 4.114 4.114 4.114 4.114-1.846 4.114-4.114-1.845-4.114-4.114-4.114z"/><circle fill="#126864" cx="1319.844" cy="38.372" r="6.114"/><path fill="#42C5BE" d="M1319.845 46.487c-2.167 0-4.206-.845-5.738-2.378-1.532-1.532-2.377-3.57-2.376-5.737 0-2.168.844-4.205 2.377-5.737 1.531-1.532 3.569-2.377 5.736-2.377 2.168 0 4.205.844 5.738 2.377s2.377 3.571 2.377 5.738-.844 4.205-2.377 5.736c-1.532 1.534-3.57 2.378-5.737 2.378zm-.001-12.229c-1.099 0-2.131.428-2.908 1.205s-1.205 1.811-1.205 2.909.428 2.132 1.204 2.909c.778.777 1.812 1.206 2.91 1.206s2.132-.429 2.909-1.206 1.205-1.81 1.205-2.908c0-1.1-.428-2.133-1.205-2.91-.777-.776-1.811-1.205-2.91-1.205z"/><circle fill="#126864" cx="1310.333" cy="60.666" r="6.114"/><path fill="#42C5BE" d="M1310.332 68.78c-4.474 0-8.113-3.64-8.113-8.114 0-4.473 3.64-8.113 8.113-8.114 4.475 0 8.115 3.64 8.115 8.114s-3.64 8.114-8.115 8.114zm.001-12.228c-2.269.001-4.114 1.847-4.114 4.114 0 2.269 1.846 4.114 4.113 4.114 2.27 0 4.115-1.846 4.115-4.114s-1.845-4.114-4.114-4.114z"/><circle fill="#126864" cx="1319.371" cy="83.156" r="6.114"/><path fill="#42C5BE" d="M1319.371 91.271c-2.168 0-4.205-.845-5.738-2.378-1.531-1.531-2.375-3.569-2.375-5.736s.844-4.205 2.375-5.738c1.533-1.532 3.57-2.377 5.738-2.377s4.205.844 5.738 2.377c3.163 3.164 3.162 8.312-.002 11.476-1.532 1.531-3.569 2.376-5.736 2.376zm0-12.23c-1.099 0-2.132.428-2.909 1.205-.776.777-1.204 1.811-1.204 2.91 0 1.099.428 2.131 1.204 2.908.777.777 1.811 1.206 2.909 1.206 1.098 0 2.131-.429 2.908-1.205 1.604-1.604 1.605-4.215.002-5.819-.777-.776-1.81-1.205-2.91-1.205z"/><circle fill="#126864" cx="1341.665" cy="92.667" r="6.114"/><path fill="#42C5BE" d="M1341.664 100.781c-4.474 0-8.113-3.64-8.113-8.114s3.641-8.114 8.114-8.114c2.167 0 4.204.844 5.737 2.376 1.533 1.533 2.377 3.571 2.376 5.74 0 4.473-3.639 8.112-8.114 8.112zm.001-12.228c-2.269 0-4.114 1.846-4.114 4.114s1.846 4.114 4.113 4.114c2.269 0 4.114-1.845 4.114-4.113.001-1.1-.427-2.134-1.204-2.91-.777-.778-1.81-1.205-2.909-1.205z"/><circle fill="#126864" cx="1364.155" cy="83.629" r="6.114"/><path fill="#42C5BE" d="M1364.154 91.743c-2.167 0-4.205-.844-5.737-2.377-3.163-3.163-3.163-8.312-.001-11.476 1.533-1.532 3.571-2.376 5.738-2.376 2.168 0 4.205.845 5.738 2.378 3.163 3.164 3.162 8.312-.001 11.475-1.532 1.532-3.569 2.376-5.737 2.376zm0-12.228c-1.1 0-2.133.428-2.909 1.204-1.604 1.604-1.604 4.215 0 5.819.777.777 1.811 1.205 2.909 1.205 1.1 0 2.133-.428 2.909-1.204 1.604-1.604 1.604-4.214.001-5.818-.777-.779-1.811-1.206-2.91-1.206z"/><circle fill="#126864" cx="1373.667" cy="61.335" r="6.114"/><path fill="#42C5BE" d="M1373.666 69.449c-4.475 0-8.114-3.64-8.114-8.114s3.64-8.113 8.114-8.113c2.168 0 4.205.844 5.738 2.376 1.533 1.533 2.377 3.571 2.376 5.739-.001 4.473-3.641 8.112-8.114 8.112zm.002-12.227c-1.1 0-2.135.428-2.912 1.205-.776.777-1.204 1.81-1.204 2.908 0 2.269 1.846 4.114 4.114 4.114s4.113-1.846 4.114-4.114c.001-1.099-.427-2.132-1.204-2.908-.777-.778-1.809-1.205-2.908-1.205z"/><circle fill="#126864" cx="1364.629" cy="38.845" r="6.114"/><path fill="#42C5BE" d="M1364.627 46.959c-2.168 0-4.205-.844-5.736-2.376-1.533-1.532-2.377-3.57-2.377-5.737 0-2.168.846-4.206 2.379-5.739 1.532-1.531 3.57-2.376 5.736-2.376 2.168 0 4.205.845 5.736 2.378 3.163 3.164 3.163 8.312 0 11.475-1.533 1.531-3.57 2.375-5.738 2.375zm.002-12.229c-1.098 0-2.131.429-2.908 1.205-.778.778-1.207 1.812-1.207 2.91s.428 2.132 1.205 2.909c.776.776 1.809 1.204 2.908 1.204s2.133-.428 2.91-1.204c1.604-1.604 1.604-4.214 0-5.818-.777-.777-1.81-1.206-2.908-1.206z"/></svg>