<svg xmlns="http://www.w3.org/2000/svg" width="120.25" height="120.25" viewBox="662 0 120.25 120.25" enable-background="new 662 0 120.25 120.25"><path fill="#F7F7F7" d="M722.334 5.334c-31.614 0-57.334 25.72-57.334 57.334 0 31.613 25.72 57.333 57.334 57.333 31.613 0 57.333-25.72 57.333-57.333 0-31.614-25.72-57.334-57.333-57.334zm0 3c-30.008 0-54.334 24.326-54.334 54.334 0 30.007 24.326 54.333 54.334 54.333.992 0 1.978-.03 2.957-.083 28.009-1.503 50.369-24.219 51.328-52.369.021-.625.048-1.25.048-1.881 0-30.008-24.326-54.334-54.333-54.334z"/><linearGradient id="a" gradientUnits="userSpaceOnUse" x1="683.6" y1="72.057" x2="864.739" y2="72.057"><stop offset="0" stop-opacity=".2"/><stop offset=".995" stop-color="#fff" stop-opacity="0"/></linearGradient><path fill="url(#a)" d="M758.625 42.03v61.729c11-9.935 17.854-24.216 17.854-40.091 0-2.223-.056-4.409-.314-6.563l-16.864-16.752-.676 1.677z"/><path fill="#42C6BF" d="M750.78 47.189l-8.817-7.018-9.203 7.018-8.869-7.018-9.688 7.018-9.928-7.018-9.423 7.018-10.227-7.018v62.95c8 7.285 17.703 12.343 28.628 14.143 2.896.477 5.77.736 8.8.736 14.133 0 27.572-5.398 36.572-14.242v-63.586l-7.845 7.017z"/><path fill="#126864" d="M696.625 63.625h30v4h-30z"/><path fill="#42C6BF" d="M737.625 62.625h11v4h-11z"/><path fill="#126864" d="M737.625 82.625h11v4h-11zm0 11h11v4h-11zm-41-22h23v4h-23zm0 11h30v4h-30zm0 11h35v4h-35z"/><linearGradient id="b" gradientUnits="userSpaceOnUse" x1="608.521" y1="-86.034" x2="891.442" y2="196.887"><stop offset="0" stop-opacity=".4"/><stop offset=".995" stop-color="#fff" stop-opacity="0"/></linearGradient><path fill="url(#b)" d="M775.714 52.561l-9.18-9.18c3.231 3.589 5.216 8.324 5.216 13.533 0 6.879-3.432 12.952-8.676 16.613-3.281 2.292-7.271 3.64-11.577 3.64-5.379 0-10.254-2.11-13.88-5.53l-.014.009 26.151 26.151c7.659-9.028 12.433-20.584 12.864-33.248.021-.625.048-1.25.048-1.881.001-3.455-.336-6.831-.952-10.107z"/><path fill="#126864" d="M766.534 43.381l-1.506-1.506-.214-.194c-3.563-3.117-8.213-5.021-13.317-5.021-6.879 0-12.953 3.432-16.614 8.676-2.292 3.281-3.64 7.272-3.64 11.578 0 5.808 2.458 11.029 6.374 14.723 3.626 3.42 8.501 5.53 13.88 5.53 4.306 0 8.296-1.348 11.577-3.64 5.244-3.661 8.676-9.734 8.676-16.613 0-5.209-1.984-9.944-5.216-13.533z"/><path fill="#fff" d="M755.127 52.918c-.512-.453-1-.794-1.463-1.021-.464-.228-.961-.34-1.489-.34-.606 0-1.061.104-1.362.312-.303.208-.454.597-.454 1.163 0 .359.18.672.538.937.36.266.814.529 1.363.795l1.759.853c.625.302 1.21.671 1.759 1.106.55.436 1.004.954 1.364 1.561.359.605.538 1.334.538 2.185 0 1.383-.363 2.574-1.092 3.577-.729 1.002-1.84 1.683-3.336 2.042v3.008h-3.177v-2.837c-.815-.096-1.68-.316-2.598-.667-.917-.351-1.735-.846-2.455-1.49l2.1-3.292c.777.567 1.472.975 2.087 1.22.614.247 1.225.37 1.83.37.719 0 1.229-.129 1.533-.384.301-.256.455-.657.455-1.206 0-.378-.182-.715-.541-1.007-.36-.293-.813-.582-1.361-.865-.549-.285-1.136-.584-1.76-.895-.625-.313-1.211-.686-1.76-1.122-.55-.435-1.003-.946-1.361-1.531-.361-.586-.541-1.296-.541-2.128 0-1.439.385-2.631 1.15-3.576.767-.947 1.84-1.57 3.222-1.874v-2.952h3.177v2.895c.909.152 1.709.436 2.398.853.691.417 1.32.927 1.889 1.533l-2.412 2.777z"/></svg>