<svg xmlns="http://www.w3.org/2000/svg" width="120.25" height="120.25" viewBox="974 0 120.25 120.25" enable-background="new 974 0 120.25 120.25"><path fill="#F7F7F7" d="M1034.334 3.334c-31.614 0-57.334 25.72-57.334 57.334 0 31.613 25.72 57.333 57.334 57.333 31.613 0 57.333-25.72 57.333-57.333 0-31.614-25.72-57.334-57.333-57.334z"/><path d="M985.257 83.625c8.73 19 27.422 31.188 49.077 31.188.992 0 1.978.063 2.957.011 1.988-.106 3.943-.473 5.869-.787l-30.41-30.412h-27.493z" fill="none"/><linearGradient id="a" gradientUnits="userSpaceOnUse" x1="990.476" y1="13.798" x2="1073.043" y2="96.366"><stop offset="0" stop-opacity=".2"/><stop offset=".995" stop-color="#fff" stop-opacity="0"/></linearGradient><path fill="url(#a)" d="M1055.732 55.625l-18.208-18h-9.44l.546 2h-17.63l-5.5.771-1.998 9.86 6.421 6.369h39.077l-1.016-1z"/><linearGradient id="b" gradientUnits="userSpaceOnUse" x1="958.751" y1="-23.726" x2="1146.519" y2="164.042"><stop offset="0" stop-opacity=".45"/><stop offset=".995" stop-color="#fff" stop-opacity="0"/></linearGradient><path fill="url(#b)" d="M1085.021 79.193l-20.396-20.307v46.614c10-6.365 16.492-15.541 20.396-26.307z"/><path fill="#42C6BF" d="M1065.604 58.981c-1.697-2.18-4.34-3.356-7.314-3.356h-74.17c-1.42 0-2.759.42-3.959.892-.094 1.3-.158 2.7-.159 4.022 10.494 4.47 25.194 7.265 41.202 7.265 17.699 0 33.817-3.514 44.4-8.823zm1.021 2.558c-10.971 5.586-27.085 9.075-45.656 9.075-16.045 0-30.266-2.61-40.928-6.92 1.57 28.599 25.277 51.307 54.27 51.307.992 0 1.802-.03 2.781-.083 11.126-.597 21.533-4.55 29.533-10.853v-39.632c0-1.011.3-1.982 0-2.894z"/><path fill="#126864" d="M1005.732 52.266c1.423 0 2.843-1.152 2.843-2.574l.14-8.633c.05-.014.252-.434.342-.434h24.292c.097 0 .276.834.276.847v8.22c0 1.422 1.078 2.574 2.5 2.574 1.424 0 2.5-1.152 2.5-2.574v-8.22c0-2.998-2.166-4.847-5.276-4.847h-24.292c-3.109 0-6.432 1.849-6.432 4.847v8.22c0 1.421 1.686 2.574 3.107 2.574z"/><linearGradient id="c" gradientUnits="userSpaceOnUse" x1="934.82" y1="-102.324" x2="1217.733" y2="180.589"><stop offset="0" stop-opacity=".3"/><stop offset=".995" stop-color="#fff" stop-opacity="0"/></linearGradient><path fill="url(#c)" d="M1076.821 39.668l-.007.013.214.194-.207-.207z"/><path fill="#126864" d="M1077.028 39.875l1.506 1.506c-.475-.528-.977-1.029-1.506-1.506z"/><linearGradient id="d" gradientUnits="userSpaceOnUse" x1="920.523" y1="-88.034" x2="1203.443" y2="194.887"><stop offset="0" stop-opacity=".4"/><stop offset=".995" stop-color="#fff" stop-opacity="0"/></linearGradient><path fill="url(#d)" d="M1087.714 50.561l-9.18-9.18c3.231 3.589 5.216 8.324 5.216 13.533 0 6.879-3.432 12.952-8.676 16.613-3.281 2.292-7.271 3.64-11.577 3.64-5.379 0-10.254-2.11-13.88-5.53l-.014.009 26.151 26.151c7.659-9.028 12.433-20.584 12.864-33.248.021-.625.048-1.25.048-1.881.001-3.455-.336-6.831-.952-10.107z"/><path fill="#126864" d="M1078.534 41.381l-1.506-1.506-.214-.194c-3.563-3.117-8.213-5.021-13.317-5.021-6.879 0-12.953 3.432-16.614 8.676-2.292 3.281-3.64 7.272-3.64 11.578 0 5.808 2.458 11.029 6.374 14.723 3.626 3.42 8.501 5.53 13.88 5.53 4.306 0 8.296-1.348 11.577-3.64 5.244-3.661 8.676-9.734 8.676-16.613 0-5.209-1.984-9.944-5.216-13.533z"/><path fill="#fff" d="M1067.127 50.918c-.512-.453-1-.794-1.463-1.021-.464-.228-.961-.34-1.489-.34-.606 0-1.061.104-1.362.312-.303.208-.454.597-.454 1.163 0 .359.18.672.538.937.36.266.814.529 1.363.795l1.759.853c.625.302 1.21.671 1.759 1.106.55.436 1.004.954 1.364 1.561.359.605.538 1.334.538 2.185 0 1.383-.363 2.574-1.092 3.577-.729 1.002-1.84 1.683-3.336 2.042v3.008h-3.177v-2.837c-.815-.096-1.68-.316-2.598-.667-.917-.351-1.735-.846-2.455-1.49l2.1-3.292c.777.567 1.472.975 2.087 1.22.614.247 1.225.37 1.83.37.719 0 1.229-.129 1.533-.384.301-.256.455-.657.455-1.206 0-.378-.182-.715-.541-1.007-.36-.293-.813-.582-1.361-.865-.549-.285-1.136-.584-1.76-.895-.625-.313-1.211-.686-1.76-1.122-.55-.435-1.003-.946-1.361-1.531-.361-.586-.541-1.296-.541-2.128 0-1.439.385-2.631 1.15-3.576.767-.947 1.84-1.57 3.222-1.874v-2.952h3.177v2.895c.909.152 1.709.436 2.398.853.691.417 1.32.927 1.889 1.533l-2.412 2.777z"/></svg>