<svg xmlns="http://www.w3.org/2000/svg" width="120.25" height="120.25" viewBox="162 171 120.25 120.25" enable-background="new 162 171 120.25 120.25"><path fill="#F7F7F7" d="M222.334 173.334c-31.614 0-57.334 25.72-57.334 57.334 0 31.613 25.72 57.333 57.334 57.333 31.613 0 57.333-25.72 57.333-57.333 0-31.614-25.72-57.334-57.333-57.334z"/><linearGradient id="a" gradientUnits="userSpaceOnUse" x1="206.243" y1="210.976" x2="306.108" y2="310.841"><stop offset="0" stop-opacity=".3"/><stop offset=".995" stop-color="#fff" stop-opacity="0"/></linearGradient><path fill="url(#a)" d="M276.501 234.585l-32.293-32.293-13.892 19.082-43.549 16.776 45.864 45.864c23.83-4.574 42.107-24.712 43.87-49.429z"/><path fill="#42C6BF" d="M186.479 232.319l31.724-31.726 22.493-.003c2.887 0 5.229 2.342 5.229 5.229l.002 22.497-31.726 31.725c-.767.767-1.77 1.149-2.772 1.149-1.004 0-2.007-.384-2.772-1.149l-22.178-22.181c-1.533-1.531-1.533-4.008 0-5.541z"/><path fill="#126864" d="M230.452 212.146c-1.004 0-2.007.383-2.772 1.147-1.531 1.53-1.531 4.013 0 5.544.767.767 1.771 1.149 2.773 1.149s2.008-.383 2.773-1.149c1.529-1.531 1.531-4.012 0-5.543-.765-.765-1.77-1.148-2.774-1.148zm-.293 5.207l-1.545-2.572c23.425-14.063 17.432-31.116 17.165-31.835l1.385-.521c.622.323 1.237.658 1.845 1.004 1.107 4.964 2.66 21.01-18.85 33.924z"/></svg>