<?xml version="1.0" encoding="utf-8"?>
<!-- Generator: Adobe Illustrator 16.0.0, SVG Export Plug-In . SVG Version: 6.00 Build 0)  -->
<!DOCTYPE svg PUBLIC "-//W3C//DTD SVG 1.1//EN" "http://www.w3.org/Graphics/SVG/1.1/DTD/svg11.dtd">
<svg version="1.1" id="Capa_1" xmlns="http://www.w3.org/2000/svg" xmlns:xlink="http://www.w3.org/1999/xlink" x="0px" y="0px"
	 width="216px" height="216px" viewBox="0 0 216 216" enable-background="new 0 0 216 216" xml:space="preserve">
<g>
	<path fill="#F47D86" d="M149.479,4.432l43.76,45.997h-29.13c-8.089,0-14.63-6.54-14.63-14.629V4.432L149.479,4.432z"/>
	<path fill="#0D3178" d="M79.989,173.703h94.318c0,10.456-8.477,18.933-18.934,18.933h-0.43H61.057
		c-10.456,0-18.932-8.477-18.932-18.933V42.296c0-10.456,8.476-18.932,18.932-18.932v131.407
		C61.057,165.227,69.533,173.703,79.989,173.703z"/>
	<path fill="#00984A" d="M61.057,192.636h93.887c0,10.456-8.477,18.933-18.932,18.933H41.694c-10.456,0-18.932-8.477-18.932-18.933
		V61.229c0-10.456,8.477-18.932,18.932-18.932h0.431v131.407C42.125,184.159,50.601,192.636,61.057,192.636z"/>
</g>
<path fill="#D71920" d="M193.238,50.429v104.386c0,10.455-8.477,18.932-18.932,18.932H79.989c-10.456,0-18.932-8.477-18.932-18.932
	V23.364c0-10.456,8.477-18.933,18.932-18.933h69.49v31.368c0,8.089,6.541,14.629,14.63,14.629H193.238z"/>
<path d="M152.577,1.377C151.76,0.516,150.641,0,149.479,0h-69.49C68.543,0,58.991,8.391,57.098,19.319
	c-9.638,1.678-17.211,9.294-18.889,18.89c-11.145,1.721-19.707,11.402-19.707,23.02v131.407c0,12.822,10.37,23.364,23.192,23.364
	h94.318c11.445,0,20.954-8.348,22.891-19.276c9.854-1.506,17.641-9.251,19.362-19.062c10.929-1.893,19.233-11.445,19.233-22.934
	v-104.3c0-1.119-0.387-2.194-1.162-3.012L152.577,1.377z M153.609,15.189l29.604,30.851h-19.104c-5.68,0-10.499-4.561-10.499-10.241
	V15.189z M136.012,207.395H41.694c-8.089,0-14.586-6.67-14.586-14.759V61.229c0-6.712,4.303-12.392,10.757-14.113v126.587
	c0,12.822,10.37,23.365,23.192,23.365h88.938C148.145,203.092,142.594,207.395,136.012,207.395z M155.373,188.462H61.057
	c-8.046,0-14.586-6.669-14.586-14.759V42.296c0-6.583,4.303-12.134,10.327-13.984v126.459c0,12.822,10.37,23.363,23.192,23.363
	h89.369C167.508,184.159,161.957,188.462,155.373,188.462z M174.307,169.529H79.989c-8.046,0-14.586-6.669-14.586-14.758V23.364
	c0-8.046,6.497-14.759,14.586-14.759h65.015v27.194c0,10.456,8.648,18.846,19.104,18.846h24.784v100.126
	C188.893,162.86,182.395,169.529,174.307,169.529z"/>
<path d="M162.56,141.992H91.735c-2.366,0-4.303,1.936-4.303,4.303c0,2.366,1.937,4.303,4.303,4.303h70.867
	c2.366,0,4.303-1.937,4.303-4.303C166.905,143.928,164.969,141.992,162.56,141.992z"/>
<path d="M127.147,117.811c-6.067,0-11.015-4.948-11.015-11.015c0-2.367-1.938-4.303-4.303-4.303c-2.367,0-4.303,1.937-4.303,4.303
	c0,9.122,6.239,16.781,14.672,19.018v4.174c0,2.366,1.936,4.303,4.303,4.303s4.303-1.937,4.303-4.303v-3.872
	c9.079-1.722,15.963-9.725,15.963-19.277c0-10.843-8.82-19.621-19.62-19.621c-6.067,0-11.015-4.948-11.015-11.016
	c0-6.067,4.947-11.015,11.015-11.015s11.015,4.948,11.015,11.015c0,2.367,1.937,4.303,4.303,4.303c2.367,0,4.303-1.937,4.303-4.303
	c0-9.595-6.884-17.555-15.963-19.276v-3.141c0-2.366-1.936-4.303-4.303-4.303s-4.303,1.937-4.303,4.303v3.356
	c-8.434,2.194-14.672,9.896-14.672,19.018c0,10.843,8.821,19.621,19.621,19.621c6.067,0,11.015,4.948,11.015,11.015
	S133.215,117.811,127.147,117.811z"/>
</svg>
