<?xml version="1.0" encoding="utf-8"?>
<!-- Generator: Adobe Illustrator 16.0.0, SVG Export Plug-In . SVG Version: 6.00 Build 0)  -->
<!DOCTYPE svg PUBLIC "-//W3C//DTD SVG 1.1//EN" "http://www.w3.org/Graphics/SVG/1.1/DTD/svg11.dtd">
<svg version="1.1" id="Layer_1" xmlns="http://www.w3.org/2000/svg" xmlns:xlink="http://www.w3.org/1999/xlink" x="0px" y="0px"
	 width="120.25px" height="120.25px" viewBox="0 0 120.25 120.25" enable-background="new 0 0 120.25 120.25" xml:space="preserve">
<path fill="#F7F7F7" d="M61.084,3.084C29.47,3.084,3.75,28.804,3.75,60.418c0,31.613,25.72,57.333,57.334,57.333
	c31.613,0,57.333-25.719,57.333-57.333C118.417,28.804,92.697,3.084,61.084,3.084L61.084,3.084z"/>
<path fill="#F4F4F4" d="M115.584,60.418c0-0.444-0.023-0.883-0.034-1.324l-30.849-30.85l-8.581,8.209l-1.703-1.703l-3.435,3.75
	L55.719,23.236l-6.429,4.887l-0.124-0.125l-0.907,0.91l-4.176,3.174l0.505,0.506l-4.553,4.564L56.013,53.13L28.75,59.75
	l11.375,11.375l-1.375,1.12l-0.439,2.741l-8.701-8.7L26.833,83l0.187,0.188l-2.27,2.563l-9.349,0.012l25.113,25.113
	c6.352,2.6,13.293,4.043,20.569,4.043C91.135,114.918,115.584,90.469,115.584,60.418z"/>
<g>
	<circle fill="#0D3178" cx="47.612" cy="29.902" r="10.494"/>
	<path fill="#0D3178" d="M68,59.523c0-8.515-8.575-15.454-19.501-15.454S29,51.026,29,59.542V60h39V59.523z"/>
	<circle fill="#0D3178" cx="77.464" cy="33.83" r="9.149"/>
	<path fill="#0D3178" d="M94,59.598c0-7.425-7.303-13.445-16.83-13.445c-3.697,0-6.913,0.908-9.721,2.45
		c1.708,2.059,3.018,4.543,3.658,6.982c0,0,0.604,3.416,0.646,4.416H94V59.598z"/>
</g>
<path fill="#0D3178" d="M18.548,81.624c0.382,0.724,0.824,1.257,1.322,1.595c0.497,0.34,0.981,0.51,1.458,0.51
	c0.385,0,0.729-0.052,1.036-0.152c0.304-0.102,0.56-0.289,0.762-0.561c0.205-0.271,0.361-0.633,0.477-1.086
	c0.111-0.451,0.169-1.029,0.169-1.73V66.285h5.838v14.389c0,1.109-0.153,2.149-0.458,3.123c-0.308,0.973-0.765,1.826-1.376,2.563
	c-0.608,0.734-1.386,1.316-2.323,1.746c-0.94,0.43-2.042,0.646-3.312,0.646c-1.808,0-3.313-0.339-4.513-1.02
	c-1.199-0.678-2.205-1.729-3.019-3.155L18.548,81.624L18.548,81.624z M43.658,88.75c-1.539,0-2.938-0.259-4.194-0.779
	c-1.253-0.52-2.329-1.273-3.224-2.258c-0.892-0.982-1.588-2.193-2.085-3.631c-0.5-1.436-0.747-3.059-0.747-4.87
	c0-1.81,0.247-3.422,0.747-4.835c0.497-1.415,1.193-2.602,2.085-3.564c0.895-0.961,1.971-1.689,3.224-2.188
	c1.256-0.497,2.655-0.747,4.194-0.747c1.515,0,2.904,0.25,4.172,0.747c1.269,0.499,2.347,1.233,3.242,2.207
	c0.892,0.974,1.588,2.161,2.088,3.563c0.496,1.402,0.744,3.008,0.744,4.817c0,1.812-0.248,3.435-0.744,4.87
	c-0.5,1.438-1.196,2.648-2.088,3.631c-0.896,0.984-1.974,1.738-3.242,2.258C46.563,88.491,45.173,88.75,43.658,88.75z
	 M43.658,83.729c1.334,0,2.38-0.582,3.14-1.748c0.756-1.164,1.136-2.754,1.136-4.769c0-2.013-0.38-3.567-1.136-4.666
	c-0.76-1.097-1.806-1.644-3.14-1.644c-1.339,0-2.385,0.547-3.14,1.644c-0.759,1.099-1.14,2.652-1.14,4.666
	c0,2.015,0.381,3.604,1.14,4.769C41.273,83.146,42.319,83.729,43.658,83.729z M57.842,66.285h5.836v22.059h-5.836V66.285z
	 M68.564,66.285h5.974l4.887,9.841l2.103,4.954h0.137c-0.066-0.586-0.146-1.232-0.237-1.934c-0.092-0.699-0.169-1.418-0.239-2.155
	c-0.064-0.733-0.129-1.47-0.184-2.206c-0.059-0.734-0.087-1.441-0.087-2.121v-6.379h5.567v22.059h-5.976l-4.886-9.877l-2.104-4.918
	h-0.136c0.136,1.266,0.291,2.646,0.474,4.139c0.181,1.492,0.272,2.92,0.272,4.277v6.379h-5.565V66.285L68.564,66.285z
	 M95.576,71.172H89.74v-4.887h17.51v4.887h-5.836v17.171h-5.838V71.172z"/>
</svg>
