<?xml version="1.0" encoding="utf-8"?>
<!-- Generator: Adobe Illustrator 16.0.0, SVG Export Plug-In . SVG Version: 6.00 Build 0)  -->
<!DOCTYPE svg PUBLIC "-//W3C//DTD SVG 1.1//EN" "http://www.w3.org/Graphics/SVG/1.1/DTD/svg11.dtd">
<svg version="1.1" id="Layer_1" xmlns="http://www.w3.org/2000/svg" xmlns:xlink="http://www.w3.org/1999/xlink" x="0px" y="0px"
	 width="216px" height="216px" viewBox="0 0 216 216" enable-background="new 0 0 216 216" xml:space="preserve">
<path fill="#D1D1D0" d="M200.73,167.586H13.407c-4.096,0-7.076-2.979-7.076-6.703s3.352-7.076,7.076-7.076h187.697
	c3.725,0,7.076,3.352,7.076,7.076C207.807,164.607,204.828,167.586,200.73,167.586L200.73,167.586z"/>
<path fill="#FFFFFF" stroke="#3B3E43" stroke-width="3" stroke-linecap="round" stroke-linejoin="round" stroke-miterlimit="10" d="
	M104.648,127.738l24.207-7.449c0,0,2.979-1.117,4.469,1.49s-1.117,4.469-3.725,5.959c-2.979,1.489-32.027,16.758-32.027,16.758
	s-4.096,2.607-7.82,1.862c-3.725-1.117-23.462-9.31-23.462-9.31h-8.938 M57.352,116.565h13.035l17.503,5.958h13.035
	c0,0,3.352,0,3.352,2.98c0,0,0.373,3.724-2.607,4.096H84.538l-3.724,2.234"/>
<path fill="#00984A" stroke="#3B3E43" stroke-width="3" stroke-linecap="round" stroke-linejoin="round" stroke-miterlimit="10" d="
	M37.614,111.352h19.366v30.91H37.614"/>
<path fill="#FFFFFF" stroke="#3B3E43" stroke-width="3" stroke-linecap="round" stroke-linejoin="round" stroke-miterlimit="10" d="
	M100.552,72.248l15.269-14.151h18.621l8.938,2.979h17.504v23.09h-7.076c0,0-8.938,7.448-20.482,6.331"/>
<path fill="#FFFFFF" stroke="#3B3E43" stroke-width="3" stroke-linecap="round" stroke-linejoin="round" stroke-miterlimit="10" d="
	M65.172,77.09h68.525v35.007H65.172V77.09z"/>
<path fill="#01B8C4" d="M64.428,80.441h64.8v26.441h-64.8V80.441z"/>
<path fill="#FFFFFF" stroke="#3B3E43" stroke-width="3" stroke-linecap="round" stroke-linejoin="round" stroke-miterlimit="10" d="
	M63.683,72.248H129.6v35.007H63.683V72.248z"/>
<path fill="#00984A" stroke="#3B3E43" stroke-width="3" stroke-linecap="round" stroke-linejoin="round" stroke-miterlimit="10" d="
	M122.523,91.986c-0.744,0.372-1.117,0.745-1.861,0.745c-1.862,0-3.352-1.49-3.352-3.352c0-1.862,1.489-3.352,3.352-3.352
	c1.861,0,3.352,1.49,3.352,3.352c0,0.373,0,0.745-0.372,1.117"/>
<path fill="#FFFFFF" stroke="#3B3E43" stroke-width="3" stroke-linecap="round" stroke-linejoin="round" stroke-miterlimit="10" d="
	M124.387,68.896l-12.29,12.29c0,0-3.353,7.448,7.448,7.448l11.172-11.172c0,0,10.428,0.745,18.621-7.82"/>
<path fill="#00984A" stroke="#3B3E43" stroke-width="3" stroke-linecap="round" stroke-linejoin="round" stroke-miterlimit="10" d="
	M183.228,89.007h-21.972V55.862h21.972"/>
<circle fill="#FFFFFF" stroke="#3B3E43" stroke-linecap="round" stroke-linejoin="round" stroke-miterlimit="10" cx="96.455" cy="89.379" r="8.193"/>
<path fill="#FFFFFF" stroke="#3B3E43" stroke-linecap="round" stroke-linejoin="round" stroke-miterlimit="10" d="M93.476,84.91
	c1.117-0.745,1.862-1.117,2.979-1.117c2.979,0,5.214,2.234,5.214,5.214s-2.234,5.214-5.214,5.214c-2.979,0-5.214-2.234-5.214-5.214
	l0.373-1.862"/>
<path fill="#00984A" stroke="#3B3E43" stroke-width="3" stroke-linecap="round" stroke-linejoin="round" stroke-miterlimit="10" d="
	M74.483,91.986c-0.745,0.372-1.117,0.745-1.862,0.745c-1.862,0-3.352-1.49-3.352-3.352c0-1.862,1.49-3.352,3.352-3.352
	c1.862,0,3.352,1.49,3.352,3.352c0,0.373,0,0.745-0.373,1.117"/>
<g>
	
		<path fill="#FFFFFF" stroke="#3B3E43" stroke-width="3" stroke-linecap="round" stroke-linejoin="round" stroke-miterlimit="10" d="
		M147.477,99.435h45.434v62.938h-45.434V99.435z"/>
	
		<path fill="#00984A" stroke="#3B3E43" stroke-width="3" stroke-linecap="round" stroke-linejoin="round" stroke-miterlimit="10" d="
		M153.435,106.138h31.655v8.193h-31.655V106.138z"/>
	
		<path fill="#FFFFFF" stroke="#3B3E43" stroke-width="3" stroke-linecap="round" stroke-linejoin="round" stroke-miterlimit="10" d="
		M153.435,122.152h7.821v7.82h-7.821V122.152z M166.842,122.152h7.82v7.82h-7.82V122.152z M179.876,122.152h5.958v21.6h-5.958
		V122.152z M153.435,135.932h7.821v7.82h-7.821V135.932z M166.842,135.932h7.82v7.82h-7.82V135.932z M153.435,149.338h7.821v7.82
		h-7.821V149.338z M166.842,149.338h7.82v7.82h-7.82V149.338z M179.876,149.338h7.821v7.82h-7.821V149.338z"/>
</g>
</svg>
