<?xml version="1.0" encoding="utf-8"?>
<!-- Generator: Adobe Illustrator 16.0.0, SVG Export Plug-In . SVG Version: 6.00 Build 0)  -->
<!DOCTYPE svg PUBLIC "-//W3C//DTD SVG 1.1//EN" "http://www.w3.org/Graphics/SVG/1.1/DTD/svg11.dtd">
<svg version="1.1" id="Layer_1" xmlns="http://www.w3.org/2000/svg" xmlns:xlink="http://www.w3.org/1999/xlink" x="0px" y="0px"
	 width="395.667px" height="203.832px" viewBox="0 0 395.667 203.832" enable-background="new 0 0 395.667 203.832"
	 xml:space="preserve">
<linearGradient id="SVGID_1_" gradientUnits="userSpaceOnUse" x1="240.0132" y1="-115.689" x2="465.4834" y2="-341.1592" gradientTransform="matrix(1 0 0 -1 -198 -83.168)">
	<stop  offset="0" style="stop-color:#000000;stop-opacity:0.4"/>
	<stop  offset="0.995" style="stop-color:#FFFFFF;stop-opacity:0"/>
</linearGradient>
<path fill="url(#SVGID_1_)" d="M201.085,103.752L5.546,68.988l67.694,67.773l-13.871,0.955l66.156,65.95H301L201.085,103.752z"/>
<g>
	<path fill="#0E52C1" d="M53.966,6.122l133.532,103.31l-48.589,62.803L5.377,68.925L53.966,6.122z"/>
	<circle fill="#FFFFFF" cx="96.466" cy="89.363" r="20.045"/>
	<path fill="#0D3178" d="M222.087,180.292c-11.948,1.265-21.219,2.247-30.49,3.215c-4.401,0.462-8.808,1.249-13.208,1.216
		c-3.093-0.021-6.258-0.931-9.254-1.875c-5.841-1.843-11.469-5.168-17.395-5.75c-9.893-0.971-19.963-0.593-29.932-0.186
		c-12.609,0.511-23.441-3.501-32.833-11.62c-8.392-7.256-16.594-14.729-24.878-22.108c-4.172-3.718-6.357-7.99-2.391-13
		c3.933-4.968,8.55-3.998,13.197-0.756c6.139,4.283,12.682,8.064,18.442,12.801c9.804,8.06,20.956,10.734,33.285,10.317
		c8.036-0.272,16.101,0.065,24.116-0.435c1.883-0.119,3.621-2.534,5.428-3.891c-1.85-1.342-3.615-3.679-5.561-3.843
		c-6.894-0.577-13.97,0.287-20.725-0.864c-2.781-0.476-6.868-4.699-6.842-7.183c0.029-2.707,4.12-7.671,6.471-7.687
		c19.078-0.146,38.213,0.043,57.216,1.553c5.03,0.398,11.482,4.639,14.14,9.02C208.522,151.826,214.564,165.409,222.087,180.292
		L222.087,180.292z M178.667,203.666h50.92l0.221-16.775l-51.141,5.135V203.666z"/>
</g>
<linearGradient id="SVGID_2_" gradientUnits="userSpaceOnUse" x1="390.0767" y1="-163.3315" x2="551.219" y2="-324.4739" gradientTransform="matrix(1 0 0 -1 -198 -83.168)">
	<stop  offset="0" style="stop-color:#000000;stop-opacity:0.2"/>
	<stop  offset="0.995" style="stop-color:#FFFFFF;stop-opacity:0"/>
</linearGradient>
<path fill="url(#SVGID_2_)" d="M212.037,109.964l-31.203-13.349l-8.033,2.825l29.672,29.671l-26.744,9.404l65.149,65.15h149.402
	L265.789,79.174L212.037,109.964z"/>
<path fill="#0E52C1" d="M261.567,72.756C251.878,57.86,235.095,48,216,48c-30.007,0-54.333,24.327-54.333,54.334
	c0,29.063,22.816,52.792,51.513,54.262c0.935,0.047,1.875,0.071,2.82,0.071c23.877,0,44.143-15.408,51.433-36.819
	c0.983-2.893,1.741-5.89,2.229-8.978c0.438-2.782,0.672-5.631,0.672-8.536C270.333,91.422,267.104,81.27,261.567,72.756
	L261.567,72.756z"/>
<path fill="#0D3178" d="M216,159.167c-0.979,0-1.971-0.024-2.949-0.075c-30.215-1.546-53.884-26.478-53.884-56.758
	c0-31.337,25.496-56.834,56.833-56.834c19.299,0,37.117,9.68,47.664,25.893c5.998,9.224,9.17,19.924,9.17,30.941
	c0,2.969-0.237,5.971-0.705,8.926c-0.496,3.146-1.279,6.307-2.33,9.395C261.955,143.689,240.333,159.167,216,159.167L216,159.167z
	 M216,50.5c-28.582,0-51.833,23.254-51.833,51.834c0,27.617,21.585,50.354,49.141,51.766c0.896,0.045,1.8,0.067,2.692,0.067
	c22.193,0,41.912-14.115,49.064-35.125c0.959-2.815,1.674-5.696,2.127-8.562c0.426-2.698,0.643-5.438,0.643-8.146
	c0-10.047-2.893-19.804-8.361-28.214C249.852,59.33,233.601,50.5,216,50.5L216,50.5z"/>
<linearGradient id="SVGID_3_" gradientUnits="userSpaceOnUse" x1="400.9995" y1="-172.8335" x2="457.9037" y2="-229.7378" gradientTransform="matrix(1 0 0 -1 -198 -83.168)">
	<stop  offset="0" style="stop-color:#000000;stop-opacity:0.4"/>
	<stop  offset="0.995" style="stop-color:#FFFFFF;stop-opacity:0"/>
</linearGradient>
<path fill="url(#SVGID_3_)" d="M267.432,119.848c0.321-0.943,0.608-1.902,0.88-2.869L222,70.666l-3,3.5l-0.25,11.5l-5.393,14.667
	l-15.857,2l-13.5,6.333l46.132,46.133C247.63,150.093,261.634,136.873,267.432,119.848z"/>
<path fill="#FFFFFF" d="M247.667,95.666h-26v-25h-13v25h-25v13h25v26h13v-26h26V95.666z"/>
</svg>
