<?xml version="1.0" encoding="utf-8"?>
<!-- Generator: Adobe Illustrator 16.0.0, SVG Export Plug-In . SVG Version: 6.00 Build 0)  -->
<!DOCTYPE svg PUBLIC "-//W3C//DTD SVG 1.1//EN" "http://www.w3.org/Graphics/SVG/1.1/DTD/svg11.dtd">
<svg version="1.1" id="Layer_1" xmlns="http://www.w3.org/2000/svg" xmlns:xlink="http://www.w3.org/1999/xlink" x="0px" y="0px"
	 width="423.49px" height="216.889px" viewBox="0 0 423.49 216.889" enable-background="new 0 0 423.49 216.889"
	 xml:space="preserve">
<linearGradient id="SVGID_1_" gradientUnits="userSpaceOnUse" x1="270.7344" y1="-179.2253" x2="441.1674" y2="-349.6573" gradientTransform="matrix(1 0 0 -1 -198 -70.1108)">
	<stop  offset="0" style="stop-color:#000000;stop-opacity:0.3"/>
	<stop  offset="0.995" style="stop-color:#FFFFFF;stop-opacity:0"/>
</linearGradient>
<path fill="url(#SVGID_1_)" d="M268.25,159.825l-16.827,5.003L231,145.487l-189.666,3.539l-18,9.488L2.191,183.21l20.004,20.206
	h289.681L268.25,159.825z"/>
<linearGradient id="SVGID_2_" gradientUnits="userSpaceOnUse" x1="261.0732" y1="-91.8982" x2="474.2352" y2="-305.0592" gradientTransform="matrix(1 0 0 -1 -198 -70.1108)">
	<stop  offset="0" style="stop-color:#000000;stop-opacity:0.3"/>
	<stop  offset="0.995" style="stop-color:#FFFFFF;stop-opacity:0"/>
</linearGradient>
<path fill="url(#SVGID_2_)" d="M145.172,47.38L34.984,49.875l153.211,153.541H301L145.172,47.38z"/>
<path fill="#0D3178" d="M168.286,153.058L34.758,49.751L83.345-13.05L216.873,90.257L168.286,153.058z"/>
<circle fill="#6DCFF6" cx="125.844" cy="70.185" r="20.045"/>
<path fill="#0D3178" d="M75.166,135.834l11.25-15.084l29.293-12.667l19.578-3.667H158l9.334,5.585V140c0,0-6.833,3.537-9.499,5.436
	c-2.668,1.898-64.083,0-64.083,0L75.166,135.834z"/>
<path fill="#6DCFF6" d="M269.164,160.109c-0.166-0.391-0.703-1.342-4.283-1.89c-3.219-4.035-5.687-7.678-14.563-12.844
	C212.851,108.315,132.499,72.924,60.7,134.932c-51.2,2.655-52.034,30.763-59.512,30.467c-1.002,11.418-4.854,23.522,20.854,24.329
	c1.873-50.603,59.408-38.679,56.465,0h120.076c-6.268-39.817,53.645-50.676,54.82-3.204
	C268.528,186.618,272.312,176.641,269.164,160.109z M157.027,136.461c-22.683,0-45.378,0.876-68.068,0.876v-12.063
	c20.23-16.968,47.732-19.212,68.068-16.388V136.461z"/>
<path fill="#0D3178" d="M50.791,160.299c-12.406,0-22.473,9.608-22.473,21.488c0,11.856,10.066,21.479,22.473,21.479
	c12.4,0,22.467-9.622,22.467-21.479C73.258,169.907,63.191,160.299,50.791,160.299z M226.097,160.299
	c-12.406,0-22.46,9.608-22.46,21.488c0,11.856,10.054,21.479,22.46,21.479c12.408,0,22.459-9.622,22.459-21.479
	C248.556,169.907,238.505,160.299,226.097,160.299z"/>
<linearGradient id="SVGID_3_" gradientUnits="userSpaceOnUse" x1="444.124" y1="376.2649" x2="605.2687" y2="537.4086" gradientTransform="matrix(1 0 0 1 -218.8398 -296.7676)">
	<stop  offset="0" style="stop-color:#000000;stop-opacity:0.2"/>
	<stop  offset="0.995" style="stop-color:#FFFFFF;stop-opacity:0"/>
</linearGradient>
<path fill="url(#SVGID_3_)" d="M245.244,109.298l-31.202-13.349l-8.033,2.823l29.672,29.672l-26.744,9.405l65.15,65.15H423.49
	L298.996,78.508L245.244,109.298z"/>
<path fill="#0D3178" d="M294.774,72.09c-9.688-14.896-26.471-24.756-45.565-24.756c-30.01,0-54.334,24.327-54.334,54.334
	c0,29.063,22.815,52.792,51.515,54.262c0.934,0.047,1.873,0.071,2.819,0.071c23.877,0,44.142-15.408,51.433-36.819
	c0.983-2.893,1.739-5.89,2.229-8.978c0.437-2.782,0.672-5.633,0.672-8.536C303.542,90.756,300.31,80.604,294.774,72.09z"/>
<path fill="#6DCFF6" d="M249.208,158.501c-0.979,0-1.971-0.024-2.949-0.075c-30.217-1.546-53.885-26.479-53.885-56.758
	c0-31.337,25.496-56.834,56.834-56.834c19.299,0,37.115,9.68,47.662,25.893c6,9.226,9.172,19.924,9.172,30.941
	c0,2.969-0.238,5.971-0.707,8.926c-0.494,3.146-1.277,6.307-2.33,9.396C295.164,143.023,273.542,158.501,249.208,158.501
	L249.208,158.501z M249.208,49.834c-28.582,0-51.834,23.254-51.834,51.834c0,27.617,21.584,50.354,49.139,51.766
	c0.898,0.045,1.801,0.067,2.695,0.067c22.193,0,41.91-14.114,49.064-35.125c0.957-2.815,1.674-5.696,2.125-8.563
	c0.428-2.698,0.645-5.438,0.645-8.146c0-10.047-2.893-19.806-8.361-28.214C283.058,58.664,266.81,49.834,249.208,49.834
	L249.208,49.834z"/>
<linearGradient id="SVGID_4_" gradientUnits="userSpaceOnUse" x1="455.0479" y1="385.7688" x2="511.9511" y2="442.671" gradientTransform="matrix(1 0 0 1 -218.8398 -296.7676)">
	<stop  offset="0" style="stop-color:#000000;stop-opacity:0.4"/>
	<stop  offset="0.995" style="stop-color:#FFFFFF;stop-opacity:0"/>
</linearGradient>
<path fill="url(#SVGID_4_)" d="M300.64,119.182c0.32-0.942,0.609-1.902,0.881-2.869L255.208,70l-3,3.5l-0.25,11.5l-5.393,14.667
	l-15.857,2l-13.5,6.333l46.133,46.133C280.839,149.428,294.843,136.207,300.64,119.182L300.64,119.182z"/>
<path fill="#FFFFFF" d="M280.876,95h-26V70h-13v25h-25.001v13h25.001v26h13v-26h26V95z"/>
</svg>
