<?xml version="1.0" encoding="utf-8"?>
<!-- Generator: Adobe Illustrator 16.0.0, SVG Export Plug-In . SVG Version: 6.00 Build 0)  -->
<!DOCTYPE svg PUBLIC "-//W3C//DTD SVG 1.1//EN" "http://www.w3.org/Graphics/SVG/1.1/DTD/svg11.dtd">
<svg version="1.1" id="Layer_1" xmlns="http://www.w3.org/2000/svg" xmlns:xlink="http://www.w3.org/1999/xlink" x="0px" y="0px"
	 width="216px" height="216px" viewBox="0 0 216 216" enable-background="new 0 0 216 216" xml:space="preserve">
<circle fill="#FFFFFF" stroke="#3B3E43" stroke-width="3" stroke-linecap="round" stroke-linejoin="round" stroke-miterlimit="10" cx="50.276" cy="120.29" r="32.028"/>
<path fill="#D1D1D0" d="M200.73,167.586H13.407c-4.096,0-7.076-2.979-7.076-6.703s3.352-7.076,7.076-7.076h187.697
	c3.725,0,7.076,3.352,7.076,7.076C207.807,164.607,204.828,167.586,200.73,167.586L200.73,167.586z"/>
<path fill="#FFFFFF" stroke="#3B3E43" stroke-width="3" stroke-linecap="round" stroke-linejoin="round" stroke-miterlimit="10" d="
	M63.311,127.738l28.676-11.173l33.89-16.014l32.027,16.386l27.559,11.173v32.027H63.311V127.738z"/>
<path fill="#D1D1D0" d="M97.945,115.076l17.503,43.944h17.503l19.366-43.944l-27.187-12.662L97.945,115.076L97.945,115.076z"/>
<path fill="#D1D1D0" stroke="#3B3E43" stroke-width="3" stroke-linecap="round" stroke-linejoin="round" stroke-miterlimit="10" d="
	M129.6,26.814c-14.896-0.373-20.109,3.352-25.324,9.683c-4.841,5.958-5.214,14.524-5.214,14.524l0.373,27.559h53.628l0.744-31.655
	C153.807,47.296,150.828,27.559,129.6,26.814z"/>
<path fill="#FFFFFF" stroke="#3B3E43" stroke-width="3" stroke-linecap="round" stroke-linejoin="round" stroke-miterlimit="10" d="
	M125.876,130.717c-8.938,0-16.014-7.075-16.014-16.014v-12.662h32.399v12.662C141.89,123.27,134.814,130.717,125.876,130.717z
	 M131.834,107.255h-14.151c-8.192,0-13.779-7.449-13.779-16.014v-6.703h-1.117c-2.607,0-5.214-2.234-5.214-4.841
	s2.607-4.842,5.214-4.842h1.117V42.828h43.944v32.027h1.117c2.607,0,4.842,2.235,4.842,4.842s-2.234,4.841-4.842,4.841h-1.117v6.703
	c0,4.469-2.979,8.565-5.958,11.545"/>
<path fill="#D1D1D0" d="M149.711,41.71v4.841l-9.684-2.607l-1.861,7.448l-17.504-2.979l3.352,10.055
	c0,0-13.779-10.427-16.014-12.662c0,0-5.586-0.372-5.586,3.352c0,0-1.489-5.958,2.607-10.055"/>
<path fill="none" stroke="#3B3E43" stroke-width="3" stroke-linecap="round" stroke-linejoin="round" stroke-miterlimit="10" d="
	M147.848,47.296l-7.82-2.979l-1.861,7.448l-17.504-2.979l3.352,10.055c0,0-14.523-10.428-16.758-12.29c0,0-3.352,0.373-2.979,3.724
	 M89.007,119.545v24.951h10.055l-2.607,8.566 M151.945,116.193v28.303h-2.607l-1.117,9.311 M97.945,115.448l18.249,44.317
	 M151.572,114.703l-17.875,45.063"/>
<path fill="none" stroke="#00984A" stroke-width="5" stroke-linecap="round" stroke-linejoin="round" stroke-miterlimit="10" d="
	M64.428,93.476l-28.304,53.627"/>
</svg>
