<?xml version="1.0" encoding="utf-8"?>
<!-- Generator: Adobe Illustrator 16.0.0, SVG Export Plug-In . SVG Version: 6.00 Build 0)  -->
<!DOCTYPE svg PUBLIC "-//W3C//DTD SVG 1.1//EN" "http://www.w3.org/Graphics/SVG/1.1/DTD/svg11.dtd">
<svg version="1.1" id="Layer_1" xmlns="http://www.w3.org/2000/svg" xmlns:xlink="http://www.w3.org/1999/xlink" x="0px" y="0px"
	 width="216px" height="216px" viewBox="0 0 216 216" enable-background="new 0 0 216 216" xml:space="preserve">
<path fill="#D1D1D0" d="M197.424,165.889H13.392c-3.888,0-6.912-3.024-6.912-6.912c0-3.889,3.024-6.912,6.912-6.912h184.032
	c3.889,0,6.912,3.023,6.912,6.912C204.336,162.432,201.313,165.889,197.424,165.889z"/>
<path fill="#FFFFFF" d="M127.008,152.496c-23.76,0-42.768-19.008-42.768-42.768c0-22.896,19.008-42.769,42.768-42.769
	s42.768,19.008,42.768,42.769C169.775,133.488,150.768,152.496,127.008,152.496z"/>
<path fill="#3E3E3E" d="M157.68,37.584c1.729,0,3.024-1.296,3.024-3.024s-1.296-3.024-3.024-3.024c-1.728,0-3.023,1.296-3.023,3.024
	S155.952,37.584,157.68,37.584z M146.448,37.584c1.728,0,3.024-1.296,3.024-3.024s-1.297-3.024-3.024-3.024
	s-3.024,1.296-3.024,3.024S144.721,37.584,146.448,37.584z M134.784,37.584c1.728,0,3.024-1.296,3.024-3.024
	s-1.297-3.024-3.024-3.024s-3.024,1.296-3.024,3.024S133.488,37.584,134.784,37.584z M161.568,50.112
	c-1.729,0-3.024,1.296-3.024,3.024c0,1.729,1.296,3.024,3.024,3.024c1.728,0,3.023-1.296,3.023-3.024
	C164.592,51.84,163.296,50.112,161.568,50.112z M158.977,41.904c0,1.728,1.295,3.024,3.023,3.024s3.023-1.296,3.023-3.024
	s-1.728-3.024-3.455-3.024C160.704,38.88,158.977,40.608,158.977,41.904L158.977,41.904z"/>
<path fill="#0D3178" d="M159.84,71.28c0.432,0.432,1.297,0.432,2.16,0.432c1.296,0,1.729,0,2.16-0.432l9.072-9.072
	c1.295-1.296,1.295-3.024,0-3.888c-1.297-1.296-3.024-1.296-3.889,0L162,65.232l-6.48-6.912c-1.295-1.296-3.023-1.296-3.888,0
	c-1.296,1.296-1.296,3.024,0,3.888L159.84,71.28L159.84,71.28z"/>
<path fill="#3E3E3E" d="M83.808,135.648c-1.728,0-3.024,1.295-3.024,3.023s1.296,3.023,3.024,3.023s3.024-1.295,3.024-3.023
	C86.832,136.512,85.536,135.648,83.808,135.648z M51.408,134.352c-1.728,0-3.024,1.297-3.024,3.024s1.296,3.024,3.024,3.024
	s3.024-1.297,3.024-3.024C54,135.648,52.704,134.352,51.408,134.352z M72.576,135.648c-1.728,0-3.024,1.295-3.024,3.023
	s1.296,3.023,3.024,3.023s3.024-1.295,3.024-3.023C75.168,136.512,74.304,135.648,72.576,135.648z M60.912,135.648
	c-1.728,0-3.024,1.295-3.024,3.023s1.296,3.023,3.024,3.023s3.024-1.295,3.024-3.023C63.936,136.512,62.64,135.648,60.912,135.648z"
	/>
<circle fill="#3E3E3E" cx="51.408" cy="125.712" r="3.024"/>
<path fill="#0D3178" d="M62.208,121.393c1.296-1.297,1.296-3.024,0-3.889l-9.072-9.072c-1.296-1.296-3.024-1.296-3.888,0
	l-9.072,9.072c-1.296,1.296-1.296,3.023,0,3.889c1.296,1.295,3.024,1.295,3.888,0l5.184-5.185c0.432,0.433,1.296,1.296,2.16,1.296
	c1.296,0,1.728-0.432,2.16-1.296l5.184,5.185c0,0.432,0.432,0.432,1.296,0.432C60.48,121.824,61.776,121.824,62.208,121.393
	L62.208,121.393z"/>
<circle fill="#FFFFFF" stroke="#3B3E43" stroke-width="5" stroke-linecap="round" stroke-linejoin="round" stroke-miterlimit="10" cx="91.584" cy="68.256" r="43.2"/>
<text transform="matrix(1 0 0 1 75.0352 84.125)" fill="#0D3178" font-family="'MyriadPro-Regular'" font-size="59.7802">£</text>
<circle fill="#FFFFFF" stroke="#3B3E43" stroke-width="5" stroke-linecap="round" stroke-linejoin="round" stroke-miterlimit="10" cx="131.76" cy="113.184" r="43.2"/>
<path fill="#0D3178" d="M123.984,119.664c0,2.16,0.863,3.888,2.16,5.184c1.295,1.297,3.023,2.16,4.752,2.16v-12.96
	c-1.729-0.432-3.024-0.864-4.32-1.296c-1.297-0.432-2.16-1.296-3.023-1.729c-0.865-0.863-1.297-1.728-1.729-2.591
	c-0.864-0.864-0.864-1.728-0.864-3.456c0-1.296,0.433-2.592,0.864-3.888s1.296-2.16,2.16-3.024c0.863-0.864,1.728-1.728,3.023-2.16
	c1.297-0.432,2.592-0.864,3.889-0.864v-3.024h2.592v3.024c2.592,0.432,4.752,1.296,6.048,3.024c1.728,1.728,2.592,3.888,3.456,6.48
	h-3.889c-0.432-3.024-2.592-5.184-5.184-5.616v11.664l3.023,0.864c0.433,0,1.297,0.433,2.16,0.864
	c0.864,0.432,1.729,0.863,2.592,1.728l2.16,2.593c0.433,0.863,0.865,2.159,0.865,3.887c0,1.729-0.433,3.025-0.865,4.32
	c-0.432,1.297-1.295,2.16-2.16,3.024c-0.863,0.864-2.159,1.728-3.455,2.16c-1.297,0.432-2.592,0.864-4.32,0.864v3.888h-2.592v-3.888
	c-3.023-0.433-5.616-1.297-7.775-3.457c-1.729-1.728-3.025-4.752-3.025-7.775H123.984L123.984,119.664z M130.464,98.928
	c-1.728,0-3.024,0.864-3.888,1.728c-0.864,0.864-1.729,2.16-1.729,4.32c0,0.864,0,1.728,0.432,2.16
	c0.433,0.432,0.865,1.296,1.297,1.296c0.432,0.432,1.296,0.864,1.729,0.864c0.432,0,1.295,0.433,2.159,0.864V98.928z
	 M133.488,127.008l2.592-0.432c0.863-0.432,1.296-0.432,2.16-1.296l1.296-1.729c0.432-0.864,0.432-1.728,0.432-2.592
	s0-1.728-0.432-2.16l-1.296-1.728c-0.432-0.432-1.297-0.864-2.16-1.297l-2.592-0.863V127.008z"/>
</svg>
