<?xml version="1.0" encoding="utf-8"?>
<!-- Generator: Adobe Illustrator 16.0.0, SVG Export Plug-In . SVG Version: 6.00 Build 0)  -->
<!DOCTYPE svg PUBLIC "-//W3C//DTD SVG 1.1//EN" "http://www.w3.org/Graphics/SVG/1.1/DTD/svg11.dtd">
<svg version="1.1" id="Layer_1" xmlns="http://www.w3.org/2000/svg" xmlns:xlink="http://www.w3.org/1999/xlink" x="0px" y="0px"
	 width="120.25px" height="120.25px" viewBox="0 0 120.25 120.25" enable-background="new 0 0 120.25 120.25" xml:space="preserve">
<path fill="#F7F7F7" d="M58.834,2.834C27.22,2.834,1.5,28.554,1.5,60.168c0,31.613,25.72,57.333,57.334,57.333
	c31.613,0,57.333-25.72,57.333-57.333C116.167,28.554,90.447,2.834,58.834,2.834L58.834,2.834z"/>
<path fill="none" d="M58.834,114.501c7.242,0,14.148-1.429,20.467-4.001H38.362C44.681,113.075,51.589,114.501,58.834,114.501z"/>
<path fill="#00984A" d="M58.188,19.212L10.771,51.5h94.834L58.188,19.212z"/>
<path fill="none" d="M58.834,114.501c14.003,0,26.768-5.301,36.4-14.001H22.433C32.066,109.2,44.83,114.501,58.834,114.501z"/>
<linearGradient id="SVGID_1_" gradientUnits="userSpaceOnUse" x1="191.6406" y1="-235.6401" x2="338.2796" y2="-382.2791" gradientTransform="matrix(1 0 0 -1 -198 -166.75)">
	<stop  offset="0" style="stop-color:#000000;stop-opacity:0.2"/>
	<stop  offset="0.995" style="stop-color:#FFFFFF;stop-opacity:0"/>
</linearGradient>
<path fill="url(#SVGID_1_)" d="M33.439,108.191c-0.766-0.406-1.521-0.83-2.266-1.271C31.918,107.361,32.673,107.786,33.439,108.191z
	"/>
<linearGradient id="SVGID_2_" gradientUnits="userSpaceOnUse" x1="190.2178" y1="-237.0615" x2="336.8578" y2="-383.7005" gradientTransform="matrix(1 0 0 -1 -198 -166.75)">
	<stop  offset="0" style="stop-color:#000000;stop-opacity:0.2"/>
	<stop  offset="0.995" style="stop-color:#FFFFFF;stop-opacity:0"/>
</linearGradient>
<path fill="url(#SVGID_2_)" d="M21.918,100.021l0.171,0.15l-0.159-0.15H21.918z"/>
<linearGradient id="SVGID_3_" gradientUnits="userSpaceOnUse" x1="227.3232" y1="-199.9526" x2="373.9627" y2="-346.5921" gradientTransform="matrix(1 0 0 -1 -198 -166.75)">
	<stop  offset="0" style="stop-color:#000000;stop-opacity:0.2"/>
	<stop  offset="0.995" style="stop-color:#FFFFFF;stop-opacity:0"/>
</linearGradient>
<path fill="url(#SVGID_3_)" d="M113.167,60.168l-0.024-0.958l-7.56-7.552l-4.097-0.158H12.911l-2.141,0.258l17.73,17.73V57.5h5v33
	h-4.605l-0.009,0.075L34.83,96.5h64.396C107.891,86.874,113.167,74.139,113.167,60.168z M51.5,90.5h-5v-33h5V90.5z M69.5,90.5h-5
	v-33h5V90.5z M82.5,90.5v-33h5v33H82.5z"/>
<linearGradient id="SVGID_4_" gradientUnits="userSpaceOnUse" x1="218.3154" y1="-209.3218" x2="364.5522" y2="-355.5586" gradientTransform="matrix(1 0 0 -1 -198 -166.75)">
	<stop  offset="0" style="stop-color:#000000;stop-opacity:0.2"/>
	<stop  offset="0.995" style="stop-color:#FFFFFF;stop-opacity:0"/>
</linearGradient>
<path fill="url(#SVGID_4_)" d="M86.469,106.943c-0.75,0.445-1.511,0.871-2.283,1.279C84.958,107.814,85.719,107.389,86.469,106.943z
	"/>
<linearGradient id="SVGID_5_" gradientUnits="userSpaceOnUse" x1="192.1934" y1="-235.0869" x2="338.8323" y2="-381.7269" gradientTransform="matrix(1 0 0 -1 -198 -166.75)">
	<stop  offset="0" style="stop-color:#000000;stop-opacity:0.2"/>
	<stop  offset="0.995" style="stop-color:#FFFFFF;stop-opacity:0"/>
</linearGradient>
<path fill="url(#SVGID_5_)" d="M35.799,109.372c-0.768-0.36-1.525-0.737-2.272-1.133C34.273,108.634,35.031,109.012,35.799,109.372z
	"/>
<linearGradient id="SVGID_6_" gradientUnits="userSpaceOnUse" x1="210.4346" y1="-216.8438" x2="357.0763" y2="-363.4854" gradientTransform="matrix(1 0 0 -1 -198 -166.75)">
	<stop  offset="0" style="stop-color:#000000;stop-opacity:0.2"/>
	<stop  offset="0.995" style="stop-color:#FFFFFF;stop-opacity:0"/>
</linearGradient>
<path fill="url(#SVGID_6_)" d="M95.234,100.5H22.458c2.675,2.413,5.589,4.563,8.704,6.412c-0.762-0.453-1.512-0.924-2.25-1.412
	h59.865c-0.737,0.488-1.488,0.959-2.25,1.411c4.744-2.817,9.024-6.331,12.695-10.409C97.964,97.9,96.633,99.236,95.234,100.5z"/>
<linearGradient id="SVGID_7_" gradientUnits="userSpaceOnUse" x1="204.8662" y1="-222.4126" x2="351.5059" y2="-369.0523" gradientTransform="matrix(1 0 0 -1 -198 -166.75)">
	<stop  offset="0" style="stop-color:#000000;stop-opacity:0.2"/>
	<stop  offset="0.995" style="stop-color:#FFFFFF;stop-opacity:0"/>
</linearGradient>
<path fill="url(#SVGID_7_)" d="M38.362,110.5c-0.821-0.335-1.633-0.689-2.434-1.064c6.961,3.244,14.718,5.065,22.905,5.065
	c9.146,0,17.758-2.271,25.319-6.263c-1.572,0.83-3.192,1.586-4.854,2.262H38.362z"/>
<path fill="#0D3178" d="M28.5,57.5h5v33h-5V57.5z M46.5,57.5h5v33h-5V57.5z M64.5,57.5h5v33h-5V57.5z M82.5,57.5h5v33h-5V57.5z"/>
<path fill="#1B6D69" d="M35.929,109.436l-0.13-0.063L35.929,109.436z M86.527,106.911l-0.06,0.032L86.527,106.911z M84.186,108.223
	l-0.031,0.016L84.186,108.223z M33.526,108.238l-0.087-0.047L33.526,108.238z M31.174,106.92l-0.012-0.008L31.174,106.92z"/>
<path fill="#00984A" d="M28.912,105.5c0.738,0.488,1.488,0.959,2.25,1.412l0.012,0.008c0.744,0.441,1.5,0.865,2.266,1.271
	l0.087,0.048c0.747,0.396,1.505,0.772,2.272,1.133l0.13,0.063c0.801,0.373,1.612,0.729,2.434,1.063h40.938
	c1.66-0.676,3.28-1.433,4.854-2.263l0.031-0.016c0.772-0.406,1.533-0.834,2.283-1.277l0.059-0.033
	c0.763-0.452,1.514-0.924,2.25-1.411L28.912,105.5L28.912,105.5z"/>
<path fill="#1B6D69" d="M99.227,96.5l-0.002,0.002L99.227,96.5z M22.433,100.5h0.025l-0.369-0.327L22.433,100.5z"/>
<path fill="#00984A" d="M18.441,96.5c1.106,1.229,2.275,2.396,3.488,3.521l0.159,0.15l0.369,0.327h72.775
	c1.398-1.263,2.729-2.599,3.99-3.998l0.002-0.002L18.441,96.5L18.441,96.5z"/>
</svg>
