<?xml version="1.0" encoding="utf-8"?>
<!-- Generator: Adobe Illustrator 16.0.0, SVG Export Plug-In . SVG Version: 6.00 Build 0)  -->
<!DOCTYPE svg PUBLIC "-//W3C//DTD SVG 1.1//EN" "http://www.w3.org/Graphics/SVG/1.1/DTD/svg11.dtd">
<svg version="1.1" id="Layer_1" xmlns="http://www.w3.org/2000/svg" xmlns:xlink="http://www.w3.org/1999/xlink" x="0px" y="0px"
	 width="216px" height="216px" viewBox="0 0 216 216" enable-background="new 0 0 216 216" xml:space="preserve">
<path fill="#D1D1D0" d="M197.424,165.889H13.392c-3.888,0-6.912-3.024-6.912-6.912c0-3.889,3.024-6.912,6.912-6.912h184.032
	c3.889,0,6.912,3.023,6.912,6.912C204.336,162.432,201.313,165.889,197.424,165.889z"/>
<path fill="#FFFFFF" d="M132.624,28.512H54.432c-6.912,0-12.096,5.616-12.096,12.096v116.64l3.456-3.023l3.024,3.023l2.592-3.023
	L54,157.248l3.024-3.023l3.024,3.023l3.024-3.023l3.024,3.023l2.592-3.023l3.024,3.023l2.592-3.023l3.024,3.023l2.592-3.023
	l2.592,3.023l2.592-3.023l2.592,3.023l3.024-3.023l3.024,3.023l3.024-3.023l2.592,3.023l3.024-3.023l3.024,3.023l3.024-3.023
	l2.591,3.023l2.593-3.023l3.024,3.023l2.592-3.023l2.592,3.023h7.775"/>
<path fill="none" stroke="#3B3E43" stroke-width="5" stroke-linecap="round" stroke-linejoin="round" stroke-miterlimit="10" d="
	M132.624,28.512H54.432c-6.912,0-12.096,5.616-12.096,12.096v116.64l3.456-3.023l3.024,3.023l2.592-3.023L54,157.248l3.024-3.023
	l3.024,3.023l3.024-3.023l3.024,3.023l2.592-3.023l3.024,3.023l2.592-3.023l3.024,3.023l2.592-3.023l2.592,3.023l2.592-3.023
	l2.592,3.023l3.024-3.023l3.024,3.023l3.024-3.023l2.592,3.023l3.024-3.023l3.024,3.023l3.024-3.023l2.591,3.023l2.593-3.023
	l3.024,3.023l2.592-3.023l2.592,3.023"/>
<path fill="#9CDCF8" d="M128.305,158.544h9.936c1.728,0,3.023-1.296,3.023-3.024V36.288c0-4.32-3.455-7.776-7.775-7.776
	s-7.776,3.456-7.776,7.776v119.664C126.145,157.248,127.008,158.544,128.305,158.544L128.305,158.544z"/>
<path fill="none" stroke="#3B3E43" stroke-width="5" stroke-linecap="round" stroke-linejoin="round" stroke-miterlimit="10" d="
	M126.145,68.256v57.456 M126.145,49.68V35.856c0-4.32,3.455-7.344,7.344-7.344c4.32,0,7.344,3.456,7.344,7.344v83.376
	 M81.216,47.952H52.272 M113.184,99.36H53.136 M113.184,110.16H53.136 M113.184,120.527H53.136 M113.184,130.896H53.136
	 M113.184,141.264H82.08 M113.184,58.752h-21.6 M86.4,58.752H52.272"/>
<path fill="#9CDCF8" d="M114.86,88.655H52.652v-19.44h62.208V88.655z"/>
<path fill="#FFFFFF" stroke="#3B3E43" stroke-width="5" stroke-linecap="round" stroke-linejoin="round" stroke-miterlimit="10" d="
	M171.418,150.785h-17.713v-108h17.713V150.785z"/>
<path fill="#9CDCF8" d="M170.131,86.771H155.01V42.708h15.121V86.771z"/>
<path fill="#FFFFFF" stroke="#3B3E43" stroke-width="5" stroke-linecap="round" stroke-linejoin="round" stroke-miterlimit="10" d="
	M162.864,26.784l8.64,15.552h-17.712L162.864,26.784z M167.098,158.988h-8.641v-8.207h8.641V158.988z M162.864,150.336V110.16
	 M165.889,74.304h-5.617 M165.889,68.256h-5.617 M165.889,62.208h-5.617"/>
</svg>
