<svg xmlns="http://www.w3.org/2000/svg" xmlns:xlink="http://www.w3.org/1999/xlink" viewBox="0 0 64 64"><style>.st2{fill:#fff}.st9{fill:#5fb0e5}.st10{fill:#d2e9f7}.st11{fill:#0686d8}.st13{clip-path:url(#SVGID_2_)}.st15{clip-path:url(#SVGID_6_)}.st17{clip-path:url(#SVGID_10_)}.st19{clip-path:url(#SVGID_14_)}.st21{clip-path:url(#SVGID_18_)}.st23{clip-path:url(#SVGID_22_)}.st25{clip-path:url(#SVGID_26_)}.st27{clip-path:url(#SVGID_30_)}.st29{clip-path:url(#SVGID_34_)}.st31{clip-path:url(#SVGID_38_)}.st33{clip-path:url(#SVGID_42_)}.st35{clip-path:url(#SVGID_46_)}.st37{clip-path:url(#SVGID_50_)}.st39{clip-path:url(#SVGID_54_)}.st41{clip-path:url(#SVGID_58_)}.st43{clip-path:url(#SVGID_62_)}.st45{clip-path:url(#SVGID_66_)}.st71{clip-path:url(#SVGID_118_)}.st73{clip-path:url(#SVGID_122_)}.st75{clip-path:url(#SVGID_126_)}.st77{clip-path:url(#SVGID_130_)}.st79{clip-path:url(#SVGID_134_)}.st81{clip-path:url(#SVGID_138_)}.st84{clip-path:url(#SVGID_142_)}.st86{clip-path:url(#SVGID_146_)}.st88{clip-path:url(#SVGID_150_)}.st90{clip-path:url(#SVGID_154_)}.st92{clip-path:url(#SVGID_158_)}.st94{clip-path:url(#SVGID_162_)}.st96{clip-path:url(#SVGID_166_)}.st98{clip-path:url(#SVGID_170_)}.st100{clip-path:url(#SVGID_174_)}.st102{clip-path:url(#SVGID_178_)}.st104{clip-path:url(#SVGID_182_)}.st106{clip-path:url(#SVGID_186_)}.st108{clip-path:url(#SVGID_190_)}.st110{clip-path:url(#SVGID_194_)}.st112{clip-path:url(#SVGID_198_)}.st114{clip-path:url(#SVGID_202_)}</style><g id="Layer_1"><g id="XMLID_1005_"><g id="XMLID_1006_"><path class="st2" d="M14 13.9l.4-1.9c.2-1.3 1.4-2.3 2.8-2.1l28.5 3.7c1.3.2 2.3 1.4 2.1 2.8l-5.2 40.2-32.4-9.9L14 13.9z" id="XMLID_1047_"/><g id="XMLID_1045_"><path id="XMLID_1046_" class="st11" d="M43.7 56.7l-2.1-.3 5.2-40.2c.1-.8-.4-1.5-1.2-1.6L17 10.9c-.4-.1-.7 0-1 .3-.3.2-.5.6-.5.9l-.4 2-2.1-.4.4-1.9c.1-.9.6-1.7 1.3-2.3.7-.6 1.7-.8 2.6-.7l28.5 3.7c1.9.3 3.3 2 3.1 4l-5.2 40.2z"/></g><g id="XMLID_1036_"><path class="st2" d="M53.8 60.9H51c-.2 0-.4-.2-.4-.4V20.8v-.2l1.4-3c.1-.3.5-.3.7 0l1.4 3V60.5c.1.3-.1.4-.3.4z" id="XMLID_1044_"/><path class="st9" d="M50.7 22.1h3.5v35h-3.5z" id="XMLID_1043_"/><g id="XMLID_1039_"><path id="XMLID_1040_" class="st11" d="M55.2 62h-5.7V20.5l1.7-3.6c.4-.9 1.9-.9 2.4 0l1.7 3.6V62zm-3.5-2.2h1.4V21l-.7-1.5-.7 1.5v38.8z"/></g><g id="XMLID_1037_"><path id="XMLID_1038_" class="st11" d="M50.5 21h3.6v2.2h-3.6z"/></g></g><path class="st10" d="M37.5 60.9H9.2c-1.5 0-2.7-1.2-2.7-2.7V18.1c0-1.5 1.2-2.7 2.7-2.7h28.3c1.5 0 2.7 1.2 2.7 2.7v40.1c0 1.5-1.2 2.7-2.7 2.7z" id="XMLID_1035_"/><g id="XMLID_1030_"><path id="XMLID_1032_" class="st11" d="M37.5 62H9.2c-2.1 0-3.8-1.7-3.8-3.8V18.1c0-2.1 1.7-3.8 3.8-3.8h28.3c2.1 0 3.8 1.7 3.8 3.8v40.1c0 2.1-1.7 3.8-3.8 3.8zM9.2 16.5c-.9 0-1.6.7-1.6 1.6v40.1c0 .9.7 1.6 1.6 1.6h28.3c.9 0 1.6-.7 1.6-1.6V18.1c0-.9-.7-1.6-1.6-1.6H9.2z"/></g><g id="XMLID_1028_"><path id="XMLID_1029_" class="st11" d="M3.4 19.2h6.2v2.2H3.4z"/></g><g id="XMLID_1026_"><path id="XMLID_1027_" class="st11" d="M3.4 23.6h6.2v2.2H3.4z"/></g><g id="XMLID_1024_"><path id="XMLID_1025_" class="st11" d="M3.4 28h6.2v2.2H3.4z"/></g><g id="XMLID_1022_"><path id="XMLID_1023_" class="st11" d="M3.4 32.4h6.2v2.2H3.4z"/></g><g id="XMLID_1020_"><path id="XMLID_1021_" class="st11" d="M3.4 36.8h6.2V39H3.4z"/></g><g id="XMLID_1018_"><path id="XMLID_1019_" class="st11" d="M3.4 41.2h6.2v2.2H3.4z"/></g><g id="XMLID_1016_"><path id="XMLID_1017_" class="st11" d="M3.4 45.9h6.1v2.2H3.4z"/></g><g id="XMLID_1014_"><path id="XMLID_1015_" class="st11" d="M3.4 50.2h6.1v2.2H3.4z"/></g><g id="XMLID_1012_"><path id="XMLID_1013_" class="st11" d="M3.4 54.5h6.1v2.2H3.4z"/></g><path class="st2" d="M30.7 33.4c0 4.1-3.3 7.4-7.4 7.4-4.1 0-7.4-3.3-7.4-7.4 0-4.1 3.3-7.4 7.4-7.4 4.1.1 7.4 3.4 7.4 7.4z" id="XMLID_1011_"/><g id="XMLID_1007_"><path id="XMLID_1008_" class="st11" d="M23.4 41.9c-4.7 0-8.4-3.8-8.4-8.4 0-4.7 3.8-8.4 8.4-8.4 4.7 0 8.4 3.8 8.4 8.4 0 4.6-3.8 8.4-8.4 8.4zm0-14.7c-3.5 0-6.3 2.8-6.3 6.3s2.8 6.3 6.3 6.3 6.3-2.8 6.3-6.3c-.1-3.5-2.9-6.3-6.3-6.3z"/></g></g><path class="st9" d="M57.6 13.6c0 .9-.7 1.5-1.5 1.5-.9 0-1.5-.7-1.5-1.5s.7-1.5 1.5-1.5 1.5.7 1.5 1.5z" id="XMLID_85_"/><path class="st9" d="M11.2 6.5c0 1.1-.9 2-2 2s-2-.9-2-2 .9-2 2-2c1.2.1 2 1 2 2z" id="XMLID_82_"/><path class="st9" d="M26.9 13.2c0 .5-.4.9-.8.9-.5 0-.9-.4-.9-.9s.4-.8.9-.8c.4-.1.8.3.8.8z" id="XMLID_81_"/><path class="st9" d="M59.4 3.5c0 .6-.5 1-1 1-.6 0-1-.5-1-1 0-.6.5-1 1-1 .6 0 1 .5 1 1z" id="XMLID_80_"/><path class="st9" d="M39.7 3.5c0 .9-.7 1.5-1.5 1.5-.9 0-1.5-.7-1.5-1.5 0-.9.7-1.5 1.5-1.5s1.5.7 1.5 1.5z" id="XMLID_69_"/></g><defs><path id="SVGID_1_" d="M573.3 32.4h-11l-5.2-10c-.4-.8.2-1.7 1-1.7h3.8c.3 0 .6.1.8.4l10.6 11.3z"/></defs><clipPath id="SVGID_2_"><use xlink:href="#SVGID_1_" overflow="visible"/></clipPath><g class="st13"><defs><path id="SVGID_3_" d="M12.4-193.6H727v613.7H12.4z"/></defs><clipPath id="SVGID_4_"><use xlink:href="#SVGID_3_" overflow="visible"/></clipPath></g><defs><path id="SVGID_5_" d="M573.3 32.4h-11l-5.2-10c-.4-.8.2-1.7 1-1.7h3.8c.3 0 .6.1.8.4l10.6 11.3z"/></defs><clipPath id="SVGID_6_"><use xlink:href="#SVGID_5_" overflow="visible"/></clipPath><g class="st15"><defs><path id="SVGID_7_" d="M12.4-193.6H727v613.7H12.4z"/></defs><clipPath id="SVGID_8_"><use xlink:href="#SVGID_7_" overflow="visible"/></clipPath></g><defs><path id="SVGID_9_" d="M559.4 20.7h-1.2c-.9 0-1.4.9-1 1.7l5.2 10h4.3l-7.1-11.2c-.2-.1-.2-.3-.2-.5"/></defs><clipPath id="SVGID_10_"><use xlink:href="#SVGID_9_" overflow="visible"/></clipPath><g class="st17"><defs><path id="SVGID_11_" d="M12.4-193.6H727v613.7H12.4z"/></defs><clipPath id="SVGID_12_"><use xlink:href="#SVGID_11_" overflow="visible"/></clipPath></g><defs><path id="SVGID_13_" d="M575.6 33.4h-13.9l-5.4-10.6c-.3-.7-.3-1.4.1-2.1.4-.6 1.1-1 1.8-1h3.8c.6 0 1.2.2 1.6.7l12 13zm-12.7-1.9h8.2l-9-9.7-.1-.1h-3.8c-.1 0-.1 0-.1.1v.2l4.8 9.5z"/></defs><clipPath id="SVGID_14_"><use xlink:href="#SVGID_13_" overflow="visible"/></clipPath><g class="st19"><defs><path id="SVGID_15_" d="M12.4-193.6H727v613.7H12.4z"/></defs><clipPath id="SVGID_16_"><use xlink:href="#SVGID_15_" overflow="visible"/></clipPath></g><defs><path id="SVGID_17_" d="M607.6 52.4c0 .9-.7 1.6-1.7 1.6-.9 0-1.7-.7-1.7-1.6s.7-1.6 1.7-1.6 1.7.7 1.7 1.6"/></defs><clipPath id="SVGID_18_"><use xlink:href="#SVGID_17_" overflow="visible"/></clipPath><g class="st21"><defs><path id="SVGID_19_" d="M12.4-193.6H727v613.7H12.4z"/></defs><clipPath id="SVGID_20_"><use xlink:href="#SVGID_19_" overflow="visible"/></clipPath></g><defs><path id="SVGID_21_" d="M594 15.6c0 .5-.4.8-.8.8-.5 0-.8-.4-.8-.8s.4-.8.8-.8c.5-.1.8.3.8.8"/></defs><clipPath id="SVGID_22_"><use xlink:href="#SVGID_21_" overflow="visible"/></clipPath><g class="st23"><defs><path id="SVGID_23_" d="M12.4-193.6H727v613.7H12.4z"/></defs><clipPath id="SVGID_24_"><use xlink:href="#SVGID_23_" overflow="visible"/></clipPath></g><defs><path id="SVGID_25_" d="M592.2 48c0 .5-.4.8-.8.8-.5 0-.8-.4-.8-.8 0-.5.4-.8.8-.8.5 0 .8.4.8.8"/></defs><clipPath id="SVGID_26_"><use xlink:href="#SVGID_25_" overflow="visible"/></clipPath><g class="st25"><defs><path id="SVGID_27_" d="M12.4-193.6H727v613.7H12.4z"/></defs><clipPath id="SVGID_28_"><use xlink:href="#SVGID_27_" overflow="visible"/></clipPath></g><defs><path id="SVGID_29_" d="M614.1 11.8c0 .6-.5 1.1-1.1 1.1-.6 0-1.1-.5-1.1-1.1 0-.6.5-1.1 1.1-1.1.6 0 1.1.5 1.1 1.1"/></defs><clipPath id="SVGID_30_"><use xlink:href="#SVGID_29_" overflow="visible"/></clipPath><g class="st27"><defs><path id="SVGID_31_" d="M12.4-193.6H727v613.7H12.4z"/></defs><clipPath id="SVGID_32_"><use xlink:href="#SVGID_31_" overflow="visible"/></clipPath></g><defs><path id="SVGID_33_" d="M600.9 6.2c0 .9-.7 1.5-1.6 1.5-.9 0-1.6-.7-1.6-1.5 0-.9.7-1.5 1.6-1.5.9-.1 1.6.6 1.6 1.5"/></defs><clipPath id="SVGID_34_"><use xlink:href="#SVGID_33_" overflow="visible"/></clipPath><g class="st29"><defs><path id="SVGID_35_" d="M12.4-193.6H727v613.7H12.4z"/></defs><clipPath id="SVGID_36_"><use xlink:href="#SVGID_35_" overflow="visible"/></clipPath></g><g><defs><path id="SVGID_37_" d="M611.8 27.2h-.1c-.6-1.9-2.3-3.3-4.4-3.3-.9 0-1.8.3-2.5.7-.5-3-3.1-5.3-6.2-5.3-2.8 0-5.2 1.9-6 4.4-.4-.1-.7-.2-1.1-.2-2.2 0-4 1.6-4.3 3.6h-.7c-1.8 0-3.2 1.4-3.2 3.2v.2c0 1.8 1.5 3.2 3.2 3.2h25.4c1.8 0 3.2-1.4 3.2-3.2v-.2c-.1-1.6-1.5-3.1-3.3-3.1"/></defs><clipPath id="SVGID_38_"><use xlink:href="#SVGID_37_" overflow="visible"/></clipPath><g class="st31"><defs><path id="SVGID_39_" d="M12.4-193.6H727v613.7H12.4z"/></defs><clipPath id="SVGID_40_"><use xlink:href="#SVGID_39_" overflow="visible"/></clipPath></g></g><g><defs><path id="SVGID_41_" d="M611.8 34.9v-2c1.2 0 2.3-1 2.3-2.2v-.2c0-1.2-1-2.2-2.3-2.2h-.8l-.3-.7c-.4-1.5-1.9-2.6-3.5-2.6-.7 0-1.4.2-2 .6l-1.3.8-.2-1.5c-.4-2.6-2.6-4.5-5.3-4.5-2.3 0-4.4 1.5-5.1 3.7l-.3.9-.9-.2c-2-.5-3.9.8-4.2 2.7l-.1.8h-1.5c-.8 0-1.5.4-1.9 1.1l-1.7-1c.7-1.3 2.1-2 3.6-2.1.8-2.3 3-3.9 5.5-3.6 1.2-2.6 3.7-4.3 6.7-4.3 3.2 0 5.9 2 6.9 4.9.6-.2 1.2-.3 1.8-.3 2.2 0 4.3 1.4 5.1 3.4 2.1.3 3.6 2.1 3.6 4.1v.2c.1 2.3-1.8 4.2-4.1 4.2"/></defs><clipPath id="SVGID_42_"><use xlink:href="#SVGID_41_" overflow="visible"/></clipPath><g class="st33"><defs><path id="SVGID_43_" d="M12.4-193.6H727v613.7H12.4z"/></defs><clipPath id="SVGID_44_"><use xlink:href="#SVGID_43_" overflow="visible"/></clipPath></g></g><g><defs><path id="SVGID_45_" d="M601.8 24.7c-.8-1.2-2.1-1.9-3.6-1.9-.8 0-1.5.2-2.2.6l-1-1.7c1-.6 2.1-.9 3.2-.9 2.1 0 4.1 1.1 5.2 2.8l-1.6 1.1z"/></defs><clipPath id="SVGID_46_"><use xlink:href="#SVGID_45_" overflow="visible"/></clipPath><g class="st35"><defs><path id="SVGID_47_" d="M12.4-193.6H727v613.7H12.4z"/></defs><clipPath id="SVGID_48_"><use xlink:href="#SVGID_47_" overflow="visible"/></clipPath></g></g><g><defs><path id="SVGID_49_" d="M594.7 25.8h-2c0-.7-.6-1.3-1.3-1.3v-2c1.8.1 3.3 1.5 3.3 3.3"/></defs><clipPath id="SVGID_50_"><use xlink:href="#SVGID_49_" overflow="visible"/></clipPath><g class="st37"><defs><path id="SVGID_51_" d="M12.4-193.6H727v613.7H12.4z"/></defs><clipPath id="SVGID_52_"><use xlink:href="#SVGID_51_" overflow="visible"/></clipPath></g></g><g><defs><path id="SVGID_53_" d="M584.2 52.9h-.2c-.5-1.6-1.9-2.7-3.6-2.7-.8 0-1.4.2-2 .6-.4-2.5-2.5-4.4-5.1-4.4-2.3 0-4.3 1.5-4.9 3.6-.3-.1-.6-.1-.9-.1-1.8 0-3.2 1.3-3.5 3h-.6c-1.5 0-2.7 1.2-2.7 2.6v.2c0 1.5 1.2 2.6 2.7 2.6h20.8c1.5 0 2.7-1.2 2.7-2.6v-.2c-.1-1.4-1.3-2.6-2.7-2.6"/></defs><clipPath id="SVGID_54_"><use xlink:href="#SVGID_53_" overflow="visible"/></clipPath><g class="st39"><defs><path id="SVGID_55_" d="M12.4-193.6H727v613.7H12.4z"/></defs><clipPath id="SVGID_56_"><use xlink:href="#SVGID_55_" overflow="visible"/></clipPath></g></g><g><defs><path id="SVGID_57_" d="M567 58.4h-3.7c-1.5 0-2.7-1.2-2.7-2.6v-.2c0-1.5 1.2-2.6 2.7-2.6h.6c.3-1.7 1.7-3 3.5-3 .3 0 .6 0 .9.1.7-2.1 2.6-3.6 4.9-3.6 2.6 0 4.7 1.9 5.1 4.4.6-.4 1.3-.6 2-.6 1.7 0 3.2 1.1 3.6 2.7h.1c1.5 0 2.7 1.2 2.7 2.6v.2c0 1.4-1.2 2.6-2.7 2.6h-17z"/></defs><clipPath id="SVGID_58_"><use xlink:href="#SVGID_57_" overflow="visible"/></clipPath><g class="st41"><defs><path id="SVGID_59_" d="M12.4-193.6H727v613.7H12.4z"/></defs><clipPath id="SVGID_60_"><use xlink:href="#SVGID_59_" overflow="visible"/></clipPath></g></g><g><defs><path id="SVGID_61_" d="M559.7 45.5h28.1v13.9h-28.1z"/></defs><clipPath id="SVGID_62_"><use xlink:href="#SVGID_61_" overflow="visible"/></clipPath><g class="st43"><defs><path id="SVGID_63_" d="M12.4-193.6H727v613.7H12.4z"/></defs><clipPath id="SVGID_64_"><use xlink:href="#SVGID_63_" overflow="visible"/></clipPath></g></g><g><defs><path id="SVGID_71_" d="M581.4 15.9c-.4-1-1.3-1.7-2.4-1.7-.5 0-.9.1-1.3.4-.2-1.6-1.6-2.8-3.2-2.8-1.5 0-2.7 1-3.1 2.3-.2 0-.4-.1-.6-.1-1.1 0-2.1.8-2.2 1.9h-.4c-.9 0-1.7.8-1.7 1.7v.1c0 .9.8 1.7 1.7 1.7h13.3c.9 0 1.7-.8 1.7-1.7v-.1c-.1-1-.8-1.7-1.8-1.7"/></defs><clipPath id="SVGID_66_"><use xlink:href="#SVGID_71_" overflow="visible"/></clipPath><g class="st45"><defs><path id="SVGID_73_" d="M12.4-193.6H727v613.7H12.4z"/></defs><clipPath id="SVGID_68_"><use xlink:href="#SVGID_73_" overflow="visible"/></clipPath></g></g><g><defs><path id="SVGID_75_" d="M570.5 19.4h-2.4c-.9 0-1.7-.8-1.7-1.7v-.1c0-.9.8-1.7 1.7-1.7h.4c.2-1.1 1.1-1.9 2.2-1.9.2 0 .4 0 .6.1.4-1.3 1.7-2.3 3.1-2.3 1.6 0 3 1.2 3.2 2.8.4-.2.8-.4 1.3-.4 1.1 0 2 .7 2.3 1.7h.1c.9 0 1.7.8 1.7 1.7v.1c0 .9-.8 1.7-1.7 1.7H570.5z"/></defs><clipPath id="SVGID_70_"><use xlink:href="#SVGID_75_" overflow="visible"/></clipPath><g clip-path="url(#SVGID_70_)"><defs><path id="SVGID_77_" d="M12.4-193.6H727v613.7H12.4z"/></defs><clipPath id="SVGID_72_"><use xlink:href="#SVGID_77_" overflow="visible"/></clipPath></g></g><g><defs><path id="SVGID_79_" d="M581.4 20.3h-13.3c-1.5 0-2.7-1.2-2.7-2.7 0-1.5 1-2.6 2.3-2.8.5-1.1 1.6-1.9 2.9-1.9.7-1.4 2.2-2.2 3.8-2.2 1.7 0 3.2 1 3.9 2.5 1.5-.3 3 .5 3.7 1.7 1.2.3 2 1.3 2 2.6.1 1.6-1.1 2.8-2.6 2.8zm-13.2-3.4c-.4 0-.7.3-.7.7 0 .5.3.8.7.8h13.3c.4 0 .7-.3.7-.7 0-.5-.3-.8-.7-.8h-.7l-.3-.7c-.2-.9-1.4-1.3-2.1-.8l-1.3.8-.2-1.5c-.2-1.1-1.1-1.9-2.3-1.9-1 0-1.9.6-2.2 1.6l-.3.9-.9-.2c-.8-.2-1.5.3-1.6 1l-.1.8h-1.3z"/></defs><clipPath id="SVGID_74_"><use xlink:href="#SVGID_79_" overflow="visible"/></clipPath><g clip-path="url(#SVGID_74_)"><defs><path id="SVGID_81_" d="M12.4-193.6H727v613.7H12.4z"/></defs><clipPath id="SVGID_76_"><use xlink:href="#SVGID_81_" overflow="visible"/></clipPath></g></g><g><defs><path id="SVGID_83_" d="M611.7 36.3h-1.1c-.9-2.6-3.4-4.4-6.3-4.4h-45c0 6.2 5 11.2 11.2 11.2h41.1c1.7 0 3.1-1.4 3.1-3.1v-.6c.1-1.7-1.3-3.1-3-3.1"/></defs><clipPath id="SVGID_78_"><use xlink:href="#SVGID_83_" overflow="visible"/></clipPath><g clip-path="url(#SVGID_78_)"><defs><path id="SVGID_85_" d="M12.4-193.6H727v613.7H12.4z"/></defs><clipPath id="SVGID_80_"><use xlink:href="#SVGID_85_" overflow="visible"/></clipPath></g></g><g><defs><path id="SVGID_87_" d="M611.7 40.5h-41.1c-5.3 0-9.7-3.6-10.9-8.5h-.3c0 6.2 5 11.2 11.2 11.2h41c1.7 0 3.1-1.4 3.1-3.1v-.6c0-.4-.1-.7-.2-1-.3 1.1-1.5 2-2.8 2"/></defs><clipPath id="SVGID_82_"><use xlink:href="#SVGID_87_" overflow="visible"/></clipPath><g clip-path="url(#SVGID_82_)"><defs><path id="SVGID_89_" d="M12.4-193.6H727v613.7H12.4z"/></defs><clipPath id="SVGID_84_"><use xlink:href="#SVGID_89_" overflow="visible"/></clipPath></g></g><g><defs><path id="SVGID_91_" d="M611.7 44.1h-41.1c-6.7 0-12.2-5.4-12.2-12.1v-1h46c3 0 5.7 1.7 6.9 4.4h.4c2.3 0 4.1 1.8 4.1 4.1v.5c-.1 2.3-1.9 4.1-4.1 4.1zm-51.3-11.2c.5 5.2 4.9 9.2 10.2 9.2h41.1c1.2 0 2.1-.9 2.1-2.1v-.6c0-1.2-.9-2.1-2.1-2.1h-1.8l-.2-.6c-.8-2.2-3-3.7-5.4-3.7h-43.9z"/></defs><clipPath id="SVGID_86_"><use xlink:href="#SVGID_91_" overflow="visible"/></clipPath><g clip-path="url(#SVGID_86_)"><defs><path id="SVGID_93_" d="M12.4-193.6H727v613.7H12.4z"/></defs><clipPath id="SVGID_88_"><use xlink:href="#SVGID_93_" overflow="visible"/></clipPath></g></g><g><defs><path id="SVGID_95_" d="M572.2 35.5h-13c-.9 0-1.5-.7-1.5-1.5v-.5c0-.8.7-1.5 1.5-1.5h13c.9 0 1.5.7 1.5 1.5v.5c0 .8-.7 1.5-1.5 1.5"/></defs><clipPath id="SVGID_90_"><use xlink:href="#SVGID_95_" overflow="visible"/></clipPath><g clip-path="url(#SVGID_90_)"><defs><path id="SVGID_97_" d="M12.4-193.6H727v613.7H12.4z"/></defs><clipPath id="SVGID_92_"><use xlink:href="#SVGID_97_" overflow="visible"/></clipPath></g></g><g><defs><path id="SVGID_99_" d="M597.5 44.4h-15.9c-.9 0-1.5-.7-1.5-1.5v-1.1c0-.8.7-1.5 1.5-1.5h15.9c.9 0 1.5.7 1.5 1.5v1.1c0 .8-.6 1.5-1.5 1.5"/></defs><clipPath id="SVGID_94_"><use xlink:href="#SVGID_99_" overflow="visible"/></clipPath><g clip-path="url(#SVGID_94_)"><defs><path id="SVGID_101_" d="M12.4-193.6H727v613.7H12.4z"/></defs><clipPath id="SVGID_96_"><use xlink:href="#SVGID_101_" overflow="visible"/></clipPath></g></g><g><defs><path id="SVGID_103_" d="M572.2 36.5h-13c-1.4 0-2.5-1.1-2.5-2.5v-.5c0-1.4 1.1-2.5 2.5-2.5h13c1.4 0 2.5 1.1 2.5 2.5v.5c0 1.4-1.1 2.5-2.5 2.5zm-13-3.6c-.3 0-.6.2-.6.6v.5c0 .3.3.6.6.6h13c.3 0 .6-.2.6-.6v-.5c0-.3-.2-.6-.6-.6h-13z"/></defs><clipPath id="SVGID_98_"><use xlink:href="#SVGID_103_" overflow="visible"/></clipPath><g clip-path="url(#SVGID_98_)"><defs><path id="SVGID_105_" d="M12.4-193.6H727v613.7H12.4z"/></defs><clipPath id="SVGID_100_"><use xlink:href="#SVGID_105_" overflow="visible"/></clipPath></g></g><g><defs><path id="SVGID_107_" d="M597.5 45.4h-15.9c-1.4 0-2.5-1.1-2.5-2.5v-1.1c0-1.4 1.1-2.5 2.5-2.5h15.9c1.4 0 2.5 1.1 2.5 2.5v1.1c0 1.4-1.1 2.5-2.5 2.5zm-15.9-4.2c-.3 0-.6.2-.6.6v1.1c0 .3.3.6.6.6h15.9c.3 0 .6-.2.6-.6v-1.1c0-.3-.3-.6-.6-.6h-15.9z"/></defs><clipPath id="SVGID_102_"><use xlink:href="#SVGID_107_" overflow="visible"/></clipPath><g clip-path="url(#SVGID_102_)"><defs><path id="SVGID_109_" d="M12.4-193.6H727v613.7H12.4z"/></defs><clipPath id="SVGID_104_"><use xlink:href="#SVGID_109_" overflow="visible"/></clipPath></g></g><g><defs><path id="SVGID_111_" d="M556 4.6h60v54.7h-60z"/></defs><clipPath id="SVGID_106_"><use xlink:href="#SVGID_111_" overflow="visible"/></clipPath><g clip-path="url(#SVGID_106_)"><defs><path id="SVGID_113_" d="M12.4-193.6H727v613.7H12.4z"/></defs><clipPath id="SVGID_108_"><use xlink:href="#SVGID_113_" overflow="visible"/></clipPath></g></g><g><defs><path id="SVGID_141_" d="M521.2 136.9H475c-.8 0-1.4-.6-1.4-1.4v-32.6c0-.8.6-1.4 1.4-1.4h46.2c.8 0 1.4.6 1.4 1.4v32.6c0 .8-.7 1.4-1.4 1.4"/></defs><clipPath id="SVGID_110_"><use xlink:href="#SVGID_141_" overflow="visible"/></clipPath><g clip-path="url(#SVGID_110_)"><defs><path id="SVGID_143_" d="M-268.3-21.9h931.4v486.1h-931.4z"/></defs><clipPath id="SVGID_112_"><use xlink:href="#SVGID_143_" overflow="visible"/></clipPath></g><defs><path id="SVGID_145_" d="M521.7 137.6h-46.6c-1.3 0-2.3-1-2.3-2.3v-15.6h2.1v15.6l.1.2h46.6l.2-.2v-32.9l-.2-.2h-16.8v-2.1h16.8c1.3 0 2.3 1 2.3 2.3v32.9c.1 1.3-1 2.3-2.2 2.3"/></defs><clipPath id="SVGID_114_"><use xlink:href="#SVGID_145_" overflow="visible"/></clipPath><g clip-path="url(#SVGID_114_)"><defs><path id="SVGID_147_" d="M-268.3-21.9h931.4v486.1h-931.4z"/></defs><clipPath id="SVGID_116_"><use xlink:href="#SVGID_147_" overflow="visible"/></clipPath></g><defs><path id="SVGID_149_" d="M476.2 104.2h44.3v28.6h-44.3z"/></defs><clipPath id="SVGID_118_"><use xlink:href="#SVGID_149_" overflow="visible"/></clipPath><g class="st71"><defs><path id="SVGID_151_" d="M-268.3-21.9h931.4v486.1h-931.4z"/></defs><clipPath id="SVGID_120_"><use xlink:href="#SVGID_151_" overflow="visible"/></clipPath></g><defs><path id="SVGID_153_" d="M521.7 139h-47.6c-1.1 0-2.1-.8-2.3-2l-.3-2.1h22.1l.8 1.2h6.1l.9-1.2h23.3l-.3 1.8c-.3 1.3-1.4 2.3-2.7 2.3"/></defs><clipPath id="SVGID_122_"><use xlink:href="#SVGID_153_" overflow="visible"/></clipPath><g class="st73"><defs><path id="SVGID_155_" d="M-268.3-21.9h931.4v486.1h-931.4z"/></defs><clipPath id="SVGID_124_"><use xlink:href="#SVGID_155_" overflow="visible"/></clipPath></g><defs><path id="SVGID_157_" d="M521.8 139.7H474c-1.7 0-3.1-1.2-3.4-2.8l-.5-3.3h24l.8 1.2h5l.9-1.2H526l-.5 3c-.3 1.8-1.8 3.1-3.7 3.1zm-49.2-4.1l.1.8c.1.6.6 1.1 1.3 1.1h47.8c.8 0 1.5-.6 1.6-1.3l.1-.6h-21.6l-.9 1.2h-7.2l-.8-1.2h-20.4z"/></defs><clipPath id="SVGID_126_"><use xlink:href="#SVGID_157_" overflow="visible"/></clipPath><g class="st75"><defs><path id="SVGID_159_" d="M-268.3-21.9h931.4v486.1h-931.4z"/></defs><clipPath id="SVGID_128_"><use xlink:href="#SVGID_159_" overflow="visible"/></clipPath></g><defs><path id="SVGID_161_" d="M499.3 116.5h-29c-1.6 0-2.9-1.3-2.9-2.9V94.1c0-1.6 1.3-2.9 2.9-2.9h29c1.6 0 2.9 1.3 2.9 2.9v19.5c-.1 1.6-1.3 2.9-2.9 2.9"/></defs><clipPath id="SVGID_130_"><use xlink:href="#SVGID_161_" overflow="visible"/></clipPath><g class="st77"><defs><path id="SVGID_163_" d="M-268.3-21.9h931.4v486.1h-931.4z"/></defs><clipPath id="SVGID_132_"><use xlink:href="#SVGID_163_" overflow="visible"/></clipPath></g><defs><path id="SVGID_165_" d="M467.4 96.7V93c0-1 .8-1.8 1.7-1.8h31.3c1 0 1.7.8 1.7 1.8v3.7h-34.7"/></defs><clipPath id="SVGID_134_"><use xlink:href="#SVGID_165_" overflow="visible"/></clipPath><g class="st79"><defs><path id="SVGID_167_" d="M-268.3-21.9h931.4v486.1h-931.4z"/></defs><clipPath id="SVGID_136_"><use xlink:href="#SVGID_167_" overflow="visible"/></clipPath></g><defs><path id="SVGID_169_" d="M500.6 117.8h-31.8c-1.6 0-2.9-1.3-2.9-2.8V93.4c0-1.5 1.3-2.8 2.9-2.8h4.7v2.1h-4.7c-.4 0-.7.3-.7.7V115c0 .4.3.7.7.7h31.8c.4 0 .7-.3.7-.7V93.4c0-.4-.3-.7-.7-.7h-21v-2.1h21c1.6 0 2.9 1.3 2.9 2.8V115c0 1.6-1.3 2.8-2.9 2.8"/></defs><clipPath id="SVGID_138_"><use xlink:href="#SVGID_169_" overflow="visible"/></clipPath><g class="st81"><defs><path id="SVGID_171_" d="M-268.3-21.9h931.4v486.1h-931.4z"/></defs><clipPath id="SVGID_140_"><use xlink:href="#SVGID_171_" overflow="visible"/></clipPath></g><g><defs><path id="SVGID_173_" d="M474.9 90.6h2.7v2h-2.7z"/></defs><clipPath id="SVGID_142_"><use xlink:href="#SVGID_173_" overflow="visible"/></clipPath><g class="st84"><defs><path id="SVGID_175_" d="M-268.3-21.9h931.4v486.1h-931.4z"/></defs><clipPath id="SVGID_144_"><use xlink:href="#SVGID_175_" overflow="visible"/></clipPath></g></g><g><defs><path id="SVGID_177_" d="M467.4 96h34.8v2h-34.8z"/></defs><clipPath id="SVGID_146_"><use xlink:href="#SVGID_177_" overflow="visible"/></clipPath><g class="st86"><defs><path id="SVGID_179_" d="M-268.3-21.9h931.4v486.1h-931.4z"/></defs><clipPath id="SVGID_148_"><use xlink:href="#SVGID_179_" overflow="visible"/></clipPath></g></g><g><defs><path id="SVGID_181_" d="M470.8 93.3h1.3v2h-1.3z"/></defs><clipPath id="SVGID_150_"><use xlink:href="#SVGID_181_" overflow="visible"/></clipPath><g class="st88"><defs><path id="SVGID_183_" d="M-268.3-21.9h931.4v486.1h-931.4z"/></defs><clipPath id="SVGID_152_"><use xlink:href="#SVGID_183_" overflow="visible"/></clipPath></g></g><g><defs><path id="SVGID_185_" d="M474.2 93.3h1.3v2h-1.3z"/></defs><clipPath id="SVGID_154_"><use xlink:href="#SVGID_185_" overflow="visible"/></clipPath><g class="st90"><defs><path id="SVGID_187_" d="M-268.3-21.9h931.4v486.1h-931.4z"/></defs><clipPath id="SVGID_156_"><use xlink:href="#SVGID_187_" overflow="visible"/></clipPath></g></g><g><defs><path id="SVGID_189_" d="M477.6 93.3h1.3v2h-1.3z"/></defs><clipPath id="SVGID_158_"><use xlink:href="#SVGID_189_" overflow="visible"/></clipPath><g class="st92"><defs><path id="SVGID_191_" d="M-268.3-21.9h931.4v486.1h-931.4z"/></defs><clipPath id="SVGID_160_"><use xlink:href="#SVGID_191_" overflow="visible"/></clipPath></g></g><g><defs><path id="SVGID_193_" d="M477.6 106.5v-1.1l4.1-1.9v1.2l-2.7 1.2 2.7 1.2v1.2l-4.1-1.8"/></defs><clipPath id="SVGID_162_"><use xlink:href="#SVGID_193_" overflow="visible"/></clipPath><g class="st94"><defs><path id="SVGID_195_" d="M-268.3-21.9h931.4v486.1h-931.4z"/></defs><clipPath id="SVGID_164_"><use xlink:href="#SVGID_195_" overflow="visible"/></clipPath></g></g><g><defs><path id="SVGID_197_" d="M485.4 102.2h1.1l-3.1 6.8h-1l3-6.8"/></defs><clipPath id="SVGID_166_"><use xlink:href="#SVGID_197_" overflow="visible"/></clipPath><g class="st96"><defs><path id="SVGID_199_" d="M-268.3-21.9h931.4v486.1h-931.4z"/></defs><clipPath id="SVGID_168_"><use xlink:href="#SVGID_199_" overflow="visible"/></clipPath></g></g><g><defs><path id="SVGID_201_" d="M491.9 105.4v1.1l-4.1 1.8v-1.2l2.7-1.2-2.7-1.2v-1.2l4.1 1.9"/></defs><clipPath id="SVGID_170_"><use xlink:href="#SVGID_201_" overflow="visible"/></clipPath><g class="st98"><defs><path id="SVGID_203_" d="M-268.3-21.9h931.4v486.1h-931.4z"/></defs><clipPath id="SVGID_172_"><use xlink:href="#SVGID_203_" overflow="visible"/></clipPath></g></g><g><defs><path id="SVGID_205_" d="M504.9 107.6h11.6v2h-11.6z"/></defs><clipPath id="SVGID_174_"><use xlink:href="#SVGID_205_" overflow="visible"/></clipPath><g class="st100"><defs><path id="SVGID_207_" d="M-268.3-21.9h931.4v486.1h-931.4z"/></defs><clipPath id="SVGID_176_"><use xlink:href="#SVGID_207_" overflow="visible"/></clipPath></g></g><g><defs><path id="SVGID_209_" d="M508.3 112.4h4.1v2h-4.1z"/></defs><clipPath id="SVGID_178_"><use xlink:href="#SVGID_209_" overflow="visible"/></clipPath><g class="st102"><defs><path id="SVGID_211_" d="M-268.3-21.9h931.4v486.1h-931.4z"/></defs><clipPath id="SVGID_180_"><use xlink:href="#SVGID_211_" overflow="visible"/></clipPath></g></g><g><defs><path id="SVGID_213_" d="M493.3 118.5h11.6v2h-11.6z"/></defs><clipPath id="SVGID_182_"><use xlink:href="#SVGID_213_" overflow="visible"/></clipPath><g class="st104"><defs><path id="SVGID_215_" d="M-268.3-21.9h931.4v486.1h-931.4z"/></defs><clipPath id="SVGID_184_"><use xlink:href="#SVGID_215_" overflow="visible"/></clipPath></g></g><g><defs><path id="SVGID_217_" d="M506.9 118.5h6.1v2h-6.1z"/></defs><clipPath id="SVGID_186_"><use xlink:href="#SVGID_217_" overflow="visible"/></clipPath><g class="st106"><defs><path id="SVGID_219_" d="M-268.3-21.9h931.4v486.1h-931.4z"/></defs><clipPath id="SVGID_188_"><use xlink:href="#SVGID_219_" overflow="visible"/></clipPath></g></g><g><defs><path id="SVGID_221_" d="M489.2 118.5h2v2h-2z"/></defs><clipPath id="SVGID_190_"><use xlink:href="#SVGID_221_" overflow="visible"/></clipPath><g class="st108"><defs><path id="SVGID_223_" d="M-268.3-21.9h931.4v486.1h-931.4z"/></defs><clipPath id="SVGID_192_"><use xlink:href="#SVGID_223_" overflow="visible"/></clipPath></g></g><g><defs><path id="SVGID_225_" d="M479 122.6h11.6v2H479z"/></defs><clipPath id="SVGID_194_"><use xlink:href="#SVGID_225_" overflow="visible"/></clipPath><g class="st110"><defs><path id="SVGID_227_" d="M-268.3-21.9h931.4v486.1h-931.4z"/></defs><clipPath id="SVGID_196_"><use xlink:href="#SVGID_227_" overflow="visible"/></clipPath></g></g><g><defs><path id="SVGID_229_" d="M486.5 127.4h11.6v2h-11.6z"/></defs><clipPath id="SVGID_198_"><use xlink:href="#SVGID_229_" overflow="visible"/></clipPath><g class="st112"><defs><path id="SVGID_231_" d="M-268.3-21.9h931.4v486.1h-931.4z"/></defs><clipPath id="SVGID_200_"><use xlink:href="#SVGID_231_" overflow="visible"/></clipPath></g></g><g><defs><path id="SVGID_233_" d="M500.8 127.4h6.1v2h-6.1z"/></defs><clipPath id="SVGID_202_"><use xlink:href="#SVGID_233_" overflow="visible"/></clipPath><g class="st114"><defs><path id="SVGID_235_" d="M-268.3-21.9h931.4v486.1h-931.4z"/></defs><clipPath id="SVGID_204_"><use xlink:href="#SVGID_235_" overflow="visible"/></clipPath></g></g></g></g></svg>