<?xml version="1.0" encoding="utf-8"?>
<!-- Generator: Adobe Illustrator 16.0.0, SVG Export Plug-In . SVG Version: 6.00 Build 0)  -->
<!DOCTYPE svg PUBLIC "-//W3C//DTD SVG 1.1//EN" "http://www.w3.org/Graphics/SVG/1.1/DTD/svg11.dtd">
<svg version="1.1" id="Capa_1" xmlns="http://www.w3.org/2000/svg" xmlns:xlink="http://www.w3.org/1999/xlink" x="0px" y="0px"
	 width="216px" height="216px" viewBox="0 0 216 216" enable-background="new 0 0 216 216" xml:space="preserve">
<path fill="#81C99C" d="M186.891,211.808H62.859c-4.66,0-8.438-3.777-8.438-8.438V46.433c0-4.66,3.777-8.438,8.438-8.438h124.031
	c4.66,0,8.438,3.778,8.438,8.438V203.37C195.328,208.03,191.551,211.808,186.891,211.808z"/>
<path fill="#B3DCC0" d="M170.016,194.933H45.984c-4.66,0-8.438-3.777-8.438-8.438V29.558c0-4.66,3.777-8.438,8.438-8.438h124.031
	c4.66,0,8.438,3.778,8.438,8.438v156.938C178.453,191.155,174.676,194.933,170.016,194.933z"/>
<path fill="#FFFFFF" d="M153.114,178.031H29.083c-4.66,0-8.438-3.777-8.438-8.438V12.656c0-4.66,3.777-8.438,8.438-8.438h124.031
	c4.659,0,8.438,3.777,8.438,8.438v156.938C161.552,174.254,157.773,178.031,153.114,178.031z"/>
<rect x="44.271" y="35.438" fill="#00984A" width="40.5" height="40.5"/>
<path d="M153.114,182.25H29.083c-6.979,0-12.656-5.678-12.656-12.656V91.266c0-2.33,1.889-4.219,4.219-4.219
	s4.219,1.889,4.219,4.219v78.328c0,2.326,1.892,4.219,4.219,4.219h124.031c2.326,0,4.219-1.893,4.219-4.219V12.656
	c0-2.326-1.893-4.219-4.219-4.219H29.083c-2.327,0-4.219,1.893-4.219,4.219v43.031c0,2.33-1.889,4.219-4.219,4.219
	s-4.219-1.889-4.219-4.219V12.656C16.427,5.678,22.104,0,29.083,0h124.031c6.979,0,12.656,5.678,12.656,12.656v156.938
	C165.771,176.572,160.093,182.25,153.114,182.25z"/>
<path d="M20.646,78.798c-1.11,0-2.198-0.452-2.983-1.236c-0.785-0.789-1.236-1.873-1.236-2.987c0-1.105,0.451-2.194,1.236-2.982
	c0.785-0.785,1.873-1.232,2.983-1.232c1.109,0,2.198,0.447,2.982,1.232c0.785,0.789,1.237,1.873,1.237,2.982
	c0,1.114-0.452,2.202-1.237,2.987C22.843,78.346,21.754,78.798,20.646,78.798z"/>
<path d="M37.545,199.15c-1.11,0-2.198-0.447-2.982-1.236c-0.785-0.785-1.236-1.869-1.236-2.982c0-1.109,0.451-2.198,1.236-2.982
	c0.784-0.785,1.873-1.236,2.982-1.236c1.114,0,2.198,0.451,2.982,1.236c0.785,0.784,1.236,1.873,1.236,2.982
	c0,1.113-0.451,2.197-1.236,2.982C39.743,198.703,38.659,199.15,37.545,199.15z"/>
<path d="M170.016,199.151H54.422c-2.33,0-4.219-1.889-4.219-4.219s1.889-4.219,4.219-4.219h115.594c2.326,0,4.219-1.893,4.219-4.219
	V21.12c0-2.33,1.889-4.219,4.219-4.219s4.219,1.889,4.219,4.219v165.375C182.672,193.475,176.994,199.151,170.016,199.151z"/>
<path d="M186.917,216H54.448c-2.33,0-4.219-1.889-4.219-4.219s1.889-4.219,4.219-4.219h132.469c2.327,0,4.219-1.893,4.219-4.219
	V37.969c0-2.33,1.89-4.219,4.219-4.219s4.219,1.889,4.219,4.219v165.375C199.573,210.322,193.896,216,186.917,216z"/>
<path d="M84.771,80.156h-40.5c-2.33,0-4.219-1.889-4.219-4.219v-40.5c0-2.33,1.889-4.219,4.219-4.219h40.5
	c2.33,0,4.219,1.889,4.219,4.219v40.5C88.989,78.268,87.1,80.156,84.771,80.156z M48.489,71.719h32.063V39.656H48.489V71.719z"/>
<path d="M54.015,120.71L54.015,120.71c-1.119,0-2.191-0.444-2.983-1.235l-8.198-8.198c-1.647-1.647-1.647-4.319,0-5.966
	c1.648-1.647,4.319-1.647,5.966,0l5.214,5.215L65.229,99.31c1.648-1.647,4.319-1.647,5.967,0c1.647,1.647,1.647,4.319,0,5.966
	l-14.198,14.198C56.207,120.266,55.134,120.71,54.015,120.71z"/>
<path d="M140.317,113.484H91.099c-2.33,0-4.219-1.889-4.219-4.219s1.889-4.219,4.219-4.219h49.219c2.329,0,4.219,1.889,4.219,4.219
	S142.646,113.484,140.317,113.484z"/>
<path d="M137.927,39.656h-29.531c-2.33,0-4.219-1.889-4.219-4.219s1.889-4.219,4.219-4.219h29.531c2.329,0,4.219,1.889,4.219,4.219
	S140.256,39.656,137.927,39.656z"/>
<path d="M137.927,59.906h-29.531c-2.33,0-4.219-1.889-4.219-4.219s1.889-4.219,4.219-4.219h29.531c2.329,0,4.219,1.889,4.219,4.219
	S140.256,59.906,137.927,59.906z"/>
<path d="M137.927,80.156h-29.531c-2.33,0-4.219-1.889-4.219-4.219s1.889-4.219,4.219-4.219h29.531c2.329,0,4.219,1.889,4.219,4.219
	S140.256,80.156,137.927,80.156z"/>
<path d="M54.015,152.928L54.015,152.928c-1.119,0-2.191-0.445-2.983-1.236l-8.198-8.197c-1.647-1.648-1.647-4.319,0-5.967
	c1.648-1.646,4.319-1.647,5.966,0l5.214,5.215l11.215-11.215c1.648-1.647,4.319-1.646,5.967,0c1.647,1.647,1.647,4.318,0,5.967
	l-14.198,14.197C56.207,152.482,55.134,152.928,54.015,152.928z"/>
<path d="M140.317,145.547H91.099c-2.33,0-4.219-1.889-4.219-4.219s1.889-4.219,4.219-4.219h49.219c2.329,0,4.219,1.889,4.219,4.219
	S142.646,145.547,140.317,145.547z"/>
</svg>
