<?xml version="1.0" encoding="utf-8"?>
<!-- Generator: Adobe Illustrator 22.0.1, SVG Export Plug-In . SVG Version: 6.00 Build 0)  -->
<svg version="1.1" id="Layer_1" xmlns="http://www.w3.org/2000/svg" xmlns:xlink="http://www.w3.org/1999/xlink" x="0px" y="0px"
	 viewBox="0 0 64 64" style="enable-background:new 0 0 64 64;" xml:space="preserve">
<style type="text/css">
	.st0{fill:#F9CA38;}
	.st1{fill:#FFFFFF;}
	.st2{fill:#4C5C68;}
	.st3{fill:#286090;}
	.st4{fill:#CEE8FA;}
</style>
<g id="Layer_2_1_">
</g>
<g id="Layer_1_1_">
	<g>
		<path class="st0" d="M18.5,48.6h-6.9c-0.2,0-0.4-0.2-0.4-0.4V37.7c0-0.2,0.2-0.4,0.4-0.4h6.9c0.2,0,0.4,0.2,0.4,0.4v10.5
			C18.9,48.4,18.7,48.6,18.5,48.6z"/>
		<rect x="7.9" y="46.8" class="st1" width="8.7" height="3.3"/>
		<path class="st2" d="M36.9,19.7h-7.8c-0.4,0-0.7,0.3-0.7,0.7V32c0,0.4,0.3,0.7,0.7,0.7h7.8c0.4,0,0.7-0.3,0.7-0.7V20.3
			C37.5,20,37.2,19.7,36.9,19.7z M36.2,31.3h-6.4V21h6.4V31.3z"/>
		<path class="st2" d="M48.5,19.7c-0.4,0-0.7,0.3-0.7,0.7V32c0,0.4,0.3,0.7,0.7,0.7h7.8c0.4,0,0.7-0.3,0.7-0.7V20.3
			c0-0.4-0.3-0.7-0.7-0.7h-7.8V19.7z M55.6,31.3h-6.4V21h6.4V31.3z"/>
		<rect x="51.7" y="23.6" class="st2" width="1.3" height="3.3"/>
		<rect x="32.3" y="24.5" class="st2" width="1.3" height="3.3"/>
		<path class="st2" d="M48.5,7.1H36.9c-0.4,0-0.7,0.3-0.7,0.7V32c0,0.4,0.3,0.7,0.7,0.7h11.7c0.4,0,0.7-0.3,0.7-0.7V7.7
			C49.2,7.4,48.9,7.1,48.5,7.1z M47.8,31.3H37.5V8.4h10.3V31.3z"/>
		<path class="st2" d="M40.7,24.5c-0.4,0-0.7,0.3-0.7,0.7V32c0,0.4,0.3,0.7,0.7,0.7h3.9c0.4,0,0.7-0.3,0.7-0.7v-6.8
			c0-0.4-0.3-0.7-0.7-0.7H40.7z M44,31.3h-2.5v-5.5H44V31.3z"/>
		<g>
			<g>
				<rect x="39.8" y="11.6" class="st2" width="1.9" height="3.9"/>
				<path class="st1" d="M42,15.8h-2.5v-4.5H42V15.8z M40.1,15.2h1.3v-3.3h-1.3V15.2z"/>
			</g>
		</g>
		<g>
			<g>
				<rect x="43.7" y="11.6" class="st2" width="1.9" height="3.9"/>
				<path class="st1" d="M45.9,15.8h-2.5v-4.5h2.5V15.8z M44,15.2h1.3v-3.3H44V15.2z"/>
			</g>
		</g>
		<g>
			<g>
				<rect x="39.8" y="17.4" class="st2" width="1.9" height="3.9"/>
				<path class="st1" d="M42,21.6h-2.5v-4.5H42V21.6z M40.1,21h1.3v-3.3h-1.3V21z"/>
			</g>
		</g>
		<g>
			<g>
				<rect x="43.7" y="17.4" class="st2" width="1.9" height="3.9"/>
				<path class="st1" d="M45.9,21.6h-2.5v-4.5h2.5V21.6z M44,21h1.3v-3.3H44V21z"/>
			</g>
		</g>
		<path class="st2" d="M9.7,32.7h13.6c0.4,0,0.7-0.3,0.7-0.7V20.3c0-0.4-0.3-0.7-0.7-0.7H9.7C9.3,19.7,9,20,9,20.3V32
			C9,32.4,9.3,32.7,9.7,32.7z M10.3,21h12.3v10.3H10.3V21z"/>
		<path class="st2" d="M25.7,19.9L17,10.2c-0.1-0.1-0.3-0.2-0.5-0.2l0,0c-0.2,0-0.4,0.1-0.5,0.2l-8.7,9.7C7,20.1,7,20.4,7.1,20.6
			C7.2,20.9,7.5,21,7.7,21h17.5c0.3,0,0.5-0.2,0.6-0.4S25.9,20.1,25.7,19.9z"/>
		<path class="st2" d="M19.4,25.5h-5.8c-0.4,0-0.7,0.3-0.7,0.7V32c0,0.4,0.3,0.7,0.7,0.7h5.8c0.4,0,0.7-0.3,0.7-0.7v-5.8
			C20,25.8,19.7,25.5,19.4,25.5z M18.7,31.3h-4.5v-4.5h4.5V31.3z"/>
		<path class="st2" d="M49.5,36.2h-3.9c-3.6,0-6.5,2.9-6.5,6.5c0,0.4,0.3,0.7,0.7,0.7h13.6c0.4,0,0.7-0.3,0.7-0.7v-1.9
			C54,38.2,52,36.2,49.5,36.2z"/>
		<path class="st2" d="M39.8,47.2c0.7,0,1.3,0.6,1.3,1.3c0,0.4,0.3,0.7,0.7,0.7h7.8c0.4,0,0.7-0.3,0.7-0.7c0-0.7,0.6-1.3,1.3-1.3
			s1.3,0.6,1.3,1.3c0,0.4,0.3,0.7,0.7,0.7h2.9c0.4,0,0.7-0.3,0.7-0.7v-3.9c0-1.4-1.2-2.6-2.6-2.6H37.8c-2.5,0-4.6,2-4.6,4.6v1.9
			c0,0.4,0.3,0.7,0.7,0.7h3.9c0.4,0,0.7-0.3,0.7-0.7C38.5,47.8,39.1,47.2,39.8,47.2z M37.3,47.6l-0.1,0.2h-2.6v-1.3
			c0-1.8,1.4-3.2,3.2-3.2h16.5c0.7,0,1.3,0.6,1.3,1.3v3.2H54l-0.1-0.2c-0.4-1-1.4-1.7-2.5-1.7s-2.1,0.7-2.5,1.7l-0.1,0.2h-6.6
			l-0.1-0.2c-0.4-1-1.4-1.7-2.5-1.7S37.7,46.6,37.3,47.6z"/>
		<g>
			<g>
				<path class="st2" d="M39.8,51.4c-1.6,0-2.9-1.3-2.9-2.9c0-1.6,1.3-2.9,2.9-2.9c1.6,0,2.9,1.3,2.9,2.9
					C42.7,50.1,41.4,51.4,39.8,51.4z M39.8,47.5c-0.5,0-1,0.4-1,1c0,0.5,0.4,1,1,1c0.5,0,1-0.4,1-1C40.7,48,40.3,47.5,39.8,47.5z"/>
				<path class="st1" d="M39.8,51.7c-1.8,0-3.2-1.4-3.2-3.2s1.4-3.2,3.2-3.2s3.2,1.4,3.2,3.2S41.5,51.7,39.8,51.7z M39.8,45.9
					c-1.4,0-2.6,1.2-2.6,2.6s1.2,2.6,2.6,2.6s2.6-1.2,2.6-2.6S41.2,45.9,39.8,45.9z M39.8,49.8c-0.7,0-1.3-0.6-1.3-1.3
					s0.6-1.3,1.3-1.3s1.3,0.6,1.3,1.3C41,49.2,40.5,49.8,39.8,49.8z M39.8,47.8c-0.4,0-0.7,0.3-0.7,0.7s0.3,0.7,0.7,0.7
					s0.7-0.3,0.7-0.7S40.1,47.8,39.8,47.8z"/>
			</g>
		</g>
		<path class="st2" d="M56.3,3.2H7.7c-2.5,0-4.6,2-4.6,4.6v42.7c0,2.5,2,4.6,4.6,4.6h19.1l4.7,5.6c0.3,0.3,0.8,0.3,1,0l4.7-5.6h19.1
			c2.5,0,4.6-2,4.6-4.6V7.7C60.8,5.2,58.8,3.2,56.3,3.2z M59.5,50.5c0,1.8-1.4,3.2-3.2,3.2H36.9c-0.2,0-0.4,0.1-0.5,0.2L32,59.1
			l-4.3-5.2c-0.1-0.2-0.3-0.2-0.5-0.2H7.7c-1.8,0-3.2-1.4-3.2-3.2V7.7C4.5,6,6,4.5,7.7,4.5h48.6c1.8,0,3.2,1.4,3.2,3.2V50.5z"/>
		<path class="st2" d="M9.4,18.8c0.3,0.1,0.6,0,0.7-0.2l3.9-4.3c0.1-0.1,0.2-0.3,0.2-0.4v-2.3c0-0.4-0.3-0.7-0.7-0.7H9.7
			c-0.4,0-0.7,0.3-0.7,0.7v6.6C9,18.5,9.2,18.7,9.4,18.8z M10.3,12.3h2.5v1.3l-2.5,2.8V12.3z"/>
		<g>
			<g>
				<path class="st2" d="M51.4,51.4c-1.6,0-2.9-1.3-2.9-2.9c0-1.6,1.3-2.9,2.9-2.9c1.6,0,2.9,1.3,2.9,2.9
					C54.3,50.1,53,51.4,51.4,51.4z M51.4,47.5c-0.5,0-1,0.4-1,1c0,0.5,0.4,1,1,1c0.5,0,1-0.4,1-1C52.4,48,52,47.5,51.4,47.5z"/>
				<path class="st1" d="M51.4,51.7c-1.8,0-3.2-1.4-3.2-3.2s1.4-3.2,3.2-3.2s3.2,1.4,3.2,3.2S53.2,51.7,51.4,51.7z M51.4,45.9
					c-1.4,0-2.6,1.2-2.6,2.6s1.2,2.6,2.6,2.6s2.6-1.2,2.6-2.6S52.9,45.9,51.4,45.9z M51.4,49.8c-0.7,0-1.3-0.6-1.3-1.3
					s0.6-1.3,1.3-1.3s1.3,0.6,1.3,1.3S52.1,49.8,51.4,49.8z M51.4,47.8c-0.4,0-0.7,0.3-0.7,0.7s0.3,0.7,0.7,0.7s0.7-0.3,0.7-0.7
					S51.8,47.8,51.4,47.8z"/>
			</g>
		</g>
		<path class="st2" d="M22,35.2H9.7c-0.4,0-0.7,0.3-0.7,0.7v10.4h1.3v-9.7H22V35.2z"/>
		<g>
			<g>
				<path class="st2" d="M24.2,40.7h-3.9c-0.5,0-1-0.4-1-1v-1.9c0-1.6,1.3-2.9,2.9-2.9s2.9,1.3,2.9,2.9v1.9
					C25.2,40.3,24.8,40.7,24.2,40.7z M21.3,38.8h1.9v-1c0-0.5-0.4-1-1-1c-0.5,0-1,0.4-1,1v1H21.3z"/>
				<path class="st1" d="M24.2,41h-3.9c-0.7,0-1.3-0.6-1.3-1.3v-1.9c0-1.8,1.4-3.2,3.2-3.2c1.8,0,3.2,1.4,3.2,3.2v1.9
					C25.5,40.5,24.9,41,24.2,41z M22.3,35.2c-1.4,0-2.6,1.2-2.6,2.6v1.9c0,0.4,0.3,0.7,0.7,0.7h3.9c0.4,0,0.7-0.3,0.7-0.7v-1.9
					C24.9,36.4,23.7,35.2,22.3,35.2z M23.6,39.1H21v-1.3c0-0.7,0.6-1.3,1.3-1.3s1.3,0.6,1.3,1.3C23.6,37.8,23.6,39.1,23.6,39.1z
					 M21.6,38.5H23v-0.7c0-0.4-0.3-0.7-0.7-0.7s-0.7,0.3-0.7,0.7C21.6,37.8,21.6,38.5,21.6,38.5z"/>
			</g>
		</g>
		<path class="st2" d="M22.3,35.2c-1.4,0-2.6,1.2-2.6,2.6v1.9c0,0.4,0.3,0.7,0.7,0.7h3.9c0.4,0,0.7-0.3,0.7-0.7v-1.9
			C24.9,36.4,23.7,35.2,22.3,35.2z M23.6,39.1H21v-1.3c0-0.7,0.6-1.3,1.3-1.3s1.3,0.6,1.3,1.3C23.6,37.8,23.6,39.1,23.6,39.1z"/>
		<path class="st2" d="M20.3,49.8h-1.9c-0.7,0-1.3-0.6-1.3-1.3v-1.9c0-0.4-0.3-0.7-0.7-0.7H7.7c-0.4,0-0.7,0.3-0.7,0.7v1.9
			c0,1.4,1.2,2.6,2.6,2.6h10.7c0.4,0,0.7-0.3,0.7-0.7S20.7,49.8,20.3,49.8z M9.7,49.8c-0.7,0-1.3-0.6-1.3-1.3v-1.3h7.4v1.3
			c0,0.3,0.1,0.6,0.1,0.9l0.1,0.4C16,49.8,9.7,49.8,9.7,49.8z"/>
		<path class="st2" d="M19.7,51.1h0.7c0.4,0,0.7-0.3,0.7-0.7V40.1h-1.3v11H19.7z"/>
		<rect x="23.6" y="43" class="st0" width="1.3" height="1.3"/>
		<rect x="27.4" y="43" class="st0" width="1.3" height="1.3"/>
		<rect x="31.3" y="43" class="st0" width="1.3" height="1.3"/>
		<rect x="24.5" y="12.9" class="st0" width="1.3" height="1.3"/>
		<rect x="28.4" y="12.9" class="st0" width="1.3" height="1.3"/>
		<rect x="32.3" y="12.9" class="st0" width="1.3" height="1.3"/>
		<path class="st3" d="M52.7,42H40.5l0.1-0.4c0.5-2.4,2.6-4.1,5.1-4.1h3.9c1.8,0,3.2,1.4,3.2,3.2L52.7,42L52.7,42z"/>
		<rect x="46.9" y="37.2" class="st1" width="1.3" height="5.2"/>
	</g>
	<path class="st4" d="M9.4,19.4l6.9-7.7c0.1-0.1,0.2-0.1,0.2,0l6.9,7.7c0.1,0.1,0,0.2-0.1,0.2H9.5C9.4,19.7,9.4,19.5,9.4,19.4z"/>
</g>
</svg>
