<?xml version="1.0" encoding="utf-8"?>
<!-- Generator: Adobe Illustrator 22.0.1, SVG Export Plug-In . SVG Version: 6.00 Build 0)  -->
<svg version="1.1" xmlns="http://www.w3.org/2000/svg" xmlns:xlink="http://www.w3.org/1999/xlink" x="0px" y="0px"
	 viewBox="0 0 756.489 469.916" style="enable-background:new 0 0 756.489 469.916;" xml:space="preserve">
<style type="text/css">
	.st0{fill:url(#SVGID_1_);}
	.st1{opacity:0.15;}
	.st2{fill:#3FCDBA;}
	.st3{opacity:0.47;}
	.st4{fill:#E0E4F0;}
	.st5{fill:#65B5B7;}
	.st6{fill:#191C3C;}
	.st7{fill:#FDFDFE;}
	.st8{fill:#575A8F;}
	.st9{fill:#6371C5;}
	.st10{opacity:0.3;}
	.st11{fill:#414042;}
	.st12{fill:#FEC55E;}
	.st13{fill:#FDE1A7;}
	.st14{fill:#F1F2F2;}
	.st15{fill:#212121;}
	.st16{fill:url(#SVGID_2_);}
	.st17{fill:url(#SVGID_3_);}
	.st18{fill:#56408B;}
	.st19{fill:url(#XMLID_12_);}
	.st20{fill:#FFFFFF;}
	.st21{opacity:0.1;fill:#191C3C;}
	.st22{fill:#D77EDB;}
	.st23{fill:#5DDAF4;}
	.st24{fill:url(#XMLID_13_);}
	.st25{opacity:0.2;fill:#414042;}
	.st26{opacity:0.2;fill:#525D7A;}
	.st27{fill:url(#XMLID_14_);}
	.st28{fill:url(#XMLID_15_);}
	.st29{opacity:0.06;fill:#FFFFFF;}
	.st30{opacity:0.1;fill:#525D7A;}
	.st31{fill:#E6E7E8;}
	.st32{fill:#525D7A;}
	.st33{fill:url(#SVGID_4_);}
	.st34{opacity:0.15;fill:#525D7A;}
	.st35{fill:url(#SVGID_5_);}
	.st36{fill:url(#SVGID_6_);}
	.st37{fill:url(#XMLID_16_);}
	.st38{fill:url(#XMLID_17_);}
	.st39{fill:url(#XMLID_20_);}
	.st40{opacity:0.2;}
	.st41{fill:#037982;}
	.st42{opacity:0.3;fill:#3F4949;}
	.st43{fill:#623FE9;}
	.st44{fill:#9EE9F8;}
	.st45{fill:#6C60EB;}
	.st46{fill:#3F3CBC;}
	.st47{opacity:0.3;fill:#525D7A;}
	.st48{fill:#7DE1F6;}
	.st49{fill:url(#);}
	.st50{fill:#F6F6F6;}
	.st51{fill:#7866A2;}
	.st52{opacity:0.3;fill:#231F20;}
	.st53{fill:#F5F7F9;}
	.st54{opacity:0.2;fill:#BABECA;}
	.st55{fill:#FED17E;}
	.st56{fill:url(#SVGID_7_);}
	.st57{opacity:0.5;}
	.st58{fill:url(#SVGID_8_);}
	.st59{fill:url(#SVGID_9_);}
	.st60{fill:url(#XMLID_26_);}
	.st61{fill:url(#XMLID_27_);}
	.st62{fill:url(#XMLID_28_);}
	.st63{fill:url(#XMLID_29_);}
	.st64{fill:url(#SVGID_10_);}
	.st65{fill:url(#SVGID_11_);}
	.st66{fill:url(#SVGID_12_);}
	.st67{fill:url(#XMLID_30_);}
	.st68{fill:url(#XMLID_31_);}
	.st69{fill:url(#XMLID_32_);}
	.st70{fill:url(#SVGID_13_);}
	.st71{fill:url(#SVGID_14_);}
	.st72{fill:url(#XMLID_59_);}
	.st73{fill:url(#XMLID_60_);}
	.st74{fill:url(#XMLID_61_);}
	.st75{fill:url(#XMLID_62_);}
	.st76{fill:url(#SVGID_15_);}
	.st77{fill:url(#SVGID_16_);}
	.st78{fill:url(#SVGID_17_);}
	.st79{fill:url(#XMLID_63_);}
	.st80{fill:url(#XMLID_64_);}
	.st81{fill:url(#XMLID_65_);}
	.st82{fill:url(#SVGID_18_);}
	.st83{fill:url(#SVGID_19_);}
	.st84{fill:url(#SVGID_20_);}
	.st85{fill:url(#SVGID_21_);}
	.st86{fill:#D1D4FC;}
	.st87{fill:#B2B8FA;}
	.st88{fill:#E0E3FD;}
	.st89{fill:#C1C6FB;}
	.st90{fill:#FAFAFF;}
	.st91{fill:url(#XMLID_66_);}
	.st92{opacity:0;fill:#FFFFFF;}
	.st93{opacity:0.0244;fill:#FDFDFF;}
	.st94{opacity:0.0488;fill:#FBFCFF;}
	.st95{opacity:0.0732;fill:#F9FAFF;}
	.st96{opacity:0.0976;fill:#F7F8FF;}
	.st97{opacity:0.122;fill:#F6F6FE;}
	.st98{opacity:0.1463;fill:#F4F5FE;}
	.st99{opacity:0.1707;fill:#F2F3FE;}
	.st100{opacity:0.1951;fill:#F0F1FE;}
	.st101{opacity:0.2195;fill:#EEEFFE;}
	.st102{opacity:0.2439;fill:#ECEEFE;}
	.st103{opacity:0.2683;fill:#EAECFE;}
	.st104{opacity:0.2927;fill:#E8EAFE;}
	.st105{opacity:0.3171;fill:#E7E8FD;}
	.st106{opacity:0.3415;fill:#E5E7FD;}
	.st107{opacity:0.3659;fill:#E3E5FD;}
	.st108{opacity:0.3902;fill:#E1E3FD;}
	.st109{opacity:0.4146;fill:#DFE2FD;}
	.st110{opacity:0.439;fill:#DDE0FD;}
	.st111{opacity:0.4634;fill:#DBDEFD;}
	.st112{opacity:0.4878;fill:#D9DCFD;}
	.st113{opacity:0.5122;fill:#D8DBFC;}
	.st114{opacity:0.5366;fill:#D6D9FC;}
	.st115{opacity:0.561;fill:#D4D7FC;}
	.st116{opacity:0.5854;fill:#D2D5FC;}
	.st117{opacity:0.6098;fill:#D0D4FC;}
	.st118{opacity:0.6341;fill:#CED2FC;}
	.st119{opacity:0.6585;fill:#CCD0FC;}
	.st120{opacity:0.6829;fill:#CACFFC;}
	.st121{opacity:0.7073;fill:#C9CDFB;}
	.st122{opacity:0.7317;fill:#C7CBFB;}
	.st123{opacity:0.7561;fill:#C5C9FB;}
	.st124{opacity:0.7805;fill:#C3C8FB;}
	.st125{opacity:0.8049;fill:#C1C6FB;}
	.st126{opacity:0.8293;fill:#BFC4FB;}
	.st127{opacity:0.8537;fill:#BDC2FB;}
	.st128{opacity:0.878;fill:#BBC1FB;}
	.st129{opacity:0.9024;fill:#BABFFA;}
	.st130{opacity:0.9268;fill:#B8BDFA;}
	.st131{opacity:0.9512;fill:#B6BBFA;}
	.st132{opacity:0.9756;fill:#B4BAFA;}
	.st133{fill:#5361F0;}
	.st134{fill:#F0F1FE;}
	.st135{fill:#FFDFCC;}
	.st136{fill:#FE5E31;}
	.st137{fill:#536DFE;}
	.st138{fill:#FFDFD6;}
	.st139{fill:#FFCEBD;}
	.st140{fill:#4D5068;}
	.st141{display:none;opacity:0.58;fill:url(#);}
	.st142{fill:#19103A;}
	.st143{opacity:0.3;fill:#30334F;}
	.st144{fill:#FFBBA1;}
	.st145{fill:url(#SVGID_22_);}
	.st146{opacity:0.1;fill:#A7A9AC;}
	.st147{fill:#F8F7FF;}
	.st148{fill:#DDD6FF;}
	.st149{fill:#C4B8FF;}
	.st150{fill:#FF95A9;}
	.st151{fill:#7760DB;}
	.st152{fill:#40327A;}
	.st153{fill:#FF9D45;}
	.st154{fill:#FFC359;}
	.st155{fill:#FF809F;}
	.st156{fill:#EEEBFF;}
	.st157{fill:#A796F2;}
	.st158{fill:#E5659B;}
	.st159{fill:none;}
	.st160{fill:url(#SVGID_23_);stroke:#FF0000;stroke-miterlimit:10;}
	.st161{fill:#FF0000;}
</style>
<g id="Layer_3">
	<path class="st147" d="M696.935,432.344c0,0,68.553-44.628,27.485-86.365s-53.355-36.568-41.532-83.088
		c11.823-46.52,59.708-63.825,40.668-99.128c-22.854-42.374-74.955-3.717-107.34,11.121c-60.207,27.587-59.847-13.652-36.724-52.232
		c23.122-38.58,24.781-102.903-28.617-102.903c-58.08,0-185.719,125.503-256.036,212.24c-42.084,51.911-72.756,15.79-68.495-17.561
		c2.708-21.197,8.343-55.46-4.844-71.225c-22.89-27.363-90.13,58.366-113.87,94.993c-92.916,143.353,20.029,194.148,20.029,194.148
		H696.935z"/>
	<path class="st147" d="M178.187,82.707c2.607-5.973,3.443-10.552,1.592-14.326c-5.49-11.188-33.476-12.981-51.401-2.095
		c-24.996,15.18-31.605,55.73-20.163,64.733C121.528,141.495,164.725,113.545,178.187,82.707z"/>
	<g>
		<rect x="356.654" y="443.471" class="st149" width="211.428" height="1.483"/>
	</g>
	<g>
		<rect x="517.028" y="454.773" class="st149" width="91.993" height="1.483"/>
	</g>
	<g>
		<rect x="320.466" y="454.773" class="st149" width="168.266" height="1.483"/>
	</g>
	<g>
		<rect x="193.86" y="454.773" class="st149" width="24.995" height="1.483"/>
	</g>
	<g>
		<rect x="226.242" y="454.773" class="st149" width="7.55" height="1.483"/>
	</g>
	<g>
		<rect x="593.778" y="443.644" class="st149" width="42.995" height="1.483"/>
	</g>
	<g>
		<rect x="274.567" y="443.471" class="st149" width="65.177" height="1.483"/>
	</g>
	<g>
		<rect x="146.597" y="443.471" class="st149" width="113.972" height="1.483"/>
	</g>
	<g>
		<rect x="113.103" y="443.471" class="st149" width="19.915" height="1.483"/>
	</g>
	<rect x="281.463" y="129.679" class="st148" width="233.895" height="301.265"/>
	<polygon class="st149" points="515.357,317.66 515.357,430.944 281.463,430.944 281.463,354.097 	"/>
	
		<rect x="260.507" y="176.096" transform="matrix(-1.836970e-16 1 -1 -1.836970e-16 678.7211 -118.0983)" class="st20" width="275.805" height="208.431"/>
	<polygon class="st150" points="461.402,218.171 446.596,205.955 450.647,201.046 460.452,209.137 481.016,183.261 485.999,187.222 
			"/>
	
		<ellipse transform="matrix(0.6671 -0.7449 0.7449 0.6671 -64.9197 292.6046)" class="st151" cx="294.963" cy="218.947" rx="8.682" ry="8.682"/>
	<g>
		<rect x="413.397" y="201.489" class="st152" width="19.306" height="1.273"/>
	</g>
	<g>
		<rect x="348.372" y="201.489" class="st152" width="57.812" height="1.273"/>
	</g>
	<g>
		<rect x="386.678" y="210.821" class="st152" width="46.026" height="1.273"/>
	</g>
	<g>
		<rect x="381.15" y="210.821" class="st152" width="2.663" height="1.273"/>
	</g>
	<g>
		<rect x="322.171" y="210.821" class="st152" width="52.403" height="1.273"/>
	</g>
	<g>
		<rect x="322.171" y="220.154" class="st152" width="74.891" height="1.273"/>
	</g>
	<polygon class="st150" points="461.402,266.936 446.596,254.72 450.647,249.811 460.452,257.901 481.016,232.026 485.999,235.987 	
		"/>
	<g>
		<rect x="348.372" y="250.254" class="st152" width="84.331" height="1.273"/>
	</g>
	<g>
		<rect x="322.171" y="250.254" class="st152" width="19.624" height="1.273"/>
	</g>
	<g>
		<rect x="322.171" y="259.586" class="st152" width="102.153" height="1.273"/>
	</g>
	<g>
		<rect x="359.309" y="268.918" class="st152" width="2.11" height="1.273"/>
	</g>
	<g>
		<rect x="322.171" y="268.918" class="st152" width="33.213" height="1.273"/>
	</g>
	<polygon class="st150" points="461.402,315.701 446.596,303.484 450.647,298.576 460.452,306.666 481.016,280.791 485.999,284.752 
			"/>
	<g>
		<g>
			<rect x="322.171" y="299.019" class="st152" width="110.533" height="1.273"/>
		</g>
		<g>
			<rect x="398.41" y="308.351" class="st152" width="34.293" height="1.273"/>
		</g>
		<g>
			<rect x="322.171" y="308.351" class="st152" width="68.314" height="1.273"/>
		</g>
		<g>
			<rect x="322.171" y="317.683" class="st152" width="94.834" height="1.273"/>
		</g>
	</g>
	<g>
		<polygon class="st20" points="456.782,220.79 452.685,220.79 452.685,213.967 		"/>
		<polygon class="st151" points="456.782,221.426 452.048,221.426 452.048,213.967 453.321,213.967 453.321,220.154 
			456.782,220.154 		"/>
	</g>
	<polygon class="st151" points="478.78,221.426 459.825,221.426 459.825,220.154 477.507,220.154 477.507,200.748 478.78,200.748 	
		"/>
	<g>
		<rect x="468.121" y="194.695" class="st151" width="1.869" height="1.273"/>
	</g>
	<g>
		<polygon class="st20" points="452.685,198.205 452.685,195.331 465.853,195.331 		"/>
		<polygon class="st151" points="453.321,198.205 452.048,198.205 452.048,194.695 465.853,194.695 465.853,195.968 
			453.321,195.968 		"/>
	</g>
	<polygon class="st151" points="464.023,270.191 452.048,270.191 452.048,266.745 453.321,266.745 453.321,268.918 464.023,268.918 
			"/>
	<polygon class="st151" points="478.78,270.191 466.383,270.191 466.383,268.918 477.507,268.918 477.507,254.468 478.78,254.468 	
		"/>
	<rect x="477.507" y="249.217" class="st151" width="1.273" height="2.303"/>
	<polygon class="st151" points="453.321,264.33 452.048,264.33 452.048,243.46 470.388,243.46 470.388,244.733 453.321,244.733 	"/>
	<polygon class="st151" points="478.78,318.956 452.048,318.956 452.048,306.627 453.321,306.627 453.321,317.683 477.507,317.683 
		477.507,313.256 478.78,313.256 	"/>
	<rect x="477.507" y="311.137" class="st151" width="1.273" height="2.119"/>
	<rect x="477.507" y="300.29" class="st151" width="1.273" height="8.032"/>
	<rect x="477.507" y="298.702" class="st151" width="1.273" height="1.589"/>
	<rect x="467.02" y="292.224" class="st151" width="1.857" height="1.273"/>
	<polygon class="st151" points="453.321,297.319 452.048,297.319 452.048,292.224 464.845,292.224 464.845,293.497 453.321,293.497 
			"/>
	<rect x="452.048" y="358.607" class="st151" width="1.273" height="1.746"/>
	<polygon class="st151" points="478.78,367.72 452.048,367.72 452.048,362.792 453.321,362.792 453.321,366.447 477.507,366.447 
		477.507,363.297 478.78,363.297 	"/>
	<rect x="477.507" y="346.192" class="st151" width="1.273" height="14.161"/>
	<polygon class="st150" points="461.402,364.466 446.596,352.249 450.647,347.34 460.452,355.431 481.016,329.556 485.999,333.517 	
		"/>
	<g>
		<rect x="322.171" y="347.784" class="st152" width="102.153" height="1.273"/>
	</g>
	<g>
		<rect x="352.125" y="357.115" class="st152" width="80.578" height="1.273"/>
	</g>
	<g>
		<rect x="344.447" y="357.115" class="st152" width="2.182" height="1.273"/>
	</g>
	<g>
		<rect x="322.171" y="357.115" class="st152" width="14.851" height="1.273"/>
	</g>
	<g>
		<rect x="322.171" y="366.447" class="st152" width="39.249" height="1.273"/>
	</g>
	<polygon class="st151" points="302.588,214.794 280.441,174.013 273.425,176.928 286.637,221.41 	"/>
	
		<rect x="152.826" y="205.217" transform="matrix(0.9858 -0.168 0.168 0.9858 -31.8656 43.2673)" class="st153" width="173.965" height="9.53"/>
	
		<rect x="151.225" y="195.823" transform="matrix(0.9858 -0.168 0.168 0.9858 -30.3102 42.8649)" class="st154" width="173.965" height="9.53"/>
	
		<rect x="149.624" y="186.428" transform="matrix(0.9858 -0.168 0.168 0.9858 -28.7548 42.4625)" class="st154" width="173.965" height="9.53"/>
	
		<rect x="124.176" y="204.506" transform="matrix(0.9858 -0.168 0.168 0.9858 -34.8883 25.1689)" class="st155" width="14.295" height="28.59"/>
	
		<rect x="138.268" y="202.105" transform="matrix(0.9858 -0.168 0.168 0.9858 -34.2855 27.5027)" class="st156" width="14.295" height="28.59"/>
	<polygon class="st156" points="367.824,178.501 321.553,171.885 326.355,200.068 	"/>
	<rect x="294.194" y="417.577" class="st152" width="208.431" height="1.273"/>
	<polygon class="st149" points="341.131,129.679 341.131,161.503 455.695,161.503 455.695,129.679 420.524,129.679 411.48,110.172 
		385.353,110.172 376.309,129.679 	"/>
	<polygon class="st157" points="341.131,129.679 341.131,152.879 455.695,135.032 455.695,129.679 420.524,129.679 411.48,110.172 
		385.353,110.172 376.309,129.679 	"/>
	<rect x="65.094" y="432.342" class="st149" width="655.374" height="1.483"/>
	<g>
		<g>
			<path class="st149" d="M546.086,222.644c-1.872,8.673-5.008,17.024-7.512,25.536c-2.578,8.762-5.178,17.674-5.146,26.807
				c0.041,11.879,4.755,23.68,12.91,32.317c3.196,3.384,6.927,6.343,9.388,10.293c2.461,3.951,3.369,9.376,0.62,13.133
				c-3.966,5.419-12.45,4.245-18.249,7.63c-7.302,4.262-8.317,15.126-4.153,22.485s23.12,28.413,50.17,23.199
				c12.107-2.334,28.517-13.855,28.049-26.176c-0.487-12.83-12.738-23.221-12.321-36.053c0.273-8.406,5.925-15.511,10.817-22.353
				c4.892-6.842,9.45-15.177,7.198-23.28c-3.316-11.929-18.679-15.614-26.118-25.511c-4.791-6.373-5.846-14.756-6.143-22.724
				c-0.298-7.967-0.094-16.133-2.752-23.65C576.397,186.067,553.51,188.241,546.086,222.644z"/>
		</g>
		<rect x="573.879" y="268.489" class="st152" width="1.273" height="138.272"/>
		<path class="st152" d="M575.144,308.443l-1.256-0.206c2.058-12.509,16.284-20.289,16.889-20.614l0.603,1.121
			C591.237,288.82,577.1,296.557,575.144,308.443z"/>
		<path class="st152" d="M573.888,362.894c-1.392-8.46-11.469-13.967-11.571-14.022l0.603-1.121
			c0.438,0.235,10.731,5.864,12.223,14.936L573.888,362.894z"/>
		<path class="st154" d="M581.57,430.943h-14.324c-8.699,0-15.751-7.052-15.751-15.751v-13.205h45.826v13.205
			C597.32,423.891,590.269,430.943,581.57,430.943z"/>
		<path class="st152" d="M559.631,429.706c-5.411-2.844-8.773-8.406-8.773-14.514v-4.856h1.273v4.856
			c0,5.634,3.1,10.763,8.091,13.388L559.631,429.706z"/>
		<rect x="551.495" y="406.125" class="st20" width="45.826" height="1.273"/>
		<rect x="568.13" y="401.351" class="st152" width="29.191" height="1.273"/>
		<rect x="574.975" y="430.943" class="st152" width="32.855" height="1.273"/>
	</g>
	<polygon class="st148" points="353.156,186.131 326.354,200.07 324.756,190.675 352.589,182.809 	"/>
	<polygon class="st158" points="367.826,178.5 353.156,186.131 352.589,182.809 	"/>
	<polygon class="st155" points="367.826,178.5 352.589,182.809 351.456,176.158 	"/>
	
		<rect x="139.869" y="221.03" transform="matrix(0.9858 -0.168 0.168 0.9858 -35.8409 27.9051)" class="st148" width="14.295" height="9.53"/>
	
		<rect x="125.777" y="223.431" transform="matrix(0.9858 -0.168 0.168 0.9858 -36.4436 25.5713)" class="st158" width="14.295" height="9.53"/>
	
		<rect x="182.888" y="212.151" transform="matrix(0.9858 -0.168 0.168 0.9858 -32.1844 45.2041)" class="st152" width="136.284" height="1.272"/>
	
		<rect x="148.748" y="227.336" transform="matrix(0.9858 -0.1681 0.1681 0.9858 -36.0028 30.5723)" class="st151" width="27.713" height="1.272"/>
	<polygon class="st151" points="126.158,234.828 122.823,215.252 124.077,215.038 127.199,233.36 146.439,230.081 146.653,231.335 	
		"/>
	<polygon class="st151" points="122.141,211.252 121.142,205.39 135.861,202.882 136.075,204.136 122.611,206.43 123.396,211.038 	
		"/>
	<rect x="119.234" y="434.342" class="st152" width="68.676" height="1.483"/>
	<rect x="418.344" y="430.943" class="st152" width="5.979" height="1.273"/>
	<rect x="231.591" y="432.943" class="st152" width="179.328" height="1.273"/>
	<rect x="444.966" y="432.943" class="st152" width="87.408" height="1.273"/>
	<rect x="141.531" y="430.943" class="st152" width="4.614" height="1.273"/>
	<rect x="614.584" y="430.943" class="st152" width="12.411" height="1.273"/>
	
		<rect x="151.495" y="200.932" transform="matrix(0.9858 -0.168 0.168 0.9858 -33.6643 28.5875)" class="st20" width="1.273" height="24.662"/>
	
		<rect x="322.518" y="171.749" transform="matrix(0.9858 -0.1681 0.1681 0.9858 -25.8712 56.8922)" class="st20" width="1.273" height="19.062"/>
	
		<rect x="138.306" y="219.607" transform="matrix(0.9858 -0.168 0.168 0.9858 -35.1393 26.4761)" class="st20" width="1.273" height="2.711"/>
	
		<rect x="137.052" y="209.93" transform="matrix(0.9858 -0.168 0.168 0.9858 -33.9265 26.1655)" class="st20" width="1.273" height="7.352"/>
	<rect x="514.721" y="391.807" class="st151" width="1.273" height="29.808"/>
	<rect x="514.721" y="254.468" class="st151" width="1.273" height="123.763"/>
	<rect x="280.826" y="339.406" class="st151" width="1.273" height="38.081"/>
	<rect x="280.826" y="330.759" class="st151" width="1.273" height="2.602"/>
	<rect x="280.826" y="296.978" class="st151" width="1.273" height="30.652"/>
	<polygon class="st151" points="456.332,162.139 395.521,162.139 395.521,160.866 455.059,160.866 455.059,129.68 456.332,129.68 	
		"/>
	<rect x="351.456" y="160.866" class="st151" width="37.145" height="1.273"/>
	<polygon class="st157" points="515.994,178.892 514.721,178.892 514.721,130.316 496.294,130.316 496.294,129.043 515.994,129.043 
			"/>
	<rect x="481.658" y="129.043" class="st157" width="9.125" height="1.273"/>
	
		<rect x="260.347" y="179.206" transform="matrix(0.9858 -0.168 0.168 0.9858 -26.3101 48.7391)" class="st151" width="29.018" height="1.272"/>
	<polygon class="st151" points="210.415,287.581 178.057,423.328 188.443,426.074 227.213,292.021 	"/>
	
		<ellipse transform="matrix(0.7071 -0.7071 0.7071 0.7071 -246.5402 253.9561)" class="st151" cx="183.282" cy="424.578" rx="5.371" ry="5.372"/>
	<path class="st152" d="M172.5,430.943h16.154v-6.365h-10.75l-6.169,3.364c-0.513,0.28-0.833,0.818-0.833,1.403l0,0
		C170.902,430.228,171.618,430.943,172.5,430.943z"/>
	
		<ellipse transform="matrix(0.0354 -0.9994 0.9994 0.0354 18.9213 460.0483)" class="st151" cx="247.769" cy="220.223" rx="12.729" ry="12.729"/>
	<path class="st151" d="M185.354,255.487c-4.095,2.495-9.436,1.197-11.931-2.898c-2.495-4.095-1.197-9.436,2.898-11.931
		c4.095-2.495,9.436-1.197,11.931,2.898C190.746,247.651,189.449,252.993,185.354,255.487z"/>
	<polygon class="st151" points="220.39,232.204 185.644,255.303 174.723,241.907 204.378,212.563 	"/>
	
		<ellipse transform="matrix(0.6915 -0.7224 0.7224 0.6915 -94.265 222.4723)" class="st151" cx="213.343" cy="221.604" rx="12.729" ry="12.729"/>
	
		<ellipse transform="matrix(0.6782 -0.7349 0.7349 0.6782 -94.1978 228.0948)" class="st151" cx="213.343" cy="221.604" rx="12.729" ry="12.729"/>
	
		<ellipse transform="matrix(0.7204 -0.6936 0.6936 0.7204 -83.4606 233.4362)" class="st151" cx="247.769" cy="220.223" rx="12.729" ry="12.729"/>
	<circle class="st151" cx="218.866" cy="289.603" r="8.688"/>
	<circle class="st151" cx="247.053" cy="289.603" r="8.688"/>
	<path class="st151" d="M256.719,216.479l-0.567,63.507l-46.374,1.86l-5.652-63.257c-0.453-5.072,3.43-9.492,8.518-9.696
		l34.807-1.396C252.54,207.292,256.764,211.387,256.719,216.479z"/>
	<path class="st151" d="M256.171,280.916l-0.426,8.688l-0.021,0.426c-0.227,4.627-4.045,8.262-8.677,8.262h-28.162
		c-4.633,0-8.45-3.635-8.677-8.262l-0.021-0.426l-0.426-8.688H256.171z"/>
	
		<ellipse transform="matrix(0.7071 -0.7071 0.7071 0.7071 -228.8336 296.7038)" class="st151" cx="243.736" cy="424.578" rx="5.372" ry="5.371"/>
	<polygon class="st20" points="223.05,208.475 236.336,253.849 243.137,221.084 242.599,207.691 	"/>
	<polygon class="st20" points="242.599,207.691 243.137,221.084 240.302,234.734 236.336,253.849 230.852,235.113 223.05,208.475 	
		"/>
	<path class="st151" d="M253.094,343.537l2.648-53.934h-17.375l0.006,53.934h-0.007l0,81.042h10.743l3.938-80.225
		C253.076,344.085,253.094,343.813,253.094,343.537L253.094,343.537z"/>
	
		<ellipse transform="matrix(0.7886 -0.6149 0.6149 0.7886 -123.4898 202.6457)" class="st151" cx="232.965" cy="280.916" rx="23.206" ry="23.206"/>
	<polygon class="st152" points="240.302,234.734 236.336,253.849 230.852,235.113 233.983,211.081 235.255,211.03 	"/>
	<path class="st152" d="M254.519,430.943h-16.154v-6.365h10.75l6.169,3.364c0.513,0.28,0.833,0.818,0.833,1.403l0,0
		C256.116,430.228,255.401,430.943,254.519,430.943z"/>
	
		<rect x="222.699" y="190.921" transform="matrix(0.9992 -0.0401 0.0401 0.9992 -7.8123 9.405)" class="st150" width="15.912" height="17.242"/>
	<path class="st152" d="M247.024,176.706l-2.297,0.278l-1.877-15.505l2.297-0.278c4.282-0.518,8.173,2.533,8.691,6.814l0,0
		C254.356,172.297,251.305,176.188,247.024,176.706z"/>
	<path class="st152" d="M229.913,193.639l-5.743,0.695c-3.172,0.384-6.054-1.876-6.438-5.048l-0.761-6.29l11.485-1.39
		L229.913,193.639z"/>
	<path class="st152" d="M245.423,176.494l-6.236,0.755l-2.415-19.952l5.575-0.675c3.806-0.461,7.264,2.251,7.725,6.057l0.827,6.83
		C251.316,172.95,248.864,176.077,245.423,176.494z"/>
	<path class="st150" d="M245.84,197.633l-20.389,2.468l-2.779-22.959c-0.845-6.984,4.131-13.33,11.115-14.176h0
		c6.746-0.817,12.945,3.806,14.087,10.505l2.974,17.448C251.403,194.176,249.121,197.236,245.84,197.633z"/>
	<path class="st159" d="M249.722,184.315l-1.849-10.847L249.722,184.315z"/>
	<path class="st152" d="M226.049,161.711l1.721-0.208l2.617,21.618l-13.206,1.598l-1.226-10.133
		C215.186,168.243,219.706,162.479,226.049,161.711z"/>
	<path class="st150" d="M223.756,186.108l3.446-0.417l-0.417-3.445c-0.23-1.903-1.96-3.259-3.863-3.029l0,0
		c-1.903,0.23-3.259,1.96-3.028,3.863l0,0C220.124,184.983,221.853,186.339,223.756,186.108z"/>
	<path class="st152" d="M249.256,169.77l-13.081,1.583c-5.331,0.645-10.194-3.167-10.839-8.498c-0.307-2.537,1.501-4.843,4.038-5.15
		c2.537-0.307,4.843,1.501,5.15,4.038c0.032,0.265,0.274,0.455,0.539,0.423l13.081-1.583L249.256,169.77z"/>
	<path class="st152" d="M243.819,165.766l-6.508,0.788c-2.537,0.307-4.843-1.501-5.15-4.038c-0.307-2.537,1.501-4.843,4.038-5.15
		l6.508-0.788c2.537-0.307,4.843,1.501,5.15,4.038C248.164,163.154,246.356,165.459,243.819,165.766z"/>
	<path class="st152" d="M251.639,195.537c0.444,2.607-1.382,5.059-4.01,5.377l-9.13,1.105c-5.074,0.614-9.685-3.001-10.299-8.075
		l-1.302-10.754l3.443-0.417l0,0c0.256,2.115,2.178,3.622,4.293,3.366l15.089-1.826L251.639,195.537z"/>
	<path class="st20" d="M248.308,187.643c0.248,1.917-1.106,3.673-3.024,3.92c-1.917,0.248-3.673-1.106-3.92-3.024L248.308,187.643z"
		/>
	<g>
		<path class="st150" d="M224.717,291.617c0.408-2.782-1.516-5.369-4.299-5.777c-2.782-0.408-5.369,1.516-5.777,4.299
			c-0.408,2.782,1.516,5.369,4.299,5.777C221.722,296.324,224.309,294.4,224.717,291.617z"/>
		<path class="st150" d="M214.833,288.88c-0.306,2.087-2.246,3.53-4.333,3.224c-2.087-0.306-3.53-2.246-3.224-4.333
			c0.306-2.087,2.246-3.53,4.333-3.224C213.695,284.854,215.139,286.794,214.833,288.88z"/>
		<polygon class="st150" points="217.555,295.507 209.461,291.798 211.609,284.548 220.418,285.84 		"/>
	</g>
	<g>
		<polygon class="st151" points="208.232,290.905 214.31,286.337 188.247,243.554 174.429,253.94 203.918,286.184 206.49,289 		"/>
		<polygon class="st20" points="208.232,290.905 214.31,286.337 210.535,280.141 203.918,286.184 206.49,289 		"/>
		<polygon class="st150" points="208.236,290.905 214.314,286.337 212.559,283.457 206.494,289 		"/>
	</g>
	<polygon class="st151" points="248.525,207.516 295.471,210.278 295.931,227.576 249.218,232.871 	"/>
	<path class="st150" d="M273.371,176.723c0.489,2.052,2.549,3.318,4.6,2.829c2.052-0.489,3.318-2.549,2.829-4.6
		c-0.489-2.052-2.549-3.318-4.6-2.829C274.148,172.612,272.882,174.672,273.371,176.723z"/>
	<path class="st150" d="M263.767,180.322c-0.652-2.735,1.036-5.482,3.772-6.134c2.735-0.652,5.482,1.036,6.134,3.772
		c0.652,2.735-1.036,5.482-3.772,6.134C267.165,184.746,264.419,183.057,263.767,180.322z"/>
	<polygon class="st150" points="271.244,183.564 278.979,179.155 276.2,172.123 267.538,174.188 	"/>
	
		<ellipse transform="matrix(0.9239 -0.3827 0.3827 0.9239 -16.2581 161.7322)" class="st20" cx="398.413" cy="121.734" rx="5.436" ry="5.436"/>
	<path class="st151" d="M404.203,123.57l-1.213-0.384c0.148-0.469,0.223-0.957,0.223-1.453c0-2.647-2.153-4.8-4.8-4.8
		c-1.842,0-3.493,1.027-4.308,2.681l-1.142-0.563c1.031-2.092,3.12-3.391,5.45-3.391c3.348,0,6.073,2.724,6.073,6.073
		C404.486,122.359,404.391,122.978,404.203,123.57z"/>
	<path class="st151" d="M398.413,127.806c-3.348,0-6.073-2.724-6.073-6.073l0.002-0.173l1.273,0.03l-0.002,0.143
		c0,2.647,2.153,4.8,4.8,4.8c0.502,0,0.996-0.077,1.469-0.229l0.389,1.212C399.673,127.709,399.048,127.806,398.413,127.806z"/>
	<g>
		<rect x="237.728" y="402.974" class="st152" width="1.273" height="11.852"/>
	</g>
	<g>
		<rect x="237.728" y="352.665" class="st152" width="1.273" height="45.932"/>
	</g>
	<g>
		<path class="st20" d="M207.537,299.655l-9.209,38.633L207.537,299.655z"/>
		
			<rect x="183.074" y="318.335" transform="matrix(0.2315 -0.9728 0.9728 0.2315 -154.3526 442.5513)" class="st152" width="39.715" height="1.273"/>
	</g>
	<g>
		<path class="st20" d="M197.755,340.69l-1.039,4.359L197.755,340.69z"/>
		
			<rect x="194.995" y="342.234" transform="matrix(0.2315 -0.9728 0.9728 0.2315 -181.9796 455.3754)" class="st152" width="4.481" height="1.273"/>
	</g>
	<g>
		<path class="st20" d="M180.905,411.38l-1.127,4.727L180.905,411.38z"/>
		
			<rect x="177.912" y="413.107" transform="matrix(0.2315 -0.9728 0.9728 0.2315 -263.9115 493.4073)" class="st152" width="4.859" height="1.273"/>
	</g>
	<g>
		<path class="st20" d="M183.952,398.597l-2.458,10.311L183.952,398.597z"/>
		
			<rect x="177.423" y="403.116" transform="matrix(0.2315 -0.9728 0.9728 0.2315 -252.3604 488.0507)" class="st152" width="10.6" height="1.273"/>
	</g>
	<g>
		<path class="st20" d="M200.353,245.524l11.033-7.335L200.353,245.524z"/>
		
			<rect x="199.245" y="241.22" transform="matrix(0.8328 -0.5536 0.5536 0.8328 -99.4638 154.401)" class="st152" width="13.249" height="1.273"/>
	</g>
	<g>
		<path class="st20" d="M194.37,249.502l3.187-2.119L194.37,249.502z"/>
		
			<rect x="194.05" y="247.806" transform="matrix(0.8328 -0.5536 0.5536 0.8328 -104.7659 150.0181)" class="st152" width="3.827" height="1.273"/>
	</g>
	<g>
		<path class="st20" d="M266.139,230.953l25.428-2.882L266.139,230.953z"/>
		
			<rect x="266.058" y="228.876" transform="matrix(0.9936 -0.1128 0.1128 0.9936 -24.1185 32.9337)" class="st152" width="25.591" height="1.272"/>
	</g>
	<g>
		<path class="st20" d="M258.295,231.842l4.565-0.517L258.295,231.842z"/>
		
			<rect x="258.28" y="230.947" transform="matrix(0.9936 -0.1129 0.1129 0.9936 -24.4701 30.8862)" class="st152" width="4.595" height="1.272"/>
	</g>
	<g>
		<path class="st20" d="M206.181,241.495l1.728,19.341L206.181,241.495z"/>
		
			<rect x="206.409" y="241.456" transform="matrix(0.996 -0.089 0.089 0.996 -21.5316 19.4232)" class="st152" width="1.273" height="19.418"/>
	</g>
	<g>
		<path class="st20" d="M208.339,265.383l0.209,2.339L208.339,265.383z"/>
		
			<rect x="207.807" y="265.379" transform="matrix(0.996 -0.0891 0.0891 0.996 -22.9174 19.6292)" class="st152" width="1.273" height="2.348"/>
	</g>
	<polygon class="st151" points="453.321,350.861 452.048,350.861 452.048,340.989 467.948,340.989 467.948,342.262 453.321,342.262 
			"/>
	<path class="st149" d="M48.991,263.294c-3.68,0-6.675-2.994-6.675-6.675c0-3.681,2.994-6.675,6.675-6.675s6.675,2.994,6.675,6.675
		C55.666,260.3,52.672,263.294,48.991,263.294z M48.991,251.427c-2.863,0-5.192,2.329-5.192,5.191c0,2.862,2.329,5.192,5.192,5.192
		c2.863,0,5.192-2.329,5.192-5.192C54.183,253.757,51.854,251.427,48.991,251.427z"/>
	<g>
		<g>
			<rect x="641.749" y="83.746" class="st149" width="1.483" height="6.357"/>
			<rect x="641.749" y="121.888" class="st149" width="1.483" height="6.357"/>
		</g>
		<g>
			
				<rect x="632.214" y="86.301" transform="matrix(0.866 -0.5 0.5 0.866 40.0732 328.4983)" class="st149" width="1.484" height="6.357"/>
			
				<rect x="651.284" y="119.333" transform="matrix(0.866 -0.5001 0.5001 0.866 26.1136 342.4671)" class="st149" width="1.484" height="6.357"/>
		</g>
		<g>
			
				<rect x="625.233" y="93.282" transform="matrix(0.5 -0.8661 0.8661 0.5 229.4763 590.3607)" class="st149" width="1.484" height="6.357"/>
			
				<rect x="658.265" y="112.352" transform="matrix(0.5001 -0.866 0.866 0.5001 229.4202 628.4562)" class="st149" width="1.484" height="6.357"/>
		</g>
		<g>
			<rect x="620.241" y="105.254" class="st149" width="6.357" height="1.483"/>
			<rect x="658.383" y="105.254" class="st149" width="6.357" height="1.483"/>
		</g>
		<g>
			
				<rect x="622.796" y="114.789" transform="matrix(0.8661 -0.4999 0.4999 0.8661 26.0807 328.4133)" class="st149" width="6.357" height="1.484"/>
			
				<rect x="655.828" y="95.718" transform="matrix(0.8661 -0.4999 0.4999 0.8661 40.0387 342.3723)" class="st149" width="6.357" height="1.484"/>
		</g>
		<g>
			
				<rect x="629.777" y="121.769" transform="matrix(0.4999 -0.8661 0.8661 0.4999 210.4223 609.4479)" class="st149" width="6.357" height="1.484"/>
			
				<rect x="648.847" y="88.738" transform="matrix(0.4999 -0.8661 0.8661 0.4999 248.5795 609.4562)" class="st149" width="6.357" height="1.484"/>
		</g>
	</g>
	<path class="st149" d="M309.713,50.156h-1.483c0-5.725-4.658-10.383-10.383-10.383V38.29c5.725,0,10.383-4.658,10.383-10.383h1.483
		c0,5.725,4.658,10.383,10.383,10.383v1.483C314.371,39.773,309.713,44.431,309.713,50.156z M301.978,39.032
		c3.225,1.202,5.792,3.768,6.993,6.993c1.202-3.225,3.768-5.792,6.993-6.993c-3.225-1.202-5.792-3.768-6.993-6.993
		C307.77,35.263,305.203,37.83,301.978,39.032z"/>
	<rect x="340.495" y="129.68" class="st20" width="1.273" height="32.95"/>
</g>
<g id="Layer_2">
</g>
<g id="Layer_1">
</g>
<g id="specctr">
	<g id="Dimensions">
	</g>
	<g id="Text_Properties">
	</g>
</g>
</svg>
