<svg xmlns="http://www.w3.org/2000/svg" viewBox="0 0 64 64"><defs><style>.cls-1{fill:#cee8fa;}.cls-2,.cls-3,.cls-7{fill:none;}.cls-2,.cls-3,.cls-4,.cls-5{stroke:#4c5c68;}.cls-2,.cls-3,.cls-4,.cls-5,.cls-7{stroke-linecap:round;stroke-linejoin:round;}.cls-3{stroke-width:1.03px;}.cls-4{fill:#f9ca38;}.cls-5{fill:#fff;}.cls-6{fill:#286090;}.cls-7{stroke:#cee8fa;}</style></defs><title>service-request-def</title><g id="Layer_1" data-name="Layer 1"><path id="_Rectangle_" data-name="&lt;Rectangle&gt;" class="cls-1" d="M15.47,13.21h.08A2.48,2.48,0,0,1,18,15.68V55.24a.78.78,0,0,1-.78.78H14a1,1,0,0,1-1-1V15.68a2.48,2.48,0,0,1,2.48-2.48Z"/><line id="_Path_" data-name="&lt;Path&gt;" class="cls-2" x1="18.02" y1="26.31" x2="18.02" y2="56.02"/><path id="_Path_2" data-name="&lt;Path&gt;" class="cls-2" d="M13.07,53.65V15.59a2.48,2.48,0,0,1,2.48-2.48h0A2.48,2.48,0,0,1,18,15.59v4.56"/><line id="_Path_3" data-name="&lt;Path&gt;" class="cls-3" x1="13.03" y1="55.73" x2="13.03" y2="16.96"/><path id="_Path_4" data-name="&lt;Path&gt;" class="cls-2" d="M15.9,13.12H41.74a4.07,4.07,0,0,1,4.07,4.07V52.39A3.77,3.77,0,0,1,42,56.17H12"/><path id="_Path_5" data-name="&lt;Path&gt;" class="cls-2" d="M13.06,39.73v14.6a2,2,0,0,1-2,2h-.49A2.14,2.14,0,0,1,8.4,54.2V35.06h2.25"/><line id="_Path_6" data-name="&lt;Path&gt;" class="cls-2" x1="22.23" y1="19.61" x2="31.75" y2="19.61"/><line id="_Path_7" data-name="&lt;Path&gt;" class="cls-2" x1="22.23" y1="36.59" x2="42.13" y2="36.59"/><line id="_Path_8" data-name="&lt;Path&gt;" class="cls-2" x1="22.23" y1="40.05" x2="42.13" y2="40.05"/><line id="_Path_9" data-name="&lt;Path&gt;" class="cls-2" x1="22.23" y1="43.51" x2="42.13" y2="43.51"/><line id="_Path_10" data-name="&lt;Path&gt;" class="cls-2" x1="22.23" y1="46.97" x2="42.13" y2="46.97"/><line id="_Path_11" data-name="&lt;Path&gt;" class="cls-2" x1="22.23" y1="50.43" x2="32.61" y2="50.43"/><line id="_Path_12" data-name="&lt;Path&gt;" class="cls-2" x1="22.23" y1="23.07" x2="29.37" y2="23.07"/><line id="_Path_13" data-name="&lt;Path&gt;" class="cls-2" x1="31.1" y1="23.07" x2="42.34" y2="23.07"/><rect id="_Rectangle_2" data-name="&lt;Rectangle&gt;" class="cls-4" x="21.79" y="26.53" width="20.55" height="6.49"/><rect id="_Rectangle_3" data-name="&lt;Rectangle&gt;" class="cls-5" x="49.61" y="18.38" width="5.82" height="35.88" transform="translate(105.04 72.64) rotate(180)"/><rect id="_Rectangle_4" data-name="&lt;Rectangle&gt;" class="cls-6" x="50.03" y="18.38" width="4.97" height="14.61" transform="translate(105.04 51.36) rotate(180)"/><polygon id="_Path_14" data-name="&lt;Path&gt;" class="cls-5" points="52.88 13.01 55.44 18.13 49.62 18.13 52.88 13.01"/><rect id="_Rectangle_5" data-name="&lt;Rectangle&gt;" class="cls-4" x="51.09" y="54.28" width="2.85" height="2.69" transform="translate(105.04 111.26) rotate(180)"/><line id="_Path_15" data-name="&lt;Path&gt;" class="cls-2" x1="52.55" y1="54.02" x2="52.55" y2="40.72"/><line id="_Path_16" data-name="&lt;Path&gt;" class="cls-7" x1="53.59" y1="28.83" x2="51.69" y2="28.83"/><line id="_Path_17" data-name="&lt;Path&gt;" class="cls-7" x1="53.59" y1="26.81" x2="51.69" y2="26.81"/><line id="_Path_18" data-name="&lt;Path&gt;" class="cls-7" x1="53.59" y1="24.75" x2="51.69" y2="24.75"/></g></svg>