<?xml version="1.0" encoding="utf-8"?>
<!-- Generator: Adobe Illustrator 16.0.0, SVG Export Plug-In . SVG Version: 6.00 Build 0)  -->
<!DOCTYPE svg PUBLIC "-//W3C//DTD SVG 1.1//EN" "http://www.w3.org/Graphics/SVG/1.1/DTD/svg11.dtd">
<svg version="1.1" id="Layer_1" xmlns="http://www.w3.org/2000/svg" xmlns:xlink="http://www.w3.org/1999/xlink" x="0px" y="0px"
	 width="216px" height="216px" viewBox="0 0 216 216" enable-background="new 0 0 216 216" xml:space="preserve">
<g>
	<path fill="#171C28" d="M106.987,153.9c0-4.727-4.05-8.775-8.775-8.775H60.075v4.389h38.137c2.363,0,4.388,2.023,4.388,4.387
		s-2.025,4.388-4.388,4.388H60.075v4.388h38.137C102.938,162.675,106.987,158.625,106.987,153.9z"/>
	<path fill="#171C28" d="M100.575,140.736c0-4.725-4.05-8.773-8.775-8.773H53.325v4.387h38.137c2.363,0,4.388,2.025,4.388,4.389
		s-1.688,4.388-4.05,4.388H56.7v4.388h35.1C96.525,149.514,100.575,145.463,100.575,140.736z"/>
	<path fill="#171C28" d="M100.575,167.063c0-4.725-4.05-8.774-8.775-8.774H56.7v4.388h35.1c2.363,0,4.388,2.025,4.388,4.389
		c0,2.362-2.025,4.388-4.388,4.388H56.7v4.388h35.1C96.525,175.838,100.575,171.787,100.575,167.063z"/>
	<path fill="#171C28" d="M75.263,171.111H56.7v4.389h18.563c4.725,0,7.425,1.688,7.425,4.389c0,2.361-2.025,4.387-4.388,4.387
		H20.925l-5.4-8.101V141.75l24.638-18.563h22.275c2.362,0,4.388,2.024,4.388,4.388c0,2.362-2.025,4.388-4.388,4.388H40.5v4.387
		h21.938c4.725,0,8.775-4.05,8.775-8.773c0-4.727-4.05-8.775-8.775-8.775h-22.95c-0.337,0-1.012,0-1.35,0.338l-26.325,19.575
		c-0.675,0.337-1.013,1.013-1.013,1.688v36.111c0,0.338,0,1.014,0.338,1.351l6.412,9.788c0.338,0.675,1.013,1.012,2.025,1.012
		h59.063c4.725,0,8.775-4.051,8.775-8.773C87.413,175.838,84.038,171.111,75.263,171.111z"/>
	<path fill="#171C28" d="M71.888,205.2h39.487c8.438,0,15.188-6.75,15.188-15.188v-72.226c0-8.438-6.75-15.187-15.188-15.187H71.888
		c-8.438,0-15.188,6.75-15.188,15.187v2.362h4.387v-2.362c0-6.074,4.725-10.8,10.8-10.8h39.487c6.075,0,10.8,4.726,10.8,10.8v71.888
		c0,6.075-4.725,10.801-10.8,10.801H71.888c-6.075,0-10.8-4.726-10.8-10.801v-2.361H56.7v2.361
		C56.7,198.45,63.45,205.2,71.888,205.2z"/>
	<path fill="#4C5C68" d="M170.1,10.8c-12.148,0-21.938,9.788-21.938,21.938c0,12.15,9.788,21.938,21.938,21.938
		c12.15,0,21.938-9.787,21.938-21.938C192.037,20.587,182.25,10.8,170.1,10.8z M170.1,49.95c-9.449,0-17.211-7.763-17.211-17.213
		c0-9.45,7.762-17.212,17.211-17.212c9.45,0,17.213,7.763,17.213,17.212C187.313,42.188,179.889,49.95,170.1,49.95z"/>
	<path fill="#171C28" d="M183.264,49.95h-26.326C144.788,49.95,135,59.737,135,71.888v39.487c0,1.35,1.014,2.361,2.361,2.361h65.477
		c1.35,0,2.362-1.012,2.362-2.361V71.888C205.2,60.075,195.412,49.95,183.264,49.95z M200.813,109.014h-61.088V71.888
		c0-9.45,7.764-17.213,17.213-17.213h26.326c9.449,0,17.211,7.763,17.211,17.213v37.125H200.813z"/>
	<rect x="184.275" y="82.688" fill="#171C28" width="4.387" height="27.337"/>
	<rect x="151.537" y="82.688" fill="#171C28" width="4.388" height="27.337"/>
	<rect x="168.075" y="125.213" fill="#171C28" width="4.388" height="24.301"/>
	<path fill="#171C28" d="M170.1,10.8c-12.148,0-21.938,9.788-21.938,21.938c0,12.15,9.788,21.938,21.938,21.938
		c12.15,0,21.938-9.787,21.938-21.938C192.037,20.587,182.25,10.8,170.1,10.8z M170.1,49.95c-9.449,0-17.211-7.763-17.211-17.213
		c0-9.45,7.762-17.212,17.211-17.212c9.45,0,17.213,7.763,17.213,17.212C187.313,42.188,179.889,49.95,170.1,49.95z"/>
	<rect x="105.638" y="37.125" fill="#171C28" width="30.711" height="4.388"/>
	<rect x="95.85" y="105.638" fill="#171C28" width="4.387" height="34.086"/>
	<rect x="95.85" y="168.075" fill="#171C28" width="4.387" height="34.087"/>
	<path fill="#171C28" d="M162.675,135l7.425-7.425l7.426,7.425l3.037-3.037l-9.111-9.113c-1.014-1.012-2.362-1.012-3.038,0
		l-9.112,9.113L162.675,135z"/>
	<rect x="125.213" y="174.486" fill="#171C28" width="17.551" height="4.389"/>
	<path fill="#171C28" d="M139.05,40.837c1.013-1.012,1.013-2.362,0-3.038l-9.112-9.112l-3.037,3.038l7.426,7.425l-7.426,7.425
		l3.037,3.037L139.05,40.837z"/>
	<path fill="#171C28" d="M44.888,37.125H26.325c-1.35,0-2.363,1.013-2.363,2.362v90.789h4.388V41.513h16.2v-4.388H44.888z"/>
	<g id="XMLID_1339_">
		
			<ellipse id="XMLID_1364_" fill="#FFFFFF" stroke="#171C28" stroke-width="3" stroke-linecap="round" stroke-linejoin="round" stroke-miterlimit="10" cx="72.225" cy="39.15" rx="26.663" ry="26.325"/>
		<ellipse id="XMLID_1356_" fill="#0D3178" cx="72.225" cy="39.15" rx="20.925" ry="20.587"/>
		<g>
			<path fill="#FFFFFF" d="M63.786,31.574h1.935V38.8h0.066c0.4-0.578,0.8-1.112,1.178-1.601l4.58-5.625h2.401l-5.424,6.358
				l5.847,8.626h-2.29L67.144,39.2l-1.423,1.645v5.714h-1.935V31.574z"/>
			<path fill="#FFFFFF" d="M75.501,44.558c0.578,0.378,1.601,0.778,2.579,0.778c1.423,0,2.09-0.711,2.09-1.601
				c0-0.934-0.556-1.445-2.001-1.979c-1.934-0.689-2.846-1.756-2.846-3.046c0-1.734,1.401-3.157,3.713-3.157
				c1.089,0,2.045,0.311,2.646,0.667l-0.489,1.423c-0.422-0.267-1.2-0.623-2.201-0.623c-1.156,0-1.801,0.667-1.801,1.467
				c0,0.889,0.645,1.29,2.045,1.823c1.867,0.711,2.823,1.645,2.823,3.246c0,1.89-1.467,3.224-4.024,3.224
				c-1.178,0-2.268-0.289-3.023-0.733L75.501,44.558z"/>
		</g>
	</g>
	<g id="XMLID_1_">
		
			<ellipse id="XMLID_3_" fill="#FFFFFF" stroke="#171C28" stroke-width="3" stroke-linecap="round" stroke-linejoin="round" stroke-miterlimit="10" cx="169.73" cy="174.755" rx="26.662" ry="26.325"/>
		<ellipse id="XMLID_2_" fill="#0D3178" cx="169.73" cy="174.755" rx="20.926" ry="20.587"/>
		<g>
			<path fill="#FFFFFF" d="M161.292,167.18h1.935v7.227h0.066c0.4-0.578,0.801-1.112,1.178-1.602l4.58-5.625h2.401l-5.425,6.358
				l5.848,8.626h-2.29l-4.937-7.359l-1.422,1.646v5.714h-1.936L161.292,167.18L161.292,167.18z"/>
			<path fill="#FFFFFF" d="M173.007,180.163c0.578,0.378,1.601,0.778,2.579,0.778c1.423,0,2.09-0.711,2.09-1.602
				c0-0.936-0.556-1.445-2.001-1.979c-1.935-0.688-2.846-1.756-2.846-3.045c0-1.734,1.401-3.157,3.713-3.157
				c1.089,0,2.046,0.312,2.646,0.667l-0.488,1.423c-0.424-0.267-1.2-0.622-2.2-0.622c-1.156,0-1.801,0.666-1.801,1.467
				c0,0.889,0.645,1.289,2.045,1.823c1.866,0.712,2.823,1.646,2.823,3.245c0,1.891-1.469,3.225-4.024,3.225
				c-1.179,0-2.269-0.289-3.022-0.734L173.007,180.163z"/>
		</g>
	</g>
</g>
</svg>
