<?xml version="1.0" encoding="utf-8"?>
<!-- Generator: Adobe Illustrator 16.0.0, SVG Export Plug-In . SVG Version: 6.00 Build 0)  -->
<!DOCTYPE svg PUBLIC "-//W3C//DTD SVG 1.1//EN" "http://www.w3.org/Graphics/SVG/1.1/DTD/svg11.dtd">
<svg version="1.1" id="Layer_1" xmlns="http://www.w3.org/2000/svg" xmlns:xlink="http://www.w3.org/1999/xlink" x="0px" y="0px"
	 width="216px" height="216px" viewBox="0 0 216 216" enable-background="new 0 0 216 216" xml:space="preserve">
<polyline fill="none" stroke="#171C28" stroke-width="3" stroke-linecap="round" stroke-linejoin="round" stroke-miterlimit="10" stroke-dasharray="0,5" points="
	55.688,95.175 55.688,35.1 120.15,35.1 "/>
<polyline fill="none" stroke="#171C28" stroke-width="3" stroke-linecap="round" stroke-linejoin="round" stroke-miterlimit="10" stroke-dasharray="0,5" points="
	117.787,181.575 180.9,181.575 180.9,122.85 "/>
<g>
	
		<path id="XMLID_1924_" fill="#FFFFFF" stroke="#171C28" stroke-width="3" stroke-linecap="round" stroke-linejoin="round" stroke-miterlimit="10" d="
		M184.95,114.075h-53.325c-5.063,0-9.45-4.388-9.45-9.45V79.313v-12.15c0-11.813,9.45-21.263,21.263-21.263h18.9
		c12.487,0,22.612,10.125,22.612,22.613V114.075z"/>
	
		<rect id="XMLID_1923_" x="143.775" y="40.163" fill="#FFFFFF" stroke="#171C28" stroke-width="3" stroke-linecap="round" stroke-linejoin="round" stroke-miterlimit="10" width="17.55" height="5.737"/>
	
		<path id="XMLID_1922_" fill="#FFFFFF" stroke="#171C28" stroke-width="3" stroke-linecap="round" stroke-linejoin="round" stroke-miterlimit="10" d="
		M144.111,40.163l-4.049-10.125c-0.338-1.013,0-2.025,1.013-2.7c2.362-1.35,6.411-2.7,11.475,0.675c0,0,7.089-3.375,11.476-0.675
		c1.013,0.675,1.351,1.688,1.013,2.7l-4.05,10.125H144.111z"/>
	
		<path id="XMLID_1921_" fill="#FFFFFF" stroke="#171C28" stroke-width="3" stroke-linecap="round" stroke-linejoin="round" stroke-miterlimit="10" d="
		M137.361,37.8c0,0,1.352,3.713,5.4,3.713"/>
	
		<path id="XMLID_1920_" fill="#FFFFFF" stroke="#171C28" stroke-width="3" stroke-linecap="round" stroke-linejoin="round" stroke-miterlimit="10" d="
		M160.65,114.075h-29.025c-5.063,0-9.45-4.388-9.45-9.45"/>
	
		<path id="XMLID_1919_" fill="#FFFFFF" stroke="#171C28" stroke-width="3" stroke-linecap="round" stroke-linejoin="round" stroke-miterlimit="10" d="
		M122.175,83.362V67.5c0-11.813,9.45-21.263,21.263-21.263h18.9c12.487,0,22.612,10.125,22.612,22.613v45.562h-14.513"/>
	
		<path id="XMLID_1918_" fill="#FFFFFF" stroke="#171C28" stroke-width="3" stroke-linecap="round" stroke-linejoin="round" stroke-miterlimit="10" d="
		M167.4,37.8c0,0-1.352,3.713-5.4,3.713"/>
	
		<rect id="XMLID_1917_" x="115.425" y="87.413" fill="#FFFFFF" stroke="#171C28" stroke-width="3" stroke-linecap="round" stroke-linejoin="round" stroke-miterlimit="10" width="18.563" height="8.438"/>
	
		<rect id="XMLID_1916_" x="115.425" y="95.85" fill="#FFFFFF" stroke="#171C28" stroke-width="3" stroke-linecap="round" stroke-linejoin="round" stroke-miterlimit="10" width="18.563" height="6.75"/>
	
		<rect id="XMLID_1915_" x="115.425" y="102.6" fill="#FFFFFF" stroke="#171C28" stroke-width="3" stroke-linecap="round" stroke-linejoin="round" stroke-miterlimit="10" width="18.563" height="6.75"/>
	
		<rect id="XMLID_1914_" x="115.425" y="109.35" fill="#FFFFFF" stroke="#171C28" stroke-width="3" stroke-linecap="round" stroke-linejoin="round" stroke-miterlimit="10" width="18.563" height="6.75"/>
	
		<ellipse id="XMLID_1913_" fill="#FFFFFF" stroke="#171C28" stroke-width="3" stroke-linecap="round" stroke-linejoin="round" stroke-miterlimit="10" cx="153.225" cy="72.225" rx="19.238" ry="19.238"/>
	
		<rect id="XMLID_1912_" x="181.236" y="71.212" fill="#FFFFFF" stroke="#171C28" stroke-width="3" stroke-linecap="round" stroke-linejoin="round" stroke-miterlimit="10" width="15.863" height="7.763"/>
	
		<rect id="XMLID_1911_" x="181.236" y="78.975" fill="#FFFFFF" stroke="#171C28" stroke-width="3" stroke-linecap="round" stroke-linejoin="round" stroke-miterlimit="10" width="15.863" height="7.762"/>
	
		<rect id="XMLID_1910_" x="181.236" y="87.075" fill="#FFFFFF" stroke="#171C28" stroke-width="3" stroke-linecap="round" stroke-linejoin="round" stroke-miterlimit="10" width="15.863" height="7.762"/>
	
		<rect id="XMLID_1909_" x="181.236" y="94.837" fill="#FFFFFF" stroke="#171C28" stroke-width="3" stroke-linecap="round" stroke-linejoin="round" stroke-miterlimit="10" width="15.863" height="7.763"/>
	
		<rect id="XMLID_1908_" x="181.236" y="100.575" fill="#FFFFFF" stroke="#171C28" stroke-width="3" stroke-linecap="round" stroke-linejoin="round" stroke-miterlimit="10" width="15.863" height="7.762"/>
	
		<rect id="XMLID_1907_" x="181.236" y="108.337" fill="#FFFFFF" stroke="#171C28" stroke-width="3" stroke-linecap="round" stroke-linejoin="round" stroke-miterlimit="10" width="15.863" height="7.763"/>
	
		<rect id="XMLID_1906_" x="165.375" y="100.575" fill="#FFFFFF" stroke="#171C28" stroke-width="3" stroke-linecap="round" stroke-linejoin="round" stroke-miterlimit="10" width="15.861" height="7.762"/>
	
		<rect id="XMLID_1905_" x="165.375" y="108.337" fill="#FFFFFF" stroke="#171C28" stroke-width="3" stroke-linecap="round" stroke-linejoin="round" stroke-miterlimit="10" width="15.861" height="7.763"/>
	<ellipse id="XMLID_1904_" fill="#0D3178" cx="153.225" cy="72.225" rx="15.188" ry="15.188"/>
	<g>
		<path fill="#FFFFFF" d="M149.077,67.99h1.044v3.898h0.036c0.216-0.312,0.432-0.6,0.636-0.864l2.471-3.034h1.295l-2.927,3.43
			l3.154,4.653h-1.235l-2.662-3.97l-0.768,0.887v3.083h-1.044V67.99L149.077,67.99z"/>
		<path fill="#FFFFFF" d="M155.4,74.994c0.313,0.204,0.863,0.42,1.393,0.42c0.768,0,1.127-0.384,1.127-0.863
			c0-0.504-0.3-0.78-1.079-1.068c-1.044-0.372-1.534-0.947-1.534-1.643c0-0.935,0.756-1.703,2.002-1.703
			c0.588,0,1.104,0.167,1.428,0.359l-0.264,0.768c-0.229-0.144-0.647-0.335-1.188-0.335c-0.623,0-0.972,0.36-0.972,0.792
			c0,0.479,0.349,0.695,1.104,0.983c1.008,0.384,1.523,0.888,1.523,1.751c0,1.02-0.791,1.739-2.172,1.739
			c-0.636,0-1.223-0.156-1.631-0.396L155.4,74.994z"/>
	</g>
</g>
<path fill="#171C28" d="M46.913,145.463H20.587c-1.35,0-2.362,1.012-2.362,2.362v39.487c0,1.35,1.012,2.361,2.362,2.361h26.325
	c1.35,0,2.362-1.013,2.362-2.361v-39.487C48.938,146.475,47.925,145.463,46.913,145.463z M44.55,184.611h-21.6V149.85h21.6V184.611z
	"/>
<path fill="#171C28" d="M86.063,145.463c-1.35,0-2.362,1.012-2.362,2.362v39.487c0,1.35,1.012,2.361,2.362,2.361h26.326
	c1.35,0,2.361-1.013,2.361-2.361v-39.487c0-1.351-1.014-2.362-2.361-2.362H86.063z M110.025,184.611H88.425V149.85h21.601V184.611
	L110.025,184.611z"/>
<rect x="96.862" y="158.625" fill="#171C28" width="4.388" height="11.139"/>
<rect x="31.388" y="161.662" fill="#171C28" width="4.387" height="11.138"/>
<path fill="#171C28" d="M86.063,102.938h-39.15c-1.35,0-2.363,1.013-2.363,2.362v82.013c0,1.351,1.013,2.362,2.363,2.362H86.4
	c1.35,0,2.363-1.013,2.363-2.362v-82.35C88.425,103.95,87.413,102.938,86.063,102.938z M84.038,184.611h-35.1v-77.286H83.7v77.286
	H84.038z"/>
<path fill="#171C28" d="M60.075,161.662c-1.35,0-2.363,1.013-2.363,2.363v22.949c0,1.351,1.013,2.362,2.363,2.362h13.162
	c1.35,0,2.363-1.013,2.363-2.362v-22.949c0-1.352-1.013-2.363-2.363-2.363H60.075z M70.875,184.611h-8.438V166.05h8.438V184.611z"/>
<g>
	<g>
		<rect x="56.7" y="118.125" fill="#171C28" width="6.412" height="13.162"/>
		<path fill="#FFFFFF" d="M64.125,132.3h-8.438v-15.188h8.438V132.3z M57.712,130.275H62.1v-11.139h-4.388V130.275z"/>
	</g>
</g>
<g>
	<g>
		<rect x="69.862" y="118.125" fill="#171C28" width="6.413" height="13.162"/>
		<path fill="#FFFFFF" d="M77.288,132.3H68.85v-15.188h8.438V132.3z M70.875,130.275h4.388v-11.139h-4.388V130.275z"/>
	</g>
</g>
<g>
	<g>
		<rect x="56.7" y="137.7" fill="#171C28" width="6.412" height="13.161"/>
		<path fill="#FFFFFF" d="M64.125,151.875h-8.438v-15.188h8.438V151.875z M57.712,149.85H62.1v-11.137h-4.388V149.85z"/>
	</g>
</g>
<g>
	<g>
		<rect x="69.862" y="137.7" fill="#171C28" width="6.413" height="13.161"/>
		<path fill="#FFFFFF" d="M77.288,151.875H68.85v-15.188h8.438V151.875z M70.875,149.85h4.388v-11.137h-4.388V149.85z"/>
	</g>
</g>
</svg>
