<svg xmlns="http://www.w3.org/2000/svg" viewBox="0 0 70 70" enable-background="new 0 0 70 70"><path d="M27 5.9zm24.9.8l-.5-.2c-.9-.4-1.8-.8-2.7-1.1-1.2-.3-2.3-.6-3.5-.8-4.9-.8-9.9-.7-14.8.4-1 .2-2.1.5-3.1.9 1.1-.3 2.3-.6 3.5-.8 6.8-1.1 14.7-1 21.1 1.6zm-19.9-2.3c-1.1.2-2.2.4-3.3.8-1.1.3-2.2.7-3.3 1.1.9-.4 1.9-.7 2.8-1 1-.3 1.9-.5 2.9-.7 4.4-.8 8.9-.9 13.4-.2-4.1-.8-8.3-1-12.5 0zm35.1 22.5c-1-6-3.7-11-7.5-14.8l-.3-.3c.8.9 1.5 2 2.1 3.1 2.7 4.1 4.2 9.1 5 14.1.2 1.1.3 2.3.3 3.4s-.1 2.3-.3 3.5c-.2-1.3-.4-2.6-.6-3.8-1-4.8-1.8-9.3-3.4-14.1-5-13.7-22.6-15.3-34.6-11-1.2.4-2.4 1-3.5 1.6-5.7 3-10.3 7.9-13.1 13.8-.6 1.2-1.1 2.4-1.5 3.6-2.6 5.7-3.1 12.2-1.7 18.2.3 1.2.7 2.3 1.1 3.5 5.6 14 22.6 19.5 36.9 17.9 5.4-2 10.3-4.9 14-8.5.9-.8 1.6-1.7 2.3-2.7 1.4-1.9 2.5-4.1 3.3-6.7.5-1.2.8-2.3 1-3.3 0-1.1.1-2.1.2-3.2l.3-3.3c.9-3.6.6-7.2 0-11zm-56.6 26.3l-.3-.4c1.2 4 1.8 8.2 4.9 10.8 6.6 5 16 5.8 25 3.7-11.3-.5-22.3-5.2-29.6-14.1zm50.5-39c-.6-1-1.4-2-2.2-2.9l-1.5-1.3c-.6-.6-1.3-1.1-2-1.5-.7-.4-1.5-.8-2.3-1.1 3.3 1.5 5.9 3.9 8 6.8zm-54.6 14.1c.3-1.3.8-2.5 1.2-3.7 3.9-9.8 12.6-17.8 22.4-20.5 1.4-.4 2.8-.6 4.2-.8 2.6-.3 5.2-.3 7.7.1-12.9-3.9-27 1.1-32.6 13.8-.7 1.1-1.4 2.3-2 3.5-.6 1.2-1.1 2.5-1.6 3.8-.4 1-.8 2.1-1.1 3.2-.3 1.2-.6 2.5-.7 3.7-.3 3.6.2 7.1 1.4 10.5-.9-4.4-.6-9 1.1-13.6z" fill="#00D0FF"/><path d="M27.2 25.9c-.8 0-1.5-.1-2-.2s-.9-.2-1.2-.4c-.3-.2-.5-.4-.6-.7-.1-.3-.2-.6-.2-1.1v-.5c0-.2 0-.5.1-.9 0-.4.1-.9.1-1.6 0-.6.1-1.4.2-2.4.1-1.2.2-2.2.2-2.9.1-.7.1-1.2.1-1.6 0-.4 0-.7.1-.8v-1.2l.1-.2s.1-.1.2-.1c.8-.1 1.5-.1 2-.1h1.5c1 0 1.9.1 2.6.3.7.2 1.3.4 1.8.7.5.3.8.7 1 1.2.2.5.3 1 .3 1.6 0 .3 0 .7-.1 1l-.3 1c-.2.3-.4.6-.7.8-.3.2-.6.4-1 .5.8.2 1.3.6 1.7 1.2.3.6.5 1.2.5 2 0 .6-.1 1.2-.3 1.8-.2.5-.6 1-1.1 1.4-.5.4-1.2.7-2 1-.7.1-1.8.2-3 .2zm1.2-6.3h-.5c-.2 0-.4.1-.7.1l-.2 3.3c.5.1.9.2 1.3.2s.8-.1 1-.2c.3-.1.5-.3.6-.5l.3-.6.1-.6c0-.5-.1-.9-.4-1.3-.4-.2-.9-.4-1.5-.4zm-.9-5.5l-.1 1.2-.1 1.5c.4.1.8.2 1.2.2.4 0 .7 0 1-.1.2-.1.4-.2.6-.4.1-.1.2-.3.3-.5l.1-.5c0-.4-.1-.8-.4-1.1-.3-.3-.8-.5-1.4-.5h-.5c-.3.1-.5.2-.7.2zm10.1 11.6c-.8 0-1.3-.1-1.6-.4-.3-.3-.5-.7-.5-1.3 0-.3 0-.7.1-1.4 0-.7.1-1.4.2-2.2.1-.8.1-1.7.2-2.7.1-.9.1-1.8.2-2.6s.1-1.5.2-2.2c0-.6.1-1 .1-1.3 0-.2.1-.3.3-.3h1.1c.8 0 1.4.2 1.7.5.3.4.4.9.4 1.6v.6c0 .4-.1.8-.1 1.4 0 .6-.1 1.2-.1 1.9l-.1 2.1-.1 2.1c0 .7-.1 1.3-.1 1.9 0 .6-.1 1-.1 1.4 0 .4 0 .6-.1.7 0 .1 0 .2-.1.2 0 0-.1.1-.2.1h-1.4zm13.2 0c-.7 0-1.2-.1-1.5-.4-.3-.3-.5-.7-.5-1.1-.1.5-.5.9-.9 1.2-.5.3-1.2.5-2.1.5-.5 0-1-.1-1.5-.3-.5-.2-.9-.6-1.3-1-.4-.5-.7-1.1-.9-1.9-.2-.8-.4-1.8-.4-3 0-.5 0-1 .1-1.6l.3-1.8c.2-.6.4-1.2.7-1.8.3-.6.7-1.1 1.3-1.6.5-.5 1.2-.9 1.9-1.1.8-.3 1.7-.4 2.7-.4.7 0 1.3.1 1.9.2.5.1 1 .4 1.4.6.4.3.7.6.9 1 .2.4.3.8.3 1.3 0 .8-.3 1.4-.8 1.8-.5.4-1.2.6-2.2.6-.3 0-.5 0-.5-.1-.1 0-.1-.1-.1-.3 0-.2 0-.5-.1-.7 0-.2 0-.5-.1-.7-.1-.2-.2-.4-.3-.5-.1-.1-.4-.2-.7-.2-.7 0-1.2.2-1.6.6-.4.4-.7.8-.9 1.4-.2.5-.3 1.1-.4 1.7-.1.6-.1 1.1-.1 1.4 0 .6 0 1.2.1 1.6.1.4.2.8.4 1.1.2.3.3.5.6.6.2.1.5.2.7.2.5 0 .9-.1 1.3-.3.4-.2.6-.6.6-1.2l.1-1.1c0-.4.1-.7.2-1 .1-.2.2-.4.5-.4h1.1c.3 0 .6 0 .8.1.2.1.4.2.5.4.1.2.2.4.2.7 0 .3.1.6.1 1v1.1c0 .4 0 .9-.1 1.4 0 .5-.1.9-.1 1.3s-.1.7-.1.8c0 .1-.1.2-.1.2s-.1.1-.2.1h-1.2zM27 28.8c.5 0 1 .1 1.4.2.4.2.7.4 1 .7.2.3.4.7.5 1.1.1.4.2.9.2 1.4 0 .3 0 .6-.1 1 0 .4-.1.7-.2 1.1-.1.4-.3.7-.4 1-.2.3-.4.6-.7.9-.3.3-.7.5-1.1.6-.4.2-.9.2-1.5.2s-1.1-.1-1.5-.3c-.4-.2-.7-.4-1-.8-.2-.3-.4-.7-.5-1.1-.1-.4-.2-.9-.2-1.4 0-.6.1-1.2.2-1.7.1-.6.4-1.1.7-1.5.3-.4.7-.8 1.3-1.1.4-.1 1.1-.3 1.9-.3zm-.3 1.8c-.3 0-.5 0-.7.1-.2.1-.4.2-.5.4l-.3.5-.2.6-.1.6v.5c0 .7.1 1.2.3 1.5.2.3.6.5 1 .5.3 0 .6-.1.8-.3.2-.2.4-.5.5-.8.1-.3.2-.6.3-1 0-.3.1-.6.1-.8 0-.5-.1-1-.3-1.3-.1-.3-.4-.5-.9-.5zm6.4 3.1l-.2 3.1v.1h-.7c-.4 0-.7-.1-.9-.2-.2-.2-.3-.4-.3-.7v-.8l.1-1.2.1-1.5.1-1.5c0-.5.1-.9.1-1.2v-.7c0-.1.1-.2.2-.2h4.1l.1.1v.7c0 .2-.1.4-.2.5-.1.1-.3.2-.7.2h-1.6l-.1 1.6h1.7l.1.1v.7c0 .2-.1.4-.2.5-.1.1-.3.2-.7.2h-1zm5.2 0l-.2 3.1v.1h-.7c-.4 0-.7-.1-.9-.2-.2-.2-.3-.4-.3-.7v-.8l.1-1.2.1-1.5.1-1.5c0-.5.1-.9.1-1.2v-.7c0-.1.1-.2.2-.2h4.1l.1.1v.7c0 .2-.1.4-.2.5-.1.1-.3.2-.7.2h-1.6l-.1 1.6h1.7l.1.1v.7c0 .2-.1.4-.2.5-.1.1-.3.2-.7.2h-1zm4.3 3.3c-.4 0-.7-.1-.9-.2-.2-.2-.3-.4-.3-.7v-.8l.1-1.2.1-1.5.1-1.5c0-.5.1-.9.1-1.2v-.7c0-.1.1-.2.2-.2h4.1l.1.1v.7c0 .2-.1.4-.2.5-.1.1-.3.2-.7.2h-1.6l-.1 1.6h1.7l.1.1v.7c0 .2-.1.4-.2.5-.1.1-.3.2-.7.2h-1l-.1 1.7h2.6l.1.1v.7c0 .2-.1.4-.2.5-.1.1-.3.2-.7.2h-2.6zm5.6 0c-.4 0-.7-.1-.9-.3-.2-.2-.3-.4-.3-.7v-.5c0-.2 0-.5.1-.8 0-.3 0-.6.1-1 0-.3.1-.7.1-1.1.1-.8.1-1.4.1-1.8 0-.5 0-.8.1-1.1 0-.3 0-.6.1-.6 0-.1.1-.1.1-.1h2.5c.5 0 .9.1 1.2.2.3.1.6.3.8.5.2.2.4.5.5.8.1.3.2.7.2 1 0 .6-.1 1.1-.3 1.6-.2.5-.6.8-1.1 1l.9 1.4c.2.3.3.5.4.6.1.1.1.2.1.3 0 .1 0 .1-.1.2l-.3.3c-.1.1-.3.2-.4.2-.2.1-.4.1-.6.1-.2 0-.4-.1-.6-.2l-.5-.6-.4-.9c-.1-.3-.2-.7-.3-1.1-.3 0-.5 0-.7-.1 0 .3 0 .6-.1.9 0 .3 0 .6-.1.8v1h-.6zm1.9-6.5h-.7c0 .3 0 .6-.1.9 0 .4 0 .8-.1 1.2.3.1.5.1.7.1.2 0 .4 0 .6-.1.1-.1.3-.2.3-.3l.2-.4v-.4c0-.3-.1-.5-.2-.7-.1-.2-.4-.3-.7-.3zM26 59.2c-.5 0-.9 0-1.4-.1-.4-.1-.8-.2-1.2-.4-.3-.2-.6-.4-.8-.7-.2-.3-.3-.6-.3-.9 0-.5.2-.8.5-1.1.4-.3.9-.4 1.5-.4h.2s.1.1.1.2c0 .2.1.3.2.4.1.1.2.2.4.2.1.1.3.1.4.1h.4c.3 0 .6-.1.8-.2.2-.1.4-.3.6-.5l.3-.6c.1-.2.1-.4.1-.7 0-.2 0-.3-.1-.5 0-.2-.1-.3-.2-.4l-.3-.3c-.1-.1-.3-.1-.5-.1s-.4 0-.5.1c-.2.1-.3.3-.4.5 0 .2-.1.3-.3.3h-.9c-.3 0-.6 0-.8-.1-.2-.1-.4-.1-.5-.2-.1-.1-.2-.2-.2-.4s-.1-.3-.1-.6 0-.7.1-1.2l.2-1.6c.1-.6.1-1.1.2-1.6s.1-.9.2-1.1c0-.2.1-.3.3-.3h6.4c.1 0 .1 0 .2.1.1 0 .1.1.1.2l-.1 1c0 .3-.1.6-.3.8-.2.2-.5.3-1 .3h-3l-.3 2.7c.2-.1.4-.3.7-.3.3-.1.6-.1 1-.1.5 0 .9.1 1.3.2.4.2.7.4 1 .7.3.3.5.6.6 1 .1.4.2.8.2 1.3s-.1 1-.3 1.6c-.2.5-.5 1-.8 1.4-.4.4-.9.8-1.5 1-.6.2-1.3.3-2.2.3zm11.7-12.2c.7 0 1.4.1 1.9.3.5.2.9.6 1.3 1 .3.4.6 1 .7 1.6.2.6.2 1.3.2 2.2 0 .4 0 .9-.1 1.5l-.3 1.6c-.1.5-.3 1-.6 1.5s-.6.9-1 1.3-.9.7-1.4.9c-.6.2-1.2.3-2 .3s-1.5-.1-2-.4c-.5-.3-1-.7-1.3-1.1-.3-.5-.6-1-.7-1.7-.1-.6-.2-1.3-.2-2.1 0-.9.1-1.7.3-2.6.2-.8.5-1.6.9-2.2.4-.6 1-1.2 1.7-1.6.7-.3 1.6-.5 2.6-.5zm-.3 2.6c-.3 0-.6.1-.8.2-.2.1-.4.3-.6.6-.2.2-.3.5-.4.8-.1.3-.2.6-.2.9-.1.3-.1.6-.1.9v.8c0 1 .1 1.8.4 2.2.3.5.6.7 1.1.7.4 0 .7-.2 1-.5.3-.3.5-.7.6-1.2l.3-1.4c.1-.5.1-.9.1-1.3 0-.8-.1-1.5-.3-1.9-.3-.6-.7-.8-1.1-.8zm8.6-2.6c.8 0 1.3.2 1.7.6.3.4.5 1 .5 1.7 0 .3 0 .6-.1 1s-.2.7-.4 1c-.2.3-.5.6-.8.8-.4.2-.8.3-1.4.3-.4 0-.8-.1-1.1-.2-.3-.1-.5-.3-.7-.5-.2-.2-.3-.5-.4-.8-.1-.3-.1-.6-.1-.9 0-.4 0-.8.1-1.1.1-.4.3-.7.5-1 .2-.3.5-.5.9-.7.3-.1.7-.2 1.3-.2zm-.6 12.3c-.3 0-.4-.1-.5-.2-.1-.1-.1-.3-.1-.5 0-.1 0-.3.1-.4.1-.2.1-.3.3-.5.1-.2.3-.6.7-1.2.4-.6.8-1.4 1.4-2.3.6-.9 1.2-1.9 1.9-3.1.7-1.1 1.4-2.3 2.2-3.5.2-.2.3-.4.5-.4.1 0 .3-.1.5-.1.3 0 .5.1.6.2.1.1.1.3.1.5 0 .1 0 .3-.1.4l-.2.5c-.1.1-.2.3-.4.7-.2.3-.5.7-.8 1.2-.3.5-.7 1.1-1.1 1.7-.4.6-.8 1.3-1.3 2s-.9 1.5-1.4 2.3l-1.5 2.4c-.1.1-.2.2-.4.3h-.5zm.4-10.9c-.2 0-.4.1-.5.2l-.3.4c-.1.2-.1.3-.1.5v.5c0 .7.2 1.1.7 1.1.2 0 .3-.1.4-.2.1-.1.2-.3.3-.5.1-.2.1-.4.1-.6v-.5c0-.3 0-.5-.1-.7-.1-.1-.3-.2-.5-.2zm6.9 5.3c.8 0 1.3.2 1.7.6.3.4.5 1 .5 1.7 0 .3 0 .6-.1 1s-.2.7-.4 1c-.2.3-.5.6-.8.8-.4.2-.8.3-1.4.3-.4 0-.8-.1-1.1-.2-.3-.1-.5-.3-.7-.5-.2-.2-.3-.5-.4-.8-.1-.3-.1-.6-.1-.9 0-.4 0-.8.1-1.1.1-.4.3-.7.5-1 .2-.3.5-.5.9-.7.3-.1.8-.2 1.3-.2zm-.2 1.5c-.2 0-.4.1-.5.2l-.3.4c-.1.2-.1.3-.1.5v.5c0 .7.2 1.1.7 1.1.2 0 .3-.1.4-.2.1-.1.2-.3.3-.5.1-.2.1-.4.1-.6v-.5c0-.3 0-.5-.1-.7-.1-.2-.3-.2-.5-.2zM32.7 39.5c.5 0 .8.1 1 .3.2.2.3.5.3.8 0 .3-.1.5-.2.6-.2.1-.4.2-.7.2h-.2v-.3c0-.1 0-.2-.1-.2l-.1-.2c-.1-.1-.2-.1-.3-.1-.2 0-.3 0-.4.1-.1.1-.2.2-.2.4 0 .1 0 .2.2.3.1.1.2.2.4.2l.5.2.5.3c.2.1.3.3.4.4.1.2.1.4.1.7 0 .2 0 .4-.1.6-.1.2-.2.4-.3.5-.1.1-.3.2-.5.3-.2.1-.5.1-.7.1-.2 0-.5 0-.7-.1-.2-.1-.4-.1-.5-.2-.2-.1-.3-.2-.4-.3-.1-.1-.1-.2-.1-.3 0-.3 0-.6.1-.7 0-.1.1-.2.2-.2s.1 0 .2.1l.3.2.3.2c.1.1.3.1.5.1h.2c.1 0 .1 0 .2-.1.1 0 .1-.1.1-.1v-.2c0-.1 0-.2-.1-.3-.1-.1-.2-.1-.4-.2-.1-.1-.3-.1-.5-.2l-.5-.3-.4-.4c-.1-.2-.1-.4-.1-.7 0-.3.1-.6.2-.8.1-.2.3-.4.5-.5l.6-.3c.2.1.5.1.7.1zm4.2 0c.1 0 .2 0 .3.1.1 0 .1.1.2.2s.1.2.1.3l.1.3c.2.8.4 1.4.5 2 .1.5.2.9.3 1.2.1.3.1.5.2.7v.4h-.6c-.2 0-.4 0-.5-.1l-.3-.2c-.1-.1-.1-.2-.1-.4 0-.1-.1-.3-.1-.5h-1.3l-.2 1c0 .1-.1.1-.2.1h-.5c-.1 0-.2 0-.2-.1-.1 0-.1-.1-.2-.2l-.1-.2c0-.1 0-.3.1-.5s.2-.5.3-.8c.1-.3.2-.6.4-1l.4-1c.1-.3.2-.6.3-.8.1-.2.2-.4.2-.5 0-.1.1-.1.1-.1h.8zm-.8 3h.8l-.3-1.9-.5 1.9zM40.9 43.6l.3-.9.2-.8c.1-.3.2-.6.2-.9.1-.3.2-.8.3-1.3 0-.1.1-.2.1-.2h.4c.1 0 .2 0 .3.1.1 0 .2.1.3.2.1.1.1.2.1.3 0 .1 0 .3-.1.5s-.2.5-.3.8c-.1.3-.2.6-.3 1-.1.3-.2.7-.4.9-.1.3-.2.6-.3.8-.1.2-.2.4-.2.5-.1.1-.1.1-.3.1h-.8c-.1 0-.2 0-.3-.1-.1 0-.1-.1-.2-.2s-.1-.2-.1-.3l-.1-.3c-.2-.7-.3-1.3-.4-1.8-.1-.5-.2-.9-.3-1.3-.1-.3-.1-.6-.2-.8 0-.2-.1-.3-.1-.3 0-.1 0-.1.1-.1h.4c.2 0 .4 0 .5.1.1 0 .2.1.3.2.1.1.1.2.2.2l.1.3v.3c0 .1 0 .3.1.5 0 .2.1.6.1.9.2.5.3 1 .4 1.6zm3.4 1.1c-.3 0-.5-.1-.6-.2-.1-.1-.2-.3-.2-.5v-.5c0-.2 0-.5.1-.8 0-.3 0-.6.1-1 0-.3 0-.7.1-1 0-.3 0-.6.1-.8v-.5c0-.1 0-.1.1-.1h2.7v.5c0 .1 0 .3-.1.4-.1.1-.2.1-.4.1h-1l-.1 1h1.1v.5c0 .1 0 .3-.1.4-.1.1-.2.1-.4.1h-.6l-.1 1.1h1.7v.5c0 .1 0 .3-.1.4-.1.1-.2.1-.4.1h-1.9zM24.2 42l5.1.1s-.4-.6-.6-.6l-5.1-.1c-.1 0 .4.6.6.6zm23.5.2c1.7 0 3.3 0 5 .1.6 0 .3-.6-.1-.6l-5-.1c-.6.1-.4.6.1.6z" fill="#fff"/></svg>