<svg xmlns="http://www.w3.org/2000/svg" viewBox="0 0 70 70" enable-background="new 0 0 70 70"><path d="M68.1 25.3c-1-6.4-3.9-11.6-7.9-15.6-.8-.8-1.7-1.6-2.5-2.2-1.8-1.8-4-2.7-6.1-3.7-1.3-.6-2.6-1.1-4-1.5-1.4-.4-2.7-.8-4.1-1-1-.2-2-.3-3-.3 1.9.5 3.7 1.1 5.4 1.9 1.3.5 2.5 1.1 3.7 1.7 9.7 4.9 17.1 13.8 18.4 25 .2 1.3.2 2.7.2 4.1-.1 5.4-1.7 10.6-4.4 15.2-.7 1.2-1.4 2.3-2.2 3.4-3.7 5.7-9.3 10.3-15.6 12.9-1.3.5-2.5.9-3.9 1.3-3.8 1-7.8 1.2-11.7.5 2.5.6 4.9 1.1 7 1.5 1.1-.2 2.2-.4 3.3-.7 7.7-1.9 14.9-5.7 20-10.5.9-.9 1.7-1.8 2.5-2.8 1.5-2 2.7-4.4 3.4-7 .5-1.3.8-2.4 1.1-3.4 0-1.1.1-2.3.3-3.4.1-1.1.2-2.3.4-3.5.7-4.1.3-7.9-.3-11.9zm-50.4 36.2c1.9 1.1 3.9 2 5.9 2.8 2.9.9 6 1.6 9.1 1.8-9.8-.9-19.4-6-24.2-14.9 2.6 3.7 5.5 7.7 10 9.9-6-3.4-10.5-9.8-13.3-16.1-.5-1.1-.9-2.3-1.2-3.4-.8-3.5-1-7.1-.2-10.8.2 3.1.7 6.1 1.4 9 .3 1.4.8 2.9 1.2 4.2 4.5 17.6 25.6 26.7 41.9 18.2 1.1-.6 2.2-1.2 3.3-1.9 4.2-2.8 7.6-6.7 9.8-11.6.6-1.2 1.2-2.3 1.7-3.6 2-4.9 2.8-10.3 2.2-15.6-.1-1.3-.3-2.5-.6-3.8-1.6-7.4-6-14.1-12.1-18.3-1.2-.8-2.4-1.5-3.7-2.1-13-6.3-28.6-3.2-38.2 7.6.7-1.9 1.7-3.5 2.9-4.9-2.6 1.9-4.9 4.2-6.6 7-.8 1.2-1.5 2.4-2.1 3.7-.6 1.3-1.2 2.6-1.7 4-.5 1.1-.8 2.2-1.2 3.4-.4 1.3-.6 2.6-.8 3.9-.3 4.3.5 8.6 2 12.5.5 1.3 1.1 2.6 1.8 3.8.7.9 1.2 1.8 1.7 2.8.4 1 .8 2 1.1 3.1 2.2 5.7 8 9.5 14.4 12-1.5-.7-3.1-1.6-4.5-2.7zm24.6 4.4c1.1-.2 2.3-.5 3.4-.9-1.2.4-2.4.7-3.6.9-4.4.6-9 .7-13.5-.1 4.4 1.1 9 1.3 13.7.1z" fill="#FFC800"/><path d="M17.1 33.5c-.8 0-1.5-.1-2-.2s-1-.3-1.3-.5c-.3-.2-.5-.5-.6-.8-.1-.2-.2-.5-.2-1v-.5c0-.2 0-.6.1-1 0-.4.1-1 .1-1.6 0-.7.1-1.5.2-2.5.1-1.2.2-2.2.2-2.9.1-.7.1-1.3.1-1.7 0-.4 0-.7.1-.8v-1.2l.1-.2s.1-.1.2-.1c.8-.1 1.5-.1 2.1-.1h1.5c1.1 0 2 .1 2.7.3.8.2 1.4.4 1.8.7.5.3.8.7 1 1.2.2.5.3 1 .3 1.6 0 .3 0 .7-.1 1-.1.4-.2.7-.4 1-.2.3-.4.6-.7.8-.3.2-.6.4-1.1.5.8.3 1.4.7 1.7 1.2.3.6.5 1.3.5 2.1 0 .6-.1 1.2-.3 1.8-.2.6-.6 1.1-1.1 1.5-.5.4-1.2.8-2 1-.5.3-1.6.4-2.9.4zm1.2-6.5h-.6l-.7.1-.2 3.4c.5.2 1 .2 1.4.2.4 0 .8-.1 1-.2.3-.1.5-.3.6-.5l.3-.6.1-.6c0-.5-.1-1-.4-1.3-.3-.3-.8-.5-1.5-.5zm-.8-5.7c0 .4-.1.8-.1 1.3s-.1 1-.1 1.6c.4.1.8.2 1.2.2.4 0 .8 0 1-.1.3-.1.4-.2.6-.4l.3-.5c0-.2.1-.4.1-.5 0-.4-.1-.8-.4-1.1-.3-.3-.8-.5-1.5-.5h-.5c-.3-.1-.4-.1-.6 0zm10.3 12c-.8 0-1.3-.2-1.7-.5-.3-.3-.5-.7-.5-1.3 0-.3 0-.8.1-1.4 0-.7.1-1.4.2-2.3.1-.9.1-1.8.2-2.8.1-1 .1-1.9.2-2.7.1-.8.1-1.6.2-2.2 0-.6.1-1.1.1-1.3 0-.2.1-.3.3-.3h7.4c.1 0 .2 0 .2.1.1 0 .1.1.1.2l-.1 1.2c0 .4-.1.8-.3 1-.2.3-.6.4-1.2.4h-3l-.2 2.9h3c.1 0 .2 0 .2.1.1 0 .1.1.1.2l-.1 1.3c0 .4-.1.8-.3 1-.2.3-.6.4-1.2.4h-1.8l-.2 3.1h4.5c.1 0 .2 0 .2.1.1 0 .1.1.1.2l-.1 1.2c0 .4-.1.8-.3 1-.2.3-.6.4-1.2.4h-4.9zm14.1-15.1c1.3 0 2.3.3 2.9.9.6.6 1 1.3 1 2.2 0 .8-.2 1.4-.6 1.8-.4.4-1.1.6-1.9.6-.3 0-.4 0-.5-.1-.1 0-.1-.1-.1-.3v-.5c0-.2-.1-.4-.2-.6-.1-.2-.2-.4-.4-.5-.2-.1-.4-.2-.8-.2s-.8.1-1.2.4c-.3.3-.5.6-.5 1.1 0 .4.1.7.4.9.3.2.6.5 1.1.7.4.2.9.4 1.4.6.5.2 1 .5 1.4.8.4.3.8.8 1.1 1.3.3.5.4 1.2.4 1.9 0 .6-.1 1.2-.3 1.7-.2.5-.5 1-.9 1.4-.4.4-.9.7-1.5.9-.6.2-1.3.3-2.1.3-.7 0-1.3-.1-1.9-.2-.6-.2-1.1-.3-1.5-.6-.4-.2-.8-.5-1-.8-.3-.3-.4-.5-.4-.7 0-.9.1-1.6.2-2 .1-.4.3-.6.6-.6.2 0 .4.1.6.3l.7.6c.3.2.6.4 1 .6.4.2.8.3 1.3.3.2 0 .4 0 .6-.1.2 0 .4-.1.5-.2l.4-.3c.1-.1.1-.3.1-.5 0-.3-.1-.6-.4-.8-.3-.2-.6-.4-1-.6-.4-.2-.8-.4-1.3-.5-.5-.2-.9-.4-1.3-.8-.4-.3-.7-.7-1-1.3-.3-.5-.4-1.2-.4-2 0-.9.2-1.7.5-2.3.3-.6.8-1.1 1.3-1.5.5-.4 1.1-.7 1.8-.9.5-.3 1.2-.4 1.9-.4zm12.3 3.2l-.8 11.6c0 .2-.1.3-.2.3h-1.2c-.8 0-1.3-.2-1.7-.5-.3-.3-.5-.7-.5-1.3v-.9c0-.4.1-.9.1-1.5l.1-1.8c0-.7.1-1.3.2-2l.2-2c0-.7.1-1.3.1-1.9h-3.3c-.2 0-.2-.1-.2-.3l.1-1.2c0-.2 0-.4.1-.5 0-.2.1-.3.2-.5.1-.1.3-.3.4-.3.2-.1.4-.1.6-.1h9.3c.1 0 .2 0 .2.1.1 0 .1.1.1.2v1.2c0 .4-.1.8-.3 1-.2.3-.6.4-1.2.4h-2.3zm-39.6 28c-.7 0-1.1-.1-1.4-.4-.3-.3-.4-.6-.4-1.1v-.7c0-.3 0-.7.1-1.2 0-.4.1-.9.1-1.5l.1-1.6c.1-.7.1-1.3.1-1.7 0-.5.1-.9.1-1.3s0-.6.1-.9v-1.6c0-.1 0-.2.1-.2l.2-.1h1c.4 0 .7 0 1.1-.1.4 0 .7 0 1-.1h.9c.7 0 1.4.1 1.9.3.5.2 1 .4 1.3.8.3.3.6.7.7 1.2.2.5.2 1 .2 1.7s-.1 1.3-.3 2c-.2.6-.5 1.2-.8 1.7-.4.5-.9.9-1.5 1.2-.6.3-1.3.4-2.1.4-.5 0-.9-.1-1.3-.2l-.2 3.2c0 .1 0 .2-.1.2 0 0-.1.1-.2.1h-.7zm2.8-9.9h-.5c-.2 0-.4 0-.6.1 0 .5-.1 1.1-.1 1.8s-.1 1.4-.1 2.2l.5.1h.5c.4 0 .7-.1 1-.3.2-.2.4-.4.6-.7l.3-.9c0-.3.1-.6.1-.8 0-.5-.1-.9-.3-1.1-.4-.2-.8-.4-1.4-.4zm7.4 9.9c-.7 0-1.1-.1-1.4-.4-.3-.3-.4-.6-.4-1.1v-.7c0-.3 0-.7.1-1.2 0-.4.1-.9.1-1.5l.1-1.6c.1-1.2.2-2.1.2-2.8 0-.7.1-1.3.1-1.7 0-.5.1-.8.1-1 0-.1.1-.2.2-.2h1.1c.4 0 .7 0 1.1-.1.3 0 .7 0 1-.1h.8c.7 0 1.4.1 1.9.3.5.2 1 .4 1.3.8.3.3.6.7.7 1.2.2.5.2 1 .2 1.6 0 .9-.2 1.7-.5 2.4-.4.7-.9 1.2-1.7 1.6l1.4 2.1c.3.4.5.7.6.9.1.2.2.4.2.5 0 .1 0 .2-.1.3-.1.1-.2.3-.4.4-.2.1-.4.3-.7.4-.3.1-.6.2-.9.2-.4 0-.7-.1-1-.4-.3-.2-.5-.6-.7-1-.2-.4-.4-.9-.6-1.4-.2-.5-.3-1.1-.4-1.6-.4 0-.8-.1-1-.1 0 .5-.1 1-.1 1.4 0 .5-.1.9-.1 1.2 0 .4 0 .7-.1.9v.4c0 .1 0 .2-.1.2 0 0-.1.1-.2.1h-.8zm2.8-9.9h-.5c-.2 0-.4 0-.6.1 0 .4 0 .9-.1 1.4l-.1 1.8c.4.1.8.1 1.1.1.4 0 .6-.1.9-.2.2-.1.4-.3.5-.5.1-.2.2-.4.2-.6l.1-.6c0-.5-.1-.8-.3-1.1-.3-.2-.7-.4-1.2-.4zm7.8 9.9c-.6 0-1.1-.1-1.4-.4-.3-.3-.4-.6-.4-1.1 0-.2 0-.6.1-1.2 0-.6.1-1.2.1-1.9.1-.7.1-1.5.2-2.3.1-.8.1-1.5.2-2.2.1-.7.1-1.3.1-1.8s.1-.9.1-1.1c0-.2.1-.3.3-.3h.9c.7 0 1.2.1 1.4.4.2.3.4.7.4 1.3v.6c0 .3 0 .7-.1 1.2 0 .5-.1 1-.1 1.6l-.1 1.8-.1 1.8c0 .6-.1 1.1-.1 1.6s-.1.9-.1 1.2c0 .3 0 .5-.1.6 0 .1 0 .2-.1.2 0 0-.1.1-.2.1h-1zm8.8-2.6c.5 0 .9-.1 1.2-.2.3-.1.6-.3.8-.5l.6-.5c.2-.1.4-.2.5-.2.2 0 .3.2.3.5 0 .2 0 .4-.1.7 0 .3-.1.5-.2.9 0 .2-.2.4-.3.6-.2.2-.4.4-.7.6-.3.2-.7.4-1.1.5-.5.1-1 .2-1.6.2s-1.2-.1-1.8-.3c-.6-.2-1.1-.5-1.6-.9s-.8-1-1.1-1.7c-.3-.7-.4-1.6-.4-2.6 0-.4 0-.8.1-1.3l.3-1.5c.1-.5.4-1 .6-1.6.3-.5.6-1 1-1.4.4-.4.9-.7 1.6-1 .6-.2 1.3-.4 2.2-.4.7 0 1.3.1 1.8.2.5.2.9.4 1.2.7.3.3.6.6.7 1 .2.4.2.8.2 1.2 0 .7-.2 1.3-.6 1.6-.4.3-1 .5-1.8.5-.3 0-.4 0-.5-.1-.1 0-.1-.1-.1-.2v-1c0-.3-.1-.5-.1-.7-.1-.2-.2-.3-.3-.4-.1-.1-.3-.1-.6-.1-.4 0-.7.1-.9.2-.3.2-.5.4-.7.6-.2.2-.3.5-.4.8l-.3.9c-.1.3-.1.6-.1.9v.8c0 1.1.2 1.8.5 2.3.4.7 1 .9 1.7.9zm7.2 2.6c-.6 0-1.1-.1-1.4-.4-.3-.3-.4-.6-.4-1.1 0-.2 0-.6.1-1.2 0-.6.1-1.2.1-1.9.1-.7.1-1.5.2-2.3.1-.8.1-1.5.2-2.2.1-.7.1-1.3.1-1.8s.1-.9.1-1.1c0-.2.1-.3.3-.3h6.1c.1 0 .1 0 .2.1.1 0 .1.1.1.2l-.1 1c0 .3-.1.6-.3.8-.2.2-.5.3-1 .3h-2.4l-.2 2.5h2.4c.1 0 .1 0 .2.1.1 0 .1.1.1.2l-.1 1c0 .3-.1.6-.3.8-.2.2-.5.3-1 .3h-1.5l-.2 2.6h3.8c.1 0 .1 0 .2.1.1 0 .1.1.1.2l-.1 1c0 .3-.1.6-.3.8-.2.2-.5.3-1 .3h-4z" fill="#fff"/></svg>