<?xml version="1.0" encoding="utf-8"?>
<!-- Generator: Adobe Illustrator 17.0.0, SVG Export Plug-In . SVG Version: 6.00 Build 0)  -->
<!DOCTYPE svg PUBLIC "-//W3C//DTD SVG 1.1//EN" "http://www.w3.org/Graphics/SVG/1.1/DTD/svg11.dtd">
<svg version="1.1" id="Layer_1" xmlns="http://www.w3.org/2000/svg" xmlns:xlink="http://www.w3.org/1999/xlink" x="0px" y="0px"
	 width="842.35px" height="595.3px" viewBox="0 0 842.35 595.3" enable-background="new 0 0 842.35 595.3" xml:space="preserve">
<g>
	<path opacity="0.3" fill="#ABE0F9" d="M646.973,383.528c-49.999,115.573-181.98,165.215-285.389,156.751
		c-28.235-2.311-85.044-6.961-129.401-48.444c-85.185-79.665-72.065-246.188,9.481-344.227
		c10.501-12.625,83.191-97.215,196.464-96.082c82.932,0.829,141.142,47.158,148.22,52.93c8.941,7.291,28.663,24.618,46.436,52.105
		C674.546,221.145,678.217,311.306,646.973,383.528z"/>
	<g>
		
			<linearGradient id="SVGID_1_" gradientUnits="userSpaceOnUse" x1="-2179.5969" y1="458.064" x2="-2081.2729" y2="163.0912" gradientTransform="matrix(-1 0 0 1 -1712.8728 0)">
			<stop  offset="0" style="stop-color:#2B3582"/>
			<stop  offset="1" style="stop-color:#150E42"/>
		</linearGradient>
		<path fill="url(#SVGID_1_)" d="M212.844,468.765c0,4.23,3.464,7.691,7.699,7.691h416.312c4.234,0,7.699-3.461,7.699-7.691
			l3.464-239.243c0-4.23-4.984-12.489-14.118-11.868l-406.867-10.528c-5.313-0.137-10.45,1.907-14.212,5.657
			c-3.762,3.75-5.821,8.877-5.695,14.185L212.844,468.765z"/>
		<linearGradient id="SVGID_2_" gradientUnits="userSpaceOnUse" x1="592.8588" y1="196.2584" x2="234.2462" y2="511.1121">
			<stop  offset="0" style="stop-color:#FDF53F"/>
			<stop  offset="1" style="stop-color:#D93C65"/>
		</linearGradient>
		<path fill="url(#SVGID_2_)" d="M220.444,461.386c0,4.006,3.278,7.283,7.283,7.283h399.087c4.006,0,7.283-3.278,7.283-7.283
			l3.269-217.187c-0.385-13.07-11.844-17.767-18.79-17.49l-389.944-10.462c-3.732-0.1-7.341,1.338-9.985,3.975
			c-2.644,2.637-4.097,6.245-4.004,9.978L220.444,461.386z"/>
		<g>
			<path fill="#FFFFFF" d="M629.786,358.207c-0.005,0-0.011,0-0.016,0c-0.59-0.009-1.061-0.493-1.052-1.084l0.258-17.613
				c0.008-0.584,0.485-1.052,1.066-1.052c0.005,0,0.011,0,0.016,0c0.59,0.009,1.061,0.493,1.052,1.084l-0.258,17.613
				C630.844,357.739,630.368,358.207,629.786,358.207z"/>
			<path fill="#FFFFFF" d="M630.42,315.044c-0.005,0-0.011,0-0.016,0c-0.59-0.009-1.061-0.494-1.052-1.084l0.99-67.46
				c-0.019-4.007-1.235-7.206-3.615-9.488c-4.444-4.257-11.499-4.04-11.796-4.026l-124.635-3.342
				c-0.589-0.015-1.054-0.506-1.038-1.095c0.015-0.589,0.468-1.091,1.096-1.038l124.561,3.342c0.775-0.046,8.287-0.176,13.289,4.618
				c2.814,2.697,4.252,6.412,4.273,11.04l-0.991,67.482C631.478,314.577,631.002,315.044,630.42,315.044z"/>
		</g>
		
			<linearGradient id="SVGID_3_" gradientUnits="userSpaceOnUse" x1="-1950.7372" y1="440.4131" x2="-2388.7488" y2="546.9564" gradientTransform="matrix(-1 0 0 1 -1712.8728 0)">
			<stop  offset="0" style="stop-color:#2B3582"/>
			<stop  offset="1" style="stop-color:#150E42"/>
		</linearGradient>
		<path fill="url(#SVGID_3_)" d="M180.063,496.316h488.832c0.546,0,0.992-0.446,0.992-0.992v-19.036
			c0-0.546-0.446-0.992-0.992-0.992H180.063c-0.546,0-0.992,0.446-0.992,0.992v19.036
			C179.07,495.87,179.517,496.316,180.063,496.316z"/>
	</g>
	<g>
		<linearGradient id="SVGID_4_" gradientUnits="userSpaceOnUse" x1="431.1625" y1="91.5738" x2="355.3395" y2="586.1725">
			<stop  offset="0" style="stop-color:#53D8FF"/>
			<stop  offset="0.2057" style="stop-color:#4DB9FD"/>
			<stop  offset="1" style="stop-color:#3840F7"/>
		</linearGradient>
		<path fill="url(#SVGID_4_)" d="M537.311,54.005L250.596,52.25c-9.423-0.058-16.959,7.813-16.492,17.224l19.725,407.354h319.06
			l17.716-363.948L537.311,54.005z"/>
		
			<linearGradient id="SVGID_5_" gradientUnits="userSpaceOnUse" x1="569.329" y1="50.2284" x2="501.4485" y2="132.293" gradientTransform="matrix(0.9994 0.0343 -0.0343 0.9994 2.2355 7.2014)">
			<stop  offset="0" style="stop-color:#53D8FF"/>
			<stop  offset="0.2057" style="stop-color:#4DB9FD"/>
			<stop  offset="1" style="stop-color:#3840F7"/>
		</linearGradient>
		<path fill="url(#SVGID_5_)" d="M549.233,111.134c-9.34-0.329-16.52-8.378-15.784-17.695l3.074-38.898l54.138,58.098
			L549.233,111.134z"/>
		<g>
			<path opacity="0.82" fill="#FFFFFF" d="M427.014,264.655H289.249c-0.922,0-1.67-0.748-1.67-1.67v-18.228
				c0-0.922,0.748-1.67,1.67-1.67h137.765c0.922,0,1.67,0.748,1.67,1.67v18.228C428.684,263.907,427.936,264.655,427.014,264.655z"
				/>
			<path opacity="0.43" fill="#FFFFFF" d="M531.245,265.386h-47.796c-0.922,0-1.67-0.748-1.67-1.67v-18.228
				c0-0.922,0.748-1.67,1.67-1.67h47.796c0.922,0,1.67,0.748,1.67,1.67v18.228C532.915,264.638,532.167,265.386,531.245,265.386z"/>
			<path opacity="0.43" fill="#FFFFFF" d="M530.494,308.767h-47.796c-0.922,0-1.67-0.748-1.67-1.67v-18.228
				c0-0.922,0.748-1.67,1.67-1.67h47.796c0.922,0,1.67,0.748,1.67,1.67v18.228C532.164,308.019,531.416,308.767,530.494,308.767z"/>
			<path opacity="0.43" fill="#FFFFFF" d="M530.321,349.878h-47.796c-0.922,0-1.67-0.748-1.67-1.67V329.98
				c0-0.922,0.748-1.67,1.67-1.67h47.796c0.922,0,1.67,0.748,1.67,1.67v18.228C531.992,349.13,531.244,349.878,530.321,349.878z"/>
			<path opacity="0.43" fill="#FFFFFF" d="M529.57,393.26h-47.796c-0.922,0-1.67-0.748-1.67-1.67v-18.228
				c0-0.922,0.748-1.67,1.67-1.67h47.796c0.922,0,1.67,0.748,1.67,1.67v18.228C531.24,392.512,530.493,393.26,529.57,393.26z"/>
			<path opacity="0.82" fill="#FFFFFF" d="M409.95,309.478H290.915c-0.852,0-1.542-0.691-1.542-1.542v-18.484
				c0-0.852,0.691-1.542,1.542-1.542H409.95c0.852,0,1.542,0.691,1.542,1.542v18.484
				C411.492,308.788,410.802,309.478,409.95,309.478z"/>
			<path opacity="0.82" fill="#FFFFFF" d="M434.497,351.05H291.931c-0.752,0-1.362-0.61-1.362-1.362v-18.844
				c0-0.752,0.61-1.362,1.362-1.362h142.566c0.752,0,1.362,0.61,1.362,1.362v18.844C435.859,350.44,435.249,351.05,434.497,351.05z"
				/>
			<path opacity="0.82" fill="#FFFFFF" d="M452.01,392.577H295.344c-0.656,0-1.188-0.532-1.188-1.188v-19.192
				c0-0.656,0.532-1.188,1.188-1.188H452.01c0.656,0,1.188,0.532,1.188,1.188v19.192
				C453.198,392.045,452.666,392.577,452.01,392.577z"/>
			<path opacity="0.7" fill="#FFFFFF" d="M525.664,183.211H297.65c-1.412,0-2.556-1.144-2.556-2.556v-21.861
				c0-1.412,1.144-2.556,2.556-2.556h228.014c1.412,0,2.556,1.144,2.556,2.556v21.861
				C528.22,182.067,527.075,183.211,525.664,183.211z"/>
			<path opacity="0.43" fill="#FFFFFF" d="M275.838,234.599h271.306l0.541-14.472c0.267-7.217-5.741-13.028-13.245-13.028H288.287
				c-7.592,0-13.632,5.946-13.235,13.242L275.838,234.599z"/>
			<path opacity="0.77" fill="#FFFFFF" d="M527.516,421.558H298.49c-7.846,0-14.315-5.93-14.727-13.501L273.56,220.565
				c-0.209-3.845,1.157-7.527,3.846-10.366c2.787-2.943,6.753-4.631,10.881-4.631h246.155c4.079,0,8.014,1.655,10.794,4.54
				c2.684,2.785,4.085,6.413,3.944,10.218l-6.925,187.492C541.969,415.522,535.495,421.558,527.516,421.558z M288.287,208.557
				c-3.311,0-6.486,1.347-8.711,3.697c-2.119,2.237-3.195,5.131-3.031,8.149l10.204,187.492c0.326,5.985,5.484,10.674,11.742,10.674
				h229.025c6.364,0,11.526-4.771,11.751-10.862l6.926-187.492c0.11-2.985-0.994-5.838-3.109-8.033
				c-2.22-2.304-5.37-3.625-8.642-3.625H288.287z"/>
		</g>
		<path opacity="0.41" fill="#FFFFFF" d="M378.376,129.105H275.65c-1.211,0-2.193-0.982-2.193-2.193V88.346
			c0-1.211,0.982-2.193,2.193-2.193h102.726c1.211,0,2.193,0.982,2.193,2.193v38.566
			C380.57,128.123,379.588,129.105,378.376,129.105z"/>
	</g>
	<g>
		
			<linearGradient id="SVGID_6_" gradientUnits="userSpaceOnUse" x1="362.1466" y1="517.4262" x2="349.9656" y2="535.9579" gradientTransform="matrix(0.9983 -0.0579 0.0579 0.9983 43.8936 -45.2688)">
			<stop  offset="0" style="stop-color:#FDF53F"/>
			<stop  offset="0.6645" style="stop-color:#E57A58"/>
			<stop  offset="1" style="stop-color:#D93C65"/>
		</linearGradient>
		<path fill="url(#SVGID_6_)" d="M421.07,459.557c2.687,0.374,18.344,8.502,17.747-1.795c-0.056-0.97-0.668-11.502-0.668-11.502
			S420.298,459.449,421.07,459.557z"/>
		
			<linearGradient id="SVGID_7_" gradientUnits="userSpaceOnUse" x1="292.6905" y1="570.3494" x2="278.408" y2="588.3071" gradientTransform="matrix(0.9983 -0.0579 0.0579 0.9983 43.8936 -45.2688)">
			<stop  offset="0" style="stop-color:#2B3582"/>
			<stop  offset="1" style="stop-color:#150E42"/>
		</linearGradient>
		<path fill="url(#SVGID_7_)" d="M370.829,512.059c0,0-3.686-2.715-8.338-2.018c-3.227,0.76-6.884,3.865-9.225,6.148
			c-0.408,0.398-0.518,1-0.277,1.509c0.242,0.508,0.784,0.816,1.36,0.771c6.106-0.482,18.046-1.539,17.994-2.44
			C372.273,514.817,370.829,512.059,370.829,512.059z"/>
		
			<linearGradient id="SVGID_8_" gradientUnits="userSpaceOnUse" x1="295.3382" y1="566.9847" x2="287.0437" y2="577.4135" gradientTransform="matrix(0.9983 -0.0579 0.0579 0.9983 43.8936 -45.2688)">
			<stop  offset="0" style="stop-color:#F9B776"/>
			<stop  offset="1" style="stop-color:#F47960"/>
		</linearGradient>
		<path fill="url(#SVGID_8_)" d="M372.953,506.774l-2.499,5.463c0,0-6.31,0.888-6.247-1.619c0.063-2.506,1.447-5.611,1.447-5.611
			L372.953,506.774z"/>
		
			<linearGradient id="SVGID_9_" gradientUnits="userSpaceOnUse" x1="374.6805" y1="534.1198" x2="307.8093" y2="553.1523" gradientTransform="matrix(0.9983 -0.0579 0.0579 0.9983 43.8936 -45.2688)">
			<stop  offset="0" style="stop-color:#CB236D"/>
			<stop  offset="1" style="stop-color:#4C246D"/>
		</linearGradient>
		<path fill="url(#SVGID_9_)" d="M444.817,506.223c-5.79-23.748-5.931-38.422-5.931-38.422s-54.506-29.161-59.049-21.181
			c-4.542,7.98-15.791,61.296-15.791,61.296l9.683,2.045c0,0,16.79-25.74,17.23-46.91c5.584,15.097,12.088,51.57,48.244,50.529
			c1.795-0.052,3.47-0.912,4.56-2.34C444.851,509.813,445.242,507.968,444.817,506.223z"/>
		
			<linearGradient id="SVGID_10_" gradientUnits="userSpaceOnUse" x1="255.2852" y1="565.5021" x2="260.4976" y2="583.7892" gradientTransform="matrix(0.9983 -0.0579 0.0579 0.9983 43.8936 -45.2688)">
			<stop  offset="0" style="stop-color:#F9B776"/>
			<stop  offset="1" style="stop-color:#F47960"/>
		</linearGradient>
		<polygon fill="url(#SVGID_10_)" points="339.454,511.742 333.954,517.589 329.115,513.281 334.739,505.968 		"/>
		
			<linearGradient id="SVGID_11_" gradientUnits="userSpaceOnUse" x1="2177.1416" y1="479.1977" x2="2179.6533" y2="456.5914" gradientTransform="matrix(-0.9983 0.0579 0.0579 0.9983 2603.6692 -194.5927)">
			<stop  offset="0" style="stop-color:#F9B776"/>
			<stop  offset="1" style="stop-color:#F47960"/>
		</linearGradient>
		<path fill="url(#SVGID_11_)" d="M460.593,384.757l5.899,17.627c0.27,0.808,0.047,1.712-0.565,2.233
			c-2.237,1.906-8.148,5.783-16.735,2.848c-0.982-0.336-1.697-1.288-1.845-2.409l-2.058-15.535L460.593,384.757z"/>
		<g>
			
				<linearGradient id="SVGID_12_" gradientUnits="userSpaceOnUse" x1="2136.6194" y1="535.5121" x2="2126.6196" y2="502.5312" gradientTransform="matrix(-0.9997 -0.0271 -0.0271 0.9997 2593.585 -87.2848)">
				<stop  offset="0" style="stop-color:#F9B776"/>
				<stop  offset="1" style="stop-color:#F47960"/>
			</linearGradient>
			<path fill="url(#SVGID_12_)" d="M431.31,371.962c0,0,1.936,16.889,8.259,22.238c6.322,5.349,19.02,1.795,23.616-10.773
				l-7.886-21.916L431.31,371.962z"/>
			
				<linearGradient id="SVGID_13_" gradientUnits="userSpaceOnUse" x1="2129.1523" y1="476.2056" x2="2138.4666" y2="529.331" gradientTransform="matrix(-0.9997 -0.0271 -0.0271 0.9997 2593.585 -87.2848)">
				<stop  offset="0" style="stop-color:#2B3582"/>
				<stop  offset="1" style="stop-color:#150E42"/>
			</linearGradient>
			<path fill="url(#SVGID_13_)" d="M454.276,376.81c-0.496,0.145-1.002-0.184-1.065-0.697c-0.191-1.559-0.69-4.649-1.812-6.774
				c0,0,0.677-2.191-5.609,0.976c-6.285,3.166-15.723,7.812-21.122,4.747c-5.264-2.989-10.286-17.447,3.758-14.413
				c0.534,0.115,1.04-0.299,1.014-0.845c-0.11-2.357,0.271-7.762,5.798-9.35c5.172-1.486,7.917,0.905,9.036,2.333
				c0.329,0.42,0.961,0.429,1.297,0.014c1.591-1.964,5.878-6.119,11.946-3.246c4.998,2.367,5.7,5.504,5.564,7.443
				c-0.044,0.628,0.583,1.072,1.162,0.824c1.569-0.672,4.071-0.975,6.377,2.081c3.188,4.224-1.625,7.682-3.065,8.584
				c-0.236,0.148-0.387,0.399-0.396,0.677c-0.072,2.15-0.268,11.724-5.112,16.887c-0.419,0.447-1.561,0.089-1.783-0.482
				l-3.386-8.722c-0.157-0.405-0.598-0.623-1.015-0.501L454.276,376.81z"/>
			
				<linearGradient id="SVGID_14_" gradientUnits="userSpaceOnUse" x1="2128.3523" y1="539.4577" x2="2118.3528" y2="506.4768" gradientTransform="matrix(-0.9997 -0.0271 -0.0271 0.9997 2593.585 -87.2848)">
				<stop  offset="0" style="stop-color:#F9B776"/>
				<stop  offset="1" style="stop-color:#F47960"/>
			</linearGradient>
			<path fill="url(#SVGID_14_)" d="M453.637,378.067c0,0,2.455-8.943,5.733-5.929c3.278,3.014-1.129,9.333-5.009,10.454
				L453.637,378.067z"/>
		</g>
		
			<linearGradient id="SVGID_15_" gradientUnits="userSpaceOnUse" x1="245.6176" y1="571.3265" x2="250.4785" y2="588.3803" gradientTransform="matrix(0.9983 -0.0579 0.0579 0.9983 43.8936 -45.2688)">
			<stop  offset="0" style="stop-color:#2B3582"/>
			<stop  offset="1" style="stop-color:#150E42"/>
		</linearGradient>
		<path fill="url(#SVGID_15_)" d="M336.636,514.738c-1.422,0.099-7.563-2.184-7.563-2.184l-5.491,1.813
			c-4.905-0.466-8.984,1.432-11.7,3.278c-0.593,0.403-0.846,1.152-0.621,1.833c0.225,0.681,0.875,1.13,1.592,1.101
			c5.51-0.228,14.556-0.661,19.119-1.201C338.808,518.569,339.859,518.706,336.636,514.738z"/>
		
			<linearGradient id="SVGID_16_" gradientUnits="userSpaceOnUse" x1="-3987.5867" y1="495.7578" x2="-3953.0647" y2="495.7578" gradientTransform="matrix(-0.9983 0.0579 0.0579 0.9983 -3629.4136 167.2141)">
			<stop  offset="0" style="stop-color:#2B3582"/>
			<stop  offset="1" style="stop-color:#150E42"/>
		</linearGradient>
		<path fill="url(#SVGID_16_)" d="M381.346,452.748l-14.391-39.508c-0.587-1.612-2.112-2.691-3.827-2.709l-16.343-0.169
			c-1.661-0.017-2.798,1.671-2.158,3.204l15.707,37.616c0.506,1.212,1.667,2.022,2.979,2.078l16.133,0.85L381.346,452.748z"/>
		
			<linearGradient id="SVGID_17_" gradientUnits="userSpaceOnUse" x1="-3983.3972" y1="510.8459" x2="-4010.9993" y2="518.4109" gradientTransform="matrix(-0.9983 0.0579 0.0579 0.9983 -3629.4136 167.2141)">
			<stop  offset="0" style="stop-color:#2B3582"/>
			<stop  offset="1" style="stop-color:#150E42"/>
		</linearGradient>
		<path fill="url(#SVGID_17_)" d="M379.447,454.109c0.026-0.002,0.052-0.004,0.079-0.007l34.056-3.709
			c0.842-0.091,1.45-0.848,1.358-1.69c-0.092-0.842-0.852-1.464-1.69-1.358l-34.056,3.709c-0.842,0.091-1.45,0.848-1.358,1.69
			C377.924,453.56,378.637,454.156,379.447,454.109z"/>
		
			<linearGradient id="SVGID_18_" gradientUnits="userSpaceOnUse" x1="-3911.8357" y1="-112.0197" x2="-3848.5127" y2="-198.649" gradientTransform="matrix(-0.9678 -0.2519 -0.2519 0.9678 -3400.0242 -416.8883)">
			<stop  offset="0" style="stop-color:#F9B776"/>
			<stop  offset="1" style="stop-color:#F47960"/>
		</linearGradient>
		<path fill="url(#SVGID_18_)" d="M429.96,446.314c0,0-6.196,9.016-26.009-1.018c0,0-5.705-4.669-11.249-3.786
			s-9.149,8.704-9.149,8.704l10.748-0.845c0,0,15.992,17.26,47.225,15.447C441.998,457.816,434.511,452.336,429.96,446.314z"/>
		
			<linearGradient id="SVGID_19_" gradientUnits="userSpaceOnUse" x1="371.9925" y1="470.5643" x2="418.8016" y2="634.7867" gradientTransform="matrix(0.9983 -0.0579 0.0579 0.9983 43.8936 -45.2688)">
			<stop  offset="0" style="stop-color:#FDF53F"/>
			<stop  offset="0.6645" style="stop-color:#E57A58"/>
			<stop  offset="1" style="stop-color:#D93C65"/>
		</linearGradient>
		<path fill="url(#SVGID_19_)" d="M453.944,400.989c-4.026,1.133-8.3,5.707-11.288,9.524c-2.398,3.063-4.057,6.564-4.929,10.355
			c-1.964,8.541-6.374,25.287-9.832,27.065c8.7,10.949,10.272,14.606,10.272,14.606c-0.72,13.709-3.726,16.618-3.726,16.618
			s16.604,14.672,35.875,18.003c16.576-13.754,17.108-50.379,17.108-50.379C486.268,403.445,465.885,397.628,453.944,400.989z"/>
		<path fill="#E78456" d="M438.047,463.004c-0.11,0.006-0.221-0.033-0.304-0.118c-0.151-0.155-0.147-0.403,0.009-0.554
			c0.149-0.145,14.966-14.678,18.151-32.412c0.039-0.213,0.243-0.354,0.455-0.316c0.213,0.038,0.354,0.242,0.316,0.455
			c-3.23,17.987-18.226,32.69-18.377,32.836C438.227,462.962,438.138,462.998,438.047,463.004z"/>
		
			<linearGradient id="SVGID_20_" gradientUnits="userSpaceOnUse" x1="304.6978" y1="494.8062" x2="344.808" y2="635.5264" gradientTransform="matrix(0.9983 -0.0579 0.0579 0.9983 43.8936 -45.2688)">
			<stop  offset="0" style="stop-color:#CB236D"/>
			<stop  offset="1" style="stop-color:#4C246D"/>
		</linearGradient>
		<path fill="url(#SVGID_20_)" d="M470.315,497.159c0,0-6.45,23.629-45.677,12.871c-19.02-5.216-47.261-40.221-47.261-40.221
			s-5.418,18.042-37.716,43.693l-7.873-6.287c0,0,30.679-60.735,48.493-55.651C398.095,456.649,474.778,481.814,470.315,497.159z"/>
		
			<linearGradient id="SVGID_21_" gradientUnits="userSpaceOnUse" x1="277.6476" y1="493.656" x2="304.7593" y2="493.656" gradientTransform="matrix(0.9983 -0.0579 0.0579 0.9983 43.8936 -45.2688)">
			<stop  offset="0" style="stop-color:#52F0C0"/>
			<stop  offset="1" style="stop-color:#9F71FB"/>
		</linearGradient>
		<polygon fill="url(#SVGID_21_)" points="348.591,413.179 363.84,449.004 377.757,447.832 364.608,413.376 		"/>
	</g>
	<g>
		<g>
			<g>
				<linearGradient id="SVGID_22_" gradientUnits="userSpaceOnUse" x1="649.451" y1="330.8664" x2="391.1606" y2="650.5683">
					<stop  offset="0" style="stop-color:#2B3582"/>
					<stop  offset="1" style="stop-color:#150E42"/>
				</linearGradient>
				<path fill="url(#SVGID_22_)" d="M666.339,317.471c0.962,34.352,4.081,152.843,2.592,194.832
					c-0.158,4.448-4.186,8.019-9.21,8.164c-24.851,0.72-115.951,2.545-156.599,1.035c-8.466-0.315-15.199-6.386-15.374-13.886
					c-0.845-36.056-2.708-137.469,1.721-183.926c0.531-5.566,5.465-9.999,11.744-10.555c27.063-2.397,118.556-8.256,153.673-6.238
					C661.219,307.261,666.181,311.854,666.339,317.471z"/>
				<linearGradient id="SVGID_23_" gradientUnits="userSpaceOnUse" x1="673.2859" y1="250.6915" x2="483.8029" y2="445.7202">
					<stop  offset="0" style="stop-color:#A737D5"/>
					<stop  offset="1" style="stop-color:#EF497A"/>
				</linearGradient>
				<path fill="url(#SVGID_23_)" d="M659.201,332.616v29.112c0,5.583-4.526,10.108-10.108,10.108H510.004
					c-5.583,0-10.108-4.526-10.108-10.108v-29.112c0-5.583,4.526-10.108,10.108-10.108h139.089
					C654.676,322.508,659.201,327.034,659.201,332.616z"/>
				<path opacity="0.2" fill="#FFFFFF" d="M507.292,331.186c1.252-1.249,2.95-1.95,4.718-1.946l130.164,0.246
					c3.48,0.006,6.368,2.69,6.631,6.159l2.191,28.917c0.179,2.368-3.745,4.289-8.704,4.261l-127.96-0.724
					c-4.951-0.028-9.01-1.989-9.009-4.352l0.012-27.847C505.336,334.131,506.04,332.435,507.292,331.186z"/>
			</g>
			<linearGradient id="SVGID_24_" gradientUnits="userSpaceOnUse" x1="756.261" y1="186.5143" x2="510.6154" y2="638.0685">
				<stop  offset="0" style="stop-color:#53D8FF"/>
				<stop  offset="1" style="stop-color:#3840F7"/>
			</linearGradient>
			<path fill="url(#SVGID_24_)" d="M624.429,401.352c0,5.136,4.164,9.299,9.3,9.299h11.321c5.136,0,9.299-4.163,9.299-9.299l0,0
				c0-5.136-4.164-9.3-9.299-9.3h-11.321C628.593,392.053,624.429,396.216,624.429,401.352L624.429,401.352z"/>
			<linearGradient id="SVGID_25_" gradientUnits="userSpaceOnUse" x1="723.8138" y1="168.862" x2="478.1682" y2="620.4162">
				<stop  offset="0" style="stop-color:#53D8FF"/>
				<stop  offset="1" style="stop-color:#3840F7"/>
			</linearGradient>
			<path fill="url(#SVGID_25_)" d="M582.379,401.352c0,5.136,4.164,9.299,9.3,9.299H603c5.136,0,9.299-4.163,9.299-9.299l0,0
				c0-5.136-4.164-9.3-9.299-9.3h-11.321C586.542,392.053,582.379,396.216,582.379,401.352L582.379,401.352z"/>
			<linearGradient id="SVGID_26_" gradientUnits="userSpaceOnUse" x1="692.6136" y1="151.8902" x2="446.968" y2="603.4444">
				<stop  offset="0" style="stop-color:#53D8FF"/>
				<stop  offset="1" style="stop-color:#3840F7"/>
			</linearGradient>
			<path fill="url(#SVGID_26_)" d="M541.946,401.352c0,5.136,4.164,9.299,9.3,9.299h11.321c5.136,0,9.299-4.163,9.299-9.299l0,0
				c0-5.136-4.164-9.3-9.299-9.3h-11.321C546.11,392.053,541.946,396.216,541.946,401.352L541.946,401.352z"/>
			
				<linearGradient id="SVGID_27_" gradientUnits="userSpaceOnUse" x1="3851.5076" y1="391.8303" x2="3784.8591" y2="470.4158" gradientTransform="matrix(-1 0 0 1 4358.1553 0)">
				<stop  offset="0" style="stop-color:#A737D5"/>
				<stop  offset="1" style="stop-color:#EF497A"/>
			</linearGradient>
			<path fill="url(#SVGID_27_)" d="M500.96,402.717c0,5.219,4.231,9.45,9.45,9.45h10.942c5.219,0,9.45-4.231,9.45-9.45l0,0
				c0-5.219-4.231-9.45-9.45-9.45H510.41C505.191,393.267,500.96,397.498,500.96,402.717L500.96,402.717z"/>
			<linearGradient id="SVGID_28_" gradientUnits="userSpaceOnUse" x1="768.481" y1="193.1625" x2="522.8347" y2="644.7182">
				<stop  offset="0" style="stop-color:#53D8FF"/>
				<stop  offset="1" style="stop-color:#3840F7"/>
			</linearGradient>
			<path fill="url(#SVGID_28_)" d="M624.429,430.464c0,5.136,4.164,9.299,9.3,9.299h11.321c5.136,0,9.299-4.164,9.299-9.299l0,0
				c0-5.136-4.164-9.3-9.299-9.3h-11.321C628.593,421.164,624.429,425.328,624.429,430.464L624.429,430.464z"/>
			<linearGradient id="SVGID_29_" gradientUnits="userSpaceOnUse" x1="736.0331" y1="175.5116" x2="490.3867" y2="627.0672">
				<stop  offset="0" style="stop-color:#53D8FF"/>
				<stop  offset="1" style="stop-color:#3840F7"/>
			</linearGradient>
			<path fill="url(#SVGID_29_)" d="M582.379,430.464c0,5.136,4.164,9.299,9.3,9.299H603c5.136,0,9.299-4.164,9.299-9.299l0,0
				c0-5.136-4.164-9.3-9.299-9.3h-11.321C586.542,421.164,582.379,425.328,582.379,430.464L582.379,430.464z"/>
			<linearGradient id="SVGID_30_" gradientUnits="userSpaceOnUse" x1="704.8342" y1="158.5376" x2="459.1877" y2="610.0933">
				<stop  offset="0" style="stop-color:#53D8FF"/>
				<stop  offset="1" style="stop-color:#3840F7"/>
			</linearGradient>
			<path fill="url(#SVGID_30_)" d="M541.946,430.464c0,5.136,4.164,9.299,9.3,9.299h11.321c5.136,0,9.299-4.164,9.299-9.299l0,0
				c0-5.136-4.164-9.3-9.299-9.3h-11.321C546.11,421.164,541.946,425.328,541.946,430.464L541.946,430.464z"/>
			<linearGradient id="SVGID_31_" gradientUnits="userSpaceOnUse" x1="672.3862" y1="140.8867" x2="426.7398" y2="592.4423">
				<stop  offset="0" style="stop-color:#53D8FF"/>
				<stop  offset="1" style="stop-color:#3840F7"/>
			</linearGradient>
			<path fill="url(#SVGID_31_)" d="M499.896,430.464c0,5.136,4.164,9.299,9.3,9.299h11.321c5.136,0,9.3-4.164,9.3-9.299l0,0
				c0-5.136-4.164-9.3-9.3-9.3h-11.321C504.06,421.164,499.896,425.328,499.896,430.464L499.896,430.464z"/>
			<g>
				
					<linearGradient id="SVGID_32_" gradientUnits="userSpaceOnUse" x1="3180.9302" y1="1444.9143" x2="2935.2844" y2="1896.4688" gradientTransform="matrix(-1 0 0 1 4358.1553 0)">
					<stop  offset="0" style="stop-color:#53D8FF"/>
					<stop  offset="1" style="stop-color:#3840F7"/>
				</linearGradient>
				<path opacity="0.63" fill="url(#SVGID_32_)" d="M624.429,456.246c0,5.136,4.164,9.3,9.3,9.3h11.321
					c5.136,0,9.299-4.164,9.299-9.3l0,0c0-5.136-4.164-9.3-9.299-9.3h-11.321C628.593,446.946,624.429,451.11,624.429,456.246
					L624.429,456.246z"/>
				<linearGradient id="SVGID_33_" gradientUnits="userSpaceOnUse" x1="746.8565" y1="181.3979" x2="501.2108" y2="632.9523">
					<stop  offset="0" style="stop-color:#53D8FF"/>
					<stop  offset="1" style="stop-color:#3840F7"/>
				</linearGradient>
				<path opacity="0.63" fill="url(#SVGID_33_)" d="M582.379,456.246c0,5.136,4.164,9.3,9.3,9.3H603c5.136,0,9.299-4.164,9.299-9.3
					l0,0c0-5.136-4.164-9.3-9.299-9.3h-11.321C586.542,446.946,582.379,451.11,582.379,456.246L582.379,456.246z"/>
				<linearGradient id="SVGID_34_" gradientUnits="userSpaceOnUse" x1="715.6564" y1="164.426" x2="470.0106" y2="615.9805">
					<stop  offset="0" style="stop-color:#53D8FF"/>
					<stop  offset="1" style="stop-color:#3840F7"/>
				</linearGradient>
				<path fill="url(#SVGID_34_)" d="M541.946,456.246c0,5.136,4.164,9.3,9.3,9.3h11.321c5.136,0,9.299-4.164,9.299-9.3l0,0
					c0-5.136-4.164-9.3-9.299-9.3h-11.321C546.11,446.946,541.946,451.11,541.946,456.246L541.946,456.246z"/>
			</g>
			<g>
				<linearGradient id="SVGID_35_" gradientUnits="userSpaceOnUse" x1="717.6333" y1="296.993" x2="594.8105" y2="591.4065">
					<stop  offset="0" style="stop-color:#53D8FF"/>
					<stop  offset="1" style="stop-color:#3840F7"/>
				</linearGradient>
				<path fill="url(#SVGID_35_)" d="M624.429,484.549c0,5.136,4.164,9.3,9.3,9.3h11.321c5.136,0,9.299-4.164,9.299-9.3l0,0
					c0-5.136-4.164-9.3-9.299-9.3h-11.321C628.593,475.249,624.429,479.413,624.429,484.549L624.429,484.549z"/>
				<linearGradient id="SVGID_36_" gradientUnits="userSpaceOnUse" x1="758.7375" y1="187.8607" x2="513.0919" y2="639.4151">
					<stop  offset="0" style="stop-color:#53D8FF"/>
					<stop  offset="1" style="stop-color:#3840F7"/>
				</linearGradient>
				<path fill="url(#SVGID_36_)" d="M582.379,484.549c0,5.136,4.164,9.3,9.3,9.3H603c5.136,0,9.299-4.164,9.299-9.3l0,0
					c0-5.136-4.164-9.3-9.299-9.3h-11.321C586.542,475.249,582.379,479.413,582.379,484.549L582.379,484.549z"/>
				<linearGradient id="SVGID_37_" gradientUnits="userSpaceOnUse" x1="727.5374" y1="170.8888" x2="481.8917" y2="622.4433">
					<stop  offset="0" style="stop-color:#53D8FF"/>
					<stop  offset="1" style="stop-color:#3840F7"/>
				</linearGradient>
				<path fill="url(#SVGID_37_)" d="M541.946,484.549c0,5.136,4.164,9.3,9.3,9.3h11.321c5.136,0,9.299-4.164,9.299-9.3l0,0
					c0-5.136-4.164-9.3-9.299-9.3h-11.321C546.11,475.249,541.946,479.413,541.946,484.549L541.946,484.549z"/>
			</g>
			<linearGradient id="SVGID_38_" gradientUnits="userSpaceOnUse" x1="690.9739" y1="150.9978" x2="445.3283" y2="602.5522">
				<stop  offset="0" style="stop-color:#53D8FF"/>
				<stop  offset="1" style="stop-color:#3840F7"/>
			</linearGradient>
			<path fill="url(#SVGID_38_)" d="M503.939,483.789c0,6.501,5.27,11.771,11.771,11.771h0.717c6.501,0,11.771-5.27,11.771-11.771
				v-22.551c0-6.501-5.27-11.771-11.771-11.771h-0.717c-6.501,0-11.771,5.27-11.771,11.771V483.789z"/>
		</g>
	</g>
</g>
</svg>
