<?xml version="1.0" encoding="utf-8"?>
<!-- Generator: Adobe Illustrator 17.0.0, SVG Export Plug-In . SVG Version: 6.00 Build 0)  -->
<!DOCTYPE svg PUBLIC "-//W3C//DTD SVG 1.1//EN" "http://www.w3.org/Graphics/SVG/1.1/DTD/svg11.dtd">
<svg version="1.1" id="Layer_1" xmlns="http://www.w3.org/2000/svg" xmlns:xlink="http://www.w3.org/1999/xlink" x="0px" y="0px"
	 width="150px" height="150px" viewBox="0 0 150 150" enable-background="new 0 0 150 150" xml:space="preserve">
<g>
	
		<polyline id="XMLID_1873_" fill="#FFFFFF" stroke="#171C28" stroke-width="2.3009" stroke-linecap="round" stroke-linejoin="round" stroke-miterlimit="10" points="
		130.487,35.404 130.487,73.369 17.742,73.369 17.742,25.05 130.487,25.05 	"/>
	<g id="XMLID_1866_">
		
			<line id="XMLID_1872_" fill="none" stroke="#171C28" stroke-width="2.3009" stroke-linecap="round" stroke-linejoin="round" stroke-miterlimit="10" x1="17.742" y1="77.971" x2="130.487" y2="77.971"/>
		
			<line id="XMLID_1871_" fill="none" stroke="#171C28" stroke-width="2.3009" stroke-linecap="round" stroke-linejoin="round" stroke-miterlimit="10" x1="17.742" y1="83.493" x2="130.487" y2="83.493"/>
		
			<line id="XMLID_1870_" fill="none" stroke="#171C28" stroke-width="2.3009" stroke-linecap="round" stroke-linejoin="round" stroke-miterlimit="10" x1="17.742" y1="89.245" x2="130.487" y2="89.245"/>
		
			<line id="XMLID_1869_" fill="none" stroke="#171C28" stroke-width="2.3009" stroke-linecap="round" stroke-linejoin="round" stroke-miterlimit="10" x1="17.742" y1="94.767" x2="130.487" y2="94.767"/>
		
			<line id="XMLID_1868_" fill="none" stroke="#171C28" stroke-width="2.3009" stroke-linecap="round" stroke-linejoin="round" stroke-miterlimit="10" x1="17.742" y1="100.52" x2="130.487" y2="100.52"/>
		
			<line id="XMLID_1867_" fill="none" stroke="#171C28" stroke-width="2.3009" stroke-linecap="round" stroke-linejoin="round" stroke-miterlimit="10" x1="17.742" y1="106.042" x2="130.487" y2="106.042"/>
	</g>
	
		<polyline id="XMLID_1864_" fill="#FFFFFF" stroke="#171C28" stroke-width="2.3009" stroke-linecap="round" stroke-linejoin="round" stroke-miterlimit="10" points="
		41.902,36.094 32.698,36.094 24.645,42.997 24.645,57.263 32.008,66.006 41.902,66.006 	"/>
	
		<polyline id="XMLID_1863_" fill="#FFFFFF" stroke="#171C28" stroke-width="2.3009" stroke-linecap="round" stroke-linejoin="round" stroke-miterlimit="10" points="
		108.628,36.094 116.681,36.094 123.584,42.997 123.584,57.263 117.372,66.006 106.327,66.006 	"/>
	<g id="XMLID_1855_">
		
			<ellipse id="XMLID_1862_" fill="#FFFFFF" stroke="#171C28" stroke-width="2.3009" stroke-linecap="round" stroke-linejoin="round" stroke-miterlimit="10" cx="75.265" cy="49.209" rx="16.567" ry="16.336"/>
		<ellipse id="XMLID_1861_" fill="#253874" cx="75.265" cy="49.209" rx="12.885" ry="12.885"/>
	</g>
	
		<line id="XMLID_1854_" fill="none" stroke="#171C28" stroke-width="2.3009" stroke-linecap="round" stroke-linejoin="round" stroke-miterlimit="10" x1="32.698" y1="49.9" x2="46.503" y2="49.9"/>
	
		<line id="XMLID_1853_" fill="none" stroke="#171C28" stroke-width="2.3009" stroke-linecap="round" stroke-linejoin="round" stroke-miterlimit="10" x1="101.725" y1="49.9" x2="115.531" y2="49.9"/>
</g>
<path id="XMLID_1899_" fill="#FFFFFF" stroke="#171C28" stroke-width="2.3009" stroke-linecap="round" stroke-linejoin="round" stroke-miterlimit="10" d="
	M13.37,109.263V74.98l8.053-10.814h12.425c0,0,2.531,2.531-0.92,6.673c0,0-6.903,0.92-7.823,5.292
	c-0.92,4.372,4.832,5.522,5.982,8.743c1.15,3.221,3.221,15.646-2.761,24.85L13.37,109.263z"/>
<polyline id="XMLID_1875_" fill="#253874" points="11.299,126.75 11.299,109.493 44.203,109.493 44.203,126.75 "/>
<g>
	<g id="XMLID_1852_">
		
			<path fill="#FFFFFF" stroke="#171C28" stroke-width="2.3009" stroke-linecap="round" stroke-linejoin="round" stroke-miterlimit="10" d="
			M115.531,115.936c-12.655,0-23.009-10.354-23.009-23.009s10.354-23.009,23.009-23.009s23.009,10.354,23.009,23.009
			S128.186,115.936,115.531,115.936z"/>
		<g>
			<path fill="#171C28" d="M115.531,71.068c11.965,0,21.859,9.664,21.859,21.859c0,11.965-9.664,21.859-21.859,21.859
				s-21.859-9.664-21.859-21.859C93.672,80.962,103.566,71.068,115.531,71.068 M115.531,68.767c-13.345,0-24.16,10.814-24.16,24.16
				s10.814,24.16,24.16,24.16c13.345,0,24.16-10.814,24.16-24.16S128.876,68.767,115.531,68.767L115.531,68.767z"/>
		</g>
	</g>
	<g id="XMLID_1850_">
		<circle fill="#FFFFFF" cx="115.071" cy="91.776" r="1.15"/>
	</g>
</g>
<path fill="#253874" d="M108.016,76.678l6.898-0.078l10.138-0.037l-7.961,16.364l7.579-0.138l-11.459,20.17l5.771-15.858
	l-7.782-0.736l7.625-15.826l-10.644,0.847"/>
</svg>
