<?xml version="1.0" encoding="utf-8"?>
<!-- Generator: Adobe Illustrator 17.0.0, SVG Export Plug-In . SVG Version: 6.00 Build 0)  -->
<!DOCTYPE svg PUBLIC "-//W3C//DTD SVG 1.1//EN" "http://www.w3.org/Graphics/SVG/1.1/DTD/svg11.dtd">
<svg version="1.1" id="Layer_1" xmlns="http://www.w3.org/2000/svg" xmlns:xlink="http://www.w3.org/1999/xlink" x="0px" y="0px"
	 width="842.35px" height="595.3px" viewBox="0 0 842.35 595.3" enable-background="new 0 0 842.35 595.3" xml:space="preserve">
<path fill="#ABE0F9" stroke="#171C28" stroke-width="10" stroke-linecap="round" stroke-linejoin="round" stroke-miterlimit="10" d="
	M447.219,80.924l53.949,104.177c4.651,8.371,12.092,13.952,21.394,15.813l116.27,19.533c24.184,3.721,33.486,33.486,16.743,50.228
	L572.79,354.39c-6.511,6.511-9.302,15.813-8.371,25.114l17.673,116.27c3.721,24.184-21.394,41.857-42.787,30.695L434.197,474.38
	c-8.371-4.651-18.603-4.651-26.975,0l-105.108,53.019c-21.394,11.162-46.508-7.441-42.787-30.695l17.673-116.27
	c1.86-9.302-1.86-18.603-8.371-25.114l-82.784-83.714c-16.743-17.673-7.441-46.508,16.743-50.228l116.27-20.463
	c9.302-1.86,17.673-7.441,21.394-15.813L394.2,80.924C405.362,59.53,436.988,59.53,447.219,80.924z"/>
<g>
	
		<path fill="none" stroke="#FFFFFF" stroke-width="8.843" stroke-linecap="round" stroke-linejoin="round" stroke-dasharray="1.998,1.998" d="
		M444.151,109.026l47.705,92.12c4.112,7.402,10.692,12.337,18.917,13.982L613.586,232.4c21.385,3.29,29.61,29.61,14.805,44.415
		l-73.202,74.025c-5.758,5.757-8.225,13.982-7.402,22.207l15.627,102.812c3.29,21.385-18.917,37.012-37.835,27.142l-92.942-46.06
		c-7.402-4.112-16.45-4.112-23.852,0l-92.942,46.882c-18.917,9.87-41.125-6.58-37.835-27.142l15.627-102.812
		c1.645-8.225-1.645-16.45-7.402-22.207l-73.202-74.025c-14.805-15.627-6.58-41.125,14.805-44.415l102.812-18.095
		c8.225-1.645,15.627-6.58,18.917-13.982l47.705-92.12C407.139,90.108,435.104,90.108,444.151,109.026z"/>
</g>
<g id="XMLID_393_">
	<path fill="#0D3178" d="M573.721,556.233c-61.39,0-110.689-49.298-110.689-110.689s49.298-110.689,110.689-110.689
		s110.689,49.298,110.689,110.689S635.111,556.233,573.721,556.233z"/>
	<g>
		<path fill="#171C28" d="M573.721,340.437c57.67,0,105.108,47.438,105.108,105.108S631.39,550.652,573.721,550.652
			c-57.67,0-105.108-47.438-105.108-105.108S516.051,340.437,573.721,340.437 M573.721,329.275
			c-64.181,0-116.27,52.089-116.27,116.27s52.089,116.27,116.27,116.27s116.27-52.089,116.27-116.27
			S637.901,329.275,573.721,329.275L573.721,329.275z"/>
	</g>
</g>
<g>
	<path fill="#FFFFFF" d="M580.232,389.736v49.298h47.438v12.092h-47.438v49.298h-13.022v-49.298h-47.438v-12.092h47.438v-49.298
		H580.232z"/>
</g>
</svg>
