<?xml version="1.0" encoding="utf-8"?>
<!-- Generator: Adobe Illustrator 17.0.0, SVG Export Plug-In . SVG Version: 6.00 Build 0)  -->
<!DOCTYPE svg PUBLIC "-//W3C//DTD SVG 1.1//EN" "http://www.w3.org/Graphics/SVG/1.1/DTD/svg11.dtd">
<svg version="1.1" id="Layer_1" xmlns="http://www.w3.org/2000/svg" xmlns:xlink="http://www.w3.org/1999/xlink" x="0px" y="0px"
	 width="150px" height="150px" viewBox="0 0 150 150" enable-background="new 0 0 150 150" xml:space="preserve">
<g>
	
		<path id="XMLID_1590_" fill="#FFFFFF" stroke="#171C28" stroke-width="3.0679" stroke-linecap="round" stroke-linejoin="round" stroke-miterlimit="10" d="
		M107.34,10H34.733c-6.392,0-11.505,5.113-11.505,11.505v98.941v9.204l3.068-2.557l2.812,2.557l2.557-2.557l2.301,2.557l2.812-2.557
		l2.812,2.557l2.812-2.557l2.557,2.557l2.557-2.557l3.068,2.557l2.301-2.557l2.812,2.557l2.301-2.557l2.301,2.557l2.301-2.557
		l2.557,2.557l2.557-2.557l2.557,2.557l2.557-2.557l2.557,2.557l2.812-2.557l2.812,2.557l2.812-2.557l2.557,2.557l2.557-2.557
		l2.557,2.557l2.557-2.557l2.557,2.557"/>
	
		<path id="XMLID_1589_" fill="none" stroke="#4D5D69" stroke-width="3.0679" stroke-linecap="round" stroke-linejoin="round" stroke-miterlimit="10" d="
		M115.266,125.814c0,3.068,2.557,5.625,5.625,5.625"/>
	
		<line id="XMLID_1588_" fill="none" stroke="#171C28" stroke-width="3.0679" stroke-linecap="round" stroke-linejoin="round" stroke-miterlimit="10" x1="59.787" y1="28.152" x2="32.943" y2="28.152"/>
	
		<line id="XMLID_1587_" fill="none" stroke="#171C28" stroke-width="3.0679" stroke-linecap="round" stroke-linejoin="round" stroke-miterlimit="10" x1="89.7" y1="75.96" x2="33.71" y2="75.96"/>
	
		<line id="XMLID_1586_" fill="none" stroke="#171C28" stroke-width="3.0679" stroke-linecap="round" stroke-linejoin="round" stroke-miterlimit="10" x1="89.7" y1="85.675" x2="33.71" y2="85.675"/>
	
		<line id="XMLID_1585_" fill="none" stroke="#171C28" stroke-width="3.0679" stroke-linecap="round" stroke-linejoin="round" stroke-miterlimit="10" x1="89.7" y1="95.391" x2="33.71" y2="95.391"/>
	
		<line id="XMLID_1584_" fill="none" stroke="#171C28" stroke-width="3.0679" stroke-linecap="round" stroke-linejoin="round" stroke-miterlimit="10" x1="89.7" y1="105.106" x2="33.71" y2="105.106"/>
	
		<line id="XMLID_1583_" fill="none" stroke="#171C28" stroke-width="3.0679" stroke-linecap="round" stroke-linejoin="round" stroke-miterlimit="10" x1="89.7" y1="115.076" x2="60.299" y2="115.076"/>
	
		<line id="XMLID_1582_" fill="none" stroke="#171C28" stroke-width="3.0679" stroke-linecap="round" stroke-linejoin="round" stroke-miterlimit="10" x1="89.7" y1="38.123" x2="69.503" y2="38.123"/>
	
		<line id="XMLID_1581_" fill="none" stroke="#171C28" stroke-width="3.0679" stroke-linecap="round" stroke-linejoin="round" stroke-miterlimit="10" x1="64.645" y1="38.123" x2="32.943" y2="38.123"/>
	
		<rect id="XMLID_1580_" x="33.061" y="47.746" fill="#253874" stroke="#171C28" stroke-width="3.0679" stroke-linecap="round" stroke-linejoin="round" stroke-miterlimit="10" width="57.779" height="18.152"/>
	<g id="XMLID_1577_">
		
			<circle id="XMLID_1579_" fill="#FFFFFF" stroke="#171C28" stroke-width="3.0679" stroke-linecap="round" stroke-linejoin="round" stroke-miterlimit="10" cx="115.777" cy="117.889" r="17.385"/>
		
			<line id="XMLID_1578_" fill="none" stroke="#171C28" stroke-width="3.0679" stroke-linecap="round" stroke-linejoin="round" stroke-miterlimit="10" x1="124.47" y1="133.74" x2="132.651" y2="145.5"/>
	</g>
	
		<path id="XMLID_1593_" fill="none" stroke="#171C28" stroke-width="3.0679" stroke-linecap="round" stroke-linejoin="round" stroke-miterlimit="10" d="
		M101.46,29.686V16.903c0-3.835,3.068-6.903,6.903-6.903l0,0c3.835,0,6.903,3.068,6.903,6.903v3.835v73.63"/>
	
		<line id="XMLID_1594_" fill="none" stroke="#171C28" stroke-width="3.0679" stroke-linecap="round" stroke-linejoin="round" stroke-miterlimit="10" x1="101.46" y1="47.071" x2="101.46" y2="100.248"/>
</g>
</svg>
