<?xml version="1.0" encoding="utf-8"?>
<!-- Generator: Adobe Illustrator 23.1.1, SVG Export Plug-In . SVG Version: 6.00 Build 0)  -->
<svg version="1.1" id="Layer_1" xmlns="http://www.w3.org/2000/svg" xmlns:xlink="http://www.w3.org/1999/xlink" x="0px" y="0px"
	 viewBox="0 0 64 64" style="enable-background:new 0 0 64 64;" xml:space="preserve">
<style type="text/css">
	.st0{fill:#FFFFFF;stroke:#171C28;stroke-linecap:round;stroke-linejoin:round;stroke-miterlimit:10;}
	.st1{fill:#C74634;}
	.st2{fill:#FFFFFF;}
	.st3{fill:none;stroke:#171C28;stroke-linecap:round;stroke-linejoin:round;stroke-miterlimit:10;}
	.st4{fill:none;stroke:#4C5C68;stroke-width:1.0096;stroke-linecap:round;stroke-linejoin:round;stroke-miterlimit:10;}
</style>
<g>
	<g>
		<polygon id="XMLID_1460_" class="st0" points="1.8,35.5 10.2,32.2 20.3,27.4 29.8,32.3 37.9,35.6 37.9,45.1 1.8,45.1 		"/>
		<path id="XMLID_1459_" class="st1" d="M12,31.8l5.3,12.9c0,0,4,0,5.2,0l5.7-13l-8-3.7L12,31.8z"/>
		<path id="XMLID_1458_" class="st0" d="M21.4,5.7c-4.4-0.2-6,1-7.5,2.9c-1.4,1.7-1.6,4.3-1.6,4.3l0.1,8.1h15.9l0.2-9.4
			C28.5,11.7,27.7,5.9,21.4,5.7z"/>
		<path id="XMLID_1457_" class="st0" d="M20.3,36.3L20.3,36.3c-2.6,0-4.8-2.1-4.8-4.8v-3.8H25v3.8C25,34.2,22.9,36.3,20.3,36.3z"/>
		<path id="XMLID_1456_" class="st0" d="M22,29.5h-4.2c-2.4,0-4-2.2-4-4.7v-1.9c-0.9,0-0.2,0-0.3,0c-0.8,0-1.5-0.6-1.5-1.4
			s0.7-1.4,1.5-1.4c0,0-0.5,0,0.3,0v-9.4h12.9v9.4c0,0,0.2,0,0.3,0c0.8,0,1.4,0.6,1.4,1.4s-0.6,1.4-1.4,1.4c-0.1,0-0.3,0-0.3,0v2
			c0,1.3-0.8,2.6-1.8,3.5"/>
		<path id="XMLID_1455_" class="st2" d="M27.3,10v1.5l-2.9-0.8L23.9,13l-5.2-0.9l1,3c0,0-4-3.1-4.7-3.7c0,0-1.4-0.2-1.7,0.7
			c0,0-0.5-0.7,0.3-2.2"/>
		<path id="XMLID_1454_" class="st0" d="M26.8,11.7l-2.4-0.8L23.9,13l-5.2-0.9l1,3c0,0-4.3-3.1-4.9-3.7c0,0-0.9,0.1-0.9,1.1"/>
		<polyline id="XMLID_1453_" class="st0" points="9.4,32.7 9.4,40.7 12.5,40.7 11.7,42.9 		"/>
		<line id="XMLID_1433_" class="st3" x1="12" y1="31.9" x2="17.4" y2="44.9"/>
		<line id="XMLID_1432_" class="st3" x1="27.9" y1="31.6" x2="22.6" y2="44.9"/>
	</g>
	<g>
		<polygon id="XMLID_244_" class="st0" points="62.2,33.6 54.5,30.6 45.4,26.2 36.7,30.7 29.3,33.7 29.3,42.3 62.2,42.3 		"/>
		<path id="XMLID_243_" class="st1" d="M52.9,30.2L48.1,42c0,0-3.7,0-4.7,0l-5.2-11.9l7.3-3.4L52.9,30.2z"/>
		<path id="XMLID_242_" class="st0" d="M44.4,6.4c4-0.1,5.5,0.9,6.8,2.6c1.3,1.6,1.4,3.9,1.4,3.9l-0.1,7.4H38l-0.2-8.5
			C37.8,11.9,38.6,6.6,44.4,6.4z"/>
		<path id="XMLID_241_" class="st0" d="M45.4,34.3L45.4,34.3c2.4,0,4.4-2,4.4-4.4v-3.4H41V30C41,32.4,43,34.3,45.4,34.3z"/>
		<path id="XMLID_240_" class="st0" d="M43.7,28.1h3.8c2.2,0,3.7-2,3.7-4.3V22c0.8,0,0.2,0,0.3,0c0.7,0,1.4-0.6,1.4-1.3
			s-0.7-1.3-1.4-1.3c0,0,0.5,0-0.3,0v-8.6H39.4v8.6c0,0-0.2,0-0.3,0c-0.7,0-1.3,0.6-1.3,1.3s0.6,1.3,1.3,1.3c0.1,0,0.3,0,0.3,0v1.8
			c0,1.2,0.8,2.4,1.6,3.2"/>
		<path id="XMLID_2_" class="st2" d="M40,9.2l-1.2,1.5l0.1,1.1l2.7-0.7l0.5,2l4.7-0.8L45.9,15c0,0,3.7-2.9,4.3-3.4
			c0,0,1.3-0.2,1.5,0.7c0,0,0.5-0.6-0.3-2"/>
		<path id="XMLID_238_" class="st0" d="M39.4,11.8l2.1-0.8l0.5,2l4.7-0.8L45.9,15c0,0,3.9-2.8,4.5-3.3c0,0,0.9,0.1,0.8,1"/>
		<polyline id="XMLID_237_" class="st0" points="55.3,31 55.3,38.3 52.5,38.3 53.2,40.3 		"/>
		<polyline id="XMLID_236_" class="st4" points="37,31 37,37 39,37 38.7,39.5 		"/>
		<line id="XMLID_234_" class="st3" x1="52.9" y1="30.3" x2="47.9" y2="42.1"/>
		<line id="XMLID_223_" class="st3" x1="38.4" y1="30" x2="43.2" y2="42.1"/>
	</g>
	<g>
		<polygon id="XMLID_221_" class="st0" points="12.6,47.5 22.1,43.8 33.4,38.4 44.1,43.9 53.3,47.6 53.3,58.3 12.6,58.3 		"/>
		<path id="XMLID_220_" class="st1" d="M24.1,43.3L30,57.9c0,0,4.5,0,5.8,0l6.4-14.7l-9-4.2L24.1,43.3z"/>
		<path id="XMLID_219_" class="st0" d="M34.6,13.9c-5-0.2-6.8,1.2-8.4,3.3c-1.6,2-1.8,4.9-1.8,4.9l0.1,9.2h17.9l0.2-10.6
			C42.7,20.7,41.8,14.1,34.6,13.9z"/>
		<path id="XMLID_218_" class="st0" d="M33.5,48.5h-0.2c-2.9,0-5.3-2.4-5.3-5.3v-4.3h10.8v4.3C38.8,46.1,36.4,48.5,33.5,48.5z"/>
		<path id="XMLID_217_" class="st0" d="M35.4,40.7h-4.7c-2.8,0-4.6-2.5-4.6-5.3v-2.2c-1,0-0.3,0-0.3,0c-0.9,0-1.7-0.7-1.7-1.6
			s0.8-1.6,1.7-1.6c0.1,0-0.6,0,0.4,0V19.5h14.6v10.6c0,0,0.2,0,0.3,0c0.9,0,1.6,0.7,1.6,1.6c0,0.9-0.7,1.6-1.6,1.6
			c-0.1,0-0.3,0-0.3,0v2.2c0,1.5-0.9,2.9-2,3.9"/>
		<path id="XMLID_216_" class="st2" d="M41.4,18.8v1.7l-3.3-0.9l-0.6,2.5l-5.8-1l1.1,3.4c0,0-4.6-3.5-5.3-4.2c0,0-1.9-0.2-1.8,1
			c0,0-0.9-1.2,0.3-2.6"/>
		<path id="XMLID_215_" class="st0" d="M40.7,20.6L38,19.7l-0.6,2.5l-5.8-1l1.1,3.4c0,0-4.8-3.5-5.5-4.1c0,0-1.1,0.1-1,1.3"/>
		<polyline id="XMLID_214_" class="st0" points="21.1,44.8 21.1,53 24.5,53 23.6,55.9 		"/>
		<polyline id="XMLID_213_" class="st0" points="42.2,43.7 42.2,53 41.2,53 40.8,56.1 		"/>
		<line id="XMLID_212_" class="st3" x1="24.1" y1="43.4" x2="30.2" y2="58.1"/>
		<line id="XMLID_208_" class="st3" x1="42" y1="43.2" x2="36.1" y2="58.1"/>
	</g>
</g>
</svg>
