<?xml version="1.0" encoding="utf-8"?>
<!-- Generator: Adobe Illustrator 17.0.0, SVG Export Plug-In . SVG Version: 6.00 Build 0)  -->
<!DOCTYPE svg PUBLIC "-//W3C//DTD SVG 1.1//EN" "http://www.w3.org/Graphics/SVG/1.1/DTD/svg11.dtd">
<svg version="1.1" id="Layer_1" xmlns="http://www.w3.org/2000/svg" xmlns:xlink="http://www.w3.org/1999/xlink" x="0px" y="0px"
	 width="150px" height="150px" viewBox="0 0 150 150" enable-background="new 0 0 150 150" xml:space="preserve">
<g>
	<g>
		
			<polygon id="XMLID_1460_" fill="#FFFFFF" stroke="#171C28" stroke-width="2.3243" stroke-linecap="round" stroke-linejoin="round" stroke-miterlimit="10" points="
			5,84.155 24.524,76.485 48,65.328 70.081,76.717 88.909,84.387 88.909,106.469 5,106.469 		"/>
		<path id="XMLID_1459_" fill="#253874" d="M28.708,75.555l12.319,29.984c0,0,9.297,0,12.087,0l13.249-30.216l-18.595-8.6
			L28.708,75.555z"/>
		
			<path id="XMLID_1458_" fill="#FFFFFF" stroke="#171C28" stroke-width="2.3243" stroke-linecap="round" stroke-linejoin="round" stroke-miterlimit="10" d="
			M50.557,14.89c-10.227-0.465-13.946,2.324-17.433,6.741c-3.254,3.951-3.719,9.995-3.719,9.995l0.232,18.827h36.957l0.465-21.849
			C67.06,28.836,65.2,15.354,50.557,14.89z"/>
		
			<path id="XMLID_1457_" fill="#FFFFFF" stroke="#171C28" stroke-width="2.3243" stroke-linecap="round" stroke-linejoin="round" stroke-miterlimit="10" d="
			M48,86.014L48,86.014c-6.043,0-11.157-4.881-11.157-11.157v-8.832h22.081v8.832C58.925,81.133,54.043,86.014,48,86.014z"/>
		
			<path id="XMLID_1456_" fill="#FFFFFF" stroke="#171C28" stroke-width="2.3243" stroke-linecap="round" stroke-linejoin="round" stroke-miterlimit="10" d="
			M51.952,70.209h-9.762c-5.578,0-9.297-5.114-9.297-10.924v-4.416c-2.092,0-0.465,0-0.697,0c-1.859,0-3.487-1.395-3.487-3.254
			c0-1.859,1.627-3.254,3.487-3.254c0,0-1.162,0,0.697,0V26.511h29.984V48.36c0,0,0.465,0,0.697,0c1.859,0,3.254,1.395,3.254,3.254
			c0,1.859-1.395,3.254-3.254,3.254c-0.232,0-0.697,0-0.697,0v4.649c0,3.022-1.859,6.043-4.184,8.135"/>
		<path id="XMLID_1455_" fill="#FFFFFF" d="M64.271,24.884v3.487l-6.741-1.859l-1.162,5.346l-12.087-2.092l2.324,6.973
			c0,0-9.297-7.205-10.924-8.6c0,0-3.254-0.465-3.951,1.627c0,0-1.162-1.627,0.697-5.114"/>
		
			<path id="XMLID_1454_" fill="#FFFFFF" stroke="#171C28" stroke-width="2.3243" stroke-linecap="round" stroke-linejoin="round" stroke-miterlimit="10" d="
			M63.108,28.836l-5.578-1.859l-1.162,4.881l-12.087-2.092l2.324,6.973c0,0-9.995-7.205-11.389-8.6c0,0-2.092,0.232-2.092,2.557"/>
		
			<polyline id="XMLID_1453_" fill="#FFFFFF" stroke="#171C28" stroke-width="2.3243" stroke-linecap="round" stroke-linejoin="round" stroke-miterlimit="10" points="
			22.665,77.647 22.665,96.242 29.87,96.242 28.011,101.355 		"/>
		
			<line id="XMLID_1433_" fill="none" stroke="#171C28" stroke-width="2.3243" stroke-linecap="round" stroke-linejoin="round" stroke-miterlimit="10" x1="28.708" y1="75.787" x2="41.26" y2="106.004"/>
		
			<line id="XMLID_1432_" fill="none" stroke="#171C28" stroke-width="2.3243" stroke-linecap="round" stroke-linejoin="round" stroke-miterlimit="10" x1="65.665" y1="75.09" x2="53.346" y2="106.004"/>
	</g>
	<g>
		
			<polygon id="XMLID_244_" fill="#FFFFFF" stroke="#171C28" stroke-width="2.3243" stroke-linecap="round" stroke-linejoin="round" stroke-miterlimit="10" points="
			145.39,79.739 127.493,72.766 106.341,62.539 86.119,72.998 68.919,79.971 68.919,99.961 145.39,99.961 		"/>
		<path id="XMLID_243_" fill="#D72027" d="M123.774,71.836l-11.157,27.427c0,0-8.6,0-10.924,0l-12.087-27.66l16.968-7.903
			L123.774,71.836z"/>
		
			<path id="XMLID_242_" fill="#FFFFFF" stroke="#171C28" stroke-width="2.3243" stroke-linecap="round" stroke-linejoin="round" stroke-miterlimit="10" d="
			M104.017,16.517c9.297-0.232,12.784,2.092,15.806,6.043c3.022,3.719,3.254,9.065,3.254,9.065l-0.232,17.2H89.141l-0.465-19.757
			C88.676,29.3,90.536,16.981,104.017,16.517z"/>
		
			<path id="XMLID_241_" fill="#FFFFFF" stroke="#171C28" stroke-width="2.3243" stroke-linecap="round" stroke-linejoin="round" stroke-miterlimit="10" d="
			M106.341,81.366L106.341,81.366c5.578,0,10.227-4.649,10.227-10.227v-7.903H96.114v8.135
			C96.114,76.95,100.763,81.366,106.341,81.366z"/>
		
			<path id="XMLID_240_" fill="#FFFFFF" stroke="#171C28" stroke-width="2.3243" stroke-linecap="round" stroke-linejoin="round" stroke-miterlimit="10" d="
			M102.39,66.955h8.833c5.114,0,8.6-4.649,8.6-9.995v-4.184c1.859,0,0.465,0,0.697,0c1.627,0,3.254-1.395,3.254-3.022
			s-1.627-3.022-3.254-3.022c0,0,1.162,0-0.697,0V26.744H92.395v19.989c0,0-0.465,0-0.697,0c-1.627,0-3.022,1.395-3.022,3.022
			s1.395,3.022,3.022,3.022c0.232,0,0.697,0,0.697,0v4.184c0,2.789,1.859,5.578,3.719,7.438"/>
		<path id="XMLID_2_" fill="#FFFFFF" d="M93.79,23.025l-2.789,3.487l0.232,2.557l6.276-1.627l1.162,4.649l10.924-1.859l-2.092,6.276
			c0,0,8.6-6.741,9.995-7.903c0,0,3.022-0.465,3.487,1.627c0,0,1.162-1.395-0.697-4.649"/>
		
			<path id="XMLID_238_" fill="#FFFFFF" stroke="#171C28" stroke-width="2.3243" stroke-linecap="round" stroke-linejoin="round" stroke-miterlimit="10" d="
			M92.395,29.068l4.881-1.859l1.162,4.649l10.924-1.859l-1.859,6.508c0,0,9.065-6.508,10.46-7.67c0,0,2.092,0.232,1.859,2.324"/>
		
			<polyline id="XMLID_237_" fill="#FFFFFF" stroke="#171C28" stroke-width="2.3243" stroke-linecap="round" stroke-linejoin="round" stroke-miterlimit="10" points="
			129.352,73.695 129.352,90.663 122.844,90.663 124.471,95.312 		"/>
		
			<polyline id="XMLID_236_" fill="none" stroke="#4D5D69" stroke-width="2.3243" stroke-linecap="round" stroke-linejoin="round" stroke-miterlimit="10" points="
			86.817,73.695 86.817,87.642 91.465,87.642 90.768,93.452 		"/>
		
			<line id="XMLID_234_" fill="none" stroke="#171C28" stroke-width="2.3243" stroke-linecap="round" stroke-linejoin="round" stroke-miterlimit="10" x1="123.774" y1="72.068" x2="112.152" y2="99.496"/>
		
			<line id="XMLID_223_" fill="none" stroke="#171C28" stroke-width="2.3243" stroke-linecap="round" stroke-linejoin="round" stroke-miterlimit="10" x1="90.071" y1="71.371" x2="101.228" y2="99.496"/>
	</g>
	<g>
		
			<polygon id="XMLID_221_" fill="#FFFFFF" stroke="#171C28" stroke-width="2.3243" stroke-linecap="round" stroke-linejoin="round" stroke-miterlimit="10" points="
			30.103,112.047 52.184,103.447 78.449,90.896 103.32,103.679 124.704,112.28 124.704,137.15 30.103,137.15 		"/>
		<path id="XMLID_220_" fill="#04984A" d="M56.833,102.285l13.714,33.935c0,0,10.46,0,13.481,0l14.876-34.168L77.984,92.29
			L56.833,102.285z"/>
		
			<path id="XMLID_219_" fill="#FFFFFF" stroke="#171C28" stroke-width="2.3243" stroke-linecap="round" stroke-linejoin="round" stroke-miterlimit="10" d="
			M81.238,33.949c-11.622-0.465-15.806,2.789-19.524,7.67c-3.719,4.649-4.184,11.389-4.184,11.389l0.232,21.384h41.606l0.465-24.638
			C100.065,49.755,97.974,34.414,81.238,33.949z"/>
		
			<path id="XMLID_218_" fill="#FFFFFF" stroke="#171C28" stroke-width="2.3243" stroke-linecap="round" stroke-linejoin="round" stroke-miterlimit="10" d="
			M78.682,114.371h-0.465c-6.741,0-12.319-5.578-12.319-12.319v-9.995h25.103v9.995C91.001,108.793,85.422,114.371,78.682,114.371z"
			/>
		
			<path id="XMLID_217_" fill="#FFFFFF" stroke="#171C28" stroke-width="2.3243" stroke-linecap="round" stroke-linejoin="round" stroke-miterlimit="10" d="
			M83.098,96.242H72.173c-6.508,0-10.692-5.811-10.692-12.319v-5.114c-2.324,0-0.697,0-0.697,0c-2.092,0-3.951-1.627-3.951-3.719
			c0-2.092,1.859-3.719,3.951-3.719c0.232,0-1.395,0,0.93,0V46.966h33.935v24.638c0,0,0.465,0,0.697,0
			c2.092,0,3.719,1.627,3.719,3.719s-1.627,3.719-3.719,3.719c-0.232,0-0.697,0-0.697,0v5.114c0,3.487-2.092,6.741-4.649,9.065"/>
		<path id="XMLID_216_" fill="#FFFFFF" d="M97.044,45.338v3.951l-7.67-2.092l-1.395,5.811l-13.481-2.324l2.557,7.903
			c0,0-10.692-8.135-12.319-9.762c0,0-4.416-0.465-4.184,2.324c0,0-2.092-2.789,0.697-6.043"/>
		
			<path id="XMLID_215_" fill="#FFFFFF" stroke="#171C28" stroke-width="2.3243" stroke-linecap="round" stroke-linejoin="round" stroke-miterlimit="10" d="
			M95.417,49.522l-6.276-2.092l-1.395,5.811l-13.481-2.324l2.557,7.903c0,0-11.157-8.135-12.784-9.53c0,0-2.557,0.232-2.324,3.022"
			/>
		
			<polyline id="XMLID_214_" fill="#FFFFFF" stroke="#171C28" stroke-width="2.3243" stroke-linecap="round" stroke-linejoin="round" stroke-miterlimit="10" points="
			49.86,105.771 49.86,124.831 57.762,124.831 55.671,131.572 		"/>
		
			<polyline id="XMLID_213_" fill="#FFFFFF" stroke="#171C28" stroke-width="2.3243" stroke-linecap="round" stroke-linejoin="round" stroke-miterlimit="10" points="
			98.903,103.215 98.903,124.831 96.579,124.831 95.649,132.036 		"/>
		
			<line id="XMLID_212_" fill="none" stroke="#171C28" stroke-width="2.3243" stroke-linecap="round" stroke-linejoin="round" stroke-miterlimit="10" x1="56.833" y1="102.517" x2="71.011" y2="136.685"/>
		
			<line id="XMLID_208_" fill="none" stroke="#171C28" stroke-width="2.3243" stroke-linecap="round" stroke-linejoin="round" stroke-miterlimit="10" x1="98.438" y1="102.052" x2="84.725" y2="136.685"/>
	</g>
</g>
</svg>
