<?xml version="1.0" encoding="utf-8"?>
<!-- Generator: Adobe Illustrator 23.0.1, SVG Export Plug-In . SVG Version: 6.00 Build 0)  -->
<svg version="1.1" id="Layer_1" xmlns="http://www.w3.org/2000/svg" xmlns:xlink="http://www.w3.org/1999/xlink" x="0px" y="0px"
	 viewBox="0 0 64 64" style="enable-background:new 0 0 64 64;" xml:space="preserve">
<style type="text/css">
	.Drop_x0020_Shadow{fill:none;}
	.Outer_x0020_Glow_x0020_5_x0020_pt{fill:none;}
	.Blue_x0020_Neon{fill:none;stroke:#8AACDA;stroke-width:7;stroke-linecap:round;stroke-linejoin:round;}
	.Chrome_x0020_Highlight{fill:url(#SVGID_1_);stroke:#FFFFFF;stroke-width:0.3629;stroke-miterlimit:1;}
	.Jive_GS{fill:#FFDD00;}
	.Alyssa_GS{fill:#A6D0E4;}
	.st0{fill:#FFFFFF;stroke:#171C28;stroke-linecap:round;stroke-linejoin:round;stroke-miterlimit:10;}
	.st1{fill:#FFFFFF;}
	.st2{fill:#171C28;}
	.st3{fill:none;stroke:#4C5C68;stroke-width:0.9106;stroke-miterlimit:10;}
	.st4{fill:none;stroke:#171C28;stroke-linecap:round;stroke-linejoin:round;stroke-miterlimit:10;}
	.st5{fill:none;stroke:#4C5C68;stroke-width:1.0828;stroke-linecap:round;stroke-linejoin:round;stroke-miterlimit:10;}
	.st6{fill:none;stroke:#4C5C68;stroke-width:1.1103;stroke-linecap:round;stroke-linejoin:round;stroke-miterlimit:10;}
	.st7{fill:#C74634;stroke:#171C28;stroke-linecap:round;stroke-linejoin:round;stroke-miterlimit:10;}
	.st8{fill:#C74634;}
	.st9{fill:#FFFFFF;stroke:#171C28;stroke-width:0.9273;stroke-linecap:round;stroke-linejoin:round;stroke-miterlimit:10;}
	.st10{fill:#4C5C68;}
	.st11{fill:#FFFFFF;stroke:#171C28;stroke-width:0.9403;stroke-linecap:round;stroke-linejoin:round;stroke-miterlimit:10;}
	.st12{fill:none;stroke:#4C5C68;stroke-linecap:round;stroke-linejoin:round;stroke-miterlimit:10;}
	.st13{fill:#CEE8FA;}
	.st14{fill:#CEE8FA;stroke:#4C5C68;stroke-linecap:round;stroke-linejoin:round;stroke-miterlimit:10;}
	.st15{fill:#F9CA38;stroke:#4C5C68;stroke-linecap:round;stroke-linejoin:round;stroke-miterlimit:10;}
	.st16{fill:#FFFFFF;stroke:#4C5C68;stroke-linecap:round;stroke-linejoin:round;stroke-miterlimit:10;}
	.st17{fill:#FFFFFF;stroke:#FEBD2E;stroke-linecap:round;stroke-linejoin:round;stroke-miterlimit:10;}
	.st18{fill:#FEBD2E;stroke:#4C5C68;stroke-linecap:round;stroke-linejoin:round;stroke-miterlimit:10;}
	.st19{fill:#286090;}
	.st20{fill:#F9CA38;}
	.st21{fill:#FFFFFF;stroke:#4C5C68;stroke-width:1.2173;stroke-linecap:round;stroke-linejoin:round;stroke-miterlimit:10;}
	.st22{fill:#FFFFFF;stroke:#4C5C68;stroke-width:0.8881;stroke-linecap:round;stroke-linejoin:round;stroke-miterlimit:10;}
	.st23{fill:none;stroke:#CEE8FA;stroke-width:1.0985;stroke-linecap:round;stroke-linejoin:round;stroke-miterlimit:10;}
	.st24{opacity:0.6;fill:#286090;}
	.st25{fill:none;stroke:#4C5C68;stroke-width:1.0254;stroke-linecap:round;stroke-linejoin:round;stroke-miterlimit:10;}
	.st26{fill:#FFFFFF;stroke:#4C5C68;stroke-miterlimit:10;}
	.st27{fill:none;stroke:#286090;stroke-linecap:round;stroke-linejoin:round;stroke-miterlimit:10;stroke-dasharray:0,2;}
	.st28{fill:none;stroke:#286090;stroke-linecap:round;stroke-linejoin:round;stroke-miterlimit:10;}
	.st29{fill:#FEBD2E;}
	.st30{fill:none;stroke:#CEE8FA;stroke-linecap:round;stroke-linejoin:round;stroke-miterlimit:10;}
	.st31{fill:#FFFFFF;stroke:#171C28;stroke-miterlimit:10;}
	.st32{fill:#FFFFFF;stroke:#171C28;stroke-width:1.0268;stroke-linecap:round;stroke-linejoin:round;stroke-miterlimit:10;}
	.st33{fill:none;stroke:#171C28;stroke-width:1.0268;stroke-linecap:round;stroke-linejoin:round;stroke-miterlimit:10;}
	.st34{fill:#6B6B6B;}
	.st35{fill:none;stroke:#FFFFFF;stroke-width:1.0985;stroke-linecap:round;stroke-linejoin:round;stroke-miterlimit:10;}
	.st36{fill:#FFFFFF;stroke:#171C28;stroke-width:1.0688;stroke-linecap:round;stroke-linejoin:round;stroke-miterlimit:10;}
	.st37{fill:none;stroke:#4C5C68;stroke-width:1.1073;stroke-linecap:round;stroke-linejoin:round;stroke-miterlimit:10;}
	.st38{fill:none;stroke:#4C5C68;stroke-width:1.0096;stroke-linecap:round;stroke-linejoin:round;stroke-miterlimit:10;}
	.st39{fill:#FFFFFF;stroke:#171C28;stroke-width:1.1331;stroke-linecap:round;stroke-linejoin:round;stroke-miterlimit:10;}
	.st40{fill:none;stroke:#171C28;stroke-linecap:round;stroke-linejoin:round;stroke-miterlimit:10;stroke-dasharray:0,2;}
	.st41{fill:none;stroke:#BC0110;stroke-linecap:round;stroke-linejoin:round;stroke-miterlimit:10;}
	.st42{fill:none;stroke:#333333;stroke-width:2;stroke-linecap:round;stroke-linejoin:round;stroke-miterlimit:10;}
	.st43{fill:#FFFFFF;stroke:#171C28;stroke-width:1.211;stroke-linecap:round;stroke-linejoin:round;stroke-miterlimit:10;}
	.st44{fill:#171C28;stroke:#000000;stroke-width:0.2;stroke-linecap:round;stroke-linejoin:round;stroke-miterlimit:10;}
	.st45{fill:#FFFFFF;stroke:#4C5C68;stroke-width:0.9531;stroke-linecap:round;stroke-linejoin:round;stroke-miterlimit:10;}
	.st46{fill:#5FB0E5;}
	.st47{fill:#D2E9F7;}
	.st48{fill:#0686D8;}
	.st49{fill:#9ECFEF;}
	.st50{fill:none;stroke:#4C5C68;stroke-miterlimit:10;}
	.st51{fill:#4C5C68;stroke:#4C5C68;stroke-width:0.4;stroke-linecap:round;stroke-linejoin:round;stroke-miterlimit:10;}
	.st52{fill:#FED65C;}
	.st53{fill:none;stroke:#FFFFFF;stroke-linecap:round;stroke-linejoin:round;stroke-miterlimit:10;}
	.st54{fill:#EBF0F2;}
	.st55{fill:#B8D1CD;}
	.st56{fill:#DCEAE7;}
	.st57{fill:#EFB19E;}
	.st58{fill:#CCED9F;}
	.st59{fill:#A4EDE6;}
	.st60{fill:#111416;}
	.st61{fill:#567771;}
	.st62{fill:#FACC40;}
	.st63{fill:#FFF380;}
	.st64{fill:#E2932B;}
	.st65{fill:#78A09A;}
	.st66{fill:#253330;}
	.st67{fill:#FFFFFF;stroke:#4C5C68;stroke-width:1.1677;stroke-linecap:round;stroke-linejoin:round;stroke-miterlimit:10;}
	.st68{fill:#FFFFFF;stroke:#4C5C68;stroke-width:1.1657;stroke-linecap:round;stroke-linejoin:round;stroke-miterlimit:10;}
	.st69{fill:#FFFFFF;stroke:#171C28;stroke-width:0.9983;stroke-linecap:round;stroke-linejoin:round;stroke-miterlimit:10;}
	.st70{fill:#FFFFFF;stroke:#171C28;stroke-width:1.0727;stroke-linecap:round;stroke-linejoin:round;stroke-miterlimit:10;}
	.st71{fill:#C74634;stroke:#FFFFFF;stroke-linecap:round;stroke-linejoin:round;stroke-miterlimit:10;}
	.st72{fill:#CEE8FA;stroke:#4C5C68;stroke-width:0.965;stroke-linecap:round;stroke-linejoin:round;stroke-miterlimit:10;}
	.st73{fill:#41464B;}
	.st74{fill:#FFFFFF;stroke:#171C28;stroke-width:1.1013;stroke-linecap:round;stroke-linejoin:round;stroke-miterlimit:10;}
	.st75{fill:none;stroke:#171C28;stroke-width:1.1013;stroke-linecap:round;stroke-linejoin:round;stroke-miterlimit:10;}
	.st76{fill:#C74634;stroke:#171C28;stroke-width:1.1013;stroke-linecap:round;stroke-linejoin:round;stroke-miterlimit:10;}
	.st77{stroke:#171C28;stroke-linecap:round;stroke-linejoin:round;stroke-miterlimit:10;}
	.st78{fill:#FFFFFF;stroke:#171C28;stroke-width:0.9891;stroke-linecap:round;stroke-linejoin:round;stroke-miterlimit:10;}
	.st79{fill:none;stroke:#171C28;stroke-width:0.5274;stroke-linecap:round;stroke-linejoin:round;stroke-miterlimit:10;}
	.st80{fill:none;stroke:#4C5C68;stroke-width:1.1135;stroke-linecap:round;stroke-linejoin:round;stroke-miterlimit:10;}
	.st81{fill:#F9CA38;stroke:#4C5C68;stroke-width:1.1723;stroke-miterlimit:10;}
	.st82{fill:none;stroke:#4C5C68;stroke-width:1.0796;stroke-linecap:round;stroke-linejoin:round;stroke-miterlimit:10;}
	.st83{fill:none;stroke:#4C5C68;stroke-width:1.136;stroke-linecap:round;stroke-linejoin:round;stroke-miterlimit:10;}
	.st84{fill:#FFFFFF;stroke:#4C5C68;stroke-width:1.0796;stroke-linecap:round;stroke-linejoin:round;stroke-miterlimit:10;}
	.st85{fill:#007395;}
	.st86{fill:#FFFFFF;stroke:#171C28;stroke-width:0.8477;stroke-linecap:round;stroke-linejoin:round;stroke-miterlimit:10;}
	.st87{fill:#FFFFFF;stroke:#171C28;stroke-width:1.0138;stroke-linecap:round;stroke-linejoin:round;stroke-miterlimit:10;}
	.st88{fill:#FFFFFF;stroke:#171C28;stroke-width:0.9779;stroke-linecap:round;stroke-linejoin:round;stroke-miterlimit:10;}
	.st89{fill:none;stroke:#595959;stroke-width:1.6811;stroke-linecap:round;stroke-linejoin:round;}
	.st90{fill:none;stroke:#595959;stroke-width:1.6811;stroke-miterlimit:10;}
</style>
<linearGradient id="SVGID_1_" gradientUnits="userSpaceOnUse" x1="-290" y1="-918.0768" x2="-290" y2="-919.0768">
	<stop  offset="0" style="stop-color:#656565"/>
	<stop  offset="0.618" style="stop-color:#1B1B1B"/>
	<stop  offset="0.6292" style="stop-color:#545454"/>
	<stop  offset="0.9831" style="stop-color:#3E3E3E"/>
</linearGradient>
<g>
	<g>
		<polygon id="XMLID_1460_" class="st0" points="1.8,35.5 10.2,32.2 20.3,27.4 29.8,32.3 37.9,35.6 37.9,45.1 1.8,45.1 		"/>
		<path id="XMLID_1459_" class="st8" d="M12,31.8l5.3,12.9c0,0,4,0,5.2,0l5.7-13l-8-3.7L12,31.8z"/>
		<path id="XMLID_1458_" class="st0" d="M21.4,5.7c-4.4-0.2-6,1-7.5,2.9c-1.4,1.7-1.6,4.3-1.6,4.3l0.1,8.1h15.9l0.2-9.4
			C28.5,11.7,27.7,5.9,21.4,5.7z"/>
		<path id="XMLID_1457_" class="st0" d="M20.3,36.3L20.3,36.3c-2.6,0-4.8-2.1-4.8-4.8v-3.8H25v3.8C25,34.2,22.9,36.3,20.3,36.3z"/>
		<path id="XMLID_1456_" class="st0" d="M22,29.5h-4.2c-2.4,0-4-2.2-4-4.7v-1.9c-0.9,0-0.2,0-0.3,0c-0.8,0-1.5-0.6-1.5-1.4
			s0.7-1.4,1.5-1.4c0,0-0.5,0,0.3,0v-9.4h12.9v9.4c0,0,0.2,0,0.3,0c0.8,0,1.4,0.6,1.4,1.4s-0.6,1.4-1.4,1.4c-0.1,0-0.3,0-0.3,0v2
			c0,1.3-0.8,2.6-1.8,3.5"/>
		<path id="XMLID_1455_" class="st1" d="M27.3,10l0,1.5l-2.9-0.8L23.9,13l-5.2-0.9l1,3c0,0-4-3.1-4.7-3.7c0,0-1.4-0.2-1.7,0.7
			c0,0-0.5-0.7,0.3-2.2"/>
		<path id="XMLID_1454_" class="st0" d="M26.8,11.7l-2.4-0.8L23.9,13l-5.2-0.9l1,3c0,0-4.3-3.1-4.9-3.7c0,0-0.9,0.1-0.9,1.1"/>
		<polyline id="XMLID_1453_" class="st0" points="9.4,32.7 9.4,40.7 12.5,40.7 11.7,42.9 		"/>
		<polyline id="XMLID_1434_" class="st37" points="29.4,32.7 29.4,39.3 27.2,39.3 27.5,42.1 		"/>
		<line id="XMLID_1433_" class="st0" x1="12" y1="31.9" x2="17.4" y2="44.9"/>
		<line id="XMLID_1432_" class="st0" x1="27.9" y1="31.6" x2="22.6" y2="44.9"/>
	</g>
	<g>
		<polygon id="XMLID_244_" class="st0" points="62.2,33.6 54.5,30.6 45.4,26.2 36.7,30.7 29.3,33.7 29.3,42.3 62.2,42.3 		"/>
		<path id="XMLID_243_" class="st8" d="M52.9,30.2L48.1,42c0,0-3.7,0-4.7,0l-5.2-11.9l7.3-3.4L52.9,30.2z"/>
		<path id="XMLID_242_" class="st0" d="M44.4,6.4c4-0.1,5.5,0.9,6.8,2.6c1.3,1.6,1.4,3.9,1.4,3.9l-0.1,7.4H38l-0.2-8.5
			C37.8,11.9,38.6,6.6,44.4,6.4z"/>
		<path id="XMLID_241_" class="st0" d="M45.4,34.3L45.4,34.3c2.4,0,4.4-2,4.4-4.4v-3.4H41V30C41,32.4,43,34.3,45.4,34.3z"/>
		<path id="XMLID_240_" class="st0" d="M43.7,28.1h3.8c2.2,0,3.7-2,3.7-4.3V22c0.8,0,0.2,0,0.3,0c0.7,0,1.4-0.6,1.4-1.3
			s-0.7-1.3-1.4-1.3c0,0,0.5,0-0.3,0v-8.6H39.4v8.6c0,0-0.2,0-0.3,0c-0.7,0-1.3,0.6-1.3,1.3s0.6,1.3,1.3,1.3c0.1,0,0.3,0,0.3,0v1.8
			c0,1.2,0.8,2.4,1.6,3.2"/>
		<path id="XMLID_239_" class="st1" d="M38.9,10.3l0,1.4l2.7-0.7l0.5,2l4.7-0.8L45.9,15c0,0,3.7-2.9,4.3-3.4c0,0,1.3-0.2,1.5,0.7
			c0,0,0.5-0.6-0.3-2"/>
		<path id="XMLID_238_" class="st0" d="M39.4,11.8l2.1-0.8l0.5,2l4.7-0.8L45.9,15c0,0,3.9-2.8,4.5-3.3c0,0,0.9,0.1,0.8,1"/>
		<polyline id="XMLID_237_" class="st0" points="55.3,31 55.3,38.3 52.5,38.3 53.2,40.3 		"/>
		<polyline id="XMLID_236_" class="st38" points="37,31 37,37 39,37 38.7,39.5 		"/>
		<line id="XMLID_234_" class="st0" x1="52.9" y1="30.3" x2="47.9" y2="42.1"/>
		<line id="XMLID_223_" class="st0" x1="38.4" y1="30" x2="43.2" y2="42.1"/>
	</g>
	<g>
		<polygon id="XMLID_221_" class="st0" points="12.6,47.5 22.1,43.8 33.4,38.4 44.1,43.9 53.3,47.6 53.3,58.3 12.6,58.3 		"/>
		<path id="XMLID_220_" class="st8" d="M24.1,43.3L30,57.9c0,0,4.5,0,5.8,0l6.4-14.7L33.2,39L24.1,43.3z"/>
		<path id="XMLID_219_" class="st0" d="M34.6,13.9c-5-0.2-6.8,1.2-8.4,3.3c-1.6,2-1.8,4.9-1.8,4.9l0.1,9.2h17.9l0.2-10.6
			C42.7,20.7,41.8,14.1,34.6,13.9z"/>
		<path id="XMLID_218_" class="st0" d="M33.5,48.5h-0.2c-2.9,0-5.3-2.4-5.3-5.3v-4.3h10.8v4.3C38.8,46.1,36.4,48.5,33.5,48.5z"/>
		<path id="XMLID_217_" class="st0" d="M35.4,40.7h-4.7c-2.8,0-4.6-2.5-4.6-5.3v-2.2c-1,0-0.3,0-0.3,0c-0.9,0-1.7-0.7-1.7-1.6
			s0.8-1.6,1.7-1.6c0.1,0-0.6,0,0.4,0V19.5h14.6v10.6c0,0,0.2,0,0.3,0c0.9,0,1.6,0.7,1.6,1.6s-0.7,1.6-1.6,1.6c-0.1,0-0.3,0-0.3,0
			v2.2c0,1.5-0.9,2.9-2,3.9"/>
		<path id="XMLID_216_" class="st1" d="M41.4,18.8v1.7l-3.3-0.9l-0.6,2.5l-5.8-1l1.1,3.4c0,0-4.6-3.5-5.3-4.2c0,0-1.9-0.2-1.8,1
			c0,0-0.9-1.2,0.3-2.6"/>
		<path id="XMLID_215_" class="st0" d="M40.7,20.6l-2.7-0.9l-0.6,2.5l-5.8-1l1.1,3.4c0,0-4.8-3.5-5.5-4.1c0,0-1.1,0.1-1,1.3"/>
		<polyline id="XMLID_214_" class="st0" points="21.1,44.8 21.1,53 24.5,53 23.6,55.9 		"/>
		<polyline id="XMLID_213_" class="st0" points="42.2,43.7 42.2,53 41.2,53 40.8,56.1 		"/>
		<line id="XMLID_212_" class="st0" x1="24.1" y1="43.4" x2="30.2" y2="58.1"/>
		<line id="XMLID_208_" class="st0" x1="42" y1="43.2" x2="36.1" y2="58.1"/>
	</g>
</g>
</svg>
