<?xml version="1.0" encoding="utf-8"?>
<!-- Generator: Adobe Illustrator 22.0.1, SVG Export Plug-In . SVG Version: 6.00 Build 0)  -->
<svg version="1.1" xmlns="http://www.w3.org/2000/svg" xmlns:xlink="http://www.w3.org/1999/xlink" x="0px" y="0px"
	 viewBox="0 0 64 64" style="enable-background:new 0 0 64 64;" xml:space="preserve">
<style type="text/css">
	.st0{fill:#F9CA38;}
	.st1{fill:#CEE8FA;}
	.st2{fill:#FFFFFF;}
	.st3{fill:#4C5C68;}
	.st4{fill:none;stroke:#4C5C68;stroke-linecap:round;stroke-linejoin:round;stroke-miterlimit:10;}
	.st5{fill:#CEE8FA;stroke:#4C5C68;stroke-linecap:round;stroke-linejoin:round;stroke-miterlimit:10;}
	.st6{fill:#F9CA38;stroke:#4C5C68;stroke-linecap:round;stroke-linejoin:round;stroke-miterlimit:10;}
	.st7{fill:#FFFFFF;stroke:#4C5C68;stroke-linecap:round;stroke-linejoin:round;stroke-miterlimit:10;}
	.st8{fill:#FFFFFF;stroke:#FEBD2E;stroke-linecap:round;stroke-linejoin:round;stroke-miterlimit:10;}
	.st9{fill:#FEBD2E;stroke:#4C5C68;stroke-linecap:round;stroke-linejoin:round;stroke-miterlimit:10;}
	.st10{fill:#286090;}
	.st11{fill:#969696;}
	.st12{fill:#FFFFFF;stroke:#4C5C68;stroke-width:1.2173;stroke-linecap:round;stroke-linejoin:round;stroke-miterlimit:10;}
	.st13{fill:#FFFFFF;stroke:#4C5C68;stroke-width:0.8881;stroke-linecap:round;stroke-linejoin:round;stroke-miterlimit:10;}
	.st14{fill:none;stroke:#CEE8FA;stroke-width:1.0985;stroke-linecap:round;stroke-linejoin:round;stroke-miterlimit:10;}
	.st15{opacity:0.6;fill:#286090;}
	.st16{fill:none;stroke:#4C5C68;stroke-width:1.0254;stroke-linecap:round;stroke-linejoin:round;stroke-miterlimit:10;}
	.st17{fill:#FFFFFF;stroke:#4C5C68;stroke-miterlimit:10;}
	.st18{fill:none;stroke:#286090;stroke-linecap:round;stroke-linejoin:round;stroke-miterlimit:10;stroke-dasharray:0,2;}
	.st19{fill:none;stroke:#286090;stroke-linecap:round;stroke-linejoin:round;stroke-miterlimit:10;}
	.st20{fill:#FEBD2E;}
	.st21{fill:none;stroke:#CEE8FA;stroke-linecap:round;stroke-linejoin:round;stroke-miterlimit:10;}
	.st22{fill:#FFFFFF;stroke:#4C5C68;stroke-width:1.1073;stroke-miterlimit:10;}
	.st23{fill:#CEE8FA;stroke:#4C5C68;stroke-width:1.1073;stroke-linecap:round;stroke-linejoin:round;stroke-miterlimit:10;}
	.st24{fill:#FFFFFF;stroke:#4C5C68;stroke-width:1.1073;stroke-linecap:round;stroke-linejoin:round;stroke-miterlimit:10;}
	.st25{fill:none;stroke:#4C5C68;stroke-width:1.1073;stroke-linecap:round;stroke-linejoin:round;stroke-miterlimit:10;}
	.st26{fill:#FFFFFF;stroke:#4C5C68;stroke-width:1.0096;stroke-miterlimit:10;}
	.st27{fill:#286090;stroke:#4C5C68;stroke-width:1.0096;stroke-linecap:round;stroke-linejoin:round;stroke-miterlimit:10;}
	.st28{fill:#FFFFFF;stroke:#4C5C68;stroke-width:1.0096;stroke-linecap:round;stroke-linejoin:round;stroke-miterlimit:10;}
	.st29{fill:none;stroke:#4C5C68;stroke-width:1.0096;stroke-linecap:round;stroke-linejoin:round;stroke-miterlimit:10;}
	.st30{fill:#FFFFFF;stroke:#4C5C68;stroke-width:1.0964;stroke-miterlimit:10;}
	.st31{fill:#CEE8FA;stroke:#4C5C68;stroke-width:1.0964;stroke-linecap:round;stroke-linejoin:round;stroke-miterlimit:10;}
	.st32{fill:#FFFFFF;stroke:#4C5C68;stroke-width:1.0964;stroke-linecap:round;stroke-linejoin:round;stroke-miterlimit:10;}
	.st33{fill:none;stroke:#4C5C68;stroke-width:1.0964;stroke-linecap:round;stroke-linejoin:round;stroke-miterlimit:10;}
	.st34{fill:none;stroke:#4C5C68;stroke-width:1.0985;stroke-linecap:round;stroke-linejoin:round;stroke-miterlimit:10;}
	.st35{fill:none;stroke:#333333;stroke-width:2;stroke-linecap:round;stroke-linejoin:round;stroke-miterlimit:10;}
	.st36{fill:#FFFFFF;stroke:#4C5C68;stroke-width:1.2007;stroke-linecap:round;stroke-linejoin:round;stroke-miterlimit:10;}
	.st37{fill:#CEE8FA;stroke:#4C5C68;stroke-width:1.2007;stroke-linecap:round;stroke-linejoin:round;stroke-miterlimit:10;}
	
		.st38{fill:none;stroke:#4C5C68;stroke-width:1.2007;stroke-linecap:round;stroke-linejoin:round;stroke-miterlimit:10;stroke-dasharray:1.2007,3.6021;}
	.st39{fill:#FEBD2E;stroke:#4C5C68;stroke-width:1.2007;stroke-linecap:round;stroke-linejoin:round;stroke-miterlimit:10;}
	.st40{fill:none;stroke:#4C5C68;stroke-width:1.0828;stroke-linecap:round;stroke-linejoin:round;stroke-miterlimit:10;}
	.st41{fill:none;stroke:#4C5C68;stroke-width:1.1103;stroke-linecap:round;stroke-linejoin:round;stroke-miterlimit:10;}
	.st42{fill:#FFFFFF;stroke:#4C5C68;stroke-width:1.1517;stroke-linecap:round;stroke-linejoin:round;stroke-miterlimit:10;}
	.st43{fill:#CEE8FA;stroke:#4C5C68;stroke-width:0.965;stroke-linecap:round;stroke-linejoin:round;stroke-miterlimit:10;}
	.st44{fill:#286090;stroke:#4C5C68;stroke-width:0.9531;stroke-linecap:round;stroke-linejoin:round;stroke-miterlimit:10;}
	.st45{fill:none;stroke:#4C5C68;stroke-width:1.1517;stroke-linecap:round;stroke-linejoin:round;stroke-miterlimit:10;}
	.st46{fill:#FFFFFF;stroke:#4C5C68;stroke-width:0.9551;stroke-linecap:round;stroke-linejoin:round;stroke-miterlimit:10;}
	.st47{fill:#FFFFFF;stroke:#4C5C68;stroke-width:1.1517;stroke-miterlimit:10;}
	.st48{fill:none;stroke:#4C5C68;stroke-width:0.6689;stroke-linecap:round;stroke-linejoin:round;stroke-miterlimit:10;}
	.st49{fill:#F9CA38;stroke:#4C5C68;stroke-width:0.6689;stroke-linecap:round;stroke-linejoin:round;stroke-miterlimit:10;}
	.st50{fill:#286090;stroke:#4C5C68;stroke-width:0.6689;stroke-linecap:round;stroke-linejoin:round;stroke-miterlimit:10;}
	.st51{fill:#4C5C68;stroke:#4C5C68;stroke-width:0.2347;stroke-linecap:round;stroke-linejoin:round;stroke-miterlimit:10;}
	.st52{fill:#CEE8FA;stroke:#4C5C68;stroke-width:0.8962;stroke-linecap:round;stroke-linejoin:round;stroke-miterlimit:10;}
	.st53{fill:#FFFFFF;stroke:#4C5C68;stroke-width:0.8962;stroke-linecap:round;stroke-linejoin:round;stroke-miterlimit:10;}
	.st54{fill:none;stroke:#4C5C68;stroke-width:0.8962;stroke-linecap:round;stroke-linejoin:round;stroke-miterlimit:10;}
	.st55{fill:none;stroke:#F9CA38;stroke-linecap:round;stroke-linejoin:round;stroke-miterlimit:10;}
	.st56{fill:#4C5C68;stroke:#4C5C68;stroke-width:0.3;stroke-miterlimit:10;}
	.st57{fill:#CEE8FA;stroke:#4C5C68;stroke-width:0.8552;stroke-linecap:round;stroke-linejoin:round;stroke-miterlimit:10;}
	.st58{fill:#FFFFFF;stroke:#4C5C68;stroke-width:0.8552;stroke-linecap:round;stroke-linejoin:round;stroke-miterlimit:10;}
	
		.st59{fill:none;stroke:#4C5C68;stroke-width:0.8552;stroke-linecap:round;stroke-linejoin:round;stroke-miterlimit:10;stroke-dasharray:0.8552,2.5656;}
	.st60{fill:#286090;stroke:#4C5C68;stroke-linecap:round;stroke-linejoin:round;stroke-miterlimit:10;}
	.st61{fill:#286090;stroke:#FFFFFF;stroke-width:2;stroke-miterlimit:10;}
	.st62{fill:none;stroke:#4C5C68;stroke-width:0.8191;stroke-linecap:round;stroke-linejoin:round;stroke-miterlimit:10;}
	.st63{fill:#FEBD2E;stroke:#4C5C68;stroke-width:0.8191;stroke-linecap:round;stroke-linejoin:round;stroke-miterlimit:10;}
	.st64{fill:#FFFFFF;stroke:#4C5C68;stroke-width:0.9531;stroke-linecap:round;stroke-linejoin:round;stroke-miterlimit:10;}
	.st65{fill:none;stroke:#4C5C68;stroke-width:0.9531;stroke-linecap:round;stroke-linejoin:round;stroke-miterlimit:10;}
	.st66{fill:none;stroke:#F9CA38;stroke-width:1.1858;stroke-miterlimit:10;}
	.st67{fill:#CEE8FA;stroke:#4C5C68;stroke-width:0.9531;stroke-linecap:round;stroke-linejoin:round;stroke-miterlimit:10;}
	.st68{fill:#FFFFFF;stroke:#4C5C68;stroke-width:0.965;stroke-linecap:round;stroke-linejoin:round;stroke-miterlimit:10;}
	.st69{fill:#F9CA38;stroke:#4C5C68;stroke-width:0.965;stroke-linecap:round;stroke-linejoin:round;stroke-miterlimit:10;}
	.st70{fill:#434343;}
	.st71{fill:#98C948;}
	.st72{fill:none;stroke:#2C3251;stroke-width:0.5;stroke-linecap:round;stroke-linejoin:round;stroke-miterlimit:10;}
	.st73{fill:#5FB0E5;}
	.st74{fill:#D2E9F7;}
	.st75{fill:#0686D8;}
	.st76{fill:#9ECFEF;}
	.st77{fill:none;stroke:#4C5C68;stroke-miterlimit:10;}
	.st78{fill:#4C5C68;stroke:#4C5C68;stroke-width:0.4;stroke-linecap:round;stroke-linejoin:round;stroke-miterlimit:10;}
	.st79{fill:none;stroke:#4C5C68;stroke-width:0.9106;stroke-miterlimit:10;}
	.st80{fill:#CEE8FA;stroke:#4C5C68;stroke-width:0.6053;stroke-linecap:round;stroke-linejoin:round;stroke-miterlimit:10;}
	.st81{fill:#FFFFFF;stroke:#4C5C68;stroke-width:0.6053;stroke-linecap:round;stroke-linejoin:round;stroke-miterlimit:10;}
	.st82{fill:#4C5C68;stroke:#FFFFFF;stroke-width:0.5;stroke-linecap:round;stroke-linejoin:round;stroke-miterlimit:10;}
	.st83{fill:#595959;}
	.st84{fill:none;stroke:#4C5C68;stroke-width:0.9106;stroke-linecap:round;stroke-linejoin:round;stroke-miterlimit:10;}
	.st85{fill:none;stroke:#4C5C68;stroke-width:0.8497;stroke-linecap:round;stroke-linejoin:round;stroke-miterlimit:10;}
	.st86{fill:#4C5C68;stroke:#4C5C68;stroke-width:0.2707;stroke-linecap:round;stroke-linejoin:round;stroke-miterlimit:10;}
	.st87{fill:#41464B;}
	.st88{fill:#FED65C;}
	.st89{fill:#FFFFFF;stroke:#000000;stroke-linecap:round;stroke-linejoin:round;stroke-miterlimit:10;}
	.st90{fill:#FFFFFF;stroke:#4C5C68;stroke-width:0.9809;stroke-linecap:round;stroke-linejoin:round;stroke-miterlimit:10;}
	.st91{fill:#5D5D5D;}
	.st92{fill:none;stroke:#4C5C68;stroke-width:1.0654;stroke-miterlimit:10;}
	.st93{fill:#FFFFFF;stroke:#4C5C68;stroke-width:1.0654;stroke-miterlimit:10;}
	.st94{fill:#FFFFFF;stroke:#4C5C68;stroke-width:1.0654;stroke-linecap:round;stroke-linejoin:round;stroke-miterlimit:10;}
	.st95{fill:none;stroke:#4C5C68;stroke-width:1.3058;stroke-miterlimit:10;}
	.st96{fill:#FFFFFF;stroke:#4C5C68;stroke-width:1.1061;stroke-miterlimit:10;}
	.st97{fill:#CEE8FA;stroke:#4C5C68;stroke-width:1.1061;stroke-linecap:round;stroke-linejoin:round;stroke-miterlimit:10;}
	.st98{fill:#FFFFFF;stroke:#4C5C68;stroke-width:1.1061;stroke-linecap:round;stroke-linejoin:round;stroke-miterlimit:10;}
	.st99{fill:none;stroke:#4C5C68;stroke-width:1.1061;stroke-linecap:round;stroke-linejoin:round;stroke-miterlimit:10;}
	.st100{fill:#FFFFFF;stroke:#4C5C68;stroke-width:0.4976;stroke-linecap:round;stroke-linejoin:round;stroke-miterlimit:10;}
	.st101{fill:none;stroke:#4C5C68;stroke-width:0.4976;stroke-linecap:round;stroke-linejoin:round;stroke-miterlimit:10;}
	.st102{fill:#FFFFFF;stroke:#FEBD2E;stroke-width:0.4976;stroke-linecap:round;stroke-linejoin:round;stroke-miterlimit:10;}
	.st103{fill:#FFFFFF;stroke:#4C5C68;stroke-width:1.1423;stroke-linecap:round;stroke-linejoin:round;stroke-miterlimit:10;}
	.st104{fill:#FEBD2E;stroke:#4C5C68;stroke-width:1.1423;stroke-linecap:round;stroke-linejoin:round;stroke-miterlimit:10;}
	.st105{fill:#FFFFFF;stroke:#4C5C68;stroke-width:1.14;stroke-linecap:round;stroke-linejoin:round;stroke-miterlimit:10;}
	.st106{fill:#CEE8FA;stroke:#4C5C68;stroke-width:1.136;stroke-linecap:round;stroke-linejoin:round;stroke-miterlimit:10;}
	.st107{fill:none;stroke:#4C5C68;stroke-width:1.136;stroke-linecap:round;stroke-linejoin:round;stroke-miterlimit:10;}
	.st108{fill:#FFFFFF;stroke:#4C5C68;stroke-width:1.0633;stroke-linecap:round;stroke-linejoin:round;stroke-miterlimit:10;}
	.st109{fill:#F9CA38;stroke:#4C5C68;stroke-width:1.136;stroke-linecap:round;stroke-linejoin:round;stroke-miterlimit:10;}
	.st110{fill:#4C5C68;stroke:#4C5C68;stroke-width:0.3408;stroke-miterlimit:10;}
	.st111{fill:#FFFFFF;stroke:#4C5C68;stroke-width:0.895;stroke-linecap:round;stroke-linejoin:round;stroke-miterlimit:10;}
	.st112{fill:none;stroke:#4C5C68;stroke-width:1.0796;stroke-linecap:round;stroke-linejoin:round;stroke-miterlimit:10;}
	.st113{fill:none;stroke:#4C5C68;stroke-width:1.1071;stroke-linecap:round;stroke-linejoin:round;stroke-miterlimit:10;}
	.st114{fill:#F9CA38;stroke:#4C5C68;stroke-width:1.0796;stroke-linecap:round;stroke-linejoin:round;stroke-miterlimit:10;}
	.st115{fill:#FFFFFF;stroke:#4C5C68;stroke-width:1.0796;stroke-linecap:round;stroke-linejoin:round;stroke-miterlimit:10;}
</style>
<g id="Layer_2">
</g>
<g id="Layer_1">
	<g>
		<path class="st10" d="M18.5,48.6h-6.9c-0.2,0-0.4-0.2-0.4-0.4V37.7c0-0.2,0.2-0.4,0.4-0.4h6.9c0.2,0,0.4,0.2,0.4,0.4v10.5
			C18.9,48.4,18.7,48.6,18.5,48.6z"/>
		<rect x="7.9" y="46.8" class="st2" width="8.7" height="3.3"/>
		<path class="st3" d="M36.9,19.7h-7.8c-0.4,0-0.7,0.3-0.7,0.7V32c0,0.4,0.3,0.7,0.7,0.7h7.8c0.4,0,0.7-0.3,0.7-0.7V20.3
			C37.5,20,37.2,19.7,36.9,19.7z M36.2,31.3h-6.4V21h6.4V31.3z"/>
		<path class="st3" d="M48.5,19.7c-0.4,0-0.7,0.3-0.7,0.7V32c0,0.4,0.3,0.7,0.7,0.7h7.8c0.4,0,0.7-0.3,0.7-0.7V20.3
			c0-0.4-0.3-0.7-0.7-0.7H48.5z M55.6,31.3h-6.4V21h6.4V31.3z"/>
		<rect x="51.7" y="23.6" class="st3" width="1.3" height="3.3"/>
		<rect x="32.3" y="24.5" class="st3" width="1.3" height="3.3"/>
		<path class="st3" d="M48.5,7.1H36.9c-0.4,0-0.7,0.3-0.7,0.7V32c0,0.4,0.3,0.7,0.7,0.7h11.7c0.4,0,0.7-0.3,0.7-0.7V7.7
			C49.2,7.4,48.9,7.1,48.5,7.1z M47.8,31.3H37.5V8.4h10.3V31.3z"/>
		<path class="st3" d="M40.7,24.5c-0.4,0-0.7,0.3-0.7,0.7V32c0,0.4,0.3,0.7,0.7,0.7h3.9c0.4,0,0.7-0.3,0.7-0.7v-6.8
			c0-0.4-0.3-0.7-0.7-0.7H40.7z M44,31.3h-2.5v-5.5H44V31.3z"/>
		<g>
			<g>
				<rect x="39.8" y="11.6" class="st3" width="1.9" height="3.9"/>
				<path class="st2" d="M42,15.8h-2.5v-4.5H42V15.8z M40.1,15.2h1.3v-3.3h-1.3V15.2z"/>
			</g>
		</g>
		<g>
			<g>
				<rect x="43.7" y="11.6" class="st3" width="1.9" height="3.9"/>
				<path class="st2" d="M45.9,15.8h-2.5v-4.5h2.5V15.8z M44,15.2h1.3v-3.3H44V15.2z"/>
			</g>
		</g>
		<g>
			<g>
				<rect x="39.8" y="17.4" class="st3" width="1.9" height="3.9"/>
				<path class="st2" d="M42,21.6h-2.5v-4.5H42V21.6z M40.1,21h1.3v-3.3h-1.3V21z"/>
			</g>
		</g>
		<g>
			<g>
				<rect x="43.7" y="17.4" class="st3" width="1.9" height="3.9"/>
				<path class="st2" d="M45.9,21.6h-2.5v-4.5h2.5V21.6z M44,21h1.3v-3.3H44V21z"/>
			</g>
		</g>
		<path class="st3" d="M9.7,32.7h13.6c0.4,0,0.7-0.3,0.7-0.7V20.3c0-0.4-0.3-0.7-0.7-0.7H9.7C9.3,19.7,9,20,9,20.3V32
			C9,32.4,9.3,32.7,9.7,32.7z M10.3,21h12.3v10.3H10.3V21z"/>
		<path class="st3" d="M25.7,19.9L17,10.2c-0.1-0.1-0.3-0.2-0.5-0.2c0,0,0,0,0,0c-0.2,0-0.4,0.1-0.5,0.2l-8.7,9.7
			C7,20.1,7,20.4,7.1,20.6C7.2,20.9,7.5,21,7.7,21h17.5c0.3,0,0.5-0.2,0.6-0.4S25.9,20.1,25.7,19.9z"/>
		<path class="st3" d="M19.4,25.5h-5.8c-0.4,0-0.7,0.3-0.7,0.7V32c0,0.4,0.3,0.7,0.7,0.7h5.8c0.4,0,0.7-0.3,0.7-0.7v-5.8
			C20,25.8,19.7,25.5,19.4,25.5z M18.7,31.3h-4.5v-4.5h4.5V31.3z"/>
		<path class="st3" d="M49.5,36.2h-3.9c-3.6,0-6.5,2.9-6.5,6.5c0,0.4,0.3,0.7,0.7,0.7h13.6c0.4,0,0.7-0.3,0.7-0.7v-1.9
			C54,38.2,52,36.2,49.5,36.2z"/>
		<path class="st3" d="M39.8,47.2c0.7,0,1.3,0.6,1.3,1.3c0,0.4,0.3,0.7,0.7,0.7h7.8c0.4,0,0.7-0.3,0.7-0.7c0-0.7,0.6-1.3,1.3-1.3
			c0.7,0,1.3,0.6,1.3,1.3c0,0.4,0.3,0.7,0.7,0.7h2.9c0.4,0,0.7-0.3,0.7-0.7v-3.9c0-1.4-1.2-2.6-2.6-2.6H37.8c-2.5,0-4.6,2-4.6,4.6
			v1.9c0,0.4,0.3,0.7,0.7,0.7h3.9c0.4,0,0.7-0.3,0.7-0.7C38.5,47.8,39.1,47.2,39.8,47.2z M37.3,47.6l-0.1,0.2h-2.6v-1.3
			c0-1.8,1.4-3.2,3.2-3.2h16.5c0.7,0,1.3,0.6,1.3,1.3v3.2H54l-0.1-0.2c-0.4-1-1.4-1.7-2.5-1.7s-2.1,0.7-2.5,1.7l-0.1,0.2h-6.6
			l-0.1-0.2c-0.4-1-1.4-1.7-2.5-1.7S37.7,46.6,37.3,47.6z"/>
		<g>
			<g>
				<path class="st3" d="M39.8,51.4c-1.6,0-2.9-1.3-2.9-2.9c0-1.6,1.3-2.9,2.9-2.9c1.6,0,2.9,1.3,2.9,2.9
					C42.7,50.1,41.4,51.4,39.8,51.4z M39.8,47.5c-0.5,0-1,0.4-1,1c0,0.5,0.4,1,1,1c0.5,0,1-0.4,1-1C40.7,48,40.3,47.5,39.8,47.5z"/>
				<path class="st2" d="M39.8,51.7c-1.8,0-3.2-1.4-3.2-3.2s1.4-3.2,3.2-3.2c1.8,0,3.2,1.4,3.2,3.2S41.5,51.7,39.8,51.7z M39.8,45.9
					c-1.4,0-2.6,1.2-2.6,2.6s1.2,2.6,2.6,2.6s2.6-1.2,2.6-2.6S41.2,45.9,39.8,45.9z M39.8,49.8c-0.7,0-1.3-0.6-1.3-1.3
					c0-0.7,0.6-1.3,1.3-1.3c0.7,0,1.3,0.6,1.3,1.3C41,49.2,40.5,49.8,39.8,49.8z M39.8,47.8c-0.4,0-0.7,0.3-0.7,0.7s0.3,0.7,0.7,0.7
					c0.4,0,0.7-0.3,0.7-0.7S40.1,47.8,39.8,47.8z"/>
			</g>
		</g>
		<path class="st3" d="M56.3,3.2H7.7c-2.5,0-4.6,2-4.6,4.6v42.7c0,2.5,2,4.6,4.6,4.6h19.1l4.7,5.6c0.3,0.3,0.8,0.3,1,0l4.7-5.6h19.1
			c2.5,0,4.6-2,4.6-4.6V7.7C60.8,5.2,58.8,3.2,56.3,3.2z M59.5,50.5c0,1.8-1.4,3.2-3.2,3.2H36.9c-0.2,0-0.4,0.1-0.5,0.2L32,59.1
			l-4.3-5.2c-0.1-0.2-0.3-0.2-0.5-0.2H7.7c-1.8,0-3.2-1.4-3.2-3.2V7.7C4.5,6,6,4.5,7.7,4.5h48.6c1.8,0,3.2,1.4,3.2,3.2V50.5z"/>
		<path class="st3" d="M9.4,18.8c0.3,0.1,0.6,0,0.7-0.2l3.9-4.3c0.1-0.1,0.2-0.3,0.2-0.4v-2.3c0-0.4-0.3-0.7-0.7-0.7H9.7
			c-0.4,0-0.7,0.3-0.7,0.7v6.6C9,18.5,9.2,18.7,9.4,18.8z M10.3,12.3h2.5v1.3l-2.5,2.8V12.3z"/>
		<g>
			<g>
				<path class="st3" d="M51.4,51.4c-1.6,0-2.9-1.3-2.9-2.9c0-1.6,1.3-2.9,2.9-2.9c1.6,0,2.9,1.3,2.9,2.9
					C54.3,50.1,53,51.4,51.4,51.4z M51.4,47.5c-0.5,0-1,0.4-1,1c0,0.5,0.4,1,1,1c0.5,0,1-0.4,1-1C52.4,48,52,47.5,51.4,47.5z"/>
				<path class="st2" d="M51.4,51.7c-1.8,0-3.2-1.4-3.2-3.2s1.4-3.2,3.2-3.2c1.8,0,3.2,1.4,3.2,3.2S53.2,51.7,51.4,51.7z M51.4,45.9
					c-1.4,0-2.6,1.2-2.6,2.6s1.2,2.6,2.6,2.6s2.6-1.2,2.6-2.6S52.9,45.9,51.4,45.9z M51.4,49.8c-0.7,0-1.3-0.6-1.3-1.3
					c0-0.7,0.6-1.3,1.3-1.3c0.7,0,1.3,0.6,1.3,1.3C52.7,49.2,52.1,49.8,51.4,49.8z M51.4,47.8c-0.4,0-0.7,0.3-0.7,0.7
					s0.3,0.7,0.7,0.7c0.4,0,0.7-0.3,0.7-0.7S51.8,47.8,51.4,47.8z"/>
			</g>
		</g>
		<path class="st3" d="M22,35.2H9.7c-0.4,0-0.7,0.3-0.7,0.7v10.4h1.3v-9.7H22V35.2z"/>
		<g>
			<g>
				<path class="st3" d="M24.2,40.7h-3.9c-0.5,0-1-0.4-1-1v-1.9c0-1.6,1.3-2.9,2.9-2.9c1.6,0,2.9,1.3,2.9,2.9v1.9
					C25.2,40.3,24.8,40.7,24.2,40.7z M21.3,38.8h1.9v-1c0-0.5-0.4-1-1-1c-0.5,0-1,0.4-1,1V38.8z"/>
				<path class="st2" d="M24.2,41h-3.9c-0.7,0-1.3-0.6-1.3-1.3v-1.9c0-1.8,1.4-3.2,3.2-3.2c1.8,0,3.2,1.4,3.2,3.2v1.9
					C25.5,40.5,24.9,41,24.2,41z M22.3,35.2c-1.4,0-2.6,1.2-2.6,2.6v1.9c0,0.4,0.3,0.7,0.7,0.7h3.9c0.4,0,0.7-0.3,0.7-0.7v-1.9
					C24.9,36.4,23.7,35.2,22.3,35.2z M23.6,39.1H21v-1.3c0-0.7,0.6-1.3,1.3-1.3s1.3,0.6,1.3,1.3V39.1z M21.6,38.5H23v-0.7
					c0-0.4-0.3-0.7-0.7-0.7s-0.7,0.3-0.7,0.7V38.5z"/>
			</g>
		</g>
		<path class="st3" d="M22.3,35.2c-1.4,0-2.6,1.2-2.6,2.6v1.9c0,0.4,0.3,0.7,0.7,0.7h3.9c0.4,0,0.7-0.3,0.7-0.7v-1.9
			C24.9,36.4,23.7,35.2,22.3,35.2z M23.6,39.1H21v-1.3c0-0.7,0.6-1.3,1.3-1.3s1.3,0.6,1.3,1.3V39.1z"/>
		<path class="st3" d="M20.3,49.8h-1.9c-0.7,0-1.3-0.6-1.3-1.3v-1.9c0-0.4-0.3-0.7-0.7-0.7H7.7c-0.4,0-0.7,0.3-0.7,0.7v1.9
			c0,1.4,1.2,2.6,2.6,2.6h10.7c0.4,0,0.7-0.3,0.7-0.7S20.7,49.8,20.3,49.8z M9.7,49.8c-0.7,0-1.3-0.6-1.3-1.3v-1.3h7.4v1.3
			c0,0.3,0.1,0.6,0.1,0.9l0.1,0.4H9.7z"/>
		<path class="st3" d="M19.7,51.1h0.7c0.4,0,0.7-0.3,0.7-0.7V40.1h-1.3V51.1z"/>
		<rect x="23.6" y="43" class="st0" width="1.3" height="1.3"/>
		<rect x="27.4" y="43" class="st0" width="1.3" height="1.3"/>
		<rect x="31.3" y="43" class="st0" width="1.3" height="1.3"/>
		<rect x="24.5" y="12.9" class="st0" width="1.3" height="1.3"/>
		<rect x="28.4" y="12.9" class="st0" width="1.3" height="1.3"/>
		<rect x="32.3" y="12.9" class="st0" width="1.3" height="1.3"/>
		<path class="st10" d="M52.7,42H40.5l0.1-0.4c0.5-2.4,2.6-4.1,5.1-4.1h3.9c1.8,0,3.2,1.4,3.2,3.2V42z"/>
		<rect x="46.9" y="37.2" class="st2" width="1.3" height="5.2"/>
	</g>
	<path class="st1" d="M9.4,19.4l6.9-7.7c0.1-0.1,0.2-0.1,0.2,0l6.9,7.7c0.1,0.1,0,0.2-0.1,0.2H9.5C9.4,19.7,9.4,19.5,9.4,19.4z"/>
</g>
</svg>
