<?xml version="1.0" encoding="utf-8"?>
<!-- Generator: Adobe Illustrator 17.0.0, SVG Export Plug-In . SVG Version: 6.00 Build 0)  -->
<!DOCTYPE svg PUBLIC "-//W3C//DTD SVG 1.1//EN" "http://www.w3.org/Graphics/SVG/1.1/DTD/svg11.dtd">
<svg version="1.1" id="Layer_1" xmlns="http://www.w3.org/2000/svg" xmlns:xlink="http://www.w3.org/1999/xlink" x="0px" y="0px"
	 width="36px" height="36px" viewBox="0 0 36 36" enable-background="new 0 0 36 36" xml:space="preserve">
<g>
	<polyline fill="#FFFFFF" stroke="#171C28" stroke-linecap="round" stroke-linejoin="round" stroke-miterlimit="10" points="
		24.806,5.681 26.831,5.681 26.831,32.681 4.95,32.681 4.95,5.681 7.537,5.681 	"/>
	<rect x="6.694" y="6.975" fill="#FFFFFF" width="18.056" height="24.188"/>
	<g>
		<path fill="#FFFFFF" stroke="#171C28" stroke-linecap="round" stroke-linejoin="round" stroke-miterlimit="10" d="M22.5,5.231
			h-2.531v-1.8c0-0.169-0.169-0.337-0.337-0.337h-6.919c-0.169,0-0.338,0.169-0.338,0.337v1.856h-2.25
			c-0.619,0-1.069,0.506-1.069,1.069v2.756h14.569V6.356C23.569,5.737,23.119,5.231,22.5,5.231z"/>
		<polyline fill="#FFFFFF" stroke="#00984A" stroke-linecap="round" stroke-linejoin="round" stroke-miterlimit="10" points="
			9.225,18.394 10.463,19.631 12.319,17.775 		"/>
		
			<line fill="none" stroke="#171C28" stroke-linecap="round" stroke-linejoin="round" stroke-miterlimit="10" x1="16.313" y1="18.731" x2="23.006" y2="18.731"/>
		<polyline fill="#FFFFFF" stroke="#00984A" stroke-linecap="round" stroke-linejoin="round" stroke-miterlimit="10" points="
			9.225,13.613 10.463,14.85 12.319,12.994 		"/>
		
			<line fill="none" stroke="#171C28" stroke-linecap="round" stroke-linejoin="round" stroke-miterlimit="10" x1="16.313" y1="13.894" x2="23.006" y2="13.894"/>
		<polyline fill="#FFFFFF" stroke="#00984A" stroke-linecap="round" stroke-linejoin="round" stroke-miterlimit="10" points="
			9.169,22.725 10.406,23.962 12.262,22.106 		"/>
		
			<line fill="none" stroke="#171C28" stroke-linecap="round" stroke-linejoin="round" stroke-miterlimit="10" x1="16.313" y1="23.006" x2="23.006" y2="23.006"/>
	</g>
	<path fill="#171C28" d="M17.269,4.838h-2.363c-0.225,0-0.338-0.169-0.338-0.338l0,0c0-0.225,0.169-0.338,0.338-0.338h2.363
		c0.225,0,0.337,0.169,0.337,0.338l0,0C17.663,4.725,17.494,4.838,17.269,4.838z"/>
	<g id="XMLID_28_">
		<path fill="#ABE0F9" d="M27.225,33.638c-3.712,0-6.694-2.981-6.694-6.694s2.981-6.694,6.694-6.694s6.694,2.981,6.694,6.694
			S30.938,33.638,27.225,33.638z"/>
		<g>
			<path fill="#171C28" d="M27.225,20.587c3.488,0,6.356,2.869,6.356,6.356S30.713,33.3,27.225,33.3s-6.356-2.869-6.356-6.356
				S23.738,20.587,27.225,20.587 M27.225,19.913c-3.881,0-7.031,3.15-7.031,7.031s3.15,7.031,7.031,7.031s7.031-3.15,7.031-7.031
				S31.106,19.913,27.225,19.913L27.225,19.913z"/>
		</g>
	</g>
	<g>
		<path fill="#0D3178" d="M27.619,23.569v2.981h2.869v0.731h-2.869v2.981h-0.788v-2.981h-2.869V26.55h2.869v-2.981H27.619z"/>
	</g>
</g>
</svg>
