<?xml version="1.0" encoding="utf-8"?>
<!-- Generator: Adobe Illustrator 23.0.1, SVG Export Plug-In . SVG Version: 6.00 Build 0)  -->
<svg version="1.1" xmlns="http://www.w3.org/2000/svg" xmlns:xlink="http://www.w3.org/1999/xlink" x="0px" y="0px"
	 viewBox="0 0 64 64" style="enable-background:new 0 0 64 64;" xml:space="preserve">
<style type="text/css">
	.st0{fill:#CCCCCC;}
	.st1{fill:none;stroke:#2C3251;stroke-width:0.5;stroke-miterlimit:10;}
	.st2{opacity:0.2;fill:#2C3251;}
	.st3{fill:#FFFFFF;}
	.st4{fill:#FFFFFF;stroke:#2C3251;stroke-width:0.5;stroke-miterlimit:10;}
	.st5{fill:#FFFFFF;stroke:#2C3251;stroke-width:0.5;stroke-linecap:round;stroke-linejoin:round;stroke-miterlimit:10;}
	.st6{fill:none;stroke:#2C3251;stroke-width:0.5;stroke-linecap:round;stroke-linejoin:round;stroke-miterlimit:10;}
	.st7{opacity:0.4;fill:#2C3251;enable-background:new    ;}
	.st8{fill:#2C3251;}
	.st9{fill:#2C3251;stroke:#2C3251;stroke-width:0.1;stroke-miterlimit:10;}
	.st10{fill:#939393;}
	.st11{fill:#D2E9F7;}
	.st12{fill:#0686D8;}
	.st13{clip-path:url(#SVGID_2_);}
	.st14{clip-path:url(#SVGID_4_);fill:#FFFFFF;}
	.st15{clip-path:url(#SVGID_6_);}
	.st16{clip-path:url(#SVGID_8_);fill:#FFFFFF;}
	.st17{clip-path:url(#SVGID_10_);}
	.st18{clip-path:url(#SVGID_14_);}
	.st19{clip-path:url(#SVGID_16_);}
	.st20{clip-path:url(#SVGID_18_);}
	.st21{clip-path:url(#SVGID_20_);fill:#CCCCCC;}
	.st22{clip-path:url(#SVGID_22_);}
	.st23{clip-path:url(#SVGID_24_);fill:#CCCCCC;}
	.st24{clip-path:url(#SVGID_26_);}
	.st25{clip-path:url(#SVGID_28_);fill:#CCCCCC;}
	.st26{clip-path:url(#SVGID_30_);}
	.st27{clip-path:url(#SVGID_32_);fill:#CCCCCC;}
	.st28{clip-path:url(#SVGID_34_);}
	.st29{clip-path:url(#SVGID_36_);fill:#CCCCCC;}
	.st30{clip-path:url(#SVGID_38_);}
	.st31{clip-path:url(#SVGID_42_);}
	.st32{clip-path:url(#SVGID_44_);}
	.st33{clip-path:url(#SVGID_46_);}
	.st34{clip-path:url(#SVGID_48_);fill:none;}
	.st35{clip-path:url(#SVGID_50_);}
	.st36{clip-path:url(#SVGID_52_);}
	.st37{clip-path:url(#SVGID_54_);}
	.st38{clip-path:url(#SVGID_58_);}
	.st39{clip-path:url(#SVGID_62_);}
	.st40{clip-path:url(#SVGID_64_);enable-background:new    ;}
	.st41{clip-path:url(#SVGID_66_);}
	.st42{clip-path:url(#SVGID_68_);}
	.st43{clip-path:url(#SVGID_70_);}
	.st44{clip-path:url(#SVGID_72_);}
	.st45{clip-path:url(#SVGID_76_);}
	.st46{clip-path:url(#SVGID_80_);}
	.st47{clip-path:url(#SVGID_82_);}
	.st48{clip-path:url(#SVGID_84_);}
	.st49{clip-path:url(#SVGID_86_);fill:#FFFFFF;}
	.st50{clip-path:url(#SVGID_89_);}
	.st51{clip-path:url(#SVGID_90_);}
	.st52{clip-path:url(#SVGID_92_);fill:#9ECFEF;}
	.st53{clip-path:url(#SVGID_94_);}
	.st54{clip-path:url(#SVGID_96_);}
	.st55{clip-path:url(#SVGID_98_);}
	.st56{clip-path:url(#SVGID_102_);}
	.st57{clip-path:url(#SVGID_104_);fill:#FFFFFF;}
	.st58{clip-path:url(#SVGID_106_);}
	.st59{clip-path:url(#SVGID_108_);}
	.st60{clip-path:url(#SVGID_110_);}
	.st61{clip-path:url(#SVGID_112_);}
	.st62{clip-path:url(#SVGID_114_);}
	.st63{clip-path:url(#SVGID_116_);enable-background:new    ;}
	.st64{clip-path:url(#SVGID_118_);}
	.st65{clip-path:url(#SVGID_120_);}
	.st66{clip-path:url(#SVGID_122_);fill:#CCCCCC;}
	.st67{clip-path:url(#SVGID_124_);}
	.st68{clip-path:url(#SVGID_126_);fill:#CCCCCC;}
	.st69{clip-path:url(#SVGID_128_);}
	.st70{clip-path:url(#SVGID_130_);fill:#CCCCCC;}
	.st71{clip-path:url(#SVGID_132_);}
	.st72{clip-path:url(#SVGID_134_);fill:#CCCCCC;}
	.st73{clip-path:url(#SVGID_136_);}
	.st74{clip-path:url(#SVGID_138_);fill:#CCCCCC;}
	.st75{clip-path:url(#SVGID_140_);}
	.st76{clip-path:url(#SVGID_142_);fill:#CCCCCC;}
	.st77{fill:none;stroke:#000000;stroke-width:2.7984;stroke-miterlimit:10;}
	.st78{fill:#5FB0E5;}
	.st79{clip-path:url(#SVGID_144_);}
	.st80{clip-path:url(#SVGID_148_);}
	.st81{clip-path:url(#SVGID_150_);}
	.st82{clip-path:url(#SVGID_152_);}
	.st83{clip-path:url(#SVGID_154_);fill:#FFFFFE;}
	.st84{clip-path:url(#SVGID_156_);}
	.st85{clip-path:url(#SVGID_158_);fill:#FFFFFF;}
	.st86{clip-path:url(#SVGID_160_);}
	.st87{clip-path:url(#SVGID_162_);}
	.st88{clip-path:url(#SVGID_164_);}
	.st89{clip-path:url(#SVGID_166_);fill:#FFFFFE;}
	.st90{clip-path:url(#SVGID_168_);}
	.st91{clip-path:url(#SVGID_170_);fill:#CCCCCC;}
	.st92{clip-path:url(#SVGID_172_);}
	.st93{clip-path:url(#SVGID_174_);}
	.st94{clip-path:url(#SVGID_176_);}
	.st95{clip-path:url(#SVGID_178_);}
	.st96{clip-path:url(#SVGID_180_);}
	.st97{clip-path:url(#SVGID_182_);}
	.st98{clip-path:url(#SVGID_184_);}
	.st99{clip-path:url(#SVGID_186_);}
	.st100{clip-path:url(#SVGID_188_);}
	.st101{clip-path:url(#SVGID_190_);}
	.st102{clip-path:url(#SVGID_192_);}
	.st103{clip-path:url(#SVGID_194_);}
	.st104{clip-path:url(#SVGID_196_);}
	.st105{clip-path:url(#SVGID_198_);fill:#CCCCCC;}
	.st106{clip-path:url(#SVGID_200_);}
	.st107{clip-path:url(#SVGID_202_);fill:#CCCCCC;}
	.st108{clip-path:url(#SVGID_204_);}
	.st109{clip-path:url(#SVGID_206_);fill:#CCCCCC;}
	.st110{clip-path:url(#SVGID_208_);}
	.st111{clip-path:url(#SVGID_210_);fill:#CCCCCC;}
	.st112{clip-path:url(#SVGID_212_);}
	.st113{clip-path:url(#SVGID_214_);fill:#CCCCCC;}
	.st114{clip-path:url(#SVGID_216_);}
	.st115{clip-path:url(#SVGID_218_);fill:#CCCCCC;}
	.st116{clip-path:url(#SVGID_220_);}
	.st117{clip-path:url(#SVGID_222_);fill:#CCCCCC;}
	.st118{clip-path:url(#SVGID_224_);}
	.st119{clip-path:url(#SVGID_226_);fill:#CCCCCC;}
	.st120{clip-path:url(#SVGID_228_);}
	.st121{clip-path:url(#SVGID_230_);fill:#CCCCCC;}
	.st122{clip-path:url(#SVGID_232_);}
	.st123{clip-path:url(#SVGID_234_);fill:#CCCCCC;}
	.st124{clip-path:url(#SVGID_236_);}
	.st125{clip-path:url(#SVGID_238_);fill:#CCCCCC;}
</style>
<g id="Layer_1">
	<g id="XMLID_273_">
		<g id="XMLID_264_">
			<g id="XMLID_120_">
				<g id="XMLID_339_">
					<path class="st3" d="M47.6,47.6l-17,13.5c-0.5,0.4-1.3,0.3-1.8-0.2L6.3,32.6c-0.4-0.5-0.3-1.3,0.2-1.8l17-13.5
						c0.5-0.4,1.3-0.3,1.8,0.2l22.6,28.3C48.2,46.4,48.2,47.2,47.6,47.6z"/>
				</g>
				<g id="XMLID_338_">
					
						<rect x="19.5" y="23.8" transform="matrix(0.7818 -0.6235 0.6235 0.7818 -22.0643 23.2134)" class="st0" width="5.2" height="38.8"/>
				</g>
				<g id="XMLID_337_">
					
						<rect x="29" y="27.2" transform="matrix(0.7818 -0.6236 0.6236 0.7818 -18.5082 27.7225)" class="st0" width="2.7" height="26.1"/>
				</g>
				<g id="XMLID_317_">
					<path id="XMLID_10_" d="M28.1,61.5L5.5,33.2c-0.8-1-0.6-2.4,0.4-3.1l17-13.5c0.9-0.7,2.4-0.6,3.1,0.4l4.5,5.6l-1.5,1.2
						l-4.5-5.6c-0.1-0.1-0.3-0.1-0.4,0l-17,13.5C7,31.7,7,31.9,7,32l22.6,28.3L28.1,61.5z"/>
				</g>
			</g>
			<g>
				<g id="XMLID_252_">
					<path class="st3" d="M55.6,61H29.9c-1.3,0-2.4-1.1-2.4-2.4V18.9c0-1.3,1.1-2.4,2.4-2.4h25.7c1.3,0,2.4,1.1,2.4,2.4v39.7
						C58,59.9,56.9,61,55.6,61z"/>
				</g>
				<g id="XMLID_256_">
					<rect x="30.6" y="16.5" class="st0" width="5.7" height="44.5"/>
				</g>
				<g id="XMLID_258_">
					<rect x="37.9" y="16.5" class="st0" width="2.8" height="44.5"/>
				</g>
				<g id="XMLID_268_">
					<path id="XMLID_84_" d="M55.6,62H29.9c-1.9,0-3.4-1.5-3.4-3.4V18.9c0-1.9,1.5-3.4,3.4-3.4h3.5v2h-3.5c-0.8,0-1.4,0.6-1.4,1.4
						v39.7c0,0.8,0.6,1.4,1.4,1.4h25.7c0.8,0,1.4-0.6,1.4-1.4V18.9c0-0.8-0.6-1.4-1.4-1.4H42.9v-2h12.7c1.9,0,3.4,1.5,3.4,3.4v39.7
						C59,60.5,57.5,62,55.6,62z"/>
				</g>
				<g id="XMLID_251_">
					<rect id="XMLID_83_" x="34.9" y="15.5" width="5.8" height="2"/>
				</g>
			</g>
		</g>
	</g>
	<g id="XMLID_107_">
		<path class="st0" d="M59.6,13.6c0,0.9-0.7,1.5-1.5,1.5c-0.9,0-1.5-0.7-1.5-1.5s0.7-1.5,1.5-1.5C58.9,12.1,59.6,12.8,59.6,13.6z"/>
	</g>
	<g id="XMLID_106_">
		<path class="st0" d="M13.4,6.5c0,1.1-0.9,1.9-1.9,1.9c-1.1,0-1.9-0.9-1.9-1.9c0-1.1,0.9-1.9,1.9-1.9C12.5,4.6,13.4,5.4,13.4,6.5z"
			/>
	</g>
	<g id="XMLID_105_">
		<path class="st0" d="M30.1,10.9c0,0.5-0.4,0.9-0.9,0.9c-0.5,0-0.9-0.4-0.9-0.9c0-0.5,0.4-0.9,0.9-0.9C29.7,10,30.1,10.4,30.1,10.9
			z"/>
	</g>
	<g id="XMLID_104_">
		<path class="st0" d="M61.4,3.5c0,0.6-0.5,1-1,1c-0.6,0-1-0.5-1-1c0-0.6,0.5-1,1-1C61,2.5,61.4,3,61.4,3.5z"/>
	</g>
	<g id="XMLID_101_">
		<path class="st0" d="M41.8,3.5c0,0.8-0.7,1.5-1.5,1.5c-0.8,0-1.5-0.7-1.5-1.5c0-0.8,0.7-1.5,1.5-1.5C41.1,2,41.8,2.7,41.8,3.5z"/>
	</g>
	<g>
		<g>
			<g>
				<defs>
					<path id="SVGID_143_" d="M666.2,58.9h-46.2c-0.8,0-1.4-0.6-1.4-1.4V24.9c0-0.8,0.6-1.4,1.4-1.4h46.2c0.8,0,1.4,0.6,1.4,1.4
						v32.6C667.6,58.3,666.9,58.9,666.2,58.9"/>
				</defs>
				<clipPath id="SVGID_2_">
					<use xlink:href="#SVGID_143_"  style="overflow:visible;"/>
				</clipPath>
				<g class="st13">
					<defs>
						<rect id="SVGID_145_" x="-123.3" y="-99.9" width="931.4" height="486.1"/>
					</defs>
					<clipPath id="SVGID_4_">
						<use xlink:href="#SVGID_145_"  style="overflow:visible;"/>
					</clipPath>
				</g>
			</g>
			<g>
				<defs>
					<path id="SVGID_147_" d="M666.7,59.6h-46.6c-1.3,0-2.3-1-2.3-2.3V41.7h2.1v15.6l0.1,0.2h46.6l0.2-0.2V24.4l-0.2-0.2h-16.8v-2.1
						h16.8c1.3,0,2.3,1,2.3,2.3v32.9C669,58.6,667.9,59.6,666.7,59.6"/>
				</defs>
				<clipPath id="SVGID_6_">
					<use xlink:href="#SVGID_147_"  style="overflow:visible;"/>
				</clipPath>
				<g class="st15">
					<defs>
						<rect id="SVGID_149_" x="-123.3" y="-99.9" width="931.4" height="486.1"/>
					</defs>
					<clipPath id="SVGID_8_">
						<use xlink:href="#SVGID_149_"  style="overflow:visible;"/>
					</clipPath>
				</g>
			</g>
			<g>
				<defs>
					<rect id="SVGID_151_" x="621.2" y="26.2" width="44.3" height="28.6"/>
				</defs>
				<clipPath id="SVGID_10_">
					<use xlink:href="#SVGID_151_"  style="overflow:visible;"/>
				</clipPath>
				<g class="st17">
					<defs>
						<rect id="SVGID_153_" x="-123.3" y="-99.9" width="931.4" height="486.1"/>
					</defs>
					<clipPath id="SVGID_12_">
						<use xlink:href="#SVGID_153_"  style="overflow:visible;"/>
					</clipPath>
				</g>
			</g>
			<g>
				<defs>
					<path id="SVGID_155_" d="M666.7,61h-47.6c-1.1,0-2.1-0.8-2.3-2l-0.3-2.1h22.1l0.8,1.2h6.1l0.9-1.2h23.3l-0.3,1.8
						C669.1,60,668,61,666.7,61"/>
				</defs>
				<clipPath id="SVGID_14_">
					<use xlink:href="#SVGID_155_"  style="overflow:visible;"/>
				</clipPath>
				<g class="st18">
					<defs>
						<rect id="SVGID_157_" x="-123.3" y="-99.9" width="931.4" height="486.1"/>
					</defs>
					<clipPath id="SVGID_16_">
						<use xlink:href="#SVGID_157_"  style="overflow:visible;"/>
					</clipPath>
				</g>
			</g>
			<g>
				<defs>
					<path id="SVGID_159_" d="M666.8,61.7H619c-1.7,0-3.1-1.2-3.4-2.8l-0.5-3.3h24l0.8,1.2h5l0.9-1.2H671l-0.5,3
						C670.2,60.4,668.7,61.7,666.8,61.7z M617.6,57.6l0.1,0.8c0.1,0.6,0.6,1.1,1.3,1.1h47.8c0.8,0,1.5-0.6,1.6-1.3l0.1-0.6h-21.6
						l-0.9,1.2h-7.2l-0.8-1.2H617.6z"/>
				</defs>
				<clipPath id="SVGID_18_">
					<use xlink:href="#SVGID_159_"  style="overflow:visible;"/>
				</clipPath>
				<g class="st20">
					<defs>
						<rect id="SVGID_161_" x="-123.3" y="-99.9" width="931.4" height="486.1"/>
					</defs>
					<clipPath id="SVGID_20_">
						<use xlink:href="#SVGID_161_"  style="overflow:visible;"/>
					</clipPath>
				</g>
			</g>
			<g>
				<defs>
					<path id="SVGID_163_" d="M644.3,38.5h-29c-1.6,0-2.9-1.3-2.9-2.9V16.1c0-1.6,1.3-2.9,2.9-2.9h29c1.6,0,2.9,1.3,2.9,2.9v19.5
						C647.1,37.2,645.9,38.5,644.3,38.5"/>
				</defs>
				<clipPath id="SVGID_22_">
					<use xlink:href="#SVGID_163_"  style="overflow:visible;"/>
				</clipPath>
				<g class="st22">
					<defs>
						<rect id="SVGID_165_" x="-123.3" y="-99.9" width="931.4" height="486.1"/>
					</defs>
					<clipPath id="SVGID_24_">
						<use xlink:href="#SVGID_165_"  style="overflow:visible;"/>
					</clipPath>
				</g>
			</g>
			<g>
				<defs>
					<path id="SVGID_167_" d="M612.4,18.7V15c0-1,0.8-1.8,1.7-1.8h31.3c1,0,1.7,0.8,1.7,1.8v3.7H612.4"/>
				</defs>
				<clipPath id="SVGID_26_">
					<use xlink:href="#SVGID_167_"  style="overflow:visible;"/>
				</clipPath>
				<g class="st24">
					<defs>
						<rect id="SVGID_169_" x="-123.3" y="-99.9" width="931.4" height="486.1"/>
					</defs>
					<clipPath id="SVGID_28_">
						<use xlink:href="#SVGID_169_"  style="overflow:visible;"/>
					</clipPath>
				</g>
			</g>
			<g>
				<defs>
					<path id="SVGID_171_" d="M645.6,39.8h-31.8c-1.6,0-2.9-1.3-2.9-2.8V15.4c0-1.5,1.3-2.8,2.9-2.8h4.7v2.1h-4.7
						c-0.4,0-0.7,0.3-0.7,0.7V37c0,0.4,0.3,0.7,0.7,0.7h31.8c0.4,0,0.7-0.3,0.7-0.7V15.4c0-0.4-0.3-0.7-0.7-0.7h-21v-2.1h21
						c1.6,0,2.9,1.3,2.9,2.8V37C648.5,38.6,647.2,39.8,645.6,39.8"/>
				</defs>
				<clipPath id="SVGID_30_">
					<use xlink:href="#SVGID_171_"  style="overflow:visible;"/>
				</clipPath>
				<g class="st26">
					<defs>
						<rect id="SVGID_173_" x="-123.3" y="-99.9" width="931.4" height="486.1"/>
					</defs>
					<clipPath id="SVGID_32_">
						<use xlink:href="#SVGID_173_"  style="overflow:visible;"/>
					</clipPath>
				</g>
			</g>
			<g>
				<defs>
					<rect id="SVGID_175_" x="619.9" y="12.6" width="2.7" height="2"/>
				</defs>
				<clipPath id="SVGID_34_">
					<use xlink:href="#SVGID_175_"  style="overflow:visible;"/>
				</clipPath>
				<g class="st28">
					<defs>
						<rect id="SVGID_177_" x="-123.3" y="-99.9" width="931.4" height="486.1"/>
					</defs>
					<clipPath id="SVGID_36_">
						<use xlink:href="#SVGID_177_"  style="overflow:visible;"/>
					</clipPath>
				</g>
			</g>
			<g>
				<defs>
					<rect id="SVGID_179_" x="612.4" y="18" width="34.8" height="2"/>
				</defs>
				<clipPath id="SVGID_38_">
					<use xlink:href="#SVGID_179_"  style="overflow:visible;"/>
				</clipPath>
				<g class="st30">
					<defs>
						<rect id="SVGID_181_" x="-123.3" y="-99.9" width="931.4" height="486.1"/>
					</defs>
					<clipPath id="SVGID_40_">
						<use xlink:href="#SVGID_181_"  style="overflow:visible;"/>
					</clipPath>
				</g>
			</g>
			<g>
				<defs>
					<rect id="SVGID_183_" x="615.8" y="15.3" width="1.3" height="2"/>
				</defs>
				<clipPath id="SVGID_42_">
					<use xlink:href="#SVGID_183_"  style="overflow:visible;"/>
				</clipPath>
				<g class="st31">
					<defs>
						<rect id="SVGID_185_" x="-123.3" y="-99.9" width="931.4" height="486.1"/>
					</defs>
					<clipPath id="SVGID_44_">
						<use xlink:href="#SVGID_185_"  style="overflow:visible;"/>
					</clipPath>
				</g>
			</g>
			<g>
				<defs>
					<rect id="SVGID_187_" x="619.2" y="15.3" width="1.3" height="2"/>
				</defs>
				<clipPath id="SVGID_46_">
					<use xlink:href="#SVGID_187_"  style="overflow:visible;"/>
				</clipPath>
				<g class="st33">
					<defs>
						<rect id="SVGID_189_" x="-123.3" y="-99.9" width="931.4" height="486.1"/>
					</defs>
					<clipPath id="SVGID_48_">
						<use xlink:href="#SVGID_189_"  style="overflow:visible;"/>
					</clipPath>
				</g>
			</g>
			<g>
				<defs>
					<rect id="SVGID_191_" x="622.6" y="15.3" width="1.3" height="2"/>
				</defs>
				<clipPath id="SVGID_50_">
					<use xlink:href="#SVGID_191_"  style="overflow:visible;"/>
				</clipPath>
				<g class="st35">
					<defs>
						<rect id="SVGID_193_" x="-123.3" y="-99.9" width="931.4" height="486.1"/>
					</defs>
					<clipPath id="SVGID_52_">
						<use xlink:href="#SVGID_193_"  style="overflow:visible;"/>
					</clipPath>
				</g>
			</g>
			<g>
				<defs>
					<polyline id="SVGID_195_" points="622.6,28.5 622.6,27.4 626.7,25.5 626.7,26.7 624,27.9 626.7,29.1 626.7,30.3 622.6,28.5 
											"/>
				</defs>
				<use xlink:href="#SVGID_195_"  style="overflow:visible;fill-rule:evenodd;clip-rule:evenodd;fill:#CCCCCC;"/>
				<clipPath id="SVGID_54_">
					<use xlink:href="#SVGID_195_"  style="overflow:visible;"/>
				</clipPath>
				<g class="st37">
					<defs>
						<rect id="SVGID_197_" x="-123.3" y="-99.9" width="931.4" height="486.1"/>
					</defs>
					<use xlink:href="#SVGID_197_"  style="overflow:visible;fill:#CCCCCC;"/>
					<clipPath id="SVGID_56_">
						<use xlink:href="#SVGID_197_"  style="overflow:visible;"/>
					</clipPath>
				</g>
			</g>
			<g>
				<defs>
					<polyline id="SVGID_199_" points="630.4,24.2 631.5,24.2 628.4,31 627.4,31 630.4,24.2 					"/>
				</defs>
				<use xlink:href="#SVGID_199_"  style="overflow:visible;fill-rule:evenodd;clip-rule:evenodd;fill:#CCCCCC;"/>
				<clipPath id="SVGID_58_">
					<use xlink:href="#SVGID_199_"  style="overflow:visible;"/>
				</clipPath>
				<g class="st38">
					<defs>
						<rect id="SVGID_201_" x="-123.3" y="-99.9" width="931.4" height="486.1"/>
					</defs>
					<use xlink:href="#SVGID_201_"  style="overflow:visible;fill:#CCCCCC;"/>
					<clipPath id="SVGID_60_">
						<use xlink:href="#SVGID_201_"  style="overflow:visible;"/>
					</clipPath>
				</g>
			</g>
			<g>
				<defs>
					<polyline id="SVGID_203_" points="636.9,27.4 636.9,28.5 632.8,30.3 632.8,29.1 635.5,27.9 632.8,26.7 632.8,25.5 636.9,27.4 
											"/>
				</defs>
				<use xlink:href="#SVGID_203_"  style="overflow:visible;fill-rule:evenodd;clip-rule:evenodd;fill:#CCCCCC;"/>
				<clipPath id="SVGID_62_">
					<use xlink:href="#SVGID_203_"  style="overflow:visible;"/>
				</clipPath>
				<g class="st39">
					<defs>
						<rect id="SVGID_205_" x="-123.3" y="-99.9" width="931.4" height="486.1"/>
					</defs>
					<use xlink:href="#SVGID_205_"  style="overflow:visible;fill:#CCCCCC;"/>
					<clipPath id="SVGID_64_">
						<use xlink:href="#SVGID_205_"  style="overflow:visible;"/>
					</clipPath>
				</g>
			</g>
			<g>
				<defs>
					<rect id="SVGID_207_" x="649.9" y="29.6" width="11.6" height="2"/>
				</defs>
				<clipPath id="SVGID_66_">
					<use xlink:href="#SVGID_207_"  style="overflow:visible;"/>
				</clipPath>
				<g class="st41">
					<defs>
						<rect id="SVGID_209_" x="-123.3" y="-99.9" width="931.4" height="486.1"/>
					</defs>
					<clipPath id="SVGID_68_">
						<use xlink:href="#SVGID_209_"  style="overflow:visible;"/>
					</clipPath>
				</g>
			</g>
			<g>
				<defs>
					<rect id="SVGID_211_" x="653.3" y="34.4" width="4.1" height="2"/>
				</defs>
				<clipPath id="SVGID_70_">
					<use xlink:href="#SVGID_211_"  style="overflow:visible;"/>
				</clipPath>
				<g class="st43">
					<defs>
						<rect id="SVGID_213_" x="-123.3" y="-99.9" width="931.4" height="486.1"/>
					</defs>
					<clipPath id="SVGID_72_">
						<use xlink:href="#SVGID_213_"  style="overflow:visible;"/>
					</clipPath>
				</g>
			</g>
			<g>
				<defs>
					<rect id="SVGID_215_" x="638.3" y="40.5" width="11.6" height="2"/>
				</defs>
				<clipPath id="SVGID_74_">
					<use xlink:href="#SVGID_215_"  style="overflow:visible;"/>
				</clipPath>
				<g style="clip-path:url(#SVGID_74_);">
					<defs>
						<rect id="SVGID_217_" x="-123.3" y="-99.9" width="931.4" height="486.1"/>
					</defs>
					<clipPath id="SVGID_76_">
						<use xlink:href="#SVGID_217_"  style="overflow:visible;"/>
					</clipPath>
				</g>
			</g>
			<g>
				<defs>
					<rect id="SVGID_219_" x="651.9" y="40.5" width="6.1" height="2"/>
				</defs>
				<clipPath id="SVGID_78_">
					<use xlink:href="#SVGID_219_"  style="overflow:visible;"/>
				</clipPath>
				<g style="clip-path:url(#SVGID_78_);">
					<defs>
						<rect id="SVGID_221_" x="-123.3" y="-99.9" width="931.4" height="486.1"/>
					</defs>
					<clipPath id="SVGID_80_">
						<use xlink:href="#SVGID_221_"  style="overflow:visible;"/>
					</clipPath>
				</g>
			</g>
			<g>
				<defs>
					<rect id="SVGID_223_" x="634.2" y="40.5" width="2" height="2"/>
				</defs>
				<clipPath id="SVGID_82_">
					<use xlink:href="#SVGID_223_"  style="overflow:visible;"/>
				</clipPath>
				<g class="st47">
					<defs>
						<rect id="SVGID_225_" x="-123.3" y="-99.9" width="931.4" height="486.1"/>
					</defs>
					<clipPath id="SVGID_84_">
						<use xlink:href="#SVGID_225_"  style="overflow:visible;"/>
					</clipPath>
				</g>
			</g>
			<g>
				<defs>
					<rect id="SVGID_227_" x="624" y="44.6" width="11.6" height="2"/>
				</defs>
				<clipPath id="SVGID_86_">
					<use xlink:href="#SVGID_227_"  style="overflow:visible;"/>
				</clipPath>
				<g style="clip-path:url(#SVGID_86_);">
					<defs>
						<rect id="SVGID_229_" x="-123.3" y="-99.9" width="931.4" height="486.1"/>
					</defs>
					<clipPath id="SVGID_89_">
						<use xlink:href="#SVGID_229_"  style="overflow:visible;"/>
					</clipPath>
				</g>
			</g>
			<g>
				<defs>
					<rect id="SVGID_231_" x="631.5" y="49.4" width="11.6" height="2"/>
				</defs>
				<clipPath id="SVGID_90_">
					<use xlink:href="#SVGID_231_"  style="overflow:visible;"/>
				</clipPath>
				<g class="st51">
					<defs>
						<rect id="SVGID_233_" x="-123.3" y="-99.9" width="931.4" height="486.1"/>
					</defs>
					<clipPath id="SVGID_92_">
						<use xlink:href="#SVGID_233_"  style="overflow:visible;"/>
					</clipPath>
				</g>
			</g>
			<g>
				<defs>
					<rect id="SVGID_235_" x="645.8" y="49.4" width="6.1" height="2"/>
				</defs>
				<clipPath id="SVGID_94_">
					<use xlink:href="#SVGID_235_"  style="overflow:visible;"/>
				</clipPath>
				<g class="st53">
					<defs>
						<rect id="SVGID_237_" x="-123.3" y="-99.9" width="931.4" height="486.1"/>
					</defs>
					<clipPath id="SVGID_96_">
						<use xlink:href="#SVGID_237_"  style="overflow:visible;"/>
					</clipPath>
				</g>
			</g>
		</g>
	</g>
</g>
<g id="specctr">
	<g id="Text_Properties">
	</g>
</g>
</svg>
