<?xml version="1.0" encoding="utf-8"?>
<!-- Generator: Adobe Illustrator 17.0.0, SVG Export Plug-In . SVG Version: 6.00 Build 0)  -->
<!DOCTYPE svg PUBLIC "-//W3C//DTD SVG 1.1//EN" "http://www.w3.org/Graphics/SVG/1.1/DTD/svg11.dtd">
<svg version="1.1" id="Layer_1" xmlns="http://www.w3.org/2000/svg" xmlns:xlink="http://www.w3.org/1999/xlink" x="0px" y="0px"
	 width="842.35px" height="595.3px" viewBox="0 0 842.35 595.3" enable-background="new 0 0 842.35 595.3" xml:space="preserve">
<g>
	<g>
		<g>
			<g id="XMLID_1474_">
				<path id="XMLID_1784_" fill="#FFFFFF" d="M522.29,201.044l48.368,53.019v79.993l-13.022,39.067v75.343H459.04V417.77
					c0,0-28.835-40.927-27.905-74.413"/>
				<g id="XMLID_1782_">
					
						<rect id="XMLID_1783_" x="361.093" y="48.306" fill="#FFFFFF" stroke="#171C28" stroke-width="10" stroke-linecap="round" stroke-linejoin="round" stroke-miterlimit="10" width="149.755" height="263.234"/>
				</g>
				
					<path id="XMLID_1777_" fill="none" stroke="#171C28" stroke-width="10" stroke-linecap="round" stroke-linejoin="round" stroke-miterlimit="10" d="
					M522.29,201.044l48.368,53.019v79.993l-13.022,39.067v75.343H459.04V417.77c0,0-28.835-40.927-27.905-74.413"/>
				
					<polyline id="XMLID_1503_" fill="none" stroke="#171C28" stroke-width="10" stroke-linecap="round" stroke-linejoin="round" stroke-miterlimit="10" points="
					406.951,245.691 406.951,266.155 422.763,278.247 447.878,278.247 463.69,267.085 463.69,245.691 				"/>
				
					<path id="XMLID_1502_" fill="#FFFFFF" stroke="#171C28" stroke-width="10" stroke-linecap="round" stroke-linejoin="round" stroke-miterlimit="10" d="
					M526.011,291.269l-53.019-53.019c0,0-31.625-14.883-31.625,31.625l47.438,47.438c0,0-3.721,44.647,33.486,79.993"/>
				
					<polyline id="XMLID_1501_" fill="#0D3178" stroke="#171C28" stroke-width="10" stroke-linecap="round" stroke-linejoin="round" stroke-miterlimit="10" points="
					438.576,541.481 438.576,448.465 580.89,448.465 580.89,541.481 				"/>
				
					<polyline id="XMLID_1500_" fill="none" stroke="#171C28" stroke-width="10" stroke-linecap="round" stroke-linejoin="round" stroke-miterlimit="10" points="
					463.69,108.028 463.69,87.565 447.878,75.473 422.763,75.473 406.951,86.634 406.951,108.028 				"/>
				<g id="XMLID_1481_">
					
						<ellipse id="XMLID_1499_" fill="#FFFFFF" stroke="#171C28" stroke-width="10" stroke-linecap="round" stroke-linejoin="round" stroke-miterlimit="10" cx="437.646" cy="176.86" rx="44.647" ry="45.578"/>
					<ellipse id="XMLID_1498_" fill="#0D3178" cx="437.646" cy="176.86" rx="35.346" ry="35.346"/>
					<g enable-background="new    ">
						<path fill="#FFFFFF" d="M420.73,194.543v-4.14h15.468v-0.143c-1.237-0.856-2.38-1.713-3.427-2.522l-12.042-9.804v-5.14
							l13.612,11.613l18.466-12.517v4.902l-15.753,10.565l3.521,3.046h12.231v4.14H420.73z"/>
						<path fill="#FFFFFF" d="M448.525,169.464c0.809-1.237,1.666-3.426,1.666-5.521c0-3.046-1.523-4.474-3.427-4.474
							c-1.999,0-3.094,1.19-4.236,4.283c-1.475,4.141-3.76,6.092-6.52,6.092c-3.713,0-6.759-2.998-6.759-7.948
							c0-2.332,0.667-4.378,1.429-5.664l3.046,1.047c-0.571,0.904-1.333,2.57-1.333,4.712c0,2.475,1.428,3.855,3.141,3.855
							c1.904,0,2.761-1.38,3.903-4.378c1.522-3.998,3.521-6.044,6.948-6.044c4.045,0,6.9,3.141,6.9,8.614
							c0,2.522-0.618,4.854-1.57,6.473L448.525,169.464z"/>
					</g>
				</g>
			</g>
		</g>
	</g>
	<g>
		<rect x="261.46" y="329.489" fill="#0D3178" width="149.779" height="217.505"/>
		<g>
			<g>
				<g>
					<rect x="274.108" y="399.241" fill="#FFFFFF" width="20.248" height="20.246"/>
					<rect x="274.114" y="435.389" fill="#FFFFFF" width="20.243" height="20.257"/>
					<rect x="274.116" y="471.537" fill="#FFFFFF" width="20.245" height="20.259"/>
					<rect x="274.12" y="507.686" fill="#FFFFFF" width="20.248" height="20.257"/>
				</g>
				<g>
					<rect x="308.855" y="399.237" fill="#FFFFFF" width="20.246" height="20.247"/>
					<rect x="308.859" y="435.385" fill="#FFFFFF" width="20.25" height="20.258"/>
					<rect x="308.864" y="471.534" fill="#FFFFFF" width="20.245" height="20.257"/>
					<rect x="308.866" y="507.681" fill="#FFFFFF" width="20.247" height="20.259"/>
				</g>
				<g>
					<rect x="343.596" y="399.232" fill="#FFFFFF" width="20.257" height="20.247"/>
					<rect x="274.106" y="390.256" fill="#FFFFFF" width="20.248" height="2.774"/>
					<rect x="308.854" y="390.255" fill="#FFFFFF" width="20.247" height="2.772"/>
					<rect x="343.593" y="390.249" fill="#FFFFFF" width="20.254" height="2.774"/>
					<rect x="343.599" y="435.381" fill="#FFFFFF" width="20.256" height="20.258"/>
					<rect x="343.603" y="471.529" fill="#FFFFFF" width="20.254" height="20.259"/>
					<rect x="343.608" y="507.678" fill="#FFFFFF" width="20.254" height="20.259"/>
				</g>
				<g>
					<rect x="378.34" y="399.229" fill="#FFFFFF" width="20.254" height="20.247"/>
					<rect x="378.342" y="435.379" fill="#FFFFFF" width="20.256" height="20.256"/>
					<rect x="378.35" y="471.527" fill="#FFFFFF" width="20.257" height="56.406"/>
				</g>
			</g>
			<rect x="272.157" y="344.525" fill="#ABE0F9" width="128.368" height="37.67"/>
		</g>
		<path fill="#FFFFFF" d="M391.53,391.631c0.001,1.897-1.536,3.432-3.431,3.432s-3.437-1.535-3.437-3.431
			c-0.001-1.897,1.54-3.429,3.435-3.429C389.991,388.2,391.53,389.738,391.53,391.631z"/>
	</g>
</g>
</svg>
