<?xml version="1.0" encoding="utf-8"?>
<!-- Generator: Adobe Illustrator 17.0.0, SVG Export Plug-In . SVG Version: 6.00 Build 0)  -->
<!DOCTYPE svg PUBLIC "-//W3C//DTD SVG 1.1//EN" "http://www.w3.org/Graphics/SVG/1.1/DTD/svg11.dtd">
<svg version="1.1" id="Layer_1" xmlns="http://www.w3.org/2000/svg" xmlns:xlink="http://www.w3.org/1999/xlink" x="0px" y="0px"
	 width="150px" height="150px" viewBox="0 0 150 150" enable-background="new 0 0 150 150" xml:space="preserve">
<g>
	
		<path id="XMLID_1750_" fill="#FFFFFF" stroke="#171C28" stroke-width="3" stroke-linecap="round" stroke-linejoin="round" stroke-miterlimit="10" d="
		M80.391,135.234h-48.75c-6.328,0-11.484-5.156-11.484-11.484V24.141c0-5.859,4.688-10.781,10.781-10.781h84.844"/>
	
		<line id="XMLID_1749_" fill="none" stroke="#171C28" stroke-width="3" stroke-linecap="round" stroke-linejoin="round" stroke-miterlimit="10" x1="98.672" y1="79.688" x2="98.672" y2="14.063"/>
	
		<path id="XMLID_1734_" fill="#FFFFFF" stroke="#171C28" stroke-width="3" stroke-linecap="round" stroke-linejoin="round" stroke-miterlimit="10" d="
		M112.734,79.688V18.75c0-3.047,2.578-5.625,5.625-5.625h1.406c3.281,0,6.094,2.813,6.094,6.094v54.141h-6.328"/>
	
		<line id="XMLID_1733_" fill="none" stroke="#171C28" stroke-width="3" stroke-linecap="round" stroke-linejoin="round" stroke-miterlimit="10" x1="31.172" y1="29.766" x2="58.125" y2="29.766"/>
	
		<line id="XMLID_1731_" fill="none" stroke="#171C28" stroke-width="3" stroke-linecap="round" stroke-linejoin="round" stroke-miterlimit="10" x1="31.172" y1="77.813" x2="87.422" y2="77.813"/>
	
		<line id="XMLID_1717_" fill="none" stroke="#171C28" stroke-width="3" stroke-linecap="round" stroke-linejoin="round" stroke-miterlimit="10" x1="31.172" y1="87.656" x2="81.094" y2="87.656"/>
	
		<line id="XMLID_1715_" fill="none" stroke="#171C28" stroke-width="3" stroke-linecap="round" stroke-linejoin="round" stroke-miterlimit="10" x1="31.172" y1="97.266" x2="73.594" y2="97.266"/>
	
		<line id="XMLID_1714_" fill="none" stroke="#171C28" stroke-width="3" stroke-linecap="round" stroke-linejoin="round" stroke-miterlimit="10" x1="31.172" y1="107.109" x2="67.969" y2="107.109"/>
	
		<line id="XMLID_1713_" fill="none" stroke="#171C28" stroke-width="3" stroke-linecap="round" stroke-linejoin="round" stroke-miterlimit="10" x1="31.172" y1="116.953" x2="60.469" y2="116.953"/>
	
		<line id="XMLID_1712_" fill="none" stroke="#171C28" stroke-width="3" stroke-linecap="round" stroke-linejoin="round" stroke-miterlimit="10" x1="31.172" y1="39.609" x2="51.328" y2="39.609"/>
	
		<line id="XMLID_1711_" fill="none" stroke="#171C28" stroke-width="3" stroke-linecap="round" stroke-linejoin="round" stroke-miterlimit="10" x1="56.25" y1="39.609" x2="88.125" y2="39.609"/>
	
		<rect id="XMLID_1710_" x="30" y="49.219" fill="#0D3178" stroke="#171C28" stroke-width="3" stroke-linecap="round" stroke-linejoin="round" stroke-miterlimit="10" width="58.125" height="18.281"/>
	
		<circle id="XMLID_1709_" fill="#FFFFFF" stroke="#171C28" stroke-width="3" stroke-linecap="round" stroke-linejoin="round" stroke-miterlimit="10" cx="103.828" cy="109.922" r="27.422"/>
</g>
<g>
	<path fill="#D72027" d="M103.736,121.733v1.658c0,0-3.931,0.665-8.91,0.985c-1.787,0.077-3.695-0.029-5.572-0.125
		c-4.183-0.64-5.826-1.493-5.133-4.787c0,0,0.152-1.487,4.408-6.91c1.394-1.677,3.222-3.591,5.614-6.041l1.528,0.982
		c0,0-0.711,2.048-2.628,5.624c-1.649,3.019-3.604,6.406-3.604,6.406L103.736,121.733z"/>
	<g>
		<g>
			<path fill="#253775" d="M113.307,106.368c0,0-0.463-1.348-1.192-3.315c-1.19-3.218-3.161-8.045-5.519-10.988
				c-1.046-1.048-2.013-1.38-2.882-1.325c-0.869-0.055-1.838,0.277-2.882,1.325c-2.357,2.942-4.328,7.77-5.519,10.988
				c-0.727,1.966-1.192,3.315-1.192,3.315l-0.453,0.675l1.658,1.351l0.55-1.044l7.835-10.984l7.837,10.984l0.565,1.044l1.631-1.351
				L113.307,106.368z"/>
		</g>
	</g>
	<path fill="#009849" d="M103.709,121.722v1.655c0,0,3.929,0.652,8.923,0.983c1.922,0.127,3.791,0.022,5.579-0.125
		c4.189-0.639,5.834-1.49,5.141-4.78c0,0-0.152-1.484-4.414-6.9c-1.396-1.674-2.798-3.094-5.194-5.54l-1.652,1.348
		c0,0,0.407,1.185,2.327,4.757c1.651,3.015,3.548,6.396,3.548,6.396L103.709,121.722z"/>
</g>
</svg>
