<svg width="32" height="40" viewBox="0 0 32 40" xmlns="http://www.w3.org/2000/svg"><title>account-details</title><desc>Created with Sketch.</desc><g fill="none"><g fill="#595959"><path d="M30.635 4.763l-3.484-3.47c-.409-.406-.951-.63-1.527-.63h-18.162c-1.191 0-2.162.966-2.162 2.152v30.17c0 1.187.969 2.153 2.162 2.153h21.646c1.191 0 2.162-.966 2.162-2.153v-26.701c-.002-.574-.226-1.115-.635-1.521zm-3.694-1.648l1.865 1.857h-1.14c-.4 0-.725-.324-.725-.723v-1.134zm2.167 30.587h-21.646c-.396 0-.718-.32-.718-.716v-30.17c0-.394.322-.716.718-.716h18.036v2.151c0 1.19.972 2.16 2.169 2.16h2.16v26.575c0 .394-.324.716-.718.716z" id="Shape"/><path id="Rectangle-path" d="M8.185 6.41h9.426v1.437h-9.426zm0 8.617h20.197v1.437h-20.197zm0-5.746h20.197v1.437h-20.197z"/><path d="M22.612 30.827h1.444v-10.054h2.885v10.054h1.442v-11.491h-5.771zm-7.212 0h1.442v-5.028h2.885v5.028h1.444v-6.463h-5.771zm-7.215 0h1.444v-7.899h2.885v7.899h1.442v-9.336h-5.771z"/><path d="M8.185 12.155h20.197v1.437h-20.197z"/><path d="M26.315 38.59v-1.761c0-.56-.459-1.013-1.026-1.013h-1.532v1.262h-19.44c-.567 0-1.026-.453-1.026-1.013v-29.286h1.28v-1.51c0-.56-.459-1.013-1.026-1.013h-1.787c-.567 0-1.026.453-1.026 1.013v32.025c0 1.276 1.047 2.31 2.338 2.31h22.219c.567 0 1.026-.453 1.026-1.013z" stroke="#fff" stroke-width=".496"/></g><path fill="#9ECFEF" d="M10 23h2v8h-2zm7 3h2v5h-2zm7-5h2v10h-2z"/></g></svg>