<?xml version="1.0" encoding="utf-8"?>
<!-- Generator: Adobe Illustrator 23.0.1, SVG Export Plug-In . SVG Version: 6.00 Build 0)  -->
<svg version="1.1" id="Layer_1" xmlns="http://www.w3.org/2000/svg" xmlns:xlink="http://www.w3.org/1999/xlink" x="0px" y="0px"
	 viewBox="0 0 64 64" style="enable-background:new 0 0 64 64;" xml:space="preserve">
<style type="text/css">
	.Drop_x0020_Shadow{fill:none;}
	.Outer_x0020_Glow_x0020_5_x0020_pt{fill:none;}
	.Blue_x0020_Neon{fill:none;stroke:#8AACDA;stroke-width:7;stroke-linecap:round;stroke-linejoin:round;}
	.Chrome_x0020_Highlight{fill:url(#SVGID_1_);stroke:#FFFFFF;stroke-width:0.3629;stroke-miterlimit:1;}
	.Jive_GS{fill:#FFDD00;}
	.Alyssa_GS{fill:#A6D0E4;}
	.st0{fill:#FFFFFF;stroke:#171C28;stroke-linecap:round;stroke-linejoin:round;stroke-miterlimit:10;}
	.st1{fill:#FFFFFF;}
	.st2{fill:#171C28;}
	.st3{fill:none;stroke:#4C5C68;stroke-width:0.9106;stroke-miterlimit:10;}
	.st4{fill:none;stroke:#171C28;stroke-linecap:round;stroke-linejoin:round;stroke-miterlimit:10;}
	.st5{fill:none;stroke:#4C5C68;stroke-width:1.0828;stroke-linecap:round;stroke-linejoin:round;stroke-miterlimit:10;}
	.st6{fill:none;stroke:#4C5C68;stroke-width:1.1103;stroke-linecap:round;stroke-linejoin:round;stroke-miterlimit:10;}
	.st7{fill:#C74634;stroke:#171C28;stroke-linecap:round;stroke-linejoin:round;stroke-miterlimit:10;}
	.st8{fill:#C74634;}
	.st9{fill:#FFFFFF;stroke:#171C28;stroke-width:0.9273;stroke-linecap:round;stroke-linejoin:round;stroke-miterlimit:10;}
	.st10{fill:#4C5C68;}
	.st11{fill:#FFFFFF;stroke:#171C28;stroke-width:0.9403;stroke-linecap:round;stroke-linejoin:round;stroke-miterlimit:10;}
	.st12{fill:none;stroke:#4C5C68;stroke-linecap:round;stroke-linejoin:round;stroke-miterlimit:10;}
	.st13{fill:#CEE8FA;}
	.st14{fill:#CEE8FA;stroke:#4C5C68;stroke-linecap:round;stroke-linejoin:round;stroke-miterlimit:10;}
	.st15{fill:#F9CA38;stroke:#4C5C68;stroke-linecap:round;stroke-linejoin:round;stroke-miterlimit:10;}
	.st16{fill:#FFFFFF;stroke:#4C5C68;stroke-linecap:round;stroke-linejoin:round;stroke-miterlimit:10;}
	.st17{fill:#FFFFFF;stroke:#FEBD2E;stroke-linecap:round;stroke-linejoin:round;stroke-miterlimit:10;}
	.st18{fill:#FEBD2E;stroke:#4C5C68;stroke-linecap:round;stroke-linejoin:round;stroke-miterlimit:10;}
	.st19{fill:#286090;}
	.st20{fill:#F9CA38;}
	.st21{fill:#FFFFFF;stroke:#4C5C68;stroke-width:1.2173;stroke-linecap:round;stroke-linejoin:round;stroke-miterlimit:10;}
	.st22{fill:#FFFFFF;stroke:#4C5C68;stroke-width:0.8881;stroke-linecap:round;stroke-linejoin:round;stroke-miterlimit:10;}
	.st23{fill:none;stroke:#CEE8FA;stroke-width:1.0985;stroke-linecap:round;stroke-linejoin:round;stroke-miterlimit:10;}
	.st24{opacity:0.6;fill:#286090;}
	.st25{fill:none;stroke:#4C5C68;stroke-width:1.0254;stroke-linecap:round;stroke-linejoin:round;stroke-miterlimit:10;}
	.st26{fill:#FFFFFF;stroke:#4C5C68;stroke-miterlimit:10;}
	.st27{fill:none;stroke:#286090;stroke-linecap:round;stroke-linejoin:round;stroke-miterlimit:10;stroke-dasharray:0,2;}
	.st28{fill:none;stroke:#286090;stroke-linecap:round;stroke-linejoin:round;stroke-miterlimit:10;}
	.st29{fill:#FEBD2E;}
	.st30{fill:none;stroke:#CEE8FA;stroke-linecap:round;stroke-linejoin:round;stroke-miterlimit:10;}
	.st31{fill:#FFFFFF;stroke:#171C28;stroke-miterlimit:10;}
	.st32{fill:#FFFFFF;stroke:#171C28;stroke-width:1.0268;stroke-linecap:round;stroke-linejoin:round;stroke-miterlimit:10;}
	.st33{fill:none;stroke:#171C28;stroke-width:1.0268;stroke-linecap:round;stroke-linejoin:round;stroke-miterlimit:10;}
	.st34{fill:#6B6B6B;}
	.st35{fill:none;stroke:#FFFFFF;stroke-width:1.0985;stroke-linecap:round;stroke-linejoin:round;stroke-miterlimit:10;}
	.st36{fill:#FFFFFF;stroke:#171C28;stroke-width:1.0688;stroke-linecap:round;stroke-linejoin:round;stroke-miterlimit:10;}
	.st37{fill:none;stroke:#4C5C68;stroke-width:1.1073;stroke-linecap:round;stroke-linejoin:round;stroke-miterlimit:10;}
	.st38{fill:none;stroke:#4C5C68;stroke-width:1.0096;stroke-linecap:round;stroke-linejoin:round;stroke-miterlimit:10;}
	.st39{fill:#FFFFFF;stroke:#171C28;stroke-width:1.1331;stroke-linecap:round;stroke-linejoin:round;stroke-miterlimit:10;}
	.st40{fill:none;stroke:#171C28;stroke-linecap:round;stroke-linejoin:round;stroke-miterlimit:10;stroke-dasharray:0,2;}
	.st41{fill:none;stroke:#BC0110;stroke-linecap:round;stroke-linejoin:round;stroke-miterlimit:10;}
	.st42{fill:none;stroke:#333333;stroke-width:2;stroke-linecap:round;stroke-linejoin:round;stroke-miterlimit:10;}
	.st43{fill:#FFFFFF;stroke:#171C28;stroke-width:1.211;stroke-linecap:round;stroke-linejoin:round;stroke-miterlimit:10;}
	.st44{fill:#171C28;stroke:#000000;stroke-width:0.2;stroke-linecap:round;stroke-linejoin:round;stroke-miterlimit:10;}
	.st45{fill:#FFFFFF;stroke:#4C5C68;stroke-width:0.9531;stroke-linecap:round;stroke-linejoin:round;stroke-miterlimit:10;}
	.st46{fill:#5FB0E5;}
	.st47{fill:#D2E9F7;}
	.st48{fill:#0686D8;}
	.st49{fill:#9ECFEF;}
	.st50{fill:none;stroke:#4C5C68;stroke-miterlimit:10;}
	.st51{fill:#4C5C68;stroke:#4C5C68;stroke-width:0.4;stroke-linecap:round;stroke-linejoin:round;stroke-miterlimit:10;}
	.st52{fill:#FED65C;}
	.st53{fill:none;stroke:#FFFFFF;stroke-linecap:round;stroke-linejoin:round;stroke-miterlimit:10;}
	.st54{fill:#EBF0F2;}
	.st55{fill:#B8D1CD;}
	.st56{fill:#DCEAE7;}
	.st57{fill:#EFB19E;}
	.st58{fill:#CCED9F;}
	.st59{fill:#A4EDE6;}
	.st60{fill:#111416;}
	.st61{fill:#567771;}
	.st62{fill:#FACC40;}
	.st63{fill:#FFF380;}
	.st64{fill:#E2932B;}
	.st65{fill:#78A09A;}
	.st66{fill:#253330;}
	.st67{fill:#FFFFFF;stroke:#4C5C68;stroke-width:1.1677;stroke-linecap:round;stroke-linejoin:round;stroke-miterlimit:10;}
	.st68{fill:#FFFFFF;stroke:#4C5C68;stroke-width:1.1657;stroke-linecap:round;stroke-linejoin:round;stroke-miterlimit:10;}
	.st69{fill:#FFFFFF;stroke:#171C28;stroke-width:0.9983;stroke-linecap:round;stroke-linejoin:round;stroke-miterlimit:10;}
	.st70{fill:#FFFFFF;stroke:#171C28;stroke-width:1.0727;stroke-linecap:round;stroke-linejoin:round;stroke-miterlimit:10;}
	.st71{fill:#C74634;stroke:#FFFFFF;stroke-linecap:round;stroke-linejoin:round;stroke-miterlimit:10;}
	.st72{fill:#CEE8FA;stroke:#4C5C68;stroke-width:0.965;stroke-linecap:round;stroke-linejoin:round;stroke-miterlimit:10;}
	.st73{fill:#41464B;}
	.st74{fill:#FFFFFF;stroke:#171C28;stroke-width:1.1013;stroke-linecap:round;stroke-linejoin:round;stroke-miterlimit:10;}
	.st75{fill:none;stroke:#171C28;stroke-width:1.1013;stroke-linecap:round;stroke-linejoin:round;stroke-miterlimit:10;}
	.st76{fill:#C74634;stroke:#171C28;stroke-width:1.1013;stroke-linecap:round;stroke-linejoin:round;stroke-miterlimit:10;}
	.st77{stroke:#171C28;stroke-linecap:round;stroke-linejoin:round;stroke-miterlimit:10;}
	.st78{fill:#FFFFFF;stroke:#171C28;stroke-width:0.9891;stroke-linecap:round;stroke-linejoin:round;stroke-miterlimit:10;}
	.st79{fill:none;stroke:#171C28;stroke-width:0.5274;stroke-linecap:round;stroke-linejoin:round;stroke-miterlimit:10;}
	.st80{fill:none;stroke:#4C5C68;stroke-width:1.1135;stroke-linecap:round;stroke-linejoin:round;stroke-miterlimit:10;}
	.st81{fill:#F9CA38;stroke:#4C5C68;stroke-width:1.1723;stroke-miterlimit:10;}
	.st82{fill:none;stroke:#4C5C68;stroke-width:1.0796;stroke-linecap:round;stroke-linejoin:round;stroke-miterlimit:10;}
	.st83{fill:none;stroke:#4C5C68;stroke-width:1.136;stroke-linecap:round;stroke-linejoin:round;stroke-miterlimit:10;}
	.st84{fill:#FFFFFF;stroke:#4C5C68;stroke-width:1.0796;stroke-linecap:round;stroke-linejoin:round;stroke-miterlimit:10;}
	.st85{fill:#007395;}
	.st86{fill:#FFFFFF;stroke:#171C28;stroke-width:0.8477;stroke-linecap:round;stroke-linejoin:round;stroke-miterlimit:10;}
	.st87{fill:#FFFFFF;stroke:#171C28;stroke-width:1.0138;stroke-linecap:round;stroke-linejoin:round;stroke-miterlimit:10;}
	.st88{fill:#FFFFFF;stroke:#171C28;stroke-width:0.9779;stroke-linecap:round;stroke-linejoin:round;stroke-miterlimit:10;}
	.st89{fill:none;stroke:#595959;stroke-width:1.6811;stroke-linecap:round;stroke-linejoin:round;}
	.st90{fill:none;stroke:#595959;stroke-width:1.6811;stroke-miterlimit:10;}
</style>
<linearGradient id="SVGID_1_" gradientUnits="userSpaceOnUse" x1="-727" y1="-684" x2="-727" y2="-685">
	<stop  offset="0" style="stop-color:#656565"/>
	<stop  offset="0.618" style="stop-color:#1B1B1B"/>
	<stop  offset="0.6292" style="stop-color:#545454"/>
	<stop  offset="0.9831" style="stop-color:#3E3E3E"/>
</linearGradient>
<g>
	<polygon id="XMLID_1431_" class="st0" points="22.6,36.6 31.1,33.3 41.1,28.5 50.7,33.5 58.8,36.7 58.8,46.3 22.6,46.3 	"/>
	<path id="XMLID_1430_" class="st8" d="M32.8,32.9l5.3,13c0,0,4,0,5.2,0L49,32.8L40.9,29L32.8,32.9z"/>
	<path id="XMLID_1429_" class="st0" d="M42.2,6.7c-4.4-0.2-6,1-7.5,2.9c-1.4,1.7-1.6,4.3-1.6,4.3l0.1,8.2h16l0.2-9.4
		C49.4,12.7,48.6,6.9,42.2,6.7z"/>
	<path id="XMLID_1400_" class="st0" d="M41.1,37.5L41.1,37.5c-2.7,0-4.8-2.2-4.8-4.8v-3.8h9.6v3.8C45.9,35.3,43.8,37.5,41.1,37.5z"
		/>
	<path id="XMLID_1399_" class="st0" d="M42.9,30.6h-4.2c-2.5,0-4.1-2.2-4.1-4.7v-2c-0.9,0-0.2,0-0.3,0c-0.8,0-1.6-0.6-1.6-1.4
		s0.7-1.4,1.5-1.4c0,0-0.5,0,0.3,0v-9.5h13v9.5c0,0,0.2,0,0.3,0c0.8,0,1.4,0.6,1.4,1.4s-0.6,1.4-1.4,1.4c-0.1,0-0.3,0-0.3,0v2
		c0,1.3-0.8,2.6-1.8,3.5"/>
	<path id="XMLID_159_" class="st1" d="M34.4,11.1c-0.8,1.4-0.1,2.1-0.1,2.1c0-1.1,1.5-0.7,1.5-0.7c0.6,0.6,4.7,3.7,4.7,3.7l-1-3
		l5.2,0.9l0.5-2.2l2.9,0.8l0.1-1.2l-0.9-1"/>
	<path id="XMLID_1397_" class="st0" d="M47.7,12.7l-2.4-0.8l-0.5,2.2l-5.2-0.9l1,3c0,0-4.3-3.1-4.9-3.7c0,0-0.9,0.1-0.9,1.1"/>
	<polyline id="XMLID_1396_" class="st0" points="30.2,33.8 30.2,41.8 33.3,41.8 32.5,44 	"/>
	<polyline id="XMLID_153_" class="st0" points="50.3,33.8 50.3,40.4 48.1,40.4 48.4,43.2 	"/>
	<line id="XMLID_152_" class="st0" x1="32.9" y1="33" x2="38.3" y2="46.1"/>
	<line id="XMLID_151_" class="st0" x1="48.8" y1="32.8" x2="43.5" y2="46.1"/>
</g>
<g>
	<polygon id="XMLID_150_" class="st0" points="5.8,44.9 15.5,41.1 27,35.6 37.8,41.2 47.1,45 47.1,55.8 5.8,55.8 	"/>
	<path id="XMLID_149_" class="st8" d="M17.7,40.7l6,14.8c0,0,4.6,0,5.9,0l6.5-14.9L27,36.3L17.7,40.7z"/>
	<path id="XMLID_148_" class="st0" d="M28.2,10.7c-5-0.2-6.9,1.2-8.6,3.3C18,16,17.9,19,17.9,19l0.1,9.3h18.2l0.2-10.7
		C36.4,17.6,35.5,11,28.2,10.7z"/>
	<path id="XMLID_147_" class="st0" d="M27.1,45.8h-0.2c-3,0-5.4-2.4-5.4-5.4v-4.4h10.9v4.4C32.4,43.4,30,45.8,27.1,45.8z"/>
	<path id="XMLID_146_" class="st0" d="M29,38h-4.8c-2.8,0-4.6-2.6-4.6-5.4v-2.2c-1,0-0.3,0-0.3,0c-0.9,0-1.8-0.7-1.8-1.6
		s0.8-1.6,1.7-1.6c0.1,0-0.6,0,0.4,0V16.4h14.8v10.8c0,0,0.2,0,0.3,0c0.9,0,1.6,0.7,1.6,1.6s-0.7,1.6-1.6,1.6c-0.1,0-0.3,0-0.3,0
		v2.2c0,1.5-0.9,3-2,4"/>
	<path id="XMLID_145_" class="st1" d="M35,15.6v1.9l-3.3-0.9l-0.6,2.5l-5.9-1l1.1,3.5c0,0-4.6-3.6-5.4-4.3c0,0-1.8-0.4-1.7,0.8
		c0,0-1.1-1.1,0.3-2.4"/>
	<path id="XMLID_144_" class="st0" d="M34.4,17.6l-2.7-0.9l-0.6,2.5l-5.9-1l1.1,3.5c0,0-4.9-3.5-5.6-4.2c0,0-1.1,0.1-1,1.3"/>
	<polyline id="XMLID_143_" class="st0" points="14.5,42.1 14.5,50.4 17.9,50.4 17.1,53.3 	"/>
	<polyline id="XMLID_142_" class="st0" points="35.9,41 35.9,50.4 34.9,50.4 34.5,53.6 	"/>
	<line id="XMLID_141_" class="st0" x1="17.6" y1="40.7" x2="23.7" y2="55.6"/>
	<line id="XMLID_140_" class="st0" x1="35.7" y1="40.4" x2="29.7" y2="55.6"/>
</g>
</svg>
