<svg xmlns="http://www.w3.org/2000/svg" viewBox="0 0 58 58" enable-background="new 0 0 58 58"><path fill="#D1D1D0" d="M53.9 45h-50.3c-1.1 0-1.9-.8-1.9-1.8s.9-1.9 1.9-1.9h50.4c1 0 1.9.9 1.9 1.9-.1 1-.9 1.8-2 1.8z"/><path fill="#fff" stroke="#3B3E43" stroke-linecap="round" stroke-linejoin="round" stroke-miterlimit="10" d="M23.2 29l6.4-2.5 7.5-3.6 7.1 3.7 6.1 2.4v7.1h-27.1z"/><path fill="#89C33D" d="M30.9 26.2l3.9 9.7h3.9l4.3-9.8-6-2.8-6.1 2.9z"/><path fill="#89C33D" stroke="#3B3E43" stroke-linecap="round" stroke-linejoin="round" stroke-miterlimit="10" d="M37.9 6.6c-3.3-.1-4.5.8-5.6 2.2-1 1.3-1.2 3.2-1.2 3.2l.1 6.1h11.9l.1-7c.1 0-.6-4.3-5.3-4.5z"/><path fill="#fff" stroke="#3B3E43" stroke-linecap="round" stroke-linejoin="round" stroke-miterlimit="10" d="M37.1 29.6c-2 0-3.6-1.6-3.6-3.6v-2.8h7.2v2.8c-.1 2-1.7 3.6-3.6 3.6zM38.4 24.4h-3.1c-1.8 0-3-1.7-3-3.5v-1.5h-.2c-.6 0-1.2-.5-1.2-1s.5-1 1.1-1h.3v-7.1h9.7v7.1h.2c.6 0 1 .5 1 1s-.5 1-1 1h-.2v1.5c0 1-.6 1.9-1.3 2.6"/><path fill="#89C33D" d="M42.3 9.8l.4 1.3-2.5-.6-.4 1.7-3.9-.6.7 2.3s-3-2.3-3.5-2.8c0 0-1.2-.2-1.1.5 0 0-.3-1.1.5-2"/><path stroke="#3B3E43" stroke-linecap="round" stroke-linejoin="round" stroke-miterlimit="10" d="M41.9 11.1l-1.8-.6-.4 1.7-3.9-.6.7 2.3s-3.2-2.3-3.7-2.7c0 0-.7 0-.7.8" fill="none"/><path stroke="#4C5C68" stroke-linecap="round" stroke-linejoin="round" stroke-miterlimit="10" d="M28.9 26.9v5.9h2.3l-.6 1.7" fill="none"/><path fill="#fff" stroke="#3B3E43" stroke-linecap="round" stroke-linejoin="round" stroke-miterlimit="10" d="M43.9 26.9v4.9h-1.6l.2 2.1M30.9 26.3l4.1 9.7M42.8 26.1l-4 9.9"/><path fill="#fff" stroke="#3B3E43" stroke-linecap="round" stroke-linejoin="round" stroke-miterlimit="10" d="M10.7 35.1l7.2-2.8 8.6-4.1 8.1 4.2 6.9 2.8v8.1h-30.8z"/><path fill="#89C33D" d="M19.4 31.9l4.5 11h4.4l4.9-11.1-6.9-3.2-6.9 3.3z"/><path fill="#89C33D" stroke="#3B3E43" stroke-linecap="round" stroke-linejoin="round" stroke-miterlimit="10" d="M27.4 9.6c-3.8-.1-5.1.9-6.4 2.5-1.2 1.5-1.3 3.7-1.3 3.7l.1 6.9h13.6l.1-8c.1.1-.6-4.9-6.1-5.1z"/><path fill="#fff" stroke="#3B3E43" stroke-linecap="round" stroke-linejoin="round" stroke-miterlimit="10" d="M26.5 35.8c-2.3 0-4.1-1.8-4.1-4.1v-3.2h8.2v3.2c0 2.3-1.8 4.1-4.1 4.1zM28 29.9h-3.5c-2.1 0-3.4-1.9-3.4-4v-1.7h-.2c-.7 0-1.3-.5-1.3-1.2s.6-1.2 1.3-1.2h.3v-8h11v8.1h.3c.7 0 1.2.5 1.2 1.2s-.5 1.2-1.2 1.2h-.3v1.7c0 1.1-.7 2.2-1.5 3"/><path fill="#89C33D" d="M32.5 13.3v1.4l-2.5-.7-.5 1.9-4.4-.7.8 2.6s-3.4-2.7-4-3.2c0 0-1.5-.3-1.5.6 0 0-.3-.7.4-1.9"/><path stroke="#3B3E43" stroke-linecap="round" stroke-linejoin="round" stroke-miterlimit="10" d="M32.1 14.7l-2.1-.7-.5 1.9-4.4-.7.8 2.6s-3.6-2.6-4.2-3.1c0 0-.8.1-.8 1" fill="none"/><path fill="#fff" stroke="#3B3E43" stroke-linecap="round" stroke-linejoin="round" stroke-miterlimit="10" d="M17.2 33v6.3h2.5l-.6 2.1M33.1 32.2v7.1h-.7l-.3 2.3M19.5 32l4.6 11.1M33 31.8l-4.5 11.3"/></svg>