<?xml version="1.0" encoding="utf-8"?>
<!-- Generator: Adobe Illustrator 17.0.0, SVG Export Plug-In . SVG Version: 6.00 Build 0)  -->
<!DOCTYPE svg PUBLIC "-//W3C//DTD SVG 1.1//EN" "http://www.w3.org/Graphics/SVG/1.1/DTD/svg11.dtd">
<svg version="1.1" id="Layer_1" xmlns="http://www.w3.org/2000/svg" xmlns:xlink="http://www.w3.org/1999/xlink" x="0px" y="0px"
	 width="842.35px" height="595.3px" viewBox="0 0 842.35 595.3" enable-background="new 0 0 842.35 595.3" xml:space="preserve">
<g>
	
		<polygon id="XMLID_1203_" fill="none" stroke="#171C28" stroke-width="10" stroke-linecap="round" stroke-linejoin="round" stroke-miterlimit="10" points="
		215.61,412.989 311.417,375.783 425.826,320.904 534.654,376.713 626.74,413.92 626.74,522.748 215.61,522.748 	"/>
	
		<path id="XMLID_1202_" fill="#0D3178" stroke="#171C28" stroke-width="10" stroke-linecap="round" stroke-linejoin="round" stroke-miterlimit="10" d="
		M331.88,370.202l59.53,147.895c0,0,45.578,0,59.53,0l65.111-148.825l-91.155-42.787L331.88,370.202z"/>
	
		<path id="XMLID_1201_" fill="none" stroke="#171C28" stroke-width="10" stroke-linecap="round" stroke-linejoin="round" stroke-miterlimit="10" d="
		M438.848,72.552c-50.228-1.86-68.832,12.092-85.574,32.555c-15.813,19.533-17.673,49.298-17.673,49.298l1.86,93.016h181.38
		l1.86-106.968C520.702,141.384,511.4,75.343,438.848,72.552z"/>
	
		<path id="XMLID_1200_" fill="#FFFFFF" stroke="#171C28" stroke-width="10" stroke-linecap="round" stroke-linejoin="round" stroke-miterlimit="10" d="
		M432.337,422.291h-13.022c-26.975,0-48.368-21.394-48.368-48.368v-48.368h108.828v49.298
		C480.705,400.897,459.311,422.291,432.337,422.291z"/>
	
		<path id="XMLID_1199_" fill="#FFFFFF" stroke="#171C28" stroke-width="10" stroke-linecap="round" stroke-linejoin="round" stroke-miterlimit="10" d="
		M446.289,344.158h-47.438c-27.905,0-45.578-25.114-45.578-53.019v-22.324c-10.232,0-2.79,0-3.721,0
		c-8.371,0-17.673-7.441-17.673-15.813c0-8.371,8.371-15.813,16.743-15.813c0.93,0-5.581,0,3.721,0V129.292h147.895V237.19
		c0,0,2.79,0,3.721,0c8.371,0,15.813,7.441,15.813,15.813c0,8.371-7.441,15.813-15.813,15.813c-0.93,0-3.721,0-3.721,0v22.324
		c0,14.883-9.302,29.765-20.463,39.997"/>
	<path id="XMLID_1198_" fill="#FFFFFF" d="M503.959,122.781l2.79,17.673l-33.486-8.371l-5.581,25.114l-58.6-10.232l11.162,34.416
		c0,0-46.508-35.346-53.019-42.787c0,0-17.673-3.721-16.743,8.371c0,0-11.162-10.232,2.79-24.184"/>
	
		<path id="XMLID_1192_" fill="none" stroke="#171C28" stroke-width="10" stroke-linecap="round" stroke-linejoin="round" stroke-miterlimit="10" d="
		M500.238,141.384l-26.975-9.302l-5.581,25.114l-58.6-10.232l11.162,34.416c0,0-48.368-35.346-55.809-41.857
		c0,0-11.162,0.93-10.232,13.022"/>
	
		<polyline id="XMLID_1191_" fill="none" stroke="#171C28" stroke-width="10" stroke-linecap="round" stroke-linejoin="round" stroke-miterlimit="10" points="
		302.115,381.364 302.115,472.519 337.461,472.519 328.159,497.634 	"/>
	
		<polyline id="XMLID_1165_" fill="none" stroke="#171C28" stroke-width="10" stroke-linecap="round" stroke-linejoin="round" stroke-miterlimit="10" points="
		522.562,381.364 522.562,469.729 504.889,469.729 504.889,498.564 	"/>
	
		<line id="XMLID_1164_" fill="none" stroke="#171C28" stroke-width="10" stroke-linecap="round" stroke-linejoin="round" stroke-miterlimit="10" x1="331.88" y1="372.063" x2="394.2" y2="519.957"/>
	<line id="XMLID_1163_" fill="none" x1="512.33" y1="370.202" x2="451.87" y2="521.818"/>
</g>
</svg>
