<?xml version="1.0" encoding="utf-8"?>
<!-- Generator: Adobe Illustrator 17.0.0, SVG Export Plug-In . SVG Version: 6.00 Build 0)  -->
<!DOCTYPE svg PUBLIC "-//W3C//DTD SVG 1.1//EN" "http://www.w3.org/Graphics/SVG/1.1/DTD/svg11.dtd">
<svg version="1.1" id="Layer_1" xmlns="http://www.w3.org/2000/svg" xmlns:xlink="http://www.w3.org/1999/xlink" x="0px" y="0px"
	 width="842.35px" height="595.3px" viewBox="0 0 842.35 595.3" enable-background="new 0 0 842.35 595.3" xml:space="preserve">
<g>
	
		<polyline id="XMLID_1321_" fill="#FFFFFF" stroke="#171C28" stroke-width="10" stroke-linecap="round" stroke-linejoin="round" stroke-miterlimit="10" points="
		649.063,169.288 649.063,322.764 193.287,322.764 193.287,127.431 649.063,127.431 	"/>
	<g id="XMLID_1314_">
		
			<line id="XMLID_1320_" fill="none" stroke="#171C28" stroke-width="10" stroke-linecap="round" stroke-linejoin="round" stroke-miterlimit="10" x1="193.287" y1="341.367" x2="649.063" y2="341.367"/>
		
			<line id="XMLID_1319_" fill="none" stroke="#171C28" stroke-width="10" stroke-linecap="round" stroke-linejoin="round" stroke-miterlimit="10" x1="193.287" y1="363.691" x2="649.063" y2="363.691"/>
		
			<line id="XMLID_1318_" fill="none" stroke="#171C28" stroke-width="10" stroke-linecap="round" stroke-linejoin="round" stroke-miterlimit="10" x1="193.287" y1="386.945" x2="649.063" y2="386.945"/>
		
			<line id="XMLID_1317_" fill="none" stroke="#171C28" stroke-width="10" stroke-linecap="round" stroke-linejoin="round" stroke-miterlimit="10" x1="193.287" y1="409.269" x2="649.063" y2="409.269"/>
		
			<line id="XMLID_1316_" fill="none" stroke="#171C28" stroke-width="10" stroke-linecap="round" stroke-linejoin="round" stroke-miterlimit="10" x1="193.287" y1="432.523" x2="649.063" y2="432.523"/>
		
			<line id="XMLID_1315_" fill="none" stroke="#171C28" stroke-width="10" stroke-linecap="round" stroke-linejoin="round" stroke-miterlimit="10" x1="193.287" y1="454.846" x2="649.063" y2="454.846"/>
	</g>
	
		<polyline id="XMLID_1313_" fill="#FFFFFF" stroke="#171C28" stroke-width="10" stroke-linecap="round" stroke-linejoin="round" stroke-miterlimit="10" points="
		290.953,172.079 253.747,172.079 221.191,199.984 221.191,257.653 250.956,292.999 290.953,292.999 	"/>
	
		<polyline id="XMLID_1312_" fill="#FFFFFF" stroke="#171C28" stroke-width="10" stroke-linecap="round" stroke-linejoin="round" stroke-miterlimit="10" points="
		560.698,172.079 593.254,172.079 621.159,199.984 621.159,257.653 596.044,292.999 551.397,292.999 	"/>
	<g id="XMLID_1298_">
		
			<ellipse id="XMLID_1310_" fill="#FFFFFF" stroke="#171C28" stroke-width="10" stroke-linecap="round" stroke-linejoin="round" stroke-miterlimit="10" cx="425.826" cy="225.098" rx="66.971" ry="66.041"/>
		<ellipse id="XMLID_1307_" fill="#0D3178" cx="425.826" cy="225.098" rx="52.089" ry="52.089"/>
		<g>
			<path fill="#FFFFFF" d="M394.687,193.369h7.272v27.169h0.251c1.506-2.173,3.01-4.179,4.431-6.019l17.221-21.15h9.029
				l-20.397,23.909l21.985,32.435h-8.61l-18.56-27.67l-5.35,6.186v21.484h-7.272V193.369z"/>
			<path fill="#FFFFFF" d="M438.74,242.189c2.173,1.422,6.019,2.926,9.697,2.926c5.35,0,7.858-2.675,7.858-6.019
				c0-3.511-2.09-5.434-7.524-7.441c-7.273-2.591-10.7-6.603-10.7-11.452c0-6.52,5.266-11.87,13.962-11.87
				c4.096,0,7.69,1.17,9.947,2.508l-1.838,5.35c-1.589-1.003-4.514-2.341-8.276-2.341c-4.347,0-6.772,2.508-6.772,5.518
				c0,3.344,2.425,4.849,7.692,6.854c7.022,2.675,10.617,6.186,10.617,12.206c0,7.106-5.518,12.121-15.131,12.121
				c-4.431,0-8.528-1.087-11.369-2.759L438.74,242.189z"/>
		</g>
	</g>
</g>
<g>
	
		<circle id="XMLID_1297_" fill="#FFFFFF" stroke="#171C28" stroke-width="10" stroke-linecap="round" stroke-linejoin="round" stroke-miterlimit="10" cx="588.603" cy="401.828" r="90.225"/>
	
		<polyline id="XMLID_1296_" fill="#FFFFFF" stroke="#171C28" stroke-width="10" stroke-linecap="round" stroke-linejoin="round" stroke-miterlimit="10" points="
		585.813,349.739 585.813,406.478 615.578,435.313 	"/>
	<g id="XMLID_1286_">
		<circle fill="#FFFFFF" cx="586.743" cy="397.177" r="4.651"/>
		<path fill="#4C5C68" d="M586.743,392.526c-2.79,0-4.651,1.86-4.651,4.651s1.86,4.651,4.651,4.651s4.651-1.86,4.651-4.651
			S589.533,392.526,586.743,392.526L586.743,392.526z"/>
	</g>
	
		<circle id="XMLID_1266_" fill="#FFFFFF" stroke="#171C28" stroke-width="10" stroke-linecap="round" stroke-linejoin="round" stroke-miterlimit="10" cx="586.743" cy="404.618" r="16.743"/>
</g>
<g>
	
		<circle id="XMLID_593_" fill="#FFFFFF" stroke="#171C28" stroke-width="10" stroke-linecap="round" stroke-linejoin="round" stroke-miterlimit="10" cx="588.603" cy="401.828" r="91.155"/>
</g>
<g>
	<g>
		
			<line fill="#FFFFFF" stroke="#00984A" stroke-width="10" stroke-linecap="round" stroke-linejoin="round" stroke-miterlimit="10" x1="561.629" y1="358.11" x2="545.816" y2="372.993"/>
		
			<line fill="#FFFFFF" stroke="#00984A" stroke-width="10" stroke-linecap="round" stroke-linejoin="round" stroke-miterlimit="10" x1="561.629" y1="387.875" x2="545.816" y2="372.993"/>
		
			<path fill="#FFFFFF" stroke="#00984A" stroke-width="10" stroke-linecap="round" stroke-linejoin="round" stroke-miterlimit="10" d="
			M545.816,372.993h61.39c13.022,0,23.254,10.232,23.254,23.254l0,0"/>
	</g>
	<g>
		
			<line fill="#FFFFFF" stroke="#00984A" stroke-width="10" stroke-linecap="round" stroke-linejoin="round" stroke-miterlimit="10" x1="615.578" y1="445.545" x2="631.39" y2="430.662"/>
		
			<line fill="#FFFFFF" stroke="#00984A" stroke-width="10" stroke-linecap="round" stroke-linejoin="round" stroke-miterlimit="10" x1="615.578" y1="414.85" x2="631.39" y2="430.662"/>
		
			<path fill="#FFFFFF" stroke="#00984A" stroke-width="10" stroke-linecap="round" stroke-linejoin="round" stroke-miterlimit="10" d="
			M631.39,430.662H570c-13.022,0-23.254-10.232-23.254-23.254l0,0"/>
	</g>
</g>
</svg>
