<?xml version="1.0" encoding="utf-8"?>
<!-- Generator: Adobe Illustrator 22.0.1, SVG Export Plug-In . SVG Version: 6.00 Build 0)  -->
<svg version="1.1" xmlns="http://www.w3.org/2000/svg" xmlns:xlink="http://www.w3.org/1999/xlink" x="0px" y="0px"
	 viewBox="0 0 64 64" style="enable-background:new 0 0 64 64;" xml:space="preserve">
<style type="text/css">
	.st0{fill:#F9CA38;}
	.st1{fill:#CEE8FA;}
	.st2{fill:#FFFFFF;}
	.st3{fill:#4C5C68;}
	.st4{fill:none;stroke:#4C5C68;stroke-linecap:round;stroke-linejoin:round;stroke-miterlimit:10;}
	.st5{fill:#CEE8FA;stroke:#4C5C68;stroke-linecap:round;stroke-linejoin:round;stroke-miterlimit:10;}
	.st6{fill:#F9CA38;stroke:#4C5C68;stroke-linecap:round;stroke-linejoin:round;stroke-miterlimit:10;}
	.st7{fill:#FFFFFF;stroke:#4C5C68;stroke-linecap:round;stroke-linejoin:round;stroke-miterlimit:10;}
	.st8{fill:#FFFFFF;stroke:#FEBD2E;stroke-linecap:round;stroke-linejoin:round;stroke-miterlimit:10;}
	.st9{fill:#FEBD2E;stroke:#4C5C68;stroke-linecap:round;stroke-linejoin:round;stroke-miterlimit:10;}
	.st10{fill:#286090;}
	.st11{fill:#969696;}
	.st12{fill:#FFFFFF;stroke:#4C5C68;stroke-width:1.2173;stroke-linecap:round;stroke-linejoin:round;stroke-miterlimit:10;}
	.st13{fill:#FFFFFF;stroke:#4C5C68;stroke-width:0.8881;stroke-linecap:round;stroke-linejoin:round;stroke-miterlimit:10;}
	.st14{fill:none;stroke:#CEE8FA;stroke-width:1.0985;stroke-linecap:round;stroke-linejoin:round;stroke-miterlimit:10;}
	.st15{opacity:0.6;fill:#286090;}
	.st16{fill:none;stroke:#4C5C68;stroke-width:1.0254;stroke-linecap:round;stroke-linejoin:round;stroke-miterlimit:10;}
	.st17{fill:#FFFFFF;stroke:#4C5C68;stroke-miterlimit:10;}
	.st18{fill:none;stroke:#286090;stroke-linecap:round;stroke-linejoin:round;stroke-miterlimit:10;stroke-dasharray:0,2;}
	.st19{fill:none;stroke:#286090;stroke-linecap:round;stroke-linejoin:round;stroke-miterlimit:10;}
	.st20{fill:#FEBD2E;}
	.st21{fill:none;stroke:#CEE8FA;stroke-linecap:round;stroke-linejoin:round;stroke-miterlimit:10;}
	.st22{fill:#FFFFFF;stroke:#4C5C68;stroke-width:1.1073;stroke-miterlimit:10;}
	.st23{fill:#CEE8FA;stroke:#4C5C68;stroke-width:1.1073;stroke-linecap:round;stroke-linejoin:round;stroke-miterlimit:10;}
	.st24{fill:#FFFFFF;stroke:#4C5C68;stroke-width:1.1073;stroke-linecap:round;stroke-linejoin:round;stroke-miterlimit:10;}
	.st25{fill:none;stroke:#4C5C68;stroke-width:1.1073;stroke-linecap:round;stroke-linejoin:round;stroke-miterlimit:10;}
	.st26{fill:#FFFFFF;stroke:#4C5C68;stroke-width:1.0096;stroke-miterlimit:10;}
	.st27{fill:#286090;stroke:#4C5C68;stroke-width:1.0096;stroke-linecap:round;stroke-linejoin:round;stroke-miterlimit:10;}
	.st28{fill:#FFFFFF;stroke:#4C5C68;stroke-width:1.0096;stroke-linecap:round;stroke-linejoin:round;stroke-miterlimit:10;}
	.st29{fill:none;stroke:#4C5C68;stroke-width:1.0096;stroke-linecap:round;stroke-linejoin:round;stroke-miterlimit:10;}
	.st30{fill:#FFFFFF;stroke:#4C5C68;stroke-width:1.0964;stroke-miterlimit:10;}
	.st31{fill:#CEE8FA;stroke:#4C5C68;stroke-width:1.0964;stroke-linecap:round;stroke-linejoin:round;stroke-miterlimit:10;}
	.st32{fill:#FFFFFF;stroke:#4C5C68;stroke-width:1.0964;stroke-linecap:round;stroke-linejoin:round;stroke-miterlimit:10;}
	.st33{fill:none;stroke:#4C5C68;stroke-width:1.0964;stroke-linecap:round;stroke-linejoin:round;stroke-miterlimit:10;}
	.st34{fill:none;stroke:#4C5C68;stroke-width:1.0985;stroke-linecap:round;stroke-linejoin:round;stroke-miterlimit:10;}
	.st35{fill:none;stroke:#333333;stroke-width:2;stroke-linecap:round;stroke-linejoin:round;stroke-miterlimit:10;}
	.st36{fill:#FFFFFF;stroke:#4C5C68;stroke-width:1.2007;stroke-linecap:round;stroke-linejoin:round;stroke-miterlimit:10;}
	.st37{fill:#CEE8FA;stroke:#4C5C68;stroke-width:1.2007;stroke-linecap:round;stroke-linejoin:round;stroke-miterlimit:10;}
	
		.st38{fill:none;stroke:#4C5C68;stroke-width:1.2007;stroke-linecap:round;stroke-linejoin:round;stroke-miterlimit:10;stroke-dasharray:1.2007,3.6021;}
	.st39{fill:#FEBD2E;stroke:#4C5C68;stroke-width:1.2007;stroke-linecap:round;stroke-linejoin:round;stroke-miterlimit:10;}
	.st40{fill:none;stroke:#4C5C68;stroke-width:1.0828;stroke-linecap:round;stroke-linejoin:round;stroke-miterlimit:10;}
	.st41{fill:none;stroke:#4C5C68;stroke-width:1.1103;stroke-linecap:round;stroke-linejoin:round;stroke-miterlimit:10;}
	.st42{fill:#FFFFFF;stroke:#4C5C68;stroke-width:1.1517;stroke-linecap:round;stroke-linejoin:round;stroke-miterlimit:10;}
	.st43{fill:#CEE8FA;stroke:#4C5C68;stroke-width:0.965;stroke-linecap:round;stroke-linejoin:round;stroke-miterlimit:10;}
	.st44{fill:#286090;stroke:#4C5C68;stroke-width:0.9531;stroke-linecap:round;stroke-linejoin:round;stroke-miterlimit:10;}
	.st45{fill:none;stroke:#4C5C68;stroke-width:1.1517;stroke-linecap:round;stroke-linejoin:round;stroke-miterlimit:10;}
	.st46{fill:#FFFFFF;stroke:#4C5C68;stroke-width:0.9551;stroke-linecap:round;stroke-linejoin:round;stroke-miterlimit:10;}
	.st47{fill:#FFFFFF;stroke:#4C5C68;stroke-width:1.1517;stroke-miterlimit:10;}
	.st48{fill:none;stroke:#4C5C68;stroke-width:0.6689;stroke-linecap:round;stroke-linejoin:round;stroke-miterlimit:10;}
	.st49{fill:#F9CA38;stroke:#4C5C68;stroke-width:0.6689;stroke-linecap:round;stroke-linejoin:round;stroke-miterlimit:10;}
	.st50{fill:#286090;stroke:#4C5C68;stroke-width:0.6689;stroke-linecap:round;stroke-linejoin:round;stroke-miterlimit:10;}
	.st51{fill:#4C5C68;stroke:#4C5C68;stroke-width:0.2347;stroke-linecap:round;stroke-linejoin:round;stroke-miterlimit:10;}
	.st52{fill:#CEE8FA;stroke:#4C5C68;stroke-width:0.8962;stroke-linecap:round;stroke-linejoin:round;stroke-miterlimit:10;}
	.st53{fill:#FFFFFF;stroke:#4C5C68;stroke-width:0.8962;stroke-linecap:round;stroke-linejoin:round;stroke-miterlimit:10;}
	.st54{fill:none;stroke:#4C5C68;stroke-width:0.8962;stroke-linecap:round;stroke-linejoin:round;stroke-miterlimit:10;}
	.st55{fill:none;stroke:#F9CA38;stroke-linecap:round;stroke-linejoin:round;stroke-miterlimit:10;}
	.st56{fill:#4C5C68;stroke:#4C5C68;stroke-width:0.3;stroke-miterlimit:10;}
	.st57{fill:#CEE8FA;stroke:#4C5C68;stroke-width:0.8552;stroke-linecap:round;stroke-linejoin:round;stroke-miterlimit:10;}
	.st58{fill:#FFFFFF;stroke:#4C5C68;stroke-width:0.8552;stroke-linecap:round;stroke-linejoin:round;stroke-miterlimit:10;}
	
		.st59{fill:none;stroke:#4C5C68;stroke-width:0.8552;stroke-linecap:round;stroke-linejoin:round;stroke-miterlimit:10;stroke-dasharray:0.8552,2.5656;}
	.st60{fill:#286090;stroke:#4C5C68;stroke-linecap:round;stroke-linejoin:round;stroke-miterlimit:10;}
	.st61{fill:#286090;stroke:#FFFFFF;stroke-width:2;stroke-miterlimit:10;}
	.st62{fill:none;stroke:#4C5C68;stroke-width:0.8191;stroke-linecap:round;stroke-linejoin:round;stroke-miterlimit:10;}
	.st63{fill:#FEBD2E;stroke:#4C5C68;stroke-width:0.8191;stroke-linecap:round;stroke-linejoin:round;stroke-miterlimit:10;}
	.st64{fill:#FFFFFF;stroke:#4C5C68;stroke-width:0.9531;stroke-linecap:round;stroke-linejoin:round;stroke-miterlimit:10;}
	.st65{fill:none;stroke:#4C5C68;stroke-width:0.9531;stroke-linecap:round;stroke-linejoin:round;stroke-miterlimit:10;}
	.st66{fill:none;stroke:#F9CA38;stroke-width:1.1858;stroke-miterlimit:10;}
	.st67{fill:#CEE8FA;stroke:#4C5C68;stroke-width:0.9531;stroke-linecap:round;stroke-linejoin:round;stroke-miterlimit:10;}
	.st68{fill:#FFFFFF;stroke:#4C5C68;stroke-width:0.965;stroke-linecap:round;stroke-linejoin:round;stroke-miterlimit:10;}
	.st69{fill:#F9CA38;stroke:#4C5C68;stroke-width:0.965;stroke-linecap:round;stroke-linejoin:round;stroke-miterlimit:10;}
	.st70{fill:#434343;}
	.st71{fill:#98C948;}
	.st72{fill:none;stroke:#2C3251;stroke-width:0.5;stroke-linecap:round;stroke-linejoin:round;stroke-miterlimit:10;}
	.st73{fill:#5FB0E5;}
	.st74{fill:#D2E9F7;}
	.st75{fill:#0686D8;}
	.st76{fill:#9ECFEF;}
	.st77{fill:none;stroke:#4C5C68;stroke-miterlimit:10;}
	.st78{fill:#4C5C68;stroke:#4C5C68;stroke-width:0.4;stroke-linecap:round;stroke-linejoin:round;stroke-miterlimit:10;}
	.st79{fill:none;stroke:#4C5C68;stroke-width:0.9106;stroke-miterlimit:10;}
	.st80{fill:#CEE8FA;stroke:#4C5C68;stroke-width:0.6053;stroke-linecap:round;stroke-linejoin:round;stroke-miterlimit:10;}
	.st81{fill:#FFFFFF;stroke:#4C5C68;stroke-width:0.6053;stroke-linecap:round;stroke-linejoin:round;stroke-miterlimit:10;}
	.st82{fill:#4C5C68;stroke:#FFFFFF;stroke-width:0.5;stroke-linecap:round;stroke-linejoin:round;stroke-miterlimit:10;}
	.st83{fill:#595959;}
	.st84{fill:none;stroke:#4C5C68;stroke-width:0.9106;stroke-linecap:round;stroke-linejoin:round;stroke-miterlimit:10;}
	.st85{fill:none;stroke:#4C5C68;stroke-width:0.8497;stroke-linecap:round;stroke-linejoin:round;stroke-miterlimit:10;}
	.st86{fill:#4C5C68;stroke:#4C5C68;stroke-width:0.2707;stroke-linecap:round;stroke-linejoin:round;stroke-miterlimit:10;}
	.st87{fill:#41464B;}
	.st88{fill:#FED65C;}
	.st89{fill:#FFFFFF;stroke:#000000;stroke-linecap:round;stroke-linejoin:round;stroke-miterlimit:10;}
	.st90{fill:#FFFFFF;stroke:#4C5C68;stroke-width:0.9809;stroke-linecap:round;stroke-linejoin:round;stroke-miterlimit:10;}
	.st91{fill:#5D5D5D;}
	.st92{fill:none;stroke:#4C5C68;stroke-width:1.0654;stroke-miterlimit:10;}
	.st93{fill:#FFFFFF;stroke:#4C5C68;stroke-width:1.0654;stroke-miterlimit:10;}
	.st94{fill:#FFFFFF;stroke:#4C5C68;stroke-width:1.0654;stroke-linecap:round;stroke-linejoin:round;stroke-miterlimit:10;}
	.st95{fill:none;stroke:#4C5C68;stroke-width:1.3058;stroke-miterlimit:10;}
	.st96{fill:#FFFFFF;stroke:#4C5C68;stroke-width:1.1061;stroke-miterlimit:10;}
	.st97{fill:#CEE8FA;stroke:#4C5C68;stroke-width:1.1061;stroke-linecap:round;stroke-linejoin:round;stroke-miterlimit:10;}
	.st98{fill:#FFFFFF;stroke:#4C5C68;stroke-width:1.1061;stroke-linecap:round;stroke-linejoin:round;stroke-miterlimit:10;}
	.st99{fill:none;stroke:#4C5C68;stroke-width:1.1061;stroke-linecap:round;stroke-linejoin:round;stroke-miterlimit:10;}
	.st100{fill:#FFFFFF;stroke:#4C5C68;stroke-width:0.4976;stroke-linecap:round;stroke-linejoin:round;stroke-miterlimit:10;}
	.st101{fill:none;stroke:#4C5C68;stroke-width:0.4976;stroke-linecap:round;stroke-linejoin:round;stroke-miterlimit:10;}
	.st102{fill:#FFFFFF;stroke:#FEBD2E;stroke-width:0.4976;stroke-linecap:round;stroke-linejoin:round;stroke-miterlimit:10;}
	.st103{fill:#FFFFFF;stroke:#4C5C68;stroke-width:1.1423;stroke-linecap:round;stroke-linejoin:round;stroke-miterlimit:10;}
	.st104{fill:#FEBD2E;stroke:#4C5C68;stroke-width:1.1423;stroke-linecap:round;stroke-linejoin:round;stroke-miterlimit:10;}
	.st105{fill:#FFFFFF;stroke:#4C5C68;stroke-width:1.14;stroke-linecap:round;stroke-linejoin:round;stroke-miterlimit:10;}
	.st106{fill:#CEE8FA;stroke:#4C5C68;stroke-width:1.136;stroke-linecap:round;stroke-linejoin:round;stroke-miterlimit:10;}
	.st107{fill:none;stroke:#4C5C68;stroke-width:1.136;stroke-linecap:round;stroke-linejoin:round;stroke-miterlimit:10;}
	.st108{fill:#FFFFFF;stroke:#4C5C68;stroke-width:1.0633;stroke-linecap:round;stroke-linejoin:round;stroke-miterlimit:10;}
	.st109{fill:#F9CA38;stroke:#4C5C68;stroke-width:1.136;stroke-linecap:round;stroke-linejoin:round;stroke-miterlimit:10;}
	.st110{fill:#4C5C68;stroke:#4C5C68;stroke-width:0.3408;stroke-miterlimit:10;}
	.st111{fill:#FFFFFF;stroke:#4C5C68;stroke-width:0.895;stroke-linecap:round;stroke-linejoin:round;stroke-miterlimit:10;}
	.st112{fill:none;stroke:#4C5C68;stroke-width:1.0796;stroke-linecap:round;stroke-linejoin:round;stroke-miterlimit:10;}
	.st113{fill:none;stroke:#4C5C68;stroke-width:1.1071;stroke-linecap:round;stroke-linejoin:round;stroke-miterlimit:10;}
	.st114{fill:#F9CA38;stroke:#4C5C68;stroke-width:1.0796;stroke-linecap:round;stroke-linejoin:round;stroke-miterlimit:10;}
	.st115{fill:#FFFFFF;stroke:#4C5C68;stroke-width:1.0796;stroke-linecap:round;stroke-linejoin:round;stroke-miterlimit:10;}
</style>
<g id="Layer_2">
</g>
<g id="Layer_1">
	<rect x="31.1" y="33.3" class="st0" width="3.3" height="24.8"/>
	<g>
		<path class="st3" d="M31.7,45.6c0-1.4-1.2-2.6-2.6-2.6H17.8v1.3h11.3c0.7,0,1.3,0.6,1.3,1.3s-0.6,1.3-1.3,1.3H17.8v1.3h11.3
			C30.5,48.2,31.7,47,31.7,45.6z"/>
		<path class="st3" d="M29.8,41.7c0-1.4-1.2-2.6-2.6-2.6H15.8v1.3h11.3c0.7,0,1.3,0.6,1.3,1.3S27.9,43,27.2,43H16.8v1.3h10.4
			C28.6,44.3,29.8,43.1,29.8,41.7z"/>
		<path class="st3" d="M29.8,49.5c0-1.4-1.2-2.6-2.6-2.6H16.8v1.3h10.4c0.7,0,1.3,0.6,1.3,1.3s-0.6,1.3-1.3,1.3H16.8v1.3h10.4
			C28.6,52.1,29.8,50.9,29.8,49.5z"/>
		<path class="st3" d="M22.3,50.7h-5.5v1.3h5.5c1.4,0,2.2,0.5,2.2,1.3c0,0.7-0.6,1.3-1.3,1.3H6.2l-1.6-2.4V42l7.3-5.5h6.6
			c0.7,0,1.3,0.6,1.3,1.3s-0.6,1.3-1.3,1.3h-6.5v1.3h6.5c1.4,0,2.6-1.2,2.6-2.6s-1.2-2.6-2.6-2.6h-6.8c-0.1,0-0.3,0-0.4,0.1
			l-7.8,5.8c-0.2,0.1-0.3,0.3-0.3,0.5v10.7c0,0.1,0,0.3,0.1,0.4l1.9,2.9c0.1,0.2,0.3,0.3,0.6,0.3h17.5c1.4,0,2.6-1.2,2.6-2.6
			C25.9,52.1,24.9,50.7,22.3,50.7z"/>
		<path class="st3" d="M21.3,60.8H33c2.5,0,4.5-2,4.5-4.5V34.9c0-2.5-2-4.5-4.5-4.5H21.3c-2.5,0-4.5,2-4.5,4.5v0.7h1.3v-0.7
			c0-1.8,1.4-3.2,3.2-3.2H33c1.8,0,3.2,1.4,3.2,3.2v21.3c0,1.8-1.4,3.2-3.2,3.2H21.3c-1.8,0-3.2-1.4-3.2-3.2v-0.7h-1.3v0.7
			C16.8,58.8,18.8,60.8,21.3,60.8z"/>
		<path class="st3" d="M50.4,3.2c-3.6,0-6.5,2.9-6.5,6.5s2.9,6.5,6.5,6.5s6.5-2.9,6.5-6.5S54,3.2,50.4,3.2z M50.4,14.8
			c-2.8,0-5.1-2.3-5.1-5.1s2.3-5.1,5.1-5.1s5.1,2.3,5.1,5.1S53.3,14.8,50.4,14.8z"/>
		<path class="st3" d="M54.3,14.8h-7.8c-3.6,0-6.5,2.9-6.5,6.5V33c0,0.4,0.3,0.7,0.7,0.7h19.4c0.4,0,0.7-0.3,0.7-0.7V21.3
			C60.8,17.8,57.9,14.8,54.3,14.8z M59.5,32.3H41.4v-11c0-2.8,2.3-5.1,5.1-5.1h7.8c2.8,0,5.1,2.3,5.1,5.1V32.3z"/>
		<rect x="54.6" y="24.5" class="st3" width="1.3" height="8.1"/>
		<rect x="44.9" y="24.5" class="st3" width="1.3" height="8.1"/>
		<rect x="49.8" y="37.1" class="st3" width="1.3" height="7.2"/>
		<path class="st3" d="M50.4,3.2c-3.6,0-6.5,2.9-6.5,6.5s2.9,6.5,6.5,6.5s6.5-2.9,6.5-6.5S54,3.2,50.4,3.2z M50.4,14.8
			c-2.8,0-5.1-2.3-5.1-5.1s2.3-5.1,5.1-5.1s5.1,2.3,5.1,5.1S53.3,14.8,50.4,14.8z"/>
		<rect x="31.3" y="11" class="st3" width="9.1" height="1.3"/>
		<rect x="28.4" y="31.3" class="st3" width="1.3" height="10.1"/>
		<rect x="28.4" y="49.8" class="st3" width="1.3" height="10.1"/>
		<path class="st3" d="M48.2,40l2.2-2.2l2.2,2.2l0.9-0.9l-2.7-2.7c-0.3-0.3-0.7-0.3-0.9,0l-2.7,2.7L48.2,40z"/>
		<rect x="37.1" y="51.7" class="st3" width="5.2" height="1.3"/>
		<path class="st3" d="M41.2,12.1c0.3-0.3,0.3-0.7,0-0.9l-2.7-2.7l-0.9,0.9l2.2,2.2l-2.2,2.2l0.9,0.9L41.2,12.1z"/>
		<path class="st3" d="M13.3,11H7.8c-0.4,0-0.7,0.3-0.7,0.7v26.9h1.3V12.3h4.8V11z"/>
		<g id="XMLID_1339_">
			<ellipse id="XMLID_1364_" class="st111" cx="21.4" cy="11.6" rx="7.9" ry="7.8"/>
			<ellipse id="XMLID_1356_" class="st10" cx="21.4" cy="11.6" rx="6.2" ry="6.1"/>
			<g id="XMLID_1343_">
				<path id="XMLID_1344_" class="st1" d="M21.3,7.9c0.2,0,0.4,0.2,0.4,0.4v0.2c0.5,0.1,0.9,0.2,1.3,0.5c0.1,0.1,0.3,0.2,0.3,0.4
					c0,0.3-0.2,0.5-0.5,0.5c-0.1,0-0.2,0-0.3-0.1c-0.3-0.2-0.6-0.3-0.9-0.4V11c1.3,0.3,1.9,0.9,1.9,1.8c0,1-0.7,1.6-1.8,1.7V15
					c0,0.2-0.2,0.4-0.4,0.4S21,15.2,21,15v-0.5c-0.6-0.1-1.2-0.3-1.8-0.7c-0.1-0.1-0.2-0.2-0.2-0.4c0-0.3,0.2-0.5,0.5-0.5
					c0.1,0,0.2,0,0.3,0.1c0.4,0.3,0.8,0.5,1.3,0.6v-1.7c-1.3-0.3-1.9-0.8-1.9-1.8c0-0.9,0.7-1.6,1.8-1.7V8.2C21,8,21.1,7.9,21.3,7.9
					z M21,10.8V9.3c-0.6,0.1-0.8,0.3-0.8,0.7C20.2,10.4,20.3,10.6,21,10.8z M21.7,12v1.6c0.6-0.1,0.9-0.3,0.9-0.8
					C22.5,12.5,22.3,12.2,21.7,12z"/>
			</g>
		</g>
		<g id="XMLID_1505_">
			<ellipse id="XMLID_1512_" class="st111" cx="50.2" cy="52" rx="7.9" ry="7.8"/>
			<ellipse id="XMLID_1511_" class="st10" cx="50.2" cy="52" rx="6.2" ry="6.1"/>
			<g id="XMLID_1506_">
				<path id="XMLID_1507_" class="st1" d="M50.1,48.3c0.2,0,0.4,0.2,0.4,0.4v0.2c0.5,0.1,0.9,0.2,1.3,0.5c0.1,0.1,0.3,0.2,0.3,0.4
					c0,0.3-0.2,0.5-0.5,0.5c-0.1,0-0.2,0-0.3-0.1c-0.3-0.2-0.6-0.3-0.9-0.4v1.7c1.3,0.3,1.9,0.9,1.9,1.8c0,1-0.7,1.6-1.8,1.7v0.5
					c0,0.2-0.2,0.4-0.4,0.4c-0.2,0-0.4-0.2-0.4-0.4v-0.5c-0.6-0.1-1.2-0.3-1.8-0.7c-0.1-0.1-0.2-0.2-0.2-0.4c0-0.3,0.2-0.5,0.5-0.5
					c0.1,0,0.2,0,0.3,0.1c0.4,0.3,0.8,0.5,1.3,0.6v-1.7c-1.3-0.3-1.9-0.8-1.9-1.8c0-0.9,0.7-1.6,1.8-1.7v-0.2
					C49.7,48.5,49.9,48.3,50.1,48.3z M49.8,51.3v-1.5c-0.6,0.1-0.8,0.3-0.8,0.7C48.9,50.8,49.1,51.1,49.8,51.3z M50.5,52.5v1.6
					c0.6-0.1,0.9-0.3,0.9-0.8C51.3,52.9,51.1,52.7,50.5,52.5z"/>
			</g>
		</g>
	</g>
</g>
</svg>
