<?xml version="1.0" encoding="utf-8"?>
<!-- Generator: Adobe Illustrator 17.0.0, SVG Export Plug-In . SVG Version: 6.00 Build 0)  -->
<!DOCTYPE svg PUBLIC "-//W3C//DTD SVG 1.1//EN" "http://www.w3.org/Graphics/SVG/1.1/DTD/svg11.dtd">
<svg version="1.1" id="Layer_1" xmlns="http://www.w3.org/2000/svg" xmlns:xlink="http://www.w3.org/1999/xlink" x="0px" y="0px"
	 width="150px" height="150px" viewBox="0 0 150 150" enable-background="new 0 0 150 150" xml:space="preserve">
<path fill="#FFFFFF" stroke="#171C28" stroke-width="3" stroke-linecap="round" stroke-linejoin="round" stroke-miterlimit="10" d="
	M104.531,104.531H83.906V45.234c0-3.281,1.172-6.094,3.516-7.734c1.875-1.641,4.219-2.812,6.797-2.812
	c5.859,0,10.313,4.688,10.313,10.547l0.234,52.5l0,0c0,3.75,3.047,6.797,6.797,6.797l0,0c3.75,0,6.797-3.047,6.797-6.797V19.922
	l4.922-6.094h-18.516h-4.453H56.953c-4.922,0-8.906,3.984-8.906,8.906v82.031h63.516"/>
<rect x="37.734" y="35.625" fill="#FFFFFF" width="45" height="87.656"/>
<path fill="#FFFFFF" stroke="#171C28" stroke-width="3" stroke-linecap="round" stroke-linejoin="round" stroke-miterlimit="10" d="
	M128.672,29.531h-10.078V18.75c0-2.813,2.344-5.156,4.922-5.156l0,0c2.813,0,4.922,2.344,4.922,5.156L128.672,29.531z"/>
<path fill="#FFFFFF" stroke="#171C28" stroke-width="3" stroke-linecap="round" stroke-linejoin="round" stroke-miterlimit="10" d="
	M94.453,34.688H83.906h-3.516H69.844H52.266H38.438c-5.859,0-10.547,4.688-10.547,10.547v92.813l7.031-7.031l7.031,7.031
	l7.031-7.031l6.797,7.031l7.031-7.031l7.031,7.031l7.031-7.031l7.031,7.031V74.766v-7.031"/>
<line fill="none" stroke="#171C28" stroke-width="3" stroke-linecap="round" stroke-linejoin="round" stroke-miterlimit="10" x1="35.625" y1="55.781" x2="76.875" y2="55.781"/>
<line fill="none" stroke="#171C28" stroke-width="3" stroke-linecap="round" stroke-linejoin="round" stroke-miterlimit="10" x1="45.938" y1="47.578" x2="66.563" y2="47.578"/>
<line fill="none" stroke="#171C28" stroke-width="3" stroke-linecap="round" stroke-linejoin="round" stroke-miterlimit="10" x1="35.625" y1="63.281" x2="76.875" y2="63.281"/>
<path fill="#FFFFFF" stroke="#171C28" stroke-width="3" stroke-linecap="round" stroke-linejoin="round" stroke-miterlimit="10" d="
	M107.109,104.297H84.375V45.703c0-6.094,4.688-11.016,10.547-11.016l0,0c5.625,0,10.547,4.922,10.547,11.25l0.234,56.953
	L107.109,104.297z"/>
<path fill-rule="evenodd" clip-rule="evenodd" fill="#0D3178" d="M72.76,86.871c-0.213,2.339-0.888,4.609-2.021,6.77
	c-0.062,0.109-6.16,11.108-6.164,17.882c0,0-0.211,2.06-0.23,2.173c-0.576,2.356-2.06,2.708-2.893,2.708H49.533
	c-0.832,0-2.315-0.352-2.911-2.822c0,0-0.211-2.06-0.215-2.144c0-3.901-2.11-10.105-5.942-17.466l-0.27-0.651l0.099,0.311
	c-1.155-2.103-1.85-4.378-2.07-6.798c0,0-0.07-1.52-0.071-1.558c0-4.637,1.803-8.996,5.077-12.273
	c3.277-3.281,7.633-5.088,12.264-5.088c1.663,0,3.31,0.236,4.895,0.702c2.767,0.815,5.316,2.332,7.369,4.387
	c3.274,3.279,5.076,7.637,5.075,12.312C72.833,85.314,72.763,86.835,72.76,86.871z M66.579,74.183
	c-1.856-1.857-4.16-3.229-6.66-3.965c-1.432-0.42-2.921-0.634-4.425-0.634c-4.186,0-8.124,1.633-11.086,4.599
	c-2.959,2.962-4.589,6.901-4.589,11.054c0,0,0.068,1.465,0.068,1.482c0.196,2.153,0.824,4.209,1.899,6.176l0.157,0.306
	c3.949,7.587,6.126,14.058,6.126,18.14c0,0.004,0,0.008,0,0.012c0,0,0.192,1.88,0.192,1.949c0.352,1.432,0.996,1.433,1.271,1.433
	h5.187l-0.03-3.364c-0.011-3.216-0.06-7.056-0.351-10.524c-0.671-0.155-1.396-0.505-2.49-1.217l-0.433-0.281
	c-2.647-1.712-3.717-4.189-3.717-6.316c0-0.53,0.066-1.038,0.191-1.507c0.389-1.462,1.348-2.408,2.502-2.469
	c1.151-0.06,2.836,0.69,4.333,4.607c0.306,0.8,0.51,1.831,0.711,2.864c0.977-3.781,2.408-7.516,4.605-8.574
	c0.901-0.435,1.881-0.402,2.832,0.093c0.94,0.489,1.471,1.285,1.537,2.302c0.004,0.071,0.007,0.143,0.007,0.215
	c0,3.274-4.642,7.747-5.751,8.521c-1.053,0.736-1.792,1.196-2.437,1.506c-0.024,0.117-0.047,0.207-0.07,0.326
	c0,0-0.076,0.381-0.09,0.449c0.247,3.359,0.278,6.963,0.289,9.999l0.03,3.37h5.064c0.276,0,0.923,0,1.254-1.322
	c0,0,0.211-2.06,0.207-1.975c0-7.206,6.314-18.509,6.363-18.596c1.017-1.942,1.631-4.002,1.821-6.086c0,0,0.069-1.479,0.07-1.481
	C71.167,81.085,69.538,77.146,66.579,74.183z M54.153,99.026c-0.223-1.829-0.512-3.526-0.985-4.765
	c-1.017-2.661-2.084-3.568-2.688-3.536c-0.401,0.021-0.786,0.504-0.979,1.232c-0.086,0.321-0.13,0.674-0.13,1.046
	c0,1.611,0.848,3.585,2.951,4.946l0.436,0.284C53.357,98.621,53.777,98.863,54.153,99.026z M56.706,98.381
	c0.349-0.23,0.646-0.414,1.136-0.757c1.045-0.729,4.907-4.782,4.907-7.045c0-0.042-0.002-0.081-0.004-0.121
	c-0.028-0.432-0.22-0.71-0.642-0.929c-0.487-0.254-0.913-0.276-1.339-0.071C59.707,89.967,58.194,91.994,56.706,98.381z
	 M47.991,118.5c0-0.822,0.684-1.487,1.526-1.487h11.953c0.841,0,1.526,0.666,1.526,1.487c0,0.825-0.685,1.492-1.526,1.492
	c0.841,0,1.526,0.668,1.526,1.491s-0.685,1.49-1.526,1.49c0.841,0,1.526,0.668,1.526,1.49c0,0.825-0.685,1.492-1.526,1.492H49.517
	c-0.842,0-1.526-0.667-1.526-1.492c0-0.822,0.684-1.49,1.526-1.49c-0.842,0-1.526-0.668-1.526-1.49s0.684-1.491,1.526-1.491
	C48.675,119.992,47.991,119.325,47.991,118.5z M51.136,124.008h6.573c0.465,0,0.839-0.377,0.839-0.843
	c0-0.465-0.374-0.842-0.839-0.842h-6.573c-0.462,0-0.839,0.377-0.839,0.842C50.298,123.631,50.675,124.008,51.136,124.008z
	 M50.985,120.64h9.015c0.466,0,0.843-0.377,0.843-0.842c0-0.464-0.377-0.84-0.843-0.84h-9.015c-0.466,0-0.843,0.377-0.843,0.84
	C50.143,120.264,50.52,120.64,50.985,120.64z M55.494,128.961c-1.965,0-3.704-0.957-4.786-2.429h9.571
	C59.198,128.004,57.457,128.961,55.494,128.961z"/>
</svg>
