<svg xmlns="http://www.w3.org/2000/svg" viewBox="0 0 50 50" enable-background="new 0 0 50 50"><path fill="#D1D1D0" d="M45.7 38.4h-42.6c-.9 0-1.6-.7-1.6-1.6 0-.9.7-1.6 1.6-1.6h42.6c.9 0 1.6.7 1.6 1.6 0 .8-.7 1.6-1.6 1.6z"/><path stroke="#3B3E43" stroke-linecap="round" stroke-linejoin="round" stroke-miterlimit="10" d="M22.267 20.677v-18.4h10.5v18.4zM33.6 12.9l3.4 3.7v5.6l-1 2.8v5.3h-6.9v-2.1s-2-2.9-1.9-5.2" fill="none"/><path stroke="#89C33D" stroke-linecap="round" stroke-linejoin="round" stroke-miterlimit="10" d="M25.5 16v1.4l1.1.9h1.7l1.1-.8v-1.5" fill="none"/><path fill="#fff" stroke="#3B3E43" stroke-linecap="round" stroke-linejoin="round" stroke-miterlimit="10" d="M33.8 19.2l-3.7-3.7s-2.2-1-2.2 2.2l3.3 3.3s-.2 3.1 2.3 5.6"/><path fill="#89C33D" stroke="#3B3E43" stroke-linecap="round" stroke-linejoin="round" stroke-miterlimit="10" d="M27.7 36.7v-6.5h10v6.5"/><path stroke="#89C33D" stroke-linecap="round" stroke-linejoin="round" stroke-miterlimit="10" d="M29.4 6.4v-1.4l-1.1-.9h-1.7l-1.1.8v1.5" fill="none"/><ellipse fill="#fff" stroke="#3B3E43" stroke-linecap="round" stroke-linejoin="round" stroke-miterlimit="10" cx="27.6" cy="11.2" rx="3.1" ry="3.2"/><ellipse fill="#89C33D" cx="27.6" cy="11.2" rx="2.5" ry="2.5"/><path fill="#fff" d="M26.1 11.2c0-.1.1-.2.2-.2h.1c0-.2.1-.4.2-.5 0-.1.1-.1.2-.1s.2.1.2.2v.1c-.1.1-.1.2-.2.4h.7c.1-.5.3-.8.7-.8.4 0 .6.3.7.7h.1c.1 0 .1.1.1.2l-.1.2h-.2c0 .3-.1.5-.3.7 0 .1-.1.1-.2.1s-.2-.1-.2-.2v-.1c.1-.2.2-.3.2-.5h-.7c-.1.5-.3.7-.7.7-.4 0-.6-.3-.7-.7h-.1c.1 0 0-.1 0-.2zm1.2.2h-.6c0 .2.1.3.3.3.1 0 .2-.1.3-.3zm.5-.3h.6c0-.2-.1-.3-.3-.3-.1 0-.2 0-.3.3z"/><path fill="#fff" stroke="#3B3E43" stroke-linecap="round" stroke-linejoin="round" stroke-miterlimit="10" d="M17.4 22.6h5.2v2.4h-5.2z"/><path fill="#89C33D" d="M20.2 22.9h2v2h-2z"/><path fill="#fff" stroke="#3B3E43" stroke-linecap="round" stroke-linejoin="round" stroke-miterlimit="10" d="M17.4 24.9h5.2v2.4h-5.2z"/><path fill="#89C33D" d="M20.2 25.2h2v2h-2z"/><path fill="#fff" stroke="#3B3E43" stroke-linecap="round" stroke-linejoin="round" stroke-miterlimit="10" d="M17.4 27.1h5.2v2.4h-5.2z"/><path fill="#89C33D" d="M20.2 27.5h2v2h-2z"/><path fill="#fff" stroke="#3B3E43" stroke-linecap="round" stroke-linejoin="round" stroke-miterlimit="10" d="M17.4 29.5h5.2v2.4h-5.2z"/><path fill="#89C33D" d="M20.2 29.8h2v2h-2z"/><path fill="#fff" stroke="#3B3E43" stroke-linecap="round" stroke-linejoin="round" stroke-miterlimit="10" d="M17.4 31.8h5.2v2.4h-5.2z"/><path fill="#89C33D" d="M20.2 32.1h2v2h-2z"/><path fill="#fff" stroke="#3B3E43" stroke-linecap="round" stroke-linejoin="round" stroke-miterlimit="10" d="M17.4 34.1h5.2v2.4h-5.2z"/><path fill="#89C33D" d="M20.2 34.3h2v1.7h-2z"/><path fill="#fff" stroke="#3B3E43" stroke-linecap="round" stroke-linejoin="round" stroke-miterlimit="10" d="M12.5 31.8h5.2v2.4h-5.2z"/><path fill="#89C33D" d="M15.3 32.1h2v2h-2z"/><path fill="#fff" stroke="#3B3E43" stroke-linecap="round" stroke-linejoin="round" stroke-miterlimit="10" d="M12.5 34.1h5.2v2.4h-5.2z"/><path fill="#89C33D" d="M15.3 34.3h2v1.7h-2z"/></svg>