<svg xmlns="http://www.w3.org/2000/svg" viewBox="0 0 58 58" enable-background="new 0 0 58 58"><path fill="#D1D1D0" d="M53.9 45h-50.3c-1.1 0-1.9-.8-1.9-1.8s.9-1.9 1.9-1.9h50.4c1 0 1.9.9 1.9 1.9-.1 1-.9 1.8-2 1.8z"/><path fill="#fff" stroke="#3B3E43" stroke-width="1.101" stroke-linecap="round" stroke-linejoin="round" stroke-miterlimit="10" d="M49.626 40.71h-4.5v-27.5h4.5z"/><path fill="#89C33D" d="M49.229 24.402h-3.8v-11.2h3.8z"/><path fill="#fff" stroke="#3B3E43" stroke-width="1.101" stroke-linecap="round" stroke-linejoin="round" stroke-miterlimit="10" d="M47.5 9.1l2.1 4h-4.5zM48.426 42.814h-2.2v-2.1h2.2zM47.4 40.6v-10.2M48.2 21.3h-1.5M48.2 19.7h-1.5M48.2 18.1h-1.5"/><path fill="#fff" stroke="#3B3E43" stroke-width="1.101" stroke-linecap="round" stroke-linejoin="round" stroke-miterlimit="10" d="M6.6 25.5h35.6v16.6h-35.6z"/><path fill="#fff" stroke="#3B3E43" stroke-linecap="round" stroke-linejoin="round" stroke-miterlimit="10" d="M9 29.5h31m-31 3h31"/><path fill="#89C33D" stroke="#3B3E43" stroke-linecap="round" stroke-linejoin="round" stroke-miterlimit="10" d="M9 35.9h15.6v2.8h-15.6z"/></svg>