<?xml version="1.0" encoding="utf-8"?>
<!-- Generator: Adobe Illustrator 17.0.0, SVG Export Plug-In . SVG Version: 6.00 Build 0)  -->
<!DOCTYPE svg PUBLIC "-//W3C//DTD SVG 1.1//EN" "http://www.w3.org/Graphics/SVG/1.1/DTD/svg11.dtd">
<svg version="1.1" id="Layer_1" xmlns="http://www.w3.org/2000/svg" xmlns:xlink="http://www.w3.org/1999/xlink" x="0px" y="0px"
	 width="842.35px" height="595.3px" viewBox="0 0 842.35 595.3" enable-background="new 0 0 842.35 595.3" xml:space="preserve">
<g>
	<rect x="91.491" y="484.851" fill="#EBEBEB" width="661.019" height="0.331"/>
	<rect x="642.488" y="506.131" fill="#EBEBEB" width="43.789" height="0.331"/>
	<rect x="517.883" y="509.718" fill="#EBEBEB" width="11.493" height="0.331"/>
	<rect x="615.792" y="493.854" fill="#EBEBEB" width="25.373" height="0.331"/>
	<rect x="160.843" y="496.075" fill="#EBEBEB" width="57.103" height="0.331"/>
	<rect x="229.717" y="496.075" fill="#EBEBEB" width="8.372" height="0.331"/>
	<rect x="265.301" y="501.657" fill="#EBEBEB" width="123.843" height="0.331"/>
	<path fill="#EBEBEB" d="M404.832,425.89H149.548c-4.161,0-7.546-3.385-7.546-7.546V59.501c0-4.16,3.385-7.546,7.546-7.546h255.284
		c4.16,0,7.545,3.385,7.545,7.546v358.843C412.376,422.505,408.991,425.89,404.832,425.89z M149.548,52.286
		c-3.979,0-7.216,3.237-7.216,7.215v358.843c0,3.979,3.237,7.216,7.216,7.216h255.284c3.978,0,7.214-3.237,7.214-7.216V59.501
		c0-3.978-3.237-7.215-7.214-7.215H149.548z"/>
	<path fill="#EBEBEB" d="M690.784,425.89H435.5c-4.16,0-7.545-3.385-7.545-7.546V59.501c0-4.16,3.385-7.546,7.545-7.546h255.284
		c4.161,0,7.546,3.385,7.546,7.546v358.843C698.33,422.505,694.945,425.89,690.784,425.89z M435.5,52.286
		c-3.978,0-7.214,3.237-7.214,7.215v358.843c0,3.979,3.237,7.216,7.214,7.216h255.284c3.979,0,7.216-3.237,7.216-7.216V59.501
		c0-3.978-3.237-7.215-7.216-7.215H435.5z"/>
</g>
<g>
	<g>
		<polygon fill="#E0E0E0" points="625.168,484.499 625.168,359.938 522.049,359.938 522.049,251.531 507.506,251.531 
			507.506,313.667 467.845,313.667 467.845,296.48 396.455,296.48 396.455,236.989 383.235,236.989 383.235,164.277 
			372.658,164.277 372.658,235.667 347.54,235.667 347.54,341.43 299.946,341.43 299.946,235.667 214.014,235.667 214.014,341.43 
			171.709,341.43 171.709,484.499 		"/>
		<g>
			<g>
				<g>
					<rect x="233.845" y="158.989" fill="#F0F0F0" width="105.763" height="325.51"/>
				</g>
				<g>
					<rect x="233.845" y="180.141" fill="#E6E6E6" width="105.763" height="2.644"/>
				</g>
				<g>
					<rect x="233.845" y="201.294" fill="#E6E6E6" width="105.763" height="2.644"/>
				</g>
				<g>
					<rect x="233.845" y="222.446" fill="#E6E6E6" width="105.763" height="2.644"/>
				</g>
				<g>
					<rect x="233.845" y="243.599" fill="#E6E6E6" width="105.763" height="2.644"/>
				</g>
				<g>
					<rect x="233.845" y="264.752" fill="#E6E6E6" width="105.763" height="2.644"/>
				</g>
				<g>
					<rect x="233.845" y="285.904" fill="#E6E6E6" width="105.763" height="2.644"/>
				</g>
				<g>
					<rect x="233.845" y="307.057" fill="#E6E6E6" width="105.763" height="2.644"/>
				</g>
				<g>
					<rect x="233.845" y="328.209" fill="#E6E6E6" width="105.763" height="2.644"/>
				</g>
				<g>
					<rect x="233.845" y="349.362" fill="#E6E6E6" width="105.763" height="2.644"/>
				</g>
				<g>
					<rect x="233.845" y="370.515" fill="#E6E6E6" width="105.763" height="2.644"/>
				</g>
				<g>
					<rect x="233.845" y="391.667" fill="#E6E6E6" width="105.763" height="2.644"/>
				</g>
				<g>
					<rect x="233.845" y="412.82" fill="#E6E6E6" width="105.763" height="2.644"/>
				</g>
				<g>
					<rect x="233.845" y="433.972" fill="#E6E6E6" width="105.763" height="2.644"/>
				</g>
				<g>
					<rect x="233.845" y="455.125" fill="#E6E6E6" width="105.763" height="2.644"/>
				</g>
				<g>
					<rect x="233.845" y="476.278" fill="#E6E6E6" width="105.763" height="2.644"/>
				</g>
			</g>
			<g>
				<g>
					<g>
						<rect x="384.557" y="341.43" fill="#E6E6E6" width="105.763" height="2.644"/>
					</g>
				</g>
				<g>
					<rect x="384.557" y="256.819" fill="#F0F0F0" width="105.763" height="227.679"/>
				</g>
				<g>
					<rect x="384.557" y="277.972" fill="#E6E6E6" width="105.763" height="2.644"/>
				</g>
				<g>
					<rect x="384.557" y="299.125" fill="#E6E6E6" width="105.763" height="2.644"/>
				</g>
				<g>
					<rect x="384.557" y="320.277" fill="#E6E6E6" width="105.763" height="2.644"/>
				</g>
				<g>
					<rect x="384.557" y="362.582" fill="#E6E6E6" width="105.763" height="2.644"/>
				</g>
				<g>
					<rect x="384.557" y="383.735" fill="#E6E6E6" width="105.763" height="2.644"/>
				</g>
				<g>
					<rect x="384.557" y="404.888" fill="#E6E6E6" width="105.763" height="2.644"/>
				</g>
				<g>
					<rect x="384.557" y="426.04" fill="#E6E6E6" width="105.763" height="2.644"/>
				</g>
				<g>
					<rect x="384.557" y="447.193" fill="#E6E6E6" width="105.763" height="2.644"/>
				</g>
				<g>
					<rect x="384.557" y="468.345" fill="#E6E6E6" width="105.763" height="2.644"/>
				</g>
			</g>
			<g>
				<g>
					<rect x="536.591" y="217.158" fill="#F0F0F0" width="105.763" height="267.341"/>
				</g>
				<g>
					<rect x="536.591" y="238.311" fill="#E6E6E6" width="105.763" height="2.644"/>
				</g>
				<g>
					<rect x="536.591" y="259.463" fill="#E6E6E6" width="105.763" height="2.644"/>
				</g>
				<g>
					<rect x="536.591" y="280.616" fill="#E6E6E6" width="105.763" height="2.644"/>
				</g>
				<g>
					<rect x="536.591" y="301.769" fill="#E6E6E6" width="105.763" height="2.644"/>
				</g>
				<g>
					<rect x="536.591" y="322.921" fill="#E6E6E6" width="105.763" height="2.644"/>
				</g>
				<g>
					<rect x="536.591" y="344.074" fill="#E6E6E6" width="105.763" height="2.644"/>
				</g>
				<g>
					<rect x="536.591" y="365.226" fill="#E6E6E6" width="105.763" height="2.644"/>
				</g>
				<g>
					<rect x="536.591" y="386.379" fill="#E6E6E6" width="105.763" height="2.644"/>
				</g>
				<g>
					<rect x="536.591" y="407.532" fill="#E6E6E6" width="105.763" height="2.644"/>
				</g>
				<g>
					<rect x="536.591" y="428.684" fill="#E6E6E6" width="105.763" height="2.644"/>
				</g>
				<g>
					<rect x="536.591" y="449.837" fill="#E6E6E6" width="105.763" height="2.644"/>
				</g>
				<g>
					<rect x="536.591" y="470.989" fill="#E6E6E6" width="105.763" height="2.644"/>
				</g>
			</g>
		</g>
	</g>
	<circle fill="#FAFAFA" cx="309.075" cy="99.642" r="36.736"/>
	<path fill="#F0F0F0" d="M290.018,99.229c0-3.527-2.859-6.386-6.386-6.386c-0.638,0-1.253,0.096-1.834,0.27
		c0.093-0.64,0.143-1.295,0.143-1.961c0-7.468-6.055-13.523-13.523-13.523c-0.851,0-1.683,0.082-2.491,0.233
		c-2.079-3.402-5.815-5.68-10.093-5.68c-6.475,0-11.728,5.203-11.824,11.655c-0.066-0.001-0.13-0.01-0.197-0.01
		c-6.016,0-10.893,4.877-10.893,10.893s4.877,10.894,10.893,10.894h40.006l-0.008-0.009
		C287.255,105.51,290.018,102.695,290.018,99.229z"/>
	<path fill="#F0F0F0" d="M669.754,174.66c0-3.527-2.859-6.386-6.386-6.386c-0.638,0-1.253,0.096-1.834,0.27
		c0.093-0.64,0.143-1.295,0.143-1.961c0-7.468-6.054-13.523-13.523-13.523c-0.851,0-1.683,0.083-2.491,0.233
		c-2.078-3.402-5.815-5.68-10.093-5.68c-6.475,0-11.728,5.203-11.824,11.655c-0.066-0.001-0.13-0.01-0.197-0.01
		c-6.016,0-10.893,4.877-10.893,10.893s4.877,10.894,10.893,10.894h40.005l-0.008-0.009
		C666.991,180.941,669.754,178.127,669.754,174.66z"/>
	<path fill="#F0F0F0" d="M528.529,99.229c0-3.527,2.859-6.386,6.386-6.386c0.638,0,1.253,0.096,1.834,0.27
		c-0.093-0.64-0.143-1.295-0.143-1.961c0-7.468,6.055-13.523,13.523-13.523c0.851,0,1.683,0.082,2.491,0.233
		c2.079-3.402,5.815-5.68,10.093-5.68c6.475,0,11.728,5.203,11.824,11.655c0.066-0.001,0.13-0.01,0.197-0.01
		c6.016,0,10.893,4.877,10.893,10.893s-4.877,10.894-10.893,10.894h-40.006l0.008-0.009
		C531.292,105.51,528.529,102.695,528.529,99.229z"/>
	<path fill="#F0F0F0" d="M370.145,118.36c0-2.193-1.778-3.97-3.97-3.97c-0.396,0-0.779,0.06-1.14,0.168
		c0.058-0.398,0.089-0.805,0.089-1.219c0-4.643-3.764-8.407-8.407-8.407c-0.529,0-1.047,0.051-1.549,0.145
		c-1.292-2.115-3.615-3.531-6.275-3.531c-4.026,0-7.291,3.235-7.351,7.246c-0.041-0.001-0.081-0.006-0.122-0.006
		c-3.74,0-6.773,3.032-6.773,6.773s3.032,6.773,6.773,6.773h24.872l-0.005-0.006C368.427,122.265,370.145,120.515,370.145,118.36z"
		/>
	<path fill="#F0F0F0" d="M489.676,201.741c0-2.193,1.778-3.97,3.97-3.97c0.396,0,0.779,0.06,1.14,0.168
		c-0.058-0.398-0.089-0.805-0.089-1.219c0-4.643,3.764-8.407,8.407-8.407c0.529,0,1.047,0.051,1.549,0.145
		c1.292-2.115,3.615-3.531,6.275-3.531c4.026,0,7.291,3.235,7.351,7.246c0.041-0.001,0.081-0.006,0.122-0.006
		c3.74,0,6.773,3.032,6.773,6.773c0,3.74-3.032,6.773-6.773,6.773h-24.872l0.005-0.006
		C491.394,205.646,489.676,203.896,489.676,201.741z"/>
	<g>
		<path fill="#E6E6E6" d="M534.264,138.518c0,0,1.046-3.53-4.772-6.603c0,0-1.307,1.046-5.884,2.027
			c-4.576,0.981,3.073,8.041,7.518,8.368C535.572,142.637,534.264,138.518,534.264,138.518z"/>
		<path fill="#F0F0F0" d="M533.284,138.777c0,0,1.089-5.663,10.852-7.058s13.688-1.939,13.688-1.939s1.022,10.395-12.577,12.138
			l12.577-1.177c0,0-1.136,3.465-6.235,4.968l-6.668-1.373c0,0-11.545,2.982-16.736-1.961c-2.013-1.918-5.11-1.633-5.11-1.633
			s0.599-0.916,1.711-1.243c0,0-0.596-1.573,0.458-2.288C528.707,134.857,531.029,139.821,533.284,138.777z"/>
	</g>
	<g>
		<path fill="#E6E6E6" d="M461.039,111.503c0,0,0.592-1.998-2.701-3.736c0,0-0.74,0.592-3.329,1.147
			c-2.59,0.555,1.739,4.55,4.254,4.735C461.778,113.833,461.039,111.503,461.039,111.503z"/>
		<path fill="#F0F0F0" d="M460.484,111.649c0,0,0.616-3.205,6.14-3.994c5.525-0.789,7.746-1.098,7.746-1.098
			s0.578,5.882-7.117,6.869l7.117-0.666c0,0-0.643,1.961-3.528,2.811l-3.773-0.777c0,0-6.533,1.688-9.47-1.11
			c-1.139-1.085-2.892-0.924-2.892-0.924s0.339-0.519,0.968-0.703c0,0-0.337-0.89,0.259-1.295
			C457.894,109.431,459.208,112.241,460.484,111.649z"/>
	</g>
	<g>
		<path fill="#E6E6E6" d="M410.977,147.362c0,0,0.415-1.401-1.895-2.621c0,0-0.519,0.415-2.336,0.805
			c-1.817,0.389,1.22,3.192,2.984,3.322C411.496,148.996,410.977,147.362,410.977,147.362z"/>
		<path fill="#F0F0F0" d="M410.588,147.464c0,0,0.432-2.248,4.308-2.802c3.875-0.554,5.434-0.77,5.434-0.77s0.405,4.126-4.993,4.818
			l4.993-0.467c0,0-0.451,1.375-2.475,1.972l-2.647-0.545c0,0-4.583,1.184-6.644-0.779c-0.799-0.761-2.029-0.648-2.029-0.648
			s0.238-0.364,0.679-0.494c0,0-0.237-0.624,0.182-0.908C408.771,145.908,409.693,147.879,410.588,147.464z"/>
	</g>
</g>
<ellipse id="_x3C_Path_x3E__1_" fill="#F5F5F5" cx="422" cy="529.589" rx="256.329" ry="14.97"/>
<g>
	<g>
		<path fill="#407BFF" d="M294.028,312.606c-0.056,0-0.112-0.006-0.167-0.022c-0.354-0.092-0.565-0.453-0.473-0.806
			c0.008-0.028,0.767-2.924,2.399-7.678c0.119-0.347,0.494-0.532,0.84-0.411c0.345,0.119,0.529,0.494,0.411,0.839
			c-1.615,4.702-2.363,7.554-2.37,7.582C294.589,312.408,294.321,312.606,294.028,312.606z M299.642,296.275
			c-0.081,0-0.165-0.015-0.245-0.046c-0.339-0.136-0.505-0.52-0.369-0.86c0.975-2.447,2.017-4.92,3.096-7.353
			c0.148-0.333,0.538-0.484,0.872-0.336s0.484,0.538,0.336,0.873c-1.073,2.417-2.108,4.875-3.077,7.306
			C300.153,296.118,299.905,296.275,299.642,296.275z M306.677,280.554c-0.099,0-0.199-0.022-0.294-0.069
			c-0.327-0.163-0.46-0.56-0.298-0.886c1.18-2.37,2.422-4.747,3.692-7.067c0.175-0.32,0.577-0.438,0.897-0.262
			c0.32,0.175,0.438,0.577,0.262,0.897c-1.261,2.305-2.496,4.667-3.667,7.02C307.154,280.42,306.919,280.554,306.677,280.554z
			 M314.999,265.489c-0.118,0-0.236-0.031-0.344-0.097c-0.312-0.191-0.41-0.598-0.219-0.909c1.393-2.278,2.84-4.536,4.302-6.71
			c0.204-0.302,0.614-0.385,0.917-0.18c0.303,0.204,0.384,0.615,0.18,0.917c-1.451,2.159-2.888,4.401-4.271,6.662
			C315.44,265.376,315.222,265.489,314.999,265.489z M324.655,251.252c-0.138,0-0.278-0.043-0.397-0.133
			c-0.292-0.219-0.35-0.634-0.13-0.926c1.607-2.135,3.271-4.239,4.945-6.25c0.234-0.279,0.65-0.319,0.931-0.085
			s0.319,0.651,0.085,0.931c-1.661,1.995-3.311,4.081-4.905,6.2C325.053,251.161,324.855,251.252,324.655,251.252z M524.131,247.428
			c-0.199,0-0.396-0.09-0.527-0.261c-1.588-2.086-3.266-4.14-4.987-6.109c-0.24-0.274-0.212-0.692,0.063-0.933
			c0.274-0.241,0.691-0.214,0.933,0.063c1.741,1.99,3.438,4.069,5.044,6.178c0.221,0.291,0.165,0.705-0.126,0.926
			C524.411,247.384,524.271,247.428,524.131,247.428z M335.715,238.092c-0.163,0-0.325-0.059-0.453-0.179
			c-0.266-0.25-0.278-0.669-0.028-0.935c1.833-1.947,3.725-3.847,5.623-5.65c0.265-0.25,0.683-0.239,0.935,0.025
			c0.251,0.265,0.24,0.683-0.025,0.935c-1.88,1.785-3.754,3.668-5.57,5.597C336.066,238.023,335.891,238.092,335.715,238.092z
			 M512.747,234.564c-0.167,0-0.333-0.063-0.461-0.188c-1.876-1.828-3.838-3.615-5.834-5.311c-0.278-0.236-0.312-0.653-0.076-0.932
			c0.236-0.277,0.655-0.312,0.931-0.075c2.018,1.715,4.004,3.523,5.901,5.372c0.261,0.254,0.267,0.673,0.012,0.935
			C513.091,234.498,512.919,234.564,512.747,234.564z M348.238,226.334c-0.191,0-0.38-0.082-0.511-0.24
			c-0.232-0.282-0.192-0.699,0.089-0.931c2.056-1.695,4.177-3.336,6.305-4.876c0.295-0.213,0.708-0.148,0.923,0.148
			c0.214,0.296,0.147,0.709-0.148,0.923c-2.105,1.523-4.204,3.146-6.238,4.824C348.535,226.285,348.386,226.334,348.238,226.334z
			 M499.601,223.514c-0.134,0-0.269-0.041-0.386-0.125c-2.122-1.531-4.324-3.011-6.545-4.399c-0.31-0.194-0.404-0.602-0.211-0.911
			c0.194-0.31,0.602-0.404,0.911-0.211c2.247,1.403,4.474,2.9,6.619,4.449c0.296,0.214,0.363,0.627,0.149,0.923
			C500.008,223.419,499.806,223.514,499.601,223.514z M362.205,216.358c-0.223,0-0.44-0.112-0.565-0.316
			c-0.191-0.312-0.092-0.719,0.219-0.909c2.272-1.388,4.607-2.706,6.939-3.918c0.325-0.167,0.722-0.042,0.891,0.282
			c0.168,0.324,0.042,0.723-0.282,0.891c-2.306,1.197-4.614,2.5-6.859,3.873C362.441,216.327,362.322,216.358,362.205,216.358z
			 M484.988,214.499c-0.103,0-0.207-0.024-0.305-0.075c-2.314-1.207-4.705-2.357-7.107-3.416c-0.334-0.147-0.485-0.538-0.338-0.871
			c0.148-0.333,0.539-0.484,0.871-0.338c2.428,1.071,4.847,2.233,7.186,3.454c0.323,0.169,0.449,0.568,0.28,0.892
			C485.456,214.37,485.226,214.499,484.988,214.499z M377.472,208.546c-0.258,0-0.503-0.152-0.61-0.406
			c-0.141-0.337,0.018-0.724,0.355-0.865c2.445-1.022,4.953-1.967,7.456-2.807c0.346-0.116,0.721,0.071,0.837,0.416
			c0.116,0.346-0.07,0.721-0.416,0.837c-2.472,0.83-4.951,1.764-7.367,2.774C377.644,208.53,377.557,208.546,377.472,208.546z
			 M469.245,207.649c-0.073,0-0.148-0.012-0.221-0.038c-2.449-0.871-4.976-1.68-7.512-2.408c-0.351-0.101-0.554-0.467-0.453-0.817
			c0.1-0.352,0.469-0.552,0.817-0.453c2.562,0.735,5.116,1.553,7.591,2.432c0.344,0.123,0.523,0.5,0.401,0.844
			C469.771,207.48,469.516,207.649,469.245,207.649z M393.753,203.184c-0.297,0-0.567-0.202-0.642-0.504
			c-0.086-0.354,0.13-0.713,0.485-0.8c2.55-0.625,5.173-1.172,7.795-1.623c0.36-0.061,0.702,0.179,0.764,0.539
			s-0.18,0.702-0.539,0.764c-2.592,0.447-5.184,0.986-7.705,1.605C393.858,203.178,393.805,203.184,393.753,203.184z
			 M452.718,202.991c-0.046,0-0.092-0.005-0.138-0.014c-2.546-0.542-5.158-1.019-7.762-1.419c-0.361-0.056-0.609-0.393-0.553-0.753
			c0.055-0.361,0.392-0.613,0.753-0.553c2.631,0.404,5.267,0.886,7.837,1.432c0.357,0.076,0.585,0.427,0.509,0.784
			C453.298,202.778,453.023,202.991,452.718,202.991z M435.735,200.456c-0.019,0-0.039-0.001-0.06-0.003
			c-2.593-0.23-5.244-0.396-7.879-0.492c-0.365-0.013-0.65-0.32-0.637-0.684c0.014-0.366,0.352-0.659,0.684-0.636
			c2.658,0.097,5.333,0.264,7.949,0.496c0.363,0.032,0.632,0.353,0.6,0.717C436.362,200.197,436.074,200.456,435.735,200.456z
			 M410.657,200.368c-0.338,0-0.626-0.258-0.658-0.601c-0.033-0.363,0.234-0.685,0.598-0.719c2.607-0.239,5.282-0.396,7.952-0.469
			c0.364-0.006,0.669,0.277,0.679,0.643c0.01,0.365-0.278,0.669-0.643,0.679c-2.642,0.072-5.289,0.228-7.868,0.464
			C410.698,200.367,410.677,200.368,410.657,200.368z"/>
		<path fill="#407BFF" d="M525.231,248.611c-0.023,0-0.047-0.001-0.071-0.004l-5.501-0.59c-0.363-0.039-0.625-0.365-0.587-0.728
			c0.038-0.363,0.359-0.635,0.728-0.587l4.888,0.524l0.85-4.721c0.065-0.36,0.409-0.598,0.767-0.534
			c0.36,0.065,0.598,0.409,0.534,0.768l-0.959,5.327C525.823,248.385,525.547,248.611,525.231,248.611z"/>
	</g>
	<g>
		<path fill="#407BFF" d="M536.766,186.724c-0.015-0.025-1.533-2.553-4.401-6.614c-0.21-0.298-0.139-0.71,0.159-0.921
			c0.297-0.213,0.71-0.141,0.921,0.159c2.899,4.105,4.44,6.672,4.455,6.697c0.187,0.312,0.086,0.719-0.228,0.906
			c-0.049,0.03-0.101,0.052-0.154,0.068C537.236,187.102,536.923,186.987,536.766,186.724z M526.844,172.691
			c-1.612-2.062-3.294-4.131-5.002-6.15c-0.236-0.279-0.201-0.696,0.078-0.932c0.279-0.236,0.695-0.2,0.931,0.078
			c1.718,2.032,3.412,4.115,5.033,6.19c0.225,0.288,0.174,0.704-0.113,0.929c-0.068,0.052-0.144,0.09-0.222,0.113
			C527.297,172.992,527.015,172.91,526.844,172.691z M515.718,159.614c-1.785-1.931-3.632-3.852-5.488-5.71
			c-0.258-0.258-0.258-0.677,0-0.935s0.677-0.258,0.935,0c1.869,1.87,3.728,3.804,5.525,5.748c0.248,0.268,0.231,0.686-0.037,0.934
			c-0.077,0.072-0.168,0.121-0.263,0.149C516.156,159.868,515.894,159.805,515.718,159.614z M503.546,147.527
			c-1.961-1.783-3.969-3.532-5.968-5.198c-0.28-0.234-0.318-0.65-0.084-0.931c0.234-0.281,0.65-0.317,0.931-0.084
			c2.012,1.677,4.035,3.439,6.011,5.235c0.27,0.245,0.29,0.664,0.044,0.934c-0.085,0.093-0.19,0.156-0.303,0.189
			C503.963,147.735,503.722,147.688,503.546,147.527z M490.335,136.609c-2.124-1.587-4.293-3.126-6.447-4.576
			c-0.303-0.203-0.383-0.614-0.179-0.917c0.204-0.303,0.614-0.382,0.917-0.179c2.171,1.461,4.358,3.013,6.499,4.613
			c0.293,0.219,0.353,0.633,0.134,0.925c-0.089,0.12-0.211,0.2-0.344,0.239C490.724,136.77,490.508,136.738,490.335,136.609z
			 M297.948,188.955c-0.341-0.131-0.511-0.513-0.381-0.854c0.95-2.475,1.996-4.946,3.109-7.345c0.154-0.333,0.548-0.476,0.878-0.322
			c0.331,0.154,0.475,0.547,0.322,0.878c-1.101,2.372-2.135,4.815-3.075,7.262c-0.077,0.201-0.241,0.342-0.432,0.398
			C298.235,189.012,298.088,189.009,297.948,188.955z M476.09,127.119c-2.284-1.342-4.611-2.624-6.916-3.81
			c-0.325-0.167-0.452-0.566-0.286-0.89c0.168-0.324,0.566-0.452,0.89-0.286c2.327,1.198,4.676,2.492,6.982,3.846
			c0.314,0.185,0.42,0.59,0.235,0.905c-0.089,0.151-0.229,0.254-0.385,0.299C476.442,127.233,476.254,127.215,476.09,127.119z
			 M305.18,173.374c-0.318-0.179-0.431-0.583-0.251-0.9c1.302-2.307,2.702-4.599,4.158-6.811c0.199-0.304,0.611-0.389,0.915-0.189
			c0.305,0.201,0.389,0.611,0.189,0.915c-1.44,2.188-2.822,4.453-4.11,6.734c-0.088,0.156-0.23,0.263-0.39,0.31
			C305.525,173.481,305.341,173.465,305.18,173.374z M460.847,119.381c-2.423-1.04-4.892-2.01-7.34-2.882
			c-0.344-0.123-0.523-0.501-0.401-0.844c0.123-0.345,0.502-0.523,0.845-0.401c2.475,0.882,4.97,1.862,7.419,2.912
			c0.335,0.144,0.491,0.533,0.346,0.869c-0.081,0.189-0.239,0.32-0.423,0.374C461.151,119.449,460.994,119.444,460.847,119.381z
			 M314.618,159.027c-0.288-0.224-0.34-0.639-0.116-0.927c1.625-2.088,3.342-4.149,5.106-6.126c0.243-0.272,0.661-0.296,0.934-0.053
			c0.272,0.243,0.296,0.661,0.053,0.933c-1.743,1.954-3.442,3.993-5.049,6.057c-0.089,0.114-0.207,0.191-0.335,0.228
			C315.013,159.197,314.793,159.163,314.618,159.027z M444.732,113.751c-2.54-0.688-5.121-1.292-7.67-1.794
			c-0.358-0.071-0.591-0.418-0.521-0.777c0.071-0.359,0.418-0.59,0.777-0.521c2.579,0.509,5.19,1.12,7.759,1.815
			c0.353,0.095,0.561,0.458,0.465,0.811c-0.062,0.231-0.24,0.399-0.453,0.462C444.976,113.78,444.854,113.784,444.732,113.751z
			 M326.047,146.213c-0.253-0.264-0.244-0.682,0.019-0.935c1.903-1.828,3.899-3.621,5.93-5.33c0.278-0.233,0.696-0.198,0.931,0.08
			c0.235,0.279,0.199,0.696-0.08,0.931c-2.009,1.69-3.982,3.464-5.864,5.272c-0.08,0.076-0.174,0.129-0.272,0.158
			C326.481,146.456,326.224,146.397,326.047,146.213z M427.985,110.553c-2.602-0.292-5.243-0.494-7.849-0.597
			c-0.365-0.015-0.649-0.322-0.634-0.687c0.015-0.364,0.322-0.649,0.687-0.634c2.638,0.105,5.311,0.308,7.944,0.604
			c0.363,0.041,0.624,0.368,0.583,0.731c-0.031,0.273-0.224,0.488-0.472,0.561C428.162,110.554,428.075,110.563,427.985,110.553z
			 M339.18,135.153c-0.214-0.296-0.147-0.709,0.149-0.923c2.129-1.538,4.351-3.04,6.604-4.463c0.307-0.193,0.717-0.104,0.912,0.206
			c0.195,0.308,0.103,0.716-0.206,0.912c-2.23,1.409-4.429,2.895-6.536,4.417c-0.063,0.045-0.131,0.078-0.202,0.099
			C339.64,135.477,339.348,135.386,339.18,135.153z M410.956,109.974c-2.593,0.113-5.233,0.321-7.846,0.619
			c-0.363,0.041-0.69-0.219-0.732-0.582c-0.041-0.363,0.219-0.689,0.582-0.732c2.644-0.301,5.314-0.513,7.938-0.627
			c0.365-0.016,0.673,0.267,0.69,0.632c0.013,0.31-0.19,0.58-0.475,0.663C411.063,109.962,411.01,109.971,410.956,109.974z
			 M353.692,125.974c-0.173-0.321-0.052-0.723,0.269-0.896c2.314-1.246,4.71-2.447,7.121-3.572c0.33-0.158,0.724-0.011,0.878,0.32
			c0.154,0.33,0.011,0.724-0.32,0.878c-2.388,1.114-4.761,2.305-7.053,3.539c-0.042,0.022-0.085,0.04-0.129,0.052
			C354.166,126.381,353.843,126.253,353.692,125.974z M369.25,118.706c-0.133-0.34,0.035-0.724,0.375-0.856
			c2.446-0.957,4.966-1.867,7.491-2.705c0.312-0.115,0.72,0.072,0.835,0.419c0.115,0.346-0.072,0.72-0.419,0.835
			c-2.502,0.832-5.001,1.734-7.425,2.682c-0.019,0.008-0.038,0.014-0.056,0.019C369.725,119.195,369.375,119.027,369.25,118.706z
			 M394.038,111.999c-2.542,0.496-5.127,1.089-7.683,1.761c-0.353,0.092-0.714-0.118-0.808-0.472
			c-0.093-0.354,0.12-0.712,0.472-0.808c2.583-0.679,5.196-1.278,7.765-1.779c0.359-0.07,0.706,0.164,0.776,0.522
			c0.066,0.339-0.138,0.666-0.463,0.761C394.078,111.99,394.058,111.995,394.038,111.999z"/>
		<path fill="#407BFF" d="M297.646,190.416c0.022-0.007,0.045-0.014,0.067-0.024l5.115-2.109c0.338-0.139,0.498-0.525,0.359-0.863
			c-0.138-0.338-0.523-0.508-0.863-0.359l-4.545,1.874l-2.14-4.293c-0.163-0.327-0.56-0.459-0.886-0.297
			c-0.327,0.163-0.46,0.56-0.297,0.887l2.414,4.844C297.014,190.366,297.342,190.505,297.646,190.416z"/>
	</g>
	<path fill="#407BFF" d="M357.318,328.904H159.771c-4.773,0-8.641,3.869-8.641,8.641v157.387c0,4.773,3.869,8.641,8.641,8.641
		h197.548c4.773,0,8.641-3.869,8.641-8.641V337.546C365.96,332.773,362.091,328.904,357.318,328.904z"/>
	<path fill="#211D6C" d="M357.318,328.904H159.771c-4.773,0-8.641,3.869-8.641,8.641v157.387c0,4.773,3.869,8.641,8.641,8.641
		h197.548c4.773,0,8.641-3.869,8.641-8.641V337.546C365.96,332.773,362.091,328.904,357.318,328.904z"/>
	<path fill="#16469D" d="M358.013,336.812c0,1.56-0.635,2.975-1.653,3.993s-2.419,1.653-3.979,1.653h-186.42
		c-3.107,0-5.632-2.525-5.632-5.645c0-1.56,0.634-2.961,1.653-3.979c1.018-1.018,2.433-1.653,3.979-1.653h186.421
		C355.488,331.18,358.013,333.705,358.013,336.812z"/>
	<g>
		<circle fill="#407BFF" cx="331.917" cy="248.435" r="42.192"/>
		<circle opacity="0.3" fill="#FFFFFF" enable-background="new    " cx="331.917" cy="248.435" r="42.192"/>
		<g>
			<path opacity="0.6" fill="#FFFFFF" enable-background="new    " d="M331.917,215.426c-18.23,0-33.009,14.779-33.009,33.009
				s14.778,33.009,33.009,33.009c18.23,0,33.009-14.779,33.009-33.009S350.147,215.426,331.917,215.426z"/>
		</g>
	</g>
	<g>
		<path fill="#407BFF" d="M334.455,308.639c0,8.289-2.393,16.023-6.531,22.541c-2.75,4.363-6.306,8.183-10.431,11.277h-50.462
			c-4.124-3.094-7.668-6.914-10.431-11.277c-4.138-6.518-6.531-14.252-6.531-22.541c0-23.307,18.892-42.199,42.2-42.199
			C315.563,266.44,334.455,285.331,334.455,308.639z"/>
		<g>
			<path opacity="0.6" fill="#FFFFFF" enable-background="new    " d="M292.268,275.628c-18.231,0-33.012,14.78-33.012,33.011
				c0,8.712,3.385,16.644,8.911,22.541c6.015,6.438,14.582,10.457,24.101,10.457s18.085-4.019,24.101-10.457
				c5.526-5.896,8.911-13.828,8.911-22.541C325.28,290.408,310.5,275.628,292.268,275.628z"/>
		</g>
	</g>
	<path fill="#16469D" d="M344.61,348.569l-185.699-18.874c-4.298-0.437-7.783,2.928-7.783,7.516v158.055
		c0,4.588,3.484,8.661,7.783,9.098l185.699,18.874c4.298,0.437,7.783-2.928,7.783-7.516V357.668
		C352.393,353.08,348.909,349.006,344.61,348.569z"/>
	<g>
		<path fill="#FFFFFF" d="M162.92,335.397l-6.623-0.674c-0.37-0.04-0.687,0.225-0.727,0.595c-0.04,0.357,0.225,0.687,0.582,0.727
			l6.636,0.674h0.066c0.344,0,0.621-0.251,0.661-0.595C163.555,335.754,163.291,335.437,162.92,335.397z M177.516,336.878
			l-6.623-0.674c-0.384-0.04-0.688,0.238-0.727,0.595c-0.04,0.37,0.225,0.687,0.582,0.727l6.637,0.674h0.066
			c0.344,0,0.621-0.251,0.661-0.595C178.15,337.248,177.886,336.917,177.516,336.878z M192.111,338.372l-6.623-0.674
			c-0.383-0.053-0.687,0.225-0.727,0.582c-0.04,0.37,0.225,0.687,0.582,0.727l6.637,0.674h0.066c0.344,0,0.621-0.251,0.661-0.595
			C192.746,338.729,192.481,338.398,192.111,338.372z M206.706,339.852l-6.637-0.674c-0.357-0.04-0.687,0.225-0.714,0.582
			c-0.04,0.37,0.225,0.687,0.582,0.727l6.637,0.674h0.066c0.343,0,0.621-0.251,0.661-0.582
			C207.341,340.209,207.076,339.892,206.706,339.852z M221.301,341.333l-6.637-0.674c-0.357-0.04-0.674,0.225-0.714,0.595
			c-0.039,0.357,0.225,0.687,0.582,0.714l6.637,0.674c0.026,0.013,0.053,0.013,0.066,0.013c0.343,0,0.621-0.264,0.661-0.595
			C221.936,341.69,221.672,341.373,221.301,341.333z M235.897,342.814l-6.637-0.674c-0.357-0.04-0.674,0.225-0.714,0.595
			c-0.039,0.357,0.225,0.687,0.582,0.727l6.637,0.674h0.066c0.344,0,0.621-0.251,0.661-0.595
			C236.531,343.171,236.267,342.853,235.897,342.814z M250.492,344.294l-6.637-0.674c-0.357-0.026-0.687,0.238-0.714,0.595
			c-0.04,0.37,0.225,0.687,0.582,0.727l6.637,0.674h0.066c0.344,0,0.621-0.251,0.661-0.595
			C251.127,344.665,250.862,344.334,250.492,344.294z M265.087,345.788l-6.637-0.674c-0.37-0.04-0.687,0.225-0.714,0.582
			c-0.04,0.37,0.225,0.687,0.582,0.727l6.637,0.674h0.066c0.344,0,0.621-0.251,0.661-0.595
			C265.722,346.145,265.458,345.815,265.087,345.788z M279.683,347.269l-6.637-0.674c-0.37-0.04-0.687,0.225-0.714,0.582
			c-0.04,0.37,0.225,0.701,0.582,0.727l6.637,0.674c0.026,0,0.053,0.013,0.066,0.013c0.344,0,0.621-0.264,0.661-0.595
			C280.317,347.626,280.053,347.309,279.683,347.269z M294.278,348.75l-6.624-0.674c-0.383-0.026-0.7,0.225-0.727,0.595
			c-0.04,0.357,0.225,0.687,0.582,0.714l6.637,0.674c0.027,0.013,0.053,0.013,0.066,0.013c0.344,0,0.621-0.264,0.661-0.595
			C294.913,349.107,294.648,348.789,294.278,348.75z M308.873,350.23l-6.636-0.674c-0.357-0.026-0.688,0.238-0.714,0.595
			c-0.04,0.357,0.225,0.687,0.582,0.727l6.637,0.674h0.066c0.344,0,0.622-0.251,0.661-0.595
			C309.508,350.587,309.243,350.27,308.873,350.23z M323.468,351.711l-6.637-0.674c-0.357-0.026-0.688,0.238-0.714,0.595
			c-0.04,0.37,0.225,0.687,0.582,0.727l6.637,0.674h0.066c0.344,0,0.622-0.251,0.661-0.595
			C324.103,352.081,323.839,351.751,323.468,351.711z M338.064,353.205l-6.637-0.674c-0.357-0.04-0.687,0.225-0.714,0.582
			c-0.04,0.37,0.225,0.687,0.582,0.727l6.65,0.674l0.146-0.648L338.064,353.205z M345.044,357.872
			c-0.185-0.317-0.595-0.423-0.912-0.238c-0.304,0.198-0.41,0.595-0.225,0.912c0.793,1.348,1.217,2.882,1.217,4.416v1.679
			c0,0.37,0.291,0.661,0.661,0.661c0.357,0,0.661-0.291,0.661-0.661v-1.679C346.446,361.19,345.956,359.432,345.044,357.872z
			 M345.785,371.978c-0.37,0-0.661,0.304-0.661,0.661v6.676c0,0.357,0.291,0.661,0.661,0.661c0.357,0,0.661-0.304,0.661-0.661
			v-6.676C346.446,372.282,346.142,371.978,345.785,371.978z M345.785,386.652c-0.37,0-0.661,0.291-0.661,0.661v6.663
			c0,0.37,0.291,0.661,0.661,0.661c0.357,0,0.661-0.291,0.661-0.661v-6.663C346.446,386.943,346.142,386.652,345.785,386.652z
			 M345.785,401.327c-0.37,0-0.661,0.291-0.661,0.661v6.663c0,0.37,0.291,0.661,0.661,0.661c0.357,0,0.661-0.291,0.661-0.661v-6.663
			C346.446,401.618,346.142,401.327,345.785,401.327z M345.785,415.988c-0.37,0-0.661,0.304-0.661,0.661v6.676
			c0,0.357,0.291,0.661,0.661,0.661c0.357,0,0.661-0.304,0.661-0.661v-6.676C346.446,416.293,346.142,415.988,345.785,415.988z
			 M345.785,430.663c-0.37,0-0.661,0.291-0.661,0.661v6.663c0,0.37,0.291,0.661,0.661,0.661c0.357,0,0.661-0.291,0.661-0.661v-6.663
			C346.446,430.954,346.142,430.663,345.785,430.663z M345.785,445.338c-0.37,0-0.661,0.291-0.661,0.661v6.663
			c0,0.37,0.291,0.661,0.661,0.661c0.357,0,0.661-0.291,0.661-0.661v-6.663C346.446,445.629,346.142,445.338,345.785,445.338z
			 M345.785,459.999c-0.37,0-0.661,0.304-0.661,0.661v6.676c0,0.357,0.291,0.661,0.661,0.661c0.357,0,0.661-0.304,0.661-0.661
			v-6.676C346.446,460.303,346.142,459.999,345.785,459.999z M345.785,474.674c-0.37,0-0.661,0.291-0.661,0.661v6.676
			c0,0.357,0.291,0.661,0.661,0.661c0.357,0,0.661-0.304,0.661-0.661v-6.676C346.446,474.965,346.142,474.674,345.785,474.674z
			 M345.785,489.348c-0.37,0-0.661,0.291-0.661,0.661v6.663c0,0.37,0.291,0.661,0.661,0.661c0.357,0,0.661-0.291,0.661-0.661v-6.663
			C346.446,489.639,346.142,489.348,345.785,489.348z M151.723,498.325c-0.027,0-0.04-0.013-0.066-0.013
			c0.119,0.37,0.264,0.727,0.436,1.071c0.093-0.079,0.132-0.172,0.159-0.278C152.317,498.748,152.08,498.391,151.723,498.325z
			 M166.252,499.832l-6.637-0.674c-0.357-0.04-0.687,0.225-0.714,0.595c-0.04,0.357,0.225,0.687,0.582,0.714l6.637,0.674
			c0.026,0.013,0.053,0.013,0.066,0.013c0.344,0,0.621-0.264,0.661-0.595C166.886,500.189,166.622,499.872,166.252,499.832z
			 M180.847,501.313l-6.637-0.674c-0.357-0.04-0.688,0.225-0.714,0.595c-0.04,0.357,0.225,0.687,0.582,0.727l6.637,0.674h0.066
			c0.344,0,0.621-0.251,0.661-0.595C181.482,501.67,181.217,501.352,180.847,501.313z M195.442,502.793l-6.637-0.674
			c-0.357-0.026-0.687,0.238-0.714,0.595c-0.04,0.37,0.225,0.687,0.582,0.727l6.637,0.674h0.066c0.344,0,0.621-0.251,0.661-0.595
			C196.077,503.164,195.813,502.833,195.442,502.793z M210.038,504.287l-6.637-0.674c-0.357-0.04-0.687,0.225-0.714,0.582
			c-0.039,0.37,0.225,0.687,0.582,0.727l6.637,0.674h0.066c0.343,0,0.621-0.251,0.661-0.595
			C210.672,504.644,210.408,504.314,210.038,504.287z M224.633,505.768l-6.637-0.674c-0.37-0.04-0.687,0.225-0.714,0.582
			c-0.039,0.37,0.225,0.687,0.582,0.727l6.636,0.674h0.066c0.343,0,0.621-0.251,0.661-0.582
			C225.267,506.125,225.003,505.808,224.633,505.768z M239.228,507.249l-6.637-0.674c-0.357-0.04-0.687,0.225-0.714,0.595
			c-0.039,0.357,0.225,0.687,0.582,0.714l6.637,0.674c0.026,0.013,0.053,0.013,0.066,0.013c0.344,0,0.621-0.264,0.661-0.595
			C239.863,507.606,239.598,507.288,239.228,507.249z M253.824,508.729l-6.637-0.674c-0.37-0.04-0.687,0.225-0.714,0.595
			c-0.04,0.357,0.225,0.687,0.582,0.727l6.637,0.674h0.066c0.344,0,0.621-0.251,0.661-0.595
			C254.458,509.086,254.194,508.769,253.824,508.729z M268.419,510.21l-6.637-0.674c-0.357-0.04-0.688,0.238-0.714,0.595
			c-0.04,0.37,0.225,0.687,0.582,0.727l6.637,0.674h0.066c0.344,0,0.621-0.251,0.661-0.595
			C269.054,510.58,268.789,510.25,268.419,510.21z M345.785,504.01c-0.37,0-0.661,0.304-0.661,0.661v5.764
			c0,0.278-0.013,0.568-0.04,0.846c-0.04,0.357,0.225,0.687,0.582,0.714c0.026,0.013,0.053,0.013,0.066,0.013
			c0.344,0,0.621-0.251,0.661-0.595c0.04-0.317,0.053-0.648,0.053-0.978v-5.764C346.446,504.314,346.142,504.01,345.785,504.01z
			 M283.014,511.704l-6.637-0.674c-0.37-0.04-0.687,0.225-0.714,0.582c-0.04,0.37,0.225,0.687,0.582,0.727l6.637,0.674h0.066
			c0.344,0,0.621-0.251,0.661-0.595C283.649,512.061,283.384,511.73,283.014,511.704z M297.61,513.185l-6.637-0.674
			c-0.37-0.04-0.687,0.225-0.714,0.582c-0.04,0.37,0.225,0.701,0.582,0.727l6.637,0.674c0.026,0,0.053,0.013,0.066,0.013
			c0.344,0,0.622-0.264,0.661-0.595C298.244,513.542,297.979,513.224,297.61,513.185z M312.205,514.665l-6.637-0.674
			c-0.37-0.04-0.687,0.225-0.714,0.595c-0.04,0.357,0.225,0.687,0.582,0.714l6.637,0.674c0.026,0.013,0.053,0.013,0.066,0.013
			c0.344,0,0.622-0.264,0.661-0.595C312.839,515.022,312.575,514.705,312.205,514.665z M326.8,516.146l-6.637-0.674
			c-0.37-0.04-0.687,0.238-0.714,0.595c-0.04,0.357,0.225,0.688,0.582,0.727l6.637,0.674h0.066c0.344,0,0.622-0.251,0.661-0.595
			C327.435,516.503,327.17,516.186,326.8,516.146z M341.898,517.27c-0.132-0.344-0.516-0.502-0.86-0.37
			c-0.925,0.357-1.917,0.502-2.975,0.397l-3.305-0.344c-0.37-0.026-0.687,0.238-0.714,0.595c-0.04,0.37,0.225,0.687,0.582,0.727
			l3.305,0.331c0.277,0.026,0.542,0.04,0.819,0.04c0.965,0,1.904-0.172,2.776-0.516C341.871,517.984,342.03,517.6,341.898,517.27z"
			/>
	</g>
	<g>
		<path fill="#407BFF" d="M389.075,428.079l-66.262-6.735c-1.972-0.2-3.684,1.347-3.684,3.329v22.519c0,1.717,1.3,3.155,3.008,3.329
			l66.791,6.789c1.245,0.127,2.456-0.452,3.14-1.5l5.883-9.013c0.636-0.974,0.72-2.208,0.223-3.259l-6.412-13.561
			C391.26,428.918,390.241,428.198,389.075,428.079z"/>
		<path opacity="0.2" enable-background="new    " d="M389.075,428.079l-66.262-6.735c-1.972-0.2-3.684,1.347-3.684,3.329v22.519
			c0,1.717,1.3,3.155,3.008,3.329l66.791,6.789c1.245,0.127,2.456-0.452,3.14-1.5l5.883-9.013c0.636-0.974,0.72-2.208,0.223-3.259
			l-6.412-13.561C391.26,428.918,390.241,428.198,389.075,428.079z"/>
		<ellipse fill="#16469D" cx="382.368" cy="442.457" rx="6.668" ry="7.322"/>
	</g>
</g>
<g>
	<path fill="#263238" d="M484.476,328.904h197.548c4.773,0,8.641,3.869,8.641,8.641v157.387c0,4.773-3.869,8.641-8.641,8.641
		H484.476c-4.773,0-8.641-3.869-8.641-8.641V337.546C475.834,332.773,479.703,328.904,484.476,328.904z"/>
	<path fill="#005D28" d="M484.476,328.904h197.548c4.773,0,8.641,3.869,8.641,8.641v157.387c0,4.773-3.869,8.641-8.641,8.641
		H484.476c-4.773,0-8.641-3.869-8.641-8.641V337.546C475.834,332.773,479.703,328.904,484.476,328.904z"/>
	<path fill="#00984A" d="M489.417,342.46h186.41c3.116,0,5.643-2.526,5.643-5.643l0,0c0-3.116-2.526-5.643-5.643-5.643h-186.41
		c-3.116,0-5.643,2.526-5.643,5.643l0,0C483.775,339.933,486.301,342.46,489.417,342.46z"/>
	<path fill="#076833" d="M497.183,348.569l185.699-18.874c4.298-0.437,7.783,2.928,7.783,7.516v158.055
		c0,4.588-3.484,8.661-7.783,9.098l-185.699,18.874c-4.298,0.437-7.783-2.928-7.783-7.516V357.668
		C489.401,353.08,492.885,349.006,497.183,348.569z"/>
	<path fill="#00984A" d="M493.85,351.903l185.699-18.874c4.298-0.437,7.783,2.928,7.783,7.516V498.6
		c0,4.588-3.484,8.661-7.783,9.098L493.85,526.573c-4.298,0.437-7.783-2.928-7.783-7.516V361.001
		C486.067,356.413,489.552,352.339,493.85,351.903z"/>
	<g>
		<path fill="#FFFFFF" d="M678.279,336.124c0.04,0.344,0.317,0.595,0.661,0.595h0.066l6.636-0.674
			c0.357-0.04,0.622-0.37,0.582-0.727c-0.04-0.37-0.357-0.635-0.727-0.595l-6.623,0.674
			C678.503,335.437,678.239,335.754,678.279,336.124z M663.683,337.605c0.04,0.344,0.317,0.595,0.661,0.595h0.066l6.637-0.674
			c0.357-0.04,0.621-0.357,0.582-0.727c-0.04-0.357-0.344-0.635-0.727-0.595l-6.623,0.674
			C663.908,336.917,663.643,337.248,663.683,337.605z M649.088,339.086c0.04,0.344,0.317,0.595,0.661,0.595h0.066l6.637-0.674
			c0.357-0.04,0.621-0.357,0.582-0.727c-0.04-0.357-0.344-0.635-0.727-0.582l-6.623,0.674
			C649.313,338.398,649.048,338.729,649.088,339.086z M634.493,340.579c0.04,0.331,0.318,0.582,0.661,0.582h0.066l6.637-0.674
			c0.357-0.04,0.621-0.357,0.582-0.727c-0.026-0.357-0.357-0.621-0.714-0.582l-6.637,0.674
			C634.717,339.892,634.453,340.209,634.493,340.579z M619.897,342.06c0.04,0.331,0.318,0.595,0.661,0.595
			c0.014,0,0.04,0,0.066-0.013l6.637-0.674c0.357-0.026,0.621-0.357,0.582-0.714c-0.04-0.37-0.357-0.635-0.714-0.595l-6.637,0.674
			C620.122,341.373,619.858,341.69,619.897,342.06z M605.302,343.541c0.04,0.344,0.317,0.595,0.661,0.595h0.066l6.637-0.674
			c0.357-0.04,0.621-0.37,0.582-0.727c-0.04-0.37-0.357-0.635-0.714-0.595l-6.637,0.674
			C605.527,342.853,605.262,343.171,605.302,343.541z M590.707,345.021c0.04,0.344,0.317,0.595,0.661,0.595h0.066l6.637-0.674
			c0.357-0.04,0.621-0.357,0.582-0.727c-0.026-0.357-0.357-0.621-0.714-0.595l-6.637,0.674
			C590.931,344.334,590.667,344.665,590.707,345.021z M576.112,346.502c0.04,0.344,0.317,0.595,0.661,0.595h0.066l6.637-0.674
			c0.357-0.04,0.621-0.357,0.582-0.727c-0.027-0.357-0.344-0.621-0.714-0.582l-6.637,0.674
			C576.336,345.815,576.072,346.145,576.112,346.502z M561.516,347.996c0.04,0.331,0.317,0.595,0.661,0.595
			c0.013,0,0.04-0.013,0.066-0.013l6.637-0.674c0.357-0.026,0.621-0.357,0.582-0.727c-0.026-0.357-0.344-0.621-0.714-0.582
			l-6.637,0.674C561.741,347.309,561.476,347.626,561.516,347.996z M546.921,349.477c0.04,0.331,0.317,0.595,0.661,0.595
			c0.013,0,0.04,0,0.066-0.013l6.637-0.674c0.357-0.026,0.621-0.357,0.582-0.714c-0.026-0.37-0.344-0.621-0.727-0.595l-6.624,0.674
			C547.146,348.789,546.881,349.107,546.921,349.477z M532.326,350.957c0.039,0.344,0.317,0.595,0.661,0.595h0.066l6.637-0.674
			c0.357-0.04,0.621-0.37,0.582-0.727c-0.026-0.357-0.357-0.621-0.714-0.595l-6.636,0.674
			C532.55,350.27,532.286,350.587,532.326,350.957z M517.73,352.438c0.039,0.344,0.317,0.595,0.661,0.595h0.066l6.637-0.674
			c0.357-0.04,0.622-0.357,0.582-0.727c-0.026-0.357-0.357-0.621-0.714-0.595l-6.637,0.674
			C517.955,351.751,517.691,352.081,517.73,352.438z M503.703,353.866l0.146,0.648l6.65-0.674c0.357-0.04,0.622-0.357,0.582-0.727
			c-0.026-0.357-0.357-0.621-0.714-0.582l-6.637,0.674L503.703,353.866z M495.348,362.962v1.679c0,0.37,0.304,0.661,0.661,0.661
			c0.37,0,0.661-0.291,0.661-0.661v-1.679c0-1.534,0.423-3.067,1.216-4.416c0.185-0.317,0.079-0.714-0.225-0.912
			c-0.317-0.185-0.727-0.079-0.912,0.238C495.837,359.432,495.348,361.19,495.348,362.962z M495.348,372.639v6.676
			c0,0.357,0.304,0.661,0.661,0.661c0.37,0,0.661-0.304,0.661-0.661v-6.676c0-0.357-0.291-0.661-0.661-0.661
			C495.652,371.978,495.348,372.282,495.348,372.639z M495.348,387.313v6.663c0,0.37,0.304,0.661,0.661,0.661
			c0.37,0,0.661-0.291,0.661-0.661v-6.663c0-0.37-0.291-0.661-0.661-0.661C495.652,386.652,495.348,386.943,495.348,387.313z
			 M495.348,401.988v6.663c0,0.37,0.304,0.661,0.661,0.661c0.37,0,0.661-0.291,0.661-0.661v-6.663c0-0.37-0.291-0.661-0.661-0.661
			C495.652,401.327,495.348,401.618,495.348,401.988z M495.348,416.649v6.676c0,0.357,0.304,0.661,0.661,0.661
			c0.37,0,0.661-0.304,0.661-0.661v-6.676c0-0.357-0.291-0.661-0.661-0.661C495.652,415.988,495.348,416.293,495.348,416.649z
			 M495.348,431.324v6.663c0,0.37,0.304,0.661,0.661,0.661c0.37,0,0.661-0.291,0.661-0.661v-6.663c0-0.37-0.291-0.661-0.661-0.661
			C495.652,430.663,495.348,430.954,495.348,431.324z M495.348,445.999v6.663c0,0.37,0.304,0.661,0.661,0.661
			c0.37,0,0.661-0.291,0.661-0.661v-6.663c0-0.37-0.291-0.661-0.661-0.661C495.652,445.338,495.348,445.629,495.348,445.999z
			 M495.348,460.66v6.676c0,0.357,0.304,0.661,0.661,0.661c0.37,0,0.661-0.304,0.661-0.661v-6.676c0-0.357-0.291-0.661-0.661-0.661
			C495.652,459.999,495.348,460.303,495.348,460.66z M495.348,475.335v6.676c0,0.357,0.304,0.661,0.661,0.661
			c0.37,0,0.661-0.304,0.661-0.661v-6.676c0-0.37-0.291-0.661-0.661-0.661C495.652,474.674,495.348,474.965,495.348,475.335z
			 M495.348,490.009v6.663c0,0.37,0.304,0.661,0.661,0.661c0.37,0,0.661-0.291,0.661-0.661v-6.663c0-0.37-0.291-0.661-0.661-0.661
			C495.652,489.348,495.348,489.639,495.348,490.009z M689.542,499.105c0.026,0.106,0.066,0.198,0.159,0.278
			c0.172-0.344,0.317-0.701,0.436-1.071c-0.027,0-0.04,0.013-0.066,0.013C689.714,498.391,689.476,498.748,689.542,499.105z
			 M674.947,500.559c0.04,0.331,0.317,0.595,0.661,0.595c0.013,0,0.04,0,0.066-0.013l6.637-0.674
			c0.357-0.026,0.621-0.357,0.582-0.714c-0.026-0.37-0.357-0.635-0.714-0.595l-6.637,0.674
			C675.172,499.872,674.907,500.189,674.947,500.559z M660.352,502.04c0.04,0.344,0.317,0.595,0.661,0.595h0.066l6.637-0.674
			c0.357-0.04,0.621-0.37,0.582-0.727c-0.026-0.37-0.357-0.635-0.714-0.595l-6.637,0.674
			C660.576,501.352,660.312,501.67,660.352,502.04z M645.756,503.521c0.04,0.344,0.317,0.595,0.661,0.595h0.066l6.637-0.674
			c0.357-0.04,0.621-0.357,0.582-0.727c-0.026-0.357-0.357-0.621-0.714-0.595l-6.637,0.674
			C645.981,502.833,645.717,503.164,645.756,503.521z M631.161,505.001c0.04,0.344,0.318,0.595,0.661,0.595h0.066l6.637-0.674
			c0.357-0.04,0.621-0.357,0.582-0.727c-0.026-0.357-0.357-0.621-0.714-0.582l-6.637,0.674
			C631.386,504.314,631.122,504.644,631.161,505.001z M616.566,506.495c0.04,0.331,0.318,0.582,0.661,0.582h0.067l6.636-0.674
			c0.357-0.04,0.621-0.357,0.582-0.727c-0.027-0.357-0.344-0.621-0.714-0.582l-6.637,0.674
			C616.791,505.808,616.526,506.125,616.566,506.495z M601.971,507.976c0.04,0.331,0.317,0.595,0.661,0.595
			c0.013,0,0.04,0,0.066-0.013l6.637-0.674c0.357-0.026,0.621-0.357,0.582-0.714c-0.026-0.37-0.357-0.635-0.714-0.595l-6.637,0.674
			C602.195,507.288,601.931,507.606,601.971,507.976z M587.375,509.456c0.04,0.344,0.317,0.595,0.661,0.595h0.066l6.637-0.674
			c0.357-0.04,0.621-0.37,0.582-0.727c-0.026-0.37-0.344-0.635-0.714-0.595l-6.637,0.674
			C587.6,508.769,587.336,509.086,587.375,509.456z M572.78,510.937c0.04,0.344,0.317,0.595,0.661,0.595h0.066l6.637-0.674
			c0.357-0.04,0.621-0.357,0.582-0.727c-0.026-0.357-0.357-0.635-0.714-0.595l-6.637,0.674
			C573.005,510.25,572.74,510.58,572.78,510.937z M495.348,504.671v5.764c0,0.331,0.013,0.661,0.053,0.978
			c0.04,0.344,0.317,0.595,0.661,0.595c0.013,0,0.04,0,0.066-0.013c0.357-0.026,0.621-0.357,0.582-0.714
			c-0.026-0.278-0.04-0.568-0.04-0.846v-5.764c0-0.357-0.291-0.661-0.661-0.661C495.652,504.01,495.348,504.314,495.348,504.671z
			 M558.185,512.418c0.04,0.344,0.317,0.595,0.661,0.595h0.066l6.637-0.674c0.357-0.04,0.621-0.357,0.582-0.727
			c-0.026-0.357-0.344-0.621-0.714-0.582l-6.637,0.674C558.41,511.73,558.145,512.061,558.185,512.418z M543.59,513.912
			c0.039,0.331,0.317,0.595,0.661,0.595c0.013,0,0.039-0.013,0.066-0.013l6.637-0.674c0.357-0.026,0.621-0.357,0.582-0.727
			c-0.027-0.357-0.343-0.621-0.714-0.582l-6.637,0.674C543.814,513.224,543.549,513.542,543.59,513.912z M528.994,515.392
			c0.039,0.331,0.317,0.595,0.661,0.595c0.013,0,0.039,0,0.066-0.013l6.637-0.674c0.357-0.026,0.622-0.357,0.582-0.714
			c-0.026-0.37-0.343-0.635-0.714-0.595l-6.637,0.674C529.219,514.705,528.954,515.022,528.994,515.392z M514.399,516.873
			c0.039,0.344,0.317,0.595,0.661,0.595h0.066l6.637-0.674c0.357-0.04,0.622-0.37,0.582-0.727c-0.026-0.357-0.344-0.635-0.714-0.595
			l-6.637,0.674C514.623,516.186,514.359,516.503,514.399,516.873z M500.266,518.129c0.872,0.344,1.811,0.516,2.776,0.516
			c0.278,0,0.542-0.013,0.82-0.04l3.305-0.331c0.357-0.04,0.622-0.357,0.582-0.727c-0.026-0.357-0.344-0.621-0.714-0.595
			l-3.305,0.344c-1.058,0.106-2.049-0.04-2.975-0.397c-0.344-0.132-0.727,0.026-0.86,0.37
			C499.764,517.6,499.922,517.984,500.266,518.129z"/>
	</g>
	<ellipse fill="#263238" cx="517.726" cy="436.744" rx="8.238" ry="9.334"/>
	<ellipse opacity="0.2" fill="#FFFFFF" enable-background="new    " cx="517.883" cy="436.744" rx="5.376" ry="6.091"/>
	<g>
		<circle fill="#407BFF" cx="461.992" cy="202.675" r="42.192"/>
		<circle opacity="0.5" fill="#FFFFFF" enable-background="new    " cx="461.992" cy="202.675" r="42.192"/>
		<g>
			<path opacity="0.6" fill="#FFFFFF" enable-background="new    " d="M461.992,169.666c-18.23,0-33.009,14.778-33.009,33.009
				s14.778,33.009,33.009,33.009c18.23,0,33.009-14.779,33.009-33.009S480.222,169.666,461.992,169.666z"/>
		</g>
	</g>
	<g>
		<circle fill="#407BFF" cx="549.929" cy="294.025" r="42.192"/>
		<circle opacity="0.3" fill="#FFFFFF" enable-background="new    " cx="549.929" cy="294.025" r="42.192"/>
		<g>
			<path opacity="0.6" fill="#FFFFFF" enable-background="new    " d="M549.93,261.017c-18.23,0-33.009,14.779-33.009,33.009
				s14.778,33.009,33.009,33.009c18.23,0,33.009-14.779,33.009-33.009C582.938,275.795,568.159,261.017,549.93,261.017z"/>
		</g>
	</g>
</g>
<g>
	<path fill="#16469D" d="M276.579,294.545h3.315v12.385h0.114c0.686-0.99,1.372-1.906,2.02-2.743l7.85-9.642h4.116l-9.298,10.899
		l10.022,14.785h-3.925l-8.46-12.614l-2.439,2.82v9.794h-3.315L276.579,294.545L276.579,294.545z"/>
	<path fill="#16469D" d="M296.657,316.8c0.991,0.647,2.743,1.334,4.421,1.334c2.439,0,3.581-1.22,3.581-2.743
		c0-1.601-0.952-2.478-3.429-3.392c-3.315-1.181-4.878-3.011-4.878-5.221c0-2.972,2.401-5.411,6.364-5.411
		c1.867,0,3.506,0.533,4.535,1.143l-0.839,2.439c-0.724-0.457-2.058-1.066-3.772-1.066c-1.982,0-3.087,1.143-3.087,2.515
		c0,1.523,1.105,2.21,3.506,3.124c3.201,1.22,4.84,2.82,4.84,5.563c0,3.239-2.515,5.526-6.897,5.526
		c-2.019,0-3.887-0.496-5.182-1.257L296.657,316.8z"/>
</g>
<g>
	<path fill="#407BFF" d="M317.441,235.194h3.315v12.385h0.114c0.686-0.99,1.372-1.906,2.02-2.743l7.85-9.642h4.116l-9.298,10.899
		l10.022,14.785h-3.925l-8.46-12.614l-2.439,2.82v9.794h-3.315L317.441,235.194L317.441,235.194z"/>
	<path fill="#407BFF" d="M337.519,257.449c0.991,0.647,2.743,1.334,4.421,1.334c2.439,0,3.581-1.22,3.581-2.743
		c0-1.601-0.952-2.478-3.429-3.392c-3.315-1.181-4.878-3.011-4.878-5.221c0-2.972,2.401-5.411,6.364-5.411
		c1.867,0,3.506,0.533,4.535,1.143l-0.839,2.439c-0.724-0.457-2.058-1.066-3.772-1.066c-1.982,0-3.087,1.143-3.087,2.515
		c0,1.523,1.105,2.21,3.506,3.124c3.201,1.22,4.84,2.82,4.84,5.563c0,3.239-2.515,5.526-6.897,5.526
		c-2.019,0-3.887-0.496-5.182-1.258L337.519,257.449z"/>
</g>
<g>
	<path fill="#4A84D8" d="M448.759,186.453h3.315v12.385h0.114c0.686-0.99,1.372-1.906,2.02-2.743l7.85-9.642h4.116l-9.298,10.899
		l10.022,14.785h-3.925l-8.46-12.614l-2.439,2.82v9.794h-3.315L448.759,186.453L448.759,186.453z"/>
	<path fill="#4A84D8" d="M468.836,208.708c0.991,0.647,2.743,1.334,4.421,1.334c2.439,0,3.581-1.22,3.581-2.743
		c0-1.601-0.952-2.478-3.429-3.392c-3.315-1.181-4.878-3.011-4.878-5.221c0-2.972,2.401-5.411,6.364-5.411
		c1.867,0,3.506,0.533,4.535,1.143l-0.839,2.439c-0.724-0.457-2.058-1.066-3.772-1.066c-1.982,0-3.087,1.143-3.087,2.515
		c0,1.523,1.105,2.21,3.506,3.124c3.201,1.22,4.84,2.82,4.84,5.563c0,3.239-2.515,5.526-6.897,5.526
		c-2.019,0-3.887-0.496-5.182-1.257L468.836,208.708z"/>
</g>
<g>
	<path fill="#5996EF" d="M536.572,279.503h3.315v12.385h0.114c0.686-0.99,1.372-1.906,2.02-2.743l7.85-9.642h4.116l-9.298,10.899
		l10.022,14.785h-3.925l-8.46-12.614l-2.439,2.82v9.794h-3.315V279.503z"/>
	<path fill="#5996EF" d="M556.65,301.758c0.991,0.647,2.744,1.334,4.421,1.334c2.439,0,3.581-1.22,3.581-2.743
		c0-1.601-0.952-2.478-3.429-3.392c-3.315-1.181-4.878-3.011-4.878-5.221c0-2.972,2.401-5.411,6.364-5.411
		c1.867,0,3.506,0.533,4.535,1.143l-0.839,2.439c-0.724-0.457-2.058-1.066-3.772-1.066c-1.982,0-3.087,1.143-3.087,2.515
		c0,1.523,1.105,2.21,3.506,3.124c3.201,1.22,4.84,2.82,4.84,5.563c0,3.239-2.515,5.526-6.897,5.526
		c-2.019,0-3.887-0.496-5.182-1.258L556.65,301.758z"/>
</g>
<g>
	<g>
		<path fill="#407BFF" d="M281.975,149.74l-18.131-0.074c-2.696-0.011-4.872-2.205-4.861-4.901l0.074-18.131
			c0.011-2.696,2.205-4.872,4.901-4.861l18.131,0.074c2.696,0.011,4.872,2.205,4.861,4.901l-0.074,18.131
			C286.865,147.574,284.671,149.751,281.975,149.74z"/>
		<path fill="#407BFF" d="M275.819,147.996c0,0-3.695,8.353-11.9,10.935c0,0,4.543-2.596,4.23-11.315L275.819,147.996z"/>
		<circle opacity="0.6" fill="#FFFFFF" enable-background="new    " cx="272.966" cy="135.756" r="8.856"/>
		<path fill="#407BFF" d="M271.774,140.108c-0.004,0-0.008,0-0.012,0c-0.201-0.004-0.39-0.099-0.513-0.259l-3.813-4.969
			c-0.223-0.289-0.168-0.704,0.122-0.926c0.289-0.222,0.706-0.167,0.926,0.122l3.308,4.309l5.508-6.681
			c0.232-0.281,0.649-0.323,0.93-0.09c0.282,0.232,0.322,0.649,0.09,0.93l-6.037,7.322
			C272.158,140.02,271.971,140.108,271.774,140.108z"/>
	</g>
	<g>
		<path fill="#00984A" d="M571.435,162.288l18.131-0.026c2.696-0.004,4.878-2.193,4.874-4.889l-0.026-18.131
			c-0.004-2.696-2.192-4.878-4.888-4.874l-18.131,0.026c-2.696,0.004-4.878,2.193-4.874,4.889l0.026,18.131
			C566.55,160.109,568.739,162.292,571.435,162.288z"/>
		<path opacity="0.6" fill="#FFFFFF" enable-background="new    " d="M572.793,142.849c1.966-3.202,5.731-1.978,7.679,0.504
			c1.941-2.488,5.703-3.723,7.678-0.527c3.329,5.389-3.508,10.396-6.738,12.358c-0.366,0.225-0.669,0.411-0.921,0.557
			c-0.253-0.145-0.556-0.33-0.923-0.554C576.332,153.235,569.48,148.248,572.793,142.849z"/>
		<path fill="#00984A" d="M577.5,160.119c0,0,3.673,8.363,11.871,10.966c0,0-4.536-2.609-4.2-11.326L577.5,160.119z"/>
	</g>
</g>
<g>
	<path fill="#407BFF" d="M587.81,235.57c0,0-1.361,2.644-3.583,6.266c-2.075,3.437-4.931,7.76-8.078,11.568
		c-4.64,5.579-9.942,10.021-14.49,8.858c-10.907-2.789-4.31-22.316-4.31-22.316l9.426,2.472c0,0,12.414-30.01,19.751-30.605
		L587.81,235.57z"/>
	<path opacity="0.2" enable-background="new    " d="M584.227,241.836c-2.075,3.437-4.931,7.76-8.078,11.568
		c-0.82-9.995,6.782-20.082,6.782-20.082L584.227,241.836z"/>
	<g>
		<path fill="#407BFF" d="M582.853,264.547c0,0,15.234,10.707,60.084,8.092c0,0-12.917-30.68-37.772-31.684
			C580.31,239.951,582.853,264.547,582.853,264.547z"/>
		<path opacity="0.1" enable-background="new    " d="M582.853,264.547c0,0,15.234,10.707,60.084,8.092
			c0,0-12.917-30.68-37.772-31.684C580.31,239.951,582.853,264.547,582.853,264.547z"/>
	</g>
	<polygon fill="#E4897B" points="547.02,514.396 555.826,515.951 559.438,503.944 562.733,492.924 552.579,489.378 549.631,502.622 
			"/>
	<path fill="#263238" d="M557.813,515.719c0.149-0.975-11.914-2.32-11.914-2.32s-8.656,6.168-16.08,6.587
		c-7.425,0.419-4.196,5.399,3.771,6.806s14.047,2.48,19.708,3.48C558.958,531.272,556.271,525.825,557.813,515.719z"/>
	<g>
		<path fill="#407BFF" d="M538.083,514.873c-0.198-0.23-0.369-0.647-0.065-1.323c0.148-0.327,0.41-0.56,0.78-0.695
			c0.698-0.249,1.735-0.094,2.726,0.181c-0.878-0.689-1.618-1.468-1.543-2.102c0.049-0.412,0.373-0.704,0.961-0.865
			c0.554-0.148,1.075-0.075,1.55,0.231c1.496,0.957,2.008,3.909,2.031,4.046c0.008,0.047,0.005,0.096-0.008,0.143h-0.001
			c0,0.001,0,0.001,0,0.001c-0.008,0.027-0.019,0.053-0.034,0.076c0,0-0.001,0-0.001,0.001l0,0c-0.022,0.035-0.05,0.065-0.081,0.088
			l0,0l0,0c-0.031,0.023-0.066,0.04-0.105,0.05c-0.57,0.159-2.674,0.707-4.322,0.707
			C539.141,515.414,538.426,515.273,538.083,514.873z M539.016,513.457c-0.205,0.074-0.34,0.19-0.415,0.356
			c-0.202,0.447-0.074,0.595-0.033,0.644c0.481,0.563,2.781,0.292,4.671-0.143C541.955,513.779,539.96,513.114,539.016,513.457z
			 M541.112,510.686c-0.177,0.048-0.476,0.154-0.496,0.323c-0.064,0.542,1.479,1.771,3.128,2.755
			c-0.254-0.973-0.778-2.404-1.594-2.926c-0.214-0.137-0.435-0.205-0.67-0.205C541.361,510.633,541.238,510.651,541.112,510.686z"/>
	</g>
	<polygon opacity="0.2" enable-background="new    " points="549.583,502.895 559.395,504.186 562.711,493.045 552.569,489.438 	"/>
	<polygon fill="#E4897B" points="606.477,517.729 615.419,517.729 616.888,505.277 618.216,493.852 607.601,492.125 
		607.001,505.681 	"/>
	<path fill="#263238" d="M617.335,517.156c-0.023-0.986-12.135-0.213-12.135-0.213s-7.452,7.579-14.69,9.282
		c-7.239,1.703-3.193,6.046,4.897,6.046c8.09,0,14.264,0,20.013,0C621.167,532.272,617.575,527.375,617.335,517.156z"/>
	<g>
		<path fill="#407BFF" d="M597.758,519.752c-0.234-0.192-0.476-0.573-0.293-1.291c0.088-0.347,0.306-0.624,0.647-0.82
			c0.643-0.369,1.691-0.398,2.716-0.297c-0.984-0.526-1.848-1.165-1.884-1.801c-0.024-0.414,0.244-0.757,0.796-1.019
			c0.518-0.244,1.046-0.26,1.567-0.043c1.643,0.683,2.66,3.51,2.703,3.63c0.03,0.083,0.023,0.17-0.012,0.245
			c-0.012,0.023-0.026,0.046-0.043,0.067h-0.001l0,0c-0.028,0.035-0.065,0.063-0.107,0.083c-0.637,0.303-3.328,1.535-5.02,1.535
			C598.385,520.043,598.01,519.959,597.758,519.752z M598.43,518.195c-0.188,0.109-0.301,0.247-0.347,0.424
			c-0.121,0.475,0.03,0.599,0.08,0.64c0.571,0.47,2.791-0.199,4.575-0.954C601.38,518.003,599.303,517.694,598.43,518.195z
			 M600.014,515.103c-0.166,0.078-0.441,0.235-0.432,0.404c0.031,0.545,1.764,1.487,3.559,2.169
			c-0.419-0.915-1.184-2.232-2.079-2.604c-0.165-0.068-0.328-0.103-0.491-0.103C600.386,514.969,600.201,515.014,600.014,515.103z"
			/>
	</g>
	<polygon opacity="0.2" enable-background="new    " points="607.001,505.957 616.888,505.523 618.216,493.975 607.601,492.187 	"/>
	<g>
		<path fill="#407BFF" d="M550.762,488.451l14.476,2.552c14.609-36.396,25-66.776,32.337-91.987c3.953-13.604,7.033-25.7,9.4-36.435
			l-0.661,39.621v90.004h14.701c35.761-170.543,10.418-209.517,10.418-209.517l-42.781-7.311
			c-1.626,6.385-2.856,16.737-3.583,23.942l-1.93,14.146l-16.724,86.355L550.762,488.451z"/>
		<path opacity="0.6" fill="#FFFFFF" enable-background="new    " d="M550.762,488.451l14.476,2.552
			c14.609-36.396,25-66.776,32.337-91.987c3.953-13.604,7.033-25.7,9.4-36.435l-0.661,39.621v90.004h14.701
			c35.761-170.543,10.418-209.517,10.418-209.517l-42.781-7.311c-1.626,6.385-2.856,16.737-3.583,23.942l-1.93,14.146
			l-16.724,86.355L550.762,488.451z"/>
	</g>
	<polygon fill="#407BFF" points="567.508,489.214 549.551,483.261 549.794,490.899 564.645,495.635 	"/>
	<polygon fill="#407BFF" points="622.934,490.044 604.215,487.304 605.783,494.783 621.23,496.866 	"/>
	<polygon fill="#263238" points="631.433,276.296 631.433,282.683 587.805,279.338 587.805,271.784 	"/>
	
		<rect x="597.558" y="273.756" transform="matrix(0.996 0.0892 -0.0892 0.996 27.1445 -52.6243)" fill="#FFFFFF" width="9.578" height="7.263"/>
	<g>
		
			<rect x="616.5" y="273.665" transform="matrix(0.9987 0.051 -0.051 0.9987 15.042 -31.1334)" fill="#407BFF" width="2.167" height="11.037"/>
		
			<rect x="616.5" y="273.665" transform="matrix(0.9987 0.051 -0.051 0.9987 15.042 -31.1334)" opacity="0.6" fill="#FFFFFF" enable-background="new    " width="2.167" height="11.037"/>
	</g>
	<g>
		
			<rect x="589.865" y="270.705" transform="matrix(0.9987 0.051 -0.051 0.9987 14.8564 -29.7788)" fill="#407BFF" width="2.166" height="11.037"/>
		
			<rect x="589.865" y="270.705" transform="matrix(0.9987 0.051 -0.051 0.9987 14.8564 -29.7788)" opacity="0.6" fill="#FFFFFF" enable-background="new    " width="2.166" height="11.037"/>
	</g>
	<path opacity="0.2" enable-background="new    " d="M597.576,399.015c3.953-13.604,7.033-25.7,9.4-36.435
		c0,0-0.238-20.862-2.763-37.995C604.212,324.584,597.945,373.592,597.576,399.015z"/>
	<path fill="#E4897B" d="M676.898,225.013l2.12-10.006c0,0-1.984-3.305-1.551-5.007c0.433-1.702,5.962-10.676,7.407-10.803
		c1.444-0.127,7.742,5.099,7.324,7.299s-6.311,9.269-7.131,9.72l-1.614,10.793L676.898,225.013z"/>
	<path fill="#407BFF" d="M587.583,273.109l43.636,3.554c1.035-15.271,2.07-25.119,11.676-52.33c0.83-2.381,1.737-4.906,2.721-7.575
		c-5.927-1.78-11.969-3.15-18.101-4.112c-6.477-1.082-13.03-1.732-19.596-1.948c-8.495-0.06-18.241,0.842-18.241,0.842
		s-1.392,0.313-2.261,8.778C586.612,228.277,585.832,244.179,587.583,273.109z"/>
	<path opacity="0.3" enable-background="new    " d="M587.583,273.109l43.636,3.554c1.035-15.271,2.07-25.119,11.676-52.33
		c0.83-2.381,1.737-4.906,2.721-7.575c-5.927-1.78-11.969-3.15-18.101-4.112c-6.477-1.082-13.03-1.732-19.596-1.948
		c-8.495-0.06-18.241,0.842-18.241,0.842s-1.392,0.313-2.261,8.778C586.612,228.277,585.832,244.179,587.583,273.109z"/>
	<path fill="#E4897B" d="M611.517,220.34c10.754-1.376,13.986-5.97,13.986-5.97c-6.824-6.438-1.155-17.594-1.155-17.594
		l-12.945,2.417c0.34,2.139,0.485,3.934,0.506,5.45c0.098,7.857-3.455,7.934-3.455,7.934
		C606.183,216.832,611.517,220.34,611.517,220.34z"/>
	<path opacity="0.2" enable-background="new    " d="M611.404,199.193c0.34,2.139,0.485,3.934,0.506,5.45
		c6.241-1.447,12.439-7.867,12.439-7.867L611.404,199.193z"/>
	<path fill="#E4897B" d="M587.417,220.317c16.389,7.636,41.503,5.856,55.478,4.016c0.83-2.381,1.737-4.906,2.721-7.575
		c-5.927-1.78-11.969-3.15-18.101-4.112c-6.477-1.082-13.03-1.732-19.596-1.948c-8.495-0.06-18.241,0.842-18.241,0.842
		S588.285,211.852,587.417,220.317z"/>
	<path fill="#407BFF" d="M647.94,218.077c6.068,2.636,21.173,29.486,21.173,29.486l7.036-24.721l9.794-1.277
		c0,0-0.649,40.05-13.423,43.03c-12.774,2.981-29.583-22.166-29.583-22.166L647.94,218.077z"/>
	<g>
		<path fill="#263238" d="M626.891,156.142c17.678,3.133,23.749,50.468-1.032,43.64c-7.295-2.01-35.837-28.536-23.174-36.369
			C615.347,155.58,626.891,156.142,626.891,156.142z"/>
		<path fill="#E4897B" d="M613.016,163.658c-10.997,0.531-14.252,6.589-14.511,17.96c-0.323,14.21,3.303,24.12,16.906,20.432
			C633.887,197.041,631.278,162.776,613.016,163.658z"/>
		<path fill="#DE5753" d="M605.584,180.661c0,0-1.385,2.946-2.98,4.715c0,0,1.014,1.45,2.959,1.104L605.584,180.661z"/>
		<g>
			
				<ellipse transform="matrix(0.0248 0.9997 -0.9997 0.0248 777.4922 -438.2265)" fill="#263238" cx="613.362" cy="179.396" rx="1.638" ry="1.092"/>
			<path fill="#263238" d="M613.575,177.809l-1.986-0.723C611.589,177.087,612.61,178.717,613.575,177.809z"/>
		</g>
		<g>
			
				<ellipse transform="matrix(0.0248 0.9997 -0.9997 0.0248 766.6419 -426.8488)" fill="#263238" cx="602.106" cy="179.524" rx="1.638" ry="1.092"/>
			<path fill="#263238" d="M602.328,177.901l-1.986-0.722C600.342,177.178,601.363,178.809,602.328,177.901z"/>
		</g>
		<path fill="#263238" d="M616.865,173.738c-0.128,0-0.256-0.052-0.349-0.156c-1.579-1.762-4.392-1.29-4.419-1.284
			c-0.256,0.039-0.498-0.125-0.542-0.379c-0.045-0.254,0.123-0.497,0.378-0.543c0.136-0.025,3.35-0.572,5.28,1.581
			c0.172,0.192,0.156,0.489-0.036,0.661C617.088,173.699,616.977,173.738,616.865,173.738z"/>
		<path fill="#263238" d="M599.662,173.342c-0.144,0-0.285-0.066-0.378-0.19c-0.153-0.208-0.108-0.501,0.099-0.655
			c2.525-1.859,4.668-1.213,4.758-1.184c0.246,0.078,0.383,0.341,0.305,0.587s-0.338,0.385-0.585,0.305
			c-0.084-0.024-1.809-0.514-3.923,1.046C599.855,173.313,599.758,173.342,599.662,173.342z"/>
		<path fill="#263238" d="M625.929,181.612c0,0-5.578-8.787-5.136-15.799c0,0-22.221-7.851-22.229,14.32
			c0,0-3.077-19.538,15.805-20.888c18.852-1.348,20.137,26.309,10.772,35.021C625.142,194.266,629.382,187.109,625.929,181.612z"/>
		<path fill="#E4897B" d="M624.245,184.02c-0.012-1.774,1.671-4.859,4.981-4.659c3.426,0.207,5.387,7.125-3.008,9.216
			C625.013,188.877,624.27,187.722,624.245,184.02z"/>
		<path fill="#263238" d="M626.891,156.142c0,0-15.703-3.601-26.577,5.08s18.531,9.913,18.531,9.913l-7.083-4.091
			c0,0,9.023,3.522,13.169,2.571L626.891,156.142z"/>
		<path fill="#263238" d="M636.02,185.533c0,0,4.01,8.903-1.502,15.732c0,0,2.999,8.298-5.336,13.15c0,0,1.006,4.562-6.331,9.246
			c0,0-2.808,6.768-1.591,11.904l-4.713-2.917c0,0,0.631-6.244,3.955-9.604c0,0-0.645-10.055,3.641-12.924
			c0,0-1.191-6.413-0.261-9.083c0,0,3.104-11.579,3.546-12.823C627.428,188.214,634.208,188.004,636.02,185.533z"/>
		<path fill="#263238" d="M609.25,172.541c-0.017,0-0.033-0.001-0.05-0.004c-0.489-0.075-11.964-1.887-12.42-5.806
			c-0.455-3.913,4.783-6.215,5.006-6.31c0.164-0.072,0.354,0.004,0.424,0.168c0.071,0.164-0.005,0.354-0.169,0.424
			c-0.05,0.022-5.02,2.208-4.62,5.643c0.332,2.849,8.686,4.75,11.876,5.243c0.176,0.027,0.297,0.192,0.27,0.368
			C609.544,172.427,609.407,172.541,609.25,172.541z"/>
		<g>
			<path fill="#263238" d="M605.165,188.729c0.8,1.277,1.746,3.741,1.746,3.741c0.239-0.045,0.477-0.091,0.713-0.149
				c3.222-0.698,4.486-2.087,4.91-3.414c0.229-0.727,0.198-1.443,0.099-2.01c-0.109-0.657-0.336-1.101-0.336-1.101
				c-1.487,1.391-4.441,2.273-6.038,2.678C605.593,188.651,605.165,188.729,605.165,188.729z"/>
			<path fill="#FFFFFF" d="M606.26,188.474l0.543,1.09c3.033-0.665,5.08-1.54,5.831-2.666c-0.109-0.657-0.336-1.101-0.336-1.101
				C610.811,187.187,607.857,188.069,606.26,188.474z"/>
			<path fill="#DE5753" d="M607.624,192.322c3.222-0.698,4.486-2.087,4.91-3.414c-1.089,0.28-2.371,0.739-3.424,1.484
				C608.303,190.958,607.869,191.657,607.624,192.322z"/>
		</g>
	</g>
	<path fill="#407BFF" d="M647.94,218.077l-14.79-5.88c0,0-13.949,22.262-5.58,41.614c8.368,19.351,15.367,18.828,15.367,18.828
		L647.94,218.077z"/>
	<path fill="#407BFF" d="M586.528,211.816c0.444-1.482,15.148-1.936,15.148-1.936s-3.918,43.684-18.824,54.667
		C582.853,264.547,579.584,234.982,586.528,211.816z"/>
	<g>
		<path fill="#263238" d="M577.623,225.794c0.076,0.671-0.412,1.214-1.091,1.214h-12.083c-0.679,0-1.292-0.544-1.368-1.214
			l-2.698-23.847c-0.076-0.671,0.412-1.379,1.091-1.379h12.083c0.679,0,1.292,0.709,1.368,1.379L577.623,225.794z"/>
		<path opacity="0.5" fill="#FFFFFF" enable-background="new    " d="M573.586,201.79l2.734,24.078
			c0.077,0.679-0.276,1.14-0.951,1.14h-10.246c-0.688,0-1.947-0.379-2.024-1.057l-2.734-24.161
			c-0.077-0.679,1.096-1.223,1.783-1.223h10.246C573.068,200.568,573.508,201.111,573.586,201.79z"/>
	</g>
	<path fill="#E4897B" d="M558.431,240.233l4.024-11.919c0,0-1.062-4.838-0.792-7.583c0.269-2.746,7.592-4.707,7.984-4.053
		s2.844,8.629,1.945,10.721s-2.73,3.661-2.73,3.661l-2.706,11.198L558.431,240.233z"/>
	<path opacity="0.2" enable-background="new    " d="M645.445,245.287c0,0-2.328-3.822-3.092-9.722c0,0-3.566,13.18,2.019,21.422
		L645.445,245.287z"/>
</g>
<g>
	<g>
		<path fill="#407BFF" d="M256.958,213.898c4.272,0.194,22.18,24.241,22.18,24.241l6.65-8.645c0,0,10.252,19.919,5.182,29.4
			c-5.071,9.481-31.799-16.436-31.799-16.436L256.958,213.898z"/>
		<path opacity="0.6" fill="#FFFFFF" enable-background="new    " d="M256.955,213.9l1.764,19.179l0.451,9.375
			c0,0,4.395,4.259,9.95,8.688c8.159,6.513,18.83,13.387,21.849,7.753c5.071-9.477-5.184-29.399-5.184-29.399l-6.648,8.643
			l-0.045-0.068C278.078,236.617,261.091,214.081,256.955,213.9z"/>
	</g>
	<path opacity="0.2" enable-background="new    " d="M258.719,233.079l0.451,9.375c0,0,4.395,4.259,9.95,8.688
		c0.53-11.257-9.95-27.652-9.95-27.652L258.719,233.079z"/>
	<path opacity="0.2" enable-background="new    " d="M279.138,238.139l-0.956,1.831l2.787,10.846c0,0-7.688-6.996-2.787-13.851
		L279.138,238.139z"/>
	<g>
		<path fill="#407BFF" d="M257.862,277.376l-42.305,2.93c0,0-0.576-22.659-3.947-34.452c-1.097-3.816-2.472-8.107-4.217-13.085
			c-0.74-2.11-1.547-4.338-2.432-6.72c-0.806-2.216-1.692-4.575-2.657-7.052c5.791-1.659,11.687-2.928,17.689-3.828
			c6.319-1.007,12.718-1.612,19.143-1.813c8.289-0.059,17.821,0.782,17.821,0.782s1.348,0.296,2.208,8.166
			C259.943,229.712,259.58,250.46,257.862,277.376z"/>
		<path opacity="0.6" fill="#FFFFFF" enable-background="new    " d="M257.861,277.375l-42.305,2.927c0,0-0.013-0.462-0.04-1.304
			c-0.185-4.966-1.018-23.041-3.9-33.139c-0.78-2.726-1.706-5.701-2.816-8.984c-0.436-1.316-0.899-2.679-1.401-4.101
			c-0.74-2.11-1.547-4.338-2.432-6.72c-0.807-2.216-1.692-4.575-2.657-7.052c5.79-1.659,11.687-2.928,17.689-3.828
			c6.319-1.008,12.718-1.612,19.144-1.813c8.289-0.059,17.821,0.782,17.821,0.782s1.349,0.296,2.208,8.166
			C259.949,229.717,259.579,250.458,257.861,277.375z"/>
		<path opacity="0.2" enable-background="new    " d="M242.221,247.471c0,0-11.661,23.811-26.705,31.527
			c-0.185-4.966-1.018-23.041-3.9-33.139c-0.78-2.726-1.706-5.701-2.816-8.984l4.587-4.942c0,0,3.183,5.506,4.159,12.725
			l14.951-9.384L242.221,247.471z"/>
	</g>
	<path fill="#EEC1BB" d="M205.297,502.966l6.385,3.755c0,0,3.094-4.402,9.704-11.502v-0.013c1.851-1.957,3.794-4.125,5.817-6.452
		c4.046-4.64,8.422-9.942,13.009-15.64c1.348-1.679,2.723-3.398,4.112-5.143c15.983-20.108,33.262-43.746,39.727-59.73
		c2.01-4.971,2.988-9.188,2.552-12.348c-1.309-9.545-5.024-23.916-9.267-37.797c-6.452-21.219-13.71-41.327-13.71-41.327
		l-17.834,30.209c0,0,5.473,13.048,10.457,26.943c4.905,13.643,9.333,28.12,7.694,31.888c-0.158,0.37-0.357,0.806-0.582,1.269
		c-2.961,6.134-11.158,20.029-20.465,35.378c-0.939,1.547-1.891,3.107-2.842,4.667c-4.998,8.197-10.193,16.618-15.005,24.352
		c-1.877,3.041-3.702,5.976-5.434,8.752C211.417,493.408,205.297,502.966,205.297,502.966z"/>
	<path opacity="0.2" enable-background="new    " d="M244.686,467.972c-8.435,10.603-16.539,20.227-22.567,27.234
		c-0.86-4.31-1.732-9.413-2.419-14.979c6.967-11.184,15.494-24.987,23.242-37.771C242.875,449.226,243.126,459.233,244.686,467.972z
		"/>
	<path fill="#EEC1BB" d="M212.858,380.559c2.208,15.058,5.354,28.701,7.403,36.832c1.23,4.878,2.063,7.76,2.063,7.76
		c-0.119,15.19,1.097,31.465,2.723,46.324c0.674,6.055,1.402,11.872,2.155,17.279c2.776,20.016,5.698,34.386,5.698,34.386
		l7.602-0.992l-0.291-49.034l-0.159-25.991l-0.212-35.365l-0.079-6.161l-0.37-26.89l-0.542-39.661l-26.441-11.898
		C208.866,342.22,210.188,362.421,212.858,380.559z"/>
	<path fill="#263238" d="M205.883,498.797c0.779-0.566,7.361,9.295,7.361,9.295s-1.466,10.28,1.504,16.91s-2.801,6.065-7.598-0.216
		c-4.797-6.281-8.459-11.075-11.867-15.537C191.875,504.785,197.807,504.671,205.883,498.797z"/>
	<g>
		<path fill="#407BFF" d="M215.476,515.535c-1.495-0.351-2.466-4.612-2.645-5.464c-0.009-0.042-0.009-0.083-0.001-0.124l0,0
			l0.001-0.001c0.006-0.033,0.018-0.064,0.035-0.095h0.001l0,0c0.017-0.03,0.038-0.057,0.064-0.079h0.001
			c0.001,0.003,0.001-0.001,0.001-0.001h0.001l0.001-0.001l0,0c0.032-0.028,0.069-0.048,0.108-0.06
			c0.137-0.043,2.919-0.922,4.421-0.053c0.478,0.276,0.779,0.694,0.896,1.241c0.124,0.584,0.018,0.995-0.319,1.222
			c-0.517,0.348-1.524,0.057-2.515-0.395c0.684,0.735,1.285,1.566,1.379,2.284c0.051,0.381-0.035,0.714-0.252,0.988
			c-0.35,0.443-0.693,0.564-0.964,0.564C215.611,515.56,215.54,515.55,215.476,515.535z M215.618,514.928
			c0.061,0.014,0.246,0.059,0.544-0.319c0.11-0.139,0.151-0.309,0.123-0.52c-0.128-0.975-1.601-2.404-2.64-3.278
			C214.118,512.644,214.916,514.763,215.618,514.928z M213.899,510.127c1.592,0.989,3.349,1.776,3.792,1.474
			c0.137-0.092,0.095-0.4,0.057-0.574c-0.079-0.373-0.275-0.646-0.598-0.832c-0.386-0.223-0.899-0.301-1.426-0.301
			C215.064,509.894,214.382,510.016,213.899,510.127z"/>
	</g>
	<path fill="#263238" d="M230.21,518.289c0.023-0.963,11.855-0.208,11.855-0.208s7.28,7.404,14.351,9.068
		c7.072,1.664,3.12,5.907-4.784,5.907c-7.904,0-13.935,0-19.551,0C226.466,533.056,229.976,528.272,230.21,518.289z"/>
	<g>
		<path fill="#407BFF" d="M243.387,519.61c-0.039-0.018-0.071-0.043-0.098-0.073l-0.001-0.001l0,0
			c-0.022-0.025-0.041-0.054-0.054-0.086l0,0l-0.001-0.001c-0.013-0.03-0.021-0.063-0.023-0.097l0,0l-0.001-0.001c0,0,0,0,0-0.001
			l0,0c-0.003-0.044,0.004-0.087,0.018-0.126c0.051-0.141,1.043-2.881,2.641-3.546c0.51-0.212,1.025-0.195,1.531,0.042
			c0.539,0.256,0.801,0.59,0.778,0.995c-0.036,0.622-0.879,1.246-1.841,1.76c0.999-0.096,2.025-0.069,2.653,0.29
			c0.333,0.192,0.546,0.462,0.632,0.801c0.178,0.701-0.057,1.073-0.286,1.261c-0.246,0.202-0.612,0.284-1.044,0.284
			C246.638,521.109,244.009,519.906,243.387,519.61z M244.47,519.412c1.744,0.739,3.911,1.391,4.469,0.932
			c0.049-0.04,0.196-0.162,0.078-0.626c-0.044-0.173-0.155-0.308-0.339-0.414c-0.327-0.188-0.827-0.259-1.395-0.259
			C246.372,519.046,245.287,519.23,244.47,519.412z M246.109,516.253c-0.928,0.385-1.659,1.731-2.029,2.543
			c1.752-0.666,3.443-1.586,3.474-2.118c0.009-0.165-0.26-0.319-0.423-0.395c-0.183-0.087-0.364-0.131-0.544-0.131
			C246.428,516.152,246.269,516.187,246.109,516.253z"/>
	</g>
	<circle opacity="0.6" fill="#FFFFFF" enable-background="new    " cx="243.853" cy="282.447" r="2.141"/>
	<path fill="#EEC1BB" d="M285.053,231.472l-5.368-9.109c0,0,0.016-4.789-0.454-5.916c-0.469-1.127-5.728-3.67-6.761-3.29
		c-1.033,0.379-1.408,9.774-0.469,11.04c0.939,1.265,4.226,2.674,4.226,2.674l-0.224,1.784l3.135,9.484L285.053,231.472z"/>
	<polygon fill="#407BFF" points="287.213,230.439 285.429,228.654 276.978,238.139 278.181,241.895 	"/>
	<path fill="#263238" d="M280.691,343.019l-32.482,11.541l-1.084-2.975l-1.335-3.662l-0.555,5.288l-0.423,4.059h-39.436
		c0,0-0.119-1.137-0.238-3.173c-0.383-6.346-0.872-21.47,1.586-38.841c1.481-10.497,4.045-21.827,8.355-32.522
		c0.331-0.82,0.674-1.626,1.018-2.433l42.305-3.265l0.357,2.036l2.657,15.19l5.05,12.771l12.467,31.531L280.691,343.019z"/>
	<path fill="#EEC1BB" d="M227.767,241.14l12.426-9.749c0,0,1.881-5.231,2.638-6.139c0.756-0.908,11.651-4.929,12.559-5.037
		s0.055,8.926-1.362,10.462s-10.138,4.565-10.138,4.565l-13.011,12.253L227.767,241.14z"/>
	<g>
		<path fill="#407BFF" d="M202.917,218.873c-7.296,3.656-10.542,44.868,2.129,51.985c12.671,7.116,31.607-25.039,31.607-25.039
			l-7.356-7.806c0,0-15.426,12.915-17.289,11.729c-1.862-1.186,0.256-13.808,0.256-13.808s2.169-3.819-2.396-9.823
			C205.305,220.108,202.917,218.873,202.917,218.873z"/>
		<path opacity="0.6" fill="#FFFFFF" enable-background="new    " d="M202.917,218.873c-7.296,3.656-10.542,44.868,2.129,51.985
			c12.671,7.116,31.607-25.039,31.607-25.039l-7.356-7.806c0,0-15.426,12.915-17.289,11.729c-1.862-1.186,0.256-13.808,0.256-13.808
			s2.169-3.819-2.396-9.823C205.305,220.108,202.917,218.873,202.917,218.873z"/>
	</g>
	<polygon fill="#407BFF" points="236.796,248.68 238.998,247.356 230.735,235.243 227.701,236.934 	"/>
	<path opacity="0.2" enable-background="new    " d="M225.377,284.149c0,0-4.799,26.494-18.654,31.108
		c1.481-10.497,4.045-21.827,8.355-32.522L225.377,284.149z"/>
	<path opacity="0.2" enable-background="new    " d="M266.466,307.033c-11.092-5.407-10.907-26.732-10.907-26.732l3.2-1.229
		l2.657,15.19L266.466,307.033z"/>
	<path opacity="0.2" enable-background="new    " d="M245.234,353.212l-0.423,4.059h-39.436c0,0-0.119-1.137-0.238-3.173
		L245.234,353.212z"/>
	<polygon opacity="0.2" enable-background="new    " points="280.691,343.019 248.208,354.56 247.124,351.586 278.933,338.564 	"/>
	<path opacity="0.2" enable-background="new    " d="M245.79,347.929l0.844-10.809l8.927-17.521c0,0,2.812,10.108-1.633,19.11
		C249.483,347.711,245.79,347.929,245.79,347.929z"/>
	<polygon opacity="0.5" enable-background="new    " points="216.097,280.306 214.315,284.708 259.349,282.447 258.403,277.038 	"/>
	<path fill="#407BFF" d="M239.872,278.668l0.526,4.946c0.058,0.542,0.537,0.94,1.08,0.897l6.593-0.524
		c0.56-0.045,0.975-0.539,0.922-1.098l-0.464-4.875c-0.052-0.543-0.526-0.946-1.07-0.908l-6.656,0.453
		C240.235,277.597,239.812,278.101,239.872,278.668z"/>
	<polygon fill="#263238" points="228.825,279.263 228.302,285.082 226.667,285.082 226.929,279.263 	"/>
	<polygon fill="#263238" points="252.555,277.49 253.21,283.578 254.713,283.578 254.19,277.237 	"/>
	<path fill="#263238" d="M233.861,177.234c-0.075,0-0.15-0.025-0.212-0.077c-0.14-0.118-0.158-0.326-0.041-0.465
		c7.06-8.406,3.423-13.727,3.265-13.949c-0.106-0.148-0.072-0.355,0.076-0.461c0.15-0.107,0.354-0.072,0.461,0.075
		c0.171,0.238,4.113,5.937-3.296,14.759C234.049,177.194,233.956,177.234,233.861,177.234z"/>
	<g>
		<path fill="#407BFF" d="M274.295,228.468l4.313-19.5c0.15-0.676-0.305-1.337-0.989-1.439l-7.683-1.149
			c-0.619-0.093-1.204,0.308-1.342,0.919l-4.471,19.873c-0.157,0.7,0.334,1.38,1.047,1.451l7.841,0.776
			C273.613,229.458,274.165,229.058,274.295,228.468z"/>
		<path opacity="0.3" enable-background="new    " d="M274.295,228.468l4.313-19.5c0.15-0.676-0.305-1.337-0.989-1.439l-7.683-1.149
			c-0.619-0.093-1.204,0.308-1.342,0.919l-4.471,19.873c-0.157,0.7,0.334,1.38,1.047,1.451l7.841,0.776
			C273.613,229.458,274.165,229.058,274.295,228.468z"/>
		<path fill="#407BFF" d="M275.099,228.486l4.313-19.5c0.149-0.676-0.305-1.337-0.989-1.439l-7.683-1.149
			c-0.619-0.093-1.204,0.308-1.342,0.919l-4.471,19.873c-0.157,0.7,0.333,1.38,1.047,1.451l7.841,0.776
			C274.417,229.476,274.968,229.076,275.099,228.486z"/>
		<circle opacity="0.3" enable-background="new    " cx="270.901" cy="208.768" r="0.523"/>
		<circle opacity="0.3" enable-background="new    " cx="270.64" cy="210.143" r="0.523"/>
	</g>
	<path fill="#407BFF" d="M237.81,226.876c0,0-13.886-8.51-26.212-10.182c0,0-5.379-3.932,10.15-6.55s26.121-0.501,27.275,3.757
		C250.179,218.159,244.096,226.179,237.81,226.876z"/>
	<path fill="#263238" d="M230.195,159.068c0,0,10.776-6.947,22.578-0.648c11.801,6.299,1.822,28.614,1.822,28.614
		s5.709,8.612-0.201,18.239s-36.331,6.186-44.769-4.707c-8.437-10.893,7.665-31.108,13.973-32.622
		C229.907,166.43,230.195,159.068,230.195,159.068z"/>
	<path fill="#EEC1BB" d="M237.712,222.32c-10.671-1.921-13.665-6.674-13.665-6.674c7.142-6.083,2.047-17.512,2.047-17.512
		l12.805,3.072c-0.449,2.119-0.685,3.904-0.782,5.417c-0.497,7.842,3.047,8.099,3.047,8.099
		C243.217,219.088,237.712,222.32,237.712,222.32z"/>
	<path opacity="0.2" enable-background="new    " d="M238.9,201.206c-0.449,2.119-0.685,3.904-0.782,5.417
		c-6.159-1.762-12.023-8.489-12.023-8.489L238.9,201.206z"/>
	<g>
		<path fill="#EEC1BB" d="M237.952,164.557c11.224,1.01,14.296,7.344,14.078,18.984c-0.273,14.547-4.401,24.529-18.158,20.179
			C215.19,197.813,219.312,162.88,237.952,164.557z"/>
		<path fill="#D4827D" d="M244.831,182.261c0,0,1.291,3.072,2.847,4.949c0,0-1.098,1.44-3.073,1.003L244.831,182.261z"/>
		<g>
			
				<ellipse transform="matrix(0.0663 -0.9978 0.9978 0.0663 40.9643 405.0808)" fill="#263238" cx="236.927" cy="180.652" rx="1.677" ry="1.118"/>
			<path fill="#263238" d="M236.78,179.006l2.062-0.655C238.841,178.351,237.729,179.976,236.78,179.006z"/>
		</g>
		<g>
			
				<ellipse transform="matrix(0.0662 -0.9978 0.9978 0.0662 51.1451 417.105)" fill="#263238" cx="248.42" cy="181.227" rx="1.677" ry="1.118"/>
			<path fill="#263238" d="M248.278,179.577l2.062-0.655C250.34,178.922,249.227,180.546,248.278,179.577z"/>
		</g>
		<path fill="#263238" d="M233.608,174.702c-0.121,0-0.241-0.045-0.334-0.136c-0.189-0.185-0.193-0.487-0.008-0.677
			c2.064-2.12,5.329-1.425,5.467-1.392c0.258,0.058,0.42,0.313,0.363,0.571c-0.057,0.258-0.316,0.416-0.571,0.365
			c-0.028-0.006-2.885-0.609-4.574,1.125C233.857,174.654,233.732,174.702,233.608,174.702z"/>
		<path fill="#263238" d="M251.22,175.028c-0.106,0-0.212-0.034-0.3-0.105c-2.104-1.69-3.893-1.254-3.967-1.235
			c-0.254,0.066-0.516-0.086-0.584-0.341c-0.067-0.254,0.082-0.515,0.336-0.584c0.092-0.027,2.312-0.596,4.816,1.413
			c0.206,0.166,0.239,0.467,0.074,0.674C251.498,174.966,251.36,175.028,251.22,175.028z"/>
		<path fill="#263238" d="M223.984,182.371c0,0,6.077-8.75,5.923-15.941c0,0,23.06-7.086,22.127,15.589
			c0,0,3.976-19.851-15.278-22.033c-19.224-2.179-21.711,26.053-12.503,35.36C224.252,195.346,220.219,187.846,223.984,182.371z"/>
		<path fill="#EEC1BB" d="M225.604,184.905c0.088-1.814-1.502-5.04-4.896-4.976c-3.512,0.066-5.812,7.058,2.685,9.553
			C224.612,189.84,225.421,188.69,225.604,184.905z"/>
		<path fill="#263238" d="M243.595,193.412c-1.085,0-5.021-0.284-6.232-4.306c-0.075-0.247,0.066-0.509,0.313-0.583
			c0.25-0.075,0.509,0.066,0.583,0.313c1.183,3.928,5.362,3.65,5.54,3.636c0.265-0.022,0.482,0.173,0.503,0.43
			c0.021,0.257-0.171,0.482-0.428,0.504C243.866,193.405,243.766,193.412,243.595,193.412z"/>
	</g>
	<path fill="#263238" d="M237.952,164.557c0,0-0.525,14.383-14.233,16.4c-16.562,2.437-20.392,18.381-7.231,24.966
		c0,0-13.486-6.055-13.15-16.084c0.341-10.187,12.714-21.48,12.714-21.48s-1.665-9.125,11.809-11.358
		C235.46,155.742,237.952,164.557,237.952,164.557z"/>
	<path fill="#263238" d="M251.635,209.564c-0.107,0-0.212-0.052-0.275-0.147c-0.101-0.152-0.06-0.358,0.092-0.458
		c3.649-2.429,5.783-5.475,6.342-9.051c1.098-7.023-4.262-13.839-4.316-13.907c-0.114-0.143-0.09-0.35,0.052-0.464
		c0.142-0.112,0.351-0.09,0.464,0.052c0.229,0.287,5.594,7.105,4.453,14.418c-0.588,3.769-2.818,6.966-6.629,9.503
		C251.762,209.545,251.698,209.564,251.635,209.564z"/>
</g>
</svg>
