<?xml version="1.0" encoding="utf-8"?>
<!-- Generator: Adobe Illustrator 17.0.0, SVG Export Plug-In . SVG Version: 6.00 Build 0)  -->
<!DOCTYPE svg PUBLIC "-//W3C//DTD SVG 1.1//EN" "http://www.w3.org/Graphics/SVG/1.1/DTD/svg11.dtd">
<svg version="1.1" id="Layer_1" xmlns="http://www.w3.org/2000/svg" xmlns:xlink="http://www.w3.org/1999/xlink" x="0px" y="0px"
	 width="150px" height="150px" viewBox="0 0 150 150" enable-background="new 0 0 150 150" xml:space="preserve">
<g>
	
		<path id="XMLID_1141_" fill="#FFFFFF" stroke="#171C28" stroke-linecap="round" stroke-linejoin="round" stroke-miterlimit="10" d="
		M71.953,106.875l23.203-7.266c0,0,2.813-0.938,4.453,1.406c1.406,2.578-0.938,4.453-3.75,5.859
		c-2.578,1.406-30.469,16.172-30.469,16.172s-3.984,2.578-7.5,1.641c-3.75-0.938-22.266-8.906-22.266-8.906h-8.672"/>
	
		<path id="XMLID_1140_" fill="#FFFFFF" stroke="#171C28" stroke-linecap="round" stroke-linejoin="round" stroke-miterlimit="10" d="
		M26.719,96.094h12.422l16.641,5.859h12.422c0,0,3.047,0,3.281,2.578c0,0,0.234,3.516-2.578,3.984H52.5l-3.75,2.344"/>
	
		<polyline id="XMLID_1139_" fill="#C74634" stroke="#171C28" stroke-linecap="round" stroke-linejoin="round" stroke-miterlimit="10" points="
		8.203,91.172 26.719,91.172 26.719,120.703 8.203,120.703 	"/>
	<g id="XMLID_1120_">
		
			<path id="XMLID_1138_" fill="#FFFFFF" stroke="#171C28" stroke-linecap="round" stroke-linejoin="round" stroke-miterlimit="10" d="
			M68.203,53.906l14.766-13.359h17.813l8.672,2.813h16.641v21.797h-6.797c0,0-8.437,7.266-19.453,6.094"/>
		<g id="XMLID_1135_">
			
				<rect id="XMLID_1137_" x="34.453" y="58.594" fill="#FFFFFF" stroke="#171C28" stroke-linecap="round" stroke-linejoin="round" stroke-miterlimit="10" width="65.391" height="33.516"/>
			
				<rect id="XMLID_1136_" x="33.75" y="61.641" fill="#FFFFFF" stroke="#4C5C68" stroke-linecap="round" stroke-linejoin="round" stroke-miterlimit="10" width="61.875" height="25.078"/>
		</g>
		<g id="XMLID_1132_">
			
				<rect id="XMLID_1134_" x="32.813" y="53.906" fill="#FFFFFF" stroke="#171C28" stroke-linecap="round" stroke-linejoin="round" stroke-miterlimit="10" width="62.813" height="33.281"/>
		</g>
		<g id="XMLID_1129_">
			
				<path id="XMLID_1130_" fill="#FFFFFF" stroke="#171C28" stroke-linecap="round" stroke-linejoin="round" stroke-miterlimit="10" d="
				M88.828,72.656L88.828,72.656c-0.703,0.469-1.172,0.703-1.875,0.703c-1.641,0-3.047-1.406-3.047-3.047s1.406-3.047,3.047-3.047
				c1.641,0,3.047,1.406,3.047,3.047c0,0.469,0,0.938-0.234,1.172"/>
		</g>
		
			<path id="XMLID_1128_" fill="#FFFFFF" stroke="#171C28" stroke-linecap="round" stroke-linejoin="round" stroke-miterlimit="10" d="
			M90.938,50.625L79.453,62.109c0,0-3.281,7.031,7.031,7.031l10.547-10.547c0,0,9.844,0.938,17.813-7.5"/>
		<polyline id="XMLID_1127_" fill="#0D3178" points="146.719,69.844 126.094,69.844 126.094,38.203 146.719,38.203 		"/>
		<g id="XMLID_1121_">
			
				<path id="XMLID_1122_" fill="#FFFFFF" stroke="#171C28" stroke-linecap="round" stroke-linejoin="round" stroke-miterlimit="10" d="
				M43.125,72.656C43.125,72.656,42.891,72.656,43.125,72.656c-0.703,0.469-1.172,0.703-1.875,0.703
				c-1.641,0-3.047-1.406-3.047-3.047s1.406-3.047,3.047-3.047c1.641,0,3.047,1.406,3.047,3.047c0,0.469,0,0.938-0.234,1.172"/>
		</g>
		<g id="XMLID_135_">
			
				<ellipse id="XMLID_494_" fill="#FFFFFF" stroke="#171C28" stroke-linecap="round" stroke-linejoin="round" stroke-miterlimit="10" cx="64.219" cy="70.547" rx="9.375" ry="9.375"/>
			<ellipse id="XMLID_493_" fill="#0D3178" cx="64.219" cy="70.547" rx="7.266" ry="7.266"/>
		</g>
	</g>
</g>
</svg>
