<?xml version="1.0" encoding="utf-8"?>
<!-- Generator: Adobe Illustrator 20.1.0, SVG Export Plug-In . SVG Version: 6.00 Build 0)  -->
<svg version="1.1" id="Layer_1" xmlns="http://www.w3.org/2000/svg" xmlns:xlink="http://www.w3.org/1999/xlink" x="0px" y="0px"
	 viewBox="0 0 64 64" enable-background="new 0 0 64 64" xml:space="preserve">
<g id="XMLID_72_">
	<g id="XMLID_86_">
		
			<rect id="XMLID_87_" x="27.1" y="9.3" transform="matrix(6.123234e-17 -1 1 6.123234e-17 23.8054 58.4631)" fill="#FFFFFF" stroke="#4C5C68" stroke-linecap="round" stroke-linejoin="round" stroke-miterlimit="10" width="28.1" height="16"/>
	</g>
	<path id="XMLID_85_" fill="none" stroke="#4C5C68" stroke-linecap="round" stroke-linejoin="round" stroke-miterlimit="10" d="
		M50.4,19.6l5.2,5.6v8.6L54.1,38v8H43.6v-3.2c0,0-3.1-4.4-3-8"/>
	
		<polyline id="XMLID_84_" fill="#FFFFFF" stroke="#FEBD2E" stroke-linecap="round" stroke-linejoin="round" stroke-miterlimit="10" points="
		38,24.3 38,26.5 39.7,27.8 42.4,27.8 44,26.6 44,24.3 	"/>
	<path id="XMLID_83_" fill="#FFFFFF" stroke="#4C5C68" stroke-linecap="round" stroke-linejoin="round" stroke-miterlimit="10" d="
		M50.8,29.1l-5.6-5.6c0,0-3.4-1.6-3.4,3.4l5,5c0,0-0.4,4.7,3.5,8.5"/>
	
		<polyline id="XMLID_82_" fill="#FEBD2E" stroke="#4C5C68" stroke-linecap="round" stroke-linejoin="round" stroke-miterlimit="10" points="
		41.4,55.9 41.4,46 56.6,46 56.6,55.9 	"/>
	
		<polyline id="XMLID_81_" fill="#FFFFFF" stroke="#FEBD2E" stroke-linecap="round" stroke-linejoin="round" stroke-miterlimit="10" points="
		44,9.7 44,7.5 42.4,6.2 39.7,6.2 38,7.4 38,9.7 	"/>
	<g id="XMLID_73_">
		
			<ellipse id="XMLID_80_" fill="#FFFFFF" stroke="#4C5C68" stroke-linecap="round" stroke-linejoin="round" stroke-miterlimit="10" cx="41.3" cy="17" rx="4.8" ry="4.8"/>
		<ellipse id="XMLID_79_" fill="#286090" cx="41.3" cy="17" rx="3.8" ry="3.8"/>
		<g id="XMLID_74_">
			<path id="XMLID_75_" fill="#CEE8FA" d="M39,17c0-0.1,0.1-0.2,0.2-0.2h0.1c0-0.3,0.1-0.6,0.3-0.8c0-0.1,0.1-0.2,0.3-0.2
				c0.2,0,0.3,0.1,0.3,0.3c0,0.1,0,0.1,0,0.2c-0.1,0.2-0.2,0.4-0.2,0.5h1c0.2-0.8,0.5-1.2,1.1-1.2c0.6,0,1,0.5,1,1.1h0.3
				c0.1,0,0.2,0.1,0.2,0.2c0,0.1-0.1,0.2-0.2,0.2h-0.3c0,0.4-0.2,0.8-0.4,1.1c-0.1,0.1-0.1,0.1-0.3,0.1c-0.2,0-0.3-0.1-0.3-0.3
				c0-0.1,0-0.1,0.1-0.2c0.2-0.3,0.3-0.5,0.4-0.8h-1c-0.2,0.8-0.5,1.1-1.1,1.1c-0.6,0-1-0.5-1-1.1h-0.1C39.1,17.2,39,17.1,39,17z
				 M40.8,17.2h-0.9c0,0.3,0.2,0.5,0.4,0.5C40.6,17.7,40.7,17.6,40.8,17.2z M41.6,16.8h1c0-0.3-0.2-0.5-0.5-0.5
				C41.8,16.3,41.7,16.4,41.6,16.8z"/>
		</g>
	</g>
</g>
<rect id="XMLID_71_" x="7.6" y="48.3" fill="#CEE8FA" width="27.3" height="7.7"/>
<polyline id="XMLID_70_" fill="#FFFFFF" stroke="#4C5C68" stroke-linecap="round" stroke-linejoin="round" stroke-miterlimit="10" points="
	34.9,39.1 34.9,48.3 7.5,48.3 7.5,36.6 34.9,36.6 "/>
<g id="XMLID_65_">
	
		<line id="XMLID_69_" fill="none" stroke="#4C5C68" stroke-linecap="round" stroke-linejoin="round" stroke-miterlimit="10" x1="7.5" y1="50.3" x2="34.9" y2="50.3"/>
	
		<line id="XMLID_68_" fill="none" stroke="#4C5C68" stroke-linecap="round" stroke-linejoin="round" stroke-miterlimit="10" x1="7.5" y1="52.4" x2="34.9" y2="52.4"/>
	
		<line id="XMLID_67_" fill="none" stroke="#4C5C68" stroke-linecap="round" stroke-linejoin="round" stroke-miterlimit="10" x1="7.5" y1="54.3" x2="34.9" y2="54.3"/>
	
		<line id="XMLID_66_" fill="none" stroke="#4C5C68" stroke-linecap="round" stroke-linejoin="round" stroke-miterlimit="10" x1="7.5" y1="56.4" x2="34.9" y2="56.4"/>
</g>
<polyline id="XMLID_64_" fill="#FFFFFF" stroke="#FEBD2E" stroke-linecap="round" stroke-linejoin="round" stroke-miterlimit="10" points="
	30,38.5 31.2,38.5 32.5,40.6 32.5,43.3 31.3,44.5 29,44.5 "/>
<polyline id="XMLID_63_" fill="#FFFFFF" stroke="#FEBD2E" stroke-linecap="round" stroke-linejoin="round" stroke-miterlimit="10" points="
	13,38.5 11.3,38.5 9.5,40.6 9.5,43.3 11.2,44.5 13,44.5 "/>
<g id="XMLID_55_">
	
		<ellipse id="XMLID_62_" fill="#FFFFFF" stroke="#4C5C68" stroke-linecap="round" stroke-linejoin="round" stroke-miterlimit="10" cx="21.5" cy="42.5" rx="4" ry="4"/>
	<ellipse id="XMLID_61_" fill="#286090" cx="21.5" cy="42.5" rx="3.1" ry="3.1"/>
	<g id="XMLID_56_">
		<path id="XMLID_57_" fill="#CEE8FA" d="M21.5,40.6c0.1,0,0.2,0.1,0.2,0.2v0.1c0.3,0,0.5,0.1,0.7,0.2c0.1,0,0.1,0.1,0.1,0.2
			c0,0.1-0.1,0.2-0.2,0.2c0,0-0.1,0-0.1,0c-0.2-0.1-0.3-0.2-0.5-0.2v0.8c0.7,0.2,1,0.4,1,0.9c0,0.5-0.4,0.8-0.9,0.9v0.3
			c0,0.1-0.1,0.2-0.2,0.2c-0.1,0-0.2-0.1-0.2-0.2v-0.3c-0.3,0-0.6-0.2-0.9-0.3c-0.1,0-0.1-0.1-0.1-0.2c0-0.1,0.1-0.2,0.2-0.2
			c0.1,0,0.1,0,0.1,0c0.2,0.1,0.4,0.3,0.7,0.3v-0.9c-0.6-0.2-0.9-0.4-0.9-0.9c0-0.5,0.4-0.8,0.9-0.8v-0.1
			C21.3,40.7,21.4,40.6,21.5,40.6z M21.3,42.1v-0.8c-0.3,0-0.4,0.2-0.4,0.4C20.9,41.9,20.9,42,21.3,42.1z M21.6,42.7v0.8
			c0.3,0,0.4-0.2,0.4-0.4C22.1,42.9,22,42.8,21.6,42.7z"/>
	</g>
</g>
<line id="XMLID_54_" fill="#FFFFFF" stroke="#4C5C68" stroke-linecap="round" stroke-linejoin="round" stroke-miterlimit="10" x1="12" y1="41.5" x2="15" y2="41.5"/>
<line id="XMLID_53_" fill="#FFFFFF" stroke="#4C5C68" stroke-linecap="round" stroke-linejoin="round" stroke-miterlimit="10" x1="28" y1="41.5" x2="31" y2="41.5"/>
</svg>
