<?xml version="1.0" encoding="utf-8"?>
<!-- Generator: Adobe Illustrator 23.0.1, SVG Export Plug-In . SVG Version: 6.00 Build 0)  -->
<svg version="1.1" id="Layer_1" xmlns="http://www.w3.org/2000/svg" xmlns:xlink="http://www.w3.org/1999/xlink" x="0px" y="0px"
	 viewBox="0 0 64 64" style="enable-background:new 0 0 64 64;" xml:space="preserve">
<style type="text/css">
	.Drop_x0020_Shadow{fill:none;}
	.Outer_x0020_Glow_x0020_5_x0020_pt{fill:none;}
	.Blue_x0020_Neon{fill:none;stroke:#8AACDA;stroke-width:7;stroke-linecap:round;stroke-linejoin:round;}
	.Chrome_x0020_Highlight{fill:url(#SVGID_1_);stroke:#FFFFFF;stroke-width:0.3629;stroke-miterlimit:1;}
	.Jive_GS{fill:#FFDD00;}
	.Alyssa_GS{fill:#A6D0E4;}
	.st0{fill:#FFFFFF;stroke:#171C28;stroke-linecap:round;stroke-linejoin:round;stroke-miterlimit:10;}
	.st1{fill:#FFFFFF;}
	.st2{fill:#171C28;}
	.st3{fill:none;stroke:#4C5C68;stroke-width:0.9106;stroke-miterlimit:10;}
	.st4{fill:none;stroke:#171C28;stroke-linecap:round;stroke-linejoin:round;stroke-miterlimit:10;}
	.st5{fill:none;stroke:#4C5C68;stroke-width:1.0828;stroke-linecap:round;stroke-linejoin:round;stroke-miterlimit:10;}
	.st6{fill:none;stroke:#4C5C68;stroke-width:1.1103;stroke-linecap:round;stroke-linejoin:round;stroke-miterlimit:10;}
	.st7{fill:#C74634;stroke:#171C28;stroke-linecap:round;stroke-linejoin:round;stroke-miterlimit:10;}
	.st8{fill:#C74634;}
	.st9{fill:#FFFFFF;stroke:#171C28;stroke-width:0.9273;stroke-linecap:round;stroke-linejoin:round;stroke-miterlimit:10;}
	.st10{fill:#4C5C68;}
	.st11{fill:#FFFFFF;stroke:#171C28;stroke-width:0.9403;stroke-linecap:round;stroke-linejoin:round;stroke-miterlimit:10;}
	.st12{fill:none;stroke:#4C5C68;stroke-linecap:round;stroke-linejoin:round;stroke-miterlimit:10;}
	.st13{fill:#CEE8FA;}
	.st14{fill:#CEE8FA;stroke:#4C5C68;stroke-linecap:round;stroke-linejoin:round;stroke-miterlimit:10;}
	.st15{fill:#F9CA38;stroke:#4C5C68;stroke-linecap:round;stroke-linejoin:round;stroke-miterlimit:10;}
	.st16{fill:#FFFFFF;stroke:#4C5C68;stroke-linecap:round;stroke-linejoin:round;stroke-miterlimit:10;}
	.st17{fill:#FFFFFF;stroke:#FEBD2E;stroke-linecap:round;stroke-linejoin:round;stroke-miterlimit:10;}
	.st18{fill:#FEBD2E;stroke:#4C5C68;stroke-linecap:round;stroke-linejoin:round;stroke-miterlimit:10;}
	.st19{fill:#286090;}
	.st20{fill:#F9CA38;}
	.st21{fill:#FFFFFF;stroke:#4C5C68;stroke-width:1.2173;stroke-linecap:round;stroke-linejoin:round;stroke-miterlimit:10;}
	.st22{fill:#FFFFFF;stroke:#4C5C68;stroke-width:0.8881;stroke-linecap:round;stroke-linejoin:round;stroke-miterlimit:10;}
	.st23{fill:none;stroke:#CEE8FA;stroke-width:1.0985;stroke-linecap:round;stroke-linejoin:round;stroke-miterlimit:10;}
	.st24{opacity:0.6;fill:#286090;}
	.st25{fill:none;stroke:#4C5C68;stroke-width:1.0254;stroke-linecap:round;stroke-linejoin:round;stroke-miterlimit:10;}
	.st26{fill:#FFFFFF;stroke:#4C5C68;stroke-miterlimit:10;}
	.st27{fill:none;stroke:#286090;stroke-linecap:round;stroke-linejoin:round;stroke-miterlimit:10;stroke-dasharray:0,2;}
	.st28{fill:none;stroke:#286090;stroke-linecap:round;stroke-linejoin:round;stroke-miterlimit:10;}
	.st29{fill:#FEBD2E;}
	.st30{fill:none;stroke:#CEE8FA;stroke-linecap:round;stroke-linejoin:round;stroke-miterlimit:10;}
	.st31{fill:#FFFFFF;stroke:#171C28;stroke-miterlimit:10;}
	.st32{fill:#FFFFFF;stroke:#171C28;stroke-width:1.0268;stroke-linecap:round;stroke-linejoin:round;stroke-miterlimit:10;}
	.st33{fill:none;stroke:#171C28;stroke-width:1.0268;stroke-linecap:round;stroke-linejoin:round;stroke-miterlimit:10;}
	.st34{fill:#6B6B6B;}
	.st35{fill:none;stroke:#FFFFFF;stroke-width:1.0985;stroke-linecap:round;stroke-linejoin:round;stroke-miterlimit:10;}
	.st36{fill:#FFFFFF;stroke:#171C28;stroke-width:1.0688;stroke-linecap:round;stroke-linejoin:round;stroke-miterlimit:10;}
	.st37{fill:none;stroke:#4C5C68;stroke-width:1.1073;stroke-linecap:round;stroke-linejoin:round;stroke-miterlimit:10;}
	.st38{fill:none;stroke:#4C5C68;stroke-width:1.0096;stroke-linecap:round;stroke-linejoin:round;stroke-miterlimit:10;}
	.st39{fill:#FFFFFF;stroke:#171C28;stroke-width:1.1331;stroke-linecap:round;stroke-linejoin:round;stroke-miterlimit:10;}
	.st40{fill:none;stroke:#171C28;stroke-linecap:round;stroke-linejoin:round;stroke-miterlimit:10;stroke-dasharray:0,2;}
	.st41{fill:none;stroke:#BC0110;stroke-linecap:round;stroke-linejoin:round;stroke-miterlimit:10;}
	.st42{fill:none;stroke:#333333;stroke-width:2;stroke-linecap:round;stroke-linejoin:round;stroke-miterlimit:10;}
	.st43{fill:#FFFFFF;stroke:#171C28;stroke-width:1.211;stroke-linecap:round;stroke-linejoin:round;stroke-miterlimit:10;}
	.st44{fill:#171C28;stroke:#000000;stroke-width:0.2;stroke-linecap:round;stroke-linejoin:round;stroke-miterlimit:10;}
	.st45{fill:#FFFFFF;stroke:#4C5C68;stroke-width:0.9531;stroke-linecap:round;stroke-linejoin:round;stroke-miterlimit:10;}
	.st46{fill:#5FB0E5;}
	.st47{fill:#D2E9F7;}
	.st48{fill:#0686D8;}
	.st49{fill:#9ECFEF;}
	.st50{fill:none;stroke:#4C5C68;stroke-miterlimit:10;}
	.st51{fill:#4C5C68;stroke:#4C5C68;stroke-width:0.4;stroke-linecap:round;stroke-linejoin:round;stroke-miterlimit:10;}
	.st52{fill:#FED65C;}
	.st53{fill:none;stroke:#FFFFFF;stroke-linecap:round;stroke-linejoin:round;stroke-miterlimit:10;}
	.st54{fill:#EBF0F2;}
	.st55{fill:#B8D1CD;}
	.st56{fill:#DCEAE7;}
	.st57{fill:#EFB19E;}
	.st58{fill:#CCED9F;}
	.st59{fill:#A4EDE6;}
	.st60{fill:#111416;}
	.st61{fill:#567771;}
	.st62{fill:#FACC40;}
	.st63{fill:#FFF380;}
	.st64{fill:#E2932B;}
	.st65{fill:#78A09A;}
	.st66{fill:#253330;}
	.st67{fill:#FFFFFF;stroke:#4C5C68;stroke-width:1.1677;stroke-linecap:round;stroke-linejoin:round;stroke-miterlimit:10;}
	.st68{fill:#FFFFFF;stroke:#4C5C68;stroke-width:1.1657;stroke-linecap:round;stroke-linejoin:round;stroke-miterlimit:10;}
	.st69{fill:#FFFFFF;stroke:#171C28;stroke-width:0.9983;stroke-linecap:round;stroke-linejoin:round;stroke-miterlimit:10;}
	.st70{fill:#FFFFFF;stroke:#171C28;stroke-width:1.0727;stroke-linecap:round;stroke-linejoin:round;stroke-miterlimit:10;}
	.st71{fill:#C74634;stroke:#FFFFFF;stroke-linecap:round;stroke-linejoin:round;stroke-miterlimit:10;}
	.st72{fill:#CEE8FA;stroke:#4C5C68;stroke-width:0.965;stroke-linecap:round;stroke-linejoin:round;stroke-miterlimit:10;}
	.st73{fill:#41464B;}
	.st74{fill:#FFFFFF;stroke:#171C28;stroke-width:1.1013;stroke-linecap:round;stroke-linejoin:round;stroke-miterlimit:10;}
	.st75{fill:none;stroke:#171C28;stroke-width:1.1013;stroke-linecap:round;stroke-linejoin:round;stroke-miterlimit:10;}
	.st76{fill:#C74634;stroke:#171C28;stroke-width:1.1013;stroke-linecap:round;stroke-linejoin:round;stroke-miterlimit:10;}
	.st77{stroke:#171C28;stroke-linecap:round;stroke-linejoin:round;stroke-miterlimit:10;}
	.st78{fill:#FFFFFF;stroke:#171C28;stroke-width:0.9891;stroke-linecap:round;stroke-linejoin:round;stroke-miterlimit:10;}
	.st79{fill:none;stroke:#171C28;stroke-width:0.5274;stroke-linecap:round;stroke-linejoin:round;stroke-miterlimit:10;}
	.st80{fill:none;stroke:#4C5C68;stroke-width:1.1135;stroke-linecap:round;stroke-linejoin:round;stroke-miterlimit:10;}
	.st81{fill:#F9CA38;stroke:#4C5C68;stroke-width:1.1723;stroke-miterlimit:10;}
	.st82{fill:none;stroke:#4C5C68;stroke-width:1.0796;stroke-linecap:round;stroke-linejoin:round;stroke-miterlimit:10;}
	.st83{fill:none;stroke:#4C5C68;stroke-width:1.136;stroke-linecap:round;stroke-linejoin:round;stroke-miterlimit:10;}
	.st84{fill:#FFFFFF;stroke:#4C5C68;stroke-width:1.0796;stroke-linecap:round;stroke-linejoin:round;stroke-miterlimit:10;}
	.st85{fill:#007395;}
	.st86{fill:#FFFFFF;stroke:#171C28;stroke-width:0.8477;stroke-linecap:round;stroke-linejoin:round;stroke-miterlimit:10;}
	.st87{fill:#FFFFFF;stroke:#171C28;stroke-width:1.0138;stroke-linecap:round;stroke-linejoin:round;stroke-miterlimit:10;}
	.st88{fill:#FFFFFF;stroke:#171C28;stroke-width:0.9779;stroke-linecap:round;stroke-linejoin:round;stroke-miterlimit:10;}
	.st89{fill:none;stroke:#595959;stroke-width:1.6811;stroke-linecap:round;stroke-linejoin:round;}
	.st90{fill:none;stroke:#595959;stroke-width:1.6811;stroke-miterlimit:10;}
</style>
<linearGradient id="SVGID_1_" gradientUnits="userSpaceOnUse" x1="-584.8459" y1="-1132.7476" x2="-584.8459" y2="-1133.7476">
	<stop  offset="0" style="stop-color:#656565"/>
	<stop  offset="0.618" style="stop-color:#1B1B1B"/>
	<stop  offset="0.6292" style="stop-color:#545454"/>
	<stop  offset="0.9831" style="stop-color:#3E3E3E"/>
</linearGradient>
<g>
	<g>
		<g>
			<g>
				<rect x="15.3" y="14.5" class="st1" width="33.4" height="35"/>
			</g>
			<g>
				<rect x="28.7" y="9.1" class="st2" width="6.5" height="1.5"/>
			</g>
			<g>
				<g>
					<path class="st1" d="M36.5,54.2c0,0.8-0.8,1.5-1.7,1.5h-5.5c-0.9,0-1.7-0.7-1.7-1.5c0-0.8,0.8-1.5,1.7-1.5h5.5
						C35.7,52.7,36.5,53.3,36.5,54.2z"/>
				</g>
				<g>
					<path class="st2" d="M35,56.8H29c-1.5,0-2.7-1.2-2.7-2.7c0-1.5,1.2-2.7,2.7-2.7H35c1.5,0,2.7,1.2,2.7,2.7
						C37.7,55.6,36.4,56.8,35,56.8z M29,52.4c-1,0-1.8,0.8-1.8,1.8c0,1,0.8,1.8,1.8,1.8H35c1,0,1.8-0.8,1.8-1.8c0-1-0.8-1.8-1.8-1.8
						H29z"/>
				</g>
			</g>
			<g>
				<path class="st2" d="M44.3,58.5H19.7c-2.3,0-4.1-1.9-4.1-4.1V9.6c0-2.3,1.9-4.1,4.1-4.1h24.5c2.3,0,4.1,1.9,4.1,4.1v44.7
					C48.4,56.6,46.5,58.5,44.3,58.5z M19.7,6.4c-1.8,0-3.3,1.5-3.3,3.3v44.7c0,1.8,1.5,3.3,3.3,3.3h24.5c1.8,0,3.3-1.5,3.3-3.3V9.6
					c0-1.8-1.5-3.3-3.3-3.3H19.7z"/>
			</g>
			<g>
				<rect x="15.8" y="14.2" class="st2" width="32.5" height="0.8"/>
			</g>
			<g>
				<rect x="15.8" y="48.7" class="st2" width="32.5" height="0.8"/>
			</g>
		</g>
	</g>
</g>
<g>
	<g>
		<path class="st8" d="M25.4,19.8c0,0.1,0,0.2,0,0.4c0,0.1,0,0.2,0,0.3c0,0.1,0,0.2,0,0.4c0,0.1,0,0.2,0,0.3s0,0.2,0,0.4
			c0,0.1,0,0.2,0,0.3c0,0.1,0,0.2,0,0.4c0,0.1,0,0.2,0,0.3c0,0.1,0,0.2,0,0.4c0,0.1,0,0.2,0,0.3c0,0.1,0,0.2,0,0.4
			c0,0.1,0,0.2,0,0.3s0,0.2,0,0.4c0,0.1,0,0.2,0,0.3s0,0.2,0,0.4c0,0.1,0,0.1,0,0.2v0.1h-0.1c-0.1,0-0.2,0-0.3,0s-0.2,0-0.3,0
			s-0.2,0-0.4,0c-0.1,0-0.2,0-0.3,0c-0.1,0-0.2,0-0.4,0c-0.1,0-0.2,0-0.3,0s-0.2,0-0.4,0c-0.1,0-0.2,0-0.3,0c-0.1,0-0.2,0-0.4,0
			c-0.1,0-0.2,0-0.3,0s-0.2,0-0.4,0c-0.1,0-0.2,0-0.3,0c-0.1,0-0.2,0-0.4,0c-0.1,0-0.2,0-0.3,0s-0.2,0-0.4,0c-0.1,0-0.1,0-0.2,0
			h-0.1v-0.1c0-0.1,0-0.2,0-0.3c0-0.1,0-0.2,0-0.3c0-0.1,0-0.2,0-0.4c0-0.1,0-0.2,0-0.3s0-0.2,0-0.4c0-0.1,0-0.2,0-0.3
			c0-0.1,0-0.2,0-0.3c0-0.1,0-0.2,0-0.3c0-0.1,0-0.2,0-0.4c0-0.1,0-0.2,0-0.3c0-0.1,0-0.2,0-0.3c0-0.1,0-0.2,0-0.3s0-0.2,0-0.4
			c0-0.1,0-0.2,0-0.3c0-0.1,0-0.2,0-0.3c0-0.1,0-0.1,0-0.2s0-0.2,0-0.4h0.1c0.1,0,0.2,0,0.4,0c0.1,0,0.2,0,0.3,0c0.1,0,0.2,0,0.4,0
			c0.1,0,0.2,0,0.3,0c0.4,0,0.8,0,1.3,0c0.4,0,0.8,0,1.3,0c0.2,0,0.4,0,0.6,0C25.1,19.8,25.3,19.8,25.4,19.8z M23,20.5
			c-0.1,0-0.1,0-0.2,0c-0.1,0-0.2,0-0.3,0s-0.1,0-0.2,0c-0.1,0-0.2,0-0.3,0c-0.2,0-0.3,0-0.5,0c-0.1,0-0.1,0-0.2,0
			c-0.1,0-0.2,0-0.4,0c0,0.1,0,0.2,0,0.3c0,0.1,0,0.2,0,0.4c0,0.1,0,0.1,0,0.2s0,0.2,0,0.3c0,0.1,0,0.2,0,0.4c0,0.1,0,0.1,0,0.2
			s0,0.2,0,0.3c0,0.1,0,0.2,0,0.4c0,0.1,0,0.1,0,0.2s0,0.2,0,0.3c0,0.1,0,0.1,0,0.2s0,0.2,0,0.4v0.1v0.1v0.1v0.1H21
			c0.1,0,0.2,0,0.4,0c0.1,0,0.1,0,0.2,0c0.1,0,0.2,0,0.3,0s0.1,0,0.2,0c0.1,0,0.2,0,0.3,0s0.1,0,0.2,0c0.1,0,0.2,0,0.3,0
			s0.1,0,0.2,0c0.1,0,0.2,0,0.3,0s0.1,0,0.2,0c0.1,0,0.2,0,0.3,0s0.1,0,0.2,0c0.1,0,0.2,0,0.3,0s0.1,0,0.2,0c0.1,0,0.2,0,0.3,0
			c0-0.1,0-0.1,0-0.2s0-0.2,0-0.3c0-0.1,0-0.1,0-0.2s0-0.2,0-0.3c0-0.3,0-0.6,0-0.9s0-0.6,0-0.9c0-0.2,0-0.3,0-0.5
			c0-0.1,0-0.1,0-0.2s0-0.2,0-0.3C24.1,20.5,23.6,20.5,23,20.5z"/>
		<path class="st8" d="M31.3,20.5c0,0.1,0,0.2,0,0.4c0,0.1,0,0.2,0,0.3v0.1h0.1c0.1,0,0.2,0,0.3,0s0.2,0,0.4,0c0.1,0,0.2,0,0.4,0
			c0.1,0,0.2,0,0.4,0c0,0.1,0,0.2,0,0.3c0,0.1,0,0.2,0,0.4v0.1h-0.1h-0.1c-0.1,0-0.2,0-0.4,0c-0.1,0-0.2,0-0.3,0s-0.2,0-0.3,0
			s-0.2,0-0.3,0s-0.2,0-0.3,0s-0.2,0-0.4,0h-0.1h-0.1v0.1v0.1v0.1v0.1v0.1v0.1v0.1v0.1h0.1h0.1c0.1,0,0.2,0,0.4,0c0.1,0,0.2,0,0.3,0
			s0.2,0,0.3,0s0.2,0,0.3,0s0.2,0,0.3,0s0.2,0,0.3,0s0.1,0,0.2,0h0.1V23v0.1c0,0.1,0,0.2,0,0.4v0.1v0.1h-0.1c-0.1,0-0.2,0-0.3,0
			s-0.1,0-0.2,0h-0.1h-0.1c0,0.2,0,0.5,0,0.7c-0.2,0-0.5,0-0.7,0c0-0.1,0-0.2,0-0.4c0-0.1,0-0.2,0-0.3v-0.1h-0.1h-0.1
			c-0.1,0-0.2,0-0.4,0h-0.1h-0.1v0.1v0.1v0.1V24v0.1c0,0.1,0,0.2,0,0.3c-0.2,0-0.5,0-0.7,0c0,0.2,0,0.5,0,0.7c-0.2,0-0.5,0-0.7,0
			c0-0.1,0-0.2,0-0.4c0-0.1,0-0.2,0-0.3v-0.1h-0.1c-0.1,0-0.2,0-0.3,0s-0.2,0-0.4,0c0-0.1,0-0.2,0-0.4c0-0.1,0-0.2,0-0.3v-0.1h0.1
			c0.1,0,0.2,0,0.3,0c0.1,0,0.2,0,0.4,0c0.1,0,0.2,0,0.4,0c0.1,0,0.1,0,0.2,0h0.1H30v-0.1v-0.1v-0.1v-0.1V23v-0.1v-0.1v-0.1
			c0-0.1,0-0.2,0-0.3c0-0.1,0-0.2,0-0.3V22v-0.1h-0.1h-0.1h-0.1h-0.1h-0.1c-0.1,0-0.2,0-0.3,0c0-0.1,0-0.2,0-0.4c0-0.2,0-0.2,0-0.4
			c0-0.1,0-0.2,0-0.4c0-0.1,0-0.2,0-0.3v-0.1h-0.1c-0.1,0-0.2,0-0.3,0s-0.2,0-0.4,0c-0.2,0-0.2,0-0.4,0c-0.2,0-0.2,0-0.4,0
			c0-0.1,0-0.2,0-0.4v-0.1v-0.1v-0.1v-0.1h0.1c0.1,0,0.2,0,0.3,0c0.1,0,0.2,0,0.4,0c0.1,0,0.2,0,0.4,0c0.2,0,0.2,0,0.4,0
			c0.1,0,0.2,0,0.4,0c0.1,0,0.2,0,0.4,0c0.2,0,0.2,0,0.4,0c0.1,0,0.2,0,0.3,0h0.1v0.1v0.1c0,0.1,0,0.1,0,0.2c0,0.1,0,0.2,0,0.4
			C30.8,20.5,31,20.5,31.3,20.5z"/>
		<path class="st8" d="M31.3,20.5c0-0.1,0-0.2,0-0.4c0-0.1,0-0.2,0-0.3v-0.1h0.1h0.1c0.2,0,0.3,0,0.5,0h0.1v0.1c0,0.1,0,0.2,0,0.3
			v0.1v0.1v0.1v0.1H32c-0.1,0-0.2,0-0.4,0C31.4,20.5,31.3,20.5,31.3,20.5z"/>
		<path class="st8" d="M35.6,22C35.6,22,35.6,22.1,35.6,22c0,0.2,0,0.3,0,0.5c0,0.1,0,0.1,0,0.2v0.1h0.1h0.1c0.1,0,0.2,0,0.4,0h0.1
			h0.1v-0.1v-0.1v-0.1v-0.1v-0.1c0-0.1,0-0.2,0-0.3c0.1,0,0.2,0,0.4,0s0.2,0,0.4,0c0.1,0,0.2,0,0.4,0c0.1,0,0.2,0,0.3,0H38v0.1
			c0,0.1,0,0.1,0,0.2c0,0.1,0,0.2,0,0.3v0.1v0.1h-0.1c-0.1,0-0.2,0-0.3,0s-0.2,0-0.4,0c0,0.5,0,1,0,1.5s0,1,0,1.5
			c-0.1,0-0.2,0-0.3,0s-0.2,0-0.4,0h-0.1v-0.1v-0.1c0-0.1,0-0.2,0-0.4c0-0.1,0-0.2,0-0.3c0-0.1,0-0.2,0-0.3c0-0.1,0-0.2,0-0.3
			c0-0.1,0-0.2,0-0.3s0-0.2,0-0.4v-0.1v-0.1h-0.1h-0.1h-0.1H36h-0.1h-0.1h-0.1h-0.1v0.1c0,0.1,0,0.2,0,0.3c0,0.1,0,0.2,0,0.4
			c0,0.1,0,0.2,0,0.4c0,0.1,0,0.2,0,0.3V25h-0.1c-0.1,0-0.2,0-0.3,0S35,25,35,25h-0.1v-0.1c0-0.1,0-0.2,0-0.3c0-0.1,0-0.2,0-0.4
			c0-0.1,0-0.2,0-0.4c0-0.1,0-0.1,0-0.2v-0.1v-0.1h-0.1h-0.1h-0.1h-0.1h-0.1h-0.1h-0.1h-0.1v0.1v0.1v0.1c0,0.1,0,0.2,0,0.3
			s0,0.2,0,0.3c0,0.1,0,0.2,0,0.3c0,0.1,0,0.2,0,0.3c0,0.1,0,0.2,0,0.3c0,0.1,0,0.2,0,0.3c0,0.1,0,0.1,0,0.2v0.1h0.1
			c0.1,0,0.2,0,0.3,0s0.2,0,0.4,0c0.1,0,0.2,0,0.4,0c0.1,0,0.2,0,0.3,0h0.1v0.1c0,0.1,0,0.2,0,0.3c0,0.1,0,0.2,0,0.4
			c0,0.1,0,0.2,0,0.4c0,0.2,0,0.2,0,0.4c-0.2,0-0.5,0-0.7,0c0,0.5,0,1,0,1.5c0.2,0,0.5,0,0.7,0c0,0.1,0,0.2,0,0.4c0,0.1,0,0.2,0,0.4
			c0,0.2,0,0.2,0,0.4c0,0.1,0,0.1,0,0.2v0.1v0.1h0.1h0.1H36h0.1h0.1c0.1,0,0.2,0,0.3,0c0,0.2,0,0.5,0,0.7c-0.2,0-0.5,0-0.7,0
			c0,0.1,0,0.2,0,0.4c0,0.1,0,0.2,0,0.4c0,0.1,0,0.2,0,0.4c0,0.1,0,0.2,0,0.3v0.1h0.1c0.1,0,0.2,0,0.3,0s0.2,0,0.4,0s0.2,0,0.4,0
			c0.1,0,0.2,0,0.4,0c0-0.1,0-0.2,0-0.3s0-0.2,0-0.3s0-0.2,0-0.3c0-0.1,0-0.2,0-0.3c0-0.1,0-0.2,0-0.3s0-0.2,0-0.3
			c0-0.1,0-0.2,0-0.4v-0.1v-0.1h-0.1h-0.1h-0.1H37h-0.1c-0.1,0-0.2,0-0.3,0c0-0.7,0-1.5,0-2.2c0.2,0,0.5,0,0.7,0c0,0.5,0,1,0,1.5
			c0.2,0,0.5,0,0.7,0c0,0.2,0,0.5,0,0.7c0.2,0,0.5,0,0.7,0c0,0.2,0,0.5,0,0.7c-0.1,0-0.2,0-0.4,0c-0.1,0-0.2,0-0.3,0h-0.1v0.1
			c0,0.1,0,0.2,0,0.3c0,0.1,0,0.2,0,0.4s0,0.2,0,0.4c0,0.1,0,0.2,0,0.3v0.1H38c0.1,0,0.2,0,0.3,0s0.2,0,0.4,0c0.1,0,0.2,0,0.4,0
			c0.1,0,0.1,0,0.2,0h0.1h0.1v-0.1v-0.1v-0.1v-0.1v-0.1v-0.1V32v-0.1h-0.1h-0.1h-0.1h-0.1H39c-0.1,0-0.2,0-0.3,0c0-0.2,0-0.5,0-0.7
			c0.1,0,0.2,0,0.4,0c0.1,0,0.2,0,0.3,0h0.1v-0.1c0-0.1,0-0.1,0-0.2s0-0.2,0-0.3c0-0.1,0-0.2,0-0.3c0-0.1,0-0.2,0-0.3
			c0-0.1,0-0.2,0-0.3c0-0.1,0-0.2,0-0.3c0-0.1,0-0.2,0-0.3c0-0.1,0-0.2,0-0.3c0.2,0,0.5,0,0.7,0c0,0.5,0,1,0,1.5c0.2,0,0.5,0,0.7,0
			c0,0.4,0,0.7,0,1.1c0,0.4,0,0.7,0,1.1c-0.2,0-0.5,0-0.7,0c0,0.1,0,0.2,0,0.4c0,0.1,0,0.2,0,0.4c0,0.1,0,0.2,0,0.4
			c0,0.1,0,0.1,0,0.2V34v0.1h0.1c0.1,0,0.2,0,0.3,0s0.2,0,0.4,0c0.1,0,0.2,0,0.4,0c0.1,0,0.2,0,0.3,0h0.1V34v-0.1c0-0.1,0-0.2,0-0.4
			c0-0.1,0-0.2,0-0.3s0-0.2,0-0.3s0-0.2,0-0.3s0-0.2,0-0.3s0-0.2,0-0.3s0-0.2,0-0.3c0-0.2,0-0.4,0-0.5c0-0.1,0-0.4,0-0.5
			c0-0.2,0-0.4,0-0.5c0-0.1,0-0.2,0-0.3s0-0.1,0-0.2v-0.1h0.1H42h0.1c0.1,0,0.2,0,0.4,0h0.1v0.1c0,0.1,0,0.2,0,0.3s0,0.1,0,0.2v0.1
			v0.1c0.2,0,0.5,0,0.7,0c0,0.2,0,0.5,0,0.7c-0.2,0-0.5,0-0.7,0c0,0.7,0,1.5,0,2.2c0.2,0,0.5,0,0.7,0c0,0.2,0,0.5,0,0.7
			c-0.2,0-0.5,0-0.7,0c0,0.2,0,0.5,0,0.7c-0.1,0-0.2,0-0.3,0s-0.2,0-0.3,0s-0.2,0-0.3,0s-0.2,0-0.3,0s-0.2,0-0.3,0s-0.2,0-0.3,0
			s-0.2,0-0.4,0h-0.1h-0.1v0.1v0.1V35v0.1v0.1v0.1v0.1v0.1h0.1h0.1h0.1h0.1h0.1h0.1h0.1H41v0.1c0,0.1,0,0.2,0,0.3s0,0.2,0,0.3v0.1
			h-0.1c-0.1,0-0.2,0-0.3,0s-0.2,0-0.3,0h-0.1v0.1c0,0.1,0,0.2,0,0.3s0,0.1,0,0.2V37v0.1h0.1h0.1c0.1,0,0.2,0,0.4,0
			c0.1,0,0.2,0,0.3,0s0.2,0,0.3,0s0.2,0,0.3,0s0.2,0,0.3,0s0.2,0,0.3,0s0.1,0,0.2,0h0.1v0.1c0,0.1,0,0.2,0,0.3s0,0.2,0,0.4
			c0,0.1,0,0.2,0,0.4s0,0.2,0,0.4c-0.1,0-0.2,0-0.4,0c-0.1,0-0.2,0-0.3,0h-0.1v0.1c0,0.1,0,0.2,0,0.3s0,0.2,0,0.3v0.1h0.1
			c0.1,0,0.2,0,0.3,0s0.2,0,0.4,0c0.1,0,0.2,0,0.4,0c0.1,0,0.2,0,0.4,0c0,0.2,0,0.5,0,0.7c-0.1,0-0.2,0-0.3,0s-0.2,0-0.4,0
			s-0.2,0-0.4,0c-0.1,0-0.2,0-0.3,0h-0.1h-0.1v0.1v0.1v0.1v0.1v0.1v0.1c0,0.1,0,0.2,0,0.3v0.1v0.1v0.1c0,0.1,0,0.1,0,0.2
			c0,0.1,0,0.2,0,0.3s0,0.2,0,0.4v0.1v0.1v0.1h0.1H42h0.1h0.1h0.1h0.1h0.1h0.1v-0.1v-0.1v-0.1v-0.1v-0.1V42v-0.1v-0.1h0.1
			c0.1,0,0.2,0,0.4,0h0.1h0.1h0.1v0.1c0,0.1,0,0.2,0,0.3s0,0.2,0,0.3v0.1h0.1c0.1,0,0.1,0,0.2,0c0.1,0,0.2,0,0.3,0H44h0.1v-0.1v-0.1
			v-0.1v-0.1v-0.1V42v-0.1v-0.1h0.1h0.1c0.2,0,0.3,0,0.5,0h0.1v0.1c0,0.1,0,0.2,0,0.3s0,0.2,0,0.4c0,0.1,0,0.2,0,0.4
			c0,0.1,0,0.2,0,0.3v0.1h-0.1c-0.1,0-0.1,0-0.2,0c-0.1,0-0.2,0-0.4,0c-0.1,0-0.2,0-0.4,0s-0.2,0-0.4,0s-0.2,0-0.4,0s-0.2,0-0.4,0
			s-0.2,0-0.4,0c-0.1,0-0.2,0-0.4,0h-0.1c0,0.2,0,0.5,0,0.7c-0.2,0-0.5,0-0.7,0c0-0.1,0-0.2,0-0.4c0-0.1,0-0.2,0-0.3v-0.1h-0.1
			c-0.1,0-0.2,0-0.3,0s-0.2,0-0.4,0c0-0.2,0-0.5,0-0.7c0.1,0,0.2,0,0.4,0c0.1,0,0.1,0,0.2,0h0.1H41v-0.1c0-0.1,0-0.2,0-0.3
			s0-0.2,0-0.3v-0.1h-0.1c-0.1,0-0.2,0-0.3,0s-0.2,0-0.4,0c-0.1,0-0.2,0-0.4,0c-0.1,0-0.1,0-0.2,0h-0.1h-0.1c0,0.2,0,0.5,0,0.7
			c-0.1,0-0.2,0-0.4,0c-0.1,0-0.1,0-0.2,0h-0.1h-0.1v0.1c0,0.1,0,0.2,0,0.3s0,0.2,0,0.3v0.1h0.1c0.1,0,0.2,0,0.3,0s0.2,0,0.4,0
			c0.1,0,0.2,0,0.4,0c0.1,0,0.2,0,0.4,0c0,0.1,0,0.2,0,0.4c0,0.1,0,0.1,0,0.2V44v0.1h0.1h0.1h0.1h0.1h0.1c0.1,0,0.2,0,0.3,0
			c0,0.1,0,0.2,0,0.4c0,0.1,0,0.2,0,0.3v0.1h-0.1c-0.1,0-0.2,0-0.3,0s-0.2,0-0.4,0c-0.1,0-0.2,0-0.4,0c-0.1,0-0.2,0-0.4,0
			c0-0.1,0-0.2,0-0.4c0-0.1,0-0.2,0-0.3v-0.1h-0.1c-0.1,0-0.1,0-0.2,0c-0.1,0-0.2,0-0.3,0h-0.1h-0.1v0.1v0.1v0.1v0.1v0.1v0.1v0.1
			v0.1h-0.1c-0.1,0-0.2,0-0.3,0s-0.2,0-0.3,0h-0.1v-0.1c0-0.1,0-0.2,0-0.4c0-0.1,0-0.2,0-0.3s0-0.2,0-0.3s0-0.2,0-0.3s0-0.2,0-0.3
			s0-0.2,0-0.4v-0.1v-0.1v-0.1h-0.1h-0.1h-0.1h-0.1h-0.1h-0.1h-0.1H37v0.1v0.1v0.1v0.1V43v0.1v0.1v0.1h-0.1c-0.1,0-0.2,0-0.3,0
			s-0.2,0-0.3,0h-0.1v-0.1c0-0.1,0-0.2,0-0.3s0-0.2,0-0.4c0-0.1,0-0.2,0-0.4c0-0.1,0-0.2,0-0.4c0.2,0,0.5,0,0.7,0c0-0.2,0-0.5,0-0.7
			c0.2,0,0.5,0,0.7,0c0-0.1,0-0.2,0-0.3s0-0.1,0-0.2c0-0.1,0-0.2,0-0.3s0-0.1,0-0.2c0-0.1,0-0.2,0-0.3s0-0.1,0-0.2
			c0-0.1,0-0.2,0-0.3s0-0.1,0-0.2c0-0.1,0-0.2,0-0.3s0-0.1,0-0.2c0-0.1,0-0.2,0-0.3s0-0.1,0-0.2c0-0.1,0-0.2,0-0.3s0-0.2,0-0.4v-0.1
			v-0.1V37h-0.1h-0.1h-0.1h-0.1h-0.1c-0.1,0-0.2,0-0.3,0c0-0.2,0-0.5,0-0.7c0.2,0,0.5,0,0.7,0c0-0.1,0-0.2,0-0.4c0-0.1,0-0.2,0-0.3
			v-0.1h0.1c0.1,0,0.2,0,0.3,0s0.2,0,0.3,0h0.1v0.1c0,0.1,0,0.2,0,0.3s0,0.2,0,0.4c0,0.1,0,0.2,0,0.4c0,0.1,0,0.1,0,0.2V37v0.1h0.1
			h0.1h0.1h0.1h0.1h0.1H39h0.1V37v-0.1c0-0.1,0-0.2,0-0.4c0-0.1,0-0.2,0-0.3s0-0.2,0-0.3s0-0.2,0-0.3s0-0.2,0-0.3s0-0.2,0-0.3
			s0-0.1,0-0.2v-0.1H39c-0.1,0-0.2,0-0.3,0s-0.2,0-0.4,0s-0.2,0-0.4,0c-0.1,0-0.2,0-0.4,0c-0.1,0-0.2,0-0.4,0s-0.2,0-0.4,0
			c-0.1,0-0.2,0-0.4,0c-0.1,0-0.2,0-0.4,0c0-0.1,0-0.2,0-0.4c0-0.1,0-0.2,0-0.3v-0.1h-0.1c-0.1,0-0.2,0-0.3,0s-0.2,0-0.3,0h-0.1V34
			c0,0.1,0,0.2,0,0.3s0,0.2,0,0.4s0,0.2,0,0.4c0,0.1,0,0.2,0,0.3v0.1H35h-0.1c-0.1,0-0.2,0-0.4,0h-0.1h-0.1v-0.1c0-0.1,0-0.2,0-0.3
			s0-0.2,0-0.3v-0.1h-0.1c-0.1,0-0.2,0-0.3,0s-0.2,0-0.3,0h-0.1v0.1c0,0.1,0,0.2,0,0.3s0,0.2,0,0.4c0,0.1,0,0.2,0,0.4s0,0.2,0,0.4
			c-0.2,0-0.5,0-0.7,0c0,0.2,0,0.5,0,0.7c-0.5,0-1,0-1.5,0c0,0.2,0,0.5,0,0.7c-0.2,0-0.5,0-0.7,0c0,0.2,0,0.5,0,0.7
			c-0.2,0-0.5,0-0.7,0c0-0.1,0-0.2,0-0.4c0-0.1,0-0.1,0-0.2v-0.1v-0.1h-0.1h-0.1c-0.1,0-0.2,0-0.4,0h-0.1h-0.1v0.1v0.1v0.1V38v0.1
			c0,0.1,0,0.2,0,0.3c-0.2,0-0.5,0-0.7,0c0-0.1,0-0.2,0-0.4c0-0.1,0-0.2,0-0.3v-0.1h-0.1c-0.1,0-0.2,0-0.3,0c-0.1,0-0.2,0-0.4,0
			c0-0.1,0-0.2,0-0.4c0-0.1,0-0.2,0-0.3v-0.1h0.1c0.1,0,0.1,0,0.2,0c0.1,0,0.2,0,0.4,0c0.2,0,0.5,0,0.7,0c0.1,0,0.2,0,0.4,0
			c0.1,0,0.2,0,0.4,0c0.1,0,0.2,0,0.4,0c0.1,0,0.2,0,0.3,0h0.1h0.1v-0.1v-0.1v-0.1v-0.1c0-0.1,0-0.2,0-0.4c0.1,0,0.2,0,0.4,0
			c0.1,0,0.2,0,0.3,0h0.1v-0.1c0-0.1,0-0.2,0-0.3s0-0.1,0-0.2v-0.1v-0.1h-0.1h-0.1h-0.1h-0.1H31H31h-0.1h-0.1v0.1v0.1v0.1v0.1v0.1
			c0,0.1,0,0.2,0,0.3c-0.1,0-0.2,0-0.4,0c-0.1,0-0.2,0-0.3,0H30v-0.1v-0.1c0-0.1,0-0.1,0-0.2c0-0.1,0-0.2,0-0.4c0-0.1,0-0.2,0-0.4
			c0-0.1,0-0.2,0-0.4c0.2,0,0.5,0,0.7,0c0-0.2,0-0.5,0-0.7c0.1,0,0.2,0,0.4,0c0.1,0,0.2,0,0.3,0h0.1v-0.1c0-0.1,0-0.2,0-0.3
			s0-0.1,0-0.2V33v-0.1h-0.1h-0.1h-0.1h-0.1H31h-0.1h-0.1h-0.1V33v0.1v0.1v0.1v0.1c0,0.1,0,0.2,0,0.3c-0.5,0-1,0-1.5,0
			c0,0.1,0,0.2,0,0.4c0,0.1,0,0.2,0,0.3v0.1h-0.1c-0.1,0-0.2,0-0.3,0s-0.2,0-0.3,0h-0.1v-0.1c0-0.1,0-0.2,0-0.3s0-0.2,0-0.4
			c0-0.1,0-0.2,0-0.4s0-0.2,0-0.4c0.1,0,0.2,0,0.4,0c0.1,0,0.2,0,0.3,0h0.1v-0.1c0-0.1,0-0.2,0-0.3s0-0.2,0-0.3v-0.1h-0.1H29
			c-0.1,0-0.2,0-0.4,0h-0.1h-0.1v0.1v0.1v0.1v0.1v0.1c0,0.1,0,0.2,0,0.3c-0.5,0-1,0-1.5,0c0-0.1,0-0.2,0-0.4c0-0.1,0-0.2,0-0.3v-0.1
			h-0.1c-0.1,0-0.2,0-0.3,0c-0.1,0-0.2,0-0.4,0c-0.1,0-0.2,0-0.4,0c-0.2,0-0.2,0-0.4,0c0-0.2,0-0.5,0-0.7c-0.2,0-0.5,0-0.7,0
			c0-0.1,0-0.2,0-0.4c0-0.1,0-0.2,0-0.3v-0.1h-0.1c-0.1,0-0.2,0-0.3,0c-0.1,0-0.2,0-0.4,0c-0.1,0-0.2,0-0.4,0c-0.1,0-0.2,0-0.3,0H23
			v0.1v0.1c0,0.1,0,0.2,0,0.4c0,0.1,0,0.2,0,0.3c0,0.1,0,0.2,0,0.3c0,0.1,0,0.2,0,0.3c0,0.1,0,0.2,0,0.3s0,0.2,0,0.3s0,0.1,0,0.2V33
			h-0.1c-0.1,0-0.2,0-0.3,0c-0.1,0-0.2,0-0.4,0c-0.1,0-0.2,0-0.4,0c-0.2,0-0.2,0-0.4,0c0-0.1,0-0.2,0-0.3s0-0.2,0-0.4
			c0-0.1,0-0.2,0-0.4c0-0.2,0-0.2,0-0.4c0-0.1,0-0.2,0-0.4c0-0.1,0-0.2,0-0.4c0-0.2,0-0.2,0-0.4c0-0.1,0-0.2,0-0.3v-0.1v-0.1h-0.1
			h-0.1h-0.1H21h-0.1h-0.1h-0.1h-0.1v0.1c0,0.1,0,0.1,0,0.2s0,0.2,0,0.3c0,0.1,0,0.2,0,0.3c0,0.1,0,0.2,0,0.3c0,0.1,0,0.2,0,0.3
			c0,0.1,0,0.2,0,0.3s0,0.2,0,0.4v0.1v0.1h-0.1c-0.1,0-0.2,0-0.3,0h-0.1H20h-0.1h-0.1v-0.1c0-0.1,0-0.2,0-0.3c0-0.1,0-0.2,0-0.4
			c-0.2,0-0.5,0-0.7,0c0-0.5,0-1,0-1.5c0.1,0,0.2,0,0.4,0c0.1,0,0.2,0,0.3,0h0.1v-0.1c0-0.1,0-0.2,0-0.4v-0.1v-0.1v-0.1h-0.1h-0.1
			h-0.1h-0.1c-0.1,0-0.2,0-0.4,0c0-0.1,0-0.2,0-0.3c0-0.1,0-0.2,0-0.3s0-0.2,0-0.3c0-0.1,0-0.2,0-0.3c0-0.1,0-0.2,0-0.3
			c0-0.1,0-0.2,0-0.3c0-0.1,0-0.2,0-0.4v-0.1v-0.1h0.1c0.1,0,0.2,0,0.3,0s0.2,0,0.3,0h0.1v0.1c0,0.1,0,0.1,0,0.2c0,0.1,0,0.2,0,0.4
			s0,0.2,0,0.4c0,0.1,0,0.2,0,0.3v0.1v0.1H20h0.1h0.1h0.1h0.1h0.1c0.1,0,0.2,0,0.3,0h0.1H21h0.1c0.1,0,0.1,0,0.2,0
			c0.1,0,0.2,0,0.3,0s0.2,0,0.3,0s0.2,0,0.3,0h0.1v-0.1c0-0.1,0-0.2,0-0.3c0-0.1,0-0.2,0-0.4c0-0.1,0-0.2,0-0.4c0-0.1,0-0.2,0-0.3
			v-0.1h0.1c0.1,0,0.1,0,0.2,0c0.1,0,0.2,0,0.3,0s0.2,0,0.3,0s0.2,0,0.3,0s0.2,0,0.3,0s0.2,0,0.3,0c0.2,0,0.4,0,0.5,0
			c0,0.1,0,0.2,0,0.4c0,0.1,0,0.2,0,0.3v0.1h-0.1c-0.1,0-0.2,0-0.3,0s-0.2,0-0.4,0c-0.2,0-0.2,0-0.4,0c-0.1,0-0.1,0-0.2,0h-0.1H23
			v0.1v0.1v0.1v0.1V28v0.1v0.1v0.1h0.1c0.1,0,0.2,0,0.3,0s0.2,0,0.4,0c0.2,0,0.2,0,0.4,0c0.1,0,0.2,0,0.3,0h0.1v0.1v0.1
			c0,0.1,0,0.2,0,0.4V29v0.1h-0.1c-0.1,0-0.2,0-0.3,0c-0.1,0-0.2,0-0.3,0h-0.1v0.1c0,0.1,0,0.2,0,0.3c0,0.1,0,0.2,0,0.3v0.1h0.1
			c0.1,0,0.2,0,0.3,0s0.2,0,0.4,0c0.1,0,0.2,0,0.4,0c0.1,0,0.1,0,0.2,0h0.1h0.1c0-0.2,0-0.5,0-0.7c0.5,0,1,0,1.5,0
			c0,0.1,0,0.2,0,0.4c0,0.1,0,0.1,0,0.2v0.1V30H27h0.1h0.1h0.1h0.1c0.1,0,0.2,0,0.3,0c0,0.1,0,0.2,0,0.4c0,0.1,0,0.2,0,0.3v0.1h-0.1
			c-0.1,0-0.2,0-0.3,0c-0.1,0-0.2,0-0.4,0c-0.2,0-0.2,0-0.4,0c-0.1,0-0.1,0-0.2,0h-0.1h-0.1v0.1V31v0.1v0.1v0.1v0.1v0.1v0.1h0.1h0.1
			c0.1,0,0.2,0,0.4,0c0.1,0,0.2,0,0.3,0c0.1,0,0.2,0,0.3,0c0.1,0,0.2,0,0.3,0s0.2,0,0.3,0c0.1,0,0.2,0,0.3,0c0.1,0,0.2,0,0.3,0
			c0-0.1,0-0.2,0-0.4c0-0.1,0-0.2,0-0.4c0-0.1,0-0.2,0-0.4c0-0.1,0-0.1,0-0.2v-0.1V30h-0.1h-0.1h-0.1h-0.1H28c-0.1,0-0.2,0-0.3,0
			c0-0.2,0-0.5,0-0.7c0.2,0,0.5,0,0.7,0c0-0.2,0-0.5,0-0.7c0.2,0,0.5,0,0.7,0c0-0.1,0-0.2,0-0.4c0-0.1,0-0.2,0-0.3v-0.1h0.1
			c0.1,0,0.2,0,0.3,0c0.1,0,0.2,0,0.3,0h0.1v0.1c0,0.1,0,0.2,0,0.3c0,0.1,0,0.2,0,0.4c0.2,0,0.5,0,0.7,0c0,0.2,0,0.5,0,0.7
			c0.2,0,0.5,0,0.7,0c0,0.5,0,1,0,1.5c-0.2,0-0.5,0-0.7,0c0-0.1,0-0.2,0-0.4c0-0.1,0-0.2,0-0.3V30h-0.1h-0.1c-0.1,0-0.1,0-0.2,0
			c-0.1,0-0.2,0-0.4,0c-0.2,0-0.2,0-0.4,0c-0.1,0-0.1,0-0.2,0h-0.1H29v0.1c0,0.1,0,0.2,0,0.3c0,0.1,0,0.2,0,0.4c0,0.2,0,0.2,0,0.4
			c0,0.1,0,0.1,0,0.2v0.1v0.1h0.1h0.1h0.1h0.1h0.1h0.1h0.1h0.1v-0.1v-0.1v-0.1v-0.1v-0.1c0-0.1,0-0.2,0-0.3c0.2,0,0.5,0,0.7,0
			c0,0.1,0,0.2,0,0.4c0,0.1,0,0.2,0,0.3v0.1h0.1h0.1c0.1,0,0.2,0,0.4,0h0.1h0.1v-0.1v-0.1v-0.1v-0.1v-0.1c0-0.1,0-0.2,0-0.3
			c0.2,0,0.5,0,0.7,0c0,0.1,0,0.2,0,0.4c0,0.1,0,0.2,0,0.4c0,0.2,0,0.2,0,0.4c0,0.1,0,0.1,0,0.2v0.1v0.1h0.1h0.1h0.1h0.1h0.1h0.1
			h0.1c0.1,0,0.2,0,0.3,0H33h0.1h0.1c0.1,0,0.2,0,0.4,0c0.1,0,0.2,0,0.3,0s0.1,0,0.2,0h0.1h0.1v-0.1v-0.1v-0.1V32v-0.1v-0.1v-0.1
			v-0.1h-0.1h-0.1H34h-0.1h-0.1c-0.1,0-0.2,0-0.3,0c0-0.2,0-0.5,0-0.7c0.1,0,0.2,0,0.4,0c0.1,0,0.2,0,0.3,0h0.1v-0.1
			c0-0.1,0-0.2,0-0.3c0-0.1,0-0.2,0-0.4c0-0.1,0-0.2,0-0.4c0-0.1,0-0.1,0-0.2v-0.1v-0.1h-0.1h-0.1H34H34h-0.1h-0.1h-0.1h-0.1v0.1
			c0,0.1,0,0.2,0,0.3s0,0.2,0,0.4c0,0.1,0,0.2,0,0.4c0,0.2,0,0.2,0,0.4c-0.5,0-1,0-1.5,0c0-0.1,0-0.2,0-0.4c0-0.2,0-0.2,0-0.4
			c0-0.1,0-0.2,0-0.4c0-0.1,0-0.1,0-0.2v-0.1v-0.1H32h-0.1h-0.1h-0.1h-0.1c-0.1,0-0.2,0-0.3,0c0-0.5,0-1,0-1.5c0.2,0,0.5,0,0.7,0
			c0,0.1,0,0.2,0,0.4c0,0.1,0,0.2,0,0.3v0.1h0.1c0.1,0,0.2,0,0.3,0s0.1,0,0.2,0h0.1h0.1v-0.1v-0.1v-0.1v-0.1v-0.1V28v-0.1v-0.1h-0.1
			h-0.1h-0.1h-0.1h-0.1c-0.1,0-0.2,0-0.3,0c0-0.1,0-0.2,0-0.4c0-0.1,0-0.2,0-0.3V27h0.1c0.1,0,0.2,0,0.3,0s0.2,0,0.4,0
			c0.1,0,0.2,0,0.4,0c0.1,0,0.1,0,0.2,0h0.1h0.1v-0.1v-0.1v-0.1v-0.1v-0.1v-0.1v-0.1v-0.1h-0.1h-0.1h-0.1h-0.1h-0.1
			c-0.1,0-0.2,0-0.3,0c0-0.1,0-0.2,0-0.4c0-0.1,0-0.2,0-0.3c0-0.1,0-0.2,0-0.4c0-0.1,0-0.2,0-0.3c0-0.1,0-0.2,0-0.4
			c0-0.1,0-0.2,0-0.3c0-0.1,0-0.2,0-0.4c0-0.1,0-0.2,0-0.3s0-0.2,0-0.4c0-0.1,0-0.2,0-0.3c0-0.1,0-0.2,0-0.4c0-0.1,0-0.2,0-0.3
			c0-0.1,0-0.2,0-0.4c0-0.1,0-0.2,0-0.3c0-0.1,0-0.2,0-0.3c0-0.1,0-0.1,0-0.2v-0.1v-0.1h-0.1h-0.1h-0.1h-0.1h-0.1
			c-0.1,0-0.2,0-0.3,0c0-0.2,0-0.5,0-0.7c0.2,0,0.5,0,0.7,0c0-0.1,0-0.2,0-0.4c0-0.1,0-0.2,0-0.3v-0.1h0.1c0.1,0,0.2,0,0.3,0
			s0.2,0,0.3,0h0.1v0.1c0,0.1,0,0.1,0,0.2s0,0.2,0,0.3s0,0.2,0,0.3c0,0.1,0,0.2,0,0.3c0,0.2,0,0.4,0,0.5s0,0.2,0,0.3v0.1v0.1v0.1
			h0.1c0.1,0,0.1,0,0.2,0c0.1,0,0.2,0,0.3,0s0.2,0,0.3,0s0.2,0,0.4,0C35.4,22,35.5,22,35.6,22z M38.5,33.1L38.5,33.1
			c0,0.1,0,0.2,0,0.2v0.1v0.1v0.1v0.1h0.1c0.1,0,0.2,0,0.4,0h0.1h0.1h0.1v-0.1c0-0.1,0-0.2,0-0.3s0-0.2,0-0.3v-0.1h-0.1
			c-0.1,0-0.1,0-0.2,0c-0.1,0-0.2,0-0.4,0h-0.1C38.5,32.9,38.5,33,38.5,33.1C38.5,33,38.5,33.1,38.5,33.1z M32.7,33.8
			C32.7,33.8,32.7,33.9,32.7,33.8c0,0.1,0,0.2,0,0.2v0.1v0.1v0.1v0.1h0.1h0.1c0.1,0,0.2,0,0.4,0h0.1h0.1v-0.1c0-0.1,0-0.2,0-0.3
			s0-0.2,0-0.3v-0.1h-0.1c-0.1,0-0.1,0-0.2,0c-0.1,0-0.2,0-0.4,0h-0.1C32.7,33.6,32.7,33.7,32.7,33.8C32.7,33.7,32.7,33.8,32.7,33.8
			z M38.5,38.3c0,0.1,0,0.1,0,0.2c0,0.1,0,0.2,0,0.3s0,0.1,0,0.2c0,0.1,0,0.2,0,0.3s0,0.1,0,0.2c0,0.1,0,0.2,0,0.3s0,0.2,0,0.4v0.1
			v0.1h0.1c0.1,0,0.1,0,0.2,0c0.1,0,0.2,0,0.3,0s0.2,0,0.3,0s0.2,0,0.3,0s0.2,0,0.3,0s0.2,0,0.3,0s0.2,0,0.3,0s0.2,0,0.3,0
			c0-0.4,0-0.7,0-1.1c0-0.4,0-0.7,0-1.1c-0.1,0-0.1,0-0.2,0c-0.1,0-0.2,0-0.3,0c-0.2,0-0.4,0-0.5,0s-0.2,0-0.3,0s-0.2,0-0.3,0
			c-0.2,0-0.4,0-0.5,0h-0.1C38.5,38.1,38.5,38.2,38.5,38.3z"/>
		<path class="st8" d="M36.3,20.5c-0.2,0-0.5,0-0.7,0c0-0.1,0-0.2,0-0.4c0-0.1,0-0.2,0-0.3v-0.1h0.1c0.1,0,0.1,0,0.2,0H36h0.1h0.1
			h0.1h0.1v0.1c0,0.1,0,0.2,0,0.4C36.3,20.4,36.3,20.4,36.3,20.5z"/>
		<path class="st8" d="M44.3,19.8c0,0.1,0,0.2,0,0.4c0,0.1,0,0.2,0,0.3c0,0.1,0,0.2,0,0.4c0,0.1,0,0.2,0,0.3s0,0.2,0,0.4
			c0,0.1,0,0.2,0,0.3c0,0.1,0,0.2,0,0.4c0,0.1,0,0.2,0,0.3c0,0.1,0,0.2,0,0.4c0,0.1,0,0.2,0,0.3c0,0.1,0,0.2,0,0.4
			c0,0.1,0,0.2,0,0.3s0,0.2,0,0.4c0,0.1,0,0.2,0,0.3s0,0.2,0,0.4c0,0.1,0,0.1,0,0.2v0.1h-0.1c-0.1,0-0.2,0-0.3,0s-0.2,0-0.3,0
			s-0.2,0-0.4,0c-0.1,0-0.2,0-0.3,0s-0.2,0-0.4,0c-0.1,0-0.2,0-0.3,0s-0.2,0-0.4,0c-0.1,0-0.2,0-0.3,0s-0.2,0-0.4,0
			c-0.1,0-0.2,0-0.3,0s-0.2,0-0.4,0c-0.1,0-0.2,0-0.3,0s-0.2,0-0.4,0c-0.1,0-0.2,0-0.3,0s-0.2,0-0.4,0c-0.1,0-0.1,0-0.2,0h-0.1v-0.1
			c0-0.1,0-0.2,0-0.3c0-0.1,0-0.2,0-0.3c0-0.1,0-0.2,0-0.4c0-0.1,0-0.2,0-0.3s0-0.2,0-0.4c0-0.1,0-0.2,0-0.3c0-0.1,0-0.2,0-0.3
			c0-0.1,0-0.2,0-0.3c0-0.1,0-0.2,0-0.4c0-0.1,0-0.2,0-0.3c0-0.1,0-0.2,0-0.3c0-0.1,0-0.2,0-0.3s0-0.2,0-0.4c0-0.1,0-0.2,0-0.3
			c0-0.1,0-0.2,0-0.3c0-0.1,0-0.2,0-0.3c0-0.1,0-0.2,0-0.3h0.1c0.1,0,0.2,0,0.4,0c0.1,0,0.2,0,0.3,0c0.2,0,0.4,0,0.6,0
			c0.4,0,0.8,0,1.3,0C42.7,19.8,43.5,19.8,44.3,19.8z M41.9,20.5c-0.1,0-0.1,0-0.2,0c-0.1,0-0.2,0-0.3,0s-0.1,0-0.2,0
			c-0.1,0-0.2,0-0.3,0s-0.1,0-0.2,0c-0.1,0-0.2,0-0.3,0s-0.1,0-0.2,0c-0.1,0-0.2,0-0.4,0c0,0.1,0,0.2,0,0.3c0,0.1,0,0.2,0,0.4
			c0,0.1,0,0.1,0,0.2s0,0.2,0,0.3c0,0.1,0,0.2,0,0.4c0,0.1,0,0.1,0,0.2s0,0.2,0,0.3c0,0.1,0,0.2,0,0.4c0,0.1,0,0.1,0,0.2
			s0,0.2,0,0.3c0,0.1,0,0.1,0,0.2s0,0.2,0,0.4v0.1v0.1v0.1v0.1h0.1c0.1,0,0.2,0,0.4,0c0.1,0,0.1,0,0.2,0c0.1,0,0.2,0,0.3,0
			s0.1,0,0.2,0c0.1,0,0.2,0,0.3,0s0.1,0,0.2,0c0.1,0,0.2,0,0.3,0s0.1,0,0.2,0c0.1,0,0.2,0,0.3,0s0.1,0,0.2,0c0.1,0,0.2,0,0.3,0
			s0.1,0,0.2,0c0.2,0,0.3,0,0.5,0c0.1,0,0.2,0,0.3,0c0-0.1,0-0.1,0-0.2s0-0.2,0-0.3c0-0.1,0-0.1,0-0.2s0-0.2,0-0.3
			c0-0.1,0-0.1,0-0.2s0-0.2,0-0.3c0-0.2,0-0.3,0-0.5c0-0.1,0-0.1,0-0.2s0-0.2,0-0.3c0-0.1,0-0.1,0-0.2s0-0.2,0-0.3
			c0-0.2,0-0.3,0-0.5c0-0.1,0-0.1,0-0.2s0-0.2,0-0.3C43,20.5,42.5,20.5,41.9,20.5z"/>
		<path class="st8" d="M27.6,20.5c0,0.1,0,0.2,0,0.4c0,0.1,0,0.2,0,0.3v0.1h-0.1c-0.1,0-0.2,0-0.3,0s-0.2,0-0.3,0h-0.1v-0.1
			c0-0.1,0-0.1,0-0.2v-0.1v-0.1v-0.1v-0.1v-0.1h0.1c0.1,0,0.2,0,0.4,0C27.4,20.5,27.5,20.5,27.6,20.5z"/>
		<path class="st8" d="M35.6,20.5c0,0.2,0,0.5,0,0.7c-0.1,0-0.2,0-0.4,0c-0.1,0-0.2,0-0.3,0h-0.1v-0.1c0-0.1,0-0.1,0-0.2v-0.1v-0.1
			v-0.1v-0.1v-0.1h0.1c0.1,0,0.2,0,0.4,0C35.4,20.5,35.5,20.5,35.6,20.5z"/>
		<path class="st8" d="M36.3,20.5c0.1,0,0.2,0,0.4,0c0.1,0,0.2,0,0.3,0h0.1v0.1c0,0.1,0,0.2,0,0.3c0,0.1,0,0.2,0,0.3v0.1H37
			c-0.1,0-0.2,0-0.4,0c-0.1,0-0.2,0-0.3,0C36.3,21,36.3,20.8,36.3,20.5z"/>
		<path class="st8" d="M37.8,20.6C37.8,20.6,37.8,20.5,37.8,20.6C37.8,20.5,37.9,20.5,37.8,20.6c0.2-0.1,0.3-0.1,0.5-0.1
			c0.1,0,0.1,0,0.2,0h0.1v0.1c0,0.2,0,0.3,0,0.5v0.1v0.1h-0.1h-0.1c-0.1,0-0.2,0-0.4,0h-0.1h-0.1v-0.1v-0.1V21v-0.1v-0.1
			C37.8,20.8,37.8,20.7,37.8,20.6C37.8,20.7,37.8,20.6,37.8,20.6z"/>
		<path class="st8" d="M24,21.3c0,0.4,0,0.7,0,1.1s0,0.7,0,1.1c-0.1,0-0.2,0-0.3,0s-0.2,0-0.3,0s-0.2,0-0.3,0s-0.2,0-0.3,0
			s-0.2,0-0.3,0s-0.2,0-0.3,0s-0.2,0-0.3,0s-0.1,0-0.2,0h-0.1v-0.1v-0.1c0-0.1,0-0.2,0-0.4c0-0.1,0-0.2,0-0.3c0-0.1,0-0.1,0-0.2
			s0-0.2,0-0.3c0-0.1,0-0.1,0-0.2s0-0.2,0-0.3c0-0.1,0-0.2,0-0.4v-0.1h0.1c0.1,0,0.2,0,0.3,0c0.1,0,0.2,0,0.3,0s0.2,0,0.3,0
			s0.2,0,0.3,0c0.1,0,0.2,0,0.3,0c0.1,0,0.2,0,0.3,0c0.1,0,0.2,0,0.3,0C23.9,21.3,23.9,21.3,24,21.3z"/>
		<path class="st8" d="M35.6,21.3c0.2,0,0.5,0,0.7,0c0,0.2,0,0.5,0,0.7c-0.2,0-0.5,0-0.7,0C35.6,21.7,35.6,21.5,35.6,21.3z"/>
		<path class="st8" d="M42.9,21.3c0,0.4,0,0.7,0,1.1s0,0.7,0,1.1c-0.1,0-0.2,0-0.3,0s-0.2,0-0.3,0s-0.2,0-0.3,0s-0.2,0-0.3,0
			s-0.2,0-0.3,0s-0.2,0-0.3,0s-0.2,0-0.3,0s-0.1,0-0.2,0h-0.1v-0.1v-0.1c0-0.1,0-0.2,0-0.4c0-0.1,0-0.2,0-0.3c0-0.1,0-0.1,0-0.2
			s0-0.2,0-0.3c0-0.1,0-0.1,0-0.2s0-0.2,0-0.3c0-0.1,0-0.1,0-0.2s0-0.1,0-0.2v-0.1h0.1c0.1,0,0.2,0,0.3,0s0.2,0,0.3,0s0.2,0,0.3,0
			s0.2,0,0.3,0s0.2,0,0.3,0s0.2,0,0.3,0s0.2,0,0.3,0C42.8,21.3,42.8,21.3,42.9,21.3z"/>
		<path class="st8" d="M29.1,22C29.1,22,29.1,22.1,29.1,22c0,0.2,0,0.3,0,0.5c0,0.1,0,0.1,0,0.2v0.1H29c-0.1,0-0.2,0-0.3,0
			s-0.2,0-0.4,0c-0.1,0-0.2,0-0.4,0c-0.1,0-0.1,0-0.2,0h-0.1h-0.1v0.1V23v0.1v0.1v0.1v0.1v0.1v0.1v0.1c0,0.1,0,0.2,0,0.3
			c0,0.1,0,0.2,0,0.4c-0.1,0-0.2,0-0.4,0c-0.1,0-0.2,0-0.3,0h-0.1v0.1v0.1c0,0.1,0,0.2,0,0.4v0.1v0.1h0.1h0.1H27h0.1h0.1
			c0.1,0,0.2,0,0.3,0c0,0.1,0,0.2,0,0.4c0,0.1,0,0.2,0,0.3V26h-0.1c-0.1,0-0.2,0-0.3,0s-0.2,0-0.4,0c-0.1,0-0.2,0-0.4,0
			c-0.1,0-0.2,0-0.3,0h-0.1v-0.1c0-0.1,0-0.1,0-0.2s0-0.2,0-0.3c0-0.1,0-0.2,0-0.3c0-0.1,0-0.2,0-0.3c0-0.1,0-0.2,0-0.3
			c0-0.1,0-0.2,0-0.3c0-0.1,0-0.2,0-0.3c0-0.1,0-0.2,0-0.3c0.1,0,0.2,0,0.4,0c0.1,0,0.2,0,0.3,0h0.1v-0.1c0-0.1,0-0.1,0-0.2
			c0-0.1,0-0.2,0-0.3v-0.1v-0.1h-0.1h-0.1h-0.1h-0.1h-0.1h-0.1H26h-0.1v-0.1v-0.1c0-0.2,0-0.3,0-0.5V22H26c0.1,0,0.1,0,0.2,0
			c0.1,0,0.2,0,0.4,0c0.1,0,0.2,0,0.3,0s0.2,0,0.4,0c0.1,0,0.2,0,0.3,0c0.1,0,0.2,0,0.4,0c0.2,0,0.2,0,0.4,0c0.1,0,0.2,0,0.4,0
			C28.9,22,29,22,29.1,22z"/>
		<path class="st8" d="M37.1,27.8c0-0.2,0-0.5,0-0.7c-0.1,0-0.2,0-0.3,0h-0.1h-0.1h-0.1h-0.1h-0.1V27v-0.1c0-0.1,0-0.2,0-0.4v-0.1
			v-0.1h0.1c0.1,0,0.2,0,0.3,0s0.2,0,0.4,0c0-0.2,0-0.5,0-0.7c0.1,0,0.2,0,0.4,0c0.1,0,0.2,0,0.3,0h0.1v-0.1c0-0.2,0-0.3,0-0.5
			c0-0.1,0-0.2,0-0.3c0-0.1,0-0.2,0-0.3c0-0.1,0-0.2,0-0.3c0-0.1,0-0.2,0-0.3s0-0.2,0-0.4v-0.1v-0.1H38c0.1,0,0.2,0,0.3,0
			s0.2,0,0.3,0h0.1v0.1c0,0.1,0,0.1,0,0.2s0,0.2,0,0.4c0,0.1,0,0.2,0,0.4c0,0.2,0,0.2,0,0.4c0,0.2,0,0.2,0,0.4c0,0.1,0,0.2,0,0.4
			c0,0.2,0,0.2,0,0.4c0,0.1,0,0.2,0,0.3v0.1v0.1h0.1h0.1H39h0.1h0.1h0.1h0.1h0.1v-0.1v-0.1v-0.1V26c0-0.1,0-0.2,0-0.4
			c0.1,0,0.2,0,0.4,0c0.1,0,0.2,0,0.4,0c0.1,0,0.2,0,0.4,0c0.1,0,0.2,0,0.3,0h0.1v0.1c0,0.1,0,0.2,0,0.3c0,0.1,0,0.2,0,0.4
			c0,0.1,0,0.2,0,0.4c0,0.1,0,0.2,0,0.3v0.1H41c-0.1,0-0.1,0-0.2,0c-0.1,0-0.2,0-0.4,0c-0.1,0-0.2,0-0.4,0s-0.2,0-0.4,0
			c-0.1,0-0.2,0-0.4,0c-0.1,0-0.2,0-0.4,0s-0.2,0-0.4,0c-0.1,0-0.2,0-0.3,0H38h-0.1v0.1v0.1v0.1v0.1v0.1v0.1v0.1V28h-0.1
			c-0.1,0-0.2,0-0.4,0C37.2,27.8,37.2,27.8,37.1,27.8z"/>
		<path class="st8" d="M27.6,24.2c0.2,0,0.5,0,0.7,0c0,0.2,0,0.5,0,0.7c-0.2,0-0.5,0-0.7,0C27.6,24.7,27.6,24.4,27.6,24.2z"/>
		<path class="st8" d="M30.5,24.2c0.2,0,0.5,0,0.7,0c0,0.2,0,0.5,0,0.7c-0.1,0-0.2,0-0.3,0h-0.1h-0.1h-0.1h-0.1h-0.1v-0.1v-0.1
			c0-0.1,0-0.1,0-0.2C30.5,24.4,30.5,24.3,30.5,24.2z"/>
		<path class="st8" d="M32,24.2c0.1,0,0.2,0,0.3,0h0.1h0.1h0.1h0.1h0.1v0.1v0.1c0,0.1,0,0.1,0,0.2s0,0.2,0,0.4s0,0.2,0,0.4
			s0,0.2,0,0.4c-0.2,0-0.5,0-0.7,0c0,0.1,0,0.2,0,0.4c0,0.2,0,0.2,0,0.4c0,0.1,0,0.2,0,0.4c0,0.1,0,0.2,0,0.3v0.1H32h-0.1
			c-0.2,0-0.3,0-0.5,0h-0.1v-0.1c0-0.1,0-0.2,0-0.3c0-0.1,0-0.2,0-0.4c-0.2,0-0.5,0-0.7,0c0-0.2,0-0.5,0-0.7c0.2,0,0.5,0,0.7,0
			c0-0.2,0-0.5,0-0.7c0.2,0,0.5,0,0.7,0C32,24.7,32,24.4,32,24.2z"/>
		<path class="st8" d="M28.3,24.9c0.2,0,0.5,0,0.7,0c0,0.1,0,0.2,0,0.4c0,0.2,0,0.2,0,0.4c0,0.1,0,0.2,0,0.4c0,0.1,0,0.2,0,0.4
			c0,0.2,0,0.2,0,0.4c0,0.1,0,0.2,0,0.4c0,0.2,0,0.2,0,0.4c0,0.1,0,0.2,0,0.3v0.1h-0.1c-0.1,0-0.2,0-0.3,0c-0.1,0-0.2,0-0.4,0
			c0-0.1,0-0.2,0-0.4c0-0.1,0-0.2,0-0.3v-0.1h-0.1c-0.1,0-0.2,0-0.3,0c-0.1,0-0.2,0-0.4,0c-0.1,0-0.2,0-0.4,0c-0.1,0-0.2,0-0.3,0
			h-0.1v0.1c0,0.1,0,0.2,0,0.3s0,0.2,0,0.3v0.1h0.1c0.1,0,0.2,0,0.3,0s0.2,0,0.4,0c0.1,0,0.2,0,0.4,0c0.1,0,0.2,0,0.4,0
			c0,0.5,0,1,0,1.5c-0.2,0-0.5,0-0.7,0c0-0.1,0-0.2,0-0.4c0-0.1,0-0.2,0-0.3v-0.1h-0.1c-0.1,0-0.2,0-0.3,0c-0.1,0-0.2,0-0.4,0
			c-0.2,0-0.2,0-0.4,0c-0.1,0-0.2,0-0.3,0h-0.1v-0.1c0-0.1,0-0.2,0-0.3c0-0.1,0-0.2,0-0.4c0-0.2,0-0.2,0-0.4c0-0.1,0-0.1,0-0.2v-0.1
			v-0.1h-0.1h-0.1h-0.1h-0.1h-0.1c-0.1,0-0.2,0-0.3,0c0-0.2,0-0.5,0-0.7c0.1,0,0.2,0,0.3,0s0.2,0,0.4,0c0.2,0,0.2,0,0.4,0
			c0.1,0,0.2,0,0.4,0c0.1,0,0.2,0,0.4,0c0.2,0,0.2,0,0.4,0c0.1,0,0.2,0,0.4,0c0.1,0,0.2,0,0.3,0h0.1h0.1v-0.1v-0.1v-0.1v-0.1V26
			v-0.1v-0.1c0-0.2,0-0.3,0-0.5v-0.1v-0.1C28.3,25,28.3,25,28.3,24.9z"/>
		<path class="st8" d="M22.5,25.6c0,0.1,0,0.2,0,0.3c0,0.1,0,0.2,0,0.3s0,0.2,0,0.3c0,0.1,0,0.2,0,0.3c0,0.1,0,0.2,0,0.3
			c0,0.1,0,0.2,0,0.3c0,0.1,0,0.2,0,0.3c0,0.1,0,0.1,0,0.2V28h-0.1c-0.1,0-0.2,0-0.3,0s-0.2,0-0.3,0h-0.1v-0.1c0-0.1,0-0.2,0-0.3
			s0-0.2,0-0.4c0-0.2,0-0.2,0-0.4c0-0.1,0-0.2,0-0.4c-0.1,0-0.2,0-0.4,0c-0.1,0-0.2,0-0.3,0h-0.1v-0.1v-0.1c0-0.1,0-0.2,0-0.3
			c0-0.1,0-0.1,0-0.2v-0.1H21c0.1,0,0.2,0,0.4,0c0.1,0,0.2,0,0.4,0c0.2,0,0.2,0,0.4,0C22.4,25.6,22.4,25.6,22.5,25.6z"/>
		<path class="st8" d="M25.4,26.4L25.4,26.4c-0.1,0-0.2,0-0.2,0c-0.1,0-0.1,0-0.2,0c-0.1,0-0.2,0-0.3,0h-0.1v-0.1v-0.1
			c0-0.2,0-0.3,0-0.5v-0.1h0.1c0.1,0,0.1,0,0.2,0H25h0.1h0.1h0.1h0.1v0.1c0,0.1,0,0.2,0,0.4C25.4,26.2,25.4,26.3,25.4,26.4z"/>
		<path class="st8" d="M42.9,27.1c0,0.2,0,0.5,0,0.7c-0.2,0-0.5,0-0.7,0c0,0.2,0,0.5,0,0.7c-0.7,0-1.5,0-2.2,0c0-0.1,0-0.2,0-0.4
			c0-0.1,0-0.2,0-0.3v-0.1h0.1c0.1,0,0.1,0,0.2,0c0.1,0,0.2,0,0.4,0c0.1,0,0.2,0,0.4,0c0.1,0,0.2,0,0.3,0h0.1h0.1v-0.1v-0.1v-0.1
			v-0.1v-0.1v-0.1c0-0.1,0-0.2,0-0.3v-0.1v-0.1v-0.1c0-0.1,0-0.1,0-0.2s0-0.2,0-0.3c0-0.1,0-0.2,0-0.3s0-0.2,0-0.3v-0.1h0.1
			c0.1,0,0.2,0,0.3,0s0.2,0,0.3,0h0.1v0.1c0,0.1,0,0.1,0,0.2s0,0.2,0,0.4s0,0.2,0,0.4c0,0.1,0,0.2,0,0.3v0.1v0.1h0.1h0.1h0.1h0.1
			h0.1H43C42.8,27.1,42.8,27.1,42.9,27.1z"/>
		<path class="st8" d="M30.5,26.4c0,0.1,0,0.2,0,0.3v0.1v0.1V27v0.1v0.1h-0.1h-0.1h-0.1h-0.1H30h-0.1h-0.1h-0.1v-0.1V27
			c0-0.1,0-0.1,0-0.2s0-0.2,0-0.3v-0.1h0.1c0.1,0,0.2,0,0.3,0C30.3,26.4,30.4,26.4,30.5,26.4z"/>
		<path class="st8" d="M43.6,27.8c0-0.1,0-0.2,0-0.4c0-0.1,0-0.1,0-0.2v-0.1V27h-0.1h-0.1h-0.1h-0.1h-0.1c-0.1,0-0.2,0-0.3,0
			c0-0.1,0-0.2,0-0.4c0-0.1,0-0.2,0-0.3v-0.1h0.1c0.1,0,0.2,0,0.3,0s0.2,0,0.4,0c0.1,0,0.2,0,0.4,0c0.1,0,0.2,0,0.3,0h0.1v0.1
			c0,0.1,0,0.2,0,0.3c0,0.1,0,0.2,0,0.4c0,0.1,0,0.2,0,0.4c0,0.1,0,0.2,0,0.3v0.1h-0.1c-0.1,0-0.2,0-0.4,0
			C43.8,27.8,43.7,27.8,43.6,27.8z"/>
		<path class="st8" d="M39.2,28.5L39.2,28.5c-0.1,0-0.2,0-0.2,0c-0.1,0-0.1,0-0.2,0c-0.1,0-0.2,0-0.3,0h-0.1v-0.1c0-0.1,0-0.2,0-0.3
			c0-0.1,0-0.2,0-0.3v-0.1h0.1c0.1,0,0.2,0,0.3,0h0.1H39h0.1h0.1v0.1c0,0.1,0,0.2,0,0.4C39.2,28.4,39.2,28.4,39.2,28.5z"/>
		<path class="st8" d="M42.9,27.8c0.2,0,0.5,0,0.7,0c0,0.2,0,0.5,0,0.7c0.2,0,0.5,0,0.7,0c0,0.1,0,0.2,0,0.3c0,0.1,0,0.2,0,0.3
			c0,0.1,0,0.2,0,0.3s0,0.2,0,0.3s0,0.2,0,0.3c0,0.1,0,0.2,0,0.3c0,0.1,0,0.2,0,0.4v0.1v0.1h-0.1c-0.1,0-0.2,0-0.3,0h-0.1h-0.1h-0.1
			h-0.1v-0.1c0-0.1,0-0.2,0-0.3c0-0.1,0-0.2,0-0.4c-0.2,0-0.5,0-0.7,0c0-0.3,0-0.7,0-1C42.9,28.6,42.9,28.3,42.9,27.8
			C42.9,27.9,42.9,27.8,42.9,27.8z"/>
		<path class="st8" d="M25.4,31.4c0,0.1,0,0.2,0,0.3v0.1v0.1V32v0.1v0.1h-0.1h-0.1h-0.1H25h-0.1h-0.1h-0.1h-0.1v-0.1V32
			c0-0.1,0-0.1,0-0.2s0-0.2,0-0.3v-0.1h0.1c0.1,0,0.1,0,0.2,0C25.1,31.4,25.2,31.4,25.4,31.4L25.4,31.4z"/>
		<path class="st8" d="M43.6,32.2C43.6,32.2,43.5,32.2,43.6,32.2c-0.1,0-0.2,0-0.2,0c-0.2,0-0.3,0-0.5,0h-0.1v-0.1V32
			c0-0.2,0-0.3,0-0.5v-0.1h0.1c0.1,0,0.2,0,0.3,0h0.1h0.1h0.1h0.1v0.1c0,0.1,0,0.2,0,0.4C43.6,32,43.6,32.1,43.6,32.2z"/>
		<path class="st8" d="M43.6,32.2c0.2,0,0.5,0,0.7,0c0,0.8,0,1.7,0,2.5s0,1.7,0,2.5c-0.2,0-0.5,0-0.7,0c0-1,0-1.9,0-2.9
			c-0.2,0-0.5,0-0.7,0c0-0.2,0-0.5,0-0.7c0.1,0,0.2,0,0.4,0c0.1,0,0.2,0,0.3,0h0.1v-0.1c0-0.1,0-0.1,0-0.2c0-0.1,0-0.2,0-0.3
			s0-0.2,0-0.3S43.7,32.5,43.6,32.2C43.6,32.3,43.6,32.3,43.6,32.2z"/>
		<path class="st8" d="M22.5,32.9c0,0.1,0,0.2,0,0.3s0,0.2,0,0.3s0,0.2,0,0.3s0,0.2,0,0.3s0,0.2,0,0.3s0,0.2,0,0.3s0,0.2,0,0.4v0.1
			v0.1h0.1c0.1,0,0.2,0,0.3,0s0.2,0,0.4,0c0.1,0,0.2,0,0.4,0c0.2,0,0.2,0,0.4,0c0,0.1,0,0.2,0,0.4c0,0.1,0,0.2,0,0.3v0.1h0.1
			c0.1,0,0.1,0,0.2,0c0.1,0,0.2,0,0.3,0s0.2,0,0.3,0s0.2,0,0.3,0s0.2,0,0.3,0s0.2,0,0.3,0s0.2,0,0.3,0s0.2,0,0.3,0
			c0,0.2,0,0.5,0,0.7c0.2,0,0.5,0,0.7,0c0,0.1,0,0.2,0,0.3s0,0.2,0,0.3s0,0.2,0,0.3s0,0.2,0,0.3s0,0.2,0,0.3s0,0.2,0,0.3
			s0,0.2,0,0.4v0.1v0.1h-0.1H27c-0.2,0-0.3,0-0.5,0h-0.1v-0.1c0-0.1,0-0.1,0-0.2c0-0.1,0-0.2,0-0.4c0-0.1,0-0.2,0-0.4
			c0-0.1,0-0.2,0-0.3v-0.1v-0.1h-0.1h-0.1h-0.1H26c-0.1,0-0.2,0-0.4,0c0-0.1,0-0.2,0-0.4c0-0.1,0-0.2,0-0.3v-0.1h-0.1
			c-0.1,0-0.2,0-0.3,0s-0.2,0-0.4,0c-0.1,0-0.2,0-0.4,0c-0.1,0-0.2,0-0.3,0H24v0.1c0,0.1,0,0.2,0,0.3s0,0.2,0,0.4c0,0.1,0,0.2,0,0.4
			c0,0.1,0,0.2,0,0.3v0.1h-0.1c-0.1,0-0.2,0-0.3,0s-0.2,0-0.3,0h-0.1v-0.1c0-0.1,0-0.1,0-0.2c0-0.1,0-0.2,0-0.4c0-0.1,0-0.2,0-0.4
			c0-0.1,0-0.2,0-0.3v-0.1v-0.1h-0.1H23h-0.1h-0.1c-0.1,0-0.2,0-0.4,0c0-0.1,0-0.2,0-0.4c0-0.1,0-0.2,0-0.3V36h-0.1
			c-0.1,0-0.2,0-0.3,0c-0.1,0-0.2,0-0.4,0c0-0.1,0-0.2,0-0.4c0-0.1,0-0.2,0-0.3v-0.1h-0.1c-0.1,0-0.2,0-0.3,0c-0.1,0-0.2,0-0.4,0
			c-0.2,0-0.2,0-0.4,0c-0.1,0-0.2,0-0.3,0H20v-0.1c0-0.1,0-0.2,0-0.3s0-0.2,0-0.4c0-0.1,0-0.2,0-0.4c0-0.1,0-0.2,0-0.4
			c0.2,0,0.5,0,0.7,0c0-0.1,0-0.2,0-0.4c0-0.1,0-0.2,0-0.3v-0.1h0.1c0.1,0,0.1,0,0.2,0c0.1,0,0.2,0,0.3,0s0.2,0,0.3,0s0.2,0,0.4,0
			C22.4,32.9,22.4,32.9,22.5,32.9z"/>
		<path class="st8" d="M25.4,33.6c-0.1,0-0.2,0-0.3,0H25h-0.1h-0.1h-0.1h-0.1v-0.1v-0.1c0-0.1,0-0.2,0-0.3V33v-0.1v-0.1h0.1h0.1
			c0.1,0,0.1,0,0.2,0c0.1,0,0.2,0,0.3,0h0.1v0.1c0,0.1,0,0.2,0,0.3C25.4,33.4,25.4,33.5,25.4,33.6z"/>
		<path class="st8" d="M27.6,32.9c0,0.1,0,0.2,0,0.4v0.1v0.1v0.1v0.1h0.1h0.1h0.1H28h0.1h0.1h0.1h0.1v0.1c0,0.1,0,0.2,0,0.3v0.1v0.1
			v0.1v0.1h-0.1c-0.1,0-0.2,0-0.3,0s-0.2,0-0.4,0c0,0.1,0,0.2,0,0.4c0,0.1,0,0.2,0,0.3v0.1h-0.1c-0.1,0-0.2,0-0.3,0s-0.2,0-0.3,0
			h-0.1v-0.1c0-0.1,0-0.1,0-0.2c0-0.1,0-0.2,0-0.4s0-0.2,0-0.4c0-0.1,0-0.2,0-0.3v-0.1v-0.1h-0.1h-0.1h-0.1h-0.1c-0.1,0-0.2,0-0.4,0
			c0-0.1,0-0.2,0-0.3v-0.1v-0.1v-0.1V33v-0.1h0.1h0.1c0.1,0,0.1,0,0.2,0c0.1,0,0.2,0,0.4,0c0.1,0,0.2,0,0.4,0
			C27.4,32.9,27.5,32.9,27.6,32.9z"/>
		<path class="st8" d="M25.4,33.6c0.2,0,0.5,0,0.7,0c0,0.1,0,0.2,0,0.4c0,0.1,0,0.2,0,0.4s0,0.2,0,0.4c0,0.1,0,0.2,0,0.3v0.1H26
			c-0.1,0-0.1,0-0.2,0c-0.1,0-0.2,0-0.3,0s-0.2,0-0.3,0s-0.2,0-0.3,0s-0.2,0-0.3,0s-0.2,0-0.3,0s-0.2,0-0.3,0s-0.2,0-0.3,0
			c0-0.1,0-0.2,0-0.3v-0.1v-0.1v-0.1v-0.1v-0.1h0.1h0.1c0.1,0,0.1,0,0.2,0c0.1,0,0.2,0,0.4,0c0.1,0,0.2,0,0.4,0c0.1,0,0.2,0,0.3,0
			h0.1v-0.1c0-0.1,0-0.2,0-0.3C25.4,33.9,25.4,33.7,25.4,33.6z"/>
		<path class="st8" d="M29.1,35.2C29.1,35.2,29.1,35.1,29.1,35.2C29.1,35.1,29.1,35.1,29.1,35.2c0.2-0.1,0.3-0.1,0.5-0.1
			c0.1,0,0.1,0,0.2,0h0.1v0.1c0,0.1,0,0.2,0,0.3s0,0.2,0,0.3v0.1h-0.1h-0.1c-0.1,0-0.2,0-0.4,0h-0.1h-0.1v-0.1v-0.1v-0.1v-0.1v-0.1
			C29.1,35.3,29.1,35.3,29.1,35.2L29.1,35.2z"/>
		<path class="st8" d="M37.1,35.8c-0.2,0-0.5,0-0.7,0c0-0.1,0-0.2,0-0.3v-0.1v-0.1v-0.1v-0.1V35h0.1h0.1c0.1,0,0.2,0,0.4,0h0.1h0.1
			v0.1c0,0.1,0,0.1,0,0.2C37.1,35.5,37.1,35.6,37.1,35.8C37.1,35.7,37.1,35.8,37.1,35.8z"/>
		<path class="st8" d="M21.8,35.8c0,0.2,0,0.5,0,0.7c-0.1,0-0.2,0-0.4,0c-0.1,0-0.2,0-0.4,0c-0.1,0-0.2,0-0.4,0c-0.1,0-0.2,0-0.3,0
			h-0.1v-0.1c0-0.1,0-0.2,0-0.3s0-0.2,0-0.3v-0.1h0.1c0.1,0,0.2,0,0.3,0s0.1,0,0.2,0c0.1,0,0.2,0,0.3,0s0.2,0,0.4,0
			C21.6,35.8,21.7,35.8,21.8,35.8z"/>
		<path class="st8" d="M34.2,35.8c0.7,0,1.5,0,2.2,0c0,0.2,0,0.5,0,0.7c-0.1,0-0.2,0-0.4,0c-0.1,0-0.2,0-0.3,0h-0.1v0.1
			c0,0.1,0,0.2,0,0.3s0,0.2,0,0.4c0,0.1,0,0.2,0,0.4c0,0.1,0,0.2,0,0.4c-0.1,0-0.2,0-0.4,0c-0.1,0-0.2,0-0.3,0h-0.1v0.1
			c0,0.1,0,0.2,0,0.3s0,0.2,0,0.4c0,0.1,0,0.2,0,0.4c0,0.1,0,0.2,0,0.4c-0.2,0-0.5,0-0.7,0c0-0.1,0-0.2,0-0.4c0-0.1,0-0.2,0-0.3
			v-0.1H34c-0.1,0-0.2,0-0.3,0s-0.2,0-0.3,0h-0.1V39v0.1c0,0.1,0,0.2,0,0.4v0.1v0.1h0.1h0.1h0.1h0.1h0.1c0.1,0,0.2,0,0.3,0
			c0,0.1,0,0.2,0,0.4c0,0.1,0,0.2,0,0.3v0.1h0.1c0.1,0,0.2,0,0.3,0s0.2,0,0.4,0c0,0.5,0,1,0,1.5c0.1,0,0.2,0,0.4,0
			c0.1,0,0.2,0,0.3,0h0.1v0.1c0,0.1,0,0.2,0,0.3s0,0.2,0,0.3v0.1h-0.1c-0.1,0-0.1,0-0.2,0c-0.1,0-0.2,0-0.3,0s-0.2,0-0.3,0
			s-0.2,0-0.3,0s-0.2,0-0.3,0s-0.2,0-0.3,0s-0.2,0-0.3,0s-0.2,0-0.3,0c0-0.1,0-0.2,0-0.4c0-0.1,0-0.2,0-0.3V42h-0.1
			c-0.1,0-0.2,0-0.3,0s-0.2,0-0.4,0c-0.1,0-0.2,0-0.4,0c-0.1,0-0.2,0-0.4,0c0-0.2,0-0.5,0-0.7c0.1,0,0.2,0,0.4,0c0.1,0,0.2,0,0.4,0
			c0.1,0,0.2,0,0.4,0c0.1,0,0.1,0,0.2,0h0.1h0.1v-0.1v-0.1V41v-0.1v-0.1v-0.1v-0.1v-0.1h-0.1c-0.1,0-0.2,0-0.3,0s-0.2,0-0.4,0
			c-0.1,0-0.2,0-0.4,0c-0.1,0-0.2,0-0.4,0c0-0.1,0-0.2,0-0.4c0-0.1,0-0.2,0-0.3v-0.1h-0.1c-0.1,0-0.2,0-0.3,0s-0.2,0-0.4,0
			c0-0.5,0-1,0-1.5c0.5,0,1,0,1.5,0c0-0.2,0-0.5,0-0.7c0.1,0,0.2,0,0.3,0s0.2,0,0.3,0s0.2,0,0.3,0s0.2,0,0.3,0s0.2,0,0.3,0
			s0.2,0,0.3,0s0.2,0,0.4,0h0.1h0.1v-0.1c0-0.1,0-0.2,0-0.3s0-0.2,0-0.3v-0.1h-0.1h-0.1h-0.1h-0.1h-0.1h-0.1h-0.1H34v-0.1v-0.1
			c0-0.1,0-0.1,0-0.2C34.2,36,34.2,35.9,34.2,35.8z"/>
		<path class="st8" d="M21.8,36.5c0.2,0,0.5,0,0.7,0c0,0.1,0,0.2,0,0.4c0,0.1,0,0.2,0,0.4c0,0.1,0,0.2,0,0.4c0,0.1,0,0.2,0,0.3v0.1
			h-0.1c-0.1,0-0.1,0-0.2,0c-0.1,0-0.2,0-0.3,0c-0.1,0-0.2,0-0.3,0s-0.2,0-0.3,0s-0.2,0-0.3,0c-0.1,0-0.2,0-0.3,0
			c-0.1,0-0.2,0-0.4,0h-0.1h-0.1V38c0-0.1,0-0.2,0-0.3s0-0.2,0-0.3v-0.1h0.1c0.1,0,0.1,0,0.2,0c0.1,0,0.2,0,0.4,0c0.1,0,0.2,0,0.4,0
			c0.1,0,0.2,0,0.4,0h0.1C21.8,37,21.8,36.8,21.8,36.5z"/>
		<path class="st8" d="M36.3,36.5c0.2,0,0.5,0,0.7,0c0,0.1,0,0.2,0,0.3v0.1V37v0.1v0.1v0.1h-0.1h-0.1c-0.1,0-0.2,0-0.4,0h-0.1h-0.1
			v-0.1c0-0.1,0-0.1,0-0.2C36.3,36.9,36.3,36.7,36.3,36.5C36.3,36.6,36.3,36.6,36.3,36.5z"/>
		<path class="st8" d="M25.4,37.3c0,0.1,0,0.2,0,0.4c0,0.1,0,0.2,0,0.3v0.1h-0.1c-0.1,0-0.2,0-0.3,0s-0.2,0-0.3,0h-0.1V38
			c0-0.1,0-0.1,0-0.2v-0.1v-0.1v-0.1v-0.1v-0.1h0.1c0.1,0,0.2,0,0.4,0C25.3,37.3,25.3,37.3,25.4,37.3z"/>
		<path class="st8" d="M28.3,37.3c0,0.2,0,0.5,0,0.7c-0.1,0-0.2,0-0.4,0c-0.1,0-0.2,0-0.3,0h-0.1v-0.1c0-0.1,0-0.1,0-0.2v-0.1v-0.1
			v-0.1v-0.1v-0.1h0.1c0.1,0,0.2,0,0.4,0C28.2,37.3,28.3,37.3,28.3,37.3z"/>
		<path class="st8" d="M43.6,37.3c0,0.1,0,0.2,0,0.4v0.1v0.1V38v0.1h0.1h0.1h0.1H44c0.1,0,0.2,0,0.4,0c0,0.7,0,1.5,0,2.2
			c-0.5,0-1,0-1.5,0c0-0.2,0-0.5,0-0.7c0.1,0,0.2,0,0.4,0c0.1,0,0.1,0,0.2,0h0.1h0.1v-0.1c0-0.1,0-0.2,0-0.3s0-0.1,0-0.2v-0.1v-0.1
			h-0.1h-0.1h-0.1h-0.1h-0.1c-0.1,0-0.2,0-0.3,0c0-0.1,0-0.2,0-0.4c0-0.1,0-0.2,0-0.4s0-0.2,0-0.4c0-0.1,0-0.2,0-0.3v-0.1H43
			c0.1,0,0.2,0,0.3,0C43.4,37.3,43.5,37.3,43.6,37.3z"/>
		<path class="st8" d="M28.3,38c0.2,0,0.5,0,0.7,0c0,0.1,0,0.2,0,0.4c0,0.1,0,0.2,0,0.3v0.1h0.1c0.1,0,0.2,0,0.3,0s0.2,0,0.4,0
			c0,0.2,0,0.5,0,0.7c-0.1,0-0.2,0-0.4,0c-0.1,0-0.1,0-0.2,0h-0.1H29v0.1c0,0.1,0,0.2,0,0.3s0,0.2,0,0.4c0,0.1,0,0.2,0,0.4
			c0,0.1,0,0.2,0,0.4c-0.2,0-0.5,0-0.7,0c0-0.1,0-0.2,0-0.3s0-0.2,0-0.4c0-0.1,0-0.2,0-0.4c0-0.1,0-0.2,0-0.3v-0.1v-0.1h-0.1h-0.1
			H28h-0.1c-0.1,0-0.2,0-0.4,0c0-0.2,0-0.5,0-0.7c0.2,0,0.5,0,0.7,0C28.3,38.5,28.3,38.2,28.3,38z"/>
		<path class="st8" d="M29.8,38c0.2,0,0.5,0,0.7,0c0,0.1,0,0.2,0,0.4c0,0.1,0,0.1,0,0.2v0.1v0.1h-0.1h-0.1c-0.1,0-0.2,0-0.4,0
			c-0.1,0-0.1,0-0.2,0C29.8,38.5,29.8,38.2,29.8,38z"/>
		<path class="st8" d="M35.6,38c0.1,0,0.2,0,0.4,0c0.1,0,0.2,0,0.3,0h0.1v0.1c0,0.1,0,0.2,0,0.3s0,0.2,0,0.4c-0.1,0-0.2,0-0.3,0H36
			h-0.1h-0.1h-0.1h-0.1v-0.1v-0.1c0-0.1,0-0.1,0-0.2C35.6,38.2,35.6,38.1,35.6,38z"/>
		<path class="st8" d="M25.4,38.7c0,0.1,0,0.2,0,0.4c0,0.1,0,0.2,0,0.3s0,0.2,0,0.4c0,0.1,0,0.2,0,0.3s0,0.2,0,0.4
			c0,0.1,0,0.2,0,0.3s0,0.2,0,0.4c0,0.1,0,0.2,0,0.3s0,0.2,0,0.4c0,0.1,0,0.2,0,0.3s0,0.2,0,0.4c0,0.1,0,0.2,0,0.3s0,0.2,0,0.4
			c0,0.1,0,0.2,0,0.3s0,0.2,0,0.4c0,0.1,0,0.1,0,0.2v0.1h-0.1c-0.1,0-0.2,0-0.3,0s-0.2,0-0.3,0s-0.2,0-0.4,0c-0.1,0-0.2,0-0.3,0
			c-0.1,0-0.2,0-0.4,0c-0.1,0-0.2,0-0.3,0s-0.2,0-0.4,0c-0.1,0-0.2,0-0.3,0c-0.1,0-0.2,0-0.4,0c-0.1,0-0.2,0-0.3,0s-0.2,0-0.4,0
			c-0.1,0-0.2,0-0.3,0c-0.1,0-0.2,0-0.4,0c-0.1,0-0.2,0-0.3,0s-0.2,0-0.4,0c-0.1,0-0.1,0-0.2,0h-0.1v-0.1c0-0.1,0-0.2,0-0.3
			s0-0.2,0-0.3s0-0.2,0-0.4c0-0.1,0-0.2,0-0.3s0-0.2,0-0.4c0-0.1,0-0.2,0-0.3s0-0.2,0-0.3s0-0.2,0-0.3s0-0.2,0-0.4
			c0-0.1,0-0.2,0-0.3s0-0.2,0-0.3s0-0.2,0-0.3s0-0.2,0-0.4c0-0.1,0-0.2,0-0.3s0-0.2,0-0.3s0-0.1,0-0.2c0-0.1,0-0.2,0-0.4h0.1
			c0.1,0,0.2,0,0.4,0c0.1,0,0.2,0,0.3,0c0.1,0,0.2,0,0.4,0c0.1,0,0.2,0,0.3,0c0.4,0,0.8,0,1.3,0c0.2,0,0.4,0,0.6,0s0.4,0,0.6,0
			c0.1,0,0.2,0,0.4,0c0.1,0,0.2,0,0.3,0c0.1,0,0.2,0,0.3,0C25.3,38.7,25.3,38.7,25.4,38.7z M23.9,39.4c-0.1,0-0.1,0-0.2,0
			c-0.1,0-0.2,0-0.3,0c-0.2,0-0.3,0-0.5,0c-0.1,0-0.1,0-0.2,0c-0.1,0-0.2,0-0.3,0c-0.1,0-0.1,0-0.2,0c-0.1,0-0.2,0-0.3,0
			c-0.2,0-0.3,0-0.5,0s-0.3,0-0.5,0h-0.1v0.1c0,0.1,0,0.1,0,0.2c0,0.1,0,0.2,0,0.4c0,0.1,0,0.1,0,0.2c0,0.1,0,0.2,0,0.3s0,0.2,0,0.4
			c0,0.1,0,0.1,0,0.2c0,0.1,0,0.2,0,0.3s0,0.2,0,0.4c0,0.1,0,0.1,0,0.2c0,0.1,0,0.2,0,0.3c0,0.2,0,0.3,0,0.5V43v0.1v0.1v0.1v0.1h0.1
			c0.1,0,0.2,0,0.4,0c0.1,0,0.1,0,0.2,0c0.1,0,0.2,0,0.3,0c0.1,0,0.1,0,0.2,0c0.1,0,0.2,0,0.3,0c0.1,0,0.1,0,0.2,0
			c0.1,0,0.2,0,0.3,0c0.1,0,0.1,0,0.2,0c0.1,0,0.2,0,0.3,0c0.1,0,0.1,0,0.2,0c0.1,0,0.2,0,0.3,0c0.1,0,0.1,0,0.2,0
			c0.1,0,0.2,0,0.3,0c0.1,0,0.1,0,0.2,0c0.1,0,0.2,0,0.3,0c0-0.1,0-0.1,0-0.2c0-0.2,0-0.3,0-0.5c0-0.1,0-0.2,0-0.3s0-0.1,0-0.2
			c0-0.1,0-0.2,0-0.3s0-0.1,0-0.2c0-0.1,0-0.2,0-0.3s0-0.1,0-0.2c0-0.1,0-0.2,0-0.3s0-0.1,0-0.2c0-0.1,0-0.2,0-0.3s0-0.1,0-0.2
			c0-0.1,0-0.2,0-0.3s0-0.1,0-0.2c0-0.1,0-0.2,0-0.3C24.4,39.4,24.2,39.4,23.9,39.4z"/>
		<path class="st8" d="M36.3,38.7c0.1,0,0.2,0,0.3,0h0.1h0.1h0.1H37h0.1v0.1v0.1V39v0.1v0.1v0.1v0.1v0.1H37h-0.1c-0.1,0-0.1,0-0.2,0
			c-0.1,0-0.2,0-0.3,0h-0.1v-0.1c0-0.1,0-0.2,0-0.3C36.3,39,36.3,38.8,36.3,38.7z"/>
		<path class="st8" d="M39.2,38.8C39.3,38.8,39.2,38.7,39.2,38.8C39.3,38.7,39.3,38.7,39.2,38.8c0.2-0.1,0.3-0.1,0.5-0.1
			c0.1,0,0.1,0,0.2,0H40v0.1c0,0.1,0,0.2,0,0.3s0,0.1,0,0.2v0.1v0.1h-0.1h-0.1h-0.1c-0.1,0-0.2,0-0.3,0h-0.1h-0.1v-0.1v-0.1v-0.1
			v-0.1V39C39.2,39,39.2,38.9,39.2,38.8C39.2,38.9,39.2,38.8,39.2,38.8z"/>
		<path class="st8" d="M27.6,39.4c0,0.1,0,0.2,0,0.4c0,0.1,0,0.2,0,0.3v0.1h-0.1c-0.1,0-0.2,0-0.3,0s-0.2,0-0.3,0h-0.1v-0.1
			c0-0.1,0-0.1,0-0.2v-0.1v-0.1v-0.1v-0.1v-0.1h0.1H27c0.1,0,0.2,0,0.3,0C27.4,39.4,27.5,39.4,27.6,39.4z"/>
		<path class="st8" d="M29.8,39.4c0.5,0,1,0,1.5,0c0,0.2,0,0.5,0,0.7c-0.1,0-0.2,0-0.4,0c-0.1,0-0.1,0-0.2,0h-0.1h-0.1v0.1v0.1v0.1
			v0.1v0.1c0,0.1,0,0.2,0,0.3c-0.1,0-0.2,0-0.3,0h-0.1H30h-0.1h-0.1h-0.1v-0.1v-0.1c0-0.1,0-0.1,0-0.2c0-0.1,0-0.2,0-0.3
			s0-0.2,0-0.3s0-0.1,0-0.2C29.8,39.7,29.8,39.6,29.8,39.4C29.8,39.5,29.8,39.5,29.8,39.4z"/>
		<path class="st8" d="M34.9,39.4c0.1,0,0.2,0,0.4,0c0.1,0,0.2,0,0.3,0h0.1v0.1c0,0.1,0,0.2,0,0.3s0,0.2,0,0.4c-0.2,0-0.5,0-0.7,0
			C34.9,39.9,34.9,39.7,34.9,39.4z"/>
		<path class="st8" d="M21.8,40.2c0.1,0,0.2,0,0.4,0c0.1,0,0.2,0,0.3,0s0.2,0,0.3,0s0.2,0,0.3,0c0.2,0,0.4,0,0.5,0
			c0.1,0,0.2,0,0.3,0s0.1,0,0.2,0c0,0.1,0,0.2,0,0.3s0,0.2,0,0.3s0,0.2,0,0.3s0,0.2,0,0.3s0,0.2,0,0.3s0,0.2,0,0.3s0,0.2,0,0.3
			s0,0.1,0,0.2v0.1H24h-0.1c-0.1,0-0.2,0-0.4,0c-0.1,0-0.2,0-0.3,0s-0.2,0-0.3,0s-0.2,0-0.3,0s-0.2,0-0.3,0s-0.2,0-0.3,0
			s-0.1,0-0.2,0h-0.1v-0.1v-0.1c0-0.1,0-0.2,0-0.4c0-0.1,0-0.2,0-0.3s0-0.1,0-0.2c0-0.1,0-0.2,0-0.3s0-0.1,0-0.2c0-0.1,0-0.2,0-0.3
			s0-0.1,0-0.2C21.8,40.3,21.8,40.3,21.8,40.2z"/>
		<path class="st8" d="M31.3,40.2c0.2,0,0.5,0,0.7,0c0,0.2,0,0.5,0,0.7c-0.2,0-0.5,0-0.7,0C31.3,40.6,31.3,40.4,31.3,40.2z"/>
		<path class="st8" d="M35.6,40.2c0.1,0,0.2,0,0.3,0H36h0.1h0.1h0.1h0.1v0.1v0.1c0,0.1,0,0.1,0,0.2c0,0.1,0,0.2,0,0.4
			c-0.1,0-0.2,0-0.4,0h-0.1h-0.1h-0.1h-0.1v-0.1c0-0.1,0-0.2,0-0.4C35.6,40.3,35.6,40.3,35.6,40.2z"/>
		<path class="st8" d="M28.3,40.9c0,0.2,0,0.5,0,0.7c-0.2,0-0.5,0-0.7,0c0,0.2,0,0.5,0,0.7c-0.2,0-0.5,0-0.7,0c0,0.1,0,0.2,0,0.4
			c0,0.1,0,0.2,0,0.3v0.1h-0.1h-0.1c-0.2,0-0.3,0-0.5,0h-0.1V43c0-0.1,0-0.2,0-0.3s0-0.2,0-0.4c0-0.1,0-0.2,0-0.4c0-0.1,0-0.2,0-0.4
			c0.2,0,0.5,0,0.7,0c0-0.1,0-0.2,0-0.4c0-0.1,0-0.2,0-0.3v-0.1h0.1c0.1,0,0.1,0,0.2,0c0.1,0,0.2,0,0.3,0c0.1,0,0.2,0,0.3,0
			c0.1,0,0.2,0,0.4,0C28.2,40.9,28.3,40.9,28.3,40.9z"/>
		<path class="st8" d="M30.5,40.9c0.2,0,0.5,0,0.7,0c0,0.2,0,0.5,0,0.7c-0.2,0-0.5,0-0.7,0C30.5,41.4,30.5,41.1,30.5,40.9z"/>
		<path class="st8" d="M28.3,41.6c0.7,0,1.5,0,2.2,0c0,0.1,0,0.2,0,0.4c0,0.1,0,0.1,0,0.2v0.1v0.1h0.1h0.1c0.1,0,0.2,0,0.4,0h0.1
			h0.1v-0.1v-0.1v-0.1V42v-0.1c0-0.1,0-0.2,0-0.3c0.2,0,0.5,0,0.7,0c0,0.5,0,1,0,1.5c-0.5,0-1,0-1.5,0c0,0.1,0,0.2,0,0.4
			c0,0.1,0,0.2,0,0.3v0.1h-0.1c-0.1,0-0.2,0-0.3,0s-0.2,0-0.3,0h-0.1v-0.1c0-0.1,0-0.1,0-0.2c0-0.1,0-0.2,0-0.4s0-0.2,0-0.4
			c0-0.1,0-0.2,0-0.3v-0.1v-0.1h-0.1h-0.1h-0.1h-0.1h-0.1h-0.1H29h-0.1v0.1c0,0.1,0,0.2,0,0.3s0,0.2,0,0.4c0,0.1,0,0.2,0,0.4
			c0,0.1,0,0.2,0,0.3v0.1h-0.1c-0.1,0-0.2,0-0.3,0h-0.1h-0.1h-0.1h-0.1v-0.1c0-0.1,0-0.2,0-0.4s0-0.3,0-0.5s0-0.3,0-0.5
			c0-0.1,0-0.2,0-0.3s0-0.2,0-0.3C28.3,41.8,28.3,41.7,28.3,41.6z"/>
		<path class="st8" d="M33.4,42.3c0,0.2,0,0.5,0,0.7c-0.2,0-0.5,0-0.7,0c0-0.1,0-0.2,0-0.3v-0.1v-0.1v-0.1v-0.1v-0.1h0.1h0.1
			c0.1,0,0.1,0,0.2,0C33.2,42.3,33.3,42.3,33.4,42.3z"/>
		<path class="st8" d="M32,43.1c0.2,0,0.5,0,0.7,0c0,0.1,0,0.2,0,0.4c0,0.1,0,0.2,0,0.3v0.1h-0.1c-0.1,0-0.2,0-0.3,0h-0.1h-0.1H32
			h-0.1v-0.1c0-0.1,0-0.2,0-0.4C32,43.3,32,43.2,32,43.1z"/>
		<path class="st8" d="M33.4,43.1c0.1,0,0.2,0,0.3,0s0.2,0,0.3,0s0.2,0,0.3,0s0.2,0,0.3,0s0.2,0,0.3,0s0.2,0,0.3,0s0.2,0,0.4,0h0.1
			h0.1v0.1c0,0.1,0,0.1,0,0.2v0.1v0.1v0.1v0.1v0.1h-0.1c-0.1,0-0.1,0-0.2,0c-0.1,0-0.2,0-0.3,0c-0.2,0-0.4,0-0.5,0s-0.2,0-0.3,0
			s-0.2,0-0.3,0s-0.2,0-0.4,0h-0.1h-0.1v-0.1c0-0.1,0-0.2,0-0.4C33.4,43.3,33.4,43.2,33.4,43.1z"/>
		<path class="st8" d="M43.6,43.2C43.6,43.2,43.6,43.1,43.6,43.2C43.6,43.1,43.7,43.1,43.6,43.2c0.2-0.1,0.3-0.1,0.5-0.1
			c0.1,0,0.1,0,0.2,0h0.1v0.1c0,0.2,0,0.3,0,0.5v0.1v0.1h-0.1h-0.1c-0.2,0-0.3,0-0.5,0h-0.1v-0.1v-0.1v-0.1v-0.1v-0.1
			C43.6,43.3,43.6,43.3,43.6,43.2L43.6,43.2z"/>
	</g>
</g>
</svg>
