<?xml version="1.0" encoding="utf-8"?>
<!-- Generator: Adobe Illustrator 17.0.0, SVG Export Plug-In . SVG Version: 6.00 Build 0)  -->
<!DOCTYPE svg PUBLIC "-//W3C//DTD SVG 1.1//EN" "http://www.w3.org/Graphics/SVG/1.1/DTD/svg11.dtd">
<svg version="1.1" id="Layer_1" xmlns="http://www.w3.org/2000/svg" xmlns:xlink="http://www.w3.org/1999/xlink" x="0px" y="0px"
	 width="842.35px" height="595.3px" viewBox="0 0 842.35 595.3" enable-background="new 0 0 842.35 595.3" xml:space="preserve">
<g id="XMLID_1844_">
	
		<path id="XMLID_1943_" fill="none" stroke="#171C28" stroke-width="10" stroke-linecap="round" stroke-linejoin="round" stroke-miterlimit="10" d="
		M584.882,199.984l59.53,63.251v80.924l-13.022,39.067v74.413h-97.666v-29.765c0,0-28.835-40.927-27.905-74.412"/>
	<g>
		<g>
			<g id="XMLID_2104_">
				
					<ellipse id="XMLID_2105_" fill="#C6EAFB" stroke="#171C28" stroke-width="10" stroke-linecap="round" stroke-linejoin="round" stroke-miterlimit="10" cx="393.274" cy="269.723" rx="204.628" ry="204.628"/>
			</g>
			<g>
				
					<circle fill="#FFFFFF" stroke="#171C28" stroke-width="10" stroke-linecap="round" stroke-linejoin="round" stroke-miterlimit="10" cx="441.638" cy="195.333" r="37.206"/>
				
					<circle fill="#FFFFFF" stroke="#171C28" stroke-width="10" stroke-linecap="round" stroke-linejoin="round" stroke-miterlimit="10" cx="441.638" cy="334.856" r="37.206"/>
				
					<line fill="none" stroke="#171C28" stroke-width="10" stroke-linecap="round" stroke-linejoin="round" stroke-miterlimit="10" x1="404.432" y1="316.253" x2="321.648" y2="269.745"/>
				
					<line fill="none" stroke="#171C28" stroke-width="10" stroke-linecap="round" stroke-linejoin="round" stroke-miterlimit="10" x1="404.432" y1="204.634" x2="325.369" y2="250.212"/>
				<circle fill="#00984A" cx="302.115" cy="260.444" r="37.206"/>
			</g>
		</g>
	</g>
	
		<path id="XMLID_1941_" fill="#FFFFFF" stroke="#171C28" stroke-width="10" stroke-linecap="round" stroke-linejoin="round" stroke-miterlimit="10" d="
		M600.695,301.371l-52.089-52.089c0,0-31.625-14.882-31.625,31.625l46.508,46.508c0,0-3.721,43.717,32.555,79.063"/>
	
		<polyline id="XMLID_1940_" fill="#0D3178" stroke="#171C28" stroke-width="10" stroke-linecap="round" stroke-linejoin="round" stroke-miterlimit="10" points="
		514.191,549.722 514.191,457.637 654.644,457.637 654.644,549.722 	"/>
</g>
</svg>
