<svg xmlns="http://www.w3.org/2000/svg" viewBox="0 0 50 50" enable-background="new 0 0 50 50"><style type="text/css">.st0{fill:#D1D1D0;} .st1{fill:#FFFFFF;} .st2{fill:none;stroke:#3B3E43;stroke-linecap:round;stroke-linejoin:round;stroke-miterlimit:10;} .st3{fill:#89C33D;}</style><path id="XMLID_86_" class="st0" d="M45.7 38.4h-42.6c-.9 0-1.6-.7-1.6-1.6 0-.9.7-1.6 1.6-1.6h42.6c.9 0 1.6.7 1.6 1.6 0 .8-.7 1.6-1.6 1.6z"/><path id="XMLID_108_" class="st1" d="M35.7 6.6h-18.1c-1.6 0-2.8 1.3-2.8 2.8v27l.8-.7.7.7.6-.7.6.7.7-.7.7.7.7-.7.7.7.6-.7.7.7.6-.7.7.7.6-.7.6.7.6-.7.6.7.7-.7.7.7.7-.7.6.7.7-.7.7.7.7-.7.6.7.6-.7.7.7.6-.7.6.7h1.8"/><path id="XMLID_107_" class="st2" d="M35.7 6.6h-18.1c-1.6 0-2.8 1.3-2.8 2.8v27l.8-.7.7.7.6-.7.6.7.7-.7.7.7.7-.7.7.7.6-.7.7.7.6-.7.7.7.6-.7.6.7.6-.7.6.7.7-.7.7.7.7-.7.6.7.7-.7.7.7.7-.7.6.7.6-.7.7.7.6-.7.6.7"/><path id="XMLID_2_" class="st2" d="M33.4 4.3h-18.1c-1.6 0-2.8 1.3-2.8 2.8v27l.8-.7.7.7.6-.7"/><path id="XMLID_129_" class="st3" d="M34.7 36.7h2.3c.4 0 .7-.3.7-.7v-27.6c0-1-.8-1.8-1.8-1.8s-1.8.8-1.8 1.8v27.7c.1.3.3.6.6.6z"/><path id="XMLID_128_" class="st2" d="M34.2 15.8v13.3"/><path id="XMLID_127_" class="st2" d="M34.2 11.5v-3.2c0-1 .8-1.7 1.7-1.7 1 0 1.7.8 1.7 1.7v19.3"/><path id="XMLID_122_" class="st2" d="M23.8 11.1h-6.7"/><path id="XMLID_119_" class="st2" d="M31.2 23h-13.9"/><path id="XMLID_116_" class="st2" d="M31.2 25.5h-13.9"/><path id="XMLID_115_" class="st2" d="M31.2 27.9h-13.9"/><path id="XMLID_114_" class="st2" d="M31.2 30.3h-13.9"/><path id="XMLID_113_" class="st2" d="M31.2 32.7h-7.2"/><path id="XMLID_112_" class="st2" d="M31.2 13.6h-5"/><path id="XMLID_111_" class="st2" d="M25 13.6h-7.9"/><path id="XMLID_110_" class="st3" d="M17.2 16h14.4v4.5h-14.4z"/></svg>