<?xml version="1.0" encoding="utf-8"?>
<!-- Generator: Adobe Illustrator 22.0.1, SVG Export Plug-In . SVG Version: 6.00 Build 0)  -->
<svg version="1.1" id="Layer_1" xmlns="http://www.w3.org/2000/svg" xmlns:xlink="http://www.w3.org/1999/xlink" x="0px" y="0px"
	 viewBox="0 0 24 24" style="enable-background:new 0 0 24 24;" xml:space="preserve">
<style type="text/css">
	.st0{fill:#FFFFFF;}
	.st1{fill:#9ECFEF;}
	.st2{fill:#595959;}
	.st3{fill:#595959;stroke:#FFFFFF;stroke-width:0.25;stroke-miterlimit:10;}
	.st4{fill:#FFFFFF;stroke:#333333;stroke-width:0.25;stroke-miterlimit:10;}
	.st5{fill:#97C9E8;}
	.st6{fill:#595959;stroke:#595959;stroke-width:0.25;stroke-miterlimit:10;}
	.st7{fill:none;}
	.st8{fill:#595959;stroke:#FFFFFF;stroke-width:0.1916;stroke-miterlimit:10;}
	.st9{fill:#595959;stroke:#595959;stroke-width:0.2196;stroke-miterlimit:10;}
	.st10{fill:#FFFFFF;stroke:#595959;stroke-width:0.2196;stroke-miterlimit:10;}
	.st11{fill:#9ECFEF;stroke:#595959;stroke-width:0.25;stroke-miterlimit:10;}
	.st12{fill:#CA589D;}
	.st13{opacity:0.2;fill:#CA589D;}
	.st14{fill:#3CAF85;}
	.st15{fill:none;stroke:#2C3251;stroke-width:0.75;stroke-miterlimit:10;}
	.st16{fill:#595959;stroke:#FFFFFF;stroke-width:0.2467;stroke-miterlimit:10;}
	.st17{fill:#9ECFEF;stroke:#595959;stroke-width:0.5;stroke-miterlimit:10;}
	.st18{fill:#595959;stroke:#FFFFFF;stroke-width:0.4959;stroke-miterlimit:10;}
	.st19{fill:#595959;stroke:#595959;stroke-width:0.2246;stroke-miterlimit:10;}
	.st20{fill:none;stroke:#595959;stroke-width:0.7572;stroke-miterlimit:10;}
	.st21{fill:#595959;stroke:#595959;stroke-width:0.5;stroke-miterlimit:10;}
	.st22{fill:#595959;stroke:#595959;stroke-width:0.2986;stroke-miterlimit:10;}
	.st23{fill:#9ECFEF;stroke:#595959;stroke-width:0.75;stroke-miterlimit:10;}
	.st24{fill:#9ECEEE;stroke:#9ECEEE;stroke-width:0.75;stroke-miterlimit:10;}
	.st25{fill-rule:evenodd;clip-rule:evenodd;fill:#9ECFEF;}
	.st26{fill:none;stroke:#595959;stroke-miterlimit:10;}
	.st27{fill:none;stroke:#595959;stroke-width:0.76;stroke-linecap:round;stroke-linejoin:round;stroke-miterlimit:10;}
	.st28{fill:#FFFFFF;stroke:#595959;stroke-width:0.7603;stroke-miterlimit:10;}
	.st29{fill:none;stroke:#595959;stroke-width:0.7603;stroke-miterlimit:10;}
	.st30{fill:#A3D4FF;stroke:#595959;stroke-width:0.7603;stroke-miterlimit:10;}
	.st31{fill:none;stroke:#595959;stroke-width:0.9161;stroke-miterlimit:10;}
	.st32{fill:#B3B3B3;}
	.st33{fill:none;stroke:#324044;stroke-width:0.75;stroke-miterlimit:10;}
	.st34{fill:none;stroke:#FFFFFF;stroke-width:0.75;stroke-miterlimit:10;}
	.st35{fill:#FFFFFF;stroke:#FFFFFF;stroke-width:0.25;stroke-miterlimit:10;}
	.st36{fill:none;stroke:#2C3251;stroke-width:0.4222;stroke-miterlimit:10;}
	.st37{fill:#595959;stroke:#595959;stroke-width:0.1786;stroke-miterlimit:10;}
	.st38{fill:#FFFFFF;stroke:#FFFFFF;stroke-width:0.2467;stroke-miterlimit:10;}
	.st39{fill-rule:evenodd;clip-rule:evenodd;fill:#595959;}
	.st40{fill-rule:evenodd;clip-rule:evenodd;fill:#FFFFFF;}
	.st41{clip-path:url(#SVGID_2_);}
	.st42{clip-path:url(#SVGID_4_);fill:#9ECFEF;}
	.st43{clip-path:url(#SVGID_6_);}
	.st44{clip-path:url(#SVGID_8_);fill:#9ECFEF;}
	.st45{clip-path:url(#SVGID_10_);}
	.st46{clip-path:url(#SVGID_12_);fill:#595959;}
	.st47{clip-path:url(#SVGID_14_);}
	.st48{clip-path:url(#SVGID_16_);fill:#595959;}
	.st49{clip-path:url(#SVGID_18_);}
	.st50{clip-path:url(#SVGID_20_);fill:#595959;}
	.st51{fill:none;stroke:#324044;stroke-width:0.7863;stroke-miterlimit:10;}
	.st52{fill:#FFFFFF;stroke:#FFFFFF;stroke-width:0.1017;stroke-linecap:round;stroke-linejoin:round;stroke-miterlimit:10;}
	.st53{fill:none;stroke:#595959;stroke-width:0.692;stroke-linecap:round;stroke-linejoin:round;stroke-miterlimit:10;}
	.st54{fill:#FFFFFF;stroke:#595959;stroke-width:0.7612;stroke-miterlimit:10;}
	.st55{fill:#9ECFEF;stroke:#595959;stroke-width:0.7612;stroke-miterlimit:10;}
	.st56{fill:#9ECFEF;stroke:#595959;stroke-width:0.7616;stroke-linecap:round;stroke-linejoin:round;stroke-miterlimit:10;}
	.st57{fill:none;stroke:#2C3251;stroke-width:0.7182;stroke-miterlimit:10;}
	.st58{fill:#FFFFFF;stroke:#595959;stroke-miterlimit:10;}
	.st59{fill:#9ECFEF;stroke:#595959;stroke-miterlimit:10;}
	.st60{display:none;}
	.st61{fill:#2094FA;}
	.st62{fill:none;stroke:#FFFFFF;stroke-miterlimit:10;}
	.st63{fill:#9B9B9B;}
	.st64{fill:#9ECFEF;stroke:#595959;stroke-width:0.8645;stroke-miterlimit:10;}
	.st65{fill:none;stroke:#595959;stroke-width:0.8645;stroke-miterlimit:10;}
	.st66{fill:#595959;stroke:#595959;stroke-width:0.2138;stroke-miterlimit:10;}
	.st67{fill:#FFFFFF;stroke:#595959;stroke-width:0.7;stroke-linejoin:round;stroke-miterlimit:10;}
	.st68{fill:#FFFFFF;stroke:#595959;stroke-linecap:round;stroke-miterlimit:10;}
	.st69{fill:none;stroke:#595959;stroke-width:0.7;stroke-miterlimit:10;}
	.st70{fill:none;stroke:#2C3251;stroke-width:0.5563;stroke-miterlimit:10;}
	.st71{fill:none;stroke:#595959;stroke-width:0.7539;stroke-miterlimit:10;}
	.st72{clip-path:url(#SVGID_22_);}
	.st73{clip-path:url(#SVGID_24_);fill:#9ECFEF;}
	.st74{clip-path:url(#SVGID_26_);}
	.st75{clip-path:url(#SVGID_28_);fill:#9ECFEF;}
	.st76{clip-path:url(#SVGID_30_);}
	.st77{clip-path:url(#SVGID_32_);fill:#595959;}
	.st78{clip-path:url(#SVGID_34_);}
	.st79{clip-path:url(#SVGID_36_);fill:#595959;}
	.st80{clip-path:url(#SVGID_38_);}
	.st81{clip-path:url(#SVGID_40_);fill:#595959;}
</style>
<g>
	<defs>
		<path id="SVGID_1_" d="M-212.5-266h11c0.3,0,0.5-0.2,0.5-0.5v-17c0-0.3-0.2-0.5-0.5-0.5h-11c-0.3,0-0.5,0.2-0.5,0.5v17
			C-213-266.3-212.8-266-212.5-266z"/>
	</defs>
	<clipPath id="SVGID_2_">
		<use xlink:href="#SVGID_1_"  style="overflow:visible;"/>
	</clipPath>
	<g class="st41">
		<defs>
			<rect id="SVGID_3_" x="-229" y="-546" width="320" height="697"/>
		</defs>
		<clipPath id="SVGID_4_">
			<use xlink:href="#SVGID_3_"  style="overflow:visible;"/>
		</clipPath>
	</g>
</g>
<g>
	<defs>
		<circle id="SVGID_5_" cx="-207" cy="-275" r="3"/>
	</defs>
	<use xlink:href="#SVGID_5_"  style="overflow:visible;fill-rule:evenodd;clip-rule:evenodd;fill:#9ECFEF;"/>
	<clipPath id="SVGID_6_">
		<use xlink:href="#SVGID_5_"  style="overflow:visible;"/>
	</clipPath>
	<g class="st43">
		<defs>
			<rect id="SVGID_7_" x="-229" y="-546" width="320" height="697"/>
		</defs>
		<use xlink:href="#SVGID_7_"  style="overflow:visible;fill:#9ECFEF;"/>
		<clipPath id="SVGID_8_">
			<use xlink:href="#SVGID_7_"  style="overflow:visible;"/>
		</clipPath>
	</g>
</g>
<g>
	<defs>
		<path id="SVGID_9_" d="M-197.1-274.8c-2,3.4-5.8,5.4-9.9,5.4s-7.8-2.1-9.9-5.4l-0.1-0.2l0.1-0.2c2-3.4,5.8-5.4,9.9-5.4
			s7.8,2.1,9.9,5.4l0.1,0.2L-197.1-274.8z M-202-275c0-2.7-2.2-4.8-5-4.8s-5,2.2-5,4.8s2.2,4.8,5,4.8S-202-272.4-202-275z M-216-275
			c1.2,1.9,3,3.3,5,4.1c-1.1-1-1.8-2.5-1.8-4.1s0.7-3.1,1.8-4.1C-213-278.3-214.8-276.9-216-275z M-203-279.1c1.1,1,1.8,2.5,1.8,4.1
			s-0.7,3.1-1.8,4.1c2.1-0.8,3.8-2.2,5-4.1C-199.1-276.9-200.9-278.3-203-279.1z"/>
	</defs>
	<clipPath id="SVGID_10_">
		<use xlink:href="#SVGID_9_"  style="overflow:visible;"/>
	</clipPath>
	<g class="st45">
		<defs>
			<rect id="SVGID_11_" x="-229" y="-546" width="320" height="697"/>
		</defs>
		<clipPath id="SVGID_12_">
			<use xlink:href="#SVGID_11_"  style="overflow:visible;"/>
		</clipPath>
	</g>
</g>
<g>
	<defs>
		<path id="SVGID_13_" d="M-213.6-265.3c0,0.2,0.2,0.4,0.4,0.4h10.3v-1.2c0-0.7,0.6-1.2,1.2-1.2h1.2v-2.8h0.8v2.9
			c0,0.3-0.1,0.6-0.4,0.9l-2,2c-0.2,0.2-0.5,0.4-0.9,0.4h-10.3c-0.7,0-1.2-0.5-1.2-1.2v-4.9h0.8V-265.3z M-201-266.5h-0.6
			c-0.2,0-0.4,0.2-0.4,0.4v0.6L-201-266.5z"/>
	</defs>
	<clipPath id="SVGID_14_">
		<use xlink:href="#SVGID_13_"  style="overflow:visible;"/>
	</clipPath>
	<g class="st47">
		<defs>
			<rect id="SVGID_15_" x="-229" y="-545" width="320" height="697"/>
		</defs>
		<clipPath id="SVGID_16_">
			<use xlink:href="#SVGID_15_"  style="overflow:visible;"/>
		</clipPath>
	</g>
</g>
<g>
	<defs>
		<path id="SVGID_17_" d="M-200.4-284.8c0-0.2-0.2-0.4-0.4-0.4h-12.3c-0.2,0-0.4,0.2-0.4,0.4v3.2h-0.8v-3.2c0-0.7,0.6-1.2,1.2-1.2
			h12.3c0.7,0,1.2,0.5,1.2,1.2v3.2h-0.8V-284.8"/>
	</defs>
	<clipPath id="SVGID_18_">
		<use xlink:href="#SVGID_17_"  style="overflow:visible;"/>
	</clipPath>
	<g class="st49">
		<defs>
			<rect id="SVGID_19_" x="-229" y="-547" width="320" height="697"/>
		</defs>
		<clipPath id="SVGID_20_">
			<use xlink:href="#SVGID_19_"  style="overflow:visible;"/>
		</clipPath>
	</g>
</g>
<g>
	<g>
		<polygon class="st1" points="19.4,7.6 19.4,13.1 15.8,13.1 15.6,12.7 13.1,12.7 13,13.1 11,13.1 10.9,12.7 8.4,12.7 8.2,13.1 
			4.7,13.1 4.7,7.6 		"/>
		<path class="st9" d="M18.3,14.6h-1.4l-0.6-1.5L16,12.2h-3.2l-0.3,0.8L12,14.2l-0.5-1.1l-0.3-0.8H8l-0.3,0.8l-0.6,1.5H5.7l-1,2.5
			l0,0.1l0.1,0.2h14.4l0.1,0l0.1-0.2L18.3,14.6z M13,13.1l0.1-0.4h2.5l0.1,0.4l0.6,1.5h-1.2v0h-2.8L13,13.1z M8.2,13.1l0.1-0.4h2.5
			l0.1,0.4l0.6,1.5H8.8l0,0H7.6L8.2,13.1z M5.2,17L6,15.1h2.5L9.3,17H5.2z M9,15.1h1.2l-0.6,1.5L9,15.1z M10,17l0.8-1.9h2.5L14,17
			H10z M13.8,15.1H15l-0.6,1.5L13.8,15.1z M14.7,17l0.8-1.9H18l0.8,1.9H14.7z"/>
		<polygon class="st10" points="16.4,14.6 15.2,14.6 15.2,14.6 12.4,14.6 13,13.1 13.1,12.7 15.6,12.7 15.8,13.1 		"/>
		<polygon class="st10" points="11.6,14.6 8.8,14.6 8.8,14.6 7.6,14.6 8.2,13.1 8.4,12.7 10.9,12.7 11,13.1 		"/>
		<path class="st6" d="M19.9,6.7H4.1c-0.2,0-0.5,0.2-0.5,0.5v6.7c0,0.2,0.2,0.5,0.5,0.5h2v-0.6H4.6c-0.2,0-0.5-0.2-0.5-0.5V7.7
			c0-0.2,0.2-0.5,0.5-0.5h14.8c0.2,0,0.5,0.2,0.5,0.5v5.6c0,0.2-0.2,0.5-0.5,0.5h-1.5v0.6h2c0.2,0,0.5-0.2,0.5-0.5V7.1
			C20.4,6.9,20.2,6.7,19.9,6.7z"/>
		<polygon class="st0" points="7.1,8.3 5.2,8.3 5.2,9.6 5.8,9.6 5.8,8.8 7.1,8.8 		"/>
		<polygon class="st0" points="5.2,11.3 5.2,12.6 6.6,12.6 6.6,12.1 5.8,12.1 5.8,11.3 		"/>
		<polygon class="st0" points="18.8,11.3 18.2,11.3 18.2,12.1 17.4,12.1 17.4,12.6 18.8,12.6 		"/>
		<polygon class="st0" points="18.8,9.6 18.8,8.3 16.9,8.3 16.9,8.8 18.2,8.8 18.2,9.6 		"/>
		<path class="st0" d="M14.3,11.4c0.1-0.4,0.2-0.8,0.2-1.2c-0.1-1-0.9-2-1.9-2.2C10.9,7.8,9.6,9,9.6,10.5c0,0.3,0.1,0.6,0.2,0.9
			l0.5-0.2c-0.1-0.3-0.2-0.7-0.1-1c0.1-0.7,0.6-1.3,1.3-1.5c1.3-0.4,2.5,0.6,2.5,1.8c0,0.2,0,0.5-0.1,0.7L14.3,11.4z"/>
	</g>
	<path class="st2" d="M12,0.9C5.9,0.9,0.9,5.9,0.9,12c0,2.4,0.8,4.7,2.2,6.7l-1.3-0.1l0.7,0.8l1.8,0.1l0.1-1.8l-0.7-0.8l-0.1,1.2
		c-1.3-1.8-2-3.9-2-6.1C1.6,6.3,6.3,1.6,12,1.6c1.1,0,2.2,0.2,3.3,0.5l0.2-0.7C14.4,1.1,13.2,0.9,12,0.9z"/>
	<path class="st2" d="M19.7,4L21,3.8l-0.8-0.7l-1.8,0.2l0.2,1.8l0.8,0.7l-0.1-1.2c2,1.9,3.1,4.6,3.1,7.4c0,5.7-4.7,10.4-10.4,10.4
		c-2,0-3.9-0.6-5.6-1.7L6,21.4c1.8,1.2,3.9,1.8,6,1.8c6.1,0,11.1-5,11.1-11.1C23.1,8.9,21.9,6.1,19.7,4z"/>
</g>
</svg>
