<svg xmlns="http://www.w3.org/2000/svg" viewBox="0 0 58 58" enable-background="new 0 0 58 58"><path fill="#D1D1D0" d="M53.9 45h-50.3c-1.1 0-1.9-.8-1.9-1.8s.9-1.9 1.9-1.9h50.4c1 0 1.9.9 1.9 1.9-.1 1-.9 1.8-2 1.8z"/><path stroke="#3B3E43" stroke-linecap="round" stroke-linejoin="round" stroke-miterlimit="10" d="M21.23 23.953v-20.5h11.7v20.5zM33.8 15.4l3.8 4.1v6.2l-1 3.1v5.9h-7.7v-2.4s-2.3-3.2-2.2-5.8" fill="none"/><path stroke="#89C33D" stroke-linecap="round" stroke-linejoin="round" stroke-miterlimit="10" d="M24.8 18.8v1.6l1.2.9h1.9l1.3-.8v-1.7" fill="none"/><path fill="#fff" stroke="#3B3E43" stroke-linecap="round" stroke-linejoin="round" stroke-miterlimit="10" d="M34.1 22.3l-4.1-4.1s-2.5-1.2-2.5 2.5l3.7 3.7s-.3 3.5 2.6 6.2"/><path fill="#89C33D" stroke="#3B3E43" stroke-linecap="round" stroke-linejoin="round" stroke-miterlimit="10" d="M27.3 41.8v-7.2h11v7.2"/><path stroke="#89C33D" stroke-linecap="round" stroke-linejoin="round" stroke-miterlimit="10" d="M29.2 8.1v-1.6l-1.3-.9h-1.9l-1.2.8v1.7" fill="none"/><ellipse fill="#fff" stroke="#3B3E43" stroke-linecap="round" stroke-linejoin="round" stroke-miterlimit="10" cx="27.2" cy="13.4" rx="3.5" ry="3.5"/><ellipse fill="#89C33D" cx="27.2" cy="13.4" rx="2.7" ry="2.8"/><path fill="#fff" d="M25.5 13.5c0-.1.1-.2.2-.2h.1c0-.2.1-.4.2-.6 0-.1.1-.1.2-.1s.2.1.2.2v.1l-.2.4h.7c.1-.6.4-.8.8-.8s.7.3.8.8h.2c.1 0 .2.1.2.2s-.1.2-.2.2h-.2c0 .3-.1.6-.3.8 0 .1-.1.1-.2.1s-.2-.1-.2-.2v-.1l.3-.6h-.8c-.1.6-.4.8-.8.8s-.7-.3-.7-.8h-.1c-.1-.1-.2-.1-.2-.2zm1.3.1h-.7c0 .2.2.4.3.4.2 0 .3-.1.4-.4zm.6-.3h.7c0-.2-.2-.4-.3-.4-.2 0-.3.1-.4.4z"/><g stroke="#3B3E43" stroke-linecap="round" stroke-linejoin="round" stroke-miterlimit="10"><path fill="#fff" d="M10.6 25.7h12.2v16.9h-12.2z"/><path fill="#89C33D" d="M12.2 27.5h8.5v2.2h-8.5z"/><path fill="#fff" d="M12.2 31.8h2.1v2.1h-2.1zm3.6 0h2.1v2.1h-2.1zm3.5 0h1.6v5.8h-1.6zm-7.1 3.7h2.1v2.1h-2.1zm3.6 0h2.1v2.1h-2.1zm-3.6 3.6h2.1v2.1h-2.1zm3.6 0h2.1v2.1h-2.1zm3.5 0h2.1v2.1h-2.1z"/></g></svg>