<?xml version="1.0" encoding="utf-8"?>
<!-- Generator: Adobe Illustrator 22.0.1, SVG Export Plug-In . SVG Version: 6.00 Build 0)  -->
<svg version="1.1" id="Layer_1" xmlns="http://www.w3.org/2000/svg" xmlns:xlink="http://www.w3.org/1999/xlink" x="0px" y="0px"
	 viewBox="0 0 50 50" style="enable-background:new 0 0 50 50;" xml:space="preserve">
<style type="text/css">
	.st0{fill:#FFFFFF;}
	.st1{fill:#414042;}
	.st2{fill:#9ECFEF;}
	.st3{fill:#FFCE44;}
	.st4{fill:#FFE167;}
	.st5{fill:#F5CC73;}
	.st6{clip-path:url(#SVGID_2_);}
	.st7{clip-path:url(#SVGID_4_);}
	.st8{clip-path:url(#SVGID_6_);}
	.st9{clip-path:url(#SVGID_8_);}
	.st10{clip-path:url(#SVGID_10_);}
	.st11{clip-path:url(#SVGID_12_);}
	.st12{clip-path:url(#SVGID_14_);}
	.st13{clip-path:url(#SVGID_16_);}
	.st14{clip-path:url(#SVGID_18_);}
	.st15{clip-path:url(#SVGID_20_);}
	.st16{clip-path:url(#SVGID_22_);}
	.st17{clip-path:url(#SVGID_24_);}
	.st18{clip-path:url(#SVGID_26_);}
	.st19{clip-path:url(#SVGID_28_);}
	.st20{clip-path:url(#SVGID_30_);}
	.st21{clip-path:url(#SVGID_34_);}
	.st22{clip-path:url(#SVGID_36_);fill:#9ECFEF;}
	.st23{clip-path:url(#SVGID_38_);}
	.st24{clip-path:url(#SVGID_40_);}
	.st25{clip-path:url(#SVGID_42_);}
	.st26{clip-path:url(#SVGID_44_);}
	.st27{clip-path:url(#SVGID_46_);fill:#414042;}
	.st28{clip-path:url(#SVGID_38_);fill-rule:evenodd;clip-rule:evenodd;fill:#414042;}
	.st29{clip-path:url(#SVGID_48_);}
	.st30{clip-path:url(#SVGID_52_);}
	.st31{clip-path:url(#SVGID_56_);}
	.st32{clip-path:url(#SVGID_58_);fill:#F77C4B;}
	.st33{clip-path:url(#SVGID_60_);}
	.st34{clip-path:url(#SVGID_62_);fill:#FFFFFF;}
	.st35{clip-path:url(#SVGID_64_);}
	.st36{clip-path:url(#SVGID_66_);fill:#414042;}
	.st37{clip-path:url(#SVGID_68_);}
	.st38{clip-path:url(#SVGID_70_);fill:#414042;}
	.st39{clip-path:url(#SVGID_72_);}
	.st40{clip-path:url(#SVGID_74_);fill:#414042;}
	.st41{clip-path:url(#SVGID_76_);}
	.st42{clip-path:url(#SVGID_78_);fill:#F77C4B;}
	.st43{clip-path:url(#SVGID_80_);}
	.st44{clip-path:url(#SVGID_82_);fill:#FFFFFF;}
	.st45{clip-path:url(#SVGID_84_);}
	.st46{clip-path:url(#SVGID_86_);fill:#FFFFFF;}
	.st47{clip-path:url(#SVGID_88_);}
	.st48{clip-path:url(#SVGID_90_);fill:#414042;}
	.st49{clip-path:url(#SVGID_92_);}
	.st50{clip-path:url(#SVGID_94_);fill:#414042;}
	.st51{clip-path:url(#SVGID_96_);}
	.st52{clip-path:url(#SVGID_98_);fill:#414042;}
	.st53{clip-path:url(#SVGID_100_);}
	.st54{clip-path:url(#SVGID_102_);fill:#414042;}
	.st55{clip-path:url(#SVGID_104_);}
	.st56{clip-path:url(#SVGID_106_);fill:#414042;}
	.st57{fill:#41464B;}
	.st58{fill:#4CBED8;}
	.st59{fill:#FF7443;}
	.st60{fill:none;stroke:#359CDB;stroke-width:0.393;stroke-linecap:round;stroke-linejoin:round;stroke-miterlimit:10;}
	.st61{fill:#AFAFAF;}
	.st62{fill:#FED65C;}
	.st63{clip-path:url(#SVGID_108_);}
	.st64{fill:#4CBDD8;}
	.st65{fill:#F9D264;}
	.st66{fill:#F9BB7D;}
	.st67{fill:#41464B;stroke:#414042;stroke-width:0.4;stroke-linecap:round;stroke-linejoin:round;stroke-miterlimit:10;}
	.st68{clip-path:url(#SVGID_110_);}
	.st69{clip-path:url(#SVGID_112_);}
	.st70{clip-path:url(#SVGID_114_);}
	.st71{clip-path:url(#SVGID_116_);}
	.st72{clip-path:url(#SVGID_118_);}
	.st73{clip-path:url(#SVGID_120_);}
	.st74{clip-path:url(#SVGID_122_);}
	.st75{clip-path:url(#SVGID_124_);fill:#414042;}
	.st76{clip-path:url(#SVGID_126_);}
	.st77{clip-path:url(#SVGID_128_);}
	.st78{clip-path:url(#SVGID_130_);}
	.st79{clip-path:url(#SVGID_132_);}
	.st80{clip-path:url(#SVGID_134_);}
	.st81{clip-path:url(#SVGID_136_);}
	.st82{clip-path:url(#SVGID_138_);}
	.st83{clip-path:url(#SVGID_140_);}
	.st84{clip-path:url(#SVGID_142_);}
	.st85{clip-path:url(#SVGID_144_);}
	.st86{clip-path:url(#SVGID_146_);}
	.st87{clip-path:url(#SVGID_148_);}
	.st88{clip-path:url(#SVGID_150_);}
	.st89{clip-path:url(#SVGID_152_);fill:#FFFFFF;}
	.st90{clip-path:url(#SVGID_154_);}
	.st91{clip-path:url(#SVGID_156_);}
	.st92{clip-path:url(#SVGID_158_);}
	.st93{clip-path:url(#SVGID_160_);}
	.st94{clip-path:url(#SVGID_162_);}
	.st95{clip-path:url(#SVGID_164_);}
	.st96{clip-path:url(#SVGID_166_);}
	.st97{clip-path:url(#SVGID_168_);}
	.st98{clip-path:url(#SVGID_170_);}
	.st99{clip-path:url(#SVGID_172_);}
	.st100{clip-path:url(#SVGID_174_);}
	.st101{clip-path:url(#SVGID_176_);}
	.st102{clip-path:url(#SVGID_178_);}
	.st103{clip-path:url(#SVGID_180_);fill:#414042;}
	.st104{clip-path:url(#SVGID_182_);}
	.st105{clip-path:url(#SVGID_184_);}
	.st106{clip-path:url(#SVGID_186_);}
	.st107{clip-path:url(#SVGID_188_);}
	.st108{clip-path:url(#SVGID_190_);}
	.st109{clip-path:url(#SVGID_192_);}
	.st110{fill:#41464B;stroke:#41464B;stroke-width:0.2;stroke-miterlimit:10;}
	.st111{clip-path:url(#SVGID_194_);}
	.st112{clip-path:url(#SVGID_196_);}
	.st113{clip-path:url(#SVGID_198_);}
	.st114{clip-path:url(#SVGID_200_);}
	.st115{clip-path:url(#SVGID_202_);}
	.st116{clip-path:url(#SVGID_204_);}
	.st117{clip-path:url(#SVGID_206_);}
	.st118{clip-path:url(#SVGID_208_);fill:#414042;}
	.st119{clip-path:url(#SVGID_210_);}
	.st120{clip-path:url(#SVGID_212_);}
	.st121{clip-path:url(#SVGID_214_);}
	.st122{clip-path:url(#SVGID_216_);}
	.st123{clip-path:url(#SVGID_218_);}
	.st124{clip-path:url(#SVGID_220_);}
	.st125{fill:#FFD15D;}
	.st126{fill:#475059;}
	.st127{fill:#41464B;stroke:#41464B;stroke-width:0.223;stroke-linecap:round;stroke-linejoin:round;stroke-miterlimit:10;}
	.st128{fill:#41464B;stroke:#41464B;stroke-width:0.223;stroke-miterlimit:10;}
	.st129{fill:#41464B;stroke:#41464B;stroke-width:0.212;stroke-miterlimit:10;}
	.st130{fill:#5FE0ED;}
	.st131{fill:#48515A;}
	.st132{fill:#41464B;stroke:#41464B;stroke-width:0.2104;stroke-miterlimit:10;}
	.st133{fill:#41464B;stroke:#41464B;stroke-width:0.21;stroke-linecap:round;stroke-linejoin:round;stroke-miterlimit:10;}
	.st134{fill:#41464B;stroke:#41464B;stroke-width:0.2086;stroke-linecap:round;stroke-linejoin:round;stroke-miterlimit:10;}
	.st135{fill:#FDBE11;}
	.st136{fill:#41464B;stroke:#41464B;stroke-width:0.2513;stroke-miterlimit:10;}
	.st137{clip-path:url(#SVGID_222_);}
	.st138{clip-path:url(#SVGID_224_);}
	.st139{clip-path:url(#SVGID_226_);}
	.st140{clip-path:url(#SVGID_228_);}
	.st141{clip-path:url(#SVGID_230_);}
	.st142{clip-path:url(#SVGID_232_);}
	.st143{clip-path:url(#SVGID_234_);}
	.st144{clip-path:url(#SVGID_236_);fill:#414042;}
	.st145{clip-path:url(#SVGID_238_);}
	.st146{clip-path:url(#SVGID_240_);}
	.st147{clip-path:url(#SVGID_242_);}
	.st148{clip-path:url(#SVGID_244_);}
	.st149{clip-path:url(#SVGID_246_);}
	.st150{clip-path:url(#SVGID_248_);}
	.st151{clip-path:url(#SVGID_250_);}
	.st152{clip-path:url(#SVGID_252_);}
	.st153{clip-path:url(#SVGID_254_);}
	.st154{clip-path:url(#SVGID_256_);}
	.st155{clip-path:url(#SVGID_258_);}
	.st156{clip-path:url(#SVGID_260_);}
	.st157{clip-path:url(#SVGID_262_);}
	.st158{clip-path:url(#SVGID_264_);fill:#414042;}
	.st159{clip-path:url(#SVGID_266_);}
	.st160{clip-path:url(#SVGID_268_);}
	.st161{clip-path:url(#SVGID_270_);}
	.st162{clip-path:url(#SVGID_272_);}
	.st163{clip-path:url(#SVGID_274_);}
	.st164{clip-path:url(#SVGID_276_);}
	.st165{fill:#DEDEDD;}
	.st166{fill:#41464B;stroke:#41464B;stroke-width:0.2327;stroke-miterlimit:10;}
	.st167{fill:#41464B;stroke:#41464B;stroke-width:0.2327;stroke-linecap:round;stroke-linejoin:round;stroke-miterlimit:10;}
	.st168{fill:#F58E70;}
	.st169{clip-path:url(#SVGID_278_);}
	.st170{fill:#41464B;stroke:#41464B;stroke-width:0.2316;stroke-miterlimit:10;}
	.st171{fill:#FFB936;}
	.st172{fill:#E6E7E8;}
	.st173{clip-path:url(#SVGID_280_);}
	.st174{clip-path:url(#SVGID_282_);}
	.st175{clip-path:url(#SVGID_284_);}
	.st176{clip-path:url(#SVGID_286_);}
	.st177{clip-path:url(#SVGID_288_);}
	.st178{clip-path:url(#SVGID_290_);}
	.st179{clip-path:url(#SVGID_292_);}
	.st180{clip-path:url(#SVGID_294_);fill:#FFFFFF;}
	.st181{clip-path:url(#SVGID_296_);}
	.st182{clip-path:url(#SVGID_298_);}
	.st183{clip-path:url(#SVGID_300_);}
	.st184{clip-path:url(#SVGID_302_);}
	.st185{clip-path:url(#SVGID_304_);}
	.st186{clip-path:url(#SVGID_306_);}
	.st187{clip-path:url(#SVGID_308_);}
	.st188{clip-path:url(#SVGID_310_);}
	.st189{clip-path:url(#SVGID_312_);}
	.st190{clip-path:url(#SVGID_314_);}
	.st191{clip-path:url(#SVGID_316_);}
	.st192{clip-path:url(#SVGID_318_);}
	.st193{clip-path:url(#SVGID_320_);}
	.st194{clip-path:url(#SVGID_322_);fill:#FFFFFF;}
	.st195{clip-path:url(#SVGID_324_);}
	.st196{clip-path:url(#SVGID_326_);}
	.st197{clip-path:url(#SVGID_328_);}
	.st198{clip-path:url(#SVGID_330_);}
	.st199{clip-path:url(#SVGID_332_);}
	.st200{clip-path:url(#SVGID_334_);}
</style>
<g>
	<defs>
		<path id="SVGID_249_" d="M4.688,41.869v-0.582H5.27c0.218,0,0.394-0.177,0.394-0.394c0-0.218-0.177-0.394-0.394-0.394H4.688
			v-0.582c0-0.218-0.177-0.394-0.394-0.394c-0.218,0-0.394,0.177-0.394,0.394v0.582H3.317c-0.218,0-0.394,0.177-0.394,0.394
			c0,0.218,0.177,0.394,0.394,0.394h0.582v0.582c0,0.218,0.177,0.394,0.394,0.394C4.512,42.263,4.688,42.086,4.688,41.869"/>
	</defs>
	<clipPath id="SVGID_2_">
		<use xlink:href="#SVGID_249_"  style="overflow:visible;"/>
	</clipPath>
	<g class="st6">
		<defs>
			<rect id="SVGID_251_" x="2.923" y="9.06" width="44.778" height="35.335"/>
		</defs>
		<clipPath id="SVGID_4_">
			<use xlink:href="#SVGID_251_"  style="overflow:visible;"/>
		</clipPath>
		<g class="st7">
			<rect x="1.4" y="37.998" class="st1" width="5.788" height="5.788"/>
		</g>
	</g>
</g>
<g>
	<defs>
		<path id="SVGID_253_" d="M2.856,12.002h1.353c0.215,0,0.39-0.205,0.39-0.457c0-0.252-0.174-0.457-0.39-0.457H2.856
			c-0.215,0-0.39,0.205-0.39,0.457C2.466,11.798,2.641,12.002,2.856,12.002"/>
	</defs>
	<clipPath id="SVGID_6_">
		<use xlink:href="#SVGID_253_"  style="overflow:visible;"/>
	</clipPath>
	<g class="st8">
		<defs>
			<rect id="SVGID_255_" x="2.161" y="-0.487" width="44.778" height="35.335"/>
		</defs>
		<clipPath id="SVGID_8_">
			<use xlink:href="#SVGID_255_"  style="overflow:visible;"/>
		</clipPath>
		<g class="st9">
			<rect x="0.943" y="9.565" class="st1" width="5.178" height="3.96"/>
		</g>
	</g>
</g>
<g>
	<defs>
		<path id="SVGID_257_" d="M6.319,10.784c0.227,0,0.411-0.205,0.411-0.457c0-0.252-0.184-0.457-0.411-0.457H4.705
			c-0.227,0-0.411,0.205-0.411,0.457c0,0.252,0.184,0.457,0.411,0.457H6.319z"/>
	</defs>
	<clipPath id="SVGID_10_">
		<use xlink:href="#SVGID_257_"  style="overflow:visible;"/>
	</clipPath>
	<g class="st10">
		<defs>
			<rect id="SVGID_259_" x="2.161" y="-0.487" width="44.778" height="35.335"/>
		</defs>
		<clipPath id="SVGID_12_">
			<use xlink:href="#SVGID_259_"  style="overflow:visible;"/>
		</clipPath>
		<g class="st11">
			<rect x="2.771" y="8.347" class="st1" width="5.483" height="3.96"/>
		</g>
	</g>
</g>
<g>
	<defs>
		<path id="SVGID_261_" d="M25.698,8.547h0.751v0.751c0,0.213,0.173,0.386,0.386,0.386c0.213,0,0.386-0.173,0.386-0.386V8.547h0.751
			c0.213,0,0.386-0.173,0.386-0.386c0-0.213-0.173-0.386-0.386-0.386h-0.751V7.024c0-0.213-0.173-0.386-0.386-0.386
			c-0.213,0-0.386,0.173-0.386,0.386v0.751h-0.751c-0.213,0-0.386,0.173-0.386,0.386C25.312,8.375,25.485,8.547,25.698,8.547"/>
	</defs>
	<clipPath id="SVGID_14_">
		<use xlink:href="#SVGID_261_"  style="overflow:visible;"/>
	</clipPath>
	<g class="st12">
		<defs>
			<rect id="SVGID_263_" x="2.161" y="6.638" width="44.778" height="35.335"/>
		</defs>
		<clipPath id="SVGID_16_">
			<use xlink:href="#SVGID_263_"  style="overflow:visible;"/>
		</clipPath>
		<rect x="23.789" y="5.115" style="clip-path:url(#SVGID_16_);fill:#414042;" width="6.092" height="6.092"/>
	</g>
</g>
<rect x="11.48" y="35.718" class="st0" width="2.239" height="0.862"/>
<g>
	<defs>
		<path id="SVGID_265_" d="M44.886,18.643h0.451v0.451c0,0.212,0.172,0.384,0.384,0.384c0.212,0,0.384-0.172,0.384-0.384v-0.451
			h0.451c0.212,0,0.384-0.172,0.384-0.383c0-0.212-0.172-0.383-0.384-0.383h-0.451v-0.451c0-0.212-0.172-0.383-0.384-0.383
			c-0.212,0-0.384,0.172-0.384,0.383v0.451h-0.451c-0.212,0-0.384,0.172-0.384,0.383C44.503,18.471,44.675,18.643,44.886,18.643"/>
	</defs>
	<clipPath id="SVGID_18_">
		<use xlink:href="#SVGID_265_"  style="overflow:visible;"/>
	</clipPath>
	<g class="st14">
		<defs>
			<rect id="SVGID_267_" x="2.161" y="3.638" width="44.778" height="35.335"/>
		</defs>
		<clipPath id="SVGID_20_">
			<use xlink:href="#SVGID_267_"  style="overflow:visible;"/>
		</clipPath>
		<g class="st15">
			<rect x="42.98" y="15.518" class="st1" width="5.483" height="5.483"/>
		</g>
	</g>
</g>
<g>
	<defs>
		<path id="SVGID_269_" d="M48.221,42.133c0-0.252-0.183-0.457-0.408-0.457h-2.84c-0.225,0-0.408,0.205-0.408,0.457
			s0.183,0.457,0.408,0.457h2.84C48.039,42.59,48.221,42.386,48.221,42.133"/>
	</defs>
	<clipPath id="SVGID_22_">
		<use xlink:href="#SVGID_269_"  style="overflow:visible;"/>
	</clipPath>
	<g class="st16">
		<defs>
			<rect id="SVGID_271_" x="3.443" y="10.911" width="44.778" height="35.335"/>
		</defs>
		<clipPath id="SVGID_24_">
			<use xlink:href="#SVGID_271_"  style="overflow:visible;"/>
		</clipPath>
		<g class="st17">
			<rect x="43.043" y="40.153" class="st1" width="6.702" height="3.96"/>
		</g>
	</g>
</g>
<g>
	<defs>
		<path id="SVGID_273_" d="M34.532,10.598h1.665c0.213,0,0.386-0.205,0.386-0.457c0-0.252-0.173-0.457-0.386-0.457h-1.665
			c-0.213,0-0.386,0.205-0.386,0.457C34.146,10.394,34.319,10.598,34.532,10.598"/>
	</defs>
	<clipPath id="SVGID_26_">
		<use xlink:href="#SVGID_273_"  style="overflow:visible;"/>
	</clipPath>
	<g class="st18">
		<defs>
			<rect id="SVGID_275_" x="2.161" y="6.638" width="44.778" height="35.335"/>
		</defs>
		<clipPath id="SVGID_28_">
			<use xlink:href="#SVGID_275_"  style="overflow:visible;"/>
		</clipPath>
		<g class="st19">
			<rect x="32.623" y="8.161" class="st1" width="5.483" height="3.96"/>
		</g>
	</g>
</g>
<g>
	<g>
		<polygon class="st165" points="37.699,34.427 15.886,34.426 14.866,34.18 16.745,36.446 37.699,36.446 		"/>
		<rect x="15.294" y="15.25" class="st125" width="22.404" height="4.441"/>
		<g>
			<path class="st166" d="M16.897,16.652v-0.404c0.89,0,1.615-0.724,1.615-1.615s-0.724-1.615-1.615-1.615s-1.615,0.724-1.615,1.615
				h-0.404c0-1.113,0.905-2.018,2.018-2.018s2.018,0.905,2.018,2.018S18.01,16.652,16.897,16.652"/>
			<path class="st166" d="M21.54,16.652v-0.404c0.89,0,1.615-0.724,1.615-1.615s-0.724-1.615-1.615-1.615s-1.615,0.724-1.615,1.615
				h-0.404c0-1.113,0.905-2.018,2.018-2.018s2.018,0.905,2.018,2.018S22.653,16.652,21.54,16.652"/>
			<path class="st166" d="M26.183,16.652v-0.404c0.89,0,1.615-0.724,1.615-1.615s-0.724-1.615-1.615-1.615s-1.615,0.724-1.615,1.615
				h-0.404c0-1.113,0.905-2.018,2.018-2.018c1.113,0,2.018,0.905,2.018,2.018S27.296,16.652,26.183,16.652"/>
			<path class="st166" d="M39.304,34.617h-23.63c-0.779,0-1.413-0.634-1.413-1.413l0.013-18.773h24.019v18.571h2.423v0.202
				C40.717,33.983,40.083,34.617,39.304,34.617 M16.662,34.214h22.642c0.487,0,0.895-0.347,0.989-0.807h-23.22
				C17.028,33.72,16.879,34.001,16.662,34.214 M14.678,14.835l-0.013,18.369c0,0.556,0.453,1.009,1.009,1.009
				c0.556,0,1.009-0.453,1.009-1.009v-0.202H37.89V14.835H14.678z"/>
			<path class="st166" d="M12.256,33.204H5.595l-0.001-0.637l0.01-0.031l5.9-18.105h0.752V33.204z M5.998,32.8h5.855V14.835h-0.056
				l-5.8,17.796L5.998,32.8z"/>
			<rect x="35.468" y="32.801" class="st0" width="3.555" height="3.906"/>
			<rect x="12.659" y="14.432" class="st166" width="0.404" height="22.205"/>
			<path class="st166" d="M30.826,16.652v-0.404c0.89,0,1.615-0.724,1.615-1.615s-0.724-1.615-1.615-1.615s-1.615,0.724-1.615,1.615
				h-0.404c0-1.113,0.905-2.018,2.018-2.018s2.018,0.905,2.018,2.018S31.939,16.652,30.826,16.652"/>
			<path class="st166" d="M35.469,16.652v-0.404c0.89,0,1.615-0.724,1.615-1.615s-0.724-1.615-1.615-1.615s-1.615,0.724-1.615,1.615
				h-0.404c0-1.113,0.905-2.018,2.018-2.018c1.113,0,2.018,0.905,2.018,2.018S36.582,16.652,35.469,16.652"/>
			<path class="st167" d="M19.115,26.137h-2.422v-2.422h2.422V26.137z M17.096,25.733h1.615v-1.615h-1.615V25.733z"/>
			<path class="st167" d="M19.115,23.313h-2.422v-2.422h2.422V23.313z M17.096,22.909h1.615v-1.615h-1.615V22.909z"/>
			<path class="st167" d="M19.115,28.964h-2.422v-2.422h2.422V28.964z M17.096,28.561h1.615v-1.615h-1.615V28.561z"/>
			<path class="st167" d="M19.115,31.788h-2.422v-2.422h2.422V31.788z M17.096,31.385h1.615V29.77h-1.615V31.385z"/>
			<path class="st167" d="M21.939,26.137h-2.422v-2.422h2.422V26.137z M19.92,25.733h1.615v-1.615H19.92V25.733z"/>
			<path class="st167" d="M21.939,23.313h-2.422v-2.422h2.422V23.313z M19.92,22.909h1.615v-1.615H19.92V22.909z"/>
			<path class="st167" d="M21.939,28.964h-2.422v-2.422h2.422V28.964z M19.92,28.561h1.615v-1.615H19.92V28.561z"/>
			<path class="st167" d="M21.939,31.788h-2.422v-2.422h2.422V31.788z M19.92,31.385h1.615V29.77H19.92V31.385z"/>
			<path class="st167" d="M24.765,26.137h-2.422v-2.422h2.422V26.137z M22.746,25.733h1.615v-1.615h-1.615V25.733z"/>
			<path class="st167" d="M24.765,23.313h-2.422v-2.422h2.422V23.313z M22.746,22.909h1.615v-1.615h-1.615V22.909z"/>
			<path class="st167" d="M24.765,28.964h-2.422v-2.422h2.422V28.964z M22.746,28.561h1.615v-1.615h-1.615V28.561z"/>
			<path class="st167" d="M24.765,31.788h-2.422v-2.422h2.422V31.788z M22.746,31.385h1.615V29.77h-1.615V31.385z"/>
			<path class="st167" d="M27.59,26.137h-2.422v-2.422h2.422V26.137z M25.572,25.733h1.615v-1.615h-1.615V25.733z"/>
			<path class="st167" d="M27.59,23.313h-2.422v-2.422h2.422V23.313z M25.572,22.909h1.615v-1.615h-1.615V22.909z"/>
			<path class="st167" d="M27.59,28.964h-2.422v-2.422h2.422V28.964z M25.572,28.561h1.615v-1.615h-1.615V28.561z"/>
			<path class="st167" d="M27.59,31.788h-2.422v-2.422h2.422V31.788z M25.572,31.385h1.615V29.77h-1.615V31.385z"/>
			<path class="st167" d="M30.416,26.137h-2.422v-2.422h2.422V26.137z M28.398,25.733h1.615v-1.615h-1.615V25.733z"/>
			<path class="st167" d="M30.416,23.313h-2.422v-2.422h2.422V23.313z M28.398,22.909h1.615v-1.615h-1.615V22.909z"/>
			<path class="st167" d="M30.416,28.964h-2.422v-2.422h2.422V28.964z M28.398,28.561h1.615v-1.615h-1.615V28.561z"/>
			<path class="st167" d="M30.416,31.788h-2.422v-2.422h2.422V31.788z M28.398,31.385h1.615V29.77h-1.615V31.385z"/>
			<path class="st167" d="M33.242,26.137H30.82v-2.422h2.422V26.137z M31.224,25.733h1.615v-1.615h-1.615V25.733z"/>
			<path class="st167" d="M33.242,23.313H30.82v-2.422h2.422V23.313z M31.224,22.909h1.615v-1.615h-1.615V22.909z"/>
			<path class="st167" d="M33.242,28.964H30.82v-2.422h2.422V28.964z M31.224,28.561h1.615v-1.615h-1.615V28.561z"/>
			<path class="st167" d="M33.242,31.788H30.82v-2.422h2.422V31.788z M31.224,31.385h1.615V29.77h-1.615V31.385z"/>
			<path class="st167" d="M36.068,26.137h-2.422v-2.422h2.422V26.137z M34.049,25.733h1.615v-1.615h-1.615V25.733z"/>
			<path class="st167" d="M36.068,23.313h-2.422v-2.422h2.422V23.313z M34.049,22.909h1.615v-1.615h-1.615V22.909z"/>
			<path class="st167" d="M36.068,28.964h-2.422v-2.422h2.422V28.964z M34.049,28.561h1.615v-1.615h-1.615V28.561z"/>
			<path class="st167" d="M36.068,31.788h-2.422v-2.422h2.422V31.788z M34.049,31.385h1.615V29.77h-1.615V31.385z"/>
			<polygon class="st167" points="37.718,36.634 13.467,36.634 13.467,14.432 13.871,14.432 13.871,36.23 37.315,36.23 
				37.315,34.481 37.718,34.481 			"/>
			<path class="st59" d="M8.925,38.873c-1.447,0-2.624-1.177-2.624-2.624c0-1.447,1.177-2.624,2.624-2.624s2.624,1.177,2.624,2.624
				C11.549,37.696,10.372,38.873,8.925,38.873 M8.925,34.029c-1.224,0-2.22,0.996-2.22,2.22c0,1.224,0.996,2.22,2.22,2.22
				s2.22-0.996,2.22-2.22C11.145,35.025,10.149,34.029,8.925,34.029"/>
			<polygon class="st131" points="9.13,37.259 8.727,37.259 8.727,36.162 9.41,35.497 9.691,35.787 9.13,36.333 			"/>
			<rect x="8.743" y="34.431" class="st168" width="0.404" height="0.404"/>
			<rect x="8.743" y="37.66" class="st168" width="0.404" height="0.404"/>
			<rect x="10.358" y="36.046" class="st168" width="0.404" height="0.404"/>
			<rect x="7.128" y="36.046" class="st168" width="0.404" height="0.404"/>
			<rect x="33.508" y="32.707" class="st130" width="11.291" height="5.116"/>
			<rect x="33.508" y="27.326" class="st130" width="11.291" height="5.646"/>
			<path class="st57" d="M44.448,32.619H33.862v-4.94h10.585V32.619z M34.215,32.266h9.879v-4.234h-9.879V32.266z"/>
			<path class="st57" d="M39.669,31.399h-0.975c-0.309,0-0.56-0.253-0.56-0.563h0.353c0,0.116,0.093,0.21,0.208,0.21h0.975
				c0.145,0,0.263-0.119,0.263-0.266v-0.167c0-0.145-0.118-0.263-0.263-0.263h-0.961c-0.34,0-0.616-0.276-0.616-0.616v-0.167
				c0-0.34,0.276-0.616,0.616-0.616h1.033c0.268,0,0.486,0.218,0.486,0.486h-0.353c0-0.074-0.06-0.133-0.133-0.133h-1.033
				c-0.145,0-0.263,0.118-0.263,0.263v0.167c0,0.145,0.118,0.263,0.263,0.263h0.961c0.34,0,0.616,0.276,0.616,0.616v0.167
				C40.285,31.121,40.009,31.399,39.669,31.399"/>
			<rect x="39.065" y="28.561" class="st57" width="0.353" height="3.176"/>
			<rect x="40.919" y="29.62" class="st57" width="1.235" height="0.353"/>
			<rect x="40.919" y="30.326" class="st57" width="1.235" height="0.353"/>
			<rect x="36.509" y="29.62" class="st57" width="1.235" height="0.353"/>
			<rect x="36.509" y="30.326" class="st57" width="1.235" height="0.353"/>
			<path class="st57" d="M34.034,29.532v-0.353c0.73,0,1.323-0.593,1.323-1.323h0.353C35.709,28.78,34.958,29.532,34.034,29.532"/>
			<path class="st57" d="M35.709,32.444h-0.353c0-0.73-0.593-1.323-1.323-1.323v-0.353C34.958,30.768,35.709,31.52,35.709,32.444"/>
			<path class="st57" d="M44.359,29.532c-0.924,0-1.676-0.752-1.676-1.676h0.353c0,0.73,0.593,1.323,1.323,1.323V29.532z"/>
			<path class="st57" d="M43.036,32.444h-0.353c0-0.924,0.752-1.676,1.676-1.676v0.353C43.63,31.121,43.036,31.715,43.036,32.444"/>
			<rect x="33.508" y="32.922" class="st57" width="11.291" height="0.353"/>
			<rect x="33.508" y="33.628" class="st57" width="11.291" height="0.353"/>
			<rect x="33.508" y="34.335" class="st57" width="11.291" height="0.353"/>
			<rect x="33.508" y="35.041" class="st57" width="11.291" height="0.353"/>
			<rect x="33.508" y="35.747" class="st57" width="11.291" height="0.353"/>
			<rect x="33.508" y="36.453" class="st57" width="11.291" height="0.353"/>
			<rect x="33.508" y="37.159" class="st57" width="11.291" height="0.353"/>
		</g>
	</g>
</g>
</svg>
