<?xml version="1.0" encoding="utf-8"?>
<!-- Generator: Adobe Illustrator 17.0.0, SVG Export Plug-In . SVG Version: 6.00 Build 0)  -->
<!DOCTYPE svg PUBLIC "-//W3C//DTD SVG 1.1//EN" "http://www.w3.org/Graphics/SVG/1.1/DTD/svg11.dtd">
<svg version="1.1" id="Layer_1" xmlns="http://www.w3.org/2000/svg" xmlns:xlink="http://www.w3.org/1999/xlink" x="0px" y="0px"
	 width="36px" height="36px" viewBox="0 0 36 36" enable-background="new 0 0 36 36" xml:space="preserve">
<g>
	<path fill="#FFFFFF" stroke="#171C28" stroke-linecap="round" stroke-linejoin="round" stroke-miterlimit="10" d="M17.212,32.85
		H5.4c-0.338,0-0.563-0.225-0.563-0.563V22.163c0-0.337,0.225-0.563,0.563-0.563h11.813c0.338,0,0.563,0.225,0.563,0.563v10.125
		C17.775,32.569,17.494,32.85,17.212,32.85z"/>
	
		<line fill="none" stroke="#171C28" stroke-linecap="round" stroke-linejoin="round" stroke-miterlimit="10" x1="4.838" y1="24.413" x2="17.775" y2="24.413"/>
	
		<line fill="none" stroke="#171C28" stroke-linecap="round" stroke-linejoin="round" stroke-miterlimit="10" x1="15.525" y1="19.913" x2="15.525" y2="22.725"/>
	
		<line fill="none" stroke="#171C28" stroke-linecap="round" stroke-linejoin="round" stroke-miterlimit="10" x1="7.088" y1="19.913" x2="7.088" y2="22.725"/>
	<path fill="#FFFFFF" stroke="#171C28" stroke-linecap="round" stroke-linejoin="round" stroke-miterlimit="10" d="M8.213,29.475
		L8.213,29.475c0,0.619,0.506,1.125,1.125,1.125H9.9c0.619,0,1.125-0.506,1.125-1.125l0,0l0,0c0-0.619-0.506-1.125-1.125-1.125
		H9.338H9.9c0.619,0,1.125-0.506,1.125-1.125l0,0l0,0c0-0.619-0.506-1.125-1.125-1.125H9.338c-0.619,0-1.125,0.506-1.125,1.125l0,0"
		/>
	<polyline fill="#FFFFFF" stroke="#171C28" stroke-linecap="round" stroke-linejoin="round" stroke-miterlimit="10" points="
		13.838,30.6 13.838,26.1 12.713,27.225 	"/>
</g>
<g>
	<g id="XMLID_1787_">
		<path id="XMLID_1806_" fill="#FFFFFF" d="M28.294,12.262l2.925,3.15v4.838l-0.788,2.363v4.5h-5.906v-1.8
			c0,0-1.744-2.475-1.688-4.5"/>
		<g id="XMLID_1804_">
			
				<rect id="XMLID_1805_" x="18.609" y="3.073" fill="#FFFFFF" stroke="#171C28" stroke-linecap="round" stroke-linejoin="round" stroke-miterlimit="10" width="9" height="15.806"/>
		</g>
		<path id="XMLID_1803_" fill="none" stroke="#171C28" stroke-linecap="round" stroke-linejoin="round" stroke-miterlimit="10" d="
			M28.294,12.262l2.925,3.15v4.838l-0.788,2.363v4.5h-5.906v-1.8c0,0-1.744-2.475-1.688-4.5"/>
		
			<polyline id="XMLID_1802_" fill="none" stroke="#171C28" stroke-linecap="round" stroke-linejoin="round" stroke-miterlimit="10" points="
			21.375,14.906 21.375,16.087 22.275,16.875 23.794,16.875 24.75,16.2 24.75,14.906 		"/>
		
			<path id="XMLID_1801_" fill="#FFFFFF" stroke="#171C28" stroke-linecap="round" stroke-linejoin="round" stroke-miterlimit="10" d="
			M28.519,17.606l-3.15-3.15c0,0-1.913-0.9-1.913,1.913l2.813,2.813c0,0-0.225,2.644,1.969,4.781"/>
		
			<polyline id="XMLID_1800_" fill="#0D3178" stroke="#171C28" stroke-linecap="round" stroke-linejoin="round" stroke-miterlimit="10" points="
			23.288,32.625 23.288,27.056 31.837,27.056 31.837,32.625 		"/>
		
			<polyline id="XMLID_1799_" fill="none" stroke="#171C28" stroke-linecap="round" stroke-linejoin="round" stroke-miterlimit="10" points="
			24.75,6.638 24.75,5.456 23.794,4.669 22.275,4.669 21.375,5.344 21.375,6.638 		"/>
		<g id="XMLID_1791_">
			
				<ellipse id="XMLID_1798_" fill="#FFFFFF" stroke="#171C28" stroke-linecap="round" stroke-linejoin="round" stroke-miterlimit="10" cx="23.175" cy="10.744" rx="2.7" ry="2.7"/>
			<ellipse id="XMLID_1797_" fill="#0D3178" cx="23.175" cy="10.744" rx="2.137" ry="2.137"/>
		</g>
	</g>
</g>
<g>
	<path fill="#FFFFFF" d="M22.312,11.76v-0.193h0.721V11.56c-0.058-0.04-0.111-0.079-0.16-0.117l-0.562-0.457v-0.24l0.635,0.541
		l0.861-0.584v0.229l-0.734,0.492l0.165,0.142h0.57v0.193H22.312z"/>
	<path fill="#FFFFFF" d="M23.572,10.584c0.053-0.087,0.098-0.213,0.098-0.346c0-0.197-0.104-0.313-0.255-0.313
		c-0.14,0-0.22,0.08-0.298,0.282c-0.087,0.244-0.213,0.395-0.424,0.395c-0.233,0-0.405-0.193-0.405-0.483
		c0-0.154,0.035-0.264,0.073-0.331l0.158,0.053c-0.027,0.049-0.071,0.149-0.071,0.284c0,0.204,0.121,0.282,0.224,0.282
		c0.14,0,0.208-0.091,0.288-0.298c0.098-0.253,0.22-0.381,0.44-0.381c0.231,0,0.43,0.171,0.43,0.523
		c0,0.145-0.042,0.302-0.095,0.382L23.572,10.584z"/>
</g>
</svg>
