<?xml version="1.0" encoding="utf-8"?>
<!-- Generator: Adobe Illustrator 22.0.1, SVG Export Plug-In . SVG Version: 6.00 Build 0)  -->
<svg version="1.1" xmlns="http://www.w3.org/2000/svg" xmlns:xlink="http://www.w3.org/1999/xlink" x="0px" y="0px"
	 viewBox="0 0 64 64" style="enable-background:new 0 0 64 64;" xml:space="preserve">
<style type="text/css">
	.st0{fill:#F9CA38;}
	.st1{fill:#CEE8FA;}
	.st2{fill:#FFFFFF;}
	.st3{fill:#4C5C68;}
	.st4{fill:none;stroke:#4C5C68;stroke-linecap:round;stroke-linejoin:round;stroke-miterlimit:10;}
	.st5{fill:#CEE8FA;stroke:#4C5C68;stroke-linecap:round;stroke-linejoin:round;stroke-miterlimit:10;}
	.st6{fill:#F9CA38;stroke:#4C5C68;stroke-linecap:round;stroke-linejoin:round;stroke-miterlimit:10;}
	.st7{fill:#FFFFFF;stroke:#4C5C68;stroke-linecap:round;stroke-linejoin:round;stroke-miterlimit:10;}
	.st8{fill:#FFFFFF;stroke:#FEBD2E;stroke-linecap:round;stroke-linejoin:round;stroke-miterlimit:10;}
	.st9{fill:#FEBD2E;stroke:#4C5C68;stroke-linecap:round;stroke-linejoin:round;stroke-miterlimit:10;}
	.st10{fill:#286090;}
	.st11{fill:#969696;}
	.st12{fill:#FFFFFF;stroke:#4C5C68;stroke-width:1.2173;stroke-linecap:round;stroke-linejoin:round;stroke-miterlimit:10;}
	.st13{fill:#FFFFFF;stroke:#4C5C68;stroke-width:0.8881;stroke-linecap:round;stroke-linejoin:round;stroke-miterlimit:10;}
	.st14{fill:none;stroke:#CEE8FA;stroke-width:1.0985;stroke-linecap:round;stroke-linejoin:round;stroke-miterlimit:10;}
	.st15{opacity:0.6;fill:#286090;}
	.st16{fill:none;stroke:#4C5C68;stroke-width:1.0254;stroke-linecap:round;stroke-linejoin:round;stroke-miterlimit:10;}
	.st17{fill:#FFFFFF;stroke:#4C5C68;stroke-miterlimit:10;}
	.st18{fill:none;stroke:#286090;stroke-linecap:round;stroke-linejoin:round;stroke-miterlimit:10;stroke-dasharray:0,2;}
	.st19{fill:none;stroke:#286090;stroke-linecap:round;stroke-linejoin:round;stroke-miterlimit:10;}
	.st20{fill:#FEBD2E;}
	.st21{fill:none;stroke:#CEE8FA;stroke-linecap:round;stroke-linejoin:round;stroke-miterlimit:10;}
	.st22{fill:#FFFFFF;stroke:#4C5C68;stroke-width:1.1073;stroke-miterlimit:10;}
	.st23{fill:#CEE8FA;stroke:#4C5C68;stroke-width:1.1073;stroke-linecap:round;stroke-linejoin:round;stroke-miterlimit:10;}
	.st24{fill:#FFFFFF;stroke:#4C5C68;stroke-width:1.1073;stroke-linecap:round;stroke-linejoin:round;stroke-miterlimit:10;}
	.st25{fill:none;stroke:#4C5C68;stroke-width:1.1073;stroke-linecap:round;stroke-linejoin:round;stroke-miterlimit:10;}
	.st26{fill:#FFFFFF;stroke:#4C5C68;stroke-width:1.0096;stroke-miterlimit:10;}
	.st27{fill:#286090;stroke:#4C5C68;stroke-width:1.0096;stroke-linecap:round;stroke-linejoin:round;stroke-miterlimit:10;}
	.st28{fill:#FFFFFF;stroke:#4C5C68;stroke-width:1.0096;stroke-linecap:round;stroke-linejoin:round;stroke-miterlimit:10;}
	.st29{fill:none;stroke:#4C5C68;stroke-width:1.0096;stroke-linecap:round;stroke-linejoin:round;stroke-miterlimit:10;}
	.st30{fill:#FFFFFF;stroke:#4C5C68;stroke-width:1.0964;stroke-miterlimit:10;}
	.st31{fill:#CEE8FA;stroke:#4C5C68;stroke-width:1.0964;stroke-linecap:round;stroke-linejoin:round;stroke-miterlimit:10;}
	.st32{fill:#FFFFFF;stroke:#4C5C68;stroke-width:1.0964;stroke-linecap:round;stroke-linejoin:round;stroke-miterlimit:10;}
	.st33{fill:none;stroke:#4C5C68;stroke-width:1.0964;stroke-linecap:round;stroke-linejoin:round;stroke-miterlimit:10;}
	.st34{fill:none;stroke:#4C5C68;stroke-width:1.0985;stroke-linecap:round;stroke-linejoin:round;stroke-miterlimit:10;}
	.st35{fill:none;stroke:#333333;stroke-width:2;stroke-linecap:round;stroke-linejoin:round;stroke-miterlimit:10;}
	.st36{fill:#FFFFFF;stroke:#4C5C68;stroke-width:1.2007;stroke-linecap:round;stroke-linejoin:round;stroke-miterlimit:10;}
	.st37{fill:#CEE8FA;stroke:#4C5C68;stroke-width:1.2007;stroke-linecap:round;stroke-linejoin:round;stroke-miterlimit:10;}
	
		.st38{fill:none;stroke:#4C5C68;stroke-width:1.2007;stroke-linecap:round;stroke-linejoin:round;stroke-miterlimit:10;stroke-dasharray:1.2007,3.6021;}
	.st39{fill:#FEBD2E;stroke:#4C5C68;stroke-width:1.2007;stroke-linecap:round;stroke-linejoin:round;stroke-miterlimit:10;}
	.st40{fill:none;stroke:#4C5C68;stroke-width:1.0828;stroke-linecap:round;stroke-linejoin:round;stroke-miterlimit:10;}
	.st41{fill:none;stroke:#4C5C68;stroke-width:1.1103;stroke-linecap:round;stroke-linejoin:round;stroke-miterlimit:10;}
	.st42{fill:#FFFFFF;stroke:#4C5C68;stroke-width:1.1517;stroke-linecap:round;stroke-linejoin:round;stroke-miterlimit:10;}
	.st43{fill:#CEE8FA;stroke:#4C5C68;stroke-width:0.965;stroke-linecap:round;stroke-linejoin:round;stroke-miterlimit:10;}
	.st44{fill:#286090;stroke:#4C5C68;stroke-width:0.9531;stroke-linecap:round;stroke-linejoin:round;stroke-miterlimit:10;}
	.st45{fill:none;stroke:#4C5C68;stroke-width:1.1517;stroke-linecap:round;stroke-linejoin:round;stroke-miterlimit:10;}
	.st46{fill:#FFFFFF;stroke:#4C5C68;stroke-width:0.9551;stroke-linecap:round;stroke-linejoin:round;stroke-miterlimit:10;}
	.st47{fill:#FFFFFF;stroke:#4C5C68;stroke-width:1.1517;stroke-miterlimit:10;}
	.st48{fill:none;stroke:#4C5C68;stroke-width:0.6689;stroke-linecap:round;stroke-linejoin:round;stroke-miterlimit:10;}
	.st49{fill:#F9CA38;stroke:#4C5C68;stroke-width:0.6689;stroke-linecap:round;stroke-linejoin:round;stroke-miterlimit:10;}
	.st50{fill:#286090;stroke:#4C5C68;stroke-width:0.6689;stroke-linecap:round;stroke-linejoin:round;stroke-miterlimit:10;}
	.st51{fill:#4C5C68;stroke:#4C5C68;stroke-width:0.2347;stroke-linecap:round;stroke-linejoin:round;stroke-miterlimit:10;}
	.st52{fill:#CEE8FA;stroke:#4C5C68;stroke-width:0.8962;stroke-linecap:round;stroke-linejoin:round;stroke-miterlimit:10;}
	.st53{fill:#FFFFFF;stroke:#4C5C68;stroke-width:0.8962;stroke-linecap:round;stroke-linejoin:round;stroke-miterlimit:10;}
	.st54{fill:none;stroke:#4C5C68;stroke-width:0.8962;stroke-linecap:round;stroke-linejoin:round;stroke-miterlimit:10;}
	.st55{fill:none;stroke:#F9CA38;stroke-linecap:round;stroke-linejoin:round;stroke-miterlimit:10;}
	.st56{fill:#4C5C68;stroke:#4C5C68;stroke-width:0.3;stroke-miterlimit:10;}
	.st57{fill:#CEE8FA;stroke:#4C5C68;stroke-width:0.8552;stroke-linecap:round;stroke-linejoin:round;stroke-miterlimit:10;}
	.st58{fill:#FFFFFF;stroke:#4C5C68;stroke-width:0.8552;stroke-linecap:round;stroke-linejoin:round;stroke-miterlimit:10;}
	
		.st59{fill:none;stroke:#4C5C68;stroke-width:0.8552;stroke-linecap:round;stroke-linejoin:round;stroke-miterlimit:10;stroke-dasharray:0.8552,2.5656;}
	.st60{fill:#286090;stroke:#4C5C68;stroke-linecap:round;stroke-linejoin:round;stroke-miterlimit:10;}
	.st61{fill:#286090;stroke:#FFFFFF;stroke-width:2;stroke-miterlimit:10;}
	.st62{fill:none;stroke:#4C5C68;stroke-width:0.8191;stroke-linecap:round;stroke-linejoin:round;stroke-miterlimit:10;}
	.st63{fill:#FEBD2E;stroke:#4C5C68;stroke-width:0.8191;stroke-linecap:round;stroke-linejoin:round;stroke-miterlimit:10;}
	.st64{fill:#FFFFFF;stroke:#4C5C68;stroke-width:0.9531;stroke-linecap:round;stroke-linejoin:round;stroke-miterlimit:10;}
	.st65{fill:none;stroke:#4C5C68;stroke-width:0.9531;stroke-linecap:round;stroke-linejoin:round;stroke-miterlimit:10;}
	.st66{fill:none;stroke:#F9CA38;stroke-width:1.1858;stroke-miterlimit:10;}
	.st67{fill:#CEE8FA;stroke:#4C5C68;stroke-width:0.9531;stroke-linecap:round;stroke-linejoin:round;stroke-miterlimit:10;}
	.st68{fill:#FFFFFF;stroke:#4C5C68;stroke-width:0.965;stroke-linecap:round;stroke-linejoin:round;stroke-miterlimit:10;}
	.st69{fill:#F9CA38;stroke:#4C5C68;stroke-width:0.965;stroke-linecap:round;stroke-linejoin:round;stroke-miterlimit:10;}
	.st70{fill:#434343;}
	.st71{fill:#98C948;}
	.st72{fill:none;stroke:#2C3251;stroke-width:0.5;stroke-linecap:round;stroke-linejoin:round;stroke-miterlimit:10;}
	.st73{fill:#5FB0E5;}
	.st74{fill:#D2E9F7;}
	.st75{fill:#0686D8;}
	.st76{fill:#9ECFEF;}
	.st77{fill:none;stroke:#4C5C68;stroke-miterlimit:10;}
	.st78{fill:#4C5C68;stroke:#4C5C68;stroke-width:0.4;stroke-linecap:round;stroke-linejoin:round;stroke-miterlimit:10;}
	.st79{fill:none;stroke:#4C5C68;stroke-width:0.9106;stroke-miterlimit:10;}
	.st80{fill:#CEE8FA;stroke:#4C5C68;stroke-width:0.6053;stroke-linecap:round;stroke-linejoin:round;stroke-miterlimit:10;}
	.st81{fill:#FFFFFF;stroke:#4C5C68;stroke-width:0.6053;stroke-linecap:round;stroke-linejoin:round;stroke-miterlimit:10;}
	.st82{fill:#4C5C68;stroke:#FFFFFF;stroke-width:0.5;stroke-linecap:round;stroke-linejoin:round;stroke-miterlimit:10;}
	.st83{fill:#595959;}
	.st84{fill:none;stroke:#4C5C68;stroke-width:0.9106;stroke-linecap:round;stroke-linejoin:round;stroke-miterlimit:10;}
	.st85{fill:none;stroke:#4C5C68;stroke-width:0.8497;stroke-linecap:round;stroke-linejoin:round;stroke-miterlimit:10;}
	.st86{fill:#4C5C68;stroke:#4C5C68;stroke-width:0.2707;stroke-linecap:round;stroke-linejoin:round;stroke-miterlimit:10;}
	.st87{fill:#41464B;}
	.st88{fill:#FED65C;}
	.st89{fill:#FFFFFF;stroke:#000000;stroke-linecap:round;stroke-linejoin:round;stroke-miterlimit:10;}
	.st90{fill:#FFFFFF;stroke:#4C5C68;stroke-width:0.9809;stroke-linecap:round;stroke-linejoin:round;stroke-miterlimit:10;}
	.st91{fill:#5D5D5D;}
	.st92{fill:none;stroke:#4C5C68;stroke-width:1.0654;stroke-miterlimit:10;}
	.st93{fill:#FFFFFF;stroke:#4C5C68;stroke-width:1.0654;stroke-miterlimit:10;}
	.st94{fill:#FFFFFF;stroke:#4C5C68;stroke-width:1.0654;stroke-linecap:round;stroke-linejoin:round;stroke-miterlimit:10;}
	.st95{fill:none;stroke:#4C5C68;stroke-width:1.3058;stroke-miterlimit:10;}
	.st96{fill:#FFFFFF;stroke:#4C5C68;stroke-width:1.1061;stroke-miterlimit:10;}
	.st97{fill:#CEE8FA;stroke:#4C5C68;stroke-width:1.1061;stroke-linecap:round;stroke-linejoin:round;stroke-miterlimit:10;}
	.st98{fill:#FFFFFF;stroke:#4C5C68;stroke-width:1.1061;stroke-linecap:round;stroke-linejoin:round;stroke-miterlimit:10;}
	.st99{fill:none;stroke:#4C5C68;stroke-width:1.1061;stroke-linecap:round;stroke-linejoin:round;stroke-miterlimit:10;}
	.st100{fill:#FFFFFF;stroke:#4C5C68;stroke-width:0.4976;stroke-linecap:round;stroke-linejoin:round;stroke-miterlimit:10;}
	.st101{fill:none;stroke:#4C5C68;stroke-width:0.4976;stroke-linecap:round;stroke-linejoin:round;stroke-miterlimit:10;}
	.st102{fill:#FFFFFF;stroke:#FEBD2E;stroke-width:0.4976;stroke-linecap:round;stroke-linejoin:round;stroke-miterlimit:10;}
	.st103{fill:#FFFFFF;stroke:#4C5C68;stroke-width:1.1423;stroke-linecap:round;stroke-linejoin:round;stroke-miterlimit:10;}
	.st104{fill:#FEBD2E;stroke:#4C5C68;stroke-width:1.1423;stroke-linecap:round;stroke-linejoin:round;stroke-miterlimit:10;}
	.st105{fill:#FFFFFF;stroke:#4C5C68;stroke-width:1.14;stroke-linecap:round;stroke-linejoin:round;stroke-miterlimit:10;}
	.st106{fill:#CEE8FA;stroke:#4C5C68;stroke-width:1.136;stroke-linecap:round;stroke-linejoin:round;stroke-miterlimit:10;}
	.st107{fill:none;stroke:#4C5C68;stroke-width:1.136;stroke-linecap:round;stroke-linejoin:round;stroke-miterlimit:10;}
	.st108{fill:#FFFFFF;stroke:#4C5C68;stroke-width:1.0633;stroke-linecap:round;stroke-linejoin:round;stroke-miterlimit:10;}
	.st109{fill:#F9CA38;stroke:#4C5C68;stroke-width:1.136;stroke-linecap:round;stroke-linejoin:round;stroke-miterlimit:10;}
	.st110{fill:#4C5C68;stroke:#4C5C68;stroke-width:0.3408;stroke-miterlimit:10;}
	.st111{fill:#FFFFFF;stroke:#4C5C68;stroke-width:0.895;stroke-linecap:round;stroke-linejoin:round;stroke-miterlimit:10;}
	.st112{fill:none;stroke:#4C5C68;stroke-width:1.0796;stroke-linecap:round;stroke-linejoin:round;stroke-miterlimit:10;}
	.st113{fill:none;stroke:#4C5C68;stroke-width:1.1071;stroke-linecap:round;stroke-linejoin:round;stroke-miterlimit:10;}
	.st114{fill:#F9CA38;stroke:#4C5C68;stroke-width:1.0796;stroke-linecap:round;stroke-linejoin:round;stroke-miterlimit:10;}
	.st115{fill:#FFFFFF;stroke:#4C5C68;stroke-width:1.0796;stroke-linecap:round;stroke-linejoin:round;stroke-miterlimit:10;}
</style>
<g id="Layer_2">
</g>
<g id="Layer_1">
	<g>
		<path class="st3" d="M36.5,58.1H7.8V14.8h10.3c0.3,0,0.5-0.2,0.5-0.5V3.9h33.5v33.6l1.1,0V3.3c0-0.3-0.2-0.5-0.5-0.5H18.2
			c-0.3,0-0.5,0.2-0.5,0.5v10.3H7.3c-0.3,0-0.5,0.2-0.5,0.5v44.5c0,0.3,0.2,0.5,0.5,0.5h29.3L36.5,58.1z"/>
		<path class="st3" d="M18.7,3.3c0-0.2-0.1-0.4-0.3-0.5l0,0c-0.1,0-0.1,0-0.2,0c-0.1,0-0.3,0.1-0.4,0.2L6.9,13.8
			c-0.2,0.2-0.2,0.4-0.1,0.6c0.1,0.2,0.3,0.3,0.5,0.3h10.9c0.3,0,0.5-0.2,0.5-0.5V3.3z M17.6,13.7h-9l0.3-0.3l8.8-8.8V13.7z"/>
		<line id="XMLID_1568_" class="st112" x1="34.8" y1="8.7" x2="23.4" y2="8.7"/>
		<line id="XMLID_1567_" class="st112" x1="47.5" y1="12.9" x2="39" y2="12.9"/>
		<line id="XMLID_1565_" class="st112" x1="36.9" y1="12.9" x2="23.4" y2="12.9"/>
		<line id="XMLID_1571_" class="st112" x1="47.1" y1="21.2" x2="13.1" y2="21.2"/>
		<line id="XMLID_1576_" class="st112" x1="47.1" y1="29.3" x2="13.1" y2="29.3"/>
		<line id="XMLID_1638_" class="st112" x1="47.8" y1="50.2" x2="25.1" y2="50.2"/>
		<line id="XMLID_1570_" class="st112" x1="37.2" y1="25.4" x2="28.6" y2="25.4"/>
		<line id="XMLID_1572_" class="st112" x1="47.8" y1="25.4" x2="39.3" y2="25.4"/>
		<line id="XMLID_1569_" class="st112" x1="26.6" y1="25.4" x2="13.1" y2="25.4"/>
		<line id="XMLID_1575_" class="st112" x1="37.2" y1="35.6" x2="28.6" y2="35.6"/>
		<line id="XMLID_1574_" class="st112" x1="47.8" y1="35.6" x2="39.3" y2="35.6"/>
		<line id="XMLID_1635_" class="st112" x1="30.9" y1="40.3" x2="25" y2="40.3"/>
		<line id="XMLID_1634_" class="st112" x1="41.5" y1="40.3" x2="33" y2="40.3"/>
		<line id="XMLID_1637_" class="st112" x1="30.9" y1="45.4" x2="25" y2="45.4"/>
		<line id="XMLID_1636_" class="st112" x1="41.5" y1="45.4" x2="33" y2="45.4"/>
		<line id="XMLID_1573_" class="st112" x1="26.6" y1="35.6" x2="25" y2="35.6"/>
		<g id="XMLID_1563_">
			<g>
				<path class="st2" d="M47.3,44.1c3.3,0,6,2.7,6,6s-2.7,6-6,6s-6-2.7-6-6S44,44.1,47.3,44.1 M47.3,39c-6.2,0-11.2,5-11.2,11.2
					c0,6.2,5,11.2,11.2,11.2s11.2-5,11.2-11.2C58.5,44,53.5,39,47.3,39L47.3,39z"/>
			</g>
		</g>
		<g id="XMLID_1562_">
			<circle class="st2" cx="47.3" cy="50.2" r="10.1"/>
			<g>
				<path class="st3" d="M47.3,40.6c5.3,0,9.6,4.3,9.6,9.6s-4.3,9.6-9.6,9.6s-9.6-4.3-9.6-9.6S42,40.6,47.3,40.6 M47.3,39.6
					c-5.8,0-10.6,4.7-10.6,10.6c0,5.8,4.7,10.6,10.6,10.6S57.9,56,57.9,50.2C57.9,44.3,53.2,39.6,47.3,39.6L47.3,39.6z"/>
			</g>
		</g>
		<g>
			<g id="XMLID_1560_">
				<path id="XMLID_1561_" class="st3" d="M46,53.7c-0.1,0-0.2,0-0.3-0.1L42.2,50c-0.2-0.2-0.2-0.4,0-0.6c0.2-0.2,0.4-0.2,0.6,0
					l3.5,3.5c0.2,0.2,0.2,0.4,0,0.6C46.2,53.6,46.1,53.7,46,53.7z"/>
			</g>
			<g id="XMLID_1513_">
				<path id="XMLID_1522_" class="st3" d="M46,53.7c-0.1,0-0.2,0-0.3-0.1c-0.2-0.2-0.2-0.4,0-0.6l6.2-6.2c0.2-0.2,0.4-0.2,0.6,0
					c0.2,0.2,0.2,0.4,0,0.6l-6.2,6.2C46.2,53.6,46.1,53.7,46,53.7z"/>
			</g>
		</g>
		<g id="XMLID_1639_">
			<path id="XMLID_1640_" class="st10" d="M17.9,34.5c0.5,0,0.9,0.4,0.9,0.9v0.5c1.2,0.1,2.3,0.5,3.3,1.2c0.3,0.2,0.6,0.5,0.6,1
				c0,0.7-0.5,1.2-1.2,1.2c-0.2,0-0.4-0.1-0.6-0.2c-0.7-0.4-1.5-0.8-2.2-0.9v4c3.2,0.8,4.6,2.1,4.6,4.3c0,2.3-1.8,3.8-4.5,4.1v1.3
				c0,0.5-0.4,0.9-0.9,0.9c-0.5,0-0.9-0.4-0.9-0.9v-1.3c-1.6-0.2-3-0.7-4.3-1.6c-0.4-0.2-0.6-0.6-0.6-1c0-0.7,0.5-1.2,1.2-1.2
				c0.3,0,0.5,0.1,0.7,0.2c1,0.7,2,1.2,3.1,1.4v-4.1c-3.1-0.8-4.5-2-4.5-4.3c0-2.2,1.8-3.8,4.4-4v-0.4C17,34.9,17.4,34.5,17.9,34.5z
				 M17.1,41.6v-3.7c-1.3,0.1-2,0.8-2,1.8C15.1,40.6,15.5,41.1,17.1,41.6z M18.7,44.6v3.8c1.3-0.1,2.1-0.8,2.1-1.8
				C20.8,45.6,20.4,45.1,18.7,44.6z"/>
		</g>
		<polygon id="XMLID_1644_" class="st109" points="6.4,14.2 18.3,14.1 18.2,3.2 		"/>
	</g>
	<path class="st3" d="M36.5,59.2H36c-0.3,0-0.5-0.2-0.5-0.5v0c0-0.3,0.2-0.5,0.5-0.5h0.5c0.3,0,0.5,0.2,0.5,0.5v0
		C37.1,59,36.8,59.2,36.5,59.2z"/>
	<path class="st3" d="M52.2,37.5V37c0-0.3,0.2-0.5,0.5-0.5h0c0.3,0,0.5,0.2,0.5,0.5v0.5c0,0.3-0.2,0.5-0.5,0.5h0
		C52.5,38,52.2,37.8,52.2,37.5z"/>
</g>
</svg>
