<?xml version="1.0" encoding="utf-8"?>
<!-- Generator: Adobe Illustrator 17.0.0, SVG Export Plug-In . SVG Version: 6.00 Build 0)  -->
<!DOCTYPE svg PUBLIC "-//W3C//DTD SVG 1.1//EN" "http://www.w3.org/Graphics/SVG/1.1/DTD/svg11.dtd">
<svg version="1.1" id="Layer_1" xmlns="http://www.w3.org/2000/svg" xmlns:xlink="http://www.w3.org/1999/xlink" x="0px" y="0px"
	 width="842.35px" height="595.3px" viewBox="0 0 842.35 595.3" enable-background="new 0 0 842.35 595.3" xml:space="preserve">
<g>
	
		<path id="XMLID_1968_" fill="#FFFFFF" stroke="#171C28" stroke-width="10" stroke-linecap="round" stroke-linejoin="round" stroke-miterlimit="10" d="
		M527.213,52.089H263.979c-23.254,0-41.857,18.603-41.857,41.857v359.97v33.486l11.162-9.302l10.232,9.302l9.302-9.302l8.371,9.302
		l10.232-9.302l10.232,9.302l10.232-9.302l9.302,9.302l8.371-9.302l11.162,9.302l8.371-9.302l10.232,9.302l8.371-9.302l7.441,9.302
		l7.441-9.302l9.302,9.302l9.302-9.302l9.302,9.302l9.302-9.302l8.371,9.302l10.232-9.302l10.232,9.302l10.232-9.302l8.371,9.302
		l8.371-9.302l9.302,9.302l9.302-9.302l9.302,9.302"/>
	
		<line id="XMLID_1966_" fill="none" stroke="#939597" stroke-width="10" stroke-linecap="round" stroke-linejoin="round" stroke-miterlimit="10" x1="354.204" y1="118.13" x2="256.537" y2="118.13"/>
	
		<line id="XMLID_1965_" fill="none" stroke="#939597" stroke-width="10" stroke-linecap="round" stroke-linejoin="round" stroke-miterlimit="10" x1="462.102" y1="292.069" x2="259.328" y2="292.069"/>
	
		<line id="XMLID_1964_" fill="none" stroke="#939597" stroke-width="10" stroke-linecap="round" stroke-linejoin="round" stroke-miterlimit="10" x1="462.102" y1="326.485" x2="259.328" y2="326.485"/>
	
		<line id="XMLID_1963_" fill="none" stroke="#939597" stroke-width="10" stroke-linecap="round" stroke-linejoin="round" stroke-miterlimit="10" x1="462.102" y1="362.761" x2="259.328" y2="362.761"/>
	
		<line id="XMLID_1962_" fill="none" stroke="#939597" stroke-width="10" stroke-linecap="round" stroke-linejoin="round" stroke-miterlimit="10" x1="462.102" y1="397.177" x2="259.328" y2="397.177"/>
	
		<line id="XMLID_1961_" fill="none" stroke="#939597" stroke-width="10" stroke-linecap="round" stroke-linejoin="round" stroke-miterlimit="10" x1="462.102" y1="433.453" x2="356.994" y2="433.453"/>
	
		<line id="XMLID_1960_" fill="none" stroke="#939597" stroke-width="10" stroke-linecap="round" stroke-linejoin="round" stroke-miterlimit="10" x1="462.102" y1="153.476" x2="390.48" y2="153.476"/>
	
		<line id="XMLID_1959_" fill="none" stroke="#939597" stroke-width="10" stroke-linecap="round" stroke-linejoin="round" stroke-miterlimit="10" x1="371.877" y1="153.476" x2="256.537" y2="153.476"/>
	
		<rect id="XMLID_1958_" x="257.467" y="188.822" fill="#0D3178" stroke="#ABE0F9" stroke-width="10" stroke-linecap="round" stroke-linejoin="round" stroke-miterlimit="10" width="210.215" height="66.971"/>
	<g id="XMLID_1955_">
		
			<circle id="XMLID_1957_" fill="#ABE0F9" stroke="#171C28" stroke-width="10" stroke-linecap="round" stroke-linejoin="round" stroke-miterlimit="10" cx="556.978" cy="443.685" r="63.251"/>
		
			<line id="XMLID_1956_" fill="none" stroke="#171C28" stroke-width="10" stroke-linecap="round" stroke-linejoin="round" stroke-miterlimit="10" x1="589.533" y1="500.424" x2="619.298" y2="544.141"/>
	</g>
	
		<path id="XMLID_1969_" fill="#FFFFFF" stroke="#171C28" stroke-width="10" stroke-linecap="round" stroke-linejoin="round" stroke-miterlimit="10" d="
		M505.819,123.711V77.203c0-13.952,11.162-26.044,26.044-26.044l0,0c13.952,0,26.044,11.162,26.044,26.044v13.952V358.11"/>
	
		<line id="XMLID_1970_" fill="none" stroke="#171C28" stroke-width="10" stroke-linecap="round" stroke-linejoin="round" stroke-miterlimit="10" x1="505.819" y1="186.961" x2="505.819" y2="379.504"/>
	<g>
		<path d="M521.473,412.516h7.748v28.943h0.267c1.603-2.317,3.205-4.454,4.719-6.413l18.345-22.53h9.618l-21.729,25.468
			l23.42,34.552h-9.173l-19.768-29.475l-5.7,6.589v22.886h-7.748v-60.02H521.473z"/>
		<path d="M568.403,464.523c2.315,1.514,6.413,3.116,10.33,3.116c5.7,0,8.371-2.849,8.371-6.413c0-3.739-2.226-5.787-8.015-7.924
			c-7.748-2.762-11.398-7.036-11.398-12.202c0-6.945,5.611-12.645,14.871-12.645c4.365,0,8.193,1.246,10.597,2.673l-1.959,5.698
			c-1.692-1.068-4.808-2.493-8.816-2.493c-4.63,0-7.212,2.671-7.212,5.876c0,3.563,2.582,5.166,8.193,7.303
			c7.479,2.849,11.309,6.591,11.309,13.001c0,7.57-5.878,12.912-16.119,12.912c-4.719,0-9.084-1.157-12.111-2.938L568.403,464.523z"
			/>
	</g>
</g>
</svg>
