<?xml version="1.0" encoding="utf-8"?>
<!-- Generator: Adobe Illustrator 23.0.1, SVG Export Plug-In . SVG Version: 6.00 Build 0)  -->
<svg version="1.1" id="Layer_1" xmlns="http://www.w3.org/2000/svg" xmlns:xlink="http://www.w3.org/1999/xlink" x="0px" y="0px"
	 viewBox="0 0 90.5 22" style="enable-background:new 0 0 90.5 22;" xml:space="preserve">
<style type="text/css">
	.st0{fill:#FFD70B;}
	.st1{fill:#2C3251;}
	.st2{fill:#FFFFFF;}
	.st3{fill:#006AB5;}
	.st4{fill:#2E7D32;}
	.st5{enable-background:new    ;}
</style>
<g>
	<path id="Rectangle-2_3_" class="st4" d="M3.3,0.5h83.8c1.8,0,3.1,1.3,3.1,3v15c0,1.7-1.3,3-3.1,3H3.3c-1.8,0-3.1-1.3-3.1-3v-15
		C0.2,1.8,1.6,0.5,3.3,0.5z"/>
	<g class="st5">
		<path class="st2" d="M29.9,12.5L29.9,12.5c0,0.9-0.3,1.6-0.9,2.2s-1.5,0.9-2.5,0.9c-1,0-1.9-0.4-2.6-1.1c-0.7-0.7-1-1.7-1-2.8
			v-1.6c0-1.1,0.3-2.1,1-2.8c0.7-0.7,1.5-1.1,2.6-1.1S28.4,6.4,29,7s0.9,1.3,0.9,2.2l0,0h-1.2c0-0.6-0.2-1.2-0.6-1.5
			c-0.4-0.4-0.9-0.6-1.6-0.6c-0.7,0-1.3,0.3-1.7,0.8s-0.6,1.3-0.6,2.1v1.7c0,0.8,0.2,1.5,0.6,2.1s1,0.8,1.7,0.8
			c0.7,0,1.2-0.2,1.6-0.6c0.4-0.4,0.6-0.9,0.6-1.6H29.9z"/>
		<path class="st2" d="M31.1,12c0-1,0.3-1.9,0.8-2.5s1.3-1,2.2-1c1,0,1.7,0.3,2.3,1c0.6,0.7,0.8,1.5,0.8,2.5v0.1
			c0,1-0.3,1.9-0.8,2.5c-0.6,0.7-1.3,1-2.2,1s-1.7-0.3-2.2-1c-0.6-0.7-0.8-1.5-0.8-2.5V12z M32.3,12.1c0,0.7,0.2,1.3,0.5,1.8
			c0.3,0.5,0.8,0.7,1.4,0.7c0.6,0,1-0.2,1.4-0.7s0.5-1.1,0.5-1.8V12c0-0.7-0.2-1.3-0.5-1.8c-0.3-0.5-0.8-0.7-1.4-0.7
			c-0.6,0-1,0.2-1.4,0.7c-0.3,0.5-0.5,1.1-0.5,1.8V12.1z"/>
		<path class="st2" d="M39.9,8.6L40,9.5c0.2-0.3,0.5-0.6,0.9-0.8c0.3-0.2,0.7-0.3,1.2-0.3s0.8,0.1,1.2,0.3c0.3,0.2,0.6,0.5,0.7,1
			c0.2-0.4,0.5-0.7,0.9-0.9s0.8-0.3,1.2-0.3c0.7,0,1.3,0.2,1.7,0.7s0.6,1.2,0.6,2.2v4.1h-1.3v-4.1c0-0.7-0.1-1.2-0.3-1.4
			s-0.6-0.4-1-0.4c-0.4,0-0.8,0.1-1,0.4c-0.3,0.3-0.4,0.7-0.5,1.1v0.1v4.4h-1.3v-4.1c0-0.6-0.1-1.1-0.4-1.4c-0.2-0.3-0.6-0.4-1-0.4
			c-0.4,0-0.7,0.1-0.9,0.2c-0.2,0.2-0.4,0.4-0.6,0.7v5.1h-1.3V8.6H39.9z"/>
		<path class="st2" d="M56,12.3c0,1-0.2,1.8-0.7,2.4s-1.1,0.9-2,0.9c-0.4,0-0.8-0.1-1.1-0.2c-0.3-0.1-0.6-0.4-0.8-0.6v3.4h-1.3V8.6
			h1l0.2,0.9c0.2-0.3,0.5-0.6,0.8-0.8c0.3-0.2,0.7-0.3,1.2-0.3c0.9,0,1.5,0.3,2,1c0.5,0.7,0.7,1.6,0.7,2.7V12.3z M54.7,12.2
			c0-0.8-0.2-1.4-0.5-1.9c-0.3-0.5-0.8-0.8-1.4-0.8c-0.4,0-0.7,0.1-0.9,0.2s-0.5,0.4-0.6,0.7v3.3c0.2,0.3,0.4,0.5,0.6,0.7
			c0.3,0.2,0.6,0.2,0.9,0.2c0.6,0,1-0.2,1.3-0.6c0.3-0.4,0.5-1,0.5-1.7V12.2z"/>
		<path class="st2" d="M58.9,15.5h-1.3V5.6h1.3V15.5z"/>
		<path class="st2" d="M63.6,15.6c-1,0-1.7-0.3-2.3-1c-0.6-0.6-0.8-1.5-0.8-2.5v-0.3c0-1,0.3-1.8,0.9-2.4c0.6-0.6,1.3-1,2.1-1
			c0.9,0,1.6,0.3,2.1,0.8s0.7,1.3,0.7,2.2v0.8h-4.5l0,0c0,0.7,0.2,1.2,0.5,1.6c0.3,0.4,0.8,0.6,1.4,0.6c0.4,0,0.8-0.1,1.1-0.2
			c0.3-0.1,0.6-0.3,0.8-0.5l0.5,0.8c-0.2,0.2-0.6,0.4-1,0.6S64.2,15.6,63.6,15.6z M63.4,9.5c-0.4,0-0.8,0.2-1.1,0.5
			c-0.3,0.4-0.5,0.8-0.5,1.3l0,0H65v-0.2c0-0.5-0.1-0.9-0.4-1.2S64,9.5,63.4,9.5z"/>
		<path class="st2" d="M69.3,7v1.7h1.3v0.9h-1.3v4.2c0,0.3,0.1,0.5,0.2,0.7c0.1,0.1,0.3,0.2,0.5,0.2c0.1,0,0.2,0,0.2,0
			c0.1,0,0.2,0,0.2-0.1l0.2,0.9c-0.1,0.1-0.2,0.1-0.4,0.2c-0.2,0-0.4,0.1-0.5,0.1c-0.5,0-0.9-0.2-1.2-0.5s-0.5-0.8-0.5-1.4V9.6H67
			V8.6h1.1V7H69.3z"/>
		<path class="st2" d="M75,15.6c-1,0-1.7-0.3-2.3-1c-0.6-0.6-0.8-1.5-0.8-2.5v-0.3c0-1,0.3-1.8,0.9-2.4c0.6-0.6,1.3-1,2.1-1
			c0.9,0,1.6,0.3,2.1,0.8s0.7,1.3,0.7,2.2v0.8h-4.5l0,0c0,0.7,0.2,1.2,0.5,1.6c0.3,0.4,0.8,0.6,1.4,0.6c0.4,0,0.8-0.1,1.1-0.2
			c0.3-0.1,0.6-0.3,0.8-0.5l0.5,0.8c-0.2,0.2-0.6,0.4-1,0.6S75.6,15.6,75,15.6z M74.8,9.5c-0.4,0-0.8,0.2-1.1,0.5
			c-0.3,0.4-0.5,0.8-0.5,1.3l0,0h3.2v-0.2c0-0.5-0.1-0.9-0.4-1.2S75.3,9.5,74.8,9.5z"/>
		<path class="st2" d="M78.7,12.2c0-1.1,0.2-2,0.7-2.7c0.5-0.7,1.1-1,2-1c0.4,0,0.8,0.1,1.1,0.2c0.3,0.1,0.6,0.4,0.8,0.6V5.6h1.3
			v9.9h-1l-0.1-0.8c-0.2,0.3-0.5,0.6-0.8,0.7s-0.7,0.2-1.1,0.2c-0.8,0-1.5-0.3-2-0.9s-0.7-1.4-0.7-2.4V12.2z M80,12.3
			c0,0.7,0.1,1.2,0.4,1.7s0.7,0.6,1.3,0.6c0.4,0,0.7-0.1,0.9-0.3c0.3-0.2,0.5-0.4,0.6-0.7v-3.2c-0.2-0.3-0.4-0.5-0.6-0.7
			c-0.3-0.2-0.6-0.3-0.9-0.3c-0.6,0-1,0.2-1.3,0.7c-0.3,0.5-0.4,1.1-0.4,1.9V12.3z"/>
	</g>
	<path id="Shape_3_" class="st2" d="M11.7,4.5c-3.6,0-6.5,2.9-6.5,6.5s2.9,6.5,6.5,6.5s6.5-2.9,6.5-6.5S15.3,4.5,11.7,4.5z
		 M11.7,16.7C8.6,16.7,6,14.2,6,11s2.5-5.7,5.7-5.7s5.7,2.5,5.7,5.7S14.8,16.7,11.7,16.7z"/>
	<path id="Path_4_" class="st2" d="M14.7,8.7l-3.5,3.4l-2.1-1.9c-0.2-0.1-0.4-0.1-0.6,0c-0.1,0.2-0.1,0.4,0,0.6l2.4,2.2
		c0.1,0.1,0.2,0.1,0.3,0.1l0,0c0.1,0,0.2,0,0.3-0.1l3.7-3.7c0.2-0.2,0.2-0.4,0-0.6C15.1,8.5,14.8,8.5,14.7,8.7z"/>
</g>
</svg>
