<?xml version="1.0" encoding="utf-8"?>
<!-- Generator: Adobe Illustrator 23.0.1, SVG Export Plug-In . SVG Version: 6.00 Build 0)  -->
<svg version="1.1" id="Layer_1" xmlns="http://www.w3.org/2000/svg" xmlns:xlink="http://www.w3.org/1999/xlink" x="0px" y="0px"
	 viewBox="0 0 93 22" style="enable-background:new 0 0 93 22;" xml:space="preserve">
<style type="text/css">
	.st0{fill:#FFD70B;}
	.st1{fill:#2C3251;}
	.st2{fill:#FFFFFF;}
	.st3{fill:#006AB5;}
	.st4{fill:#2E7D32;}
	.st5{enable-background:new    ;}
</style>
<g>
	<path id="Rectangle-2_4_" class="st2" d="M3.2,0.4h86.7c1.7,0,3,1.3,3,3v15.1c0,1.7-1.3,3-3,3H3.2c-1.7,0-3-1.3-3-3V3.4
		C0.1,1.7,1.5,0.4,3.2,0.4z"/>
	<g class="st5">
		<path class="st3" d="M30.2,14.3c-0.2,0.3-0.6,0.7-1.2,0.9c-0.5,0.3-1.3,0.4-2.1,0.4c-1.1,0-2-0.4-2.8-1.1
			c-0.7-0.7-1.1-1.6-1.1-2.8V9.9c0-1.1,0.3-2.1,1-2.8c0.7-0.7,1.6-1.1,2.6-1.1c1.1,0,1.9,0.3,2.5,0.8c0.6,0.5,0.9,1.2,0.9,2l0,0H29
			c0-0.5-0.2-1-0.6-1.3s-0.9-0.5-1.6-0.5c-0.7,0-1.3,0.3-1.7,0.8c-0.4,0.5-0.7,1.2-0.7,2v1.9c0,0.8,0.2,1.5,0.7,2
			c0.5,0.5,1.1,0.8,1.9,0.8c0.5,0,1-0.1,1.3-0.2c0.3-0.1,0.6-0.3,0.7-0.5v-2.1h-2v-1h3.3V14.3z"/>
		<path class="st3" d="M35,15.7c-1,0-1.7-0.3-2.3-1c-0.6-0.6-0.9-1.5-0.9-2.5v-0.3c0-1,0.3-1.8,0.9-2.5c0.6-0.7,1.3-1,2.1-1
			c0.9,0,1.6,0.3,2.1,0.8c0.5,0.6,0.7,1.3,0.7,2.3v0.8h-4.5l0,0c0,0.7,0.2,1.2,0.5,1.6c0.3,0.4,0.8,0.6,1.4,0.6
			c0.4,0,0.8-0.1,1.1-0.2c0.3-0.1,0.6-0.3,0.8-0.5l0.5,0.8c-0.2,0.2-0.6,0.4-1,0.6C36.1,15.6,35.6,15.7,35,15.7z M34.8,9.5
			c-0.4,0-0.8,0.2-1.1,0.5c-0.3,0.4-0.5,0.8-0.6,1.3l0,0h3.2v-0.2c0-0.5-0.1-0.9-0.4-1.2C35.8,9.6,35.4,9.5,34.8,9.5z"/>
		<path class="st3" d="M40.8,6.9v1.7h1.3v0.9h-1.3v4.2c0,0.3,0.1,0.6,0.2,0.7s0.3,0.2,0.5,0.2c0.1,0,0.2,0,0.2,0s0.2,0,0.2-0.1
			l0.2,0.9c-0.1,0.1-0.2,0.1-0.4,0.2c-0.2,0-0.4,0.1-0.5,0.1c-0.5,0-0.9-0.2-1.2-0.5c-0.3-0.3-0.5-0.8-0.5-1.5V9.5h-1.1V8.6h1.1V6.9
			H40.8z"/>
		<path class="st3" d="M52.2,13.2c0-0.4-0.2-0.8-0.5-1.1s-0.9-0.5-1.7-0.7c-1-0.2-1.8-0.6-2.3-1c-0.6-0.5-0.8-1-0.8-1.7
			c0-0.7,0.3-1.3,0.9-1.8c0.6-0.5,1.4-0.7,2.3-0.7c1,0,1.8,0.3,2.4,0.8c0.6,0.6,0.9,1.2,0.9,1.9l0,0h-1.2c0-0.5-0.2-1-0.5-1.3
			s-0.9-0.5-1.6-0.5c-0.6,0-1.1,0.1-1.4,0.4c-0.3,0.3-0.5,0.7-0.5,1.1c0,0.4,0.2,0.7,0.5,1s1,0.5,1.8,0.7c1,0.2,1.7,0.6,2.2,1.1
			s0.8,1.1,0.8,1.8c0,0.8-0.3,1.4-0.9,1.8c-0.6,0.5-1.4,0.7-2.4,0.7c-0.9,0-1.8-0.3-2.5-0.8c-0.7-0.5-1.1-1.2-1-2l0,0h1.2
			c0,0.6,0.2,1.1,0.7,1.4c0.4,0.3,1,0.5,1.6,0.5c0.6,0,1.1-0.1,1.5-0.4S52.2,13.6,52.2,13.2z"/>
		<path class="st3" d="M56.7,6.9v1.7H58v0.9h-1.3v4.2c0,0.3,0.1,0.6,0.2,0.7s0.3,0.2,0.5,0.2c0.1,0,0.2,0,0.2,0s0.2,0,0.2-0.1
			l0.2,0.9c-0.1,0.1-0.2,0.1-0.4,0.2c-0.2,0-0.4,0.1-0.5,0.1c-0.5,0-0.9-0.2-1.2-0.5c-0.3-0.3-0.5-0.8-0.5-1.5V9.5h-1.1V8.6h1.1V6.9
			H56.7z"/>
		<path class="st3" d="M63.8,15.5c0-0.2-0.1-0.4-0.1-0.6c0-0.2,0-0.3,0-0.5c-0.2,0.3-0.5,0.6-0.9,0.8c-0.4,0.2-0.8,0.3-1.2,0.3
			c-0.7,0-1.3-0.2-1.6-0.6s-0.6-0.9-0.6-1.5c0-0.7,0.3-1.2,0.8-1.6c0.5-0.4,1.3-0.6,2.2-0.6h1.4v-0.7c0-0.4-0.1-0.7-0.4-1
			c-0.2-0.2-0.6-0.4-1-0.4c-0.4,0-0.7,0.1-1,0.3c-0.3,0.2-0.4,0.5-0.4,0.7h-1.2l0,0c0-0.5,0.2-1,0.7-1.4c0.5-0.4,1.1-0.6,1.9-0.6
			c0.8,0,1.4,0.2,1.9,0.6c0.5,0.4,0.7,1,0.7,1.7v3.3c0,0.2,0,0.5,0,0.7c0,0.2,0.1,0.5,0.1,0.7H63.8z M61.7,14.6
			c0.5,0,0.9-0.1,1.2-0.4s0.6-0.5,0.7-0.8v-1.1h-1.4c-0.5,0-0.9,0.1-1.2,0.4c-0.3,0.3-0.5,0.6-0.5,0.9c0,0.3,0.1,0.5,0.3,0.7
			S61.4,14.6,61.7,14.6z"/>
		<path class="st3" d="M70,9.7l-0.6,0c-0.3,0-0.6,0.1-0.8,0.2c-0.2,0.2-0.4,0.4-0.5,0.7v4.9h-1.3V8.6h1.1l0.1,1
			c0.2-0.4,0.4-0.6,0.7-0.8c0.3-0.2,0.6-0.3,1-0.3c0.1,0,0.2,0,0.3,0c0.1,0,0.2,0,0.2,0L70,9.7z"/>
		<path class="st3" d="M73,6.9v1.7h1.3v0.9H73v4.2c0,0.3,0.1,0.6,0.2,0.7s0.3,0.2,0.5,0.2c0.1,0,0.2,0,0.2,0s0.2,0,0.2-0.1l0.2,0.9
			c-0.1,0.1-0.2,0.1-0.4,0.2c-0.2,0-0.4,0.1-0.5,0.1c-0.5,0-0.9-0.2-1.2-0.5c-0.3-0.3-0.5-0.8-0.5-1.5V9.5h-1.1V8.6h1.1V6.9H73z"/>
		<path class="st3" d="M78.8,15.7c-1,0-1.7-0.3-2.3-1c-0.6-0.6-0.9-1.5-0.9-2.5v-0.3c0-1,0.3-1.8,0.9-2.5c0.6-0.7,1.3-1,2.1-1
			c0.9,0,1.6,0.3,2.1,0.8c0.5,0.6,0.7,1.3,0.7,2.3v0.8h-4.5l0,0c0,0.7,0.2,1.2,0.5,1.6c0.3,0.4,0.8,0.6,1.4,0.6
			c0.4,0,0.8-0.1,1.1-0.2c0.3-0.1,0.6-0.3,0.8-0.5l0.5,0.8c-0.2,0.2-0.6,0.4-1,0.6C79.8,15.6,79.3,15.7,78.8,15.7z M78.6,9.5
			c-0.4,0-0.8,0.2-1.1,0.5c-0.3,0.4-0.5,0.8-0.6,1.3l0,0h3.2v-0.2c0-0.5-0.1-0.9-0.4-1.2C79.5,9.6,79.1,9.5,78.6,9.5z"/>
		<path class="st3" d="M82.5,12.2c0-1.1,0.2-2,0.7-2.7c0.5-0.7,1.1-1,2-1c0.4,0,0.8,0.1,1.1,0.2c0.3,0.1,0.6,0.4,0.8,0.7V5.6h1.3v10
			h-1l-0.1-0.9c-0.2,0.3-0.5,0.6-0.8,0.7c-0.3,0.2-0.7,0.2-1.1,0.2c-0.8,0-1.5-0.3-2-0.9c-0.5-0.6-0.7-1.4-0.7-2.4V12.2z M83.8,12.3
			c0,0.7,0.1,1.3,0.4,1.7s0.7,0.6,1.3,0.6c0.4,0,0.7-0.1,0.9-0.3c0.3-0.2,0.5-0.4,0.6-0.7v-3.2c-0.2-0.3-0.4-0.5-0.6-0.7
			c-0.3-0.2-0.6-0.3-0.9-0.3c-0.6,0-1.1,0.2-1.3,0.7c-0.3,0.5-0.4,1.1-0.4,1.9V12.3z"/>
	</g>
	<path id="Shape_2_" class="st3" d="M12.2,4.5c-3.9,0-7.1,3.1-7.1,7.1s3.1,7.1,7.1,7.1s7.1-3.1,7.1-7.1S16.2,4.5,12.2,4.5z
		 M12.2,17.7c-3.4,0-6.1-2.7-6.1-6.1s2.7-6.1,6.1-6.1s6.1,2.7,6.1,6.1S15.7,17.7,12.2,17.7z"/>
	<path id="Path_6_" class="st3" d="M11.4,8.2c-0.2-0.2-0.5-0.2-0.6,0c-0.2,0.2-0.2,0.5,0,0.6l2.8,2.8l-2.8,2.7
		c-0.2,0.2-0.2,0.5,0,0.6C10.9,15,11,15,11.1,15c0.1,0,0.2,0,0.3-0.1l3-3c0.2-0.1,0.2-0.2,0.2-0.4s0-0.2-0.1-0.3L11.4,8.2z"/>
</g>
</svg>
