<?xml version="1.0" encoding="utf-8"?>
<!-- Generator: Adobe Illustrator 23.0.1, SVG Export Plug-In . SVG Version: 6.00 Build 0)  -->
<svg version="1.1" id="Layer_1" xmlns="http://www.w3.org/2000/svg" xmlns:xlink="http://www.w3.org/1999/xlink" x="0px" y="0px"
	 viewBox="0 0 93 22" style="enable-background:new 0 0 93 22;" xml:space="preserve">
<style type="text/css">
	.st0{fill:#FFD70B;}
	.st1{fill:#2C3251;}
	.st2{enable-background:new    ;}
	.st3{fill:#FFFFFF;}
	.st4{fill:#006AB5;}
	.st5{fill:#2E7D32;}
</style>
<g id="Page-1_1_">
	<g id="Liquidity-management--common-components_1_" transform="translate(-111.000000, -194.000000)">
		<g id="card-1_1_" transform="translate(96.000000, 145.000000)">
			<g id="in-progress_1_" transform="translate(15.000000, 49.000000)">
				<path id="Rectangle-2_3_" class="st0" d="M3.2,0.3h86.6c1.7,0,3.1,1.3,3.1,3.1v15.3c0,1.7-1.3,3.1-3.1,3.1H3.2
					c-1.7,0-3.1-1.3-3.1-3.1V3.3C0.1,1.6,1.5,0.3,3.2,0.3z"/>
				<g class="st2">
					<path class="st1" d="M25.6,15.5h-1.3V6.3h1.3V15.5z"/>
					<path class="st1" d="M28.8,8.6l0.1,1c0.2-0.4,0.5-0.6,0.9-0.8c0.3-0.2,0.7-0.3,1.2-0.3c0.7,0,1.3,0.2,1.7,0.7s0.6,1.1,0.6,2
						v4.3h-1.3v-4.3c0-0.6-0.1-1-0.4-1.3c-0.2-0.3-0.6-0.4-1.1-0.4c-0.4,0-0.7,0.1-1,0.3c-0.3,0.2-0.5,0.4-0.7,0.7v5h-1.3V8.6H28.8z
						"/>
					<path class="st1" d="M39.8,11.8v3.7h-1.3V6.3h3.5c1,0,1.8,0.3,2.3,0.8s0.8,1.2,0.8,2c0,0.8-0.3,1.5-0.8,2
						c-0.5,0.5-1.3,0.8-2.3,0.8H39.8z M39.8,10.8h2.3c0.6,0,1.1-0.2,1.4-0.5S44,9.5,44,9c0-0.5-0.2-0.9-0.5-1.3
						c-0.3-0.3-0.8-0.5-1.4-0.5h-2.3V10.8z"/>
					<path class="st1" d="M49.9,9.7l-0.6,0c-0.3,0-0.6,0.1-0.8,0.2c-0.2,0.2-0.4,0.4-0.5,0.7v4.9h-1.3V8.6h1.1l0.1,1
						c0.2-0.4,0.4-0.6,0.7-0.8c0.3-0.2,0.6-0.3,1-0.3c0.1,0,0.2,0,0.3,0s0.2,0,0.2,0L49.9,9.7z"/>
					<path class="st1" d="M50.7,12c0-1,0.3-1.9,0.8-2.5s1.3-1,2.2-1c1,0,1.7,0.3,2.3,1c0.6,0.7,0.8,1.5,0.8,2.5v0.1
						c0,1-0.3,1.9-0.8,2.5c-0.6,0.7-1.3,1-2.2,1s-1.7-0.3-2.2-1c-0.6-0.7-0.8-1.5-0.8-2.5V12z M52,12.1c0,0.7,0.2,1.3,0.5,1.8
						c0.3,0.5,0.8,0.7,1.4,0.7c0.6,0,1-0.2,1.4-0.7s0.5-1.1,0.5-1.8V12c0-0.7-0.2-1.3-0.5-1.8c-0.3-0.5-0.8-0.7-1.4-0.7
						c-0.6,0-1,0.2-1.4,0.7C52.1,10.7,52,11.3,52,12V12.1z"/>
					<path class="st1" d="M58.1,12.2c0-1.1,0.2-2,0.7-2.7s1.1-1,2-1c0.4,0,0.8,0.1,1.1,0.3s0.6,0.4,0.8,0.8L63,8.6h1v6.9
						c0,0.9-0.3,1.6-0.8,2S62,18.3,61,18.3c-0.3,0-0.7,0-1.1-0.1c-0.4-0.1-0.7-0.2-1-0.4l0.3-1c0.2,0.1,0.5,0.2,0.8,0.3
						s0.6,0.1,0.9,0.1c0.6,0,1.1-0.1,1.3-0.4c0.3-0.3,0.4-0.7,0.4-1.3v-0.8c-0.2,0.3-0.5,0.5-0.8,0.7c-0.3,0.1-0.7,0.2-1.1,0.2
						c-0.8,0-1.5-0.3-2-0.9s-0.7-1.4-0.7-2.4V12.2z M59.4,12.3c0,0.7,0.1,1.2,0.4,1.7s0.7,0.6,1.3,0.6c0.4,0,0.7-0.1,0.9-0.3
						c0.3-0.2,0.5-0.4,0.6-0.7v-3.2c-0.2-0.3-0.4-0.5-0.6-0.7c-0.3-0.2-0.6-0.3-0.9-0.3c-0.6,0-1,0.2-1.3,0.7s-0.4,1.1-0.4,1.9V12.3
						z"/>
					<path class="st1" d="M69,9.7l-0.6,0c-0.3,0-0.6,0.1-0.8,0.2c-0.2,0.2-0.4,0.4-0.5,0.7v4.9h-1.3V8.6h1.1l0.1,1
						c0.2-0.4,0.4-0.6,0.7-0.8c0.3-0.2,0.6-0.3,1-0.3c0.1,0,0.2,0,0.3,0s0.2,0,0.2,0L69,9.7z"/>
					<path class="st1" d="M73,15.6c-1,0-1.7-0.3-2.3-1c-0.6-0.6-0.8-1.5-0.8-2.5v-0.3c0-1,0.3-1.8,0.9-2.4c0.6-0.6,1.3-1,2.1-1
						c0.9,0,1.6,0.3,2.1,0.8s0.7,1.3,0.7,2.2v0.8h-4.5l0,0c0,0.7,0.2,1.2,0.5,1.6c0.3,0.4,0.8,0.6,1.4,0.6c0.4,0,0.8-0.1,1.1-0.2
						c0.3-0.1,0.6-0.3,0.8-0.5l0.5,0.8c-0.2,0.2-0.6,0.4-1,0.6S73.5,15.6,73,15.6z M72.8,9.5c-0.4,0-0.8,0.2-1.1,0.5
						c-0.3,0.4-0.5,0.8-0.5,1.3l0,0h3.2v-0.2c0-0.5-0.1-0.9-0.4-1.2S73.3,9.5,72.8,9.5z"/>
					<path class="st1" d="M81,13.7c0-0.3-0.1-0.5-0.3-0.7c-0.2-0.2-0.6-0.3-1.2-0.5c-0.8-0.2-1.5-0.4-1.9-0.7
						c-0.4-0.3-0.6-0.7-0.6-1.3c0-0.6,0.2-1,0.7-1.4c0.5-0.4,1.1-0.6,1.9-0.6c0.8,0,1.4,0.2,1.9,0.6c0.5,0.4,0.7,0.9,0.7,1.5l0,0
						h-1.2c0-0.3-0.1-0.6-0.4-0.8c-0.3-0.2-0.6-0.4-1-0.4c-0.4,0-0.8,0.1-1,0.3c-0.2,0.2-0.3,0.4-0.3,0.7c0,0.3,0.1,0.5,0.3,0.6
						c0.2,0.2,0.6,0.3,1.2,0.4c0.9,0.2,1.5,0.4,1.9,0.8s0.6,0.7,0.6,1.3c0,0.6-0.2,1.1-0.7,1.5c-0.5,0.4-1.1,0.6-1.9,0.6
						c-0.9,0-1.6-0.2-2.1-0.7s-0.7-1-0.7-1.6l0,0H78c0,0.4,0.2,0.8,0.5,1s0.7,0.3,1.1,0.3c0.4,0,0.8-0.1,1-0.3
						C80.9,14.2,81,14,81,13.7z"/>
					<path class="st1" d="M87.8,13.7c0-0.3-0.1-0.5-0.3-0.7c-0.2-0.2-0.6-0.3-1.2-0.5c-0.8-0.2-1.5-0.4-1.9-0.7
						c-0.4-0.3-0.6-0.7-0.6-1.3c0-0.6,0.2-1,0.7-1.4c0.5-0.4,1.1-0.6,1.9-0.6c0.8,0,1.4,0.2,1.9,0.6c0.5,0.4,0.7,0.9,0.7,1.5l0,0
						h-1.2c0-0.3-0.1-0.6-0.4-0.8c-0.3-0.2-0.6-0.4-1-0.4c-0.4,0-0.8,0.1-1,0.3C85.1,10,85,10.2,85,10.5c0,0.3,0.1,0.5,0.3,0.6
						c0.2,0.2,0.6,0.3,1.2,0.4c0.9,0.2,1.5,0.4,1.9,0.8s0.6,0.7,0.6,1.3c0,0.6-0.2,1.1-0.7,1.5c-0.5,0.4-1.1,0.6-1.9,0.6
						c-0.9,0-1.6-0.2-2.1-0.7s-0.7-1-0.7-1.6l0,0h1.2c0,0.4,0.2,0.8,0.5,1s0.7,0.3,1.1,0.3c0.4,0,0.8-0.1,1-0.3
						C87.7,14.2,87.8,14,87.8,13.7z"/>
				</g>
				<g id="refresh_1_" transform="translate(4.000000, 4.000000)">
					<path id="Path_5_" class="st1" d="M3.1,9.3L3.1,9.3c-0.4,0.2-0.5,0.6-0.3,0.9c1,1.9,3,3.1,5.2,3.1c2.7,0,5.1-1.9,5.7-4.5
						l0.1-0.1l0,0h1c0.2,0,0.3-0.2,0.2-0.4l-1.5-1.9c-0.1-0.2-0.4-0.2-0.6,0l-1.6,2c-0.1,0.2,0,0.4,0.2,0.4h0.9h0.1v0.1
						c-0.7,1.9-2.5,3.2-4.4,3.2c-1.7,0-3.3-1-4.1-2.5C3.7,9.3,3.4,9.2,3.1,9.3z"/>
					<path id="Path_4_" class="st1" d="M13.2,4.6L13.2,4.6c0.4-0.1,0.5-0.5,0.3-0.9c-1-1.9-3-3.1-5.2-3.1c-2.7,0-5,1.9-5.7,4.6
						c0,0,0,0.1-0.1,0.1l0,0h-1c-0.2,0-0.3,0.2-0.2,0.4l1.5,2c0.1,0.2,0.4,0.2,0.6,0l1.6-2c0.1-0.2,0-0.4-0.2-0.4H4H3.9V5.2
						C4.6,3.3,6.4,2,8.3,2c1.7,0,3.3,1,4.1,2.5C12.6,4.6,12.9,4.7,13.2,4.6z"/>
				</g>
			</g>
		</g>
	</g>
</g>
</svg>
