<?xml version="1.0" encoding="utf-8"?>
<!-- Generator: Adobe Illustrator 23.0.1, SVG Export Plug-In . SVG Version: 6.00 Build 0)  -->
<svg version="1.1" id="Layer_1" xmlns="http://www.w3.org/2000/svg" xmlns:xlink="http://www.w3.org/1999/xlink" x="0px" y="0px"
	 viewBox="0 0 64 64" style="enable-background:new 0 0 64 64;" xml:space="preserve">
<style type="text/css">
	.Drop_x0020_Shadow{fill:none;}
	.Outer_x0020_Glow_x0020_5_x0020_pt{fill:none;}
	.Blue_x0020_Neon{fill:none;stroke:#8AACDA;stroke-width:7;stroke-linecap:round;stroke-linejoin:round;}
	.Chrome_x0020_Highlight{fill:url(#SVGID_1_);stroke:#FFFFFF;stroke-width:0.3629;stroke-miterlimit:1;}
	.Jive_GS{fill:#FFDD00;}
	.Alyssa_GS{fill:#A6D0E4;}
	.st0{fill:#FFFFFF;stroke:#171C28;stroke-linecap:round;stroke-linejoin:round;stroke-miterlimit:10;}
	.st1{fill:#FFFFFF;}
	.st2{fill:#171C28;}
	.st3{fill:none;stroke:#4C5C68;stroke-width:0.9106;stroke-miterlimit:10;}
	.st4{fill:none;stroke:#171C28;stroke-linecap:round;stroke-linejoin:round;stroke-miterlimit:10;}
	.st5{fill:none;stroke:#4C5C68;stroke-width:1.0828;stroke-linecap:round;stroke-linejoin:round;stroke-miterlimit:10;}
	.st6{fill:none;stroke:#4C5C68;stroke-width:1.1103;stroke-linecap:round;stroke-linejoin:round;stroke-miterlimit:10;}
	.st7{fill:#C74634;stroke:#171C28;stroke-linecap:round;stroke-linejoin:round;stroke-miterlimit:10;}
	.st8{fill:#C74634;}
	.st9{fill:#FFFFFF;stroke:#171C28;stroke-width:0.9273;stroke-linecap:round;stroke-linejoin:round;stroke-miterlimit:10;}
	.st10{fill:#4C5C68;}
	.st11{fill:#FFFFFF;stroke:#171C28;stroke-width:0.9403;stroke-linecap:round;stroke-linejoin:round;stroke-miterlimit:10;}
	.st12{fill:none;stroke:#4C5C68;stroke-linecap:round;stroke-linejoin:round;stroke-miterlimit:10;}
	.st13{fill:#CEE8FA;}
	.st14{fill:#CEE8FA;stroke:#4C5C68;stroke-linecap:round;stroke-linejoin:round;stroke-miterlimit:10;}
	.st15{fill:#F9CA38;stroke:#4C5C68;stroke-linecap:round;stroke-linejoin:round;stroke-miterlimit:10;}
	.st16{fill:#FFFFFF;stroke:#4C5C68;stroke-linecap:round;stroke-linejoin:round;stroke-miterlimit:10;}
	.st17{fill:#FFFFFF;stroke:#FEBD2E;stroke-linecap:round;stroke-linejoin:round;stroke-miterlimit:10;}
	.st18{fill:#FEBD2E;stroke:#4C5C68;stroke-linecap:round;stroke-linejoin:round;stroke-miterlimit:10;}
	.st19{fill:#286090;}
	.st20{fill:#F9CA38;}
	.st21{fill:#FFFFFF;stroke:#4C5C68;stroke-width:1.2173;stroke-linecap:round;stroke-linejoin:round;stroke-miterlimit:10;}
	.st22{fill:#FFFFFF;stroke:#4C5C68;stroke-width:0.8881;stroke-linecap:round;stroke-linejoin:round;stroke-miterlimit:10;}
	.st23{fill:none;stroke:#CEE8FA;stroke-width:1.0985;stroke-linecap:round;stroke-linejoin:round;stroke-miterlimit:10;}
	.st24{opacity:0.6;fill:#286090;}
	.st25{fill:none;stroke:#4C5C68;stroke-width:1.0254;stroke-linecap:round;stroke-linejoin:round;stroke-miterlimit:10;}
	.st26{fill:#FFFFFF;stroke:#4C5C68;stroke-miterlimit:10;}
	.st27{fill:none;stroke:#286090;stroke-linecap:round;stroke-linejoin:round;stroke-miterlimit:10;stroke-dasharray:0,2;}
	.st28{fill:none;stroke:#286090;stroke-linecap:round;stroke-linejoin:round;stroke-miterlimit:10;}
	.st29{fill:#FEBD2E;}
	.st30{fill:none;stroke:#CEE8FA;stroke-linecap:round;stroke-linejoin:round;stroke-miterlimit:10;}
	.st31{fill:#FFFFFF;stroke:#171C28;stroke-miterlimit:10;}
	.st32{fill:#FFFFFF;stroke:#171C28;stroke-width:1.0268;stroke-linecap:round;stroke-linejoin:round;stroke-miterlimit:10;}
	.st33{fill:none;stroke:#171C28;stroke-width:1.0268;stroke-linecap:round;stroke-linejoin:round;stroke-miterlimit:10;}
	.st34{fill:#6B6B6B;}
	.st35{fill:none;stroke:#FFFFFF;stroke-width:1.0985;stroke-linecap:round;stroke-linejoin:round;stroke-miterlimit:10;}
	.st36{fill:#FFFFFF;stroke:#171C28;stroke-width:1.0688;stroke-linecap:round;stroke-linejoin:round;stroke-miterlimit:10;}
	.st37{fill:none;stroke:#4C5C68;stroke-width:1.1073;stroke-linecap:round;stroke-linejoin:round;stroke-miterlimit:10;}
	.st38{fill:none;stroke:#4C5C68;stroke-width:1.0096;stroke-linecap:round;stroke-linejoin:round;stroke-miterlimit:10;}
	.st39{fill:#FFFFFF;stroke:#171C28;stroke-width:1.1331;stroke-linecap:round;stroke-linejoin:round;stroke-miterlimit:10;}
	.st40{fill:none;stroke:#171C28;stroke-linecap:round;stroke-linejoin:round;stroke-miterlimit:10;stroke-dasharray:0,2;}
	.st41{fill:none;stroke:#BC0110;stroke-linecap:round;stroke-linejoin:round;stroke-miterlimit:10;}
	.st42{fill:none;stroke:#333333;stroke-width:2;stroke-linecap:round;stroke-linejoin:round;stroke-miterlimit:10;}
	.st43{fill:#FFFFFF;stroke:#171C28;stroke-width:1.211;stroke-linecap:round;stroke-linejoin:round;stroke-miterlimit:10;}
	.st44{fill:#171C28;stroke:#000000;stroke-width:0.2;stroke-linecap:round;stroke-linejoin:round;stroke-miterlimit:10;}
	.st45{fill:#FFFFFF;stroke:#4C5C68;stroke-width:0.9531;stroke-linecap:round;stroke-linejoin:round;stroke-miterlimit:10;}
	.st46{fill:#5FB0E5;}
	.st47{fill:#D2E9F7;}
	.st48{fill:#0686D8;}
	.st49{fill:#9ECFEF;}
	.st50{fill:none;stroke:#4C5C68;stroke-miterlimit:10;}
	.st51{fill:#4C5C68;stroke:#4C5C68;stroke-width:0.4;stroke-linecap:round;stroke-linejoin:round;stroke-miterlimit:10;}
	.st52{fill:#FED65C;}
	.st53{fill:none;stroke:#FFFFFF;stroke-linecap:round;stroke-linejoin:round;stroke-miterlimit:10;}
	.st54{fill:#EBF0F2;}
	.st55{fill:#B8D1CD;}
	.st56{fill:#DCEAE7;}
	.st57{fill:#EFB19E;}
	.st58{fill:#CCED9F;}
	.st59{fill:#A4EDE6;}
	.st60{fill:#111416;}
	.st61{fill:#567771;}
	.st62{fill:#FACC40;}
	.st63{fill:#FFF380;}
	.st64{fill:#E2932B;}
	.st65{fill:#78A09A;}
	.st66{fill:#253330;}
	.st67{fill:#FFFFFF;stroke:#4C5C68;stroke-width:1.1677;stroke-linecap:round;stroke-linejoin:round;stroke-miterlimit:10;}
	.st68{fill:#FFFFFF;stroke:#4C5C68;stroke-width:1.1657;stroke-linecap:round;stroke-linejoin:round;stroke-miterlimit:10;}
	.st69{fill:#FFFFFF;stroke:#171C28;stroke-width:0.9983;stroke-linecap:round;stroke-linejoin:round;stroke-miterlimit:10;}
	.st70{fill:#FFFFFF;stroke:#171C28;stroke-width:1.0727;stroke-linecap:round;stroke-linejoin:round;stroke-miterlimit:10;}
	.st71{fill:#C74634;stroke:#FFFFFF;stroke-linecap:round;stroke-linejoin:round;stroke-miterlimit:10;}
	.st72{fill:#CEE8FA;stroke:#4C5C68;stroke-width:0.965;stroke-linecap:round;stroke-linejoin:round;stroke-miterlimit:10;}
	.st73{fill:#41464B;}
	.st74{fill:#FFFFFF;stroke:#171C28;stroke-width:1.1013;stroke-linecap:round;stroke-linejoin:round;stroke-miterlimit:10;}
	.st75{fill:none;stroke:#171C28;stroke-width:1.1013;stroke-linecap:round;stroke-linejoin:round;stroke-miterlimit:10;}
	.st76{fill:#C74634;stroke:#171C28;stroke-width:1.1013;stroke-linecap:round;stroke-linejoin:round;stroke-miterlimit:10;}
	.st77{stroke:#171C28;stroke-linecap:round;stroke-linejoin:round;stroke-miterlimit:10;}
	.st78{fill:#FFFFFF;stroke:#171C28;stroke-width:0.9891;stroke-linecap:round;stroke-linejoin:round;stroke-miterlimit:10;}
	.st79{fill:none;stroke:#171C28;stroke-width:0.5274;stroke-linecap:round;stroke-linejoin:round;stroke-miterlimit:10;}
	.st80{fill:none;stroke:#4C5C68;stroke-width:1.1135;stroke-linecap:round;stroke-linejoin:round;stroke-miterlimit:10;}
	.st81{fill:#F9CA38;stroke:#4C5C68;stroke-width:1.1723;stroke-miterlimit:10;}
	.st82{fill:none;stroke:#4C5C68;stroke-width:1.0796;stroke-linecap:round;stroke-linejoin:round;stroke-miterlimit:10;}
	.st83{fill:none;stroke:#4C5C68;stroke-width:1.136;stroke-linecap:round;stroke-linejoin:round;stroke-miterlimit:10;}
	.st84{fill:#FFFFFF;stroke:#4C5C68;stroke-width:1.0796;stroke-linecap:round;stroke-linejoin:round;stroke-miterlimit:10;}
	.st85{fill:#007395;}
	.st86{fill:#FFFFFF;stroke:#171C28;stroke-width:0.8477;stroke-linecap:round;stroke-linejoin:round;stroke-miterlimit:10;}
	.st87{fill:#FFFFFF;stroke:#171C28;stroke-width:1.0138;stroke-linecap:round;stroke-linejoin:round;stroke-miterlimit:10;}
	.st88{fill:#FFFFFF;stroke:#171C28;stroke-width:0.9779;stroke-linecap:round;stroke-linejoin:round;stroke-miterlimit:10;}
	.st89{fill:none;stroke:#595959;stroke-width:1.6811;stroke-linecap:round;stroke-linejoin:round;}
	.st90{fill:none;stroke:#595959;stroke-width:1.6811;stroke-miterlimit:10;}
</style>
<linearGradient id="SVGID_1_" gradientUnits="userSpaceOnUse" x1="-877.5833" y1="-1207.0479" x2="-877.5833" y2="-1208.0479">
	<stop  offset="0" style="stop-color:#656565"/>
	<stop  offset="0.618" style="stop-color:#1B1B1B"/>
	<stop  offset="0.6292" style="stop-color:#545454"/>
	<stop  offset="0.9831" style="stop-color:#3E3E3E"/>
</linearGradient>
<polyline class="st40" points="16.5,28.2 16.5,10.4 35.6,10.4 "/>
<polyline class="st40" points="34.9,53.8 53.6,53.8 53.6,36.4 "/>
<g>
	<path id="XMLID_1924_" class="st0" d="M54.8,33.8H39c-1.5,0-2.8-1.3-2.8-2.8v-7.5v-3.6c0-3.5,2.8-6.3,6.3-6.3h5.6
		c3.7,0,6.7,3,6.7,6.7V33.8z"/>
	<rect id="XMLID_1923_" x="42.6" y="11.9" class="st0" width="5.2" height="1.7"/>
	<path id="XMLID_1922_" class="st0" d="M42.7,11.9l-1.2-3c-0.1-0.3,0-0.6,0.3-0.8c0.7-0.4,1.9-0.8,3.4,0.2c0,0,2.1-1,3.4-0.2
		c0.3,0.2,0.4,0.5,0.3,0.8l-1.2,3H42.7z"/>
	<path id="XMLID_1921_" class="st0" d="M40.7,11.2c0,0,0.4,1.1,1.6,1.1"/>
	<path id="XMLID_1920_" class="st0" d="M47.6,33.8H39c-1.5,0-2.8-1.3-2.8-2.8"/>
	<path id="XMLID_1919_" class="st0" d="M36.2,24.7v-4.7c0-3.5,2.8-6.3,6.3-6.3h5.6c3.7,0,6.7,3,6.7,6.7v13.5h-4.3"/>
	<path id="XMLID_1918_" class="st0" d="M49.6,11.2c0,0-0.4,1.1-1.6,1.1"/>
	<rect id="XMLID_1917_" x="34.2" y="25.9" class="st0" width="5.5" height="2.5"/>
	<rect id="XMLID_1916_" x="34.2" y="28.4" class="st0" width="5.5" height="2"/>
	<rect id="XMLID_1915_" x="34.2" y="30.4" class="st0" width="5.5" height="2"/>
	<rect id="XMLID_1914_" x="34.2" y="32.4" class="st0" width="5.5" height="2"/>
	<ellipse id="XMLID_1913_" class="st0" cx="45.4" cy="21.4" rx="5.7" ry="5.7"/>
	<rect id="XMLID_1912_" x="53.7" y="21.1" class="st0" width="4.7" height="2.3"/>
	<rect id="XMLID_1911_" x="53.7" y="23.4" class="st0" width="4.7" height="2.3"/>
	<rect id="XMLID_1910_" x="53.7" y="25.8" class="st0" width="4.7" height="2.3"/>
	<rect id="XMLID_1909_" x="53.7" y="28.1" class="st0" width="4.7" height="2.3"/>
	<rect id="XMLID_1908_" x="53.7" y="29.8" class="st0" width="4.7" height="2.3"/>
	<rect id="XMLID_1907_" x="53.7" y="32.1" class="st0" width="4.7" height="2.3"/>
	<rect id="XMLID_1906_" x="49" y="29.8" class="st0" width="4.7" height="2.3"/>
	<rect id="XMLID_1905_" x="49" y="32.1" class="st0" width="4.7" height="2.3"/>
	<ellipse id="XMLID_1904_" class="st8" cx="45.4" cy="21.4" rx="4.5" ry="4.5"/>
	<g id="XMLID_1898_">
		<path id="XMLID_1900_" class="st1" d="M45.4,18.7c0.2,0,0.3,0.1,0.3,0.3v0.1c0.4,0,0.7,0.2,1,0.3c0.1,0.1,0.2,0.2,0.2,0.3
			c0,0.2-0.2,0.3-0.4,0.3c-0.1,0-0.1,0-0.2-0.1c-0.2-0.1-0.4-0.2-0.7-0.3V21c1,0.2,1.4,0.6,1.4,1.3c0,0.7-0.5,1.2-1.3,1.2v0.4
			c0,0.2-0.1,0.3-0.3,0.3c-0.2,0-0.3-0.1-0.3-0.3v-0.4c-0.5-0.1-0.9-0.2-1.3-0.5c-0.1-0.1-0.2-0.2-0.2-0.3c0-0.2,0.2-0.3,0.3-0.3
			c0.1,0,0.2,0,0.2,0.1c0.3,0.2,0.6,0.4,0.9,0.4v-1.2c-0.9-0.2-1.4-0.6-1.4-1.3c0-0.7,0.5-1.1,1.3-1.2V19
			C45.1,18.8,45.2,18.7,45.4,18.7z M45.1,20.9v-1.1c-0.4,0-0.6,0.3-0.6,0.5C44.5,20.5,44.6,20.7,45.1,20.9z M45.6,21.7v1.2
			c0.4,0,0.6-0.2,0.6-0.6C46.2,22.1,46.1,21.9,45.6,21.7z"/>
	</g>
</g>
<path class="st2" d="M13.9,43.1H6.1c-0.4,0-0.7,0.3-0.7,0.7v11.7c0,0.4,0.3,0.7,0.7,0.7h7.8c0.4,0,0.7-0.3,0.7-0.7V43.8
	C14.5,43.4,14.2,43.1,13.9,43.1z M13.2,54.7H6.8V44.4h6.4V54.7z"/>
<path class="st2" d="M25.5,43.1c-0.4,0-0.7,0.3-0.7,0.7v11.7c0,0.4,0.3,0.7,0.7,0.7h7.8c0.4,0,0.7-0.3,0.7-0.7V43.8
	c0-0.4-0.3-0.7-0.7-0.7H25.5z M32.6,54.7h-6.4V44.4h6.4V54.7z"/>
<rect x="28.7" y="47" class="st2" width="1.3" height="3.3"/>
<rect x="9.3" y="47.9" class="st2" width="1.3" height="3.3"/>
<path class="st2" d="M25.5,30.5H13.9c-0.4,0-0.7,0.3-0.7,0.7v24.3c0,0.4,0.3,0.7,0.7,0.7h11.7c0.4,0,0.7-0.3,0.7-0.7V31.1
	C26.2,30.8,25.9,30.5,25.5,30.5z M24.9,54.7H14.5V31.8h10.3V54.7z"/>
<path class="st2" d="M17.8,47.9c-0.4,0-0.7,0.3-0.7,0.7v6.8c0,0.4,0.3,0.7,0.7,0.7h3.9c0.4,0,0.7-0.3,0.7-0.7v-6.8
	c0-0.4-0.3-0.7-0.7-0.7H17.8z M21,54.7h-2.5v-5.5H21V54.7z"/>
<g>
	<g>
		<rect x="16.8" y="35" class="st2" width="1.9" height="3.9"/>
		<path class="st1" d="M19,39.2h-2.5v-4.5H19V39.2z M17.1,38.6h1.3v-3.3h-1.3V38.6z"/>
	</g>
</g>
<g>
	<g>
		<rect x="20.7" y="35" class="st2" width="1.9" height="3.9"/>
		<path class="st1" d="M22.9,39.2h-2.5v-4.5h2.5V39.2z M21,38.6h1.3v-3.3H21V38.6z"/>
	</g>
</g>
<g>
	<g>
		<rect x="16.8" y="40.8" class="st2" width="1.9" height="3.9"/>
		<path class="st1" d="M19,45h-2.5v-4.5H19V45z M17.1,44.4h1.3v-3.3h-1.3V44.4z"/>
	</g>
</g>
<g>
	<g>
		<rect x="20.7" y="40.8" class="st2" width="1.9" height="3.9"/>
		<path class="st1" d="M22.9,45h-2.5v-4.5h2.5V45z M21,44.4h1.3v-3.3H21V44.4z"/>
	</g>
</g>
<rect x="13.3" y="16" class="st1" width="18" height="36.1"/>
<path class="st89" d="M24.6,21.4v-3.8c0-0.2,0.2-0.4,0.4-0.4h28.6c0.2,0,0.4,0.2,0.4,0.4l0,0v32c0,0.2-0.2,0.4-0.4,0.4h0H25
	c-0.2,0-0.4-0.2-0.4-0.4l0,0v-8"/>
<path class="st0" d="M53.7,49.8c0,0.2-0.1,0.3-0.3,0.4l-18.3,5.8h-0.8V8h0.8l18.3,5.9c0.2,0.1,0.3,0.2,0.3,0.4L53.7,49.8z"/>
<line class="st90" x1="24.6" y1="50" x2="20.4" y2="50"/>
<path class="st0" d="M28.5,29.8l-9.9-9.9c-0.2-0.2-0.4-0.2-0.6,0c-0.1,0.1-0.1,0.2-0.1,0.3v4.4c0,0.2-0.2,0.4-0.4,0.4H5.6
	c-0.2,0-0.4,0.2-0.4,0.4v9.2c0,0.2,0.2,0.4,0.4,0.4h11.8c0.2,0,0.4,0.2,0.4,0.4v4.4c0,0.2,0.2,0.4,0.4,0.4c0.1,0,0.2,0,0.3-0.1
	l9.9-9.9C28.6,30.1,28.6,29.9,28.5,29.8z"/>
<polyline class="st89" points="38,28.1 38.9,29.8 38.9,34 38,35.7 "/>
<path class="st90" d="M21.2,19.7v-5.5c0-0.2,0.2-0.4,0.4-0.4c0,0,0,0,0,0h13"/>
<line class="st89" x1="21.2" y1="50" x2="21.2" y2="44.9"/>
</svg>
