<?xml version="1.0" encoding="utf-8"?>
<!-- Generator: Adobe Illustrator 16.0.0, SVG Export Plug-In . SVG Version: 6.00 Build 0)  -->
<!DOCTYPE svg PUBLIC "-//W3C//DTD SVG 1.1//EN" "http://www.w3.org/Graphics/SVG/1.1/DTD/svg11.dtd">
<svg version="1.1" id="Layer_1" xmlns="http://www.w3.org/2000/svg" xmlns:xlink="http://www.w3.org/1999/xlink" x="0px" y="0px"
	 width="216px" height="216px" viewBox="0 0 216 216" enable-background="new 0 0 216 216" xml:space="preserve">
<g>
	
		<line id="XMLID_745_" fill="none" stroke="#171C28" stroke-width="3" stroke-linecap="round" stroke-linejoin="round" stroke-miterlimit="10" x1="35.775" y1="197.1" x2="35.775" y2="49.612"/>
	
		<path id="XMLID_744_" fill="#FFFFFF" stroke="#171C28" stroke-width="3" stroke-linecap="round" stroke-linejoin="round" stroke-miterlimit="10" d="
		M46.913,34.763h98.212c8.438,0,15.525,7.087,15.525,15.525v133.988c0,7.762-6.413,14.512-14.513,14.512H32.063"/>
	
		<path id="XMLID_538_" fill="#FFFFFF" stroke="#171C28" stroke-width="3" stroke-linecap="round" stroke-linejoin="round" stroke-miterlimit="10" d="
		M36.112,136.013V191.7c0,4.388-3.375,7.763-7.762,7.763h-2.025c-4.388,0-8.1-3.713-8.1-8.101v-72.899H27"/>
	
		<line id="XMLID_739_" fill="none" stroke="#171C28" stroke-width="3" stroke-linecap="round" stroke-linejoin="round" stroke-miterlimit="10" x1="70.875" y1="59.737" x2="106.987" y2="59.737"/>
	
		<line id="XMLID_747_" fill="none" stroke="#171C28" stroke-width="3" stroke-linecap="round" stroke-linejoin="round" stroke-miterlimit="10" x1="70.875" y1="124.2" x2="146.475" y2="124.2"/>
	
		<line id="XMLID_748_" fill="none" stroke="#171C28" stroke-width="3" stroke-linecap="round" stroke-linejoin="round" stroke-miterlimit="10" x1="70.875" y1="137.362" x2="146.475" y2="137.362"/>
	
		<line id="XMLID_749_" fill="none" stroke="#171C28" stroke-width="3" stroke-linecap="round" stroke-linejoin="round" stroke-miterlimit="10" x1="70.875" y1="150.525" x2="146.475" y2="150.525"/>
	
		<line id="XMLID_750_" fill="none" stroke="#171C28" stroke-width="3" stroke-linecap="round" stroke-linejoin="round" stroke-miterlimit="10" x1="70.875" y1="163.688" x2="146.475" y2="163.688"/>
	
		<line id="XMLID_752_" fill="none" stroke="#171C28" stroke-width="3" stroke-linecap="round" stroke-linejoin="round" stroke-miterlimit="10" x1="70.875" y1="176.85" x2="110.362" y2="176.85"/>
	
		<line id="XMLID_740_" fill="none" stroke="#171C28" stroke-width="3" stroke-linecap="round" stroke-linejoin="round" stroke-miterlimit="10" x1="70.875" y1="72.9" x2="97.875" y2="72.9"/>
	
		<line id="XMLID_742_" fill="none" stroke="#171C28" stroke-width="3" stroke-linecap="round" stroke-linejoin="round" stroke-miterlimit="10" x1="104.625" y1="72.9" x2="147.487" y2="72.9"/>
	
		<rect id="XMLID_36_" x="69.188" y="86.063" fill="#0D3178" stroke="#171C28" stroke-width="3" stroke-linecap="round" stroke-linejoin="round" stroke-miterlimit="10" width="78.3" height="24.638"/>
	
		<rect id="XMLID_35_" x="174.705" y="54.925" fill="#FFFFFF" stroke="#171C28" stroke-width="3" stroke-linecap="round" stroke-linejoin="round" stroke-miterlimit="10" width="22.274" height="136.35"/>
	
		<rect id="XMLID_34_" x="174.763" y="54.678" fill="#FFFFFF" stroke="#171C28" stroke-width="3" stroke-linecap="round" stroke-linejoin="round" stroke-miterlimit="10" width="21.601" height="55.687"/>
	
		<polygon id="XMLID_33_" fill="#FFFFFF" stroke="#171C28" stroke-width="3" stroke-linecap="round" stroke-linejoin="round" stroke-miterlimit="10" points="
		187.313,34.425 197.1,54 175.162,54 	"/>
	
		<rect id="XMLID_32_" x="180.779" y="191.679" fill="#FFFFFF" stroke="#171C28" stroke-width="3" stroke-linecap="round" stroke-linejoin="round" stroke-miterlimit="10" width="10.801" height="10.125"/>
	
		<line id="XMLID_31_" fill="none" stroke="#171C28" stroke-width="3" stroke-linecap="round" stroke-linejoin="round" stroke-miterlimit="10" x1="186.3" y1="190.35" x2="186.3" y2="139.725"/>
	
		<line id="XMLID_30_" fill="none" stroke="#171C28" stroke-width="3" stroke-linecap="round" stroke-linejoin="round" stroke-miterlimit="10" x1="190.013" y1="94.837" x2="182.925" y2="94.837"/>
	
		<line id="XMLID_29_" fill="none" stroke="#171C28" stroke-width="3" stroke-linecap="round" stroke-linejoin="round" stroke-miterlimit="10" x1="190.013" y1="87.075" x2="182.925" y2="87.075"/>
	
		<line id="XMLID_26_" fill="none" stroke="#171C28" stroke-width="3" stroke-linecap="round" stroke-linejoin="round" stroke-miterlimit="10" x1="190.013" y1="79.313" x2="182.925" y2="79.313"/>
	
		<path id="XMLID_692_" fill="#FFFFFF" stroke="#171C28" stroke-width="3" stroke-linecap="round" stroke-linejoin="round" stroke-miterlimit="10" d="
		M36.112,189V44.212c0-5.063,4.05-9.45,9.45-9.45l0,0c5.063,0,9.45,4.05,9.45,9.45v17.212"/>
	
		<line id="XMLID_709_" fill="none" stroke="#171C28" stroke-width="3" stroke-linecap="round" stroke-linejoin="round" stroke-miterlimit="10" x1="55.013" y1="85.05" x2="55.013" y2="198.112"/>
</g>
</svg>
