<?xml version="1.0" encoding="utf-8"?>
<!-- Generator: Adobe Illustrator 16.0.0, SVG Export Plug-In . SVG Version: 6.00 Build 0)  -->
<!DOCTYPE svg PUBLIC "-//W3C//DTD SVG 1.1//EN" "http://www.w3.org/Graphics/SVG/1.1/DTD/svg11.dtd">
<svg version="1.1" id="Layer_1" xmlns="http://www.w3.org/2000/svg" xmlns:xlink="http://www.w3.org/1999/xlink" x="0px" y="0px"
	 width="216px" height="216px" viewBox="0 0 216 216" enable-background="new 0 0 216 216" xml:space="preserve">
<line fill="none" stroke="#4C5C68" stroke-width="3" stroke-linecap="round" stroke-linejoin="round" stroke-miterlimit="10" x1="65.475" y1="176.513" x2="87.075" y2="138.713"/>
<line fill="none" stroke="#4C5C68" stroke-width="3" stroke-linecap="round" stroke-linejoin="round" stroke-miterlimit="10" x1="153.563" y1="176.513" x2="131.963" y2="138.713"/>
<line fill="none" stroke="#4C5C68" stroke-width="3" stroke-linecap="round" stroke-linejoin="round" stroke-miterlimit="10" x1="109.688" y1="137.362" x2="109.688" y2="177.862"/>
<rect x="39.825" y="57.712" fill="#FFFFFF" stroke="#4C5C68" stroke-width="3" stroke-linecap="round" stroke-linejoin="round" stroke-miterlimit="10" width="136.35" height="81.337"/>
<rect x="28.013" y="47.587" fill="#FFFFFF" stroke="#4C5C68" stroke-width="3" stroke-linecap="round" stroke-linejoin="round" stroke-miterlimit="10" width="159.3" height="10.125"/>
<rect x="96.188" y="37.462" fill="#CEE8FA" stroke="#4C5C68" stroke-width="3" stroke-linecap="round" stroke-linejoin="round" stroke-miterlimit="10" width="23.287" height="10.125"/>
<line fill="none" stroke="#D71920" stroke-width="3" stroke-linecap="round" stroke-linejoin="round" stroke-miterlimit="10" x1="58.05" y1="71.212" x2="94.837" y2="71.212"/>
<line fill="none" stroke="#D71920" stroke-width="3" stroke-linecap="round" stroke-linejoin="round" stroke-miterlimit="10" x1="58.05" y1="88.087" x2="94.837" y2="88.087"/>
<line fill="none" stroke="#D71920" stroke-width="3" stroke-linecap="round" stroke-linejoin="round" stroke-miterlimit="10" x1="58.05" y1="104.962" x2="94.837" y2="104.962"/>
<line fill="none" stroke="#D71920" stroke-width="3" stroke-linecap="round" stroke-linejoin="round" stroke-miterlimit="10" x1="58.05" y1="125.55" x2="94.837" y2="125.55"/>
<path fill="#0D3178" d="M120.15,97.875c0,12.487,10.462,22.612,23.287,21.263c7.088-0.675,13.5-5.063,16.875-11.475
	c8.775-15.863-5.737-31.05-18.563-31.05v21.263H120.15z"/>
<path fill="#00984A" d="M135,74.25v16.875h-16.875C118.125,91.125,118.125,76.275,135,74.25z"/>
</svg>
