<?xml version="1.0" encoding="utf-8"?>
<!-- Generator: Adobe Illustrator 16.0.0, SVG Export Plug-In . SVG Version: 6.00 Build 0)  -->
<!DOCTYPE svg PUBLIC "-//W3C//DTD SVG 1.1//EN" "http://www.w3.org/Graphics/SVG/1.1/DTD/svg11.dtd">
<svg version="1.1" id="Layer_1" xmlns="http://www.w3.org/2000/svg" xmlns:xlink="http://www.w3.org/1999/xlink" x="0px" y="0px"
	 width="216px" height="216px" viewBox="0 0 216 216" enable-background="new 0 0 216 216" xml:space="preserve">
<g id="XMLID_72_">
	<g id="XMLID_86_">
		
			<rect id="XMLID_87_" x="111.73" y="11.013" fill="#FFFFFF" stroke="#4C5C68" stroke-width="3" stroke-linecap="round" stroke-linejoin="round" stroke-miterlimit="10" width="54" height="94.838"/>
	</g>
	
		<path id="XMLID_85_" fill="none" stroke="#4C5C68" stroke-width="3" stroke-linecap="round" stroke-linejoin="round" stroke-miterlimit="10" d="
		M170.1,66.15l17.551,18.9v29.025l-5.063,14.175v27H147.15v-10.8c0,0-10.463-14.851-10.125-27"/>
	
		<polyline id="XMLID_84_" fill="#FFFFFF" stroke="#00984A" stroke-width="3" stroke-linecap="round" stroke-linejoin="round" stroke-miterlimit="10" points="
		128.25,82.013 128.25,89.438 133.987,93.825 143.1,93.825 148.5,89.775 148.5,82.013 	"/>
	
		<path id="XMLID_83_" fill="#FFFFFF" stroke="#4C5C68" stroke-width="3" stroke-linecap="round" stroke-linejoin="round" stroke-miterlimit="10" d="
		M171.45,98.212l-18.9-18.9c0,0-11.475-5.4-11.475,11.475l16.875,16.875c0,0-1.351,15.863,11.813,28.687"/>
	
		<polyline id="XMLID_82_" fill="#0D3178" stroke="#4C5C68" stroke-width="3" stroke-linecap="round" stroke-linejoin="round" stroke-miterlimit="10" points="
		139.725,188.662 139.725,155.25 191.025,155.25 191.025,188.662 	"/>
	
		<polyline id="XMLID_81_" fill="#FFFFFF" stroke="#00984A" stroke-width="3" stroke-linecap="round" stroke-linejoin="round" stroke-miterlimit="10" points="
		148.5,32.737 148.5,25.313 143.1,20.925 133.987,20.925 128.25,24.975 128.25,32.737 	"/>
	<g id="XMLID_73_">
		
			<ellipse id="XMLID_80_" fill="#FFFFFF" stroke="#00984A" stroke-width="3" stroke-linecap="round" stroke-linejoin="round" stroke-miterlimit="10" cx="139.388" cy="57.375" rx="16.2" ry="16.2"/>
		<ellipse id="XMLID_79_" fill="#0D3178" cx="139.388" cy="57.375" rx="12.825" ry="12.825"/>
		<g>
			<path fill="#FFFFFF" d="M131.869,65.316v-1.694h6.328v-0.058c-0.507-0.351-0.974-0.701-1.402-1.032l-4.926-4.011v-2.103
				l5.568,4.75l7.555-5.121v2.005l-6.444,4.322l1.44,1.246h5.004v1.694H131.869z"/>
			<path fill="#FFFFFF" d="M143.24,55.056c0.331-0.506,0.681-1.402,0.681-2.259c0-1.246-0.623-1.83-1.401-1.83
				c-0.817,0-1.266,0.487-1.732,1.752c-0.604,1.694-1.539,2.492-2.668,2.492c-1.519,0-2.765-1.227-2.765-3.252
				c0-0.954,0.272-1.791,0.584-2.317l1.246,0.429c-0.233,0.37-0.545,1.051-0.545,1.927c0,1.013,0.584,1.577,1.285,1.577
				c0.778,0,1.129-0.564,1.597-1.791c0.623-1.636,1.44-2.473,2.842-2.473c1.655,0,2.823,1.285,2.823,3.524
				c0,1.032-0.253,1.986-0.643,2.648L143.24,55.056z"/>
		</g>
	</g>
</g>
<rect id="XMLID_71_" x="25.65" y="163.013" fill="#CEE8FA" width="92.137" height="25.987"/>
<polyline id="XMLID_70_" fill="#FFFFFF" stroke="#4C5C68" stroke-width="3" stroke-linecap="round" stroke-linejoin="round" stroke-miterlimit="10" points="
	117.787,131.963 117.787,163.013 25.313,163.013 25.313,123.525 117.787,123.525 "/>
<g id="XMLID_65_">
	
		<line id="XMLID_69_" fill="none" stroke="#4C5C68" stroke-width="3" stroke-linecap="round" stroke-linejoin="round" stroke-miterlimit="10" x1="25.313" y1="169.763" x2="117.787" y2="169.763"/>
	
		<line id="XMLID_68_" fill="none" stroke="#4C5C68" stroke-width="3" stroke-linecap="round" stroke-linejoin="round" stroke-miterlimit="10" x1="25.313" y1="176.85" x2="117.787" y2="176.85"/>
	
		<line id="XMLID_67_" fill="none" stroke="#4C5C68" stroke-width="3" stroke-linecap="round" stroke-linejoin="round" stroke-miterlimit="10" x1="25.313" y1="183.263" x2="117.787" y2="183.263"/>
	
		<line id="XMLID_66_" fill="none" stroke="#4C5C68" stroke-width="3" stroke-linecap="round" stroke-linejoin="round" stroke-miterlimit="10" x1="25.313" y1="190.35" x2="117.787" y2="190.35"/>
</g>
<polyline id="XMLID_64_" fill="#FFFFFF" stroke="#00984A" stroke-width="3" stroke-linecap="round" stroke-linejoin="round" stroke-miterlimit="10" points="
	101.25,129.938 105.3,129.938 109.688,137.025 109.688,146.138 105.638,150.188 97.875,150.188 "/>
<polyline id="XMLID_63_" fill="#FFFFFF" stroke="#00984A" stroke-width="3" stroke-linecap="round" stroke-linejoin="round" stroke-miterlimit="10" points="
	43.875,129.938 38.138,129.938 32.063,137.025 32.063,146.138 37.8,150.188 43.875,150.188 "/>
<g id="XMLID_55_">
	
		<ellipse id="XMLID_62_" fill="#FFFFFF" stroke="#4C5C68" stroke-width="3" stroke-linecap="round" stroke-linejoin="round" stroke-miterlimit="10" cx="72.563" cy="143.438" rx="13.5" ry="13.5"/>
	<ellipse id="XMLID_61_" fill="#0D3178" cx="72.563" cy="143.438" rx="10.463" ry="10.463"/>
</g>
<line id="XMLID_54_" fill="none" stroke="#4C5C68" stroke-width="3" stroke-linecap="round" stroke-linejoin="round" stroke-miterlimit="10" x1="40.5" y1="140.063" x2="50.625" y2="140.063"/>
<line id="XMLID_53_" fill="none" stroke="#4C5C68" stroke-width="3" stroke-linecap="round" stroke-linejoin="round" stroke-miterlimit="10" x1="94.5" y1="140.063" x2="104.625" y2="140.063"/>
<g>
	<path fill="#FFFFFF" d="M67.302,138.498h1.148v4.29h0.04c0.238-0.343,0.475-0.66,0.7-0.95l2.719-3.34h1.426l-3.221,3.775
		l3.471,5.121h-1.359l-2.93-4.369l-0.845,0.977v3.393h-1.148V138.498z"/>
	<path fill="#FFFFFF" d="M74.254,146.207c0.343,0.224,0.95,0.462,1.531,0.462c0.845,0,1.24-0.423,1.24-0.95
		c0-0.555-0.33-0.858-1.188-1.175c-1.148-0.409-1.689-1.043-1.689-1.809c0-1.029,0.832-1.874,2.204-1.874
		c0.646,0,1.214,0.185,1.571,0.396l-0.291,0.845c-0.251-0.158-0.713-0.369-1.307-0.369c-0.687,0-1.069,0.396-1.069,0.871
		c0,0.527,0.383,0.766,1.214,1.082c1.109,0.423,1.676,0.977,1.676,1.927c0,1.122-0.871,1.914-2.389,1.914
		c-0.699,0-1.346-0.172-1.795-0.436L74.254,146.207z"/>
</g>
</svg>
