<?xml version="1.0" encoding="utf-8"?>
<!-- Generator: Adobe Illustrator 16.0.0, SVG Export Plug-In . SVG Version: 6.00 Build 0)  -->
<!DOCTYPE svg PUBLIC "-//W3C//DTD SVG 1.1//EN" "http://www.w3.org/Graphics/SVG/1.1/DTD/svg11.dtd">
<svg version="1.1" id="Capa_1" xmlns="http://www.w3.org/2000/svg" xmlns:xlink="http://www.w3.org/1999/xlink" x="0px" y="0px"
	 width="216px" height="216px" viewBox="0 0 216 216" enable-background="new 0 0 216 216" xml:space="preserve">
<g>
	<circle fill="#81F7B6" cx="183.195" cy="72.08" r="25.145"/>
	<circle fill="#F9BBC3" cx="46.697" cy="64.896" r="25.145"/>
</g>
<circle fill="#ABE0F9" cx="111.354" cy="93.632" r="25.145"/>
<path fill="#ABE0F9" d="M3.592,125.961h28.736v68.248H3.592V125.961z"/>
<path fill="#ABE0F9" d="M204.748,133.145L93.394,143.921l-17.96-10.776H32.329v53.881h17.96l57.473,25.146l100.578-68.249
	C215.43,139.658,212.955,133.145,204.748,133.145z"/>
<path d="M204.459,129.568l-0.057,0.002L94.228,140.232l-16.946-10.168c-0.559-0.334-1.197-0.513-1.849-0.513H35.92v-3.592
	c0-1.983-1.608-3.592-3.592-3.592H3.592c-1.984,0-3.592,1.606-3.592,3.592v68.248c0,1.983,1.608,3.593,3.592,3.593h28.736
	c1.984,0,3.592-1.607,3.592-3.593v-3.592h13.618l56.784,24.844c1.13,0.494,2.436,0.374,3.458-0.317l100.41-68.145
	c4.16-1.839,6.496-6.309,5.634-10.771C214.684,132.123,210.463,129.568,204.459,129.568L204.459,129.568z M28.736,190.617H7.184
	v-61.064h21.552V190.617z M206.322,140.947l-98.938,67.138l-55.656-24.351c-0.454-0.199-0.944-0.301-1.44-0.301H35.92v-46.697
	h38.518l34.88,20.922c2.565,1.893,4.279,4.723,4.77,7.873c0.543,2.562,0.025,5.232-1.434,7.406
	c-2.985,4.104-9.589,6.72-13.676,3.916l-21.553-14.369l-3.985,5.978l21.51,14.341c2.384,1.631,5.211,2.49,8.1,2.465
	c6.11-0.188,11.796-3.175,15.412-8.102c2.608-3.738,3.586-8.376,2.706-12.848c-0.854-5.127-3.725-9.699-7.966-12.701l-8.622-5.172
	l100.167-9.709c2.813,0,4.028,0.969,4.149,1.41C208.992,138.48,208.514,139.625,206.322,140.947L206.322,140.947z"/>
<path fill="#00984A" d="M154.459,72.08c0,15.871,12.865,28.736,28.736,28.736s28.736-12.866,28.736-28.736
	s-12.865-28.736-28.736-28.736C167.332,43.361,154.477,56.216,154.459,72.08z M204.748,72.08
	c-0.02,10.506-7.604,19.47-17.961,21.228v-3.93c4.293-1.512,7.17-5.563,7.184-10.114c0-7.593-6.078-9.487-9.711-10.62
	c-4.049-1.261-4.656-1.752-4.656-3.749c0-1.984,1.607-3.592,3.592-3.592s3.593,1.608,3.593,3.592h7.185
	c-0.015-4.552-2.892-8.602-7.185-10.114v-3.93C197.145,52.609,204.729,61.574,204.748,72.08L204.748,72.08z M179.604,50.852v3.93
	c-4.293,1.512-7.17,5.563-7.185,10.114c0,7.583,6.073,9.475,9.702,10.606c4.055,1.265,4.666,1.757,4.666,3.762
	c0,1.984-1.607,3.592-3.592,3.592s-3.592-1.608-3.592-3.592h-7.186c0.014,4.552,2.893,8.602,7.186,10.114v3.93
	c-11.726-1.969-19.633-13.069-17.664-24.792C163.46,59.463,170.552,52.372,179.604,50.852z"/>
<path fill="#143F90" d="M82.617,93.632c0,15.87,12.866,28.737,28.736,28.737c15.871,0,28.735-12.867,28.735-28.737
	c0-15.871-12.864-28.736-28.735-28.736C95.491,64.914,82.635,77.769,82.617,93.632z M132.906,93.632
	c-0.018,10.506-7.604,19.472-17.961,21.228v-3.93c4.293-1.512,7.171-5.563,7.185-10.114c0-7.592-6.079-9.487-9.712-10.62
	c-4.048-1.261-4.656-1.752-4.656-3.749c0-1.983,1.608-3.592,3.591-3.592c1.984,0,3.592,1.608,3.592,3.592h7.186
	c-0.014-4.551-2.892-8.602-7.186-10.114v-3.93C125.305,74.161,132.889,83.126,132.906,93.632L132.906,93.632z M107.762,72.404v3.93
	c-4.293,1.512-7.17,5.563-7.184,10.114c0,7.583,6.074,9.475,9.703,10.606c4.056,1.265,4.664,1.758,4.664,3.762
	c0,1.984-1.606,3.592-3.592,3.592c-1.982,0-3.591-1.608-3.591-3.592h-7.184c0.014,4.552,2.891,8.602,7.184,10.114v3.93
	c-11.724-1.969-19.632-13.067-17.663-24.792C91.619,81.016,98.711,73.924,107.762,72.404L107.762,72.404z"/>
<path fill="#D71920" d="M17.96,64.896c0,15.871,12.866,28.736,28.736,28.736c15.87,0,28.736-12.866,28.736-28.736
	S62.567,36.159,46.697,36.159C30.834,36.177,17.978,49.032,17.96,64.896z M68.249,64.896c-0.018,10.506-7.603,19.47-17.96,21.228
	v-3.93c4.293-1.512,7.17-5.563,7.184-10.114c0-7.593-6.079-9.487-9.712-10.62c-4.048-1.261-4.657-1.752-4.657-3.748
	c0-1.984,1.608-3.592,3.592-3.592c1.984,0,3.592,1.608,3.592,3.592h7.184c-0.014-4.552-2.891-8.602-7.184-10.114v-3.93
	C60.646,45.425,68.231,54.39,68.249,64.896z M43.104,43.667v3.93c-4.293,1.512-7.17,5.563-7.184,10.114
	c0,7.583,6.074,9.475,9.703,10.606c4.055,1.265,4.666,1.757,4.666,3.762c0,1.984-1.608,3.592-3.592,3.592
	c-1.984,0-3.592-1.608-3.592-3.592H35.92c0.014,4.552,2.891,8.602,7.184,10.114v3.93C31.38,84.154,23.472,73.054,25.441,61.331
	C26.961,52.279,34.054,45.188,43.104,43.667z"/>
<path d="M179.604,14.606h7.185v21.553h-7.185V14.606z"/>
<path d="M179.604,0.238h7.185v7.184h-7.185V0.238z"/>
<path d="M107.762,14.606h7.183v39.513h-7.183V14.606z"/>
<path d="M107.762,0.238h7.183v7.184h-7.183V0.238z"/>
<path d="M43.104,0.238h7.185v7.184h-7.185V0.238z"/>
<path d="M43.104,14.606h7.185v14.369h-7.185V14.606z"/>
</svg>
