<?xml version="1.0" encoding="utf-8"?>
<!-- Generator: Adobe Illustrator 16.0.0, SVG Export Plug-In . SVG Version: 6.00 Build 0)  -->
<!DOCTYPE svg PUBLIC "-//W3C//DTD SVG 1.1//EN" "http://www.w3.org/Graphics/SVG/1.1/DTD/svg11.dtd">
<svg version="1.1" id="Layer_1" xmlns="http://www.w3.org/2000/svg" xmlns:xlink="http://www.w3.org/1999/xlink" x="0px" y="0px"
	 width="216px" height="216px" viewBox="0 0 216 216" enable-background="new 0 0 216 216" xml:space="preserve">
<g>
	
		<polyline id="XMLID_1177_" fill="#FFFFFF" stroke="#171C28" stroke-width="3" stroke-linecap="round" stroke-linejoin="round" stroke-miterlimit="10" points="
		124.537,171.45 18.563,171.45 18.563,136.013 49.612,124.2 86.737,106.313 126.9,126.563 	"/>
	<path id="XMLID_1176_" fill="#0D3178" d="M56.025,122.513L75.263,170.1c0,0,14.85,0,19.237,0l20.925-47.925l-29.7-13.837
		L56.025,122.513z"/>
	
		<path id="XMLID_1175_" fill="#FFFFFF" stroke="#171C28" stroke-width="3" stroke-linecap="round" stroke-linejoin="round" stroke-miterlimit="10" d="
		M90.788,26.325c-16.2-0.675-21.938,3.712-27.675,10.462C58.05,43.2,57.375,52.65,57.375,52.65l0.337,30.038h58.725l0.675-34.425
		C117.112,48.6,114.075,27,90.788,26.325z"/>
	
		<path id="XMLID_1174_" fill="#FFFFFF" stroke="#171C28" stroke-width="3" stroke-linecap="round" stroke-linejoin="round" stroke-miterlimit="10" d="
		M86.737,139.05L86.737,139.05c-10.125,0-17.887-7.763-17.887-17.55v-13.837h35.1V121.5
		C104.288,131.287,96.525,139.05,86.737,139.05z"/>
	
		<path id="XMLID_1173_" fill="#FFFFFF" stroke="#171C28" stroke-width="3" stroke-linecap="round" stroke-linejoin="round" stroke-miterlimit="10" d="
		M93.15,114.075H77.962c-9.112,0-14.85-8.1-14.85-17.213v-7.087c-3.037,0-1.012,0-1.012,0c-2.7,0-5.738-2.362-5.738-5.063
		c0-2.7,2.7-5.063,5.4-5.063c0.337,0-2.025,0,1.35,0v-35.1H110.7v34.763c0,0,0.675,0,1.013,0c2.699,0,5.063,2.362,5.063,5.063
		s-2.363,5.063-5.063,5.063c-0.338,0-1.013,0-1.013,0v7.087c0,5.063-3.038,9.45-6.413,12.825"/>
	<path id="XMLID_1169_" fill="#FFFFFF" d="M112.725,42.525v5.4l-10.8-2.7l-2.025,8.1L81,50.288l3.712,11.137
		c0,0-14.85-11.475-17.212-13.837c0,0-5.737-1.35-5.4,2.7c0,0-3.375-3.375,1.012-7.763"/>
	
		<path id="XMLID_1168_" fill="#FFFFFF" stroke="#171C28" stroke-width="3" stroke-linecap="round" stroke-linejoin="round" stroke-miterlimit="10" d="
		M110.7,48.263l-8.775-3.038l-2.025,8.1L81,50.288l3.712,11.137c0,0-15.525-11.475-18.225-13.5c0,0-3.375,0.338-3.375,4.05"/>
	
		<polyline id="XMLID_1167_" fill="#FFFFFF" stroke="#171C28" stroke-width="3" stroke-linecap="round" stroke-linejoin="round" stroke-miterlimit="10" points="
		46.575,125.888 46.575,155.25 58.05,155.25 55.013,163.35 	"/>
	
		<polyline id="XMLID_1144_" fill="#FFFFFF" stroke="#171C28" stroke-width="3" stroke-linecap="round" stroke-linejoin="round" stroke-miterlimit="10" points="
		116.438,124.875 116.438,153.563 112.05,153.563 111.375,162.675 	"/>
	
		<line id="XMLID_1143_" fill="none" stroke="#171C28" stroke-width="3" stroke-linecap="round" stroke-linejoin="round" stroke-miterlimit="10" x1="56.362" y1="122.85" x2="76.275" y2="170.775"/>
	
		<line id="XMLID_1142_" fill="none" stroke="#171C28" stroke-width="3" stroke-linecap="round" stroke-linejoin="round" stroke-miterlimit="10" x1="114.75" y1="121.838" x2="95.175" y2="170.775"/>
</g>
<g>
	<polyline id="XMLID_1188_" fill="#FFFFFF" points="203.85,94.5 203.85,173.138 125.213,173.138 125.213,163.688 125.213,147.487 
		125.213,69.188 180.563,69.188 	"/>
	
		<polyline id="XMLID_1178_" fill="#FFFFFF" stroke="#171C28" stroke-width="3" stroke-linecap="round" stroke-linejoin="round" stroke-miterlimit="10" points="
		203.513,93.825 203.513,171.45 187.987,171.45 124.2,171.45 124.2,143.775 	"/>
	
		<polyline id="XMLID_1187_" fill="#FFFFFF" stroke="#171C28" stroke-width="3" stroke-linecap="round" stroke-linejoin="round" stroke-miterlimit="10" points="
		124.2,145.8 124.2,68.175 179.888,68.175 	"/>
	
		<polygon id="XMLID_1186_" fill="#FFFFFF" stroke="#171C28" stroke-width="3" stroke-linecap="round" stroke-linejoin="round" stroke-miterlimit="10" points="
		179.888,67.837 179.888,94.163 203.85,94.163 	"/>
	
		<line id="XMLID_1185_" fill="none" stroke="#171C28" stroke-width="3" stroke-linecap="round" stroke-linejoin="round" stroke-miterlimit="10" x1="157.95" y1="103.612" x2="188.662" y2="103.612"/>
	
		<line id="XMLID_1184_" fill="none" stroke="#171C28" stroke-width="3" stroke-linecap="round" stroke-linejoin="round" stroke-miterlimit="10" x1="157.95" y1="113.063" x2="178.537" y2="113.063"/>
	
		<line id="XMLID_1183_" fill="none" stroke="#171C28" stroke-width="3" stroke-linecap="round" stroke-linejoin="round" stroke-miterlimit="10" x1="136.35" y1="122.175" x2="180.563" y2="122.175"/>
	
		<line id="XMLID_1182_" fill="none" stroke="#171C28" stroke-width="3" stroke-linecap="round" stroke-linejoin="round" stroke-miterlimit="10" x1="136.35" y1="133.313" x2="180.563" y2="133.313"/>
	
		<line id="XMLID_1181_" fill="none" stroke="#171C28" stroke-width="3" stroke-linecap="round" stroke-linejoin="round" stroke-miterlimit="10" x1="136.35" y1="142.425" x2="180.563" y2="142.425"/>
	
		<line id="XMLID_1180_" fill="none" stroke="#171C28" stroke-width="3" stroke-linecap="round" stroke-linejoin="round" stroke-miterlimit="10" x1="141.075" y1="151.875" x2="179.888" y2="151.875"/>
	<rect id="XMLID_1179_" x="136.35" y="98.888" fill="#171C28" width="14.176" height="14.175"/>
</g>
</svg>
