<?xml version="1.0" encoding="utf-8"?>
<!-- Generator: Adobe Illustrator 16.0.0, SVG Export Plug-In . SVG Version: 6.00 Build 0)  -->
<!DOCTYPE svg PUBLIC "-//W3C//DTD SVG 1.1//EN" "http://www.w3.org/Graphics/SVG/1.1/DTD/svg11.dtd">
<svg version="1.1" id="Layer_1" xmlns="http://www.w3.org/2000/svg" xmlns:xlink="http://www.w3.org/1999/xlink" x="0px" y="0px"
	 width="216px" height="216px" viewBox="0 0 216 216" enable-background="new 0 0 216 216" xml:space="preserve">
<g id="Layer_2">
</g>
<g id="Layer_1_1_">
	<rect x="104.962" y="112.388" fill="#00984A" width="11.137" height="83.7"/>
	<g>
		<path fill="#4C5C68" d="M106.987,153.9c0-4.726-4.05-8.775-8.775-8.775H60.075v4.388h38.137c2.363,0,4.388,2.024,4.388,4.388
			c0,2.362-2.025,4.387-4.388,4.387H60.075v4.388h38.137C102.938,162.675,106.987,158.625,106.987,153.9z"/>
		<path fill="#4C5C68" d="M100.575,140.737c0-4.725-4.05-8.774-8.775-8.774H53.325v4.387h38.137c2.363,0,4.388,2.025,4.388,4.388
			s-1.688,4.388-4.05,4.388H56.7v4.388h35.1C96.525,149.513,100.575,145.463,100.575,140.737z"/>
		<path fill="#4C5C68" d="M100.575,167.063c0-4.725-4.05-8.775-8.775-8.775H56.7v4.388h35.1c2.363,0,4.388,2.025,4.388,4.388
			s-2.025,4.388-4.388,4.388H56.7v4.388h35.1C96.525,175.838,100.575,171.787,100.575,167.063z"/>
		<path fill="#4C5C68" d="M75.263,171.112H56.7v4.388h18.563c4.725,0,7.425,1.688,7.425,4.388c0,2.362-2.025,4.388-4.388,4.388
			H20.925l-5.4-8.101V141.75l24.638-18.563h22.275c2.362,0,4.388,2.025,4.388,4.388s-2.025,4.388-4.388,4.388H40.5v4.387h21.938
			c4.725,0,8.775-4.05,8.775-8.774c0-4.726-4.05-8.775-8.775-8.775h-22.95c-0.337,0-1.012,0-1.35,0.338l-26.325,19.575
			c-0.675,0.337-1.013,1.012-1.013,1.688v36.112c0,0.337,0,1.013,0.338,1.35l6.412,9.788c0.338,0.675,1.013,1.012,2.025,1.012
			h59.063c4.725,0,8.775-4.05,8.775-8.774C87.413,175.838,84.038,171.112,75.263,171.112z"/>
		<path fill="#4C5C68" d="M71.888,205.2h39.487c8.438,0,15.188-6.75,15.188-15.188v-72.226c0-8.438-6.75-15.187-15.188-15.187
			H71.888c-8.438,0-15.188,6.75-15.188,15.187v2.363h4.387v-2.363c0-6.074,4.725-10.8,10.8-10.8h39.487
			c6.075,0,10.8,4.726,10.8,10.8v71.888c0,6.075-4.725,10.8-10.8,10.8H71.888c-6.075,0-10.8-4.725-10.8-10.8v-2.362H56.7v2.362
			C56.7,198.45,63.45,205.2,71.888,205.2z"/>
		<path fill="#4C5C68" d="M170.1,10.8c-12.149,0-21.938,9.788-21.938,21.938c0,12.15,9.788,21.938,21.938,21.938
			c12.15,0,21.938-9.787,21.938-21.938C192.037,20.587,182.25,10.8,170.1,10.8z M170.1,49.95c-9.449,0-17.212-7.763-17.212-17.213
			c0-9.45,7.763-17.212,17.212-17.212c9.45,0,17.213,7.763,17.213,17.212C187.313,42.188,179.888,49.95,170.1,49.95z"/>
		<path fill="#4C5C68" d="M183.263,49.95h-26.325c-12.15,0-21.938,9.787-21.938,21.938v39.487c0,1.35,1.013,2.362,2.362,2.362
			h65.476c1.35,0,2.362-1.013,2.362-2.362V71.888C205.2,60.075,195.412,49.95,183.263,49.95z M200.813,109.013h-61.088V71.888
			c0-9.45,7.763-17.213,17.213-17.213h26.325c9.45,0,17.212,7.763,17.212,17.213v37.125H200.813z"/>
		<rect x="184.275" y="82.688" fill="#4C5C68" width="4.387" height="27.338"/>
		<rect x="151.537" y="82.688" fill="#4C5C68" width="4.388" height="27.338"/>
		<rect x="168.075" y="125.213" fill="#4C5C68" width="4.388" height="24.3"/>
		<path fill="#4C5C68" d="M170.1,10.8c-12.149,0-21.938,9.788-21.938,21.938c0,12.15,9.788,21.938,21.938,21.938
			c12.15,0,21.938-9.787,21.938-21.938C192.037,20.587,182.25,10.8,170.1,10.8z M170.1,49.95c-9.449,0-17.212-7.763-17.212-17.213
			c0-9.45,7.763-17.212,17.212-17.212c9.45,0,17.213,7.763,17.213,17.212C187.313,42.188,179.888,49.95,170.1,49.95z"/>
		<rect x="105.638" y="37.125" fill="#4C5C68" width="30.712" height="4.388"/>
		<rect x="95.85" y="105.638" fill="#4C5C68" width="4.387" height="34.087"/>
		<rect x="95.85" y="168.075" fill="#4C5C68" width="4.387" height="34.087"/>
		<path fill="#4C5C68" d="M162.675,135l7.425-7.425l7.426,7.425l3.037-3.037l-9.112-9.113c-1.013-1.012-2.362-1.012-3.038,0
			l-9.112,9.113L162.675,135z"/>
		<rect x="125.213" y="174.487" fill="#4C5C68" width="17.55" height="4.388"/>
		<path fill="#4C5C68" d="M139.05,40.837c1.013-1.012,1.013-2.362,0-3.038l-9.112-9.112l-3.037,3.038l7.425,7.425l-7.425,7.425
			l3.037,3.037L139.05,40.837z"/>
		<path fill="#4C5C68" d="M44.888,37.125H26.325c-1.35,0-2.363,1.013-2.363,2.362v90.788h4.388V41.513h16.2v-4.388H44.888z"/>
		<g id="XMLID_1339_">
			
				<ellipse id="XMLID_1364_" fill="#FFFFFF" stroke="#4C5C68" stroke-width="3" stroke-linecap="round" stroke-linejoin="round" stroke-miterlimit="10" cx="72.225" cy="39.15" rx="26.663" ry="26.325"/>
			<ellipse id="XMLID_1356_" fill="#0D3178" cx="72.225" cy="39.15" rx="20.925" ry="20.587"/>
		</g>
		<g id="XMLID_1505_">
			
				<ellipse id="XMLID_1512_" fill="#FFFFFF" stroke="#4C5C68" stroke-width="3" stroke-linecap="round" stroke-linejoin="round" stroke-miterlimit="10" cx="169.425" cy="175.5" rx="26.663" ry="26.325"/>
			<ellipse id="XMLID_1511_" fill="#0D3178" cx="169.425" cy="175.5" rx="20.925" ry="20.588"/>
		</g>
		<g>
			<path fill="#FFFFFF" d="M60.869,30.044h2.271v8.485h0.079c0.47-0.679,0.94-1.305,1.384-1.879l5.378-6.605h2.82l-6.371,7.467
				l6.867,10.13h-2.689l-5.796-8.642l-1.671,1.932v6.709h-2.271V30.044z"/>
			<path fill="#FFFFFF" d="M74.627,45.291c0.679,0.444,1.879,0.914,3.028,0.914c1.671,0,2.454-0.835,2.454-1.88
				c0-1.096-0.653-1.697-2.35-2.323c-2.271-0.81-3.342-2.063-3.342-3.577c0-2.037,1.645-3.708,4.36-3.708
				c1.279,0,2.402,0.366,3.107,0.783l-0.574,1.671c-0.496-0.313-1.41-0.731-2.585-0.731c-1.357,0-2.115,0.783-2.115,1.723
				c0,1.044,0.757,1.514,2.402,2.141c2.193,0.835,3.316,1.932,3.316,3.812c0,2.219-1.723,3.786-4.726,3.786
				c-1.384,0-2.663-0.339-3.551-0.862L74.627,45.291z"/>
		</g>
		<g>
			<path fill="#FFFFFF" d="M159.536,165.752h2.271v8.484h0.079c0.47-0.678,0.94-1.305,1.384-1.879l5.378-6.605h2.819l-6.37,7.467
				l6.866,10.13h-2.689l-5.795-8.642l-1.672,1.932v6.71h-2.271V165.752z"/>
			<path fill="#FFFFFF" d="M173.294,180.999c0.679,0.444,1.88,0.913,3.028,0.913c1.671,0,2.454-0.835,2.454-1.879
				c0-1.097-0.653-1.697-2.35-2.324c-2.271-0.809-3.342-2.063-3.342-3.576c0-2.037,1.645-3.707,4.36-3.707
				c1.279,0,2.401,0.365,3.106,0.783l-0.574,1.67c-0.496-0.313-1.41-0.73-2.585-0.73c-1.357,0-2.115,0.783-2.115,1.723
				c0,1.045,0.758,1.515,2.402,2.141c2.193,0.836,3.316,1.933,3.316,3.813c0,2.219-1.724,3.785-4.727,3.785
				c-1.383,0-2.662-0.339-3.551-0.861L173.294,180.999z"/>
		</g>
	</g>
</g>
</svg>
