<?xml version="1.0" encoding="utf-8"?>
<!-- Generator: Adobe Illustrator 16.0.0, SVG Export Plug-In . SVG Version: 6.00 Build 0)  -->
<!DOCTYPE svg PUBLIC "-//W3C//DTD SVG 1.1//EN" "http://www.w3.org/Graphics/SVG/1.1/DTD/svg11.dtd">
<svg version="1.1" id="Layer_1" xmlns="http://www.w3.org/2000/svg" xmlns:xlink="http://www.w3.org/1999/xlink" x="0px" y="0px"
	 width="216px" height="216px" viewBox="0 0 216 216" enable-background="new 0 0 216 216" xml:space="preserve">
<g>
	<path fill="#FFFFFF" d="M62.438,164.025H39.15c-0.675,0-1.35-0.676-1.35-1.351v-35.438c0-0.675,0.675-1.35,1.35-1.35h23.288
		c0.675,0,1.35,0.675,1.35,1.35v35.438C63.788,163.35,63.112,164.025,62.438,164.025z"/>
	<rect x="26.663" y="157.95" fill="#FFFFFF" width="29.362" height="11.138"/>
	<path fill="#171C28" d="M124.537,66.487H98.212c-1.35,0-2.362,1.013-2.362,2.363V108c0,1.35,1.012,2.362,2.362,2.362h26.325
		c1.351,0,2.363-1.013,2.363-2.362V68.513C126.563,67.5,125.55,66.487,124.537,66.487z M122.175,105.638h-21.6V70.875h21.6V105.638z
		"/>
	<path fill="#171C28" d="M163.688,66.487c-1.35,0-2.362,1.013-2.362,2.363V108c0,1.35,1.013,2.362,2.362,2.362h26.325
		c1.35,0,2.362-1.013,2.362-2.362V68.513c0-1.35-1.013-2.363-2.362-2.363h-26.325V66.487z M187.65,105.638H166.05V70.875h21.601
		V105.638z"/>
	<rect x="174.487" y="79.65" fill="#171C28" width="4.388" height="11.138"/>
	<rect x="109.013" y="82.688" fill="#171C28" width="4.388" height="11.138"/>
	<path fill="#171C28" d="M163.688,23.962h-39.15c-1.35,0-2.362,1.013-2.362,2.363V108c0,1.35,1.013,2.362,2.362,2.362h39.488
		c1.35,0,2.362-1.013,2.362-2.362V25.987C166.05,24.975,165.037,23.962,163.688,23.962z M161.325,105.638h-34.763V28.35h34.763
		V105.638z"/>
	<path fill="#171C28" d="M137.362,82.688c-1.35,0-2.362,1.013-2.362,2.362V108c0,1.35,1.013,2.362,2.362,2.362h13.163
		c1.35,0,2.362-1.013,2.362-2.362V85.05c0-1.35-1.013-2.362-2.362-2.362H137.362z M148.5,105.638h-8.438V87.075h8.438V105.638z"/>
	<g>
		<g>
			<rect x="134.325" y="39.15" fill="#171C28" width="6.412" height="13.163"/>
			<path fill="#FFFFFF" d="M141.75,53.325h-8.438V38.138h8.438V53.325z M135.338,51.3h4.387V40.163h-4.387V51.3z"/>
		</g>
	</g>
	<g>
		<g>
			<rect x="147.487" y="39.15" fill="#171C28" width="6.413" height="13.163"/>
			<path fill="#FFFFFF" d="M154.912,53.325h-8.438V38.138h8.438V53.325z M148.5,51.3h4.388V40.163H148.5V51.3z"/>
		</g>
	</g>
	<g>
		<g>
			<rect x="134.325" y="58.725" fill="#171C28" width="6.412" height="13.163"/>
			<path fill="#FFFFFF" d="M141.75,72.9h-8.438V57.712h8.438V72.9z M135.338,70.875h4.387V59.737h-4.387V70.875z"/>
		</g>
	</g>
	<g>
		<g>
			<rect x="147.487" y="58.725" fill="#171C28" width="6.413" height="13.163"/>
			<path fill="#FFFFFF" d="M154.912,72.9h-8.438V57.712h8.438V72.9z M148.5,70.875h4.388V59.737H148.5V70.875z"/>
		</g>
	</g>
	<path fill="#171C28" d="M32.737,110.362h45.9c1.35,0,2.362-1.013,2.362-2.362V68.513c0-1.35-1.013-2.363-2.362-2.363h-45.9
		c-1.35,0.337-2.362,1.35-2.362,2.363V108C30.375,109.35,31.388,110.362,32.737,110.362z M34.763,70.875h41.512v34.763H34.763
		V70.875z"/>
	<path fill="#171C28" d="M86.737,67.163L57.375,34.425c-0.337-0.337-1.013-0.675-1.688-0.675l0,0c-0.675,0-1.35,0.337-1.688,0.675
		L24.638,67.163c-1.013,0.675-1.013,1.688-0.675,2.362c0.337,1.013,1.35,1.35,2.025,1.35H85.05c1.013,0,1.688-0.675,2.025-1.35
		C87.413,68.85,87.413,67.837,86.737,67.163z"/>
	<path fill="#171C28" d="M65.475,86.063H45.9c-1.35,0-2.362,1.013-2.362,2.362V108c0,1.35,1.012,2.362,2.362,2.362h19.575
		c1.35,0,2.362-1.013,2.362-2.362V88.425C67.5,87.075,66.487,86.063,65.475,86.063z M63.112,105.638H47.925V90.45h15.188V105.638z"
		/>
	<path fill="#171C28" d="M167.063,122.175H153.9c-12.15,0-21.938,9.788-21.938,21.938c0,1.351,1.012,2.362,2.362,2.362h45.899
		c1.351,0,2.363-1.012,2.363-2.362V137.7C182.25,128.925,175.5,122.175,167.063,122.175z"/>
	<path fill="#171C28" d="M134.325,159.3c2.362,0,4.388,2.025,4.388,4.388c0,1.35,1.012,2.362,2.362,2.362H167.4
		c1.35,0,2.362-1.013,2.362-2.362c0-2.362,2.024-4.388,4.388-4.388c2.362,0,4.387,2.025,4.387,4.388c0,1.35,1.013,2.362,2.363,2.362
		h9.787c1.35,0,2.362-1.013,2.362-2.362v-13.162c0-4.726-4.05-8.775-8.774-8.775h-56.7c-8.438,0-15.525,6.75-15.525,15.525v6.412
		c0,1.35,1.013,2.362,2.362,2.362h13.163c1.35,0,2.362-1.013,2.362-2.362C129.938,161.325,131.963,159.3,134.325,159.3z
		 M125.888,160.65l-0.338,0.675h-8.774v-4.388c0-6.075,4.725-10.8,10.8-10.8h55.688c2.362,0,4.388,2.024,4.388,4.388v10.8h-5.4
		l-0.338-0.675c-1.35-3.375-4.725-5.738-8.438-5.738c-3.712,0-7.087,2.363-8.438,5.738l-0.337,0.675h-22.275l-0.337-0.675
		c-1.351-3.375-4.726-5.738-8.438-5.738C129.938,154.912,127.237,157.275,125.888,160.65z"/>
	<g>
		<g>
			<path fill="#171C28" d="M134.325,173.475c-5.4,0-9.788-4.387-9.788-9.787s4.388-9.787,9.788-9.787
				c5.399,0,9.787,4.387,9.787,9.787S139.725,173.475,134.325,173.475z M134.325,160.313c-1.688,0-3.375,1.35-3.375,3.375
				c0,1.688,1.35,3.375,3.375,3.375c1.688,0,3.375-1.35,3.375-3.375C137.362,162,136.013,160.313,134.325,160.313z"/>
			<path fill="#FFFFFF" d="M134.325,174.487c-6.075,0-10.8-4.725-10.8-10.8s4.725-10.8,10.8-10.8s10.8,4.725,10.8,10.8
				S140.063,174.487,134.325,174.487z M134.325,154.912c-4.726,0-8.775,4.051-8.775,8.775s4.05,8.775,8.775,8.775
				c4.725,0,8.774-4.051,8.774-8.775S139.05,154.912,134.325,154.912z M134.325,168.075c-2.362,0-4.388-2.025-4.388-4.388
				s2.025-4.388,4.388-4.388s4.388,2.025,4.388,4.388C138.375,166.05,136.688,168.075,134.325,168.075z M134.325,161.325
				c-1.351,0-2.362,1.013-2.362,2.362s1.012,2.362,2.362,2.362c1.35,0,2.362-1.013,2.362-2.362S135.338,161.325,134.325,161.325z"/>
		</g>
	</g>
	<path fill="#171C28" d="M190.013,10.8H25.987c-8.438,0-15.525,6.75-15.525,15.525v144.112c0,8.438,6.75,15.525,15.525,15.525H90.45
		l15.862,18.899c1.013,1.013,2.7,1.013,3.375,0l15.862-18.899h64.463c8.438,0,15.524-6.75,15.524-15.525V25.987
		C205.2,17.55,198.45,10.8,190.013,10.8z M200.813,170.438c0,6.075-4.725,10.8-10.8,10.8h-65.476c-0.675,0-1.35,0.338-1.688,0.675
		L108,199.463l-14.513-17.551c-0.337-0.675-1.012-0.675-1.688-0.675H25.987c-6.075,0-10.8-4.725-10.8-10.8V25.987
		c0-5.737,5.063-10.8,10.8-10.8h164.025c6.075,0,10.8,4.725,10.8,10.8V170.438z"/>
	<path fill="#171C28" d="M31.725,63.45c1.012,0.337,2.025,0,2.362-0.675L47.25,48.263c0.337-0.338,0.675-1.013,0.675-1.35V39.15
		c0-1.35-1.012-2.362-2.362-2.362H32.737c-1.35,0-2.362,1.012-2.362,2.362v22.275C30.375,62.438,31.05,63.112,31.725,63.45z
		 M34.763,41.513H43.2V45.9l-8.438,9.45V41.513z"/>
	<g>
		<g>
			<path fill="#171C28" d="M173.475,173.475c-5.399,0-9.787-4.387-9.787-9.787s4.388-9.787,9.787-9.787
				c5.4,0,9.788,4.387,9.788,9.787S178.875,173.475,173.475,173.475z M173.475,160.313c-1.688,0-3.375,1.35-3.375,3.375
				c0,1.688,1.351,3.375,3.375,3.375c1.688,0,3.375-1.35,3.375-3.375C176.85,162,175.5,160.313,173.475,160.313z"/>
			<path fill="#FFFFFF" d="M173.475,174.487c-6.074,0-10.8-4.725-10.8-10.8s4.726-10.8,10.8-10.8c6.075,0,10.801,4.725,10.801,10.8
				S179.55,174.487,173.475,174.487z M173.475,154.912c-4.725,0-8.774,4.051-8.774,8.775s4.05,8.775,8.774,8.775
				c4.726,0,8.775-4.051,8.775-8.775S178.537,154.912,173.475,154.912z M173.475,168.075c-2.362,0-4.387-2.025-4.387-4.388
				s2.024-4.388,4.387-4.388c2.363,0,4.388,2.025,4.388,4.388S175.838,168.075,173.475,168.075z M173.475,161.325
				c-1.35,0-2.362,1.013-2.362,2.362s1.013,2.362,2.362,2.362c1.351,0,2.363-1.013,2.363-2.362S174.825,161.325,173.475,161.325z"/>
		</g>
	</g>
	<path fill="#171C28" d="M74.25,118.8H32.737c-1.35,0-2.362,1.013-2.362,2.362v35.101h4.388v-32.737H74.25V118.8z"/>
	<g>
		<g>
			<path fill="#4C5C68" d="M81.675,137.362H68.513c-1.688,0-3.375-1.35-3.375-3.375v-6.412c0-5.4,4.387-9.788,9.787-9.788
				c5.4,0,9.788,4.388,9.788,9.788v6.412C85.05,136.013,83.7,137.362,81.675,137.362z M71.888,130.95H78.3v-3.375
				c0-1.688-1.35-3.375-3.375-3.375c-1.688,0-3.375,1.35-3.375,3.375v3.375H71.888z"/>
			<path fill="#FFFFFF" d="M81.675,138.375H68.513c-2.363,0-4.388-2.025-4.388-4.388v-6.412c0-6.075,4.725-10.8,10.8-10.8
				c6.075,0,10.8,4.725,10.8,10.8v6.412C86.063,136.688,84.038,138.375,81.675,138.375z M75.263,118.8
				c-4.725,0-8.775,4.05-8.775,8.775v6.412c0,1.351,1.013,2.362,2.363,2.362h13.163c1.35,0,2.362-1.012,2.362-2.362v-6.412
				C84.038,122.85,79.987,118.8,75.263,118.8z M79.65,131.963h-8.775v-4.388c0-2.362,2.025-4.388,4.388-4.388
				c2.362,0,4.387,2.025,4.387,4.388V131.963z M72.9,129.938h4.725v-2.362c0-1.351-1.013-2.362-2.362-2.362
				c-1.35,0-2.363,1.012-2.363,2.362V129.938z"/>
		</g>
	</g>
	<path fill="#171C28" d="M75.263,118.8c-4.725,0-8.775,4.05-8.775,8.775v6.412c0,1.351,1.013,2.362,2.363,2.362h13.163
		c1.35,0,2.362-1.012,2.362-2.362v-6.412C84.038,122.85,79.987,118.8,75.263,118.8z M79.65,131.963h-8.775v-4.388
		c0-2.362,2.025-4.388,4.388-4.388c2.362,0,4.387,2.025,4.387,4.388V131.963z"/>
	<path fill="#171C28" d="M68.513,168.075H62.1c-2.363,0-4.388-2.025-4.388-4.388v-6.412c0-1.351-1.012-2.363-2.362-2.363H25.987
		c-1.35,0-2.362,1.013-2.362,2.363v6.412c0,4.725,4.05,8.775,8.775,8.775h36.113c1.35,0,2.362-1.013,2.362-2.363
		C70.875,168.75,69.862,168.075,68.513,168.075z M32.737,168.075c-2.362,0-4.387-2.025-4.387-4.388V159.3h24.975v4.388
		c0,1.013,0.337,2.025,0.337,3.037L54,168.075H32.737z"/>
	<path fill="#171C28" d="M66.487,172.463h2.363c1.35,0,2.362-1.013,2.362-2.363v-34.762h-4.387v37.125H66.487z"/>
	<rect x="79.65" y="145.125" fill="#0D3178" width="4.388" height="4.388"/>
	<rect x="92.475" y="145.125" fill="#0D3178" width="4.387" height="4.388"/>
	<rect x="105.638" y="145.125" fill="#0D3178" width="4.388" height="4.388"/>
	<rect x="82.688" y="43.538" fill="#0D3178" width="4.388" height="4.387"/>
	<rect x="95.85" y="43.538" fill="#0D3178" width="4.387" height="4.387"/>
	<rect x="109.013" y="43.538" fill="#0D3178" width="4.388" height="4.387"/>
	<path fill="#FFFFFF" d="M177.862,141.75h-41.175l0.338-1.35c1.688-8.101,8.774-13.838,17.212-13.838H167.4
		c6.074,0,10.8,4.725,10.8,10.8v4.388H177.862z"/>
	<rect x="158.287" y="125.55" fill="#171C28" width="4.388" height="17.55"/>
</g>
<path fill="#FFFFFF" d="M31.725,65.475l23.288-25.988c0.337-0.337,0.675-0.337,0.675,0l23.288,25.988
	c0.337,0.337,0,0.675-0.337,0.675H32.063C31.725,66.487,31.725,65.813,31.725,65.475z"/>
</svg>
