<?xml version="1.0" encoding="utf-8"?>
<!-- Generator: Adobe Illustrator 16.0.0, SVG Export Plug-In . SVG Version: 6.00 Build 0)  -->
<!DOCTYPE svg PUBLIC "-//W3C//DTD SVG 1.1//EN" "http://www.w3.org/Graphics/SVG/1.1/DTD/svg11.dtd">
<svg version="1.1" id="Layer_1" xmlns="http://www.w3.org/2000/svg" xmlns:xlink="http://www.w3.org/1999/xlink" x="0px" y="0px"
	 width="216px" height="216px" viewBox="0 0 216 216" enable-background="new 0 0 216 216" xml:space="preserve">
<g>
	<g id="XMLID_1083_">
		
			<ellipse id="XMLID_1086_" fill="#FFFFFF" stroke="#171C28" stroke-width="3" stroke-linecap="round" stroke-linejoin="round" stroke-miterlimit="10" cx="51.975" cy="131.521" rx="33.413" ry="33.075"/>
		<ellipse id="XMLID_1085_" fill="#0D3178" cx="51.975" cy="131.521" rx="26.325" ry="25.988"/>
		<g>
			<path fill="#FFFFFF" d="M38.679,119.638h2.814v10.513h0.097c0.582-0.841,1.164-1.617,1.714-2.329l6.664-8.184h3.494l-7.893,9.251
				l8.508,12.552h-3.332l-7.181-10.707l-2.07,2.394v8.313h-2.814V119.638z"/>
			<path fill="#FFFFFF" d="M55.728,138.529c0.841,0.55,2.329,1.132,3.752,1.132c2.07,0,3.041-1.035,3.041-2.329
				c0-1.358-0.809-2.103-2.912-2.879c-2.814-1.003-4.141-2.556-4.141-4.432c0-2.523,2.038-4.594,5.402-4.594
				c1.585,0,2.976,0.453,3.85,0.971l-0.712,2.07c-0.614-0.389-1.747-0.906-3.202-0.906c-1.683,0-2.621,0.971-2.621,2.136
				c0,1.294,0.938,1.876,2.976,2.652c2.717,1.035,4.108,2.394,4.108,4.723c0,2.75-2.135,4.69-5.855,4.69
				c-1.714,0-3.3-0.42-4.399-1.067L55.728,138.529z"/>
		</g>
	</g>
	
		<rect id="XMLID_304_" x="186.3" y="102.834" fill="#FFFFFF" stroke="#171C28" stroke-width="3" stroke-linecap="round" stroke-linejoin="round" stroke-miterlimit="10" width="11.138" height="36.787"/>
	
		<polyline id="XMLID_280_" fill="#FFFFFF" stroke="#171C28" stroke-width="3" stroke-linecap="round" stroke-linejoin="round" stroke-miterlimit="10" points="
		190.013,151.097 190.013,73.134 66.825,73.134 66.825,173.034 190.013,173.034 190.013,164.597 	"/>
	
		<path id="XMLID_300_" fill="#FFFFFF" stroke="#171C28" stroke-width="3" stroke-linecap="round" stroke-linejoin="round" stroke-miterlimit="10" d="
		M190.013,87.984H83.362c-8.1,0-16.537-6.075-16.537-14.175v-0.337c0-8.1,8.1-14.85,16.537-14.85h106.65V87.984L190.013,87.984z"/>
	
		<path id="XMLID_1115_" fill="#FFFFFF" stroke="#171C28" stroke-width="3" stroke-linecap="round" stroke-linejoin="round" stroke-miterlimit="10" d="
		M197.438,139.621h-43.2c-7.425,0-12.487-4.725-12.487-11.813v0.338c0-6.75,5.063-10.8,12.487-10.8h43.2V139.621z"/>
	
		<line id="XMLID_278_" fill="none" stroke="#171C28" stroke-width="3" stroke-linecap="round" stroke-linejoin="round" stroke-miterlimit="10" stroke-dasharray="0,5" x1="76.95" y1="102.834" x2="181.237" y2="102.834"/>
	
		<line id="XMLID_1_" fill="none" stroke="#171C28" stroke-width="3" stroke-linecap="round" stroke-linejoin="round" stroke-miterlimit="10" stroke-dasharray="0,5" x1="76.95" y1="161.455" x2="181.237" y2="161.455"/>
	<ellipse id="XMLID_276_" fill="#171C28" cx="152.888" cy="128.484" rx="4.725" ry="4.387"/>
	
		<polyline id="XMLID_275_" fill="#0D3178" stroke="#171C28" stroke-width="3" stroke-linecap="round" stroke-linejoin="round" stroke-miterlimit="10" points="
		108,64.021 108,50.859 182.588,50.859 182.588,64.021 	"/>
	
		<polyline id="XMLID_279_" fill="#0D3178" stroke="#171C28" stroke-width="3" stroke-linecap="round" stroke-linejoin="round" stroke-miterlimit="10" points="
		81.675,78.534 81.675,69.421 178.875,69.421 178.875,78.534 	"/>
</g>
</svg>
