<?xml version="1.0" encoding="utf-8"?>
<!-- Generator: Adobe Illustrator 16.0.0, SVG Export Plug-In . SVG Version: 6.00 Build 0)  -->
<!DOCTYPE svg PUBLIC "-//W3C//DTD SVG 1.1//EN" "http://www.w3.org/Graphics/SVG/1.1/DTD/svg11.dtd">
<svg version="1.1" id="Layer_1" xmlns="http://www.w3.org/2000/svg" xmlns:xlink="http://www.w3.org/1999/xlink" x="0px" y="0px"
	 width="216px" height="216px" viewBox="0 0 216 216" enable-background="new 0 0 216 216" xml:space="preserve">
<g id="Layer_1_1_">
	<path fill="#0D3178" d="M61.763,158.625c1.012,1.013,2.7,1.013,4.387,1.013h1.013h139.725h0.675c1.688,0,0.675,0,1.688-1.013
		c0.338-0.338-0.338-1.013-0.338-2.362v-87.75c0-2.7,1.351-4.388-2.024-4.388h-74.925c-0.338,0-0.338,0.337-0.676,0.337h-0.337
		h-0.338l0,0L105.3,41.85c-1.012-1.013-2.362-1.35-3.712-1.35H66.15c-0.337,0-0.675,0.337-1.012,0.337L64.8,41.85l-17.212,8.775
		H23.962v-8.1c0-0.675,0-1.688-0.337-2.025c-1.013-1.013-2.362-1.35-4.05-1.35H7.087c-3.038,0-5.4,2.7-5.4,5.738
		c0,3.037,2.7,5.737,5.737,5.737H13.5v50.625H7.425c-3.037,0-5.4,2.025-5.4,5.063c0,3.037,2.363,5.063,5.4,5.063h11.813
		c1.688,0,4.388-2.025,4.388-5.737v-4.388h7.087c0.675,0,1.013,1.013,1.688,1.688c0.337,0.337,1.013,1.35,2.363,2.362
		c7.087,4.05,17.887,8.775,25.313,8.775l0.337,0.337v42.525C60.75,157.612,61.425,158.287,61.763,158.625z M199.125,148.5H70.875
		V90.112l6.75,4.725v45.225c0,2.025,1.013,1.688,1.35,1.688h120.15V148.5z M199.125,74.25v57.375H87.75V106.65l2.7,1.688
		c1.012,1.012,2.7,1.35,4.05,1.688c8.775,1.012,15.525-1.351,19.237-7.425c4.05-6.413,1.013-13.5,0.675-14.513l-0.675-1.35
		c-0.337-1.012-0.675-2.362-1.013-2.362l-7.762-10.125H199.125z M59.737,103.275c-11.475,0-25.65-9.788-28.35-11.813
		c0,0-1.688-2.025-3.038-2.7c-1.013-0.675-3.375-0.675-4.05-0.338h-1.012V60.75h25.65L51.3,59.4l15.863-8.775h32.4l16.875,13.5H94.5
		l-5.063-3.038c-1.35-1.35-2.7-1.35-4.388-1.012c-1.35,0.337-2.7,1.012-3.712,2.025c-1.35,1.35-2.025,3.038-2.025,4.725
		c0,1.35,0.337,2.7,1.35,3.375l5.737,6.412l16.875,16.875c0.337,1.013,0.675,2.363,0,3.375c-1.012,1.688-2.362,3.375-6.413,2.363
		h-0.337l-18.9-19.575c-1.013-1.012-2.7-1.688-4.388-1.688c0,0-16.875,1.35-30.712-12.825c-1.012-1.013-2.362-1.688-3.712-1.688
		c-1.688,0-3.038,0.675-4.05,1.688c-1.013,1.012-1.688,2.362-2.025,3.712c-0.337,1.012,0,2.7,1.013,4.05
		c7.425,7.763,14.513,13.163,26.325,15.188h0.337v14.85C60.75,103.275,60.413,103.275,59.737,103.275z"/>
</g>
<g id="Layer_2" display="none">
</g>
</svg>
