<?xml version="1.0" encoding="utf-8"?>
<!-- Generator: Adobe Illustrator 16.0.0, SVG Export Plug-In . SVG Version: 6.00 Build 0)  -->
<!DOCTYPE svg PUBLIC "-//W3C//DTD SVG 1.1//EN" "http://www.w3.org/Graphics/SVG/1.1/DTD/svg11.dtd">
<svg version="1.1" id="Layer_1" xmlns="http://www.w3.org/2000/svg" xmlns:xlink="http://www.w3.org/1999/xlink" x="0px" y="0px"
	 width="216px" height="216px" viewBox="0 0 216 216" enable-background="new 0 0 216 216" xml:space="preserve">
<g id="Layer_1_3_">
	<g>
		<g>
			<g>
				<g>
					
						<polyline fill="#FFFFFF" stroke="#4C5C68" stroke-width="3" stroke-linecap="round" stroke-linejoin="round" stroke-miterlimit="10" points="
						150.525,140.737 137.025,140.737 137.025,59.4 164.362,59.4 202.162,100.575 201.825,141.075 182.588,140.737 					"/>
					
						<path fill="#FFFFFF" stroke="#171C28" stroke-width="3" stroke-linecap="round" stroke-linejoin="round" stroke-miterlimit="10" d="
						M142.763,137.362h8.774c2.025,0,4.051,1.688,4.051,4.05c0,2.025-1.688,4.051-4.051,4.051h-16.199l0.337-88.763h32.063
						l38.138,44.212v44.212l0,0h-22.612c-2.025,0-4.05-1.688-4.05-4.05c0-2.025,1.688-4.05,4.05-4.05"/>
				</g>
				<g>
					
						<path fill="#FFFFFF" stroke="#171C28" stroke-width="3" stroke-linecap="round" stroke-linejoin="round" stroke-miterlimit="10" d="
						M151.2,145.125H98.888c-2.363,0-4.388-1.688-4.388-4.05c0-2.025,1.688-4.05,4.388-4.05H151.2c2.362,0,4.388,1.688,4.388,4.05
						C155.25,143.438,153.563,145.125,151.2,145.125z"/>
				</g>
				<g>
					
						<path fill="#FFFFFF" stroke="#171C28" stroke-width="3" stroke-linecap="round" stroke-linejoin="round" stroke-miterlimit="10" d="
						M62.438,145.125h-33.75c-2.025,0-4.05-1.688-4.05-4.05c0-2.025,1.688-4.05,4.05-4.05h33.75c2.025,0,4.05,1.688,4.05,4.05
						C66.15,143.438,64.462,145.125,62.438,145.125z"/>
				</g>
			</g>
			<g>
				
					<path fill="#FFFFFF" stroke="#171C28" stroke-width="3" stroke-linecap="round" stroke-linejoin="round" stroke-miterlimit="10" d="
					M108.675,127.575H36.788c-15.863,0-28.35-12.487-28.35-28.35v-18.9c0-15.863,12.487-28.35,28.35-28.35H108
					c15.862,0,28.35,12.487,28.35,28.35v18.9C137.025,115.088,124.537,127.575,108.675,127.575z"/>
			</g>
			
				<rect x="190.688" y="119.813" fill="#FFFFFF" stroke="#171C28" stroke-width="3" stroke-linecap="round" stroke-linejoin="round" stroke-miterlimit="10" width="15.525" height="6.412"/>
		</g>
		<g>
			
				<path fill="#FFFFFF" stroke="#171C28" stroke-width="3" stroke-linecap="round" stroke-linejoin="round" stroke-miterlimit="10" d="
				M167.737,160.313c-11.138,0-20.25-9.112-20.25-20.25s9.112-20.25,20.25-20.25s20.25,9.112,20.25,20.25
				C187.313,151.537,178.875,160.313,167.737,160.313z"/>
		</g>
		<g>
			<path fill="#00984A" d="M167.737,149.85c-5.063,0-9.45-4.387-9.45-9.449s4.388-9.45,9.45-9.45s9.45,4.388,9.45,9.45
				S172.8,149.85,167.737,149.85z"/>
		</g>
		<g>
			
				<path fill="#FFFFFF" stroke="#171C28" stroke-width="3" stroke-linecap="round" stroke-linejoin="round" stroke-miterlimit="10" d="
				M79.313,160.313c-11.138,0-20.25-9.112-20.25-20.25s9.112-20.25,20.25-20.25s20.25,9.112,20.25,20.25
				C99.563,151.537,90.45,160.313,79.313,160.313z"/>
		</g>
		<g>
			<path fill="#00984A" d="M79.313,150.188c-5.4,0-9.788-4.388-9.788-9.787c0-5.4,4.388-9.788,9.788-9.788S89.1,135,89.1,140.4
				C89.438,145.8,85.05,150.188,79.313,150.188z"/>
		</g>
		
			<polygon fill="#FFFFFF" stroke="#171C28" stroke-width="3" stroke-linecap="round" stroke-linejoin="round" stroke-miterlimit="10" points="
			187.313,104.962 144.787,105.3 144.787,66.487 164.362,66.487 187.313,95.85 		"/>
	</g>
</g>
<circle id="XMLID_1563_" fill="#FFFFFF" stroke="#171C28" stroke-width="3" stroke-linecap="round" stroke-linejoin="round" stroke-miterlimit="10" cx="72.9" cy="89.775" r="23.625"/>
<ellipse id="XMLID_1147_" fill="#0D3178" cx="72.9" cy="89.775" rx="17.55" ry="17.212"/>
<polyline id="XMLID_1562_" fill="none" stroke="#FFFFFF" stroke-width="3" stroke-linecap="round" stroke-linejoin="round" stroke-miterlimit="10" points="
	72.563,77.288 72.563,91.125 79.65,98.212 "/>
<g id="XMLID_1560_">
	<circle fill="#FFFFFF" cx="72.563" cy="88.762" r="1.012"/>
	<path fill="#4C5C68" d="M72.563,87.75c-0.675,0-1.013,0.675-1.013,1.013c0,0.675,0.675,1.012,1.013,1.012
		c0.675,0,1.013-0.675,1.013-1.012C73.575,88.087,73.237,87.75,72.563,87.75L72.563,87.75z"/>
</g>
<circle id="XMLID_1513_" fill="#00984A" stroke="#FFFFFF" stroke-width="3" stroke-linecap="round" stroke-linejoin="round" stroke-miterlimit="10" cx="72.563" cy="90.787" r="4.05"/>
</svg>
