<?xml version="1.0" encoding="utf-8"?>
<!-- Generator: Adobe Illustrator 16.0.0, SVG Export Plug-In . SVG Version: 6.00 Build 0)  -->
<!DOCTYPE svg PUBLIC "-//W3C//DTD SVG 1.1//EN" "http://www.w3.org/Graphics/SVG/1.1/DTD/svg11.dtd">
<svg version="1.1" id="Layer_1" xmlns="http://www.w3.org/2000/svg" xmlns:xlink="http://www.w3.org/1999/xlink" x="0px" y="0px"
	 width="216px" height="216px" viewBox="0 0 216 216" enable-background="new 0 0 216 216" xml:space="preserve">
<g>
	
		<polygon fill="#FFFFFF" stroke="#171C28" stroke-width="3" stroke-linecap="round" stroke-linejoin="round" stroke-miterlimit="10" points="
		171.112,187.987 29.362,187.987 29.362,54.337 51.3,34.425 67.5,19.237 171.112,19.237 	"/>
	<g>
		<path fill="#4C5C68" d="M67.5,20.587c0-0.675-0.337-1.35-1.013-1.35l0,0c-0.337,0-0.337,0-0.675,0S64.8,19.575,64.8,19.575
			L31.725,52.65c-0.337,0.337-0.675,1.013-0.337,1.688c0.337,0.675,1.012,1.013,1.35,1.013h33.075c1.013,0,1.688-0.675,1.688-1.688
			V20.587z M64.125,51.975H36.45l0.675-0.675l27-27V51.975z"/>
		
			<line id="XMLID_1674_" fill="none" stroke="#171C28" stroke-width="3" stroke-linecap="round" stroke-linejoin="round" stroke-miterlimit="10" x1="116.775" y1="37.125" x2="82.013" y2="37.125"/>
		
			<line id="XMLID_1673_" fill="none" stroke="#171C28" stroke-width="3" stroke-linecap="round" stroke-linejoin="round" stroke-miterlimit="10" x1="155.588" y1="49.612" x2="129.6" y2="49.612"/>
		
			<line id="XMLID_1672_" fill="none" stroke="#171C28" stroke-width="3" stroke-linecap="round" stroke-linejoin="round" stroke-miterlimit="10" x1="123.188" y1="49.612" x2="82.013" y2="49.612"/>
		
			<line id="XMLID_1671_" fill="none" stroke="#171C28" stroke-width="3" stroke-linecap="round" stroke-linejoin="round" stroke-miterlimit="10" x1="154.237" y1="75.263" x2="50.288" y2="75.263"/>
		
			<line id="XMLID_1670_" fill="none" stroke="#171C28" stroke-width="3" stroke-linecap="round" stroke-linejoin="round" stroke-miterlimit="10" x1="154.237" y1="99.9" x2="50.288" y2="99.9"/>
		
			<line id="XMLID_1669_" fill="none" stroke="#171C28" stroke-width="3" stroke-linecap="round" stroke-linejoin="round" stroke-miterlimit="10" x1="156.263" y1="163.688" x2="87.075" y2="163.688"/>
		
			<line id="XMLID_1668_" fill="none" stroke="#171C28" stroke-width="3" stroke-linecap="round" stroke-linejoin="round" stroke-miterlimit="10" x1="123.862" y1="87.75" x2="97.875" y2="87.75"/>
		
			<line id="XMLID_1667_" fill="none" stroke="#171C28" stroke-width="3" stroke-linecap="round" stroke-linejoin="round" stroke-miterlimit="10" x1="156.6" y1="87.75" x2="130.275" y2="87.75"/>
		
			<line id="XMLID_1666_" fill="none" stroke="#171C28" stroke-width="3" stroke-linecap="round" stroke-linejoin="round" stroke-miterlimit="10" x1="91.462" y1="87.75" x2="50.288" y2="87.75"/>
		
			<line id="XMLID_1665_" fill="none" stroke="#171C28" stroke-width="3" stroke-linecap="round" stroke-linejoin="round" stroke-miterlimit="10" x1="123.862" y1="119.138" x2="97.875" y2="119.138"/>
		
			<line id="XMLID_1664_" fill="none" stroke="#171C28" stroke-width="3" stroke-linecap="round" stroke-linejoin="round" stroke-miterlimit="10" x1="156.6" y1="119.138" x2="130.275" y2="119.138"/>
		
			<line id="XMLID_1663_" fill="none" stroke="#171C28" stroke-width="3" stroke-linecap="round" stroke-linejoin="round" stroke-miterlimit="10" x1="104.625" y1="133.65" x2="86.737" y2="133.65"/>
		
			<line id="XMLID_1662_" fill="none" stroke="#171C28" stroke-width="3" stroke-linecap="round" stroke-linejoin="round" stroke-miterlimit="10" x1="137.362" y1="133.65" x2="111.037" y2="133.65"/>
		
			<line id="XMLID_1661_" fill="none" stroke="#171C28" stroke-width="3" stroke-linecap="round" stroke-linejoin="round" stroke-miterlimit="10" x1="104.625" y1="149.175" x2="86.737" y2="149.175"/>
		
			<line id="XMLID_1660_" fill="none" stroke="#171C28" stroke-width="3" stroke-linecap="round" stroke-linejoin="round" stroke-miterlimit="10" x1="137.362" y1="149.175" x2="111.037" y2="149.175"/>
		
			<line id="XMLID_1659_" fill="none" stroke="#171C28" stroke-width="3" stroke-linecap="round" stroke-linejoin="round" stroke-miterlimit="10" x1="91.462" y1="119.138" x2="86.737" y2="119.138"/>
		<g id="XMLID_1657_">
			<g>
				<path fill="#FFFFFF" d="M154.912,146.813c9.113,0,16.875,7.425,16.875,16.875c0,9.112-7.425,16.875-16.875,16.875
					c-9.112,0-16.875-7.425-16.875-16.875S145.8,146.813,154.912,146.813 M154.912,129.263c-18.899,0-34.087,15.188-34.087,34.087
					c0,18.9,15.188,34.088,34.087,34.088C173.813,197.775,189,182.25,189,163.35C189,144.45,173.813,129.263,154.912,129.263
					L154.912,129.263z"/>
			</g>
		</g>
		
			<circle id="XMLID_1655_" fill="#FFFFFF" stroke="#171C28" stroke-width="3" stroke-linecap="round" stroke-linejoin="round" stroke-miterlimit="10" cx="154.912" cy="163.35" r="32.4"/>
		<g>
			<g id="XMLID_1653_">
				<path id="XMLID_1654_" fill="#0D3178" d="M150.862,174.15c-0.337,0-0.675,0-1.013-0.338l-10.8-10.8
					c-0.675-0.675-0.675-1.351,0-1.688c0.675-0.675,1.351-0.675,1.688,0l11.138,10.8c0.675,0.675,0.675,1.35,0,1.688
					C151.537,174.15,151.2,174.15,150.862,174.15z"/>
			</g>
			<g id="XMLID_1651_">
				<path id="XMLID_1652_" fill="#0D3178" d="M150.862,174.15c-0.337,0-0.675,0-1.013-0.338c-0.675-0.675-0.675-1.35,0-1.688
					l18.9-18.9c0.675-0.675,1.35-0.675,1.688,0c0.675,0.676,0.675,1.351,0,1.688l-18.563,18.9
					C151.537,174.15,151.2,174.15,150.862,174.15z"/>
			</g>
		</g>
		
			<polygon id="XMLID_1645_" fill="#6DCFF6" stroke="#171C28" stroke-width="3" stroke-linecap="round" stroke-linejoin="round" stroke-miterlimit="10" points="
			29.7,53.663 66.15,53.325 66.15,19.913 		"/>
		<g>
			<path fill="#0D3178" d="M37.476,137.384h3.568v13.33h0.123c0.738-1.066,1.477-2.051,2.174-2.953l8.449-10.377h4.43l-10.008,11.73
				l10.787,15.914h-4.225l-9.105-13.576l-2.625,3.035v10.541h-3.568V137.384z"/>
			<path fill="#0D3178" d="M59.091,161.337c1.066,0.697,2.953,1.436,4.758,1.436c2.625,0,3.855-1.313,3.855-2.953
				c0-1.723-1.025-2.666-3.691-3.65c-3.568-1.271-5.25-3.24-5.25-5.619c0-3.199,2.584-5.824,6.85-5.824
				c2.01,0,3.773,0.574,4.881,1.23l-0.902,2.625c-0.779-0.492-2.215-1.148-4.061-1.148c-2.133,0-3.322,1.23-3.322,2.707
				c0,1.641,1.189,2.379,3.773,3.363c3.445,1.313,5.209,3.035,5.209,5.988c0,3.486-2.707,5.947-7.424,5.947
				c-2.174,0-4.184-0.533-5.578-1.354L59.091,161.337z"/>
		</g>
	</g>
</g>
</svg>
