<?xml version="1.0" encoding="utf-8"?>
<!-- Generator: Adobe Illustrator 16.0.0, SVG Export Plug-In . SVG Version: 6.00 Build 0)  -->
<!DOCTYPE svg PUBLIC "-//W3C//DTD SVG 1.1//EN" "http://www.w3.org/Graphics/SVG/1.1/DTD/svg11.dtd">
<svg version="1.1" id="Layer_1" xmlns="http://www.w3.org/2000/svg" xmlns:xlink="http://www.w3.org/1999/xlink" x="0px" y="0px"
	 width="216px" height="216px" viewBox="0 0 216 216" enable-background="new 0 0 216 216" xml:space="preserve">
<path id="XMLID_413_" fill="#FFFFFF" d="M156.6,183.6H62.775c-9.112,0-16.538-7.425-16.538-16.537v-44.888V101.25
	c0-20.587,16.875-37.462,37.463-37.462h33.412c21.938,0,39.825,17.887,39.825,39.825V183.6H156.6z"/>
<rect id="XMLID_410_" x="84.038" y="53.325" fill="#FFFFFF" stroke="#4C5C68" stroke-width="3" stroke-linecap="round" stroke-linejoin="round" stroke-miterlimit="10" width="31.05" height="10.125"/>
<path id="XMLID_409_" fill="#FFFFFF" stroke="#4C5C68" stroke-width="3" stroke-linecap="round" stroke-linejoin="round" stroke-miterlimit="10" d="
	M84.712,53.325l-7.087-17.55c-0.675-1.688,0-3.712,1.688-4.387c4.05-2.363,11.475-5.063,20.25,1.012c0,0,12.487-6.075,20.25-1.012
	c1.688,1.012,2.362,2.7,1.688,4.725l-7.088,17.55h-29.7V53.325z"/>
<path id="XMLID_408_" fill="none" stroke="#4C5C68" stroke-width="3" stroke-linecap="round" stroke-linejoin="round" stroke-miterlimit="10" d="
	M73.237,49.612c0,0,2.7,6.75,9.45,6.413"/>
<path id="XMLID_675_" fill="#FFFFFF" stroke="#4C5C68" stroke-width="3" stroke-linecap="round" stroke-linejoin="round" stroke-miterlimit="10" d="
	M114.075,183.6h-51.3c-9.112,0-16.538-7.425-16.538-16.537"/>
<path id="XMLID_672_" fill="#FFFFFF" stroke="#4C5C68" stroke-width="3" stroke-linecap="round" stroke-linejoin="round" stroke-miterlimit="10" d="
	M46.237,128.925V101.25c0-20.587,16.875-37.462,37.463-37.462h33.412c21.938,0,39.825,17.887,39.825,39.825V183.6h-25.65"/>
<path id="XMLID_407_" fill="none" stroke="#4C5C68" stroke-width="3" stroke-linecap="round" stroke-linejoin="round" stroke-miterlimit="10" d="
	M125.55,49.612c0,0-2.7,6.75-9.45,6.413"/>
<rect id="XMLID_270_" x="34.087" y="136.35" fill="#FFFFFF" stroke="#4C5C68" stroke-width="3" stroke-linecap="round" stroke-linejoin="round" stroke-miterlimit="10" width="32.738" height="14.851"/>
<rect id="XMLID_642_" x="51.975" y="138.375" fill="#00984A" width="13.5" height="11.475"/>
<rect id="XMLID_641_" x="34.087" y="151.2" fill="#FFFFFF" stroke="#4C5C68" stroke-width="3" stroke-linecap="round" stroke-linejoin="round" stroke-miterlimit="10" width="32.738" height="11.813"/>
<rect id="XMLID_640_" x="51.975" y="152.888" fill="#00984A" width="13.5" height="8.774"/>
<rect id="XMLID_269_" x="34.087" y="163.013" fill="#FFFFFF" stroke="#4C5C68" stroke-width="3" stroke-linecap="round" stroke-linejoin="round" stroke-miterlimit="10" width="32.738" height="11.813"/>
<rect id="XMLID_268_" x="51.975" y="165.037" fill="#00984A" width="13.5" height="8.775"/>
<rect id="XMLID_267_" x="34.087" y="175.162" fill="#FFFFFF" stroke="#4C5C68" stroke-width="3" stroke-linecap="round" stroke-linejoin="round" stroke-miterlimit="10" width="32.738" height="11.813"/>
<rect id="XMLID_266_" x="51.975" y="176.85" fill="#00984A" width="13.5" height="8.438"/>
<ellipse id="XMLID_265_" fill="#FFFFFF" stroke="#4C5C68" stroke-width="3" stroke-linecap="round" stroke-linejoin="round" stroke-miterlimit="10" cx="100.913" cy="109.688" rx="34.087" ry="33.75"/>
<rect id="XMLID_917_" x="149.85" y="108.337" fill="#FFFFFF" stroke="#4C5C68" stroke-width="3" stroke-linecap="round" stroke-linejoin="round" stroke-miterlimit="10" width="27.676" height="13.837"/>
<rect id="XMLID_264_" x="165.375" y="110.025" fill="#00984A" width="10.463" height="13.837"/>
<rect id="XMLID_919_" x="149.85" y="121.838" fill="#FFFFFF" stroke="#4C5C68" stroke-width="3" stroke-linecap="round" stroke-linejoin="round" stroke-miterlimit="10" width="27.676" height="13.837"/>
<rect id="XMLID_41_" x="165.375" y="123.525" fill="#00984A" width="10.463" height="13.837"/>
<rect id="XMLID_920_" x="149.85" y="135.675" fill="#FFFFFF" stroke="#4C5C68" stroke-width="3" stroke-linecap="round" stroke-linejoin="round" stroke-miterlimit="10" width="27.676" height="13.838"/>
<rect id="XMLID_40_" x="165.375" y="137.362" fill="#00984A" width="10.463" height="10.125"/>
<rect id="XMLID_921_" x="149.85" y="149.175" fill="#FFFFFF" stroke="#4C5C68" stroke-width="3" stroke-linecap="round" stroke-linejoin="round" stroke-miterlimit="10" width="27.676" height="13.838"/>
<rect id="XMLID_39_" x="165.375" y="150.862" fill="#00984A" width="10.463" height="10.125"/>
<rect id="XMLID_846_" x="149.85" y="159.638" fill="#FFFFFF" stroke="#4C5C68" stroke-width="3" stroke-linecap="round" stroke-linejoin="round" stroke-miterlimit="10" width="27.676" height="13.837"/>
<rect id="XMLID_634_" x="165.375" y="161.325" fill="#00984A" width="10.463" height="13.837"/>
<rect id="XMLID_847_" x="149.85" y="173.138" fill="#FFFFFF" stroke="#4C5C68" stroke-width="3" stroke-linecap="round" stroke-linejoin="round" stroke-miterlimit="10" width="27.676" height="13.837"/>
<rect id="XMLID_635_" x="165.375" y="174.825" fill="#00984A" width="10.463" height="10.125"/>
<rect id="XMLID_637_" x="122.175" y="159.638" fill="#FFFFFF" stroke="#4C5C68" stroke-width="3" stroke-linecap="round" stroke-linejoin="round" stroke-miterlimit="10" width="27.675" height="13.837"/>
<rect id="XMLID_636_" x="137.7" y="161.325" fill="#00984A" width="10.462" height="13.837"/>
<rect id="XMLID_38_" x="122.175" y="173.138" fill="#FFFFFF" stroke="#4C5C68" stroke-width="3" stroke-linecap="round" stroke-linejoin="round" stroke-miterlimit="10" width="27.675" height="13.837"/>
<rect id="XMLID_37_" x="137.7" y="174.825" fill="#00984A" width="10.462" height="10.125"/>
<ellipse id="XMLID_440_" fill="#0D3178" cx="100.913" cy="109.687" rx="26.662" ry="26.662"/>
<text transform="matrix(1 0 0 1 88.9541 117.8555)" fill="#FFFFFF" font-family="'MyriadPro-Regular'" font-size="27.2468">Ks</text>
</svg>
