<?xml version="1.0" encoding="utf-8"?>
<!-- Generator: Adobe Illustrator 16.0.0, SVG Export Plug-In . SVG Version: 6.00 Build 0)  -->
<!DOCTYPE svg PUBLIC "-//W3C//DTD SVG 1.1//EN" "http://www.w3.org/Graphics/SVG/1.1/DTD/svg11.dtd">
<svg version="1.1" id="Layer_1" xmlns="http://www.w3.org/2000/svg" xmlns:xlink="http://www.w3.org/1999/xlink" x="0px" y="0px"
	 width="216px" height="216px" viewBox="0 0 216 216" enable-background="new 0 0 216 216" xml:space="preserve">
<g id="XMLID_1860_">
	
		<ellipse id="XMLID_1868_" fill="#FFFFFF" stroke="#4C5C68" stroke-width="3" stroke-linecap="round" stroke-linejoin="round" stroke-miterlimit="10" cx="77.625" cy="74.925" rx="65.475" ry="64.8"/>
	<ellipse id="XMLID_1867_" fill="#00984A" cx="77.625" cy="74.925" rx="59.063" ry="58.725"/>
	<g>
		<path fill="none" stroke="#FFFFFF" stroke-width="3" stroke-linecap="round" stroke-linejoin="round" stroke-miterlimit="10" d="
			M52.313,54.337h51.3c3.713,0,6.413,3.375,5.737,6.75L104.962,81c-0.337,1.35-1.35,2.362-2.7,2.362H59.737"/>
		
			<circle fill="none" stroke="#FFFFFF" stroke-width="3" stroke-linecap="round" stroke-linejoin="round" stroke-miterlimit="10" cx="66.825" cy="103.612" r="5.737"/>
		
			<circle fill="none" stroke="#FFFFFF" stroke-width="3" stroke-linecap="round" stroke-linejoin="round" stroke-miterlimit="10" cx="98.888" cy="103.612" r="5.737"/>
		<path fill="none" stroke="#FFFFFF" stroke-width="3" stroke-linecap="round" stroke-linejoin="round" stroke-miterlimit="10" d="
			M43.538,42.525c5.737,0,5.737,3.038,8.775,11.475l8.775,34.763c0.337,1.35,1.013,3.037,2.363,3.037h41.175"/>
	</g>
</g>
<g id="XMLID_1852_">
	
		<ellipse id="XMLID_1859_" fill="#FFFFFF" stroke="#4C5C68" stroke-width="3" stroke-linecap="round" stroke-linejoin="round" stroke-miterlimit="10" cx="138.375" cy="139.725" rx="65.475" ry="64.8"/>
	<ellipse id="XMLID_1858_" fill="#0D3178" cx="138.375" cy="139.725" rx="59.063" ry="58.387"/>
	<g>
		<path fill="#FFFFFF" d="M116.932,122.662h4.491v16.776h0.155c0.929-1.342,1.858-2.581,2.735-3.717l10.634-13.06h5.575
			l-12.596,14.764l13.576,20.028h-5.316l-11.46-17.086l-3.304,3.819v13.267h-4.491V122.662z"/>
		<path fill="#FFFFFF" d="M144.137,152.809c1.343,0.877,3.717,1.807,5.988,1.807c3.304,0,4.853-1.652,4.853-3.717
			c0-2.168-1.291-3.355-4.646-4.595c-4.491-1.6-6.607-4.078-6.607-7.071c0-4.026,3.252-7.33,8.62-7.33
			c2.529,0,4.749,0.723,6.143,1.548l-1.136,3.304c-0.98-0.619-2.787-1.445-5.11-1.445c-2.684,0-4.181,1.549-4.181,3.407
			c0,2.064,1.497,2.994,4.749,4.233c4.336,1.651,6.556,3.819,6.556,7.536c0,4.388-3.407,7.485-9.344,7.485
			c-2.735,0-5.265-0.672-7.02-1.704L144.137,152.809z"/>
	</g>
</g>
</svg>
