<?xml version="1.0" encoding="utf-8"?>
<!-- Generator: Adobe Illustrator 16.0.0, SVG Export Plug-In . SVG Version: 6.00 Build 0)  -->
<!DOCTYPE svg PUBLIC "-//W3C//DTD SVG 1.1//EN" "http://www.w3.org/Graphics/SVG/1.1/DTD/svg11.dtd">
<svg version="1.1" id="Layer_1" xmlns="http://www.w3.org/2000/svg" xmlns:xlink="http://www.w3.org/1999/xlink" x="0px" y="0px"
	 width="216px" height="216px" viewBox="0 0 216 216" enable-background="new 0 0 216 216" xml:space="preserve">
<g>
	<g>
		
			<rect x="46.913" y="141.412" fill="#FFFFFF" stroke="#171C28" stroke-width="5" stroke-linecap="round" stroke-linejoin="round" stroke-miterlimit="10" width="119.137" height="55.352"/>
		
			<rect x="41.513" y="101.925" fill="#FFFFFF" stroke="#171C28" stroke-width="5" stroke-linecap="round" stroke-linejoin="round" stroke-miterlimit="10" width="130.274" height="42.525"/>
		
			<rect x="67.163" y="137.7" fill="#0071BB" stroke="#171C28" stroke-width="5" stroke-linecap="round" stroke-linejoin="round" stroke-miterlimit="10" width="10.462" height="13.5"/>
		
			<rect x="138.037" y="137.7" fill="#0071BB" stroke="#171C28" stroke-width="5" stroke-linecap="round" stroke-linejoin="round" stroke-miterlimit="10" width="10.463" height="13.5"/>
	</g>
	
		<path fill="#FFFFFF" stroke="#171C28" stroke-width="5" stroke-linecap="round" stroke-linejoin="round" stroke-miterlimit="10" d="
		M130.95,100.913H84.375V93.15c0-5.4,4.388-10.125,10.125-10.125h26.662c5.4,0,10.125,4.388,10.125,10.125v7.763H130.95z"/>
	<g id="XMLID_363_">
		
			<path id="XMLID_514_" fill="#FFFFFF" stroke="#171C28" stroke-width="5" stroke-linecap="round" stroke-linejoin="round" stroke-miterlimit="10" d="
			M78.975,69.862v14.175c6.75,6.75,13.837-0.337,13.837-0.337l-2.362-7.088l39.825,1.688c7.086,10.125,13.162,0.675,13.162,0.675
			v-28.35l-20.25-18.9V19.913H85.725v11.475c0,2.7-6.75,13.162-6.75,13.162v13.163"/>
		
			<path id="XMLID_513_" fill="#FFFFFF" stroke="#171C28" stroke-width="5" stroke-linecap="round" stroke-linejoin="round" stroke-miterlimit="10" d="
			M85.725,19.913v11.475c0,2.7-6.75,13.162-6.75,13.162v13.163"/>
		
			<path id="XMLID_390_" fill="#FFFFFF" stroke="#171C28" stroke-width="5" stroke-linecap="round" stroke-linejoin="round" stroke-miterlimit="10" d="
			M78.975,69.862v14.175c6.75,6.75,13.837-0.337,13.837-0.337l-2.362-7.088l39.825,1.688c7.086,10.125,13.162,0.675,13.162,0.675
			v-28.35l-20.25-18.9V19.913"/>
		<polygon id="XMLID_389_" fill="#FFFFFF" points="126.225,83.025 118.8,90.45 112.05,92.138 104.962,89.438 100.237,90.788 
			94.163,89.775 94.837,86.4 84.375,75.6 97.875,67.5 122.514,67.5 127.575,70.875 		"/>
		
			<path id="XMLID_388_" fill="#FFFFFF" stroke="#171C28" stroke-width="5" stroke-linecap="round" stroke-linejoin="round" stroke-miterlimit="10" d="
			M129.938,57.375v29.362c0,0,1.688,6.413-5.063,6.413s-5.063-5.737-5.063-5.737v-3.038"/>
		
			<path id="XMLID_387_" fill="#FFFFFF" stroke="#171C28" stroke-width="5" stroke-linecap="round" stroke-linejoin="round" stroke-miterlimit="10" d="
			M118.8,91.125c0,0-5.737,5.737-12.825-0.675v-6.075"/>
		
			<path id="XMLID_386_" fill="#FFFFFF" stroke="#171C28" stroke-width="5" stroke-linecap="round" stroke-linejoin="round" stroke-miterlimit="10" d="
			M103.612,87.75c0,0-4.387,7.087-11.137,0.337V81"/>
	</g>
	
		<rect id="XMLID_1241_" x="159.639" y="118.8" fill="#FFFFFF" stroke="#171C28" stroke-width="5" stroke-linecap="round" stroke-linejoin="round" stroke-miterlimit="10" width="28.012" height="13.839"/>
	<rect id="XMLID_1240_" x="175.5" y="120.486" fill="#0D3178" width="10.463" height="13.839"/>
	
		<rect id="XMLID_1239_" x="159.639" y="132.639" fill="#FFFFFF" stroke="#171C28" stroke-width="5" stroke-linecap="round" stroke-linejoin="round" stroke-miterlimit="10" width="28.012" height="13.836"/>
	<rect id="XMLID_1238_" x="175.5" y="134.662" fill="#0D3178" width="10.463" height="13.838"/>
	
		<rect id="XMLID_1237_" x="159.639" y="146.813" fill="#FFFFFF" stroke="#171C28" stroke-width="5" stroke-linecap="round" stroke-linejoin="round" stroke-miterlimit="10" width="28.012" height="13.838"/>
	<rect id="XMLID_1236_" x="175.5" y="148.5" fill="#0D3178" width="10.463" height="10.463"/>
	
		<rect id="XMLID_1235_" x="159.639" y="160.65" fill="#FFFFFF" stroke="#171C28" stroke-width="5" stroke-linecap="round" stroke-linejoin="round" stroke-miterlimit="10" width="28.012" height="13.836"/>
	<rect id="XMLID_1234_" x="175.5" y="162.338" fill="#0D3178" width="10.463" height="10.462"/>
	
		<rect id="XMLID_1233_" x="159.639" y="171.111" fill="#FFFFFF" stroke="#171C28" stroke-width="5" stroke-linecap="round" stroke-linejoin="round" stroke-miterlimit="10" width="28.012" height="13.839"/>
	<rect id="XMLID_1232_" x="175.5" y="172.8" fill="#0D3178" width="10.463" height="13.839"/>
	
		<rect id="XMLID_1231_" x="159.639" y="184.95" fill="#FFFFFF" stroke="#171C28" stroke-width="5" stroke-linecap="round" stroke-linejoin="round" stroke-miterlimit="10" width="28.012" height="13.837"/>
	<rect id="XMLID_1227_" x="175.5" y="186.639" fill="#0D3178" width="10.463" height="10.461"/>
</g>
</svg>
