<?xml version="1.0" encoding="utf-8"?>
<!-- Generator: Adobe Illustrator 17.0.0, SVG Export Plug-In . SVG Version: 6.00 Build 0)  -->
<!DOCTYPE svg PUBLIC "-//W3C//DTD SVG 1.1//EN" "http://www.w3.org/Graphics/SVG/1.1/DTD/svg11.dtd">
<svg version="1.1" id="Layer_1" xmlns="http://www.w3.org/2000/svg" xmlns:xlink="http://www.w3.org/1999/xlink" x="0px" y="0px"
	 width="288px" height="216px" viewBox="0 0 288 216" enable-background="new 0 0 288 216" xml:space="preserve">
<rect id="XMLID_1263_" x="91.048" y="36.54" fill="#FFFFFF" stroke="#171C28" stroke-width="3" stroke-linecap="round" stroke-linejoin="round" stroke-miterlimit="10" width="97.875" height="126.562"/>
<g>
	<rect x="114.975" y="84.037" fill="#0D3178" width="62.438" height="21.263"/>
	<g>
		<g>
			<path fill="#00ADEF" d="M119.7,91.125l-2.363,3.037l0,0l3.713-0.338v1.688l-3.713-0.338l0,0l2.363,2.7l-1.35,1.012L117,95.512
				l0,0l-1.688,3.375l-1.35-1.012l2.363-3.037l0,0l-3.375,0.338v-1.688l3.375,0.338l0,0l-2.363-2.7l1.35-0.675l1.35,3.375l0,0
				l1.35-3.375L119.7,91.125z"/>
		</g>
		<g>
			<path fill="#00ADEF" d="M135.563,91.125l-2.363,3.037l0,0l3.713-0.338v1.688l-3.713-0.338l0,0l2.363,2.7l-1.688,0.675
				l-1.35-3.375l0,0l-1.688,3.375l-1.012-0.675l2.363-3.037l0,0l-3.375,0.338v-1.688l3.375,0.338l0,0l-2.363-2.7l1.35-0.675
				l1.35,3.375l0,0l1.35-3.375L135.563,91.125z"/>
		</g>
		<g>
			<path fill="#00ADEF" d="M151.425,91.125l-2.363,3.037l0,0l3.712-0.338v1.688l-3.712-0.338l0,0l2.363,2.7l-1.35,1.012l-1.35-3.375
				l0,0l-1.688,3.375l-1.687-1.012l2.363-3.037l0,0l-3.375,0.338v-1.688l3.375,0.338l0,0l-2.363-2.7l1.35-0.675l1.35,3.375l0,0
				l1.35-3.375L151.425,91.125z"/>
		</g>
		<g>
			<path fill="#00ADEF" d="M167.288,91.125l-2.363,3.037l0,0l3.712-0.338v1.688l-3.712-0.338l0,0l2.363,2.7l-1.35,1.012l-1.35-3.375
				l0,0l-1.688,3.375l-1.688-1.012l2.363-3.037l0,0l-3.375,0.338v-1.688l3.375,0.338l0,0l-2.363-2.7l1.35-0.675l1.35,3.375l0,0
				l1.35-3.375L167.288,91.125z"/>
		</g>
	</g>
	<g>
		<path fill="#FFFFFF" d="M119.363,91.125h-13.5v-3.713c0-3.375,2.7-6.412,6.412-6.412h0.675c3.375,0,6.412,2.7,6.412,6.412V91.125z
			"/>
		<rect x="102.825" y="91.8" fill="#FFFFFF" width="18.563" height="13.5"/>
		<g>
			<path fill="#171C28" d="M122.4,90.45h-2.025v-2.7c0-4.387-3.713-8.1-8.1-8.1s-7.762,3.375-8.1,7.425c0,0.338,0,0.675,0,0.675v2.7
				h-1.35h-0.338c-0.338,0-0.675,0-0.675,0l-0.338,0.338V105.3c0,0.675,0.675,1.012,1.35,1.012h19.912c0.338,0,0.338,0,0.338-0.338
				c0.338-0.338,0-0.338,0-0.675c0,0,0,0,0-0.338V91.125C123.075,91.125,123.412,90.45,122.4,90.45z M106.2,87.75
				c0-3.375,2.7-6.075,6.075-6.075s6.075,2.7,6.075,6.075v2.7h-12.488v-2.7H106.2z M105.525,87.75c0-0.338,0-0.338,0-0.675
				C105.525,87.412,105.525,87.412,105.525,87.75z M103.5,92.475h2.025h14.513h1.012v12.488H103.5V92.475z"/>
			<path fill="#171C28" d="M112.275,97.875c-0.675,0-1.012,0.338-1.012,1.012v3.375c0,0.675,0.338,1.012,1.012,1.012
				c0.675,0,1.012-0.338,1.012-1.012v-3.375C113.287,98.55,112.95,97.875,112.275,97.875z"/>
		</g>
	</g>
</g>
<line id="XMLID_1261_" fill="none" stroke="#171C28" stroke-width="3" stroke-linecap="round" stroke-linejoin="round" stroke-miterlimit="10" x1="127.8" y1="156.262" x2="145.35" y2="156.262"/>
<line id="XMLID_1260_" fill="none" stroke="#171C28" stroke-width="3" stroke-linecap="round" stroke-linejoin="round" stroke-miterlimit="10" x1="134.887" y1="43.875" x2="141.637" y2="43.875"/>
<path id="XMLID_1259_" fill="#FFFFFF" stroke="#171C28" stroke-width="3" stroke-linecap="round" stroke-linejoin="round" stroke-miterlimit="10" d="
	M73.125,169.762v-50.287l11.813-15.863h18.225c0,0,3.713,3.713-1.35,9.788c0,0-10.125,1.35-11.475,7.762
	c-1.013,6.413,7.088,8.1,8.775,12.825c1.688,4.725,4.725,22.95-4.05,36.45L73.125,169.762z"/>
<polyline id="XMLID_1258_" fill="#0D3178" stroke="#171C28" stroke-width="3" stroke-linecap="round" stroke-linejoin="round" stroke-miterlimit="10" points="
	69.75,195.413 69.75,170.1 118.012,170.1 118.012,195.413 "/>
<g id="XMLID_1250_">
	<path id="XMLID_1257_" fill="#FFFFFF" d="M218.25,143.775v-14.85c-7.087-6.75-14.175,0.337-14.175,0.337l2.363,7.425L164.925,135
		c-7.087-10.462-13.5-0.675-13.5-0.675v29.025l20.925,19.238v12.15l38.475-0.337v-11.813c0-2.7,7.087-13.837,7.087-13.837v-13.837"
		/>
	
		<path id="XMLID_1256_" fill="#FFFFFF" stroke="#171C28" stroke-width="3" stroke-linecap="round" stroke-linejoin="round" stroke-miterlimit="10" d="
		M211.163,195.075v-11.813c0-2.7,7.087-13.837,7.087-13.837v-13.837"/>
	
		<path id="XMLID_1255_" fill="#FFFFFF" stroke="#171C28" stroke-width="3" stroke-linecap="round" stroke-linejoin="round" stroke-miterlimit="10" d="
		M218.25,143.775v-14.85c-7.087-6.75-14.175,0.337-14.175,0.337l2.363,7.425L164.925,135c-7.087-10.462-13.5-0.675-13.5-0.675
		v29.025l20.925,19.238v12.15"/>
	<polygon id="XMLID_1254_" fill="#FFFFFF" points="169.313,129.938 177.075,122.175 184.163,120.488 191.25,123.525 
		196.313,121.837 202.387,123.188 201.712,126.563 212.512,137.7 198.675,146.137 173.025,146.137 167.962,142.762 	"/>
	
		<path id="XMLID_1253_" fill="#FFFFFF" stroke="#171C28" stroke-width="3" stroke-linecap="round" stroke-linejoin="round" stroke-miterlimit="10" d="
		M165.6,156.6V92.475c0,0-1.688-6.412,5.063-6.412c7.087,0,5.4,5.738,5.4,5.738v36.787"/>
	
		<path id="XMLID_1252_" fill="#FFFFFF" stroke="#171C28" stroke-width="3" stroke-linecap="round" stroke-linejoin="round" stroke-miterlimit="10" d="
		M177.075,121.837c0,0,6.075-6.075,13.163,0.675v6.075"/>
	
		<path id="XMLID_1251_" fill="#FFFFFF" stroke="#171C28" stroke-width="3" stroke-linecap="round" stroke-linejoin="round" stroke-miterlimit="10" d="
		M192.6,125.212c0,0,4.387-7.087,11.475-0.337v7.425"/>
</g>
</svg>
