<?xml version="1.0" encoding="utf-8"?>
<!-- Generator: Adobe Illustrator 17.0.0, SVG Export Plug-In . SVG Version: 6.00 Build 0)  -->
<!DOCTYPE svg PUBLIC "-//W3C//DTD SVG 1.1//EN" "http://www.w3.org/Graphics/SVG/1.1/DTD/svg11.dtd">
<svg version="1.1" id="Layer_1" xmlns="http://www.w3.org/2000/svg" xmlns:xlink="http://www.w3.org/1999/xlink" x="0px" y="0px"
	 width="288px" height="216px" viewBox="0 0 288 216" enable-background="new 0 0 288 216" xml:space="preserve">
<rect id="XMLID_1379_" x="91.048" y="36.54" fill="#FFFFFF" stroke="#171C28" stroke-width="3" stroke-linecap="round" stroke-linejoin="round" stroke-miterlimit="10" width="97.875" height="126.562"/>
<g>
	<rect x="114.975" y="84.037" fill="#00984A" width="62.438" height="21.263"/>
	<g>
		<g>
			<path fill="#FFFFFF" d="M119.7,91.125l-2.363,3.037l0,0l3.713-0.338v1.688l-3.713-0.338l0,0l2.363,2.7l-1.35,1.012L117,95.512
				l0,0l-1.688,3.375l-1.35-1.012l2.363-3.037l0,0l-3.375,0.338v-1.688l3.375,0.338l0,0l-2.363-2.7l1.35-0.675l1.35,3.375l0,0
				l1.35-3.375L119.7,91.125z"/>
		</g>
		<g>
			<path fill="#FFFFFF" d="M135.563,91.125l-2.363,3.037l0,0l3.713-0.338v1.688l-3.713-0.338l0,0l2.363,2.7l-1.688,0.675
				l-1.35-3.375l0,0l-1.688,3.375l-1.012-0.675l2.363-3.037l0,0l-3.375,0.338v-1.688l3.375,0.338l0,0l-2.363-2.7l1.35-0.675
				l1.35,3.375l0,0l1.35-3.375L135.563,91.125z"/>
		</g>
		<g>
			<path fill="#FFFFFF" d="M151.425,91.125l-2.363,3.037l0,0l3.712-0.338v1.688l-3.712-0.338l0,0l2.363,2.7l-1.35,1.012l-1.35-3.375
				l0,0l-1.688,3.375l-1.687-1.012l2.363-3.037l0,0l-3.375,0.338v-1.688l3.375,0.338l0,0l-2.363-2.7l1.35-0.675l1.35,3.375l0,0
				l1.35-3.375L151.425,91.125z"/>
		</g>
		<g>
			<path fill="#FFFFFF" d="M167.288,91.125l-2.363,3.037l0,0l3.712-0.338v1.688l-3.712-0.338l0,0l2.363,2.7l-1.35,1.012l-1.35-3.375
				l0,0l-1.688,3.375l-1.688-1.012l2.363-3.037l0,0l-3.375,0.338v-1.688l3.375,0.338l0,0l-2.363-2.7l1.35-0.675l1.35,3.375l0,0
				l1.35-3.375L167.288,91.125z"/>
		</g>
	</g>
	<g>
		<path fill="#FFFFFF" d="M119.363,91.125h-13.5v-3.713c0-3.375,2.7-6.412,6.412-6.412h0.675c3.375,0,6.412,2.7,6.412,6.412V91.125z
			"/>
		<rect x="102.825" y="91.8" fill="#FFFFFF" width="18.563" height="13.5"/>
		<g>
			<path fill="#171C28" d="M122.4,90.45h-2.025v-2.7c0-4.387-3.713-8.1-8.1-8.1s-7.762,3.375-8.1,7.425c0,0.338,0,0.675,0,0.675v2.7
				h-1.35h-0.338c-0.338,0-0.675,0-0.675,0l-0.338,0.338V105.3c0,0.675,0.675,1.012,1.35,1.012h19.912c0.338,0,0.338,0,0.338-0.338
				c0.338-0.338,0-0.338,0-0.675c0,0,0,0,0-0.338V91.125C123.075,91.125,123.412,90.45,122.4,90.45z M106.2,87.75
				c0-3.375,2.7-6.075,6.075-6.075s6.075,2.7,6.075,6.075v2.7h-12.488v-2.7H106.2z M105.525,87.75c0-0.338,0-0.338,0-0.675
				C105.525,87.412,105.525,87.412,105.525,87.75z M103.5,92.475h2.025h14.513h1.012v12.488H103.5V92.475z"/>
			<path fill="#171C28" d="M112.275,97.875c-0.675,0-1.012,0.338-1.012,1.012v3.375c0,0.675,0.338,1.012,1.012,1.012
				c0.675,0,1.012-0.338,1.012-1.012v-3.375C113.287,98.55,112.95,97.875,112.275,97.875z"/>
		</g>
	</g>
</g>
<line id="XMLID_1378_" fill="none" stroke="#171C28" stroke-width="3" stroke-linecap="round" stroke-linejoin="round" stroke-miterlimit="10" x1="127.8" y1="156.262" x2="145.35" y2="156.262"/>
<line id="XMLID_1375_" fill="none" stroke="#171C28" stroke-width="3" stroke-linecap="round" stroke-linejoin="round" stroke-miterlimit="10" x1="134.887" y1="43.875" x2="141.637" y2="43.875"/>
<path id="XMLID_1374_" fill="#FFFFFF" stroke="#171C28" stroke-width="3" stroke-linecap="round" stroke-linejoin="round" stroke-miterlimit="10" d="
	M73.125,169.762v-50.287l11.813-15.863h18.225c0,0,3.713,3.713-1.35,9.788c0,0-10.125,1.35-11.475,7.762
	c-1.013,6.413,7.088,8.1,8.775,12.825c1.688,4.725,4.725,22.95-4.05,36.45L73.125,169.762z"/>
<polyline id="XMLID_1373_" fill="#00984A" stroke="#171C28" stroke-width="3" stroke-linecap="round" stroke-linejoin="round" stroke-miterlimit="10" points="
	69.75,195.413 69.75,170.1 118.012,170.1 118.012,195.413 "/>
<g>
	<g>
		
			<path fill="#FFFFFF" stroke="#171C28" stroke-width="3" stroke-linecap="round" stroke-linejoin="round" stroke-miterlimit="10" d="
			M210.488,162.675c0,0.337,0,1.012-0.337,1.35c0.675,0.337,1.012,0.337,1.688,0.675c0.675,0.337,1.688,0.675,2.363,1.012
			c1.35,0.337,1.688,1.688,1.35,3.038s-1.012,2.7-1.35,4.05c-0.337,1.012-1.688,1.688-3.038,1.35s-2.363-1.012-3.712-1.35
			c-0.337,0-0.337,0-0.675,0.337c-1.012,1.688-2.7,3.375-4.05,4.725c-0.337,0.337-0.675,0.675-1.012,1.012
			c0.337,1.012,1.012,2.025,1.35,3.038c0,0.337,0.337,0.337,0.337,0.675c0.337,1.012,0,2.363-1.012,3.038
			c-1.35,0.675-2.7,1.35-4.05,1.688c-1.012,0.337-2.363,0-2.7-1.012c-0.675-1.35-1.012-2.363-1.688-3.712v-0.337
			c-0.675,0-1.35,0.337-2.025,0.337c-0.337,0-0.675,0-1.012,0l0,0c-1.012,0-2.363,0-3.375,0H187.2c-0.337,0-0.337,0-0.675,0
			c-0.337,0-0.675,0-1.012,0c-0.337,1.012-0.675,2.025-1.012,3.038c0,0.337-0.337,0.675-0.337,1.012
			c-0.337,1.012-1.688,1.688-3.038,1.35c-1.35-0.338-2.7-1.013-4.05-1.35c-1.012-0.337-1.688-1.688-1.35-3.038
			s1.012-2.363,1.35-3.712c0-0.337,0-0.337-0.337-0.337c-1.35-1.013-2.7-2.025-3.712-3.038c-0.675-0.675-1.012-1.35-1.688-2.025
			c0,0,0,0-0.337-0.338c-1.012,0.338-2.025,1.012-3.038,1.35c-0.337,0.337-1.012,0.337-1.35,0.337
			c-1.012,0.338-2.025-0.337-2.363-1.35c-0.675-1.35-1.35-2.7-1.688-4.05c-0.337-1.012,0-2.363,1.012-2.7
			c1.35-0.675,2.363-1.013,3.712-1.688c0.337,0,0.337-0.338,0.337-0.675c0-0.675-0.337-1.688-0.337-2.363v-0.337l0,0
			c0-0.675,0-1.688,0-2.363c0-1.012,0-1.688,0.337-2.7c-1.012-0.338-1.688-0.675-2.363-1.013c-0.337,0-1.012-0.337-1.35-0.337
			c-1.35-0.337-1.688-1.688-1.35-3.038c0.337-1.35,1.012-2.7,1.35-3.712c0.337-1.012,2.025-1.688,3.038-1.35
			c1.35,0.338,2.363,1.013,3.712,1.35H171c1.35-2.363,3.038-4.05,5.4-5.738l0,0c-0.337-1.012-1.012-2.025-1.35-3.037
			c0-0.338-0.337-0.675-0.337-0.675c-0.675-1.35,0-2.7,1.012-3.038c1.35-0.675,2.363-1.012,3.712-1.688
			c1.012-0.337,2.363,0,3.038,1.012c0.337,0.675,0.675,1.35,1.012,2.025c0.337,0.675,0.675,1.012,0.675,1.688
			c0,0.337,0.337,0.337,0.337,0.337c1.35,0,2.363-0.337,3.712-0.337c0.337,0,1.012,0,1.35,0h0.337c0.337,0,0.675,0,1.35,0
			c0.337,0,0.675,0,0.675,0c0.337,0,0.337,0,0.675-0.337c0.337-1.012,1.012-2.363,1.35-3.375c0.337-1.35,1.688-1.688,3.038-1.35
			s2.7,1.012,4.05,1.35c1.012,0.337,1.688,1.688,1.35,3.038s-1.012,2.363-1.35,3.712c0,0.337,0,0.337,0.337,0.337
			c1.35,1.012,2.7,2.025,3.712,3.038c0.675,0.675,1.35,1.35,1.688,2.025c0,0,0,0,0.337,0.337c0.675-0.337,1.35-0.675,2.025-1.012
			c0.675-0.337,1.35-0.675,2.025-1.012c1.012-0.337,2.025,0.337,2.363,1.35c0.675,1.35,1.35,2.7,1.688,4.05
			c0.337,1.012,0,2.363-1.012,2.7c-1.35,0.675-2.363,1.012-3.712,1.688c0,0-0.337,0-0.337,0.337c0,1.012,0.337,2.363,0.337,3.375
			c0,0,0,0,0,0.337C210.487,161.325,210.487,162,210.488,162.675C210.488,162,210.488,162.337,210.488,162.675z M188.887,145.125
			c-8.438,0-15.525,7.087-15.525,15.525s7.087,15.525,15.525,15.525c8.775,0,15.525-6.75,15.525-15.525
			C204.413,152.212,197.325,145.125,188.887,145.125z"/>
	</g>
	
		<path fill="#00984A" stroke="#171C28" stroke-width="3" stroke-linecap="round" stroke-linejoin="round" stroke-miterlimit="10" d="
		M210.488,162.675c0,0.337,0,1.012-0.337,1.35c0.675,0.337,1.012,0.337,1.688,0.675c0.675,0.337,1.688,0.675,2.363,1.012
		c1.35,0.337,1.688,1.688,1.35,3.038s-1.012,2.7-1.35,4.05c-0.337,1.012-1.688,1.688-3.038,1.35s-2.363-1.012-3.712-1.35
		c-0.337,0-0.337,0-0.675,0.337c-1.012,1.688-2.7,3.375-4.05,4.725c-0.337,0.337-0.675,0.675-1.012,1.012
		c0.337,1.012,1.012,2.025,1.35,3.038c0,0.337,0.337,0.337,0.337,0.675c0.337,1.012,0,2.363-1.012,3.038
		c-1.35,0.675-2.7,1.35-4.05,1.688c-1.012,0.337-2.363,0-2.7-1.012c-0.675-1.35-1.012-2.363-1.688-3.712v-0.337
		c-0.675,0-1.35,0.337-2.025,0.337c-0.337,0-0.675,0-1.012,0l0,0c-1.012,0-2.363,0-3.375,0H187.2c-0.337,0-0.337,0-0.675,0
		c-0.337,0-0.675,0-1.012,0c-0.337,1.012-0.675,2.025-1.012,3.038c0,0.337-0.337,0.675-0.337,1.012
		c-0.337,1.012-1.688,1.688-3.038,1.35c-1.35-0.338-2.7-1.013-4.05-1.35c-1.012-0.337-1.688-1.688-1.35-3.038
		s1.012-2.363,1.35-3.712c0-0.337,0-0.337-0.337-0.337c-1.35-1.013-2.7-2.025-3.712-3.038c-0.675-0.675-1.012-1.35-1.688-2.025
		c0,0,0,0-0.337-0.338c-1.012,0.338-2.025,1.012-3.038,1.35c-0.337,0.337-1.012,0.337-1.35,0.337
		c-1.012,0.338-2.025-0.337-2.363-1.35c-0.675-1.35-1.35-2.7-1.688-4.05c-0.337-1.012,0-2.363,1.012-2.7
		c1.35-0.675,2.363-1.013,3.712-1.688c0.337,0,0.337-0.338,0.337-0.675c0-0.675-0.337-1.688-0.337-2.363v-0.337l0,0
		c0-0.675,0-1.688,0-2.363c0-1.012,0-1.688,0.337-2.7c-1.012-0.338-1.688-0.675-2.363-1.013c-0.337,0-1.012-0.337-1.35-0.337
		c-1.35-0.337-1.688-1.688-1.35-3.038c0.337-1.35,1.012-2.7,1.35-3.712c0.337-1.012,2.025-1.688,3.038-1.35
		c1.35,0.338,2.363,1.013,3.712,1.35H171c1.35-2.363,3.038-4.05,5.4-5.738l0,0c-0.337-1.012-1.012-2.025-1.35-3.037
		c0-0.338-0.337-0.675-0.337-0.675c-0.675-1.35,0-2.7,1.012-3.038c1.35-0.675,2.363-1.012,3.712-1.688
		c1.012-0.337,2.363,0,3.038,1.012c0.337,0.675,0.675,1.35,1.012,2.025c0.337,0.675,0.675,1.012,0.675,1.688
		c0,0.337,0.337,0.337,0.337,0.337c1.35,0,2.363-0.337,3.712-0.337c0.337,0,1.012,0,1.35,0h0.337c0.337,0,0.675,0,1.35,0
		c0.337,0,0.675,0,0.675,0c0.337,0,0.337,0,0.675-0.337c0.337-1.012,1.012-2.363,1.35-3.375c0.337-1.35,1.688-1.688,3.038-1.35
		s2.7,1.012,4.05,1.35c1.012,0.337,1.688,1.688,1.35,3.038s-1.012,2.363-1.35,3.712c0,0.337,0,0.337,0.337,0.337
		c1.35,1.012,2.7,2.025,3.712,3.038c0.675,0.675,1.35,1.35,1.688,2.025c0,0,0,0,0.337,0.337c0.675-0.337,1.35-0.675,2.025-1.012
		c0.675-0.337,1.35-0.675,2.025-1.012c1.012-0.337,2.025,0.337,2.363,1.35c0.675,1.35,1.35,2.7,1.688,4.05
		c0.337,1.012,0,2.363-1.012,2.7c-1.35,0.675-2.363,1.012-3.712,1.688c0,0-0.337,0-0.337,0.337c0,1.012,0.337,2.363,0.337,3.375
		c0,0,0,0,0,0.337C210.487,161.325,210.487,162,210.488,162.675C210.488,162,210.488,162.337,210.488,162.675z"/>
	
		<path fill="#FFFFFF" stroke="#171C28" stroke-width="3" stroke-linecap="round" stroke-linejoin="round" stroke-miterlimit="10" d="
		M188.887,148.5c6.75,0,12.15,5.4,12.15,12.15s-5.4,12.15-12.15,12.15s-12.15-5.4-12.15-12.15S182.137,148.5,188.887,148.5z"/>
</g>
</svg>
