<?xml version="1.0" encoding="utf-8"?>
<!-- Generator: Adobe Illustrator 16.0.0, SVG Export Plug-In . SVG Version: 6.00 Build 0)  -->
<!DOCTYPE svg PUBLIC "-//W3C//DTD SVG 1.1//EN" "http://www.w3.org/Graphics/SVG/1.1/DTD/svg11.dtd">
<svg version="1.1" id="Layer_1" xmlns="http://www.w3.org/2000/svg" xmlns:xlink="http://www.w3.org/1999/xlink" x="0px" y="0px"
	 width="216px" height="216px" viewBox="0 0 216 216" enable-background="new 0 0 216 216" xml:space="preserve">
<g>
	<g id="XMLID_790_">
		
			<path id="XMLID_1118_" fill="#FFFFFF" stroke="#171C28" stroke-width="5" stroke-linecap="round" stroke-linejoin="round" stroke-miterlimit="10" d="
			M159.975,53.325h15.863c4.05,0,7.087,3.375,7.087,7.087v105.3c0,4.05-3.375,7.087-7.087,7.087H25.987
			c-4.05,0-7.087-3.375-7.087-7.087V60.75c0-4.05,3.375-7.087,7.087-7.087H147.15"/>
		<path id="XMLID_819_" fill="none" stroke="#4C5C68" stroke-width="5" stroke-miterlimit="10" d="M25.313,166.05
			c0,0.338,0.337,0.675,0.675,0.675h149.851c0.337,0,0.675-0.337,0.675-0.675"/>
	</g>
	<g id="XMLID_780_">
		<rect x="30.038" y="72.225" fill="#FFFFFF" width="141.413" height="95.512"/>
	</g>
	
		<path fill="#FFFFFF" stroke="#171C28" stroke-width="5" stroke-linecap="round" stroke-linejoin="round" stroke-miterlimit="10" d="
		M82.35,156.938H15.188v9.45c0,5.737,4.388,10.125,10.125,10.125h153.563c5.737,0,10.125-4.388,10.125-10.125v-9.45h-78.975
		l-5.063,9.787h-16.2L82.35,156.938z"/>
	<g>
		<g>
			<path fill="#FFFFFF" d="M195.412,162.675c0,0.338,0,1.013-0.337,1.351c0.675,0.337,1.013,0.337,1.688,0.675
				c0.675,0.337,1.688,0.675,2.362,1.013c1.35,0.337,1.688,1.688,1.35,3.037c-0.337,1.35-1.012,2.7-1.35,4.05
				c-0.338,1.013-1.688,1.688-3.037,1.351c-1.351-0.338-2.363-1.013-3.713-1.351c-0.338,0-0.338,0-0.675,0.338
				c-1.013,1.688-2.7,3.375-4.05,4.725c-0.338,0.338-0.676,0.675-1.013,1.013c0.337,1.013,1.013,2.025,1.35,3.037
				c0,0.338,0.338,0.338,0.338,0.676c0.337,1.012,0,2.362-1.013,3.037c-1.35,0.675-2.7,1.35-4.05,1.688
				c-1.013,0.338-2.362,0-2.7-1.013c-0.675-1.35-1.013-2.362-1.688-3.712v-0.338c-0.675,0-1.35,0.338-2.025,0.338
				c-0.337,0-0.675,0-1.012,0l0,0c-1.013,0-2.363,0-3.375,0h-0.338c-0.338,0-0.338,0-0.675,0c-0.338,0-0.675,0-1.013,0
				c-0.338,1.012-0.675,2.024-1.013,3.037c0,0.338-0.337,0.675-0.337,1.013c-0.338,1.013-1.688,1.688-3.038,1.35
				c-1.35-0.337-2.7-1.013-4.05-1.35c-1.013-0.338-1.688-1.688-1.35-3.038c0.337-1.35,1.012-2.362,1.35-3.712
				c0-0.338,0-0.338-0.338-0.338c-1.35-1.013-2.699-2.024-3.712-3.037c-0.675-0.675-1.013-1.351-1.688-2.025c0,0,0,0-0.338-0.337
				c-1.013,0.337-2.024,1.012-3.037,1.35c-0.338,0.338-1.013,0.338-1.351,0.338c-1.012,0.337-2.024-0.338-2.362-1.351
				c-0.675-1.35-1.35-2.7-1.688-4.05c-0.337-1.013,0-2.362,1.013-2.7c1.35-0.675,2.362-1.013,3.713-1.688
				c0.337,0,0.337-0.337,0.337-0.675c0-0.675-0.337-1.688-0.337-2.362v-0.338l0,0c0-0.675,0-1.688,0-2.362
				c0-1.013,0-1.688,0.337-2.7c-1.013-0.337-1.688-0.675-2.362-1.013c-0.338,0-1.013-0.337-1.35-0.337
				c-1.351-0.338-1.688-1.688-1.351-3.038c0.338-1.35,1.013-2.699,1.351-3.712c0.337-1.013,2.024-1.688,3.037-1.351
				c1.35,0.338,2.362,1.013,3.713,1.351h0.337c1.351-2.362,3.038-4.05,5.4-5.737l0,0c-0.338-1.013-1.013-2.025-1.351-3.038
				c0-0.337-0.337-0.675-0.337-0.675c-0.675-1.35,0-2.7,1.013-3.037c1.35-0.676,2.362-1.013,3.712-1.688
				c1.013-0.338,2.362,0,3.038,1.012c0.337,0.676,0.675,1.351,1.012,2.025c0.338,0.675,0.676,1.013,0.676,1.688
				c0,0.338,0.337,0.338,0.337,0.338c1.351,0,2.362-0.338,3.713-0.338c0.337,0,1.013,0,1.35,0h0.338c0.337,0,0.675,0,1.35,0
				c0.338,0,0.675,0,0.675,0c0.338,0,0.338,0,0.676-0.338c0.337-1.012,1.012-2.362,1.35-3.375c0.338-1.35,1.688-1.688,3.037-1.35
				c1.351,0.338,2.7,1.013,4.051,1.35c1.012,0.338,1.688,1.688,1.35,3.038c-0.338,1.35-1.013,2.362-1.35,3.712
				c0,0.338,0,0.338,0.337,0.338c1.351,1.013,2.7,2.025,3.713,3.037c0.675,0.676,1.35,1.351,1.688,2.025c0,0,0,0,0.337,0.338
				c0.676-0.338,1.351-0.676,2.025-1.013c0.675-0.338,1.35-0.675,2.025-1.013c1.012-0.338,2.024,0.338,2.362,1.35
				c0.675,1.351,1.35,2.7,1.688,4.051c0.337,1.012,0,2.362-1.013,2.699c-1.35,0.676-2.362,1.013-3.713,1.688
				c0,0-0.337,0-0.337,0.338c0,1.013,0.337,2.362,0.337,3.375c0,0,0,0,0,0.338C195.412,161.325,195.412,162,195.412,162.675
				C195.412,162,195.412,162.338,195.412,162.675z M173.813,145.125c-8.438,0-15.188,7.088-15.188,15.525
				s7.088,15.524,15.525,15.524c8.774,0,15.524-6.75,15.524-15.524C189.338,152.213,182.588,145.125,173.813,145.125z"/>
		</g>
		
			<path fill="#FFFFFF" stroke="#171C28" stroke-width="5" stroke-linecap="round" stroke-linejoin="round" stroke-miterlimit="10" d="
			M195.412,162.675c0,0.338,0,1.013-0.337,1.351c0.675,0.337,1.013,0.337,1.688,0.675c0.675,0.337,1.688,0.675,2.362,1.013
			c1.35,0.337,1.688,1.688,1.35,3.037c-0.337,1.35-1.012,2.7-1.35,4.05c-0.338,1.013-1.688,1.688-3.037,1.351
			c-1.351-0.338-2.363-1.013-3.713-1.351c-0.338,0-0.338,0-0.675,0.338c-1.013,1.688-2.7,3.375-4.05,4.725
			c-0.338,0.338-0.676,0.675-1.013,1.013c0.337,1.013,1.013,2.025,1.35,3.037c0,0.338,0.338,0.338,0.338,0.676
			c0.337,1.012,0,2.362-1.013,3.037c-1.35,0.675-2.7,1.35-4.05,1.688c-1.013,0.338-2.362,0-2.7-1.013
			c-0.675-1.35-1.013-2.362-1.688-3.712v-0.338c-0.675,0-1.35,0.338-2.025,0.338c-0.337,0-0.675,0-1.012,0l0,0
			c-1.013,0-2.363,0-3.375,0h-0.338c-0.338,0-0.338,0-0.675,0c-0.338,0-0.675,0-1.013,0c-0.338,1.012-0.675,2.024-1.013,3.037
			c0,0.338-0.337,0.675-0.337,1.013c-0.338,1.013-1.688,1.688-3.038,1.35c-1.35-0.337-2.7-1.013-4.05-1.35
			c-1.013-0.338-1.688-1.688-1.35-3.038c0.337-1.35,1.012-2.362,1.35-3.712c0-0.338,0-0.338-0.338-0.338
			c-1.35-1.013-2.699-2.024-3.712-3.037c-0.675-0.675-1.013-1.351-1.688-2.025c0,0,0,0-0.338-0.337
			c-1.013,0.337-2.024,1.012-3.037,1.35c-0.338,0.338-1.013,0.338-1.351,0.338c-1.012,0.337-2.024-0.338-2.362-1.351
			c-0.675-1.35-1.35-2.7-1.688-4.05c-0.337-1.013,0-2.362,1.013-2.7c1.35-0.675,2.362-1.013,3.713-1.688
			c0.337,0,0.337-0.337,0.337-0.675c0-0.675-0.337-1.688-0.337-2.362v-0.338l0,0c0-0.675,0-1.688,0-2.362c0-1.013,0-1.688,0.337-2.7
			c-1.013-0.337-1.688-0.675-2.362-1.013c-0.338,0-1.013-0.337-1.35-0.337c-1.351-0.338-1.688-1.688-1.351-3.038
			c0.338-1.35,1.013-2.699,1.351-3.712c0.337-1.013,2.024-1.688,3.037-1.351c1.35,0.338,2.362,1.013,3.713,1.351h0.337
			c1.351-2.362,3.038-4.05,5.4-5.737l0,0c-0.338-1.013-1.013-2.025-1.351-3.038c0-0.337-0.337-0.675-0.337-0.675
			c-0.675-1.35,0-2.7,1.013-3.037c1.35-0.676,2.362-1.013,3.712-1.688c1.013-0.338,2.362,0,3.038,1.012
			c0.337,0.676,0.675,1.351,1.012,2.025c0.338,0.675,0.676,1.013,0.676,1.688c0,0.338,0.337,0.338,0.337,0.338
			c1.351,0,2.362-0.338,3.713-0.338c0.337,0,1.013,0,1.35,0h0.338c0.337,0,0.675,0,1.35,0c0.338,0,0.675,0,0.675,0
			c0.338,0,0.338,0,0.676-0.338c0.337-1.012,1.012-2.362,1.35-3.375c0.338-1.35,1.688-1.688,3.037-1.35
			c1.351,0.338,2.7,1.013,4.051,1.35c1.012,0.338,1.688,1.688,1.35,3.038c-0.338,1.35-1.013,2.362-1.35,3.712
			c0,0.338,0,0.338,0.337,0.338c1.351,1.013,2.7,2.025,3.713,3.037c0.675,0.676,1.35,1.351,1.688,2.025c0,0,0,0,0.337,0.338
			c0.676-0.338,1.351-0.676,2.025-1.013c0.675-0.338,1.35-0.675,2.025-1.013c1.012-0.338,2.024,0.338,2.362,1.35
			c0.675,1.351,1.35,2.7,1.688,4.051c0.337,1.012,0,2.362-1.013,2.699c-1.35,0.676-2.362,1.013-3.713,1.688c0,0-0.337,0-0.337,0.338
			c0,1.013,0.337,2.362,0.337,3.375c0,0,0,0,0,0.338C195.412,161.325,195.412,162,195.412,162.675
			C195.412,162,195.412,162.338,195.412,162.675z"/>
		
			<path fill="#FFFFFF" stroke="#171C28" stroke-width="5" stroke-linecap="round" stroke-linejoin="round" stroke-miterlimit="10" d="
			M174.15,148.5c6.75,0,12.149,5.4,12.149,12.15S180.9,172.8,174.15,172.8S162,167.4,162,160.65S167.4,148.5,174.15,148.5z"/>
	</g>
	<rect x="58.05" y="95.175" fill="#0D3178" width="106.313" height="36.112"/>
	<g>
		<g>
			
				<path fill="#4C5C68" stroke="#4C5C68" stroke-width="5" stroke-linecap="round" stroke-linejoin="round" stroke-miterlimit="10" d="
				M66.15,107.325l-3.712,5.063l0,0l6.075-0.675v2.699l-6.075-0.675l0,0l4.05,4.726l-2.7,1.35l-2.363-5.737l0,0l-2.7,5.737
				l-2.363-1.35l3.713-5.063l0,0L54,114.412v-2.699l6.075,0.675l0,0l-3.713-5.063l2.363-1.35l2.362,5.738l0,0l2.363-5.738
				L66.15,107.325z"/>
		</g>
		<g>
			<path fill="#FFFFFF" d="M93.15,107.325l-3.712,5.063l0,0l6.075-0.675v2.699l-6.075-0.675l0,0l4.05,4.726l-2.7,1.35l-2.363-5.737
				l0,0l-2.7,5.737l-2.363-1.35l3.713-5.063l0,0L81,114.412v-2.699l6.075,0.675l0,0l-3.713-5.063l2.363-1.35l2.362,5.738l0,0
				l2.363-5.738L93.15,107.325z"/>
		</g>
		<g>
			<path fill="#FFFFFF" d="M120.15,107.325l-3.713,5.063l0,0l6.075-0.675v2.699l-6.075-0.675l0,0l4.05,4.726l-2.7,1.35l-2.362-5.737
				l0,0l-2.7,5.737l-2.362-1.35l3.713-5.063l0,0L108,114.412v-2.699l6.075,0.675l0,0l-3.713-5.063l2.362-1.35l2.363,5.738l0,0
				l2.362-5.738L120.15,107.325z"/>
		</g>
		<g>
			<path fill="#FFFFFF" d="M147.15,107.325l-3.713,5.063l0,0l6.075-0.675v2.699l-6.075-0.675l0,0l4.05,4.726l-2.7,1.35l-2.362-5.737
				l0,0l-2.7,5.737l-2.362-1.35l3.713-5.063l0,0L135,114.412v-2.699l6.075,0.675l0,0l-3.713-5.063l2.362-1.35l2.363,5.738l0,0
				l2.362-5.738L147.15,107.325z"/>
		</g>
	</g>
	<g>
		<path fill="#FFFFFF" d="M65.475,107.663h-22.95v-6.413c0-6.075,4.725-10.8,10.8-10.8h1.35c6.075,0,10.8,4.725,10.8,10.8V107.663z"
			/>
		<rect x="37.462" y="108.337" fill="#FFFFFF" width="31.725" height="22.95"/>
		<g>
			<path fill="#171C28" d="M70.875,106.313H67.5v-4.725c0-7.762-6.075-13.837-13.837-13.837c-7.087,0-13.163,5.4-13.837,12.487
				c0,0.338,0,1.013,0,1.35v4.725h-2.363h-0.337c-0.337,0-1.013,0-1.35,0.337c0,0-0.337,0.337-0.337,0.675V132.3
				c0,1.013,1.35,2.025,2.025,2.025h33.75c0.337,0,0.675,0,0.675-0.338c0.337-0.337,0.337-0.675,0.337-1.35V132.3v-24.637
				C71.888,107.325,72.225,106.313,70.875,106.313z M43.2,101.587c0-5.737,4.725-10.8,10.462-10.8c5.737,0,10.462,4.725,10.462,10.8
				v4.725H42.862v-4.725H43.2z M41.85,101.587c0-0.337,0-0.675,0-1.012C42.188,100.913,41.85,101.25,41.85,101.587z M38.813,109.688
				h3.375h24.638h2.025v21.263H38.813V109.688z"/>
			<path fill="#171C28" d="M53.663,119.138c-1.013,0-1.688,0.675-1.688,1.688v5.399c0,1.013,0.675,1.688,1.688,1.688
				c1.012,0,1.688-0.675,1.688-1.688v-5.399C55.35,119.813,54.675,119.138,53.663,119.138z"/>
		</g>
	</g>
</g>
</svg>
