<svg xmlns="http://www.w3.org/2000/svg" viewBox="0 0 600 414.4" enable-background="new 0 0 600 414.4"><g opacity=".5" fill="#2C3251"><path d="M502.4 408.9h-404.8c-34.8 0-63.2-28.3-63.2-63.2v-277c0-34.8 28.3-63.2 63.2-63.2h404.9c34.8 0 63.2 28.3 63.2 63.2v277c-.1 34.8-28.4 63.2-63.3 63.2zm-404.8-385.4c-24.9 0-45.2 20.3-45.2 45.2v277c0 24.9 20.3 45.2 45.2 45.2h404.9c24.9 0 45.2-20.3 45.2-45.2v-277c0-24.9-20.3-45.2-45.2-45.2h-404.9zm244.5 115.2c-4.5 0-9 2.9-12.4 8.8l-69.1 119.8c-6.4-11.1-29.7-51.4-29.7-51.4-3.4-5.9-7.9-8.8-12.4-8.8s-9 2.9-12.4 8.8c0 0-28.3 49.1-35.1 60.8l-10.4 18c-6.8 11.8-1.2 21.4 12.4 21.4h254.1c13.6 0 19.1-9.6 12.4-21.4l-85-147.3c-3.4-5.7-7.9-8.7-12.4-8.7z"/><ellipse cx="224" cy="132.7" rx="34.4" ry="34.4"/></g></svg>