<?xml version="1.0" encoding="utf-8"?>
<!-- Generator: Adobe Illustrator 23.0.1, SVG Export Plug-In . SVG Version: 6.00 Build 0)  -->
<svg version="1.1" id="Firefox_-_Large" xmlns="http://www.w3.org/2000/svg" xmlns:xlink="http://www.w3.org/1999/xlink" x="0px"
	 y="0px" viewBox="0 0 160 160" style="enable-background:new 0 0 160 160;" xml:space="preserve">
<style type="text/css">
	.st0{fill:url(#SVGID_1_);}
	.st1{fill:url(#_Path__1_);}
	.st2{fill:url(#SVGID_2_);}
	.st3{fill:url(#SVGID_3_);}
	.st4{fill:url(#SVGID_4_);}
	.st5{fill:url(#SVGID_5_);}
	.st6{fill:url(#SVGID_6_);}
	.st7{fill:url(#SVGID_7_);}
	.st8{fill:url(#SVGID_8_);}
	.st9{fill:url(#SVGID_9_);}
	.st10{fill:url(#SVGID_10_);}
	.st11{fill:url(#SVGID_11_);}
	.st12{fill:url(#SVGID_12_);}
	.st13{fill:url(#SVGID_13_);}
	.st14{fill:#E53029;}
	.st15{fill:#FDD900;}
	.st16{fill:#66B44B;}
	.st17{fill:#61AB48;}
	.st18{fill:#FFFFFF;}
	.st19{fill:url(#SVGID_14_);}
	.st20{fill:#F0CE00;}
	.st21{fill:#D92F27;}
</style>
<g>
	<path class="st14" d="M79.9,0.7c0,0,46.3-2.1,70.9,44.5c-13,0-74.8,0-74.8,0s-14.1-0.5-26.2,16.7c-3.5,7.2-7.2,14.6-3,29.2
		c-6-10.2-32-55.4-32-55.4S33.1,2.5,79.9,0.7z"/>
	<path class="st15" d="M148.4,118.9c0,0-21.4,41.2-74,39.2c6.5-11.2,37.4-64.8,37.4-64.8s7.5-12-1.4-31c-4.5-6.6-9.1-13.5-23.8-17.2
		c11.8-0.1,64,0,64,0S170.2,77.5,148.4,118.9z"/>
	<path class="st16" d="M11.8,119.3c0,0-25-39.1,3.1-83.7c6.5,11.2,37.4,64.8,37.4,64.8s6.7,12.5,27.5,14.3c8-0.6,16.2-1.1,26.8-12
		c-5.8,10.3-32,55.4-32,55.4S36.8,158.9,11.8,119.3z"/>
	<path class="st17" d="M74.4,158.5L85,114.5c0,0,11.6-0.9,21.3-11.5C100.2,113.6,74.4,158.5,74.4,158.5z"/>
	<path class="st18" d="M44.7,80.1C44.7,60.7,60.4,45,79.7,45c19.4,0,35.1,15.7,35.1,35.1c0,19.4-15.7,35.1-35.1,35.1
		C60.4,115.1,44.7,99.4,44.7,80.1z"/>
	<linearGradient id="SVGID_1_" gradientUnits="userSpaceOnUse" x1="79.7472" y1="51.2833" x2="79.7472" y2="107.5193">
		<stop  offset="0" style="stop-color:#86BBE5"/>
		<stop  offset="1" style="stop-color:#116CB3"/>
	</linearGradient>
	<path class="st0" d="M50.5,80.1c0-16.1,13.1-29.2,29.2-29.2c16.1,0,29.2,13.1,29.2,29.2c0,16.1-13.1,29.2-29.2,29.2
		C63.6,109.3,50.5,96.2,50.5,80.1z"/>
	<path class="st20" d="M150.7,45.1l-43.4,12.7c0,0-6.5-9.6-20.6-12.7C98.9,45,150.7,45.1,150.7,45.1z"/>
	<path class="st21" d="M46,89.5c-6.1-10.6-31.1-53.8-31.1-53.8l32.1,31.8c0,0-3.3,6.8-2,16.5L46,89.5z"/>
</g>
</svg>
