<?xml version="1.0" encoding="utf-8"?>
<!-- Generator: Adobe Illustrator 23.0.1, SVG Export Plug-In . SVG Version: 6.00 Build 0)  -->
<svg version="1.1" id="Firefox_-_Large" xmlns="http://www.w3.org/2000/svg" xmlns:xlink="http://www.w3.org/1999/xlink" x="0px"
	 y="0px" viewBox="0 0 160 160" style="enable-background:new 0 0 160 160;" xml:space="preserve">
<style type="text/css">
	.st0{fill:url(#SVGID_1_);}
	.st1{fill:url(#_Path__1_);}
	.st2{fill:url(#SVGID_2_);}
	.st3{fill:url(#SVGID_3_);}
	.st4{fill:url(#SVGID_4_);}
	.st5{fill:url(#SVGID_5_);}
	.st6{fill:url(#SVGID_6_);}
	.st7{fill:url(#SVGID_7_);}
	.st8{fill:url(#SVGID_8_);}
	.st9{fill:url(#SVGID_9_);}
	.st10{fill:url(#SVGID_10_);}
	.st11{fill:url(#SVGID_11_);}
	.st12{fill:url(#SVGID_12_);}
	.st13{fill:url(#SVGID_13_);}
	.st14{fill:#E53029;}
	.st15{fill:#FDD900;}
	.st16{fill:#66B44B;}
	.st17{fill:#61AB48;}
	.st18{fill:#FFFFFF;}
	.st19{fill:url(#SVGID_14_);}
	.st20{fill:#F0CE00;}
	.st21{fill:#D92F27;}
	.st22{fill:url(#SVGID_15_);}
	.st23{fill:url(#SVGID_16_);}
	.st24{fill:#F3F3F3;}
	.st25{fill:#E2E2E2;}
	.st26{fill:url(#SVGID_17_);fill-opacity:0.2;}
	.st27{fill-opacity:5.000000e-02;}
	.st28{fill:#CD151E;}
	.st29{fill:#FA5153;}
	.st30{fill:#ACACAC;}
	.st31{fill:#EEEEEE;}
	.st32{fill:#3277BC;}
</style>
<path class="st32" d="M54.6,64.9h54.8c0-19.5-8.5-32.7-31.7-32.7c-27.4,0-55.2,17.8-68.4,40C13.4,33.7,41.1,2.5,82.7,2.5
	c35.7,0,69.5,27.3,69.5,72.6v17.2H54.9c0,23.5,20.5,32.8,41.9,32.8c26.1,0,42.2-11.7,42.2-11.7v32.9c0,0-18.2,11.1-47.3,11.1
	c-37.8,0-64.5-27.1-64.5-60.7c0-26.4,16-47.5,38.1-56.2C54.6,52.2,54.6,64.9,54.6,64.9L54.6,64.9z"/>
</svg>
