<?xml version="1.0" encoding="utf-8"?>
<!-- Generator: Adobe Illustrator 23.0.1, SVG Export Plug-In . SVG Version: 6.00 Build 0)  -->
<svg version="1.1" id="Firefox_-_Large" xmlns="http://www.w3.org/2000/svg" xmlns:xlink="http://www.w3.org/1999/xlink" x="0px"
	 y="0px" viewBox="0 0 160 160" style="enable-background:new 0 0 160 160;" xml:space="preserve">
<style type="text/css">
	.st0{fill:url(#SVGID_1_);}
	.st1{fill:url(#_Path__1_);}
	.st2{fill:url(#SVGID_2_);}
	.st3{fill:url(#SVGID_3_);}
	.st4{fill:url(#SVGID_4_);}
	.st5{fill:url(#SVGID_5_);}
	.st6{fill:url(#SVGID_6_);}
	.st7{fill:url(#SVGID_7_);}
	.st8{fill:url(#SVGID_8_);}
	.st9{fill:url(#SVGID_9_);}
	.st10{fill:url(#SVGID_10_);}
	.st11{fill:url(#SVGID_11_);}
	.st12{fill:url(#SVGID_12_);}
	.st13{fill:url(#SVGID_13_);}
</style>
<g>
	
		<radialGradient id="SVGID_1_" cx="-15232.252" cy="8729.9824" r="73.313" fx="-15236.9277" fy="8729.9824" gradientTransform="matrix(0.762 3.400000e-02 5.000000e-02 -1.12 11320.6406 10335.5088)" gradientUnits="userSpaceOnUse">
		<stop  offset="4.500000e-02" style="stop-color:#FFEA00"/>
		<stop  offset="0.12" style="stop-color:#FFDE00"/>
		<stop  offset="0.254" style="stop-color:#FFBF00"/>
		<stop  offset="0.429" style="stop-color:#FF8E00"/>
		<stop  offset="0.769" style="stop-color:#FF272D"/>
		<stop  offset="0.872" style="stop-color:#E0255A"/>
		<stop  offset="0.953" style="stop-color:#CC2477"/>
		<stop  offset="1" style="stop-color:#C42482"/>
	</radialGradient>
	<path class="st0" d="M127.7,14.9c-3.9,4.5-5.7,14.7-1.8,25.1c3.9,10.3,10,8.1,13.8,18.6c5,13.9,2.7,32.6,2.7,32.6s6,17.3,10.2-1.1
		C161.8,55.6,127.7,23.4,127.7,14.9z"/>
	
		<radialGradient id="_Path__1_" cx="-8170.9575" cy="8301.5703" r="128.6551" gradientTransform="matrix(1.225 0 0 -1.225 10119.7383 10200.8271)" gradientUnits="userSpaceOnUse">
		<stop  offset="0" style="stop-color:#00CCDA"/>
		<stop  offset="0.22" style="stop-color:#0083FF"/>
		<stop  offset="0.261" style="stop-color:#007AF9"/>
		<stop  offset="0.33" style="stop-color:#0060E8"/>
		<stop  offset="0.333" style="stop-color:#005FE7"/>
		<stop  offset="0.438" style="stop-color:#2639AD"/>
		<stop  offset="0.522" style="stop-color:#401E84"/>
		<stop  offset="0.566" style="stop-color:#4A1475"/>
	</radialGradient>
	<path id="_Path_" class="st1" d="M80.2,158.5c39.9,0,72.2-32.5,72.2-72.5s-32.3-72.5-72.1-72.5S8.1,45.9,8.1,86
		C8,126,40.4,158.5,80.2,158.5z"/>
	
		<linearGradient id="SVGID_2_" gradientUnits="userSpaceOnUse" x1="90.401" y1="43.4319" x2="59.2728" y2="145.2575" gradientTransform="matrix(1 0 0 -1 0 162)">
		<stop  offset="0" style="stop-color:#000F43;stop-opacity:0.4"/>
		<stop  offset="0.485" style="stop-color:#001962;stop-opacity:0.173"/>
		<stop  offset="1" style="stop-color:#002079;stop-opacity:0"/>
	</linearGradient>
	<path class="st2" d="M134.3,130.7c-1.6,1.1-3.2,2.1-4.9,3c2.3-3.3,4.3-6.7,6.2-10.2c1.5-1.7,2.9-3.4,4.1-5.1c0.6-0.9,1.2-2,1.9-3.2
		c4.1-7.3,8.5-19.1,8.6-31.3v0c0-0.3,0-0.6,0-0.9c0-3-0.3-6.1-0.9-9.1c0,0.2,0.1,0.5,0.1,0.7c0-0.2-0.1-0.4-0.1-0.5
		c0.1,0.3,0.1,0.7,0.2,1c0.8,7,0.2,13.9-2.7,18.9c0,0.1-0.1,0.1-0.1,0.2c1.5-7.7,2-16.2,0.3-24.7c0,0-0.7-4.1-5.8-16.7
		c-2.9-7.2-8.1-13.1-12.7-17.4c-4-5-7.7-8.3-9.7-10.4c-4.2-4.4-6-7.7-6.7-9.9c-0.6-0.3-8.6-8.1-9.3-8.4C99.4,12,88.4,29,93.6,44.8
		C96,52,102,59.5,108.3,63.7c0.3,0.3,3.7,4.1,5.4,12.5c1.7,8.8,0.8,15.6-2.7,25.7c-4.1,8.9-14.6,17.6-24.5,18.5
		c-21.1,1.9-28.8-10.6-28.8-10.6c7.5,3,15.9,2.4,20.9-0.7c5.1-3.2,8.2-5.5,10.7-4.6c2.5,0.9,4.4-1.7,2.7-4.5
		c-2.8-4.3-7.9-6.5-12.9-5.6c-5.1,0.8-9.8,4.9-16.5,1c-0.4-0.3-0.9-0.5-1.3-0.8c-0.4-0.3,1.4,0.4,1,0.1c-1.3-0.7-3.6-2.3-4.2-2.8
		c-0.1-0.1,1,0.4,0.9,0.3c-6.3-5.2-5.5-8.6-5.3-10.8c0.2-1.7,1.3-4,3.2-4.9c0.9,0.5,1.5,0.9,1.5,0.9S58,76.5,57.8,76
		c0.1,0,0.1,0,0.2-0.1c0.8,0.4,2.4,1.3,3.3,1.9c1.1,0.8,1.5,1.5,1.5,1.5s0.3-0.2,0.1-0.9c-0.1-0.3-0.4-1.2-1.6-2.1l0.1,0
		c0.7,0.4,1.3,0.8,1.9,1.3c0.3-1.2,0.9-2.4,0.8-4.6c-0.1-1.5,0-1.9-0.3-2.5c-0.2-0.5,0.1-0.7,0.6-0.2c-0.1-0.4-0.2-0.8-0.4-1.2l0,0
		c0.5-1.8,11.1-6.6,11.9-7.1c1.3-0.9,2.3-2,3.1-3.4c0.6-0.9,1-2.3,1.1-4.2c0.1-1.4-0.6-2.4-11.3-3.5c-2.9-0.3-4.6-2.4-5.6-4.4
		c-0.2-0.4-0.4-0.8-0.5-1.2c-0.2-0.4-0.3-0.9-0.4-1.4c1.7-5,4.7-9.3,9-12.5c0.2-0.2-0.9,0.1-0.7-0.2c0.3-0.3,2.1-1,2.4-1.1
		c0.4-0.2-1.8-1.1-3.7-0.9c-2,0.2-2.4,0.5-3.4,0.9c0.4-0.4,1.8-1,1.5-1c-2.1,0.3-4.7,1.6-7,2.9c0-0.2,0-0.5,0.1-0.7
		c-1,0.4-3.6,2.2-4.4,3.8c0-0.3,0-0.6,0-0.9c-0.8,0.7-1.5,1.4-2.1,2.2l0,0c-6.1-2.4-11.4-2.6-15.9-1.5c-1-1-1.5-0.3-3.7-5.2
		c-0.2-0.3,0.1,0.3,0,0c-0.4-1,0.2,1.3,0,0c-3.8,3-8.8,6.4-11.2,8.8c0,0.1,2.8-0.8,0,0c-1,0.3-0.9,0.9-1.1,6.1c0,0.4,0,0.8,0,1.2
		c-1.9,2.4-3.2,4.5-3.7,5.6c-2.5,4.3-5.2,10.9-7.8,21.4c1.2-2.8,2.6-5.6,4.2-8.2c-2.2,5.6-4.3,14.3-4.7,27.8c0.5-2.8,1.2-5.5,2-8.2
		c-0.5,11.2,1.4,22.3,5.6,32.7c1.5,3.7,4,9.3,8.3,15.5c13.4,14.1,32.3,22.9,53.3,22.9C101.2,155.4,120.8,145.9,134.3,130.7z"/>
	
		<radialGradient id="SVGID_3_" cx="-9133.7588" cy="7199.8101" r="43.3961" gradientTransform="matrix(1.219 0.123 0.123 -1.219 10412.3828 10003.3467)" gradientUnits="userSpaceOnUse">
		<stop  offset="3.000000e-03" style="stop-color:#FFEA00"/>
		<stop  offset="0.497" style="stop-color:#FF272D"/>
		<stop  offset="1" style="stop-color:#C42482"/>
	</radialGradient>
	<path class="st3" d="M118.1,140.9c26.5-3.1,38.2-30.4,23.2-30.9C127.7,109.6,105.6,142.4,118.1,140.9z"/>
	
		<radialGradient id="SVGID_4_" cx="-9137.6846" cy="7241.4219" r="72.4679" gradientTransform="matrix(1.219 0.123 0.123 -1.219 10412.3828 10003.3467)" gradientUnits="userSpaceOnUse">
		<stop  offset="3.000000e-03" style="stop-color:#FFE900"/>
		<stop  offset="0.157" style="stop-color:#FFAF0E"/>
		<stop  offset="0.316" style="stop-color:#FF7A1B"/>
		<stop  offset="0.472" style="stop-color:#FF4E26"/>
		<stop  offset="0.621" style="stop-color:#FF2C2E"/>
		<stop  offset="0.762" style="stop-color:#FF1434"/>
		<stop  offset="0.892" style="stop-color:#FF0538"/>
		<stop  offset="1" style="stop-color:#FF0039"/>
	</radialGradient>
	<path class="st4" d="M143.2,104.5C161.4,93.9,156.6,71,156.6,71s-7,8.2-11.8,21.2C140.1,105,132.2,110.9,143.2,104.5z"/>
	
		<radialGradient id="SVGID_5_" cx="-9127.4355" cy="7174.2451" r="66.4972" gradientTransform="matrix(1.219 0.123 0.123 -1.219 10412.3828 10003.3467)" gradientUnits="userSpaceOnUse">
		<stop  offset="3.000000e-03" style="stop-color:#FF272D"/>
		<stop  offset="0.497" style="stop-color:#C42482"/>
		<stop  offset="0.986" style="stop-color:#620700"/>
	</radialGradient>
	<path class="st5" d="M85.3,154.5c25.4,8.1,47.2-11.9,33.8-18.6C106.9,129.9,73.3,150.6,85.3,154.5z"/>
	
		<radialGradient id="SVGID_6_" cx="118.7815" cy="97.9283" r="127.1837" fx="123.3307" fy="95.6798" gradientTransform="matrix(1 0 0 -1 0 162)" gradientUnits="userSpaceOnUse">
		<stop  offset="0.156" style="stop-color:#FFEA00"/>
		<stop  offset="0.231" style="stop-color:#FFDE00"/>
		<stop  offset="0.365" style="stop-color:#FFBF00"/>
		<stop  offset="0.541" style="stop-color:#FF8E00"/>
		<stop  offset="0.763" style="stop-color:#FF272D"/>
		<stop  offset="0.796" style="stop-color:#F92433"/>
		<stop  offset="0.841" style="stop-color:#E91C45"/>
		<stop  offset="0.893" style="stop-color:#CF0E62"/>
		<stop  offset="0.935" style="stop-color:#B5007F"/>
	</radialGradient>
	<path class="st6" d="M145.1,114.2c0.6-0.9,1.5-3.7,2.2-4.9c4.5-7.2,4.5-13,4.5-13.1c2.7-13.5,2.5-19.1,0.8-29.3
		c-1.3-8.2-7.2-20-12.3-25.7c-5.2-5.8-1.5-3.9-6.6-8.2c-4.4-4.9-8.8-9.8-11.1-11.8C105.6,7,106,4,106.3,3.5
		c-0.1,0.1-0.1,0.1-0.2,0.3c-0.2-0.8-0.3-1.5-0.3-1.5S96.5,11.5,94.5,27c-1.3,10.1,2.5,20.6,8,27.3c2.8,3.5,6.1,6.6,9.6,9.4v0
		c4.1,5.9,6.4,13.3,6.4,21.1c0,19.7-16,35.7-35.7,35.7c-2.7,0-5.4-0.3-8-0.9c-9.3-1.8-14.7-6.5-17.4-9.7c-1.5-1.8-2.2-3.2-2.2-3.2
		c8.3,3,17.6,2.4,23.2-0.7c5.7-3.1,9.1-5.5,11.8-4.5c2.7,0.9,4.9-1.7,3-4.5c-1.9-2.7-6.9-6.7-14.3-5.6c-5.7,0.8-10.8,4.8-18.3,1
		c-0.5-0.2-0.9-0.5-1.4-0.8c-0.5-0.3,1.6,0.4,1.1,0.1c-1.4-0.7-4-2.2-4.7-2.8c-0.1-0.1,1.1,0.4,1,0.3c-6.9-5.1-6.1-8.6-5.8-10.7
		c0.2-1.7,1.4-4,3.6-4.9c1,0.5,1.7,0.9,1.7,0.9s-0.4-0.8-0.7-1.2c0.1,0,0.2,0,0.2-0.1c0.8,0.4,2.7,1.3,3.7,1.9
		c1.3,0.8,1.7,1.5,1.7,1.5s0.3-0.2,0.1-0.9c-0.1-0.3-0.5-1.2-1.7-2.1l0.1,0c0.7,0.4,1.5,0.8,2.1,1.3c0.4-1.2,1-2.4,0.9-4.5
		c-0.1-1.5,0-1.9-0.3-2.5c-0.3-0.5,0.2-0.7,0.6-0.2c-0.1-0.4-0.2-0.8-0.4-1.2l0,0c0.6-1.8,12.3-6.5,13.1-7.1c1.4-0.9,2.5-2,3.4-3.4
		c0.7-0.9,1.1-2.2,1.3-4.2c0-0.9-0.2-1.6-3.3-2.3c-1.9-0.4-4.7-0.8-9.2-1.2c-3.2-0.3-5.1-2.4-6.2-4.3c-0.2-0.4-0.4-0.8-0.6-1.2
		c-0.2-0.4-0.3-0.9-0.5-1.4c1.9-5.1,5.4-9.4,10-12.4c0.3-0.2-1,0.1-0.8-0.2c0.3-0.2,2.3-1,2.7-1.1c0.5-0.2-2-1.1-4.1-0.9
		c-2.2,0.2-2.6,0.5-3.8,0.9c0.5-0.4,2-1,1.7-1c-2.3,0.3-5.3,1.5-7.7,2.9c0-0.2,0-0.5,0.2-0.7c-1.2,0.4-4,2.2-4.8,3.7
		c0-0.3,0.1-0.6,0-0.9c-0.9,0.7-1.7,1.4-2.4,2.2l0,0c-6.7-2.4-12.6-2.6-17.6-1.5c-1.1-1-2.9-2.5-5.3-7.4c-0.2-0.3-0.3,0.6-0.4,0.3
		c-1-2.2-1.6-5.9-1.5-8.5c0,0-2,0.9-3.7,4.7c-0.3,0.7-0.5,1.1-0.7,1.4c-0.1,0.1,0.2-1.3,0.2-1.2c-0.3,0.5-1,1.2-1.4,2.1
		c-0.2,0.7-0.5,1-0.7,1.8l0,0.1c0-0.2,0.1-1,0-0.8c-0.8,1.6-1.4,3.2-2,4.9c-0.9,2.9-1.9,6.9-2.1,12.1c0,0.4,0,0.8,0,1.2
		c-2.1,2.4-3.6,4.5-4.1,5.5C9,53.3,6,59.9,3.1,70.3c1.3-2.8,2.9-5.6,4.6-8.1C5.3,67.7,3,76.4,2.5,89.7c0.6-2.8,1.3-5.5,2.3-8.2
		c-0.4,8.9,0.6,20,6.3,32.4c3.3,7.3,11,22.2,29.9,33.8l0,0c0,0,6.4,4.8,17.4,8.3c0.8,0.3,1.6,0.6,2.5,0.9c-0.3-0.1-0.5-0.2-0.8-0.3
		c7.3,2.2,14.9,3.3,22.6,3.3c28.5,0,36.9-11.4,36.9-11.4s0,0-0.1,0.1c0.4-0.4,0.8-0.8,1.2-1.2c-4.5,4.2-14.8,4.5-18.6,4.2
		c6.5-1.9,10.8-3.5,19.2-6.8c1-0.4,2-0.8,3-1.2c0.1,0,0.2-0.1,0.3-0.2c0.2-0.1,0.4-0.2,0.6-0.3c4.1-1.9,7.9-4.3,11.4-7.2
		c8.4-6.7,10.2-13.3,11.2-17.6c-0.1,0.4-0.5,1.4-0.8,2c-2.2,4.6-7,7.5-12.2,9.9c2.5-3.3,4.8-6.6,6.9-10.2
		C143.3,118.6,143.8,116,145.1,114.2z"/>
	
		<radialGradient id="SVGID_7_" cx="109.2124" cy="161.7904" r="150.1813" gradientTransform="matrix(1 0 0 -1 0 162)" gradientUnits="userSpaceOnUse">
		<stop  offset="0.279" style="stop-color:#FFEA00"/>
		<stop  offset="0.402" style="stop-color:#FFDD00"/>
		<stop  offset="0.63" style="stop-color:#FFBA00"/>
		<stop  offset="0.856" style="stop-color:#FF9100"/>
		<stop  offset="0.933" style="stop-color:#FF6711"/>
		<stop  offset="0.994" style="stop-color:#FF4A1D"/>
	</radialGradient>
	<path class="st7" d="M134.8,130.2c3.4-3.8,6.5-8.1,8.8-13c6-12.6,15.3-33.6,8-55.5c-5.8-17.3-13.7-26.8-23.8-36
		C111.5,10.7,107,4,107,0c0,0-18.9,21-10.7,43s25,21.1,36,44c13.1,27-10.6,56.4-30.1,64.6c1.2-0.3,43.4-9.8,45.6-34
		C147.8,118.1,146.9,124.8,134.8,130.2z"/>
	
		<linearGradient id="SVGID_8_" gradientUnits="userSpaceOnUse" x1="-9244.7598" y1="7225.3472" x2="-9198.5225" y2="7237.1333" gradientTransform="matrix(1.219 0.123 0.123 -1.219 10412.3828 10003.3467)">
		<stop  offset="0" style="stop-color:#C42482;stop-opacity:0.5"/>
		<stop  offset="0.474" style="stop-color:#FF272D;stop-opacity:0.5"/>
		<stop  offset="0.486" style="stop-color:#FF2C2C;stop-opacity:0.513"/>
		<stop  offset="0.675" style="stop-color:#FF7A1A;stop-opacity:0.72"/>
		<stop  offset="0.829" style="stop-color:#FFB20D;stop-opacity:0.871"/>
		<stop  offset="0.942" style="stop-color:#FFD605;stop-opacity:0.964"/>
		<stop  offset="1" style="stop-color:#FFE302"/>
	</linearGradient>
	<path class="st8" d="M80.1,51.9c0.1-1.4-0.7-2.4-12.5-3.5c-4.9-0.4-6.7-4.9-7.3-6.8c-1.7,4.5-2.4,9.2-2.1,14.9
		c0.3,3.7,2.8,7.7,4,10.1c0,0,0.3-0.3,0.4-0.5c2.3-2.3,11.7-5.9,12.6-6.4C76.3,59.1,80,56.3,80.1,51.9z"/>
	
		<linearGradient id="SVGID_9_" gradientUnits="userSpaceOnUse" x1="112.8676" y1="1537.458" x2="103.9941" y2="1560.1974" gradientTransform="matrix(0.995 0.1 0.1 -0.995 -240.191 1560.7361)">
		<stop  offset="0" style="stop-color:#891551;stop-opacity:0.6"/>
		<stop  offset="1" style="stop-color:#C42482;stop-opacity:0"/>
	</linearGradient>
	<path class="st9" d="M28.2,25.4c-0.2-0.3-0.3,0.6-0.4,0.3c-1-2.2-1.6-5.9-1.4-8.5c0,0-2,0.9-3.7,4.7c-0.3,0.7-0.5,1.1-0.7,1.4
		c-0.1,0.1,0.2-1.3,0.2-1.2c-0.3,0.5-1,1.2-1.4,2c-0.3,0.7-0.5,1.1-0.8,1.9c-0.1,0.2,0.1-1,0-0.9c-3.9,7.5-4.6,18.7-4.2,18.2
		c8.2-8.8,17.6-10.8,17.6-10.8C32.5,32,30.4,29.9,28.2,25.4L28.2,25.4z"/>
	
		<linearGradient id="SVGID_10_" gradientUnits="userSpaceOnUse" x1="-192.008" y1="-95.6148" x2="-176.7059" y2="-112.9948" gradientTransform="matrix(0.995 0.1 0.1 -0.995 238.944 0.324)">
		<stop  offset="5.000000e-03" style="stop-color:#891551;stop-opacity:0.5"/>
		<stop  offset="0.484" style="stop-color:#FF272D;stop-opacity:0.5"/>
		<stop  offset="1" style="stop-color:#FF272D;stop-opacity:0"/>
	</linearGradient>
	<path class="st10" d="M59.4,117.1c-11.3-4.8-24.2-11.7-23.7-27.2c0.7-20.4,19-16.4,19-16.4c-0.7,0.2-2.5,1.5-3.2,2.9
		c-0.7,1.8-2,5.7,1.9,9.9c6,6.5-12.4,15.5,16,32.4C70.1,119.2,62.7,118.5,59.4,117.1L59.4,117.1z"/>
	
		<linearGradient id="SVGID_11_" gradientUnits="userSpaceOnUse" x1="-163.0614" y1="-125.8183" x2="-163.0505" y2="-113.6588" gradientTransform="matrix(0.995 0.1 0.1 -0.995 238.944 0.324)">
		<stop  offset="0" style="stop-color:#C42482"/>
		<stop  offset="8.299999e-02" style="stop-color:#C42482;stop-opacity:0.81"/>
		<stop  offset="0.206" style="stop-color:#C42482;stop-opacity:0.565"/>
		<stop  offset="0.328" style="stop-color:#C42482;stop-opacity:0.362"/>
		<stop  offset="0.447" style="stop-color:#C42482;stop-opacity:0.204"/>
		<stop  offset="0.562" style="stop-color:#C42482;stop-opacity:9.100000e-02"/>
		<stop  offset="0.673" style="stop-color:#C42482;stop-opacity:2.300000e-02"/>
		<stop  offset="0.773" style="stop-color:#C42482;stop-opacity:0"/>
	</linearGradient>
	<path class="st11" d="M55.3,106.9c8,2.8,17.4,2.3,23-0.8c3.8-2.1,8.6-5.4,11.5-4.6c-2.6-1-4.5-1.5-6.8-1.6c-0.4,0-0.9,0-1.3-0.1
		c-0.9,0-1.7,0-2.6,0.1c-1.4,0.1-3.1,1-4.5,0.9c-0.1,0,1.4-0.6,1.3-0.6c-0.8,0.2-1.6,0.2-2.5,0.3c-0.6,0.1-1,0.1-1.6,0.2
		C55.1,102.2,41,91.7,41,91.7C39.8,95.8,46.3,103.8,55.3,106.9L55.3,106.9z"/>
	
		<linearGradient id="SVGID_12_" gradientUnits="userSpaceOnUse" x1="103.3899" y1="156.1268" x2="153.09" y2="44.9894" gradientTransform="matrix(1 0 0 -1 0 162)">
		<stop  offset="0" style="stop-color:#FFF14F"/>
		<stop  offset="0.268" style="stop-color:#FFEE4C"/>
		<stop  offset="0.452" style="stop-color:#FFE643"/>
		<stop  offset="0.612" style="stop-color:#FFD834"/>
		<stop  offset="0.757" style="stop-color:#FFC41E"/>
		<stop  offset="0.892" style="stop-color:#FFAB02"/>
		<stop  offset="0.902" style="stop-color:#FFA900"/>
		<stop  offset="0.949" style="stop-color:#FFA000"/>
		<stop  offset="1" style="stop-color:#FF9100"/>
	</linearGradient>
	<path class="st12" d="M134.8,130.3c16.9-16.6,25.5-36.8,21.9-59.5c0,0,1.4,11.6-4,23.5c2.6-11.6,2.9-26-4.1-41
		c-9.3-19.9-24.7-30.4-30.6-34.8c-8.9-6.6-12.6-13.4-12.6-14.8c-2.7,5.4-10.7,24.1-0.9,40.2c9.2,15.1,23.7,19.5,33.9,33.3
		C157.1,102.7,134.8,130.3,134.8,130.3z"/>
	
		<linearGradient id="SVGID_13_" gradientUnits="userSpaceOnUse" x1="113.2036" y1="92.2098" x2="89.661" y2="28.9984" gradientTransform="matrix(1 0 0 -1 0 162)">
		<stop  offset="0" style="stop-color:#FF8E00"/>
		<stop  offset="4.000000e-02" style="stop-color:#FF8E00;stop-opacity:0.858"/>
		<stop  offset="8.400000e-02" style="stop-color:#FF8E00;stop-opacity:0.729"/>
		<stop  offset="0.13" style="stop-color:#FF8E00;stop-opacity:0.628"/>
		<stop  offset="0.178" style="stop-color:#FF8E00;stop-opacity:0.557"/>
		<stop  offset="0.227" style="stop-color:#FF8E00;stop-opacity:0.514"/>
		<stop  offset="0.282" style="stop-color:#FF8E00;stop-opacity:0.5"/>
		<stop  offset="0.389" style="stop-color:#FF8E00;stop-opacity:0.478"/>
		<stop  offset="0.524" style="stop-color:#FF8E00;stop-opacity:0.416"/>
		<stop  offset="0.676" style="stop-color:#FF8E00;stop-opacity:0.314"/>
		<stop  offset="0.838" style="stop-color:#FF8E00;stop-opacity:0.172"/>
		<stop  offset="1" style="stop-color:#FF8E00;stop-opacity:0"/>
	</linearGradient>
	<path class="st13" d="M132.4,87.1c-5.9-12.2-13.3-17.6-20.3-23.3c0.8,1.1,1,1.5,1.5,2.3c6.2,6.6,15.2,22.5,8.6,42.6
		c-12.4,37.8-62,20-67.2,15c2.1,21.9,38.7,32.3,62.5,18.2C131.1,128.9,142.1,107.1,132.4,87.1z"/>
</g>
</svg>
