<svg xmlns="http://www.w3.org/2000/svg" viewBox="0 0 433.535 280" enable-background="new 0 0 433.535 280"><style type="text/css">.st0{fill:none;} .st1{fill:#FFFFFF;} .st2{fill:url(#SVGID_1_);} .st3{fill:url(#SVGID_2_);} .st4{fill:url(#SVGID_3_);} .st5{opacity:0.15;} .st6{fill:#3FCDBA;} .st7{opacity:0.47;} .st8{fill:#E0E4F0;} .st9{fill:#65B5B7;} .st10{fill:#191C3C;} .st11{fill:#FDFDFE;} .st12{fill:#575A8F;} .st13{fill:#6371C5;} .st14{opacity:0.3;} .st15{fill:#414042;} .st16{fill:#FEC55E;} .st17{fill:#FDE1A7;} .st18{fill:#F1F2F2;} .st19{fill:#212121;} .st20{fill:url(#SVGID_4_);} .st21{fill:url(#SVGID_5_);} .st22{fill:#56408B;} .st23{fill:url(#XMLID_34_);} .st24{opacity:0.1;fill:#191C3C;} .st25{fill:#D77EDB;} .st26{fill:#5DDAF4;} .st27{fill:url(#XMLID_35_);} .st28{opacity:0.2;fill:#414042;} .st29{opacity:0.2;fill:#525D7A;} .st30{fill:url(#XMLID_39_);} .st31{fill:url(#XMLID_40_);} .st32{opacity:0.06;fill:#FFFFFF;} .st33{opacity:0.1;fill:#525D7A;} .st34{fill:#E6E7E8;} .st35{fill:#525D7A;} .st36{fill:url(#SVGID_6_);} .st37{opacity:0.15;fill:#525D7A;} .st38{fill:url(#SVGID_7_);} .st39{fill:url(#SVGID_8_);} .st40{fill:url(#XMLID_41_);} .st41{fill:url(#XMLID_42_);} .st42{fill:url(#XMLID_43_);} .st43{opacity:0.2;} .st44{fill:#037982;} .st45{opacity:0.3;fill:#3F4949;} .st46{fill:#623FE9;} .st47{fill:#9EE9F8;} .st48{fill:#6C60EB;} .st49{fill:#3F3CBC;} .st50{opacity:0.3;fill:#525D7A;} .st51{fill:#7DE1F6;} .st52{fill:url(#);} .st53{fill:#F6F6F6;} .st54{fill:#7866A2;} .st55{opacity:0.3;fill:#231F20;} .st56{fill:#F5F7F9;} .st57{opacity:0.2;fill:#BABECA;} .st58{fill:#FED17E;} .st59{fill:url(#SVGID_9_);} .st60{opacity:0.5;} .st61{fill:url(#SVGID_10_);} .st62{fill:url(#SVGID_11_);} .st63{fill:url(#XMLID_44_);} .st64{fill:url(#XMLID_45_);} .st65{fill:url(#XMLID_46_);} .st66{fill:url(#XMLID_47_);} .st67{fill:url(#SVGID_12_);} .st68{fill:url(#SVGID_13_);} .st69{fill:url(#SVGID_14_);} .st70{fill:url(#XMLID_48_);} .st71{fill:url(#XMLID_49_);} .st72{fill:url(#XMLID_50_);} .st73{fill:url(#SVGID_15_);} .st74{fill:url(#SVGID_16_);} .st75{fill:url(#XMLID_51_);} .st76{fill:url(#XMLID_52_);} .st77{fill:url(#XMLID_53_);} .st78{fill:url(#XMLID_54_);} .st79{fill:url(#SVGID_17_);} .st80{fill:url(#SVGID_18_);} .st81{fill:url(#SVGID_19_);} .st82{fill:url(#XMLID_55_);} .st83{fill:url(#XMLID_56_);} .st84{fill:url(#XMLID_57_);} .st85{fill:url(#SVGID_20_);} .st86{fill:url(#SVGID_21_);} .st87{fill:url(#SVGID_22_);} .st88{fill:url(#SVGID_23_);} .st89{fill:#D1D4FC;} .st90{fill:#B2B8FA;} .st91{fill:#E0E3FD;} .st92{fill:#C1C6FB;} .st93{fill:#FAFAFF;} .st94{fill:url(#XMLID_58_);} .st95{opacity:0;fill:#FFFFFF;} .st96{opacity:0.0244;fill:#FDFDFF;} .st97{opacity:0.0488;fill:#FBFCFF;} .st98{opacity:0.0732;fill:#F9FAFF;} .st99{opacity:0.0976;fill:#F7F8FF;} .st100{opacity:0.122;fill:#F6F6FE;} .st101{opacity:0.1463;fill:#F4F5FE;} .st102{opacity:0.1707;fill:#F2F3FE;} .st103{opacity:0.1951;fill:#F0F1FE;} .st104{opacity:0.2195;fill:#EEEFFE;} .st105{opacity:0.2439;fill:#ECEEFE;} .st106{opacity:0.2683;fill:#EAECFE;} .st107{opacity:0.2927;fill:#E8EAFE;} .st108{opacity:0.3171;fill:#E7E8FD;} .st109{opacity:0.3415;fill:#E5E7FD;} .st110{opacity:0.3659;fill:#E3E5FD;} .st111{opacity:0.3902;fill:#E1E3FD;} .st112{opacity:0.4146;fill:#DFE2FD;} .st113{opacity:0.439;fill:#DDE0FD;} .st114{opacity:0.4634;fill:#DBDEFD;} .st115{opacity:0.4878;fill:#D9DCFD;} .st116{opacity:0.5122;fill:#D8DBFC;} .st117{opacity:0.5366;fill:#D6D9FC;} .st118{opacity:0.561;fill:#D4D7FC;} .st119{opacity:0.5854;fill:#D2D5FC;} .st120{opacity:0.6098;fill:#D0D4FC;} .st121{opacity:0.6341;fill:#CED2FC;} .st122{opacity:0.6585;fill:#CCD0FC;} .st123{opacity:0.6829;fill:#CACFFC;} .st124{opacity:0.7073;fill:#C9CDFB;} .st125{opacity:0.7317;fill:#C7CBFB;} .st126{opacity:0.7561;fill:#C5C9FB;} .st127{opacity:0.7805;fill:#C3C8FB;} .st128{opacity:0.8049;fill:#C1C6FB;} .st129{opacity:0.8293;fill:#BFC4FB;} .st130{opacity:0.8537;fill:#BDC2FB;} .st131{opacity:0.878;fill:#BBC1FB;} .st132{opacity:0.9024;fill:#BABFFA;} .st133{opacity:0.9268;fill:#B8BDFA;} .st134{opacity:0.9512;fill:#B6BBFA;} .st135{opacity:0.9756;fill:#B4BAFA;} .st136{fill:#5361F0;} .st137{fill:#F0F1FE;} .st138{fill:#FFDFCC;} .st139{fill:#FE5E31;} .st140{fill:#536DFE;} .st141{fill:#FFDFD6;} .st142{fill:#FFCEBD;} .st143{fill:#4D5068;} .st144{display:none;opacity:0.58;fill:url(#SVGID_24_);} .st145{fill:#19103A;} .st146{opacity:0.3;fill:#30334F;} .st147{fill:#FFBBA1;} .st148{fill:url(#SVGID_25_);} .st149{opacity:0.1;fill:#A7A9AC;} .st150{fill:url(#SVGID_26_);stroke:#FF0000;stroke-miterlimit:10;} .st151{fill:#FF0000;}</style><pattern x="-282.569" y="-280" width="72" height="72.001" patternUnits="userSpaceOnUse" id="USGS_22_Gravel_Beach" viewBox="0.6 -72.001 72 72.001" overflow="visible"><path class="st0" d="M.6-72.001h72v72.001h-72z"/><path class="st1" d="M72.85-14.029c-.09 0-.18-.039-.25-.1-.06-.07-.1-.16-.1-.25s.04-.18.1-.25c.12-.12.36-.131.5 0 .061.07.101.16.101.25s-.04.18-.101.25c-.07.061-.16.1-.25.1zM21.35-68.779c-.09 0-.18-.039-.25-.1-.06-.07-.1-.16-.1-.25s.04-.18.1-.25c.141-.131.36-.131.49 0 .07.07.11.16.11.25s-.04.18-.101.25c-.069.061-.159.1-.249.1zM20.35-63.529c-.09 0-.18-.039-.25-.1-.06-.07-.1-.16-.1-.25 0-.1.04-.189.11-.25.109-.12.35-.131.489 0 .061.061.101.15.101.25 0 .09-.04.18-.101.25-.069.061-.149.1-.249.1zM20.6-61.279c-.09 0-.18-.039-.25-.1-.06-.07-.1-.16-.1-.25s.04-.18.1-.25c.131-.131.36-.131.5 0 .061.07.101.16.101.25s-.04.18-.101.25c-.07.061-.16.1-.25.1zM15.6-61.279c-.09 0-.18-.039-.25-.1-.06-.07-.1-.16-.1-.25 0-.1.04-.18.1-.25.12-.12.36-.131.5 0 .061.07.101.16.101.25s-.04.18-.101.25c-.07.061-.16.1-.25.1zM23.1-51.779c-.09 0-.18-.039-.25-.1-.06-.07-.1-.16-.1-.25s.04-.18.1-.25c.141-.131.36-.131.49 0 .07.07.11.16.11.25s-.04.18-.101.25c-.069.061-.159.1-.249.1zM15.6-48.779c-.09 0-.18-.039-.25-.1-.06-.07-.1-.16-.1-.25 0-.1.04-.19.11-.25.109-.12.35-.131.489 0 .061.06.101.15.101.25 0 .09-.04.18-.101.25-.069.061-.159.1-.249.1zM14.35-47.779c-.09 0-.18-.039-.25-.1-.06-.07-.1-.16-.1-.25s.04-.18.1-.25c.141-.131.36-.131.49 0 .07.07.11.16.11.25s-.04.18-.101.25c-.069.061-.149.1-.249.1zM24.35-44.779c-.09 0-.18-.039-.25-.1-.06-.07-.1-.16-.1-.25 0-.1.04-.19.11-.25.109-.12.359-.131.489 0 .061.07.101.16.101.25s-.04.18-.101.24c-.069.071-.159.11-.249.11zM31.1-46.029c-.09 0-.18-.039-.25-.1-.06-.07-.1-.16-.1-.25s.04-.18.1-.25c.141-.131.36-.131.49 0 .07.07.11.16.11.25s-.04.18-.101.25c-.069.061-.159.1-.249.1zM31.6-48.529c-.09 0-.18-.039-.25-.1-.06-.07-.1-.16-.1-.25 0-.1.04-.19.11-.25.12-.131.35-.131.489 0 .061.06.101.15.101.25 0 .09-.04.18-.101.25-.069.061-.149.1-.249.1zM29.6-53.529c-.09 0-.18-.039-.25-.1-.06-.07-.1-.16-.1-.25s.04-.18.1-.25c.141-.131.36-.131.49 0 .07.07.11.16.11.25s-.04.18-.101.25c-.069.061-.159.1-.249.1zM34.35-52.029c-.09 0-.18-.039-.25-.1-.06-.07-.1-.16-.1-.25s.04-.18.1-.25c.141-.131.36-.131.49 0 .07.07.11.16.11.25s-.04.18-.101.25c-.069.061-.159.1-.249.1zM31.85-57.029c-.09 0-.18-.039-.25-.1-.06-.07-.1-.16-.1-.25s.04-.18.1-.25c.141-.131.36-.131.49 0 .07.07.11.16.11.25s-.04.18-.101.25c-.069.061-.159.1-.249.1zM32.1-60.029c-.09 0-.18-.039-.25-.1-.06-.07-.1-.16-.1-.25s.04-.18.1-.25c.141-.131.36-.131.5 0 .061.07.101.16.101.25s-.04.18-.101.25c-.07.061-.16.1-.25.1zM32.6-64.779c-.09 0-.18-.039-.25-.1-.06-.07-.1-.16-.1-.25s.04-.18.1-.25c.141-.131.36-.131.49 0 .07.07.11.16.11.25s-.04.18-.101.25c-.069.061-.159.1-.249.1zM32.35-68.779c-.09 0-.18-.039-.25-.1-.06-.07-.1-.16-.1-.25 0-.1.04-.189.11-.25.12-.131.35-.131.489 0 .061.061.101.15.101.25 0 .09-.04.18-.101.25-.069.061-.159.1-.249.1zM34.35-70.529c-.09 0-.18-.039-.25-.109-.06-.051-.1-.15-.1-.24 0-.1.04-.189.11-.25.12-.131.359-.131.489 0 .061.061.101.15.101.25 0 .09-.04.189-.11.25-.06.06-.15.099-.24.099zM41.85-64.779c-.09 0-.18-.039-.25-.1-.069-.07-.1-.16-.1-.25s.04-.18.1-.25c.15-.141.36-.131.49 0 .07.07.11.16.11.25s-.04.18-.101.25c-.069.061-.159.1-.249.1zM45.85-65.029c-.09 0-.18-.039-.25-.1-.06-.07-.1-.15-.1-.25s.04-.18.1-.25c.141-.131.36-.131.49 0 .07.07.11.16.11.25s-.04.18-.101.25c-.069.061-.159.1-.249.1zM42.85-58.279c-.09 0-.18-.039-.25-.1-.06-.07-.1-.16-.1-.25 0-.1.04-.19.11-.25.12-.131.35-.131.489 0 .061.06.101.15.101.25 0 .09-.04.18-.101.25-.069.061-.159.1-.249.1zM47.35-57.529c-.09 0-.18-.039-.25-.1-.06-.07-.1-.16-.1-.25 0-.1.04-.19.11-.25.12-.131.35-.131.489 0 .061.07.101.16.101.25s-.03.17-.101.24c-.069.071-.159.11-.249.11zM47.35-55.529c-.09 0-.18-.039-.25-.1-.06-.07-.1-.16-.1-.25 0-.1.04-.19.11-.25.12-.131.359-.131.489 0 .061.07.101.16.101.25s-.04.17-.101.24c-.069.071-.159.11-.249.11zM39.35-51.029c-.09 0-.18-.039-.25-.1-.06-.07-.1-.16-.1-.25s.04-.18.1-.25c.141-.131.36-.131.49 0 .07.06.11.16.11.25s-.04.18-.101.25c-.069.061-.159.1-.249.1zM50.6-58.279c-.09 0-.18-.039-.25-.1-.069-.07-.1-.16-.1-.25s.03-.18.1-.25c.141-.131.37-.131.5 0 .061.07.101.16.101.25s-.04.18-.101.25c-.07.061-.16.1-.25.1zM52.6-59.779c-.09 0-.18-.039-.25-.109-.06-.061-.1-.15-.1-.24 0-.1.04-.19.11-.25.12-.12.35-.131.489 0 .061.06.101.15.101.25 0 .09-.04.18-.101.25-.069.06-.159.099-.249.099zM55.1-60.779c-.09 0-.18-.039-.25-.109-.06-.061-.1-.15-.1-.24 0-.1.04-.19.11-.25.12-.131.35-.131.489 0 .061.06.101.15.101.25 0 .09-.04.18-.101.25-.069.06-.159.099-.249.099zM56.85-71.029c-.09 0-.18-.039-.25-.1-.06-.07-.1-.16-.1-.25s.04-.18.1-.25c.12-.131.37-.131.5.01.061.061.101.15.101.24s-.04.18-.101.25c-.07.061-.16.1-.25.1zM68.35-68.779c-.09 0-.18-.039-.25-.1-.06-.07-.1-.16-.1-.25 0-.1.04-.189.11-.25.109-.12.35-.131.489 0 .061.061.101.15.101.25 0 .09-.04.18-.101.25-.069.061-.149.1-.249.1zM68.35-61.529c-.09 0-.18-.039-.25-.109-.06-.061-.1-.15-.1-.24s.04-.18.1-.25c.131-.131.36-.131.5 0 .061.07.101.16.101.25 0 .1-.04.18-.11.25-.061.06-.151.099-.241.099zM64.6-59.529c-.09 0-.18-.039-.25-.1-.06-.07-.1-.16-.1-.25s.04-.18.1-.25c.131-.131.36-.131.49 0 .07.07.11.16.11.25s-.04.18-.101.25c-.069.061-.159.1-.249.1zM65.6-56.029c-.09 0-.18-.039-.25-.1-.06-.07-.1-.16-.1-.25 0-.1.04-.18.1-.25.12-.12.37-.131.5 0 .061.07.101.16.101.25s-.04.18-.101.25c-.07.061-.16.1-.25.1zM64.35-52.029c-.09 0-.18-.039-.25-.109-.06-.061-.1-.15-.1-.24s.04-.18.1-.25c.131-.131.37-.131.5 0 .061.07.101.16.101.25 0 .1-.04.18-.11.25-.061.06-.151.099-.241.099zM66.6-52.029c-.09 0-.18-.039-.25-.1-.06-.07-.1-.16-.1-.25 0-.1.04-.19.11-.25.109-.12.35-.131.489 0 .061.06.101.15.101.25 0 .09-.04.18-.101.25-.069.061-.159.1-.249.1zM68.35-50.529c-.09 0-.18-.039-.25-.1-.06-.07-.1-.16-.1-.25s.04-.18.1-.25c.131-.131.36-.131.5 0 .061.07.101.16.101.25s-.04.18-.101.25c-.07.061-.16.1-.25.1zM7.35-19.529c-.09 0-.18-.039-.25-.1-.06-.07-.1-.16-.1-.25s.04-.18.1-.25c.12-.12.36-.131.5 0 .061.07.101.16.101.25s-.04.18-.101.25c-.07.061-.16.1-.25.1zM7.6-17.279c-.09 0-.18-.039-.25-.1-.06-.07-.1-.16-.1-.25s.04-.18.1-.25c.12-.131.36-.131.5 0 .061.07.101.16.101.25s-.04.18-.101.25c-.07.061-.16.1-.25.1zM2.6-17.279c-.09 0-.18-.039-.25-.1-.06-.07-.1-.16-.1-.25s.04-.18.1-.25c.12-.12.36-.131.5 0 .061.07.101.16.101.25s-.04.18-.101.25c-.07.061-.16.1-.25.1zM10.1-7.779c-.09 0-.18-.039-.25-.1-.06-.07-.1-.16-.1-.25s.04-.18.1-.25c.131-.131.36-.131.49 0 .07.07.11.16.11.25s-.04.18-.101.25c-.069.061-.159.1-.249.1zM1.35-3.779c-.09 0-.18-.039-.25-.1-.06-.07-.1-.16-.1-.25s.04-.18.1-.25c.12-.12.36-.131.5 0 .06.07.1.16.1.25s-.04.18-.1.25c-.07.061-.16.1-.25.1zM11.35-.779c-.09 0-.18-.039-.25-.1-.06-.07-.1-.16-.1-.25s.04-.18.1-.25c.12-.12.37-.131.5 0 .061.07.101.16.101.25s-.04.18-.101.25c-.07.061-.16.1-.25.1zM18.6-4.529c-.09 0-.18-.039-.25-.1-.06-.07-.1-.16-.1-.25s.04-.189.1-.25c.12-.12.36-.131.49 0 .07.07.11.16.11.25s-.04.18-.101.25c-.069.061-.159.1-.249.1zM16.6-9.529c-.09 0-.18-.039-.25-.1-.06-.07-.1-.16-.1-.25s.04-.18.1-.25c.12-.131.36-.131.5 0 .061.07.101.16.101.25s-.04.18-.101.25c-.07.061-.16.1-.25.1zM19.85-14.029c-.09 0-.18-.039-.25-.1-.06-.07-.1-.16-.1-.25 0-.1.04-.19.11-.25.12-.12.359-.131.489 0 .061.06.101.15.101.25 0 .09-.04.18-.101.25-.069.061-.159.1-.249.1zM19.1-16.029c-.09 0-.18-.039-.25-.1-.06-.07-.1-.16-.1-.25 0-.1.04-.189.11-.25.109-.12.35-.131.489 0 .061.061.101.15.101.25 0 .09-.04.18-.101.25-.069.061-.159.1-.249.1zM16.6-17.029c-.09 0-.18-.039-.25-.1-.06-.07-.1-.16-.1-.25 0-.1.04-.189.11-.25.109-.12.35-.131.489 0 .061.061.101.15.101.25 0 .09-.04.18-.101.25-.069.061-.159.1-.249.1zM19.6-20.779c-.09 0-.18-.039-.25-.1-.06-.07-.1-.16-.1-.25 0-.1.04-.189.11-.25.12-.12.359-.131.489 0 .061.061.101.15.101.25 0 .09-.04.18-.101.25-.069.061-.159.1-.249.1zM19.35-24.779c-.09 0-.18-.039-.25-.1-.06-.07-.1-.16-.1-.25s.04-.18.1-.25c.12-.12.36-.131.5 0 .061.07.101.16.101.25s-.04.18-.101.25c-.07.061-.16.1-.25.1zM16.6-24.529c-.09 0-.18-.039-.25-.1-.06-.07-.1-.16-.1-.25s.04-.18.1-.25c.12-.131.36-.131.5 0 .061.07.101.16.101.25s-.04.18-.101.25c-.07.061-.16.1-.25.1zM32.85-21.029c-.09 0-.18-.039-.25-.1-.06-.07-.1-.16-.1-.25 0-.1.04-.189.11-.25.12-.131.35-.131.489 0 .061.061.101.15.101.25 0 .09-.04.18-.101.25-.069.061-.159.1-.249.1zM27.6-17.529c-.09 0-.18-.039-.25-.1-.06-.07-.1-.16-.1-.25s.04-.18.1-.25c.131-.131.36-.131.5 0 .061.07.101.16.101.25s-.04.18-.101.25c-.07.061-.16.1-.25.1zM32.35-16.029c-.09 0-.18-.039-.25-.1-.06-.07-.1-.16-.1-.25s.04-.18.1-.25c.131-.131.36-.131.5 0 .061.07.101.16.101.25s-.04.18-.101.25c-.07.061-.16.1-.25.1zM32.35-14.279c-.09 0-.18-.039-.239-.1-.07-.07-.11-.16-.11-.25 0-.1.04-.19.1-.25.131-.131.36-.131.5 0 .061.06.101.15.101.25 0 .09-.04.18-.101.25-.071.061-.161.1-.251.1zM34.35-13.529c-.09 0-.18-.039-.25-.1-.06-.07-.1-.16-.1-.25s.04-.18.1-.25c.131-.131.37-.131.5 0 .061.07.101.16.101.25s-.04.18-.101.25c-.07.061-.16.1-.25.1zM26.35-7.029c-.09 0-.18-.039-.25-.1-.06-.07-.1-.16-.1-.25s.04-.18.1-.25c.141-.131.36-.131.49 0 .07.07.11.16.11.25s-.04.18-.101.25c-.069.061-.159.1-.249.1zM36.35-15.529c-.09 0-.18-.039-.25-.1-.06-.07-.1-.16-.1-.25s.04-.18.1-.25c.15-.131.36-.131.49 0 .07.07.11.16.11.25s-.04.18-.101.25c-.069.061-.159.1-.249.1zM39.6-15.779c-.09 0-.18-.039-.239-.1-.07-.07-.11-.16-.11-.25s.04-.18.1-.25c.141-.131.36-.131.5 0 .061.07.101.16.101.25s-.04.18-.101.25c-.071.061-.161.1-.251.1zM42.1-21.029c-.09 0-.18-.039-.25-.1-.06-.07-.1-.16-.1-.25s.04-.18.1-.25c.141-.131.36-.131.5 0 .061.07.101.16.101.25s-.04.18-.101.25c-.07.061-.16.1-.25.1zM43.85-27.029c-.09 0-.18-.039-.25-.109-.06-.06-.1-.15-.1-.24s.04-.18.1-.25c.131-.131.36-.131.5 0 .061.07.101.16.101.25s-.04.18-.101.25c-.07.06-.16.099-.25.099zM51.35-21.279c-.09 0-.18-.039-.25-.1-.069-.08-.1-.16-.1-.25s.04-.18.1-.25c.141-.141.36-.131.5 0 .061.07.101.16.101.25s-.04.18-.101.25c-.07.061-.16.1-.25.1zM52.35-25.279c-.09 0-.18-.039-.25-.109-.06-.06-.1-.15-.1-.24 0-.1.04-.189.11-.25.109-.12.35-.131.489 0 .061.061.101.15.101.25 0 .09-.04.18-.101.25-.069.06-.159.099-.249.099zM55.35-24.779c-.1 0-.189-.039-.25-.109-.06-.06-.1-.15-.1-.24s.04-.189.1-.25c.131-.131.36-.131.49 0 .07.07.11.15.11.25 0 .09-.04.18-.101.25-.069.06-.159.099-.249.099zM55.35-17.529c-.1 0-.189-.039-.25-.109-.06-.06-.1-.15-.1-.24 0-.1.04-.189.11-.25.109-.12.35-.131.489 0 .061.061.101.15.101.25 0 .09-.04.18-.101.25-.069.06-.159.099-.249.099zM51.6-15.529c-.09 0-.18-.039-.25-.1-.06-.07-.1-.16-.1-.25s.04-.18.1-.25c.131-.131.37-.131.5 0 .07.07.101.16.101.25s-.04.18-.101.25c-.07.061-.15.1-.25.1zM51.35-8.029c-.09 0-.18-.039-.25-.1-.06-.07-.1-.16-.1-.25s.03-.18.1-.24c.15-.15.36-.141.49-.01.07.07.11.16.11.25s-.04.18-.101.25c-.069.061-.149.1-.249.1zM53.6-8.029c-.09 0-.18-.039-.25-.1-.06-.07-.1-.16-.1-.25 0-.1.04-.189.11-.25.109-.12.359-.131.489.01.061.051.101.141.101.24 0 .09-.04.18-.101.25-.069.061-.159.1-.249.1zM56.35-8.779c-.09 0-.18-.039-.25-.1-.06-.07-.1-.16-.1-.25s.04-.18.1-.25c.131-.131.351-.131.49 0 .07.07.11.16.11.25s-.04.18-.101.25c-.069.061-.159.1-.249.1zM58.6-10.279c-.09 0-.18-.039-.25-.109-.06-.061-.1-.15-.1-.24s.04-.18.1-.25c.131-.131.36-.131.5 0 .061.07.101.15.101.25 0 .09-.04.18-.101.25-.07.06-.16.099-.25.099zM21.35-44.779c-.09 0-.18-.039-.25-.1-.06-.07-.1-.16-.1-.25s.04-.18.1-.25c.141-.131.36-.131.49 0 .07.07.11.16.11.25s-.04.18-.101.25c-.069.061-.159.1-.249.1zM23.1-47.779c-.09 0-.18-.039-.25-.1-.06-.07-.1-.16-.1-.25s.04-.18.1-.25c.141-.131.36-.131.5 0 .061.07.101.16.101.25s-.04.18-.101.25c-.07.061-.16.1-.25.1zM39.35-47.029c-.09 0-.18-.039-.25-.1-.06-.07-.1-.16-.1-.25s.04-.18.1-.25c.131-.131.37-.131.5 0 .061.07.101.16.101.25s-.04.18-.101.25c-.07.061-.16.1-.25.1zM46.6-42.779c-.09 0-.18-.039-.25-.1-.069-.07-.1-.16-.1-.25s.04-.18.1-.24c.15-.15.36-.141.49-.01.07.07.11.16.11.25s-.04.18-.101.25c-.069.061-.159.1-.249.1zM55.6-43.779c-.09 0-.18-.039-.25-.1-.06-.07-.1-.16-.1-.25s.04-.18.1-.25c.12-.12.36-.141.5 0 .061.07.101.16.101.25s-.04.18-.101.25c-.07.061-.16.1-.25.1zM51.6-46.529c-.09 0-.18-.039-.25-.1-.06-.07-.1-.16-.1-.25s.04-.18.1-.25c.131-.131.37-.131.5 0 .07.07.101.16.101.25s-.04.18-.101.25c-.07.061-.16.1-.25.1zM52.35-42.279c-.1 0-.18-.039-.25-.1-.06-.07-.1-.16-.1-.25s.04-.18.1-.25c.141-.131.36-.131.49 0 .07.07.11.16.11.25s-.04.18-.101.25c-.069.061-.159.1-.249.1zM62.85-36.279c-.09 0-.18-.039-.25-.1-.06-.07-.1-.16-.1-.25 0-.1.04-.19.11-.25.109-.12.359-.131.489.01.061.051.101.141.101.24 0 .09-.04.18-.101.25-.069.061-.159.1-.249.1zM57.1-32.779c-.09 0-.18-.039-.25-.1-.06-.07-.1-.16-.1-.25s.04-.18.1-.25c.131-.131.36-.131.49 0 .07.07.11.16.11.25s-.04.18-.101.25c-.069.061-.159.1-.249.1zM48.6-34.529c-.09 0-.18-.039-.239-.1-.07-.07-.11-.16-.11-.25s.04-.18.1-.25c.12-.131.37-.131.5.01.061.06.101.141.101.24 0 .09-.04.18-.101.25-.071.061-.161.1-.251.1zM48.35-30.529c-.1 0-.189-.039-.25-.109-.06-.06-.1-.15-.1-.24s.04-.18.1-.25c.12-.12.36-.131.5 0 .061.07.101.16.101.25s-.04.18-.101.25c-.07.06-.16.099-.25.099zM53.85-26.779c-.09 0-.189-.039-.25-.109-.06-.051-.1-.141-.1-.24s.04-.18.11-.25c.109-.12.35-.131.489 0 .061.07.101.16.101.25s-.04.18-.101.25c-.069.06-.159.099-.249.099zM62.6-23.779c-.09 0-.18-.039-.25-.1-.06-.07-.1-.16-.1-.25 0-.1.04-.189.11-.25.109-.12.359-.131.489.01.061.051.101.141.101.24 0 .09-.04.18-.101.25-.069.061-.159.1-.249.1zM65.35-20.029c-.09 0-.18-.039-.25-.1-.06-.07-.1-.16-.1-.25 0-.1.04-.189.11-.25.109-.12.35-.131.489 0 .061.061.101.15.101.25 0 .09-.04.18-.101.25-.069.061-.159.1-.249.1zM69.85-26.779c-.09 0-.18-.039-.25-.1-.06-.07-.1-.16-.1-.25s.04-.18.1-.25c.12-.131.36-.131.5 0 .061.07.101.16.101.25s-.04.18-.101.25c-.07.061-.16.1-.25.1zM60.35-32.779c-.1 0-.189-.039-.25-.109-.06-.061-.1-.15-.1-.24s.04-.19.11-.25c.12-.131.35-.131.489 0 .061.07.101.16.101.25s-.04.18-.101.25c-.069.06-.149.099-.249.099zM32.85-24.779c-.09 0-.18-.039-.25-.1-.06-.07-.1-.16-.1-.25s.04-.18.1-.25c.141-.131.36-.131.49 0 .07.07.11.16.11.25s-.04.18-.101.25c-.069.061-.159.1-.249.1zM26.6-34.029c-.09 0-.18-.039-.25-.1-.06-.07-.1-.16-.1-.25s.04-.18.1-.25c.141-.131.36-.131.49 0 .07.07.11.16.11.25s-.04.18-.101.25c-.069.061-.159.1-.249.1zM30.1-36.279c-.09 0-.18-.039-.239-.1-.07-.07-.11-.16-.11-.25 0-.1.04-.19.11-.25.12-.12.359-.131.489 0 .061.06.101.15.101.25 0 .09-.04.18-.101.25-.07.061-.16.1-.25.1zM10.85-42.279c-.09 0-.18-.039-.25-.1-.06-.07-.1-.16-.1-.25s.04-.18.1-.25c.131-.12.36-.131.49 0 .07.06.11.15.11.25 0 .09-.04.18-.101.25-.069.061-.159.1-.249.1zM6.35-40.279c-.09 0-.18-.039-.25-.1-.06-.07-.1-.16-.1-.25s.04-.18.1-.25c.131-.131.36-.131.49 0 .07.06.11.15.11.25s-.04.18-.101.25c-.069.061-.159.1-.249.1zM2.85-36.529c-.09 0-.18-.039-.25-.1-.06-.07-.1-.16-.1-.25s.04-.18.1-.25c.12-.131.37-.131.5 0 .07.07.101.16.101.25s-.03.17-.101.24c-.07.071-.16.11-.25.11zM17.35-29.779c-.09 0-.18-.039-.25-.1-.06-.07-.1-.16-.1-.25 0-.1.04-.189.11-.25.13-.131.359-.131.489 0 .061.061.101.15.101.25 0 .09-.04.18-.101.25-.069.061-.149.1-.249.1zM13.1-35.779c-.09 0-.18-.039-.25-.1-.06-.07-.1-.16-.1-.25 0-.1.04-.19.11-.25.109-.12.35-.131.489 0 .061.06.101.15.101.25 0 .09-.04.18-.101.25-.069.061-.149.1-.249.1zM26.85-41.529c-.09 0-.18-.039-.25-.1-.06-.07-.1-.16-.1-.25s.04-.18.1-.25c.131-.131.37-.131.5 0 .061.07.101.16.101.25s-.04.18-.101.25c-.07.061-.16.1-.25.1zM39.6-41.029c-.09 0-.18-.039-.25-.1-.06-.07-.1-.16-.1-.25s.04-.18.1-.25c.131-.131.36-.131.5 0 .061.07.101.16.101.25s-.04.18-.101.25c-.07.061-.15.1-.25.1zM38.6-39.029c-.09 0-.18-.039-.25-.1-.06-.07-.1-.16-.1-.25s.04-.18.1-.25c.131-.131.37-.131.5 0 .061.07.101.16.101.25s-.04.18-.101.25c-.07.061-.16.1-.25.1zM28.35-29.779c-.09 0-.18-.039-.25-.1-.06-.07-.1-.16-.1-.25s.04-.18.1-.25c.131-.131.37-.131.5 0 .061.07.101.16.101.25s-.04.18-.101.25c-.07.061-.16.1-.25.1zM6.85-51.279c-.09 0-.18-.039-.25-.1-.06-.07-.1-.16-.1-.25s.04-.18.1-.25c.12-.131.36-.131.5 0 .061.07.101.16.101.25s-.04.18-.101.25c-.07.061-.16.1-.25.1zM10.1-53.029c-.09 0-.18-.039-.25-.1-.06-.07-.1-.16-.1-.25s.04-.18.1-.25c.131-.131.36-.131.49 0 .07.07.11.16.11.25s-.04.18-.101.25c-.069.061-.159.1-.249.1zM12.1-48.279c-.09 0-.18-.039-.25-.1-.06-.07-.1-.16-.1-.25 0-.1.04-.19.11-.25.109-.12.35-.131.489 0 .061.06.101.15.101.25 0 .09-.04.18-.101.25-.069.061-.149.1-.249.1zM3.35-46.029c-.09 0-.18-.039-.25-.1-.06-.07-.1-.16-.1-.25s.04-.18.1-.25c.12-.12.37-.131.5 0 .061.07.101.16.101.25s-.04.18-.101.25c-.07.061-.16.1-.25.1zM64.6-42.279c-.09 0-.18-.039-.239-.1-.07-.07-.11-.16-.11-.25s.04-.18.1-.25c.131-.131.36-.131.49 0 .07.07.11.16.11.25s-.04.18-.101.25c-.07.061-.16.1-.25.1zM69.85-42.029c-.09 0-.18-.039-.25-.1-.06-.07-.1-.16-.1-.25s.04-.19.11-.25c.109-.12.35-.131.489 0 .061.06.101.15.101.25 0 .09-.04.18-.101.25-.069.061-.149.1-.249.1zM1.85-62.779c-.09 0-.18-.039-.25-.1-.06-.07-.1-.16-.1-.25s.04-.18.1-.25c.12-.12.37-.131.5 0 .061.07.101.16.101.25s-.04.18-.101.25c-.07.061-.16.1-.25.1zM16.85-65.779c-.09 0-.18-.039-.25-.1-.06-.07-.1-.16-.1-.25 0-.1.04-.18.1-.25.12-.12.36-.131.5 0 .061.07.101.16.101.25s-.04.18-.101.25c-.07.061-.16.1-.25.1zM4.1-65.779c-.09 0-.18-.039-.25-.1-.06-.07-.1-.16-.1-.25s.04-.18.1-.25c.131-.131.36-.131.49 0 .07.07.11.16.11.25s-.04.18-.101.25c-.069.061-.159.1-.249.1zM13.1-57.529c-.09 0-.18-.039-.25-.1-.06-.07-.1-.16-.1-.25s.04-.18.1-.25c.131-.131.36-.131.49 0 .07.07.11.16.11.25s-.04.18-.101.25c-.069.061-.159.1-.249.1zM18.85-52.529c-.09 0-.18-.039-.25-.1-.06-.07-.1-.16-.1-.25s.04-.19.1-.25c.131-.131.36-.131.49 0 .07.07.11.16.11.25s-.04.18-.101.25c-.069.061-.159.1-.249.1zM21.6-34.779c-.09 0-.18-.039-.25-.1-.06-.07-.1-.16-.1-.25s.04-.19.1-.25c.12-.12.36-.131.49 0 .07.07.11.16.11.25s-.04.18-.101.25c-.069.061-.159.1-.249.1zM1.1-27.529c-.09 0-.18-.039-.25-.1-.06-.07-.1-.16-.1-.25 0-.1.04-.189.11-.25.109-.12.35-.131.489 0 .061.061.101.15.101.25 0 .09-.04.18-.101.25-.069.061-.159.1-.249.1zM68.35-5.779c-.09 0-.18-.039-.25-.1-.06-.07-.1-.16-.1-.25 0-.1.04-.189.11-.25.109-.12.35-.131.489 0 .061.061.101.15.101.25 0 .09-.04.18-.101.25-.069.061-.159.1-.249.1zM60.1-2.029c-.09 0-.18-.039-.25-.1-.069-.07-.1-.16-.1-.25s.04-.18.1-.25c.141-.131.36-.131.5 0 .061.061.101.15.101.25s-.04.18-.101.25c-.07.061-.16.1-.25.1zM40.85-3.779c-.09 0-.18-.039-.25-.1-.06-.07-.1-.16-.1-.25s.04-.18.1-.25c.131-.131.37-.131.5 0 .061.07.101.16.101.25s-.04.18-.101.25c-.07.061-.15.1-.25.1zM4.85-11.779c-.09 0-.18-.039-.25-.1-.06-.07-.1-.16-.1-.25s.04-.18.1-.25c.131-.131.36-.131.49 0 .07.07.11.16.11.25s-.04.18-.101.25c-.069.061-.159.1-.249.1zM26.85-12.279c-.09 0-.18-.039-.25-.1-.06-.07-.1-.16-.1-.25s.04-.18.1-.25c.141-.131.36-.131.49 0 .07.07.11.16.11.25s-.04.18-.101.25c-.069.061-.159.1-.249.1zM37.6-23.279c-.09 0-.18-.039-.25-.1-.06-.07-.1-.16-.1-.25 0-.1.04-.18.1-.25.141-.131.36-.131.5 0 .061.07.101.16.101.25s-.04.18-.101.25c-.07.061-.15.1-.25.1zM9.1-31.529c-.09 0-.18-.039-.25-.1-.06-.07-.1-.16-.1-.25s.04-.18.1-.25c.131-.131.351-.131.49 0 .07.07.11.16.11.25s-.04.18-.101.25c-.069.061-.159.1-.249.1zM52.6-33.779c-.09 0-.18-.039-.25-.109-.06-.061-.1-.15-.1-.24 0-.1.04-.19.11-.25.109-.12.35-.131.489 0 .061.06.101.15.101.25 0 .09-.04.18-.101.25-.069.06-.159.099-.249.099zM61.1-25.779c-.09 0-.18-.039-.25-.1-.06-.07-.1-.16-.1-.25 0-.1.04-.189.11-.25.109-.12.35-.131.489 0 .061.061.101.15.101.25 0 .09-.04.18-.101.25-.069.061-.159.1-.249.1zM51.6-5.529c-.09 0-.18-.039-.25-.1-.06-.07-.1-.16-.1-.25s.04-.18.1-.25c.141-.131.36-.131.5 0 .061.07.101.16.101.25s-.03.18-.101.25c-.07.061-.16.1-.25.1zM40.35-34.029c-.09 0-.18-.039-.25-.1-.06-.07-.1-.16-.1-.25s.04-.18.1-.25c.15-.131.36-.131.49 0 .07.07.11.16.11.25s-.04.18-.101.25c-.069.061-.159.1-.249.1zM27.85-58.279c-.09 0-.18-.039-.25-.1-.06-.07-.1-.16-.1-.25s.04-.18.1-.25c.141-.131.36-.131.49 0 .07.07.11.16.11.25s-.04.18-.101.25c-.069.061-.159.1-.249.1zM20.1-45.279c-.09 0-.18-.039-.25-.1-.06-.07-.1-.16-.1-.25s.04-.19.1-.25c.12-.12.36-.131.49 0 .07.07.11.16.11.25s-.04.18-.101.25c-.069.061-.159.1-.249.1zM12.1-70.029c-.09 0-.18-.039-.25-.1-.06-.07-.1-.16-.1-.25s.04-.18.1-.25c.12-.12.36-.131.5 0 .061.07.101.16.101.25s-.04.18-.101.25c-.07.061-.16.1-.25.1zM55.6-68.029c-.09 0-.18-.039-.25-.1-.06-.07-.1-.16-.1-.25 0-.1.04-.189.11-.25.109-.12.35-.131.489 0 .061.061.101.15.101.25 0 .09-.04.18-.101.25-.069.061-.159.1-.249.1zM47.6-2.029c-.09 0-.18-.039-.25-.1-.06-.07-.1-.15-.1-.25 0-.09.04-.18.1-.25.141-.131.36-.131.49 0 .07.07.11.16.11.25s-.04.18-.101.25c-.069.061-.159.1-.249.1zM5.1-31.529c-.09 0-.18-.039-.25-.1-.06-.07-.1-.16-.1-.25 0-.1.04-.19.11-.25.109-.12.35-.131.489 0 .061.06.101.15.101.25 0 .09-.04.18-.101.25-.069.061-.159.1-.249.1zM69.1-58.529c-.09 0-.18-.039-.25-.1-.06-.07-.1-.16-.1-.25s.04-.18.1-.25c.131-.131.36-.131.5 0 .061.07.101.15.101.25s-.04.18-.101.25c-.07.061-.16.1-.25.1zM23.6-57.779c-.09 0-.18-.039-.25-.1-.06-.07-.1-.16-.1-.25s.04-.18.1-.25c.141-.131.36-.131.49 0 .07.07.11.16.11.25s-.04.18-.101.25c-.069.061-.159.1-.249.1zM20.85-54.529c-.09 0-.18-.039-.25-.1-.06-.07-.1-.16-.1-.25s.04-.18.1-.25c.141-.131.36-.131.5 0 .061.07.101.16.101.25s-.04.18-.101.25c-.07.061-.16.1-.25.1zM15.1-54.529c-.09 0-.18-.039-.25-.1-.06-.07-.1-.16-.1-.25 0-.1.04-.19.11-.25.109-.12.35-.131.489 0 .061.06.101.15.101.25 0 .09-.04.18-.101.25-.069.061-.159.1-.249.1zM6.35-60.029c-.09 0-.18-.039-.25-.1-.06-.07-.1-.16-.1-.25s.04-.18.1-.25c.131-.131.36-.131.49 0 .07.06.11.15.11.25 0 .09-.04.18-.101.25-.069.061-.159.1-.249.1zM7.35-69.029c-.09 0-.17-.039-.239-.1-.071-.07-.111-.16-.111-.25s.04-.18.1-.25c.131-.131.36-.131.49 0 .07.07.11.16.11.25s-.04.18-.101.25c-.069.061-.159.1-.249.1zM10.35-63.529c-.09 0-.18-.039-.25-.1-.06-.07-.1-.16-.1-.25s.04-.18.1-.25c.131-.131.36-.131.49 0 .07.07.11.16.11.25s-.04.18-.101.25c-.069.061-.159.1-.249.1zM14.6-63.529c-.09 0-.18-.039-.25-.1-.06-.07-.1-.16-.1-.25 0-.1.04-.189.11-.25.109-.12.35-.131.489 0 .061.061.101.15.101.25 0 .09-.04.18-.101.25-.069.061-.159.1-.249.1zM26.1-64.779c-.09 0-.18-.039-.25-.1-.06-.07-.1-.16-.1-.25s.04-.18.1-.25c.141-.131.36-.131.49 0 .07.07.11.16.11.25s-.04.18-.101.25c-.069.061-.159.1-.249.1zM37.35-64.279c-.09 0-.18-.039-.25-.1-.06-.07-.1-.16-.1-.25s.04-.18.1-.25c.131-.131.36-.131.5 0 .061.07.101.16.101.25s-.04.18-.101.25c-.07.061-.16.1-.25.1zM37.85-67.529c-.09 0-.18-.039-.25-.1-.06-.07-.1-.16-.1-.25 0-.1.04-.189.11-.25.12-.131.359-.131.489 0 .061.061.101.15.101.25 0 .09-.04.18-.101.25-.069.061-.159.1-.249.1zM43.6-69.529c-.09 0-.18-.039-.25-.1-.06-.07-.1-.16-.1-.25s.04-.18.1-.25c.131-.131.36-.131.5 0 .061.07.101.16.101.25s-.04.18-.101.25c-.08.061-.16.1-.25.1zM49.85-63.529c-.09 0-.18-.039-.25-.1-.069-.07-.1-.16-.1-.25s.03-.18.1-.25c.141-.131.37-.131.5 0 .061.07.101.16.101.25s-.04.18-.101.25c-.07.061-.16.1-.25.1zM46.35-62.529c-.09 0-.18-.039-.25-.1-.06-.07-.1-.16-.1-.25s.04-.18.1-.25c.141-.131.36-.131.5 0 .061.07.101.16.101.25s-.04.18-.101.25c-.07.061-.15.1-.25.1zM36.1-60.779c-.09 0-.18-.039-.25-.1-.06-.07-.1-.16-.1-.25 0-.1.04-.18.1-.25.141-.131.36-.131.49 0 .07.07.11.16.11.25s-.04.18-.101.25c-.069.061-.159.1-.249.1zM39.6-56.779c-.09 0-.18-.039-.25-.1-.06-.07-.1-.16-.1-.25s.04-.18.1-.25c.141-.131.36-.131.49 0 .07.07.11.16.11.25s-.04.18-.101.25c-.069.061-.159.1-.249.1zM25.1-53.779c-.09 0-.18-.039-.25-.1-.06-.07-.1-.16-.1-.25s.04-.18.1-.25c.141-.131.36-.131.49 0 .07.07.11.16.11.25s-.04.18-.101.25c-.069.061-.159.1-.249.1zM8.6-44.529c-.09 0-.18-.039-.25-.1-.06-.07-.1-.16-.1-.25s.04-.18.1-.25c.131-.131.36-.131.49 0 .07.07.11.16.11.25s-.04.18-.101.25c-.069.061-.159.1-.249.1zM16.35-40.029c-.09 0-.18-.039-.25-.1-.06-.07-.1-.16-.1-.25s.04-.18.1-.25c.12-.12.36-.131.5 0 .061.07.101.16.101.25s-.04.18-.101.25c-.07.061-.16.1-.25.1zM10.85-38.279c-.09 0-.18-.039-.25-.1-.06-.07-.1-.16-.1-.25 0-.1.04-.19.11-.25.109-.12.35-.131.489 0 .061.06.101.15.101.25s-.04.18-.101.25c-.069.061-.159.1-.249.1zM5.6-34.779c-.09 0-.18-.039-.25-.1-.06-.07-.1-.16-.1-.25s.04-.18.1-.25c.12-.12.37-.131.5 0 .061.07.101.15.101.25 0 .09-.04.18-.101.25-.07.061-.16.1-.25.1zM3.6-51.279c-.09 0-.18-.039-.25-.1-.06-.07-.1-.16-.1-.25s.04-.18.1-.25c.12-.12.36-.131.5 0 .061.07.101.16.101.25s-.04.18-.101.25c-.07.061-.16.1-.25.1zM20.85-41.029c-.09 0-.18-.039-.25-.1-.06-.07-.1-.16-.1-.25 0-.1.04-.19.11-.25.13-.131.35-.131.489 0 .061.06.101.15.101.25 0 .09-.04.18-.101.25-.069.061-.159.1-.249.1zM17.85-36.279c-.09 0-.18-.039-.25-.1-.06-.07-.1-.16-.1-.25s.04-.18.1-.25c.141-.131.36-.131.5 0 .061.07.101.16.101.25s-.04.18-.101.25c-.07.061-.16.1-.25.1zM16.35-32.779c-.09 0-.18-.039-.25-.1-.06-.07-.1-.16-.1-.25 0-.1.04-.19.11-.25.109-.12.35-.131.489 0 .061.06.101.15.101.25 0 .09-.04.18-.101.25-.069.061-.149.1-.249.1zM13.1-30.529c-.09 0-.18-.039-.25-.1-.06-.07-.1-.16-.1-.25 0-.1.04-.189.11-.25.109-.12.35-.131.489 0 .061.061.101.15.101.25 0 .09-.04.18-.101.25-.069.061-.159.1-.249.1zM13.1-25.279c-.09 0-.18-.039-.25-.1-.06-.07-.1-.16-.1-.25 0-.1.04-.189.11-.25.109-.12.35-.131.489 0 .061.061.101.15.101.25 0 .09-.04.18-.101.25-.069.061-.159.1-.249.1zM6.1-23.279c-.09 0-.18-.039-.25-.1-.06-.07-.1-.16-.1-.25s.04-.18.1-.25c.12-.12.37-.131.5 0 .061.07.101.16.101.25s-.04.18-.101.25c-.07.061-.16.1-.25.1zM11.35-17.279c-.09 0-.18-.039-.25-.1-.06-.07-.1-.16-.1-.25s.04-.18.1-.25c.12-.12.37-.131.5 0 .061.07.101.16.101.25s-.04.18-.101.25c-.07.061-.16.1-.25.1zM15.85-13.279c-.09 0-.18-.039-.25-.1-.06-.07-.1-.16-.1-.25s.04-.18.1-.25c.131-.131.37-.131.5 0 .061.07.101.16.101.25s-.04.18-.101.25c-.07.061-.16.1-.25.1zM6.35-8.279c-.09 0-.18-.039-.25-.1-.06-.07-.1-.16-.1-.25s.04-.18.1-.25c.12-.12.36-.131.5 0 .06.061.1.15.1.25 0 .09-.04.18-.101.25-.069.061-.159.1-.249.1zM2.6-9.779c-.09 0-.18-.039-.25-.1-.06-.07-.1-.16-.1-.25s.04-.18.1-.25c.131-.12.36-.131.49 0 .07.07.11.15.11.25 0 .09-.04.18-.101.25-.069.061-.159.1-.249.1zM9.35-3.779c-.09 0-.18-.039-.25-.1-.06-.07-.1-.16-.1-.25s.04-.18.1-.25c.131-.131.351-.131.49 0 .07.07.11.16.11.25s-.04.18-.1.25c-.07.061-.15.1-.25.1zM13.85-2.279c-.09 0-.18-.039-.25-.1-.06-.07-.1-.16-.1-.25s.04-.18.1-.25c.12-.12.37-.131.5 0 .061.07.101.16.101.25s-.04.18-.101.25c-.07.061-.16.1-.25.1zM21.85-3.279c-.09 0-.18-.039-.25-.1-.06-.07-.1-.16-.1-.25 0-.1.04-.189.11-.25.12-.131.359-.131.489 0 .061.061.101.15.101.25 0 .09-.04.18-.101.25-.069.061-.159.1-.249.1zM23.35-6.029c-.09 0-.18-.039-.25-.1-.06-.07-.1-.16-.1-.25s.04-.18.1-.25c.131-.131.36-.131.5 0 .061.07.101.16.101.25s-.04.18-.101.25c-.07.061-.15.1-.25.1zM22.6-11.779c-.09 0-.18-.039-.25-.1-.06-.07-.1-.16-.1-.25s.04-.18.1-.25c.12-.12.36-.131.5 0 .061.07.101.16.101.25s-.04.18-.101.25c-.07.061-.15.1-.25.1zM24.6-14.279c-.09 0-.18-.039-.25-.1-.06-.07-.1-.16-.1-.25 0-.1.04-.18.1-.25.12-.12.36-.131.5 0 .061.07.101.15.101.25 0 .09-.04.18-.101.25-.07.061-.15.1-.25.1zM26.6-24.029c-.09 0-.18-.039-.25-.1-.06-.07-.1-.16-.1-.25s.04-.18.1-.25c.131-.131.36-.131.5 0 .061.07.101.16.101.25s-.04.18-.101.25c-.07.061-.16.1-.25.1zM26.1-28.279c-.09 0-.18-.039-.25-.1-.06-.07-.1-.16-.1-.25s.04-.18.1-.25c.131-.131.36-.131.5 0 .061.07.101.16.101.25s-.04.18-.101.25c-.07.061-.16.1-.25.1zM32.6-40.779c-.09 0-.18-.039-.25-.1-.06-.07-.1-.16-.1-.25 0-.1.04-.19.11-.25.12-.131.35-.131.489 0 .061.06.101.15.101.25 0 .09-.04.18-.101.25-.069.061-.159.1-.249.1zM34.6-44.029c-.09 0-.18-.039-.25-.1-.06-.07-.1-.16-.1-.25s.03-.18.1-.25c.131-.131.36-.131.5 0 .061.07.101.16.101.25s-.04.18-.101.25c-.07.061-.15.1-.25.1zM42.1-46.029c-.09 0-.18-.039-.25-.1-.06-.07-.1-.16-.1-.25s.04-.18.1-.25c.131-.131.37-.131.5 0 .061.07.101.16.101.25s-.04.18-.101.25c-.07.061-.16.1-.25.1zM43.35-51.029c-.09 0-.18-.039-.25-.109-.06-.061-.1-.141-.1-.24 0-.09.04-.18.1-.25.131-.131.36-.131.5 0 .061.07.101.16.101.25 0 .1-.04.18-.11.25-.061.06-.151.099-.241.099zM36.85-52.529c-.09 0-.18-.039-.25-.1-.069-.08-.1-.16-.1-.25s.03-.18.1-.24c.16-.15.37-.141.5-.01.061.07.101.16.101.25s-.04.18-.101.25c-.07.061-.16.1-.25.1zM28.1-49.529c-.09 0-.18-.039-.25-.1-.06-.07-.1-.16-.1-.25s.04-.18.1-.25c.131-.131.37-.131.5 0 .061.07.101.16.101.25s-.04.18-.101.25c-.07.061-.16.1-.25.1zM52.35-49.779c-.1 0-.189-.039-.25-.109-.06-.061-.1-.15-.1-.24s.04-.18.1-.25c.141-.131.36-.131.49 0 .07.07.11.16.11.25s-.04.18-.101.25c-.069.06-.149.099-.249.099zM43.6-54.029c-.09 0-.189-.039-.25-.1-.06-.07-.1-.16-.1-.25s.04-.18.1-.25c.12-.12.36-.131.5 0 .061.07.101.16.101.25s-.04.18-.101.25c-.07.061-.16.1-.25.1zM50.85-53.779c-.1 0-.18-.039-.25-.1-.06-.07-.1-.16-.1-.25s.04-.18.1-.25c.141-.131.36-.131.49 0 .07.07.11.16.11.25s-.04.18-.101.25c-.069.061-.159.1-.249.1zM59.85-54.529c-.09 0-.18-.039-.25-.1-.06-.07-.1-.16-.1-.25 0-.1.04-.19.11-.25.109-.12.35-.131.489 0 .061.06.101.15.101.25 0 .09-.04.18-.101.25-.069.061-.159.1-.249.1zM58.6-57.779c-.1 0-.18-.039-.25-.1-.06-.07-.1-.16-.1-.25s.04-.18.1-.25c.141-.131.36-.131.49 0 .07.07.11.16.11.25s-.04.18-.101.25c-.069.061-.159.1-.249.1zM61.85-60.779c-.09 0-.18-.039-.25-.1-.06-.07-.1-.16-.1-.25 0-.1.04-.19.11-.25.109-.12.359-.131.489.01.061.051.101.141.101.24 0 .09-.04.18-.101.25-.069.061-.159.1-.249.1zM59.1-64.279c-.09 0-.18-.039-.25-.1-.069-.07-.1-.16-.1-.25s.03-.18.1-.24c.15-.15.36-.141.49-.01.07.07.11.15.11.25 0 .09-.04.18-.101.25-.069.061-.159.1-.249.1zM60.35-67.029c-.09 0-.189-.039-.25-.109-.06-.061-.1-.15-.1-.24 0-.1.04-.189.11-.25.109-.12.35-.131.489 0 .061.061.101.15.101.25 0 .09-.04.18-.101.25-.069.06-.159.099-.249.099zM67.85-65.779c-.09 0-.18-.039-.25-.1-.06-.061-.1-.15-.1-.25s.04-.18.1-.25c.131-.12.37-.131.5 0 .061.07.101.16.101.25s-.04.18-.101.25c-.07.061-.16.1-.25.1zM71.1-63.279c-.09 0-.18-.039-.25-.1-.06-.061-.1-.15-.1-.25s.04-.18.1-.25c.131-.12.36-.131.49 0 .07.07.11.16.11.25s-.04.18-.101.25c-.069.061-.159.1-.249.1zM66.1-62.029c-.09 0-.18-.039-.25-.1-.06-.07-.1-.16-.1-.25 0-.1.04-.18.1-.25.12-.12.37-.131.5 0 .061.07.101.16.101.25s-.04.18-.101.25c-.07.061-.16.1-.25.1zM60.6-48.029c-.09 0-.18-.039-.25-.1-.06-.07-.1-.16-.1-.25s.04-.18.1-.25c.12-.131.37-.131.5 0 .061.07.101.16.101.25s-.04.18-.101.25c-.07.061-.16.1-.25.1zM55.85-48.029c-.09 0-.18-.039-.25-.1-.06-.07-.1-.16-.1-.25s.04-.18.1-.25c.12-.12.37-.131.5 0 .061.07.101.16.101.25s-.04.18-.101.25c-.07.061-.16.1-.25.1zM55.85-53.029c-.09 0-.189-.039-.25-.109-.06-.061-.1-.15-.1-.24 0-.1.04-.19.11-.25.109-.12.35-.131.489 0 .061.06.101.15.101.25 0 .09-.04.18-.101.25-.069.06-.159.099-.249.099zM65.35-46.029c-.09 0-.18-.039-.25-.1-.06-.07-.1-.16-.1-.25 0-.1.04-.19.11-.25.109-.12.35-.131.489 0 .061.06.101.15.101.25 0 .09-.04.18-.101.25-.069.061-.159.1-.249.1zM58.1-41.029c-.1 0-.189-.039-.25-.109-.06-.061-.1-.15-.1-.24 0-.1.04-.19.11-.25.109-.12.35-.131.489 0 .061.06.101.15.101.25 0 .09-.04.18-.101.25-.069.06-.159.099-.249.099zM53.1-39.029c-.09 0-.18-.039-.25-.109-.06-.061-.1-.15-.1-.24 0-.1.04-.19.11-.25.109-.12.35-.131.489 0 .061.06.101.15.101.25 0 .09-.04.18-.101.25-.069.06-.159.099-.249.099zM47.85-38.029c-.09 0-.18-.039-.25-.109-.06-.061-.1-.15-.1-.24 0-.1.04-.19.11-.25.109-.12.35-.131.489 0 .061.06.101.15.101.25 0 .09-.04.18-.101.25-.069.06-.159.099-.249.099zM44.6-32.529c-.09 0-.18-.039-.25-.109-.06-.061-.1-.15-.1-.24s.04-.18.1-.25c.141-.131.36-.131.5 0 .061.07.101.15.101.25s-.04.189-.11.25c-.061.06-.151.099-.241.099zM34.35-30.279c-.09 0-.18-.039-.25-.1-.06-.07-.1-.16-.1-.25s.04-.18.1-.25c.141-.131.36-.131.5 0 .061.07.101.16.101.25s-.04.18-.101.25c-.07.061-.16.1-.25.1zM41.1-23.779c-.09 0-.18-.039-.25-.1-.06-.07-.1-.16-.1-.25s.04-.18.1-.25c.141-.131.36-.131.49 0 .07.061.11.16.11.25s-.04.18-.101.25c-.069.061-.159.1-.249.1zM46.1-19.529c-.09 0-.18-.039-.25-.1-.06-.07-.1-.16-.1-.25 0-.1.04-.189.11-.25.12-.131.359-.131.489 0 .061.061.101.15.101.25 0 .09-.04.18-.101.25-.069.061-.159.1-.249.1zM46.85-15.029c-.09 0-.18-.039-.25-.1-.06-.07-.1-.16-.1-.25s.04-.18.1-.25c.15-.141.36-.131.49 0 .07.07.11.16.11.25s-.04.18-.101.25c-.069.061-.159.1-.249.1zM42.35-12.279c-.09 0-.18-.039-.239-.1-.07-.07-.11-.16-.11-.25s.04-.18.1-.25c.141-.131.36-.131.5 0 .061.07.101.16.101.25s-.04.18-.101.25c-.071.061-.161.1-.251.1zM40.35-9.029c-.09 0-.18-.039-.25-.1-.06-.07-.1-.16-.1-.25s.04-.18.1-.25c.131-.131.37-.131.5 0 .061.07.101.16.101.25s-.04.18-.101.25c-.07.061-.15.1-.25.1zM36.35-9.029c-.09 0-.18-.039-.25-.1-.06-.07-.1-.16-.1-.25 0-.1.04-.189.11-.25.12-.131.35-.131.489 0 .061.061.101.15.101.25 0 .09-.04.18-.101.25-.069.061-.159.1-.249.1zM36.85-19.029c-.09 0-.18-.039-.25-.1-.069-.07-.1-.16-.1-.25s.04-.18.1-.25c.141-.131.381-.131.5.01.061.051.101.141.101.24 0 .09-.04.18-.101.25-.07.061-.16.1-.25.1zM30.35-8.279c-.09 0-.18-.039-.239-.1-.071-.07-.111-.16-.111-.25 0-.1.04-.189.11-.25.12-.12.359-.131.489 0 .061.061.101.15.101.25 0 .09-.04.18-.101.25-.069.061-.159.1-.249.1zM31.85-3.279c-.09 0-.18-.039-.25-.1-.06-.07-.1-.16-.1-.25s.04-.18.1-.25c.131-.131.36-.131.5 0 .061.07.101.16.101.25s-.04.18-.101.25c-.07.061-.16.1-.25.1zM37.35-.779c-.09 0-.18-.039-.25-.1-.06-.061-.1-.16-.1-.25 0-.1.04-.189.11-.25.12-.12.359-.131.489 0 .061.061.101.15.101.25 0 .09-.04.189-.101.25-.069.061-.159.1-.249.1zM63.35-14.779c-.09 0-.18-.039-.25-.1-.06-.07-.1-.16-.1-.25 0-.1.04-.19.11-.25.109-.12.35-.131.489 0 .061.06.101.15.101.25 0 .09-.04.18-.101.25-.069.061-.159.1-.249.1zM60.35-21.029c-.1 0-.189-.039-.25-.109-.06-.06-.1-.15-.1-.24s.04-.189.11-.25c.12-.131.35-.131.479 0 .07.07.11.16.11.25s-.04.18-.101.25c-.068.06-.148.099-.248.099zM54.85-21.279c-.09 0-.18-.039-.25-.1-.06-.07-.1-.15-.1-.25s.04-.189.1-.25c.141-.131.36-.131.49 0 .07.07.11.16.11.25s-.04.18-.101.24c-.069.071-.149.11-.249.11zM55.1-30.029c-.09 0-.18-.039-.25-.109-.06-.051-.1-.15-.1-.24s.04-.18.1-.25c.131-.131.36-.131.5 0 .061.07.101.16.101.25s-.04.19-.11.25c-.061.06-.151.099-.241.099zM62.85-29.529c-.09 0-.18-.039-.25-.1-.06-.07-.1-.16-.1-.25s.04-.18.1-.25c.131-.131.36-.131.5 0 .061.07.101.16.101.25s-.04.18-.101.25c-.07.061-.16.1-.25.1zM67.35-24.279c-.09 0-.18-.039-.239-.1-.07-.07-.11-.16-.11-.25s.04-.18.1-.25c.131-.131.36-.131.49 0 .08.07.11.16.11.25s-.04.18-.101.25c-.07.061-.16.1-.25.1zM69.85-17.529c-.09 0-.18-.039-.239-.1-.07-.07-.11-.16-.11-.25s.04-.18.1-.25c.131-.131.36-.131.49 0 .07.07.11.16.11.25s-.04.18-.101.25c-.07.061-.16.1-.25.1zM63.85-10.029c-.09 0-.18-.039-.239-.1-.07-.07-.11-.16-.11-.25s.04-.18.1-.25c.131-.131.36-.131.49 0 .08.07.11.16.11.25s-.04.18-.101.25c-.07.061-.16.1-.25.1zM70.6-10.779c-.09 0-.18-.039-.25-.1-.06-.07-.1-.16-.1-.25 0-.1.04-.19.11-.25.1-.12.35-.131.489 0 .061.06.101.15.101.25 0 .09-.04.18-.101.25-.069.061-.159.1-.249.1zM65.1-6.279c-.09 0-.18-.039-.25-.1-.06-.07-.1-.16-.1-.25s.04-.18.1-.25c.12-.131.37-.131.5.01.061.061.101.15.101.24s-.04.18-.101.25c-.07.061-.16.1-.25.1zM66.1-3.529c-.09 0-.18-.039-.25-.1-.06-.07-.1-.16-.1-.25s.04-.18.1-.25c.12-.131.37-.131.5 0 .061.07.101.16.101.25s-.04.18-.101.25c-.07.061-.16.1-.25.1zM62.85-1.529c-.09 0-.18-.039-.25-.1-.06-.07-.1-.16-.1-.25s.04-.189.11-.25c.109-.12.359-.131.489.01.061.051.101.14.101.24 0 .09-.04.18-.101.25-.069.061-.159.1-.249.1zM53.1-2.029c-.1 0-.189-.039-.25-.1-.06-.07-.1-.16-.1-.25s.04-.18.1-.25c.141-.131.36-.131.49 0 .07.07.11.16.11.25s-.04.18-.101.25c-.069.061-.149.1-.249.1zM45.1-5.279c-.1 0-.18-.039-.25-.109-.06-.061-.1-.15-.1-.24 0-.1.04-.189.11-.25.109-.12.35-.131.489 0 .061.061.101.15.101.25 0 .09-.04.18-.101.25-.069.06-.159.099-.249.099zM28.85-.529c-.09 0-.18-.039-.25-.1-.06-.061-.1-.15-.1-.25s.04-.189.11-.25c.12-.131.35-.131.489 0 .061.061.101.15.101.25s-.04.189-.11.25c-.06.061-.15.1-.24.1zM3.35-42.279c-.09 0-.18-.039-.25-.1-.06-.07-.1-.16-.1-.25s.04-.18.1-.25c.12-.12.36-.131.5 0 .061.07.101.16.101.25s-.04.18-.101.25c-.07.061-.16.1-.25.1zM13.6-66.779c-.09 0-.18-.039-.25-.109-.06-.051-.1-.141-.1-.24 0-.09.04-.189.1-.25.131-.131.36-.131.49 0 .07.07.11.16.11.25 0 .1-.04.189-.11.25-.06.06-.15.099-.24.099zM70.6-37.279c-.09 0-.18-.039-.25-.1-.06-.07-.1-.16-.1-.25 0-.1.04-.19.11-.25.109-.12.35-.131.489 0 .061.06.101.15.101.25 0 .09-.04.18-.101.25-.069.061-.159.1-.249.1zM71.6-30.529c-.09 0-.18-.039-.25-.1-.06-.07-.1-.16-.1-.25s.04-.18.1-.25c.131-.131.36-.131.5 0 .061.07.101.16.101.25s-.04.18-.101.25c-.07.061-.16.1-.25.1zM1.35-20.029c-.09 0-.18-.039-.25-.1-.06-.07-.1-.16-.1-.25 0-.1.04-.189.11-.25.109-.12.35-.131.489 0 .061.061.101.15.101.25 0 .09-.04.18-.101.25-.069.061-.159.1-.249.1zM72.35-48.279c-.09 0-.18-.039-.25-.1-.06-.07-.1-.16-.1-.25s.04-.18.1-.25c.12-.12.36-.131.5 0 .061.07.101.16.101.25s-.04.18-.101.25c-.07.061-.16.1-.25.1zM69.35-45.279c-.09 0-.18-.039-.25-.1-.06-.07-.1-.16-.1-.25s.04-.18.1-.25c.12-.131.36-.131.5 0 .061.07.101.16.101.25s-.03.18-.101.25c-.07.061-.16.1-.25.1zM68.85-11.529c-.09 0-.18-.039-.25-.1-.06-.07-.1-.16-.1-.25 0-.1.04-.18.1-.25.12-.12.37-.131.5 0 .061.07.101.16.101.25s-.04.18-.101.25c-.07.061-.16.1-.25.1zM71.85-3.529c-.09 0-.18-.039-.25-.1-.06-.07-.1-.16-.1-.25s.04-.18.1-.25c.12-.131.36-.131.5 0 .061.07.101.16.101.25s-.03.18-.101.25c-.07.061-.16.1-.25.1zM.85-14.029c-.09 0-.18-.039-.25-.1-.06-.07-.1-.16-.1-.25s.04-.18.1-.25c.12-.12.36-.131.5 0 .061.07.101.16.101.25s-.04.18-.101.25c-.07.061-.16.1-.25.1zM3.1-.529c-.09 0-.18-.039-.25-.1-.06-.07-.1-.16-.1-.25s.04-.18.1-.25c.131-.131.36-.131.49 0 .07.07.11.16.11.25s-.04.18-.101.25c-.069.061-.159.1-.249.1zM70.6-47.779c-.09 0-.18-.039-.25-.1-.06-.07-.1-.16-.1-.25 0-.1.04-.19.11-.25.109-.12.35-.131.489 0 .061.06.101.15.101.25 0 .09-.04.18-.101.25-.069.061-.159.1-.249.1zM1.6-55.029c-.09 0-.18-.039-.25-.1-.06-.07-.1-.16-.1-.25s.04-.18.1-.25c.12-.12.36-.131.5 0 .061.07.101.16.101.25s-.04.18-.101.25c-.07.061-.16.1-.25.1zM18.35-58.729c-.17 0-.33-.07-.46-.19-.12-.13-.189-.29-.189-.46 0-.17.069-.34.189-.46.24-.24.681-.24.92 0 .12.12.19.29.19.46 0 .17-.07.34-.19.46s-.29.19-.46.19zM29.6-60.729c-.17 0-.34-.07-.46-.19-.12-.13-.189-.29-.189-.46 0-.17.069-.34.189-.46.25-.25.67-.24.92 0 .12.12.19.29.19.46 0 .17-.07.33-.19.46-.13.12-.29.19-.46.19zM29.6-68.229c-.17 0-.34-.07-.46-.19s-.189-.29-.189-.46c0-.18.069-.34.189-.46.24-.24.681-.24.92 0 .12.12.19.29.19.46s-.07.34-.19.46c-.13.12-.29.19-.46.19zM40.6-61.229c-.17 0-.33-.07-.46-.19-.12-.13-.189-.29-.189-.46 0-.17.069-.34.189-.46.24-.24.681-.24.92 0 .12.11.19.28.19.46 0 .17-.07.33-.19.46-.12.12-.29.19-.46.19zM45.35-59.729c-.18 0-.34-.07-.46-.201-.12-.119-.189-.279-.189-.449 0-.17.069-.34.189-.46.24-.24.681-.24.92 0 .12.11.19.28.19.46s-.07.34-.2.46c-.11.12-.27.19-.45.19zM47.6-48.729c-.17 0-.34-.07-.46-.19s-.189-.29-.189-.46c0-.17.069-.34.189-.46.23-.24.681-.24.92 0 .12.12.19.29.19.46 0 .17-.07.34-.19.46s-.29.19-.46.19zM55.1-64.729c-.18 0-.34-.07-.46-.19s-.189-.29-.189-.46.069-.34.189-.46c.23-.24.691-.24.92 0 .12.12.19.28.19.46 0 .17-.07.34-.19.46s-.28.19-.46.19zM64.35-64.979c-.17 0-.34-.07-.46-.19s-.189-.29-.189-.46.069-.34.189-.46c.24-.24.681-.24.92 0 .12.12.19.29.19.46s-.07.34-.19.46-.29.19-.46.19zM65.35-68.979c-.17 0-.34-.07-.46-.19-.12-.13-.189-.29-.189-.46s.069-.34.189-.46c.25-.24.67-.24.92 0 .12.13.19.29.19.46s-.06.33-.18.449c-.13.131-.3.201-.47.201zM69.85-53.479c-.17 0-.34-.07-.46-.19s-.189-.29-.189-.46c0-.17.069-.34.189-.46.24-.24.67-.25.92 0 .12.12.19.29.19.46 0 .17-.07.34-.19.46s-.29.19-.46.19zM8.35-24.479c-.18 0-.34-.07-.46-.19-.12-.13-.189-.29-.189-.46 0-.17.069-.34.189-.46.24-.24.681-.24.92 0 .12.12.19.29.19.46 0 .17-.07.33-.19.46-.12.12-.28.19-.46.19zM5.35-14.729c-.18 0-.34-.07-.46-.19s-.189-.29-.189-.46c0-.17.069-.34.189-.46.25-.25.681-.24.92 0 .12.12.19.29.19.46 0 .17-.07.34-.19.46s-.28.19-.46.19zM2.6-4.478c-.17 0-.34-.07-.46-.19-.12-.13-.189-.29-.189-.46s.069-.34.189-.46c.24-.24.681-.24.92 0 .12.12.19.29.19.46s-.07.33-.19.46c-.12.119-.29.19-.46.19zM18.1-1.729c-.17 0-.34-.07-.46-.19-.12-.13-.189-.29-.189-.46s.069-.34.189-.46c.24-.24.681-.24.92 0 .12.12.19.29.19.46s-.07.33-.19.46c-.12.12-.29.19-.46.19zM19.6-9.229c-.17 0-.34-.07-.46-.19s-.189-.29-.189-.46c0-.18.069-.34.189-.46.23-.24.681-.25.92 0 .12.12.19.29.19.46 0 .17-.07.33-.19.46-.12.12-.29.19-.46.19zM21.35-26.229c-.17 0-.34-.07-.46-.19s-.189-.29-.189-.46c0-.18.069-.34.189-.46.23-.24.681-.25.92 0 .12.12.19.29.19.46 0 .17-.07.33-.19.46-.12.12-.28.19-.46.19zM28.85-20.479c-.17 0-.34-.07-.46-.19s-.189-.29-.189-.46c0-.17.069-.34.189-.46.24-.24.681-.25.92 0 .12.12.19.29.19.46 0 .17-.07.33-.19.46-.12.12-.28.19-.46.19zM34.35-11.229c-.17 0-.34-.07-.46-.19s-.189-.29-.189-.46c0-.18.069-.34.189-.46.24-.24.681-.24.92 0 .12.11.19.28.19.46s-.07.34-.19.46-.29.19-.46.19zM34.6-4.728c-.18 0-.34-.07-.46-.19s-.189-.29-.189-.46.069-.34.189-.46c.25-.25.681-.24.92 0 .12.12.19.28.19.46s-.07.34-.19.46c-.12.119-.29.19-.46.19zM42.1-16.479c-.17 0-.34-.07-.46-.19s-.189-.29-.189-.46c0-.17.069-.34.189-.46.24-.24.681-.24.92 0 .12.12.19.29.19.46 0 .17-.07.34-.19.46s-.29.19-.46.19zM52.6-11.729c-.17 0-.34-.07-.46-.19s-.189-.29-.189-.46c0-.17.069-.34.189-.46.23-.24.681-.24.92 0 .12.12.19.29.19.46 0 .17-.07.34-.19.46s-.29.19-.46.19zM55.35-6.228c-.17 0-.34-.07-.46-.19-.12-.13-.189-.29-.189-.46 0-.18.069-.34.189-.46.23-.24.681-.24.92 0 .12.12.19.28.19.46 0 .17-.07.33-.19.46-.12.119-.29.19-.46.19zM25.6-46.979c-.17 0-.34-.07-.46-.19-.12-.13-.189-.29-.189-.46 0-.17.069-.34.189-.46.23-.24.681-.24.92 0 .12.12.19.29.19.46 0 .17-.07.33-.19.46-.12.12-.29.19-.46.19zM35.6-48.229c-.18 0-.34-.07-.46-.19s-.189-.29-.189-.46c0-.17.069-.34.189-.46.24-.24.681-.24.92 0 .12.12.19.28.19.46s-.07.34-.19.46-.28.19-.46.19zM45.35-41.979c-.17 0-.34-.07-.46-.19s-.189-.29-.189-.46c0-.17.069-.34.189-.46.23-.24.691-.24.92 0 .12.11.19.28.19.46s-.07.34-.2.46c-.11.12-.28.19-.45.19zM52.35-28.479c-.17 0-.34-.07-.46-.19s-.189-.29-.189-.46c0-.17.069-.34.189-.46.23-.24.67-.25.92 0 .12.12.19.28.19.46 0 .17-.07.34-.19.46s-.29.19-.46.19zM67.35-19.729c-.17 0-.34-.07-.46-.19s-.189-.29-.189-.46c0-.18.069-.34.2-.46.22-.229.67-.24.909 0 .12.12.19.29.19.46 0 .17-.07.34-.19.46s-.29.19-.46.19zM47.6-23.729c-.17 0-.34-.07-.46-.19s-.189-.29-.189-.46c0-.17.069-.34.189-.46.23-.24.681-.24.92 0 .12.12.19.29.19.46 0 .17-.07.34-.19.46s-.29.19-.46.19zM37.35-26.979c-.17 0-.34-.07-.46-.19-.12-.13-.189-.29-.189-.46 0-.17.069-.34.189-.46.24-.24.681-.24.92 0 .12.12.19.29.19.46 0 .17-.07.33-.19.46-.12.12-.29.19-.46.19zM17.35-42.979c-.17 0-.34-.07-.46-.19s-.189-.29-.189-.46c0-.17.069-.34.189-.46.25-.24.681-.24.92 0 .12.12.19.29.19.46 0 .17-.07.34-.19.46s-.28.19-.46.19zM11.6-34.729c-.17 0-.34-.07-.46-.19s-.189-.29-.189-.46c0-.18.069-.34.189-.46.25-.25.691-.24.92 0 .12.12.19.29.19.46 0 .17-.07.34-.19.46s-.291.19-.46.19zM67.85-40.729c-.17 0-.34-.07-.46-.19-.12-.13-.189-.29-.189-.46 0-.17.069-.34.189-.46.24-.24.681-.24.92 0 .12.12.19.28.19.46 0 .17-.07.34-.19.46s-.29.19-.46.19zM7.6-55.729c-.18 0-.34-.07-.46-.201-.12-.109-.189-.279-.189-.449 0-.17.069-.34.189-.46.24-.24.681-.25.92 0 .12.12.19.29.19.46 0 .17-.07.34-.19.46s-.28.19-.46.19zM8.85-66.229c-.17 0-.33-.07-.46-.19-.12-.12-.189-.29-.189-.46 0-.18.069-.34.189-.46.24-.24.681-.25.92 0 .12.12.19.28.19.46 0 .17-.07.34-.19.46s-.29.19-.46.19zM3.85-68.979c-.17 0-.34-.07-.46-.19-.12-.13-.189-.29-.189-.46s.069-.34.189-.46c.24-.24.67-.24.92 0 .12.12.19.29.19.46s-.07.33-.19.46c-.12.12-.29.19-.46.19zM66.85-34.229c-.17 0-.34-.07-.46-.19s-.189-.29-.189-.46c0-.17.069-.34.189-.46.24-.24.681-.24.92 0 .12.12.19.28.19.46 0 .17-.07.34-.19.46s-.28.19-.46.19zM44.35-8.479c-.17 0-.34-.07-.46-.19-.12-.13-.189-.29-.189-.46s.069-.34.189-.46c.23-.24.67-.25.92 0 .12.12.19.29.19.46s-.07.33-.19.46c-.12.12-.29.19-.46.19zM26.1-1.479c-.17 0-.34-.07-.46-.19-.12-.13-.189-.29-.189-.46s.069-.34.189-.46c.25-.25.681-.24.92 0 .12.12.19.29.19.46s-.07.33-.19.46c-.12.12-.29.19-.46.19zM22.35-29.729c-.17 0-.34-.07-.46-.19s-.189-.28-.189-.46.069-.34.189-.46c.24-.24.67-.24.92 0 .12.12.19.29.19.46 0 .17-.07.34-.19.46s-.29.19-.46.19zM24.35-42.479c-.17 0-.34-.07-.46-.19-.12-.13-.189-.29-.189-.46 0-.17.069-.34.189-.46.23-.24.681-.25.92 0 .12.12.19.28.19.46 0 .17-.07.34-.19.46s-.29.19-.46.19zM41.85-36.979c-.17 0-.34-.07-.46-.19s-.189-.29-.189-.46c0-.17.069-.34.189-.46.24-.24.681-.24.92 0 .12.12.19.29.19.46 0 .17-.07.33-.19.46-.12.12-.29.19-.46.19zM67.85-27.729c-.17 0-.34-.07-.46-.19-.12-.13-.189-.29-.189-.46 0-.17.069-.34.189-.46.24-.24.681-.24.92 0 .12.12.19.28.19.46 0 .17-.07.34-.19.46s-.29.19-.46.19zM53.6-56.479c-.17 0-.34-.07-.46-.19s-.189-.29-.189-.46c0-.17.069-.34.189-.46.24-.24.681-.24.92 0 .12.12.19.29.19.46 0 .17-.07.33-.19.46-.12.12-.29.19-.46.19zM34.35-55.479c-.17 0-.34-.07-.46-.19-.12-.13-.189-.29-.189-.46 0-.18.069-.34.189-.46.24-.24.691-.24.92 0 .12.12.19.28.19.46 0 .17-.07.34-.19.46s-.29.19-.46.19zM13.1-52.229c-.17 0-.34-.07-.46-.19s-.189-.29-.189-.46c0-.17.069-.34.189-.46.25-.25.681-.24.92 0 .12.12.19.29.19.46 0 .17-.07.34-.19.46s-.291.19-.46.19zM49.85-66.979c-.17 0-.34-.07-.46-.19s-.189-.29-.189-.46.069-.34.189-.46c.24-.24.67-.24.92 0 .12.12.19.29.19.46s-.07.34-.19.46-.29.19-.46.19zM59.35-50.729c-.17 0-.34-.07-.46-.19s-.189-.29-.189-.46c0-.17.069-.34.189-.46.25-.24.67-.24.92 0 .12.12.19.28.19.46 0 .17-.07.34-.19.46s-.29.19-.46.19zM67.85-14.229c-.17 0-.34-.07-.46-.19-.12-.13-.189-.29-.189-.46 0-.17.069-.34.189-.46.24-.24.681-.24.92 0 .12.12.19.28.19.46 0 .17-.07.34-.19.46s-.29.19-.46.19zM5.6-1.729c-.18 0-.34-.07-.46-.19s-.19-.29-.19-.46.069-.34.189-.46c.25-.25.681-.24.92 0 .12.12.19.29.19.46s-.07.34-.19.46c-.119.12-.279.19-.459.19zM3.1-58.229c-.18 0-.34-.07-.46-.201-.12-.109-.189-.279-.189-.449 0-.17.069-.34.189-.46.24-.25.681-.24.92 0 .12.12.19.29.19.46 0 .17-.07.34-.19.46s-.28.19-.46.19zM16.85-68.229c-.17 0-.34-.07-.46-.19s-.189-.29-.189-.46.069-.34.189-.46c.24-.24.681-.24.92 0 .12.12.19.29.19.46s-.07.34-.19.46-.29.19-.46.19zM40.85-66.979c-.17 0-.34-.07-.46-.19s-.189-.29-.189-.46.069-.34.189-.46c.25-.24.681-.24.92 0 .12.12.19.28.19.46 0 .17-.07.34-.19.46s-.29.19-.46.19zM3.1-39.479c-.18 0-.34-.07-.46-.19s-.189-.29-.189-.46c0-.17.069-.34.189-.46.24-.24.69-.24.92 0 .12.12.19.29.19.46 0 .17-.07.34-.19.46s-.29.19-.46.19zM7.85-46.479c-.18 0-.34-.07-.46-.19s-.189-.29-.189-.46c0-.17.069-.34.189-.46.24-.24.681-.24.92 0 .12.12.19.28.19.46 0 .17-.07.34-.19.46s-.28.19-.46.19zM4.35-24.729c-.17 0-.34-.07-.46-.19-.12-.13-.189-.29-.189-.46 0-.17.069-.34.189-.46.23-.24.67-.25.92 0 .12.12.19.29.19.46 0 .17-.07.33-.19.46-.12.12-.28.19-.46.19zM11.35-20.979c-.17 0-.34-.07-.46-.19-.12-.13-.189-.29-.189-.46 0-.18.069-.34.189-.46.24-.24.681-.24.92 0 .12.12.19.29.19.46 0 .17-.07.33-.19.46-.12.12-.291.19-.46.19zM10.35-11.729c-.18 0-.34-.07-.46-.19s-.189-.29-.189-.46c0-.17.069-.34.189-.46.24-.24.681-.24.92 0 .12.12.19.29.19.46 0 .17-.07.34-.19.46s-.28.19-.46.19zM13.85-5.728c-.17 0-.34-.07-.46-.19-.12-.13-.189-.29-.189-.46 0-.18.069-.34.189-.46.24-.24.681-.25.92 0 .12.12.19.29.19.46s-.07.33-.19.46c-.12.119-.291.19-.46.19zM22.35-18.229c-.17 0-.34-.07-.46-.19s-.189-.28-.189-.46.069-.35.2-.46c.22-.24.67-.24.909 0 .12.12.19.29.19.46 0 .17-.07.33-.19.46-.12.12-.29.19-.46.19zM31.6-33.979c-.17 0-.34-.07-.46-.19-.12-.13-.189-.29-.189-.46 0-.17.069-.34.189-.46.24-.24.681-.24.92 0 .12.12.19.29.19.46 0 .17-.07.33-.19.46-.12.12-.29.19-.46.19zM26.35-37.479c-.17 0-.34-.07-.46-.19s-.189-.29-.189-.46c0-.17.069-.34.189-.46.25-.25.681-.24.92 0 .12.12.19.29.19.46 0 .17-.07.34-.19.46s-.29.19-.46.19zM37.6-42.979c-.17 0-.34-.07-.46-.19-.12-.13-.189-.29-.189-.46 0-.17.069-.34.189-.46.24-.24.67-.24.92 0 .12.12.19.29.19.46 0 .17-.07.33-.19.46-.12.12-.29.19-.46.19zM62.1-54.979c-.17 0-.34-.07-.46-.19-.12-.13-.189-.29-.189-.46 0-.17.069-.34.189-.46.24-.24.681-.24.92 0 .12.12.19.28.19.46 0 .17-.07.34-.19.46s-.29.19-.46.19zM61.6-44.479c-.18 0-.34-.07-.46-.19-.12-.13-.189-.29-.189-.46 0-.17.069-.34.189-.46.24-.24.681-.24.92 0 .12.12.19.29.19.46 0 .17-.07.34-.19.46s-.28.19-.46.19zM59.1-14.479c-.17 0-.34-.07-.46-.19-.12-.13-.189-.29-.189-.46 0-.17.069-.34.189-.46.24-.24.681-.24.92 0 .12.12.19.29.19.46 0 .17-.07.33-.19.46-.12.12-.29.19-.46.19zM59.6-27.229c-.18 0-.34-.07-.46-.19s-.189-.29-.189-.46c0-.17.069-.34.189-.46.24-.24.681-.24.92 0 .12.12.19.29.19.46 0 .17-.07.34-.19.46s-.28.19-.46.19zM56.1-35.979c-.17 0-.34-.07-.46-.19-.12-.13-.189-.29-.189-.46 0-.17.069-.34.189-.46.24-.24.681-.24.92 0 .12.12.19.29.19.46 0 .17-.07.33-.19.46-.12.12-.29.19-.46.19zM69.6-.979c-.17 0-.33-.07-.46-.19-.12-.12-.189-.29-.189-.46s.069-.34.189-.46c.23-.229.681-.24.92 0 .12.12.19.29.19.46s-.07.34-.19.46-.29.19-.46.19zM61.1-5.728c-.17 0-.34-.07-.46-.19s-.189-.29-.189-.46.069-.34.189-.46c.24-.24.681-.25.92 0 .12.12.19.28.19.46 0 .17-.07.34-.19.46-.12.119-.29.19-.46.19zM44.85-.229c-.17 0-.34-.07-.46-.19s-.189-.29-.189-.46c0-.17.069-.34.189-.46.24-.24.691-.24.92 0 .12.12.19.29.19.46 0 .17-.07.34-.19.46s-.29.19-.46.19zM24.85-70.479c-.17 0-.34-.07-.46-.19s-.189-.29-.189-.46c0-.18.069-.34.189-.46.23-.24.681-.25.92 0 .12.12.19.29.19.46s-.07.33-.19.46c-.12.12-.28.19-.46.19zM.35-48.279c-.09 0-.18-.039-.25-.1-.06-.07-.1-.16-.1-.25s.04-.18.1-.25c.12-.12.36-.131.5 0 .061.07.101.16.101.25s-.04.18-.101.25c-.07.061-.16.1-.25.1z"/></pattern><g id="Layer_3"><linearGradient id="SVGID_1_" gradientUnits="userSpaceOnUse" x1="-128.019" y1="139.559" x2="169.57" y2="139.05" gradientTransform="matrix(-1 0 0 1 122.582 0)"><stop offset="0" stop-color="#DFE1FD"/><stop offset=".166" stop-color="#E7E9FD"/><stop offset=".498" stop-color="#F3F4FE"/><stop offset=".794" stop-color="#fff"/></linearGradient><path class="st2" d="M13.881 11.424h78.566c.422.357.843.723 1.259 1.111 9.721 9.042 13.544 22.855 22.299 32.835 7.716 8.796 19.226 14.144 30.925 14.369 10.761.207 22.766-3.388 31.5 2.901 5.639 4.06 8.076 11.132 12.093 16.802 5.312 7.498 13.786 12.675 22.881 13.981 17.959 2.577 38.193-8.891 53.365 1.058 7.302 4.788 11.13 13.572 12.254 22.231 1.124 8.659-.059 17.425-.661 26.136-1.066 15.421.287 32.446 10.901 43.685 11.968 12.672 33.061 15.012 42.305 29.789 6.827 10.913 8.22 43.226-5.705 49.912-2.594 1.245-5.583 1.269-8.46 1.269l-33.095-.003c-86.109-.009-172.822-2.035-258.514-.53-3.926.069-7.983-.189-11.913-.9v-254.646z"/><linearGradient id="SVGID_2_" gradientUnits="userSpaceOnUse" x1="61.993" y1="139.572" x2="359.582" y2="139.063" gradientTransform="translate(107.883)"><stop offset="0" stop-color="#DFE1FD"/><stop offset=".166" stop-color="#E7E9FD"/><stop offset=".498" stop-color="#F3F4FE"/><stop offset=".794" stop-color="#fff"/></linearGradient><path class="st3" d="M406.583 11.424h-78.566c-.422.357-.843.723-1.259 1.111-9.721 9.042-13.544 22.855-22.299 32.835-7.716 8.796-19.226 14.144-30.925 14.369-10.761.207-22.766-3.388-31.5 2.901-5.639 4.06-8.076 11.132-12.093 16.802-5.312 7.498-13.786 12.675-22.881 13.981-17.959 2.577-38.193-8.891-53.365 1.058-7.302 4.788-11.13 13.572-12.254 22.231-1.124 8.659.059 17.425.661 26.136 1.066 15.421-.287 32.446-10.901 43.685-11.968 12.672-33.061 15.012-42.305 29.789-6.827 10.913-8.22 43.226 5.705 49.912 2.594 1.245 5.583 1.269 8.46 1.269l33.095-.003c86.11-.009 172.822-2.035 258.514-.53 3.926.069 7.983-.189 11.913-.9v-254.646z"/><path class="st89" d="M132.17 151.87c-15.263 9.451-10.514 31.55-10.308 46.824l.681 50.521c.014 1.014-1.562 1.015-1.576 0l-.813-60.379c-.192-14.211-2.623-29.755 11.221-38.327.865-.535 1.657.828.795 1.361zM123.695 159.558c.695-1.466 1.422-2.937 2.462-4.182 1.588-1.901 3.8-3.152 5.961-4.362l.318.17c1.248 3.246 1.897 6.807 1.246 10.223-.65 3.417-2.735 6.659-5.87 8.167-2.299 1.106-5.016 1.25-7.162 2.63-.606-4.359 1.159-8.67 3.045-12.646zM107.708 132.752c15.158 6.013 11.896 29.007 12.507 41.965 1.036 21.975 1.596 43.949 1.452 65.95-.007 1.014-1.582 1.016-1.576 0 .12-18.293-.179-36.584-.947-54.862-.347-8.259-.762-16.516-1.152-24.773-.453-9.587-.012-22.52-10.703-26.761-.932-.369-.526-1.894.419-1.519zM118.084 159.199l.074-.231c.231.366.447.744.613 1.159l-.687-.928zM106.844 134.091c.091-.21.199-.434.401-.541.229-.121.508-.056.756.017 4.931 1.463 8.823 5.645 10.511 10.503 1.662 4.783 1.321 10.117-.354 14.898-1.884-2.975-5.711-4.462-8.391-6.93-4.757-4.379-5.487-12.012-2.923-17.947z"/><path class="st90" d="M113.727 267.039h13.746c3.418 0 6.189-2.771 6.189-6.189v-20.164h-26.124v20.164c-.001 3.418 2.77 6.189 6.189 6.189z"/><path class="st89" d="M119.913 209.397c.237-6.089.514-13.301-4.009-18.074-3.531-3.726-12.585-6.293-17.66-6.425-1.012-.026-1.016-1.602 0-1.576 3.87.1 7.908 1.635 11.553 2.872 2.682.911 5.22 1.918 7.221 4.014 4.858 5.09 4.725 12.652 4.471 19.188-.039 1.012-1.615 1.017-1.576.001zM96.545 182.689c.091-.104.248-.11.386-.109l5.716.049c1.649.014 3.319.031 4.915.446 3.222.837 5.83 3.218 7.868 5.849l.593.091c-2.973.949-5.892 2.193-8.996 2.516-3.104.323-6.543-.464-8.488-2.904-1.238-1.554-1.721-3.568-2.048-5.529-.023-.141-.04-.302.054-.409z"/><path class="st91" d="M351.682 208.277c-.121-1.835-.257-3.727-1.085-5.369-5.796 7.01-7.967 16.865-5.653 25.662l1.709 1.587c2.82-2.656 4.345-6.456 4.941-10.284.596-3.827.343-7.73.088-11.596zM367.263 218.234c-.124-.141-.317-.192-.5-.233-3.797-.849-7.958.116-10.993 2.549s-4.883 6.284-4.88 10.175l1.152 1.391c2.429.663 4.969-.576 6.984-2.085 3.685-2.758 6.573-6.568 8.234-10.861.119-.307.22-.689.003-.936zM329.55 218.024c-2.583-2.099-5.588-4.15-8.911-3.947-.351.021-.755.104-.919.415-.363.689.799 1.207 1.025 1.951.132.434-.082.887-.171 1.332-.164.814.095 1.65.402 2.421 3.038 7.623 11.64 12.6 19.763 11.435l1.011-1.587c-3.672-4.384-7.763-8.414-12.2-12.02zM339.071 230.526c5.795 5.503 6.539 13.668 5.54 21.201-.217 1.64 2.363 1.624 2.579 0 1.088-8.206-.032-17.077-6.295-23.024-1.204-1.143-3.03.677-1.824 1.823zM344.731 227.911c1.225 7.243-.337 14.561.437 21.838.174 1.633 2.754 1.651 2.579 0-.799-7.516.738-15.033-.529-22.524-.277-1.632-2.762-.94-2.487.686zM352.288 227.398c-2.127 3.192-4.276 6.675-5.27 10.417-1.079 4.06-.771 8.628-.957 12.799-.074 1.659 2.505 1.656 2.579 0 .176-3.931-.109-8.293.865-12.113.889-3.488 3.027-6.826 5.01-9.801.922-1.385-1.31-2.677-2.227-1.302z"/><path class="st90" d="M355.193 266.855h-14.393c-.591 0-1.109-.398-1.26-.97l-4.9-18.497c-.219-.827.405-1.637 1.26-1.637h24.194c.856 0 1.479.81 1.26 1.637l-4.9 18.497c-.152.572-.669.97-1.261.97z"/><path class="st92" d="M349.942 205.694c-1.917 7.225-1.933 14.759-3.678 22.017-.056.233.303.333.359.099 1.745-7.258 1.762-14.794 3.678-22.017.062-.232-.298-.331-.359-.099zM352.312 229.882c3.04-4.76 7.444-8.247 12.775-10.11.225-.079.128-.439-.099-.359-5.426 1.896-9.904 5.436-12.998 10.281-.129.203.193.39.322.188zM321.501 216.384c1.161 2.918 3.202 4.95 5.752 6.736 3.676 2.575 8.405 3.844 11.774 6.733.212.182.523-.126.309-.309-2.344-2.01-5.33-2.839-7.984-4.354-3.811-2.175-7.743-4.685-9.43-8.923-.103-.258-.526-.145-.421.117z"/><path id="XMLID_32_" class="st93" d="M327.202 267.506h-191.933v-174.999c0-4.186 3.394-7.58 7.58-7.58h176.772c4.186 0 7.58 3.394 7.58 7.58v174.999z"/><linearGradient id="XMLID_34_" gradientUnits="userSpaceOnUse" x1="135.269" y1="97.138" x2="327.202" y2="97.138"><stop offset="0" stop-color="#E040FB"/><stop offset=".254" stop-color="#C570FA"/><stop offset=".606" stop-color="#A2AEF8"/><stop offset=".865" stop-color="#8CD4F7"/><stop offset="1" stop-color="#84E3F7"/></linearGradient><path id="XMLID_31_" class="st23" d="M327.202 109.349v-17.771c0-3.673-2.978-6.65-6.65-6.65h-178.632c-3.673 0-6.651 2.977-6.651 6.65v17.772h191.933z"/><path id="XMLID_30_" class="st1" d="M151.907 97.138c0 1.158-.938 2.095-2.094 2.095-1.157 0-2.094-.937-2.094-2.095 0-1.156.937-2.093 2.094-2.093 1.156-.001 2.094.936 2.094 2.093z"/><path id="XMLID_29_" class="st1" d="M161.303 97.138c0 1.158-.938 2.095-2.095 2.095-1.157 0-2.094-.937-2.094-2.095 0-1.156.937-2.093 2.094-2.093 1.157-.001 2.095.936 2.095 2.093z"/><path id="XMLID_28_" class="st1" d="M170.699 97.138c0 1.158-.938 2.095-2.094 2.095-1.157 0-2.094-.937-2.094-2.095 0-1.156.937-2.093 2.094-2.093 1.156-.001 2.094.936 2.094 2.093z"/><circle class="st91" cx="145.199" cy="121.895" r="1.683"/><circle class="st91" cx="145.199" cy="131.782" r="1.683"/><circle class="st91" cx="145.199" cy="141.67" r="1.683"/><circle class="st91" cx="145.199" cy="151.557" r="1.683"/><circle class="st91" cx="145.199" cy="161.445" r="1.683"/><circle class="st91" cx="145.199" cy="171.332" r="1.683"/><path class="st95" d="M135.269 225.705h59.342c2.067 0 3.742-1.675 3.742-3.742v-33.482c0-2.067-1.675-3.742-3.742-3.742h-59.342v40.966z"/><path class="st96" d="M135.269 225.52h59.149c2.06 0 3.73-1.67 3.73-3.73v-33.321c0-2.06-1.67-3.73-3.73-3.73h-59.149v40.781z"/><path class="st97" d="M135.269 225.335h58.956c2.053 0 3.718-1.664 3.718-3.718v-33.161c0-2.053-1.664-3.717-3.718-3.717h-58.956v40.596z"/><path class="st98" d="M135.269 225.151h58.763c2.046 0 3.705-1.659 3.705-3.705v-33c0-2.046-1.659-3.705-3.705-3.705h-58.763v40.41z"/><path class="st99" d="M135.269 224.966h58.571c2.04 0 3.693-1.654 3.693-3.693v-32.84c0-2.04-1.653-3.693-3.693-3.693h-58.571v40.226z"/><path class="st100" d="M135.269 224.781h58.378c2.033 0 3.681-1.648 3.681-3.681v-32.68c0-2.033-1.648-3.681-3.681-3.681h-58.378v40.042z"/><path class="st101" d="M135.269 224.596h58.185c2.026 0 3.669-1.643 3.669-3.669v-32.519c0-2.026-1.643-3.669-3.669-3.669h-58.185v39.857z"/><path class="st102" d="M135.269 224.412h57.992c2.02 0 3.657-1.637 3.657-3.657v-32.359c0-2.02-1.637-3.657-3.657-3.657h-57.992v39.673z"/><path class="st103" d="M135.269 224.227h57.799c2.013 0 3.645-1.632 3.645-3.645v-32.198c0-2.013-1.632-3.645-3.645-3.645h-57.799v39.488z"/><path class="st104" d="M135.269 224.042h57.606c2.006 0 3.632-1.626 3.632-3.632v-32.038c0-2.006-1.626-3.632-3.632-3.632h-57.606v39.302z"/><path class="st105" d="M135.269 223.857h57.413c1.999 0 3.62-1.621 3.62-3.62v-31.877c0-1.999-1.621-3.62-3.62-3.62h-57.413v39.117z"/><path class="st106" d="M135.269 223.673h57.22c1.993 0 3.608-1.615 3.608-3.608v-31.717c0-1.993-1.615-3.608-3.608-3.608h-57.22v38.933z"/><path class="st107" d="M135.269 223.488h57.028c1.986 0 3.596-1.61 3.596-3.596v-31.557c0-1.986-1.61-3.596-3.596-3.596h-57.028v38.749z"/><path class="st108" d="M135.269 223.303h56.835c1.979 0 3.584-1.605 3.584-3.584v-31.396c0-1.979-1.604-3.584-3.584-3.584h-56.835v38.564z"/><path class="st109" d="M135.269 223.118h56.642c1.973 0 3.572-1.599 3.572-3.572v-31.236c0-1.973-1.599-3.572-3.572-3.572h-56.642v38.38z"/><path class="st110" d="M135.269 222.934h56.449c1.966 0 3.559-1.594 3.559-3.559v-31.075c0-1.966-1.594-3.559-3.559-3.559h-56.449v38.193z"/><path class="st111" d="M135.269 222.749h56.256c1.959 0 3.547-1.588 3.547-3.547v-30.915c0-1.959-1.588-3.547-3.547-3.547h-56.256v38.009z"/><path class="st112" d="M135.269 222.564h56.063c1.952 0 3.535-1.583 3.535-3.535v-30.754c0-1.952-1.583-3.535-3.535-3.535h-56.063v37.824z"/><path class="st113" d="M135.269 222.379h55.87c1.946 0 3.523-1.577 3.523-3.523v-30.594c0-1.946-1.577-3.523-3.523-3.523h-55.87v37.64z"/><path class="st114" d="M135.269 222.195h55.678c1.939 0 3.511-1.572 3.511-3.511v-30.434c0-1.939-1.572-3.511-3.511-3.511h-55.678v37.456z"/><path class="st115" d="M135.269 222.01h55.485c1.932 0 3.499-1.566 3.499-3.499v-30.273c0-1.932-1.566-3.499-3.499-3.499h-55.485v37.271z"/><path class="st116" d="M135.269 221.825h55.292c1.926 0 3.486-1.561 3.486-3.486v-30.113c0-1.926-1.561-3.486-3.486-3.486h-55.292v37.085z"/><path class="st117" d="M135.269 221.64h55.099c1.919 0 3.474-1.555 3.474-3.474v-29.952c0-1.919-1.555-3.474-3.474-3.474h-55.099v36.9z"/><path class="st118" d="M135.269 221.456h54.906c1.912 0 3.462-1.55 3.462-3.462v-29.792c0-1.912-1.55-3.462-3.462-3.462h-54.906v36.716z"/><path class="st119" d="M135.269 221.271h54.713c1.905 0 3.45-1.545 3.45-3.45v-29.631c0-1.905-1.545-3.45-3.45-3.45h-54.713v36.531z"/><path class="st120" d="M135.269 221.086h54.52c1.899 0 3.438-1.539 3.438-3.438v-29.471c0-1.899-1.539-3.438-3.438-3.438h-54.52v36.347z"/><path class="st121" d="M135.269 220.901h54.327c1.892 0 3.426-1.534 3.426-3.426v-29.311c0-1.892-1.534-3.426-3.426-3.426h-54.327v36.163z"/><path class="st122" d="M135.269 220.717h54.135c1.885 0 3.413-1.528 3.413-3.413v-29.15c0-1.885-1.528-3.413-3.413-3.413h-54.135v35.976z"/><path class="st123" d="M135.269 220.532h53.942c1.879 0 3.401-1.523 3.401-3.401v-28.99c0-1.879-1.523-3.401-3.401-3.401h-53.942v35.792z"/><path class="st124" d="M135.269 220.347h53.749c1.872 0 3.389-1.517 3.389-3.389v-28.829c0-1.872-1.517-3.389-3.389-3.389h-53.749v35.607z"/><path class="st125" d="M135.269 220.162h53.556c1.865 0 3.377-1.512 3.377-3.377v-28.669c0-1.865-1.512-3.377-3.377-3.377h-53.556v35.423z"/><path class="st126" d="M135.269 219.978h53.363c1.858 0 3.365-1.506 3.365-3.365v-28.508c0-1.858-1.506-3.365-3.365-3.365h-53.363v35.238z"/><path class="st127" d="M135.269 219.793h53.17c1.852 0 3.353-1.501 3.353-3.353v-28.348c0-1.852-1.501-3.353-3.353-3.353h-53.17v35.054z"/><path class="st128" d="M135.269 219.608h52.977c1.845 0 3.34-1.496 3.34-3.34v-28.188c0-1.845-1.496-3.34-3.34-3.34h-52.977v34.868z"/><path class="st129" d="M135.269 219.423h52.784c1.838 0 3.328-1.49 3.328-3.328v-28.027c0-1.838-1.49-3.328-3.328-3.328h-52.784v34.683z"/><path class="st130" d="M135.269 219.239h52.592c1.831 0 3.316-1.485 3.316-3.316v-27.867c0-1.831-1.485-3.316-3.316-3.316h-52.592v34.499z"/><path class="st131" d="M135.269 219.054h52.399c1.825 0 3.304-1.479 3.304-3.304v-27.706c0-1.825-1.479-3.304-3.304-3.304h-52.399v34.314z"/><path class="st132" d="M135.269 218.869h52.206c1.818 0 3.292-1.474 3.292-3.292v-27.546c0-1.818-1.474-3.292-3.292-3.292h-52.206v34.13z"/><path class="st133" d="M135.269 218.684h52.013c1.811 0 3.28-1.468 3.28-3.28v-27.385c0-1.811-1.468-3.28-3.28-3.28h-52.013v33.945z"/><path class="st134" d="M135.269 218.5h51.82c1.805 0 3.267-1.463 3.267-3.268v-27.225c0-1.805-1.463-3.267-3.267-3.267h-51.82v33.76z"/><path class="st135" d="M135.269 218.315h51.627c1.798 0 3.255-1.457 3.255-3.255v-27.065c0-1.798-1.457-3.255-3.255-3.255h-51.627v33.575z"/><path class="st90" d="M135.269 218.13h51.434c1.791 0 3.243-1.452 3.243-3.243v-26.904c0-1.791-1.452-3.243-3.243-3.243h-51.434v33.39z"/><path class="st1" d="M292.219 262.785h-105.977c-1.181 0-2.138-.957-2.138-2.138v-29.936c0-1.181.957-2.138 2.138-2.138h105.977c1.181 0 2.138.957 2.138 2.138v29.936c0 1.181-.957 2.138-2.138 2.138z"/><path class="st136" d="M184.104 232.647v-1.936c0-1.181.957-2.138 2.138-2.138h105.977c1.181 0 2.138.957 2.138 2.138v1.936h-110.253z"/><path class="st137" d="M192.795 236.041h94.05v1.976h-94.05zM192.795 240.87h94.05v1.976h-94.05zM192.795 245.698h94.05v1.976h-94.05z"/><path class="st138" d="M192.795 250.527h35.758v1.976h-35.758z"/><path id="XMLID_20_" class="st139" d="M139.122 261.858l1.542-.001c.312 0 .565-.253.565-.566l-.002-1.967c0-.312-.254-.565-.566-.564l-1.206.001c-.2 0-.372-.129-.442-.316l-.139-.333c-.083-.182-.053-.395.088-.536l.853-.854c.221-.221.221-.579 0-.799l-1.391-1.39c-.221-.221-.579-.221-.799 0l-.86.86c-.135.135-.339.174-.515.099l-.37-.15c-.179-.07-.296-.242-.296-.434v-1.219c0-.312-.253-.565-.565-.565h-1.966c-.312 0-.565.253-.565.565v1.207c0 .199-.129.371-.316.441l-.35.146c-.182.084-.395.054-.536-.087l-.856-.851c-.221-.22-.579-.219-.799.002l-1.387 1.395c-.22.221-.219.579.002.799l.863.858c.136.135.175.338.1.515l-.149.369c-.07.179-.241.296-.433.296l-1.219.003c-.312.001-.564.254-.564.566l.005 1.967c.001.312.255.565.567.564l1.207-.003c.2 0 .372.129.443.315l.139.333c.083.182.054.395-.087.537l-.852.855c-.22.221-.219.579.002.8l1.393 1.387c.221.22.579.22.799-.001l.859-.862c.135-.136.338-.174.515-.099l.369.149c.179.069.296.242.296.434l.002 1.219c0 .312.254.565.566.564l1.966-.003c.312 0 .565-.254.564-.566l-.002-1.207c0-.2.129-.372.315-.442l.333-.139c.182-.083.395-.053.536.088l.855.853c.221.22.579.22.799-.001l1.389-1.392c.221-.221.22-.579-.001-.799l-.861-.859c-.135-.135-.174-.339-.099-.515.126-.296.255-.646.261-.667zm-7.825-2.046c.327-1.738 2.128-2.72 3.747-2.096 1.23.474 1.979 1.804 1.735 3.1-.327 1.738-2.128 2.72-3.747 2.097-1.23-.475-1.979-1.806-1.735-3.101z"/><path class="st140" d="M331.352 267.039h-7.607c-1.534 0-2.777-1.243-2.777-2.777v-7.607c0-1.534 1.243-2.777 2.777-2.777h7.607c1.534 0 2.777 1.243 2.777 2.777v7.607c0 1.534-1.243 2.777-2.777 2.777z"/><path class="st1" d="M324.101 260.851v.019l1.783.584v.992l-2.855-1.163v-.859l2.855-1.163v.988l-1.783.602zM327.259 263.011h-1.101l1.605-5.106h1.101l-1.605 5.106zM330.996 260.864v-.019l-1.767-.588v-.988l2.839 1.163v.859l-2.839 1.163v-.988l1.767-.602z"/><ellipse id="XMLID_17_" transform="matrix(.161 -.987 .987 .161 13.657 303.046)" class="st91" cx="184.994" cy="143.494" rx="8.324" ry="8.324"/><path id="XMLID_59_" class="st1" d="M183.893 146.867l-2.891-2.892 1.652-1.652 1.239 1.24 3.441-3.442 1.652 1.652z"/><path class="st95" d="M327.202 120.067h-104.887c-2.401 0-4.347 1.946-4.347 4.347v47.696c0 2.401 1.946 4.347 4.347 4.347h104.886v-56.39z"/><path class="st96" d="M327.202 120.067h-104.59c-2.394 0-4.335 1.941-4.335 4.335v47.438c0 2.394 1.941 4.335 4.335 4.335h104.59v-56.108z"/><path class="st97" d="M327.202 120.067h-104.294c-2.387 0-4.323 1.935-4.323 4.323v47.18c0 2.387 1.935 4.323 4.323 4.323h104.294v-55.826z"/><path class="st98" d="M327.202 120.067h-103.998c-2.381 0-4.31 1.93-4.31 4.31v46.923c0 2.381 1.93 4.31 4.31 4.31h103.998v-55.543z"/><path class="st99" d="M327.202 120.067h-103.702c-2.374 0-4.298 1.924-4.298 4.298v46.664c0 2.374 1.924 4.298 4.298 4.298h103.702v-55.26z"/><path class="st100" d="M327.202 120.067h-103.406c-2.367 0-4.286 1.919-4.286 4.286v46.407c0 2.367 1.919 4.286 4.286 4.286h103.405v-54.979z"/><path class="st101" d="M327.202 120.067h-103.109c-2.36 0-4.274 1.913-4.274 4.274v46.149c0 2.36 1.913 4.274 4.274 4.274h103.109v-54.697z"/><path class="st102" d="M327.202 120.067h-102.813c-2.353 0-4.261 1.908-4.261 4.261v45.891c0 2.353 1.908 4.261 4.261 4.261h102.813v-54.413z"/><path class="st103" d="M327.202 120.067h-102.517c-2.347 0-4.249 1.902-4.249 4.249v45.633c0 2.347 1.902 4.249 4.249 4.249h102.517v-54.131z"/><path class="st104" d="M327.202 120.067h-102.221c-2.34 0-4.237 1.897-4.237 4.237v45.375c0 2.34 1.897 4.237 4.237 4.237h102.221v-53.849z"/><path class="st105" d="M327.202 120.067h-101.925c-2.333 0-4.224 1.891-4.224 4.224v45.117c0 2.333 1.891 4.224 4.224 4.224h101.924v-53.565z"/><path class="st106" d="M327.202 120.067h-101.628c-2.326 0-4.212 1.886-4.212 4.212v44.86c0 2.326 1.886 4.212 4.212 4.212h101.628v-53.284z"/><path class="st107" d="M327.202 120.067h-101.332c-2.32 0-4.2 1.88-4.2 4.2v44.602c0 2.32 1.88 4.2 4.2 4.2h101.332v-53.002z"/><path class="st108" d="M327.202 120.067h-101.036c-2.313 0-4.188 1.875-4.188 4.188v44.344c0 2.313 1.875 4.188 4.188 4.188h101.036v-52.72z"/><path class="st109" d="M327.202 120.067h-100.74c-2.306 0-4.175 1.869-4.175 4.175v44.086c0 2.306 1.869 4.175 4.175 4.175h100.739v-52.436z"/><path class="st110" d="M327.202 120.067h-100.443c-2.299 0-4.163 1.864-4.163 4.163v43.828c0 2.299 1.864 4.163 4.163 4.163h100.443v-52.154z"/><path class="st111" d="M327.202 120.067h-100.147c-2.292 0-4.151 1.858-4.151 4.151v43.57c0 2.292 1.858 4.151 4.151 4.151h100.147v-51.872z"/><path class="st112" d="M327.202 120.067h-99.851c-2.286 0-4.138 1.853-4.138 4.139v43.313c0 2.286 1.853 4.138 4.138 4.138h99.851v-51.59z"/><path class="st113" d="M327.202 120.067h-99.555c-2.279 0-4.126 1.847-4.126 4.126v43.055c0 2.279 1.847 4.126 4.126 4.126h99.555v-51.307z"/><path class="st114" d="M327.202 120.067h-99.258c-2.272 0-4.114 1.842-4.114 4.114v42.797c0 2.272 1.842 4.114 4.114 4.114h99.258v-51.025z"/><path class="st115" d="M327.202 120.067h-98.962c-2.265 0-4.102 1.836-4.102 4.102v42.539c0 2.265 1.836 4.102 4.102 4.102h98.962v-50.743z"/><path class="st116" d="M327.202 120.067h-98.666c-2.258 0-4.089 1.831-4.089 4.089v42.281c0 2.258 1.831 4.089 4.089 4.089h98.666v-50.459z"/><path class="st117" d="M327.202 120.067h-98.37c-2.252 0-4.077 1.825-4.077 4.077v42.023c0 2.252 1.825 4.077 4.077 4.077h98.37v-50.177z"/><path class="st118" d="M327.202 120.067h-98.073c-2.245 0-4.065 1.82-4.065 4.065v41.765c0 2.245 1.82 4.065 4.065 4.065h98.073v-49.895z"/><path class="st119" d="M327.202 120.067h-97.777c-2.238 0-4.053 1.814-4.053 4.053v41.508c0 2.238 1.814 4.053 4.053 4.053h97.777v-49.614z"/><path class="st120" d="M327.202 120.067h-97.481c-2.231 0-4.04 1.809-4.04 4.04v41.25c0 2.231 1.809 4.04 4.04 4.04h97.481v-49.33z"/><path class="st121" d="M327.202 120.067h-97.185c-2.225 0-4.028 1.803-4.028 4.028v40.992c0 2.225 1.803 4.028 4.028 4.028h97.185v-49.048z"/><path class="st122" d="M327.202 120.067h-96.889c-2.218 0-4.016 1.798-4.016 4.016v40.734c0 2.218 1.798 4.016 4.016 4.016h96.889v-48.766z"/><path class="st123" d="M327.202 120.067h-96.592c-2.211 0-4.003 1.792-4.003 4.003v40.476c0 2.211 1.792 4.003 4.003 4.003h96.592v-48.482z"/><path class="st124" d="M327.202 120.067h-96.296c-2.204 0-3.991 1.787-3.991 3.991v40.218c0 2.204 1.787 3.991 3.991 3.991h96.296v-48.2z"/><path class="st125" d="M327.202 120.067h-96c-2.198 0-3.979 1.781-3.979 3.979v39.961c0 2.197 1.781 3.979 3.979 3.979h96v-47.919z"/><path class="st126" d="M327.202 120.067h-95.704c-2.191 0-3.967 1.776-3.967 3.967v39.703c0 2.191 1.776 3.967 3.967 3.967h95.704v-47.637z"/><path class="st127" d="M327.202 120.067h-95.408c-2.184 0-3.954 1.77-3.954 3.954v39.445c0 2.184 1.77 3.954 3.954 3.954h95.408v-47.353z"/><path class="st128" d="M327.202 120.067h-95.112c-2.177 0-3.942 1.765-3.942 3.942v39.187c0 2.177 1.765 3.942 3.942 3.942h95.111v-47.071z"/><path class="st129" d="M327.202 120.067h-94.815c-2.17 0-3.93 1.759-3.93 3.93v38.929c0 2.17 1.759 3.93 3.93 3.93h94.815v-46.789z"/><path class="st130" d="M327.202 120.067h-94.519c-2.164 0-3.918 1.754-3.918 3.918v38.671c0 2.164 1.754 3.917 3.918 3.917h94.519v-46.506z"/><path class="st131" d="M327.202 120.067h-94.223c-2.157 0-3.905 1.748-3.905 3.905v38.414c0 2.157 1.748 3.905 3.905 3.905h94.223v-46.224z"/><path class="st132" d="M327.202 120.067h-93.927c-2.15 0-3.893 1.743-3.893 3.893v38.156c0 2.15 1.743 3.893 3.893 3.893h93.927v-45.942z"/><path class="st133" d="M327.202 120.067h-93.63c-2.143 0-3.881 1.737-3.881 3.881v37.898c0 2.143 1.737 3.881 3.881 3.881h93.63v-45.66z"/><path class="st134" d="M327.202 120.067h-93.334c-2.136 0-3.868 1.732-3.868 3.868v37.64c0 2.136 1.732 3.868 3.868 3.868h93.334v-45.376z"/><path class="st135" d="M327.202 120.067h-93.038c-2.13 0-3.856 1.726-3.856 3.856v37.382c0 2.13 1.726 3.856 3.856 3.856h93.038v-45.094z"/><path class="st90" d="M327.202 120.067h-92.742c-2.123 0-3.844 1.721-3.844 3.844v37.124c0 2.123 1.721 3.844 3.844 3.844h92.742v-44.812z"/><path class="st1" d="M351.675 112.679h-119.574c-2.528 0-4.577 2.049-4.577 4.577v45.864c0 2.528 2.049 4.577 4.577 4.577h119.574c2.528 0 4.577-2.049 4.577-4.577v-45.864c-.001-2.528-2.05-4.577-4.577-4.577z"/><path class="st137" d="M234.633 123.59h113.65v1.75h-113.65zM234.633 128.686h113.65v1.75h-113.65z"/><path class="st141" d="M234.633 133.782h47.61v1.75h-47.61z"/><path class="st137" d="M234.633 148.711h113.65v1.75h-113.65zM234.633 153.808h113.65v1.75h-113.65z"/><path class="st141" d="M234.633 158.904h47.61v1.75h-47.61z"/><path class="st136" d="M227.524 118.12v-2.864c0-2.528 2.049-2.577 4.577-2.577h119.574c2.528 0 4.577.049 4.577 2.577v2.864h-128.728z"/><path class="st142" d="M287.368 157.799s2.171-1.984 2.171-5.008h6.591s.129 4.16 1.706 5.008h-10.468zM276.845 165.495l-13.609 3.945c-.513.149-1.054.171-1.577.065l-14.391-2.92-1.113-2.784-.173.058c-.605.204-1.013.772-1.013 1.411v.819l-.903.416-2.873.672-.727.475h-2.68l.964.883c.144.131.323.217.516.246l6.442.966 2.955.529 11.625 4.769c.768.315 1.616.377 2.422.176l14.831-3.694-.696-6.032zM307.442 165.495l13.609 3.945c.513.149 1.054.171 1.577.065l14.391-2.92 1.113-2.784.173.058c.605.204 1.013.772 1.013 1.411v.819l.903.416 2.873.672.727.475h2.68l-.964.883c-.144.131-.323.217-.516.246l-6.442.966-2.956.529-11.625 4.769c-.768.315-1.616.377-2.422.176l-14.831-3.694.697-6.032zM292.978 143.4c-.219-.795-.722-1.554-1.48-1.878l1.01-.831c-.442.019-.887.056-1.31.186-.425.131-.813.35-1.21.546-.597.295-.915.342-1.214.972l-.945 1.993c-.139.292-.278.586-.371.896-.137.455-.171.933-.204 1.406l-.083 1.182c-.025.352-.049.706-.012 1.056.047.443.191.87.335 1.292.256.752.509 1.833 1.177 2.32.709.516 1.479.967 2.384.972.197.001.404-.021.567-.132.162-.11.257-.292.34-.469 1.021-2.174 1.112-4.652 1.186-7.052.025-.825.049-1.664-.17-2.459zM307.765 264.629h-4.575v-3.829h4.575z"/><path class="st139" d="M306.835 263.436h-3.722l-.698 2.094v1.008c0 .557.451 1.008 1.008 1.008h3.877l4.11-1.551v-.709c0-1.162-.557-2.253-1.499-2.933l-2.146-1.552v2.481l-.93.154z"/><path class="st143" d="M303.423 266.15h3.877l4.031-1.521c.04.216.078.433.078.657v.709l-4.11 1.551h-3.877c-.557 0-1.008-.451-1.008-1.008v-1.008l.049-.146c.112.436.489.766.96.766z"/><path class="st142" d="M279.382 260.8h4.575v3.829h-4.575z"/><path class="st143" d="M281.363 200.044s-.977 6.657-1.737 13.088c-.165 1.395-.245 2.797-.245 4.202v44.474000000000004h4.575s3.535-15.493 4.248-25.821c.189-2.74.663-5.45 1.259-8.131l4.806-21.634v-5.293l-12.906-.885zM305.819 201.744s1.026 5.743 1.793 12.231c.097.819.148 1.643.148 2.467v45.366l-4.57.081s-3.914-14.878-4.396-26.231c-.077-1.805-.413-3.585-.789-5.352l-5.132-17.471v-11.906l12.946.815z"/><path class="st139" d="M280.312 263.436h3.722l.698 2.094v1.008c0 .557-.451 1.008-1.008 1.008h-3.877l-4.11-1.551v-.709c0-1.162.557-2.253 1.499-2.933l2.146-1.552v2.481l.93.154z"/><path class="st143" d="M283.724 266.15h-3.877l-4.031-1.521c-.04.216-.078.433-.078.657v.709l4.11 1.551h3.877c.557 0 1.008-.451 1.008-1.008v-1.008l-.049-.146c-.112.436-.489.766-.96.766z"/><path class="st136" d="M297.836 157.363l5.123 1.592c1.873.582 11.543 7.6 11.543 7.6l-2.871 7.088-6.197-2.246 1.312 34.182c-3.981-3.363-17.052 5.045-27.365-1.314 0 0 4.73-21.858 1.551-32.248l-7.23 1.503-3.366-7.184 4.674-2.927c.8-.501 1.589-1.026 2.309-1.636 1.669-1.414 3.613-2.472 5.714-3.105l4.335-1.306h10.468z"/><path class="st143" d="M299.045 147.233c-.108-.719.083-1.446.144-2.17.089-1.049-.086-2.04-.569-2.984-.38-.744-.825-1.474-1.455-2.023-1.221-1.064-2.953-1.299-4.572-1.279-.493.006-.997.034-1.453.222-.359.148-.676.391-1.047.507-.246.077-.506.095-.756.155-.342.082-.66.24-.967.412-.32.179-.64.383-.852.683-.569.807-.422 2.434-.055 3.296l.475.958c.491 1.204.041 2.603.37 3.862.228.871.81 1.605 1.137 2.445.206.53.314 1.109.635 1.579.649.95 1.791 1.062 2.818 1.285 1.273.276 2.426.688 3.755.712 2.306.042 1.806-2.064 2.524-3.557.165-.342.402-.651.51-1.014.305-1.026-.484-2.034-.642-3.089z"/><path class="st142" d="M206.719 88.408l-5.882 4.622-1.655 20.065v4.333c0 .336.147.654.401.872.208.178.474.277.748.277h2.619v2.623c0 .384.311.695.695.695.389 0 .702-.319.695-.708l-.084-4.367.483-.051c.444-.048.756-.461.679-.901l-.148-.849c-.013-.414-.195-.804-.503-1.08l-.827-.74-.989-1.552 2.231-13.963 5.723-3.965-4.186-5.311zM260.71 86.606l21.113 18.545 5.482 2.669h3.361c.428 0 .776.347.776.776 0 .428-.347.776-.776.776h-9.586c-.824 0-1.588-.429-2.017-1.131l-.446-.73-16.756-11.791-6.42-3.728 5.269-5.386z"/><path class="st143" d="M237.786 72.343l9.07 3.232c1.169.417 2.262 1.022 3.236 1.792l11.079 8.766-6.275 6.413s-6.424-3.76-6.689-3.166c-.688 1.541-1.156 13.716-1.156 13.716l.827 6.249h-26.796l.552-6.524-2.595-12.343-7.839 3.753-4.986-6.462 11.171-10.591c.775-.735 1.669-1.334 2.644-1.772l6.819-3.062h10.938z"/><path class="st145" d="M221.249 107.404h26.374l.257 1.941h-26.795z"/><path class="st142" d="M232.392 81.911c2.456 0 4.447-1.991 4.447-4.447v-4.085h-8.895v4.085c0 2.456 1.992 4.447 4.448 4.447z"/><path class="st139" d="M225.34 63.702c.054-.487.069-1.472.166-1.952.197-.971.899-2.051 1.59-2.761.574-.59.351-.534 1.027-1.004 1.188-.826 3.229-1.155 4.67-1.067.613.038 1.219.195 1.803.37.136.041 1.632.967 1.359 1.106.649-.328 1.453-.01 1.994.475.874.783 1.314 1.928 1.724 3.028l.587 1.574c.177.473.354 1.001.167 1.471l-.318.583c-.236.526-.067 1.133-.027 1.708.058.83-.192 1.669-.658 2.355-.441.648-1.149.857-1.619 1.392l.241-.077c-1.976 1.234-4.48 1.099-6.803.923l-3.301-.25c-.591-.045-1.243-.118-1.64-.558-.405-.448-.404-1.119-.6-1.691-.26-.759-.88-1.363-1.088-2.138-.314-1.175.593-2.276.726-3.487z"/><path class="st142" d="M232.332 77.411c3.028 0 5.482-2.454 5.482-5.482v-7.654h-10.964v7.654c0 3.028 2.454 5.482 5.482 5.482z"/><path class="st139" d="M225.495 64.53c.518-1.132 1.614-1.919 2.79-2.326 1.177-.406 2.44-.476 3.684-.504.634-.015 1.273-.019 1.897.099.756.143 1.465.462 2.166.778l1.486.671c.465.21.949.435 1.257.84.55.724.362 1.756.052 2.611l-.192.152c-1.474-.195-2.561-1.416-3.591-2.489-.058-.06-.121-.123-.202-.141-.103-.022-.205.032-.297.083-1.566.862-3.39 1.097-5.167 1.288-1.333.143-2.853.21-3.822-.716l-.102-.151c-.014-.067.012-.134.041-.195zM237.834 72.755c.203-1.108.214-2.251.027-3.361-.418.586-.579 1.315-.909 1.955-.33.64-.952 1.237-1.668 1.155-.849-.097-1.31-1.05-2.061-1.458-.456-.248-1.008-.28-1.515-.17-.507.11-.976.353-1.415.629-.562.354-1.182.789-1.827.632-.42-.102-.745-.445-.951-.826-.206-.38-.315-.804-.464-1.21-.035-.095-.077-.164-.172-.192-.591 1.194-.384 3.049.042 4.26.479 1.361 1.467 2.555 2.763 3.188.999.488 2.139.634 3.249.565.782-.049 1.572-.207 2.251-.598.998-.575 1.661-1.599 2.096-2.665.25-.613.435-1.253.554-1.904z"/><path class="st142" d="M97.461 262.695h-5.787v-6.249h5.787zM64.744 262.029l-5.567-1.58 1.706-6.012 5.567 1.58z"/><path class="st140" d="M87.158 207.376l10.593 21.045.417 30.934h-7.107l-.679-25.989-10.861-15.514z"/><path class="st146" d="M88.002 209.055l-2.663 5.015-.519 11.351-5.299-7.569 7.637-10.476z"/><path class="st140" d="M87.158 207.376l.279.553-3.26 6.14-8.202 19.401c-.54 1.278-1.302 2.45-2.25 3.464l-7.897 21.97-6.273-.676 4.009-17.073c.7-3.137 1.838-6.182 3.567-8.891.431-.675.754-1.386.754-2l2.909-17.979-.493-1.954c-.435-1.727-.295-3.548.4-5.188l.767-1.809 15.69 4.042z"/><path class="st147" d="M98.168 179.194l7.779 10.441c.229.338.592.563.997.617l12.457 1.657c.59.088 1.169-.218 1.428-.755l2.182-4.526v-2.957c0-.838.665-1.525 1.503-1.552v8.776l-2.077 3.032c-.22.321-.573.525-.96.556l-15.337 1.216c-.734.058-1.453-.232-1.941-.783l-13.14-14.834 7.109-.888z"/><path class="st142" d="M99.023 177.59l-4.811-3.007 3.11-4.975 4.811 3.007zM104.782 161.803v2.23s-.055 2.664 1.141 3.761l-.85.215.009.848c.022 2.131-1.7 3.871-3.831 3.871h-2.523c-1.241 0-2.344-.789-2.745-1.963l-2.11-6.182.84-3.588s7.241-2.456 10.069.808z"/><path class="st143" d="M100.09 182.7l-1.708-4.17.636-.93-6.018-3.99-4.922 1.802c-.771.282-1.412.837-1.801 1.56l-6.764 13.492-.2.338-8.519 12.359 18.05 5.414 1.335-9.288c.101-.449.308-.868.604-1.221l8.52-10.178.787-5.188zM108.683 266.481l-.27-.648c-.501-1.202-1.407-2.19-2.562-2.792l-4.808-1.762-3.251-2.043v1.742l-3.724-.07-1.523-.85-1.069.014v6.409h17.207z"/><path class="st10" d="M109.125 267.502h-18.578v-1.022h18.578z"/><path class="st143" d="M73.375 266.812l-.218-.91c-.534-1.178-.534-1.178-1.434-1.961l-3.906-2.596-2.459-2.514-.372 1.551-3.302-.857-1.175-1.082-.955-.216-1.368 5.708 13.457 3.225 1.732-.348z"/><path class="st10" d="M57.142 264.648l11.441 2.742 1.436-.618-12.659-3.034zM73.724 267.424l-5.141.07v-1.008l5.142.002z"/><linearGradient id="SVGID_4_" gradientUnits="userSpaceOnUse" x1="84.648" y1="168.834" x2="105.382" y2="168.834"><stop offset="0" stop-color="#FEC55E"/><stop offset="1" stop-color="#FF5722"/></linearGradient><path class="st20" d="M96.907 156.975c.882-.18 1.814-.116 2.663.181.528.185.941.568 1.473.682.629.135 1.335.021 1.972.015.425-.004.856-.007 1.265.109.409.116.798.371.977.756.165.356.132.767.095 1.157-.062.658-.001 1.417-.373 1.986-.347.531-.837.599-1.407.78-.25.079-.505.161-.717.316-.718.524-.716 1.688-1.444 2.198-.498.349-1.243.314-1.614.795-.298.387-.215.932-.304 1.412-.116.631-.57 1.189-1.164 1.431-.16.065-.334.112-.458.231-.105.101-.161.242-.197.383-.209.817.141 1.798-.382 2.458-.367.463-.955.493-1.409.809-.589.408-.452.77-.472 1.48-.015.531-.028 1.081.174 1.573.249.606.784 1.038 1.299 1.442-.486-.214-.985-.399-1.494-.553.084 1.193.168 2.389.406 3.561-.681-.375-1.098-1.085-1.493-1.755-.267-.452-.66-.964-1.181-.896-.166.387-.391.748-.664 1.067-.232-.719-.619-1.47-1.164-1.999-.311.469-.654.909-1.02 1.351-.368.445-.69 1.005-.577 1.571-.097-.577-.302-1.135-.6-1.638-1.301 1.231-2.689 2.511-4.434 2.912-.125-1.149.588-2.195 1.121-3.221.277-.534.736-1.293.746-1.909.01-.561-.328-1.017-.178-1.613.274-1.091 1.741-1.575 1.957-2.679.096-.491-.086-1.012.049-1.494.141-.505.591-.85.904-1.27.459-.618.505-1.282.637-2.008.107-.586.407-.887.621-1.405.461-1.117-.886-2.405.526-3.274.217-.134.469-.214.664-.379.245-.208.368-.52.495-.815.312-.727.698-1.422 1.149-2.072.159-.229.334-.459.579-.593.233-.127.505-.152.761-.223.421-.116.797-.352 1.194-.534.325-.145.668-.255 1.019-.326z"/><path class="st149" d="M91.181 182.07c1.032.479 2.077 1.345 1.803 2.44 1.24.337 1.486 1.544 2.779 2.279.231.131.281.431.173.647l.767.343c.194.087.25.302.213.499.448.298.83.651 1.166 1.071l-.635.759c-.417-.577-.795-1.441-1.463-1.783-.148-.076-.775-.76-.784-.915-.466-.17-.512.595-.57.148-.02-.156.011-.283.071-.391-.762-.707-1.15-1.36-1.99-1.363-.344-.001-.358-.274-.145-.582.682-.991-.969-2.71-1.503-2.958-.563-.26-.441-.454.118-.194z"/><path class="st142" d="M100.09 182.7l5.857 8.486c.229.338.592.563.997.617l12.457 1.657c.59.089 1.169-.218 1.428-.755l2.182-4.526v-2.957c0-.838.665-1.525 1.503-1.552v8.776l-2.077 3.032c-.22.321-.573.525-.96.556l-15.337 1.216c-.734.058-1.453-.232-1.941-.783l-9.993-10.749 5.884-3.018z"/><path class="st149" d="M87.381 197.841c-.213-.347.127-.048.528.084.186.061.536.122.898.185.553.096 1.142-.147 1.392-.65l.013-.02c-.307-.111-1.375-.912-1.697-.994-.605-.154-.588-.304.014-.184 1.058.21 2.104.464 3.145.74l-.891 1.064c-.243.29-.408.631-.522.99l-.108-.045.078.13-.052.146-.398 2.771c-.1-.052-.185-.141-.226-.28l-.442-1.481c-.087-.29.094-.501.329-.566-.52-.761-1.523-1.015-2.061-1.89zM81.978 191.541c-1.422-1.067-.896.08-1.417-.205l.867 1.045c.202.361-.777.177-1.187.061l-.105-.025.064.481c.409.344.063.527-.356.46-.958-.153-1.606-.117-2.505.307l1.651-2.396c.151.008.31-.22.239-.347l.083-.121.2-.339.291-.58c.164.081.267-.168.188-.376l1.426-2.844c.108.135.15.322.041.518-.462.829-.79 1.489-.305 2.402.373.703.995 1.332 1.522 1.921.345.388-.237.383-.697.038z"/><path class="st1" d="M93.992 263.738c0 .685.555 1.241 1.241 1.241.685 0 1.241-.555 1.241-1.241 0-.685-.555-1.241-1.241-1.241-.686.001-1.241.556-1.241 1.241zM60.05 262.498c0 .685.555 1.241 1.241 1.241.685 0 1.241-.555 1.241-1.241 0-.685-.555-1.241-1.241-1.241-.685 0-1.241.556-1.241 1.241zM188.583 180.367h-59.574c-2.528 0-4.577 2.049-4.577 4.577v30.864c0 2.528 2.049 4.577 4.577 4.577h59.574c2.528 0 4.577-2.049 4.577-4.577v-30.864c0-2.528-2.049-4.577-4.577-4.577z"/><path class="st137" d="M131.542 191.278h53.65v1.75h-53.65zM131.542 196.374h53.65v1.75h-53.65z"/><path class="st141" d="M131.542 201.471h27.61v1.75h-27.61z"/><path class="st137" d="M131.542 201.4h53.65v1.75h-53.65zM131.542 206.496h53.65v1.75h-53.65z"/><path class="st141" d="M131.542 211.592h27.61v1.75h-27.61z"/><path class="st136" d="M124.432 185.808v-2.864c0-2.528 2.049-2.577 4.577-2.577h59.574c2.528 0 4.577.049 4.577 2.577v2.864h-68.728z"/><path class="st142" d="M202.193 262.68l-3.445 1.532-5.507 1.409c-.711.16-1.216.791-1.216 1.52l16.073-.069-.394-2.818-2.296-1.574h-3.215z"/><path class="st143" d="M200.607 265.453l-1.858-1.241-5.395.912c-.711.16-1.328 1.289-1.328 2.017l16.073-.069-.394-2.818-1.312 1.148-2.292-.019c-1.059.2-2.547.587-3.494.07z"/><path class="st142" d="M207.04 264.255l-4.847-1.226v-6.683h4.847z"/><path class="st143" d="M241.247 244.252s-30.703-11.101-34.279-9.726c0 0-4.579-.005-5.552 7.286l.177 15.737h6.018l1.587-12.014c.248-.767 1.135-1.116 1.839-.724l18.556 10.338 11.654-10.897zM224.826 247.067l-18.563 11.437c-1.102.679-1.774 1.881-1.774 3.176v1.098c0 2.409 1.953 4.363 4.363 4.363l25.224-1.246v-7.347s7.731-3.01 7.347-9.447l-16.597-2.034z"/><path class="st142" d="M235.431 257.894l12.683 9.247-14.038-1.246v-7.348z"/><path class="st143" d="M235.431 257.894l-1.356.654v3.149c.847-.409 1.843-.369 2.655.105l6.242 4.758c.495.377 1.1.581 1.722.581h3.42l-12.683-9.247z"/><path class="st142" d="M222.923 204.623s2.998 5.74.689 9.151l8.168-.757-3.265-10.387-5.592 1.993z"/><path class="st143" d="M229.37 201.79c-.108-.661-.405-1.274-.698-1.876-.891-1.831-1.845-3.739-3.501-4.924-.728-.521-1.57-.884-2.232-1.486l-.481.294-.886.153c-.875.158-1.671.763-1.998 1.589-.327.827-.138 1.849.507 2.46.391.37.906.574 1.377.836 1.007.56 1.845 1.42 2.38 2.44.192.367.347.756.589 1.092.742 1.035 2.111 1.362 3.359 1.614.236.048.484.095.713.02.174-.056.319-.178.438-.317.436-.506.541-1.234.433-1.895z"/><path class="st142" d="M229.097 199.55c-.683-1.2-1.368-2.403-2.19-3.511-.244-.329-.51-.658-.866-.86-.348-.197-.754-.259-1.152-.304-.982-.111-1.973-.144-2.96-.097l-.153.212c-.276.706-.476 1.434-.626 2.175-.16.786-1.327 2.649-1.408 3.451l1.029.357c-.04.424-.074.849-.108 1.272-.064.791-.127.532.038 1.309.165.776.593 1.535 1.293 1.91.788.422 1.755.289 2.616.046 1.211-.342 2.366-.879 3.408-1.584.877-.594 1.738-1.44 1.749-2.499.005-.673-.338-1.293-.67-1.877z"/><path class="st1" d="M235.308 215.632c-1.703 5.257 7.821 33.534 7.821 33.534-4.067 5.379-13.88-2.165-20.205-.787 0 0 .067-11.874-2.328-17.188l-3.223-5.252c-.729-1.189-.669-2.7.153-3.826l6.087-8.339 8.717-3.309c.731-.277 1.558-.061 2.059.538 1.076 1.287 1.435 3.035.919 4.629z"/><path class="st143" d="M236.903 214.903c.152-3.907-1.249-7.723-1.352-11.631-.079-3.034.54-6.402-1.26-8.845-1.486-2.017-4.199-2.711-6.704-2.758-1.223-.023-2.471.08-3.607.537-.693.279-1.363.746-1.892 1.27-.293.29-.615.557-.473.945.128.349.733.66 1.052.783.452.174.945.208 1.41.342 1.106.318 1.181 1.132 1.328 2.137.173 1.178.276 2.365.307 3.555.012.465.016.941.101 1.395.043.23.107.454.203.669.354.788 1.089 1.324 1.756 1.873.539.444 1.22 1.039 1.379 1.757.185.834-.138 1.736.088 2.607.365 1.404 1.621 2.355 2.538 3.479 1.365 1.673 2.018 3.835 2.213 5.986.194 2.15 1.964 4.815 2.313 6.46 1.518-3.376.455-6.863.6-10.561z"/><path class="st142" d="M195.521 221.098l14.281 11.056c.603.467 1.407.581 2.116.302l17.686-6.967c1.8-.709 2.544-2.855 1.571-4.526-.805-1.382-2.515-1.944-3.983-1.309l-16.517 7.152-13.284-7.971-1.194-1.677-2.712-1.829-.396-.102v1.257l.213.064.274.762-2.956-.518-3.992-.732c-.158.132-.122.657 0 .823l3.322 1.036-.031.366-3.901-1.006c-.169.131-.127.682 0 .853l3.916 1.189-.093.454-3.549-.85c-.114.09-.085.462 0 .579l3.398 1.082c.041.06.039.241-.015.29l-3.063-.535c-.47.333-.049.704.016.779l5.714.809c.628.089 1.268.002 1.849-.251l1.33-.58z"/><path class="st1" d="M232.095 220.325c-.864-1.483-2.7-2.087-4.275-1.405l-9.072 3.126c-.852 1.863 3.398 4.647 3.05 7.604l8.61-4.468c1.932-.761 2.731-3.063 1.687-4.857z"/><g id="XMLID_11_"><path id="XMLID_15_" class="st140" d="M264.653 262.645c0 2.544-2.062 4.606-4.606 4.606s-4.606-2.062-4.606-4.606 2.062-4.606 4.606-4.606 4.606 2.062 4.606 4.606z"/><path id="XMLID_13_" class="st1" d="M261.717 265.287l-1.589-.809-.099.001-1.567.85c-.077.042-.169-.023-.155-.11l.279-1.761-.032-.093-1.293-1.228c-.064-.06-.03-.167.056-.181l1.761-.279.079-.059.768-1.609c.038-.079.15-.081.19-.002l.81 1.589.08.057 1.768.233c.087.012.123.118.061.18l-1.261 1.261-.029.094.324 1.754c.017.084-.073.151-.151.112z"/></g><g id="XMLID_734_"><path id="XMLID_2334_" class="st139" d="M364.181 267.323h-5.566c-1.085 0-1.972-.888-1.972-1.972v-3.224c0-1.085.888-1.972 1.972-1.972h5.566c1.085 0 1.973.888 1.973 1.972v3.224c-.001 1.084-.888 1.972-1.973 1.972z"/><path id="XMLID_2328_" class="st1" d="M363.315 263.738l-3.834 2.214v-4.427l3.834 2.213-3.834 2.214v-4.427z"/></g></g></svg>