<?xml version="1.0" encoding="utf-8"?>
<!-- Generator: Adobe Illustrator 23.0.1, SVG Export Plug-In . SVG Version: 6.00 Build 0)  -->
<svg version="1.1" id="Firefox_-_Large" xmlns="http://www.w3.org/2000/svg" xmlns:xlink="http://www.w3.org/1999/xlink" x="0px"
	 y="0px" viewBox="0 0 160 160" style="enable-background:new 0 0 160 160;" xml:space="preserve">
<style type="text/css">
	.st0{fill:url(#SVGID_1_);}
	.st1{fill:url(#_Path__1_);}
	.st2{fill:url(#SVGID_2_);}
	.st3{fill:url(#SVGID_3_);}
	.st4{fill:url(#SVGID_4_);}
	.st5{fill:url(#SVGID_5_);}
	.st6{fill:url(#SVGID_6_);}
	.st7{fill:url(#SVGID_7_);}
	.st8{fill:url(#SVGID_8_);}
	.st9{fill:url(#SVGID_9_);}
	.st10{fill:url(#SVGID_10_);}
	.st11{fill:url(#SVGID_11_);}
	.st12{fill:url(#SVGID_12_);}
	.st13{fill:url(#SVGID_13_);}
	.st14{fill:#E53029;}
	.st15{fill:#FDD900;}
	.st16{fill:#66B44B;}
	.st17{fill:#61AB48;}
	.st18{fill:#FFFFFF;}
	.st19{fill:url(#SVGID_14_);}
	.st20{fill:#F0CE00;}
	.st21{fill:#D92F27;}
	.st22{fill:url(#SVGID_15_);}
	.st23{fill:url(#SVGID_16_);}
	.st24{fill:#F3F3F3;}
	.st25{fill:#E2E2E2;}
	.st26{fill:url(#SVGID_17_);fill-opacity:0.2;}
	.st27{fill-opacity:5.000000e-02;}
	.st28{fill:#CD151E;}
	.st29{fill:#FA5153;}
	.st30{fill:#ACACAC;}
	.st31{fill:#EEEEEE;}
</style>
<g>
	<g transform="translate(4.000000, 2.000000)">
		
			<linearGradient id="SVGID_1_" gradientUnits="userSpaceOnUse" x1="-879.1492" y1="616.5182" x2="-879.1492" y2="617.1511" gradientTransform="matrix(248 0 0 -248 218105 153053)">
			<stop  offset="0.25" style="stop-color:#DBDBDA"/>
			<stop  offset="1" style="stop-color:#FFFFFF"/>
		</linearGradient>
		<circle class="st0" cx="76" cy="78" r="78.5"/>
		
			<radialGradient id="SVGID_2_" cx="-878.8331" cy="616.7692" r="0.3863" gradientTransform="matrix(229.4 0 0 -229.4 201690.5 141548.8906)" gradientUnits="userSpaceOnUse">
			<stop  offset="0" style="stop-color:#2ABCE1"/>
			<stop  offset="0.1136" style="stop-color:#2ABBE1"/>
			<stop  offset="1" style="stop-color:#3375F8"/>
		</radialGradient>
		<circle class="st2" cx="76" cy="78" r="72.6"/>
		<g transform="translate(9.687500, 8.718750)">
			<path class="st24" d="M66.4,14.3c-0.5,0-0.9-0.4-0.9-0.9V0.7c0-0.5,0.4-0.9,0.9-0.9s0.9,0.4,0.9,0.9v12.8
				C67.3,14,66.9,14.3,66.4,14.3L66.4,14.3z"/>
			<path class="st18" d="M66.4,14.4c-0.6,0-1-0.4-1-0.9V0.7c0-0.5,0.4-0.9,1-0.9c0.6,0,1,0.4,1,0.9v12.8
				C67.4,14,66.9,14.4,66.4,14.4L66.4,14.4z M66.4-0.1c-0.4,0-0.9,0.4-0.9,0.8v12.8c0,0.4,0.4,0.8,0.9,0.8c0.4,0,0.9-0.4,0.9-0.8
				V0.7C67.2,0.2,66.9-0.1,66.4-0.1L66.4-0.1z"/>
			<path class="st24" d="M72.6,7.5c-0.5-0.1-0.9-0.4-0.9-0.9l0.4-5.7c0.1-0.5,0.5-0.9,1-0.8C73.6,0.1,74,0.5,74,1l-0.4,5.7
				C73.5,7.2,73.1,7.5,72.6,7.5L72.6,7.5z"/>
			<path class="st18" d="M72.6,7.5c-0.6-0.1-0.9-0.5-0.9-1l0.4-5.7c0.1-0.5,0.5-0.9,1-0.9C73.7,0.1,74,0.5,74,1l-0.4,5.7
				C73.5,7.2,73.1,7.6,72.6,7.5L72.6,7.5z M73.1,0.1c-0.4,0-0.9,0.3-0.9,0.7l-0.4,5.7c0,0.4,0.3,0.8,0.8,0.9c0.4,0,0.9-0.3,0.9-0.7
				L73.9,1C73.9,0.6,73.5,0.2,73.1,0.1L73.1,0.1z"/>
			<path class="st24" d="M77.2,15.5c-0.5-0.1-0.8-0.6-0.7-1l2.5-12.6c0.1-0.5,0.6-0.8,1-0.7c0.5,0.1,0.8,0.6,0.7,1l-2.5,12.6
				C78.1,15.2,77.7,15.5,77.2,15.5L77.2,15.5z"/>
			<path class="st18" d="M77.2,15.5c-0.6-0.1-0.9-0.6-0.8-1.1l2.5-12.6C79,1.3,79.5,1,80,1.1s0.9,0.6,0.8,1.1l-2.5,12.6
				C78.2,15.3,77.7,15.6,77.2,15.5L77.2,15.5z M80,1.2c-0.4-0.1-0.9,0.2-1,0.6l-2.5,12.6c-0.1,0.4,0.2,0.9,0.7,1
				c0.4,0.1,0.9-0.2,1-0.6l2.5-12.6C80.8,1.7,80.5,1.3,80,1.2L80,1.2z"/>
			<path class="st24" d="M84.5,9.9c-0.5-0.1-0.8-0.6-0.7-1.1l1.5-5.5c0.1-0.5,0.6-0.7,1.1-0.6c0.5,0.1,0.8,0.6,0.7,1.1l-1.5,5.5
				C85.5,9.8,85,10.1,84.5,9.9L84.5,9.9z"/>
			<path class="st18" d="M84.5,10c-0.5-0.1-0.9-0.7-0.7-1.2l1.5-5.5c0.1-0.5,0.7-0.8,1.2-0.7c0.5,0.1,0.9,0.7,0.7,1.2l-1.5,5.5
				C85.6,9.8,85.1,10.1,84.5,10L84.5,10z M86.5,2.8c-0.4-0.1-0.9,0.1-1,0.6L84,8.9c-0.1,0.4,0.1,0.9,0.6,1c0.4,0.1,0.9-0.1,1-0.6
				l1.5-5.5C87.2,3.4,87,2.9,86.5,2.8L86.5,2.8z"/>
			<path class="st24" d="M87.5,18.6c-0.5-0.2-0.7-0.7-0.5-1.2l4.9-11.8c0.2-0.4,0.7-0.7,1.2-0.4c0.5,0.2,0.7,0.7,0.5,1.2l-4.9,11.8
				C88.5,18.6,88,18.8,87.5,18.6L87.5,18.6z"/>
			<path class="st18" d="M87.5,18.6c-0.5-0.2-0.7-0.7-0.6-1.2l4.9-11.8c0.2-0.5,0.7-0.7,1.3-0.5c0.5,0.2,0.7,0.7,0.6,1.2l-4.9,11.8
				C88.6,18.6,88,18.9,87.5,18.6L87.5,18.6z M93.1,5.2c-0.4-0.2-0.9,0-1.1,0.4l-4.9,11.8c-0.2,0.4,0.1,0.9,0.5,1
				c0.4,0.2,0.9,0,1.1-0.4l4.9-11.8C93.7,5.9,93.5,5.4,93.1,5.2L93.1,5.2z"/>
			<path class="st24" d="M95.8,14.7c-0.4-0.2-0.6-0.7-0.4-1.2l2.6-5.1C98.2,8,98.7,7.8,99.2,8c0.4,0.2,0.6,0.7,0.4,1.2L97,14.3
				C96.8,14.7,96.3,14.9,95.8,14.7L95.8,14.7z"/>
			<path class="st18" d="M95.8,14.7c-0.5-0.2-0.7-0.8-0.4-1.3l2.6-5.1c0.2-0.5,0.8-0.7,1.3-0.4c0.5,0.2,0.7,0.8,0.4,1.3l-2.6,5.1
				C96.8,14.8,96.3,15,95.8,14.7L95.8,14.7z M99.2,8c-0.4-0.2-0.9-0.1-1.1,0.4l-2.6,5.1c-0.2,0.4,0,0.9,0.4,1.1
				c0.4,0.2,0.9,0.1,1.1-0.4l2.6-5.1C99.7,8.8,99.5,8.3,99.2,8L99.2,8z"/>
			<path class="st24" d="M97,23.7c-0.4-0.3-0.6-0.9-0.2-1.2l7.1-10.6c0.2-0.4,0.8-0.5,1.2-0.2c0.4,0.3,0.6,0.9,0.2,1.2l-7.1,10.6
				C98,23.9,97.5,24,97,23.7L97,23.7z"/>
			<path class="st18" d="M97,23.8c-0.4-0.3-0.6-0.9-0.3-1.3l7.1-10.6c0.3-0.4,0.9-0.6,1.3-0.2c0.4,0.3,0.6,0.9,0.3,1.3l-7.1,10.6
				C98.1,24,97.5,24.1,97,23.8L97,23.8z M105.1,11.7c-0.4-0.2-0.9-0.2-1.2,0.2l-7.1,10.6c-0.2,0.4-0.1,0.9,0.2,1.1
				c0.4,0.2,0.9,0.2,1.2-0.2l7.1-10.5C105.6,12.5,105.5,12,105.1,11.7L105.1,11.7z"/>
			<path class="st24" d="M106,21.5c-0.4-0.3-0.5-0.9-0.2-1.2l3.6-4.5c0.3-0.4,0.9-0.4,1.2-0.1c0.4,0.3,0.5,0.9,0.2,1.2l-3.6,4.5
				C106.9,21.7,106.3,21.8,106,21.5L106,21.5z"/>
			<path class="st18" d="M105.9,21.5c-0.4-0.3-0.5-0.9-0.2-1.3l3.6-4.5c0.3-0.4,0.9-0.5,1.3-0.1c0.4,0.3,0.5,0.9,0.2,1.3l-3.6,4.5
				C107,21.8,106.3,21.9,105.9,21.5L105.9,21.5z M110.5,15.7c-0.4-0.3-0.9-0.2-1.2,0.1l-3.6,4.5c-0.2,0.4-0.2,0.9,0.2,1.2
				c0.4,0.3,0.9,0.2,1.2-0.1l3.6-4.5C110.9,16.5,110.9,15.9,110.5,15.7L110.5,15.7z"/>
			<path class="st24" d="M105.4,30.7c-0.4-0.4-0.4-0.9,0-1.2l9.1-9c0.4-0.4,0.9-0.3,1.2,0c0.3,0.3,0.4,0.9,0,1.2l-9,9
				C106.3,31,105.7,31,105.4,30.7L105.4,30.7z"/>
			<path class="st18" d="M105.3,30.7c-0.4-0.4-0.4-1,0-1.3l9.1-9c0.4-0.4,1-0.4,1.3,0c0.4,0.4,0.4,1,0,1.3l-9.1,9
				C106.3,31.1,105.7,31.1,105.3,30.7L105.3,30.7z M115.7,20.4c-0.3-0.3-0.9-0.3-1.2,0l-9.1,9c-0.3,0.3-0.3,0.9,0,1.2
				c0.3,0.3,0.9,0.3,1.2,0l9.1-9C116,21.3,116,20.8,115.7,20.4L115.7,20.4z"/>
			<path class="st24" d="M114.6,30.2c-0.3-0.4-0.3-0.9,0.1-1.2l4.4-3.7c0.4-0.3,0.9-0.2,1.2,0.1c0.3,0.4,0.3,0.9-0.1,1.2l-4.4,3.7
				C115.4,30.6,114.9,30.5,114.6,30.2L114.6,30.2z"/>
			<path class="st18" d="M114.5,30.2c-0.4-0.4-0.3-1,0.1-1.3l4.4-3.7c0.4-0.4,1-0.3,1.3,0.1c0.4,0.4,0.3,1-0.1,1.3l-4.4,3.7
				C115.5,30.7,114.9,30.7,114.5,30.2L114.5,30.2z M120.1,25.4c-0.3-0.4-0.8-0.4-1.2-0.1l-4.4,3.7c-0.3,0.3-0.4,0.8-0.1,1.2
				c0.3,0.4,0.8,0.4,1.2,0.1l4.4-3.7C120.4,26.2,120.4,25.8,120.1,25.4L120.1,25.4z"/>
			<path class="st24" d="M112.1,39c-0.3-0.4-0.2-1,0.2-1.2l10.7-7.1c0.4-0.2,1-0.1,1.2,0.2c0.3,0.4,0.2,1-0.2,1.2l-10.7,7.1
				C113,39.5,112.4,39.4,112.1,39L112.1,39z"/>
			<path class="st18" d="M112,39c-0.3-0.4-0.2-1,0.2-1.3l10.7-7.1c0.4-0.3,1-0.2,1.3,0.3c0.3,0.4,0.2,1-0.2,1.3l-10.7,7.1
				C113,39.6,112.4,39.5,112,39L112,39z M124.2,31c-0.2-0.4-0.7-0.5-1.1-0.2l-10.7,7.1c-0.4,0.2-0.5,0.7-0.2,1.2
				c0.2,0.4,0.7,0.5,1.1,0.2l10.7-7.1C124.4,31.8,124.4,31.3,124.2,31L124.2,31z"/>
			<path class="st24" d="M121.2,40.3c-0.2-0.4-0.1-1,0.3-1.2l5-2.8c0.4-0.2,1-0.1,1.2,0.4c0.2,0.4,0.1,1-0.3,1.2l-5,2.8
				C122,40.9,121.5,40.7,121.2,40.3L121.2,40.3z"/>
			<path class="st18" d="M121.2,40.3c-0.2-0.5-0.1-1,0.3-1.3l5-2.8c0.4-0.2,1-0.1,1.3,0.4c0.2,0.5,0.1,1-0.3,1.3l-5,2.8
				C122,41,121.4,40.8,121.2,40.3L121.2,40.3z M127.7,36.7c-0.2-0.4-0.7-0.6-1.1-0.3l-5,2.8c-0.4,0.2-0.5,0.7-0.3,1.1
				c0.2,0.4,0.7,0.6,1.1,0.3l5-2.8C127.7,37.6,127.9,37.1,127.7,36.7L127.7,36.7z"/>
			<path class="st24" d="M117.1,48.4c-0.2-0.5,0-1,0.5-1.2l11.8-4.9c0.4-0.2,1,0.1,1.2,0.5c0.2,0.5,0,1-0.5,1.2l-11.8,4.9
				C117.9,49.1,117.3,48.9,117.1,48.4L117.1,48.4z"/>
			<path class="st18" d="M117.1,48.5c-0.2-0.5,0-1,0.5-1.3l11.8-4.9c0.5-0.2,1,0.1,1.2,0.6c0.2,0.5,0,1-0.5,1.3L118.3,49
				C117.8,49.2,117.3,49,117.1,48.5L117.1,48.5z M130.5,42.9c-0.2-0.4-0.7-0.6-1-0.5l-11.8,4.9c-0.4,0.2-0.6,0.7-0.4,1.1
				c0.2,0.4,0.7,0.6,1,0.5l11.8-4.9C130.5,43.8,130.7,43.3,130.5,42.9L130.5,42.9z"/>
			<path class="st24" d="M125.8,51.5c-0.2-0.5,0.1-1,0.6-1.2l5.4-1.8c0.4-0.2,1,0.1,1.1,0.6c0.2,0.5-0.1,1-0.6,1.2l-5.4,1.8
				C126.5,52.2,126,52,125.8,51.5L125.8,51.5z"/>
			<path class="st18" d="M125.7,51.6c-0.2-0.5,0.1-1,0.6-1.2l5.4-1.8c0.5-0.2,1,0.1,1.2,0.6c0.2,0.5-0.1,1-0.6,1.2l-5.4,1.8
				C126.5,52.3,125.9,52.1,125.7,51.6L125.7,51.6z M132.8,49.2c-0.1-0.4-0.6-0.7-1-0.6l-5.4,1.8c-0.4,0.1-0.6,0.6-0.5,1
				s0.6,0.7,1,0.6l5.4-1.8C132.8,50.1,133,49.7,132.8,49.2L132.8,49.2z"/>
			<path class="st24" d="M120.3,58.8c-0.1-0.5,0.2-1,0.7-1l12.6-2.5c0.5-0.1,0.9,0.2,1,0.7c0.1,0.5-0.2,1-0.7,1l-12.6,2.5
				C120.8,59.6,120.3,59.3,120.3,58.8L120.3,58.8z"/>
			<path class="st18" d="M120.1,58.8c-0.1-0.6,0.2-1,0.7-1.2l12.6-2.5c0.5-0.1,1,0.2,1.1,0.8c0.1,0.6-0.2,1-0.7,1.2l-12.6,2.5
				C120.8,59.7,120.3,59.3,120.1,58.8L120.1,58.8z M134.4,56c-0.1-0.4-0.5-0.7-0.9-0.7l-12.6,2.5c-0.4,0.1-0.7,0.6-0.6,1
				c0.1,0.4,0.5,0.7,0.9,0.7l12.6-2.5C134.2,56.9,134.6,56.5,134.4,56L134.4,56z"/>
			<path class="st24" d="M128.1,63.5c-0.1-0.5,0.2-0.9,0.7-1l5.6-0.7c0.5-0.1,0.9,0.3,1,0.8s-0.2,0.9-0.7,1l-5.6,0.7
				C128.7,64.4,128.2,64,128.1,63.5L128.1,63.5z"/>
			<path class="st18" d="M128.1,63.5c-0.1-0.6,0.3-1,0.8-1.1l5.6-0.7c0.5-0.1,1,0.3,1,0.9c0.1,0.6-0.3,1-0.8,1.1l-5.6,0.7
				C128.6,64.4,128.1,64.1,128.1,63.5L128.1,63.5z M135.5,62.7c-0.1-0.4-0.5-0.8-0.9-0.7l-5.6,0.7c-0.4,0.1-0.7,0.5-0.7,0.9
				c0.1,0.4,0.5,0.8,0.9,0.7l5.6-0.7C135.2,63.5,135.5,63.1,135.5,62.7L135.5,62.7z"/>
			<path class="st24" d="M121.2,69.5c0-0.5,0.4-0.9,0.9-0.9h12.8c0.5,0,0.9,0.4,0.9,0.9c0,0.5-0.4,0.9-0.9,0.9h-12.8
				C121.6,70.4,121.2,70,121.2,69.5L121.2,69.5z"/>
			<path class="st18" d="M121.2,69.5c0-0.6,0.4-1,0.9-1h12.8c0.5,0,0.9,0.4,0.9,1s-0.4,1-0.9,1h-12.8
				C121.6,70.4,121.2,70,121.2,69.5L121.2,69.5z M135.7,69.5c0-0.4-0.4-0.9-0.8-0.9h-12.8c-0.4,0-0.8,0.4-0.8,0.9
				c0,0.4,0.4,0.9,0.8,0.9h12.8C135.3,70.3,135.7,70,135.7,69.5L135.7,69.5z"/>
			<path class="st24" d="M128.1,75.7c0.1-0.5,0.4-0.9,0.9-0.9l5.7,0.4c0.5,0.1,0.9,0.5,0.8,1c-0.1,0.5-0.4,0.9-0.9,0.9l-5.7-0.4
				C128.4,76.6,128.1,76.1,128.1,75.7L128.1,75.7z"/>
			<path class="st18" d="M128,75.7c0.1-0.6,0.5-0.9,1-0.9l5.7,0.4c0.5,0.1,0.9,0.5,0.9,1c-0.1,0.6-0.5,0.9-1,0.9l-5.7-0.4
				C128.4,76.6,128,76.1,128,75.7L128,75.7z M135.5,76.2c0.1-0.4-0.3-0.9-0.7-0.9l-5.7-0.4c-0.4,0-0.8,0.3-0.9,0.8
				c-0.1,0.4,0.3,0.9,0.7,0.9l5.7,0.4C135,77,135.4,76.6,135.5,76.2L135.5,76.2z"/>
			<path class="st24" d="M120.1,80.1c0.1-0.5,0.6-0.8,1-0.7l12.6,2.5c0.5,0.1,0.8,0.6,0.7,1c-0.1,0.5-0.6,0.8-1,0.7l-12.6-2.5
				C120.4,81.1,120.1,80.6,120.1,80.1L120.1,80.1z"/>
			<path class="st18" d="M120.1,80.1c0.1-0.6,0.6-0.9,1.1-0.8l12.6,2.5c0.5,0.1,0.9,0.6,0.7,1.2s-0.6,0.9-1.1,0.8l-12.6-2.5
				C120.3,81.2,120,80.7,120.1,80.1L120.1,80.1z M134.4,83c0.1-0.4-0.2-0.9-0.6-1l-12.6-2.5c-0.4-0.1-0.9,0.2-1,0.7
				c-0.1,0.4,0.2,0.9,0.6,1l12.6,2.5C133.9,83.8,134.2,83.4,134.4,83L134.4,83z"/>
			<path class="st24" d="M125.7,87.5c0.1-0.5,0.6-0.8,1.1-0.7l5.5,1.5c0.5,0.1,0.7,0.6,0.6,1.1c-0.1,0.5-0.6,0.8-1.1,0.7l-5.5-1.5
				C125.8,88.5,125.5,88,125.7,87.5L125.7,87.5z"/>
			<path class="st18" d="M125.6,87.5c0.1-0.5,0.7-0.9,1.2-0.7l5.5,1.5c0.5,0.1,0.8,0.7,0.7,1.2s-0.7,0.9-1.2,0.7l-5.5-1.5
				C125.8,88.5,125.5,88,125.6,87.5L125.6,87.5z M132.8,89.5c0.1-0.4-0.1-0.9-0.6-1l-5.5-1.5c-0.4-0.1-0.9,0.1-1,0.6
				c-0.1,0.4,0.1,0.9,0.6,1l5.5,1.5C132.2,90.2,132.6,89.9,132.8,89.5L132.8,89.5z"/>
			<path class="st24" d="M117,90.4c0.2-0.5,0.7-0.7,1.2-0.5l11.8,4.9c0.4,0.2,0.7,0.7,0.5,1.2c-0.2,0.5-0.7,0.7-1.2,0.5l-11.8-4.9
				C117,91.4,116.8,90.9,117,90.4L117,90.4z"/>
			<path class="st18" d="M117,90.4c0.2-0.5,0.7-0.7,1.2-0.6l11.8,4.9c0.5,0.2,0.7,0.7,0.5,1.3c-0.2,0.5-0.7,0.7-1.2,0.6l-11.8-4.9
				C117,91.4,116.8,90.9,117,90.4L117,90.4z M130.4,96c0.2-0.4,0-0.9-0.4-1.1l-11.8-4.9c-0.4-0.2-0.9,0.1-1,0.5
				c-0.2,0.4,0,0.9,0.4,1.1l11.8,4.9C129.8,96.6,130.3,96.4,130.4,96L130.4,96z"/>
			<path class="st24" d="M121,98.7c0.2-0.4,0.7-0.6,1.2-0.4l5.1,2.6c0.4,0.2,0.6,0.7,0.4,1.2c-0.2,0.4-0.7,0.6-1.2,0.4l-5.1-2.6
				C120.9,99.7,120.8,99.1,121,98.7L121,98.7z"/>
			<path class="st18" d="M120.9,98.6c0.2-0.5,0.8-0.7,1.3-0.4l5.1,2.6c0.5,0.2,0.7,0.8,0.4,1.3c-0.2,0.5-0.8,0.7-1.3,0.4l-5.1-2.6
				C120.9,99.8,120.7,99.1,120.9,98.6L120.9,98.6z M127.6,102c0.2-0.4,0.1-0.9-0.4-1.1l-5.1-2.6c-0.4-0.2-0.9,0-1.1,0.4
				c-0.2,0.4-0.1,0.9,0.4,1.1l5.1,2.6C126.9,102.6,127.4,102.4,127.6,102L127.6,102z"/>
			<path class="st24" d="M112,99.9c0.3-0.4,0.8-0.6,1.2-0.2l10.7,7.1c0.4,0.2,0.5,0.8,0.2,1.2c-0.3,0.4-0.8,0.6-1.2,0.2l-10.7-7.1
				C111.8,100.8,111.7,100.2,112,99.9L112,99.9z"/>
			<path class="st18" d="M111.9,99.8c0.3-0.4,0.9-0.6,1.3-0.3l10.7,7.1c0.4,0.3,0.6,0.9,0.2,1.3c-0.3,0.4-0.9,0.6-1.3,0.3l-10.7-7.1
				C111.7,100.9,111.6,100.2,111.9,99.8L111.9,99.8z M124,107.9c0.2-0.4,0.2-0.9-0.2-1.2l-10.7-7.1c-0.4-0.2-0.9-0.1-1.1,0.2
				s-0.2,0.9,0.2,1.2l10.7,7.1C123.3,108.4,123.8,108.3,124,107.9L124,107.9z"/>
			<path class="st24" d="M114.3,108.8c0.3-0.4,0.9-0.5,1.2-0.2l4.5,3.5c0.4,0.3,0.4,0.9,0.1,1.2c-0.3,0.4-0.9,0.5-1.2,0.2l-4.5-3.5
				C114,109.7,114,109.1,114.3,108.8L114.3,108.8z"/>
			<path class="st18" d="M114.2,108.7c0.3-0.4,0.9-0.5,1.3-0.2l4.5,3.5c0.4,0.3,0.5,0.9,0.2,1.3c-0.3,0.4-0.9,0.5-1.3,0.2l-4.5-3.5
				C114,109.7,113.9,109.1,114.2,108.7L114.2,108.7z M120.1,113.3c0.3-0.4,0.2-0.9-0.1-1.2l-4.5-3.5c-0.4-0.2-0.9-0.2-1.2,0.2
				c-0.3,0.4-0.2,0.9,0.1,1.2l4.5,3.5C119.3,113.7,119.8,113.7,120.1,113.3L120.1,113.3z"/>
			<path class="st24" d="M105.1,108.2c0.4-0.4,0.9-0.4,1.2,0l9.1,9c0.4,0.4,0.3,0.9,0,1.2c-0.4,0.4-0.9,0.4-1.2,0l-9.1-9
				C104.8,109.1,104.8,108.5,105.1,108.2L105.1,108.2z"/>
			<path class="st18" d="M105.1,108.1c0.4-0.4,1-0.4,1.3,0l9.1,9c0.4,0.4,0.4,1,0,1.3c-0.4,0.4-1,0.4-1.3,0l-9.1-9
				C104.7,109.1,104.7,108.5,105.1,108.1L105.1,108.1z M115.4,118.3c0.3-0.3,0.3-0.9,0-1.2l-9.1-9c-0.3-0.3-0.9-0.3-1.2,0
				s-0.3,0.9,0,1.2l9.1,9C114.6,118.7,115.1,118.7,115.4,118.3L115.4,118.3z"/>
			<path class="st24" d="M105.7,117.3c0.4-0.3,0.9-0.3,1.2,0.1l3.7,4.3c0.3,0.4,0.2,0.9-0.1,1.2c-0.4,0.3-0.9,0.3-1.2-0.1l-3.7-4.3
				C105.2,118.2,105.3,117.7,105.7,117.3L105.7,117.3z"/>
			<path class="st18" d="M105.6,117.3c0.4-0.4,1-0.3,1.3,0.1l3.7,4.3c0.4,0.4,0.3,1-0.1,1.3c-0.4,0.4-1,0.3-1.3-0.1l-3.7-4.3
				C105.2,118.2,105.2,117.6,105.6,117.3L105.6,117.3z M110.5,122.9c0.4-0.3,0.4-0.8,0.1-1.2l-3.7-4.3c-0.3-0.3-0.8-0.4-1.2-0.1
				c-0.4,0.3-0.4,0.8-0.1,1.2l3.7,4.3C109.7,123.2,110.1,123.2,110.5,122.9L110.5,122.9z"/>
			<path class="st24" d="M96.8,115c0.4-0.3,1-0.2,1.2,0.2l7.1,10.6c0.2,0.4,0.1,1-0.2,1.2c-0.4,0.3-1,0.2-1.2-0.2l-7.1-10.6
				C96.4,115.8,96.5,115.2,96.8,115L96.8,115z"/>
			<path class="st18" d="M96.8,114.9c0.4-0.3,1-0.2,1.3,0.2l7.1,10.6c0.3,0.4,0.2,1-0.3,1.3c-0.4,0.3-1,0.2-1.3-0.2l-7.1-10.6
				C96.2,115.8,96.4,115.2,96.8,114.9L96.8,114.9z M104.9,127c0.4-0.2,0.5-0.7,0.2-1.1l-7.1-10.6c-0.2-0.4-0.7-0.4-1.2-0.2
				c-0.4,0.2-0.5,0.7-0.2,1.1l7.1,10.6C104,127.1,104.6,127.2,104.9,127L104.9,127z"/>
			<path class="st24" d="M95.6,124c0.4-0.2,1-0.1,1.2,0.3l2.8,5c0.2,0.4,0.1,1-0.4,1.2c-0.4,0.2-1,0.1-1.2-0.3l-2.8-5
				C95,124.8,95.1,124.3,95.6,124L95.6,124z"/>
			<path class="st18" d="M95.6,124c0.5-0.2,1-0.1,1.3,0.3l2.8,5c0.2,0.4,0.1,1-0.4,1.3c-0.5,0.2-1,0.1-1.3-0.3l-2.8-5
				C94.9,124.8,95.1,124.3,95.6,124L95.6,124z M99.2,130.5c0.4-0.2,0.6-0.7,0.3-1.1l-2.8-5c-0.2-0.4-0.7-0.5-1.1-0.3
				c-0.4,0.2-0.6,0.7-0.3,1.1l2.8,5C98.3,130.5,98.9,130.7,99.2,130.5L99.2,130.5z"/>
			<path class="st24" d="M87.4,120c0.5-0.2,1,0,1.2,0.4l5,11.8c0.2,0.4-0.1,1-0.5,1.2c-0.4,0.2-1,0-1.2-0.4l-5-11.8
				C86.7,120.7,87,120.2,87.4,120L87.4,120z"/>
			<path class="st18" d="M87.4,119.9c0.5-0.2,1,0,1.3,0.5l5,11.8c0.2,0.5-0.1,1-0.6,1.2c-0.5,0.2-1,0-1.3-0.5l-5-11.8
				C86.7,120.7,86.9,120.2,87.4,119.9L87.4,119.9z M93,133.4c0.4-0.2,0.6-0.7,0.4-1l-5-11.8c-0.2-0.4-0.7-0.6-1.1-0.4
				c-0.4,0.2-0.6,0.7-0.4,1l5,11.8C92.1,133.4,92.6,133.5,93,133.4L93,133.4z"/>
			<path class="st24" d="M84.4,128.7c0.5-0.2,1,0.1,1.2,0.6l1.8,5.4c0.2,0.4-0.1,1-0.6,1.1c-0.5,0.2-1-0.1-1.2-0.6l-1.8-5.4
				C83.7,129.4,83.9,128.9,84.4,128.7L84.4,128.7z"/>
			<path class="st18" d="M84.3,128.6c0.5-0.2,1,0.1,1.2,0.6l1.8,5.4c0.2,0.5-0.1,1-0.6,1.2c-0.5,0.2-1-0.1-1.2-0.6l-1.8-5.4
				C83.6,129.4,83.8,128.8,84.3,128.6L84.3,128.6z M86.7,135.7c0.4-0.1,0.7-0.6,0.6-1l-1.8-5.4c-0.1-0.4-0.6-0.6-1-0.5
				s-0.7,0.6-0.6,1l1.8,5.4C85.8,135.6,86.3,135.9,86.7,135.7L86.7,135.7z"/>
			<path class="st24" d="M77.2,123.1c0.5-0.1,1,0.2,1,0.7l2.6,12.6c0.1,0.5-0.2,0.9-0.7,1c-0.5,0.1-1-0.2-1-0.7l-2.6-12.6
				C76.4,123.7,76.7,123.2,77.2,123.1L77.2,123.1z"/>
			<path class="st18" d="M77.2,123.1c0.6-0.1,1,0.2,1.2,0.7l2.6,12.6c0.1,0.5-0.2,1-0.7,1.1c-0.6,0.1-1-0.2-1.2-0.7l-2.6-12.6
				C76.3,123.7,76.6,123.2,77.2,123.1L77.2,123.1z M80,137.3c0.4-0.1,0.7-0.5,0.7-1l-2.6-12.6c-0.1-0.4-0.6-0.7-1-0.6
				c-0.4,0.1-0.7,0.5-0.7,1l2.6,12.6C79.2,137.2,79.6,137.4,80,137.3L80,137.3z"/>
			<path class="st24" d="M72.5,131.1c0.5-0.1,0.9,0.2,1,0.7l0.7,5.6c0.1,0.5-0.3,0.9-0.8,1c-0.5,0.1-0.9-0.2-1-0.7l-0.7-5.6
				C71.6,131.6,72,131.1,72.5,131.1L72.5,131.1z"/>
			<path class="st18" d="M72.5,131c0.6-0.1,1,0.3,1.1,0.8l0.7,5.6c0.1,0.5-0.3,1-0.9,1c-0.6,0.1-1-0.3-1.1-0.8l-0.7-5.6
				C71.6,131.6,72,131.1,72.5,131L72.5,131z M73.4,138.4c0.4-0.1,0.8-0.5,0.7-0.9l-0.7-5.6c-0.1-0.4-0.5-0.7-0.9-0.7
				s-0.8,0.5-0.7,0.9l0.7,5.6C72.6,138.1,73,138.4,73.4,138.4L73.4,138.4z"/>
			<path class="st24" d="M66.2,124.2c0.5,0,0.9,0.4,0.9,0.9v12.8c0,0.5-0.4,0.9-0.9,0.9s-0.9-0.4-0.9-0.9v-12.8
				C65.3,124.6,65.7,124.2,66.2,124.2L66.2,124.2z"/>
			<path class="st18" d="M66.2,124.2c0.6,0,1,0.4,1,0.9v12.8c0,0.5-0.4,0.9-1,0.9c-0.6,0-1-0.4-1-0.9v-12.8
				C65.2,124.6,65.7,124.2,66.2,124.2L66.2,124.2z M66.2,138.7c0.4,0,0.9-0.4,0.9-0.8v-12.8c0-0.4-0.4-0.8-0.9-0.8
				c-0.4,0-0.9,0.4-0.9,0.8v12.8C65.4,138.3,65.8,138.7,66.2,138.7L66.2,138.7z"/>
			<path class="st24" d="M60.1,131.1c0.5,0.1,0.9,0.4,0.9,0.9l-0.4,5.7c-0.1,0.5-0.5,0.9-1,0.8s-0.9-0.4-0.9-0.9l0.4-5.7
				C59.1,131.4,59.6,131,60.1,131.1L60.1,131.1z"/>
			<path class="st18" d="M60.1,131c0.6,0.1,0.9,0.5,0.9,1l-0.4,5.7c-0.1,0.5-0.5,0.9-1,0.9c-0.6-0.1-0.9-0.5-0.9-1l0.4-5.7
				C59.1,131.3,59.5,131,60.1,131L60.1,131z M59.5,138.4c0.4,0,0.9-0.3,0.9-0.7l0.4-5.7c0-0.4-0.3-0.8-0.8-0.9
				c-0.4,0-0.9,0.3-0.9,0.7l-0.4,5.7C58.7,138,59.1,138.4,59.5,138.4L59.5,138.4z"/>
			<path class="st24" d="M55.5,123.1c0.5,0.1,0.8,0.6,0.7,1l-2.5,12.6c-0.1,0.5-0.6,0.8-1,0.7s-0.8-0.6-0.7-1l2.5-12.6
				C54.5,123.4,55,123.1,55.5,123.1L55.5,123.1z"/>
			<path class="st18" d="M55.5,123.1c0.6,0.1,0.9,0.6,0.8,1.1l-2.5,12.6c-0.1,0.5-0.6,0.9-1.2,0.7c-0.6-0.1-0.9-0.6-0.8-1.1
				l2.5-12.6C54.4,123.3,54.9,123,55.5,123.1L55.5,123.1z M52.6,137.3c0.4,0.1,0.9-0.2,1-0.6l2.5-12.6c0.1-0.4-0.2-0.9-0.7-1
				c-0.4-0.1-0.9,0.2-1,0.6l-2.5,12.6C51.8,136.8,52.1,137.2,52.6,137.3L52.6,137.3z"/>
			<path class="st24" d="M48.1,128.6c0.5,0.1,0.8,0.6,0.7,1.1l-1.5,5.5c-0.1,0.5-0.6,0.7-1.1,0.6c-0.5-0.1-0.8-0.6-0.7-1.1l1.5-5.5
				C47.1,128.8,47.6,128.5,48.1,128.6L48.1,128.6z"/>
			<path class="st18" d="M48.1,128.6c0.5,0.1,0.9,0.7,0.7,1.2l-1.5,5.5c-0.1,0.5-0.7,0.8-1.2,0.7s-0.9-0.7-0.7-1.2l1.5-5.5
				C47.1,128.8,47.6,128.4,48.1,128.6L48.1,128.6z M46.1,135.7c0.4,0.1,0.9-0.1,1-0.6l1.5-5.5c0.1-0.4-0.1-0.9-0.6-1
				c-0.4-0.1-0.9,0.1-1,0.6l-1.5,5.5C45.4,135.2,45.7,135.6,46.1,135.7L46.1,135.7z"/>
			<path class="st24" d="M45.1,120c0.5,0.2,0.7,0.7,0.5,1.2L40.7,133c-0.2,0.4-0.7,0.7-1.2,0.4c-0.4-0.2-0.7-0.7-0.5-1.2l4.9-11.8
				C44.1,120,44.7,119.7,45.1,120L45.1,120z"/>
			<path class="st18" d="M45.1,119.9c0.5,0.2,0.7,0.7,0.6,1.2L40.7,133c-0.2,0.5-0.7,0.7-1.3,0.5c-0.5-0.2-0.7-0.7-0.6-1.2l4.9-11.8
				C44.1,119.9,44.6,119.7,45.1,119.9L45.1,119.9z M39.5,133.4c0.4,0.2,0.9,0,1.1-0.4l4.9-11.8c0.2-0.4-0.1-0.9-0.5-1
				c-0.4-0.2-0.9,0-1.1,0.4L39,132.3C38.9,132.7,39.1,133.2,39.5,133.4L39.5,133.4z"/>
			<path class="st24" d="M36.8,123.9c0.4,0.2,0.6,0.7,0.4,1.2l-2.6,5.1c-0.2,0.4-0.7,0.6-1.2,0.4c-0.4-0.2-0.6-0.7-0.4-1.2l2.6-5.1
				C35.8,123.8,36.3,123.7,36.8,123.9L36.8,123.9z"/>
			<path class="st18" d="M36.8,123.8c0.5,0.2,0.7,0.8,0.4,1.3l-2.6,5.1c-0.2,0.5-0.8,0.7-1.3,0.4c-0.5-0.2-0.7-0.8-0.4-1.3l2.6-5.1
				C35.8,123.8,36.3,123.6,36.8,123.8L36.8,123.8z M33.5,130.5c0.4,0.2,0.9,0.1,1.1-0.4l2.6-5.1c0.2-0.4,0-0.9-0.4-1.1
				c-0.4-0.2-0.9-0.1-1.1,0.4l-2.6,5.1C32.9,129.8,33.1,130.3,33.5,130.5L33.5,130.5z"/>
			<path class="st24" d="M35.6,114.8c0.4,0.3,0.6,0.9,0.2,1.2l-7.1,10.6c-0.2,0.4-0.8,0.5-1.2,0.2c-0.4-0.3-0.6-0.9-0.2-1.2
				l7.1-10.6C34.6,114.7,35.2,114.5,35.6,114.8L35.6,114.8z"/>
			<path class="st18" d="M35.6,114.8c0.4,0.3,0.6,0.9,0.3,1.3l-7.1,10.6c-0.3,0.4-0.9,0.6-1.3,0.2c-0.4-0.3-0.6-0.9-0.3-1.3
				l7.1-10.6C34.6,114.6,35.2,114.5,35.6,114.8L35.6,114.8z M27.5,126.9c0.4,0.2,0.9,0.2,1.2-0.2l7.1-10.6c0.2-0.4,0.1-0.9-0.2-1.1
				c-0.4-0.2-0.9-0.2-1.2,0.2l-7.1,10.5C27,126.1,27.1,126.6,27.5,126.9L27.5,126.9z"/>
			<path class="st24" d="M26.6,117.1c0.4,0.3,0.5,0.9,0.2,1.2l-3.6,4.5c-0.3,0.4-0.9,0.4-1.2,0.1s-0.5-0.9-0.2-1.2l3.6-4.5
				C25.7,116.9,26.3,116.8,26.6,117.1L26.6,117.1z"/>
			<path class="st18" d="M26.7,117c0.4,0.3,0.5,0.9,0.2,1.3l-3.6,4.5c-0.3,0.4-0.9,0.5-1.3,0.1c-0.4-0.3-0.5-0.9-0.2-1.3l3.6-4.5
				C25.7,116.7,26.3,116.7,26.7,117L26.7,117z M22.1,122.9c0.4,0.3,0.9,0.2,1.2-0.1l3.6-4.5c0.2-0.4,0.2-0.9-0.2-1.2
				s-0.9-0.2-1.2,0.1l-3.6,4.5C21.7,122.1,21.7,122.6,22.1,122.9L22.1,122.9z"/>
			<path class="st24" d="M27.3,107.9c0.4,0.4,0.4,0.9,0,1.2l-9.1,9c-0.4,0.4-0.9,0.3-1.2,0c-0.3-0.3-0.4-0.9,0-1.2l9-9
				C26.3,107.5,26.9,107.5,27.3,107.9L27.3,107.9z"/>
			<path class="st18" d="M27.3,107.8c0.4,0.4,0.4,1,0,1.3l-9.1,9c-0.4,0.4-1,0.4-1.3,0c-0.4-0.4-0.4-1,0-1.3l9.1-9
				C26.3,107.5,27,107.5,27.3,107.8L27.3,107.8z M17,118.1c0.3,0.3,0.9,0.3,1.2,0l9.1-9c0.3-0.3,0.3-0.9,0-1.2
				c-0.3-0.3-0.9-0.3-1.2,0l-9.1,9C16.7,117.3,16.7,117.8,17,118.1L17,118.1z"/>
			<path class="st24" d="M18.1,108.4c0.3,0.4,0.3,0.9-0.1,1.2l-4.4,3.7c-0.4,0.3-0.9,0.2-1.2-0.1c-0.3-0.4-0.3-0.9,0.1-1.2l4.4-3.7
				C17.2,108,17.8,108,18.1,108.4L18.1,108.4z"/>
			<path class="st18" d="M18.1,108.3c0.4,0.4,0.3,1-0.1,1.3l-4.4,3.7c-0.4,0.4-1,0.3-1.3-0.1s-0.3-1,0.1-1.3l4.4-3.7
				C17.1,107.8,17.8,107.9,18.1,108.3L18.1,108.3z M12.5,113.2c0.3,0.4,0.8,0.4,1.2,0.1l4.4-3.7c0.3-0.3,0.4-0.8,0.1-1.2
				c-0.3-0.4-0.8-0.4-1.2-0.1l-4.4,3.7C12.2,112.3,12.2,112.8,12.5,113.2L12.5,113.2z"/>
			<path class="st24" d="M20.5,99.6c0.3,0.4,0.2,1-0.2,1.2l-10.7,7.1c-0.4,0.2-1,0.1-1.2-0.2c-0.3-0.4-0.2-1,0.2-1.2l10.7-7.1
				C19.7,99.1,20.2,99.2,20.5,99.6L20.5,99.6z"/>
			<path class="st18" d="M20.6,99.6c0.3,0.4,0.2,1-0.2,1.3L9.7,108c-0.4,0.3-1,0.2-1.3-0.3c-0.3-0.4-0.2-1,0.2-1.3l10.7-7.1
				C19.7,99,20.3,99.1,20.6,99.6L20.6,99.6z M8.4,107.6c0.2,0.4,0.7,0.5,1.1,0.2l10.7-7.1c0.4-0.2,0.5-0.7,0.2-1.2
				c-0.2-0.4-0.7-0.5-1.1-0.2l-10.7,7.1C8.3,106.7,8.2,107.2,8.4,107.6L8.4,107.6z"/>
			<path class="st24" d="M11.4,98.3c0.2,0.4,0.1,1-0.3,1.2l-5,2.8c-0.4,0.2-1,0.1-1.2-0.4c-0.2-0.4-0.1-1,0.3-1.2l5-2.8
				C10.6,97.7,11.1,97.9,11.4,98.3L11.4,98.3z"/>
			<path class="st18" d="M11.4,98.2c0.2,0.5,0.1,1-0.3,1.3l-5,2.8c-0.4,0.2-1,0.1-1.3-0.4c-0.2-0.5-0.1-1,0.3-1.3l5-2.8
				C10.6,97.6,11.2,97.8,11.4,98.2L11.4,98.2z M4.9,101.9c0.2,0.4,0.7,0.6,1.1,0.3l5-2.8c0.4-0.2,0.5-0.7,0.3-1.1
				c-0.2-0.4-0.7-0.6-1.1-0.3l-5,2.8C4.9,101,4.8,101.5,4.9,101.9L4.9,101.9z"/>
			<path class="st24" d="M15.5,90.1c0.2,0.5,0,1-0.5,1.2L3.2,96.2c-0.4,0.2-1-0.1-1.2-0.5c-0.2-0.5,0-1,0.5-1.2l11.8-4.9
				C14.8,89.5,15.3,89.6,15.5,90.1L15.5,90.1z"/>
			<path class="st18" d="M15.5,90.1c0.2,0.5,0,1-0.5,1.3L3.2,96.3c-0.5,0.2-1-0.1-1.2-0.6c-0.2-0.5,0-1,0.5-1.3l11.8-4.9
				C14.8,89.3,15.4,89.6,15.5,90.1L15.5,90.1z M2.1,95.6c0.2,0.4,0.7,0.6,1,0.5L15,91.2c0.4-0.2,0.6-0.7,0.4-1.1
				c-0.2-0.4-0.7-0.6-1-0.5L2.6,94.5C2.1,94.7,1.9,95.2,2.1,95.6L2.1,95.6z"/>
			<path class="st24" d="M6.8,87.1c0.2,0.5-0.1,1-0.6,1.2L0.9,90c-0.4,0.2-1-0.1-1.1-0.6c-0.2-0.5,0.1-1,0.6-1.2l5.4-1.8
				C6.2,86.3,6.7,86.6,6.8,87.1L6.8,87.1z"/>
			<path class="st18" d="M6.9,87c0.2,0.5-0.1,1-0.6,1.2L0.9,90c-0.5,0.2-1-0.1-1.2-0.6c-0.2-0.5,0.1-1,0.6-1.2l5.4-1.8
				C6.2,86.3,6.7,86.5,6.9,87L6.9,87z M-0.2,89.3c0.1,0.4,0.6,0.7,1,0.6l5.4-1.8c0.4-0.1,0.6-0.6,0.5-1c-0.1-0.4-0.6-0.7-1-0.6
				l-5.4,1.8C-0.1,88.5-0.3,88.9-0.2,89.3L-0.2,89.3z"/>
			<path class="st24" d="M12.4,79.8c0.1,0.5-0.2,1-0.7,1l-12.6,2.5c-0.5,0.1-0.9-0.2-1-0.7c-0.1-0.5,0.2-1,0.7-1L11.3,79
				C11.8,79,12.3,79.3,12.4,79.8L12.4,79.8z"/>
			<path class="st18" d="M12.5,79.8c0.1,0.6-0.2,1-0.7,1.2l-12.6,2.5c-0.5,0.1-1-0.2-1.1-0.8c-0.1-0.6,0.2-1,0.7-1.2L11.4,79
				C11.9,78.8,12.4,79.2,12.5,79.8L12.5,79.8z M-1.8,82.5c0.1,0.4,0.5,0.7,0.9,0.7l12.6-2.5c0.4-0.1,0.7-0.6,0.6-1
				c-0.1-0.4-0.5-0.7-0.9-0.7l-12.6,2.5C-1.6,81.7-1.9,82.1-1.8,82.5L-1.8,82.5z"/>
			<path class="st24" d="M4.5,75c0.1,0.5-0.2,0.9-0.7,1l-5.6,0.7c-0.5,0.1-0.9-0.3-1-0.8c-0.1-0.5,0.2-0.9,0.7-1l5.6-0.7
				C4,74.2,4.5,74.6,4.5,75L4.5,75z"/>
			<path class="st18" d="M4.6,75c0.1,0.6-0.3,1-0.8,1.1l-5.6,0.7c-0.5,0.1-1-0.3-1-0.9c-0.1-0.6,0.3-1,0.8-1.1l5.6-0.7
				C4,74.1,4.5,74.5,4.6,75L4.6,75z M-2.8,75.9c0.1,0.4,0.5,0.8,0.9,0.7L3.7,76c0.4-0.1,0.7-0.5,0.7-0.9c-0.1-0.4-0.5-0.8-0.9-0.7
				L-2.2,75C-2.6,75-2.9,75.5-2.8,75.9L-2.8,75.9z"/>
			<path class="st24" d="M11.4,69.1c0,0.5-0.4,0.9-0.9,0.9H-2.3c-0.5,0-0.9-0.4-0.9-0.9c0-0.5,0.4-0.9,0.9-0.9h12.8
				C11,68.2,11.4,68.6,11.4,69.1L11.4,69.1z"/>
			<path class="st18" d="M11.4,69.1c0,0.6-0.4,1-0.9,1H-2.3c-0.5,0-0.9-0.4-0.9-1s0.4-1,0.9-1h12.8C11,68.1,11.4,68.5,11.4,69.1
				L11.4,69.1z M-3.1,69c0,0.4,0.4,0.9,0.8,0.9h12.8c0.4,0,0.8-0.4,0.8-0.9c0-0.4-0.4-0.9-0.8-0.9H-2.3C-2.7,68.2-3.1,68.6-3.1,69
				L-3.1,69z"/>
			<path class="st25" d="M4.6,62.9c-0.1,0.5-0.4,0.9-0.9,0.9L-2,63.3c-0.5-0.1-0.9-0.5-0.8-1c0.1-0.5,0.4-0.9,0.9-0.9l5.7,0.4
				C4.2,62,4.6,62.4,4.6,62.9L4.6,62.9z"/>
			<path class="st18" d="M4.6,62.9c-0.1,0.6-0.5,0.9-1,0.9L-2,63.4c-0.5-0.1-0.9-0.5-0.9-1c0.1-0.6,0.5-0.9,1-0.9l5.7,0.4
				C4.3,61.9,4.6,62.4,4.6,62.9L4.6,62.9z M-2.8,62.4c-0.1,0.4,0.3,0.9,0.7,0.9l5.7,0.4c0.4,0,0.8-0.3,0.9-0.8
				C4.5,62.4,4.1,62,3.7,62L-2,61.6C-2.4,61.6-2.8,61.9-2.8,62.4L-2.8,62.4z"/>
			<path class="st24" d="M12.5,58.4c-0.1,0.5-0.6,0.8-1,0.7l-12.6-2.6c-0.5-0.1-0.8-0.6-0.7-1c0.1-0.5,0.6-0.8,1-0.7l12.6,2.5
				C12.2,57.4,12.5,57.9,12.5,58.4L12.5,58.4z"/>
			<path class="st18" d="M12.5,58.4c-0.1,0.6-0.6,0.9-1.1,0.8l-12.6-2.5c-0.5-0.1-0.9-0.6-0.7-1.2c0.1-0.6,0.6-0.9,1.1-0.8l12.6,2.5
				C12.3,57.4,12.6,57.9,12.5,58.4L12.5,58.4z M-1.7,55.5c-0.1,0.4,0.2,0.9,0.6,1L11.4,59c0.4,0.1,0.9-0.2,1-0.7
				c0.1-0.4-0.2-0.9-0.6-1l-12.6-2.5C-1.3,54.8-1.6,55.1-1.7,55.5L-1.7,55.5z"/>
			<path class="st24" d="M7,51.1c-0.1,0.5-0.6,0.8-1.1,0.7l-5.5-1.5c-0.5-0.1-0.7-0.6-0.6-1.1c0.1-0.5,0.6-0.8,1.1-0.7L6.4,50
				C6.8,50.1,7.1,50.6,7,51.1L7,51.1z"/>
			<path class="st18" d="M7,51.1c-0.1,0.5-0.7,0.9-1.2,0.7l-5.5-1.5c-0.5-0.1-0.8-0.7-0.7-1.2c0.1-0.5,0.7-0.9,1.2-0.7l5.5,1.5
				C6.8,50,7.1,50.5,7,51.1L7,51.1z M-0.1,49c-0.1,0.4,0.1,0.9,0.6,1l5.5,1.5c0.4,0.1,0.9-0.1,1-0.6c0.1-0.4-0.1-0.9-0.6-1l-5.5-1.5
				C0.4,48.4,0,48.6-0.1,49L-0.1,49z"/>
			<path class="st24" d="M15.6,48.1c-0.2,0.5-0.7,0.7-1.2,0.5L2.6,43.7c-0.4-0.2-0.7-0.7-0.5-1.2c0.2-0.5,0.7-0.7,1.2-0.5L15.1,47
				C15.6,47.1,15.8,47.7,15.6,48.1L15.6,48.1z"/>
			<path class="st18" d="M15.7,48.2c-0.2,0.5-0.7,0.7-1.2,0.6L2.6,43.8c-0.5-0.2-0.7-0.7-0.5-1.3c0.2-0.5,0.7-0.7,1.2-0.6l11.8,4.9
				C15.7,47.1,15.9,47.7,15.7,48.2L15.7,48.2z M2.2,42.6c-0.2,0.4,0,0.9,0.4,1.1l11.8,4.9c0.4,0.2,0.9-0.1,1-0.5
				c0.2-0.4,0-0.9-0.4-1.1L3.3,42.1C2.9,42,2.4,42.2,2.2,42.6L2.2,42.6z"/>
			<path class="st24" d="M11.6,39.9c-0.2,0.4-0.7,0.6-1.2,0.4l-5.1-2.6C4.9,37.5,4.8,37,5,36.5c0.2-0.4,0.7-0.6,1.2-0.4l5.1,2.6
				C11.7,38.9,11.9,39.4,11.6,39.9L11.6,39.9z"/>
			<path class="st18" d="M11.7,39.9c-0.2,0.5-0.8,0.7-1.3,0.4l-5.1-2.6c-0.5-0.2-0.7-0.8-0.4-1.3c0.2-0.5,0.8-0.7,1.3-0.4l5.1,2.6
				C11.7,38.8,11.9,39.4,11.7,39.9L11.7,39.9z M5.1,36.5C4.9,37,5,37.5,5.4,37.6l5.1,2.6c0.4,0.2,0.9,0,1.1-0.4
				c0.2-0.4,0.1-0.9-0.4-1.1l-5.2-2.6C5.7,36,5.2,36.1,5.1,36.5L5.1,36.5z"/>
			<path class="st24" d="M20.6,38.7c-0.3,0.4-0.8,0.6-1.2,0.2L8.8,31.9c-0.4-0.2-0.5-0.8-0.2-1.2s0.8-0.6,1.2-0.2l10.7,7.1
				C20.8,37.8,20.9,38.3,20.6,38.7L20.6,38.7z"/>
			<path class="st18" d="M20.7,38.7c-0.3,0.4-0.9,0.6-1.3,0.3L8.7,31.9c-0.4-0.3-0.6-0.9-0.2-1.3c0.3-0.4,0.9-0.6,1.3-0.3l10.6,7.1
				C20.9,37.7,21,38.3,20.7,38.7L20.7,38.7z M8.6,30.7c-0.2,0.4-0.2,0.9,0.2,1.2l10.7,7.1c0.4,0.2,0.9,0.1,1.1-0.2
				c0.2-0.4,0.2-0.9-0.2-1.2L9.7,30.4C9.4,30.2,8.9,30.3,8.6,30.7L8.6,30.7z"/>
			<path class="st24" d="M18.4,29.8c-0.3,0.4-0.9,0.5-1.2,0.2l-4.5-3.5c-0.4-0.3-0.4-0.9-0.1-1.2c0.3-0.4,0.9-0.5,1.2-0.2l4.5,3.5
				C18.6,28.9,18.7,29.4,18.4,29.8L18.4,29.8z"/>
			<path class="st18" d="M18.4,29.9c-0.3,0.4-0.9,0.5-1.3,0.2l-4.5-3.5c-0.4-0.3-0.5-0.9-0.2-1.3c0.3-0.4,0.9-0.5,1.3-0.2l4.5,3.5
				C18.7,28.8,18.7,29.4,18.4,29.9L18.4,29.9z M12.5,25.3c-0.3,0.4-0.2,0.9,0.1,1.2l4.5,3.5c0.4,0.2,0.9,0.2,1.2-0.2
				c0.3-0.4,0.2-0.9-0.1-1.2l-4.5-3.5C13.3,24.8,12.9,24.9,12.5,25.3L12.5,25.3z"/>
			<path class="st24" d="M27.5,30.4c-0.4,0.4-0.9,0.4-1.2,0l-9.1-9c-0.4-0.4-0.3-0.9,0-1.2c0.4-0.4,0.9-0.4,1.2,0l9.1,9
				C27.8,29.5,27.8,30.1,27.5,30.4L27.5,30.4z"/>
			<path class="st18" d="M27.5,30.5c-0.4,0.4-1,0.4-1.3,0l-9.1-9c-0.4-0.4-0.4-1,0-1.3c0.4-0.4,1-0.4,1.3,0l9.1,9
				C27.9,29.5,27.9,30.1,27.5,30.5L27.5,30.5z M17.2,20.2c-0.3,0.3-0.3,0.9,0,1.2l9.1,9c0.3,0.3,0.9,0.3,1.2,0
				c0.3-0.3,0.3-0.9,0-1.2l-9.1-9.1C18.1,19.9,17.6,19.9,17.2,20.2L17.2,20.2z"/>
			<path class="st24" d="M27,21.3c-0.4,0.3-0.9,0.3-1.2-0.1L22,16.9c-0.3-0.4-0.2-0.9,0.1-1.2c0.4-0.3,0.9-0.3,1.2,0.1l3.7,4.3
				C27.4,20.4,27.3,20.9,27,21.3L27,21.3z"/>
			<path class="st18" d="M27,21.3c-0.4,0.4-1,0.3-1.3-0.1l-3.7-4.3c-0.4-0.4-0.3-1,0.1-1.3c0.4-0.4,1-0.3,1.3,0.1l3.7,4.3
				C27.4,20.4,27.4,21,27,21.3L27,21.3z M22.1,15.7c-0.4,0.3-0.4,0.8-0.1,1.2l3.7,4.3c0.3,0.3,0.8,0.4,1.2,0.1
				c0.4-0.3,0.4-0.8,0.1-1.2l-3.7-4.3C23,15.4,22.5,15.4,22.1,15.7L22.1,15.7z"/>
			<path class="st24" d="M35.8,23.6c-0.4,0.3-1,0.2-1.2-0.2l-7.2-10.6c-0.2-0.4-0.1-1,0.2-1.2c0.4-0.3,1-0.2,1.2,0.2L36,22.4
				C36.3,22.8,36.1,23.4,35.8,23.6L35.8,23.6z"/>
			<path class="st18" d="M35.8,23.7c-0.4,0.3-1,0.2-1.3-0.2l-7.1-10.6c-0.3-0.4-0.2-1,0.3-1.3c0.4-0.3,1-0.2,1.3,0.2l7.1,10.6
				C36.4,22.8,36.3,23.4,35.8,23.7L35.8,23.7z M27.7,11.6c-0.4,0.2-0.5,0.7-0.2,1.1l7.1,10.6c0.2,0.4,0.7,0.4,1.2,0.2
				c0.4-0.2,0.5-0.7,0.2-1.1l-7.1-10.5C28.6,11.5,28.1,11.3,27.7,11.6L27.7,11.6z"/>
			<path class="st24" d="M37.1,14.5c-0.4,0.2-1,0.1-1.2-0.3l-2.8-5c-0.2-0.4-0.1-1,0.4-1.2c0.4-0.2,1-0.1,1.2,0.3l2.8,5
				C37.6,13.7,37.5,14.3,37.1,14.5L37.1,14.5z"/>
			<path class="st18" d="M37.1,14.6c-0.5,0.2-1,0.1-1.3-0.3l-2.8-5c-0.2-0.4-0.1-1,0.4-1.3c0.5-0.2,1-0.1,1.3,0.3l2.8,5
				C37.7,13.7,37.6,14.3,37.1,14.6L37.1,14.6z M33.4,8.1c-0.4,0.2-0.6,0.7-0.3,1.1l2.8,5c0.2,0.4,0.7,0.5,1.1,0.3
				c0.4-0.2,0.6-0.7,0.3-1.1l-2.8-5C34.3,8,33.8,7.8,33.4,8.1L33.4,8.1z"/>
			<path class="st24" d="M45.2,18.6c-0.5,0.2-1,0-1.2-0.4l-5-11.8c-0.2-0.4,0.1-1,0.5-1.2c0.5-0.2,1,0,1.2,0.4l5,11.8
				C45.9,17.8,45.7,18.4,45.2,18.6L45.2,18.6z"/>
			<path class="st18" d="M45.2,18.6c-0.5,0.2-1,0-1.3-0.5L39,6.3c-0.2-0.5,0.1-1,0.6-1.2c0.5-0.2,1,0,1.3,0.5l5,11.8
				C46,17.8,45.7,18.4,45.2,18.6L45.2,18.6z M39.6,5.2c-0.4,0.2-0.6,0.7-0.4,1l5,11.8c0.2,0.4,0.7,0.6,1.1,0.4
				c0.4-0.2,0.6-0.7,0.4-1l-5-11.8C40.5,5.2,40.1,5,39.6,5.2L39.6,5.2z"/>
			<path class="st24" d="M48.2,9.9c-0.5,0.2-1-0.1-1.2-0.6l-1.8-5.4c-0.2-0.4,0.1-1,0.6-1.1c0.4-0.1,1,0.1,1.2,0.6l1.8,5.4
				C49,9.2,48.7,9.7,48.2,9.9L48.2,9.9z"/>
			<path class="st18" d="M48.3,9.9c-0.5,0.2-1-0.1-1.2-0.6L45.3,4c-0.2-0.5,0.1-1,0.6-1.2c0.5-0.2,1,0.1,1.2,0.6l1.8,5.4
				C49,9.2,48.8,9.7,48.3,9.9L48.3,9.9z M45.9,2.9c-0.4,0.1-0.7,0.6-0.6,1l1.8,5.4c0.1,0.4,0.6,0.6,1,0.5c0.4-0.1,0.7-0.6,0.6-1
				l-1.8-5.4C46.8,2.9,46.3,2.7,45.9,2.9L45.9,2.9z"/>
			<path class="st24" d="M55.5,15.5c-0.5,0.1-1-0.2-1-0.7L51.8,2.2c-0.1-0.5,0.2-0.9,0.7-1c0.5-0.1,1,0.2,1,0.7l2.6,12.6
				C56.3,14.8,56,15.3,55.5,15.5L55.5,15.5z"/>
			<path class="st18" d="M55.5,15.5c-0.6,0.1-1-0.2-1.2-0.7L51.7,2.2c-0.1-0.5,0.2-1,0.7-1.1c0.6-0.1,1,0.2,1.2,0.7l2.6,12.6
				C56.3,14.9,56,15.4,55.5,15.5L55.5,15.5z M52.6,1.2c-0.4,0.1-0.7,0.5-0.7,1l2.6,12.6c0.1,0.4,0.6,0.7,1,0.6
				c0.4-0.1,0.7-0.5,0.7-1L53.6,1.8C53.4,1.4,53,1.2,52.6,1.2L52.6,1.2z"/>
			<path class="st24" d="M60.1,7.5c-0.5,0.1-0.9-0.2-1-0.7l-0.7-5.6c-0.1-0.5,0.3-0.9,0.8-1c0.5-0.1,0.9,0.2,1,0.7l0.7,5.6
				C61,7,60.6,7.4,60.1,7.5L60.1,7.5z"/>
			<path class="st18" d="M60.1,7.5c-0.6,0.1-1-0.3-1.1-0.8l-0.7-5.6c-0.1-0.5,0.3-1,0.9-1c0.6-0.1,1,0.3,1.1,0.8L61,6.5
				C61,7,60.7,7.5,60.1,7.5L60.1,7.5z M59.2,0.2c-0.4,0.1-0.8,0.5-0.7,0.9l0.7,5.6c0.1,0.4,0.5,0.7,0.9,0.7c0.4-0.1,0.8-0.5,0.7-0.9
				l-0.7-5.6C60.1,0.4,59.6,0.1,59.2,0.2L59.2,0.2z"/>
			
				<linearGradient id="SVGID_3_" gradientUnits="userSpaceOnUse" x1="-888.5291" y1="608.0472" x2="-888.6768" y2="607.7822" gradientTransform="matrix(229.4 0 0 -229.4 203903.7969 139540)">
				<stop  offset="0" style="stop-color:#000000;stop-opacity:0"/>
				<stop  offset="1" style="stop-color:#000000"/>
			</linearGradient>
			<circle style="fill:url(#SVGID_3_);fill-opacity:0.2;" cx="66.7" cy="69.2" r="72.6"/>
		</g>
		<path class="st27" d="M126.7,31.9L68.2,69.4h-0.1v0.1L68,69.5l-36.5,60.3l53.7-43.2l0.1-0.1v-0.1L126.7,31.9z"/>
		<path class="st28" d="M125.6,28.4L67.7,69.5l17.2,17L125.6,28.4"/>
		<path class="st29" d="M67.8,69.4l8.6,8.5l49.2-49.5L67.8,69.4z"/>
		<path class="st30" d="M67.8,69.4l17.2,17l-57.9,41.1L67.8,69.4z"/>
		<path class="st31" d="M27.1,127.6l49.4-49.7l-8.6-8.5L27.1,127.6z"/>
	</g>
</g>
</svg>
