<?xml version="1.0" encoding="utf-8"?>
<!-- Generator: Adobe Illustrator 23.0.1, SVG Export Plug-In . SVG Version: 6.00 Build 0)  -->
<svg version="1.1" xmlns="http://www.w3.org/2000/svg" xmlns:xlink="http://www.w3.org/1999/xlink" x="0px" y="0px"
	 viewBox="0 0 64 64" style="enable-background:new 0 0 64 64;" xml:space="preserve">
<style type="text/css">
	.st0{fill:#CCCCCC;}
	.st1{fill:none;stroke:#2C3251;stroke-width:0.5;stroke-miterlimit:10;}
	.st2{opacity:0.2;fill:#2C3251;}
	.st3{fill:#FFFFFF;}
	.st4{fill:#FFFFFF;stroke:#2C3251;stroke-width:0.5;stroke-miterlimit:10;}
	.st5{fill:#FFFFFF;stroke:#2C3251;stroke-width:0.5;stroke-linecap:round;stroke-linejoin:round;stroke-miterlimit:10;}
	.st6{fill:none;stroke:#2C3251;stroke-width:0.5;stroke-linecap:round;stroke-linejoin:round;stroke-miterlimit:10;}
	.st7{opacity:0.4;fill:#2C3251;enable-background:new    ;}
	.st8{fill:#2C3251;}
	.st9{fill:#2C3251;stroke:#2C3251;stroke-width:0.1;stroke-miterlimit:10;}
	.st10{fill:#939393;}
	.st11{fill:#D2E9F7;}
	.st12{fill:#0686D8;}
	.st13{clip-path:url(#SVGID_2_);}
	.st14{clip-path:url(#SVGID_4_);fill:#FFFFFF;}
	.st15{clip-path:url(#SVGID_6_);}
	.st16{clip-path:url(#SVGID_8_);fill:#FFFFFF;}
	.st17{clip-path:url(#SVGID_10_);}
	.st18{clip-path:url(#SVGID_14_);}
	.st19{clip-path:url(#SVGID_16_);}
	.st20{clip-path:url(#SVGID_18_);}
	.st21{clip-path:url(#SVGID_20_);fill:#CCCCCC;}
	.st22{clip-path:url(#SVGID_22_);}
	.st23{clip-path:url(#SVGID_24_);fill:#CCCCCC;}
	.st24{clip-path:url(#SVGID_26_);}
	.st25{clip-path:url(#SVGID_28_);fill:#CCCCCC;}
	.st26{clip-path:url(#SVGID_30_);}
	.st27{clip-path:url(#SVGID_32_);fill:#CCCCCC;}
	.st28{clip-path:url(#SVGID_34_);}
	.st29{clip-path:url(#SVGID_36_);fill:#CCCCCC;}
	.st30{clip-path:url(#SVGID_38_);}
	.st31{clip-path:url(#SVGID_42_);}
	.st32{clip-path:url(#SVGID_44_);}
	.st33{clip-path:url(#SVGID_46_);}
	.st34{clip-path:url(#SVGID_48_);fill:none;}
	.st35{clip-path:url(#SVGID_50_);}
	.st36{clip-path:url(#SVGID_52_);}
	.st37{clip-path:url(#SVGID_54_);}
	.st38{clip-path:url(#SVGID_58_);}
	.st39{clip-path:url(#SVGID_62_);}
	.st40{clip-path:url(#SVGID_64_);enable-background:new    ;}
	.st41{clip-path:url(#SVGID_66_);}
	.st42{clip-path:url(#SVGID_68_);}
	.st43{clip-path:url(#SVGID_70_);}
	.st44{clip-path:url(#SVGID_72_);}
	.st45{clip-path:url(#SVGID_76_);}
	.st46{clip-path:url(#SVGID_80_);}
	.st47{clip-path:url(#SVGID_82_);}
	.st48{clip-path:url(#SVGID_84_);}
	.st49{clip-path:url(#SVGID_86_);fill:#FFFFFF;}
	.st50{clip-path:url(#SVGID_89_);}
	.st51{clip-path:url(#SVGID_90_);}
	.st52{clip-path:url(#SVGID_92_);fill:#9ECFEF;}
	.st53{clip-path:url(#SVGID_94_);}
	.st54{clip-path:url(#SVGID_96_);}
	.st55{clip-path:url(#SVGID_98_);}
	.st56{clip-path:url(#SVGID_102_);}
	.st57{clip-path:url(#SVGID_104_);fill:#FFFFFF;}
	.st58{clip-path:url(#SVGID_106_);}
	.st59{clip-path:url(#SVGID_108_);}
	.st60{clip-path:url(#SVGID_110_);}
	.st61{clip-path:url(#SVGID_112_);}
	.st62{clip-path:url(#SVGID_114_);}
	.st63{clip-path:url(#SVGID_116_);enable-background:new    ;}
	.st64{clip-path:url(#SVGID_118_);}
	.st65{clip-path:url(#SVGID_120_);}
	.st66{clip-path:url(#SVGID_122_);fill:#CCCCCC;}
	.st67{clip-path:url(#SVGID_124_);}
	.st68{clip-path:url(#SVGID_126_);fill:#CCCCCC;}
	.st69{clip-path:url(#SVGID_128_);}
	.st70{clip-path:url(#SVGID_130_);fill:#CCCCCC;}
	.st71{clip-path:url(#SVGID_132_);}
	.st72{clip-path:url(#SVGID_134_);fill:#CCCCCC;}
	.st73{clip-path:url(#SVGID_136_);}
	.st74{clip-path:url(#SVGID_138_);fill:#CCCCCC;}
	.st75{clip-path:url(#SVGID_140_);}
	.st76{clip-path:url(#SVGID_142_);fill:#CCCCCC;}
	.st77{fill:none;stroke:#000000;stroke-width:2.7984;stroke-miterlimit:10;}
	.st78{fill:#5FB0E5;}
	.st79{clip-path:url(#SVGID_144_);}
	.st80{clip-path:url(#SVGID_148_);}
	.st81{clip-path:url(#SVGID_150_);}
	.st82{clip-path:url(#SVGID_152_);}
	.st83{clip-path:url(#SVGID_154_);fill:#FFFFFE;}
	.st84{clip-path:url(#SVGID_156_);}
	.st85{clip-path:url(#SVGID_158_);fill:#FFFFFF;}
	.st86{clip-path:url(#SVGID_160_);}
	.st87{clip-path:url(#SVGID_162_);}
	.st88{clip-path:url(#SVGID_164_);}
	.st89{clip-path:url(#SVGID_166_);fill:#FFFFFE;}
	.st90{clip-path:url(#SVGID_168_);}
	.st91{clip-path:url(#SVGID_170_);fill:#CCCCCC;}
	.st92{clip-path:url(#SVGID_172_);}
	.st93{clip-path:url(#SVGID_174_);}
	.st94{clip-path:url(#SVGID_176_);}
	.st95{clip-path:url(#SVGID_178_);}
	.st96{clip-path:url(#SVGID_180_);}
	.st97{clip-path:url(#SVGID_182_);}
	.st98{clip-path:url(#SVGID_184_);}
	.st99{clip-path:url(#SVGID_186_);}
	.st100{clip-path:url(#SVGID_188_);}
	.st101{clip-path:url(#SVGID_190_);}
	.st102{clip-path:url(#SVGID_192_);}
	.st103{clip-path:url(#SVGID_194_);}
	.st104{clip-path:url(#SVGID_196_);}
	.st105{clip-path:url(#SVGID_198_);fill:#CCCCCC;}
	.st106{clip-path:url(#SVGID_200_);}
	.st107{clip-path:url(#SVGID_202_);fill:#CCCCCC;}
	.st108{clip-path:url(#SVGID_204_);}
	.st109{clip-path:url(#SVGID_206_);fill:#CCCCCC;}
	.st110{clip-path:url(#SVGID_208_);}
	.st111{clip-path:url(#SVGID_210_);fill:#CCCCCC;}
	.st112{clip-path:url(#SVGID_212_);}
	.st113{clip-path:url(#SVGID_214_);fill:#CCCCCC;}
	.st114{clip-path:url(#SVGID_216_);}
	.st115{clip-path:url(#SVGID_218_);fill:#CCCCCC;}
	.st116{clip-path:url(#SVGID_220_);}
	.st117{clip-path:url(#SVGID_222_);fill:#CCCCCC;}
	.st118{clip-path:url(#SVGID_224_);}
	.st119{clip-path:url(#SVGID_226_);fill:#CCCCCC;}
	.st120{clip-path:url(#SVGID_228_);}
	.st121{clip-path:url(#SVGID_230_);fill:#CCCCCC;}
	.st122{clip-path:url(#SVGID_232_);}
	.st123{clip-path:url(#SVGID_234_);fill:#CCCCCC;}
	.st124{clip-path:url(#SVGID_236_);}
	.st125{clip-path:url(#SVGID_238_);fill:#CCCCCC;}
</style>
<g id="Layer_1">
	<g id="XMLID_882_">
		<g id="XMLID_920_">
			<path id="XMLID_887_" class="st0" d="M50,23.9c0,0.7-0.6,1.3-1.3,1.3c-0.7,0-1.3-0.6-1.3-1.3c0-0.7,0.6-1.3,1.3-1.3
				C49.5,22.6,50,23.2,50,23.9z"/>
		</g>
		<g id="XMLID_919_">
			<path id="XMLID_892_" class="st0" d="M39.9,3.5c0,0.8-0.7,1.5-1.5,1.5c-0.8,0-1.5-0.7-1.5-1.5S37.6,2,38.4,2
				C39.3,2,39.9,2.7,39.9,3.5z"/>
		</g>
		<g id="XMLID_63_">
			<circle id="XMLID_893_" class="st0" cx="50.9" cy="7.6" r="1.7"/>
		</g>
		<g id="XMLID_917_">
			<path id="XMLID_894_" class="st0" d="M61.1,17.3c0,1.4-1.1,2.5-2.5,2.5c-1.4,0-2.5-1.1-2.5-2.5c0-1.4,1.1-2.5,2.5-2.5
				C60,14.7,61.1,15.9,61.1,17.3z"/>
		</g>
		<g id="XMLID_885_">
			<g id="XMLID_895_">
				<path id="XMLID_896_" class="st3" d="M14.8,9.2L4,20v37.8c0,1.7,1.4,3.1,3.1,3.1h32.3c1.7,0,3.1-1.4,3.1-3.1V12.3
					c0-1.7-1.4-3.1-3.1-3.1H14.8z"/>
			</g>
			<g id="XMLID_897_">
				<polygon class="st3" points="14.8,20 14.8,9.2 4,20 				"/>
			</g>
			<g id="XMLID_62_">
				<path id="XMLID_1532_" d="M13.8,21.1H4v-2.3h9.7l-0.1-9.7H16v9.7C16,20.1,15,21.1,13.8,21.1z"/>
			</g>
			<g id="XMLID_61_">
				<path id="XMLID_1531_" d="M28.3,62H7c-2.3,0-4.1-1.8-4.1-4.1V19.5L14.4,8h25.2c2.3,0,4.1,1.8,4.1,4.1v14.4h-2.3V12.1
					c0-1-0.8-1.8-1.8-1.8H15.3L5.2,20.5v37.4c0,1,0.8,1.8,1.8,1.8h21.3V62z"/>
			</g>
			<g id="XMLID_914_">
				<g id="XMLID_60_">
					<path id="XMLID_1530_" class="st0" d="M24.7,29.8h-6.4v-2.3h6.4c0.7,0,1.3-0.6,1.3-1.3S25.3,25,24.7,25h-2.6
						c-1.9,0-3.5-1.6-3.5-3.5s1.6-3.5,3.5-3.5h6.3v2.3h-6.3c-0.7,0-1.3,0.6-1.3,1.3c0,0.7,0.6,1.3,1.3,1.3h2.6
						c1.9,0,3.5,1.6,3.5,3.5C28.2,28.2,26.6,29.8,24.7,29.8z"/>
				</g>
				<g id="XMLID_59_">
					<rect id="XMLID_1529_" x="22.1" y="15.1" class="st0" width="2.3" height="17.5"/>
				</g>
			</g>
			<g id="XMLID_58_">
				<rect id="XMLID_1528_" x="9.2" y="34.7" width="20.8" height="2.3"/>
			</g>
			<g id="XMLID_57_">
				<rect id="XMLID_1527_" x="9.2" y="40.9" width="20.8" height="2.3"/>
			</g>
			<g id="XMLID_56_">
				<rect id="XMLID_1526_" x="9.2" y="47" width="20.8" height="2.3"/>
			</g>
			<g id="XMLID_925_">
				<rect id="XMLID_1525_" x="9.2" y="53.1" width="20.8" height="2.3"/>
			</g>
			<g id="XMLID_41_">
				<g id="XMLID_55_">
					<path id="XMLID_2175_" class="st3" d="M56.6,60.9H34c-0.9,0-1.7-0.8-1.7-1.7V30.8c0-0.9,0.8-1.7,1.7-1.7h22.6
						c0.9,0,1.7,0.8,1.7,1.7v28.4C58.3,60.1,57.5,60.9,56.6,60.9z"/>
				</g>
				<g id="XMLID_926_">
					<path id="XMLID_1522_" d="M56.6,62H31.1V30.8c0-1.6,1.3-2.8,2.8-2.8h22.6c1.6,0,2.8,1.3,2.8,2.8v28.4
						C59.4,60.7,58.1,62,56.6,62z M33.4,59.7h23.2c0.3,0,0.5-0.2,0.5-0.5V30.8c0-0.3-0.2-0.5-0.5-0.5H34c-0.3,0-0.5,0.2-0.5,0.5
						V59.7z"/>
				</g>
				<g id="XMLID_928_">
					<rect x="37.2" y="34.1" class="st0" width="16.1" height="5.5"/>
				</g>
				<g id="XMLID_52_">
					<g id="XMLID_930_">
						<rect id="XMLID_1521_" x="37.2" y="44.1" width="2.4" height="2.3"/>
					</g>
					<g id="XMLID_929_">
						<rect id="XMLID_1520_" x="41.8" y="44.1" width="2.4" height="2.3"/>
					</g>
					<g id="XMLID_54_">
						<rect id="XMLID_1519_" x="46.3" y="44.1" width="2.4" height="2.3"/>
					</g>
					<g id="XMLID_53_">
						<rect id="XMLID_1518_" x="50.9" y="44.1" width="2.4" height="2.3"/>
					</g>
				</g>
				<g id="XMLID_47_">
					<g id="XMLID_51_">
						<rect id="XMLID_1517_" x="37.2" y="48.4" width="2.4" height="2.3"/>
					</g>
					<g id="XMLID_50_">
						<rect id="XMLID_1516_" x="41.8" y="48.4" width="2.4" height="2.3"/>
					</g>
					<g id="XMLID_49_">
						<rect id="XMLID_1515_" x="46.3" y="48.4" width="2.4" height="2.3"/>
					</g>
					<g id="XMLID_48_">
						<rect id="XMLID_1514_" x="50.9" y="48.4" width="2.4" height="2.3"/>
					</g>
				</g>
				<g id="XMLID_42_">
					<g id="XMLID_46_">
						<rect id="XMLID_1513_" x="37.2" y="52.7" width="2.4" height="2.3"/>
					</g>
					<g id="XMLID_45_">
						<rect id="XMLID_1512_" x="41.8" y="52.7" width="2.4" height="2.3"/>
					</g>
					<g id="XMLID_44_">
						<rect id="XMLID_1511_" x="46.3" y="52.7" width="2.4" height="2.3"/>
					</g>
					<g id="XMLID_43_">
						<rect id="XMLID_1510_" x="50.9" y="52.7" width="2.4" height="2.3"/>
					</g>
				</g>
			</g>
		</g>
	</g>
</g>
<g id="specctr">
	<g id="Text_Properties">
	</g>
</g>
</svg>
