<svg xmlns="http://www.w3.org/2000/svg" xmlns:xlink="http://www.w3.org/1999/xlink" viewBox="0 0 64 64" enable-background="new 0 0 64 64"><circle stroke="#2C3251" stroke-width=".5" stroke-miterlimit="10" cx="-970.5" cy="-44.6" r="27.1" fill="none"/><circle opacity=".2" fill="#2C3251" cx="-969.5" cy="-44.7" r="26.1"/><g fill="#fff"><path d="M-957.2-26.8h-3.5v-20.7h6.9l9.6 10.4v10.3h-4.9"/><path stroke="#2C3251" stroke-width=".5" stroke-miterlimit="10" d="M-959.2-27.7h2.2c.5 0 1 .4 1 1 0 .5-.4 1-1 1h-4.1v-22.5h8.1l9.8 11.3v11.3h-5.7c-.5 0-1-.4-1-1 0-.5.4-1 1-1"/></g><path fill="#fff" stroke="#2C3251" stroke-width=".5" stroke-miterlimit="10" d="M-959-25.8h-11.5c-.5 0-1-.4-1-1 0-.5.4-1 1-1h11.5c.5 0 1 .4 1 1-.1.6-.5 1-1 1zm-20.6 0h-8.6c-.5 0-1-.4-1-1 0-.5.4-1 1-1h8.6c.5 0 1 .4 1 1-.1.6-.5 1-1 1zm11.7-4.4h-18.1c-4 0-7.2-3.2-7.2-7.2v-4.8c0-4 3.2-7.2 7.2-7.2h18.1c4 0 7.2 3.2 7.2 7.2v4.8c0 4-3.2 7.2-7.2 7.2zm20.8-2h3.9v1.6h-3.9zm-5.8 10.3c-2.8 0-5.1-2.3-5.1-5.1s2.3-5.1 5.1-5.1 5.1 2.3 5.1 5.1-2.3 5.1-5.1 5.1zm0-2.7c-1.3 0-2.4-1.1-2.4-2.4 0-1.3 1.1-2.4 2.4-2.4s2.4 1.1 2.4 2.4c0 1.4-1.1 2.4-2.4 2.4zm-22.4 2.7c-2.8 0-5.1-2.3-5.1-5.1s2.3-5.1 5.1-5.1 5.1 2.3 5.1 5.1-2.3 5.1-5.1 5.1zm0-2.6c-1.4 0-2.5-1.1-2.5-2.5s1.1-2.5 2.5-2.5 2.5 1.1 2.5 2.5-1.1 2.5-2.5 2.5zm27.4-11.5l-10.8.1v-9.8h4.9l5.9 7.4zm-12.8-1.5h-32.6"/><path fill="#fff" stroke="#2C3251" stroke-width=".5" stroke-linecap="round" stroke-linejoin="round" stroke-miterlimit="10" d="M-961-35.5h-12m-.9 0h-2.2"/><path stroke="#2C3251" stroke-width=".5" stroke-linecap="round" stroke-linejoin="round" stroke-miterlimit="10" d="M-953.2-50.9h9m-4.8 2.4h5.1m-42.8-6.5h5.5m4.2-6.2h6.5m11.8 5.4h2.7m-41 6.9h2.8m12.3-4.4h3.2" fill="none"/><circle stroke="#2C3251" stroke-width=".5" stroke-miterlimit="10" cx="-898.5" cy="-44.6" r="27.1" fill="none"/><circle opacity=".4" fill="#2C3251" enable-background="new" cx="-897.5" cy="-44.7" r="26.1"/><g stroke="#2C3251" stroke-width=".5" stroke-miterlimit="10"><path fill="#fff" d="M-903.4-31.8c-.1-.4-.2-.8-.4-1.1-.7-2-1.9-3.7-3.4-5.2-1.7-1.7-2.9-3.8-3.4-6.2-.8-3.8.2-7.2 2.6-10.3 1.9-2.4 4.4-4 7.4-4.5 3.6-.6 6.9.3 9.7 2.6 2.6 2.1 4.2 4.9 4.6 8.3.4 3.2-.5 6.1-2.4 8.7l-1.3 1.5c-1.7 1.8-2.9 3.8-3.6 6.2h-9.8z"/><path d="M-898.5-41.1c1-1.1 2-2 3-3 .5-.5.9-.6 1.2-.2.3.3.3.7-.2 1.2l-2.9 2.9c-.2.2-.3.5-.3.8v4.3c0 .3-.1.6-.4.8-.5.2-.9-.2-.9-.8v-4.2c0-.2-.1-.5-.3-.6l-3.2-3.2c-.2-.2-.3-.4-.3-.7 0-.2.2-.5.4-.5.2-.1.5 0 .7.1.5.4.9.8 1.3 1.3.6.4 1.2 1.1 1.9 1.8z" fill="none"/><path fill="#fff" d="M-903.3-29.9v1.1c0 .8.6 1.5 1.4 1.5.3 0 .6-.1.8-.3.2 1.3 1.3 2.3 2.6 2.3 1.4 0 2.5-1 2.6-2.3.2.2.6.3.9.3.8 0 1.5-.7 1.5-1.5v-1.1h-9.8z"/><path d="M-916.9-55.8l4.7 1.9m-5.9 6l5.1.1m-4 7.7l4.9-1.7m31.8-14l-4.8 1.9m6 6l-5.1.1m3.9 7.7l-4.8-1.7" fill="none"/></g><circle stroke="#2C3251" stroke-width=".5" stroke-miterlimit="10" cx="-825.5" cy="-44.6" r="27.1" fill="none"/><circle opacity=".4" fill="#2C3251" enable-background="new" cx="-824.5" cy="-44.7" r="26.1"/><path fill="#fff" stroke="#2C3251" stroke-width=".5" stroke-miterlimit="10" d="M-837.8-31.3v-29c0-3.1 2.5-5.7 5.7-5.7h27.5v38.4"/><path stroke="#2C3251" stroke-width=".5" stroke-linecap="round" stroke-linejoin="round" stroke-miterlimit="10" d="M-852-41h9m-4.7 2.4h5.1m10.6 13.4h6.5m24.1-21.1h2.8m-45.7 17.9h2.7m25.6 7.7h2.7m11.1-27h3.6" fill="none"/><path fill="#fff" stroke="#2C3251" stroke-width=".5" stroke-miterlimit="10" d="M-804.6-32.2m-33.2 3.4l33.2 3.3.2-1.8h-29.4c-2.2 0-4-1.8-4-4s1.8-4 4-4h29.4"/><path fill="#fff" stroke="#2C3251" stroke-width=".5" stroke-linecap="round" stroke-linejoin="round" stroke-miterlimit="10" d="M-836-32.7h30.8m-30.8 2.8h30.8m-32.4-20.1c-1.3 0-2.4-1.1-2.4-2.4s1.1-2.4 2.4-2.4c1.3 0 2.4 1.1 2.4 2.4m-2.4 5.1c-1.3 0-2.4-1.1-2.4-2.4s1.1-2.4 2.4-2.4c1.3 0 2.4 1.1 2.4 2.4m-2.4 5.4c-1.3 0-2.4-1.1-2.4-2.4s1.1-2.4 2.4-2.4c1.3 0 2.4 1.1 2.4 2.4m-2.4 5.3c-1.3 0-2.4-1.1-2.4-2.4s1.1-2.4 2.4-2.4c1.3 0 2.4 1.1 2.4 2.4m-2.6-.2v4"/><path fill="#fff" stroke="#2C3251" stroke-width=".5" stroke-miterlimit="10" d="M-811.6-54.9h-17.4c-1.5 0-2.8-1.2-2.8-2.8 0-1.5 1.2-2.8 2.8-2.8h17.4c1.5 0 2.8 1.2 2.8 2.8 0 1.6-1.3 2.8-2.8 2.8z"/><circle stroke="#2C3251" stroke-width=".5" stroke-miterlimit="10" cx="-752.5" cy="-44.6" r="27.1" fill="none"/><circle opacity=".4" fill="#2C3251" enable-background="new" cx="-751.5" cy="-44.7" r="26.1"/><path stroke="#2C3251" stroke-width=".5" stroke-linecap="round" stroke-linejoin="round" stroke-miterlimit="10" d="M-779-41h9m-4.7 2.4h5.1m-1.7 10.2h2.7" fill="none"/><path fill="#fff" stroke="#2C3251" stroke-width=".5" stroke-miterlimit="10" d="M-731.6-32.2m-33.2 3.4l33.2 3.3m-1.5-6.1h-34.9c-.9 0-1.6-.7-1.6-1.6v-21.8c0-.9.7-1.6 1.6-1.6h34.9c.9 0 1.6.7 1.6 1.6v21.8c0 .8-.7 1.6-1.6 1.6zm-36.6-18.3h38.7m-38.7 3.1h38.7"/><g stroke="#2C3251" stroke-width=".5" stroke-miterlimit="10"><path fill="#fff" d="M-727.3-28.1h-34.9c-.9 0-1.6-.7-1.6-1.6v-21.8c0-.9.7-1.6 1.6-1.6h34.9c.9 0 1.6.7 1.6 1.6v21.8c.1.8-.7 1.6-1.6 1.6z"/><circle fill="#fff" cx="-734.4" cy="-33.9" r="3.1"/><circle fill="#fff" cx="-731" cy="-33.9" r="3.1"/><path d="M-760.3-37.1h10.5m-10.5 2.3h15m-15 3.6h2.3m1.5 0h2.3m1.5 0h2.3m1.4 0h2.4m1.4 0h2.4" fill="none"/><path d="M-755.2-40.3h-4.1c-.6 0-1-.5-1-1v-3c0-.6.5-1 1-1h4.1c.6 0 1 .5 1 1v3c0 .6-.4 1-1 1zm-2.8-3.7h1.4v2.3h-1.4z" fill="none"/><path fill="#fff" d="M-760.3-43.7h2.3m-2.3 1.8h2.3m1.5-1.8h2.3m-2.3 1.8h2.3"/></g><path d="M-771.2-36.5v.9m.4-.5h-.8" fill="#fff" stroke="#2C3251" stroke-width=".5" stroke-linecap="round" stroke-linejoin="round" stroke-miterlimit="10"/><circle fill="#2C3251" cx="-762.9" cy="-30.9" r=".2"/><path stroke="#2C3251" stroke-width=".5" stroke-linecap="round" stroke-linejoin="round" stroke-miterlimit="10" d="M-759-23.2h6.5" fill="none"/><path d="M-738.5-25v.9m.4-.5h-.8" fill="#fff" stroke="#2C3251" stroke-width=".5" stroke-linecap="round" stroke-linejoin="round" stroke-miterlimit="10"/><circle fill="#2C3251" cx="-745.9" cy="-25.9" r=".2"/><path d="M-768.5-58.8v.9m.4-.5h-.8m33.7-1.3v.9m.5-.4h-.9m-24 33v.9m.5-.5h-.9" fill="#fff" stroke="#2C3251" stroke-width=".5" stroke-linecap="round" stroke-linejoin="round" stroke-miterlimit="10"/><circle fill="#2C3251" cx="-762.9" cy="-57.9" r=".2"/><circle fill="#2C3251" cx="-745.9" cy="-58.9" r=".2"/><circle fill="#2C3251" cx="-752.9" cy="-61.9" r=".2"/><circle fill="#2C3251" cx="-729.9" cy="-54.9" r=".2"/><circle fill="#2C3251" cx="-773.9" cy="-45.9" r=".2"/><circle stroke="#2C3251" stroke-width=".5" stroke-miterlimit="10" cx="-680.5" cy="-44.6" r="27.1" fill="none"/><circle opacity=".4" fill="#2C3251" enable-background="new" cx="-679.5" cy="-44.7" r="26.1"/><path stroke="#2C3251" stroke-width=".5" stroke-linecap="round" stroke-linejoin="round" stroke-miterlimit="10" d="M-707-41h9m-4.7 2.4h5.1m-1.7 10.2h2.7" fill="none"/><path fill="#fff" stroke="#2C3251" stroke-width=".5" stroke-miterlimit="10" d="M-659.6-32.2m0 6.7"/><path d="M-699.2-36.5v.9m.4-.5h-.8m3.1-22.7v.9m.4-.5h-.8m33.7-1.3v.9m.5-.4h-.9" fill="#fff" stroke="#2C3251" stroke-width=".5" stroke-linecap="round" stroke-linejoin="round" stroke-miterlimit="10"/><circle fill="#2C3251" cx="-690.9" cy="-57.9" r=".2"/><circle fill="#2C3251" cx="-673.9" cy="-58.9" r=".2"/><circle fill="#2C3251" cx="-680.9" cy="-61.9" r=".2"/><circle fill="#2C3251" cx="-657.9" cy="-54.9" r=".2"/><circle fill="#2C3251" cx="-701.9" cy="-45.9" r=".2"/><path fill="#fff" stroke="#2C3251" stroke-width=".5" stroke-miterlimit="10" d="M-692.8-31.8"/><circle fill="#2C3251" cx="-690.9" cy="-33.9" r=".2"/><path stroke="#2C3251" stroke-width=".5" stroke-linecap="round" stroke-linejoin="round" stroke-miterlimit="10" d="M-687-26.2h6.5" fill="none"/><path d="M-666.5-28v.9m.4-.5h-.8" fill="#fff" stroke="#2C3251" stroke-width=".5" stroke-linecap="round" stroke-linejoin="round" stroke-miterlimit="10"/><circle fill="#2C3251" cx="-673.9" cy="-28.9" r=".2"/><path d="M-687.6-29.2v.9m.5-.5h-.9" fill="#fff" stroke="#2C3251" stroke-width=".5" stroke-linecap="round" stroke-linejoin="round" stroke-miterlimit="10"/><path fill="#fff" stroke="#2C3251" stroke-width=".5" stroke-miterlimit="10" d="M-668-21.6h-23.7c-.9 0-1.6-.7-1.6-1.6v-16.4h26.9v16.4c0 .9-.8 1.6-1.6 1.6z"/><path fill="#fff" stroke="#2C3251" stroke-width=".5" stroke-linecap="round" stroke-linejoin="round" stroke-miterlimit="10" d="M-664.1-38.8h-31.5v-7.8c0-1.1.9-1.9 1.9-1.9h27.6c1.1 0 1.9.9 1.9 1.9v7.8z"/><path fill="#fff" stroke="#2C3251" stroke-width=".5" stroke-miterlimit="10" d="M-681.5-48.5h3.9v26.9h-3.9zm1.9-1.6l-5.4-1.1c-1.2-.3-2-1.6-1.6-2.8l.7-2.5c.3-1 1.2-1.5 2.2-1.3l2.1.6c1.2.3 1.5 1.3 1.6 2.8l.4 4.3z"/><path fill="#fff" stroke="#2C3251" stroke-width=".5" stroke-linecap="round" stroke-linejoin="round" stroke-miterlimit="10" d="M-684.5-54.9l4.1 5.1"/><path fill="#fff" stroke="#2C3251" stroke-width=".5" stroke-miterlimit="10" d="M-679.4-51.2l4.2.9c1 .2 2-.4 2.3-1.4l.7-3.2c.2-.8-.3-1.6-1.1-1.7l-2.8-.6c-1-.2-2 .4-2.3 1.4l-1 4.6z"/><path fill="#fff" stroke="#2C3251" stroke-width=".5" stroke-linecap="round" stroke-linejoin="round" stroke-miterlimit="10" d="M-674.3-53.8l-4.3 2.6"/><path fill="#fff" stroke="#2C3251" stroke-width=".5" stroke-linecap="round" stroke-linejoin="round" stroke-miterlimit="10" d="M-685.8-43.8l-.1-2.4-2.3-.5 3.3-2.7c.4-.3.8-.5 1.3-.5l5.3-.1-7.5 6.2zm12.8 0l.1-2.3 2.3-.6-6.3-3.9-3.5.6z"/><circle fill="#fff" stroke="#2C3251" stroke-width=".5" stroke-linecap="round" stroke-linejoin="round" stroke-miterlimit="10" cx="-679.6" cy="-49" r="2.2"/><circle fill="#fff" stroke="#2C3251" stroke-width=".5" stroke-linecap="round" stroke-linejoin="round" stroke-miterlimit="10" cx="-666.2" cy="-45.6" r="8.2"/><path fill="#2C3251" stroke="#2C3251" stroke-width=".1" stroke-miterlimit="10" d="M-664.8-44.1c0-.4-.1-.7-.4-.9s-.6-.4-1.2-.7c-.7-.2-1.2-.5-1.5-.8s-.5-.7-.5-1.3c0-.5.2-1 .5-1.3s.8-.5 1.3-.6v-1h.5v1c.6.1 1 .3 1.3.6s.5.9.5 1.5h-.5c0-.5-.1-.9-.4-1.2s-.6-.5-1.1-.5c-.5 0-.8.1-1.1.4-.2.3-.4.6-.4 1s.1.7.3.9c.2.2.6.4 1.3.7.7.2 1.2.5 1.5.8.3.3.5.7.5 1.3 0 .5-.2 1-.5 1.3-.3.3-.8.5-1.4.6v.9h-.5v-.9c-.6 0-1.1-.2-1.5-.6-.4-.3-.6-.9-.6-1.5h.5c0 .6.2 1 .5 1.3.3.3.7.4 1.2.4s.9-.1 1.1-.4.6-.6.6-1z"/><path fill="#fff" d="M-743.7 37.9l-11.8 11.8c-.4.4-1 .4-1.4 0l-19.5-19.7c-.4-.4-.4-1 0-1.4l11.8-11.8c.4-.4 1-.4 1.4 0l19.7 19.7c.2.4.2 1-.2 1.4z"/><path fill="#5FB0E5" d="M-775.387 27.586l2.828-2.828 21.001 21.001-2.828 2.828z"/><path fill="#D2E9F7" d="M-765.256 27.452l1.485-1.485 14.142 14.142-1.485 1.485z"/><path fill="#0686D8" d="M-759.8 47.7l-17.2-17.2c-.7-.7-.7-1.7 0-2.4l11.8-11.8c.6-.6 1.8-.6 2.4 0l3.9 3.9-1.1 1.1-3.9-3.9c-.1-.1-.2-.1-.3 0l-11.8 11.8c-.1.1-.1.2 0 .3l17.2 17.2-1 1z"/><circle fill="#5FB0E5" cx="-775.4" cy="37.5" r="1.6"/><circle fill="#5FB0E5" cx="-767.1" cy="44.8" r=".9"/><circle fill="#5FB0E5" cx="-772.5" cy="48.9" r="1.3"/><path fill="#fff" d="M-733.8 50.4h-20.7c-1 0-1.8-.8-1.8-1.8v-32c0-1 .8-1.8 1.8-1.8h20.7c1 0 1.8.8 1.8 1.8v32c0 1-.8 1.8-1.8 1.8z"/><path fill="#9ECFEF" d="M-753.9 14.7h4.6v35.7h-4.6z"/><path fill="#5FB0E5" d="M-748.1 14.7h2.3v35.7h-2.3z"/><path fill="#0686D8" d="M-733.9 51.2h-20.6c-1.5 0-2.7-1.2-2.7-2.7v-31.9c0-1.5 1.2-2.7 2.7-2.7h2.8v1.6h-2.8c-.6 0-1.1.5-1.1 1.1v31.8c0 .6.5 1.1 1.1 1.1h20.6c.6 0 1.1-.5 1.1-1.1v-31.8c0-.6-.5-1.1-1.1-1.1h-10.1v-1.6h10.1c1.5 0 2.7 1.2 2.7 2.7v31.8c0 1.6-1.2 2.8-2.7 2.8zm-16.6-37.3h4.6v1.6h-4.6z"/><circle fill="#5FB0E5" cx="-690.8" cy="10.1" r=".9"/><circle fill="#5FB0E5" cx="-660.7" cy="17.8" r=".9"/><circle fill="#5FB0E5" cx="-665.4" cy="11" r="1.4"/><circle fill="#5FB0E5" cx="-669.2" cy="18.5" r=".7"/><circle fill="#5FB0E5" cx="-702.7" cy="11" r="1.4"/><circle fill="#5FB0E5" cx="-697.3" cy="17.1" r=".7"/><path fill="#0686D8" d="M-680.1 24.7l-1-.5c-.7-.3-6.8-3.3-8-5.4-.7-1.1-.8-2.4-.5-3.7.3-1.3 1.1-2.3 2.3-3 1.1-.7 2.4-.8 3.7-.5 1.3.3 2.3 1.1 3 2.3.4.6.6 1.7.7 3.2.2 2.8-.1 6.2-.1 6.4l-.1 1.2zm-4.8-11.6c-.6 0-1.1.1-1.6.4-.8.4-1.3 1.1-1.5 2-.2.8-.1 1.7.3 2.5.6 1.1 3.8 3 6.2 4.2.1-1.2.1-3.2 0-4.9-.1-1.7-.4-2.3-.5-2.6-.4-.8-1.1-1.3-2-1.5-.3-.1-.6-.1-.9-.1zm4.9 11.1l-.7-1.4c2.4-1.2 6.5-3.5 7.3-4.7.4-.8.6-1.6.3-2.5-.2-.8-.8-1.6-1.5-2-1.2-.7-2.7-.6-3.8.4-.3.2-.5.5-.7.8l-1.4-.8c.3-.5.6-.9 1-1.2 1.6-1.4 3.8-1.6 5.6-.6 1.1.6 1.9 1.7 2.3 3 .3 1.3.2 2.6-.5 3.7-1.2 2-7.2 5-7.9 5.3z"/><path fill="#fff" d="M-667.3 53.4h-26.6c-1 0-1.8-.8-1.8-1.8v-26.1h30.2v26.1c.1 1-.8 1.8-1.8 1.8z"/><path fill="#0686D8" d="M-667.4 54.2h-26.4c-1.5 0-2.7-1.2-2.7-2.7v-1.1h1.6v1.1c0 .6.5 1.1 1.1 1.1h26.4c.6 0 1.1-.5 1.1-1.1v-25.2h-28.6v15.9h-1.6v-17.5h31.8v26.8c0 1.5-1.2 2.7-2.7 2.7zm-29-10.1h1.6v4.7h-1.6z"/><path fill="#D2E9F7" d="M-664.9 28h-31.4c-.6 0-1.1-.5-1.1-1.1v-3.3c0-.6.5-1.1 1.1-1.1h31.4c.6 0 1.1.5 1.1 1.1v3.3c0 .6-.5 1.1-1.1 1.1z"/><path fill="#0686D8" d="M-664.9 28.8h-31.2c-1.1 0-1.9-.9-1.9-1.9v-3.2c0-1.1.9-1.9 1.9-1.9h31.2c1.1 0 1.9.9 1.9 1.9v3.2c0 1-.9 1.9-1.9 1.9zm-31.3-5.5c-.2 0-.4.2-.4.4v3.2c0 .2.2.4.4.4h31.2c.2 0 .4-.2.4-.4v-3.2c0-.2-.2-.4-.4-.4h-31.2z"/><path fill="#5FB0E5" d="M-683.8 22.5h7.2v30.9h-7.2z"/><path fill="#0686D8" d="M-675.9 54.2h-8.8v-32.5h8.8v32.5zm-7.2-1.6h5.6v-29.3h-5.6v29.3zm-.975-26.053l6.582-3.8.8 1.386-6.582 3.8zm.105 3.675l6.668-3.85.8 1.386-6.668 3.85zm.004 3.783l6.668-3.85.8 1.386-6.668 3.85zm-.006 3.832l6.668-3.851.8 1.386-6.668 3.851zm-.037 3.646l6.668-3.85.8 1.386-6.668 3.85zm-.091 3.883l6.668-3.851.8 1.386-6.668 3.851zm.004 3.783l6.668-3.851.8 1.386-6.668 3.851zm.003 3.782l6.668-3.851.8 1.386-6.668 3.851z"/><circle fill="#5FB0E5" cx="-952.2" cy="18.4" r="1.1"/><circle fill="#5FB0E5" cx="-985.1" cy="13.4" r="1.4"/><circle fill="#5FB0E5" cx="-972.5" cy="16.5" r=".6"/><circle fill="#5FB0E5" cx="-950.5" cy="11.3" r=".7"/><circle fill="#5FB0E5" cx="-964.7" cy="11.3" r="1.1"/><path fill="#5FB0E5" d="M-958.6 51.4h-29.5c-.9 0-1.6-.7-1.6-1.6v-16h32.7v16c0 .9-.7 1.6-1.6 1.6z"/><path fill="#fff" d="M-959.7 49.9h-27.3c-.8 0-1.5-.6-1.5-1.4v-14.1h30.3v14.1c0 .8-.7 1.4-1.5 1.4z"/><path fill="#5FB0E5" d="M-956.9 33.8h-32.7v-11.3c0-1 .8-1.8 1.8-1.8h29.1c1 0 1.8.8 1.8 1.8v11.3z"/><path fill="#0686D8" d="M-958.6 52.1h-29.5c-1.3 0-2.4-1.1-2.4-2.4v-16.7h27.2v1.5h-25.7v15.2c0 .5.4.9.9.9h29.5c.5 0 .9-.4.9-.9v-12h1.5v12.1c0 1.3-1.1 2.3-2.4 2.3zm2.5-24.6h-1.5v-5.2c0-.5-.4-.9-.9-.9h-17.5v-1.5h17.4c1.3 0 2.4 1.1 2.4 2.4v5.2zm-27.4-7.6h4.7v1.5h-4.7zm18.8 14.7h-25.7v-12.3c0-1.3 1.1-2.4 2.4-2.4h2.1v1.5h-2.1c-.5 0-.9.4-.9.9v10.7h24.2v1.6zm-21.6 2.8h3.9v1.5h-3.9zm5.3 0h7.2v1.5h-7.2zm-5.3 2.6h16.2v1.5h-16.2zm0 2.6h14.3v1.5h-14.3zm0 2.8h5.9v1.5h-5.9zm7.3 0h3.4v1.5h-3.4z"/><path fill="#D2E9F7" d="M-968.1 45.6l-2.4.1.2-2.4 18.8-18.7 2.2 2.2z"/><path fill="#0686D8" d="M-971.3 46.5l.2-3.5.2-.2 19.3-19.3 3.3 3.3-19.5 19.5-3.5.2zm1.7-2.8l-.1 1.3 1.3-.1 18-18-1.2-1.2-18 18zm18.966-18.862l1.909-1.909 1.061 1.061-1.909 1.909zm-21.861 21.916l1.909-1.909 1.061 1.061-1.909 1.909zm9.51-10.824l1.06-1.061 2.334 2.333-1.06 1.061zm-6.292 6.263l1.061-1.06 2.333 2.334-1.061 1.06zm14.577-5.793l-1.1-1.1 5.7-5.6-1.1-1 1.1-1.1 2.1 2.1z"/><circle fill="#5FB0E5" cx="-912.4" cy="25.5" r=".5"/><circle fill="#5FB0E5" cx="-906.4" cy="13.2" r=".5"/><circle fill="#5FB0E5" cx="-883.9" cy="24.5" r=".5"/><circle fill="#5FB0E5" cx="-893.2" cy="15.2" r=".3"/><circle fill="#5FB0E5" cx="-884.4" cy="13.8" r=".6"/><circle fill="#5FB0E5" cx="-877.4" cy="20.2" r=".8"/><circle fill="#5FB0E5" cx="-912.9" cy="16.2" r=".7"/><circle fill="#5FB0E5" cx="-920" cy="19.1" r="1"/><path fill="#5FB0E5" d="M-897.9 53.7h-1.3c-.5 0-1-.5-1-1v-3.1c0-.5.5-1 1-1h1.3c.5 0 1 .5 1 1v3.1c0 .6-.5 1-1 1z"/><path fill="#0686D8" d="M-897.9 54.5h-1.3c-1 0-1.8-.8-1.8-1.8v-3.1c0-1 .8-1.8 1.8-1.8h1.3c1 0 1.8.8 1.8 1.8v3.1c-.1 1-.8 1.8-1.8 1.8zm-1.3-5.2c-.1 0-.2.1-.2.2v3.1c0 .1.1.2.2.2h1.3c.1 0 .2-.1.2-.2v-3.1c0-.1-.1-.2-.2-.2h-1.3z"/><path fill="#fff" d="M-887.3 27.8c0-6.2-5-11.2-11.2-11.2-6.2 0-11.2 5-11.2 11.2 0 4.1 2.3 7.7 5.6 9.7v11l1.6 3h7.7l1.9-3v-11c3.3-1.9 5.6-5.6 5.6-9.7z"/><path fill="#D2E9F7" d="M-904.1 37.5v11l1.6 3h7.7l1.9-3v-11z"/><path fill="#5FB0E5" d="M-892.9 48.5l-1.9 3h-7.7l-1.6-3z"/><path fill="#0686D8" d="M-894.4 52.2h-8.5l-1.9-3.6v-10.7c-3.5-2.2-5.6-6-5.6-10.1 0-2.8 1-5.5 2.8-7.7l1.1 1c-1.6 1.9-2.4 4.3-2.4 6.7 0 3.7 2 7.2 5.2 9l.4.2v11.3l1.3 2.4h6.8l1.5-2.5v-11.2l.4-.2c3.2-1.9 5.2-5.3 5.2-9 0-5.7-4.7-10.4-10.4-10.4-1.4 0-2.7.3-3.9.8l-.6-1.4c1.4-.6 2.9-.9 4.5-.9 6.6 0 11.9 5.3 11.9 11.9 0 4.1-2.1 7.9-5.6 10.1v10.8l-2.2 3.5zm-11-32.2l-1.1-1.1c.7-.7 1.1-.9 1.8-1.3l.2-.1.7 1.3-.2.1c-.6.4-.8.5-1.4 1.1zm-.3 20.1h14.5v1.5h-14.5zm0 2.6h14.5v1.5h-14.5zm0 2.5h14.5v1.5h-14.5zm0 2.5h14.5v1.5h-14.5z"/><circle fill="#D2E9F7" cx="-898.6" cy="27.5" r="7.9"/><path fill="#5FB0E5" d="M-896.1 25.8c0-1.3-1.1-2.4-2.4-2.4-1.3 0-2.4 1.1-2.4 2.4 0 .6.3 1.2.7 1.7l-.7 4.1h4.6l-.7-4c.5-.5.9-1.1.9-1.8z"/><path fill="#0686D8" d="M-895.4 32.3h-6.3l.8-4.7c-.4-.5-.6-1.2-.6-1.9 0-1.7 1.4-3.1 3.1-3.1 1.7 0 3.1 1.4 3.1 3.1 0 .8-.3 1.5-.8 2l.7 4.6zm-4.6-1.5h2.8l-.6-3.6.3-.3c.4-.3.6-.8.6-1.2 0-.9-.7-1.6-1.6-1.6-.9 0-1.6.7-1.6 1.6 0 .4.2.8.5 1.1l.3.3-.7 3.7z"/><circle fill="#5FB0E5" cx="-822" cy="13.1" r="1"/><circle fill="#5FB0E5" cx="-814.5" cy="16.1" r=".8"/><circle fill="#5FB0E5" cx="-807.2" cy="14.6" r="1.5"/><circle fill="#5FB0E5" cx="-841.2" cy="14.8" r=".9"/><path fill="#fff" d="M-836.3 18.9l.3-1.3c.1-.9 1-1.6 1.9-1.5l19.8 2.6c.9.1 1.6 1 1.5 1.9l-3.6 28-22.5-6.9 2.6-22.8z"/><path fill="#0686D8" d="M-815.7 48.7l-1.5-.2 3.6-28c.1-.5-.3-1-.8-1.1l-19.8-2.6c-.3 0-.5 0-.7.2-.2.2-.3.4-.4.6l-.3 1.4-1.5-.3.3-1.3c.1-.6.4-1.2.9-1.6.5-.4 1.2-.6 1.8-.5l19.8 2.6c1.3.2 2.3 1.4 2.1 2.8l-3.5 28z"/><path fill="#fff" d="M-808.7 51.6h-1.9c-.1 0-.3-.1-.3-.3v-27.7l1-2.1c.1-.2.4-.2.5 0l1 2.1v27.7c0 .2-.2.3-.3.3z"/><path fill="#5FB0E5" d="M-810.9 24.6h2.4v24.3h-2.4z"/><path fill="#0686D8" d="M-807.7 52.4h-3.9v-28.9l1.1-2.5c.3-.6 1.3-.6 1.6 0l1.1 2.5v28.9zm-2.4-1.5h.9v-27l-.5-1-.5 1v27zm-.9-27h2.5v1.5h-2.5z"/><path fill="#D2E9F7" d="M-820 51.6h-19.6c-1 0-1.9-.8-1.9-1.9v-27.8c0-1 .8-1.9 1.9-1.9h19.6c1 0 1.9.8 1.9 1.9v27.8c0 1.1-.9 1.9-1.9 1.9z"/><path fill="#0686D8" d="M-820 52.4h-19.6c-1.5 0-2.6-1.2-2.6-2.6v-27.9c0-1.5 1.2-2.6 2.6-2.6h19.6c1.5 0 2.6 1.2 2.6 2.6v27.8c0 1.5-1.2 2.7-2.6 2.7zm-19.7-31.7c-.6 0-1.1.5-1.1 1.1v27.8c0 .6.5 1.1 1.1 1.1h19.6c.6 0 1.1-.5 1.1-1.1v-27.7c0-.6-.5-1.1-1.1-1.1h-19.6zm-4 1.9h4.3v1.5h-4.3zm0 3h4.3v1.5h-4.3zm0 3.1h4.3v1.5h-4.3zm0 3.1h4.3v1.5h-4.3zm0 3h4.3v1.5h-4.3zm0 3.1h4.3v1.5h-4.3zm0 3.3h4.2v1.5h-4.2zm0 3h4.2v1.5h-4.2zm0 2.9h4.2v1.5h-4.2z"/><circle fill="#fff" cx="-829.8" cy="32.5" r="5.1"/><path fill="#0686D8" d="M-829.8 38.4c-3.2 0-5.9-2.6-5.9-5.9 0-3.2 2.6-5.9 5.9-5.9 3.2 0 5.9 2.6 5.9 5.9-.1 3.2-2.7 5.9-5.9 5.9zm0-10.3c-2.4 0-4.4 2-4.4 4.4 0 2.4 2 4.4 4.4 4.4 2.4 0 4.4-2 4.4-4.4-.1-2.4-2-4.4-4.4-4.4z"/><circle fill="#5FB0E5" cx="-599.7" cy="21.4" r=".6"/><circle fill="#5FB0E5" cx="-610.3" cy="11.9" r="1.2"/><circle fill="#5FB0E5" cx="-611.4" cy="19.1" r="1.1"/><circle fill="#5FB0E5" cx="-596.8" cy="11.9" r="1.7"/><circle fill="#5FB0E5" cx="-602.6" cy="16" r=".6"/><path fill="#0686D8" d="M-606.7 49.3c-2.5 0-5-.5-7.3-1.5-2.2-.9-4.2-2.3-5.9-4-1.7-1.7-3.1-3.7-4-5.9-1-2.3-1.5-4.7-1.5-7.3 0-2.5.5-5 1.5-7.3.5-1.2 1.2-2.4 2-3.5l1.2.9c-.7 1-1.3 2.1-1.8 3.2-.9 2.1-1.3 4.4-1.3 6.7s.5 4.6 1.3 6.7c.9 2 2.1 3.9 3.7 5.4 1.6 1.6 3.4 2.8 5.4 3.7 4.2 1.8 9.1 1.8 13.3 0 2-.9 3.9-2.1 5.4-3.7 1.6-1.6 2.8-3.4 3.7-5.4.9-2.1 1.3-4.4 1.3-6.7s-.5-4.6-1.3-6.7c-.4-1-1-2-1.6-2.9l1.2-.8c.7 1 1.3 2.1 1.7 3.2 1 2.3 1.5 4.7 1.5 7.3 0 2.5-.5 5-1.5 7.3-.9 2.2-2.3 4.2-4 5.9-1.7 1.7-3.7 3.1-5.9 4-2.2.9-4.6 1.4-7.1 1.4z"/><path fill="#D2E9F7" d="M-601.3 43.8s1.2 2.1.5 3.3c-.7 1.2-3.1 1.2-3.1 1.2s-1.2-2.1-.5-3.3l3.1-1.2zm4.5 6.2s-1-2.3-2.8-2.6l-3.5 1.5s1 2.3 2.8 2.6c1.7.3 3.5-1.5 3.5-1.5zm1.1-10.6s2.1 1.2 2.1 2.6c0 1.4-2.1 2.6-2.1 2.6s-2.1-1.2-2.1-2.6c0-1.4 2.1-2.6 2.1-2.6zm7.3 3.1s-2-1.5-3.7-.9c-1.7.6-2.3 3-2.3 3s2 1.5 3.7.9c1.6-.6 2.3-3 2.3-3zm-4.7-9.4s2.4 0 3.1 1.2l-.5 3.3s-2.4 0-3.1-1.2c-.8-1.2.5-3.3.5-3.3zm8.1-1.4s-2.5-.3-3.7 1.1c-1.1 1.3-.5 3.8-.5 3.8s2.5.3 3.7-1.1c1.2-1.3.5-3.8.5-3.8zm-9.2-5.6s2.1-1.2 3.3-.5c1.2.7 1.2 3.1 1.2 3.1s-2.1 1.2-3.3.5c-1.2-.7-1.2-3.1-1.2-3.1zm6.9-5.4s-2.3 1-2.6 2.8c-.3 1.7 1.5 3.5 1.5 3.5s2.3-1 2.6-2.8c.2-1.7-1.5-3.5-1.5-3.5zm-6.3-5.3s-1.5 2-.9 3.7c.6 1.7 3 2.3 3 2.3s1.5-2 .9-3.7c-.5-1.6-3-2.3-3-2.3zm-18.6 28.4s-1.2 2.1-.5 3.3c.7 1.2 3.1 1.2 3.1 1.2s1.2-2.1.5-3.3c-.7-1.2-3.1-1.2-3.1-1.2zm-4.5 6.2s1-2.3 2.8-2.6l3.5 1.5s-1 2.3-2.8 2.6c-1.7.3-3.5-1.5-3.5-1.5zm-1-10.6s-2.1 1.2-2.1 2.6l2.1 2.6s2.1-1.2 2.1-2.6c0-1.4-2.1-2.6-2.1-2.6zm-7.3 3.1s2-1.5 3.7-.9c1.7.6 2.3 3 2.3 3s-2 1.5-3.7.9c-1.7-.6-2.3-3-2.3-3zm4.7-9.4s-2.4 0-3.1 1.2l.5 3.3s2.4 0 3.1-1.2c.7-1.2-.5-3.3-.5-3.3zm-8.2-1.4s2.5-.3 3.7 1.1c1.1 1.3.5 3.8.5 3.8s-2.5.3-3.7-1.1c-1.1-1.3-.5-3.8-.5-3.8zm9.2-5.6s-2.1-1.2-3.3-.5c-1.2.7-1.2 3.1-1.2 3.1s2.1 1.2 3.3.5c1.3-.7 1.2-3.1 1.2-3.1zm-6.8-5.4s2.3 1 2.6 2.8c.3 1.7-1.5 3.5-1.5 3.5s-2.3-1-2.6-2.8c-.3-1.7 1.5-3.5 1.5-3.5zm6.9-6.5s1.5 2 .9 3.7c-.6 1.7-3 2.3-3 2.3s-1.5-2-.9-3.7c.6-1.7 3-2.3 3-2.3z"/><path fill="#0686D8" d="M-603.8 49.1h-.5l-.2-.4c-.1-.2-1.4-2.5-.5-4.1.9-1.6 3.5-1.6 3.8-1.6h.4l.2.4c.1.2 1.4 2.5.5 4.1-.9 1.5-3.3 1.6-3.7 1.6zm2.1-4.5c-.7.1-1.7.3-2 .8-.3.5 0 1.5.3 2.2.7-.1 1.7-.3 2-.8.3-.6 0-1.6-.3-2.2zm1.8 7.7h-.6c-2.1-.4-3.3-3-3.3-3.1l-.2-.5.4-.4c.1-.1 2.1-2.1 4.2-1.7 2.1.4 3.3 3 3.3 3.1l.2.5-.4.4s-1.7 1.7-3.6 1.7zm-2.2-3.3c.4.7 1.1 1.6 2 1.7.9.2 1.8-.4 2.5-.9-.4-.7-1.1-1.6-2-1.7-1-.1-2 .5-2.5.9zm6.4-3.5l-.4-.2c-.3-.1-2.5-1.4-2.5-3.3 0-1.8 2.2-3.1 2.5-3.3l.4-.2.4.2c.3.1 2.5 1.4 2.5 3.3 0 1.8-2.2 3.1-2.5 3.3l-.4.2zm0-5.2c-.6.4-1.3 1.1-1.3 1.7 0 .6.8 1.3 1.3 1.7.6-.4 1.3-1.1 1.3-1.7 0-.6-.7-1.3-1.3-1.7zm4.1 6.1c-1.7 0-3.2-1.1-3.3-1.2l-.4-.3.1-.5c0-.1.8-2.8 2.8-3.5 2-.7 4.3.9 4.4 1l.4.3-.1.5c0 .1-.8 2.8-2.8 3.6l-1.1.1zm-2-2.1c.7.4 1.7.8 2.6.5.8-.3 1.4-1.3 1.7-2-.7-.4-1.7-.8-2.6-.5-.8.3-1.4 1.3-1.7 2zm3-5.9c-.4 0-2.8-.1-3.7-1.6-.9-1.6.4-3.8.5-4.1l.2-.4h.4c.3 0 2.9 0 3.8 1.6.9 1.6-.4 3.8-.5 4.1l-.2.4h-.5zm-2.1-4.5c-.3.6-.6 1.6-.3 2.2.3.5 1.3.8 2 .8.3-.6.6-1.6.3-2.2-.3-.5-1.3-.8-2-.8zm4.1 3.5h-.6l-.5-.1-.1-.5c0-.1-.7-2.8.6-4.5 1.4-1.6 4.2-1.4 4.3-1.3l.5.1.1.5c0 .1.7 2.8-.6 4.5-1 1.1-2.8 1.3-3.7 1.3zm3-4.9c-.8 0-1.9.2-2.5.8-.6.7-.5 1.8-.4 2.6.8 0 1.9-.2 2.5-.8.5-.7.5-1.9.4-2.6zm-6.4-2.3c-.5 0-.9-.1-1.3-.3-1.6-.9-1.6-3.5-1.6-3.8v-.4l.4-.2c.2-.1 2.5-1.4 4.1-.5 1.6.9 1.6 3.5 1.6 3.8v.4l-.4.2c-.3.1-1.6.8-2.8.8zm-1.4-3.6c.1.7.3 1.7.8 2 .5.3 1.5 0 2.2-.3-.1-.7-.3-1.7-.8-2-.6-.3-1.6 0-2.2.3zm4.7 1.3l-.4-.4c-.1-.1-2.1-2.1-1.7-4.2.4-2.1 3-3.3 3.1-3.3l.5-.2.4.4c.1.1 2.1 2.1 1.7 4.2-.4 2.1-3 3.3-3.1 3.3l-.5.2zm1.2-6.2c-.7.4-1.6 1.1-1.7 2-.2.9.4 1.8.9 2.5.7-.4 1.6-1.1 1.7-2 .1-.9-.4-1.9-.9-2.5zm-3.6.6l-.5-.1c-.1 0-2.8-.8-3.5-2.8-.7-2 .9-4.3 1-4.4l.3-.4.5.1c.1 0 2.8.8 3.5 2.8.7 2-.9 4.3-1 4.4l-.3.4zm-2.1-6c-.4.7-.8 1.7-.5 2.6.3.8 1.3 1.4 2 1.7.4-.7.8-1.7.5-2.6-.3-.8-1.3-1.4-2-1.7zm-16.4 32.8c-.5 0-2.8-.1-3.7-1.6-.9-1.6.4-3.8.5-4.1l.2-.4h.4c.3 0 2.9 0 3.8 1.6.9 1.6-.4 3.8-.5 4.1l-.2.4h-.5zm-2.2-4.5c-.3.6-.6 1.6-.3 2.2.3.5 1.3.8 2 .8.3-.6.6-1.6.3-2.2-.2-.5-1.2-.8-2-.8zm-1.8 7.7c-1.9 0-3.6-1.7-3.6-1.7l-.4-.4.2-.5c0-.1 1.2-2.7 3.3-3.1 2.1-.4 4.1 1.6 4.2 1.7l.4.4-.2.5c0 .1-1.2 2.7-3.3 3.1h-.6zm-2.1-2.4c.6.5 1.6 1.1 2.4.9.9-.2 1.6-1.1 2-1.7-.6-.5-1.6-1.1-2.4-.9-1 .1-1.7 1.1-2 1.7zm-2-4.4l-.4-.2c-.3-.1-2.5-1.4-2.5-3.3 0-1.8 2.2-3.1 2.5-3.3l.4-.2.4.2c.3.1 2.5 1.4 2.5 3.3 0 1.8-2.2 3.1-2.5 3.3l-.4.2zm0-5.2c-.6.4-1.3 1.1-1.3 1.7 0 .6.8 1.3 1.3 1.7.6-.4 1.3-1.1 1.3-1.7 0-.6-.7-1.3-1.3-1.7zm-4.2 6.1c-.4 0-.7-.1-1.1-.2-2-.7-2.8-3.4-2.8-3.5l-.1-.5.4-.3c.1-.1 2.4-1.7 4.4-1 2 .7 2.8 3.4 2.8 3.5l.1.5-.4.3c0 .1-1.6 1.2-3.3 1.2zm-2.2-3.6c.3.7.9 1.7 1.7 2 .9.3 2-.2 2.6-.5-.3-.7-.9-1.7-1.7-2-.9-.3-2 .1-2.6.5zm1.2-4.4h-.5l-.2-.4c-.1-.2-1.4-2.5-.5-4.1.9-1.6 3.4-1.6 3.8-1.6h.4l.2.4c.1.2 1.4 2.5.5 4.1-.8 1.5-3.2 1.6-3.7 1.6zm2.1-4.5c-.7.1-1.7.3-2 .8-.3.5 0 1.5.3 2.2.7-.1 1.7-.3 2-.8.3-.6 0-1.6-.3-2.2zm-4 3.5c-.9 0-2.7-.2-3.7-1.4-1.4-1.6-.7-4.4-.6-4.5l.1-.5.5-.1c.1 0 2.9-.3 4.3 1.3s.7 4.4.6 4.5l-.1.5-.5.1c-.1.1-.3.1-.6.1zm-3.1-4.9c-.1.8-.1 1.9.4 2.6.6.7 1.7.8 2.5.8.1-.8.1-1.9-.4-2.6-.5-.6-1.7-.8-2.5-.8zm6.5-2.3c-1.3 0-2.5-.7-2.7-.8l-.4-.2v-.4c0-.3 0-2.9 1.6-3.8 1.6-.9 3.8.4 4.1.5l.4.2v.4c0 .3 0 2.9-1.6 3.8-.5.2-1 .3-1.4.3zm-1.6-1.9c.6.3 1.6.6 2.2.3.5-.3.8-1.3.8-2-.6-.3-1.6-.6-2.2-.3-.5.3-.7 1.3-.8 2zm-1.8-.4l-.5-.2c-.1 0-2.7-1.2-3.1-3.3-.4-2.1 1.6-4.1 1.7-4.2l.4-.4.5.2c.1 0 2.7 1.2 3.1 3.3.4 2.1-1.6 4.1-1.7 4.2l-.4.4zm-1.1-6.2c-.5.6-1.1 1.6-.9 2.5.2.9 1.1 1.6 1.7 2 .5-.6 1.1-1.6.9-2.4-.2-1-1.1-1.7-1.7-2.1zm4.3-.6l-.3-.4c-.1-.1-1.7-2.4-1-4.4.7-2 3.4-2.8 3.5-2.8l.5-.1.3.4c.1.1 1.7 2.4 1 4.4-.7 2-3.4 2.8-3.5 2.8l-.5.1zm2.1-6c-.7.3-1.7.9-2 1.7-.3.8.1 1.9.5 2.6.7-.3 1.7-.9 2-1.7.3-.9-.2-2-.5-2.6z"/><path fill="#fff" d="M-598 33.8h-17.4l-2.1-9.7c0-.2.2-.4.4-.3l5.3 3.5 5.1-3.7c.1-.1.2-.1.3 0l4.6 3.7 5.8-3.5c.2-.1.4.1.4.3l-2.4 9.7z"/><path fill="#0686D8" d="M-597.4 34.5h-18.6l-2.3-10.3c-.1-.4.1-.8.4-1 .3-.2.8-.2 1.1 0l4.8 3.2 4.7-3.4c.4-.3.8-.2 1.2 0l4.2 3.4 5.3-3.2c.3-.2.8-.2 1.1 0 .3.2.5.6.4 1l-2.3 10.3zm-17.4-1.5h16.2l1.8-7.9-5.2 3.2-4.7-3.8-5.2 3.8-4.6-3.1 1.7 7.8zm-1.1 2.2h18.4v1.5h-18.4zm.1 2.6h18.4v1.5h-18.4zm1.771-6.577l.99-.99 1.06 1.061-.99.99zm3.18-.012l.99-.99 1.061 1.061-.99.99zm3.317-.023l.99-.99 1.06 1.061-.99.99zm3.161-.029l.99-.99 1.061 1.061-.99.99zm3.246.046l.99-.99 1.06 1.061-.99.99z"/><circle fill="#5FB0E5" cx="-455.4" cy="10.7" r=".9"/><circle fill="#5FB0E5" cx="-426.8" cy="18" r=".9"/><circle fill="#5FB0E5" cx="-431.3" cy="11.5" r="1.3"/><circle fill="#5FB0E5" cx="-434.9" cy="18.7" r=".7"/><circle fill="#5FB0E5" cx="-466.7" cy="11.5" r="1.3"/><circle fill="#5FB0E5" cx="-461.6" cy="17.3" r=".7"/><path fill="#0686D8" d="M-445.2 24.5l-1-.5c-.7-.3-6.4-3.1-7.6-5.1-.6-1.1-.8-2.3-.5-3.5.3-1.2 1.1-2.2 2.2-2.8 1.1-.6 2.3-.8 3.5-.5 1.2.3 2.2 1.1 2.8 2.2.4.6.6 1.6.7 3.1.2 2.7 0 5.9-.1 6v1.1zm-4.6-11c-.5 0-1.1.1-1.6.4-.7.4-1.2 1.1-1.5 1.9-.2.8-.1 1.6.3 2.4.6 1 3.6 2.8 5.9 4 .1-1.2.1-3.1 0-4.7s-.4-2.2-.5-2.4c-.4-.7-1.1-1.2-1.9-1.5-.1-.1-.4-.1-.7-.1zm4.6 10.5l-.6-1.4c2.3-1.1 6.2-3.3 6.9-4.5.4-.7.5-1.6.3-2.4-.2-.8-.7-1.5-1.5-1.9-1.2-.7-2.6-.5-3.6.4-.3.2-.5.5-.6.8l-1.3-.8c.3-.4.6-.8 1-1.2 1.5-1.3 3.6-1.5 5.4-.5 1.1.6 1.8 1.6 2.2 2.8.3 1.2.2 2.4-.5 3.5-1.3 2.1-7 4.9-7.7 5.2z"/><path fill="#fff" d="M-433.2 51.8h-25c-1 0-1.8-.8-1.8-1.8v-24.7h28.7v24.7c0 1-.9 1.8-1.9 1.8z"/><path fill="#0686D8" d="M-433.2 52.5h-25c-1.4 0-2.6-1.2-2.6-2.6v-1h1.5v1c0 .6.5 1.1 1.1 1.1h25c.6 0 1.1-.5 1.1-1.1v-23.9h-27.2v15.1h-1.5v-16.6h30.2v25.5c0 1.4-1.1 2.5-2.6 2.5zm-27.5-9.6h1.5v4.5h-1.5z"/><path fill="#D2E9F7" d="M-430.9 27.6h-29.6c-.6 0-1.1-.5-1.1-1.1v-3c0-.6.5-1.1 1.1-1.1h29.6c.6 0 1.1.5 1.1 1.1v3c0 .6-.5 1.1-1.1 1.1z"/><path fill="#0686D8" d="M-430.9 28.4h-29.6c-1 0-1.8-.8-1.8-1.8v-3c0-1 .8-1.8 1.8-1.8h29.6c1 0 1.8.8 1.8 1.8v3c.1.9-.7 1.8-1.8 1.8zm-29.6-5.2c-.2 0-.3.2-.3.3v3c0 .2.2.3.3.3h29.6c.2 0 .3-.2.3-.3v-3c0-.2-.2-.3-.3-.3h-29.6z"/><path fill="#5FB0E5" d="M-448.8 22.4h6.8v29.4h-6.8z"/><path fill="#0686D8" d="M-441.2 52.5h-8.3v-30.8h8.3v30.8zm-6.8-1.5h5.3v-27.8h-5.3v27.8zm-1.083-24.709l6.235-3.6.75 1.299-6.235 3.6zm.182 3.42l6.322-3.65.75 1.299-6.322 3.65zm.001 3.585l6.322-3.65.75 1.299-6.322 3.65zm-.092 3.667l6.322-3.651.75 1.299-6.322 3.651zm.006 3.552l6.322-3.65.75 1.299-6.322 3.65zm-.004 3.617l6.322-3.651.75 1.299-6.322 3.651zm0 3.585l6.322-3.651.75 1.299-6.322 3.651zm-.086 3.634l6.322-3.651.75 1.299-6.322 3.651z"/><path fill="#fff" d="M-514 40h-32c-1.1 0-1.9-.9-1.9-1.9v-22c0-1.1.9-1.9 1.9-1.9h32c1.1 0 1.9.9 1.9 1.9v22c.1 1.1-.8 1.9-1.9 1.9z"/><path fill="#0686D8" d="M-537 40.8h-9.2c-1.3 0-2.4-1.1-2.4-2.4v-22.5c0-1.3 1.1-2.4 2.4-2.4h1.9v1.5h-1.9c-.5 0-.9.4-.9.9v22.5c0 .5.4.9.9.9h9.2v1.5zm23.3 0h-3.9v-1.5h3.9c.5 0 .9-.4.9-.9v-22.5c0-.5-.4-.9-.9-.9h-21.8v-1.5h21.8c1.3 0 2.4 1.1 2.4 2.4v22.5c0 1.3-1.1 2.4-2.4 2.4zm-32.4-16.1h1.5v4.9h-1.5z"/><path fill="#D2E9F7" d="M-543.2 16.4h26.2v21.4h-26.2z"/><path fill="#0686D8" d="M-515.3 28.8c-.9 0-1.7-.8-1.7-1.7 0-.9.8-1.7 1.7-1.7.9 0 1.7.8 1.7 1.7-.1 1-.8 1.7-1.7 1.7zm0-1.8c-.1 0-.2.1-.2.2 0 .2.4.2.4 0-.1-.2-.1-.2-.2-.2z"/><circle fill="#5FB0E5" cx="-541.4" cy="43.3" r=".8"/><circle fill="#5FB0E5" cx="-547.9" cy="47.1" r=".8"/><circle fill="#5FB0E5" cx="-517.6" cy="50" r=".6"/><circle fill="#5FB0E5" cx="-515" cy="44.2" r="1.1"/><circle fill="#5FB0E5" cx="-537" cy="48.6" r="1.5"/><path fill="#0686D8" d="M-539.5 30l-2.9-2.9 2.8-2.9 1.1 1.1-1.8 1.8 1.8 1.9zm18.7 0l-1.1-1 1.8-1.9-1.8-1.8 1.1-1.1 2.9 2.9z"/><path fill="#5FB0E5" d="M-536.2 22.8h12.6v8.7h-12.6z"/><path fill="#0686D8" d="M-522.8 32.2h-14.1v-10.2h14.1v10.2zm-12.6-1.5h11.1v-7.2h-11.1v7.2z"/><path fill="#fff" d="M-522.1 34.6c-.7 0-1.3.6-1.3 1.3v-1.4c0-.7-.6-1.3-1.3-1.3-.7 0-1.3.6-1.3 1.3v-1.4c0-.7-.6-1.3-1.3-1.3-.7 0-1.3.6-1.3 1.3v-4.2c0-.7-.6-1.3-1.3-1.3-.7 0-1.3.6-1.3 1.3v8.4h-1.9c-.5 0-.9.4-.9.9v5.9c0 .5.3.9.7 1.1l1.1.5c.4.2.7.6.7 1.1v2.6h8.9v-2.9c0-.3.1-.6.3-.8l1.4-1.3c.2-.2.4-.6.4-.9v-7.6c-.3-.7-.9-1.3-1.6-1.3z"/><path fill="#0686D8" d="M-530.7 39.7h-1.5v-10.8c0-1.1.9-2.1 2.1-2.1 1.1 0 2.1.9 2.1 2.1v8.9h-1.5v-8.9c0-.3-.3-.6-.6-.6s-.6.3-.6.6v10.8zm5.3-4.3h-1.5v-2.3c0-.3-.3-.6-.6-.6s-.6.3-.6.6v2.3h-1.5v-2.3c0-1.1.9-2.1 2.1-2.1 1.1 0 2.1.9 2.1 2.1v2.3zm2.7 2.3h-1.5v-3.2c0-.3-.3-.6-.6-.6s-.6.3-.6.6v3.2h-1.5v-3.2c0-1.1.9-2.1 2.1-2.1 1.1 0 2.1.9 2.1 2.1v3.2zm.6 11.7h-1.5v-2.9c0-.5.2-1 .5-1.3l1.4-1.3c.1-.1.2-.2.2-.4v-7.6c0-.3-.3-.6-.6-.6s-.6.3-.6.6v1.3h-1.5v-1.3c0-1.1.9-2.1 2.1-2.1 1.1 0 2.1.9 2.1 2.1v7.6c0 .5-.2 1.1-.6 1.4l-1.4 1.3c-.1.1-.1.1-.1.2v3zm-8.9 0h-1.5v-2.6c0-.2-.1-.4-.3-.4l-1.1-.5c-.7-.3-1.1-1-1.1-1.8v-5.9c0-.9.7-1.7 1.7-1.7h1.9v1.5h-1.9c-.1 0-.2.1-.2.2v5.9c0 .2.1.4.3.4l1.1.5c.7.3 1.1 1 1.1 1.8v2.6z"/><path fill="#5FB0E5" d="M-532.9 47.1h11.4v5.4h-11.4z"/><path fill="#0686D8" d="M-520.8 52.5h-1.5v-4.6h-9.9v4.6h-1.5v-6.1h12.9zm-21.237-39.039l4.098-.12.044 1.499-4.098.12z"/><circle fill="#5FB0E5" cx="-367.1" cy="49.4" r="1.5"/><circle fill="#5FB0E5" cx="-380.8" cy="45.2" r="1.7"/><circle fill="#5FB0E5" cx="-353.3" cy="21.6" r=".8"/><circle fill="#5FB0E5" cx="-353.7" cy="11.9" r="1.1"/><circle fill="#5FB0E5" cx="-372.3" cy="44.1" r="1"/><circle fill="#5FB0E5" cx="-344.7" cy="16.3" r="1.6"/><circle fill="#fff" cx="-354.7" cy="38.4" r="12.5"/><path fill="#0686D8" d="M-354.7 51.6c-5.7 0-10.7-3.6-12.5-8.9l1.4-.5c1.6 4.7 6.1 7.9 11.1 7.9 6.5 0 11.7-5.2 11.7-11.7s-5.2-11.7-11.7-11.7v-1.5c7.3 0 13.2 5.9 13.2 13.2s-5.9 13.2-13.2 13.2z"/><circle fill="#9ECFEF" cx="-354.7" cy="38.4" r="6.5"/><path fill="#0686D8" d="M-354.7 39.8c-.8 0-1.4-.6-1.4-1.4s.6-1.4 1.4-1.4c.8 0 1.4.6 1.4 1.4s-.6 1.4-1.4 1.4zm0-1.5c-.1 0-.1.1-.1.1 0 .2.3.2.3 0-.1-.1-.1-.1-.2-.1zm-.7-11.3h1.5v2.2h-1.5zm4.663 3.02l1.1-1.905 1.299.75-1.1 1.905zm3.676 3.089l1.907-1.097.748 1.3-1.907 1.097zm1.63 6.04l.005-1.5 2.2.007-.005 1.5zm-1.665 4.509l.755-1.296 1.901 1.108-.755 1.296zm-3.619 3.15l1.303-.743 1.09 1.911-1.303.743zm-4.744 2.969l.014-2.2 1.5.01-.014 2.2zm-5.604-1.859l1.115-1.897 1.293.76-1.115 1.897zm-3.84-4.514l1.915-1.082.738 1.306-1.915 1.082zm-1.205-4.378l.014-1.5 2.2.02-.014 1.5zm1.265-5.747l.764-1.291 1.894 1.12-.764 1.291zm3.893-4.458l1.307-.735 1.078 1.918-1.307.735zm5.55 9.579l.3-7.6h.9l.3 7.6zm.7-.7l6.7.1.1.9-6.8.5z"/><ellipse transform="matrix(1 -.02 .02 1 -.634 -7.353)" fill="#D2E9F7" cx="-369" cy="28.1" rx="12.1" ry="12.1"/><ellipse transform="matrix(1 -.02 .02 1 -.634 -7.353)" fill="#9ECFEF" cx="-369" cy="28.1" rx="8.6" ry="8.6"/><path fill="#0686D8" d="M-369.1 40.9c-3.3 0-6.5-1.3-8.9-3.6-2.5-2.4-3.9-5.6-3.9-9 0-2 .4-4 1.3-5.8l1.4.7c-.8 1.6-1.2 3.3-1.1 5.2.1 3 1.3 5.9 3.5 8 2.2 2.1 5.1 3.2 8.1 3.2 3-.1 5.9-1.3 8-3.5 2.1-2.2 3.2-5.1 3.2-8.1-.1-6.3-5.3-11.3-11.6-11.1-1.5 0-3 .3-4.3.9l-.6-1.4c1.5-.7 3.2-1 4.9-1.1 7-.1 13 5.5 13.1 12.6.1 3.4-1.2 6.7-3.6 9.2-2.4 2.5-5.6 3.9-9 3.9-.3-.1-.4-.1-.5-.1zm-9.5-18.9l-1.3-.8c.4-.7.9-1.3 1.4-1.9l1.1 1-1.2 1.7zm2.1-2.4l-1-1.1c.7-.6 1.5-1.2 2.3-1.6l.7 1.3c-.7.3-1.4.8-2 1.4zM-367.7 33.4h-6.2v-1.5h6.2c.8 0 1.5-.7 1.5-1.5s-.7-1.5-1.5-1.5h-2.5c-1.7 0-3-1.4-3-3 0-1.7 1.4-3 3-3h6v1.5h-6c-.8 0-1.5.7-1.5 1.5s.7 1.5 1.5 1.5h2.5c1.7 0 3 1.4 3 3 0 1.7-1.4 3-3 3zm-2.1-13.7h1.5v16.7h-1.5z"/><defs><path id="a" d="M-280.8 32.9h-8l-3.8-7.3c-.3-.6.1-1.2.7-1.2h2.8c.2 0 .5.1.6.3l7.7 8.2z"/></defs><clipPath id="b"><use xlink:href="#a" overflow="visible"/></clipPath><g clip-path="url(#b)"><defs><path id="c" d="M-689.8-132h521.1v447.5h-521.1z"/></defs><clipPath id="d"><use xlink:href="#c" overflow="visible"/></clipPath><path clip-path="url(#d)" fill="#fff" d="M-294.6 22.4h15.7v12.3h-15.7z"/></g><defs><path id="e" d="M-280.8 32.9h-8l-3.8-7.3c-.3-.6.1-1.2.7-1.2h2.8c.2 0 .5.1.6.3l7.7 8.2z"/></defs><clipPath id="f"><use xlink:href="#e" overflow="visible"/></clipPath><g clip-path="url(#f)"><defs><path id="g" d="M-689.8-132h521.1v447.5h-521.1z"/></defs><clipPath id="h"><use xlink:href="#g" overflow="visible"/></clipPath><path clip-path="url(#h)" fill="#fff" d="M-294.6 22.4h15.7v12.3h-15.7z"/></g><defs><path id="i" d="M-291 24.3h-.9c-.6 0-1 .7-.7 1.2l3.8 7.3h3.1l-5.2-8.2c-.1 0-.1-.1-.1-.3"/></defs><clipPath id="j"><use xlink:href="#i" overflow="visible"/></clipPath><g clip-path="url(#j)"><defs><path id="k" d="M-689.8-132h521.1v447.5h-521.1z"/></defs><clipPath id="l"><use xlink:href="#k" overflow="visible"/></clipPath><path clip-path="url(#l)" fill="#5FB0E5" d="M-294.6 22.4h10.8v12.3h-10.8z"/></g><defs><path id="m" d="M-279.2 33.6h-10.1l-4-7.7c-.2-.5-.2-1.1.1-1.5.3-.5.8-.7 1.3-.7h2.8c.4 0 .9.2 1.1.5l8.8 9.4zm-9.2-1.4h6l-6.5-7.1h-2.9s-.1 0-.1.1v.1l3.5 6.9z"/></defs><clipPath id="n"><use xlink:href="#m" overflow="visible"/></clipPath><g clip-path="url(#n)"><defs><path id="o" d="M-689.8-132h521.1v447.5h-521.1z"/></defs><clipPath id="p"><use xlink:href="#o" overflow="visible"/></clipPath><path clip-path="url(#p)" fill="#0686D8" d="M-295.3 21.7h18.1v13.8h-18.1z"/></g><defs><path id="q" d="M-255.8 47.4c0 .7-.5 1.2-1.2 1.2s-1.2-.5-1.2-1.2.5-1.2 1.2-1.2 1.2.6 1.2 1.2"/></defs><clipPath id="r"><use xlink:href="#q" overflow="visible"/></clipPath><g clip-path="url(#r)"><defs><path id="s" d="M-689.8-132h521.1v447.5h-521.1z"/></defs><clipPath id="t"><use xlink:href="#s" overflow="visible"/></clipPath><path clip-path="url(#t)" fill="#5FB0E5" d="M-260.1 44.3h6.2v6.2h-6.2z"/></g><defs><path id="u" d="M-265.7 20.6c0 .3-.3.6-.6.6s-.6-.3-.6-.6.3-.6.6-.6.6.2.6.6"/></defs><clipPath id="v"><use xlink:href="#u" overflow="visible"/></clipPath><g clip-path="url(#v)"><defs><path id="w" d="M-689.8-132h521.1v447.5h-521.1z"/></defs><clipPath id="x"><use xlink:href="#w" overflow="visible"/></clipPath><path clip-path="url(#x)" fill="#5FB0E5" d="M-268.8 18.1h5v5h-5z"/></g><defs><path id="y" d="M-267 44.2c0 .3-.3.6-.6.6s-.6-.3-.6-.6.3-.6.6-.6.6.3.6.6"/></defs><clipPath id="z"><use xlink:href="#y" overflow="visible"/></clipPath><g clip-path="url(#z)"><defs><path id="A" d="M-689.8-132h521.1v447.5h-521.1z"/></defs><clipPath id="B"><use xlink:href="#A" overflow="visible"/></clipPath><path clip-path="url(#B)" fill="#5FB0E5" d="M-270.1 41.7h5v5h-5z"/></g><defs><path id="C" d="M-251.1 17.8c0 .4-.4.8-.8.8s-.8-.4-.8-.8.4-.8.8-.8c.5 0 .8.4.8.8"/></defs><clipPath id="D"><use xlink:href="#C" overflow="visible"/></clipPath><g clip-path="url(#D)"><defs><path id="E" d="M-689.8-132h521.1v447.5h-521.1z"/></defs><clipPath id="F"><use xlink:href="#E" overflow="visible"/></clipPath><path clip-path="url(#F)" fill="#5FB0E5" d="M-254.5 15.1h5.4v5.4h-5.4z"/></g><defs><path id="G" d="M-260.7 13.7c0 .6-.5 1.1-1.1 1.1-.6 0-1.1-.5-1.1-1.1 0-.6.5-1.1 1.1-1.1.6 0 1.1.5 1.1 1.1"/></defs><clipPath id="H"><use xlink:href="#G" overflow="visible"/></clipPath><g clip-path="url(#H)"><defs><path id="I" d="M-689.8-132h521.1v447.5h-521.1z"/></defs><clipPath id="J"><use xlink:href="#I" overflow="visible"/></clipPath><path clip-path="url(#J)" fill="#5FB0E5" d="M-264.9 10.7h6.1v6.1h-6.1z"/></g><defs><path id="K" d="M-252.8 29c-.5-1.4-1.8-2.4-3.3-2.4-.7 0-1.3.2-1.8.5-.3-2.2-2.2-3.9-4.5-3.9-2.1 0-3.8 1.4-4.4 3.2-.3-.1-.5-.1-.8-.1-1.6 0-2.9 1.1-3.1 2.6h-.5c-1.3 0-2.4 1.1-2.4 2.3v.2c0 1.3 1.1 2.3 2.4 2.3h18.5c1.3 0 2.4-1.1 2.4-2.3v-.2c-.1-1.1-1.2-2.2-2.5-2.2"/></defs><clipPath id="L"><use xlink:href="#K" overflow="visible"/></clipPath><g clip-path="url(#L)"><defs><path id="M" d="M-689.8-132h521.1v447.5h-521.1z"/></defs><clipPath id="N"><use xlink:href="#M" overflow="visible"/></clipPath><path clip-path="url(#N)" fill="#D2E9F7" d="M-275.6 21.4h27.1v14.4h-27.1z"/></g><defs><path id="O" d="M-252.8 34.6v-1.4c.9 0 1.6-.7 1.6-1.6v-.2c0-.9-.7-1.6-1.6-1.6h-.5l-.2-.5c-.3-1.1-1.4-1.9-2.5-1.9-.5 0-1 .1-1.4.4l-.9.6-.2-1.1c-.3-1.9-1.9-3.3-3.8-3.3-1.7 0-3.2 1.1-3.7 2.7l-.2.7-.7-.2c-1.4-.4-2.8.6-3 2l-.1.6h-1.1c-.6 0-1.1.3-1.4.8l-1.2-.7c.5-.9 1.5-1.5 2.6-1.5.5-1.7 2.2-2.8 4-2.6.8-1.9 2.7-3.1 4.9-3.1 2.3 0 4.3 1.5 5 3.6.4-.1.9-.2 1.3-.2 1.6 0 3.1 1 3.7 2.4 1.5.2 2.7 1.5 2.7 3v.2c-.2 1.6-1.6 2.9-3.3 2.9"/></defs><clipPath id="P"><use xlink:href="#O" overflow="visible"/></clipPath><g clip-path="url(#P)"><defs><path id="Q" d="M-689.8-132h521.1v447.5h-521.1z"/></defs><clipPath id="R"><use xlink:href="#Q" overflow="visible"/></clipPath><path clip-path="url(#R)" fill="#0686D8" d="M-275.9 20.7h28.1v15.9h-28.1z"/></g><defs><path id="S" d="M-260 27.2c-.6-.9-1.6-1.4-2.6-1.4-.6 0-1.1.1-1.6.4l-.8-1.2c.7-.4 1.5-.6 2.3-.6 1.5 0 3 .8 3.8 2.1l-1.1.7z"/></defs><clipPath id="T"><use xlink:href="#S" overflow="visible"/></clipPath><g clip-path="url(#T)"><defs><path id="U" d="M-689.8-132h521.1v447.5h-521.1z"/></defs><clipPath id="V"><use xlink:href="#U" overflow="visible"/></clipPath><path clip-path="url(#V)" fill="#0686D8" d="M-266.9 22.4h10v6.7h-10z"/></g><defs><path id="W" d="M-265.2 28h-1.4c0-.5-.4-.9-.9-.9v-1.4c1.2 0 2.3 1 2.3 2.3"/></defs><clipPath id="X"><use xlink:href="#W" overflow="visible"/></clipPath><g clip-path="url(#X)"><defs><path id="Y" d="M-689.8-132h521.1v447.5h-521.1z"/></defs><clipPath id="Z"><use xlink:href="#Y" overflow="visible"/></clipPath><path clip-path="url(#Z)" fill="#0686D8" d="M-269.5 23.8h6.2v6.2h-6.2z"/></g><defs><path id="aa" d="M-272.9 47.8c-.4-1.1-1.5-2-2.7-2-.5 0-1.1.2-1.5.4-.3-1.8-1.8-3.2-3.7-3.2-1.7 0-3.1 1.1-3.6 2.6-.2-.1-.4-.1-.7-.1-1.3 0-2.4.9-2.6 2.2h-.4c-1.1 0-1.9.9-1.9 1.9v.1c0 1.1.9 1.9 1.9 1.9h15.2c1.1 0 1.9-.9 1.9-1.9v-.1c0-.9-.8-1.8-1.9-1.8"/></defs><clipPath id="ab"><use xlink:href="#aa" overflow="visible"/></clipPath><g clip-path="url(#ab)"><defs><path id="ac" d="M-689.8-132h521.1v447.5h-521.1z"/></defs><clipPath id="ad"><use xlink:href="#ac" overflow="visible"/></clipPath><path clip-path="url(#ad)" fill="#D2E9F7" d="M-291.9 41.2h22.9v12.5h-22.9z"/></g><defs><path id="ae" d="M-285.4 51.8h-2.7c-1.1 0-1.9-.9-1.9-1.9v-.1c0-1.1.9-1.9 1.9-1.9h.4c.2-1.2 1.3-2.2 2.6-2.2.2 0 .5 0 .7.1.5-1.5 1.9-2.6 3.6-2.6 1.9 0 3.4 1.4 3.7 3.2.4-.3.9-.4 1.5-.4 1.3 0 2.3.8 2.6 2h.1c1.1 0 1.9.9 1.9 1.9v.1c0 1.1-.9 1.9-1.9 1.9h-12.5z"/></defs><clipPath id="af"><use xlink:href="#ae" overflow="visible"/></clipPath><g clip-path="url(#af)"><defs><path id="ag" d="M-689.8-132h521.1v447.5h-521.1z"/></defs><clipPath id="ah"><use xlink:href="#ag" overflow="visible"/></clipPath><path clip-path="url(#ah)" fill="#D2E9F7" d="M-291.9 41.2h22.9v12.5h-22.9z"/></g><defs><path id="ai" d="M-290.7 42.4h20.5v10.1h-20.5z"/></defs><clipPath id="aj"><use xlink:href="#ai" overflow="visible"/></clipPath><g clip-path="url(#aj)"><defs><path id="ak" d="M-689.8-132h521.1v447.5h-521.1z"/></defs><clipPath id="al"><use xlink:href="#ak" overflow="visible"/></clipPath><g clip-path="url(#al)" enable-background="new"><defs><path id="am" d="M-290.8 42.4h20.6v10.3h-20.6z"/></defs><clipPath id="an"><use xlink:href="#am" overflow="visible"/></clipPath><g clip-path="url(#an)"><defs><path id="ao" d="M-272.9 52.5h-15.2c-1.5 0-2.7-1.2-2.7-2.6v-.1c0-1.4 1.1-2.6 2.5-2.6.5-1.4 1.8-2.3 3.3-2.2.7-1.5 2.3-2.6 4.1-2.6 1.9 0 3.6 1.2 4.2 2.9.3-.1.7-.1 1-.1 1.4 0 2.6.8 3.2 2 1.3.2 2.2 1.3 2.2 2.6v.1c0 1.4-1.1 2.6-2.6 2.6zm-15.2-4c-.7 0-1.2.5-1.2 1.2v.1c0 .7.5 1.2 1.2 1.2h15.2c.7 0 1.2-.5 1.2-1.2v-.1c0-.7-.5-1.2-1.2-1.2h-.5l-.2-.5c-.3-.9-1.1-1.5-2-1.5-.4 0-.8.1-1.1.3l-.9.6-.2-1.1c-.2-1.5-1.5-2.6-3-2.6-1.3 0-2.5.9-2.9 2.1l-.2.7-.7-.2c-1.1-.3-2.2.4-2.3 1.5l-.1.6h-1.1z"/></defs><clipPath id="ap"><use xlink:href="#ao" overflow="visible"/></clipPath><g clip-path="url(#ap)"><defs><path id="aq" d="M-290.8 42.4h20.6v10.3h-20.6z"/></defs><clipPath id="ar"><use xlink:href="#aq" overflow="visible"/></clipPath><path clip-path="url(#ar)" fill="#0686D8" d="M-292.7 40.5h24.3v13.9h-24.3z"/></g></g></g></g><defs><path id="as" d="M-274.9 20.8c-.3-.7-.9-1.3-1.7-1.3-.3 0-.7.1-.9.3-.2-1.1-1.2-2-2.4-2-1.1 0-2 .7-2.3 1.7l-.4-.1c-.8 0-1.5.6-1.6 1.4h-.3c-.7 0-1.2.6-1.2 1.2v.1c0 .7.6 1.2 1.2 1.2h9.7c.7 0 1.2-.6 1.2-1.2v-.1c-.1-.7-.6-1.2-1.3-1.2"/></defs><clipPath id="at"><use xlink:href="#as" overflow="visible"/></clipPath><g clip-path="url(#at)"><defs><path id="au" d="M-689.8-132h521.1v447.5h-521.1z"/></defs><clipPath id="av"><use xlink:href="#au" overflow="visible"/></clipPath><path clip-path="url(#av)" fill="#D2E9F7" d="M-287.7 15.9h15.9v9.3h-15.9z"/></g><defs><path id="aw" d="M-282.8 23.3h-1.7c-.7 0-1.2-.6-1.2-1.2v-.1c0-.7.6-1.2 1.2-1.2h.3c.1-.8.8-1.4 1.6-1.4.1 0 .3 0 .4.1.3-1 1.2-1.7 2.3-1.7 1.2 0 2.2.9 2.4 2 .3-.2.6-.3.9-.3.8 0 1.5.5 1.7 1.3.7 0 1.2.6 1.2 1.2v.1c0 .7-.6 1.2-1.2 1.2h-7.9z"/></defs><clipPath id="ax"><use xlink:href="#aw" overflow="visible"/></clipPath><g clip-path="url(#ax)"><defs><path id="ay" d="M-689.8-132h521.1v447.5h-521.1z"/></defs><clipPath id="az"><use xlink:href="#ay" overflow="visible"/></clipPath><path clip-path="url(#az)" fill="#D2E9F7" d="M-287.7 15.9h15.9v9.3h-15.9z"/></g><defs><path id="aA" d="M-274.9 24h-9.7c-1.1 0-2-.9-2-1.9 0-1.1.7-1.9 1.7-2 .4-.8 1.2-1.4 2.1-1.4.5-1 1.6-1.6 2.7-1.6 1.2 0 2.3.7 2.8 1.8 1.1-.2 2.2.3 2.7 1.3.9.2 1.5 1 1.5 1.9.2 1.1-.7 1.9-1.8 1.9zm-9.7-2.5c-.3 0-.5.2-.5.5 0 .4.2.6.5.6h9.7c.3 0 .5-.2.5-.5 0-.4-.2-.6-.5-.6h-.5l-.2-.5c-.2-.6-1-.9-1.5-.6l-.9.6-.2-1.1c-.1-.8-.8-1.4-1.7-1.4-.7 0-1.4.5-1.6 1.2l-.2.7-.7-.2c-.6-.2-1.1.2-1.2.7l-.1.6h-.9z"/></defs><clipPath id="aB"><use xlink:href="#aA" overflow="visible"/></clipPath><g clip-path="url(#aB)"><defs><path id="aC" d="M-689.8-132h521.1v447.5h-521.1z"/></defs><clipPath id="aD"><use xlink:href="#aC" overflow="visible"/></clipPath><path clip-path="url(#aD)" fill="#0686D8" d="M-288.4 15.2h17.4v10.8h-17.4z"/></g><defs><path id="aE" d="M-252.8 35.7h-.8c-.7-1.9-2.5-3.2-4.6-3.2h-32.8c0 4.5 3.7 8.1 8.2 8.1h30c1.2 0 2.3-1 2.3-2.2v-.4c-.1-1.3-1.1-2.3-2.3-2.3"/></defs><clipPath id="aF"><use xlink:href="#aE" overflow="visible"/></clipPath><g clip-path="url(#aF)"><defs><path id="aG" d="M-689.8-132h521.1v447.5h-521.1z"/></defs><clipPath id="aH"><use xlink:href="#aG" overflow="visible"/></clipPath><path clip-path="url(#aH)" fill="#fff" d="M-292.9 30.6h44.2v12h-44.2z"/></g><defs><path id="aI" d="M-252.8 38.7h-30c-3.9 0-7.1-2.7-8-6.2h-.2c0 4.5 3.7 8.1 8.2 8.1h30c1.2 0 2.3-1 2.3-2.2v-.4c0-.3-.1-.5-.1-.7-.4.8-1.3 1.4-2.2 1.4"/></defs><clipPath id="aJ"><use xlink:href="#aI" overflow="visible"/></clipPath><g clip-path="url(#aJ)"><defs><path id="aK" d="M-689.8-132h521.1v447.5h-521.1z"/></defs><clipPath id="aL"><use xlink:href="#aK" overflow="visible"/></clipPath><path clip-path="url(#aL)" fill="#9ECFEF" d="M-292.9 30.6h44.2v12h-44.2z"/></g><defs><path id="aM" d="M-252.8 41.4h-30c-4.9 0-8.9-4-8.9-8.9v-.7h33.5c2.2 0 4.1 1.3 5.1 3.2h.3c1.6 0 3 1.3 3 3v.5c-.1 1.5-1.4 2.9-3 2.9zm-37.4-8.2c.4 3.8 3.6 6.7 7.4 6.7h30c.8 0 1.5-.7 1.5-1.5v-.4c0-.8-.7-1.5-1.5-1.5h-1.3l-.2-.5c-.6-1.6-2.2-2.7-3.9-2.7h-32z"/></defs><clipPath id="aN"><use xlink:href="#aM" overflow="visible"/></clipPath><g clip-path="url(#aN)"><defs><path id="aO" d="M-689.8-132h521.1v447.5h-521.1z"/></defs><clipPath id="aP"><use xlink:href="#aO" overflow="visible"/></clipPath><path clip-path="url(#aP)" fill="#0686D8" d="M-293.6 29.9h45.7v13.4h-45.7z"/></g><defs><path id="aQ" d="M-281.6 35.1h-9.5c-.6 0-1.1-.5-1.1-1.1v-.4c0-.6.5-1.1 1.1-1.1h9.5c.6 0 1.1.5 1.1 1.1v.4c0 .6-.5 1.1-1.1 1.1"/></defs><clipPath id="aR"><use xlink:href="#aQ" overflow="visible"/></clipPath><g clip-path="url(#aR)"><defs><path id="aS" d="M-689.8-132h521.1v447.5h-521.1z"/></defs><clipPath id="aT"><use xlink:href="#aS" overflow="visible"/></clipPath><path clip-path="url(#aT)" fill="#D2E9F7" d="M-294.1 30.6h15.5v6.4h-15.5z"/></g><defs><path id="aU" d="M-263.2 41.6h-11.6c-.6 0-1.1-.5-1.1-1.1v-.8c0-.6.5-1.1 1.1-1.1h11.6c.6 0 1.1.5 1.1 1.1v.8c.1.6-.4 1.1-1.1 1.1"/></defs><clipPath id="aV"><use xlink:href="#aU" overflow="visible"/></clipPath><g clip-path="url(#aV)"><defs><path id="aW" d="M-689.8-132h521.1v447.5h-521.1z"/></defs><clipPath id="aX"><use xlink:href="#aW" overflow="visible"/></clipPath><path clip-path="url(#aX)" fill="#D2E9F7" d="M-277.8 36.6h17.7v6.9h-17.7z"/></g><defs><path id="aY" d="M-281.6 35.8h-9.5c-1 0-1.8-.8-1.8-1.8v-.4c0-1 .8-1.8 1.8-1.8h9.5c1 0 1.8.8 1.8 1.8v.4c0 1-.8 1.8-1.8 1.8zm-9.5-2.6c-.2 0-.4.2-.4.4v.4c0 .2.2.4.4.4h9.5c.2 0 .4-.2.4-.4v-.4c0-.2-.2-.4-.4-.4h-9.5z"/></defs><clipPath id="aZ"><use xlink:href="#aY" overflow="visible"/></clipPath><g clip-path="url(#aZ)"><defs><path id="ba" d="M-689.8-132h521.1v447.5h-521.1z"/></defs><clipPath id="bb"><use xlink:href="#ba" overflow="visible"/></clipPath><path clip-path="url(#bb)" fill="#0686D8" d="M-294.8 29.9h17v7.8h-17z"/></g><defs><path id="bc" d="M-263.2 42.3h-11.6c-1 0-1.8-.8-1.8-1.8v-.8c0-1 .8-1.8 1.8-1.8h11.6c1 0 1.8.8 1.8 1.8v.8c.1 1-.8 1.8-1.8 1.8zm-11.6-3c-.2 0-.4.2-.4.4v.8c0 .2.2.4.4.4h11.6c.2 0 .4-.2.4-.4v-.8c0-.2-.2-.4-.4-.4h-11.6z"/></defs><clipPath id="bd"><use xlink:href="#bc" overflow="visible"/></clipPath><g clip-path="url(#bd)"><defs><path id="be" d="M-689.8-132h521.1v447.5h-521.1z"/></defs><clipPath id="bf"><use xlink:href="#be" overflow="visible"/></clipPath><path clip-path="url(#bf)" fill="#0686D8" d="M-278.5 35.9h19.1v8.3h-19.1z"/></g><defs><path id="bg" d="M-293.4 12.6h43.8v39.9h-43.8z"/></defs><clipPath id="bh"><use xlink:href="#bg" overflow="visible"/></clipPath><g clip-path="url(#bh)"><defs><path id="bi" d="M-689.8-132h521.1v447.5h-521.1z"/></defs><clipPath id="bj"><use xlink:href="#bi" overflow="visible"/></clipPath><g clip-path="url(#bj)" enable-background="new"><defs><path id="bk" d="M-278.6 34.3h22.5v1.5h-22.5z"/></defs><clipPath id="bl"><use xlink:href="#bk" overflow="visible"/></clipPath><g clip-path="url(#bl)"><defs><path id="bm" d="M-260.2 34.4h4.1v1.4h-4.1z"/></defs><clipPath id="bn"><use xlink:href="#bm" overflow="visible"/></clipPath><g clip-path="url(#bn)"><defs><path id="bo" d="M-293.4 12.6h43.9v40.1h-43.9z"/></defs><clipPath id="bp"><use xlink:href="#bo" overflow="visible"/></clipPath><path clip-path="url(#bp)" fill="#0686D8" d="M-262.1 32.5h7.9v5.2h-7.9z"/></g></g><g clip-path="url(#bl)"><defs><path id="bq" d="M-265 34.4h2.1v1.4h-2.1z"/></defs><clipPath id="br"><use xlink:href="#bq" overflow="visible"/></clipPath><g clip-path="url(#br)"><defs><path id="bs" d="M-293.4 12.6h43.9v40.1h-43.9z"/></defs><clipPath id="bt"><use xlink:href="#bs" overflow="visible"/></clipPath><path clip-path="url(#bt)" fill="#0686D8" d="M-267 32.5h5.9v5.2h-5.9z"/></g></g><g clip-path="url(#bl)"><defs><path id="bu" d="M-268.4 34.4h2.1v1.4h-2.1z"/></defs><clipPath id="bv"><use xlink:href="#bu" overflow="visible"/></clipPath><g clip-path="url(#bv)"><defs><path id="bw" d="M-293.4 12.6h43.9v40.1h-43.9z"/></defs><clipPath id="bx"><use xlink:href="#bw" overflow="visible"/></clipPath><path clip-path="url(#bx)" fill="#0686D8" d="M-270.3 32.5h5.9v5.2h-5.9z"/></g></g><g clip-path="url(#bl)"><defs><path id="by" d="M-271.7 34.4h2.1v1.4h-2.1z"/></defs><clipPath id="bz"><use xlink:href="#by" overflow="visible"/></clipPath><g clip-path="url(#bz)"><defs><path id="bA" d="M-293.4 12.6h43.9v40.1h-43.9z"/></defs><clipPath id="bB"><use xlink:href="#bA" overflow="visible"/></clipPath><path clip-path="url(#bB)" fill="#0686D8" d="M-273.6 32.5h5.9v5.2h-5.9z"/></g></g><g clip-path="url(#bl)"><defs><path id="bC" d="M-275 34.4h2.1v1.4h-2.1z"/></defs><clipPath id="bD"><use xlink:href="#bC" overflow="visible"/></clipPath><g clip-path="url(#bD)"><defs><path id="bE" d="M-293.4 12.6h43.9v40.1h-43.9z"/></defs><clipPath id="bF"><use xlink:href="#bE" overflow="visible"/></clipPath><path clip-path="url(#bF)" fill="#0686D8" d="M-276.9 32.5h5.9v5.2h-5.9z"/></g></g><g clip-path="url(#bl)"><defs><path id="bG" d="M-278.3 34.4h2.1v1.4h-2.1z"/></defs><clipPath id="bH"><use xlink:href="#bG" overflow="visible"/></clipPath><g clip-path="url(#bH)"><defs><path id="bI" d="M-293.4 12.6h43.9v40.1h-43.9z"/></defs><clipPath id="bJ"><use xlink:href="#bI" overflow="visible"/></clipPath><path clip-path="url(#bJ)" fill="#0686D8" d="M-280.2 32.5h5.9v5.2h-5.9z"/></g></g></g></g><circle fill="#D2E9F7" cx="-186.3" cy="35" r="8.6"/><path fill="#0686D8" d="M-186.3 44.4v-1.5c4.3 0 7.8-3.5 7.8-7.8s-3.5-7.8-7.8-7.8v-1.5c5.2 0 9.3 4.2 9.3 9.3.1 5.1-4.1 9.3-9.3 9.3z"/><circle fill="#5FB0E5" cx="-180.6" cy="19.4" r=".8"/><circle fill="#5FB0E5" cx="-171.4" cy="24" r="1"/><circle fill="#5FB0E5" cx="-185.6" cy="12.5" r="1.1"/><circle fill="#5FB0E5" cx="-172.8" cy="14.2" r="1.7"/><path fill="#0686D8" d="M-180.509 25.558l2.067-3.541 1.295.756-2.067 3.541zm4.294 3.55l1.83-1.031.736 1.307-1.83 1.031zm-9.536-5.766l.295-2.079 1.485.211-.295 2.079zm.366 23.402l1.475-.271.379 2.066-1.475.271zm10.841-10.88l.024-1.5 4.1.065-.024 1.5zm-1.889 5.142l.861-1.228 1.556 1.091-.861 1.228zm-4.244 3.612l1.318-.716 1.956 3.603-1.318.716z"/><path fill="#9ECFEF" d="M-205 30.6h-.3c-.5 0-1-.4-1-3l-1-8c-.1-1.2.5-2.4 1.5-3.1.4-.3.8-.5.8-.5-3.1-1.9-2.4-4-2.4-4.3 1.5 2.2 9.6 1.2 14.3 1.9 1.1.2 2 1.1 2.1 2.2l.1.9c.9 0 1.7.7 1.7 1.7l-1.3 11.2c0 .5-.4 1-1 1h-13.5z"/><path fill="#0686D8" d="M-191.3 31.3h-14c-1.7 0-1.7-2.4-1.7-3.7l-1-7.9c-.2-1.5.5-2.9 1.7-3.7-2-1.7-2-3.4-1.8-4.4l.2-.7 1 .2.2.2c.8 1.1 4.7 1.2 7.9 1.3 2 0 4.1.1 5.8.3 1.4.2 2.6 1.4 2.8 2.8v.3c1 .3 1.7 1.2 1.7 2.3l-1.3 11.3c.2 1-.6 1.7-1.5 1.7zm-15.2-18.1c.3.8.9 1.5 2 2.2l1 .6-1 .6s-.4.3-.8.5c-.8.5-1.3 1.4-1.2 2.3l1 8c0 2 .3 2.3.3 2.3h14c.1 0 .2-.1.2-.2l1.3-11.3c0-.4-.4-.8-.9-.8h-.7l-.2-1.5c-.1-.8-.7-1.4-1.5-1.5-1.6-.2-3.6-.3-5.6-.3-3.3-.1-6.1-.1-7.9-.9z"/><path fill="#fff" d="M-188.2 27.2c0 .6-.5 1.1-1.1 1.1-.6 0-1.1-.5-1.1-1.1v-1c0-.6.5-1.1 1.1-1.1.6 0 1.1.5 1.1 1.1v1z"/><path fill="#0686D8" d="M-189.2 29c-1 0-1.8-.8-1.8-1.8v-1c0-1 .8-1.8 1.8-1.8s1.8.8 1.8 1.8v1c0 1-.8 1.8-1.8 1.8zm0-3.2c-.2 0-.3.1-.3.3v1c0 .2.1.3.3.3.2 0 .3-.1.3-.3v-1c0-.1-.1-.3-.3-.3z"/><path fill="#fff" d="M-206.2 27.2c0 .6-.5 1.1-1.1 1.1-.6 0-1.1-.5-1.1-1.1v-1c0-.6.5-1.1 1.1-1.1.6 0 1.1.5 1.1 1.1v1z"/><path fill="#0686D8" d="M-207.3 29c-1 0-1.8-.8-1.8-1.8v-1c0-1 .8-1.8 1.8-1.8s1.8.8 1.8 1.8v1c0 1-.8 1.8-1.8 1.8zm0-3.2c-.2 0-.3.1-.3.3v1c0 .2.1.3.3.3.2 0 .3-.1.3-.3v-1c0-.1-.1-.3-.3-.3z"/><path fill="#5FB0E5" d="M-186.7 53.8v-7c0-5.4-5.1-9.8-11.4-9.8-6.3 0-11.4 4.4-11.4 9.8v7h22.8z"/><path fill="#0686D8" d="M-186 53.8h-1.5v-7c0-5-4.8-9-10.6-9-5.9 0-10.6 4-10.6 9v7h-1.5v-7c0-5.8 5.4-10.5 12.1-10.5 6.7 0 12.1 4.7 12.1 10.5v7zm-17.8-7.7h1.5v7.7h-1.5zm10 0h1.5v7.7h-1.5z"/><path fill="#fff" d="M-198.5 41c-1.2 0-2.1-1-2.1-2.1v-4.9c0-1 .8-1.8 1.8-1.8h.6c1 0 1.8.8 1.8 1.8v4.8c0 1.2-.9 2.2-2.1 2.2z"/><path fill="#0686D8" d="M-198.5 41.7c-1.6 0-2.9-1.3-2.9-2.9v-4.8c0-1.4 1.2-2.6 2.6-2.6h.6c1.4 0 2.6 1.2 2.6 2.6v4.8c0 1.6-1.3 2.9-2.9 2.9zm-.3-8.8c-.6 0-1.1.5-1.1 1.1v4.8c0 .8.6 1.4 1.4 1.4.8 0 1.4-.6 1.4-1.4v-4.8c0-.6-.5-1.1-1.1-1.1h-.6z"/><path fill="#fff" d="M-198.3 36.8c-4.5 0-8.1-3.6-8.1-8.1v-5.5c0-4.5 3.6-4.4 8.1-4.4s8.1-.1 8.1 4.4v5.5c0 4.4-3.7 8.1-8.1 8.1z"/><path fill="#0686D8" d="M-198.3 37.5c-4.9 0-8.9-4-8.9-8.9v-5.5c0-2.3.9-3.8 2.8-4.5 1.5-.6 3.6-.6 5.8-.6h.6c2.2 0 4.3 0 5.8.6 1.9.7 2.8 2.2 2.8 4.5v5.5c-.1 4.9-4.1 8.9-8.9 8.9zm-.6-17.9c-1.9 0-3.8 0-5 .5-.9.3-1.8 1-1.8 3.1v5.5c0 4.1 3.3 7.4 7.4 7.4 4.1 0 7.4-3.3 7.4-7.4v-5.5c0-2.1-.9-2.8-1.8-3.1-1.3-.5-3.2-.5-5.3-.5h-.9z"/><path stroke="#0686D8" stroke-width="2" stroke-miterlimit="10" d="M-186 30.2v9.8m4.9-4.9h-9.8" fill="none"/><circle fill="#5FB0E5" cx="-114.1" cy="14.3" r=".7"/><circle fill="#5FB0E5" cx="-128.5" cy="16.5" r=".5"/><circle fill="#5FB0E5" cx="-105.6" cy="16" r=".5"/><circle fill="#5FB0E5" cx="-120.8" cy="13.2" r=".9"/><circle fill="#5FB0E5" cx="-107.4" cy="11.5" r="1.1"/><path fill="#0686D8" d="M-123.6 32.4c-11.4-2.7-9.9-11.6-9.9-11.7l.1-.6h7.7v1.5h-6.4c-.1 1.9.4 7.3 8.8 9.4l-.3 1.4zm20.4 0l-.3-1.5c8.4-2 8.9-7.5 8.8-9.4h-6.4v-1.5h7.7l.1.6c0 .2 1.5 9.1-9.9 11.8z"/><path fill="#D2E9F7" d="M-101 22.6c0-1.8-.3-3.5-.8-5.1h-23.2c-.5 1.6-.8 3.3-.8 5.1 0 7.4 4.8 14.7 11 15.7v9.9h2.8v-9.9c6.2-.9 11-8.3 11-15.7z"/><path fill="#fff" d="M-114.1 38.4c-5.7-1.5-7-8.7-7-15.7 0-1.8.3-3.5.8-5.1h-2.8c-.5 1.6-.8 3.3-.8 5.1 0 7.4 2.9 14.7 9.1 15.7 0 0 .4.1.7 0z"/><path fill="#0686D8" d="M-119 16.8h2.3v1.5h-2.3zm7.8 32.2h-4.3v-10c-6.1-1.4-11-8.6-11-16.3 0-1.8.3-3.6.9-5.3l.2-.5h4.4v1.5h-3.3c-.4 1.4-.6 2.9-.6 4.3 0 7.2 4.7 14.1 10.3 15l.6.1v9.7h1.3v-9.7l.6-.1c5.6-.9 10.3-7.8 10.3-15 0-1.5-.2-2.9-.6-4.3h-12.9v-1.5h14l.2.5c.6 1.7.9 3.5.9 5.3 0 7.8-4.9 14.9-11 16.3v10zm-5-8.3h5.8v1.5h-5.8zm0 2.2h5.8v1.5h-5.8z"/><path fill="#9ECFEF" d="M-106.2 53.6h-14.4v-5.3c0-.6.5-1.1 1.1-1.1h12.3c.6 0 1.1.5 1.1 1.1v5.3z"/><path fill="#0686D8" d="M-105.5 54.3h-15.9v-6.1c0-1 .8-1.8 1.8-1.8h12.3c1 0 1.8.8 1.8 1.8v6.1zm-14.4-1.5h12.9v-4.6c0-.2-.2-.3-.3-.3h-12.3c-.2 0-.3.2-.3.3v4.6z"/><path fill="#fff" d="M-117.3 48.3h7.8v3.1h-7.8z"/><path fill="#0686D8" d="M-115.3 49.1h3.6v1.5h-3.6zm-8.1 3.7h19.6v1.5h-19.6z"/><circle fill="#5FB0E5" cx="-24.3" cy="27" r=".8"/><circle fill="#5FB0E5" cx="-31.1" cy="13.5" r="1"/><circle fill="#5FB0E5" cx="-22.9" cy="16.2" r="1.1"/><circle fill="#5FB0E5" cx="-17.8" cy="22.6" r="1.7"/><path fill="#fff" d="M-46.7 17.2l-7.2 7.2v25c0 1.1.9 2 2 2h21.4c1.1 0 2-.9 2-2v-30.1c0-1.1-.9-2-2-2h-16.2z"/><path fill="#5FB0E5" d="M-46.7 24.4v-7.2l-7.2 7.2z"/><path fill="#0686D8" d="M-47.5 25.2h-6.4v-1.5h6.4v-6.4h1.5v6.4c0 .8-.6 1.5-1.5 1.5zm9.7 27h-14.1c-1.5 0-2.7-1.2-2.7-2.7v-25.4l7.6-7.6h16.7c1.5 0 2.7 1.2 2.7 2.7v9.5h-1.5v-9.5c0-.7-.5-1.2-1.2-1.2h-16l-6.7 6.7v24.8c0 .7.5 1.2 1.2 1.2h14.1v1.5zM-40.2 30.9h-4.3v-1.5h4.3c.5 0 .8-.4.8-.8s-.4-.8-.8-.8h-1.8c-1.3 0-2.3-1-2.3-2.3s1-2.3 2.3-2.3h4.1v1.5h-4.1c-.5 0-.8.4-.8.8s.4.8.8.8h1.7c1.3 0 2.3 1 2.3 2.3.1 1.2-1 2.3-2.2 2.3zm-1.7-9.7h1.5v11.6h-1.5zM-50.5 34.1h13.8v1.5h-13.8zm0 4.1h13.8v1.5h-13.8zm0 4.1h13.8v1.5h-13.8zm0 4h13.8v1.5h-13.8z"/><path fill="#9ECFEF" d="M-19.1 51.4h-15c-.6 0-1.1-.5-1.1-1.1v-18.7c0-.6.5-1.1 1.1-1.1h15c.6 0 1.1.5 1.1 1.1v18.8c0 .5-.5 1-1.1 1z"/><path fill="#0686D8" d="M-19.1 52.2h-16.9v-20.6c0-1 .8-1.9 1.9-1.9h15c1 0 1.9.8 1.9 1.9v18.8c-.1 1-.9 1.8-1.9 1.8zm-15.4-1.5h15.3c.2 0 .4-.2.4-.4v-18.7c0-.2-.2-.4-.4-.4h-15c-.2 0-.4.2-.4.4v19.1z"/><path fill="#D2E9F7" d="M-32 33.7h10.7v3.6h-10.7z"/><path d="M-32 40.3h1.6v1.5h-1.6zm3.1 0h1.6v1.5h-1.6zm3 0h1.6v1.5h-1.6zm3 0h1.6v1.5h-1.6zM-32 43.2h1.6v1.5h-1.6zm3.1 0h1.6v1.5h-1.6zm3 0h1.6v1.5h-1.6zm3 0h1.6v1.5h-1.6zM-32 46h1.6v1.5h-1.6zm3.1 0h1.6v1.5h-1.6zm3 0h1.6v1.5h-1.6zm3 0h1.6v1.5h-1.6z" fill="#0686D8"/><circle fill="#fff" cx="46.6" cy="16.3" r=".9"/><circle fill="#fff" cx="32" cy="12.1" r=".5"/><circle fill="#fff" cx="40.8" cy="9.5" r="1.3"/><circle fill="#fff" cx="37.5" cy="17" r=".7"/><path fill="#fff" d="M42.4 47h1.5v1.5h-1.5zm-12.9 0h5.3v1.5h-5.3zm-7.6 1.5h-1.7l-6.9-21.6-7.5-.6.1-1.5 8.5.7 6.9 21.5h.6zm-6.6-18.9h33.1v1.5h-33.1zm1.2 3.7h30.1v1.5h-30.1zm.8 3.7h28.4v1.5h-28.4z"/><circle fill="#D2E9F7" cx="25.7" cy="47.7" r="2.7"/><circle fill="#D2E9F7" cx="38.5" cy="47.7" r="2.7"/><path fill="#fff" d="M25.7 51.1c-1.9 0-3.4-1.5-3.4-3.4s1.5-3.4 3.4-3.4 3.4 1.5 3.4 3.4c.1 1.9-1.5 3.4-3.4 3.4zm0-5.3c-1.1 0-1.9.9-1.9 1.9 0 1.1.9 1.9 1.9 1.9 1.1 0 1.9-.9 1.9-1.9.1-1-.8-1.9-1.9-1.9zm12.8 5.3c-1.9 0-3.4-1.5-3.4-3.4s1.5-3.4 3.4-3.4 3.4 1.5 3.4 3.4-1.5 3.4-3.4 3.4zm0-5.3c-1.1 0-1.9.9-1.9 1.9 0 1.1.9 1.9 1.9 1.9 1.1 0 1.9-.9 1.9-1.9 0-1-.8-1.9-1.9-1.9zm6.4-3.3h-26v-1.5h25l4.1-12.9 1.4.4zm-20.1 4.5h2v1.5h-2zm12.7 0h2v1.5h-2z"/><path fill="#9ECFEF" d="M29.5 28.7h-12.9v-13.7c0-.8.7-1.5 1.5-1.5h9.9c.8 0 1.5.7 1.5 1.5v13.7z"/><path fill="#fff" d="M17.3 28.7h-1.5v-13.7c0-1.2 1-2.2 2.2-2.2h10c1.2 0 2.2 1 2.2 2.2v3.7h-1.5v-3.7c0-.4-.3-.7-.7-.7h-9.9c-.4 0-.7.3-.7.7v13.7z"/><path fill="#D2E9F7" d="M45.5 28.7h-17.9v-6.7c0-.8.7-1.5 1.5-1.5h14.9c.8 0 1.5.7 1.5 1.5v6.7z"/><path fill="#fff" d="M46.2 28.7h-1.5v-6.7c0-.4-.3-.7-.7-.7h-14.9c-.4 0-.7.3-.7.7v6.7h-1.5v-6.7c0-1.2 1-2.2 2.2-2.2h14.9c1.2 0 2.2 1 2.2 2.2v6.7zm-16.9-5.5h5.6v1.5h-5.6zm0 3h2.8v1.5h-2.8z"/></svg>