<?xml version="1.0" encoding="utf-8"?>
<!-- Generator: Adobe Illustrator 17.0.0, SVG Export Plug-In . SVG Version: 6.00 Build 0)  -->
<!DOCTYPE svg PUBLIC "-//W3C//DTD SVG 1.1//EN" "http://www.w3.org/Graphics/SVG/1.1/DTD/svg11.dtd">
<svg version="1.1" id="Layer_1" xmlns="http://www.w3.org/2000/svg" xmlns:xlink="http://www.w3.org/1999/xlink" x="0px" y="0px"
	 width="288px" height="216px" viewBox="0 0 288 216" enable-background="new 0 0 288 216" xml:space="preserve">
<g id="Gjf5Ig.tif_1_">
	<g>
		
			<path fill="#C6EAFB" stroke="#171C28" stroke-width="5" stroke-linecap="round" stroke-linejoin="round" stroke-miterlimit="10" d="
			M129.15,187.363c-8.1-2.7-14.85-7.425-17.55-15.863c-0.338-0.675-2.363-1.35-3.713-1.35c-14.513,0-29.363,0-43.875,0
			c-1.35,0-3.038,0-4.725,0c0-3.375,0-6.413,0-9.45c6.075-0.675,11.138-2.7,15.188-7.762c3.037-3.712,4.387-8.1,4.387-13.163
			c0-13.5,0-26.663,0-40.162c0-25.313,14.175-45.225,38.475-53.325c0.338,0,0.675-0.338,1.012-0.675
			c1.35-11.138,6.412-16.875,15.188-16.875c8.438,0,13.837,5.737,15.188,16.875c12.15,3.713,22.275,10.8,29.7,21.6
			c6.075,9.113,9.45,18.9,9.45,30.037c0,13.5,0,27,0,40.5c0,13.163,6.075,20.587,19.238,22.613c0,3.038,0,6.075,0,9.45
			c-1.688,0-3.038,0-4.725,0c-14.512,0-29.363,0-43.875,0c-2.363,0-3.712,0.337-4.387,3.038c-2.7,8.1-9.113,12.15-16.875,14.512
			C136.913,187.363,131.512,188.375,129.15,187.363z M138.262,43.588c-0.675-3.375-2.363-5.063-5.4-5.063
			c-2.7,0.338-4.387,1.688-4.387,5.063C131.512,43.588,134.55,43.588,138.262,43.588z"/>
	</g>
</g>
<path fill="#FFFFFF" stroke="#171C28" stroke-width="5" stroke-linecap="round" stroke-linejoin="round" stroke-miterlimit="10" d="
	M122.063,170.15c2.7,5.4,7.087,7.762,12.15,7.425c4.725-0.337,8.1-2.7,10.463-7.425C136.575,170.15,129.488,170.15,122.063,170.15z"
	/>
<g>
	
		<path fill="#0D3178" stroke="#171C28" stroke-width="5" stroke-linecap="round" stroke-linejoin="round" stroke-miterlimit="10" d="
		M203.063,141.462c10.125,0,18.563,8.438,18.563,18.563s-8.1,18.563-18.563,18.563c-10.125,0-18.563-8.438-18.225-18.563
		C184.5,149.9,192.938,141.462,203.063,141.462z"/>
	<path fill="#171C28" d="M174.375,159.012c0-0.337,0-0.337,0-0.675c0-0.337,0-0.337-0.337-0.337
		c-0.337-0.337-1.012-0.337-1.35-0.675l-0.337-0.337c-1.012-1.012-2.025-2.025-2.7-2.7c-0.337-0.337-0.675-0.675-1.012-1.012
		c-0.337-1.012-0.337-2.025,0-3.038c0.675-1.688,1.012-3.375,1.688-4.725c1.012-3.038,4.387-4.387,7.425-3.375
		c0.675,0.337,1.35,0.675,2.025,0.675c0.337,0,0.337,0,0.337,0c1.012-1.35,2.363-2.7,3.712-4.05c0.337-0.337,0.337-0.337,0-0.675
		c-0.337-0.675-0.675-1.35-1.012-2.363c-1.012-2.025-0.337-5.063,1.35-6.413c0.675-0.337,1.012-0.675,1.688-1.012
		c1.35-0.675,2.7-1.35,4.05-2.025c2.363-1.012,4.387-0.675,6.413,1.012c0.675,0.675,1.012,1.35,1.35,2.025
		c0.337,0.675,0.675,1.012,0.675,1.688c0,0.337,0.337,0.337,0.675,0.337c0.337,0,1.012,0,1.35,0h0.337
		c0.337,0.337,0.337,0.337,0.675,0.675c0.337,0.337,0.675,0.675,1.35,1.012c0.337,0.337,0.675,0.675,1.012,1.012H203.4
		c-0.675,0-1.35,0-1.688,0c-1.35,0-3.038,0.337-4.387,0.675c-0.337,0-0.337,0-0.337-0.337c-0.338-0.675-0.675-1.35-1.013-2.025
		c-0.337-0.675-0.675-1.688-1.012-2.363c-0.675-1.35-2.363-1.688-3.375-1.35c-1.35,0.675-3.037,1.35-4.387,2.025
		c-1.35,0.675-2.025,2.363-1.35,3.712c0,0.337,0.338,0.675,0.338,1.012c0.675,1.012,1.012,2.363,1.688,3.375l0,0
		c-2.363,2.025-4.725,4.05-6.413,6.75c0,0.337-0.337,0.337-0.337,0c-1.35-0.675-3.038-1.012-4.387-1.688
		c-1.35-0.675-3.038,0.337-3.713,1.688c-0.675,1.688-1.012,3.038-1.688,4.725c-0.675,1.35,0.338,3.038,1.688,3.712
		c0.675,0.337,1.012,0.337,1.688,0.675c1.012,0.337,2.025,0.675,3.038,1.012c0,1.012-0.337,2.025-0.337,3.038
		c-0.337,0.337-1.012,1.012-1.35,1.35l0,0C175.387,160.025,174.712,159.688,174.375,159.012z"/>
	<path fill="#171C28" d="M175.725,160.7L175.725,160.7c0.337,0,0.337,0.337,0.337,0.337c0.337,0.337,0.675,0.675,1.012,1.012v0.337
		c0,1.012,0.337,2.025,0.337,3.038c0,0.337,0,0.675-0.337,0.675c-1.35,0.675-3.038,1.35-4.387,2.025
		c-1.012,0.675-1.688,2.025-1.35,3.375c0.675,1.688,1.35,3.038,2.025,4.725c0.675,1.012,1.688,1.688,2.7,1.35
		c0.675,0,1.012-0.337,1.688-0.675c1.35-0.675,2.363-1.012,3.712-1.688c0,0,0,0.337,0.337,0.337c0.675,0.675,1.35,1.688,2.025,2.363
		c1.35,1.35,3.038,2.7,4.725,3.712c0.337,0,0.337,0.337,0.337,0.337c-0.675,1.35-1.012,3.038-1.688,4.387
		c-0.675,1.35,0,3.038,1.35,3.712c1.688,0.675,3.038,1.35,4.725,1.688c1.35,0.337,3.038-0.337,3.375-1.688
		c0-0.337,0.337-0.675,0.337-1.012c0.337-1.35,1.012-2.363,1.35-3.712c0.337,0,1.012,0,1.35,0c0.337,0,0.337,0,0.675,0
		c0.337,0.337,0.675,0.675,1.012,1.012s0.675,0.675,1.35,1.012l0,0c-0.337,0.337-0.675,0.337-0.675,0.675c-0.337,0-0.675,0-1.012,0
		s-0.337,0-0.337,0.337c-0.337,0.675-0.337,1.35-0.675,2.025c-0.675,1.688-2.025,3.038-3.712,3.712
		c-1.35,0.337-2.7,0.337-4.05-0.337c-1.35-0.675-2.7-1.012-4.05-1.688c-3.038-1.012-4.387-4.387-3.375-7.425
		c0.337-0.675,0.675-1.688,1.012-2.363c0-0.337,0-0.337,0-0.337c-1.35-1.012-2.7-2.363-4.05-3.712c0-0.337-0.337-0.337-0.675,0
		c-0.675,0.337-1.688,0.675-2.363,1.012c-2.025,1.012-4.725,0.337-6.413-1.35c-0.337-0.675-1.012-1.012-1.35-1.688
		c-0.675-1.35-1.35-3.038-2.025-4.387c-1.35-3.038,0-6.075,3.038-7.425c0.675-0.337,1.35-0.675,2.025-1.012
		c0.337,0,0.337-0.337,0.337-0.337c0-0.337,0-0.675,0-1.35c0-0.337,0-0.337,0-0.675C174.712,161.375,175.387,161.038,175.725,160.7z
		"/>
	<path fill="#171C28" d="M204.075,134.038c-0.337-0.337-0.675-0.675-1.012-1.012c0.675-0.675,1.35-1.35,1.688-1.688l0,0
		c0,0,0.337,0,0.337-0.337c0.337-0.337,1.012-1.012,1.35-1.35c1.35-1.35,3.038-3.038,4.387-4.387c0.675,0,1.35,0,1.688,0.337
		c1.688,0.675,3.375,1.012,4.725,1.688c3.038,1.012,4.387,4.387,3.375,7.425c-0.337,0.675-0.675,1.35-0.675,2.363
		c0,0.337,0,0.337,0,0.337c1.35,1.012,2.7,2.363,4.05,3.712c0.337,0.337,0.337,0.337,0.675,0c0.675-0.337,1.35-0.675,2.363-1.012
		c2.025-1.012,5.063-0.337,6.413,1.35c0.337,0.337,0.675,1.012,1.012,1.688c0.675,1.35,1.35,3.038,2.025,4.387
		c1.35,3.038,0,6.075-3.038,7.425c-0.675,0.337-1.688,0.675-2.363,1.012c0,1.012,0,1.688,0.337,2.363c0,0.337,0,0.675,0,1.012
		c-0.337,0.337-0.675,0.675-1.012,1.35l0,0l-0.337-0.337c-0.337-0.337-1.012-0.675-1.35-1.35c0,0,0,0,0-0.337
		c-0.337-1.35-0.337-2.7-0.675-4.05c0-0.337,0-0.337,0.337-0.337c1.35-0.675,3.038-1.35,4.387-2.025
		c1.35-0.675,1.688-2.025,1.35-3.375c-0.675-1.688-1.35-3.038-2.025-4.725c-0.675-1.012-1.688-1.688-3.038-1.35
		c-1.012,0.337-1.688,0.675-2.7,1.012s-1.688,0.675-2.7,1.012c0,0,0-0.337-0.337-0.337c-0.675-0.675-1.35-1.688-2.363-2.363
		c-1.35-1.35-2.7-2.7-4.387-3.712c0,0-0.337,0-0.337-0.337c0.675-1.35,1.012-3.038,1.688-4.387c0.675-1.35,0-3.038-1.35-3.712
		c-1.688-0.675-3.038-1.35-4.725-1.688c-1.35-0.338-3.038,0.337-3.712,1.688c-0.675,1.35-1.012,2.7-1.688,4.05
		c0,0.337-0.337,0.337-0.675,0.337c-0.337,0-0.675,0-1.012,0C205.087,134.375,204.75,134.375,204.075,134.038z"/>
	<path fill="#171C28" d="M230.4,160.363C230.738,160.363,230.738,160.363,230.4,160.363c0.337,0.337,0.675,0.675,1.012,1.012
		c0,0.337,0.337,0.337,0.675,0.675c0.337,0.337,0.675,0.675,0.675,0.675c1.012,1.012,1.688,2.025,2.7,2.7
		c0.675,0.675,1.35,1.35,2.025,2.025c0.337,0.675,0,1.35-0.337,2.025c-0.675,1.688-1.012,3.038-1.688,4.725
		c-1.012,2.7-3.038,4.05-5.738,4.05c-1.012,0-2.025-0.337-3.038-0.675c-0.337,0-0.675-0.337-1.012-0.337
		c-0.337,0.337-0.675,0.675-1.012,1.012c-1.012,1.012-2.025,2.025-3.038,3.038c-0.337,0.337-0.337,0.337,0,0.675
		c0.337,0.675,0.675,1.35,1.012,2.363c1.012,2.025,0.337,5.063-1.35,6.413c-0.675,0.337-1.012,0.675-1.688,1.012
		c-1.35,0.675-2.7,1.35-4.05,2.025c-2.363,1.012-4.387,0.675-6.413-1.012c-1.012-0.675-1.35-1.688-1.688-2.7
		c-0.337-0.337-0.337-0.675-0.675-1.35c0-0.337-0.337-0.337-0.337-0.337c-0.675,0-1.688,0.337-2.363,0.337h-0.337
		c-0.337-0.337-0.675-0.337-0.675-0.675l0,0c0.675-0.675,1.35-1.35,2.025-2.025c0.337,0,0.675,0,1.012-0.337
		c0.675,0,1.688-0.337,2.363-0.337c0,0,0,0.337,0.337,0.337c0.675,1.35,1.35,3.038,2.025,4.387c0.675,1.012,2.025,1.688,3.375,1.35
		c1.688-0.675,3.038-1.35,4.725-2.025c1.35-0.675,1.688-2.025,1.35-3.375c0-0.337-0.337-0.675-0.337-0.675
		c-0.675-1.35-1.012-2.7-1.688-3.712c0.337-0.337,1.012-0.675,1.35-1.012c2.025-1.688,3.712-3.712,5.063-5.738
		c0.337-0.337,0.337-0.337,0.675-0.337c1.35,0.675,2.7,1.012,4.387,1.688c1.35,0.337,3.038,0,3.375-1.35
		c0.675-1.688,1.35-3.038,1.688-4.725c0.337-1.35-0.337-3.038-1.688-3.375c-1.012-0.337-2.025-0.675-2.7-1.012
		s-1.35-0.337-2.025-0.675c0-0.675,0-1.012,0.337-1.688C229.387,161.712,230.063,161.038,230.4,160.363z"/>
	<path fill="#171C28" d="M211.163,124.925c-1.35,1.35-3.038,3.038-4.387,4.387c-0.337,0.337-1.012,1.012-1.35,1.35L205.088,131
		c0.675-2.025,1.012-3.712,2.7-5.063C208.8,125.6,209.813,125.262,211.163,124.925L211.163,124.925z"/>
	<path fill="#171C28" d="M237.825,167.788c-0.675-0.675-1.35-1.35-2.025-2.025c-1.012-1.012-1.688-2.025-2.7-2.7
		c-0.337-0.337-0.675-0.675-0.675-0.675c1.688,0.675,3.712,1.012,4.725,2.7C237.488,165.762,237.825,166.775,237.825,167.788
		C238.163,167.788,238.163,167.788,237.825,167.788z"/>
	<path fill="#171C28" d="M168.3,153.275c0.337,0.337,0.675,0.675,1.012,1.012c1.012,1.012,2.025,2.025,2.7,2.7l0.337,0.337
		c-0.337,0-0.675,0-0.675-0.337C169.988,156.313,168.975,155.3,168.3,153.275L168.3,153.275z"/>
	<path fill="#171C28" d="M205.087,131.337c-0.675,0.675-1.35,1.35-1.688,1.688c-0.337-0.337-0.675-0.675-1.35-1.012
		c-0.337-0.337-0.337-0.337-0.675-0.675l0,0C202.725,131.337,203.738,131.337,205.087,131.337z"/>
	<path fill="#171C28" d="M175.725,160.7c-0.337,0.337-1.012,1.012-1.35,1.35l0,0c0-1.012,0-1.688,0-2.7
		C174.712,159.688,175.387,160.025,175.725,160.7z"/>
	<path fill="#171C28" d="M231.75,161.712c-0.337-0.337-0.675-0.675-1.012-1.012c0.337-0.337,0.675-0.675,1.012-1.35
		c0,0.337,0,0.675,0,1.012C231.75,160.363,231.75,161.038,231.75,161.712C231.75,161.375,231.75,161.375,231.75,161.712z"/>
	<path fill="#171C28" d="M203.4,188.038c0.337,0.337,0.675,0.337,0.675,0.675c-0.675,0-1.012,0-1.688,0
		C202.725,188.375,203.063,188.375,203.4,188.038z"/>
	<path fill="#FFFFFF" d="M228.712,162.387c0,0.675,0,1.012-0.337,1.688c0.675,0.337,1.35,0.337,2.025,0.675
		c1.012,0.337,2.025,0.675,2.7,1.012c1.35,0.675,2.025,2.025,1.688,3.375c-0.675,1.688-1.012,3.038-1.688,4.725
		c-0.675,1.35-2.025,2.025-3.375,1.35c-1.35-0.675-2.7-1.012-4.387-1.688c-0.337,0-0.337,0-0.675,0.337
		c-1.35,2.025-3.038,4.05-5.063,5.738c-0.337,0.337-1.012,0.675-1.35,1.012c0.675,1.35,1.012,2.7,1.688,3.712
		c0,0.337,0.337,0.675,0.337,0.675c0.675,1.35,0,2.7-1.35,3.375c-1.688,0.675-3.038,1.35-4.725,2.025c-1.012,0.337-2.7,0-3.375-1.35
		s-1.35-2.7-2.025-4.387c0,0,0-0.337-0.337-0.337c-0.675,0-1.688,0.337-2.363,0.337c-0.337,0-0.675,0-1.012,0.337l0,0
		c-1.35,0-2.7,0-4.05,0H200.7c-0.337,0-0.337,0-0.675,0c-0.337,0-0.675,0-1.35,0c-0.337,1.35-1.012,2.363-1.35,3.712
		c0,0.337-0.337,0.675-0.337,1.012c-0.675,1.35-2.025,2.025-3.375,1.688c-1.688-0.675-3.038-1.012-4.725-1.688
		c-1.35-0.675-2.025-2.363-1.35-3.712c0.675-1.35,1.012-3.038,1.688-4.387c0-0.337,0-0.337-0.337-0.337
		c-1.688-1.012-3.375-2.363-4.725-3.712c-0.675-0.675-1.35-1.688-2.025-2.363c0,0,0,0-0.337-0.337
		c-1.35,0.675-2.363,1.012-3.712,1.688c-0.337,0.337-1.012,0.337-1.688,0.675c-1.35,0.337-2.363-0.337-2.7-1.35
		c-0.675-1.688-1.35-3.038-2.025-4.725c-0.675-1.012,0-2.7,1.35-3.375s2.7-1.35,4.387-2.025c0.337,0,0.337-0.337,0.337-0.675
		c-0.337-1.012-0.337-2.025-0.337-3.038v-0.337l0,0c0-1.012,0-1.688,0-2.7s0.337-2.025,0.337-3.038
		c-1.012-0.337-2.025-0.675-3.038-1.012c-0.675-0.337-1.012-0.337-1.688-0.675c-1.35-0.675-2.363-2.025-1.688-3.712
		s1.012-3.038,1.688-4.725c0.675-1.35,2.363-2.025,3.712-1.688c1.35,0.675,3.038,1.012,4.387,1.688c0.337,0,0.337,0,0.337,0
		c1.688-2.7,3.712-5.063,6.413-6.75l0,0c-0.675-1.012-1.012-2.363-1.688-3.375c0-0.337-0.337-0.675-0.337-1.012
		c-0.675-1.35,0-3.038,1.35-3.712c1.35-0.675,3.038-1.35,4.387-2.025c1.35-0.675,2.7,0,3.375,1.35
		c0.337,0.675,0.675,1.688,1.012,2.363s0.675,1.35,1.012,2.025c0,0.337,0.337,0.337,0.337,0.337c1.35-0.337,3.038-0.337,4.387-0.675
		c0.675,0,1.35,0,1.688,0h0.337c0.337,0,1.012,0,1.35,0.337c0.337,0,0.675,0,1.012,0s0.675,0,0.675-0.337
		c0.337-1.35,1.012-2.7,1.688-4.05s2.025-2.025,3.712-1.688c1.688,0.675,3.038,1.012,4.725,1.688c1.35,0.675,2.025,2.363,1.35,3.712
		c-0.675,1.35-1.012,3.038-1.688,4.387c0,0.337,0,0.337,0.337,0.337c1.688,1.012,3.038,2.363,4.387,3.712
		c0.675,0.675,1.35,1.688,2.363,2.363c0,0,0,0.337,0.337,0.337c1.012-0.337,1.688-0.675,2.7-1.012s1.688-0.675,2.7-1.012
		c1.35-0.337,2.363,0.337,3.038,1.35c0.675,1.688,1.35,3.038,2.025,4.725c0.675,1.35,0,2.7-1.35,3.375
		c-1.35,0.675-3.038,1.35-4.387,2.025c-0.338,0-0.338,0.337-0.338,0.337c0.338,1.35,0.338,2.7,0.675,4.05c0,0,0,0,0,0.337
		c0,0.675,0,1.688,0,2.363C228.712,161.375,228.712,161.712,228.712,162.387z M203.063,141.462c-10.125,0-18.563,8.1-18.563,18.563
		c0,10.125,8.438,18.563,18.225,18.563c10.125,0,18.563-8.1,18.563-18.563C221.625,149.9,213.188,141.462,203.063,141.462z"/>
	<path fill="#171C28" d="M177.413,159.012c0,1.012,0,1.688,0,2.7l0,0c-0.337-0.337-0.675-0.675-1.012-1.012l-0.337-0.337
		C176.4,160.025,176.738,159.688,177.413,159.012z"/>
	<path fill="#171C28" d="M201.038,185.675C201.038,185.675,201.375,185.675,201.038,185.675c1.688,0,3.038,0,4.387,0l0,0
		c-0.675,0.675-1.35,1.35-2.025,2.025c-0.337-0.337-0.675-0.675-1.35-1.012C201.712,186.35,201.375,186.012,201.038,185.675z"/>
	<path fill="#171C28" d="M228.712,162.387c0-0.337,0-0.675,0-1.012c0-0.675,0-1.688,0-2.363c0.337,0.337,1.012,0.675,1.35,1.35
		l0.337,0.337C230.063,161.038,229.387,161.712,228.712,162.387z"/>
	<path fill="#171C28" d="M203.063,141.462c10.125,0,18.563,8.438,18.563,18.563s-8.1,18.563-18.563,18.563
		c-10.125,0-18.563-8.438-18.225-18.563C184.5,149.9,192.938,141.462,203.063,141.462z M203.063,144.5
		c-8.438,0-15.525,7.087-15.525,15.525s7.087,15.525,15.525,15.525s15.525-6.75,15.525-15.525
		C218.587,151.587,211.5,144.5,203.063,144.5z"/>
</g>
<path fill-rule="evenodd" clip-rule="evenodd" fill="#1E2D33" d="M180.3,192.772l-0.084,0.305c-0.02,0.073-0.51,1.81-1.645,2.941
	c-1.138,1.135-2.835,1.573-2.907,1.591l-0.3,0.076l-11.121-12.965l-3.894,0.833l-3.476-3.485l0.932-4.444l0.504-0.503l3.394,3.403
	l0.012-0.012l1.446-1.442l0.01-0.01l-3.394-3.403l0.502-0.501l4.448-0.922l3.476,3.485l-0.84,3.904L180.3,192.772z M167.111,178.043
	l-2.722-2.729l-0.006,0.006l-2.917,0.613l-0.001,0.001l3.12,3.128l-2.884,2.877l-3.113-3.121l-0.014-0.001l-0.613,2.937l0.006-0.005
	l2.706,2.713l0.002-0.002l3.94-0.842l11.097,12.938c0.496-0.17,1.484-0.579,2.153-1.246c0.666-0.665,1.101-1.686,1.289-2.201
	l-12.897-11.128L167.111,178.043z M177.439,194.835c-0.444,0.443-1.161,0.441-1.602-0.001c-0.443-0.444-0.442-1.161,0.002-1.604
	c0.442-0.441,1.161-0.441,1.604,0.002C177.884,193.675,177.882,194.394,177.439,194.835z"/>
</svg>
