<?xml version="1.0" encoding="utf-8"?>
<!-- Generator: Adobe Illustrator 23.0.1, SVG Export Plug-In . SVG Version: 6.00 Build 0)  -->
<svg version="1.1" id="Layer_1" xmlns="http://www.w3.org/2000/svg" xmlns:xlink="http://www.w3.org/1999/xlink" x="0px" y="0px"
	 viewBox="0 0 64 64" style="enable-background:new 0 0 64 64;" xml:space="preserve">
<style type="text/css">
	.Drop_x0020_Shadow{fill:none;}
	.Outer_x0020_Glow_x0020_5_x0020_pt{fill:none;}
	.Blue_x0020_Neon{fill:none;stroke:#8AACDA;stroke-width:7;stroke-linecap:round;stroke-linejoin:round;}
	.Chrome_x0020_Highlight{fill:url(#SVGID_1_);stroke:#FFFFFF;stroke-width:0.3629;stroke-miterlimit:1;}
	.Jive_GS{fill:#FFDD00;}
	.Alyssa_GS{fill:#A6D0E4;}
	.st0{fill:#FFFFFF;stroke:#171C28;stroke-linecap:round;stroke-linejoin:round;stroke-miterlimit:10;}
	.st1{fill:#FFFFFF;}
	.st2{fill:#171C28;}
	.st3{fill:none;stroke:#4C5C68;stroke-width:0.9106;stroke-miterlimit:10;}
	.st4{fill:none;stroke:#171C28;stroke-linecap:round;stroke-linejoin:round;stroke-miterlimit:10;}
	.st5{fill:none;stroke:#4C5C68;stroke-width:1.0828;stroke-linecap:round;stroke-linejoin:round;stroke-miterlimit:10;}
	.st6{fill:none;stroke:#4C5C68;stroke-width:1.1103;stroke-linecap:round;stroke-linejoin:round;stroke-miterlimit:10;}
	.st7{fill:#C74634;stroke:#171C28;stroke-linecap:round;stroke-linejoin:round;stroke-miterlimit:10;}
	.st8{fill:#C74634;}
	.st9{fill:#FFFFFF;stroke:#171C28;stroke-width:0.9273;stroke-linecap:round;stroke-linejoin:round;stroke-miterlimit:10;}
	.st10{fill:#4C5C68;}
	.st11{fill:#FFFFFF;stroke:#171C28;stroke-width:0.9403;stroke-linecap:round;stroke-linejoin:round;stroke-miterlimit:10;}
	.st12{fill:none;stroke:#4C5C68;stroke-linecap:round;stroke-linejoin:round;stroke-miterlimit:10;}
	.st13{fill:#CEE8FA;}
	.st14{fill:#CEE8FA;stroke:#4C5C68;stroke-linecap:round;stroke-linejoin:round;stroke-miterlimit:10;}
	.st15{fill:#F9CA38;stroke:#4C5C68;stroke-linecap:round;stroke-linejoin:round;stroke-miterlimit:10;}
	.st16{fill:#FFFFFF;stroke:#4C5C68;stroke-linecap:round;stroke-linejoin:round;stroke-miterlimit:10;}
	.st17{fill:#FFFFFF;stroke:#FEBD2E;stroke-linecap:round;stroke-linejoin:round;stroke-miterlimit:10;}
	.st18{fill:#FEBD2E;stroke:#4C5C68;stroke-linecap:round;stroke-linejoin:round;stroke-miterlimit:10;}
	.st19{fill:#286090;}
	.st20{fill:#F9CA38;}
	.st21{fill:#FFFFFF;stroke:#4C5C68;stroke-width:1.2173;stroke-linecap:round;stroke-linejoin:round;stroke-miterlimit:10;}
	.st22{fill:#FFFFFF;stroke:#4C5C68;stroke-width:0.8881;stroke-linecap:round;stroke-linejoin:round;stroke-miterlimit:10;}
	.st23{fill:none;stroke:#CEE8FA;stroke-width:1.0985;stroke-linecap:round;stroke-linejoin:round;stroke-miterlimit:10;}
	.st24{opacity:0.6;fill:#286090;}
	.st25{fill:none;stroke:#4C5C68;stroke-width:1.0254;stroke-linecap:round;stroke-linejoin:round;stroke-miterlimit:10;}
	.st26{fill:#FFFFFF;stroke:#4C5C68;stroke-miterlimit:10;}
	.st27{fill:none;stroke:#286090;stroke-linecap:round;stroke-linejoin:round;stroke-miterlimit:10;stroke-dasharray:0,2;}
	.st28{fill:none;stroke:#286090;stroke-linecap:round;stroke-linejoin:round;stroke-miterlimit:10;}
	.st29{fill:#FEBD2E;}
	.st30{fill:none;stroke:#CEE8FA;stroke-linecap:round;stroke-linejoin:round;stroke-miterlimit:10;}
	.st31{fill:#FFFFFF;stroke:#171C28;stroke-miterlimit:10;}
	.st32{fill:#FFFFFF;stroke:#171C28;stroke-width:1.0268;stroke-linecap:round;stroke-linejoin:round;stroke-miterlimit:10;}
	.st33{fill:none;stroke:#171C28;stroke-width:1.0268;stroke-linecap:round;stroke-linejoin:round;stroke-miterlimit:10;}
	.st34{fill:#6B6B6B;}
	.st35{fill:none;stroke:#FFFFFF;stroke-width:1.0985;stroke-linecap:round;stroke-linejoin:round;stroke-miterlimit:10;}
	.st36{fill:#FFFFFF;stroke:#171C28;stroke-width:1.0688;stroke-linecap:round;stroke-linejoin:round;stroke-miterlimit:10;}
	.st37{fill:none;stroke:#4C5C68;stroke-width:1.1073;stroke-linecap:round;stroke-linejoin:round;stroke-miterlimit:10;}
	.st38{fill:none;stroke:#4C5C68;stroke-width:1.0096;stroke-linecap:round;stroke-linejoin:round;stroke-miterlimit:10;}
	.st39{fill:#FFFFFF;stroke:#171C28;stroke-width:1.1331;stroke-linecap:round;stroke-linejoin:round;stroke-miterlimit:10;}
	.st40{fill:none;stroke:#171C28;stroke-linecap:round;stroke-linejoin:round;stroke-miterlimit:10;stroke-dasharray:0,2;}
	.st41{fill:none;stroke:#BC0110;stroke-linecap:round;stroke-linejoin:round;stroke-miterlimit:10;}
	.st42{fill:none;stroke:#333333;stroke-width:2;stroke-linecap:round;stroke-linejoin:round;stroke-miterlimit:10;}
	.st43{fill:#FFFFFF;stroke:#171C28;stroke-width:1.211;stroke-linecap:round;stroke-linejoin:round;stroke-miterlimit:10;}
	.st44{fill:#171C28;stroke:#000000;stroke-width:0.2;stroke-linecap:round;stroke-linejoin:round;stroke-miterlimit:10;}
	.st45{fill:#FFFFFF;stroke:#4C5C68;stroke-width:0.9531;stroke-linecap:round;stroke-linejoin:round;stroke-miterlimit:10;}
	.st46{fill:#5FB0E5;}
	.st47{fill:#D2E9F7;}
	.st48{fill:#0686D8;}
	.st49{fill:#9ECFEF;}
	.st50{fill:none;stroke:#4C5C68;stroke-miterlimit:10;}
	.st51{fill:#4C5C68;stroke:#4C5C68;stroke-width:0.4;stroke-linecap:round;stroke-linejoin:round;stroke-miterlimit:10;}
	.st52{fill:#FED65C;}
	.st53{fill:none;stroke:#FFFFFF;stroke-linecap:round;stroke-linejoin:round;stroke-miterlimit:10;}
	.st54{fill:#EBF0F2;}
	.st55{fill:#B8D1CD;}
	.st56{fill:#DCEAE7;}
	.st57{fill:#EFB19E;}
	.st58{fill:#CCED9F;}
	.st59{fill:#A4EDE6;}
	.st60{fill:#111416;}
	.st61{fill:#567771;}
	.st62{fill:#FACC40;}
	.st63{fill:#FFF380;}
	.st64{fill:#E2932B;}
	.st65{fill:#78A09A;}
	.st66{fill:#253330;}
	.st67{fill:#FFFFFF;stroke:#4C5C68;stroke-width:1.1677;stroke-linecap:round;stroke-linejoin:round;stroke-miterlimit:10;}
	.st68{fill:#FFFFFF;stroke:#4C5C68;stroke-width:1.1657;stroke-linecap:round;stroke-linejoin:round;stroke-miterlimit:10;}
	.st69{fill:#FFFFFF;stroke:#171C28;stroke-width:0.9983;stroke-linecap:round;stroke-linejoin:round;stroke-miterlimit:10;}
	.st70{fill:#FFFFFF;stroke:#171C28;stroke-width:1.0727;stroke-linecap:round;stroke-linejoin:round;stroke-miterlimit:10;}
	.st71{fill:#C74634;stroke:#FFFFFF;stroke-linecap:round;stroke-linejoin:round;stroke-miterlimit:10;}
	.st72{fill:#CEE8FA;stroke:#4C5C68;stroke-width:0.965;stroke-linecap:round;stroke-linejoin:round;stroke-miterlimit:10;}
	.st73{fill:#41464B;}
	.st74{fill:#FFFFFF;stroke:#171C28;stroke-width:1.1013;stroke-linecap:round;stroke-linejoin:round;stroke-miterlimit:10;}
	.st75{fill:none;stroke:#171C28;stroke-width:1.1013;stroke-linecap:round;stroke-linejoin:round;stroke-miterlimit:10;}
	.st76{fill:#C74634;stroke:#171C28;stroke-width:1.1013;stroke-linecap:round;stroke-linejoin:round;stroke-miterlimit:10;}
	.st77{stroke:#171C28;stroke-linecap:round;stroke-linejoin:round;stroke-miterlimit:10;}
	.st78{fill:#FFFFFF;stroke:#171C28;stroke-width:0.9891;stroke-linecap:round;stroke-linejoin:round;stroke-miterlimit:10;}
	.st79{fill:none;stroke:#171C28;stroke-width:0.5274;stroke-linecap:round;stroke-linejoin:round;stroke-miterlimit:10;}
	.st80{fill:none;stroke:#4C5C68;stroke-width:1.1135;stroke-linecap:round;stroke-linejoin:round;stroke-miterlimit:10;}
	.st81{fill:#F9CA38;stroke:#4C5C68;stroke-width:1.1723;stroke-miterlimit:10;}
	.st82{fill:none;stroke:#4C5C68;stroke-width:1.0796;stroke-linecap:round;stroke-linejoin:round;stroke-miterlimit:10;}
	.st83{fill:none;stroke:#4C5C68;stroke-width:1.136;stroke-linecap:round;stroke-linejoin:round;stroke-miterlimit:10;}
	.st84{fill:#FFFFFF;stroke:#4C5C68;stroke-width:1.0796;stroke-linecap:round;stroke-linejoin:round;stroke-miterlimit:10;}
	.st85{fill:#007395;}
	.st86{fill:#FFFFFF;stroke:#171C28;stroke-width:0.8477;stroke-linecap:round;stroke-linejoin:round;stroke-miterlimit:10;}
	.st87{fill:#FFFFFF;stroke:#171C28;stroke-width:1.0138;stroke-linecap:round;stroke-linejoin:round;stroke-miterlimit:10;}
	.st88{fill:#FFFFFF;stroke:#171C28;stroke-width:0.9779;stroke-linecap:round;stroke-linejoin:round;stroke-miterlimit:10;}
	.st89{fill:none;stroke:#595959;stroke-width:1.6811;stroke-linecap:round;stroke-linejoin:round;}
	.st90{fill:none;stroke:#595959;stroke-width:1.6811;stroke-miterlimit:10;}
</style>
<linearGradient id="SVGID_1_" gradientUnits="userSpaceOnUse" x1="-433" y1="-684" x2="-433" y2="-685">
	<stop  offset="0" style="stop-color:#656565"/>
	<stop  offset="0.618" style="stop-color:#1B1B1B"/>
	<stop  offset="0.6292" style="stop-color:#545454"/>
	<stop  offset="0.9831" style="stop-color:#3E3E3E"/>
</linearGradient>
<g id="Gjf5Ig.tif_1_">
	<g>
		<path class="st0" d="M27.6,56.7c-2.4-0.8-4.4-2.2-5.2-4.7c-0.1-0.2-0.7-0.4-1.1-0.4c-4.3,0-8.7,0-13,0c-0.4,0-0.9,0-1.4,0
			c0-1,0-1.9,0-2.8c1.8-0.2,3.3-0.8,4.5-2.3c0.9-1.1,1.3-2.4,1.3-3.9c0-4,0-7.9,0-11.9c0-7.5,4.2-13.4,11.4-15.8
			c0.1,0,0.2-0.1,0.3-0.2c0.4-3.3,1.9-5,4.5-5c2.5,0,4.1,1.7,4.5,5c3.6,1.1,6.6,3.2,8.8,6.4c1.8,2.7,2.8,5.6,2.8,8.9c0,4,0,8,0,12
			c0,3.9,1.8,6.1,5.7,6.7c0,0.9,0,1.8,0,2.8c-0.5,0-0.9,0-1.4,0c-4.3,0-8.7,0-13,0c-0.7,0-1.1,0.1-1.3,0.9c-0.8,2.4-2.7,3.6-5,4.3
			C29.9,56.7,28.3,57,27.6,56.7z M30.3,14.1c-0.2-1-0.7-1.5-1.6-1.5c-0.8,0.1-1.3,0.5-1.3,1.5C28.3,14.1,29.2,14.1,30.3,14.1z"/>
	</g>
</g>
<path class="st0" d="M25.5,51.6c0.8,1.6,2.1,2.3,3.6,2.2c1.4-0.1,2.4-0.8,3.1-2.2C29.8,51.6,27.7,51.6,25.5,51.6z"/>
<g>
	<path class="st7" d="M49.5,43.1c3,0,5.5,2.5,5.5,5.5c0,3-2.4,5.5-5.5,5.5c-3,0-5.5-2.5-5.4-5.5C44,45.6,46.5,43.1,49.5,43.1z"/>
	<path class="st2" d="M41,48.3c0-0.1,0-0.1,0-0.2c0-0.1,0-0.1-0.1-0.1c-0.1-0.1-0.3-0.1-0.4-0.2c0,0-0.1-0.1-0.1-0.1
		c-0.3-0.3-0.6-0.6-0.8-0.8c-0.1-0.1-0.2-0.2-0.3-0.3c-0.1-0.3-0.1-0.6,0-0.9c0.2-0.5,0.3-1,0.5-1.4c0.3-0.9,1.3-1.3,2.2-1
		c0.2,0.1,0.4,0.2,0.6,0.2c0.1,0,0.1,0,0.1,0c0.3-0.4,0.7-0.8,1.1-1.2c0.1-0.1,0.1-0.1,0-0.2c-0.1-0.2-0.2-0.4-0.3-0.7
		c-0.3-0.6-0.1-1.5,0.4-1.9c0.2-0.1,0.3-0.2,0.5-0.3c0.4-0.2,0.8-0.4,1.2-0.6c0.7-0.3,1.3-0.2,1.9,0.3c0.2,0.2,0.3,0.4,0.4,0.6
		c0.1,0.2,0.2,0.3,0.2,0.5c0,0.1,0.1,0.1,0.2,0.1c0.1,0,0.3,0,0.4,0c0,0,0.1,0,0.1,0c0.1,0.1,0.1,0.1,0.2,0.2
		c0.1,0.1,0.2,0.2,0.4,0.3c0.1,0.1,0.2,0.2,0.3,0.3c0,0-0.1,0-0.1,0c-0.2,0-0.4,0-0.5,0c-0.4,0-0.9,0.1-1.3,0.2
		c-0.1,0-0.1,0-0.1-0.1c-0.1-0.2-0.2-0.4-0.3-0.6c-0.1-0.2-0.2-0.5-0.3-0.7c-0.2-0.4-0.7-0.5-1-0.4c-0.4,0.2-0.9,0.4-1.3,0.6
		c-0.4,0.2-0.6,0.7-0.4,1.1c0,0.1,0.1,0.2,0.1,0.3c0.2,0.3,0.3,0.7,0.5,1c0,0,0,0,0,0c-0.7,0.6-1.4,1.2-1.9,2c0,0.1-0.1,0.1-0.1,0
		c-0.4-0.2-0.9-0.3-1.3-0.5c-0.4-0.2-0.9,0.1-1.1,0.5c-0.2,0.5-0.3,0.9-0.5,1.4c-0.2,0.4,0.1,0.9,0.5,1.1c0.2,0.1,0.3,0.1,0.5,0.2
		c0.3,0.1,0.6,0.2,0.9,0.3c0,0.3-0.1,0.6-0.1,0.9c-0.1,0.1-0.3,0.3-0.4,0.4c0,0,0,0,0,0C41.3,48.6,41.1,48.5,41,48.3z"/>
	<path class="st2" d="M41.4,48.8C41.4,48.8,41.4,48.8,41.4,48.8c0.1,0,0.1,0.1,0.1,0.1c0.1,0.1,0.2,0.2,0.3,0.3c0,0,0,0.1,0,0.1
		c0,0.3,0.1,0.6,0.1,0.9c0,0.1,0,0.2-0.1,0.2c-0.4,0.2-0.9,0.4-1.3,0.6c-0.3,0.2-0.5,0.6-0.4,1c0.2,0.5,0.4,0.9,0.6,1.4
		c0.2,0.3,0.5,0.5,0.8,0.4c0.2,0,0.3-0.1,0.5-0.2c0.4-0.2,0.7-0.3,1.1-0.5c0,0,0,0.1,0.1,0.1c0.2,0.2,0.4,0.5,0.6,0.7
		c0.4,0.4,0.9,0.8,1.4,1.1c0.1,0,0.1,0.1,0.1,0.1c-0.2,0.4-0.3,0.9-0.5,1.3c-0.2,0.4,0,0.9,0.4,1.1c0.5,0.2,0.9,0.4,1.4,0.5
		c0.4,0.1,0.9-0.1,1-0.5c0-0.1,0.1-0.2,0.1-0.3c0.1-0.4,0.3-0.7,0.4-1.1c0.1,0,0.3,0,0.4,0c0.1,0,0.1,0,0.2,0
		c0.1,0.1,0.2,0.2,0.3,0.3c0.1,0.1,0.2,0.2,0.4,0.3c0,0,0,0,0,0c-0.1,0.1-0.2,0.1-0.2,0.2c-0.1,0-0.2,0-0.3,0c-0.1,0-0.1,0-0.1,0.1
		c-0.1,0.2-0.1,0.4-0.2,0.6c-0.2,0.5-0.6,0.9-1.1,1.1c-0.4,0.1-0.8,0.1-1.2-0.1c-0.4-0.2-0.8-0.3-1.2-0.5c-0.9-0.3-1.3-1.3-1-2.2
		c0.1-0.2,0.2-0.5,0.3-0.7c0-0.1,0-0.1,0-0.1c-0.4-0.3-0.8-0.7-1.2-1.1c0-0.1-0.1-0.1-0.2,0c-0.2,0.1-0.5,0.2-0.7,0.3
		c-0.6,0.3-1.4,0.1-1.9-0.4c-0.1-0.2-0.3-0.3-0.4-0.5c-0.2-0.4-0.4-0.9-0.6-1.3c-0.4-0.9,0-1.8,0.9-2.2c0.2-0.1,0.4-0.2,0.6-0.3
		c0.1,0,0.1-0.1,0.1-0.1c0-0.1,0-0.2,0-0.4c0-0.1,0-0.1,0-0.2C41.1,49,41.3,48.9,41.4,48.8z"/>
	<path class="st2" d="M49.8,40.9c-0.1-0.1-0.2-0.2-0.3-0.3c0.2-0.2,0.4-0.4,0.5-0.5c0,0,0,0,0,0c0,0,0.1,0,0.1-0.1
		c0.1-0.1,0.3-0.3,0.4-0.4c0.4-0.4,0.9-0.9,1.3-1.3c0.2,0,0.4,0,0.5,0.1c0.5,0.2,1,0.3,1.4,0.5c0.9,0.3,1.3,1.3,1,2.2
		c-0.1,0.2-0.2,0.4-0.2,0.7c0,0.1,0,0.1,0,0.1c0.4,0.3,0.8,0.7,1.2,1.1c0.1,0.1,0.1,0.1,0.2,0c0.2-0.1,0.4-0.2,0.7-0.3
		c0.6-0.3,1.5-0.1,1.9,0.4c0.1,0.1,0.2,0.3,0.3,0.5c0.2,0.4,0.4,0.9,0.6,1.3c0.4,0.9,0,1.8-0.9,2.2c-0.2,0.1-0.5,0.2-0.7,0.3
		c0,0.3,0,0.5,0.1,0.7c0,0.1,0,0.2,0,0.3c-0.1,0.1-0.2,0.2-0.3,0.4c0,0,0,0,0,0c0,0-0.1-0.1-0.1-0.1c-0.1-0.1-0.3-0.2-0.4-0.4
		c0,0,0,0,0-0.1c-0.1-0.4-0.1-0.8-0.2-1.2c0-0.1,0-0.1,0.1-0.1c0.4-0.2,0.9-0.4,1.3-0.6c0.4-0.2,0.5-0.6,0.4-1
		c-0.2-0.5-0.4-0.9-0.6-1.4c-0.2-0.3-0.5-0.5-0.9-0.4c-0.3,0.1-0.5,0.2-0.8,0.3c-0.3,0.1-0.5,0.2-0.8,0.3c0,0,0-0.1-0.1-0.1
		c-0.2-0.2-0.4-0.5-0.7-0.7c-0.4-0.4-0.8-0.8-1.3-1.1c0,0-0.1,0-0.1-0.1c0.2-0.4,0.3-0.9,0.5-1.3c0.2-0.4,0-0.9-0.4-1.1
		c-0.5-0.2-0.9-0.4-1.4-0.5c-0.4-0.1-0.9,0.1-1.1,0.5c-0.2,0.4-0.3,0.8-0.5,1.2c0,0.1-0.1,0.1-0.2,0.1c-0.1,0-0.2,0-0.3,0
		C50.1,41,50,41,49.8,40.9z"/>
	<path class="st2" d="M57.6,48.7C57.7,48.7,57.7,48.7,57.6,48.7c0.1,0.1,0.2,0.2,0.3,0.3c0,0.1,0.1,0.1,0.2,0.2
		c0.1,0.1,0.2,0.2,0.2,0.2c0.3,0.3,0.5,0.6,0.8,0.8c0.2,0.2,0.4,0.4,0.6,0.6c0.1,0.2,0,0.4-0.1,0.6c-0.2,0.5-0.3,0.9-0.5,1.4
		c-0.3,0.8-0.9,1.2-1.7,1.2c-0.3,0-0.6-0.1-0.9-0.2c-0.1,0-0.2-0.1-0.3-0.1c-0.1,0.1-0.2,0.2-0.3,0.3c-0.3,0.3-0.6,0.6-0.9,0.9
		c-0.1,0.1-0.1,0.1,0,0.2c0.1,0.2,0.2,0.4,0.3,0.7c0.3,0.6,0.1,1.5-0.4,1.9c-0.2,0.1-0.3,0.2-0.5,0.3c-0.4,0.2-0.8,0.4-1.2,0.6
		c-0.7,0.3-1.3,0.2-1.9-0.3c-0.3-0.2-0.4-0.5-0.5-0.8c-0.1-0.1-0.1-0.2-0.2-0.4c0-0.1-0.1-0.1-0.1-0.1c-0.2,0-0.5,0.1-0.7,0.1
		c0,0-0.1,0-0.1,0c-0.1-0.1-0.2-0.1-0.2-0.2c0,0,0,0,0,0c0.2-0.2,0.4-0.4,0.6-0.6c0.1,0,0.2,0,0.3-0.1c0.2,0,0.5-0.1,0.7-0.1
		c0,0,0,0.1,0.1,0.1c0.2,0.4,0.4,0.9,0.6,1.3c0.2,0.3,0.6,0.5,1,0.4c0.5-0.2,0.9-0.4,1.4-0.6c0.4-0.2,0.5-0.6,0.4-1
		c0-0.1-0.1-0.2-0.1-0.2c-0.2-0.4-0.3-0.8-0.5-1.1c0.1-0.1,0.3-0.2,0.4-0.3c0.6-0.5,1.1-1.1,1.5-1.7c0.1-0.1,0.1-0.1,0.2-0.1
		c0.4,0.2,0.8,0.3,1.3,0.5c0.4,0.1,0.9,0,1-0.4c0.2-0.5,0.4-0.9,0.5-1.4c0.1-0.4-0.1-0.9-0.5-1c-0.3-0.1-0.6-0.2-0.8-0.3
		c-0.2-0.1-0.4-0.1-0.6-0.2c0-0.2,0-0.3,0.1-0.5C57.3,49.1,57.5,48.9,57.6,48.7z"/>
	<path class="st2" d="M51.9,38.2c-0.4,0.4-0.9,0.9-1.3,1.3c-0.1,0.1-0.3,0.3-0.4,0.4c0,0-0.1,0.1-0.1,0.1c0.2-0.6,0.3-1.1,0.8-1.5
		C51.2,38.4,51.5,38.3,51.9,38.2C51.9,38.2,51.9,38.2,51.9,38.2z"/>
	<path class="st2" d="M59.8,50.9c-0.2-0.2-0.4-0.4-0.6-0.6c-0.3-0.3-0.5-0.6-0.8-0.8c-0.1-0.1-0.2-0.2-0.2-0.2
		c0.5,0.2,1.1,0.3,1.4,0.8C59.7,50.3,59.8,50.6,59.8,50.9C59.9,50.9,59.9,50.9,59.8,50.9z"/>
	<path class="st2" d="M39.2,46.6c0.1,0.1,0.2,0.2,0.3,0.3c0.3,0.3,0.6,0.6,0.8,0.8c0,0,0.1,0.1,0.1,0.1c-0.1,0-0.2,0-0.2-0.1
		C39.7,47.5,39.4,47.2,39.2,46.6C39.2,46.6,39.2,46.6,39.2,46.6z"/>
	<path class="st2" d="M50.1,40.1c-0.2,0.2-0.4,0.4-0.5,0.5c-0.1-0.1-0.2-0.2-0.4-0.3c-0.1-0.1-0.1-0.1-0.2-0.2c0,0,0,0,0,0
		C49.4,40.1,49.7,40.1,50.1,40.1z"/>
	<path class="st2" d="M41.4,48.8c-0.1,0.1-0.3,0.3-0.4,0.4c0,0,0,0,0,0c0-0.3,0-0.5,0-0.8C41.1,48.5,41.3,48.6,41.4,48.8z"/>
	<path class="st2" d="M58,49.1c-0.1-0.1-0.2-0.2-0.3-0.3c0.1-0.1,0.2-0.2,0.3-0.4c0,0.1,0,0.2,0,0.3C58,48.7,58,48.9,58,49.1
		C58,49,58,49,58,49.1z"/>
	<path class="st2" d="M49.6,56.9c0.1,0.1,0.2,0.1,0.2,0.2c-0.2,0-0.3,0-0.5,0C49.4,57,49.5,57,49.6,56.9z"/>
	<path class="st1" d="M57.1,49.3c0,0.2,0,0.3-0.1,0.5c0.2,0.1,0.4,0.1,0.6,0.2c0.3,0.1,0.6,0.2,0.8,0.3c0.4,0.2,0.6,0.6,0.5,1
		c-0.2,0.5-0.3,0.9-0.5,1.4c-0.2,0.4-0.6,0.6-1,0.4c-0.4-0.2-0.8-0.3-1.3-0.5c-0.1,0-0.1,0-0.2,0.1c-0.4,0.6-0.9,1.2-1.5,1.7
		c-0.1,0.1-0.3,0.2-0.4,0.3c0.2,0.4,0.3,0.8,0.5,1.1c0,0.1,0.1,0.2,0.1,0.2c0.2,0.4,0,0.8-0.4,1c-0.5,0.2-0.9,0.4-1.4,0.6
		c-0.3,0.1-0.8,0-1-0.4c-0.2-0.4-0.4-0.8-0.6-1.3c0,0,0-0.1-0.1-0.1c-0.2,0-0.5,0.1-0.7,0.1c-0.1,0-0.2,0-0.3,0.1c0,0,0,0,0,0
		c-0.4,0-0.8,0-1.2,0c0,0-0.1,0-0.1,0c-0.1,0-0.1,0-0.2,0c-0.1,0-0.2,0-0.4,0c-0.1,0.4-0.3,0.7-0.4,1.1c0,0.1-0.1,0.2-0.1,0.3
		c-0.2,0.4-0.6,0.6-1,0.5c-0.5-0.2-0.9-0.3-1.4-0.5c-0.4-0.2-0.6-0.7-0.4-1.1c0.2-0.4,0.3-0.9,0.5-1.3c0-0.1,0-0.1-0.1-0.1
		c-0.5-0.3-1-0.7-1.4-1.1c-0.2-0.2-0.4-0.5-0.6-0.7c0,0,0,0-0.1-0.1c-0.4,0.2-0.7,0.3-1.1,0.5c-0.1,0.1-0.3,0.1-0.5,0.2
		c-0.4,0.1-0.7-0.1-0.8-0.4c-0.2-0.5-0.4-0.9-0.6-1.4c-0.2-0.3,0-0.8,0.4-1c0.4-0.2,0.8-0.4,1.3-0.6c0.1,0,0.1-0.1,0.1-0.2
		c-0.1-0.3-0.1-0.6-0.1-0.9c0,0,0-0.1,0-0.1c0,0,0,0,0,0c0-0.3,0-0.5,0-0.8c0-0.3,0.1-0.6,0.1-0.9c-0.3-0.1-0.6-0.2-0.9-0.3
		c-0.2-0.1-0.3-0.1-0.5-0.2c-0.4-0.2-0.7-0.6-0.5-1.1c0.2-0.5,0.3-0.9,0.5-1.4c0.2-0.4,0.7-0.6,1.1-0.5c0.4,0.2,0.9,0.3,1.3,0.5
		c0.1,0,0.1,0,0.1,0c0.5-0.8,1.1-1.5,1.9-2c0,0,0,0,0,0c-0.2-0.3-0.3-0.7-0.5-1c0-0.1-0.1-0.2-0.1-0.3c-0.2-0.4,0-0.9,0.4-1.1
		c0.4-0.2,0.9-0.4,1.3-0.6c0.4-0.2,0.8,0,1,0.4c0.1,0.2,0.2,0.5,0.3,0.7c0.1,0.2,0.2,0.4,0.3,0.6c0,0.1,0.1,0.1,0.1,0.1
		c0.4-0.1,0.9-0.1,1.3-0.2c0.2,0,0.4,0,0.5,0c0,0,0.1,0,0.1,0c0.1,0,0.3,0,0.4,0.1c0.1,0,0.2,0,0.3,0c0.1,0,0.2,0,0.2-0.1
		c0.1-0.4,0.3-0.8,0.5-1.2c0.2-0.4,0.6-0.6,1.1-0.5c0.5,0.2,0.9,0.3,1.4,0.5c0.4,0.2,0.6,0.7,0.4,1.1c-0.2,0.4-0.3,0.9-0.5,1.3
		c0,0.1,0,0.1,0.1,0.1c0.5,0.3,0.9,0.7,1.3,1.1c0.2,0.2,0.4,0.5,0.7,0.7c0,0,0,0.1,0.1,0.1c0.3-0.1,0.5-0.2,0.8-0.3
		c0.3-0.1,0.5-0.2,0.8-0.3c0.4-0.1,0.7,0.1,0.9,0.4c0.2,0.5,0.4,0.9,0.6,1.4c0.2,0.4,0,0.8-0.4,1c-0.4,0.2-0.9,0.4-1.3,0.6
		c-0.1,0-0.1,0.1-0.1,0.1c0.1,0.4,0.1,0.8,0.2,1.2c0,0,0,0,0,0.1c0,0.2,0,0.5,0,0.7C57.1,49,57.1,49.1,57.1,49.3z M49.5,43.1
		c-3,0-5.5,2.4-5.5,5.5c0,3,2.5,5.5,5.4,5.5c3,0,5.5-2.4,5.5-5.5C55,45.6,52.5,43.1,49.5,43.1z"/>
	<path class="st2" d="M41.9,48.3c0,0.3,0,0.5,0,0.8c0,0,0,0,0,0c-0.1-0.1-0.2-0.2-0.3-0.3c0,0-0.1-0.1-0.1-0.1
		C41.6,48.6,41.7,48.5,41.9,48.3z"/>
	<path class="st2" d="M48.9,56.2C48.9,56.2,49,56.2,48.9,56.2c0.5,0,0.9,0,1.3,0c0,0,0,0,0,0c-0.2,0.2-0.4,0.4-0.6,0.6
		c-0.1-0.1-0.2-0.2-0.4-0.3C49.1,56.4,49,56.3,48.9,56.2z"/>
	<path class="st2" d="M57.1,49.3c0-0.1,0-0.2,0-0.3c0-0.2,0-0.5,0-0.7c0.1,0.1,0.3,0.2,0.4,0.4c0,0,0.1,0.1,0.1,0.1
		C57.5,48.9,57.3,49.1,57.1,49.3z"/>
	<path class="st2" d="M49.5,43.1c3,0,5.5,2.5,5.5,5.5c0,3-2.4,5.5-5.5,5.5c-3,0-5.5-2.5-5.4-5.5C44,45.6,46.5,43.1,49.5,43.1z
		 M49.5,44c-2.5,0-4.6,2.1-4.6,4.6c0,2.5,2.1,4.6,4.6,4.6c2.5,0,4.6-2,4.6-4.6C54.1,46.1,52,44,49.5,44z"/>
</g>
</svg>
