<?xml version="1.0" encoding="utf-8"?>
<!-- Generator: Adobe Illustrator 17.0.0, SVG Export Plug-In . SVG Version: 6.00 Build 0)  -->
<!DOCTYPE svg PUBLIC "-//W3C//DTD SVG 1.1//EN" "http://www.w3.org/Graphics/SVG/1.1/DTD/svg11.dtd">
<svg version="1.1" id="Layer_1" xmlns="http://www.w3.org/2000/svg" xmlns:xlink="http://www.w3.org/1999/xlink" x="0px" y="0px"
	 width="288px" height="216px" viewBox="0 0 288 216" enable-background="new 0 0 288 216" xml:space="preserve">
<polyline id="XMLID_1559_" fill="#FFFFFF" stroke="#171C28" stroke-width="4" stroke-linecap="round" stroke-linejoin="round" stroke-miterlimit="10" points="
	194.962,61.762 194.962,196.762 72.45,196.762 72.45,18.563 158.85,18.563 "/>
<polyline id="XMLID_1558_" fill="#FFFFFF" stroke="#171C28" stroke-width="4" stroke-linecap="round" stroke-linejoin="round" stroke-miterlimit="10" points="
	203.063,68.85 203.063,196.762 80.887,196.762 80.887,67.5 80.887,45.225 80.887,28.013 167.288,28.013 "/>
<polyline id="XMLID_1557_" fill="#FFFFFF" points="212.512,77.625 212.512,199.462 91.012,199.462 91.012,184.95 91.012,159.3 
	91.012,38.813 176.738,38.813 "/>
<polyline id="XMLID_1556_" fill="#FFFFFF" stroke="#171C28" stroke-width="4" stroke-linecap="round" stroke-linejoin="round" stroke-miterlimit="10" points="
	89.325,156.938 89.325,37.463 175.725,37.463 "/>
<polyline id="XMLID_1555_" fill="#FFFFFF" stroke="#171C28" stroke-width="4" stroke-linecap="round" stroke-linejoin="round" stroke-miterlimit="10" points="
	187.875,196.762 89.325,196.762 89.325,182.25 "/>
<g id="XMLID_1547_">
	
		<ellipse id="XMLID_1554_" fill="#FFFFFF" stroke="#171C28" stroke-width="4" stroke-linecap="round" stroke-linejoin="round" stroke-miterlimit="10" cx="151.762" cy="91.8" rx="31.387" ry="31.387"/>
	<ellipse id="XMLID_1553_" fill="#0D3178" cx="151.762" cy="91.8" rx="24.637" ry="24.637"/>
	<g>
		<path fill="#FFFFFF" d="M140.168,79.381h2.784v10.399h0.096c0.576-0.832,1.152-1.6,1.696-2.304l6.591-8.095h3.456l-7.808,9.151
			l8.416,12.415h-3.296L145,90.356l-2.048,2.368v8.224h-2.784V79.381z"/>
		<path fill="#FFFFFF" d="M157.027,98.068c0.832,0.544,2.304,1.12,3.712,1.12c2.048,0,3.007-1.024,3.007-2.304
			c0-1.344-0.8-2.08-2.879-2.848c-2.784-0.992-4.096-2.528-4.096-4.384c0-2.496,2.016-4.543,5.343-4.543
			c1.568,0,2.944,0.448,3.809,0.96l-0.704,2.048c-0.608-0.384-1.729-0.896-3.168-0.896c-1.664,0-2.592,0.96-2.592,2.112
			c0,1.28,0.928,1.856,2.943,2.624c2.688,1.024,4.064,2.368,4.064,4.671c0,2.72-2.112,4.64-5.792,4.64
			c-1.696,0-3.264-0.416-4.352-1.056L157.027,98.068z"/>
	</g>
</g>
<polygon id="XMLID_1546_" fill="#ABE0F9" stroke="#171C28" stroke-width="4" stroke-linecap="round" stroke-linejoin="round" stroke-miterlimit="10" points="
	175.725,36.787 175.725,76.95 212.512,76.95 "/>
<line id="XMLID_1526_" fill="none" stroke="#171C28" stroke-width="4" stroke-linecap="round" stroke-linejoin="round" stroke-miterlimit="10" x1="108.225" y1="136.688" x2="165.262" y2="136.688"/>
<line id="XMLID_1525_" fill="none" stroke="#171C28" stroke-width="4" stroke-linecap="round" stroke-linejoin="round" stroke-miterlimit="10" x1="108.225" y1="152.212" x2="168.637" y2="152.212"/>
<line id="XMLID_1524_" fill="none" stroke="#171C28" stroke-width="4" stroke-linecap="round" stroke-linejoin="round" stroke-miterlimit="10" x1="109.575" y1="166.725" x2="175.725" y2="166.725"/>
<line id="XMLID_1348_" fill="none" stroke="#171C28" stroke-width="4" stroke-linecap="round" stroke-linejoin="round" stroke-miterlimit="10" x1="212.175" y1="102.262" x2="212.175" y2="76.95"/>
<path fill="#171C28" d="M231.413,165.712L217.575,148.5c-0.675-0.675-1.35-0.675-2.025-0.337l-1.688,1.35l-2.7-3.375
	c2.7-2.7,4.725-6.075,5.063-10.125c1.012-9.113-5.738-17.212-14.85-18.225s-17.212,5.738-18.225,14.85
	c-1.012,9.113,5.738,17.212,14.85,18.225c4.05,0.337,7.762-0.675,10.8-2.7l2.7,3.375l-1.35,1.012
	c-0.675,0.675-0.675,1.35-0.337,2.025l13.837,17.212c0.337,0.337,0.675,0.675,1.012,0.675l0,0c0.337,0,0.675,0,1.012-0.337
	l5.4-4.387C231.75,167.4,232.087,166.387,231.413,165.712z M198.337,147.825c-7.425-0.675-12.825-7.425-12.15-14.85
	s7.425-12.825,14.85-12.15s12.825,7.425,12.15,14.85S205.762,148.5,198.337,147.825z M225,168.75l-11.813-14.85l3.038-2.363
	l12.15,14.85L225,168.75z"/>
</svg>
