<?xml version="1.0" encoding="utf-8"?>
<!-- Generator: Adobe Illustrator 17.0.0, SVG Export Plug-In . SVG Version: 6.00 Build 0)  -->
<!DOCTYPE svg PUBLIC "-//W3C//DTD SVG 1.1//EN" "http://www.w3.org/Graphics/SVG/1.1/DTD/svg11.dtd">
<svg version="1.1" id="Layer_1" xmlns="http://www.w3.org/2000/svg" xmlns:xlink="http://www.w3.org/1999/xlink" x="0px" y="0px"
	 width="288px" height="216px" viewBox="0 0 288 216" enable-background="new 0 0 288 216" xml:space="preserve">
<path id="XMLID_1403_" fill="#FFFFFF" stroke="#171C28" stroke-width="4" stroke-linecap="round" stroke-linejoin="round" stroke-miterlimit="10" d="
	M182.813,24.3h-95.85c-8.438,0-15.188,6.75-15.188,15.188V170.1v12.15l4.05-3.375l3.713,3.375l3.375-3.375l3.037,3.375l3.713-3.375
	l3.713,3.375l3.713-3.375l3.375,3.375l3.375-3.375l4.05,3.375l3.037-3.375l3.713,3.375l3.037-3.375l3.037,3.375l3.037-3.375
	l3.375,3.375l3.375-3.375l3.375,3.375l3.375-3.375l3.375,3.375l3.712-3.375l3.712,3.375l3.712-3.375l3.375,3.375l3.375-3.375
	l3.375,3.375l3.375-3.375l3.375,3.375"/>
<line id="XMLID_1427_" fill="none" stroke="#171C28" stroke-width="4" stroke-linecap="round" stroke-linejoin="round" stroke-miterlimit="10" x1="174.712" y1="73.238" x2="174.712" y2="143.438"/>
<path id="XMLID_1426_" fill="none" stroke="#171C28" stroke-width="4" stroke-linecap="round" stroke-linejoin="round" stroke-miterlimit="10" d="
	M174.712,50.287V33.412c0-5.063,4.05-9.112,9.113-9.112l0,0c5.063,0,9.113,4.05,9.113,9.112v5.063v97.2"/>
<path id="XMLID_1402_" fill="none" stroke="#4C5C68" stroke-width="4" stroke-linecap="round" stroke-linejoin="round" stroke-miterlimit="10" d="
	M193.275,177.188c0,4.05,3.375,7.425,7.425,7.425"/>
<line id="XMLID_1401_" fill="none" stroke="#171C28" stroke-width="4" stroke-linecap="round" stroke-linejoin="round" stroke-miterlimit="10" x1="120.037" y1="48.263" x2="84.6" y2="48.263"/>
<line id="XMLID_115_" fill="none" stroke="#171C28" stroke-width="4" stroke-linecap="round" stroke-linejoin="round" stroke-miterlimit="10" x1="159.188" y1="111.375" x2="85.275" y2="111.375"/>
<line id="XMLID_114_" fill="none" stroke="#171C28" stroke-width="4" stroke-linecap="round" stroke-linejoin="round" stroke-miterlimit="10" x1="159.188" y1="124.2" x2="85.275" y2="124.2"/>
<line id="XMLID_113_" fill="none" stroke="#171C28" stroke-width="4" stroke-linecap="round" stroke-linejoin="round" stroke-miterlimit="10" x1="159.188" y1="137.025" x2="85.275" y2="137.025"/>
<line id="XMLID_112_" fill="none" stroke="#171C28" stroke-width="4" stroke-linecap="round" stroke-linejoin="round" stroke-miterlimit="10" x1="159.188" y1="149.85" x2="85.275" y2="149.85"/>
<line id="XMLID_111_" fill="none" stroke="#171C28" stroke-width="4" stroke-linecap="round" stroke-linejoin="round" stroke-miterlimit="10" x1="159.188" y1="162.675" x2="120.713" y2="162.675"/>
<line id="XMLID_110_" fill="none" stroke="#171C28" stroke-width="4" stroke-linecap="round" stroke-linejoin="round" stroke-miterlimit="10" x1="159.188" y1="61.088" x2="132.863" y2="61.088"/>
<line id="XMLID_109_" fill="none" stroke="#171C28" stroke-width="4" stroke-linecap="round" stroke-linejoin="round" stroke-miterlimit="10" x1="126.45" y1="61.088" x2="84.6" y2="61.088"/>
<rect id="XMLID_108_" x="84.575" y="74.23" fill="#0D3178" stroke="#171C28" stroke-width="4" stroke-linecap="round" stroke-linejoin="round" stroke-miterlimit="10" width="76.275" height="23.963"/>
<g id="XMLID_105_">
	
		<circle id="XMLID_107_" fill="#ABE0F9" stroke="#171C28" stroke-width="4" stroke-linecap="round" stroke-linejoin="round" stroke-miterlimit="10" cx="193.613" cy="166.725" r="22.95"/>
	
		<line id="XMLID_106_" fill="none" stroke="#171C28" stroke-width="4" stroke-linecap="round" stroke-linejoin="round" stroke-miterlimit="10" x1="205.425" y1="187.313" x2="216.225" y2="203.175"/>
</g>
</svg>
