<?xml version="1.0" encoding="utf-8"?>
<!-- Generator: Adobe Illustrator 17.0.0, SVG Export Plug-In . SVG Version: 6.00 Build 0)  -->
<!DOCTYPE svg PUBLIC "-//W3C//DTD SVG 1.1//EN" "http://www.w3.org/Graphics/SVG/1.1/DTD/svg11.dtd">
<svg version="1.1" id="Layer_1" xmlns="http://www.w3.org/2000/svg" xmlns:xlink="http://www.w3.org/1999/xlink" x="0px" y="0px"
	 width="288px" height="216px" viewBox="0 0 288 216" enable-background="new 0 0 288 216" xml:space="preserve">
<g>
	
		<line id="XMLID_1476_" fill="none" stroke="#171C28" stroke-width="4" stroke-linecap="round" stroke-linejoin="round" stroke-miterlimit="10" x1="174.712" y1="106.313" x2="174.712" y2="29.7"/>
	
		<path id="XMLID_1386_" fill="none" stroke="#171C28" stroke-width="4" stroke-linecap="round" stroke-linejoin="round" stroke-miterlimit="10" d="
		M157.5,186.637H87.975c-8.1,0-14.85-6.75-14.85-14.85V43.2c0-7.763,6.075-13.837,13.838-13.837H196.65"/>
	
		<path id="XMLID_1385_" fill="none" stroke="#171C28" stroke-width="4" stroke-linecap="round" stroke-linejoin="round" stroke-miterlimit="10" d="
		M192.938,102.938V36.112c0-4.05,3.375-7.425,7.425-7.425h1.688c4.387,0,7.762,3.375,7.762,7.763v69.863h-8.1"/>
	
		<line id="XMLID_1283_" fill="none" stroke="#171C28" stroke-width="4" stroke-linecap="round" stroke-linejoin="round" stroke-miterlimit="10" x1="87.3" y1="50.287" x2="122.063" y2="50.287"/>
	
		<line id="XMLID_1282_" fill="none" stroke="#171C28" stroke-width="4" stroke-linecap="round" stroke-linejoin="round" stroke-miterlimit="10" x1="87.3" y1="112.387" x2="160.2" y2="112.387"/>
	
		<line id="XMLID_1279_" fill="none" stroke="#171C28" stroke-width="4" stroke-linecap="round" stroke-linejoin="round" stroke-miterlimit="10" x1="87.3" y1="124.875" x2="151.762" y2="124.875"/>
	
		<line id="XMLID_1278_" fill="none" stroke="#171C28" stroke-width="4" stroke-linecap="round" stroke-linejoin="round" stroke-miterlimit="10" x1="87.3" y1="137.7" x2="141.975" y2="137.7"/>
	
		<line id="XMLID_1277_" fill="none" stroke="#171C28" stroke-width="4" stroke-linecap="round" stroke-linejoin="round" stroke-miterlimit="10" x1="87.3" y1="150.188" x2="134.887" y2="150.188"/>
	
		<line id="XMLID_1276_" fill="none" stroke="#171C28" stroke-width="4" stroke-linecap="round" stroke-linejoin="round" stroke-miterlimit="10" x1="87.3" y1="163.012" x2="125.1" y2="163.012"/>
	
		<line id="XMLID_1275_" fill="none" stroke="#171C28" stroke-width="4" stroke-linecap="round" stroke-linejoin="round" stroke-miterlimit="10" x1="87.3" y1="62.775" x2="113.287" y2="62.775"/>
	
		<line id="XMLID_1274_" fill="none" stroke="#171C28" stroke-width="4" stroke-linecap="round" stroke-linejoin="round" stroke-miterlimit="10" x1="119.7" y1="62.775" x2="160.875" y2="62.775"/>
	
		<rect id="XMLID_1273_" x="85.613" y="75.6" fill="#ABE0F9" stroke="#171C28" stroke-width="4" stroke-linecap="round" stroke-linejoin="round" stroke-miterlimit="10" width="75.262" height="23.625"/>
</g>
<g>
	
		<polygon fill="#FFFFFF" stroke="#171C28" stroke-width="4" stroke-linecap="round" stroke-linejoin="round" stroke-miterlimit="10" points="
		175.05,158.625 164.925,178.875 175.725,177.525 180.113,189 191.925,165.375 181.462,163.012 	"/>
	
		<polygon fill="#FFFFFF" stroke="#171C28" stroke-width="4" stroke-linecap="round" stroke-linejoin="round" stroke-miterlimit="10" points="
		194.288,165.375 206.1,189 210.825,177.525 221.288,178.875 211.163,158.625 204.075,162.675 	"/>
	
		<circle fill="#ABE0F9" stroke="#171C28" stroke-width="4" stroke-linecap="round" stroke-linejoin="round" stroke-miterlimit="10" cx="192.6" cy="138.375" r="27"/>
	<circle fill="#0D3178" cx="192.6" cy="138.375" r="13.5"/>
</g>
</svg>
