<?xml version="1.0" encoding="utf-8"?>
<!-- Generator: Adobe Illustrator 17.0.0, SVG Export Plug-In . SVG Version: 6.00 Build 0)  -->
<!DOCTYPE svg PUBLIC "-//W3C//DTD SVG 1.1//EN" "http://www.w3.org/Graphics/SVG/1.1/DTD/svg11.dtd">
<svg version="1.1" id="Layer_1" xmlns="http://www.w3.org/2000/svg" xmlns:xlink="http://www.w3.org/1999/xlink" x="0px" y="0px"
	 width="288px" height="216px" viewBox="0 0 288 216" enable-background="new 0 0 288 216" xml:space="preserve">
<g id="XMLID_1544_">
	
		<ellipse id="XMLID_1571_" fill="#FFFFFF" stroke="#171C28" stroke-width="2" stroke-linecap="round" stroke-linejoin="round" stroke-miterlimit="10" cx="119.025" cy="81" rx="53.662" ry="52.987"/>
	<ellipse id="XMLID_1570_" fill="#0D3178" cx="119.025" cy="81" rx="42.187" ry="41.85"/>
</g>
<g id="XMLID_1493_">
	<g id="XMLID_1_">
		<path id="XMLID_2_" fill="#FFFFFF" d="M119.637,57.175c1.35,0,2.7,1.012,2.7,2.7v1.35c3.375,0.337,6.413,1.688,9.113,3.375
			c1.012,0.675,1.688,1.35,1.688,2.7c0,1.688-1.35,3.375-3.375,3.375c-0.675,0-1.012-0.337-1.688-0.675
			c-2.025-1.35-4.05-2.025-6.075-2.7v11.475c9.113,2.363,12.825,5.738,12.825,12.15c0,6.413-5.063,10.8-12.488,11.475v3.375
			c0,1.35-1.012,2.7-2.7,2.7s-2.7-1.012-2.7-2.7v-3.712c-4.387-0.337-8.438-2.025-12.15-4.725c-1.012-0.675-1.688-1.688-1.688-2.7
			c0-1.688,1.35-3.375,3.375-3.375c0.675,0,1.35,0.337,2.025,0.675c2.7,2.025,5.4,3.375,8.775,4.05V84.513
			c-8.775-2.363-12.488-5.4-12.488-12.15c0-6.413,5.063-10.8,12.488-11.138v-1.35C116.938,58.525,117.95,57.175,119.637,57.175z
			 M117.275,77.425V66.963c-3.712,0.337-5.738,2.363-5.738,5.063C111.538,74.387,112.55,76.075,117.275,77.425z M121.663,85.525
			v10.8c3.712-0.337,5.738-2.363,5.738-5.063C127.738,88.563,126.387,86.875,121.663,85.525z"/>
	</g>
	
		<ellipse id="XMLID_1542_" fill="#FFFFFF" stroke="#171C28" stroke-width="2" stroke-linecap="round" stroke-linejoin="round" stroke-miterlimit="10" cx="168.975" cy="133.988" rx="53.663" ry="52.988"/>
	<ellipse id="XMLID_1522_" fill="#00984A" cx="168.975" cy="133.988" rx="42.188" ry="41.85"/>
</g>
<polyline id="XMLID_1491_" fill="none" stroke="#0D3178" stroke-width="2" stroke-linecap="round" stroke-linejoin="round" stroke-miterlimit="10" points="
	200.7,73.575 211.5,84.713 222.637,73.575 "/>
<g>
	<path fill="#FFFFFF" d="M146.597,112.135h5.106v19.072h0.175c1.057-1.527,2.114-2.934,3.111-4.226l12.09-14.847h6.338
		l-14.319,16.783l15.434,22.771h-6.045l-13.028-19.425l-3.756,4.343v15.082h-5.106V112.135z"/>
	<path fill="#FFFFFF" d="M177.525,146.407c1.525,0.999,4.224,2.054,6.807,2.054c3.756,0,5.516-1.877,5.516-4.226
		c0-2.464-1.467-3.814-5.281-5.223c-5.106-1.819-7.512-4.636-7.512-8.039c0-4.578,3.696-8.334,9.801-8.334
		c2.874,0,5.398,0.822,6.983,1.761l-1.29,3.756c-1.116-0.705-3.171-1.644-5.81-1.644c-3.053,0-4.755,1.761-4.755,3.873
		c0,2.349,1.702,3.404,5.4,4.813c4.93,1.877,7.452,4.343,7.452,8.569c0,4.988-3.873,8.509-10.621,8.509
		c-3.111,0-5.987-0.762-7.982-1.937L177.525,146.407z"/>
</g>
<circle fill="#0D3178" cx="211.498" cy="79.365" r="1.132"/>
<circle fill="#0D3178" cx="211.498" cy="75.641" r="1.132"/>
<circle fill="#0D3178" cx="211.498" cy="71.917" r="1.132"/>
<circle fill="#0D3178" cx="211.498" cy="68.193" r="1.132"/>
<circle fill="#0D3178" cx="211.498" cy="64.469" r="1.132"/>
<circle fill="#0D3178" cx="211.498" cy="60.745" r="1.132"/>
<circle fill="#0D3178" cx="211.498" cy="57.021" r="1.132"/>
<circle fill="#0D3178" cx="211.498" cy="53.297" r="1.132"/>
<circle fill="#0D3178" cx="211.498" cy="49.573" r="1.132"/>
<circle fill="#0D3178" cx="211.498" cy="45.522" r="1.132"/>
<circle fill="#0D3178" cx="211.498" cy="41.471" r="1.132"/>
<circle fill="#0D3178" cx="177.929" cy="39.573" r="1.132"/>
<circle fill="#0D3178" cx="181.653" cy="39.573" r="1.132"/>
<circle fill="#0D3178" cx="185.377" cy="39.573" r="1.132"/>
<circle fill="#0D3178" cx="189.101" cy="39.573" r="1.132"/>
<circle fill="#0D3178" cx="192.825" cy="39.573" r="1.132"/>
<circle fill="#0D3178" cx="196.549" cy="39.573" r="1.132"/>
<circle fill="#0D3178" cx="200.273" cy="39.573" r="1.132"/>
<circle fill="#0D3178" cx="203.997" cy="39.573" r="1.132"/>
<circle fill="#0D3178" cx="207.721" cy="39.573" r="1.132"/>
<polyline id="XMLID_3_" fill="none" stroke="#00984A" stroke-width="2" stroke-linecap="round" stroke-linejoin="round" stroke-miterlimit="10" points="
	81.487,146.056 70.687,134.919 59.549,146.056 "/>
<circle fill="#00984A" cx="70.689" cy="140.266" r="1.132"/>
<circle fill="#00984A" cx="70.689" cy="143.99" r="1.132"/>
<circle fill="#00984A" cx="70.689" cy="147.714" r="1.132"/>
<circle fill="#00984A" cx="70.689" cy="151.438" r="1.132"/>
<circle fill="#00984A" cx="70.689" cy="155.162" r="1.132"/>
<circle fill="#00984A" cx="70.689" cy="158.886" r="1.132"/>
<circle fill="#00984A" cx="70.689" cy="162.61" r="1.132"/>
<circle fill="#00984A" cx="70.689" cy="166.334" r="1.132"/>
<circle fill="#00984A" cx="70.689" cy="170.058" r="1.132"/>
<circle fill="#00984A" cx="70.689" cy="174.109" r="1.132"/>
<circle fill="#00984A" cx="70.689" cy="178.16" r="1.132"/>
<circle fill="#00984A" cx="104.258" cy="180.058" r="1.132"/>
<circle fill="#00984A" cx="100.534" cy="180.058" r="1.132"/>
<circle fill="#00984A" cx="96.81" cy="180.058" r="1.132"/>
<circle fill="#00984A" cx="93.086" cy="180.058" r="1.132"/>
<circle fill="#00984A" cx="89.362" cy="180.058" r="1.132"/>
<circle fill="#00984A" cx="85.638" cy="180.058" r="1.132"/>
<circle fill="#00984A" cx="81.914" cy="180.058" r="1.132"/>
<circle fill="#00984A" cx="78.19" cy="180.058" r="1.132"/>
<circle fill="#00984A" cx="74.466" cy="180.058" r="1.132"/>
</svg>
