<?xml version="1.0" encoding="utf-8"?>
<!-- Generator: Adobe Illustrator 23.0.1, SVG Export Plug-In . SVG Version: 6.00 Build 0)  -->
<svg version="1.1" xmlns="http://www.w3.org/2000/svg" xmlns:xlink="http://www.w3.org/1999/xlink" x="0px" y="0px"
	 viewBox="0 0 64 64" style="enable-background:new 0 0 64 64;" xml:space="preserve">
<style type="text/css">
	.st0{fill:#CCCCCC;}
	.st1{fill:none;stroke:#2C3251;stroke-width:0.5;stroke-miterlimit:10;}
	.st2{opacity:0.2;fill:#2C3251;}
	.st3{fill:#FFFFFF;}
	.st4{fill:#FFFFFF;stroke:#2C3251;stroke-width:0.5;stroke-miterlimit:10;}
	.st5{fill:#FFFFFF;stroke:#2C3251;stroke-width:0.5;stroke-linecap:round;stroke-linejoin:round;stroke-miterlimit:10;}
	.st6{fill:none;stroke:#2C3251;stroke-width:0.5;stroke-linecap:round;stroke-linejoin:round;stroke-miterlimit:10;}
	.st7{opacity:0.4;fill:#2C3251;enable-background:new    ;}
	.st8{fill:#2C3251;}
	.st9{fill:#2C3251;stroke:#2C3251;stroke-width:0.1;stroke-miterlimit:10;}
	.st10{fill:#939393;}
	.st11{fill:#D2E9F7;}
	.st12{fill:#0686D8;}
	.st13{clip-path:url(#SVGID_2_);}
	.st14{clip-path:url(#SVGID_4_);fill:#FFFFFF;}
	.st15{clip-path:url(#SVGID_6_);}
	.st16{clip-path:url(#SVGID_8_);fill:#FFFFFF;}
	.st17{clip-path:url(#SVGID_10_);}
	.st18{clip-path:url(#SVGID_14_);}
	.st19{clip-path:url(#SVGID_16_);}
	.st20{clip-path:url(#SVGID_18_);}
	.st21{clip-path:url(#SVGID_20_);fill:#CCCCCC;}
	.st22{clip-path:url(#SVGID_22_);}
	.st23{clip-path:url(#SVGID_24_);fill:#CCCCCC;}
	.st24{clip-path:url(#SVGID_26_);}
	.st25{clip-path:url(#SVGID_28_);fill:#CCCCCC;}
	.st26{clip-path:url(#SVGID_30_);}
	.st27{clip-path:url(#SVGID_32_);fill:#CCCCCC;}
	.st28{clip-path:url(#SVGID_34_);}
	.st29{clip-path:url(#SVGID_36_);fill:#CCCCCC;}
	.st30{clip-path:url(#SVGID_38_);}
	.st31{clip-path:url(#SVGID_42_);}
	.st32{clip-path:url(#SVGID_44_);}
	.st33{clip-path:url(#SVGID_46_);}
	.st34{clip-path:url(#SVGID_48_);fill:none;}
	.st35{clip-path:url(#SVGID_50_);}
	.st36{clip-path:url(#SVGID_52_);}
	.st37{clip-path:url(#SVGID_54_);}
	.st38{clip-path:url(#SVGID_58_);}
	.st39{clip-path:url(#SVGID_62_);}
	.st40{clip-path:url(#SVGID_64_);enable-background:new    ;}
	.st41{clip-path:url(#SVGID_66_);}
	.st42{clip-path:url(#SVGID_68_);}
	.st43{clip-path:url(#SVGID_70_);}
	.st44{clip-path:url(#SVGID_72_);}
	.st45{clip-path:url(#SVGID_76_);}
	.st46{clip-path:url(#SVGID_80_);}
	.st47{clip-path:url(#SVGID_82_);}
	.st48{clip-path:url(#SVGID_84_);}
	.st49{clip-path:url(#SVGID_86_);fill:#FFFFFF;}
	.st50{clip-path:url(#SVGID_89_);}
	.st51{clip-path:url(#SVGID_90_);}
	.st52{clip-path:url(#SVGID_92_);fill:#9ECFEF;}
	.st53{clip-path:url(#SVGID_94_);}
	.st54{clip-path:url(#SVGID_96_);}
	.st55{clip-path:url(#SVGID_98_);}
	.st56{clip-path:url(#SVGID_102_);}
	.st57{clip-path:url(#SVGID_104_);fill:#FFFFFF;}
	.st58{clip-path:url(#SVGID_106_);}
	.st59{clip-path:url(#SVGID_108_);}
	.st60{clip-path:url(#SVGID_110_);}
	.st61{clip-path:url(#SVGID_112_);}
	.st62{clip-path:url(#SVGID_114_);}
	.st63{clip-path:url(#SVGID_116_);enable-background:new    ;}
	.st64{clip-path:url(#SVGID_118_);}
	.st65{clip-path:url(#SVGID_120_);}
	.st66{clip-path:url(#SVGID_122_);fill:#CCCCCC;}
	.st67{clip-path:url(#SVGID_124_);}
	.st68{clip-path:url(#SVGID_126_);fill:#CCCCCC;}
	.st69{clip-path:url(#SVGID_128_);}
	.st70{clip-path:url(#SVGID_130_);fill:#CCCCCC;}
	.st71{clip-path:url(#SVGID_132_);}
	.st72{clip-path:url(#SVGID_134_);fill:#CCCCCC;}
	.st73{clip-path:url(#SVGID_136_);}
	.st74{clip-path:url(#SVGID_138_);fill:#CCCCCC;}
	.st75{clip-path:url(#SVGID_140_);}
	.st76{clip-path:url(#SVGID_142_);fill:#CCCCCC;}
	.st77{fill:none;stroke:#000000;stroke-width:2.7984;stroke-miterlimit:10;}
	.st78{fill:#5FB0E5;}
	.st79{clip-path:url(#SVGID_144_);}
	.st80{clip-path:url(#SVGID_148_);}
	.st81{clip-path:url(#SVGID_150_);}
	.st82{clip-path:url(#SVGID_152_);}
	.st83{clip-path:url(#SVGID_154_);fill:#FFFFFE;}
	.st84{clip-path:url(#SVGID_156_);}
	.st85{clip-path:url(#SVGID_158_);fill:#FFFFFF;}
	.st86{clip-path:url(#SVGID_160_);}
	.st87{clip-path:url(#SVGID_162_);}
	.st88{clip-path:url(#SVGID_164_);}
	.st89{clip-path:url(#SVGID_166_);fill:#FFFFFE;}
	.st90{clip-path:url(#SVGID_168_);}
	.st91{clip-path:url(#SVGID_170_);fill:#CCCCCC;}
	.st92{clip-path:url(#SVGID_172_);}
	.st93{clip-path:url(#SVGID_174_);}
	.st94{clip-path:url(#SVGID_176_);}
	.st95{clip-path:url(#SVGID_178_);}
	.st96{clip-path:url(#SVGID_180_);}
	.st97{clip-path:url(#SVGID_182_);}
	.st98{clip-path:url(#SVGID_184_);}
	.st99{clip-path:url(#SVGID_186_);}
	.st100{clip-path:url(#SVGID_188_);}
	.st101{clip-path:url(#SVGID_190_);}
	.st102{clip-path:url(#SVGID_192_);}
	.st103{clip-path:url(#SVGID_194_);}
	.st104{clip-path:url(#SVGID_196_);}
	.st105{clip-path:url(#SVGID_198_);fill:#CCCCCC;}
	.st106{clip-path:url(#SVGID_200_);}
	.st107{clip-path:url(#SVGID_202_);fill:#CCCCCC;}
	.st108{clip-path:url(#SVGID_204_);}
	.st109{clip-path:url(#SVGID_206_);fill:#CCCCCC;}
	.st110{clip-path:url(#SVGID_208_);}
	.st111{clip-path:url(#SVGID_210_);fill:#CCCCCC;}
	.st112{clip-path:url(#SVGID_212_);}
	.st113{clip-path:url(#SVGID_214_);fill:#CCCCCC;}
	.st114{clip-path:url(#SVGID_216_);}
	.st115{clip-path:url(#SVGID_218_);fill:#CCCCCC;}
	.st116{clip-path:url(#SVGID_220_);}
	.st117{clip-path:url(#SVGID_222_);fill:#CCCCCC;}
	.st118{clip-path:url(#SVGID_224_);}
	.st119{clip-path:url(#SVGID_226_);fill:#CCCCCC;}
	.st120{clip-path:url(#SVGID_228_);}
	.st121{clip-path:url(#SVGID_230_);fill:#CCCCCC;}
	.st122{clip-path:url(#SVGID_232_);}
	.st123{clip-path:url(#SVGID_234_);fill:#CCCCCC;}
	.st124{clip-path:url(#SVGID_236_);}
	.st125{clip-path:url(#SVGID_238_);fill:#CCCCCC;}
</style>
<g id="Layer_1">
	<g>
		<g>
			<defs>
				<path id="SVGID_1_" d="M427.3-45.6h-11l-5.2-10c-0.4-0.8,0.2-1.7,1-1.7h3.8c0.3,0,0.6,0.1,0.8,0.4L427.3-45.6z"/>
			</defs>
			<clipPath id="SVGID_2_">
				<use xlink:href="#SVGID_1_"  style="overflow:visible;"/>
			</clipPath>
			<g class="st13">
				<defs>
					<rect id="SVGID_3_" x="-133.6" y="-271.6" width="714.6" height="613.7"/>
				</defs>
				<clipPath id="SVGID_4_">
					<use xlink:href="#SVGID_3_"  style="overflow:visible;"/>
				</clipPath>
			</g>
		</g>
		<g>
			<defs>
				<path id="SVGID_5_" d="M427.3-45.6h-11l-5.2-10c-0.4-0.8,0.2-1.7,1-1.7h3.8c0.3,0,0.6,0.1,0.8,0.4L427.3-45.6z"/>
			</defs>
			<clipPath id="SVGID_6_">
				<use xlink:href="#SVGID_5_"  style="overflow:visible;"/>
			</clipPath>
			<g class="st15">
				<defs>
					<rect id="SVGID_7_" x="-133.6" y="-271.6" width="714.6" height="613.7"/>
				</defs>
				<clipPath id="SVGID_8_">
					<use xlink:href="#SVGID_7_"  style="overflow:visible;"/>
				</clipPath>
			</g>
		</g>
		<g>
			<defs>
				<path id="SVGID_9_" d="M413.4-57.3h-1.2c-0.9,0-1.4,0.9-1,1.7l5.2,10h4.3l-7.1-11.2C413.4-56.9,413.4-57.1,413.4-57.3"/>
			</defs>
			<clipPath id="SVGID_10_">
				<use xlink:href="#SVGID_9_"  style="overflow:visible;"/>
			</clipPath>
			<g class="st17">
				<defs>
					<rect id="SVGID_11_" x="-133.6" y="-271.6" width="714.6" height="613.7"/>
				</defs>
				<clipPath id="SVGID_12_">
					<use xlink:href="#SVGID_11_"  style="overflow:visible;"/>
				</clipPath>
			</g>
		</g>
		<g>
			<defs>
				<path id="SVGID_13_" d="M429.6-44.6h-13.9l-5.4-10.6c-0.3-0.7-0.3-1.4,0.1-2.1c0.4-0.6,1.1-1,1.8-1h3.8c0.6,0,1.2,0.2,1.6,0.7
					L429.6-44.6z M416.9-46.5h8.2l-9-9.7c0,0-0.1-0.1-0.1-0.1h-3.8c-0.1,0-0.1,0-0.1,0.1c0,0.1,0,0.1,0,0.2L416.9-46.5z"/>
			</defs>
			<clipPath id="SVGID_14_">
				<use xlink:href="#SVGID_13_"  style="overflow:visible;"/>
			</clipPath>
			<g class="st18">
				<defs>
					<rect id="SVGID_15_" x="-133.6" y="-271.6" width="714.6" height="613.7"/>
				</defs>
				<clipPath id="SVGID_16_">
					<use xlink:href="#SVGID_15_"  style="overflow:visible;"/>
				</clipPath>
			</g>
		</g>
		<g>
			<defs>
				<path id="SVGID_17_" d="M461.6-25.6c0,0.9-0.7,1.6-1.7,1.6c-0.9,0-1.7-0.7-1.7-1.6c0-0.9,0.7-1.6,1.7-1.6
					C460.9-27.2,461.6-26.5,461.6-25.6"/>
			</defs>
			<clipPath id="SVGID_18_">
				<use xlink:href="#SVGID_17_"  style="overflow:visible;"/>
			</clipPath>
			<g class="st20">
				<defs>
					<rect id="SVGID_19_" x="-133.6" y="-271.6" width="714.6" height="613.7"/>
				</defs>
				<clipPath id="SVGID_20_">
					<use xlink:href="#SVGID_19_"  style="overflow:visible;"/>
				</clipPath>
			</g>
		</g>
		<g>
			<defs>
				<path id="SVGID_21_" d="M448-62.4c0,0.5-0.4,0.8-0.8,0.8c-0.5,0-0.8-0.4-0.8-0.8c0-0.5,0.4-0.8,0.8-0.8
					C447.7-63.3,448-62.9,448-62.4"/>
			</defs>
			<use xlink:href="#SVGID_21_"  style="overflow:visible;fill-rule:evenodd;clip-rule:evenodd;fill:#CCCCCC;"/>
			<clipPath id="SVGID_22_">
				<use xlink:href="#SVGID_21_"  style="overflow:visible;"/>
			</clipPath>
			<g class="st22">
				<defs>
					<rect id="SVGID_23_" x="-133.6" y="-271.6" width="714.6" height="613.7"/>
				</defs>
				<clipPath id="SVGID_24_">
					<use xlink:href="#SVGID_23_"  style="overflow:visible;"/>
				</clipPath>
			</g>
		</g>
		<g>
			<defs>
				<path id="SVGID_25_" d="M446.2-30c0,0.5-0.4,0.8-0.8,0.8c-0.5,0-0.8-0.4-0.8-0.8s0.4-0.8,0.8-0.8
					C445.9-30.8,446.2-30.4,446.2-30"/>
			</defs>
			<use xlink:href="#SVGID_25_"  style="overflow:visible;fill-rule:evenodd;clip-rule:evenodd;fill:#CCCCCC;"/>
			<clipPath id="SVGID_26_">
				<use xlink:href="#SVGID_25_"  style="overflow:visible;"/>
			</clipPath>
			<g class="st24">
				<defs>
					<rect id="SVGID_27_" x="-133.6" y="-271.6" width="714.6" height="613.7"/>
				</defs>
				<clipPath id="SVGID_28_">
					<use xlink:href="#SVGID_27_"  style="overflow:visible;"/>
				</clipPath>
			</g>
		</g>
		<g>
			<defs>
				<path id="SVGID_29_" d="M468.1-66.2c0,0.6-0.5,1.1-1.1,1.1c-0.6,0-1.1-0.5-1.1-1.1s0.5-1.1,1.1-1.1
					C467.6-67.3,468.1-66.8,468.1-66.2"/>
			</defs>
			<clipPath id="SVGID_30_">
				<use xlink:href="#SVGID_29_"  style="overflow:visible;"/>
			</clipPath>
			<g class="st26">
				<defs>
					<rect id="SVGID_31_" x="-133.6" y="-271.6" width="714.6" height="613.7"/>
				</defs>
				<clipPath id="SVGID_32_">
					<use xlink:href="#SVGID_31_"  style="overflow:visible;"/>
				</clipPath>
			</g>
		</g>
		<g>
			<defs>
				<path id="SVGID_33_" d="M454.9-71.8c0,0.9-0.7,1.5-1.6,1.5c-0.9,0-1.6-0.7-1.6-1.5c0-0.9,0.7-1.5,1.6-1.5
					C454.2-73.4,454.9-72.7,454.9-71.8"/>
			</defs>
			<clipPath id="SVGID_34_">
				<use xlink:href="#SVGID_33_"  style="overflow:visible;"/>
			</clipPath>
			<g class="st28">
				<defs>
					<rect id="SVGID_35_" x="-133.6" y="-271.6" width="714.6" height="613.7"/>
				</defs>
				<clipPath id="SVGID_36_">
					<use xlink:href="#SVGID_35_"  style="overflow:visible;"/>
				</clipPath>
			</g>
		</g>
		<g>
			<defs>
				<path id="SVGID_37_" d="M465.8-50.8h-0.1c-0.6-1.9-2.3-3.3-4.4-3.3c-0.9,0-1.8,0.3-2.5,0.7c-0.5-3-3.1-5.3-6.2-5.3
					c-2.8,0-5.2,1.9-6,4.4c-0.4-0.1-0.7-0.2-1.1-0.2c-2.2,0-4,1.6-4.3,3.6h-0.7c-1.8,0-3.2,1.4-3.2,3.2v0.2c0,1.8,1.5,3.2,3.2,3.2
					h25.4c1.8,0,3.2-1.4,3.2-3.2v-0.2C469-49.3,467.6-50.8,465.8-50.8"/>
			</defs>
			<clipPath id="SVGID_38_">
				<use xlink:href="#SVGID_37_"  style="overflow:visible;"/>
			</clipPath>
			<g class="st30">
				<defs>
					<rect id="SVGID_39_" x="-133.6" y="-271.6" width="714.6" height="613.7"/>
				</defs>
				<clipPath id="SVGID_40_">
					<use xlink:href="#SVGID_39_"  style="overflow:visible;"/>
				</clipPath>
			</g>
		</g>
		<g>
			<defs>
				<path id="SVGID_41_" d="M465.8-43.1v-2c1.2,0,2.3-1,2.3-2.2v-0.2c0-1.2-1-2.2-2.3-2.2H465l-0.3-0.7c-0.4-1.5-1.9-2.6-3.5-2.6
					c-0.7,0-1.4,0.2-2,0.6l-1.3,0.8l-0.2-1.5c-0.4-2.6-2.6-4.5-5.3-4.5c-2.3,0-4.4,1.5-5.1,3.7l-0.3,0.9l-0.9-0.2
					c-2-0.5-3.9,0.8-4.2,2.7l-0.1,0.8h-1.5c-0.8,0-1.5,0.4-1.9,1.1l-1.7-1c0.7-1.3,2.1-2,3.6-2.1c0.8-2.3,3-3.9,5.5-3.6
					c1.2-2.6,3.7-4.3,6.7-4.3c3.2,0,5.9,2,6.9,4.9c0.6-0.2,1.2-0.3,1.8-0.3c2.2,0,4.3,1.4,5.1,3.4c2.1,0.3,3.6,2.1,3.6,4.1v0.2
					C470-45,468.1-43.1,465.8-43.1"/>
			</defs>
			<clipPath id="SVGID_42_">
				<use xlink:href="#SVGID_41_"  style="overflow:visible;"/>
			</clipPath>
			<g class="st31">
				<defs>
					<rect id="SVGID_43_" x="-133.6" y="-271.6" width="714.6" height="613.7"/>
				</defs>
				<clipPath id="SVGID_44_">
					<use xlink:href="#SVGID_43_"  style="overflow:visible;"/>
				</clipPath>
			</g>
		</g>
		<g>
			<defs>
				<path id="SVGID_45_" d="M455.8-53.3c-0.8-1.2-2.1-1.9-3.6-1.9c-0.8,0-1.5,0.2-2.2,0.6l-1-1.7c1-0.6,2.1-0.9,3.2-0.9
					c2.1,0,4.1,1.1,5.2,2.8L455.8-53.3z"/>
			</defs>
			<clipPath id="SVGID_46_">
				<use xlink:href="#SVGID_45_"  style="overflow:visible;"/>
			</clipPath>
			<g class="st33">
				<defs>
					<rect id="SVGID_47_" x="-133.6" y="-271.6" width="714.6" height="613.7"/>
				</defs>
				<clipPath id="SVGID_48_">
					<use xlink:href="#SVGID_47_"  style="overflow:visible;"/>
				</clipPath>
			</g>
		</g>
		<g>
			<defs>
				<path id="SVGID_49_" d="M448.7-52.2h-2c0-0.7-0.6-1.3-1.3-1.3v-2C447.2-55.4,448.7-54,448.7-52.2"/>
			</defs>
			<clipPath id="SVGID_50_">
				<use xlink:href="#SVGID_49_"  style="overflow:visible;"/>
			</clipPath>
			<g class="st35">
				<defs>
					<rect id="SVGID_51_" x="-133.6" y="-271.6" width="714.6" height="613.7"/>
				</defs>
				<clipPath id="SVGID_52_">
					<use xlink:href="#SVGID_51_"  style="overflow:visible;"/>
				</clipPath>
			</g>
		</g>
		<g>
			<defs>
				<path id="SVGID_53_" d="M438.2-25.1H438c-0.5-1.6-1.9-2.7-3.6-2.7c-0.8,0-1.4,0.2-2,0.6c-0.4-2.5-2.5-4.4-5.1-4.4
					c-2.3,0-4.3,1.5-4.9,3.6c-0.3-0.1-0.6-0.1-0.9-0.1c-1.8,0-3.2,1.3-3.5,3h-0.6c-1.5,0-2.7,1.2-2.7,2.6v0.2c0,1.5,1.2,2.6,2.7,2.6
					h20.8c1.5,0,2.7-1.2,2.7-2.6v-0.2C440.8-23.9,439.6-25.1,438.2-25.1"/>
			</defs>
			<clipPath id="SVGID_54_">
				<use xlink:href="#SVGID_53_"  style="overflow:visible;"/>
			</clipPath>
			<g class="st37">
				<defs>
					<rect id="SVGID_55_" x="-133.6" y="-271.6" width="714.6" height="613.7"/>
				</defs>
				<clipPath id="SVGID_56_">
					<use xlink:href="#SVGID_55_"  style="overflow:visible;"/>
				</clipPath>
			</g>
		</g>
		<g>
			<defs>
				<path id="SVGID_57_" d="M421-19.6h-3.7c-1.5,0-2.7-1.2-2.7-2.6v-0.2c0-1.5,1.2-2.6,2.7-2.6h0.6c0.3-1.7,1.7-3,3.5-3
					c0.3,0,0.6,0,0.9,0.1c0.7-2.1,2.6-3.6,4.9-3.6c2.6,0,4.7,1.9,5.1,4.4c0.6-0.4,1.3-0.6,2-0.6c1.7,0,3.2,1.1,3.6,2.7h0.1
					c1.5,0,2.7,1.2,2.7,2.6v0.2c0,1.4-1.2,2.6-2.7,2.6h-4H421z"/>
			</defs>
			<clipPath id="SVGID_58_">
				<use xlink:href="#SVGID_57_"  style="overflow:visible;"/>
			</clipPath>
			<g class="st38">
				<defs>
					<rect id="SVGID_59_" x="-133.6" y="-271.6" width="714.6" height="613.7"/>
				</defs>
				<clipPath id="SVGID_60_">
					<use xlink:href="#SVGID_59_"  style="overflow:visible;"/>
				</clipPath>
			</g>
		</g>
		<g>
			<defs>
				<rect id="SVGID_61_" x="413.7" y="-32.5" width="28.1" height="13.9"/>
			</defs>
			<clipPath id="SVGID_62_">
				<use xlink:href="#SVGID_61_"  style="overflow:visible;"/>
			</clipPath>
			<g class="st39">
				<defs>
					<rect id="SVGID_63_" x="-133.6" y="-271.6" width="714.6" height="613.7"/>
				</defs>
				<clipPath id="SVGID_64_">
					<use xlink:href="#SVGID_63_"  style="overflow:visible;"/>
				</clipPath>
			</g>
		</g>
		<g>
			<defs>
				<path id="SVGID_71_" d="M435.4-62.1L435.4-62.1c-0.4-1-1.3-1.7-2.4-1.7c-0.5,0-0.9,0.1-1.3,0.4c-0.2-1.6-1.6-2.8-3.2-2.8
					c-1.5,0-2.7,1-3.1,2.3c-0.2,0-0.4-0.1-0.6-0.1c-1.1,0-2.1,0.8-2.2,1.9h-0.4c-0.9,0-1.7,0.8-1.7,1.7v0.1c0,0.9,0.8,1.7,1.7,1.7
					h13.3c0.9,0,1.7-0.8,1.7-1.7v-0.1C437.1-61.4,436.4-62.1,435.4-62.1"/>
			</defs>
			<clipPath id="SVGID_66_">
				<use xlink:href="#SVGID_71_"  style="overflow:visible;"/>
			</clipPath>
			<g class="st41">
				<defs>
					<rect id="SVGID_73_" x="-133.6" y="-271.6" width="714.6" height="613.7"/>
				</defs>
				<clipPath id="SVGID_68_">
					<use xlink:href="#SVGID_73_"  style="overflow:visible;"/>
				</clipPath>
			</g>
		</g>
		<g>
			<defs>
				<path id="SVGID_75_" d="M424.5-58.6h-2.4c-0.9,0-1.7-0.8-1.7-1.7v-0.1c0-0.9,0.8-1.7,1.7-1.7h0.4c0.2-1.1,1.1-1.9,2.2-1.9
					c0.2,0,0.4,0,0.6,0.1c0.4-1.3,1.7-2.3,3.1-2.3c1.6,0,3,1.2,3.2,2.8c0.4-0.2,0.8-0.4,1.3-0.4c1.1,0,2,0.7,2.3,1.7h0.1
					c0.9,0,1.7,0.8,1.7,1.7v0.1c0,0.9-0.8,1.7-1.7,1.7h-2.6H424.5z"/>
			</defs>
			<clipPath id="SVGID_70_">
				<use xlink:href="#SVGID_75_"  style="overflow:visible;"/>
			</clipPath>
			<g class="st43">
				<defs>
					<rect id="SVGID_77_" x="-133.6" y="-271.6" width="714.6" height="613.7"/>
				</defs>
				<clipPath id="SVGID_72_">
					<use xlink:href="#SVGID_77_"  style="overflow:visible;"/>
				</clipPath>
			</g>
		</g>
		<g>
			<defs>
				<path id="SVGID_79_" d="M435.4-57.7h-13.3c-1.5,0-2.7-1.2-2.7-2.7c0-1.5,1-2.6,2.3-2.8c0.5-1.1,1.6-1.9,2.9-1.9
					c0.7-1.4,2.2-2.2,3.8-2.2c1.7,0,3.2,1,3.9,2.5c1.5-0.3,3,0.5,3.7,1.7c1.2,0.3,2,1.3,2,2.6C438.1-58.9,436.9-57.7,435.4-57.7z
					 M422.2-61.1c-0.4,0-0.7,0.3-0.7,0.7c0,0.5,0.3,0.8,0.7,0.8h13.3c0.4,0,0.7-0.3,0.7-0.7c0-0.5-0.3-0.8-0.7-0.8h-0.7l-0.3-0.7
					c-0.2-0.9-1.4-1.3-2.1-0.8l-1.3,0.8l-0.2-1.5c-0.2-1.1-1.1-1.9-2.3-1.9c-1,0-1.9,0.6-2.2,1.6l-0.3,0.9l-0.9-0.2
					c-0.8-0.2-1.5,0.3-1.6,1l-0.1,0.8H422.2z"/>
			</defs>
			<clipPath id="SVGID_74_">
				<use xlink:href="#SVGID_79_"  style="overflow:visible;"/>
			</clipPath>
			<g style="clip-path:url(#SVGID_74_);">
				<defs>
					<rect id="SVGID_81_" x="-133.6" y="-271.6" width="714.6" height="613.7"/>
				</defs>
				<clipPath id="SVGID_76_">
					<use xlink:href="#SVGID_81_"  style="overflow:visible;"/>
				</clipPath>
			</g>
		</g>
		<g>
			<defs>
				<path id="SVGID_83_" d="M465.7-41.7h-1.1c-0.9-2.6-3.4-4.4-6.3-4.4h-45c0,6.2,5,11.2,11.2,11.2h28.3H465h0.6
					c1.7,0,3.1-1.4,3.1-3.1v-0.6C468.8-40.3,467.4-41.7,465.7-41.7"/>
			</defs>
			<clipPath id="SVGID_78_">
				<use xlink:href="#SVGID_83_"  style="overflow:visible;"/>
			</clipPath>
			<g style="clip-path:url(#SVGID_78_);">
				<defs>
					<rect id="SVGID_85_" x="-133.6" y="-271.6" width="714.6" height="613.7"/>
				</defs>
				<clipPath id="SVGID_80_">
					<use xlink:href="#SVGID_85_"  style="overflow:visible;"/>
				</clipPath>
			</g>
		</g>
		<g>
			<defs>
				<path id="SVGID_87_" d="M413.7-46h-0.3c0,6.2,5,11.2,11.2,11.2h28.3H465h0.6c1.7,0,3.1-1.4,3.1-3.1v-0.6c0-0.4-0.1-0.7-0.2-1
					c-0.4,1.2-1.6,2.1-2.9,2.1"/>
			</defs>
			<defs>
				<polyline id="SVGID_88_" points="465.7,-37.5 465,-37.5 452.9,-37.5 424.6,-37.5 				"/>
			</defs>
			<clipPath id="SVGID_82_">
				<use xlink:href="#SVGID_87_"  style="overflow:visible;"/>
			</clipPath>
			<clipPath id="SVGID_84_" class="st47">
				<use xlink:href="#SVGID_88_"  style="overflow:visible;"/>
			</clipPath>
			<g class="st48">
				<defs>
					<rect id="SVGID_91_" x="-133.6" y="-271.6" width="714.6" height="613.7"/>
				</defs>
				<clipPath id="SVGID_86_">
					<use xlink:href="#SVGID_91_"  style="overflow:visible;"/>
				</clipPath>
			</g>
		</g>
		<g>
			<defs>
				<path id="SVGID_93_" d="M465.7-33.9h-41.1c-6.7,0-12.2-5.4-12.2-12.1v-1h46c3,0,5.7,1.7,6.9,4.4h0.4c2.3,0,4.1,1.8,4.1,4.1v0.6
					C469.7-35.7,467.9-33.9,465.7-33.9z M414.4-45.1c0.5,5.2,4.9,9.2,10.2,9.2h41.1c1.2,0,2.1-0.9,2.1-2.1v-0.6
					c0-1.2-0.9-2.1-2.1-2.1h-1.8l-0.2-0.6c-0.8-2.2-3-3.7-5.4-3.7H414.4z"/>
			</defs>
			<use xlink:href="#SVGID_93_"  style="overflow:visible;fill-rule:evenodd;clip-rule:evenodd;"/>
			<clipPath id="SVGID_89_">
				<use xlink:href="#SVGID_93_"  style="overflow:visible;"/>
			</clipPath>
			<g class="st50">
				<defs>
					<rect id="SVGID_95_" x="-133.6" y="-271.6" width="714.6" height="613.7"/>
				</defs>
				<clipPath id="SVGID_90_">
					<use xlink:href="#SVGID_95_"  style="overflow:visible;"/>
				</clipPath>
			</g>
		</g>
		<g>
			<defs>
				<path id="SVGID_97_" d="M426.2-42.5h-13c-0.9,0-1.5-0.7-1.5-1.5v-0.5c0-0.8,0.7-1.5,1.5-1.5h13c0.9,0,1.5,0.7,1.5,1.5v0.5
					C427.7-43.2,427-42.5,426.2-42.5"/>
			</defs>
			<clipPath id="SVGID_92_">
				<use xlink:href="#SVGID_97_"  style="overflow:visible;"/>
			</clipPath>
			<g style="clip-path:url(#SVGID_92_);">
				<defs>
					<rect id="SVGID_99_" x="-133.6" y="-271.6" width="714.6" height="613.7"/>
				</defs>
				<clipPath id="SVGID_94_">
					<use xlink:href="#SVGID_99_"  style="overflow:visible;"/>
				</clipPath>
			</g>
		</g>
		<g>
			<defs>
				<path id="SVGID_101_" d="M451.5-33.6h-15.9c-0.9,0-1.5-0.7-1.5-1.5v-1.1c0-0.8,0.7-1.5,1.5-1.5h15.9c0.9,0,1.5,0.7,1.5,1.5v1.1
					C453-34.3,452.4-33.6,451.5-33.6"/>
			</defs>
			<clipPath id="SVGID_96_">
				<use xlink:href="#SVGID_101_"  style="overflow:visible;"/>
			</clipPath>
			<g class="st54">
				<defs>
					<rect id="SVGID_103_" x="-133.6" y="-271.6" width="714.6" height="613.7"/>
				</defs>
				<clipPath id="SVGID_98_">
					<use xlink:href="#SVGID_103_"  style="overflow:visible;"/>
				</clipPath>
			</g>
		</g>
		<g>
			<defs>
				<path id="SVGID_105_" d="M426.2-41.5h-13c-1.4,0-2.5-1.1-2.5-2.5v-0.5c0-1.4,1.1-2.5,2.5-2.5h13c1.4,0,2.5,1.1,2.5,2.5v0.5
					C428.7-42.6,427.6-41.5,426.2-41.5z M413.2-45.1c-0.3,0-0.6,0.2-0.6,0.6v0.5c0,0.3,0.3,0.6,0.6,0.6h13c0.3,0,0.6-0.2,0.6-0.6
					v-0.5c0-0.3-0.2-0.6-0.6-0.6H413.2z"/>
			</defs>
			<clipPath id="SVGID_100_">
				<use xlink:href="#SVGID_105_"  style="overflow:visible;"/>
			</clipPath>
			<g style="clip-path:url(#SVGID_100_);">
				<defs>
					<rect id="SVGID_107_" x="-133.6" y="-271.6" width="714.6" height="613.7"/>
				</defs>
				<clipPath id="SVGID_102_">
					<use xlink:href="#SVGID_107_"  style="overflow:visible;"/>
				</clipPath>
			</g>
		</g>
		<g>
			<defs>
				<path id="SVGID_109_" d="M451.5-32.6h-15.9c-1.4,0-2.5-1.1-2.5-2.5v-1.1c0-1.4,1.1-2.5,2.5-2.5h15.9c1.4,0,2.5,1.1,2.5,2.5v1.1
					C454-33.7,452.9-32.6,451.5-32.6z M435.6-36.8c-0.3,0-0.6,0.2-0.6,0.6v1.1c0,0.3,0.3,0.6,0.6,0.6h15.9c0.3,0,0.6-0.2,0.6-0.6
					v-1.1c0-0.3-0.3-0.6-0.6-0.6H435.6z"/>
			</defs>
			<clipPath id="SVGID_104_">
				<use xlink:href="#SVGID_109_"  style="overflow:visible;"/>
			</clipPath>
			<g style="clip-path:url(#SVGID_104_);">
				<defs>
					<rect id="SVGID_111_" x="-133.6" y="-271.6" width="714.6" height="613.7"/>
				</defs>
				<clipPath id="SVGID_106_">
					<use xlink:href="#SVGID_111_"  style="overflow:visible;"/>
				</clipPath>
			</g>
		</g>
		<g>
			<defs>
				<rect id="SVGID_113_" x="410" y="-73.4" width="60" height="54.7"/>
			</defs>
			<clipPath id="SVGID_108_">
				<use xlink:href="#SVGID_113_"  style="overflow:visible;"/>
			</clipPath>
			<g class="st59">
				<defs>
					<rect id="SVGID_115_" x="-133.6" y="-271.6" width="714.6" height="613.7"/>
				</defs>
				<clipPath id="SVGID_110_">
					<use xlink:href="#SVGID_115_"  style="overflow:visible;"/>
				</clipPath>
			</g>
		</g>
	</g>
	<g id="XMLID_784_">
		<g id="XMLID_770_">
			<rect id="XMLID_225_" x="7.8" y="4.6" width="2.5" height="7"/>
		</g>
		<g id="XMLID_769_">
			<rect id="XMLID_224_" x="10.8" y="7.5" width="2.5" height="7"/>
		</g>
		<g id="XMLID_768_">
			<polygon id="XMLID_752_" class="st0" points="25.1,54 19.6,54 14,60.1 19.5,60.1 			"/>
		</g>
		<g id="XMLID_766_">
			<path id="XMLID_221_" d="M19.5,61.3h-6L13,60.5c-0.2-0.5-0.1-1.1,0.2-1.5l5.8-6.2H28l-7.8,8.5L19.5,61.3z M16.8,58.8H19l3.3-3.5
				h-2.2L16.8,58.8z"/>
		</g>
		<g id="XMLID_765_">
			<polygon class="st0" points="50.2,60.1 44.6,60.1 39.1,54 44.6,54 			"/>
		</g>
		<g id="XMLID_763_">
			<path id="XMLID_218_" d="M49.9,61.3h-5.8l-0.5-0.4l-7.5-8.1h8.9l6.3,6.8l-0.3,0.9C50.9,61,50.5,61.3,49.9,61.3z M45.2,58.8h2.2
				l-3.3-3.5h-2.2L45.2,58.8z"/>
		</g>
		<g id="XMLID_762_">
			<circle id="XMLID_753_" class="st3" cx="33.5" cy="36.4" r="23.7"/>
		</g>
		<g id="XMLID_761_">
			<circle id="XMLID_756_" class="st0" cx="33.5" cy="36.4" r="16.5"/>
		</g>
		<g id="XMLID_760_">
			<circle id="XMLID_757_" class="st3" cx="33.5" cy="36.4" r="10.6"/>
		</g>
		<g id="XMLID_759_">
			<path id="XMLID_758_" class="st0" d="M37.9,36.4c0,2.4-2,4.4-4.4,4.4s-4.4-2-4.4-4.4s2-4.4,4.4-4.4S37.9,34,37.9,36.4z"/>
		</g>
		<g id="XMLID_751_">
			<path id="XMLID_217_" d="M33.5,54.2c-9.8,0-17.8-8-17.8-17.8c0-3.4,0.9-6.6,2.7-9.5l2.1,1.3c-1.5,2.4-2.3,5.3-2.3,8.1
				c0,8.4,6.9,15.3,15.3,15.3s15.3-6.9,15.3-15.3s-6.9-15.3-15.3-15.3c-3.7,0-5.9,0.7-8.3,2.5l-1.5-2c2.8-2.1,5.6-3,9.8-3
				c9.8,0,17.8,8,17.8,17.8S43.3,54.2,33.5,54.2z"/>
		</g>
		<g id="XMLID_767_">
			<path id="XMLID_216_" d="M33.5,42.1c-3.1,0-5.7-2.5-5.7-5.7h2.5c0,1.8,1.4,3.2,3.2,3.2c1.8,0,3.2-1.4,3.2-3.2
				c0-1.8-1.4-3.2-3.2-3.2v-2.5c3.1,0,5.7,2.5,5.7,5.7C39.1,39.5,36.6,42.1,33.5,42.1z"/>
		</g>
		<g id="XMLID_771_">
			<path id="XMLID_215_" d="M13.8,25.6l-2.2-1.2c0.7-1.2,1.5-2.4,2.4-3.5l1.9,1.6C15.2,23.4,14.4,24.5,13.8,25.6z"/>
		</g>
		<g id="XMLID_772_">
			<path id="XMLID_214_" d="M11.2,34.2l-2.5-0.2c0.2-2.3,0.8-4.6,1.6-6.7l2.3,0.9C11.8,30.1,11.4,32.1,11.2,34.2z"/>
		</g>
		<g id="XMLID_773_">
			<path id="XMLID_213_" d="M33.5,61.3c-13.7,0-24.9-11.2-24.9-24.9H11c0,12.4,10.1,22.4,22.4,22.4s22.4-10.1,22.4-22.4
				S45.8,14,33.5,14c-4.6,0-9.1,1.4-12.9,4.1l-1.4-2c4.2-3,9.2-4.5,14.3-4.5c13.7,0,24.9,11.2,24.9,24.9S47.2,61.3,33.5,61.3z"/>
		</g>
		<g id="XMLID_774_">
			
				<rect id="XMLID_1595_" x="19.2" y="4.1" transform="matrix(0.7071 -0.7071 0.7071 0.7071 -10.3901 21.2786)" width="2.5" height="38.1"/>
		</g>
		<g id="XMLID_775_">
			<rect id="XMLID_1594_" x="13.7" y="10.8" width="2.5" height="7"/>
		</g>
		<g id="XMLID_776_">
			<rect id="XMLID_1593_" x="8" y="16.6" width="7" height="2.5"/>
		</g>
		<g id="XMLID_777_">
			<rect id="XMLID_1592_" x="5" y="13.7" width="7" height="2.5"/>
		</g>
		<g id="XMLID_778_">
			<rect id="XMLID_1591_" x="2" y="10.8" width="7" height="2.5"/>
		</g>
		<g id="XMLID_237_">
			<path class="st0" d="M60.1,14.4c0,0.9-0.7,1.6-1.6,1.6c-0.9,0-1.6-0.7-1.6-1.6s0.7-1.6,1.6-1.6C59.4,12.8,60.1,13.5,60.1,14.4z"
				/>
		</g>
		<g id="XMLID_233_">
			<path class="st0" d="M17.5,5.2c0,1.1-0.9,2-2,2c-1.1,0-2-0.9-2-2c0-1.1,0.9-2,2-2C16.7,3.3,17.5,4.2,17.5,5.2z"/>
		</g>
		<g id="XMLID_231_">
			<path class="st0" d="M30.4,11.7c0,0.5-0.4,0.9-0.9,0.9c-0.5,0-0.9-0.4-0.9-0.9c0-0.5,0.4-0.9,0.9-0.9
				C30,10.8,30.4,11.2,30.4,11.7z"/>
		</g>
		<g id="XMLID_209_">
			<path class="st0" d="M62,4.2c0,0.6-0.5,1-1,1c-0.6,0-1-0.5-1-1c0-0.6,0.5-1,1-1C61.5,3.2,62,3.7,62,4.2z"/>
		</g>
		<g id="XMLID_207_">
			<path class="st0" d="M42.2,4.2c0,0.9-0.7,1.6-1.6,1.6c-0.9,0-1.6-0.7-1.6-1.6c0-0.9,0.7-1.6,1.6-1.6C41.5,2.7,42.2,3.4,42.2,4.2z
				"/>
		</g>
	</g>
	<g>
		<g>
			<g>
				<defs>
					<path id="SVGID_143_" d="M375.2,58.9h-46.2c-0.8,0-1.4-0.6-1.4-1.4V24.9c0-0.8,0.6-1.4,1.4-1.4h46.2c0.8,0,1.4,0.6,1.4,1.4
						v32.6C376.6,58.3,375.9,58.9,375.2,58.9"/>
				</defs>
				<clipPath id="SVGID_112_">
					<use xlink:href="#SVGID_143_"  style="overflow:visible;"/>
				</clipPath>
				<g class="st61">
					<defs>
						<rect id="SVGID_145_" x="-414.3" y="-99.9" width="931.4" height="486.1"/>
					</defs>
					<clipPath id="SVGID_114_">
						<use xlink:href="#SVGID_145_"  style="overflow:visible;"/>
					</clipPath>
				</g>
			</g>
			<g>
				<defs>
					<path id="SVGID_147_" d="M375.7,59.6h-46.6c-1.3,0-2.3-1-2.3-2.3V41.7h2.1v15.6l0.1,0.2h46.6l0.2-0.2V24.4l-0.2-0.2h-16.8v-2.1
						h16.8c1.3,0,2.3,1,2.3,2.3v32.9C378,58.6,376.9,59.6,375.7,59.6"/>
				</defs>
				<clipPath id="SVGID_116_">
					<use xlink:href="#SVGID_147_"  style="overflow:visible;"/>
				</clipPath>
				<g style="clip-path:url(#SVGID_116_);">
					<defs>
						<rect id="SVGID_149_" x="-414.3" y="-99.9" width="931.4" height="486.1"/>
					</defs>
					<clipPath id="SVGID_118_">
						<use xlink:href="#SVGID_149_"  style="overflow:visible;"/>
					</clipPath>
				</g>
			</g>
			<g>
				<defs>
					<rect id="SVGID_151_" x="330.2" y="26.2" width="44.3" height="28.6"/>
				</defs>
				<clipPath id="SVGID_120_">
					<use xlink:href="#SVGID_151_"  style="overflow:visible;"/>
				</clipPath>
				<g class="st65">
					<defs>
						<rect id="SVGID_153_" x="-414.3" y="-99.9" width="931.4" height="486.1"/>
					</defs>
					<clipPath id="SVGID_122_">
						<use xlink:href="#SVGID_153_"  style="overflow:visible;"/>
					</clipPath>
				</g>
			</g>
			<g>
				<defs>
					<path id="SVGID_155_" d="M375.7,61h-47.6c-1.1,0-2.1-0.8-2.3-2l-0.3-2.1h22.1l0.8,1.2h6.1l0.9-1.2h23.3l-0.3,1.8
						C378.1,60,377,61,375.7,61"/>
				</defs>
				<clipPath id="SVGID_124_">
					<use xlink:href="#SVGID_155_"  style="overflow:visible;"/>
				</clipPath>
				<g class="st67">
					<defs>
						<rect id="SVGID_157_" x="-414.3" y="-99.9" width="931.4" height="486.1"/>
					</defs>
					<clipPath id="SVGID_126_">
						<use xlink:href="#SVGID_157_"  style="overflow:visible;"/>
					</clipPath>
				</g>
			</g>
			<g>
				<defs>
					<path id="SVGID_159_" d="M375.8,61.7H328c-1.7,0-3.1-1.2-3.4-2.8l-0.5-3.3h24l0.8,1.2h5l0.9-1.2H380l-0.5,3
						C379.2,60.4,377.7,61.7,375.8,61.7z M326.6,57.6l0.1,0.8c0.1,0.6,0.6,1.1,1.3,1.1h47.8c0.8,0,1.5-0.6,1.6-1.3l0.1-0.6h-21.6
						l-0.9,1.2h-7.2l-0.8-1.2H326.6z"/>
				</defs>
				<clipPath id="SVGID_128_">
					<use xlink:href="#SVGID_159_"  style="overflow:visible;"/>
				</clipPath>
				<g class="st69">
					<defs>
						<rect id="SVGID_161_" x="-414.3" y="-99.9" width="931.4" height="486.1"/>
					</defs>
					<clipPath id="SVGID_130_">
						<use xlink:href="#SVGID_161_"  style="overflow:visible;"/>
					</clipPath>
				</g>
			</g>
			<g>
				<defs>
					<path id="SVGID_163_" d="M353.3,38.5h-29c-1.6,0-2.9-1.3-2.9-2.9V16.1c0-1.6,1.3-2.9,2.9-2.9h29c1.6,0,2.9,1.3,2.9,2.9v19.5
						C356.1,37.2,354.9,38.5,353.3,38.5"/>
				</defs>
				<clipPath id="SVGID_132_">
					<use xlink:href="#SVGID_163_"  style="overflow:visible;"/>
				</clipPath>
				<g class="st71">
					<defs>
						<rect id="SVGID_165_" x="-414.3" y="-99.9" width="931.4" height="486.1"/>
					</defs>
					<clipPath id="SVGID_134_">
						<use xlink:href="#SVGID_165_"  style="overflow:visible;"/>
					</clipPath>
				</g>
			</g>
			<g>
				<defs>
					<path id="SVGID_167_" d="M321.4,18.7V15c0-1,0.8-1.8,1.7-1.8h31.3c1,0,1.7,0.8,1.7,1.8v3.7H321.4"/>
				</defs>
				<clipPath id="SVGID_136_">
					<use xlink:href="#SVGID_167_"  style="overflow:visible;"/>
				</clipPath>
				<g class="st73">
					<defs>
						<rect id="SVGID_169_" x="-414.3" y="-99.9" width="931.4" height="486.1"/>
					</defs>
					<clipPath id="SVGID_138_">
						<use xlink:href="#SVGID_169_"  style="overflow:visible;"/>
					</clipPath>
				</g>
			</g>
			<g>
				<defs>
					<path id="SVGID_171_" d="M354.6,39.8h-31.8c-1.6,0-2.9-1.3-2.9-2.8V15.4c0-1.5,1.3-2.8,2.9-2.8h4.7v2.1h-4.7
						c-0.4,0-0.7,0.3-0.7,0.7V37c0,0.4,0.3,0.7,0.7,0.7h31.8c0.4,0,0.7-0.3,0.7-0.7V15.4c0-0.4-0.3-0.7-0.7-0.7h-21v-2.1h21
						c1.6,0,2.9,1.3,2.9,2.8V37C357.5,38.6,356.2,39.8,354.6,39.8"/>
				</defs>
				<clipPath id="SVGID_140_">
					<use xlink:href="#SVGID_171_"  style="overflow:visible;"/>
				</clipPath>
				<g class="st75">
					<defs>
						<rect id="SVGID_173_" x="-414.3" y="-99.9" width="931.4" height="486.1"/>
					</defs>
					<clipPath id="SVGID_142_">
						<use xlink:href="#SVGID_173_"  style="overflow:visible;"/>
					</clipPath>
				</g>
			</g>
			<g>
				<defs>
					<rect id="SVGID_175_" x="328.9" y="12.6" width="2.7" height="2"/>
				</defs>
				<clipPath id="SVGID_144_">
					<use xlink:href="#SVGID_175_"  style="overflow:visible;"/>
				</clipPath>
				<g class="st79">
					<defs>
						<rect id="SVGID_177_" x="-414.3" y="-99.9" width="931.4" height="486.1"/>
					</defs>
					<clipPath id="SVGID_146_">
						<use xlink:href="#SVGID_177_"  style="overflow:visible;"/>
					</clipPath>
				</g>
			</g>
			<g>
				<defs>
					<rect id="SVGID_179_" x="321.4" y="18" width="34.8" height="2"/>
				</defs>
				<clipPath id="SVGID_148_">
					<use xlink:href="#SVGID_179_"  style="overflow:visible;"/>
				</clipPath>
				<g class="st80">
					<defs>
						<rect id="SVGID_181_" x="-414.3" y="-99.9" width="931.4" height="486.1"/>
					</defs>
					<clipPath id="SVGID_150_">
						<use xlink:href="#SVGID_181_"  style="overflow:visible;"/>
					</clipPath>
				</g>
			</g>
			<g>
				<defs>
					<rect id="SVGID_183_" x="324.8" y="15.3" width="1.3" height="2"/>
				</defs>
				<clipPath id="SVGID_152_">
					<use xlink:href="#SVGID_183_"  style="overflow:visible;"/>
				</clipPath>
				<g class="st82">
					<defs>
						<rect id="SVGID_185_" x="-414.3" y="-99.9" width="931.4" height="486.1"/>
					</defs>
					<clipPath id="SVGID_154_">
						<use xlink:href="#SVGID_185_"  style="overflow:visible;"/>
					</clipPath>
				</g>
			</g>
			<g>
				<defs>
					<rect id="SVGID_187_" x="328.2" y="15.3" width="1.3" height="2"/>
				</defs>
				<clipPath id="SVGID_156_">
					<use xlink:href="#SVGID_187_"  style="overflow:visible;"/>
				</clipPath>
				<g class="st84">
					<defs>
						<rect id="SVGID_189_" x="-414.3" y="-99.9" width="931.4" height="486.1"/>
					</defs>
					<clipPath id="SVGID_158_">
						<use xlink:href="#SVGID_189_"  style="overflow:visible;"/>
					</clipPath>
				</g>
			</g>
			<g>
				<defs>
					<rect id="SVGID_191_" x="331.6" y="15.3" width="1.3" height="2"/>
				</defs>
				<clipPath id="SVGID_160_">
					<use xlink:href="#SVGID_191_"  style="overflow:visible;"/>
				</clipPath>
				<g class="st86">
					<defs>
						<rect id="SVGID_193_" x="-414.3" y="-99.9" width="931.4" height="486.1"/>
					</defs>
					<clipPath id="SVGID_162_">
						<use xlink:href="#SVGID_193_"  style="overflow:visible;"/>
					</clipPath>
				</g>
			</g>
			<g>
				<defs>
					<polyline id="SVGID_195_" points="331.6,28.5 331.6,27.4 335.7,25.5 335.7,26.7 333,27.9 335.7,29.1 335.7,30.3 331.6,28.5 
											"/>
				</defs>
				<use xlink:href="#SVGID_195_"  style="overflow:visible;fill-rule:evenodd;clip-rule:evenodd;fill:#CCCCCC;"/>
				<clipPath id="SVGID_164_">
					<use xlink:href="#SVGID_195_"  style="overflow:visible;"/>
				</clipPath>
				<g class="st88">
					<defs>
						<rect id="SVGID_197_" x="-414.3" y="-99.9" width="931.4" height="486.1"/>
					</defs>
					<use xlink:href="#SVGID_197_"  style="overflow:visible;fill:#CCCCCC;"/>
					<clipPath id="SVGID_166_">
						<use xlink:href="#SVGID_197_"  style="overflow:visible;"/>
					</clipPath>
				</g>
			</g>
			<g>
				<defs>
					<polyline id="SVGID_199_" points="339.4,24.2 340.5,24.2 337.4,31 336.4,31 339.4,24.2 					"/>
				</defs>
				<use xlink:href="#SVGID_199_"  style="overflow:visible;fill-rule:evenodd;clip-rule:evenodd;fill:#CCCCCC;"/>
				<clipPath id="SVGID_168_">
					<use xlink:href="#SVGID_199_"  style="overflow:visible;"/>
				</clipPath>
				<g class="st90">
					<defs>
						<rect id="SVGID_201_" x="-414.3" y="-99.9" width="931.4" height="486.1"/>
					</defs>
					<use xlink:href="#SVGID_201_"  style="overflow:visible;fill:#CCCCCC;"/>
					<clipPath id="SVGID_170_">
						<use xlink:href="#SVGID_201_"  style="overflow:visible;"/>
					</clipPath>
				</g>
			</g>
			<g>
				<defs>
					<polyline id="SVGID_203_" points="345.9,27.4 345.9,28.5 341.8,30.3 341.8,29.1 344.5,27.9 341.8,26.7 341.8,25.5 345.9,27.4 
											"/>
				</defs>
				<use xlink:href="#SVGID_203_"  style="overflow:visible;fill-rule:evenodd;clip-rule:evenodd;fill:#CCCCCC;"/>
				<clipPath id="SVGID_172_">
					<use xlink:href="#SVGID_203_"  style="overflow:visible;"/>
				</clipPath>
				<g class="st92">
					<defs>
						<rect id="SVGID_205_" x="-414.3" y="-99.9" width="931.4" height="486.1"/>
					</defs>
					<use xlink:href="#SVGID_205_"  style="overflow:visible;fill:#CCCCCC;"/>
					<clipPath id="SVGID_174_">
						<use xlink:href="#SVGID_205_"  style="overflow:visible;"/>
					</clipPath>
				</g>
			</g>
			<g>
				<defs>
					<rect id="SVGID_207_" x="358.9" y="29.6" width="11.6" height="2"/>
				</defs>
				<clipPath id="SVGID_176_">
					<use xlink:href="#SVGID_207_"  style="overflow:visible;"/>
				</clipPath>
				<g class="st94">
					<defs>
						<rect id="SVGID_209_" x="-414.3" y="-99.9" width="931.4" height="486.1"/>
					</defs>
					<clipPath id="SVGID_178_">
						<use xlink:href="#SVGID_209_"  style="overflow:visible;"/>
					</clipPath>
				</g>
			</g>
			<g>
				<defs>
					<rect id="SVGID_211_" x="362.3" y="34.4" width="4.1" height="2"/>
				</defs>
				<clipPath id="SVGID_180_">
					<use xlink:href="#SVGID_211_"  style="overflow:visible;"/>
				</clipPath>
				<g class="st96">
					<defs>
						<rect id="SVGID_213_" x="-414.3" y="-99.9" width="931.4" height="486.1"/>
					</defs>
					<clipPath id="SVGID_182_">
						<use xlink:href="#SVGID_213_"  style="overflow:visible;"/>
					</clipPath>
				</g>
			</g>
			<g>
				<defs>
					<rect id="SVGID_215_" x="347.3" y="40.5" width="11.6" height="2"/>
				</defs>
				<clipPath id="SVGID_184_">
					<use xlink:href="#SVGID_215_"  style="overflow:visible;"/>
				</clipPath>
				<g class="st98">
					<defs>
						<rect id="SVGID_217_" x="-414.3" y="-99.9" width="931.4" height="486.1"/>
					</defs>
					<clipPath id="SVGID_186_">
						<use xlink:href="#SVGID_217_"  style="overflow:visible;"/>
					</clipPath>
				</g>
			</g>
			<g>
				<defs>
					<rect id="SVGID_219_" x="360.9" y="40.5" width="6.1" height="2"/>
				</defs>
				<clipPath id="SVGID_188_">
					<use xlink:href="#SVGID_219_"  style="overflow:visible;"/>
				</clipPath>
				<g class="st100">
					<defs>
						<rect id="SVGID_221_" x="-414.3" y="-99.9" width="931.4" height="486.1"/>
					</defs>
					<clipPath id="SVGID_190_">
						<use xlink:href="#SVGID_221_"  style="overflow:visible;"/>
					</clipPath>
				</g>
			</g>
			<g>
				<defs>
					<rect id="SVGID_223_" x="343.2" y="40.5" width="2" height="2"/>
				</defs>
				<clipPath id="SVGID_192_">
					<use xlink:href="#SVGID_223_"  style="overflow:visible;"/>
				</clipPath>
				<g class="st102">
					<defs>
						<rect id="SVGID_225_" x="-414.3" y="-99.9" width="931.4" height="486.1"/>
					</defs>
					<clipPath id="SVGID_194_">
						<use xlink:href="#SVGID_225_"  style="overflow:visible;"/>
					</clipPath>
				</g>
			</g>
			<g>
				<defs>
					<rect id="SVGID_227_" x="333" y="44.6" width="11.6" height="2"/>
				</defs>
				<clipPath id="SVGID_196_">
					<use xlink:href="#SVGID_227_"  style="overflow:visible;"/>
				</clipPath>
				<g class="st104">
					<defs>
						<rect id="SVGID_229_" x="-414.3" y="-99.9" width="931.4" height="486.1"/>
					</defs>
					<clipPath id="SVGID_198_">
						<use xlink:href="#SVGID_229_"  style="overflow:visible;"/>
					</clipPath>
				</g>
			</g>
			<g>
				<defs>
					<rect id="SVGID_231_" x="340.5" y="49.4" width="11.6" height="2"/>
				</defs>
				<clipPath id="SVGID_200_">
					<use xlink:href="#SVGID_231_"  style="overflow:visible;"/>
				</clipPath>
				<g class="st106">
					<defs>
						<rect id="SVGID_233_" x="-414.3" y="-99.9" width="931.4" height="486.1"/>
					</defs>
					<clipPath id="SVGID_202_">
						<use xlink:href="#SVGID_233_"  style="overflow:visible;"/>
					</clipPath>
				</g>
			</g>
			<g>
				<defs>
					<rect id="SVGID_235_" x="354.8" y="49.4" width="6.1" height="2"/>
				</defs>
				<clipPath id="SVGID_204_">
					<use xlink:href="#SVGID_235_"  style="overflow:visible;"/>
				</clipPath>
				<g class="st108">
					<defs>
						<rect id="SVGID_237_" x="-414.3" y="-99.9" width="931.4" height="486.1"/>
					</defs>
					<clipPath id="SVGID_206_">
						<use xlink:href="#SVGID_237_"  style="overflow:visible;"/>
					</clipPath>
				</g>
			</g>
		</g>
	</g>
</g>
<g id="specctr">
	<g id="Text_Properties">
	</g>
</g>
</svg>
