<?xml version="1.0" encoding="utf-8"?>
<!-- Generator: Adobe Illustrator 16.0.0, SVG Export Plug-In . SVG Version: 6.00 Build 0)  -->
<!DOCTYPE svg PUBLIC "-//W3C//DTD SVG 1.1//EN" "http://www.w3.org/Graphics/SVG/1.1/DTD/svg11.dtd">
<svg version="1.1" id="Layer_1" xmlns="http://www.w3.org/2000/svg" xmlns:xlink="http://www.w3.org/1999/xlink" x="0px" y="0px"
	 width="216px" height="216px" viewBox="0 0 216 216" enable-background="new 0 0 216 216" xml:space="preserve">
<g>
	<g id="XMLID_72_">
		<path id="XMLID_53_" fill="#FFFFFF" stroke="#171C28" stroke-width="3" stroke-miterlimit="10" d="M167.737,75.6l17.213,18.563
			v28.35l-4.726,13.837v26.663h-35.1v-10.8c0,0-10.463-14.513-9.787-26.325"/>
		<g id="XMLID_86_">
			
				<rect id="XMLID_87_" x="110.569" y="21.892" fill="#FFFFFF" stroke="#171C28" stroke-width="3" stroke-linecap="round" stroke-linejoin="round" stroke-miterlimit="10" width="52.987" height="92.813"/>
		</g>
		
			<path id="XMLID_85_" fill="none" stroke="#171C28" stroke-width="3" stroke-linecap="round" stroke-linejoin="round" stroke-miterlimit="10" d="
			M167.737,75.6l17.213,18.563v28.35l-4.726,13.837v26.663h-35.1v-10.8c0,0-10.463-14.513-9.787-26.325"/>
		
			<polyline id="XMLID_84_" fill="none" stroke="#171C28" stroke-width="3" stroke-linecap="round" stroke-linejoin="round" stroke-miterlimit="10" points="
			126.563,91.125 126.563,98.55 132.3,102.938 141.075,102.938 146.475,98.888 146.475,91.125 		"/>
		
			<path id="XMLID_83_" fill="#FFFFFF" stroke="#171C28" stroke-width="3" stroke-linecap="round" stroke-linejoin="round" stroke-miterlimit="10" d="
			M168.75,107.325l-18.563-18.563c0,0-11.138-5.063-11.138,11.137l16.875,16.538c0,0-1.35,15.525,11.813,28.013"/>
		
			<polyline id="XMLID_82_" fill="#FFFFFF" stroke="#171C28" stroke-width="3" stroke-linecap="round" stroke-linejoin="round" stroke-miterlimit="10" points="
			138.037,195.75 138.037,163.013 188.325,163.013 188.325,195.75 		"/>
		
			<polyline id="XMLID_81_" fill="none" stroke="#171C28" stroke-width="3" stroke-linecap="round" stroke-linejoin="round" stroke-miterlimit="10" points="
			146.475,42.862 146.475,35.775 141.075,31.388 132.3,31.388 126.563,35.1 126.563,42.862 		"/>
		<g id="XMLID_73_">
			
				<ellipse id="XMLID_80_" fill="#FFFFFF" stroke="#171C28" stroke-width="3" stroke-linecap="round" stroke-linejoin="round" stroke-miterlimit="10" cx="137.362" cy="66.825" rx="15.863" ry="15.863"/>
			<ellipse id="XMLID_79_" fill="#0D3178" cx="137.362" cy="66.825" rx="12.488" ry="12.488"/>
			<g>
				<path fill="#FFFFFF" d="M131.669,73.288v-1.451h5.421v-0.05c-0.434-0.3-0.834-0.601-1.201-0.884l-4.22-3.436v-1.801l4.771,4.069
					l6.471-4.386v1.718l-5.521,3.703l1.234,1.067h4.286v1.451H131.669z"/>
				<path fill="#FFFFFF" d="M141.409,64.496c0.283-0.434,0.584-1.201,0.584-1.935c0-1.067-0.534-1.567-1.201-1.567
					c-0.7,0-1.084,0.417-1.484,1.501c-0.517,1.451-1.317,2.135-2.285,2.135c-1.301,0-2.368-1.051-2.368-2.785
					c0-0.817,0.233-1.535,0.501-1.985l1.067,0.367c-0.2,0.317-0.468,0.901-0.468,1.651c0,0.867,0.501,1.351,1.102,1.351
					c0.667,0,0.967-0.484,1.367-1.535c0.534-1.401,1.234-2.118,2.435-2.118c1.418,0,2.419,1.101,2.419,3.019
					c0,0.884-0.217,1.701-0.551,2.268L141.409,64.496z"/>
			</g>
		</g>
	</g>
	
		<polyline id="XMLID_70_" fill="#FFFFFF" stroke="#171C28" stroke-width="3" stroke-linecap="round" stroke-linejoin="round" stroke-miterlimit="10" points="
		116.438,140.4 116.438,170.775 25.313,170.775 25.313,131.963 116.438,131.963 	"/>
	<g id="XMLID_65_">
		
			<line id="XMLID_69_" fill="none" stroke="#171C28" stroke-width="3" stroke-linecap="round" stroke-linejoin="round" stroke-miterlimit="10" x1="25.313" y1="177.188" x2="116.438" y2="177.188"/>
		
			<line id="XMLID_68_" fill="none" stroke="#171C28" stroke-width="3" stroke-linecap="round" stroke-linejoin="round" stroke-miterlimit="10" x1="25.313" y1="183.938" x2="116.438" y2="183.938"/>
		
			<line id="XMLID_67_" fill="none" stroke="#171C28" stroke-width="3" stroke-linecap="round" stroke-linejoin="round" stroke-miterlimit="10" x1="25.313" y1="190.688" x2="116.438" y2="190.688"/>
		
			<line id="XMLID_66_" fill="none" stroke="#171C28" stroke-width="3" stroke-linecap="round" stroke-linejoin="round" stroke-miterlimit="10" x1="25.313" y1="197.438" x2="116.438" y2="197.438"/>
	</g>
	
		<polyline id="XMLID_64_" fill="none" stroke="#171C28" stroke-width="3" stroke-linecap="round" stroke-linejoin="round" stroke-miterlimit="10" points="
		99.9,138.375 103.95,138.375 108.337,145.125 108.337,153.9 104.288,157.95 96.525,157.95 	"/>
	
		<polyline id="XMLID_63_" fill="none" stroke="#171C28" stroke-width="3" stroke-linecap="round" stroke-linejoin="round" stroke-miterlimit="10" points="
		43.538,138.375 38.138,138.375 32.063,145.125 32.063,153.9 37.462,157.95 43.538,157.95 	"/>
	<g id="XMLID_55_">
		
			<ellipse id="XMLID_62_" fill="#FFFFFF" stroke="#171C28" stroke-width="3" stroke-linecap="round" stroke-linejoin="round" stroke-miterlimit="10" cx="71.55" cy="151.538" rx="13.163" ry="13.163"/>
		<ellipse id="XMLID_61_" fill="#0D3178" cx="71.55" cy="151.538" rx="10.462" ry="10.462"/>
	</g>
</g>
<g>
	<path fill="#FFFFFF" d="M66.293,146.499h1.15v4.295h0.039c0.238-0.344,0.476-0.661,0.7-0.951l2.722-3.344h1.427l-3.224,3.779
		l3.475,5.126h-1.36l-2.934-4.373l-0.845,0.979v3.395h-1.15V146.499z"/>
	<path fill="#FFFFFF" d="M73.26,154.216c0.344,0.224,0.952,0.463,1.533,0.463c0.845,0,1.241-0.423,1.241-0.952
		c0-0.556-0.33-0.858-1.188-1.176c-1.15-0.409-1.691-1.044-1.691-1.81c0-1.031,0.832-1.876,2.207-1.876
		c0.647,0,1.216,0.185,1.572,0.396l-0.291,0.846c-0.25-0.158-0.713-0.37-1.308-0.37c-0.688,0-1.07,0.396-1.07,0.872
		c0,0.528,0.383,0.767,1.216,1.084c1.109,0.423,1.678,0.978,1.678,1.929c0,1.123-0.872,1.916-2.392,1.916
		c-0.7,0-1.348-0.172-1.797-0.436L73.26,154.216z"/>
</g>
</svg>
