<?xml version="1.0" encoding="utf-8"?>
<!-- Generator: Adobe Illustrator 17.0.0, SVG Export Plug-In . SVG Version: 6.00 Build 0)  -->
<!DOCTYPE svg PUBLIC "-//W3C//DTD SVG 1.1//EN" "http://www.w3.org/Graphics/SVG/1.1/DTD/svg11.dtd">
<svg version="1.1" id="Layer_1" xmlns="http://www.w3.org/2000/svg" xmlns:xlink="http://www.w3.org/1999/xlink" x="0px" y="0px"
	 width="288px" height="216px" viewBox="0 0 288 216" enable-background="new 0 0 288 216" xml:space="preserve">
<polyline id="XMLID_765_" fill="#FFFFFF" stroke="#171C28" stroke-width="4" stroke-linecap="round" stroke-linejoin="round" stroke-miterlimit="10" points="
	135.563,62.775 186.525,62.775 186.525,183.938 65.7,183.938 65.7,62.775 80.887,62.775 "/>
<line id="XMLID_760_" fill="none" stroke="#4C5C68" stroke-width="4" stroke-linecap="round" stroke-linejoin="round" stroke-miterlimit="10" x1="126.787" y1="93.15" x2="126.787" y2="84.037"/>
<polyline id="XMLID_659_" fill="#0D3178" stroke="#171C28" stroke-width="4" stroke-linecap="round" stroke-linejoin="round" stroke-miterlimit="10" points="
	110.25,187.65 110.25,154.575 160.538,154.575 160.538,187.65 "/>
<g>
	<g>
		<path fill="#FFFFFF" d="M220.613,162.675c0,0.337,0,1.012-0.337,1.35c0.675,0.337,1.012,0.337,1.688,0.675
			c0.675,0.337,1.688,0.675,2.363,1.012c1.35,0.337,1.688,1.688,1.35,3.038s-1.012,2.7-1.35,4.05
			c-0.337,1.012-1.688,1.688-3.038,1.35s-2.363-1.012-3.712-1.35c-0.337,0-0.337,0-0.675,0.337c-1.012,1.688-2.7,3.375-4.05,4.725
			c-0.337,0.337-0.675,0.675-1.012,1.012c0.337,1.012,1.012,2.025,1.35,3.038c0,0.337,0.337,0.337,0.337,0.675
			c0.337,1.012,0,2.363-1.012,3.038c-1.35,0.675-2.7,1.35-4.05,1.688c-1.012,0.337-2.363,0-2.7-1.012
			c-0.675-1.35-1.012-2.363-1.688-3.712v-0.337c-0.675,0-1.35,0.337-2.025,0.337c-0.337,0-0.675,0-1.012,0l0,0
			c-1.012,0-2.363,0-3.375,0h-0.337c-0.337,0-0.337,0-0.675,0c-0.337,0-0.675,0-1.012,0c-0.337,1.012-0.675,2.025-1.012,3.038
			c0,0.337-0.337,0.675-0.337,1.012c-0.337,1.012-1.688,1.688-3.038,1.35c-1.35-0.338-2.7-1.013-4.05-1.35
			c-1.012-0.337-1.688-1.688-1.35-3.038s1.012-2.363,1.35-3.712c0-0.337,0-0.337-0.337-0.337c-1.35-1.013-2.7-2.025-3.712-3.038
			c-0.675-0.675-1.012-1.35-1.688-2.025c0,0,0,0-0.337-0.338c-1.012,0.338-2.025,1.012-3.038,1.35
			c-0.337,0.337-1.012,0.337-1.35,0.337c-1.012,0.338-2.025-0.337-2.363-1.35c-0.675-1.35-1.35-2.7-1.688-4.05
			c-0.337-1.012,0-2.363,1.012-2.7c1.35-0.675,2.363-1.013,3.712-1.688c0.337,0,0.337-0.338,0.337-0.675
			c0-0.675-0.337-1.688-0.337-2.363v-0.337l0,0c0-0.675,0-1.688,0-2.363c0-1.012,0-1.688,0.337-2.7
			c-1.012-0.338-1.688-0.675-2.363-1.013c-0.337,0-1.012-0.337-1.35-0.337c-1.35-0.337-1.688-1.688-1.35-3.038
			c0.337-1.35,1.012-2.7,1.35-3.712c0.337-1.012,2.025-1.688,3.038-1.35c1.35,0.338,2.363,1.013,3.712,1.35h0.337
			c1.35-2.363,3.038-4.05,5.4-5.738l0,0c-0.337-1.012-1.012-2.025-1.35-3.037c0-0.338-0.337-0.675-0.337-0.675
			c-0.675-1.35,0-2.7,1.012-3.038c1.35-0.675,2.363-1.012,3.712-1.688c1.012-0.337,2.363,0,3.038,1.012
			c0.337,0.675,0.675,1.35,1.012,2.025c0.337,0.675,0.675,1.012,0.675,1.688c0,0.337,0.337,0.337,0.337,0.337
			c1.35,0,2.363-0.337,3.712-0.337c0.337,0,1.012,0,1.35,0h0.337c0.337,0,0.675,0,1.35,0c0.337,0,0.675,0,0.675,0
			c0.337,0,0.337,0,0.675-0.337c0.337-1.012,1.012-2.363,1.35-3.375c0.337-1.35,1.688-1.688,3.038-1.35s2.7,1.012,4.05,1.35
			c1.012,0.337,1.688,1.688,1.35,3.038s-1.012,2.363-1.35,3.712c0,0.337,0,0.337,0.337,0.337c1.35,1.012,2.7,2.025,3.712,3.038
			c0.675,0.675,1.35,1.35,1.688,2.025c0,0,0,0,0.337,0.337c0.675-0.337,1.35-0.675,2.025-1.012c0.675-0.337,1.35-0.675,2.025-1.012
			c1.012-0.337,2.025,0.337,2.363,1.35c0.675,1.35,1.35,2.7,1.688,4.05c0.337,1.012,0,2.363-1.012,2.7
			c-1.35,0.675-2.363,1.012-3.712,1.688c0,0-0.337,0-0.337,0.337c0,1.012,0.337,2.363,0.337,3.375c0,0,0,0,0,0.337
			C220.612,161.325,220.612,162,220.613,162.675C220.613,162,220.613,162.337,220.613,162.675z M199.012,145.125
			c-8.438,0-15.525,7.087-15.525,15.525s7.087,15.525,15.525,15.525c8.775,0,15.525-6.75,15.525-15.525
			C214.538,152.212,207.45,145.125,199.012,145.125z"/>
	</g>
	
		<path fill="#FFFFFF" stroke="#171C28" stroke-width="4" stroke-linecap="round" stroke-linejoin="round" stroke-miterlimit="10" d="
		M220.613,162.675c0,0.337,0,1.012-0.337,1.35c0.675,0.337,1.012,0.337,1.688,0.675c0.675,0.337,1.688,0.675,2.363,1.012
		c1.35,0.337,1.688,1.688,1.35,3.038s-1.012,2.7-1.35,4.05c-0.337,1.012-1.688,1.688-3.038,1.35s-2.363-1.012-3.712-1.35
		c-0.337,0-0.337,0-0.675,0.337c-1.012,1.688-2.7,3.375-4.05,4.725c-0.337,0.337-0.675,0.675-1.012,1.012
		c0.337,1.012,1.012,2.025,1.35,3.038c0,0.337,0.337,0.337,0.337,0.675c0.337,1.012,0,2.363-1.012,3.038
		c-1.35,0.675-2.7,1.35-4.05,1.688c-1.012,0.337-2.363,0-2.7-1.012c-0.675-1.35-1.012-2.363-1.688-3.712v-0.337
		c-0.675,0-1.35,0.337-2.025,0.337c-0.337,0-0.675,0-1.012,0l0,0c-1.012,0-2.363,0-3.375,0h-0.337c-0.337,0-0.337,0-0.675,0
		c-0.337,0-0.675,0-1.012,0c-0.337,1.012-0.675,2.025-1.012,3.038c0,0.337-0.337,0.675-0.337,1.012
		c-0.337,1.012-1.688,1.688-3.038,1.35c-1.35-0.338-2.7-1.013-4.05-1.35c-1.012-0.337-1.688-1.688-1.35-3.038
		s1.012-2.363,1.35-3.712c0-0.337,0-0.337-0.337-0.337c-1.35-1.013-2.7-2.025-3.712-3.038c-0.675-0.675-1.012-1.35-1.688-2.025
		c0,0,0,0-0.337-0.338c-1.012,0.338-2.025,1.012-3.038,1.35c-0.337,0.337-1.012,0.337-1.35,0.337
		c-1.012,0.338-2.025-0.337-2.363-1.35c-0.675-1.35-1.35-2.7-1.688-4.05c-0.337-1.012,0-2.363,1.012-2.7
		c1.35-0.675,2.363-1.013,3.712-1.688c0.337,0,0.337-0.338,0.337-0.675c0-0.675-0.337-1.688-0.337-2.363v-0.337l0,0
		c0-0.675,0-1.688,0-2.363c0-1.012,0-1.688,0.337-2.7c-1.012-0.338-1.688-0.675-2.363-1.013c-0.337,0-1.012-0.337-1.35-0.337
		c-1.35-0.337-1.688-1.688-1.35-3.038c0.337-1.35,1.012-2.7,1.35-3.712c0.337-1.012,2.025-1.688,3.038-1.35
		c1.35,0.338,2.363,1.013,3.712,1.35h0.337c1.35-2.363,3.038-4.05,5.4-5.738l0,0c-0.337-1.012-1.012-2.025-1.35-3.037
		c0-0.338-0.337-0.675-0.337-0.675c-0.675-1.35,0-2.7,1.012-3.038c1.35-0.675,2.363-1.012,3.712-1.688
		c1.012-0.337,2.363,0,3.038,1.012c0.337,0.675,0.675,1.35,1.012,2.025c0.337,0.675,0.675,1.012,0.675,1.688
		c0,0.337,0.337,0.337,0.337,0.337c1.35,0,2.363-0.337,3.712-0.337c0.337,0,1.012,0,1.35,0h0.337c0.337,0,0.675,0,1.35,0
		c0.337,0,0.675,0,0.675,0c0.337,0,0.337,0,0.675-0.337c0.337-1.012,1.012-2.363,1.35-3.375c0.337-1.35,1.688-1.688,3.038-1.35
		s2.7,1.012,4.05,1.35c1.012,0.337,1.688,1.688,1.35,3.038s-1.012,2.363-1.35,3.712c0,0.337,0,0.337,0.337,0.337
		c1.35,1.012,2.7,2.025,3.712,3.038c0.675,0.675,1.35,1.35,1.688,2.025c0,0,0,0,0.337,0.337c0.675-0.337,1.35-0.675,2.025-1.012
		c0.675-0.337,1.35-0.675,2.025-1.012c1.012-0.337,2.025,0.337,2.363,1.35c0.675,1.35,1.35,2.7,1.688,4.05
		c0.337,1.012,0,2.363-1.012,2.7c-1.35,0.675-2.363,1.012-3.712,1.688c0,0-0.337,0-0.337,0.337c0,1.012,0.337,2.363,0.337,3.375
		c0,0,0,0,0,0.337C220.612,161.325,220.612,162,220.613,162.675C220.613,162,220.613,162.337,220.613,162.675z"/>
	
		<path fill="#00984A" stroke="#171C28" stroke-width="4" stroke-linecap="round" stroke-linejoin="round" stroke-miterlimit="10" d="
		M199.012,149.5c6.75,0,12.15,5.4,12.15,12.15s-5.4,12.15-12.15,12.15s-12.15-5.4-12.15-12.15S192.262,149.5,199.012,149.5z"/>
</g>
<path id="XMLID_661_" fill="#FFFFFF" stroke="#171C28" stroke-width="4" stroke-linecap="round" stroke-linejoin="round" stroke-miterlimit="10" d="
	M139.95,67.162l17.212,18.9v28.35l-4.725,13.837v26.663h-35.1v-10.8c0,0-10.463-14.512-9.787-26.663"/>
<rect id="XMLID_762_" x="82.575" y="29.362" fill="#FFFFFF" stroke="#171C28" stroke-width="4" stroke-linecap="round" stroke-linejoin="round" stroke-miterlimit="10" width="53.325" height="76.613"/>
<line id="XMLID_761_" fill="none" stroke="#171C28" stroke-width="4" stroke-linecap="round" stroke-linejoin="round" stroke-miterlimit="10" x1="93.037" y1="104.963" x2="93.037" y2="31.05"/>
<line id="XMLID_759_" fill="none" stroke="#171C28" stroke-width="4" stroke-linecap="round" stroke-linejoin="round" stroke-miterlimit="10" x1="126.787" y1="78.3" x2="126.787" y2="72.225"/>
<line id="XMLID_705_" fill="none" stroke="#171C28" stroke-width="4" stroke-linecap="round" stroke-linejoin="round" stroke-miterlimit="10" x1="126.787" y1="63.45" x2="126.787" y2="57.375"/>
<circle id="XMLID_703_" fill="#D71920" cx="111.6" cy="45.225" r="7.425"/>
<circle id="XMLID_701_" fill="#0D3178" cx="111.6" cy="56.363" r="7.425"/>
<path id="XMLID_660_" fill="#FFFFFF" stroke="#171C28" stroke-width="4" stroke-linecap="round" stroke-linejoin="round" stroke-miterlimit="10" d="
	M140.962,98.887l-18.9-18.9c0,0-11.137-5.4-11.137,11.137L127.8,108c0,0-1.35,15.862,11.813,28.35"/>
</svg>
