<?xml version="1.0" encoding="utf-8"?>
<!-- Generator: Adobe Illustrator 17.0.0, SVG Export Plug-In . SVG Version: 6.00 Build 0)  -->
<!DOCTYPE svg PUBLIC "-//W3C//DTD SVG 1.1//EN" "http://www.w3.org/Graphics/SVG/1.1/DTD/svg11.dtd">
<svg version="1.1" id="Layer_1" xmlns="http://www.w3.org/2000/svg" xmlns:xlink="http://www.w3.org/1999/xlink" x="0px" y="0px"
	 width="288px" height="216px" viewBox="0 0 288 216" enable-background="new 0 0 288 216" xml:space="preserve">
<g id="XMLID_908_">
	<path fill="#FFFFFF" d="M188.55,121.837H98.438v-81c0-3.375,2.7-6.412,6.412-6.412h77.625c3.375,0,6.413,2.7,6.413,6.412v81H188.55
		z"/>
</g>
<path fill="#FFFFFF" stroke="#171C28" stroke-width="4" stroke-linecap="round" stroke-linejoin="round" stroke-miterlimit="10" d="
	M96.75,92.813V43.875c0-5.4,4.387-9.45,9.45-9.45h74.25c5.4,0,9.45,4.388,9.45,9.45v48.938"/>
<g id="XMLID_1104_">
	<path fill="#CEE8FA" d="M218.25,180.225H67.387c-2.025,0-3.375-1.688-3.375-3.375V70.2c0-1.688,1.35-3.375,3.375-3.375H218.25
		c1.688,0,3.375,1.688,3.375,3.375v106.65C221.625,178.538,220.275,180.225,218.25,180.225z"/>
</g>
<g id="XMLID_923_">
	
		<path id="XMLID_823_" fill="#FFFFFF" stroke="#171C28" stroke-width="4" stroke-linecap="round" stroke-linejoin="round" stroke-miterlimit="10" d="
		M202.05,63.45h15.863c4.05,0,7.087,3.375,7.087,7.088v105.3c0,4.05-3.375,7.087-7.087,7.087H68.063
		c-4.05,0-7.088-3.375-7.088-7.087V70.875c0-4.05,3.375-7.088,7.088-7.088h14.512"/>
	<path id="XMLID_822_" fill="none" stroke="#4C5C68" stroke-width="4" stroke-miterlimit="10" d="M67.387,176.175
		c0,0.337,0.338,0.675,0.675,0.675h149.85c0.337,0,0.675-0.337,0.675-0.675"/>
</g>
<g id="XMLID_907_">
	<rect id="XMLID_1347_" x="155.737" y="42.138" fill="#ABE0F9" width="14.175" height="6.412"/>
</g>
<g id="XMLID_905_">
	<polygon fill="#D1D2D4" points="80.25,84.988 79.912,84.988 79.912,154.175 139.988,119.75 	"/>
</g>
<g id="XMLID_904_">
	<polygon fill="#D1D2D4" points="204.725,84.662 144.988,118.75 204.387,153.85 204.725,153.85 	"/>
</g>
<g id="XMLID_902_">
	<polygon fill="#D1D2D4" points="82.912,151.175 82.912,151.85 202.387,151.85 142.988,116.75 108.9,136.325 	"/>
</g>
<g id="XMLID_901_">
	
		<line id="XMLID_817_" fill="none" stroke="#171C28" stroke-width="4" stroke-linecap="round" stroke-linejoin="round" stroke-miterlimit="10" x1="201.375" y1="152.887" x2="81.225" y2="83.363"/>
</g>
<g id="XMLID_900_">
	
		<line id="XMLID_821_" fill="none" stroke="#171C28" stroke-width="4" stroke-linecap="round" stroke-linejoin="round" stroke-miterlimit="10" x1="205.762" y1="83.025" x2="82.912" y2="153.225"/>
</g>
<g id="XMLID_898_">
	<rect id="XMLID_1342_" x="112.95" y="59.4" fill="#D71920" width="62.438" height="6.412"/>
</g>
<g id="XMLID_889_">
	<rect id="XMLID_1341_" x="112.95" y="74.587" fill="#0D3178" width="62.438" height="6.412"/>
</g>
<g id="XMLID_865_">
	<rect id="XMLID_1340_" x="112.95" y="89.775" fill="#00984A" width="62.438" height="6.412"/>
</g>
<path fill="none" stroke="#171C28" stroke-width="4" stroke-linecap="round" stroke-linejoin="round" stroke-miterlimit="10" d="
	M190.913,72.225c8.775,0,15.863,7.088,15.863,15.862v65.137H79.537V88.088c0-8.775,7.088-15.862,15.862-15.862"/>
<path fill="#C6EAFB" stroke="#171C28" stroke-width="4" stroke-linecap="round" stroke-linejoin="round" stroke-miterlimit="10" d="
	M124.425,167.063H57.263v9.45c0,5.738,4.388,10.125,10.125,10.125H220.95c5.738,0,10.125-4.387,10.125-10.125v-9.45h-79.313
	l-5.063,9.788h-16.2L124.425,167.063z"/>
</svg>
