<?xml version="1.0" encoding="utf-8"?>
<!-- Generator: Adobe Illustrator 17.0.0, SVG Export Plug-In . SVG Version: 6.00 Build 0)  -->
<!DOCTYPE svg PUBLIC "-//W3C//DTD SVG 1.1//EN" "http://www.w3.org/Graphics/SVG/1.1/DTD/svg11.dtd">
<svg version="1.1" id="Layer_1" xmlns="http://www.w3.org/2000/svg" xmlns:xlink="http://www.w3.org/1999/xlink" x="0px" y="0px"
	 width="288px" height="216px" viewBox="0 0 288 216" enable-background="new 0 0 288 216" xml:space="preserve">
<g>
	<polygon fill="#4799AF" points="116.526,141.489 116.526,149.21 116.526,153.47 116.526,171.468 158.425,171.468 158.425,153.47 
		158.425,149.21 158.425,141.489 	"/>
	<g>
		<path fill="#5EBFD2" d="M168.689,171.392c0-3.225-2.045-5.848-4.563-5.848h-53.308c-2.52,0-4.56,2.623-4.56,5.848v2.563h62.431
			V171.392z"/>
	</g>
	<path fill="#5EBFD2" d="M203.158,55.711c0-5.67-4.586-10.265-10.257-10.265H82.039c-5.661,0-10.26,4.595-10.26,10.265v70.294
		h131.378V55.711z"/>
	<path fill="#5EBFD2" d="M71.779,126.005v12.943c0,5.672,4.598,10.262,10.26,10.262H192.9c5.671,0,10.257-4.59,10.257-10.262
		v-12.943H71.779z"/>
	<rect x="83.024" y="57.584" fill="#E4E4E4" width="108.899" height="68.421"/>
	<path fill="#4799AF" d="M141.355,137.608c0,2.145-1.739,3.881-3.879,3.881c-2.151,0-3.883-1.736-3.883-3.881
		c0-2.142,1.732-3.883,3.883-3.883C139.616,133.725,141.355,135.466,141.355,137.608z"/>
	<g>
		<path fill="#3E8F96" d="M138.685,135.013c0.781,0,1.505,0.234,2.118,0.633c-0.676-1.143-1.907-1.92-3.326-1.92
			c-2.151,0-3.883,1.741-3.883,3.883c0,1.363,0.701,2.557,1.764,3.249c-0.351-0.578-0.554-1.243-0.554-1.963
			C134.804,136.747,136.539,135.013,138.685,135.013z"/>
	</g>
	<rect x="116.526" y="164.593" fill="#46919D" width="41.898" height="0.951"/>
	<g>
		<g>
			<polygon fill="#F1473D" points="169.047,34.946 186.409,55.948 161.812,55.948 154.11,34.946 			"/>
			<polygon fill="#F2D24D" points="154.11,34.946 161.812,55.948 137.217,55.948 137.217,34.946 			"/>
		</g>
		<g>
			<polygon fill="#F2D24D" points="184.071,34.946 211.005,55.948 186.409,55.948 169.047,34.946 			"/>
		</g>
		<g>
			<path fill="#F2B824" d="M137.216,55.948v2.582c0,6.792,5.507,12.298,12.298,12.298c6.793,0,12.298-5.506,12.298-12.298v-2.582
				H137.216z"/>
		</g>
		<g>
			<path fill="#DE413D" d="M161.812,55.948v2.582c0,6.792,5.507,12.298,12.298,12.298c6.794,0,12.299-5.506,12.299-12.298v-2.582
				H161.812z"/>
		</g>
		<g>
			<path fill="#F2C537" d="M186.408,55.948v2.582c0,6.792,5.506,12.298,12.298,12.298c6.793,0,12.298-5.506,12.298-12.298v-2.582
				H186.408z"/>
		</g>
		<g>
			<polygon fill="#F2D24D" points="105.388,34.946 88.025,55.948 112.622,55.948 120.325,34.946 			"/>
			<polygon fill="#F1473D" points="120.325,34.946 112.622,55.948 137.217,55.948 137.217,34.946 			"/>
		</g>
		<g>
			<polygon fill="#F1473D" points="90.363,34.946 63.43,55.948 88.025,55.948 105.388,34.946 			"/>
		</g>
		<g>
			<path fill="#DE413D" d="M137.219,55.948v2.582c0,6.792-5.507,12.298-12.297,12.298c-6.794,0-12.3-5.506-12.3-12.298v-2.582
				H137.219z"/>
		</g>
		<g>
			<path fill="#F2C537" d="M112.622,55.948v2.582c0,6.792-5.504,12.298-12.297,12.298c-6.794,0-12.3-5.506-12.3-12.298v-2.582
				H112.622z"/>
		</g>
		<g>
			<path fill="#DE413D" d="M88.027,55.948v2.582c0,6.792-5.508,12.298-12.297,12.298c-6.794,0-12.299-5.506-12.299-12.298v-2.582
				H88.027z"/>
		</g>
	</g>
	<rect x="90.073" y="29.246" fill="#F1473D" width="93.998" height="5.7"/>
</g>
<g>
	
		<path fill="#FFFFFF" stroke="#808284" stroke-width="4" stroke-linecap="round" stroke-linejoin="round" stroke-miterlimit="10" d="
		M193.613,169.425c-0.337,0.337-0.337,0.337-0.675,0.675c-2.7,2.7-5.063,5.063-7.762,7.762c-0.337,0.337-0.337,0.675-0.675,1.012
		c-0.337,1.35-0.675,2.7-1.012,4.05c0,0.337-0.337,0.675-0.337,0.675c-4.725,3.038-9.45,6.413-14.175,9.45
		c-1.35-1.35-2.363-2.363-3.712-3.712c0-0.337,0.337-0.675,0.337-0.675c3.038-4.387,5.738-8.775,8.775-13.163
		c0.337-0.337,0.675-0.675,1.012-0.675c1.35-0.337,2.7-0.675,4.05-1.012c0.337,0,0.675,0,0.675-0.337
		c2.7-2.7,5.738-5.738,8.438-8.438c0,0,0,0,0-0.337c-0.337-0.337-0.675-1.012-1.35-1.35c-1.688-2.025-3.712-4.05-5.4-5.738
		c-0.337-0.337-0.675-0.337-1.012-0.337c-10.125,3.038-20.25-3.038-22.613-13.163c-0.675-3.038-0.337-7.087,1.012-9.45
		c0.337,0.337,0.337,0.337,0.675,0.337c2.7,2.7,5.738,5.738,8.438,8.438c2.025,2.025,4.725,2.025,6.75,0
		c1.012-1.012,2.025-2.025,3.038-3.038c2.025-2.025,2.025-4.725,0-6.75c-2.7-2.7-5.738-5.738-8.438-8.438
		c-0.337-0.337-0.337-0.337-0.675-0.675c1.688-0.337,3.038-1.012,4.387-1.012c7.425-0.675,13.163,2.025,17.212,8.1
		c2.7,4.05,3.375,8.438,2.363,13.163c0,0.675,0,0.675,0.337,1.35c1.012,1.012,2.025,2.025,3.038,3.375
		c0.337-0.337,0.675-0.675,1.012-0.675c5.738-5.738,11.137-11.137,16.875-16.875c3.712-3.712,9.45-3.712,13.163-0.337
		c3.712,3.712,4.05,9.788,0.337,13.5c-1.012,1.012-2.025,2.025-3.038,3.038c-4.725,4.725-9.45,9.45-14.175,13.837
		c-0.337,0-0.337,0.337-0.675,0.337c0.337,0.337,0.337,0.337,0.675,0.675c5.063,4.725,9.788,9.788,14.85,14.512
		c2.025,2.025,3.038,4.387,3.038,7.087c0,3.712-2.025,7.087-5.738,8.775c-3.375,1.35-7.762,0.675-10.462-2.025
		c-3.038-3.038-6.075-6.413-9.113-9.788c-3.375-3.712-6.75-7.425-10.125-11.137C194.288,169.762,193.95,169.425,193.613,169.425z
		 M216.225,184.275c0,2.025,1.688,3.712,3.712,3.712s3.712-1.688,3.712-3.712s-1.688-3.712-3.712-3.712
		S216.225,182.25,216.225,184.275z"/>
	<g>
		<path fill="#6B6B6B" d="M222.975,138.375c0-1.012-0.337-1.688-1.012-1.688c-0.675-0.337-1.35,0-2.025,0.337
			c-2.025,2.025-4.05,4.05-6.075,6.075c-4.387,4.387-8.775,8.775-13.163,13.163c-0.675,0.675-1.012,1.688,0,2.363
			c0.675,0.675,1.688,0.675,2.363,0c6.413-6.413,12.488-12.488,18.9-18.9C222.637,139.05,222.975,138.712,222.975,138.375z"/>
	</g>
	<path fill="#FFFFFF" d="M216.225,184.275c0-2.025,1.688-3.712,3.712-3.712s3.712,1.688,3.712,3.712s-1.688,3.712-3.712,3.712
		C217.913,187.988,216.225,186.3,216.225,184.275z"/>
</g>
</svg>
