<svg xmlns="http://www.w3.org/2000/svg" viewBox="0 0 64 64" enable-background="new 0 0 64 64"><path fill="#fff" stroke="#4C5C68" stroke-miterlimit="10" d="M11.5 43.6l9.6-3.7 11.4-5.4 10.7 5.5 9.2 3.7v10.8h-40.9z"/><path fill="#F9CA38" d="M23.1 39.4l6 14.7h5.9l6.5-14.8-9.3-4.3-9.1 4.4z"/><path fill="#CEE8FA" stroke="#4C5C68" stroke-linecap="round" stroke-linejoin="round" stroke-miterlimit="10" d="M33.7 9.8c-5-.2-6.8 1.2-8.5 3.3-1.6 2-1.8 4.9-1.8 4.9l.1 9.2h18l.2-10.6c.1 0-.8-6.6-8-6.8z"/><path fill="#fff" stroke="#4C5C68" stroke-linecap="round" stroke-linejoin="round" stroke-miterlimit="10" d="M32.7 44.6h-.5c-2.9 0-5.2-2.3-5.2-5.2v-4.5h10.8v4.5c.1 2.9-2.2 5.2-5.1 5.2zM34.5 36.8h-4.7c-2.8 0-4.6-2.5-4.6-5.3v-2.2h-.3c-.9 0-1.8-.7-1.8-1.6s.8-1.6 1.7-1.6h.4v-10.7h14.7v10.7h.3c.9 0 1.6.7 1.6 1.6s-.7 1.6-1.6 1.6h-.3v2.2c0 1.5-.9 2.9-2 3.9"/><path fill="#CEE8FA" d="M40.2 14.7l.2 1.7-3.3-.9-.6 2.5-5.9-1 1.1 3.4s-4.6-3.5-5.3-4.2c0 0-1.7-.4-1.7.8 0 0-1.1-1.1.3-2.4"/><path stroke="#4C5C68" stroke-linecap="round" stroke-linejoin="round" stroke-miterlimit="10" d="M39.8 16.6l-2.7-.9-.6 2.5-5.9-1 1.1 3.4s-4.8-3.5-5.6-4.2c0 0-1.1.1-1 1.3M20.1 40.4v9.1h3.5l-.9 2.5M42.5 40v9.5h-2.2l.3 2.5M23.1 39.5l6.2 14.8M41.1 39.2l-6 15.1" fill="none"/><path fill="#fff" stroke="#4C5C68" stroke-linecap="round" stroke-linejoin="round" stroke-miterlimit="10" d="M52.762 54.455h-5.8v-35.9h5.8z"/><path fill="#286090" d="M52.365 33.18h-5v-14.6h5z"/><path fill="#fff" stroke="#4C5C68" stroke-linecap="round" stroke-linejoin="round" stroke-miterlimit="10" d="M50 13.2l2.8 5.1h-5.8z"/><path fill="#F9CA38" stroke="#4C5C68" stroke-linecap="round" stroke-linejoin="round" stroke-miterlimit="10" d="M51.262 57.177h-2.9v-2.7h2.9z"/><path stroke="#4C5C68" stroke-linecap="round" stroke-linejoin="round" stroke-miterlimit="10" d="M49.9 54.2v-13.3" fill="none"/><path stroke="#CEE8FA" stroke-linecap="round" stroke-linejoin="round" stroke-miterlimit="10" d="M51 29h-2M51 27h-2M51 25h-2" fill="none"/></svg>