<?xml version="1.0" encoding="utf-8"?>
<!-- Generator: Adobe Illustrator 17.0.0, SVG Export Plug-In . SVG Version: 6.00 Build 0)  -->
<!DOCTYPE svg PUBLIC "-//W3C//DTD SVG 1.1//EN" "http://www.w3.org/Graphics/SVG/1.1/DTD/svg11.dtd">
<svg version="1.1" id="Layer_1" xmlns="http://www.w3.org/2000/svg" xmlns:xlink="http://www.w3.org/1999/xlink" x="0px" y="0px"
	 width="288px" height="216px" viewBox="0 0 288 216" enable-background="new 0 0 288 216" xml:space="preserve">
<g>
	
		<polyline id="XMLID_1471_" fill="#FFFFFF" stroke="#171C28" stroke-width="3" stroke-linecap="round" stroke-linejoin="round" stroke-miterlimit="10" points="
		150.075,183.938 54.563,183.938 54.563,144.788 89.325,131.288 130.5,111.712 159.188,126.563 	"/>
	<path id="XMLID_1470_" fill="#0D3178" d="M97.088,128.925L119.7,182.25c0,0,16.538,0,21.262,0l19.575-54l-29.363-14.512
		L97.088,128.925z"/>
	
		<path id="XMLID_1469_" fill="#FFFFFF" stroke="#171C28" stroke-width="3" stroke-linecap="round" stroke-linejoin="round" stroke-miterlimit="10" d="
		M136.575,22.275c-18.225-0.675-24.637,4.387-30.713,11.813c-5.738,7.088-6.412,17.55-6.412,17.55l0.338,33.413h65.137l0.675-38.475
		C165.938,47.25,162.563,23.288,136.575,22.275z"/>
	
		<path id="XMLID_1468_" fill="#FFFFFF" stroke="#171C28" stroke-width="3" stroke-linecap="round" stroke-linejoin="round" stroke-miterlimit="10" d="
		M132.188,148.163h-0.675c-10.8,0-19.238-8.775-19.238-19.238v-15.863h39.15v15.863
		C151.425,139.387,142.988,148.163,132.188,148.163z"/>
	
		<path id="XMLID_1467_" fill="#FFFFFF" stroke="#171C28" stroke-width="3" stroke-linecap="round" stroke-linejoin="round" stroke-miterlimit="10" d="
		M139.275,120.15h-17.212c-10.125,0-16.537-9.113-16.537-19.238v-8.1c-3.375,0-1.012,0-1.35,0c-3.037,0-6.412-2.7-6.412-5.738
		s3.037-5.738,6.075-5.738c0.338,0-2.025,0,1.35,0V42.862h52.988v38.813c0,0,1.012,0,1.35,0c3.038,0,5.738,2.7,5.738,5.738
		s-2.7,5.738-5.738,5.738c-0.337,0-1.35,0-1.35,0v8.1c0,5.4-3.375,10.463-7.087,14.175"/>
	<path id="XMLID_1466_" fill="#FFFFFF" d="M160.538,40.5l0.675,6.075L149.4,43.538l-2.363,9.112l-21.262-3.375l4.05,12.488
		c0,0-16.537-12.825-19.238-15.188c0,0-6.412-1.35-6.075,3.037c0,0-3.713-3.713,1.012-8.775"/>
	
		<path id="XMLID_1465_" fill="#FFFFFF" stroke="#171C28" stroke-width="3" stroke-linecap="round" stroke-linejoin="round" stroke-miterlimit="10" d="
		M158.512,46.912l-9.788-3.375l-2.363,9.112L125.1,49.275l4.05,12.487c0,0-17.55-12.487-20.25-15.188c0,0-3.713,0.338-3.713,4.725"
		/>
	
		<polyline id="XMLID_1464_" fill="#FFFFFF" stroke="#171C28" stroke-width="3" stroke-linecap="round" stroke-linejoin="round" stroke-miterlimit="10" points="
		87.3,133.313 87.3,166.05 100.125,166.05 96.75,174.825 	"/>
	
		<line id="XMLID_1463_" fill="none" stroke="#171C28" stroke-width="3" stroke-linecap="round" stroke-linejoin="round" stroke-miterlimit="10" x1="98.1" y1="129.938" x2="120.375" y2="183.262"/>
	
		<line id="XMLID_345_" fill="none" stroke="#171C28" stroke-width="3" stroke-linecap="round" stroke-linejoin="round" stroke-miterlimit="10" x1="160.538" y1="129.938" x2="138.262" y2="183.262"/>
	
		<circle id="XMLID_1461_" fill="#ABE0F9" stroke="#171C28" stroke-width="3" stroke-linecap="round" stroke-linejoin="round" stroke-miterlimit="10" cx="194.625" cy="154.913" r="38.813"/>
	<g>
		<path fill="#0D3178" d="M210.15,149.175h-3.038v-4.05c0-7.087-5.738-12.488-12.488-12.488c-6.413,0-11.813,5.063-12.488,11.475
			c0,0.337,0,0.675,0,1.35v4.387h-2.025h-0.337c-0.337,0-1.012,0-1.35,0.337c0,0-0.337,0.337-0.337,0.675v22.613
			c0,1.012,1.012,1.688,1.688,1.688h30.375c0.337,0,0.675,0,0.675-0.337c0.337-0.337,0.337-0.675,0.337-1.012v-0.337V151.2
			C211.163,150.188,211.5,149.175,210.15,149.175z M185.175,145.125c0-5.4,4.387-9.45,9.45-9.45s9.45,4.387,9.45,9.45v4.387h-18.9
			V145.125z M184.163,145.125c0-0.337,0-0.675,0-1.012C184.163,144.113,184.163,144.45,184.163,145.125z M181.125,152.212h3.375
			h22.275h1.35v18.9h-27V152.212z"/>
		<path fill="#0D3178" d="M194.625,160.65c-0.675,0-1.35,0.675-1.35,1.35v5.063c0,0.675,0.675,1.35,1.35,1.35s1.35-0.675,1.35-1.35
			V162C196.313,161.325,195.637,160.65,194.625,160.65z"/>
	</g>
</g>
</svg>
