<?xml version="1.0" encoding="utf-8"?>
<!-- Generator: Adobe Illustrator 17.0.0, SVG Export Plug-In . SVG Version: 6.00 Build 0)  -->
<!DOCTYPE svg PUBLIC "-//W3C//DTD SVG 1.1//EN" "http://www.w3.org/Graphics/SVG/1.1/DTD/svg11.dtd">
<svg version="1.1" id="Layer_1" xmlns="http://www.w3.org/2000/svg" xmlns:xlink="http://www.w3.org/1999/xlink" x="0px" y="0px"
	 width="288px" height="216px" viewBox="0 0 288 216" enable-background="new 0 0 288 216" xml:space="preserve">
<g>
	
		<polyline fill="#FFFFFF" stroke="#171C28" stroke-width="4" stroke-linecap="round" stroke-linejoin="round" stroke-miterlimit="10" points="
		121.05,193.387 67.387,193.387 67.387,23.962 93.037,23.962 	"/>
	
		<polyline fill="#FFFFFF" stroke="#171C28" stroke-width="4" stroke-linecap="round" stroke-linejoin="round" stroke-miterlimit="10" points="
		177.75,23.962 220.613,23.962 220.613,193.387 202.725,193.387 	"/>
	
		<line fill="none" stroke="#171C28" stroke-width="4" stroke-linecap="round" stroke-linejoin="round" stroke-miterlimit="10" x1="177.75" y1="38.475" x2="219.262" y2="38.475"/>
	
		<line fill="none" stroke="#171C28" stroke-width="4" stroke-linecap="round" stroke-linejoin="round" stroke-miterlimit="10" x1="68.738" y1="177.525" x2="121.387" y2="177.525"/>
	<g id="XMLID_116_">
		<g id="XMLID_119_">
			<path id="XMLID_71_" fill="#FFFFFF" d="M170.325,60.075L189.9,81.337V113.4l-5.4,15.863v30.375h-39.488v-12.15
				c0,0-11.813-16.538-11.137-30.037"/>
			<g id="XMLID_125_">
				
					<rect id="XMLID_133_" x="106.47" y="17.84" fill="#FFFFFF" stroke="#171C28" stroke-width="4" stroke-linecap="round" stroke-linejoin="round" stroke-miterlimit="10" width="60.075" height="86.737"/>
				
					<line id="XMLID_131_" fill="none" stroke="#171C28" stroke-width="4" stroke-linecap="round" stroke-linejoin="round" stroke-miterlimit="10" x1="113.287" y1="102.938" x2="113.287" y2="19.237"/>
				
					<line id="XMLID_130_" fill="none" stroke="#4C5C68" stroke-width="4" stroke-linecap="round" stroke-linejoin="round" stroke-miterlimit="10" x1="156.488" y1="89.438" x2="156.488" y2="79.313"/>
				
					<line id="XMLID_129_" fill="none" stroke="#FFFFFF" stroke-width="4" stroke-linecap="round" stroke-linejoin="round" stroke-miterlimit="10" x1="156.488" y1="72.9" x2="156.488" y2="66.15"/>
				
					<line id="XMLID_128_" fill="none" stroke="#FFFFFF" stroke-width="4" stroke-linecap="round" stroke-linejoin="round" stroke-miterlimit="10" x1="156.488" y1="56.025" x2="156.488" y2="49.275"/>
				<circle id="XMLID_127_" fill="#D71920" cx="130.5" cy="36.113" r="8.438"/>
				<circle id="XMLID_126_" fill="#0D3178" cx="130.5" cy="48.938" r="8.438"/>
			</g>
			
				<path id="XMLID_54_" fill="none" stroke="#171C28" stroke-width="4" stroke-linecap="round" stroke-linejoin="round" stroke-miterlimit="10" d="
				M170.325,60.075L189.9,81.337V113.4l-5.4,15.863v30.375h-39.488v-12.15c0,0-11.813-16.538-11.137-30.037"/>
			
				<path id="XMLID_51_" fill="#FFFFFF" stroke="#171C28" stroke-width="4" stroke-linecap="round" stroke-linejoin="round" stroke-miterlimit="10" d="
				M171.675,96.188l-21.262-21.262c0,0-12.825-6.075-12.825,12.825l18.9,18.9c0,0-1.35,17.888,13.163,32.062"/>
			
				<polyline id="XMLID_42_" fill="#ABE0F9" stroke="#171C28" stroke-width="4" stroke-linecap="round" stroke-linejoin="round" stroke-miterlimit="10" points="
				136.575,196.425 136.575,159.3 193.613,159.3 193.613,196.425 			"/>
		</g>
	</g>
</g>
</svg>
