<?xml version="1.0" encoding="utf-8"?>
<!-- Generator: Adobe Illustrator 17.0.0, SVG Export Plug-In . SVG Version: 6.00 Build 0)  -->
<!DOCTYPE svg PUBLIC "-//W3C//DTD SVG 1.1//EN" "http://www.w3.org/Graphics/SVG/1.1/DTD/svg11.dtd">
<svg version="1.1" id="Layer_1" xmlns="http://www.w3.org/2000/svg" xmlns:xlink="http://www.w3.org/1999/xlink" x="0px" y="0px"
	 width="288px" height="216px" viewBox="0 0 288 216" enable-background="new 0 0 288 216" xml:space="preserve">
<g>
	
		<rect id="XMLID_104_" x="84.496" y="26.885" fill="#FFFFFF" stroke="#171C28" stroke-width="3" stroke-linecap="round" stroke-linejoin="round" stroke-miterlimit="10" width="110.363" height="142.425"/>
	
		<line id="XMLID_102_" fill="none" stroke="#6DCFF6" stroke-width="3" stroke-linecap="round" stroke-linejoin="round" stroke-miterlimit="10" x1="125.775" y1="161.325" x2="145.35" y2="161.325"/>
	
		<line id="XMLID_101_" fill="none" stroke="#6DCFF6" stroke-width="3" stroke-linecap="round" stroke-linejoin="round" stroke-miterlimit="10" x1="138.538" y1="34.425" x2="146.637" y2="34.425"/>
	
		<path id="XMLID_100_" fill="#FFFFFF" stroke="#171C28" stroke-width="3" stroke-linecap="round" stroke-linejoin="round" stroke-miterlimit="10" d="
		M64.012,176.512v-56.7l13.163-17.887h20.588c0,0,4.387,4.387-1.688,10.8c0,0-11.475,1.688-12.825,8.775
		c-1.35,7.425,7.763,9.113,9.788,14.512s5.4,25.65-4.725,40.838L64.012,176.512z"/>
	
		<polyline id="XMLID_99_" fill="#0D3178" stroke="#171C28" stroke-width="3" stroke-linecap="round" stroke-linejoin="round" stroke-miterlimit="10" points="
		60.3,205.538 60.3,176.85 114.637,176.85 114.637,205.538 	"/>
	<g id="XMLID_91_">
		<path id="XMLID_98_" fill="#FFFFFF" d="M227.7,147.15v-16.538c-7.762-7.762-16.2,0.337-16.2,0.337l2.7,8.438l-46.575-2.025
			c-8.1-11.813-15.188-0.675-15.188-0.675v32.738l23.625,21.938V205.2l43.538-0.337v-13.5c0-3.038,7.762-15.525,7.762-15.525
			v-15.525"/>
		
			<path id="XMLID_97_" fill="#FFFFFF" stroke="#171C28" stroke-width="3" stroke-linecap="round" stroke-linejoin="round" stroke-miterlimit="10" d="
			M219.6,205.2v-13.5c0-3.038,7.762-15.525,7.762-15.525V160.65"/>
		
			<path id="XMLID_96_" fill="#FFFFFF" stroke="#171C28" stroke-width="3" stroke-linecap="round" stroke-linejoin="round" stroke-miterlimit="10" d="
			M227.7,147.15v-16.538c-7.762-7.762-16.2,0.337-16.2,0.337l2.7,8.438l-46.575-2.025c-8.1-11.813-15.188-0.675-15.188-0.675v32.738
			l23.625,21.938V205.2"/>
		<polygon id="XMLID_95_" fill="#FFFFFF" points="172.688,131.962 181.125,122.85 189.225,121.163 197.325,124.538 203.063,122.512 
			209.813,124.2 209.137,127.913 221.288,140.4 205.762,149.85 176.738,149.85 171,146.137 		"/>
		
			<path id="XMLID_94_" fill="#FFFFFF" stroke="#171C28" stroke-width="3" stroke-linecap="round" stroke-linejoin="round" stroke-miterlimit="10" d="
			M168.3,161.663V89.438c0,0-2.025-7.425,5.738-7.425s6.075,6.75,6.075,6.75v41.175"/>
		
			<path id="XMLID_93_" fill="#FFFFFF" stroke="#171C28" stroke-width="3" stroke-linecap="round" stroke-linejoin="round" stroke-miterlimit="10" d="
			M181.125,122.512c0,0,6.75-6.75,14.85,1.012v6.75"/>
		
			<path id="XMLID_92_" fill="#FFFFFF" stroke="#171C28" stroke-width="3" stroke-linecap="round" stroke-linejoin="round" stroke-miterlimit="10" d="
			M198.675,126.225c0,0,5.063-8.1,13.163-0.337v8.1"/>
	</g>
	<g id="XMLID_88_">
		
			<circle id="XMLID_90_" fill="#FFFFFF" stroke="#0D3178" stroke-width="3" stroke-linecap="round" stroke-linejoin="round" stroke-miterlimit="10" cx="140.962" cy="89.1" r="19.575"/>
		
			<line id="XMLID_89_" fill="#FFFFFF" stroke="#0D3178" stroke-width="3" stroke-linecap="round" stroke-linejoin="round" stroke-miterlimit="10" x1="131.175" y1="106.65" x2="122.063" y2="119.813"/>
	</g>
</g>
</svg>
