<?xml version="1.0" encoding="utf-8"?>
<!-- Generator: Adobe Illustrator 17.0.0, SVG Export Plug-In . SVG Version: 6.00 Build 0)  -->
<!DOCTYPE svg PUBLIC "-//W3C//DTD SVG 1.1//EN" "http://www.w3.org/Graphics/SVG/1.1/DTD/svg11.dtd">
<svg version="1.1" id="Layer_1" xmlns="http://www.w3.org/2000/svg" xmlns:xlink="http://www.w3.org/1999/xlink" x="0px" y="0px"
	 width="288px" height="216px" viewBox="0 0 288 216" enable-background="new 0 0 288 216" xml:space="preserve">
<g>
	<g>
		<g>
			<g>
				<rect x="66.712" y="48.6" fill="#FFFFFF" width="112.725" height="118.125"/>
			</g>
			<g>
				<rect x="112.275" y="30.375" fill="#00984A" width="21.938" height="5.063"/>
			</g>
			<g>
				<g>
					<path fill="#ABE0F9" d="M138.262,182.587c0,2.7-2.7,5.063-5.738,5.063h-18.563c-3.037,0-5.738-2.363-5.738-5.063
						s2.7-5.063,5.738-5.063h18.563C135.563,177.525,138.262,179.887,138.262,182.587z"/>
				</g>
				<g>
					<path fill="#171C28" d="M133.2,191.7h-19.912c-5.063,0-9.113-4.05-9.113-9.113s4.05-9.113,9.113-9.113H133.2
						c5.063,0,9.113,4.05,9.113,9.113S137.925,191.7,133.2,191.7z M112.95,176.512c-3.375,0-6.075,2.7-6.075,6.075
						s2.7,6.075,6.075,6.075h19.913c3.375,0,6.075-2.7,6.075-6.075s-2.7-6.075-6.075-6.075H112.95z"/>
				</g>
			</g>
			<g>
				<path fill="#171C28" d="M164.587,197.1H81.563c-7.762,0-13.838-6.413-13.838-13.837V32.4c0-7.763,6.412-13.837,13.838-13.837
					h82.688c7.762,0,13.837,6.413,13.837,13.837v150.863C178.425,190.688,172.012,197.1,164.587,197.1z M81.563,21.263
					c-6.075,0-11.137,5.063-11.137,11.138v150.863c0,6.075,5.063,11.137,11.137,11.137h82.688c6.075,0,11.137-5.063,11.137-11.137
					V32.4c0-6.075-5.063-11.138-11.137-11.138H81.563z"/>
			</g>
			<g>
				<rect x="68.4" y="47.588" fill="#171C28" width="109.687" height="2.7"/>
			</g>
			<g>
				<rect x="68.4" y="164.025" fill="#171C28" width="109.687" height="2.7"/>
			</g>
		</g>
		<g>
			<circle fill="#00984A" cx="87.975" cy="105.975" r="10.125"/>
		</g>
		<g>
			<circle fill="#0D3178" cx="118.012" cy="105.975" r="10.125"/>
		</g>
		<g>
			<circle fill="#FED65C" cx="148.05" cy="105.975" r="10.125"/>
		</g>
	</g>
	<g>
		<g>
			<g id="XMLID_1695_">
				<g id="XMLID_1701_">
					<path fill="#FFFFFF" d="M122.063,87.075l49.613,28.012c1.35,0.675,3.375,0.675,4.725,0l46.575-28.35"/>
				</g>
			</g>
			<g>
				<path fill="#FFFFFF" d="M215.887,143.1H129.15c-4.05,0-7.087-3.375-7.087-7.087V86.738c0-4.05,3.375-7.088,7.087-7.088h86.738
					c4.05,0,7.087,3.375,7.087,7.088v49.275C223.313,139.725,219.938,143.1,215.887,143.1z"/>
			</g>
		</g>
		<g>
			<g id="XMLID_1634_">
				<g id="XMLID_1694_">
					<path fill="#00984A" d="M122.063,87.075l49.613,28.012c1.35,0.675,3.375,0.675,4.725,0l45.9-28.012
						c0,0,1.012-5.063-2.363-6.412s-52.313-1.35-52.313-1.35H129.15C129.15,79.313,121.387,80.325,122.063,87.075"/>
				</g>
			</g>
			<g id="XMLID_1574_">
				<g id="XMLID_1575_">
					<path fill="#171C28" d="M174.038,117.113c-1.012,0-2.025-0.337-3.038-0.675l-49.613-28.012l1.35-2.363l49.612,28.012
						c1.012,0.675,2.363,0.675,3.375,0l46.575-28.35l1.35,2.363l-46.575,28.35C176.4,116.775,175.05,117.113,174.038,117.113z"/>
				</g>
			</g>
			<g>
				<path fill="#171C28" d="M215.887,144.45H129.15c-4.725,0-8.437-3.712-8.437-8.438V86.738c0-4.725,3.713-8.438,8.437-8.438
					h86.738c4.725,0,8.438,3.713,8.438,8.438v49.275C224.663,140.738,220.613,144.45,215.887,144.45z M129.15,80.662
					c-3.375,0-5.737,2.7-5.737,5.738v49.275c0,3.375,2.7,5.738,5.737,5.738h86.738c3.375,0,5.738-2.7,5.738-5.738V86.738
					c0-3.375-2.7-5.738-5.738-5.738H129.15V80.662z"/>
			</g>
		</g>
		<g>
			
				<rect x="122.463" y="124.397" transform="matrix(-0.6462 0.7632 -0.7632 -0.6462 335.068 96.1542)" fill="#171C28" width="45.564" height="2.7"/>
		</g>
		<g>
			
				<rect x="199.671" y="102.979" transform="matrix(-0.7633 0.646 -0.646 -0.7633 435.7075 91.8916)" fill="#171C28" width="2.7" height="45.561"/>
		</g>
	</g>
</g>
</svg>
