<svg xmlns="http://www.w3.org/2000/svg" viewBox="0 0 64 64" enable-background="new 0 0 64 64"><path fill="#fff" stroke="#4C5C68" stroke-linecap="round" stroke-linejoin="round" stroke-miterlimit="10" d="M25.733 32.216v-25.7h14.6v25.7z"/><path stroke="#4C5C68" stroke-linecap="round" stroke-linejoin="round" stroke-miterlimit="10" d="M41.5 21.4l4.7 5.2v7.8l-1.2 3.9v7.4h-9.6v-3s-2.9-4-2.7-7.3" fill="none"/><path fill="#fff" stroke="#FEBD2E" stroke-linecap="round" stroke-linejoin="round" stroke-miterlimit="10" d="M30.2 25.7v2l1.6 1.2h2.4l1.5-1.1v-2.1"/><path fill="#fff" stroke="#4C5C68" stroke-linecap="round" stroke-linejoin="round" stroke-miterlimit="10" d="M41.9 30.2l-5.2-5.2s-3.1-1.4-3.1 3.1l4.6 4.6s-.3 4.3 3.2 7.8"/><path fill="#FEBD2E" stroke="#4C5C68" stroke-linecap="round" stroke-linejoin="round" stroke-miterlimit="10" d="M33.4 54.6v-9h13.9v9"/><path fill="#fff" stroke="#FEBD2E" stroke-linecap="round" stroke-linejoin="round" stroke-miterlimit="10" d="M35.7 12.3v-2l-1.5-1.2h-2.4l-1.6 1.1v2.1"/><ellipse fill="#fff" stroke="#4C5C68" stroke-linecap="round" stroke-linejoin="round" stroke-miterlimit="10" cx="33.2" cy="19" rx="4.4" ry="4.4"/><ellipse fill="#286090" cx="33.2" cy="19" rx="3.4" ry="3.5"/><path fill="#CEE8FA" d="M31.1 19c0-.1.1-.2.2-.2h.1c0-.3.1-.5.3-.8 0-.1.1-.1.2-.1.2 0 .3.1.3.3v.1c-.1.2-.2.3-.2.5h.9c.2-.7.5-1.1 1-1.1s.9.4 1 1h.3c.1 0 .2.1.2.2s-.1.2-.2.2h-.3c0 .4-.2.7-.4 1-.1.1-.1.1-.2.1-.2 0-.3-.1-.3-.3 0-.1 0-.1.1-.2.2-.2.3-.5.3-.7h-1c-.2.7-.5 1-1 1s-.9-.4-.9-1h-.1c-.2.3-.3.2-.3 0zm1.7.2h-.9c0 .3.2.5.4.5s.4-.1.5-.5zm.7-.4h.9c0-.3-.2-.5-.4-.5-.3.1-.4.2-.5.5z"/><path fill="#CEE8FA" stroke="#4C5C68" stroke-linecap="round" stroke-linejoin="round" stroke-miterlimit="10" d="M17 41.7h14"/><circle fill="#FEBD2E" cx="15" cy="41.7" r=".6"/><path fill="#CEE8FA" stroke="#4C5C68" stroke-linecap="round" stroke-linejoin="round" stroke-miterlimit="10" d="M17 45.3h14"/><circle fill="#FEBD2E" cx="15" cy="45.3" r=".6"/><path fill="#CEE8FA" stroke="#4C5C68" stroke-linecap="round" stroke-linejoin="round" stroke-miterlimit="10" d="M17 49h14"/><circle fill="#FEBD2E" cx="15" cy="49" r=".6"/><path fill="#CEE8FA" stroke="#4C5C68" stroke-linecap="round" stroke-linejoin="round" stroke-miterlimit="10" d="M17 52.5h14"/><circle fill="#FEBD2E" cx="15" cy="52.5" r=".6"/></svg>