<?xml version="1.0" encoding="utf-8"?>
<!-- Generator: Adobe Illustrator 17.0.0, SVG Export Plug-In . SVG Version: 6.00 Build 0)  -->
<!DOCTYPE svg PUBLIC "-//W3C//DTD SVG 1.1//EN" "http://www.w3.org/Graphics/SVG/1.1/DTD/svg11.dtd">
<svg version="1.1" id="Layer_1" xmlns="http://www.w3.org/2000/svg" xmlns:xlink="http://www.w3.org/1999/xlink" x="0px" y="0px"
	 width="288px" height="216px" viewBox="0 0 288 216" enable-background="new 0 0 288 216" xml:space="preserve">
<g>
	<g>
		
			<path fill="#FFFFFF" stroke="#171C28" stroke-width="4" stroke-linecap="round" stroke-linejoin="round" stroke-miterlimit="10" d="
			M171.337,149.006H59.287c-2.362,0-4.725-2.025-4.725-4.725V42.356c0-2.362,2.025-4.725,4.725-4.725h139.388
			c2.363,0,4.725,2.025,4.725,4.725v55.687"/>
		
			<line fill="none" stroke="#171C28" stroke-width="4" stroke-linecap="round" stroke-linejoin="round" stroke-miterlimit="10" x1="55.575" y1="131.119" x2="171.337" y2="131.119"/>
		
			<line fill="none" stroke="#171C28" stroke-width="4" stroke-linecap="round" stroke-linejoin="round" stroke-miterlimit="10" x1="122.363" y1="137.531" x2="137.55" y2="137.531"/>
		
			<line fill="none" stroke="#D71920" stroke-width="4" stroke-linecap="round" stroke-linejoin="round" stroke-miterlimit="10" x1="120.675" y1="108.169" x2="120.675" y2="114.244"/>
		
			<line fill="none" stroke="#0D3178" stroke-width="4" stroke-linecap="round" stroke-linejoin="round" stroke-miterlimit="10" x1="130.125" y1="108.169" x2="130.125" y2="114.244"/>
		
			<line fill="none" stroke="#00984A" stroke-width="4" stroke-linecap="round" stroke-linejoin="round" stroke-miterlimit="10" x1="139.238" y1="108.169" x2="139.238" y2="114.244"/>
		
			<rect x="108.225" y="149.006" fill="#FFFFFF" stroke="#171C28" stroke-width="4" stroke-linecap="round" stroke-linejoin="round" stroke-miterlimit="10" width="42.188" height="20.587"/>
		
			<polyline fill="none" stroke="#171C28" stroke-width="4" stroke-linecap="round" stroke-linejoin="round" stroke-miterlimit="10" points="
			98.438,175.669 98.438,169.594 162.9,169.594 162.9,175.669 		"/>
	</g>
	<g>
		
			<polyline id="XMLID_52_" fill="#FFFFFF" stroke="#171C28" stroke-width="4" stroke-linecap="round" stroke-linejoin="round" stroke-miterlimit="10" points="
			233.438,125.044 233.438,178.369 179.775,178.369 179.775,172.294 179.775,160.819 179.775,107.831 217.575,107.831 		"/>
		
			<polygon id="XMLID_50_" fill="#ABE0F9" stroke="#171C28" stroke-width="4" stroke-linecap="round" stroke-linejoin="round" stroke-miterlimit="10" points="
			217.238,106.819 217.238,124.706 233.438,124.706 		"/>
		
			<line id="XMLID_49_" fill="none" stroke="#171C28" stroke-width="2" stroke-linecap="round" stroke-linejoin="round" stroke-miterlimit="10" x1="202.387" y1="131.119" x2="222.975" y2="131.119"/>
		
			<line id="XMLID_48_" fill="none" stroke="#171C28" stroke-width="2" stroke-linecap="round" stroke-linejoin="round" stroke-miterlimit="10" x1="202.387" y1="137.531" x2="216.225" y2="137.531"/>
		
			<line id="XMLID_47_" fill="none" stroke="#171C28" stroke-width="2" stroke-linecap="round" stroke-linejoin="round" stroke-miterlimit="10" x1="187.538" y1="143.944" x2="217.575" y2="143.944"/>
		
			<line id="XMLID_46_" fill="none" stroke="#171C28" stroke-width="2" stroke-linecap="round" stroke-linejoin="round" stroke-miterlimit="10" x1="187.538" y1="151.369" x2="217.575" y2="151.369"/>
		
			<line id="XMLID_45_" fill="none" stroke="#171C28" stroke-width="2" stroke-linecap="round" stroke-linejoin="round" stroke-miterlimit="10" x1="187.538" y1="157.781" x2="217.575" y2="157.781"/>
		
			<line id="XMLID_44_" fill="none" stroke="#171C28" stroke-width="2" stroke-linecap="round" stroke-linejoin="round" stroke-miterlimit="10" x1="190.913" y1="164.194" x2="217.238" y2="164.194"/>
		
			<rect id="XMLID_43_" x="187.538" y="127.744" fill="#ABE0F9" stroke="#171C28" stroke-width="4" stroke-linecap="round" stroke-linejoin="round" stroke-miterlimit="10" width="9.788" height="9.788"/>
	</g>
</g>
</svg>
