<svg xmlns="http://www.w3.org/2000/svg" viewBox="0 0 64 64" enable-background="new 0 0 64 64"><path stroke="#4C5C68" stroke-linecap="round" stroke-linejoin="round" stroke-miterlimit="10" d="M43.9 44.1h-39.3c-.8 0-1.5-.7-1.5-1.5v-32.8c0-.8.7-1.5 1.5-1.5h45c.8 0 1.5.7 1.5 1.5v27.9m-47.7.7h40.4m-19.8 2.1h5m-5.5-9.5v2m3-2v2m3-2v2M21.4 44.1h13.6v6.7h-13.6zm-3.1 8.6v-1.9h20.8v1.9" fill="none"/><path fill="#CEE8FA" d="M47.8 35.3h-41.2v-23.5h41.2v16.9z"/><path fill="#fff" d="M59.7 48.2c0 .1 0 .3-.1.4l.5.2.7.3c.4.1.5.5.4.9l-.4 1.2c-.1.3-.5.5-.9.4l-1.1-.4c-.1 0-.1 0-.2.1-.3.5-.8 1-1.2 1.4l-.3.3.4.9.1.2c.1.3 0 .7-.3.9-.4.2-.8.4-1.2.5-.3.1-.7 0-.8-.3l-.5-1.1v-.1l-.6.1h-1.9l-.3.9-.1.3c-.1.3-.5.5-.9.4l-1.2-.4c-.3-.1-.5-.5-.4-.9l.4-1.1c0-.1 0-.1-.1-.1-.4-.3-.8-.6-1.1-.9l-.5-.6-.1-.1-.9.4c-.1.1-.3.1-.4.1-.3.1-.6-.1-.7-.4-.2-.4-.4-.8-.5-1.2-.1-.3 0-.7.3-.8l1.1-.5c.1 0 .1-.1.1-.2l-.1-.7v-.8c0-.3 0-.5.1-.8-.3-.1-.5-.2-.7-.3l-.4-.1c-.4-.1-.5-.5-.4-.9.1-.4.3-.8.4-1.1.1-.3.6-.5.9-.4l1.1.4h.1c.4-.7.9-1.2 1.6-1.7l-.4-.9c0-.1-.1-.2-.1-.2-.2-.4 0-.8.3-.9l1.1-.5c.3-.1.7 0 .9.3l.3.6c.1.2.2.3.2.5 0 .1.1.1.1.1l1.1-.1h1.1c.1 0 .1 0 .2-.1l.4-1c.1-.4.5-.5.9-.4l1.2.4c.3.1.5.5.4.9l-.4 1.1c0 .1 0 .1.1.1.4.3.8.6 1.1.9.2.2.4.4.5.6l.1.1.6-.3.6-.3c.3-.1.6.1.7.4.2.4.4.8.5 1.2.1.3 0 .7-.3.8l-1.1.5s-.1 0-.1.1l.1 1v.7zm-6.4-5.2c-2.5 0-4.6 2.1-4.6 4.6 0 2.5 2.1 4.6 4.6 4.6 2.6 0 4.6-2 4.6-4.6 0-2.5-2.1-4.6-4.6-4.6z"/><path fill="#fff" stroke="#4C5C68" stroke-miterlimit="10" d="M59.7 48.2c0 .1 0 .3-.1.4l.5.2.7.3c.4.1.5.5.4.9l-.4 1.2c-.1.3-.5.5-.9.4l-1.1-.4c-.1 0-.1 0-.2.1-.3.5-.8 1-1.2 1.4l-.3.3.4.9.1.2c.1.3 0 .7-.3.9-.4.2-.8.4-1.2.5-.3.1-.7 0-.8-.3l-.5-1.1v-.1l-.6.1h-1.9l-.3.9-.1.3c-.1.3-.5.5-.9.4l-1.2-.4c-.3-.1-.5-.5-.4-.9l.4-1.1c0-.1 0-.1-.1-.1-.4-.3-.8-.6-1.1-.9l-.5-.6-.1-.1-.9.4c-.1.1-.3.1-.4.1-.3.1-.6-.1-.7-.4-.2-.4-.4-.8-.5-1.2-.1-.3 0-.7.3-.8l1.1-.5c.1 0 .1-.1.1-.2l-.1-.7v-.8c0-.3 0-.5.1-.8-.3-.1-.5-.2-.7-.3l-.4-.1c-.4-.1-.5-.5-.4-.9.1-.4.3-.8.4-1.1.1-.3.6-.5.9-.4l1.1.4h.1c.4-.7.9-1.2 1.6-1.7l-.4-.9c0-.1-.1-.2-.1-.2-.2-.4 0-.8.3-.9l1.1-.5c.3-.1.7 0 .9.3l.3.6c.1.2.2.3.2.5 0 .1.1.1.1.1l1.1-.1h1.1c.1 0 .1 0 .2-.1l.4-1c.1-.4.5-.5.9-.4l1.2.4c.3.1.5.5.4.9l-.4 1.1c0 .1 0 .1.1.1.4.3.8.6 1.1.9.2.2.4.4.5.6l.1.1.6-.3.6-.3c.3-.1.6.1.7.4.2.4.4.8.5 1.2.1.3 0 .7-.3.8l-1.1.5s-.1 0-.1.1l.1 1v.7z"/><path fill="#286090" stroke="#4C5C68" stroke-width=".953" stroke-linecap="round" stroke-linejoin="round" stroke-miterlimit="10" d="M53.3 44c2 0 3.6 1.6 3.6 3.6s-1.6 3.6-3.6 3.6-3.6-1.6-3.6-3.6 1.6-3.6 3.6-3.6z"/></svg>