<?xml version="1.0" encoding="utf-8"?>
<!-- Generator: Adobe Illustrator 20.1.0, SVG Export Plug-In . SVG Version: 6.00 Build 0)  -->
<svg version="1.1" id="Layer_1" xmlns="http://www.w3.org/2000/svg" xmlns:xlink="http://www.w3.org/1999/xlink" x="0px" y="0px"
	 viewBox="0 0 64 64" enable-background="new 0 0 64 64" xml:space="preserve">
<g>
	<g id="XMLID_187_">
		<g id="XMLID_199_">
			<g id="XMLID_205_">
				
					<rect id="XMLID_207_" x="4.2" y="22.9" transform="matrix(-1 -1.224647e-16 1.224647e-16 -1 36.4367 61.7154)" fill="#FFFFFF" stroke="#4C5C68" stroke-linecap="round" stroke-linejoin="round" stroke-miterlimit="10" width="28.1" height="16"/>
				
					<line id="XMLID_206_" fill="#FFFFFF" stroke="#4C5C68" stroke-linecap="round" stroke-linejoin="round" stroke-miterlimit="10" x1="31.8" y1="37.1" x2="4.6" y2="37.1"/>
			</g>
			<path id="XMLID_204_" fill="none" stroke="#4C5C68" stroke-linecap="round" stroke-linejoin="round" stroke-miterlimit="10" d="
				M20.5,21.6l5.6-5.2h8.6l4.2,1.4h8v10.5h-3.2c0,0-4.4,3.1-8,3"/>
			
				<polyline id="XMLID_203_" fill="#FFFFFF" stroke="#FEBD2E" stroke-linecap="round" stroke-linejoin="round" stroke-miterlimit="10" points="
				25.2,33.5 27.4,33.5 28.7,31.8 28.7,29.2 27.5,27.5 25.2,27.5 			"/>
			
				<path id="XMLID_202_" fill="#FFFFFF" stroke="#4C5C68" stroke-linecap="round" stroke-linejoin="round" stroke-miterlimit="10" d="
				M30,21.2l-5.6,5.6c0,0-1.6,3.4,3.4,3.4l5-5c0,0,4.7,0.4,8.5-3.5"/>
			
				<polyline id="XMLID_201_" fill="#FEBD2E" stroke="#4C5C68" stroke-linecap="round" stroke-linejoin="round" stroke-miterlimit="10" points="
				56.8,30.5 46.8,30.5 46.8,15.4 56.8,15.4 			"/>
			
				<polyline id="XMLID_200_" fill="#FFFFFF" stroke="#FEBD2E" stroke-linecap="round" stroke-linejoin="round" stroke-miterlimit="10" points="
				10.6,27.5 8.4,27.5 7.1,29.2 7.1,31.8 8.2,33.5 10.6,33.5 			"/>
		</g>
		<g id="XMLID_188_">
			
				<ellipse id="XMLID_195_" fill="#FFFFFF" stroke="#4C5C68" stroke-linecap="round" stroke-linejoin="round" stroke-miterlimit="10" cx="17.8" cy="30.2" rx="4.8" ry="4.8"/>
			<ellipse id="XMLID_194_" fill="#286090" cx="17.8" cy="30.2" rx="3.8" ry="3.8"/>
			<g id="XMLID_189_">
				<path id="XMLID_190_" fill="#CEE8FA" d="M18,27.9c0.1,0,0.2,0.1,0.2,0.2v0.1c0.3,0,0.6,0.1,0.8,0.3c0.1,0,0.2,0.1,0.2,0.3
					c0,0.2-0.1,0.3-0.3,0.3c-0.1,0-0.1,0-0.2,0c-0.2-0.1-0.4-0.2-0.5-0.2v1c0.8,0.2,1.2,0.5,1.2,1.1c0,0.6-0.5,1-1.1,1v0.3
					c0,0.1-0.1,0.2-0.2,0.2c-0.1,0-0.2-0.1-0.2-0.2V32c-0.4,0-0.8-0.2-1.1-0.4c-0.1-0.1-0.1-0.1-0.1-0.3c0-0.2,0.1-0.3,0.3-0.3
					c0.1,0,0.1,0,0.2,0.1c0.3,0.2,0.5,0.3,0.8,0.4v-1c-0.8-0.2-1.1-0.5-1.1-1.1c0-0.6,0.5-1,1.1-1v-0.1C17.8,28,17.9,27.9,18,27.9z
					 M17.8,29.7v-0.9c-0.3,0-0.5,0.2-0.5,0.4C17.3,29.5,17.4,29.6,17.8,29.7z M18.2,30.5v1c0.3,0,0.5-0.2,0.5-0.5
					C18.7,30.7,18.6,30.6,18.2,30.5z"/>
			</g>
		</g>
	</g>
	<g>
		<g id="XMLID_186_">
			<path fill="#FFFFFF" d="M49.4,48.1c-5.5,0-10-4.5-10-10s4.5-10,10-10c5.5,0,10,4.5,10,10S54.9,48.1,49.4,48.1z"/>
			<g>
				<path fill="#4C5C68" d="M49.4,28.7c5.2,0,9.5,4.2,9.5,9.5s-4.2,9.5-9.5,9.5s-9.5-4.2-9.5-9.5S44.1,28.7,49.4,28.7 M49.4,27.7
					c-5.8,0-10.5,4.7-10.5,10.5s4.7,10.5,10.5,10.5s10.5-4.7,10.5-10.5S55.1,27.7,49.4,27.7L49.4,27.7z"/>
			</g>
		</g>
		
			<polyline id="XMLID_185_" fill="#FFFFFF" stroke="#4C5C68" stroke-linecap="round" stroke-linejoin="round" stroke-miterlimit="10" points="
			49.1,32.6 49.1,38.6 52.3,41.8 		"/>
		<g id="XMLID_184_">
			<circle fill="#FFFFFF" cx="49.2" cy="37.7" r="0.5"/>
			<path fill="#4C5C68" d="M49.2,37.2c-0.3,0-0.5,0.2-0.5,0.5s0.2,0.5,0.5,0.5c0.3,0,0.5-0.2,0.5-0.5S49.4,37.2,49.2,37.2L49.2,37.2
				z"/>
		</g>
		<g id="XMLID_180_">
			<circle fill="#FFFFFF" cx="49.2" cy="38.5" r="1.3"/>
			<g>
				<path fill="#4C5C68" d="M49.2,37.7c0.5,0,0.8,0.4,0.8,0.8s-0.4,0.8-0.8,0.8s-0.8-0.4-0.8-0.8S48.7,37.7,49.2,37.7 M49.2,36.7
					c-1,0-1.8,0.8-1.8,1.8c0,1,0.8,1.8,1.8,1.8c1,0,1.8-0.8,1.8-1.8C51,37.5,50.2,36.7,49.2,36.7L49.2,36.7z"/>
			</g>
		</g>
	</g>
</g>
</svg>
