<?xml version="1.0" encoding="utf-8"?>
<!-- Generator: Adobe Illustrator 17.0.0, SVG Export Plug-In . SVG Version: 6.00 Build 0)  -->
<!DOCTYPE svg PUBLIC "-//W3C//DTD SVG 1.1//EN" "http://www.w3.org/Graphics/SVG/1.1/DTD/svg11.dtd">
<svg version="1.1" id="Layer_1" xmlns="http://www.w3.org/2000/svg" xmlns:xlink="http://www.w3.org/1999/xlink" x="0px" y="0px"
	 width="288px" height="216px" viewBox="0 0 288 216" enable-background="new 0 0 288 216" xml:space="preserve">
<g>
	
		<polyline id="XMLID_178_" fill="#FFFFFF" stroke="#171C28" stroke-width="4" stroke-linecap="round" stroke-linejoin="round" stroke-miterlimit="10" points="
		228.038,60.412 228.038,117.113 59.963,117.113 59.963,45.225 228.038,45.225 	"/>
	<g id="XMLID_170_">
		
			<line id="XMLID_177_" fill="none" stroke="#171C28" stroke-width="4" stroke-linecap="round" stroke-linejoin="round" stroke-miterlimit="10" x1="59.963" y1="124.2" x2="228.038" y2="124.2"/>
		
			<line id="XMLID_176_" fill="none" stroke="#171C28" stroke-width="4" stroke-linecap="round" stroke-linejoin="round" stroke-miterlimit="10" x1="59.963" y1="132.3" x2="228.038" y2="132.3"/>
		
			<line id="XMLID_175_" fill="none" stroke="#171C28" stroke-width="4" stroke-linecap="round" stroke-linejoin="round" stroke-miterlimit="10" x1="59.963" y1="140.738" x2="228.038" y2="140.738"/>
		
			<line id="XMLID_174_" fill="none" stroke="#171C28" stroke-width="4" stroke-linecap="round" stroke-linejoin="round" stroke-miterlimit="10" x1="59.963" y1="149.175" x2="228.038" y2="149.175"/>
		
			<line id="XMLID_173_" fill="none" stroke="#171C28" stroke-width="4" stroke-linecap="round" stroke-linejoin="round" stroke-miterlimit="10" x1="59.963" y1="157.613" x2="228.038" y2="157.613"/>
		
			<line id="XMLID_172_" fill="none" stroke="#171C28" stroke-width="4" stroke-linecap="round" stroke-linejoin="round" stroke-miterlimit="10" x1="59.963" y1="165.712" x2="228.038" y2="165.712"/>
	</g>
	
		<polyline id="XMLID_169_" fill="#FFFFFF" stroke="#171C28" stroke-width="4" stroke-linecap="round" stroke-linejoin="round" stroke-miterlimit="10" points="
		96.075,61.762 82.238,61.762 70.088,72.225 70.088,93.15 81.225,106.313 96.075,106.313 	"/>
	
		<polyline id="XMLID_168_" fill="#FFFFFF" stroke="#171C28" stroke-width="4" stroke-linecap="round" stroke-linejoin="round" stroke-miterlimit="10" points="
		195.3,61.762 207.45,61.762 217.575,72.225 217.575,93.15 208.462,106.313 191.925,106.313 	"/>
	<g id="XMLID_160_">
		
			<ellipse id="XMLID_167_" fill="#FFFFFF" stroke="#171C28" stroke-width="4" stroke-linecap="round" stroke-linejoin="round" stroke-miterlimit="10" cx="145.688" cy="81" rx="24.637" ry="24.3"/>
		<ellipse id="XMLID_166_" fill="#0D3178" cx="145.688" cy="81" rx="19.238" ry="19.238"/>
		<g>
			<path fill="#FFFFFF" d="M136.641,71.404h2.132v7.964h0.073c0.441-0.637,0.882-1.226,1.299-1.765l5.048-6.2h2.646l-5.979,7.008
				l6.445,9.508h-2.524l-5.44-8.111l-1.568,1.813v6.298h-2.132V71.404z"/>
			<path fill="#FFFFFF" d="M149.556,85.715c0.638,0.417,1.765,0.858,2.843,0.858c1.568,0,2.304-0.784,2.304-1.765
				c0-1.029-0.612-1.593-2.205-2.181c-2.132-0.76-3.137-1.936-3.137-3.357c0-1.912,1.544-3.48,4.092-3.48
				c1.201,0,2.255,0.343,2.917,0.735l-0.54,1.568c-0.465-0.294-1.323-0.686-2.426-0.686c-1.274,0-1.984,0.735-1.984,1.617
				c0,0.98,0.71,1.421,2.254,2.009c2.059,0.784,3.112,1.813,3.112,3.578c0,2.083-1.617,3.553-4.436,3.553
				c-1.299,0-2.499-0.319-3.333-0.809L149.556,85.715z"/>
		</g>
	</g>
</g>
<g>
	
		<circle id="XMLID_157_" fill="#FFFFFF" stroke="#171C28" stroke-width="4" stroke-linecap="round" stroke-linejoin="round" stroke-miterlimit="10" cx="205.425" cy="146.475" r="33.413"/>
	
		<polyline id="XMLID_156_" fill="#FFFFFF" stroke="#D71920" stroke-width="4" stroke-linecap="round" stroke-linejoin="round" stroke-miterlimit="10" points="
		204.75,127.238 204.75,147.825 215.55,158.625 	"/>
	<g id="XMLID_155_">
		<circle fill="#FFFFFF" cx="204.75" cy="144.45" r="1.688"/>
		<path fill="#4C5C68" d="M204.75,142.762c-1.012,0-1.688,0.675-1.688,1.688s0.675,1.688,1.688,1.688s1.688-0.675,1.688-1.688
			S205.762,142.762,204.75,142.762L204.75,142.762z"/>
	</g>
	
		<circle id="XMLID_154_" fill="#FFFFFF" stroke="#171C28" stroke-width="4" stroke-linecap="round" stroke-linejoin="round" stroke-miterlimit="10" cx="204.75" cy="147.488" r="6.075"/>
</g>
</svg>
