<?xml version="1.0" encoding="utf-8"?>
<!-- Generator: Adobe Illustrator 17.0.0, SVG Export Plug-In . SVG Version: 6.00 Build 0)  -->
<!DOCTYPE svg PUBLIC "-//W3C//DTD SVG 1.1//EN" "http://www.w3.org/Graphics/SVG/1.1/DTD/svg11.dtd">
<svg version="1.1" id="Layer_1" xmlns="http://www.w3.org/2000/svg" xmlns:xlink="http://www.w3.org/1999/xlink" x="0px" y="0px"
	 width="288px" height="216px" viewBox="0 0 288 216" enable-background="new 0 0 288 216" xml:space="preserve">
<g>
	<path fill="#ABE0F9" d="M142.77,196.456c-46.527-0.502-84.562-38.927-84.056-86.173c0.503-46.958,38.924-84.769,86.001-84.371
		c47.112,0.399,84.955,38.834,84.574,86.011C228.907,159.154,190.098,197.217,142.77,196.456z M215.133,109.21
		c-0.292-17.408-7.034-34.305-20.772-48.173c-13.79-13.919-30.838-20.984-50.251-21.014c-19.454-0.03-36.579,6.979-50.388,20.934
		c-14.584,14.737-21.559,32.675-20.748,53.407c1.432,36.585,31.588,67.891,71.21,67.938
		C183.135,182.35,215.079,150.373,215.133,109.21z"/>
	<path fill="#0D3178" d="M147.642,109.021c2.67,1.092,5.338,2.183,8.104,3.313c-4.36,7.466-4.741,14.881-0.077,22.024
		c4.646,7.114,11.556,9.777,19.967,8.849c0,2.667,0,5.275,0,7.96c-0.691,0.082-1.209,0.196-1.728,0.197
		c-19.096,0.004-38.192-0.002-57.288-0.007c-5.292-0.001-10.583,0-15.875-0.005c-1.539-0.001-1.59-0.059-1.728-1.468
		c-0.603-6.183,0.231-12.188,2.597-17.909c4.32-10.446,11.817-17.713,22.378-21.783c1.021-0.394,2.085-0.676,3.291-1.062
		c-7.032-4.524-10.665-10.834-10.22-19.138c0.288-5.371,2.559-9.988,6.579-13.587c9.117-8.163,21.79-6.486,29.069,1.671
		C159.53,85.719,160.5,100.893,147.642,109.021z"/>
	<path fill="#0D3178" d="M172.238,140.446c-9.225,0.058-16.995-7.607-16.901-16.981c0.095-9.412,7.563-16.861,17.038-16.827
		c9.294,0.034,16.794,7.64,16.786,17.024C189.154,132.853,181.486,140.458,172.238,140.446z"/>
	<path fill="#FFFFFF" d="M172.227,133.363c-2.332-0.001-4.664-0.015-6.996,0.008c-0.692,0.007-0.957-0.248-0.905-0.947
		c0.269-3.619,0.499-7.241,0.789-10.858c0.028-0.355,0.379-0.679,0.552-1.031c0.107-0.218,0.221-0.459,0.228-0.693
		c0.032-1.065-0.014-2.133,0.042-3.197c0.164-3.128,2.583-5.388,5.721-5.515c2.405-0.097,4.475,0.419,5.957,2.499
		c0.769,1.079,1.078,2.271,1.122,3.556c0.025,0.732-0.009,1.466,0.006,2.198c0.01,0.503-0.158,1.052,0.491,1.381
		c0.172,0.087,0.206,0.536,0.226,0.824c0.243,3.588,0.46,7.177,0.714,10.764c0.058,0.822-0.299,1.032-1.051,1.022
		C176.824,133.345,174.525,133.364,172.227,133.363z M168.33,120.49c2.722,0,5.235,0,7.816,0c0-1.377,0.103-2.708-0.026-4.016
		c-0.158-1.595-1.449-2.676-3.056-2.749c-0.63-0.029-1.268-0.032-1.894,0.03c-1.322,0.133-2.372,0.966-2.564,2.275
		C168.396,117.462,168.416,118.929,168.33,120.49z M171.344,126.479c-0.079,0.921-0.127,1.551-0.191,2.18
		c-0.027,0.264-0.133,0.527-0.12,0.786c0.016,0.338,0.076,0.948,0.182,0.962c0.703,0.095,1.427,0.105,2.132,0.028
		c0.111-0.012,0.243-0.609,0.22-0.925c-0.061-0.861-0.236-1.714-0.29-2.575c-0.022-0.355,0.07-0.768,0.247-1.076
		c0.456-0.795,0.437-1.679-0.178-2.168c-0.637-0.506-1.337-0.599-2.008-0.07c-0.682,0.538-0.766,1.328-0.31,2.147
		C171.197,126.071,171.311,126.404,171.344,126.479z"/>
</g>
</svg>
