<?xml version="1.0" encoding="utf-8"?>
<!-- Generator: Adobe Illustrator 17.0.0, SVG Export Plug-In . SVG Version: 6.00 Build 0)  -->
<!DOCTYPE svg PUBLIC "-//W3C//DTD SVG 1.1//EN" "http://www.w3.org/Graphics/SVG/1.1/DTD/svg11.dtd">
<svg version="1.1" id="Layer_1" xmlns="http://www.w3.org/2000/svg" xmlns:xlink="http://www.w3.org/1999/xlink" x="0px" y="0px"
	 width="288px" height="216px" viewBox="0 0 288 216" enable-background="new 0 0 288 216" xml:space="preserve">
<g>
	<g>
		
			<polygon id="XMLID_1460_" fill="#FFFFFF" stroke="#171C28" stroke-width="3" stroke-linecap="round" stroke-linejoin="round" stroke-miterlimit="10" points="
			42.075,119.813 70.425,108.675 104.512,92.475 136.575,109.012 163.913,120.15 163.913,152.212 42.075,152.212 		"/>
		<path id="XMLID_1459_" fill="#0D3178" d="M76.5,107.325l17.887,43.537c0,0,13.5,0,17.55,0l19.238-43.875l-27-12.488L76.5,107.325z
			"/>
		
			<path id="XMLID_1458_" fill="#FFFFFF" stroke="#171C28" stroke-width="3" stroke-linecap="round" stroke-linejoin="round" stroke-miterlimit="10" d="
			M108.225,19.237c-14.85-0.675-20.25,3.375-25.313,9.788c-4.725,5.737-5.4,14.513-5.4,14.513l0.338,27.337h53.662l0.675-31.725
			C132.188,39.487,129.488,19.913,108.225,19.237z"/>
		
			<path id="XMLID_1457_" fill="#FFFFFF" stroke="#171C28" stroke-width="3" stroke-linecap="round" stroke-linejoin="round" stroke-miterlimit="10" d="
			M104.512,122.512L104.512,122.512c-8.775,0-16.2-7.087-16.2-16.2V93.488h32.063v12.825
			C120.375,115.425,113.287,122.512,104.512,122.512z"/>
		
			<path id="XMLID_1456_" fill="#FFFFFF" stroke="#171C28" stroke-width="3" stroke-linecap="round" stroke-linejoin="round" stroke-miterlimit="10" d="
			M110.25,99.563H96.075c-8.1,0-13.5-7.425-13.5-15.863v-6.412c-3.037,0-0.675,0-1.012,0c-2.7,0-5.063-2.025-5.063-4.725
			s2.362-4.725,5.063-4.725c0,0-1.688,0,1.012,0V36.113h43.537v31.725c0,0,0.675,0,1.012,0c2.7,0,4.725,2.025,4.725,4.725
			s-2.025,4.725-4.725,4.725c-0.338,0-1.012,0-1.012,0v6.75c0,4.387-2.7,8.775-6.075,11.813"/>
		<path id="XMLID_1455_" fill="#FFFFFF" d="M128.137,33.75v5.063l-9.787-2.7l-1.688,7.763l-17.55-3.037l3.375,10.125
			c0,0-13.5-10.463-15.863-12.487c0,0-4.725-0.675-5.737,2.362c0,0-1.688-2.362,1.012-7.425"/>
		
			<path id="XMLID_1454_" fill="#FFFFFF" stroke="#171C28" stroke-width="3" stroke-linecap="round" stroke-linejoin="round" stroke-miterlimit="10" d="
			M126.45,39.487l-8.1-2.7l-1.688,7.088l-17.55-3.037l3.375,10.125c0,0-14.513-10.463-16.537-12.487c0,0-3.037,0.338-3.037,3.713"/>
		
			<polyline id="XMLID_1453_" fill="#FFFFFF" stroke="#171C28" stroke-width="3" stroke-linecap="round" stroke-linejoin="round" stroke-miterlimit="10" points="
			67.725,110.363 67.725,137.363 78.188,137.363 75.488,144.788 		"/>
		
			<polyline id="XMLID_1434_" fill="none" stroke="#4C5C68" stroke-width="3" stroke-linecap="round" stroke-linejoin="round" stroke-miterlimit="10" points="
			135.225,110.363 135.225,132.637 127.8,132.637 128.813,142.087 		"/>
		
			<line id="XMLID_1433_" fill="none" stroke="#171C28" stroke-width="3" stroke-linecap="round" stroke-linejoin="round" stroke-miterlimit="10" x1="76.5" y1="107.662" x2="94.725" y2="151.538"/>
		
			<line id="XMLID_1432_" fill="none" stroke="#171C28" stroke-width="3" stroke-linecap="round" stroke-linejoin="round" stroke-miterlimit="10" x1="130.163" y1="106.65" x2="112.275" y2="151.538"/>
	</g>
	<g>
		
			<polygon id="XMLID_244_" fill="#FFFFFF" stroke="#171C28" stroke-width="3" stroke-linecap="round" stroke-linejoin="round" stroke-miterlimit="10" points="
			245.925,113.4 219.938,103.275 189.225,88.425 159.863,103.613 134.887,113.738 134.887,142.762 245.925,142.762 		"/>
		<path id="XMLID_243_" fill="#00984A" d="M214.538,101.925l-16.2,39.825c0,0-12.488,0-15.863,0l-17.55-40.162l24.637-11.475
			L214.538,101.925z"/>
		
			<path id="XMLID_242_" fill="#FFFFFF" stroke="#171C28" stroke-width="3" stroke-linecap="round" stroke-linejoin="round" stroke-miterlimit="10" d="
			M185.85,21.6c13.5-0.337,18.563,3.038,22.95,8.775c4.387,5.4,4.725,13.162,4.725,13.162l-0.337,24.975H164.25l-0.675-28.688
			C163.575,40.162,166.275,22.275,185.85,21.6z"/>
		
			<path id="XMLID_241_" fill="#FFFFFF" stroke="#171C28" stroke-width="3" stroke-linecap="round" stroke-linejoin="round" stroke-miterlimit="10" d="
			M189.225,115.762L189.225,115.762c8.1,0,14.85-6.75,14.85-14.85V89.438h-29.7v11.813
			C174.375,109.35,181.125,115.762,189.225,115.762z"/>
		
			<path id="XMLID_240_" fill="#FFFFFF" stroke="#171C28" stroke-width="3" stroke-linecap="round" stroke-linejoin="round" stroke-miterlimit="10" d="
			M183.488,94.838h12.825c7.425,0,12.488-6.75,12.488-14.513V74.25c2.7,0,0.675,0,1.012,0c2.363,0,4.725-2.025,4.725-4.387
			s-2.363-4.387-4.725-4.387c0,0,1.688,0-1.012,0V36.45h-39.825v29.025c0,0-0.675,0-1.012,0c-2.363,0-4.387,2.025-4.387,4.387
			s2.025,4.387,4.387,4.387c0.337,0,1.012,0,1.012,0v6.075c0,4.05,2.7,8.1,5.4,10.8"/>
		<path id="XMLID_239_" fill="#FFFFFF" d="M167.288,34.763v4.725l9.113-2.362l1.688,6.75l15.863-2.7l-3.038,9.45
			c0,0,12.488-9.787,14.512-11.475c0,0,4.387-0.675,5.063,2.362c0,0,1.688-2.025-1.012-6.75"/>
		
			<path id="XMLID_238_" fill="#FFFFFF" stroke="#171C28" stroke-width="3" stroke-linecap="round" stroke-linejoin="round" stroke-miterlimit="10" d="
			M168.975,39.825l7.087-2.7l1.688,6.75l15.863-2.7l-2.7,9.45c0,0,13.163-9.45,15.188-11.138c0,0,3.038,0.338,2.7,3.375"/>
		
			<polyline id="XMLID_237_" fill="#FFFFFF" stroke="#171C28" stroke-width="3" stroke-linecap="round" stroke-linejoin="round" stroke-miterlimit="10" points="
			222.637,104.625 222.637,129.262 213.188,129.262 215.55,136.012 		"/>
		
			<polyline id="XMLID_236_" fill="none" stroke="#4C5C68" stroke-width="3" stroke-linecap="round" stroke-linejoin="round" stroke-miterlimit="10" points="
			160.875,104.625 160.875,124.875 167.625,124.875 166.613,133.313 		"/>
		
			<line id="XMLID_234_" fill="none" stroke="#171C28" stroke-width="3" stroke-linecap="round" stroke-linejoin="round" stroke-miterlimit="10" x1="214.538" y1="102.262" x2="197.663" y2="142.087"/>
		
			<line id="XMLID_223_" fill="none" stroke="#171C28" stroke-width="3" stroke-linecap="round" stroke-linejoin="round" stroke-miterlimit="10" x1="165.6" y1="101.25" x2="181.8" y2="142.087"/>
	</g>
	<g>
		
			<polygon id="XMLID_221_" fill="#FFFFFF" stroke="#171C28" stroke-width="3" stroke-linecap="round" stroke-linejoin="round" stroke-miterlimit="10" points="
			78.525,160.313 110.588,147.825 148.725,129.6 184.837,148.163 215.887,160.65 215.887,196.762 78.525,196.762 		"/>
		<path id="XMLID_220_" fill="#D71920" d="M117.338,146.137l19.912,49.275c0,0,15.188,0,19.575,0l21.6-49.613l-30.375-14.175
			L117.338,146.137z"/>
		
			<path id="XMLID_219_" fill="#FFFFFF" stroke="#171C28" stroke-width="3" stroke-linecap="round" stroke-linejoin="round" stroke-miterlimit="10" d="
			M152.775,46.912c-16.875-0.675-22.95,4.05-28.35,11.137c-5.4,6.75-6.075,16.537-6.075,16.537l0.338,31.05H179.1l0.675-35.775
			C180.113,69.863,177.075,47.588,152.775,46.912z"/>
		
			<path id="XMLID_218_" fill="#FFFFFF" stroke="#171C28" stroke-width="3" stroke-linecap="round" stroke-linejoin="round" stroke-miterlimit="10" d="
			M149.063,163.688h-0.675c-9.787,0-17.887-8.1-17.887-17.887v-14.512h36.45V145.8C166.95,155.587,158.85,163.688,149.063,163.688z"
			/>
		
			<path id="XMLID_217_" fill="#FFFFFF" stroke="#171C28" stroke-width="3" stroke-linecap="round" stroke-linejoin="round" stroke-miterlimit="10" d="
			M155.475,137.363h-15.863c-9.45,0-15.525-8.438-15.525-17.887v-7.425c-3.375,0-1.012,0-1.012,0c-3.037,0-5.738-2.363-5.738-5.4
			s2.7-5.4,5.738-5.4c0.338,0-2.025,0,1.35,0V65.813H173.7v35.775c0,0,0.675,0,1.012,0c3.038,0,5.4,2.363,5.4,5.4
			c0,3.037-2.363,5.4-5.4,5.4c-0.337,0-1.012,0-1.012,0v7.425c0,5.063-3.038,9.788-6.75,13.163"/>
		<path id="XMLID_216_" fill="#FFFFFF" d="M175.725,63.45v5.738l-11.137-3.037l-2.025,8.438l-19.575-3.375l3.712,11.475
			c0,0-15.525-11.813-17.887-14.175c0,0-6.412-0.675-6.075,3.375c0,0-3.037-4.05,1.012-8.775"/>
		
			<path id="XMLID_215_" fill="#FFFFFF" stroke="#171C28" stroke-width="3" stroke-linecap="round" stroke-linejoin="round" stroke-miterlimit="10" d="
			M173.363,69.525l-9.113-3.037l-2.025,8.438L142.65,71.55l3.712,11.475c0,0-16.2-11.813-18.563-13.838c0,0-3.713,0.338-3.375,4.387
			"/>
		
			<polyline id="XMLID_214_" fill="#FFFFFF" stroke="#171C28" stroke-width="3" stroke-linecap="round" stroke-linejoin="round" stroke-miterlimit="10" points="
			107.213,151.2 107.213,178.875 118.688,178.875 115.65,188.663 		"/>
		
			<polyline id="XMLID_213_" fill="#FFFFFF" stroke="#171C28" stroke-width="3" stroke-linecap="round" stroke-linejoin="round" stroke-miterlimit="10" points="
			178.425,147.488 178.425,178.875 175.05,178.875 173.7,189.337 		"/>
		
			<line id="XMLID_212_" fill="none" stroke="#171C28" stroke-width="3" stroke-linecap="round" stroke-linejoin="round" stroke-miterlimit="10" x1="117.338" y1="146.475" x2="137.925" y2="196.087"/>
		
			<line id="XMLID_208_" fill="none" stroke="#171C28" stroke-width="3" stroke-linecap="round" stroke-linejoin="round" stroke-miterlimit="10" x1="177.75" y1="145.8" x2="157.837" y2="196.087"/>
	</g>
</g>
</svg>
