<?xml version="1.0" encoding="utf-8"?>
<!-- Generator: Adobe Illustrator 16.0.0, SVG Export Plug-In . SVG Version: 6.00 Build 0)  -->
<!DOCTYPE svg PUBLIC "-//W3C//DTD SVG 1.1//EN" "http://www.w3.org/Graphics/SVG/1.1/DTD/svg11.dtd">
<svg version="1.1" id="Layer_1" xmlns="http://www.w3.org/2000/svg" xmlns:xlink="http://www.w3.org/1999/xlink" x="0px" y="0px"
	 width="216px" height="216px" viewBox="0 0 216 216" enable-background="new 0 0 216 216" xml:space="preserve">
<g>
	
		<path id="XMLID_1355_" fill="#FFFFFF" stroke="#171C28" stroke-width="3" stroke-linecap="round" stroke-linejoin="round" stroke-miterlimit="10" d="
		M135.675,147.487c-0.675,13.5,10.8,29.7,10.8,29.7v12.15h39.488v-29.7l5.063-15.525l-4.388-25.987c0,0-5.4-19.913-31.726-8.775
		c-7.425,3.375,1.351,4.726-1.688,18.226c-0.675,2.362,30.038,6.75,30.038,6.75l-47.925-2.7L135.675,147.487z"/>
	
		<polygon fill="#FFFFFF" stroke="#171C28" stroke-width="3" stroke-linecap="round" stroke-linejoin="round" stroke-miterlimit="10" points="
		20.925,163.013 183.938,163.013 102.263,18.563 	"/>
	<g>
		<path fill="#D71920" d="M103.275,112.05L103.275,112.05c-2.362,0-4.387-1.688-4.387-4.387v-35.1c0-2.362,1.688-4.388,4.387-4.388
			l0,0c2.363,0,4.388,1.688,4.388,4.388v34.763C107.325,110.025,105.638,112.05,103.275,112.05z M103.275,133.313L103.275,133.313
			c-2.362,0-4.387-1.688-4.387-4.388v-0.337c0-2.363,1.688-4.388,4.387-4.388l0,0c2.363,0,4.388,1.688,4.388,4.388v0.337
			C107.663,131.287,105.638,133.313,103.275,133.313z"/>
	</g>
	
		<path id="XMLID_1354_" fill="#FFFFFF" stroke="#171C28" stroke-width="3" stroke-linecap="round" stroke-linejoin="round" stroke-miterlimit="10" d="
		M171.787,169.763c-14.85-13.838-13.5-31.726-13.5-31.726l-18.899-18.899c0-18.563,12.487-12.488,12.487-12.488l20.588,17.887"/>
	
		<polyline id="XMLID_1353_" fill="#0D3178" stroke="#171C28" stroke-width="3" stroke-linecap="round" stroke-linejoin="round" stroke-miterlimit="10" points="
		139.05,207.563 139.05,189.338 195.075,189.338 195.075,207.563 	"/>
	<path fill="#FFFFFF" d="M171.787,119.475c1.351,0.338,13.838,13.5,13.838,13.5s-1.35,31.726-1.688,33.413
		c-0.338,1.35-3.375,6.75-3.375,6.75h-5.4l-8.1-13.163L171.787,119.475z"/>
</g>
</svg>
