<?xml version="1.0" encoding="utf-8"?>
<!-- Generator: Adobe Illustrator 16.0.0, SVG Export Plug-In . SVG Version: 6.00 Build 0)  -->
<!DOCTYPE svg PUBLIC "-//W3C//DTD SVG 1.1//EN" "http://www.w3.org/Graphics/SVG/1.1/DTD/svg11.dtd">
<svg version="1.1" id="Layer_1" xmlns="http://www.w3.org/2000/svg" xmlns:xlink="http://www.w3.org/1999/xlink" x="0px" y="0px"
	 width="216px" height="216px" viewBox="0 0 216 216" enable-background="new 0 0 216 216" xml:space="preserve">
<g>
	
		<rect id="XMLID_1372_" x="18.563" y="78.975" fill="#FFFFFF" stroke="#171C28" stroke-width="3" stroke-linecap="round" stroke-linejoin="round" stroke-miterlimit="10" width="178.875" height="95.512"/>
	
		<rect id="XMLID_1370_" x="18.563" y="71.55" fill="#FFFFFF" stroke="#171C28" stroke-width="3" stroke-linecap="round" stroke-linejoin="round" stroke-miterlimit="10" width="171.112" height="95.513"/>
	
		<line id="XMLID_1369_" fill="none" stroke="#4C5C68" stroke-width="3" stroke-linecap="round" stroke-linejoin="round" stroke-miterlimit="10" x1="65.813" y1="86.4" x2="155.588" y2="86.4"/>
	
		<line id="XMLID_1368_" fill="none" stroke="#171C28" stroke-width="3" stroke-linecap="round" stroke-linejoin="round" stroke-miterlimit="10" x1="65.813" y1="156.263" x2="155.588" y2="156.263"/>
	
		<line id="XMLID_1367_" fill="none" stroke="#4C5C68" stroke-width="3" stroke-linecap="round" stroke-linejoin="round" stroke-miterlimit="10" x1="27.675" y1="82.35" x2="35.1" y2="82.35"/>
	
		<line id="XMLID_1363_" fill="none" stroke="#4C5C68" stroke-width="3" stroke-linecap="round" stroke-linejoin="round" stroke-miterlimit="10" x1="27.675" y1="156.263" x2="35.1" y2="156.263"/>
	
		<line id="XMLID_1362_" fill="none" stroke="#4C5C68" stroke-width="3" stroke-linecap="round" stroke-linejoin="round" stroke-miterlimit="10" x1="115.088" y1="156.263" x2="122.85" y2="156.263"/>
	<text id="XMLID_1361_" transform="matrix(1 0 0 1 25.4805 133.4844)" fill="#4C5C68" font-family="'ArialMT'" font-size="48.2541">$</text>
	
		<polygon id="XMLID_1360_" fill="#FFFFFF" stroke="#171C28" stroke-width="3" stroke-linecap="round" stroke-linejoin="round" stroke-miterlimit="10" points="
		172.463,148.162 19.237,174.487 19.237,71.888 171.787,41.513 	"/>
	
		<path id="XMLID_1359_" fill="#FFFFFF" stroke="#171C28" stroke-width="3" stroke-linecap="round" stroke-linejoin="round" stroke-miterlimit="10" d="
		M41.85,118.8c0,0,25.65-18.563,27.337-11.475c1.688,7.087,7.087,5.063,7.425,3.712c0.338-1.35,9.113-7.087,10.8-5.062
		s5.063,2.7,5.737,0.675c0.675-2.025,3.038-7.762,5.4-5.737c2.363,2.025,7.763,0.675,10.125-0.675
		c2.362-1.35,7.425-4.387,11.813-5.063c4.388-0.675,26.663-6.412,26.663-6.412"/>
	
		<polygon id="XMLID_1358_" fill="#0D3178" stroke="#6DCFF6" stroke-width="3" stroke-linecap="round" stroke-linejoin="round" stroke-miterlimit="10" points="
		162.338,73.913 143.438,77.288 143.438,58.388 162.338,54.675 	"/>
	
		<line id="XMLID_1357_" fill="none" stroke="#171C28" stroke-width="3" stroke-linecap="round" stroke-linejoin="round" stroke-miterlimit="10" x1="60.413" y1="127.237" x2="141.75" y2="108.337"/>
</g>
</svg>
