<?xml version="1.0" encoding="utf-8"?>
<!-- Generator: Adobe Illustrator 16.0.0, SVG Export Plug-In . SVG Version: 6.00 Build 0)  -->
<!DOCTYPE svg PUBLIC "-//W3C//DTD SVG 1.1//EN" "http://www.w3.org/Graphics/SVG/1.1/DTD/svg11.dtd">
<svg version="1.1" id="Layer_1" xmlns="http://www.w3.org/2000/svg" xmlns:xlink="http://www.w3.org/1999/xlink" x="0px" y="0px"
	 width="216px" height="216px" viewBox="0 0 216 216" enable-background="new 0 0 216 216" xml:space="preserve">
<g>
	
		<rect id="XMLID_1425_" x="23.625" y="80.325" fill="#FFFFFF" stroke="#171C28" stroke-width="3" stroke-linecap="round" stroke-linejoin="round" stroke-miterlimit="10" width="168.75" height="91.462"/>
	
		<polyline id="XMLID_1424_" fill="#FFFFFF" stroke="#171C28" stroke-width="3" stroke-linecap="round" stroke-linejoin="round" stroke-miterlimit="10" points="
		23.625,71.888 23.625,50.962 192.375,50.962 192.375,71.888 	"/>
	
		<rect id="XMLID_1423_" x="147.15" y="29.7" fill="#FFFFFF" stroke="#171C28" stroke-width="3" stroke-linecap="round" stroke-linejoin="round" stroke-miterlimit="10" width="23.625" height="146.138"/>
	
		<polygon id="XMLID_1421_" fill="#FFFFFF" stroke="#171C28" stroke-width="3" stroke-linecap="round" stroke-linejoin="round" stroke-miterlimit="10" points="
		157.275,197.438 146.813,176.514 170.775,176.514 	"/>
	
		<rect id="XMLID_1420_" x="152.889" y="18.563" fill="#FFFFFF" stroke="#171C28" stroke-width="3" stroke-linecap="round" stroke-linejoin="round" stroke-miterlimit="10" width="11.475" height="10.8"/>
	
		<line id="XMLID_1419_" fill="none" stroke="#171C28" stroke-width="3" stroke-linecap="round" stroke-linejoin="round" stroke-miterlimit="10" x1="147.15" y1="117.45" x2="169.088" y2="117.45"/>
	
		<line id="XMLID_1418_" fill="none" stroke="#171C28" stroke-width="3" stroke-linecap="round" stroke-linejoin="round" stroke-miterlimit="10" x1="159.639" y1="30.712" x2="159.639" y2="84.712"/>
	
		<line id="XMLID_1417_" fill="none" stroke="#171C28" stroke-width="3" stroke-linecap="round" stroke-linejoin="round" stroke-miterlimit="10" x1="33.413" y1="62.775" x2="87.075" y2="62.775"/>
	
		<line id="XMLID_1416_" fill="none" stroke="#171C28" stroke-width="3" stroke-linecap="round" stroke-linejoin="round" stroke-miterlimit="10" x1="68.85" y1="94.5" x2="109.014" y2="94.5"/>
	
		<line id="XMLID_1415_" fill="none" stroke="#171C28" stroke-width="3" stroke-linecap="round" stroke-linejoin="round" stroke-miterlimit="10" x1="68.85" y1="161.325" x2="109.014" y2="161.325"/>
	
		<line id="XMLID_1414_" fill="none" stroke="#171C28" stroke-width="3" stroke-linecap="round" stroke-linejoin="round" stroke-miterlimit="10" x1="68.85" y1="110.025" x2="134.662" y2="110.025"/>
	
		<line id="XMLID_1413_" fill="none" stroke="#171C28" stroke-width="3" stroke-linecap="round" stroke-linejoin="round" stroke-miterlimit="10" x1="68.85" y1="119.139" x2="134.662" y2="119.139"/>
	
		<line id="XMLID_1412_" fill="none" stroke="#171C28" stroke-width="3" stroke-linecap="round" stroke-linejoin="round" stroke-miterlimit="10" x1="68.85" y1="128.25" x2="134.662" y2="128.25"/>
	
		<line id="XMLID_1409_" fill="none" stroke="#171C28" stroke-width="3" stroke-linecap="round" stroke-linejoin="round" stroke-miterlimit="10" x1="32.063" y1="90.45" x2="39.487" y2="90.45"/>
	
		<line id="XMLID_1408_" fill="none" stroke="#171C28" stroke-width="3" stroke-linecap="round" stroke-linejoin="round" stroke-miterlimit="10" x1="32.063" y1="160.986" x2="39.487" y2="160.986"/>
	
		<line id="XMLID_1407_" fill="none" stroke="#171C28" stroke-width="3" stroke-linecap="round" stroke-linejoin="round" stroke-miterlimit="10" x1="116.1" y1="160.986" x2="123.525" y2="160.986"/>
	
		<line id="XMLID_1406_" fill="none" stroke="#00984A" stroke-width="3" stroke-linecap="round" stroke-linejoin="round" stroke-miterlimit="10" x1="154.575" y1="132.975" x2="162.338" y2="132.975"/>
	
		<line id="XMLID_1405_" fill="none" stroke="#0D3178" stroke-width="3" stroke-linecap="round" stroke-linejoin="round" stroke-miterlimit="10" x1="154.575" y1="141.412" x2="162.338" y2="141.412"/>
	
		<line id="XMLID_1404_" fill="none" stroke="#D71920" stroke-width="3" stroke-linecap="round" stroke-linejoin="round" stroke-miterlimit="10" x1="154.575" y1="149.514" x2="162.338" y2="149.514"/>
</g>
<g>
	<path fill="#0D3178" d="M31.337,128.359h3.32v12.404h0.114c0.688-0.99,1.375-1.908,2.023-2.746l7.862-9.658h4.122l-9.312,10.916
		l10.036,14.809h-3.93L37.1,141.451l-2.442,2.824v9.809h-3.32L31.337,128.359L31.337,128.359z"/>
	<path fill="#0D3178" d="M51.459,150.648c0.993,0.646,2.749,1.338,4.428,1.338c2.443,0,3.586-1.223,3.586-2.752
		c0-1.603-0.954-2.479-3.434-3.396c-3.32-1.181-4.885-3.014-4.885-5.228c0-2.977,2.403-5.418,6.374-5.418
		c1.869,0,3.511,0.533,4.542,1.144l-0.841,2.442c-0.724-0.457-2.06-1.069-3.777-1.069c-1.986,0-3.092,1.146-3.092,2.521
		c0,1.525,1.106,2.213,3.512,3.129c3.206,1.223,4.846,2.826,4.846,5.572c0,3.244-2.519,5.534-6.908,5.534
		c-2.021,0-3.892-0.497-5.189-1.259L51.459,150.648z"/>
</g>
</svg>
