<?xml version="1.0" encoding="utf-8"?>
<!-- Generator: Adobe Illustrator 17.0.0, SVG Export Plug-In . SVG Version: 6.00 Build 0)  -->
<!DOCTYPE svg PUBLIC "-//W3C//DTD SVG 1.1//EN" "http://www.w3.org/Graphics/SVG/1.1/DTD/svg11.dtd">
<svg version="1.1" id="Layer_1" xmlns="http://www.w3.org/2000/svg" xmlns:xlink="http://www.w3.org/1999/xlink" x="0px" y="0px"
	 width="216px" height="216px" viewBox="0 0 216 216" enable-background="new 0 0 216 216" xml:space="preserve">
<g>
	
		<polyline id="XMLID_506_" fill="#FFFFFF" stroke="#171C28" stroke-width="3" stroke-linecap="round" stroke-linejoin="round" stroke-miterlimit="10" points="
		109.013,154.575 18.563,154.575 18.563,68.85 109.013,68.85 	"/>
	
		<polyline id="XMLID_841_" fill="#FFFFFF" stroke="#171C28" stroke-width="3" stroke-linecap="round" stroke-linejoin="round" stroke-miterlimit="10" points="
		18.563,61.087 18.563,41.175 177.188,41.175 177.188,61.087 	"/>
	
		<line id="XMLID_834_" fill="none" stroke="#171C28" stroke-width="3" stroke-linecap="round" stroke-linejoin="round" stroke-miterlimit="10" x1="27.675" y1="52.313" x2="77.962" y2="52.313"/>
	
		<line id="XMLID_833_" fill="none" stroke="#171C28" stroke-width="3" stroke-linecap="round" stroke-linejoin="round" stroke-miterlimit="10" x1="60.75" y1="82.013" x2="73.575" y2="82.013"/>
	
		<line id="XMLID_832_" fill="none" stroke="#171C28" stroke-width="3" stroke-linecap="round" stroke-linejoin="round" stroke-miterlimit="10" x1="60.75" y1="144.787" x2="73.575" y2="144.787"/>
	
		<line id="XMLID_831_" fill="none" stroke="#00984A" stroke-width="3" stroke-linecap="round" stroke-linejoin="round" stroke-miterlimit="10" x1="60.75" y1="96.525" x2="97.875" y2="96.525"/>
	
		<line id="XMLID_830_" fill="none" stroke="#00984A" stroke-width="3" stroke-linecap="round" stroke-linejoin="round" stroke-miterlimit="10" x1="60.75" y1="105.3" x2="97.875" y2="105.3"/>
	
		<line id="XMLID_829_" fill="none" stroke="#00984A" stroke-width="3" stroke-linecap="round" stroke-linejoin="round" stroke-miterlimit="10" x1="60.75" y1="113.737" x2="97.875" y2="113.737"/>
	
		<line id="XMLID_828_" fill="none" stroke="#171C28" stroke-width="3" stroke-linecap="round" stroke-linejoin="round" stroke-miterlimit="10" x1="26.663" y1="78.3" x2="33.413" y2="78.3"/>
	
		<line id="XMLID_827_" fill="none" stroke="#171C28" stroke-width="3" stroke-linecap="round" stroke-linejoin="round" stroke-miterlimit="10" x1="26.663" y1="144.787" x2="33.413" y2="144.787"/>
	<g id="XMLID_496_">
		
			<path id="XMLID_25_" fill="#FFFFFF" stroke="#171C28" stroke-width="3" stroke-linecap="round" stroke-linejoin="round" stroke-miterlimit="10" d="
			M157.612,174.825c0,0-25.313-6.413-40.162-26.325c-1.351-2.025-2.362-4.05-2.362-6.412V73.575c0,0,36.449-18.563,82.012,0v67.162
			c0,2.362-0.675,4.726-1.688,6.75C191.7,154.237,179.55,170.1,157.612,174.825z"/>
		
			<circle id="XMLID_24_" fill="#FFFFFF" stroke="#171C28" stroke-width="3" stroke-linecap="round" stroke-linejoin="round" stroke-miterlimit="10" cx="156.263" cy="118.8" r="32.4"/>
		<g id="XMLID_464_">
			
				<line id="XMLID_23_" fill="none" stroke="#0D3178" stroke-width="3" stroke-linecap="round" stroke-linejoin="round" stroke-miterlimit="10" x1="167.063" y1="107.325" x2="145.463" y2="130.275"/>
			
				<line id="XMLID_462_" fill="none" stroke="#0D3178" stroke-width="3" stroke-linecap="round" stroke-linejoin="round" stroke-miterlimit="10" x1="167.737" y1="129.6" x2="144.787" y2="108.337"/>
		</g>
	</g>
	<g>
		<path fill="#0D3178" d="M25.047,113.737h3.117v11.645h0.107c0.646-0.931,1.291-1.791,1.899-2.58l7.381-9.064h3.87l-8.742,10.247
			l9.421,13.901h-3.689l-7.954-11.859l-2.293,2.652v9.207h-3.117C25.047,137.886,25.047,113.737,25.047,113.737z"/>
		<path fill="#0D3178" d="M43.938,134.661c0.932,0.607,2.581,1.255,4.157,1.255c2.293,0,3.367-1.146,3.367-2.582
			c0-1.505-0.896-2.327-3.224-3.188c-3.117-1.108-4.585-2.83-4.585-4.906c0-2.795,2.256-5.088,5.983-5.088
			c1.755,0,3.296,0.5,4.264,1.073l-0.789,2.294c-0.68-0.429-1.935-1.003-3.546-1.003c-1.864,0-2.902,1.075-2.902,2.364
			c0,1.433,1.038,2.077,3.296,2.938c3.009,1.147,4.549,2.652,4.549,5.23c0,3.047-2.364,5.196-6.485,5.196
			c-1.897,0-3.654-0.467-4.872-1.182L43.938,134.661z"/>
	</g>
</g>
</svg>
