<?xml version="1.0" encoding="utf-8"?>
<!-- Generator: Adobe Illustrator 16.0.0, SVG Export Plug-In . SVG Version: 6.00 Build 0)  -->
<!DOCTYPE svg PUBLIC "-//W3C//DTD SVG 1.1//EN" "http://www.w3.org/Graphics/SVG/1.1/DTD/svg11.dtd">
<svg version="1.1" id="Layer_1" xmlns="http://www.w3.org/2000/svg" xmlns:xlink="http://www.w3.org/1999/xlink" x="0px" y="0px"
	 width="216px" height="216px" viewBox="0 0 216 216" enable-background="new 0 0 216 216" xml:space="preserve">
<path fill="#6DCFF6" d="M137.7,108V31.05c0-1.688,1.35-2.7,2.7-2.7h11.813c2.024,0,3.712,1.688,3.712,3.712V108"/>
<path fill="none" stroke="#4C5C68" stroke-width="3" stroke-linecap="round" stroke-linejoin="round" stroke-miterlimit="10" d="
	M137.7,108V28.35 M114.075,184.95H50.962c-8.1,0-14.85-6.75-14.85-14.851V41.513c0-7.763,6.075-13.838,13.838-13.838h109.688
	 M155.925,108V34.425c0-4.05,3.375-7.425,7.425-7.425h1.688c4.388,0,7.763,3.375,7.763,7.763v69.862h-8.1 M50.625,48.6h34.763
	 M50.625,110.7h72.563 M50.625,123.188h64.125 M50.625,136.013H105.3 M50.625,148.5h47.25 M50.625,161.325h37.8 M50.625,61.087
	h25.987 M83.025,61.087h40.837"/>
<path fill="#0D3178" stroke="#6DCFF6" stroke-width="3" stroke-linecap="round" stroke-linejoin="round" stroke-miterlimit="10" d="
	M48.938,73.913H124.2v23.625H48.938V73.913z"/>
<path fill="#FFFFFF" d="M144.45,185.963c-18.563,0-33.75-15.188-33.75-33.75s15.188-33.75,33.75-33.75s33.75,15.188,33.75,33.75
	S163.013,185.963,144.45,185.963z"/>
<path fill="#4C5C68" d="M144.45,120.15c17.55,0,32.063,14.175,32.063,32.063c0,17.887-14.175,32.063-32.063,32.063
	s-32.063-14.176-32.063-32.063C112.388,134.325,126.9,120.15,144.45,120.15 M144.45,116.775c-19.575,0-35.438,15.862-35.438,35.438
	c0,19.574,15.862,35.438,35.438,35.438s35.438-15.863,35.438-35.438C179.888,132.638,164.025,116.775,144.45,116.775z"/>
<path fill="#FFFFFF" stroke="#4C5C68" stroke-width="3" stroke-linecap="round" stroke-linejoin="round" stroke-miterlimit="10" d="
	M143.438,133.313V153.9l10.8,10.462"/>
<circle fill="#FFFFFF" cx="143.775" cy="150.525" r="1.688"/>
<path fill="#4C5C68" d="M143.775,148.838c-1.013,0-1.688,0.675-1.688,1.688c0,1.012,0.675,1.688,1.688,1.688
	c1.012,0,1.688-0.676,1.688-1.688C145.463,149.513,144.787,148.838,143.775,148.838z"/>
<circle fill="#FFFFFF" cx="143.775" cy="153.225" r="4.387"/>
<path fill="#4C5C68" d="M143.775,150.525c1.688,0,2.699,1.35,2.699,2.699c0,1.351-1.35,2.7-2.699,2.7c-1.351,0-2.7-1.35-2.7-2.7
	C141.075,151.875,142.088,150.525,143.775,150.525 M143.775,147.15c-3.375,0-6.075,2.699-6.075,6.074s2.7,6.075,6.075,6.075
	s6.074-2.7,6.074-6.075S147.15,147.15,143.775,147.15z"/>
</svg>
