<?xml version="1.0" encoding="utf-8"?>
<!-- Generator: Adobe Illustrator 16.0.0, SVG Export Plug-In . SVG Version: 6.00 Build 0)  -->
<!DOCTYPE svg PUBLIC "-//W3C//DTD SVG 1.1//EN" "http://www.w3.org/Graphics/SVG/1.1/DTD/svg11.dtd">
<svg version="1.1" id="Layer_1" xmlns="http://www.w3.org/2000/svg" xmlns:xlink="http://www.w3.org/1999/xlink" x="0px" y="0px"
	 width="216px" height="216px" viewBox="0 0 216 216" enable-background="new 0 0 216 216" xml:space="preserve">
<path fill="#FFFFFF" stroke="#4C5C68" stroke-width="3" stroke-linecap="round" stroke-linejoin="round" stroke-miterlimit="10" d="
	M23.288,83.025h162v87.75h-162V83.025z"/>
<path fill="#00984A" stroke="#4C5C68" stroke-width="3" stroke-linecap="round" stroke-linejoin="round" stroke-miterlimit="10" d="
	M23.288,75.263v-20.25h162v20.25"/>
<path fill="#FFFFFF" stroke="#4C5C68" stroke-width="3" stroke-linecap="round" stroke-linejoin="round" stroke-miterlimit="10" d="
	M141.75,34.763h22.612v140.063H141.75V34.763z"/>
<path fill="#0D3178" d="M143.438,117.787h19.237v57.038h-19.237V117.787z"/>
<path fill="#FFFFFF" stroke="#4C5C68" stroke-width="3" stroke-linecap="round" stroke-linejoin="round" stroke-miterlimit="10" d="
	M151.537,195.412L141.75,175.5h22.612L151.537,195.412z"/>
<path fill="#00984A" stroke="#4C5C68" stroke-width="3" stroke-linecap="round" stroke-linejoin="round" stroke-miterlimit="10" d="
	M147.487,23.962h11.138v10.462h-11.138V23.962z"/>
<path fill="none" stroke="#4C5C68" stroke-width="3" stroke-linecap="round" stroke-linejoin="round" stroke-miterlimit="10" d="
	M142.088,119.138h20.925"/>
<path fill="none" stroke="#4C5C68" stroke-width="3" stroke-linecap="round" stroke-linejoin="round" stroke-miterlimit="10" d="
	M153.9,35.438v51.975"/>
<path fill="#FFFFFF" stroke="#4C5C68" stroke-width="3" stroke-linecap="round" stroke-linejoin="round" stroke-miterlimit="10" d="
	M32.737,66.487h51.3 M66.487,96.862H105.3 M66.487,160.987H105.3 M66.487,111.713h63.45 M66.487,120.487h63.45 M66.487,129.263
	h63.45 M31.725,93.15h7.087 M31.725,160.65h7.087 M112.05,160.65h7.088"/>
<path fill="none" stroke="#CEE8FA" stroke-width="3" stroke-linecap="round" stroke-linejoin="round" stroke-miterlimit="10" d="
	M148.838,133.987h7.425 M148.838,141.75h7.425 M148.838,149.85h7.425"/>
<text transform="matrix(1 0 0 1 27.2842 147.5791)" fill="#0D3178" font-family="'MyriadPro-Regular'" font-size="37.928">Ks</text>
</svg>
