<?xml version="1.0" encoding="utf-8"?>
<!-- Generator: Adobe Illustrator 16.0.0, SVG Export Plug-In . SVG Version: 6.00 Build 0)  -->
<!DOCTYPE svg PUBLIC "-//W3C//DTD SVG 1.1//EN" "http://www.w3.org/Graphics/SVG/1.1/DTD/svg11.dtd">
<svg version="1.1" id="Layer_1" xmlns="http://www.w3.org/2000/svg" xmlns:xlink="http://www.w3.org/1999/xlink" x="0px" y="0px"
	 width="216px" height="216px" viewBox="0 0 216 216" enable-background="new 0 0 216 216" xml:space="preserve">
<path fill="#6DCFF6" stroke="#4C5C68" stroke-width="3" stroke-linecap="round" stroke-linejoin="round" stroke-miterlimit="10" d="
	M153.563,67.163v118.8H45.9V29.362h75.938 M160.987,73.575v112.388H53.325V37.8h75.938"/>
<path fill="#FFFFFF" d="M169.088,81.337v106.988H62.438V47.25H137.7"/>
<path fill="none" stroke="#4C5C68" stroke-width="3" stroke-linecap="round" stroke-linejoin="round" stroke-miterlimit="10" d="
	M60.75,151.2V45.9h75.938 M147.487,185.963H60.75v-12.488"/>
<path fill="#6DCFF6" stroke="#4C5C68" stroke-width="3" stroke-linecap="round" stroke-linejoin="round" stroke-miterlimit="10" d="
	M136.688,45.225v35.438h32.4L136.688,45.225z"/>
<path fill="none" stroke="#4C5C68" stroke-width="3" stroke-linecap="round" stroke-linejoin="round" stroke-miterlimit="10" d="
	M106.987,93.825H148.5 M106.987,106.65H135 M77.288,119.138h60.075 M77.288,133.987h60.075 M77.288,146.813h60.075 M84.038,159.638
	h52.65"/>
<path fill="#0D3178" stroke="#6DCFF6" stroke-width="3" stroke-linecap="round" stroke-linejoin="round" stroke-miterlimit="10" d="
	M77.288,87.075h19.237v19.237H77.288V87.075z"/>
<path fill="none" stroke="#4C5C68" stroke-width="3" stroke-linecap="round" stroke-linejoin="round" stroke-miterlimit="10" d="
	M163.013,131.963h-12.825l18.225-18.226l18.563,18.226h-12.149v47.587h-11.813V131.963 M169.088,102.938V80.663"/>
<path fill="#0D3178" stroke="#6DCFF6" stroke-width="3" stroke-linecap="round" stroke-linejoin="round" stroke-miterlimit="10" d="
	M162.725,131.963h-12.537l18.225-18.226l18.563,18.226h-12.149v47.587h-11.813v-47.587"/>
</svg>
