<?xml version="1.0" encoding="utf-8"?>
<!-- Generator: Adobe Illustrator 16.0.0, SVG Export Plug-In . SVG Version: 6.00 Build 0)  -->
<!DOCTYPE svg PUBLIC "-//W3C//DTD SVG 1.1//EN" "http://www.w3.org/Graphics/SVG/1.1/DTD/svg11.dtd">
<svg version="1.1" id="Layer_1" xmlns="http://www.w3.org/2000/svg" xmlns:xlink="http://www.w3.org/1999/xlink" x="0px" y="0px"
	 width="216px" height="216px" viewBox="0 0 216 216" enable-background="new 0 0 216 216" xml:space="preserve">
<g>
	<g id="XMLID_1078_">
		
			<ellipse id="XMLID_1082_" fill="#FFFFFF" stroke="#00984A" stroke-width="3" stroke-linecap="round" stroke-linejoin="round" stroke-miterlimit="10" cx="80.339" cy="78.416" rx="56.185" ry="55.869"/>
		<ellipse id="XMLID_1080_" fill="#00984A" cx="80.339" cy="78.415" rx="44.19" ry="43.875"/>
	</g>
	<g id="XMLID_1071_">
		
			<ellipse id="XMLID_1075_" fill="#FFFFFF" stroke="#0D3178" stroke-width="3" stroke-linecap="round" stroke-linejoin="round" stroke-miterlimit="10" cx="132.421" cy="133.968" rx="56.184" ry="55.869"/>
		<ellipse id="XMLID_1073_" fill="#0D3178" cx="132.421" cy="133.968" rx="44.19" ry="43.874"/>
	</g>
	
		<polyline id="XMLID_1074_" fill="none" stroke="#00984A" stroke-width="3" stroke-linecap="round" stroke-linejoin="round" stroke-miterlimit="10" stroke-dasharray="0,5" points="
		142.521,44.011 177.241,44.011 177.241,78.415 	"/>
	
		<polyline id="XMLID_1081_" fill="none" stroke="#00984A" stroke-width="3" stroke-linecap="round" stroke-linejoin="round" stroke-miterlimit="10" points="
		165.563,70.523 177.241,82.203 188.604,70.84 	"/>
	
		<polyline id="XMLID_1070_" fill="none" stroke="#0D3178" stroke-width="3" stroke-linecap="round" stroke-linejoin="round" stroke-miterlimit="10" stroke-dasharray="0,5" points="
		77.182,171.215 35.202,171.215 35.202,136.494 	"/>
	
		<polyline id="XMLID_799_" fill="none" stroke="#0D3178" stroke-width="3" stroke-linecap="round" stroke-linejoin="round" stroke-miterlimit="10" points="
		46.88,146.277 35.202,134.6 23.839,146.277 	"/>
</g>
<g enable-background="new    ">
	<path fill="#FFFFFF" d="M66.515,66.505h3.104V78.1h0.107c0.642-0.928,1.284-1.784,1.891-2.569l7.349-9.026h3.854l-8.705,10.203
		l9.383,13.843h-3.675l-7.92-11.809l-2.283,2.64v9.169h-3.104V66.505z"/>
	<path fill="#FFFFFF" d="M85.315,87.34c0.927,0.606,2.569,1.249,4.138,1.249c2.283,0,3.354-1.142,3.354-2.568
		c0-1.499-0.892-2.319-3.211-3.175c-3.104-1.106-4.567-2.818-4.567-4.888c0-2.783,2.248-5.066,5.958-5.066
		c1.748,0,3.282,0.5,4.245,1.071l-0.785,2.283c-0.678-0.428-1.927-0.999-3.532-0.999c-1.855,0-2.89,1.07-2.89,2.355
		c0,1.427,1.035,2.069,3.282,2.925c2.997,1.142,4.531,2.64,4.531,5.208c0,3.033-2.355,5.173-6.458,5.173
		c-1.891,0-3.639-0.464-4.852-1.178L85.315,87.34z"/>
</g>
<g enable-background="new    ">
	<path fill="#FFFFFF" d="M116.593,117.379h3.949v14.754h0.137c0.817-1.181,1.635-2.271,2.406-3.269l9.352-11.485h4.902
		l-11.076,12.983l11.938,17.613h-4.675l-10.078-15.026l-2.906,3.359v11.667h-3.949V117.379z"/>
	<path fill="#FFFFFF" d="M140.513,143.89c1.18,0.772,3.268,1.589,5.266,1.589c2.905,0,4.267-1.452,4.267-3.268
		c0-1.907-1.135-2.951-4.085-4.041c-3.949-1.407-5.811-3.586-5.811-6.219c0-3.541,2.859-6.446,7.58-6.446
		c2.226,0,4.177,0.636,5.402,1.362l-0.998,2.904c-0.863-0.544-2.451-1.271-4.494-1.271c-2.361,0-3.677,1.361-3.677,2.996
		c0,1.815,1.315,2.633,4.176,3.722c3.813,1.453,5.766,3.359,5.766,6.628c0,3.859-2.996,6.583-8.217,6.583
		c-2.405,0-4.63-0.591-6.174-1.498L140.513,143.89z"/>
</g>
</svg>
