<?xml version="1.0" encoding="utf-8"?>
<!-- Generator: Adobe Illustrator 16.0.0, SVG Export Plug-In . SVG Version: 6.00 Build 0)  -->
<!DOCTYPE svg PUBLIC "-//W3C//DTD SVG 1.1//EN" "http://www.w3.org/Graphics/SVG/1.1/DTD/svg11.dtd">
<svg version="1.1" id="Layer_1" xmlns="http://www.w3.org/2000/svg" xmlns:xlink="http://www.w3.org/1999/xlink" x="0px" y="0px"
	 width="216px" height="216px" viewBox="0 0 216 216" enable-background="new 0 0 216 216" xml:space="preserve">
<path fill="#FFFFFF" stroke="#4C5C68" stroke-width="3" stroke-linecap="round" stroke-linejoin="round" stroke-miterlimit="10" d="
	M55.013,36.788h97.875V163.35H55.013V36.788z"/>
<path fill="#6DCFF6" d="M144.112,49.612V149.85c0,0.676-0.675,1.013-1.013,1.013H65.138c-0.675,0-1.013-0.675-1.013-1.013V49.612
	c0-0.675,0.675-1.012,1.013-1.012H143.1C143.775,48.263,144.112,48.938,144.112,49.612z"/>
<path fill="#FFFFFF" stroke="#4C5C68" stroke-width="3" stroke-linecap="round" stroke-linejoin="round" stroke-miterlimit="10" d="
	M91.8,156.263h17.55 M98.888,43.875h6.75"/>
<path fill="#FFFFFF" stroke="#4C5C68" stroke-width="3" stroke-linecap="round" stroke-linejoin="round" stroke-miterlimit="10" d="
	M37.125,169.763v-50.288l11.813-15.862h18.225c0,0,3.712,3.713-1.35,9.788c0,0-10.125,1.35-11.475,7.762
	c-1.012,6.413,7.087,8.101,8.775,12.825c1.688,4.726,4.725,22.95-4.05,36.45L37.125,169.763z"/>
<path fill="#0D3178" stroke="#4C5C68" stroke-width="3" stroke-linecap="round" stroke-linejoin="round" stroke-miterlimit="10" d="
	M33.75,195.412V170.1h48.263v25.313"/>
<g>
	<path fill="#FFFFFF" d="M182.25,143.775v-14.851c-7.088-6.75-14.175,0.338-14.175,0.338l2.362,7.425L128.925,135
		c-7.087-10.463-13.5-0.675-13.5-0.675v29.024l20.925,19.238v12.149l38.476-0.337v-11.813c0-2.7,7.087-13.838,7.087-13.838v-13.838"
		/>
	
		<path fill="#FFFFFF" stroke="#4C5C68" stroke-width="3" stroke-linecap="round" stroke-linejoin="round" stroke-miterlimit="10" d="
		M175.162,195.075v-11.813c0-2.7,7.088-13.838,7.088-13.838v-13.837 M182.25,143.775v-14.851c-7.088-6.75-14.175,0.338-14.175,0.338
		l2.362,7.425L128.925,135c-7.087-10.463-13.5-0.675-13.5-0.675v29.024l20.925,19.238v12.149"/>
	<path fill="#FFFFFF" d="M133.313,129.938l7.763-7.763l7.087-1.688l7.088,3.038l5.063-1.688l6.075,1.35l-0.675,3.375l10.8,11.138
		l-13.838,8.438h-25.649l-5.063-3.375L133.313,129.938z"/>
	
		<path fill="#FFFFFF" stroke="#4C5C68" stroke-width="3" stroke-linecap="round" stroke-linejoin="round" stroke-miterlimit="10" d="
		M129.6,156.6V92.475c0,0-1.688-6.413,5.063-6.413c7.088,0,5.4,5.737,5.4,5.737v36.788 M141.075,121.838
		c0,0,6.075-6.075,13.162,0.675v6.075 M156.6,125.213c0,0,4.388-7.088,11.476-0.338v7.425"/>
</g>
<g>
	
		<circle fill="#FFFFFF" stroke="#4C5C68" stroke-width="3" stroke-linecap="round" stroke-linejoin="round" stroke-miterlimit="10" cx="105.3" cy="92.137" r="17.212"/>
	
		<path fill="#FFFFFF" stroke="#4C5C68" stroke-width="3" stroke-linecap="round" stroke-linejoin="round" stroke-miterlimit="10" d="
		M96.525,107.663l-8.1,11.812"/>
</g>
</svg>
