<?xml version="1.0" encoding="utf-8"?>
<!-- Generator: Adobe Illustrator 16.0.0, SVG Export Plug-In . SVG Version: 6.00 Build 0)  -->
<!DOCTYPE svg PUBLIC "-//W3C//DTD SVG 1.1//EN" "http://www.w3.org/Graphics/SVG/1.1/DTD/svg11.dtd">
<svg version="1.1" id="Layer_1" xmlns="http://www.w3.org/2000/svg" xmlns:xlink="http://www.w3.org/1999/xlink" x="0px" y="0px"
	 width="216px" height="216px" viewBox="0 0 216 216" enable-background="new 0 0 216 216" xml:space="preserve">
<path fill="#FFFFFF" stroke="#4C5C68" stroke-width="3" stroke-linecap="round" stroke-linejoin="round" stroke-miterlimit="10" d="
	M128.588,174.487H29.7V47.25h69.862"/>
<path fill="#FFFFFF" stroke="#4C5C68" stroke-width="3" stroke-linecap="round" stroke-linejoin="round" stroke-miterlimit="10" d="
	M111.713,27h54v77.962h-54V27z"/>
<path fill="#6DCFF6" d="M122.175,32.4h37.8v66.488h-37.8V32.4z"/>
<path fill="#FFFFFF" stroke="#4C5C68" stroke-width="3" stroke-linecap="round" stroke-linejoin="round" stroke-miterlimit="10" d="
	M117.787,103.275V28.35"/>
<path fill="#FFFFFF" stroke="#4C5C68" stroke-width="3" stroke-linecap="round" stroke-linejoin="round" stroke-miterlimit="10" d="
	M156.938,91.125V82.35"/>
<path fill="none" stroke="#CEE8FA" stroke-width="3" stroke-linecap="round" stroke-linejoin="round" stroke-miterlimit="10" d="
	M156.938,76.275V70.2 M156.938,61.425V55.35"/>
<circle opacity="0.6" fill="#00A550" enable-background="new    " cx="133.313" cy="43.2" r="7.425"/>
<circle fill="#FFFFFF" cx="133.313" cy="55.012" r="7.425"/>
<path fill="none" stroke="#4C5C68" stroke-width="3" stroke-linecap="round" stroke-linejoin="round" stroke-miterlimit="10" d="
	M170.1,65.138l17.551,18.9v29.025l-4.726,14.175v27H147.15v-10.8c0,0-10.463-14.85-10.125-27"/>
<path fill="#FFFFFF" stroke="#4C5C68" stroke-width="3" stroke-linecap="round" stroke-linejoin="round" stroke-miterlimit="10" d="
	M171.45,97.2l-18.9-18.9c0,0-11.475-5.4-11.475,11.475l16.875,16.875c0,0-1.351,15.863,11.813,28.688"/>
<path fill="#0D3178" stroke="#4C5C68" stroke-width="3" stroke-linecap="round" stroke-linejoin="round" stroke-miterlimit="10" d="
	M139.725,187.313V153.9h51.301v33.412"/>
<path fill="#FFFFFF" stroke="#4C5C68" stroke-width="3" stroke-linecap="round" stroke-linejoin="round" stroke-miterlimit="10" d="
	M40.5,86.063h33.75 M40.5,97.538h54 M40.5,108h54 M40.5,137.362h81.675 M40.5,148.162h81.675"/>
<path fill="#6DCFF6" stroke="#4C5C68" stroke-width="3" stroke-linecap="round" stroke-linejoin="round" stroke-miterlimit="10" d="
	M40.5,118.463h84.037v8.774H40.5V118.463z"/>
</svg>
