<?xml version="1.0" encoding="utf-8"?>
<!-- Generator: Adobe Illustrator 16.0.0, SVG Export Plug-In . SVG Version: 6.00 Build 0)  -->
<!DOCTYPE svg PUBLIC "-//W3C//DTD SVG 1.1//EN" "http://www.w3.org/Graphics/SVG/1.1/DTD/svg11.dtd">
<svg version="1.1" id="Layer_1" xmlns="http://www.w3.org/2000/svg" xmlns:xlink="http://www.w3.org/1999/xlink" x="0px" y="0px"
	 width="216px" height="216px" viewBox="0 0 216 216" enable-background="new 0 0 216 216" xml:space="preserve">
<path fill="#00984A" stroke="#4C5C68" stroke-width="3" stroke-linecap="round" stroke-linejoin="round" stroke-miterlimit="10" d="
	M28.688,82.013H187.65v85.05H28.688V82.013z"/>
<path fill="#FFFFFF" stroke="#4C5C68" stroke-width="3" stroke-linecap="round" stroke-linejoin="round" stroke-miterlimit="10" d="
	M28.688,75.6H180.9v85.05H28.688V75.6z M70.538,88.763h79.988 M70.538,150.862h79.988 M36.788,85.05h6.75 M36.788,150.525h6.75
	 M114.412,150.525h6.75"/>
<text transform="matrix(1 0 0 1 34.7891 130.457)" fill="#4C5C68" font-family="'ArialMT'" font-size="42.876">$</text>
<path fill="#FFFFFF" stroke="#4C5C68" stroke-width="3" stroke-linecap="round" stroke-linejoin="round" stroke-miterlimit="10" d="
	M165.375,143.438l-136.35,23.625V75.6l136.012-27L165.375,143.438z"/>
<path fill="none" stroke="#0D3178" stroke-width="3" stroke-linecap="round" stroke-linejoin="round" stroke-miterlimit="10" d="
	M49.275,117.45c0,0,22.95-16.538,24.3-10.463c1.35,6.075,6.412,4.726,6.412,3.375c0.338-1.35,8.1-6.412,9.45-4.387
	c1.688,2.025,4.725,2.362,5.063,0.337c0.675-1.688,2.7-6.75,4.725-5.063s7.087,0.675,8.775-0.675
	c2.025-1.013,6.75-4.05,10.463-4.725c3.712-0.675,23.625-5.738,23.625-5.738"/>
<path fill="#6DCFF6" stroke="#4C5C68" stroke-width="3" stroke-linecap="round" stroke-linejoin="round" stroke-miterlimit="10" d="
	M156.6,77.625l-16.875,3.038V63.788l16.875-3.375V77.625z"/>
<path fill="none" stroke="#0D3178" stroke-width="3" stroke-linecap="round" stroke-linejoin="round" stroke-miterlimit="10" d="
	M65.813,124.875L138.037,108"/>
</svg>
