<?xml version="1.0" encoding="utf-8"?>
<!-- Generator: Adobe Illustrator 16.0.0, SVG Export Plug-In . SVG Version: 6.00 Build 0)  -->
<!DOCTYPE svg PUBLIC "-//W3C//DTD SVG 1.1//EN" "http://www.w3.org/Graphics/SVG/1.1/DTD/svg11.dtd">
<svg version="1.1" id="Layer_1" xmlns="http://www.w3.org/2000/svg" xmlns:xlink="http://www.w3.org/1999/xlink" x="0px" y="0px"
	 width="216px" height="216px" viewBox="0 0 216 216" enable-background="new 0 0 216 216" xml:space="preserve">
<path fill="#FFFFFF" stroke="#4C5C68" stroke-width="3" stroke-linecap="round" stroke-linejoin="round" stroke-miterlimit="10" d="
	M110.025,159.638h-81V83.025h81"/>
<path fill="#00984A" stroke="#4C5C68" stroke-width="3" stroke-linecap="round" stroke-linejoin="round" stroke-miterlimit="10" d="
	M29.025,75.938v-17.55h141.75v17.55"/>
<path fill="#FFFFFF" stroke="#4C5C68" stroke-width="3" stroke-linecap="round" stroke-linejoin="round" stroke-miterlimit="10" d="
	M37.462,68.513H82.35 M67.163,94.837H78.3 M67.163,151.2H78.3 M67.163,108H99.9 M67.163,115.425H99.9 M67.163,123.188H99.9
	 M36.45,91.8h6.075 M36.45,150.862h6.075"/>
<path fill="#FFFFFF" stroke="#4C5C68" stroke-width="3" stroke-linecap="round" stroke-linejoin="round" stroke-miterlimit="10" d="
	M153.225,177.862c0,0-22.612-5.737-35.774-23.625c-1.351-1.688-2.025-3.712-2.025-5.737V87.413c0,0,32.4-16.538,73.575,0v60.075
	c0,2.025-0.675,4.05-1.35,6.075C183.938,159.3,173.138,173.475,153.225,177.862z"/>
<path fill="#FFFFFF" d="M152.213,154.912c-14.851,0-27.338-12.149-27.338-27.337s12.15-27.338,27.338-27.338
	s27.337,12.15,27.337,27.338S167.4,154.912,152.213,154.912z"/>
<path fill="#4C5C68" d="M152.213,102.263c14.175,0,25.649,11.475,25.649,25.649c0,14.176-11.475,25.65-25.649,25.65
	c-14.176,0-25.65-11.475-25.65-25.65C126.563,113.737,138.037,102.263,152.213,102.263 M152.213,98.888
	c-15.863,0-29.025,12.825-29.025,29.024c0,16.2,12.825,29.025,29.025,29.025c16.199,0,29.024-12.825,29.024-29.025
	C181.237,111.713,168.075,98.888,152.213,98.888L152.213,98.888z"/>
<circle fill="#0D3178" cx="152.213" cy="127.913" r="21.6"/>
<g>
	<path fill="none" stroke="#FFFFFF" stroke-width="3" stroke-linecap="round" stroke-linejoin="round" stroke-miterlimit="10" d="
		M160.65,119.138l-16.538,17.55 M160.987,136.013l-17.55-16.538"/>
</g>
<text transform="matrix(1 0 0 1 33.2783 142.6074)" fill="#0D3178" font-family="'MyriadPro-Regular'" font-size="27.8829">Ks</text>
</svg>
