<?xml version="1.0" encoding="utf-8"?>
<!-- Generator: Adobe Illustrator 16.0.0, SVG Export Plug-In . SVG Version: 6.00 Build 0)  -->
<!DOCTYPE svg PUBLIC "-//W3C//DTD SVG 1.1//EN" "http://www.w3.org/Graphics/SVG/1.1/DTD/svg11.dtd">
<svg version="1.1" id="Layer_1" xmlns="http://www.w3.org/2000/svg" xmlns:xlink="http://www.w3.org/1999/xlink" x="0px" y="0px"
	 width="216px" height="216px" viewBox="0 0 216 216" enable-background="new 0 0 216 216" xml:space="preserve">
<ellipse fill="#FFFFFF" stroke="#4C5C68" stroke-width="3" stroke-linecap="round" stroke-linejoin="round" stroke-miterlimit="10" cx="58.05" cy="124.2" rx="29.7" ry="29.363"/>
<ellipse fill="#0D3178" cx="58.05" cy="124.2" rx="23.288" ry="22.95"/>
<path fill="#CEE8FA" stroke="#4C5C68" stroke-width="3" stroke-linecap="round" stroke-linejoin="round" stroke-miterlimit="10" d="
	M177.525,98.212h9.787v32.738h-9.787V98.212z"/>
<path fill="#FFFFFF" stroke="#4C5C68" stroke-width="3" stroke-linecap="round" stroke-linejoin="round" stroke-miterlimit="10" d="
	M180.9,141.412V71.888H71.55v88.763H180.9v-7.088"/>
<path fill="#FFFFFF" stroke="#4C5C68" stroke-width="3" stroke-linecap="round" stroke-linejoin="round" stroke-miterlimit="10" d="
	M180.9,85.05H86.063c-7.425,0-14.513-5.4-14.513-12.825v-0.337c0-7.088,7.088-13.163,14.513-13.163H180.9V85.05z M187.65,131.287
	h-38.476c-6.75,0-11.138-4.387-11.138-10.462v0.337c0-6.074,4.726-9.787,11.138-9.787h38.476V131.287z"/>
<path fill="#00984A" d="M184.275,128.25h-34.088c-5.737,0-9.112-3.037-9.112-7.088v0.338c0-4.05,3.375-6.412,9.112-6.412h34.088
	V128.25z"/>
<path fill="none" stroke="#4C5C68" stroke-width="3" stroke-linecap="round" stroke-linejoin="round" stroke-miterlimit="10" stroke-dasharray="1,5" d="
	M83.025,98.212h92.813 M83.025,150.862h92.813"/>
<ellipse fill="#0D3178" cx="147.825" cy="121.163" rx="4.05" ry="4.05"/>
<path fill="#00984A" stroke="#4C5C68" stroke-width="3" stroke-linecap="round" stroke-linejoin="round" stroke-miterlimit="10" d="
	M108,63.788V52.313h66.15v11.475 M84.712,76.95v-8.1h86.4v8.1"/>
<text transform="matrix(1 0 0 1 40.8247 133.2871)" fill="#FFFFFF" font-family="'MyriadPro-Regular'" font-size="29.7866">Ks</text>
</svg>
