<?xml version="1.0" encoding="utf-8"?>
<!-- Generator: Adobe Illustrator 16.0.0, SVG Export Plug-In . SVG Version: 6.00 Build 0)  -->
<!DOCTYPE svg PUBLIC "-//W3C//DTD SVG 1.1//EN" "http://www.w3.org/Graphics/SVG/1.1/DTD/svg11.dtd">
<svg version="1.1" id="Layer_1" xmlns="http://www.w3.org/2000/svg" xmlns:xlink="http://www.w3.org/1999/xlink" x="0px" y="0px"
	 width="216px" height="216px" viewBox="0 0 216 216" enable-background="new 0 0 216 216" xml:space="preserve">
<g>
	
		<path fill="#00984A" stroke="#4C5C68" stroke-width="3" stroke-linecap="round" stroke-linejoin="round" stroke-miterlimit="10" d="
		M140.063,187.987v-21.6h35.1v21.6"/>
	
		<path fill="#FFFFFF" stroke="#4C5C68" stroke-width="3" stroke-linecap="round" stroke-linejoin="round" stroke-miterlimit="10" d="
		M145.125,165.375v-13.838l12.487-19.912v-14.85c0,0-0.337-3.713,3.038-4.051c0,0,4.725-0.337,4.725,3.038V135l2.362,4.05"/>
	<path fill="none" stroke="#4C5C68" stroke-width="3" stroke-linecap="round" stroke-linejoin="round" stroke-miterlimit="10" d="
		M162.338,107.663l-7.426-23.288c0,0-1.35-3.375,1.688-5.4c3.038-1.688,5.063,1.35,6.75,4.387l19.238,36.788
		c0,0,3.375,4.725,2.362,9.112S170.1,155.925,170.1,155.925v6.75"/>
	
		<path fill="#00984A" stroke="#4C5C68" stroke-width="3" stroke-linecap="round" stroke-linejoin="round" stroke-miterlimit="10" d="
		M74.925,187.987v-21.6H39.15v21.6"/>
	
		<path fill="#FFFFFF" stroke="#4C5C68" stroke-width="3" stroke-linecap="round" stroke-linejoin="round" stroke-miterlimit="10" d="
		M69.862,165.037v-14.175l-12.825-20.25v-15.188c0,0,0.337-3.712-3.038-4.05c0,0-4.725-0.338-4.725,3.037v19.913l-2.362,4.05"/>
	<path fill="none" stroke="#4C5C68" stroke-width="3" stroke-linecap="round" stroke-linejoin="round" stroke-miterlimit="10" d="
		M54,106.65l7.087-23.288c0,0,1.013-3.712-1.688-5.4c-3.038-1.688-5.4,1.35-7.087,4.388c-1.688,3.375-19.575,37.125-19.575,37.125
		s-2.7,4.726-1.688,9.113c1.013,4.387,15.863,27,15.863,27v6.75"/>
</g>
<ellipse fill="#FFFFFF" stroke="#4C5C68" stroke-width="3" stroke-linecap="round" stroke-linejoin="round" stroke-miterlimit="10" cx="108" cy="65.813" rx="35.775" ry="35.438"/>
<ellipse fill="#0D3178" cx="108" cy="65.813" rx="28.013" ry="28.013"/>
<g>
	<path fill="#FFFFFF" d="M94.091,54.573h2.788v10.414h0.096c0.577-0.833,1.153-1.602,1.698-2.307l6.601-8.107h3.46l-7.818,9.165
		l8.427,12.433h-3.3L98.93,65.563l-2.051,2.371v8.235h-2.788V54.573z"/>
	<path fill="#FFFFFF" d="M110.98,73.286c0.834,0.544,2.307,1.122,3.717,1.122c2.051,0,3.012-1.025,3.012-2.307
		c0-1.346-0.801-2.083-2.883-2.852c-2.789-0.993-4.102-2.531-4.102-4.39c0-2.499,2.018-4.55,5.352-4.55
		c1.57,0,2.947,0.448,3.813,0.961l-0.705,2.051c-0.609-0.384-1.73-0.897-3.172-0.897c-1.666,0-2.596,0.961-2.596,2.115
		c0,1.282,0.93,1.858,2.947,2.627c2.691,1.025,4.07,2.372,4.07,4.679c0,2.724-2.115,4.646-5.801,4.646
		c-1.697,0-3.268-0.417-4.357-1.057L110.98,73.286z"/>
</g>
</svg>
