<?xml version="1.0" encoding="utf-8"?>
<!-- Generator: Adobe Illustrator 16.0.0, SVG Export Plug-In . SVG Version: 6.00 Build 0)  -->
<!DOCTYPE svg PUBLIC "-//W3C//DTD SVG 1.1//EN" "http://www.w3.org/Graphics/SVG/1.1/DTD/svg11.dtd">
<svg version="1.1" id="Layer_1" xmlns="http://www.w3.org/2000/svg" xmlns:xlink="http://www.w3.org/1999/xlink" x="0px" y="0px"
	 width="216px" height="216px" viewBox="0 0 216 216" enable-background="new 0 0 216 216" xml:space="preserve">
<path fill="#6DCFF6" d="M58.05,189h-10.8c-1.688,0-3.375-1.35-3.375-3.375V52.987c0-4.725,3.712-8.438,8.438-8.438h0.337
	c4.725,0,8.438,3.713,8.438,8.438v133.65C60.75,187.987,59.737,189,58.05,189L58.05,189z"/>
<path fill="none" stroke="#4C5C68" stroke-width="3" stroke-linecap="round" stroke-linejoin="round" stroke-miterlimit="10" d="
	M60.75,88.763V189 M44.212,181.237V52.65c0-4.725,3.712-8.438,8.438-8.438s8.438,3.712,8.438,8.438v15.525"/>
<path fill="none" stroke="#4C5C68" stroke-width="3" stroke-linecap="round" stroke-linejoin="round" stroke-miterlimit="10" d="
	M43.875,187.987V57.375"/>
<path fill="none" stroke="#4C5C68" stroke-width="3" stroke-linecap="round" stroke-linejoin="round" stroke-miterlimit="10" d="
	M53.663,44.212h87.075c7.425,0,13.838,6.075,13.838,13.837v118.8c0,7.088-5.737,12.825-12.825,12.825H40.5 M44.212,133.987v49.275
	c0,3.712-3.038,6.75-6.75,6.75h-1.688c-4.05,0-7.087-3.375-7.087-7.088v-64.462h7.425 M74.925,66.15h32.063 M74.925,123.525h67.163
	 M74.925,135h67.163 M74.925,146.813h67.163 M74.925,158.625h67.163 M74.925,170.1h35.101 M74.925,77.962h24.3 M104.962,77.962h37.8
	"/>
<path fill="#0D3178" stroke="#4C5C68" stroke-width="3" stroke-linecap="round" stroke-linejoin="round" stroke-miterlimit="10" d="
	M73.575,89.438H143.1v21.938H73.575V89.438z"/>
<path fill="#FFFFFF" stroke="#4C5C68" stroke-width="3" stroke-linecap="round" stroke-linejoin="round" stroke-miterlimit="10" d="
	M167.4,62.1h19.574v121.163H167.4V62.1z"/>
<path fill="#0D3178" stroke="#4C5C68" stroke-width="3" stroke-linecap="round" stroke-linejoin="round" stroke-miterlimit="10" d="
	M168.75,62.1h16.875v49.275H168.75V62.1z"/>
<path fill="#FFFFFF" stroke="#4C5C68" stroke-width="3" stroke-linecap="round" stroke-linejoin="round" stroke-miterlimit="10" d="
	M178.537,43.875l8.438,17.212H167.4L178.537,43.875z"/>
<path fill="#0D3178" stroke="#4C5C68" stroke-width="3" stroke-linecap="round" stroke-linejoin="round" stroke-miterlimit="10" d="
	M172.463,183.263h9.787v9.112h-9.787V183.263z"/>
<path fill="none" stroke="#4C5C68" stroke-width="3" stroke-linecap="round" stroke-linejoin="round" stroke-miterlimit="10" d="
	M177.188,182.25v-44.888"/>
<path fill="none" stroke="#6DCFF6" stroke-width="3" stroke-linecap="round" stroke-linejoin="round" stroke-miterlimit="10" d="
	M180.9,97.2h-6.413 M180.9,90.45h-6.413 M180.9,83.7h-6.413"/>
</svg>
