<?xml version="1.0" encoding="utf-8"?>
<!-- Generator: Adobe Illustrator 16.0.0, SVG Export Plug-In . SVG Version: 6.00 Build 0)  -->
<!DOCTYPE svg PUBLIC "-//W3C//DTD SVG 1.1//EN" "http://www.w3.org/Graphics/SVG/1.1/DTD/svg11.dtd">
<svg version="1.1" id="Layer_1" xmlns="http://www.w3.org/2000/svg" xmlns:xlink="http://www.w3.org/1999/xlink" x="0px" y="0px"
	 width="216px" height="216px" viewBox="0 0 216 216" enable-background="new 0 0 216 216" xml:space="preserve">
<path fill="#FFFFFF" d="M156.6,183.6H62.775c-9.112,0-16.538-7.425-16.538-16.537V101.25c0-20.587,16.875-37.462,37.463-37.462
	h33.412c21.938,0,39.825,17.887,39.825,39.825V183.6H156.6z"/>
<path fill="#FFFFFF" stroke="#4C5C68" stroke-width="3" stroke-linecap="round" stroke-linejoin="round" stroke-miterlimit="10" d="
	M84.038,53.325h31.05V63.45h-31.05V53.325z M84.712,53.325l-7.087-17.55c-0.675-1.688,0-3.712,1.688-4.387
	c4.05-2.363,11.475-5.063,20.25,1.012c0,0,12.487-6.075,20.25-1.012c1.688,1.012,2.362,2.7,1.688,4.725l-7.088,17.55h-29.7V53.325z"
	/>
<path fill="none" stroke="#4C5C68" stroke-width="3" stroke-linecap="round" stroke-linejoin="round" stroke-miterlimit="10" d="
	M73.237,49.612c0,0,2.7,6.75,9.45,6.413"/>
<path fill="#FFFFFF" stroke="#4C5C68" stroke-width="3" stroke-linecap="round" stroke-linejoin="round" stroke-miterlimit="10" d="
	M114.075,183.6h-51.3c-9.112,0-16.538-7.425-16.538-16.537 M46.237,128.925V101.25c0-20.587,16.875-37.462,37.463-37.462h33.412
	c21.938,0,39.825,17.887,39.825,39.825V183.6h-25.65"/>
<path fill="none" stroke="#4C5C68" stroke-width="3" stroke-linecap="round" stroke-linejoin="round" stroke-miterlimit="10" d="
	M125.55,49.612c0,0-2.7,6.75-9.45,6.413"/>
<path fill="#FFFFFF" stroke="#4C5C68" stroke-width="3" stroke-linecap="round" stroke-linejoin="round" stroke-miterlimit="10" d="
	M34.087,136.35h32.738V151.2H34.087V136.35z"/>
<path fill="#00984A" d="M51.975,138.375h13.5v11.475h-13.5V138.375z"/>
<path fill="#FFFFFF" stroke="#4C5C68" stroke-width="3" stroke-linecap="round" stroke-linejoin="round" stroke-miterlimit="10" d="
	M34.087,151.2h32.738v11.813H34.087V151.2z"/>
<path fill="#00984A" d="M51.975,152.888h13.5v8.774h-13.5V152.888z"/>
<path fill="#FFFFFF" stroke="#4C5C68" stroke-width="3" stroke-linecap="round" stroke-linejoin="round" stroke-miterlimit="10" d="
	M34.087,163.013h32.738v11.813H34.087V163.013z"/>
<path fill="#00984A" d="M51.975,165.037h13.5v8.775h-13.5V165.037z"/>
<path fill="#FFFFFF" stroke="#4C5C68" stroke-width="3" stroke-linecap="round" stroke-linejoin="round" stroke-miterlimit="10" d="
	M34.087,175.162h32.738v11.813H34.087V175.162z"/>
<path fill="#00984A" d="M51.975,176.85h13.5v8.438h-13.5V176.85z"/>
<ellipse fill="#FFFFFF" stroke="#4C5C68" stroke-width="3" stroke-linecap="round" stroke-linejoin="round" stroke-miterlimit="10" cx="100.913" cy="102.938" rx="26.325" ry="26.325"/>
<path fill="#FFFFFF" stroke="#4C5C68" stroke-width="3" stroke-linecap="round" stroke-linejoin="round" stroke-miterlimit="10" d="
	M149.85,108.337h27.676v13.837H149.85V108.337z"/>
<path fill="#00984A" d="M165.375,110.025h10.463v13.837h-10.463V110.025z"/>
<path fill="#FFFFFF" stroke="#4C5C68" stroke-width="3" stroke-linecap="round" stroke-linejoin="round" stroke-miterlimit="10" d="
	M149.85,121.838h27.676v13.837H149.85V121.838z"/>
<path fill="#00984A" d="M165.375,123.525h10.463v13.837h-10.463V123.525z"/>
<path fill="#FFFFFF" stroke="#4C5C68" stroke-width="3" stroke-linecap="round" stroke-linejoin="round" stroke-miterlimit="10" d="
	M149.85,135.675h27.676v13.838H149.85V135.675z"/>
<path fill="#00984A" d="M165.375,137.362h10.463v10.125h-10.463V137.362z"/>
<path fill="#FFFFFF" stroke="#4C5C68" stroke-width="3" stroke-linecap="round" stroke-linejoin="round" stroke-miterlimit="10" d="
	M149.85,149.175h27.676v13.838H149.85V149.175z"/>
<path fill="#00984A" d="M165.375,150.862h10.463v10.125h-10.463V150.862z"/>
<path fill="#FFFFFF" stroke="#4C5C68" stroke-width="3" stroke-linecap="round" stroke-linejoin="round" stroke-miterlimit="10" d="
	M149.85,159.638h27.676v13.837H149.85V159.638z"/>
<path fill="#00984A" d="M165.375,161.325h10.463v13.837h-10.463V161.325z"/>
<path fill="#FFFFFF" stroke="#4C5C68" stroke-width="3" stroke-linecap="round" stroke-linejoin="round" stroke-miterlimit="10" d="
	M149.85,173.138h27.676v13.837H149.85V173.138z"/>
<path fill="#00984A" d="M165.375,174.825h10.463v10.125h-10.463V174.825z"/>
<path fill="#FFFFFF" stroke="#4C5C68" stroke-width="3" stroke-linecap="round" stroke-linejoin="round" stroke-miterlimit="10" d="
	M122.175,159.638h27.675v13.837h-27.675V159.638z"/>
<path fill="#00984A" d="M137.7,161.325h10.462v13.837H137.7V161.325z"/>
<path fill="#FFFFFF" stroke="#4C5C68" stroke-width="3" stroke-linecap="round" stroke-linejoin="round" stroke-miterlimit="10" d="
	M122.175,173.138h27.675v13.837h-27.675V173.138z"/>
<path fill="#00984A" d="M137.7,174.825h10.462v10.125H137.7V174.825z"/>
<ellipse fill="#0D3178" cx="100.913" cy="102.938" rx="20.925" ry="20.588"/>
<g>
	<path fill="#FFFFFF" d="M90.239,93.491h2.269v8.475h0.078c0.47-0.678,0.939-1.304,1.382-1.877l5.372-6.598h2.816l-6.363,7.458
		l6.858,10.118h-2.686l-5.789-8.631l-1.669,1.93v6.701h-2.269V93.491z"/>
	<path fill="#FFFFFF" d="M103.978,108.72c0.678,0.443,1.877,0.913,3.025,0.913c1.669,0,2.451-0.834,2.451-1.878
		c0-1.095-0.651-1.695-2.346-2.321c-2.269-0.808-3.338-2.06-3.338-3.572c0-2.034,1.643-3.703,4.354-3.703
		c1.278,0,2.4,0.365,3.103,0.782l-0.573,1.669c-0.495-0.313-1.408-0.73-2.582-0.73c-1.356,0-2.112,0.782-2.112,1.721
		c0,1.043,0.756,1.512,2.399,2.138c2.19,0.834,3.312,1.93,3.312,3.807c0,2.217-1.721,3.782-4.72,3.782
		c-1.382,0-2.66-0.34-3.546-0.861L103.978,108.72z"/>
</g>
</svg>
