<?xml version="1.0" encoding="utf-8"?>
<!-- Generator: Adobe Illustrator 16.0.0, SVG Export Plug-In . SVG Version: 6.00 Build 0)  -->
<!DOCTYPE svg PUBLIC "-//W3C//DTD SVG 1.1//EN" "http://www.w3.org/Graphics/SVG/1.1/DTD/svg11.dtd">
<svg version="1.1" id="Layer_1" xmlns="http://www.w3.org/2000/svg" xmlns:xlink="http://www.w3.org/1999/xlink" x="0px" y="0px"
	 width="216px" height="216px" viewBox="0 0 216 216" enable-background="new 0 0 216 216" xml:space="preserve">
<path fill="#CEE8FA" stroke="#4C5C68" stroke-width="3" stroke-linecap="round" stroke-linejoin="round" stroke-miterlimit="10" d="
	M179.213,102.6h8.438v28.012h-8.438V102.6z"/>
<path fill="#FFFFFF" stroke="#4C5C68" stroke-width="3" stroke-linecap="round" stroke-linejoin="round" stroke-miterlimit="10" d="
	M115.088,149.175h66.824V143.1 M181.912,143.1V73.575H88.425v12.487"/>
<path fill="#FFFFFF" stroke="#4C5C68" stroke-width="3" stroke-linecap="round" stroke-linejoin="round" stroke-miterlimit="10" d="
	M181.912,84.712h-81.337c-6.413,0-12.488-4.725-12.488-10.8v-0.337c0-6.075,6.075-11.138,12.488-11.138h81.337V84.712z"/>
<path fill="#FFFFFF" stroke="#4C5C68" stroke-width="3" stroke-linecap="round" stroke-linejoin="round" stroke-miterlimit="10" d="
	M187.65,124.2h-33.075c-5.737,0-9.788-3.713-9.788-8.775v0.338c0-5.063,4.051-8.1,9.788-8.1h33.075V124.2z"/>
<path fill="#00984A" d="M184.95,121.5h-29.362c-5.063,0-7.763-2.362-7.763-6.075v0.338c0-3.375,2.7-5.737,7.763-5.737h29.362V121.5z
	"/>
<path fill="none" stroke="#4C5C68" stroke-width="3" stroke-linecap="round" stroke-linejoin="round" stroke-miterlimit="10" stroke-dasharray="0.8552,5" d="
	M98.212,95.85h79.313 M115.088,141.075h62.438"/>
<ellipse fill="#286090" cx="153.563" cy="115.425" rx="3.375" ry="3.375"/>
<path fill="#00984A" stroke="#4C5C68" stroke-width="3" stroke-linecap="round" stroke-linejoin="round" stroke-miterlimit="10" d="
	M119.475,66.487V56.7h56.7v9.787 M99.563,77.625v-7.087h73.912v7.087"/>
<path fill="#FFFFFF" d="M70.538,137.7c-10.462,0-19.238-11.138-19.238-24.976c0-13.837,8.438-24.975,19.238-24.975
	c10.462,0,19.237,11.138,19.237,24.975C89.775,126.563,81,137.7,70.538,137.7z"/>
<path fill="#4C5C68" d="M70.538,89.438c9.788,0,17.55,10.462,17.55,23.287c0,12.825-7.762,23.288-17.55,23.288
	s-17.55-10.463-17.55-23.288C52.987,99.9,60.75,89.438,70.538,89.438 M70.538,86.063c-11.475,0-20.925,11.813-20.925,26.662
	c0,14.851,9.45,26.663,20.925,26.663s20.925-11.813,20.925-26.663C91.462,97.875,82.013,86.063,70.538,86.063z"/>
<path fill="#0D3178" stroke="#4C5C68" stroke-width="3" stroke-linecap="round" stroke-linejoin="round" stroke-miterlimit="10" d="
	M27.337,161.325h85.725l-6.413-17.55l-19.913-5.4L70.2,147.15l-16.875-9.113l-19.575,5.738L27.337,161.325z"/>
<path fill="none" stroke="#4C5C68" stroke-width="3" stroke-linecap="round" stroke-linejoin="round" stroke-miterlimit="10" d="
	M52.313,108.337c0,0,18.225,6.75,19.913-11.813c0,0,2.025,8.1,14.175,5.063"/>
</svg>
