<?xml version="1.0" encoding="utf-8"?>
<!-- Generator: Adobe Illustrator 16.0.0, SVG Export Plug-In . SVG Version: 6.00 Build 0)  -->
<!DOCTYPE svg PUBLIC "-//W3C//DTD SVG 1.1//EN" "http://www.w3.org/Graphics/SVG/1.1/DTD/svg11.dtd">
<svg version="1.1" id="Layer_1" xmlns="http://www.w3.org/2000/svg" xmlns:xlink="http://www.w3.org/1999/xlink" x="0px" y="0px"
	 width="216px" height="216px" viewBox="0 0 216 216" enable-background="new 0 0 216 216" xml:space="preserve">
<g>
	
		<polyline id="XMLID_719_" fill="#FFFFFF" stroke="#171C28" stroke-width="3" stroke-linecap="round" stroke-linejoin="round" stroke-miterlimit="10" points="
		128.25,182.588 18.563,182.588 18.563,41.513 96.188,41.513 	"/>
	<g id="XMLID_281_">
		<g id="XMLID_282_">
			
				<path id="XMLID_303_" fill="#FFFFFF" stroke="#171C28" stroke-width="3" stroke-linecap="round" stroke-linejoin="round" stroke-miterlimit="10" d="
				M174.15,61.425l19.237,20.925v32.062l-5.4,15.863v30.037h-39.149v-12.15c0,0-11.813-16.199-11.138-29.699"/>
			<g id="XMLID_305_">
				
					<rect id="XMLID_320_" x="109.754" y="18.865" fill="#FFFFFF" stroke="#171C28" stroke-width="3" stroke-linecap="round" stroke-linejoin="round" stroke-miterlimit="10" width="59.737" height="86.4"/>
				
					<line id="XMLID_318_" fill="none" stroke="#171C28" stroke-width="3" stroke-linecap="round" stroke-linejoin="round" stroke-miterlimit="10" x1="116.438" y1="103.612" x2="116.438" y2="20.587"/>
				
					<line id="XMLID_317_" fill="none" stroke="#4C5C68" stroke-width="3" stroke-linecap="round" stroke-linejoin="round" stroke-miterlimit="10" x1="159.638" y1="90.45" x2="159.638" y2="80.325"/>
				<circle id="XMLID_307_" fill="#0D3178" cx="133.65" cy="37.462" r="8.438"/>
				<circle id="XMLID_306_" fill="#171C28" cx="133.65" cy="50.288" r="8.438"/>
			</g>
			
				<path id="XMLID_302_" fill="#FFFFFF" stroke="#171C28" stroke-width="3" stroke-linecap="round" stroke-linejoin="round" stroke-miterlimit="10" d="
				M175.5,96.862l-20.925-20.925c0,0-12.487-5.737-12.487,12.487l18.899,18.9c0,0-1.35,17.55,13.163,31.725"/>
			
				<polyline id="XMLID_301_" fill="#FFFFFF" stroke="#171C28" stroke-width="3" stroke-linecap="round" stroke-linejoin="round" stroke-miterlimit="10" points="
				140.737,196.763 140.737,159.975 197.438,159.975 197.438,196.763 			"/>
		</g>
	</g>
	
		<line id="XMLID_724_" fill="none" stroke="#171C28" stroke-width="3" stroke-linecap="round" stroke-linejoin="round" stroke-miterlimit="10" x1="30.712" y1="84.712" x2="68.175" y2="84.712"/>
	
		<line id="XMLID_725_" fill="none" stroke="#171C28" stroke-width="3" stroke-linecap="round" stroke-linejoin="round" stroke-miterlimit="10" x1="30.712" y1="97.538" x2="90.45" y2="97.538"/>
	
		<line id="XMLID_726_" fill="none" stroke="#171C28" stroke-width="3" stroke-linecap="round" stroke-linejoin="round" stroke-miterlimit="10" x1="30.712" y1="109.013" x2="90.45" y2="109.013"/>
	
		<line id="XMLID_732_" fill="none" stroke="#171C28" stroke-width="3" stroke-linecap="round" stroke-linejoin="round" stroke-miterlimit="10" x1="30.712" y1="141.412" x2="121.162" y2="141.412"/>
	
		<line id="XMLID_733_" fill="none" stroke="#171C28" stroke-width="3" stroke-linecap="round" stroke-linejoin="round" stroke-miterlimit="10" x1="30.712" y1="153.225" x2="121.162" y2="153.225"/>
	
		<rect id="XMLID_728_" x="30.712" y="120.487" fill="#0D3178" stroke="#171C28" stroke-width="3" stroke-linecap="round" stroke-linejoin="round" stroke-miterlimit="10" width="92.813" height="9.788"/>
</g>
</svg>
