<?xml version="1.0" encoding="utf-8"?>
<!-- Generator: Adobe Illustrator 17.0.0, SVG Export Plug-In . SVG Version: 6.00 Build 0)  -->
<!DOCTYPE svg PUBLIC "-//W3C//DTD SVG 1.1//EN" "http://www.w3.org/Graphics/SVG/1.1/DTD/svg11.dtd">
<svg version="1.1" id="Layer_1" xmlns="http://www.w3.org/2000/svg" xmlns:xlink="http://www.w3.org/1999/xlink" x="0px" y="0px"
	 width="216px" height="216px" viewBox="0 0 216 216" enable-background="new 0 0 216 216" xml:space="preserve">
<g>
	<g>
		<g>
			<g>
				<g>
					<g>
						<path fill="#0D3178" d="M129.713,78.102c-0.048,13.315-10.891,23.865-24.2,23.667c-13.293-0.217-24.045-11.114-23.975-24.455
							c0.054-13.264,10.902-23.889,24.184-23.648C119.031,53.897,129.772,64.82,129.713,78.102z"/>
					</g>
				</g>
				<g>
					<g>
						<path fill="none" stroke="#0D3178" stroke-width="1.3332" stroke-miterlimit="10" d="M133.088,78.156
							c-0.055,15.18-12.417,27.209-27.591,26.983c-15.156-0.248-27.414-12.671-27.334-27.882
							c0.061-15.122,12.429-27.236,27.573-26.961C120.909,50.559,133.155,63.013,133.088,78.156z"/>
					</g>
				</g>
				<g>
					<path fill="#FFFFFF" d="M94.298,66.753h2.507v9.365h0.087c0.518-0.749,1.037-1.441,1.527-2.075l5.936-7.29h3.112l-7.031,8.241
						l7.579,11.181h-2.968l-6.397-9.538l-1.844,2.133v7.406h-2.507V66.753z"/>
					<path fill="#FFFFFF" d="M109.486,83.582c0.75,0.49,2.075,1.009,3.342,1.009c1.844,0,2.709-0.922,2.709-2.075
						c0-1.21-0.721-1.873-2.594-2.564c-2.506-0.893-3.688-2.277-3.688-3.948c0-2.248,1.815-4.092,4.813-4.092
						c1.412,0,2.65,0.404,3.429,0.865l-0.634,1.844c-0.548-0.346-1.556-0.807-2.852-0.807c-1.5,0-2.334,0.864-2.334,1.902
						c0,1.153,0.835,1.672,2.65,2.363c2.421,0.922,3.66,2.132,3.66,4.207c0,2.45-1.902,4.179-5.215,4.179
						c-1.527,0-2.939-0.375-3.919-0.951L109.486,83.582z"/>
				</g>
			</g>
		</g>
	</g>
	<g>
		<g>
			<g>
				<g>
					<g>
						<path fill="#0D3178" d="M70.487,166.201c-0.048,13.315-10.891,23.865-24.2,23.667c-13.293-0.217-24.045-11.114-23.975-24.455
							c0.054-13.264,10.902-23.889,24.184-23.648C59.805,141.995,70.546,152.919,70.487,166.201z"/>
					</g>
				</g>
				<g>
					<g>
						<path fill="none" stroke="#0D3178" stroke-width="1.3332" stroke-miterlimit="10" d="M73.862,166.255
							c-0.055,15.18-12.417,27.209-27.591,26.983c-15.156-0.248-27.414-12.671-27.334-27.882
							c0.061-15.122,12.429-27.236,27.573-26.961C61.683,138.658,73.929,151.111,73.862,166.255z"/>
					</g>
				</g>
				<g>
					<path fill="#FFFFFF" d="M35.072,154.852h2.507v9.365h0.087c0.518-0.748,1.037-1.44,1.527-2.075l5.936-7.29h3.112l-7.031,8.242
						l7.579,11.181H45.82l-6.397-9.538l-1.844,2.133v7.406h-2.507V154.852z"/>
					<path fill="#FFFFFF" d="M50.261,171.68c0.75,0.49,2.075,1.009,3.342,1.009c1.844,0,2.709-0.923,2.709-2.075
						c0-1.211-0.721-1.873-2.594-2.565c-2.506-0.893-3.688-2.277-3.688-3.948c0-2.248,1.815-4.092,4.813-4.092
						c1.412,0,2.65,0.404,3.429,0.865l-0.634,1.844c-0.548-0.346-1.556-0.807-2.852-0.807c-1.5,0-2.334,0.865-2.334,1.902
						c0,1.154,0.835,1.673,2.65,2.363c2.421,0.923,3.66,2.133,3.66,4.207c0,2.45-1.902,4.179-5.215,4.179
						c-1.527,0-2.939-0.375-3.919-0.952L50.261,171.68z"/>
				</g>
			</g>
		</g>
	</g>
	<g>
		<g>
			<g>
				<g>
					<g>
						<path fill="#0D3178" d="M194.022,166.201c-0.048,13.315-10.891,23.865-24.2,23.667c-13.293-0.217-24.045-11.114-23.975-24.455
							c0.054-13.264,10.902-23.889,24.184-23.648C183.34,141.995,194.081,152.919,194.022,166.201z"/>
					</g>
				</g>
				<g>
					<g>
						<path fill="none" stroke="#0D3178" stroke-width="1.3332" stroke-miterlimit="10" d="M197.397,166.255
							c-0.055,15.18-12.417,27.209-27.591,26.983c-15.156-0.248-27.414-12.671-27.334-27.882
							c0.061-15.122,12.429-27.236,27.573-26.961C185.219,138.658,197.464,151.111,197.397,166.255z"/>
					</g>
				</g>
				<g>
					<path fill="#FFFFFF" d="M158.607,154.852h2.507v9.365h0.087c0.518-0.748,1.037-1.44,1.527-2.075l5.936-7.29h3.112l-7.031,8.242
						l7.579,11.181h-2.969l-6.396-9.538l-1.844,2.133v7.406h-2.507V154.852z"/>
					<path fill="#FFFFFF" d="M173.796,171.68c0.75,0.49,2.075,1.009,3.342,1.009c1.844,0,2.709-0.923,2.709-2.075
						c0-1.211-0.721-1.873-2.594-2.565c-2.506-0.893-3.688-2.277-3.688-3.948c0-2.248,1.815-4.092,4.813-4.092
						c1.412,0,2.65,0.404,3.429,0.865l-0.634,1.844c-0.548-0.346-1.556-0.807-2.852-0.807c-1.5,0-2.334,0.865-2.334,1.902
						c0,1.154,0.835,1.673,2.65,2.363c2.421,0.923,3.66,2.133,3.66,4.207c0,2.45-1.902,4.179-5.215,4.179
						c-1.527,0-2.939-0.375-3.919-0.952L173.796,171.68z"/>
				</g>
			</g>
		</g>
	</g>
	<g>
		<g>
			<g>
				
					<linearGradient id="SVGID_1_" gradientUnits="userSpaceOnUse" x1="356.8298" y1="-156.3359" x2="356.8298" y2="-185.7152" gradientTransform="matrix(-0.5 0.866 0.866 0.5 393.3598 -103.8052)">
					<stop  offset="0" style="stop-color:#062A54"/>
					<stop  offset="0.2719" style="stop-color:#072C58"/>
					<stop  offset="0.5179" style="stop-color:#083263"/>
					<stop  offset="0.7539" style="stop-color:#0B3C75"/>
					<stop  offset="0.9825" style="stop-color:#104B8F"/>
					<stop  offset="1" style="stop-color:#104C91"/>
				</linearGradient>
				<polygon fill="url(#SVGID_1_)" points="75.865,133.438 56.973,136.776 50.422,118.749 57.46,122.811 71.013,99.334 
					82.392,105.903 68.839,129.382 				"/>
			</g>
		</g>
		<g>
			<g>
				<g>
					
						<linearGradient id="SVGID_2_" gradientUnits="userSpaceOnUse" x1="52.9394" y1="-165.634" x2="78.1024" y2="-165.634" gradientTransform="matrix(0.5 -0.866 0.866 0.5 185.938 255.8706)">
						<stop  offset="0" style="stop-color:#B0CCD6"/>
						<stop  offset="0.0437" style="stop-color:#B4D0D9"/>
						<stop  offset="0.2378" style="stop-color:#C1DBE3"/>
						<stop  offset="0.4888" style="stop-color:#C9E1E9"/>
						<stop  offset="1" style="stop-color:#CBE3EB"/>
					</linearGradient>
					<polygon fill="url(#SVGID_2_)" points="68.126,126.722 80.705,104.935 82.392,105.903 69.813,127.693 					"/>
				</g>
			</g>
			<g>
				<g>
					
						<linearGradient id="SVGID_3_" gradientUnits="userSpaceOnUse" x1="38.6549" y1="-171.2362" x2="50.994" y2="-171.2362" gradientTransform="matrix(0.5 -0.866 0.866 0.5 185.938 255.8706)">
						<stop  offset="0" style="stop-color:#B0CCD6"/>
						<stop  offset="0.0437" style="stop-color:#B4D0D9"/>
						<stop  offset="0.2378" style="stop-color:#C1DBE3"/>
						<stop  offset="0.4888" style="stop-color:#C9E1E9"/>
						<stop  offset="1" style="stop-color:#CBE3EB"/>
					</linearGradient>
					<polygon fill="url(#SVGID_3_)" points="50.422,118.749 50.749,118.936 56.26,134.116 72.177,131.307 75.865,133.438 
						56.973,136.776 					"/>
				</g>
			</g>
		</g>
	</g>
	<g>
		<g>
			<g>
				
					<linearGradient id="SVGID_4_" gradientUnits="userSpaceOnUse" x1="332.3163" y1="-113.8787" x2="332.3163" y2="-143.2579" gradientTransform="matrix(0.5 0.866 -0.866 0.5 -132.347 -103.8052)">
					<stop  offset="0" style="stop-color:#062A54"/>
					<stop  offset="0.2719" style="stop-color:#072C58"/>
					<stop  offset="0.5179" style="stop-color:#083263"/>
					<stop  offset="0.7539" style="stop-color:#0B3C75"/>
					<stop  offset="0.9825" style="stop-color:#104B8F"/>
					<stop  offset="1" style="stop-color:#104C91"/>
				</linearGradient>
				<polygon fill="url(#SVGID_4_)" points="136.123,133.438 155.015,136.776 161.566,118.749 154.528,122.811 140.976,99.334 
					129.597,105.903 143.149,129.382 				"/>
			</g>
		</g>
		<g>
			<g>
				<g>
					
						<linearGradient id="SVGID_5_" gradientUnits="userSpaceOnUse" x1="77.4529" y1="-123.1768" x2="102.6158" y2="-123.1768" gradientTransform="matrix(-0.5 -0.866 -0.866 0.5 75.0748 255.8706)">
						<stop  offset="0" style="stop-color:#B0CCD6"/>
						<stop  offset="0.0437" style="stop-color:#B4D0D9"/>
						<stop  offset="0.2378" style="stop-color:#C1DBE3"/>
						<stop  offset="0.4888" style="stop-color:#C9E1E9"/>
						<stop  offset="1" style="stop-color:#CBE3EB"/>
					</linearGradient>
					<polygon fill="url(#SVGID_5_)" points="143.862,126.722 131.283,104.935 129.597,105.903 142.175,127.693 					"/>
				</g>
			</g>
			<g>
				<g>
					
						<linearGradient id="SVGID_6_" gradientUnits="userSpaceOnUse" x1="63.1684" y1="-128.7789" x2="75.5074" y2="-128.7789" gradientTransform="matrix(-0.5 -0.866 -0.866 0.5 75.0748 255.8706)">
						<stop  offset="0" style="stop-color:#B0CCD6"/>
						<stop  offset="0.0437" style="stop-color:#B4D0D9"/>
						<stop  offset="0.2378" style="stop-color:#C1DBE3"/>
						<stop  offset="0.4888" style="stop-color:#C9E1E9"/>
						<stop  offset="1" style="stop-color:#CBE3EB"/>
					</linearGradient>
					<polygon fill="url(#SVGID_6_)" points="161.566,118.749 161.239,118.936 155.728,134.116 139.812,131.307 136.123,133.438 
						155.015,136.776 					"/>
				</g>
			</g>
		</g>
	</g>
</g>
<g id="XMLID_1_">
	
		<ellipse id="XMLID_4_" fill="#FFFFFF" stroke="#171C28" stroke-width="1.2001" stroke-linecap="round" stroke-linejoin="round" stroke-miterlimit="10" cx="104.66" cy="27.289" rx="8.371" ry="10.666"/>
	
		<polygon id="XMLID_3_" fill="#0D3178" stroke="#171C28" stroke-width="1.2001" stroke-linecap="round" stroke-linejoin="round" stroke-miterlimit="10" points="
		87.378,46.731 121.671,46.731 119.106,39.71 111.14,37.55 104.525,41.06 97.774,37.415 89.943,39.71 	"/>
	
		<path id="XMLID_2_" fill="#FFFFFF" stroke="#171C28" stroke-width="1.2001" stroke-linecap="round" stroke-linejoin="round" stroke-miterlimit="10" d="
		M97.369,25.534c0,0,7.291,2.7,7.966-4.726c0,0,0.81,3.24,5.671,2.025"/>
</g>
</svg>
