<?xml version="1.0" encoding="utf-8"?>
<!-- Generator: Adobe Illustrator 16.0.0, SVG Export Plug-In . SVG Version: 6.00 Build 0)  -->
<!DOCTYPE svg PUBLIC "-//W3C//DTD SVG 1.1//EN" "http://www.w3.org/Graphics/SVG/1.1/DTD/svg11.dtd">
<svg version="1.1" id="Layer_1" xmlns="http://www.w3.org/2000/svg" xmlns:xlink="http://www.w3.org/1999/xlink" x="0px" y="0px"
	 width="216px" height="216px" viewBox="0 0 216 216" enable-background="new 0 0 216 216" xml:space="preserve">
<polyline id="XMLID_1094_" fill="#FFFFFF" stroke="#171C28" stroke-width="3" stroke-linecap="round" stroke-linejoin="round" stroke-miterlimit="10" points="
	153.563,67.163 153.563,185.963 45.9,185.963 45.9,29.362 121.838,29.362 "/>
<polyline id="XMLID_1131_" fill="#FFFFFF" stroke="#171C28" stroke-width="3" stroke-linecap="round" stroke-linejoin="round" stroke-miterlimit="10" points="
	160.987,73.575 160.987,185.963 53.325,185.963 53.325,72.563 53.325,52.65 53.325,37.8 129.263,37.8 "/>
<polyline id="XMLID_976_" fill="#FFFFFF" points="169.088,81.337 169.088,188.325 62.438,188.325 62.438,175.838 62.438,153.225 
	62.438,47.25 137.7,47.25 "/>
<polyline id="XMLID_1133_" fill="#FFFFFF" stroke="#171C28" stroke-width="3" stroke-linecap="round" stroke-linejoin="round" stroke-miterlimit="10" points="
	60.75,151.2 60.75,45.9 136.688,45.9 "/>
<polyline id="XMLID_1171_" fill="#FFFFFF" stroke="#171C28" stroke-width="3" stroke-linecap="round" stroke-linejoin="round" stroke-miterlimit="10" points="
	147.487,185.963 60.75,185.963 60.75,173.475 "/>
<polygon id="XMLID_975_" fill="#FFFFFF" stroke="#171C28" stroke-width="3" stroke-linecap="round" stroke-linejoin="round" stroke-miterlimit="10" points="
	136.688,45.225 136.688,80.663 169.088,80.663 "/>
<line id="XMLID_974_" fill="none" stroke="#171C28" stroke-width="3" stroke-linecap="round" stroke-linejoin="round" stroke-miterlimit="10" x1="106.987" y1="93.825" x2="148.5" y2="93.825"/>
<line id="XMLID_973_" fill="none" stroke="#171C28" stroke-width="3" stroke-linecap="round" stroke-linejoin="round" stroke-miterlimit="10" x1="106.987" y1="106.65" x2="135" y2="106.65"/>
<line id="XMLID_972_" fill="none" stroke="#171C28" stroke-width="3" stroke-linecap="round" stroke-linejoin="round" stroke-miterlimit="10" x1="77.288" y1="119.138" x2="137.362" y2="119.138"/>
<line id="XMLID_971_" fill="none" stroke="#171C28" stroke-width="3" stroke-linecap="round" stroke-linejoin="round" stroke-miterlimit="10" x1="77.288" y1="133.987" x2="137.362" y2="133.987"/>
<line id="XMLID_970_" fill="none" stroke="#171C28" stroke-width="3" stroke-linecap="round" stroke-linejoin="round" stroke-miterlimit="10" x1="77.288" y1="146.813" x2="137.362" y2="146.813"/>
<line id="XMLID_969_" fill="none" stroke="#171C28" stroke-width="3" stroke-linecap="round" stroke-linejoin="round" stroke-miterlimit="10" x1="84.038" y1="159.638" x2="136.688" y2="159.638"/>
<rect id="XMLID_968_" x="77.288" y="87.075" fill="#0D3178" stroke="#6DCFF6" stroke-width="3" stroke-linecap="round" stroke-linejoin="round" stroke-miterlimit="10" width="19.237" height="19.237"/>
<polyline id="XMLID_397_" fill="#FFFFFF" stroke="#171C28" stroke-width="3" stroke-linecap="round" stroke-linejoin="round" stroke-miterlimit="10" points="
	163.013,131.963 150.188,131.963 168.412,113.737 186.975,131.963 174.825,131.963 174.825,179.55 163.013,179.55 163.013,131.963 
	"/>
<line id="XMLID_1172_" fill="none" stroke="#171C28" stroke-width="3" stroke-linecap="round" stroke-linejoin="round" stroke-miterlimit="10" x1="169.088" y1="102.938" x2="169.088" y2="80.663"/>
</svg>
