<?xml version="1.0" encoding="utf-8"?>
<!-- Generator: Adobe Illustrator 16.0.0, SVG Export Plug-In . SVG Version: 6.00 Build 0)  -->
<!DOCTYPE svg PUBLIC "-//W3C//DTD SVG 1.1//EN" "http://www.w3.org/Graphics/SVG/1.1/DTD/svg11.dtd">
<svg version="1.1" id="Layer_1" xmlns="http://www.w3.org/2000/svg" xmlns:xlink="http://www.w3.org/1999/xlink" x="0px" y="0px"
	 width="216px" height="216px" viewBox="0 0 216 216" enable-background="new 0 0 216 216" xml:space="preserve">
<g>
	
		<path id="XMLID_413_" fill="#FFFFFF" stroke="#171C28" stroke-width="3" stroke-linecap="round" stroke-linejoin="round" stroke-miterlimit="10" d="
		M165.375,194.725H59.4c-10.462,0-18.9-8.438-18.9-18.898v-50.288v-23.962c0-23.288,18.9-42.188,42.188-42.188h37.8
		c24.638,0,44.888,20.25,44.888,44.887L165.375,194.725L165.375,194.725z"/>
	
		<rect id="XMLID_410_" x="83.362" y="47.913" fill="#FFFFFF" stroke="#171C28" stroke-width="3" stroke-linecap="round" stroke-linejoin="round" stroke-miterlimit="10" width="35.101" height="11.475"/>
	
		<path id="XMLID_409_" fill="#FFFFFF" stroke="#171C28" stroke-width="3" stroke-linecap="round" stroke-linejoin="round" stroke-miterlimit="10" d="
		M84.038,47.913L76.275,28c-0.675-2.025,0-4.05,1.688-5.063c4.388-2.7,12.825-5.737,22.613,1.013c0,0,14.175-7.088,22.949-1.013
		c1.688,1.35,2.363,3.375,1.688,5.063l-7.763,19.913H84.038z"/>
	
		<path id="XMLID_408_" fill="#FFFFFF" stroke="#171C28" stroke-width="3" stroke-linecap="round" stroke-linejoin="round" stroke-miterlimit="10" d="
		M71.212,43.188c0,0,3.038,7.425,10.8,7.087"/>
	
		<path id="XMLID_675_" fill="#FFFFFF" stroke="#171C28" stroke-width="3" stroke-linecap="round" stroke-linejoin="round" stroke-miterlimit="10" d="
		M117.111,194.725H59.4c-10.462,0-18.9-8.438-18.9-18.898"/>
	
		<path id="XMLID_672_" fill="#FFFFFF" stroke="#171C28" stroke-width="3" stroke-linecap="round" stroke-linejoin="round" stroke-miterlimit="10" d="
		M40.5,132.963v-31.388c0-23.288,18.9-42.188,42.188-42.188h37.8c24.638,0,44.888,20.25,44.888,44.887v90.451H136.35"/>
	
		<path id="XMLID_407_" fill="#FFFFFF" stroke="#171C28" stroke-width="3" stroke-linecap="round" stroke-linejoin="round" stroke-miterlimit="10" d="
		M129.938,43.188c0,0-3.037,7.425-10.799,7.087"/>
	
		<rect id="XMLID_270_" x="27" y="141.4" fill="#FFFFFF" stroke="#171C28" stroke-width="3" stroke-linecap="round" stroke-linejoin="round" stroke-miterlimit="10" width="36.788" height="16.875"/>
	
		<rect id="XMLID_641_" x="27" y="158.275" fill="#FFFFFF" stroke="#171C28" stroke-width="3" stroke-linecap="round" stroke-linejoin="round" stroke-miterlimit="10" width="36.788" height="13.5"/>
	
		<rect id="XMLID_269_" x="27" y="171.775" fill="#FFFFFF" stroke="#171C28" stroke-width="3" stroke-linecap="round" stroke-linejoin="round" stroke-miterlimit="10" width="36.788" height="13.5"/>
	
		<rect id="XMLID_267_" x="27" y="184.938" fill="#FFFFFF" stroke="#171C28" stroke-width="3" stroke-linecap="round" stroke-linejoin="round" stroke-miterlimit="10" width="36.788" height="13.5"/>
	
		<ellipse id="XMLID_265_" fill="#FFFFFF" stroke="#171C28" stroke-width="3" stroke-linecap="round" stroke-linejoin="round" stroke-miterlimit="10" cx="102.263" cy="111.363" rx="38.475" ry="38.137"/>
	
		<rect id="XMLID_917_" x="157.611" y="109.675" fill="#FFFFFF" stroke="#171C28" stroke-width="3" stroke-linecap="round" stroke-linejoin="round" stroke-miterlimit="10" width="31.051" height="15.525"/>
	
		<rect id="XMLID_919_" x="157.611" y="124.861" fill="#FFFFFF" stroke="#171C28" stroke-width="3" stroke-linecap="round" stroke-linejoin="round" stroke-miterlimit="10" width="31.051" height="15.525"/>
	
		<rect id="XMLID_920_" x="157.611" y="140.389" fill="#FFFFFF" stroke="#171C28" stroke-width="3" stroke-linecap="round" stroke-linejoin="round" stroke-miterlimit="10" width="31.051" height="15.523"/>
	
		<rect id="XMLID_921_" x="157.611" y="155.912" fill="#FFFFFF" stroke="#171C28" stroke-width="3" stroke-linecap="round" stroke-linejoin="round" stroke-miterlimit="10" width="31.051" height="15.525"/>
	
		<rect id="XMLID_846_" x="157.611" y="167.389" fill="#FFFFFF" stroke="#171C28" stroke-width="3" stroke-linecap="round" stroke-linejoin="round" stroke-miterlimit="10" width="31.051" height="15.523"/>
	
		<rect id="XMLID_847_" x="157.611" y="182.912" fill="#FFFFFF" stroke="#171C28" stroke-width="3" stroke-linecap="round" stroke-linejoin="round" stroke-miterlimit="10" width="31.051" height="15.525"/>
	
		<rect id="XMLID_637_" x="126.563" y="167.389" fill="#FFFFFF" stroke="#171C28" stroke-width="3" stroke-linecap="round" stroke-linejoin="round" stroke-miterlimit="10" width="31.051" height="15.523"/>
	
		<rect id="XMLID_38_" x="126.563" y="182.912" fill="#FFFFFF" stroke="#171C28" stroke-width="3" stroke-linecap="round" stroke-linejoin="round" stroke-miterlimit="10" width="31.051" height="15.525"/>
	<ellipse id="XMLID_440_" fill="#0D3178" cx="102.263" cy="111.363" rx="30.375" ry="30.038"/>
	<g enable-background="new    ">
		<path fill="#FFFFFF" d="M89.481,99.858h2.805v10.479h0.097c0.581-0.839,1.161-1.612,1.709-2.322l6.642-8.157h3.482l-7.867,9.222
			l8.479,12.51h-3.321l-7.158-10.672l-2.063,2.386v8.286h-2.805V99.858z"/>
		<path fill="#FFFFFF" d="M106.475,118.688c0.838,0.548,2.322,1.128,3.74,1.128c2.064,0,3.031-1.031,3.031-2.321
			c0-1.354-0.807-2.096-2.902-2.869c-2.805-1-4.126-2.548-4.126-4.418c0-2.515,2.031-4.578,5.384-4.578
			c1.58,0,2.967,0.451,3.837,0.968l-0.71,2.063c-0.612-0.387-1.74-0.903-3.191-0.903c-1.677,0-2.611,0.968-2.611,2.128
			c0,1.29,0.935,1.87,2.966,2.645c2.708,1.031,4.095,2.386,4.095,4.707c0,2.74-2.128,4.675-5.836,4.675
			c-1.708,0-3.289-0.419-4.385-1.063L106.475,118.688z"/>
	</g>
</g>
</svg>
