<?xml version="1.0" encoding="utf-8"?>
<!-- Generator: Adobe Illustrator 16.0.0, SVG Export Plug-In . SVG Version: 6.00 Build 0)  -->
<!DOCTYPE svg PUBLIC "-//W3C//DTD SVG 1.1//EN" "http://www.w3.org/Graphics/SVG/1.1/DTD/svg11.dtd">
<svg version="1.1" id="Layer_1" xmlns="http://www.w3.org/2000/svg" xmlns:xlink="http://www.w3.org/1999/xlink" x="0px" y="0px"
	 width="216px" height="216px" viewBox="0 0 216 216" enable-background="new 0 0 216 216" xml:space="preserve">
<g>
	
		<line id="XMLID_340_" fill="none" stroke="#171C28" stroke-width="3" stroke-linecap="round" stroke-linejoin="round" stroke-miterlimit="10" x1="142.425" y1="110.025" x2="142.425" y2="19.913"/>
	
		<path id="XMLID_338_" fill="none" stroke="#171C28" stroke-width="3" stroke-linecap="round" stroke-linejoin="round" stroke-miterlimit="10" d="
		M115.763,196.763H44.888c-9.113,0-16.875-7.425-16.875-16.875V34.763c0-8.438,7.087-15.525,15.525-15.525h123.525"/>
	
		<path id="XMLID_337_" fill="none" stroke="#171C28" stroke-width="3" stroke-linecap="round" stroke-linejoin="round" stroke-miterlimit="10" d="
		M163.013,110.025V27c0-4.725,3.712-8.438,8.438-8.438h2.024c4.726,0,8.775,4.05,8.775,8.775v78.975h-9.112"/>
	
		<line id="XMLID_336_" fill="none" stroke="#171C28" stroke-width="3" stroke-linecap="round" stroke-linejoin="round" stroke-miterlimit="10" x1="44.212" y1="42.862" x2="83.362" y2="42.862"/>
	
		<line id="XMLID_335_" fill="none" stroke="#171C28" stroke-width="3" stroke-linecap="round" stroke-linejoin="round" stroke-miterlimit="10" x1="44.212" y1="112.725" x2="126.225" y2="112.725"/>
	
		<line id="XMLID_334_" fill="none" stroke="#171C28" stroke-width="3" stroke-linecap="round" stroke-linejoin="round" stroke-miterlimit="10" x1="44.212" y1="127.237" x2="116.775" y2="127.237"/>
	
		<line id="XMLID_333_" fill="none" stroke="#171C28" stroke-width="3" stroke-linecap="round" stroke-linejoin="round" stroke-miterlimit="10" x1="44.212" y1="141.412" x2="105.975" y2="141.412"/>
	
		<line id="XMLID_331_" fill="none" stroke="#171C28" stroke-width="3" stroke-linecap="round" stroke-linejoin="round" stroke-miterlimit="10" x1="44.212" y1="155.588" x2="97.538" y2="155.588"/>
	
		<line id="XMLID_330_" fill="none" stroke="#171C28" stroke-width="3" stroke-linecap="round" stroke-linejoin="round" stroke-miterlimit="10" x1="44.212" y1="169.763" x2="86.737" y2="169.763"/>
	
		<line id="XMLID_326_" fill="none" stroke="#171C28" stroke-width="3" stroke-linecap="round" stroke-linejoin="round" stroke-miterlimit="10" x1="44.212" y1="57.038" x2="73.575" y2="57.038"/>
	
		<line id="XMLID_324_" fill="none" stroke="#171C28" stroke-width="3" stroke-linecap="round" stroke-linejoin="round" stroke-miterlimit="10" x1="80.663" y1="57.038" x2="126.9" y2="57.038"/>
	
		<rect id="XMLID_323_" x="42.188" y="71.55" fill="#0D3178" stroke="#171C28" stroke-width="3" stroke-linecap="round" stroke-linejoin="round" stroke-miterlimit="10" width="84.713" height="26.663"/>
	
		<ellipse id="XMLID_327_" fill="#FFFFFF" stroke="#171C28" stroke-width="3" stroke-linecap="round" stroke-linejoin="round" stroke-miterlimit="10" cx="149.85" cy="159.638" rx="37.8" ry="37.8"/>
	
		<polyline id="XMLID_322_" fill="#FFFFFF" stroke="#171C28" stroke-width="3" stroke-linecap="round" stroke-linejoin="round" stroke-miterlimit="10" points="
		148.838,138.375 148.838,161.662 161.325,173.475 	"/>
	
		<circle id="XMLID_321_" fill="#FFFFFF" stroke="#171C28" stroke-width="3" stroke-linecap="round" stroke-linejoin="round" stroke-miterlimit="10" cx="149.175" cy="157.95" r="2.025"/>
	
		<circle id="XMLID_325_" fill="#FFFFFF" stroke="#171C28" stroke-width="3" stroke-linecap="round" stroke-linejoin="round" stroke-miterlimit="10" cx="149.175" cy="160.988" r="7.087"/>
</g>
</svg>
