<?xml version="1.0" encoding="utf-8"?>
<!-- Generator: Adobe Illustrator 16.0.0, SVG Export Plug-In . SVG Version: 6.00 Build 0)  -->
<!DOCTYPE svg PUBLIC "-//W3C//DTD SVG 1.1//EN" "http://www.w3.org/Graphics/SVG/1.1/DTD/svg11.dtd">
<svg version="1.1" id="Layer_1" xmlns="http://www.w3.org/2000/svg" xmlns:xlink="http://www.w3.org/1999/xlink" x="0px" y="0px"
	 width="216px" height="216px" viewBox="0 0 216 216" enable-background="new 0 0 216 216" xml:space="preserve">
<rect id="XMLID_419_" x="55.048" y="36.54" fill="#FFFFFF" stroke="#171C28" stroke-width="3" stroke-linecap="round" stroke-linejoin="round" stroke-miterlimit="10" width="97.875" height="126.563"/>
<line id="XMLID_1088_" fill="none" stroke="#171C28" stroke-width="3" stroke-linecap="round" stroke-linejoin="round" stroke-miterlimit="10" x1="91.8" y1="156.263" x2="109.35" y2="156.263"/>
<line id="XMLID_1087_" fill="none" stroke="#171C28" stroke-width="3" stroke-linecap="round" stroke-linejoin="round" stroke-miterlimit="10" x1="98.888" y1="43.875" x2="105.638" y2="43.875"/>
<path id="XMLID_416_" fill="#FFFFFF" stroke="#171C28" stroke-width="3" stroke-linecap="round" stroke-linejoin="round" stroke-miterlimit="10" d="
	M37.125,169.763v-50.288l11.813-15.862h18.225c0,0,3.712,3.713-1.35,9.788c0,0-10.125,1.35-11.475,7.762
	c-1.012,6.413,7.087,8.101,8.775,12.825c1.688,4.726,4.725,22.95-4.05,36.45L37.125,169.763z"/>
<polyline id="XMLID_415_" fill="#0D3178" stroke="#171C28" stroke-width="3" stroke-linecap="round" stroke-linejoin="round" stroke-miterlimit="10" points="
	33.75,195.412 33.75,170.1 82.013,170.1 82.013,195.412 "/>
<g id="XMLID_848_">
	
		<path id="XMLID_843_" fill="#FFFFFF" stroke="#171C28" stroke-width="3" stroke-linecap="round" stroke-linejoin="round" stroke-miterlimit="10" d="
		M182.25,143.775v-14.851c-7.088-6.75-14.175,0.338-14.175,0.338l2.362,7.425L128.925,135c-7.087-10.463-13.5-0.675-13.5-0.675
		v29.024l20.925,19.238v12.149l38.476-0.337v-11.813c0-2.7,7.087-13.838,7.087-13.838v-13.838"/>
	
		<path id="XMLID_1031_" fill="#FFFFFF" stroke="#171C28" stroke-width="3" stroke-linecap="round" stroke-linejoin="round" stroke-miterlimit="10" d="
		M175.162,195.075v-11.813c0-2.7,7.088-13.838,7.088-13.838v-13.837"/>
	
		<path id="XMLID_406_" fill="#FFFFFF" stroke="#171C28" stroke-width="3" stroke-linecap="round" stroke-linejoin="round" stroke-miterlimit="10" d="
		M182.25,143.775v-14.851c-7.088-6.75-14.175,0.338-14.175,0.338l2.362,7.425L128.925,135c-7.087-10.463-13.5-0.675-13.5-0.675
		v29.024l20.925,19.238v12.149"/>
	<polygon id="XMLID_405_" fill="#FFFFFF" points="133.313,129.938 141.075,122.175 148.162,120.487 155.25,123.525 160.313,121.838 
		166.388,123.188 165.713,126.563 176.513,137.7 162.675,146.138 137.025,146.138 131.963,142.763 	"/>
	
		<path id="XMLID_404_" fill="#FFFFFF" stroke="#171C28" stroke-width="3" stroke-linecap="round" stroke-linejoin="round" stroke-miterlimit="10" d="
		M129.6,156.6V92.475c0,0-1.688-6.413,5.063-6.413c7.088,0,5.4,5.737,5.4,5.737v36.788"/>
	
		<path id="XMLID_403_" fill="#FFFFFF" stroke="#171C28" stroke-width="3" stroke-linecap="round" stroke-linejoin="round" stroke-miterlimit="10" d="
		M141.075,121.838c0,0,6.075-6.075,13.162,0.675v6.075"/>
	
		<path id="XMLID_402_" fill="#FFFFFF" stroke="#171C28" stroke-width="3" stroke-linecap="round" stroke-linejoin="round" stroke-miterlimit="10" d="
		M156.6,125.213c0,0,4.388-7.088,11.476-0.338v7.425"/>
</g>
<g id="XMLID_400_">
	
		<circle id="XMLID_438_" fill="#FFFFFF" stroke="#171C28" stroke-width="3" stroke-linecap="round" stroke-linejoin="round" stroke-miterlimit="10" cx="105.3" cy="92.137" r="17.212"/>
	
		<line id="XMLID_401_" fill="none" stroke="#171C28" stroke-width="3" stroke-linecap="round" stroke-linejoin="round" stroke-miterlimit="10" x1="96.525" y1="107.663" x2="88.425" y2="119.475"/>
</g>
</svg>
