<?xml version="1.0" encoding="utf-8"?>
<!-- Generator: Adobe Illustrator 17.0.0, SVG Export Plug-In . SVG Version: 6.00 Build 0)  -->
<!DOCTYPE svg PUBLIC "-//W3C//DTD SVG 1.1//EN" "http://www.w3.org/Graphics/SVG/1.1/DTD/svg11.dtd">
<svg version="1.1" id="Layer_1" xmlns="http://www.w3.org/2000/svg" xmlns:xlink="http://www.w3.org/1999/xlink" x="0px" y="0px"
	 width="842.35px" height="595.3px" viewBox="0 0 842.35 595.3" enable-background="new 0 0 842.35 595.3" xml:space="preserve">
<g id="Layer_1_1_">
	<g id="XMLID_1203_">
		<g id="XMLID_1243_">
			<ellipse id="XMLID_1244_" fill="#ABE0F9" cx="473.033" cy="332.593" rx="111.621" ry="111.621"/>
		</g>
		<g id="XMLID_1242_">
			<path id="XMLID_1560_" fill="#0D3178" d="M473.264,453.916v-19.533c56.74,0,102.317-45.578,102.317-102.317
				c0-56.74-45.578-102.317-102.317-102.317v-19.533c66.971,0,121.85,54.879,121.85,121.85
				C595.114,399.967,540.235,453.916,473.264,453.916z"/>
		</g>
		<g id="XMLID_1230_">
			
				<rect id="XMLID_1557_" x="543.411" y="180.266" transform="matrix(-0.5041 0.8636 -0.8636 -0.5041 1022.0452 -206.7714)" fill="#0D3178" width="53.947" height="19.533"/>
		</g>
		<g id="XMLID_1229_">
			
				<rect id="XMLID_1556_" x="607.086" y="246.676" transform="matrix(-0.8712 0.4909 -0.4909 -0.8712 1287.113 175.2153)" fill="#0D3178" width="26.974" height="19.533"/>
		</g>
		<g id="XMLID_1228_">
			
				<rect id="XMLID_1555_" x="479.284" y="157.9" transform="matrix(-0.1407 0.9901 -0.9901 -0.1407 728.1004 -296.6135)" fill="#0D3178" width="26.976" height="19.534"/>
		</g>
		<g id="XMLID_1227_">
			
				<rect id="XMLID_1554_" x="487.127" y="482.82" transform="matrix(-0.9836 0.1804 -0.1804 -0.9836 1075.1693 894.8328)" fill="#0D3178" width="19.533" height="26.975"/>
		</g>
		<g id="XMLID_1226_">
			
				<rect id="XMLID_1553_" x="643.807" y="305.979" transform="matrix(-0.0158 0.9999 -0.9999 -0.0158 996.8386 -315.2639)" fill="#0D3178" width="19.534" height="53.95"/>
		</g>
		<g id="XMLID_1225_">
			
				<rect id="XMLID_1552_" x="607.489" y="397.054" transform="matrix(-0.5742 0.8187 -0.8187 -0.5742 1306.66 138.7265)" fill="#0D3178" width="19.533" height="24.184"/>
		</g>
		<g id="XMLID_1224_">
			
				<rect id="XMLID_1551_" x="557.991" y="448.43" transform="matrix(-0.8789 0.4771 -0.4771 -0.8789 1293.5442 622.355)" fill="#0D3178" width="19.534" height="53.951"/>
		</g>
		<g id="XMLID_1204_">
			<path fill="#FFFFFF" d="M467.683,576.697h-297.65v-74.413c0-81.854,66.971-148.825,148.825-148.825l0,0
				c81.854,0,148.825,66.971,148.825,148.825V576.697z"/>
			<g id="XMLID_1222_">
				<path id="XMLID_1223_" fill="#ABE0F9" d="M230.493,274.396h-4.651c-6.511,0-13.022-5.581-13.022-39.067l-12.092-103.247
					c-1.86-15.813,5.581-31.625,20.463-39.997c5.581-3.721,10.232-6.511,10.232-6.511c-40.927-25.114-31.625-53.019-30.695-55.809
					l0,0C220.261,58.6,325.369,45.578,386.759,54.879c14.883,1.86,26.044,13.952,27.905,28.835l1.86,11.162l0,0
					c12.092,0,21.394,9.302,21.394,21.394l-16.743,146.035c0,6.511-5.581,13.022-13.022,13.022h-177.66V274.396z"/>
			</g>
			<g id="XMLID_1221_">
				<path id="XMLID_1548_" fill="#0D3178" d="M408.153,284.628H225.842c-22.324,0-22.324-31.625-22.324-48.368l-12.092-103.247
					c-1.86-18.603,6.511-37.206,22.324-48.368c-26.044-21.394-26.044-44.647-23.254-56.74l1.86-9.302l13.022,1.86l2.79,2.79
					c10.232,14.882,61.39,15.813,103.247,16.743c26.044,0.93,53.949,0.93,76.273,4.651c18.603,2.79,33.486,17.673,36.276,37.206
					l0.93,4.651c13.022,3.721,22.324,15.813,22.324,30.695l-16.743,146.035C430.477,274.396,420.245,284.628,408.153,284.628z
					 M210.96,48.368c3.721,10.232,12.092,19.533,26.044,28.835l13.022,8.371l-13.022,7.441c0,0-4.651,3.721-11.162,6.511
					c-11.162,6.511-16.743,18.603-14.883,30.695l12.092,104.178c0,26.044,3.721,29.765,3.721,30.695l3.721-0.93h177.66
					c1.86,0,2.79-0.93,2.79-2.79l16.743-146.965c0-5.581-5.581-11.162-12.092-11.162h-8.371l-2.79-19.533
					c-0.93-10.232-9.302-18.603-19.533-19.533c-20.463-2.79-47.438-3.721-73.482-3.721C270.49,58.6,233.283,58.6,210.96,48.368z"/>
			</g>
			<g id="XMLID_1219_">
				<path id="XMLID_1220_" fill="#FFFFFF" d="M449.08,229.749c0,7.441-6.511,13.952-13.952,13.952l0,0
					c-7.441,0-13.952-6.511-13.952-13.952v-13.022c0-7.441,6.511-13.952,13.952-13.952l0,0c7.441,0,13.952,6.511,13.952,13.952
					V229.749z"/>
			</g>
			<g id="XMLID_1218_">
				<path id="XMLID_1545_" fill="#0D3178" d="M435.127,253.933c-13.022,0-23.254-10.232-23.254-23.254v-13.022
					c0-13.022,10.232-23.254,23.254-23.254c13.022,0,23.254,10.232,23.254,23.254v13.022
					C459.311,242.771,448.15,253.933,435.127,253.933z M435.127,213.006c-1.86,0-3.721,1.86-3.721,3.721v13.022
					c0,1.86,1.86,3.721,3.721,3.721s3.721-1.86,3.721-3.721v-13.022C439.778,214.866,437.918,213.006,435.127,213.006z"/>
			</g>
			<g id="XMLID_1216_">
				<path id="XMLID_1217_" fill="#FFFFFF" d="M213.75,229.749c0,7.441-6.511,13.952-13.952,13.952l0,0
					c-7.441,0-13.952-6.511-13.952-13.952v-13.022c0-7.441,6.511-13.952,13.952-13.952l0,0c7.441,0,13.952,6.511,13.952,13.952
					V229.749z"/>
			</g>
			<g id="XMLID_1215_">
				<path id="XMLID_1542_" fill="#0D3178" d="M199.798,253.933c-13.022,0-23.254-10.232-23.254-23.254v-13.022
					c0-13.022,10.232-23.254,23.254-23.254s23.254,10.232,23.254,23.254v13.022C223.982,242.771,212.82,253.933,199.798,253.933z
					 M199.798,213.006c-1.86,0-3.721,1.86-3.721,3.721v13.022c0,1.86,1.86,3.721,3.721,3.721c1.86,0,3.721-1.86,3.721-3.721v-13.022
					C204.449,214.866,202.588,213.006,199.798,213.006z"/>
			</g>
			<g id="XMLID_1212_">
				<path id="XMLID_1541_" fill="#0D3178" d="M477.914,576.697h-19.533v-91.155c0-65.111-62.32-117.2-138.593-117.2
					s-138.593,53.019-138.593,117.2v91.155h-19.533v-91.155c0-75.343,70.692-136.733,158.127-136.733s158.127,61.39,158.127,136.733
					V576.697z"/>
			</g>
			<g id="XMLID_1211_">
				<rect id="XMLID_1540_" x="245.375" y="476.24" fill="#0D3178" width="19.533" height="100.457"/>
			</g>
			<g id="XMLID_1210_">
				<rect id="XMLID_1539_" x="375.597" y="476.24" fill="#0D3178" width="19.533" height="100.457"/>
			</g>
			<g id="XMLID_1209_">
				<path fill="#FFFFFF" d="M314.207,409.269L314.207,409.269c-14.883,0-27.905-12.092-27.905-27.905v-62.32
					c0-13.022,10.232-24.184,24.184-24.184h7.441c13.022,0,24.184,10.232,24.184,24.184v62.32
					C342.112,397.177,329.09,409.269,314.207,409.269z"/>
			</g>
			<g id="XMLID_1208_">
				<path id="XMLID_1536_" fill="#0D3178" d="M314.207,419.5c-20.463,0-37.206-16.743-37.206-37.206v-62.32
					c0-18.603,14.883-33.486,33.486-33.486h7.441c18.603,0,33.486,14.883,33.486,33.486v61.39
					C351.413,402.758,334.67,419.5,314.207,419.5z M310.486,305.091c-7.441,0-13.952,6.511-13.952,13.952v62.32
					c0,10.232,8.371,17.673,17.673,17.673c10.232,0,17.673-8.371,17.673-17.673v-62.32c0-7.441-6.511-13.952-13.952-13.952H310.486z
					"/>
			</g>
			<g id="XMLID_1206_">
				<path id="XMLID_1207_" fill="#FFFFFF" d="M316.067,354.39L316.067,354.39c-57.67,0-105.108-47.438-105.108-105.108V177.66
					c0-57.67,47.438-56.74,105.108-56.74l0,0c57.67,0,105.108-0.93,105.108,56.74v71.622
					C422.105,306.952,374.667,354.39,316.067,354.39z"/>
			</g>
			<g id="XMLID_1205_">
				<path id="XMLID_1533_" fill="#0D3178" d="M316.067,364.621c-63.251,0-115.339-52.089-115.339-115.339V177.66
					c0-29.765,12.092-49.298,36.276-58.6c20.463-7.441,47.438-7.441,75.343-7.441h7.441c28.835,0,55.809,0,75.343,7.441
					c24.184,9.302,36.276,28.835,36.276,58.6v71.622C431.407,312.533,380.248,364.621,316.067,364.621z M308.626,131.152
					c-25.114,0-49.298,0-65.111,6.511c-11.162,4.651-23.254,13.022-23.254,40.927v71.622c0,53.019,42.787,95.806,95.806,95.806
					s95.806-42.787,95.806-95.806V178.59c0-27.905-12.092-36.276-23.254-40.927c-16.743-6.511-41.857-6.511-68.832-6.511h-7.441
					C311.417,131.152,310.486,131.152,308.626,131.152z"/>
			</g>
		</g>
		
			<line fill="none" stroke="#000000" stroke-width="2.7984" stroke-miterlimit="10" x1="477.914" y1="268.815" x2="477.914" y2="397.177"/>
		
			<line fill="none" stroke="#000000" stroke-width="2.7984" stroke-miterlimit="10" x1="541.165" y1="332.996" x2="413.734" y2="332.996"/>
	</g>
</g>
<g id="specctr">
	<g id="Text_Properties">
	</g>
</g>
</svg>
