<?xml version="1.0" encoding="utf-8"?>
<!-- Generator: Adobe Illustrator 17.0.0, SVG Export Plug-In . SVG Version: 6.00 Build 0)  -->
<!DOCTYPE svg PUBLIC "-//W3C//DTD SVG 1.1//EN" "http://www.w3.org/Graphics/SVG/1.1/DTD/svg11.dtd">
<svg version="1.1" id="Layer_1" xmlns="http://www.w3.org/2000/svg" xmlns:xlink="http://www.w3.org/1999/xlink" x="0px" y="0px"
	 width="842.35px" height="595.3px" viewBox="0 0 842.35 595.3" enable-background="new 0 0 842.35 595.3" xml:space="preserve">
<g id="Layer_1_1_">
	<g id="XMLID_1114_">
		<g id="XMLID_1167_">
			<path id="XMLID_1168_" d="M421.175,519.027c-30.695,0-61.39-6.511-89.295-17.673c-26.975-11.162-52.089-27.905-72.552-49.298
				c-21.394-21.394-37.206-45.578-49.298-72.552c-12.092-27.905-17.673-58.6-17.673-89.295s6.511-61.39,17.673-89.295
				c6.511-14.882,14.883-29.765,24.184-43.717l14.883,10.232c-9.302,12.092-16.743,26.044-22.324,39.997
				c-11.162,26.044-16.743,53.949-16.743,81.854c0,27.905,5.581,55.809,16.743,81.854c10.232,25.114,26.044,47.438,45.578,66.971
				c19.533,19.533,41.857,34.416,66.971,45.578c52.089,22.324,112.549,22.324,163.708,0c25.114-10.232,47.438-26.044,66.971-45.578
				c19.533-19.533,34.416-41.857,45.578-66.971c11.162-26.044,16.743-53.949,16.743-81.854c0-27.905-5.581-55.809-16.743-81.854
				c-5.581-12.092-12.092-24.184-19.533-36.276l14.882-10.232c8.371,12.092,15.813,25.114,21.394,39.067
				c12.092,27.905,17.673,58.6,17.673,89.295s-6.511,61.39-17.673,89.295c-11.162,26.975-27.905,52.089-49.298,72.552
				c-21.394,21.394-45.578,37.206-72.552,49.298C482.565,513.446,451.87,519.027,421.175,519.027z"/>
		</g>
		<g id="XMLID_1166_">
			<path fill="#ABE0F9" d="M488.146,452.056c0,0,14.882,25.114,6.511,40.927c-9.302,14.883-38.136,14.883-38.136,14.883
				s-14.883-25.114-6.511-40.927C459.311,451.126,488.146,452.056,488.146,452.056z"/>
		</g>
		<g id="XMLID_1165_">
			<path fill="#ABE0F9" d="M543.025,528.329c0,0-13.022-28.835-34.416-32.555s-43.717,17.673-43.717,17.673
				s13.022,28.835,34.416,32.555C521.632,550.653,543.025,528.329,543.025,528.329z"/>
		</g>
		<g id="XMLID_1164_">
			<path fill="#ABE0F9" d="M556.978,397.177c0,0,26.044,13.952,26.044,31.625c0,17.673-26.044,31.625-26.044,31.625
				s-26.044-13.952-26.044-31.625C530.933,412.059,556.978,397.177,556.978,397.177z"/>
		</g>
		<g id="XMLID_1163_">
			<path fill="#ABE0F9" d="M646.273,435.313c0,0-25.114-18.603-45.578-11.162c-20.463,7.441-28.835,37.206-28.835,37.206
				s25.114,18.603,45.578,11.162C637.901,465.078,646.273,435.313,646.273,435.313z"/>
		</g>
		<g id="XMLID_1162_">
			<path fill="#ABE0F9" d="M588.603,319.974c0,0,29.765,0,38.136,14.882c8.371,14.883-6.511,40.927-6.511,40.927
				s-29.765,0-38.136-14.883C572.79,345.088,588.603,319.974,588.603,319.974z"/>
		</g>
		<g id="XMLID_1161_">
			<path fill="#ABE0F9" d="M689.06,303.231c0,0-30.695-2.79-44.648,13.022c-13.952,16.743-6.511,46.508-6.511,46.508
				s30.695,2.79,44.648-13.022S689.06,303.231,689.06,303.231z"/>
		</g>
		<g id="XMLID_1160_">
			<path fill="#ABE0F9" d="M575.581,234.399c0,0,25.114-14.883,40.927-6.511c14.882,9.302,14.882,38.136,14.882,38.136
				s-25.114,14.883-40.927,6.511C574.651,264.164,575.581,234.399,575.581,234.399z"/>
		</g>
		<g id="XMLID_1159_">
			<path fill="#ABE0F9" d="M659.295,168.358c0,0-28.835,13.022-32.555,34.416s17.673,43.717,17.673,43.717
				s28.835-13.022,32.555-34.416C681.619,189.752,659.295,168.358,659.295,168.358z"/>
		</g>
		<g id="XMLID_1158_">
			<path fill="#ABE0F9" d="M583.022,102.317c0,0-18.603,25.114-11.162,45.578c7.441,20.463,37.206,28.835,37.206,28.835
				s18.603-25.114,11.162-45.578C612.787,110.689,583.022,102.317,583.022,102.317z"/>
		</g>
		<g id="XMLID_1157_">
			<path fill="#ABE0F9" d="M354.204,452.056c0,0-14.883,25.114-6.511,40.927c9.302,14.883,38.136,14.883,38.136,14.883
				s14.883-25.114,6.511-40.927C383.039,451.126,354.204,452.056,354.204,452.056z"/>
		</g>
		<g id="XMLID_1156_">
			<path fill="#ABE0F9" d="M299.325,528.329c0,0,13.022-28.835,34.416-32.555c21.394-3.721,43.717,17.673,43.717,17.673
				s-13.022,28.835-34.416,32.555C320.718,550.653,299.325,528.329,299.325,528.329z"/>
		</g>
		<g id="XMLID_1155_">
			<path fill="#ABE0F9" d="M286.302,397.177c0,0-26.044,13.952-26.044,31.625c0,17.673,26.044,31.625,26.044,31.625
				s26.044-13.952,26.044-31.625C311.417,412.059,286.302,397.177,286.302,397.177z"/>
		</g>
		<g id="XMLID_1154_">
			<path fill="#ABE0F9" d="M196.077,435.313c0,0,25.114-18.603,45.578-11.162c20.463,7.441,28.835,37.206,28.835,37.206
				s-25.114,18.603-45.578,11.162C204.449,465.078,196.077,435.313,196.077,435.313z"/>
		</g>
		<g id="XMLID_1153_">
			<path fill="#ABE0F9" d="M253.747,319.974c0,0-29.765,0-38.136,14.882c-8.371,14.883,6.511,40.927,6.511,40.927
				s29.765,0,38.136-14.883C269.56,345.088,253.747,319.974,253.747,319.974z"/>
		</g>
		<g id="XMLID_1152_">
			<path fill="#ABE0F9" d="M153.29,303.231c0,0,30.695-2.79,44.647,13.022c13.952,16.743,6.511,46.508,6.511,46.508
				s-30.695,2.79-44.647-13.022S153.29,303.231,153.29,303.231z"/>
		</g>
		<g id="XMLID_1151_">
			<path fill="#ABE0F9" d="M266.769,234.399c0,0-25.114-14.883-40.927-6.511c-14.883,9.302-14.883,38.136-14.883,38.136
				s25.114,14.883,40.927,6.511C267.699,264.164,266.769,234.399,266.769,234.399z"/>
		</g>
		<g id="XMLID_1150_">
			<path fill="#ABE0F9" d="M183.055,168.358c0,0,28.835,13.022,32.555,34.416s-17.673,43.717-17.673,43.717
				s-29.765-13.952-33.486-35.346C160.731,189.752,183.055,168.358,183.055,168.358z"/>
		</g>
		<g id="XMLID_1149_">
			<path fill="#ABE0F9" d="M267.699,87.435c0,0,18.603,25.114,11.162,45.578c-7.441,20.463-37.206,28.835-37.206,28.835
				s-18.603-25.114-11.162-45.578S267.699,87.435,267.699,87.435z"/>
		</g>
		<g id="XMLID_1147_">
			<path id="XMLID_1805_" d="M457.451,516.237C456.521,516.237,456.521,516.237,457.451,516.237h-5.581l-2.79-4.651
				c-1.86-2.79-17.673-30.695-6.511-50.228c11.162-19.533,42.787-19.533,46.508-19.533h5.581l2.79,4.651
				c1.86,2.79,17.673,30.695,6.511,50.228C491.867,515.307,463.032,516.237,457.451,516.237z M483.495,461.358
				c-8.371,0.93-21.394,3.721-25.114,10.232c-3.721,6.511,0,18.603,3.721,26.044c8.371-0.93,21.394-3.721,25.114-10.232
				C490.937,481.821,487.216,469.729,483.495,461.358z"/>
		</g>
		<g id="XMLID_1146_">
			<path id="XMLID_1802_" d="M504.889,556.233c-1.86,0-4.651,0-6.511-0.93c-26.044-4.651-39.997-36.276-40.927-37.206l-2.79-5.581
				l4.651-4.651c0.93-0.93,26.044-25.114,51.159-20.463c26.044,4.651,39.997,36.276,40.927,37.206l2.79,5.581l-4.651,4.651
				C548.606,535.77,528.143,556.233,504.889,556.233z M477.914,516.237c4.651,8.371,13.952,19.533,24.184,21.394
				c10.232,1.86,22.324-5.581,29.765-11.162c-4.651-8.371-13.952-19.533-24.184-21.394
				C496.518,503.215,484.426,510.656,477.914,516.237z"/>
		</g>
		<g id="XMLID_1145_">
			<path id="XMLID_1799_" d="M556.048,472.519l-4.651-2.79c-2.79-1.86-30.695-17.673-30.695-39.997
				c0-22.324,26.975-38.136,30.695-39.997l4.651-2.79l4.651,2.79c2.79,1.86,30.695,17.673,30.695,39.997
				c0,22.324-26.975,38.136-30.695,39.997L556.048,472.519z M556.978,408.339c-7.441,4.651-16.743,13.952-16.743,21.394
				c0,7.441,9.302,15.813,16.743,21.394c7.441-4.651,16.743-13.952,16.743-21.394C572.79,422.291,563.489,413.92,556.978,408.339z"
				/>
		</g>
		<g id="XMLID_1144_">
			<path id="XMLID_1796_" d="M607.206,483.681c-20.463,0-39.997-13.952-40.927-13.952l-5.581-3.721l1.86-6.511
				c0-1.86,9.302-34.416,34.416-43.717c25.114-9.302,53.019,11.162,53.949,12.092l5.581,3.721l-1.86,6.511
				c0,1.86-9.302,34.416-34.416,43.717C616.508,482.751,611.857,483.681,607.206,483.681z M583.022,457.637
				c8.371,4.651,21.394,10.232,31.625,6.511c10.232-3.721,16.743-15.813,20.463-25.114c-8.371-4.651-21.394-10.232-31.625-6.511
				C593.254,437.173,586.743,449.265,583.022,457.637z"/>
		</g>
		<g id="XMLID_1143_">
			<path id="XMLID_1793_" d="M620.228,385.085c-5.581,0-35.346-0.93-45.578-19.533c-11.162-19.533,4.651-46.508,6.511-50.228
				l2.79-4.651h5.581c3.721,0,35.346,0,46.508,19.533c11.162,19.533-4.651,46.508-6.511,50.228l-3.721,4.651H620.228
				L620.228,385.085z M594.184,330.206c-3.721,8.371-7.441,20.463-3.721,26.044c3.721,6.511,15.813,9.302,25.114,10.232
				c3.721-8.371,7.441-20.463,3.721-26.044C614.647,332.996,602.555,330.206,594.184,330.206z"/>
		</g>
		<g id="XMLID_1142_">
			<path id="XMLID_1790_" d="M643.482,372.993c-3.721,0-6.511,0-7.441,0l-5.581-0.93l-1.86-6.511c0-1.86-9.302-35.346,8.371-54.879
				c16.743-20.463,51.159-16.743,53.019-16.743l6.511,0.93l1.86,6.511c0,1.86,9.302,35.346-8.371,54.879
				C676.968,371.132,654.644,372.993,643.482,372.993z M680.689,312.533c-9.302,0-23.254,1.86-30.695,10.232
				c-6.511,8.371-6.511,22.324-5.581,31.625c9.302,0,23.254-1.86,30.695-10.232C682.549,335.786,682.549,320.904,680.689,312.533z"
				/>
		</g>
		<g id="XMLID_1141_">
			<path id="XMLID_1787_" d="M601.625,284.628c-5.581,0-11.162-0.93-16.743-3.721c-19.533-11.162-19.533-42.787-19.533-46.508
				v-5.581l4.651-2.79c2.79-1.86,30.695-17.673,50.228-6.511c19.533,11.162,19.533,42.787,19.533,46.508v5.581l-4.651,2.79
				C633.251,275.326,617.438,284.628,601.625,284.628z M584.882,239.98c0.93,8.371,3.721,21.394,10.232,25.114
				c6.511,3.721,18.603,0,26.044-3.721c-0.93-8.371-3.721-21.394-10.232-25.114C604.416,232.539,593.254,236.26,584.882,239.98z"/>
		</g>
		<g id="XMLID_1140_">
			<path id="XMLID_1784_" d="M643.482,256.723l-4.651-4.651c-0.93-0.93-25.114-26.044-20.463-51.159
				c4.651-26.044,36.276-39.997,38.136-40.927l5.581-2.79l4.651,4.651c0.93,0.93,25.114,26.044,20.463,51.159
				c-4.651,26.044-36.276,39.997-38.136,40.927L643.482,256.723z M657.435,179.52c-8.371,4.651-19.533,13.952-21.394,24.184
				c-1.86,10.232,5.581,22.324,11.162,29.765c8.371-4.651,19.533-13.952,21.394-24.184S663.016,186.961,657.435,179.52z"/>
		</g>
		<g id="XMLID_1139_">
			<path id="XMLID_1781_" d="M612.787,186.961l-5.581-0.93c-1.86,0-34.416-9.302-43.717-34.416
				c-8.371-25.114,11.162-53.019,12.092-53.949l3.721-5.581l6.511,1.86c1.86,0,34.416,9.302,43.717,34.416
				c8.371,25.114-11.162,53.019-12.092,53.949L612.787,186.961z M586.743,113.479c-4.651,8.371-10.232,21.394-6.511,31.625
				c3.721,10.232,15.813,16.743,25.114,20.463c4.651-8.371,10.232-21.394,6.511-31.625S596.044,117.2,586.743,113.479z"/>
		</g>
		<g id="XMLID_1138_">
			<path id="XMLID_1778_" d="M385.829,516.237c-5.581,0-35.346-0.93-45.578-19.533c-11.162-19.533,4.651-46.508,6.511-50.228
				l2.79-4.651h5.581c3.721,0,35.346,0,46.508,19.533c11.162,19.533-4.651,46.508-6.511,50.228l-2.79,4.651H385.829L385.829,516.237
				z M359.785,461.358c-3.721,8.371-7.441,20.463-3.721,26.044c3.721,6.511,15.813,9.302,25.114,10.232
				c3.721-8.371,7.441-20.463,3.721-26.044C380.248,465.078,368.156,462.288,359.785,461.358z"/>
		</g>
		<g id="XMLID_1137_">
			<path id="XMLID_1775_" d="M337.461,556.233c-23.254,0-43.717-20.463-44.647-21.394l-4.651-4.651l2.79-5.581
				c0.93-0.93,14.883-32.555,40.927-37.206c26.044-4.651,50.228,19.533,51.159,20.463l4.651,4.651l-2.79,5.581
				c-0.93,0.93-14.883,32.555-40.927,37.206C341.182,556.233,339.321,556.233,337.461,556.233z M310.486,526.468
				c7.441,5.581,19.533,13.022,29.765,11.162c11.162-1.86,19.533-13.952,24.184-21.394c-7.441-5.581-19.533-13.022-29.765-11.162
				C323.509,506.935,315.137,519.027,310.486,526.468z"/>
		</g>
		<g id="XMLID_1136_">
			<path id="XMLID_1772_" d="M286.302,472.519l-4.651-2.79c-2.79-1.86-30.695-17.673-30.695-39.997
				c0-22.324,26.975-38.136,30.695-39.997l4.651-2.79l4.651,2.79c2.79,1.86,30.695,17.673,30.695,39.997
				c0,22.324-26.975,38.136-30.695,39.997L286.302,472.519z M286.302,408.339c-7.441,4.651-16.743,13.952-16.743,21.394
				c0,7.441,9.302,15.813,16.743,21.394c7.441-4.651,16.743-13.952,16.743-21.394C302.115,422.291,292.813,413.92,286.302,408.339z"
				/>
		</g>
		<g id="XMLID_1135_">
			<path id="XMLID_1769_" d="M235.144,483.681c-4.651,0-9.302-0.93-13.022-1.86c-25.114-8.371-34.416-41.857-34.416-43.717
				l-1.86-6.511l4.651-3.721c0.93-0.93,29.765-21.394,53.949-12.092c25.114,8.371,34.416,41.857,34.416,43.717l1.86,6.511
				l-5.581,3.721C275.14,469.729,255.607,483.681,235.144,483.681z M207.239,439.034c3.721,8.371,10.232,21.394,20.463,25.114
				c10.232,3.721,24.184-1.86,31.625-6.511c-3.721-8.371-10.232-21.394-20.463-25.114
				C228.633,429.732,215.61,434.383,207.239,439.034z"/>
		</g>
		<g id="XMLID_1134_">
			<path id="XMLID_1766_" d="M222.122,385.085L222.122,385.085h-5.581l-2.79-4.651c-1.86-2.79-17.673-30.695-6.511-50.228
				c11.162-19.533,42.787-19.533,46.508-19.533h5.581l2.79,4.651c1.86,2.79,17.673,30.695,6.511,50.228
				C257.467,384.155,227.702,385.085,222.122,385.085z M248.166,330.206c-8.371,0.93-21.394,3.721-25.114,10.232
				c-3.721,6.511,0,18.603,3.721,26.044c8.371-0.93,21.394-3.721,25.114-10.232S251.887,337.647,248.166,330.206z"/>
		</g>
		<g id="XMLID_1132_">
			<path id="XMLID_1763_" d="M198.868,372.993c-11.162,0-33.486-1.86-45.578-16.743c-16.743-20.463-8.371-53.949-8.371-54.879
				l1.86-6.511l6.511-0.93c1.86,0,36.276-3.721,53.019,16.743s8.371,53.949,8.371,54.879l-2.79,6.511l-6.511,0.93
				C205.379,372.993,202.588,372.993,198.868,372.993z M161.661,312.533c-0.93,9.302-1.86,23.254,5.581,31.625
				c6.511,8.371,21.394,10.232,30.695,10.232c0.93-9.302,1.86-23.254-5.581-31.625S170.963,312.533,161.661,312.533z"/>
		</g>
		<g id="XMLID_1130_">
			<path id="XMLID_1760_" d="M240.725,284.628c-15.813,0-31.625-9.302-33.486-10.232l-4.651-2.79v-5.581
				c0-3.721,0-35.346,19.533-46.508s46.508,4.651,50.228,6.511l4.651,2.79v5.581c0,3.721,0,35.346-19.533,46.508
				C251.887,283.698,246.306,284.628,240.725,284.628z M221.191,261.374c8.371,3.721,20.463,7.441,26.044,3.721
				c6.511-3.721,9.302-15.813,10.232-25.114c-8.371-3.721-20.463-7.441-26.044-3.721
				C224.912,239.98,222.122,252.072,221.191,261.374z"/>
		</g>
		<g id="XMLID_1129_">
			<path id="XMLID_1757_" d="M198.868,256.723l-5.581-2.79c-0.93-0.93-32.555-14.883-38.136-40.927
				c-4.651-26.044,19.533-50.228,20.463-51.159l4.651-4.651l5.581,2.79c0.93,0.93,32.555,14.883,38.136,40.927
				c4.651,26.044-19.533,50.228-20.463,51.159L198.868,256.723z M184.915,179.52c-5.581,7.441-13.022,19.533-11.162,29.765
				c1.86,11.162,13.952,19.533,21.394,24.184c5.581-7.441,13.022-19.533,11.162-29.765
				C204.449,193.473,193.287,184.171,184.915,179.52z"/>
		</g>
		<g id="XMLID_1128_">
			<path id="XMLID_1754_" d="M237.934,172.079l-3.721-4.651c-0.93-0.93-21.394-29.765-12.092-53.949
				c8.371-25.114,41.857-34.416,43.717-34.416l6.511-1.86l3.721,5.581c0.93,0.93,21.394,29.765,12.092,53.949
				c-8.371,25.114-41.857,34.416-43.717,34.416L237.934,172.079z M263.979,98.597c-8.371,3.721-21.394,10.232-25.114,20.463
				c-3.721,10.232,1.86,23.254,6.511,31.625c8.371-3.721,21.394-10.232,25.114-20.463C274.21,119.06,267.699,106.038,263.979,98.597
				z"/>
		</g>
		<g>
			<path fill-rule="evenodd" clip-rule="evenodd" fill="#D62027" d="M421.172,348.795v8.79c0,0-20.849,3.527-47.255,5.219
				c-9.48,0.403-19.595-0.157-29.548-0.662c-22.184-3.394-30.897-7.915-27.221-25.392c0,0,0.806-7.886,23.376-36.65
				c7.395-8.894,17.084-19.047,29.771-32.038l8.101,5.208c0,0-3.774,10.859-13.939,29.83c-8.745,16.013-19.115,33.975-19.115,33.975
				L421.172,348.795z"/>
			<g>
				<g>
					<path fill="#253775" d="M471.933,267.309c0,0-2.46-7.149-6.319-17.579c-6.313-17.065-16.766-42.666-29.269-58.272
						c-5.53-5.546-10.682-7.424-15.283-7.142c-4.601-0.281-9.754,1.596-15.283,7.142c-12.503,15.606-22.956,41.206-29.269,58.272
						c-3.858,10.43-6.319,17.579-6.319,17.579l-2.401,3.581l8.792,7.162l2.922-5.534l41.558-58.247l41.559,58.247l2.993,5.534
						l8.647-7.162L471.933,267.309z"/>
				</g>
			</g>
			<path fill-rule="evenodd" clip-rule="evenodd" fill="#009749" d="M421.026,348.73v8.775c0,0,20.835,3.457,47.324,5.211
				c10.191,0.675,20.109,0.113,29.589-0.66c22.217-3.39,30.942-7.903,27.261-25.351c0,0-0.807-7.874-23.41-36.591
				c-7.405-8.88-14.838-16.411-27.546-29.382l-8.761,7.152c0,0,2.159,6.285,12.34,25.225c8.758,15.986,18.818,33.92,18.818,33.92
				L421.026,348.73z"/>
		</g>
	</g>
	<g>
		<g>
			<g>
				<defs>
					<path id="SVGID_1_" d="M3409.767,301.371H3307.45l-48.368-93.016c-3.721-7.441,1.86-15.813,9.302-15.813h35.346
						c2.79,0,5.581,0.93,7.441,3.721L3409.767,301.371z"/>
				</defs>
				<clipPath id="SVGID_2_">
					<use xlink:href="#SVGID_1_"  overflow="visible"/>
				</clipPath>
			</g>
		</g>
		<g>
			<g>
				<defs>
					<path id="SVGID_3_" d="M3409.767,301.371H3307.45l-48.368-93.016c-3.721-7.441,1.86-15.813,9.302-15.813h35.346
						c2.79,0,5.581,0.93,7.441,3.721L3409.767,301.371z"/>
				</defs>
				<clipPath id="SVGID_4_">
					<use xlink:href="#SVGID_3_"  overflow="visible"/>
				</clipPath>
			</g>
		</g>
		<g>
			<g>
				<defs>
					<path id="SVGID_5_" d="M3280.475,192.542h-11.162c-8.371,0-13.022,8.371-9.302,15.813l48.368,93.016h39.997l-66.041-104.178
						C3280.475,196.263,3280.475,194.403,3280.475,192.542"/>
				</defs>
				<clipPath id="SVGID_6_">
					<use xlink:href="#SVGID_5_"  overflow="visible"/>
				</clipPath>
			</g>
		</g>
		<g>
			<g>
				<defs>
					<path id="SVGID_7_" d="M3431.161,310.672h-129.292l-50.228-98.597c-2.791-6.511-2.791-13.022,0.93-19.533
						c3.72-5.581,10.232-9.302,16.743-9.302h35.346c5.581,0,11.162,1.86,14.882,6.511L3431.161,310.672z M3313.031,292.999h76.273
						l-83.714-90.225l-0.93-0.93h-35.346c-0.93,0-0.93,0-0.93,0.93s0,0.93,0,1.86L3313.031,292.999z"/>
				</defs>
				<clipPath id="SVGID_8_">
					<use xlink:href="#SVGID_7_"  overflow="visible"/>
				</clipPath>
			</g>
		</g>
		<g>
			<g>
				<defs>
					<path id="SVGID_9_" d="M3728.811,487.402c0,8.371-6.511,14.882-15.813,14.882c-8.371,0-15.813-6.511-15.813-14.882
						c0-8.371,6.511-14.883,15.813-14.883C3722.299,472.519,3728.811,479.03,3728.811,487.402"/>
				</defs>
				<clipPath id="SVGID_10_">
					<use xlink:href="#SVGID_9_"  overflow="visible"/>
				</clipPath>
			</g>
		</g>
		<g>
			<g>
				<path id="SVGID_22_" fill="#CCCCCC" d="M3602.309,145.104c0,4.651-3.721,7.441-7.441,7.441c-4.651,0-7.441-3.721-7.441-7.441
					s3.721-7.441,7.441-7.441C3599.519,136.733,3602.309,140.454,3602.309,145.104"/>
			</g>
			<g>
				<defs>
					<path id="SVGID_11_" d="M3602.309,145.104c0,4.651-3.721,7.441-7.441,7.441c-4.651,0-7.441-3.721-7.441-7.441
						s3.721-7.441,7.441-7.441C3599.519,136.733,3602.309,140.454,3602.309,145.104"/>
				</defs>
				<clipPath id="SVGID_12_">
					<use xlink:href="#SVGID_11_"  overflow="visible"/>
				</clipPath>
			</g>
		</g>
		<g>
			<g>
				<path id="SVGID_26_" fill="#CCCCCC" d="M3585.567,446.475c0,4.651-3.721,7.441-7.441,7.441c-4.651,0-7.441-3.721-7.441-7.441
					c0-4.651,3.72-7.441,7.441-7.441C3582.776,439.034,3585.567,442.754,3585.567,446.475"/>
			</g>
			<g>
				<defs>
					<path id="SVGID_13_" d="M3585.567,446.475c0,4.651-3.721,7.441-7.441,7.441c-4.651,0-7.441-3.721-7.441-7.441
						c0-4.651,3.72-7.441,7.441-7.441C3582.776,439.034,3585.567,442.754,3585.567,446.475"/>
				</defs>
				<clipPath id="SVGID_14_">
					<use xlink:href="#SVGID_13_"  overflow="visible"/>
				</clipPath>
			</g>
		</g>
		<g>
			<g>
				<defs>
					<path id="SVGID_15_" d="M3789.271,109.758c0,5.581-4.651,10.232-10.232,10.232c-5.581,0-10.232-4.651-10.232-10.232
						s4.651-10.232,10.232-10.232C3784.62,99.527,3789.271,104.178,3789.271,109.758"/>
				</defs>
				<clipPath id="SVGID_16_">
					<use xlink:href="#SVGID_15_"  overflow="visible"/>
				</clipPath>
			</g>
		</g>
		<g>
			<g>
				<defs>
					<path id="SVGID_17_" d="M3666.49,57.67c0,8.371-6.511,13.952-14.883,13.952s-14.883-6.511-14.883-13.952
						c0-8.371,6.511-13.952,14.883-13.952C3659.979,42.787,3666.49,49.298,3666.49,57.67"/>
				</defs>
				<clipPath id="SVGID_18_">
					<use xlink:href="#SVGID_17_"  overflow="visible"/>
				</clipPath>
			</g>
		</g>
		<g>
			<g>
				<defs>
					<path id="SVGID_19_" d="M3767.877,253.003h-0.93c-5.581-17.673-21.394-30.695-40.927-30.695c-8.371,0-16.743,2.79-23.254,6.511
						c-4.651-27.905-28.835-49.298-57.67-49.298c-26.044,0-48.368,17.673-55.809,40.927c-3.72-0.93-6.511-1.86-10.232-1.86
						c-20.464,0-37.206,14.883-39.997,33.486h-6.511c-16.743,0-29.765,13.022-29.765,29.765v1.86
						c0,16.743,13.952,29.765,29.765,29.765h236.26c16.743,0,29.765-13.022,29.765-29.765v-1.86
						C3797.642,266.955,3784.62,253.003,3767.877,253.003"/>
				</defs>
				<clipPath id="SVGID_20_">
					<use xlink:href="#SVGID_19_"  overflow="visible"/>
				</clipPath>
			</g>
		</g>
		<g>
			<g>
				<defs>
					<path id="SVGID_21_" d="M3767.877,324.625v-18.603c11.162,0,21.394-9.302,21.394-20.463v-1.86
						c0-11.162-9.302-20.463-21.394-20.463h-7.441l-2.79-6.511c-3.72-13.952-17.673-24.184-32.555-24.184
						c-6.511,0-13.022,1.86-18.603,5.581l-12.092,7.441l-1.86-13.952c-3.721-24.184-24.184-41.857-49.298-41.857
						c-21.393,0-40.927,13.952-47.438,34.416l-2.79,8.371l-8.371-1.86c-18.603-4.651-36.276,7.441-39.067,25.114l-0.93,7.441
						h-13.952c-7.441,0-13.952,3.721-17.673,10.232l-15.813-9.302c6.511-12.092,19.533-18.603,33.486-19.533
						c7.441-21.394,27.905-36.276,51.158-33.486c11.162-24.184,34.416-39.997,62.321-39.997c29.765,0,54.879,18.603,64.181,45.578
						c5.581-1.86,11.162-2.79,16.743-2.79c20.463,0,39.997,13.022,47.438,31.625c19.533,2.79,33.486,19.533,33.486,38.136v1.86
						C3806.944,306.952,3789.271,324.625,3767.877,324.625"/>
				</defs>
				<clipPath id="SVGID_23_">
					<use xlink:href="#SVGID_21_"  overflow="visible"/>
				</clipPath>
			</g>
		</g>
		<g>
			<g>
				<defs>
					<path id="SVGID_24_" d="M3674.861,229.749c-7.441-11.162-19.533-17.673-33.486-17.673c-7.441,0-13.952,1.86-20.464,5.581
						l-9.302-15.813c9.302-5.581,19.533-8.371,29.765-8.371c19.533,0,38.136,10.232,48.368,26.044L3674.861,229.749z"/>
				</defs>
				<clipPath id="SVGID_25_">
					<use xlink:href="#SVGID_24_"  overflow="visible"/>
				</clipPath>
			</g>
		</g>
		<g>
			<g>
				<defs>
					<path id="SVGID_27_" d="M3608.821,239.98h-18.603c0-6.511-5.581-12.092-12.092-12.092v-18.603
						C3594.868,210.215,3608.821,223.238,3608.821,239.98"/>
				</defs>
				<clipPath id="SVGID_28_">
					<use xlink:href="#SVGID_27_"  overflow="visible"/>
				</clipPath>
			</g>
		</g>
		<g>
			<g>
				<defs>
					<path id="SVGID_29_" d="M3511.154,492.053h-1.86c-4.651-14.883-17.673-25.114-33.486-25.114c-7.441,0-13.022,1.86-18.603,5.581
						c-3.72-23.254-23.254-40.927-47.438-40.927c-21.394,0-39.997,13.952-45.578,33.486c-2.79-0.93-5.581-0.93-8.371-0.93
						c-16.743,0-29.765,12.092-32.555,27.905h-5.581c-13.952,0-25.114,11.162-25.114,24.184v1.86
						c0,13.952,11.162,24.184,25.114,24.184h193.472c13.952,0,25.114-11.162,25.114-24.184v-1.86
						C3535.338,503.215,3524.176,492.053,3511.154,492.053"/>
				</defs>
				<clipPath id="SVGID_30_">
					<use xlink:href="#SVGID_29_"  overflow="visible"/>
				</clipPath>
			</g>
		</g>
		<g>
			<g>
				<defs>
					<path id="SVGID_31_" d="M3351.167,543.211h-34.416c-13.952,0-25.114-11.162-25.114-24.184v-1.86
						c0-13.952,11.162-24.184,25.114-24.184h5.581c2.79-15.813,15.813-27.905,32.555-27.905c2.79,0,5.581,0,8.371,0.93
						c6.511-19.533,24.184-33.486,45.578-33.486c24.184,0,43.718,17.673,47.438,40.927c5.581-3.721,12.092-5.581,18.603-5.581
						c15.813,0,29.765,10.232,33.486,25.114h0.93c13.952,0,25.114,11.162,25.114,24.184v1.86c0,13.022-11.162,24.184-25.114,24.184
						h-37.206H3351.167L3351.167,543.211z"/>
				</defs>
				<clipPath id="SVGID_32_">
					<use xlink:href="#SVGID_31_"  overflow="visible"/>
				</clipPath>
			</g>
		</g>
		<g>
			<g>
				<defs>
					<rect id="SVGID_33_" x="3283.266" y="423.221" width="261.374" height="129.292"/>
				</defs>
				<clipPath id="SVGID_34_">
					<use xlink:href="#SVGID_33_"  overflow="visible"/>
				</clipPath>
			</g>
		</g>
		<g>
			<g>
				<defs>
					<path id="SVGID_35_" d="M3485.11,147.895L3485.11,147.895c-3.721-9.302-12.092-15.813-22.324-15.813
						c-4.651,0-8.371,0.93-12.092,3.721c-1.86-14.883-14.883-26.044-29.765-26.044c-13.952,0-25.114,9.302-28.835,21.394
						c-1.861,0-3.721-0.93-5.581-0.93c-10.232,0-19.533,7.441-20.464,17.673h-3.72c-8.371,0-15.813,7.441-15.813,15.813v0.93
						c0,8.371,7.441,15.813,15.813,15.813h123.711c8.371,0,15.813-7.441,15.813-15.813v-0.93
						C3500.922,154.406,3494.411,147.895,3485.11,147.895"/>
				</defs>
				<clipPath id="SVGID_36_">
					<use xlink:href="#SVGID_35_"  overflow="visible"/>
				</clipPath>
			</g>
		</g>
		<g>
			<g>
				<defs>
					<path id="SVGID_37_" d="M3383.723,180.45h-22.324c-8.371,0-15.813-7.441-15.813-15.813v-0.93
						c0-8.371,7.441-15.813,15.813-15.813h3.72c1.861-10.232,10.232-17.673,20.464-17.673c1.86,0,3.72,0,5.581,0.93
						c3.72-12.092,15.813-21.394,28.835-21.394c14.882,0,27.905,11.162,29.765,26.044c3.721-1.86,7.441-3.721,12.092-3.721
						c10.232,0,18.603,6.511,21.394,15.813h0.93c8.371,0,15.813,7.441,15.813,15.813v0.93c0,8.371-7.441,15.813-15.813,15.813
						h-24.184L3383.723,180.45L3383.723,180.45z"/>
				</defs>
				<clipPath id="SVGID_38_">
					<use xlink:href="#SVGID_37_"  overflow="visible"/>
				</clipPath>
			</g>
		</g>
		<g>
			<g>
				<defs>
					<path id="SVGID_39_" d="M3485.11,188.822h-123.711c-13.952,0-25.114-11.162-25.114-25.114c0-13.952,9.302-24.184,21.393-26.044
						c4.651-10.232,14.883-17.673,26.975-17.673c6.511-13.022,20.463-20.463,35.346-20.463c15.813,0,29.765,9.302,36.276,23.254
						c13.952-2.79,27.905,4.651,34.416,15.813c11.162,2.79,18.603,12.092,18.603,24.184
						C3510.224,177.66,3499.062,188.822,3485.11,188.822z M3362.329,157.196c-3.72,0-6.511,2.79-6.511,6.511
						c0,4.651,2.79,7.441,6.511,7.441h123.711c3.72,0,6.511-2.79,6.511-6.511c0-4.651-2.79-7.441-6.511-7.441h-6.511l-2.79-6.511
						c-1.861-8.371-13.022-12.092-19.533-7.441l-12.092,7.441l-1.861-13.952c-1.86-10.232-10.232-17.673-21.393-17.673
						c-9.302,0-17.673,5.581-20.464,14.882l-2.79,8.371l-8.371-1.86c-7.441-1.86-13.952,2.79-14.883,9.302l-0.93,7.441
						L3362.329,157.196L3362.329,157.196z"/>
				</defs>
				<clipPath id="SVGID_40_">
					<use xlink:href="#SVGID_39_"  overflow="visible"/>
				</clipPath>
			</g>
		</g>
		<g>
			<g>
				<defs>
					<path id="SVGID_41_" d="M3766.947,337.647h-10.232c-8.371-24.184-31.625-40.927-58.6-40.927h-418.57
						c0,57.67,46.508,104.177,104.178,104.177h263.234h113.479h5.581c15.813,0,28.835-13.022,28.835-28.835v-5.581
						C3795.782,350.669,3782.76,337.647,3766.947,337.647"/>
				</defs>
				<clipPath id="SVGID_42_">
					<use xlink:href="#SVGID_41_"  overflow="visible"/>
				</clipPath>
			</g>
		</g>
		<g>
			<g>
				<defs>
					<path id="SVGID_43_" d="M3283.266,297.65h-2.79c0,57.67,46.508,104.177,104.177,104.177h263.234h112.549h5.581
						c15.813,0,28.835-13.022,28.835-28.835v-5.581c0-3.721-0.93-6.511-1.861-9.302c-3.72,11.162-14.882,19.533-26.974,19.533"/>
				</defs>
				<clipPath id="SVGID_44_">
					<use xlink:href="#SVGID_43_"  overflow="visible"/>
				</clipPath>
			</g>
			<g>
				<defs>
					<path id="SVGID_45_" d="M3283.266,297.65h-2.79c0,57.67,46.508,104.177,104.177,104.177h263.234h112.549h5.581
						c15.813,0,28.835-13.022,28.835-28.835v-5.581c0-3.721-0.93-6.511-1.861-9.302c-3.72,11.162-14.882,19.533-26.974,19.533"/>
				</defs>
				<defs>
					<polyline id="SVGID_46_" points="3766.947,376.713 3760.436,376.713 3647.887,376.713 3384.653,376.713 					"/>
				</defs>
				<clipPath id="SVGID_47_">
					<use xlink:href="#SVGID_45_"  overflow="visible"/>
				</clipPath>
				<clipPath id="SVGID_48_" clip-path="url(#SVGID_47_)">
					<use xlink:href="#SVGID_46_"  overflow="visible"/>
				</clipPath>
			</g>
		</g>
		<g>
			<g>
				<path id="SVGID_94_" d="M3766.947,410.199h-382.294c-62.321,0-113.479-50.228-113.479-112.549v-9.302h427.872
					c27.905,0,53.019,15.813,64.181,40.927h3.72c21.394,0,38.136,16.743,38.136,38.136v4.651
					C3804.153,393.456,3787.41,410.199,3766.947,410.199z M3289.777,306.021c4.651,48.368,45.577,85.574,94.876,85.574h382.294
					c11.162,0,19.533-8.371,19.533-19.533v-5.581c0-11.162-8.371-19.533-19.533-19.533h-16.743l-1.86-5.581
					c-7.441-20.463-27.905-34.416-50.229-34.416h-408.339V306.021z"/>
			</g>
			<g>
				<defs>
					<path id="SVGID_49_" d="M3766.947,410.199h-382.294c-62.321,0-113.479-50.228-113.479-112.549v-9.302h427.872
						c27.905,0,53.019,15.813,64.181,40.927h3.72c21.394,0,38.136,16.743,38.136,38.136v4.651
						C3804.153,393.456,3787.41,410.199,3766.947,410.199z M3289.777,306.021c4.651,48.368,45.577,85.574,94.876,85.574h382.294
						c11.162,0,19.533-8.371,19.533-19.533v-5.581c0-11.162-8.371-19.533-19.533-19.533h-16.743l-1.86-5.581
						c-7.441-20.463-27.905-34.416-50.229-34.416h-408.339V306.021z"/>
				</defs>
				<clipPath id="SVGID_50_">
					<use xlink:href="#SVGID_49_"  overflow="visible"/>
				</clipPath>
			</g>
		</g>
		<g>
			<g>
				<defs>
					<path id="SVGID_51_" d="M3399.535,330.206h-120.92c-8.371,0-13.952-6.511-13.952-13.952v-4.651
						c0-7.441,6.511-13.952,13.952-13.952h120.92c8.371,0,13.952,6.511,13.952,13.952v4.651
						C3413.488,323.694,3406.977,330.206,3399.535,330.206"/>
				</defs>
				<clipPath id="SVGID_52_">
					<use xlink:href="#SVGID_51_"  overflow="visible"/>
				</clipPath>
			</g>
		</g>
		<g>
			<g>
				<defs>
					<path id="SVGID_53_" d="M3634.865,412.989H3486.97c-8.371,0-13.952-6.511-13.952-13.952v-10.232
						c0-7.441,6.511-13.952,13.952-13.952h147.895c8.371,0,13.952,6.511,13.952,13.952v10.232
						C3648.817,406.478,3643.236,412.989,3634.865,412.989"/>
				</defs>
				<clipPath id="SVGID_54_">
					<use xlink:href="#SVGID_53_"  overflow="visible"/>
				</clipPath>
			</g>
		</g>
		<g>
			<g>
				<defs>
					<path id="SVGID_55_" d="M3399.535,339.507h-120.92c-13.022,0-23.254-10.232-23.254-23.254v-4.651
						c0-13.022,10.232-23.254,23.254-23.254h120.92c13.022,0,23.254,10.232,23.254,23.254v4.651
						C3422.789,329.275,3412.557,339.507,3399.535,339.507z M3278.615,306.021c-2.79,0-5.581,1.86-5.581,5.581v4.651
						c0,2.79,2.791,5.581,5.581,5.581h120.92c2.79,0,5.581-1.86,5.581-5.581v-4.651c0-2.79-1.861-5.581-5.581-5.581H3278.615z"/>
				</defs>
				<clipPath id="SVGID_56_">
					<use xlink:href="#SVGID_55_"  overflow="visible"/>
				</clipPath>
			</g>
		</g>
		<g>
			<g>
				<defs>
					<path id="SVGID_57_" d="M3634.865,422.291H3486.97c-13.022,0-23.254-10.232-23.254-23.254v-10.232
						c0-13.022,10.232-23.254,23.254-23.254h147.895c13.022,0,23.254,10.232,23.254,23.254v10.232
						C3658.119,412.059,3647.887,422.291,3634.865,422.291z M3486.97,383.224c-2.79,0-5.581,1.86-5.581,5.581v10.232
						c0,2.79,2.791,5.581,5.581,5.581h147.895c2.79,0,5.581-1.86,5.581-5.581v-10.232c0-2.79-2.79-5.581-5.581-5.581H3486.97z"/>
				</defs>
				<clipPath id="SVGID_58_">
					<use xlink:href="#SVGID_57_"  overflow="visible"/>
				</clipPath>
			</g>
		</g>
		<g>
			<g>
				<defs>
					<rect id="SVGID_59_" x="3248.85" y="42.787" width="558.094" height="508.795"/>
				</defs>
				<clipPath id="SVGID_60_">
					<use xlink:href="#SVGID_59_"  overflow="visible"/>
				</clipPath>
			</g>
		</g>
	</g>
	<g>
		<g>
			<g>
				<g>
					<defs>
						<path id="SVGID_61_" d="M2925.156,1273.384h-429.732c-7.441,0-13.022-5.581-13.022-13.022V957.131
							c0-7.441,5.581-13.022,13.022-13.022h429.732c7.441,0,13.022,5.581,13.022,13.022v303.231
							C2938.178,1267.803,2931.667,1273.384,2925.156,1273.384"/>
					</defs>
					<clipPath id="SVGID_62_">
						<use xlink:href="#SVGID_61_"  overflow="visible"/>
					</clipPath>
				</g>
			</g>
			<g>
				<g>
					<defs>
						<path id="SVGID_63_" d="M2929.806,1279.895h-433.453c-12.092,0-21.394-9.302-21.394-21.394v-145.104h19.533v145.104l0.93,1.86
							h433.453l1.86-1.86V952.48l-1.86-1.86H2772.61v-19.533h156.266c12.092,0,21.394,9.302,21.394,21.394v306.021
							C2951.2,1270.594,2940.968,1279.895,2929.806,1279.895"/>
					</defs>
					<clipPath id="SVGID_64_">
						<use xlink:href="#SVGID_63_"  overflow="visible"/>
					</clipPath>
				</g>
			</g>
			<g>
				<g>
					<defs>
						<rect id="SVGID_65_" x="2506.585" y="969.223" width="412.059" height="266.025"/>
					</defs>
					<clipPath id="SVGID_66_">
						<use xlink:href="#SVGID_65_"  overflow="visible"/>
					</clipPath>
				</g>
			</g>
			<g>
				<g>
					<defs>
						<path id="SVGID_67_" d="M2929.806,1292.917h-442.754c-10.232,0-19.533-7.441-21.394-18.603l-2.791-19.533h205.565
							l7.441,11.162h56.74l8.371-11.162h216.726l-2.791,16.743C2952.13,1283.616,2941.898,1292.917,2929.806,1292.917"/>
					</defs>
					<clipPath id="SVGID_68_">
						<use xlink:href="#SVGID_67_"  overflow="visible"/>
					</clipPath>
				</g>
			</g>
			<g>
				<g>
					<defs>
						<path id="SVGID_69_" d="M2930.736,1299.428h-444.615c-15.813,0-28.835-11.162-31.625-26.044l-4.651-30.695h223.238
							l7.441,11.162h46.508l8.371-11.162h234.399l-4.651,27.905C2962.362,1287.336,2948.41,1299.428,2930.736,1299.428z
							 M2473.1,1261.292l0.93,7.441c0.93,5.581,5.581,10.232,12.092,10.232h444.615c7.441,0,13.952-5.581,14.883-12.092l0.93-5.581
							h-200.914l-8.371,11.162h-66.971l-7.441-11.162H2473.1z"/>
					</defs>
					<clipPath id="SVGID_70_">
						<use xlink:href="#SVGID_69_"  overflow="visible"/>
					</clipPath>
				</g>
			</g>
			<g>
				<g>
					<defs>
						<path id="SVGID_71_" d="M2721.451,1083.632h-269.745c-14.882,0-26.974-12.092-26.974-26.975v-181.38
							c0-14.883,12.092-26.975,26.974-26.975h269.745c14.883,0,26.975,12.092,26.975,26.975v181.38
							C2747.496,1071.54,2736.334,1083.632,2721.451,1083.632"/>
					</defs>
					<clipPath id="SVGID_72_">
						<use xlink:href="#SVGID_71_"  overflow="visible"/>
					</clipPath>
				</g>
			</g>
			<g>
				<g>
					<defs>
						<path id="SVGID_73_" d="M2424.731,899.461v-34.416c0-9.302,7.441-16.743,15.813-16.743h291.139
							c9.302,0,15.813,7.441,15.813,16.743v34.416H2424.731"/>
					</defs>
					<clipPath id="SVGID_74_">
						<use xlink:href="#SVGID_73_"  overflow="visible"/>
					</clipPath>
				</g>
			</g>
			<g>
				<g>
					<defs>
						<path id="SVGID_75_" d="M2733.543,1095.724h-295.79c-14.883,0-26.974-12.092-26.974-26.044V868.766
							c0-13.952,12.092-26.044,26.974-26.044h43.717v19.533h-43.717c-3.72,0-6.511,2.791-6.511,6.511v200.914
							c0,3.721,2.791,6.511,6.511,6.511h295.79c3.72,0,6.511-2.791,6.511-6.511V868.766c0-3.721-2.79-6.511-6.511-6.511h-195.333
							v-19.533h195.333c14.883,0,26.974,12.092,26.974,26.044v200.914C2760.518,1084.562,2748.426,1095.724,2733.543,1095.724"/>
					</defs>
					<clipPath id="SVGID_76_">
						<use xlink:href="#SVGID_75_"  overflow="visible"/>
					</clipPath>
				</g>
			</g>
			<g>
				<g>
					<defs>
						<rect id="SVGID_77_" x="2494.493" y="842.722" width="25.114" height="18.603"/>
					</defs>
					<clipPath id="SVGID_78_">
						<use xlink:href="#SVGID_77_"  overflow="visible"/>
					</clipPath>
				</g>
			</g>
			<g>
				<g>
					<defs>
						<rect id="SVGID_79_" x="2424.731" y="892.95" width="323.694" height="18.603"/>
					</defs>
					<clipPath id="SVGID_80_">
						<use xlink:href="#SVGID_79_"  overflow="visible"/>
					</clipPath>
				</g>
			</g>
			<g>
				<g>
					<defs>
						<rect id="SVGID_81_" x="2456.357" y="867.836" width="12.092" height="18.603"/>
					</defs>
					<clipPath id="SVGID_82_">
						<use xlink:href="#SVGID_81_"  overflow="visible"/>
					</clipPath>
				</g>
			</g>
			<g>
				<g>
					<defs>
						<rect id="SVGID_83_" x="2487.982" y="867.836" width="12.092" height="18.603"/>
					</defs>
					<clipPath id="SVGID_84_">
						<use xlink:href="#SVGID_83_"  overflow="visible"/>
					</clipPath>
				</g>
			</g>
			<g>
				<g>
					<defs>
						<rect id="SVGID_85_" x="2519.607" y="867.836" width="12.092" height="18.603"/>
					</defs>
					<clipPath id="SVGID_86_">
						<use xlink:href="#SVGID_85_"  overflow="visible"/>
					</clipPath>
				</g>
			</g>
			<g>
				<g>
					<polyline id="SVGID_196_" fill="#CCCCCC" points="2519.607,990.616 2519.607,980.385 2557.744,962.712 2557.744,973.874 
						2532.63,985.036 2557.744,996.197 2557.744,1007.359 2519.607,990.616 					"/>
				</g>
				<g>
					<defs>
						<polyline id="SVGID_87_" points="2519.607,990.616 2519.607,980.385 2557.744,962.712 2557.744,973.874 2532.63,985.036 
							2557.744,996.197 2557.744,1007.359 2519.607,990.616 						"/>
					</defs>
					<clipPath id="SVGID_88_">
						<use xlink:href="#SVGID_87_"  overflow="visible"/>
					</clipPath>
					<g clip-path="url(#SVGID_88_)">
						<g>
							<rect id="SVGID_198_" x="-4418.428" y="-203.704" fill="#CCCCCC" width="8663.476" height="4521.49"/>
						</g>
					</g>
				</g>
			</g>
			<g>
				<g>
					<polyline id="SVGID_200_" fill="#CCCCCC" points="2592.16,950.62 2602.391,950.62 2573.556,1013.87 2564.255,1013.87 
						2592.16,950.62 					"/>
				</g>
				<g>
					<defs>
						<polyline id="SVGID_89_" points="2592.16,950.62 2602.391,950.62 2573.556,1013.87 2564.255,1013.87 2592.16,950.62 						"/>
					</defs>
					<clipPath id="SVGID_90_">
						<use xlink:href="#SVGID_89_"  overflow="visible"/>
					</clipPath>
					<g clip-path="url(#SVGID_90_)">
						<g>
							<rect id="SVGID_202_" x="-4418.428" y="-203.704" fill="#CCCCCC" width="8663.476" height="4521.49"/>
						</g>
					</g>
				</g>
			</g>
			<g>
				<g>
					<polyline id="SVGID_204_" fill="#CCCCCC" points="2652.62,980.385 2652.62,990.616 2614.483,1007.359 2614.483,996.197 
						2639.598,985.036 2614.483,973.874 2614.483,962.712 2652.62,980.385 					"/>
				</g>
				<g>
					<defs>
						<polyline id="SVGID_91_" points="2652.62,980.385 2652.62,990.616 2614.483,1007.359 2614.483,996.197 2639.598,985.036 
							2614.483,973.874 2614.483,962.712 2652.62,980.385 						"/>
					</defs>
					<clipPath id="SVGID_92_">
						<use xlink:href="#SVGID_91_"  overflow="visible"/>
					</clipPath>
					<g clip-path="url(#SVGID_92_)">
						<g>
							<rect id="SVGID_206_" x="-4418.428" y="-203.704" fill="#CCCCCC" width="8663.476" height="4521.49"/>
						</g>
					</g>
				</g>
			</g>
			<g>
				<g>
					<defs>
						<rect id="SVGID_93_" x="2773.54" y="1000.848" width="107.898" height="18.603"/>
					</defs>
					<clipPath id="SVGID_95_">
						<use xlink:href="#SVGID_93_"  overflow="visible"/>
					</clipPath>
				</g>
			</g>
			<g>
				<g>
					<defs>
						<rect id="SVGID_96_" x="2805.165" y="1045.496" width="38.136" height="18.603"/>
					</defs>
					<clipPath id="SVGID_97_">
						<use xlink:href="#SVGID_96_"  overflow="visible"/>
					</clipPath>
				</g>
			</g>
			<g>
				<g>
					<defs>
						<rect id="SVGID_98_" x="2665.642" y="1102.235" width="107.898" height="18.603"/>
					</defs>
					<clipPath id="SVGID_99_">
						<use xlink:href="#SVGID_98_"  overflow="visible"/>
					</clipPath>
				</g>
			</g>
			<g>
				<g>
					<defs>
						<rect id="SVGID_100_" x="2792.143" y="1102.235" width="56.74" height="18.603"/>
					</defs>
					<clipPath id="SVGID_101_">
						<use xlink:href="#SVGID_100_"  overflow="visible"/>
					</clipPath>
				</g>
			</g>
			<g>
				<g>
					<defs>
						<rect id="SVGID_102_" x="2627.506" y="1102.235" width="18.603" height="18.603"/>
					</defs>
					<clipPath id="SVGID_103_">
						<use xlink:href="#SVGID_102_"  overflow="visible"/>
					</clipPath>
				</g>
			</g>
			<g>
				<g>
					<defs>
						<rect id="SVGID_104_" x="2532.63" y="1140.372" width="107.898" height="18.603"/>
					</defs>
					<clipPath id="SVGID_105_">
						<use xlink:href="#SVGID_104_"  overflow="visible"/>
					</clipPath>
				</g>
			</g>
			<g>
				<g>
					<defs>
						<rect id="SVGID_106_" x="2602.391" y="1185.019" width="107.898" height="18.603"/>
					</defs>
					<clipPath id="SVGID_107_">
						<use xlink:href="#SVGID_106_"  overflow="visible"/>
					</clipPath>
				</g>
			</g>
			<g>
				<g>
					<defs>
						<rect id="SVGID_108_" x="2735.404" y="1185.019" width="56.74" height="18.603"/>
					</defs>
					<clipPath id="SVGID_109_">
						<use xlink:href="#SVGID_108_"  overflow="visible"/>
					</clipPath>
				</g>
			</g>
		</g>
	</g>
</g>
<g id="specctr">
	<g id="Text_Properties">
	</g>
</g>
</svg>
