<?xml version="1.0" encoding="utf-8"?>
<!-- Generator: Adobe Illustrator 17.0.0, SVG Export Plug-In . SVG Version: 6.00 Build 0)  -->
<!DOCTYPE svg PUBLIC "-//W3C//DTD SVG 1.1//EN" "http://www.w3.org/Graphics/SVG/1.1/DTD/svg11.dtd">
<svg version="1.1" id="Layer_1" xmlns="http://www.w3.org/2000/svg" xmlns:xlink="http://www.w3.org/1999/xlink" x="0px" y="0px"
	 width="842.35px" height="595.3px" viewBox="0 0 842.35 595.3" enable-background="new 0 0 842.35 595.3" xml:space="preserve">
<g>
	
		<rect x="254.677" y="388.805" fill="#FFFFFF" stroke="#171C28" stroke-width="5" stroke-linecap="round" stroke-linejoin="round" stroke-miterlimit="10" width="323.694" height="150.685"/>
	
		<rect x="240.725" y="280.907" fill="#FFFFFF" stroke="#171C28" stroke-width="5" stroke-linecap="round" stroke-linejoin="round" stroke-miterlimit="10" width="354.389" height="115.339"/>
	
		<rect x="310.486" y="378.574" fill="#FFFFFF" stroke="#171C28" stroke-width="5" stroke-linecap="round" stroke-linejoin="round" stroke-miterlimit="10" width="27.905" height="37.206"/>
	
		<rect x="503.029" y="378.574" fill="#FFFFFF" stroke="#171C28" stroke-width="5" stroke-linecap="round" stroke-linejoin="round" stroke-miterlimit="10" width="27.905" height="37.206"/>
</g>
<path fill="#FFFFFF" stroke="#171C28" stroke-width="5" stroke-linecap="round" stroke-linejoin="round" stroke-miterlimit="10" d="
	M483.495,278.117H356.994v-21.394c0-14.882,12.092-26.975,26.975-26.975h72.552c14.883,0,26.975,12.092,26.975,26.975V278.117z"/>
<g id="XMLID_1242_">
	
		<path id="XMLID_1249_" fill="#FFFFFF" stroke="#171C28" stroke-width="5" stroke-linecap="round" stroke-linejoin="round" stroke-miterlimit="10" d="
		M342.112,193.473v39.067c18.603,17.673,38.136-0.93,38.136-0.93l-6.511-19.533l107.898,4.651
		c18.603,26.975,35.346,1.86,35.346,1.86v-76.273l-55.809-51.159V58.6H360.715v31.625c0,6.511-18.603,36.276-18.603,36.276v36.276"
		/>
	
		<path id="XMLID_1248_" fill="#FFFFFF" stroke="#171C28" stroke-width="5" stroke-linecap="round" stroke-linejoin="round" stroke-miterlimit="10" d="
		M360.715,58.6v31.625c0,6.511-18.603,36.276-18.603,36.276v36.276"/>
	
		<path id="XMLID_1247_" fill="#FFFFFF" stroke="#171C28" stroke-width="5" stroke-linecap="round" stroke-linejoin="round" stroke-miterlimit="10" d="
		M342.112,193.473v39.067c18.603,17.673,38.136-0.93,38.136-0.93l-6.511-19.533l107.898,4.651
		c18.603,26.975,35.346,1.86,35.346,1.86v-76.273l-55.809-51.159V58.6"/>
	<polygon id="XMLID_1246_" fill="#FFFFFF" points="470.473,229.749 450.94,250.212 432.337,254.863 413.734,247.422 
		399.781,251.142 383.969,248.352 385.829,239.05 356.994,210.215 393.27,187.892 461.172,187.892 474.194,196.263 	"/>
	
		<path id="XMLID_1245_" fill="#FFFFFF" stroke="#171C28" stroke-width="5" stroke-linecap="round" stroke-linejoin="round" stroke-miterlimit="10" d="
		M480.705,159.987v79.063c0,0,4.651,16.743-13.952,16.743S452.8,239.98,452.8,239.98v-7.441"/>
	
		<path id="XMLID_1244_" fill="#FFFFFF" stroke="#171C28" stroke-width="5" stroke-linecap="round" stroke-linejoin="round" stroke-miterlimit="10" d="
		M450.94,251.142c0,0-15.813,15.813-34.416-1.86v-15.813"/>
	
		<path id="XMLID_1243_" fill="#FFFFFF" stroke="#171C28" stroke-width="5" stroke-linecap="round" stroke-linejoin="round" stroke-miterlimit="10" d="
		M410.013,242.771c0,0-12.092,18.603-30.695,0.93v-19.533"/>
</g>
<rect id="XMLID_1230_" x="561.629" y="327.415" fill="#FFFFFF" stroke="#171C28" stroke-width="5" stroke-linecap="round" stroke-linejoin="round" stroke-miterlimit="10" width="76.273" height="38.136"/>
<rect id="XMLID_1229_" x="605.346" y="332.066" fill="#0D3178" width="28.835" height="38.136"/>
<rect id="XMLID_1228_" x="561.629" y="364.621" fill="#FFFFFF" stroke="#171C28" stroke-width="5" stroke-linecap="round" stroke-linejoin="round" stroke-miterlimit="10" width="76.273" height="38.136"/>
<rect id="XMLID_1226_" x="605.346" y="370.202" fill="#0D3178" width="28.835" height="38.136"/>
<rect id="XMLID_1225_" x="561.629" y="402.758" fill="#FFFFFF" stroke="#171C28" stroke-width="5" stroke-linecap="round" stroke-linejoin="round" stroke-miterlimit="10" width="76.273" height="38.136"/>
<rect id="XMLID_1224_" x="605.346" y="407.408" fill="#0D3178" width="28.835" height="27.905"/>
<rect id="XMLID_1223_" x="561.629" y="440.894" fill="#FFFFFF" stroke="#171C28" stroke-width="5" stroke-linecap="round" stroke-linejoin="round" stroke-miterlimit="10" width="76.273" height="38.136"/>
<rect id="XMLID_1222_" x="605.346" y="445.545" fill="#0D3178" width="28.835" height="27.905"/>
<rect id="XMLID_1221_" x="561.629" y="468.799" fill="#FFFFFF" stroke="#171C28" stroke-width="5" stroke-linecap="round" stroke-linejoin="round" stroke-miterlimit="10" width="76.273" height="38.136"/>
<rect id="XMLID_1220_" x="605.346" y="473.45" fill="#0D3178" width="28.835" height="38.136"/>
<rect id="XMLID_1219_" x="561.629" y="506.935" fill="#FFFFFF" stroke="#171C28" stroke-width="5" stroke-linecap="round" stroke-linejoin="round" stroke-miterlimit="10" width="76.273" height="38.136"/>
<rect id="XMLID_1218_" x="605.346" y="511.586" fill="#0D3178" width="28.835" height="27.905"/>
</svg>
