<?xml version="1.0" encoding="utf-8"?>
<!-- Generator: Adobe Illustrator 17.0.0, SVG Export Plug-In . SVG Version: 6.00 Build 0)  -->
<!DOCTYPE svg PUBLIC "-//W3C//DTD SVG 1.1//EN" "http://www.w3.org/Graphics/SVG/1.1/DTD/svg11.dtd">
<svg version="1.1" id="Layer_1" xmlns="http://www.w3.org/2000/svg" xmlns:xlink="http://www.w3.org/1999/xlink" x="0px" y="0px"
	 width="842.35px" height="595.3px" viewBox="0 0 842.35 595.3" enable-background="new 0 0 842.35 595.3" xml:space="preserve">
<image overflow="visible" width="902" height="739" xlink:href="CC2C4F8C.jpg"  transform="matrix(0.6872 0 0 0.6872 112 43.82)">
</image>
<g>
	<path fill="#D62027" d="M208.832,233.552v3.315c0,0-7.862,1.33-17.819,1.968c-3.575,0.152-7.389-0.059-11.142-0.25
		c-8.365-1.28-11.65-2.984-10.264-9.575c0,0,0.304-2.973,8.814-13.82c2.788-3.354,6.442-7.182,11.226-12.081l3.055,1.964
		c0,0-1.423,4.095-5.256,11.248c-3.298,6.038-7.208,12.811-7.208,12.811L208.832,233.552z"/>
	<g>
		<g>
			<path fill="#253775" d="M227.973,202.826c0,0-0.928-2.696-2.383-6.628c-2.38-6.435-6.322-16.088-11.037-21.973
				c-2.086-2.092-4.028-2.795-5.763-2.689c-1.735-0.106-3.677,0.597-5.763,2.689c-4.715,5.885-8.656,15.538-11.037,21.973
				c-1.455,3.933-2.383,6.628-2.383,6.628l-0.905,1.35l3.315,2.7l1.102-2.087l15.67-21.964l15.671,21.964l1.129,2.087l3.261-2.7
				L227.973,202.826z"/>
		</g>
	</g>
	<path fill="#009749" d="M208.777,233.527v3.309c0,0,7.856,1.304,17.845,1.965c3.843,0.255,7.583,0.043,11.157-0.249
		c8.377-1.278,11.667-2.98,10.279-9.559c0,0-0.304-2.969-8.827-13.798c-2.792-3.349-5.595-6.188-10.387-11.079l-3.304,2.697
		c0,0,0.814,2.37,4.653,9.512c3.302,6.028,7.096,12.79,7.096,12.79L208.777,233.527z"/>
	<path fill="#D62027" d="M299.049,188.244c0.811-1.826,1.564-3.532,2.327-5.235c1.126-2.516,2.176-5.072,3.418-7.53
		c0.94-1.862,2.341-3.339,4.512-3.814c3.192-0.697,5.88,0.551,7.589,3.791c1.223,2.32,2.229,4.759,3.267,7.174
		c6.374,14.815,12.729,29.638,19.091,44.458c0.706,1.645,1.29,3.325,1.356,5.133c0.102,2.809-1.503,5.038-4.395,6.158
		c-2.578,0.998-5.152,0.397-6.871-1.778c-0.854-1.08-1.62-2.284-2.168-3.544c-3.763-8.65-7.454-17.332-11.176-26
		c-1.596-3.713-3.212-7.416-4.821-11.123c-0.091-0.211-0.199-0.415-0.338-0.704c-0.375,0.867-0.721,1.664-1.064,2.463
		c-1.046,2.437-2.106,4.868-3.119,7.319c-0.128,0.31-0.13,0.768,0,1.075c2.98,7.022,5.986,14.033,8.986,21.047
		c0.683,1.596,1.246,3.231,1.327,4.985c0.133,2.861-1.46,5.125-4.364,6.253c-2.612,1.015-5.187,0.403-6.929-1.81
		c-0.835-1.063-1.566-2.25-2.128-3.48c-1.414-3.093-2.705-6.243-4.047-9.369c-0.127-0.296-0.262-0.588-0.473-1.057
		c-0.724,1.678-1.359,3.186-2.022,4.68c-1.119,2.52-2.16,5.081-3.418,7.53c-0.972,1.892-2.379,3.431-4.651,3.854
		c-4.799,0.893-8.781-3.342-7.603-8.206c0.385-1.592,1.011-3.14,1.651-4.655c2.778-6.577,5.605-13.131,8.396-19.702
		c0.126-0.296,0.194-0.722,0.079-1c-1.326-3.185-2.692-6.354-4.049-9.525c-0.048-0.112-0.122-0.213-0.226-0.39
		c-1.227,2.878-2.42,5.698-3.631,8.51c-4.218,9.798-8.429,19.6-12.674,29.388c-0.827,1.907-1.86,3.738-3.698,4.846
		c-2.388,1.439-4.762,1.018-6.971-0.457c-2.237-1.494-3.088-3.655-2.672-6.31c0.413-2.639,1.648-4.984,2.678-7.399
		c5.368-12.584,10.748-25.164,16.136-37.74c1.298-3.031,2.62-6.052,3.973-9.059c0.812-1.804,1.808-3.513,3.526-4.604
		c2.811-1.786,6.476-0.994,8.591,1.767c1.466,1.913,2.218,4.181,3.18,6.344c1.067,2.4,2.107,4.811,3.161,7.217
		C298.843,187.874,298.919,187.997,299.049,188.244z"/>
	<path fill="#253775" d="M384.767,181.191c1.155-1.025,1.732-2.379,1.732-4.062c0-1.682-0.569-3.044-1.709-4.085
		c-1.14-1.04-2.88-1.56-5.219-1.56h-42.725c-2.219,0-3.914,0.505-5.083,1.514c-1.17,1.01-1.755,2.387-1.755,4.131
		c0,1.683,0.562,3.037,1.687,4.062c1.124,1.026,2.841,1.538,5.151,1.538h14.77v47.838c0,2.784,0.63,4.865,1.892,6.242
		c1.261,1.377,2.895,2.065,4.901,2.065c1.975,0,3.277-0.681,4.523-2.042c1.246-1.361,1.869-3.45,1.869-6.265v-47.838h14.77
		C381.879,182.729,383.612,182.217,384.767,181.191z"/>
	<path fill="#009749" d="M434.58,238.36c2.644-0.351,4.984-0.956,7.02-1.813c3.252-1.438,5.835-3.664,7.75-6.678
		c1.915-3.013,2.872-6.402,2.872-10.166c0-8.138-4.392-13.615-13.174-16.43c6.685-3.121,10.029-8.047,10.029-14.778
		c0-1.958-0.319-3.817-0.957-5.576s-1.566-3.366-2.781-4.819c-1.216-1.453-2.614-2.654-4.194-3.603
		c-1.854-1.132-3.951-1.897-6.291-2.295c-2.341-0.397-5.106-0.597-8.297-0.597h-21.808c-2.888,0-4.977,0.651-6.268,1.951
		c-1.292,1.301-1.937,3.435-1.937,6.402v50.577c0,2.907,0.63,5.025,1.892,6.356c1.261,1.331,3.365,1.997,6.314,1.997h20.577
		C428.851,238.888,431.936,238.712,434.58,238.36z M434.945,211.305c2.37,1.53,3.556,3.993,3.556,7.389
		c0,6.64-4.574,9.959-13.721,9.959h-14.542V209.01h14.087C429.033,209.01,432.574,209.775,434.945,211.305z M421.223,181.84
		c4.923,0,8.585,0.558,10.986,1.675s3.601,3.373,3.601,6.77c0,1.591-0.38,3.029-1.14,4.314c-0.973,1.806-2.378,3.029-4.217,3.672
		c-1.839,0.643-4.445,0.964-7.818,0.964h-12.4V181.84H421.223z"/>
	<g>
		<g>
			<path fill="#253775" d="M180.273,249.315c-0.269-0.178-0.632-0.266-1.089-0.266h-0.743c-0.447,0-0.771,0.04-0.973,0.119
				c-0.202,0.08-0.351,0.223-0.448,0.43s-0.207,0.544-0.331,1.01l-1.719,6.388l-1.72-6.388c-0.124-0.466-0.234-0.804-0.331-1.01
				c-0.097-0.207-0.246-0.35-0.448-0.43c-0.202-0.079-0.526-0.119-0.973-0.119h-0.743c-0.457,0-0.82,0.089-1.09,0.266
				c-0.269,0.178-0.403,0.521-0.403,1.03v9.227c0,0.451,0.102,0.787,0.306,1.006c0.204,0.22,0.468,0.33,0.791,0.33
				c0.333,0,0.601-0.111,0.803-0.334c0.202-0.223,0.303-0.557,0.303-1.002v-8.05l1.897,7.43c0.065,0.244,0.128,0.479,0.189,0.704
				c0.062,0.226,0.147,0.431,0.255,0.617s0.258,0.338,0.452,0.457s0.43,0.179,0.711,0.179c0.371,0,0.662-0.093,0.871-0.279
				c0.21-0.186,0.354-0.391,0.432-0.616s0.179-0.579,0.302-1.062l1.897-7.43v8.05c0,0.446,0.102,0.779,0.307,1.002
				c0.204,0.223,0.465,0.334,0.783,0.334c0.339,0,0.609-0.111,0.811-0.334c0.202-0.223,0.303-0.557,0.303-1.002v-9.227
				C180.677,249.836,180.542,249.493,180.273,249.315z M194.893,248.85c-0.193,0-0.358,0.034-0.492,0.103s-0.257,0.168-0.367,0.298
				c-0.11,0.13-0.211,0.269-0.303,0.418c-0.091,0.149-0.204,0.331-0.339,0.549l-2.236,3.54l-2.212-3.54
				c-0.339-0.547-0.593-0.911-0.762-1.094c-0.17-0.183-0.419-0.274-0.747-0.274c-0.312,0-0.575,0.098-0.787,0.294
				c-0.213,0.197-0.319,0.43-0.319,0.7c0,0.164,0.052,0.358,0.157,0.581s0.284,0.533,0.537,0.931l2.89,4.415v3.699
				c0,0.488,0.11,0.85,0.331,1.086c0.22,0.236,0.508,0.354,0.863,0.354c0.35,0,0.638-0.119,0.864-0.358
				c0.226-0.238,0.339-0.599,0.339-1.082v-3.699l2.963-4.478c0.247-0.366,0.422-0.652,0.525-0.859
				c0.102-0.207,0.153-0.414,0.153-0.62c0-0.255-0.101-0.479-0.302-0.672C195.446,248.947,195.194,248.85,194.893,248.85z
				 M208.414,251.053c-0.145-0.376-0.265-0.677-0.359-0.903s-0.21-0.436-0.347-0.633c-0.138-0.196-0.318-0.357-0.541-0.481
				s-0.502-0.186-0.835-0.186c-0.328,0-0.604,0.062-0.827,0.186c-0.223,0.125-0.404,0.288-0.541,0.489
				c-0.138,0.202-0.266,0.455-0.387,0.76c-0.121,0.305-0.225,0.566-0.311,0.784l-3.027,7.573c-0.124,0.302-0.213,0.539-0.266,0.708
				c-0.054,0.17-0.081,0.334-0.081,0.493c0,0.276,0.116,0.522,0.347,0.74s0.498,0.326,0.799,0.326c0.355,0,0.611-0.102,0.767-0.306
				s0.344-0.597,0.565-1.181l0.565-1.496h4.811l0.565,1.464c0.075,0.18,0.165,0.389,0.27,0.624c0.105,0.236,0.203,0.411,0.295,0.525
				s0.204,0.204,0.339,0.27c0.134,0.066,0.295,0.099,0.484,0.099c0.323,0,0.599-0.113,0.827-0.338
				c0.229-0.226,0.343-0.474,0.343-0.744c0-0.259-0.121-0.676-0.363-1.249L208.414,251.053z M204.563,256.153l1.752-4.813
				l1.784,4.813H204.563z M226.585,248.85c-0.334,0-0.598,0.113-0.795,0.338c-0.197,0.225-0.295,0.563-0.295,1.014v6.937
				l-4.609-6.873c-0.129-0.201-0.255-0.395-0.375-0.581c-0.121-0.186-0.239-0.336-0.355-0.453s-0.25-0.209-0.404-0.278
				s-0.338-0.103-0.553-0.103c-0.275,0-0.53,0.076-0.767,0.226c-0.237,0.151-0.406,0.346-0.508,0.585
				c-0.086,0.218-0.129,0.517-0.129,0.899v8.997c0,0.441,0.102,0.776,0.307,1.006c0.204,0.231,0.476,0.346,0.815,0.346
				c0.328,0,0.598-0.114,0.807-0.342s0.315-0.565,0.315-1.01v-6.833l4.496,6.793c0.129,0.186,0.258,0.367,0.387,0.545
				s0.269,0.333,0.42,0.465c0.15,0.133,0.312,0.23,0.484,0.291c0.172,0.061,0.366,0.091,0.581,0.091
				c0.861,0,1.292-0.512,1.292-1.535v-9.172c0-0.451-0.099-0.789-0.299-1.014C227.202,248.963,226.929,248.85,226.585,248.85z
				 M245.362,249.315c-0.269-0.178-0.632-0.266-1.09-0.266h-0.743c-0.447,0-0.771,0.04-0.973,0.119
				c-0.202,0.08-0.351,0.223-0.448,0.43s-0.207,0.544-0.331,1.01l-1.72,6.388l-1.72-6.388c-0.124-0.466-0.234-0.804-0.331-1.01
				c-0.097-0.207-0.246-0.35-0.448-0.43c-0.202-0.079-0.526-0.119-0.973-0.119h-0.743c-0.458,0-0.821,0.089-1.09,0.266
				c-0.269,0.178-0.404,0.521-0.404,1.03v9.227c0,0.451,0.102,0.787,0.307,1.006c0.204,0.22,0.468,0.33,0.791,0.33
				c0.334,0,0.601-0.111,0.803-0.334c0.202-0.223,0.303-0.557,0.303-1.002v-8.05l1.897,7.43c0.065,0.244,0.128,0.479,0.19,0.704
				c0.062,0.226,0.146,0.431,0.254,0.617s0.259,0.338,0.452,0.457c0.194,0.119,0.43,0.179,0.711,0.179
				c0.372,0,0.662-0.093,0.872-0.279c0.21-0.186,0.354-0.391,0.432-0.616s0.179-0.579,0.303-1.062l1.897-7.43v8.05
				c0,0.446,0.102,0.779,0.306,1.002c0.204,0.223,0.466,0.334,0.783,0.334c0.339,0,0.609-0.111,0.811-0.334
				c0.202-0.223,0.303-0.557,0.303-1.002v-9.227C245.766,249.836,245.631,249.493,245.362,249.315z M259.698,251.053
				c-0.146-0.376-0.265-0.677-0.359-0.903c-0.095-0.226-0.21-0.436-0.347-0.633c-0.137-0.196-0.317-0.357-0.541-0.481
				c-0.223-0.124-0.502-0.186-0.835-0.186c-0.328,0-0.604,0.062-0.827,0.186c-0.223,0.125-0.404,0.288-0.541,0.489
				c-0.137,0.202-0.266,0.455-0.387,0.76c-0.121,0.305-0.225,0.566-0.311,0.784l-3.027,7.573c-0.124,0.302-0.212,0.539-0.266,0.708
				c-0.054,0.17-0.081,0.334-0.081,0.493c0,0.276,0.116,0.522,0.347,0.74s0.498,0.326,0.799,0.326c0.355,0,0.611-0.102,0.767-0.306
				s0.344-0.597,0.565-1.181l0.565-1.496h4.811l0.565,1.464c0.075,0.18,0.165,0.389,0.27,0.624c0.105,0.236,0.203,0.411,0.295,0.525
				s0.204,0.204,0.339,0.27c0.135,0.066,0.296,0.099,0.484,0.099c0.323,0,0.598-0.113,0.827-0.338
				c0.229-0.226,0.343-0.474,0.343-0.744c0-0.259-0.121-0.676-0.363-1.249L259.698,251.053z M255.848,256.153l1.752-4.813
				l1.784,4.813H255.848z M283.014,249.049h-7.62c-0.393,0-0.693,0.087-0.9,0.262c-0.208,0.175-0.311,0.414-0.311,0.716
				c0,0.292,0.099,0.526,0.299,0.704c0.199,0.178,0.503,0.267,0.912,0.267h2.615v8.472c0,0.483,0.112,0.843,0.335,1.082
				s0.513,0.358,0.868,0.358c0.35,0,0.635-0.118,0.856-0.354c0.221-0.236,0.331-0.598,0.331-1.086v-8.472h2.616
				c0.409,0,0.716-0.089,0.92-0.267s0.307-0.412,0.307-0.704c0-0.292-0.101-0.528-0.303-0.708
				C283.736,249.139,283.428,249.049,283.014,249.049z M298.161,249.586c-0.88-0.49-1.933-0.736-3.16-0.736
				c-0.904,0-1.711,0.139-2.422,0.417s-1.313,0.68-1.808,1.206c-0.495,0.525-0.874,1.161-1.134,1.909
				c-0.261,0.747-0.392,1.57-0.392,2.466c0,0.875,0.125,1.689,0.375,2.442s0.62,1.397,1.11,1.933s1.101,0.951,1.833,1.245
				s1.56,0.441,2.486,0.441c0.931,0,1.757-0.143,2.478-0.43c0.721-0.286,1.329-0.7,1.825-1.241c0.495-0.541,0.866-1.18,1.114-1.917
				c0.247-0.737,0.371-1.556,0.371-2.458c0-1.22-0.226-2.282-0.678-3.186C299.707,250.774,299.042,250.076,298.161,249.586z
				 M297.952,257.179c-0.304,0.631-0.713,1.097-1.227,1.399c-0.514,0.302-1.078,0.454-1.691,0.454c-0.479,0-0.919-0.087-1.32-0.262
				s-0.756-0.439-1.066-0.791c-0.31-0.353-0.549-0.797-0.718-1.333c-0.169-0.535-0.254-1.135-0.254-1.798
				c0-0.657,0.085-1.25,0.254-1.778c0.17-0.528,0.401-0.961,0.694-1.3s0.643-0.598,1.049-0.776s0.849-0.267,1.328-0.267
				c0.673,0,1.269,0.16,1.788,0.481c0.519,0.321,0.919,0.794,1.199,1.42s0.419,1.366,0.419,2.219
				C298.408,255.77,298.256,256.547,297.952,257.179z M316.111,248.85c-0.361,0-0.648,0.118-0.863,0.354s-0.323,0.595-0.323,1.078
				v5.783c0,0.997-0.193,1.741-0.581,2.231c-0.387,0.491-1.049,0.736-1.986,0.736c-0.678,0-1.205-0.12-1.582-0.362
				c-0.377-0.241-0.639-0.581-0.787-1.018c-0.148-0.437-0.222-0.983-0.222-1.635v-5.736c0-0.477-0.109-0.835-0.327-1.074
				s-0.513-0.358-0.884-0.358c-0.355,0-0.641,0.119-0.859,0.358c-0.218,0.238-0.327,0.596-0.327,1.074v5.608
				c0,0.881,0.097,1.638,0.291,2.271c0.193,0.634,0.498,1.153,0.912,1.559c0.415,0.406,0.95,0.706,1.607,0.899
				c0.656,0.193,1.439,0.29,2.349,0.29c0.764,0,1.432-0.09,2.002-0.27c0.571-0.18,1.071-0.466,1.502-0.859
				c0.5-0.461,0.841-0.997,1.021-1.607s0.27-1.371,0.27-2.283v-5.608c0-0.482-0.112-0.842-0.335-1.078
				C316.763,248.968,316.471,248.85,316.111,248.85z M333.244,257.819c-0.304-0.491-0.65-0.953-1.038-1.388
				c-0.387-0.435-0.794-0.764-1.219-0.987c1.012-0.217,1.767-0.586,2.264-1.106c0.498-0.519,0.747-1.214,0.747-2.084
				c0-0.424-0.074-0.826-0.222-1.205c-0.148-0.379-0.364-0.712-0.65-0.998c-0.285-0.287-0.613-0.507-0.985-0.66
				c-0.306-0.138-0.651-0.229-1.033-0.274c-0.382-0.045-0.842-0.068-1.38-0.068h-3.899c-0.517,0-0.891,0.114-1.122,0.342
				c-0.231,0.228-0.347,0.597-0.347,1.106v8.973c0,0.472,0.105,0.83,0.315,1.074c0.21,0.244,0.506,0.366,0.888,0.366
				c0.355,0,0.643-0.117,0.864-0.35s0.331-0.597,0.331-1.09v-3.746h0.839c0.425,0,0.778,0.055,1.058,0.167s0.555,0.318,0.827,0.621
				c0.272,0.302,0.579,0.743,0.924,1.32l0.961,1.575c0.226,0.372,0.404,0.652,0.536,0.843c0.132,0.191,0.29,0.349,0.473,0.474
				c0.183,0.124,0.409,0.187,0.678,0.187c0.226,0,0.425-0.044,0.598-0.131c0.172-0.087,0.308-0.207,0.408-0.358
				c0.099-0.151,0.149-0.303,0.149-0.457c0-0.149-0.084-0.42-0.254-0.816C333.785,258.752,333.548,258.31,333.244,257.819z
				 M330.358,253.881c-0.393,0.098-0.878,0.147-1.453,0.147h-2.147v-3.206h2.212c0.823,0,1.375,0.058,1.654,0.175
				c0.296,0.122,0.528,0.306,0.694,0.553c0.167,0.247,0.251,0.532,0.251,0.855c0,0.414-0.104,0.739-0.311,0.974
				C331.051,253.616,330.751,253.783,330.358,253.881z M342.015,248.85c-0.35,0-0.635,0.119-0.856,0.358
				c-0.221,0.238-0.331,0.596-0.331,1.074v9.188c0,0.477,0.111,0.837,0.335,1.078c0.223,0.241,0.507,0.362,0.852,0.362
				c0.361,0,0.652-0.119,0.876-0.358c0.223-0.238,0.335-0.599,0.335-1.082v-9.188c0-0.482-0.112-0.842-0.335-1.078
				C342.667,248.968,342.375,248.85,342.015,248.85z M358.155,254.713c-0.379-0.265-0.839-0.491-1.38-0.676
				c-0.541-0.186-1.145-0.355-1.812-0.509c-0.533-0.132-0.915-0.233-1.146-0.302c-0.232-0.069-0.46-0.164-0.686-0.287
				c-0.226-0.122-0.404-0.268-0.533-0.437c-0.129-0.17-0.193-0.371-0.193-0.605c0-0.376,0.19-0.699,0.569-0.966
				c0.379-0.268,0.878-0.402,1.497-0.402c0.667,0,1.151,0.123,1.453,0.37c0.301,0.247,0.56,0.59,0.775,1.031
				c0.167,0.307,0.321,0.529,0.464,0.664c0.142,0.135,0.351,0.203,0.626,0.203c0.301,0,0.553-0.113,0.755-0.339
				c0.202-0.225,0.302-0.478,0.302-0.759c0-0.307-0.08-0.623-0.242-0.947c-0.161-0.324-0.417-0.633-0.767-0.927
				s-0.79-0.53-1.32-0.708s-1.159-0.266-1.885-0.266c-0.91,0-1.701,0.134-2.373,0.401c-0.673,0.268-1.187,0.651-1.542,1.15
				c-0.355,0.499-0.533,1.068-0.533,1.71c0,0.674,0.168,1.237,0.505,1.691c0.336,0.453,0.791,0.812,1.364,1.074
				c0.573,0.263,1.285,0.492,2.135,0.689c0.635,0.143,1.142,0.278,1.522,0.406c0.379,0.127,0.689,0.311,0.929,0.553
				c0.239,0.241,0.359,0.555,0.359,0.943c0,0.488-0.222,0.895-0.666,1.221c-0.444,0.326-1.021,0.489-1.731,0.489
				c-0.517,0-0.934-0.081-1.251-0.243c-0.318-0.162-0.564-0.367-0.739-0.616c-0.175-0.249-0.338-0.559-0.488-0.931
				c-0.124-0.313-0.273-0.549-0.448-0.708s-0.389-0.239-0.642-0.239c-0.312,0-0.569,0.102-0.771,0.306s-0.303,0.45-0.303,0.736
				c0,0.493,0.168,1.001,0.505,1.523c0.336,0.523,0.773,0.94,1.312,1.253c0.759,0.435,1.722,0.652,2.89,0.652
				c0.974,0,1.817-0.159,2.527-0.477c0.711-0.318,1.25-0.758,1.618-1.32c0.369-0.562,0.553-1.196,0.553-1.901
				c0-0.589-0.106-1.086-0.319-1.491C358.831,255.313,358.535,254.978,358.155,254.713z M377.097,249.315
				c-0.269-0.178-0.632-0.266-1.09-0.266h-0.743c-0.447,0-0.771,0.04-0.973,0.119c-0.202,0.08-0.351,0.223-0.448,0.43
				s-0.207,0.544-0.331,1.01l-1.72,6.388l-1.72-6.388c-0.124-0.466-0.234-0.804-0.331-1.01c-0.097-0.207-0.246-0.35-0.448-0.43
				c-0.201-0.079-0.526-0.119-0.973-0.119h-0.743c-0.458,0-0.821,0.089-1.09,0.266c-0.269,0.178-0.404,0.521-0.404,1.03v9.227
				c0,0.451,0.102,0.787,0.307,1.006c0.204,0.22,0.468,0.33,0.791,0.33c0.334,0,0.602-0.111,0.803-0.334
				c0.202-0.223,0.302-0.557,0.302-1.002v-8.05l1.897,7.43c0.065,0.244,0.128,0.479,0.19,0.704c0.062,0.226,0.146,0.431,0.254,0.617
				s0.259,0.338,0.452,0.457c0.194,0.119,0.43,0.179,0.711,0.179c0.371,0,0.662-0.093,0.872-0.279
				c0.21-0.186,0.354-0.391,0.432-0.616s0.179-0.579,0.303-1.062l1.897-7.43v8.05c0,0.446,0.102,0.779,0.307,1.002
				c0.204,0.223,0.465,0.334,0.783,0.334c0.339,0,0.609-0.111,0.812-0.334c0.201-0.223,0.302-0.557,0.302-1.002v-9.227
				C377.501,249.836,377.366,249.493,377.097,249.315z M400.176,254.538c1.184-0.541,1.776-1.395,1.776-2.562
				c0-0.339-0.056-0.662-0.17-0.966c-0.113-0.305-0.277-0.583-0.492-0.835c-0.215-0.252-0.463-0.46-0.743-0.624
				c-0.328-0.196-0.7-0.329-1.114-0.398s-0.904-0.103-1.469-0.103h-3.834c-0.511,0-0.882,0.113-1.11,0.338
				c-0.229,0.226-0.343,0.595-0.343,1.11v8.766c0,0.504,0.112,0.871,0.335,1.101c0.223,0.231,0.596,0.346,1.119,0.346h3.616
				c0.624,0,1.17-0.031,1.639-0.091c0.468-0.061,0.882-0.166,1.243-0.314c0.576-0.249,1.033-0.635,1.372-1.158
				c0.339-0.522,0.509-1.11,0.509-1.762C402.509,255.975,401.731,255.026,400.176,254.538z M395.074,250.823h1.945
				c0.872,0,1.52,0.097,1.946,0.29c0.425,0.193,0.638,0.585,0.638,1.173c0,0.276-0.067,0.525-0.202,0.748
				c-0.172,0.313-0.421,0.525-0.747,0.637c-0.326,0.111-0.787,0.167-1.385,0.167h-2.196v-3.015L395.074,250.823L395.074,250.823z
				 M397.649,258.937h-2.575v-3.405h2.494c0.834,0,1.461,0.133,1.881,0.398s0.63,0.692,0.63,1.281
				C400.079,258.361,399.269,258.937,397.649,258.937z M415.393,251.053c-0.146-0.376-0.265-0.677-0.359-0.903
				s-0.21-0.436-0.347-0.633c-0.137-0.196-0.318-0.357-0.541-0.481c-0.224-0.124-0.503-0.186-0.836-0.186
				c-0.328,0-0.604,0.062-0.827,0.186c-0.223,0.125-0.404,0.288-0.541,0.489c-0.137,0.202-0.266,0.455-0.387,0.76
				c-0.121,0.305-0.225,0.566-0.311,0.784l-3.027,7.573c-0.124,0.302-0.213,0.539-0.266,0.708c-0.054,0.17-0.081,0.334-0.081,0.493
				c0,0.276,0.116,0.522,0.347,0.74c0.231,0.218,0.498,0.326,0.799,0.326c0.355,0,0.611-0.102,0.767-0.306s0.344-0.597,0.565-1.181
				l0.565-1.496h4.811l0.565,1.464c0.075,0.18,0.166,0.389,0.27,0.624c0.105,0.236,0.203,0.411,0.295,0.525
				c0.091,0.114,0.204,0.204,0.339,0.27c0.134,0.066,0.296,0.099,0.484,0.099c0.323,0,0.599-0.113,0.827-0.338
				c0.229-0.226,0.343-0.474,0.343-0.744c0-0.259-0.121-0.676-0.363-1.249L415.393,251.053z M411.542,256.153l1.752-4.813
				l1.784,4.813H411.542z M433.564,248.85c-0.334,0-0.598,0.113-0.795,0.338c-0.197,0.225-0.295,0.563-0.295,1.014v6.937
				l-4.609-6.873c-0.129-0.201-0.254-0.395-0.375-0.581s-0.24-0.336-0.355-0.453c-0.116-0.117-0.251-0.209-0.404-0.278
				s-0.338-0.103-0.553-0.103c-0.275,0-0.53,0.076-0.767,0.226c-0.237,0.151-0.406,0.346-0.508,0.585
				c-0.086,0.218-0.129,0.517-0.129,0.899v8.997c0,0.441,0.102,0.776,0.307,1.006c0.204,0.231,0.476,0.346,0.815,0.346
				c0.328,0,0.598-0.114,0.807-0.342s0.315-0.565,0.315-1.01v-6.833l4.496,6.793c0.129,0.186,0.258,0.367,0.387,0.545
				s0.269,0.333,0.42,0.465c0.15,0.133,0.312,0.23,0.484,0.291c0.172,0.061,0.366,0.091,0.582,0.091
				c0.861,0,1.291-0.512,1.291-1.535v-9.172c0-0.451-0.099-0.789-0.299-1.014C434.18,248.963,433.908,248.85,433.564,248.85z
				 M452.017,259.227c-0.118-0.247-0.296-0.534-0.533-0.863l-3.358-4.741l2.914-2.721c0.36-0.339,0.541-0.681,0.541-1.026
				c0-0.287-0.106-0.529-0.319-0.728c-0.212-0.199-0.491-0.298-0.835-0.298c-0.264,0-0.475,0.055-0.634,0.167
				c-0.159,0.111-0.351,0.284-0.577,0.517l-4.706,4.836v-4.089c0-0.482-0.112-0.842-0.335-1.078s-0.515-0.354-0.876-0.354
				c-0.366,0-0.656,0.119-0.868,0.358c-0.213,0.238-0.319,0.596-0.319,1.074v8.671c0,0.372,0.008,0.655,0.024,0.851
				s0.062,0.369,0.137,0.517c0.102,0.18,0.248,0.324,0.436,0.43c0.189,0.106,0.385,0.159,0.59,0.159
				c0.355,0,0.645-0.118,0.872-0.354c0.226-0.236,0.339-0.598,0.339-1.086v-2.41l1.961-1.853l2.834,4.295
				c0.113,0.191,0.242,0.403,0.387,0.637c0.146,0.233,0.323,0.42,0.533,0.561s0.481,0.211,0.815,0.211
				c0.355,0,0.637-0.095,0.844-0.286s0.311-0.416,0.311-0.676C452.195,259.713,452.135,259.473,452.017,259.227z"/>
		</g>
	</g>
</g>
</svg>
