<svg width="336" height="276" viewBox="0 0 336 276" xmlns="http://www.w3.org/2000/svg"><title>create</title><desc>Created with Sketch.</desc><g transform="translate(-516 -163) translate(516 163)" fill="none"><path d="M34 249c-.552 0-1-.55-1-1.231v-13.537c0-.681.448-1.231 1-1.231s1 .55 1 1.231v13.537c0 .681-.448 1.231-1 1.231" fill="#123456"/><path d="M40.768 241h-13.537c-.681 0-1.232-.447-1.232-1 0-.553.55-1 1.232-1h13.537c.681 0 1.232.447 1.232 1 0 .553-.55 1-1.232 1" fill="#123456"/><path d="M60 221c-.552 0-1-.567-1-1.269v-10.462c0-.702.448-1.269 1-1.269.553 0 1 .567 1 1.269v10.462c0 .702-.447 1.269-1 1.269" fill="#123456"/><path d="M65.731 215h-10.462c-.701 0-1.269-.447-1.269-1 0-.552.569-1 1.269-1h10.462c.701 0 1.269.448 1.269 1 0 .553-.569 1-1.269 1" fill="#123456"/><path d="M241.715 267h-77.43c-5.127 0-9.285-4.169-9.285-9.312v-147.376c0-5.143 4.158-9.312 9.285-9.312h77.43c5.128 0 9.285 4.169 9.285 9.312v147.376c0 5.143-4.156 9.312-9.285 9.312" fill="#DADADA"/><path d="M163.573 101.464c-4.464 0-8.096 3.612-8.096 8.054v146.964c0 4.44 3.632 8.054 8.096 8.054h77.853c4.465 0 8.097-3.614 8.097-8.054v-146.964c0-4.442-3.632-8.054-8.097-8.054h-77.853zm77.853 165.536h-77.853c-5.83 0-10.573-4.719-10.573-10.518v-146.964c0-5.799 4.743-10.518 10.573-10.518h77.853c5.831 0 10.574 4.719 10.574 10.518v146.964c0 5.799-4.743 10.518-10.574 10.518z" fill="#123456"/><path fill="#286090" d="M161 246h83v-125h-83z"/><path fill="#286090" d="M164 244h78v-121h-78z"/><path d="M162.474 245.524h81.052v-124.047h-81.052v124.047zm-1.474 1.476h84v-127h-84v127z" fill="#123456"/><path fill="#CEE8FA" d="M164 160v-17.864l10.855-19.136h10.145l-21 37"/><path fill="#1A4162" d="M161 163v-17.721l.598-1.279v17.72l-.598 1.28"/><path fill="#CEE8FA" d="M164 191v-17.714l28.841-50.286h10.159l-39 68"/><path fill="#1A4162" d="M161 194v-17.72l.598-1.28v17.721l-.598 1.279"/><path fill="#CEE8FA" d="M164 222v-17.657l46.827-81.343h10.173l-57 99"/><path fill="#1A4162" d="M161 226v-17.721l.598-1.279v17.721l-.598 1.279"/><path fill="#CEE8FA" d="M215.281 244h-10.281l37-64v17.778l-26.719 46.222"/><path fill="#1A4162" d="M213.56 246.597h-10.56l.439-.597h10.561l-.44.597"/><path fill="#CEE8FA" d="M233.363 243h-10.363l19-32v17.458l-8.637 14.542"/><path fill="#1A4162" d="M231.559 246.597h-10.559l.439-.597h10.561l-.441.597"/><path d="M214.944 262h-23.888c-1.685 0-3.056-1.361-3.056-3.034v-4.934c0-1.671 1.371-3.032 3.056-3.032.692 0 1.254.556 1.254 1.244 0 .687-.562 1.244-1.254 1.244-.302 0-.548.244-.548.544v4.934c0 .3.246.545.548.545h23.888c.302 0 .548-.245.548-.545v-4.934c0-.3-.246-.544-.548-.544-.692 0-1.254-.557-1.254-1.244 0-.688.562-1.244 1.254-1.244 1.685 0 3.056 1.361 3.056 3.032v4.934c0 1.672-1.371 3.034-3.056 3.034" fill="#123456"/><path d="M271 166.75v-4.501c0-.691.448-1.25 1-1.25s1 .559 1 1.25v4.501c0 .691-.448 1.25-1 1.25s-1-.559-1-1.25z" fill="#123456"/><path d="M267.242 170.824l-3.656-2.368c-.56-.363-.752-1.168-.429-1.796.323-.63 1.04-.847 1.601-.481l3.656 2.368c.56.363.752 1.166.429 1.796-.218.422-.611.658-1.016.658-.199 0-.401-.057-.585-.176z" fill="#123456"/><path d="M263.157 177.342c-.323-.629-.131-1.432.429-1.797l3.656-2.369c.558-.363 1.276-.149 1.601.483.323.629.131 1.432-.429 1.797l-3.656 2.369c-.184.118-.386.175-.585.175-.406 0-.799-.234-1.016-.658z" fill="#123456"/><path d="M271 181.75v-4.5c0-.691.448-1.25 1-1.25s1 .559 1 1.25v4.5c0 .691-.448 1.25-1 1.25s-1-.559-1-1.25z" fill="#123456"/><path d="M280.242 177.825l-3.656-2.369c-.56-.364-.752-1.168-.429-1.797.323-.631 1.041-.846 1.601-.483l3.656 2.369c.561.364.752 1.168.429 1.797-.217.424-.611.658-1.016.658-.198 0-.401-.057-.585-.175z" fill="#123456"/><path d="M276.157 170.342c-.323-.63-.131-1.433.429-1.796l3.656-2.368c.56-.366 1.276-.149 1.601.481.323.629.132 1.433-.429 1.796l-3.656 2.368c-.184.12-.386.176-.585.176-.404 0-.798-.235-1.016-.658z" fill="#123456"/><path d="M24 113.75v-4.5c0-.691.448-1.25 1-1.25.553 0 1 .559 1 1.25v4.5c0 .691-.447 1.25-1 1.25-.552 0-1-.559-1-1.25z" fill="#123456"/><path d="M19.241 117.824l-3.655-2.368c-.561-.364-.752-1.168-.43-1.798.323-.63 1.042-.844 1.602-.481l3.655 2.369c.561.363.752 1.168.43 1.797-.218.424-.612.658-1.017.658-.198 0-.4-.057-.585-.176z" fill="#123456"/><path d="M15.156 124.342c-.322-.63-.13-1.434.43-1.797l3.655-2.368c.561-.364 1.278-.146 1.602.482.322.63.13 1.434-.43 1.797l-3.655 2.368c-.185.12-.387.176-.585.176-.406 0-.799-.237-1.017-.658z" fill="#123456"/><path d="M24 128.75v-4.5c0-.691.448-1.25 1-1.25.553 0 1 .559 1 1.25v4.5c0 .69-.447 1.25-1 1.25-.552 0-1-.56-1-1.25z" fill="#123456"/><path d="M32.242 124.824l-3.656-2.368c-.56-.363-.752-1.167-.429-1.797.322-.628 1.038-.846 1.601-.482l3.656 2.368c.56.363.752 1.167.429 1.797-.217.421-.612.658-1.016.658-.199 0-.401-.057-.585-.176z" fill="#123456"/><path d="M28.157 117.342c-.323-.629-.132-1.434.429-1.797l3.656-2.369c.559-.363 1.276-.149 1.601.481.323.63.131 1.434-.429 1.798l-3.656 2.368c-.184.12-.387.176-.585.176-.406 0-.799-.234-1.016-.658z" fill="#123456"/><path d="M47 143.705v-2.41c0-.716.448-1.295 1-1.295s1 .579 1 1.295v2.41c0 .716-.448 1.295-1 1.295s-1-.579-1-1.295z" fill="#123456"/><path d="M45.338 145.817l-1.784-1.27c-.531-.377-.711-1.21-.405-1.864.306-.654.982-.877 1.513-.499l1.784 1.269c.531.378.711 1.212.405 1.865-.205.438-.577.682-.96.682-.188 0-.379-.059-.553-.183z" fill="#123456"/><path d="M43.148 149.318c-.306-.654-.124-1.487.405-1.865l1.786-1.268c.528-.379 1.206-.154 1.512.499.306.654.124 1.487-.405 1.864l-1.786 1.269c-.174.124-.364.183-.552.183-.383 0-.755-.246-.96-.682z" fill="#123456"/><path d="M47 150.705v-2.409c0-.716.448-1.295 1-1.295s1 .579 1 1.295v2.409c0 .716-.448 1.295-1 1.295s-1-.579-1-1.295z" fill="#123456"/><path d="M51.339 149.817l-1.785-1.269c-.529-.377-.711-1.21-.405-1.864.305-.654.981-.879 1.513-.499l1.785 1.268c.529.378.711 1.212.405 1.865-.205.437-.578.682-.96.682-.188 0-.379-.059-.553-.183z" fill="#123456"/><path d="M49.149 145.318c-.307-.653-.125-1.487.404-1.865l1.785-1.269c.529-.379 1.206-.154 1.512.499.307.653.125 1.487-.404 1.863l-1.785 1.27c-.174.124-.364.183-.553.183-.382 0-.754-.244-.959-.682z" fill="#123456"/><path d="M292 139.774v-2.548c0-.678.448-1.226 1-1.226.553 0 1 .548 1 1.226v2.548c0 .678-.447 1.226-1 1.226-.552 0-1-.548-1-1.226z" fill="#123456"/><path d="M291.026 142.824l-2.368-1.368c-.629-.363-.845-1.169-.482-1.797.363-.631 1.17-.845 1.797-.483l2.368 1.368c.63.364.845 1.169.482 1.798-.243.422-.685.658-1.141.658-.222 0-.449-.057-.657-.176z" fill="#123456"/><path d="M288.176 146.342c-.363-.627-.147-1.434.482-1.797l2.368-1.368c.628-.364 1.434-.149 1.797.481.363.629.149 1.434-.482 1.797l-2.368 1.368c-.207.12-.433.176-.657.176-.455 0-.897-.235-1.141-.658z" fill="#123456"/><path d="M292 147.774v-2.548c0-.678.448-1.226 1-1.226.553 0 1 .548 1 1.226v2.548c0 .678-.447 1.226-1 1.226-.552 0-1-.548-1-1.226z" fill="#123456"/><path d="M298.027 146.824l-2.369-1.368c-.63-.363-.845-1.167-.481-1.797.362-.63 1.169-.846 1.797-.481l2.369 1.368c.629.363.845 1.168.48 1.797-.243.422-.685.658-1.139.658-.224 0-.45-.057-.656-.176z" fill="#123456"/><path d="M295.177 142.342c-.363-.63-.149-1.434.481-1.798l2.369-1.368c.627-.363 1.433-.149 1.796.483.364.629.149 1.434-.48 1.797l-2.369 1.368c-.207.12-.434.176-.656.176-.455 0-.897-.235-1.141-.658z" fill="#123456"/><path d="M93.439 265.526h15.122v-229.848l-7.561-7.701-7.561 7.701v229.848zm16.341 2.474h-17.561c-.673 0-1.22-.553-1.22-1.237v-231.596c0-.328.128-.642.356-.873l8.78-8.944c.457-.466 1.271-.466 1.728 0l8.78 8.944c.227.231.355.546.355.873v231.596c0 .684-.546 1.237-1.22 1.237z" fill="#123456"/><path d="M40.473 69.561h178.423l10.704-7.535-11.32-7.587h-177.807v15.122zm178.819 2.439h-180.055c-.683 0-1.237-.546-1.237-1.22v-17.561c0-.674.554-1.22 1.237-1.22h179.424c.247 0 .49.074.695.211l13.102 8.78c.335.224.538.596.542.995.005.399-.188.774-.517 1.006l-12.471 8.779c-.21.148-.461.228-.72.228z" fill="#123456"/><path d="M109.78 72c-.312 0-.624-.12-.862-.357l-17.56-17.562c-.477-.476-.477-1.248 0-1.724s1.248-.476 1.724 0l17.56 17.562c.477.476.477 1.248 0 1.724-.238.238-.55.357-.862.357" fill="#123456"/><path d="M92.22 72c-.312 0-.624-.12-.862-.357-.477-.477-.477-1.249 0-1.724l17.56-17.562c.477-.476 1.248-.476 1.724 0 .477.477.477 1.249 0 1.724l-17.56 17.562c-.238.238-.55.357-.862.357" fill="#123456"/><path d="M127.78 72c-.312 0-.624-.12-.862-.357l-17.56-17.562c-.477-.476-.477-1.248 0-1.724s1.248-.476 1.724 0l17.56 17.562c.477.476.477 1.248 0 1.724-.238.238-.55.357-.862.357" fill="#123456"/><path d="M110.22 72c-.312 0-.624-.12-.862-.357-.477-.477-.477-1.249 0-1.724l17.56-17.562c.477-.476 1.248-.476 1.724 0 .477.477.477 1.249 0 1.724l-17.56 17.562c-.238.238-.55.357-.862.357" fill="#123456"/><path d="M145.78 72c-.311 0-.623-.12-.862-.357l-17.56-17.562c-.477-.476-.477-1.248 0-1.724s1.248-.476 1.724 0l17.56 17.562c.477.476.477 1.248 0 1.724-.238.238-.55.357-.862.357" fill="#123456"/><path d="M128.22 72c-.312 0-.624-.12-.862-.357-.477-.477-.477-1.249 0-1.724l17.56-17.562c.477-.476 1.249-.476 1.724 0 .477.477.477 1.249 0 1.724l-17.56 17.562c-.238.238-.55.357-.862.357" fill="#123456"/><path d="M162.78 72c-.312 0-.623-.12-.862-.357l-17.561-17.562c-.476-.476-.476-1.248 0-1.724.477-.476 1.249-.476 1.724 0l17.561 17.562c.477.476.477 1.248 0 1.724-.238.238-.55.357-.862.357" fill="#123456"/><path d="M145.219 72c-.311 0-.623-.12-.862-.357-.476-.477-.476-1.249 0-1.724l17.561-17.562c.477-.476 1.249-.476 1.724 0 .477.477.477 1.249 0 1.724l-17.561 17.562c-.238.238-.55.357-.862.357" fill="#123456"/><path d="M180.78 72c-.312 0-.624-.12-.862-.357l-17.561-17.562c-.476-.476-.476-1.248 0-1.724.477-.476 1.249-.476 1.724 0l17.561 17.562c.477.476.477 1.248 0 1.724-.238.238-.55.357-.862.357" fill="#123456"/><path d="M163.219 72c-.312 0-.623-.12-.862-.357-.476-.477-.476-1.249 0-1.724l17.561-17.562c.477-.476 1.249-.476 1.724 0 .477.477.477 1.249 0 1.724l-17.561 17.562c-.238.238-.55.357-.862.357" fill="#123456"/><path d="M198.781 72c-.312 0-.624-.12-.862-.357l-17.562-17.562c-.476-.476-.476-1.248 0-1.724.477-.476 1.249-.476 1.724 0l17.562 17.562c.476.476.476 1.248 0 1.724-.239.238-.551.357-.862.357" fill="#123456"/><path d="M181.219 72c-.312 0-.624-.12-.862-.357-.476-.477-.476-1.249 0-1.724l17.562-17.562c.476-.476 1.248-.476 1.724 0 .476.477.476 1.249 0 1.724l-17.562 17.562c-.238.238-.55.357-.862.357" fill="#123456"/><path d="M216.78 72c-.311 0-.623-.12-.862-.357l-17.56-17.562c-.477-.476-.477-1.248 0-1.724.476-.476 1.248-.476 1.724 0l17.561 17.562c.476.476.476 1.248 0 1.724-.239.238-.551.357-.863.357" fill="#123456"/><path d="M91.78 72c-.312 0-.624-.12-.862-.357l-17.56-17.562c-.477-.476-.477-1.248 0-1.724.476-.476 1.248-.476 1.724 0l17.56 17.562c.477.476.477 1.248 0 1.724-.238.238-.55.357-.862.357" fill="#123456"/><path d="M74.22 72c-.312 0-.624-.12-.862-.357-.477-.477-.477-1.249 0-1.724l17.56-17.562c.477-.476 1.248-.476 1.724 0 .477.477.477 1.249 0 1.724l-17.56 17.562c-.239.238-.55.357-.862.357" fill="#123456"/><path d="M74.781 72c-.312 0-.624-.12-.862-.357l-17.561-17.562c-.477-.476-.477-1.248 0-1.724.476-.476 1.248-.476 1.724 0l17.561 17.562c.476.476.476 1.248 0 1.724-.239.238-.55.357-.862.357" fill="#123456"/><path d="M57.22 72c-.312 0-.624-.12-.862-.357-.477-.477-.477-1.249 0-1.724l17.561-17.562c.476-.476 1.248-.476 1.724 0 .476.477.476 1.249 0 1.724l-17.561 17.562c-.239.238-.55.357-.862.357" fill="#123456"/><path d="M39.22 72c-.312 0-.624-.12-.862-.357-.477-.477-.477-1.249 0-1.724l17.561-17.562c.476-.476 1.248-.476 1.724 0 .476.477.476 1.249 0 1.724l-17.561 17.562c-.238.238-.55.357-.862.357" fill="#123456"/><path d="M109.78 54c-.312 0-.624-.118-.862-.357l-17.56-17.561c-.477-.477-.477-1.249 0-1.724.477-.477 1.248-.477 1.724 0l17.56 17.561c.477.477.477 1.249 0 1.724-.238.239-.55.357-.862.357" fill="#123456"/><path d="M92.22 54c-.312 0-.624-.118-.862-.357-.477-.476-.477-1.248 0-1.724l17.56-17.561c.477-.477 1.248-.477 1.724 0 .477.476.477 1.248 0 1.724l-17.56 17.561c-.238.239-.55.357-.862.357" fill="#123456"/><path d="M109.78 90c-.312 0-.624-.12-.862-.357l-17.56-17.561c-.477-.477-.477-1.249 0-1.724.477-.477 1.248-.477 1.724 0l17.56 17.561c.477.477.477 1.248 0 1.724-.238.238-.55.357-.862.357" fill="#123456"/><path d="M92.22 90c-.312 0-.624-.12-.862-.357-.477-.477-.477-1.248 0-1.724l17.56-17.561c.477-.477 1.248-.477 1.724 0 .477.476.477 1.248 0 1.724l-17.56 17.561c-.238.238-.55.357-.862.357" fill="#123456"/><path d="M109.78 107c-.312 0-.624-.118-.862-.357l-17.56-17.561c-.477-.477-.477-1.248 0-1.724.477-.477 1.248-.477 1.724 0l17.56 17.561c.477.477.477 1.249 0 1.724-.238.239-.55.357-.862.357" fill="#123456"/><path d="M92.22 107c-.312 0-.624-.118-.862-.357-.477-.476-.477-1.248 0-1.724l17.56-17.561c.477-.477 1.248-.477 1.724 0 .477.477.477 1.248 0 1.724l-17.56 17.561c-.238.239-.55.357-.862.357" fill="#123456"/><path d="M109.78 125c-.312 0-.624-.12-.862-.357l-17.56-17.562c-.477-.476-.477-1.248 0-1.724s1.248-.476 1.724 0l17.56 17.562c.477.476.477 1.248 0 1.724-.238.238-.55.357-.862.357" fill="#123456"/><path d="M92.22 125c-.312 0-.624-.12-.862-.357-.477-.477-.477-1.249 0-1.724l17.56-17.562c.477-.476 1.248-.476 1.724 0 .477.477.477 1.249 0 1.724l-17.56 17.562c-.238.238-.55.357-.862.357" fill="#123456"/><path d="M109.78 143c-.312 0-.624-.118-.862-.357l-17.56-17.561c-.477-.477-.477-1.249 0-1.724.477-.477 1.248-.477 1.724 0l17.56 17.561c.477.477.477 1.249 0 1.724-.238.239-.55.357-.862.357" fill="#123456"/><path d="M92.22 143c-.312 0-.624-.118-.862-.357-.477-.476-.477-1.248 0-1.724l17.56-17.561c.477-.477 1.248-.477 1.724 0 .477.476.477 1.248 0 1.724l-17.56 17.561c-.238.239-.55.357-.862.357" fill="#123456"/><path d="M109.78 161c-.312 0-.624-.12-.862-.357l-17.56-17.562c-.477-.476-.477-1.248 0-1.724s1.248-.476 1.724 0l17.56 17.562c.477.476.477 1.248 0 1.724-.238.238-.55.357-.862.357" fill="#123456"/><path d="M92.22 161c-.312 0-.624-.12-.862-.357-.477-.477-.477-1.249 0-1.724l17.56-17.562c.477-.476 1.248-.476 1.724 0 .477.477.477 1.249 0 1.724l-17.56 17.562c-.238.238-.55.357-.862.357" fill="#123456"/><path d="M109.78 179c-.312 0-.624-.12-.862-.357l-17.56-17.561c-.477-.477-.477-1.249 0-1.724.477-.477 1.248-.477 1.724 0l17.56 17.561c.477.477.477 1.248 0 1.724-.238.238-.55.357-.862.357" fill="#123456"/><path d="M92.22 179c-.312 0-.624-.12-.862-.357-.477-.477-.477-1.248 0-1.724l17.56-17.561c.477-.477 1.248-.477 1.724 0 .477.476.477 1.248 0 1.724l-17.56 17.561c-.238.238-.55.357-.862.357" fill="#123456"/><path d="M109.78 196c-.312 0-.624-.118-.862-.357l-17.56-17.561c-.477-.477-.477-1.248 0-1.724.477-.477 1.248-.477 1.724 0l17.56 17.561c.477.477.477 1.249 0 1.724-.238.239-.55.357-.862.357" fill="#123456"/><path d="M92.22 196c-.312 0-.624-.118-.862-.357-.477-.476-.477-1.248 0-1.724l17.56-17.561c.477-.477 1.248-.477 1.724 0 .477.477.477 1.248 0 1.724l-17.56 17.561c-.238.239-.55.357-.862.357" fill="#123456"/><path d="M109.78 214c-.312 0-.624-.12-.862-.357l-17.56-17.562c-.477-.476-.477-1.248 0-1.724s1.248-.476 1.724 0l17.56 17.562c.477.476.477 1.248 0 1.724-.238.238-.55.357-.862.357" fill="#123456"/><path d="M92.22 214c-.312 0-.624-.12-.862-.357-.477-.477-.477-1.249 0-1.724l17.56-17.562c.477-.476 1.248-.476 1.724 0 .477.477.477 1.249 0 1.724l-17.56 17.562c-.238.238-.55.357-.862.357" fill="#123456"/><path d="M109.78 232c-.312 0-.624-.118-.862-.357l-17.56-17.561c-.477-.477-.477-1.249 0-1.724.477-.477 1.248-.477 1.724 0l17.56 17.561c.477.477.477 1.249 0 1.724-.238.239-.55.357-.862.357" fill="#123456"/><path d="M92.22 232c-.312 0-.624-.118-.862-.357-.477-.476-.477-1.248 0-1.724l17.56-17.561c.477-.477 1.248-.477 1.724 0 .477.476.477 1.248 0 1.724l-17.56 17.561c-.238.239-.55.357-.862.357" fill="#123456"/><path d="M109.78 250c-.312 0-.624-.12-.862-.357l-17.56-17.562c-.477-.476-.477-1.248 0-1.724s1.248-.476 1.724 0l17.56 17.562c.477.476.477 1.248 0 1.724-.238.238-.55.357-.862.357" fill="#123456"/><path d="M92.22 250c-.312 0-.624-.12-.862-.357-.477-.477-.477-1.249 0-1.724l17.56-17.562c.477-.476 1.248-.476 1.724 0 .477.477.477 1.249 0 1.724l-17.56 17.562c-.238.238-.55.357-.862.357" fill="#123456"/><path d="M109.78 268c-.312 0-.624-.12-.862-.357l-17.56-17.561c-.477-.477-.477-1.249 0-1.724.477-.477 1.248-.477 1.724 0l17.56 17.561c.477.477.477 1.248 0 1.724-.238.238-.55.357-.862.357" fill="#123456"/><path d="M92.22 268c-.312 0-.624-.12-.862-.357-.477-.477-.477-1.248 0-1.724l17.56-17.561c.477-.477 1.248-.477 1.724 0 .477.476.477 1.248 0 1.724l-17.56 17.561c-.238.238-.55.357-.862.357" fill="#123456"/><path d="M34.494 78.624h24.013v-6.248h-24.013v6.248zm25.26 2.376h-26.506c-.688 0-1.247-.531-1.247-1.188v-8.624c0-.657.559-1.188 1.247-1.188h26.506c.688 0 1.247.531 1.247 1.188v8.624c0 .657-.559 1.188-1.247 1.188z" fill="#123456"/><path d="M34.494 86.624h24.013v-6.248h-24.013v6.248zm25.26 2.376h-26.506c-.688 0-1.247-.531-1.247-1.188v-8.624c0-.657.559-1.188 1.247-1.188h26.506c.688 0 1.247.531 1.247 1.188v8.624c0 .657-.559 1.188-1.247 1.188z" fill="#123456"/><path d="M221.476 199.881l-26.183 7.907c-2.619.791-5.383-.691-6.175-3.31l-7.906-26.183c-.791-2.62.691-5.384 3.31-6.175l26.183-7.907c2.62-.792 5.384.691 6.175 3.31l7.908 26.183c.791 2.619-.691 5.384-3.311 6.175" fill="#fff"/><path d="M212.746 164.492c-.368 0-.734.055-1.09.162l-26.483 7.999c-.963.292-1.756.939-2.23 1.825-.475.887-.577 1.905-.287 2.868l7.999 26.485c.582 1.929 2.744 3.102 4.692 2.516l26.485-7.998c1.987-.601 3.116-2.706 2.516-4.693l-7.998-26.485c-.476-1.577-1.957-2.679-3.603-2.679zm-18.489 44.508c-2.735 0-5.197-1.83-5.988-4.449l-7.999-26.485c-.482-1.6-.314-3.293.476-4.764.79-1.474 2.106-2.552 3.705-3.034l26.485-7.999c.591-.178 1.199-.269 1.81-.269 2.735 0 5.198 1.83 5.989 4.45l7.998 26.485c.997 3.302-.878 6.801-4.181 7.798l-26.485 7.998c-.589.179-1.199.269-1.81.269z" fill="#123456"/><path d="M201.004 172.447c-1.031 0-2.044.213-3.013.632-3.221 1.393-5.093 4.935-4.448 8.425.431 2.333 1.861 4.301 3.923 5.4 1.474.784 2.605 2.196 3.105 3.871l.141.478 6.609-2.022-.141-.475c-.504-1.688-.34-3.484.449-4.929.998-1.826 1.22-3.929.626-5.922-.958-3.214-3.941-5.458-7.252-5.458zm-1.098 21.553c-.518 0-.998-.341-1.156-.87l-.492-1.649c-.314-1.052-1.013-1.932-1.916-2.414-2.72-1.447-4.606-4.041-5.174-7.115-.852-4.607 1.619-9.285 5.875-11.125 1.271-.549 2.604-.828 3.962-.828 4.368 0 8.301 2.96 9.566 7.198.784 2.63.491 5.405-.825 7.813-.475.87-.567 1.977-.25 3.036l.491 1.647c.093.311.06.645-.092.932-.151.285-.408.499-.715.592l-8.922 2.729c-.117.035-.234.053-.35.053z" fill="#123456"/><path d="M201.004 172.447c-1.031 0-2.044.213-3.013.632-3.221 1.393-5.093 4.935-4.448 8.425.431 2.333 1.861 4.301 3.923 5.4 1.474.784 2.605 2.196 3.105 3.871l.141.478 6.609-2.022-.141-.475c-.504-1.688-.34-3.484.449-4.929.998-1.826 1.22-3.929.626-5.922-.958-3.214-3.941-5.458-7.252-5.458z" id="Path" fill="#F9CA38"/><path d="M206.648 193c-.631 0-1.195-.402-1.322-.981l-2.301-10.569c-.143-.659.333-1.297 1.065-1.426.733-.131 1.441.301 1.584.959l2.301 10.568c.143.659-.333 1.297-1.065 1.427l-.262.022" fill="#123456"/><path d="M203.703 194c-.51 0-.993-.297-1.201-.789l-4.403-10.445c-.275-.651.039-1.398.702-1.668.662-.271 1.42.04 1.695.69l4.404 10.447c.274.65-.04 1.396-.702 1.667-.162.066-.331.098-.496.098" fill="#123456"/><path d="M202.283 200c-.447 0-.882-.243-1.118-.674-.347-.639-.131-1.447.486-1.808l7.437-4.348c.617-.357 1.398-.134 1.746.503.349.639.131 1.447-.486 1.808l-7.437 4.348c-.199.115-.415.171-.628.171" fill="#123456"/><path d="M203.239 201c-.432 0-.851-.221-1.079-.612-.335-.581-.126-1.316.469-1.644l6.526-3.59c.595-.323 1.35-.122 1.685.457.335.58.126 1.316-.469 1.643l-6.525 3.591c-.193.105-.402.155-.607.155" fill="#123456"/><path d="M205.229 203c-.428 0-.845-.224-1.071-.621-.333-.588-.125-1.334.465-1.666l4.544-2.557c.592-.328 1.341-.122 1.673.463.333.588.125 1.334-.465 1.666l-4.544 2.557c-.192.106-.399.158-.603.158" fill="#123456"/><path d="M201.102 197c-.473 0-.911-.335-1.055-.856-.175-.637.154-1.309.736-1.501l1.795-.591c.586-.192 1.198.167 1.375.805.175.637-.154 1.309-.738 1.501l-1.795.591c-.106.036-.214.052-.319.052" fill="#123456"/><path d="M198 169c-.552 0-1-.552-1-1.234v-87.532c0-.681.448-1.234 1-1.234s1 .553 1 1.234v87.532c0 .682-.448 1.234-1 1.234" fill="#123456"/><path d="M187.511 78.593h21.978v-6.186h-21.978v6.186zm23.234 2.407h-24.489c-.693 0-1.255-.538-1.255-1.204v-8.593c0-.666.562-1.204 1.255-1.204h24.489c.693 0 1.255.538 1.255 1.204v8.593c0 .666-.562 1.204-1.255 1.204z" fill="#123456"/><path d="M199.014 72c-.316 0-.631-.121-.872-.362-.482-.483-.482-1.266 0-1.748l16.181-16.221-112.837-26.139-60.094 25.852 16.467 16.507c.481.482.481 1.264 0 1.748-.482.482-1.262.482-1.743 0l-17.754-17.798c-.29-.289-.415-.704-.339-1.106.076-.403.349-.742.724-.903l62.138-26.731c.24-.104.507-.126.763-.068l115.398 26.731c.436.101.784.431.907.864.123.431.004.896-.313 1.214l-17.754 17.798c-.242.241-.557.362-.872.362" fill="#123456"/><path d="M278.768 267h-230.536c-.68 0-1.232-.447-1.232-1 0-.553.552-1 1.232-1h230.536c.68 0 1.232.447 1.232 1 0 .553-.552 1-1.232 1" fill="#123456"/><path d="M318.753 267h-21.506c-.688 0-1.247-.447-1.247-1 0-.553.559-1 1.247-1h21.506c.688 0 1.247.447 1.247 1 0 .553-.559 1-1.247 1" fill="#123456"/><path d="M291.824 267h-7.647c-.649 0-1.176-.447-1.176-1 0-.553.527-1 1.176-1h7.647c.649 0 1.176.447 1.176 1 0 .553-.527 1-1.176 1" fill="#123456"/><path d="M44.75 276h-7.5c-.69 0-1.25-.447-1.25-1 0-.553.56-1 1.25-1h7.5c.691 0 1.25.447 1.25 1 0 .553-.559 1-1.25 1" fill="#123456"/><path d="M139.759 276h-88.518c-.685 0-1.241-.447-1.241-1 0-.553.556-1 1.241-1h88.518c.686 0 1.241.447 1.241 1 0 .553-.555 1-1.241 1" fill="#123456"/><path d="M152.714 276h-6.429c-.71 0-1.286-.447-1.286-1 0-.553.576-1 1.286-1h6.429c.711 0 1.286.447 1.286 1 0 .553-.575 1-1.286 1" fill="#123456"/><path d="M311.769 276h-151.538c-.68 0-1.231-.447-1.231-1 0-.553.551-1 1.231-1h151.538c.681 0 1.231.447 1.231 1 0 .553-.55 1-1.231 1" fill="#123456"/><path d="M284.501 76c-15.164 0-27.501-12.337-27.501-27.5 0-.681.552-1.231 1.231-1.231.681 0 1.231.55 1.231 1.231 0 13.806 11.232 25.037 25.038 25.037 13.806 0 25.037-11.231 25.037-25.037s-11.231-25.037-25.037-25.037c-.68 0-1.231-.55-1.231-1.231s.552-1.231 1.231-1.231c15.164 0 27.499 12.336 27.499 27.5 0 15.163-12.336 27.5-27.499 27.5" fill="#123456"/><path d="M282.864 23.552c-.648 0-1.193-.502-1.239-1.157-.047-.685.469-1.278 1.153-1.326.654-.046 1.314-.068 1.979-.068.686 0 1.243.556 1.243 1.243s-.557 1.243-1.243 1.243c-.606 0-1.208.021-1.805.063l-.088.002zm-9.551 2.526c-.464 0-.909-.26-1.121-.706-.297-.619-.036-1.361.583-1.657 1.563-.751 3.204-1.353 4.878-1.796.664-.173 1.343.22 1.519.885.175.662-.221 1.344-.885 1.519-1.522.401-3.015.951-4.437 1.632-.174.085-.357.123-.537.123zm-7.962 5.855c-.304 0-.609-.111-.848-.334-.502-.467-.529-1.254-.062-1.756 1.181-1.266 2.486-2.429 3.879-3.454.554-.406 1.33-.29 1.737.265.406.553.288 1.331-.265 1.738-1.269.933-2.458 1.992-3.533 3.146-.245.263-.577.396-.909.396zm-5.276 8.357c-.15 0-.304-.027-.454-.086-.639-.251-.953-.973-.702-1.612.634-1.607 1.424-3.167 2.35-4.635.367-.58 1.136-.753 1.715-.389.58.367.754 1.134.388 1.714-.844 1.337-1.563 2.758-2.139 4.221-.194.488-.662.787-1.158.787zm-1.833 9.711c-.686 0-1.243-.556-1.243-1.243 0-1.739.163-3.478.481-5.172.128-.674.779-1.114 1.452-.991.675.126 1.119.777.992 1.452-.291 1.541-.439 3.127-.439 4.71 0 .687-.556 1.243-1.243 1.243z" fill="#123456"/><path d="M250.237 49c-.683 0-1.237-.553-1.237-1.237 0-19.168 15.594-34.763 34.763-34.763.683 0 1.237.553 1.237 1.237 0 .683-.554 1.237-1.237 1.237-17.805 0-32.289 14.485-32.289 32.289 0 .684-.554 1.237-1.237 1.237" fill="#123456"/><path d="M284.507 50c-.2 0-.401-.047-.585-.144l-11.253-5.9c-.613-.321-.847-1.074-.524-1.681.323-.608 1.08-.842 1.693-.519l10.614 5.564 14.628-9.13c.585-.363 1.361-.192 1.728.391.368.582.192 1.35-.395 1.715l-15.239 9.514c-.203.126-.435.19-.667.19" fill="#123456"/><path d="M283 32c-.552 0-1-.553-1-1.237v-4.525c0-.683.448-1.237 1-1.237.553 0 1 .554 1 1.237v4.525c0 .684-.447 1.237-1 1.237" fill="#123456"/><path d="M274.694 34c-.45 0-.889-.208-1.132-.581l-2.387-3.677c-.36-.556-.148-1.266.478-1.586.623-.322 1.422-.132 1.784.425l2.388 3.677c.36.555.146 1.266-.479 1.586-.205.106-.43.156-.652.156" fill="#123456"/><path d="M267.838 42c-.197 0-.397-.056-.579-.175l-3.677-2.388c-.556-.36-.745-1.159-.425-1.783.32-.627 1.032-.839 1.586-.478l3.677 2.388c.555.36.745 1.158.425 1.783-.216.419-.605.653-1.007.653" fill="#123456"/><path d="M266.763 50h-4.525c-.683 0-1.237-.447-1.237-1 0-.553.554-1 1.237-1h4.525c.684 0 1.237.447 1.237 1 0 .553-.553 1-1.237 1" fill="#123456"/><path d="M265.162 62c-.401 0-.791-.232-1.007-.653-.32-.624-.13-1.422.425-1.784l3.678-2.388c.554-.362 1.264-.146 1.586.478.32.625.13 1.423-.425 1.785l-3.678 2.388c-.182.119-.382.174-.579.174" fill="#123456"/><path d="M273.305 69c-.221 0-.445-.05-.652-.156-.624-.32-.838-1.03-.478-1.586l2.388-3.677c.36-.555 1.16-.748 1.784-.425.624.32.838 1.031.478 1.586l-2.387 3.677c-.243.373-.682.581-1.133.581" fill="#123456"/><path d="M285 72c-.552 0-1-.554-1-1.237v-4.526c0-.683.448-1.237 1-1.237.553 0 1 .554 1 1.237v4.526c0 .683-.447 1.237-1 1.237" fill="#123456"/><path d="M295.695 68c-.452 0-.891-.209-1.132-.58l-2.388-3.677c-.36-.555-.146-1.265.478-1.586.627-.323 1.422-.13 1.785.425l2.387 3.677c.36.556.146 1.265-.478 1.586-.206.106-.431.156-.652.156" fill="#123456"/><path d="M303.837 61c-.197 0-.397-.056-.579-.175l-3.677-2.388c-.556-.36-.745-1.159-.425-1.783.32-.627 1.031-.841 1.586-.478l3.677 2.388c.556.36.745 1.158.425 1.783-.215.419-.605.653-1.007.653" fill="#123456"/><path d="M306.763 49h-4.526c-.683 0-1.237-.447-1.237-1 0-.553.554-1 1.237-1h4.526c.683 0 1.237.447 1.237 1 0 .553-.554 1-1.237 1" fill="#123456"/><path d="M299.162 41c-.402 0-.792-.234-1.007-.653-.32-.624-.13-1.422.425-1.784l3.677-2.388c.556-.361 1.265-.145 1.587.478.32.626.13 1.424-.426 1.786l-3.677 2.388c-.183.118-.383.174-.579.174" fill="#123456"/><path d="M292.305 34c-.222 0-.447-.05-.652-.156-.625-.32-.838-1.031-.478-1.586l2.387-3.677c.362-.557 1.16-.747 1.784-.425.625.32.84 1.03.479 1.586l-2.388 3.677c-.242.373-.68.581-1.132.581" fill="#123456"/><path d="M186.451 10.823c-2.739 0-4.967 2.185-4.967 4.87s2.228 4.87 4.967 4.87h23.134c3.821 0 6.93-3.048 6.93-6.795 0-3.746-3.109-6.793-6.93-6.793-.771 0-1.545.13-2.295.39-.554.19-1.173-.026-1.477-.522-1.692-2.759-4.652-4.408-7.919-4.408-4.494 0-8.318 3.151-9.095 7.491-.057.318-.242.603-.513.788-.271.186-.604.263-.933.199-.348-.062-.635-.09-.903-.09zm23.134 12.177h-23.134c-4.109 0-7.451-3.277-7.451-7.306 0-4.081 3.448-7.393 7.612-7.304 1.399-4.924 5.973-8.39 11.283-8.39 3.822 0 7.312 1.776 9.516 4.795.717-.169 1.445-.255 2.175-.255 5.191 0 9.414 4.14 9.414 9.229 0 5.09-4.223 9.23-9.414 9.23z" fill="#123456"/><path d="M186.451 10.823c-2.739 0-4.967 2.185-4.967 4.87s2.228 4.87 4.967 4.87h23.134c3.821 0 6.93-3.048 6.93-6.795 0-3.746-3.109-6.793-6.93-6.793-.771 0-1.545.13-2.295.39-.554.19-1.173-.026-1.477-.522-1.692-2.759-4.652-4.408-7.919-4.408-4.494 0-8.318 3.151-9.095 7.491-.057.318-.242.603-.513.788-.271.186-.604.263-.933.199-.348-.062-.635-.09-.903-.09z" id="Path" fill="#F9CA38"/><path d="M5.254 28.898c-1.522.001-2.804 1.274-2.804 2.836 0 1.563 1.282 2.835 2.858 2.835h36.385c1.576 0 2.858-1.272 2.858-2.835s-1.282-2.835-2.858-2.835l-.104.015c-.364.018-.73-.136-.975-.412-.245-.278-.35-.65-.285-1.012.093-.532.14-1.018.14-1.49 0-4.725-3.875-8.57-8.636-8.57-4.182 0-7.753 2.964-8.492 7.047-.067.374-.307.695-.649.868-.339.174-.742.177-1.087.013-1.515-.725-3.187-.611-4.569.243-.475.293-1.089.231-1.493-.152-1.002-.949-2.306-1.472-3.672-1.472-2.446 0-4.567 1.654-5.161 4.021-.14.563-.671.948-1.248.921l-.207-.022zm36.439 8.102h-36.385c-2.927 0-5.308-2.361-5.308-5.265 0-2.671 2.016-4.885 4.616-5.222 1.139-2.965 4-4.965 7.254-4.965 1.696 0 3.325.548 4.672 1.56 1.482-.683 3.155-.849 4.732-.447 1.44-4.513 5.675-7.661 10.558-7.661 6.112 0 11.086 4.935 11.086 11l-.018.606c2.346.543 4.101 2.636 4.101 5.128 0 2.904-2.381 5.265-5.308 5.265z" fill="#123456"/><path d="M5.254 28.898c-1.522.001-2.804 1.274-2.804 2.836 0 1.563 1.282 2.835 2.858 2.835h36.385c1.576 0 2.858-1.272 2.858-2.835s-1.282-2.835-2.858-2.835l-.104.015c-.364.018-.73-.136-.975-.412-.245-.278-.35-.65-.285-1.012.093-.532.14-1.018.14-1.49 0-4.725-3.875-8.57-8.636-8.57-4.182 0-7.753 2.964-8.492 7.047-.067.374-.307.695-.649.868-.339.174-.742.177-1.087.013-1.515-.725-3.187-.611-4.569.243-.475.293-1.089.231-1.493-.152-1.002-.949-2.306-1.472-3.672-1.472-2.446 0-4.567 1.654-5.161 4.021-.14.563-.671.948-1.248.921l-.207-.022z" fill="#F9CA38"/><path d="M135.5 240.461c-2.227 0-4.039 1.812-4.039 4.04 0 2.227 1.812 4.038 4.039 4.038 2.228 0 4.039-1.811 4.039-4.038 0-2.227-1.811-4.04-4.039-4.04zm0 10.539c-3.584 0-6.5-2.915-6.5-6.499 0-3.584 2.916-6.501 6.5-6.501s6.5 2.916 6.5 6.501c0 3.584-2.916 6.499-6.5 6.499z" fill="#123456"/><circle id="Oval" fill="#F9CA38" cx="124.5" cy="219.5" r="2.5"/><path d="M124.5 217.483c-1.112 0-2.017.905-2.017 2.017 0 1.114.905 2.017 2.017 2.017 1.112 0 2.017-.904 2.017-2.017 0-1.112-.905-2.017-2.017-2.017zm0 6.517c-2.482 0-4.5-2.018-4.5-4.5s2.018-4.5 4.5-4.5 4.5 2.018 4.5 4.5-2.018 4.5-4.5 4.5z" fill="#123456"/><circle id="Oval" fill="#F9CA38" cx="135.5" cy="244.5" r="4.5"/><path d="M140.5 202.545c-.526 0-.955.429-.955.955s.429.955.955.955c.527 0 .955-.429.955-.955s-.428-.955-.955-.955zm0 4.455c-1.929 0-3.5-1.569-3.5-3.5 0-1.929 1.571-3.5 3.5-3.5 1.931 0 3.5 1.571 3.5 3.5 0 1.931-1.569 3.5-3.5 3.5z" fill="#123456"/><circle fill="#F9CA38" cx="140.5" cy="203.5" r="1.5"/><path d="M120.812 262h-3.624c-.656 0-1.188-.448-1.188-1 0-.553.532-1 1.188-1h3.624c.656 0 1.188.447 1.188 1 0 .552-.532 1-1.188 1" fill="#123456"/><path d="M150.767 262h-23.534c-.681 0-1.233-.448-1.233-1 0-.553.552-1 1.233-1h23.534c.682 0 1.233.447 1.233 1 0 .552-.551 1-1.233 1" fill="#123456"/><path d="M260.753 261h-5.506c-.688 0-1.247-.447-1.247-1 0-.553.559-1 1.247-1h5.506c.69 0 1.247.447 1.247 1 0 .553-.557 1-1.247 1" fill="#123456"/><path d="M266.696 261h-2.391c-.72 0-1.304-.447-1.304-1 0-.553.584-1 1.304-1h2.391c.721 0 1.304.447 1.304 1 0 .553-.583 1-1.304 1" fill="#123456"/><path d="M302.748 261h-31.497c-.691 0-1.252-.447-1.252-1 0-.553.561-1 1.252-1h31.497c.692 0 1.252.447 1.252 1 0 .553-.559 1-1.252 1" fill="#123456"/><path d="M59.753 262h-34.506c-.688 0-1.247-.448-1.247-1 0-.553.559-1 1.247-1h34.506c.69 0 1.247.447 1.247 1 0 .552-.557 1-1.247 1" fill="#123456"/><path d="M66.8 262h-2.6c-.662 0-1.2-.448-1.2-1 0-.553.538-1 1.2-1h2.6c.662 0 1.2.447 1.2 1 0 .552-.538 1-1.2 1" fill="#123456"/><path d="M87.774 262h-16.548c-.677 0-1.226-.448-1.226-1 0-.553.549-1 1.226-1h16.548c.678 0 1.226.447 1.226 1 0 .552-.548 1-1.226 1" fill="#123456"/><path d="M322.747 99h-26.494c-.692 0-1.253-.447-1.253-1 0-.553.561-1 1.253-1h26.494c.693 0 1.253.447 1.253 1 0 .553-.56 1-1.253 1" fill="#123456"/><path d="M289.753 99h-16.507c-.688 0-1.247-.447-1.247-1 0-.553.558-1 1.247-1h16.507c.688 0 1.247.447 1.247 1 0 .553-.558 1-1.247 1" fill="#123456"/><path d="M300.766 111h-36.533c-.681 0-1.234-.447-1.234-1 0-.553.553-1 1.234-1h36.533c.681 0 1.234.447 1.234 1 0 .553-.553 1-1.234 1" fill="#123456"/><path d="M313.797 111h-4.595c-.664 0-1.203-.447-1.203-1 0-.553.539-1 1.203-1h4.595c.665 0 1.203.447 1.203 1 0 .553-.538 1-1.203 1" fill="#123456"/><path d="M304.75 205h-2.5c-.69 0-1.25-.447-1.25-1 0-.553.56-1 1.25-1h2.5c.691 0 1.25.447 1.25 1 0 .553-.559 1-1.25 1zm15 0h-7.5c-.69 0-1.25-.447-1.25-1 0-.553.56-1 1.25-1h7.5c.691 0 1.25.447 1.25 1 0 .553-.559 1-1.25 1zm15 0h-7.5c-.69 0-1.25-.447-1.25-1 0-.553.56-1 1.25-1h7.5c.691 0 1.25.447 1.25 1 0 .553-.559 1-1.25 1z" fill="#123456"/><path d="M293.144 212h-6.909c-.681 0-1.234-.447-1.234-1 0-.553.553-1 1.234-1h6.909c.681 0 1.234.447 1.234 1 0 .553-.553 1-1.234 1zm14.811 0h-7.406c-.683 0-1.234-.447-1.234-1 0-.553.552-1 1.234-1h7.406c.681 0 1.234.447 1.234 1 0 .553-.553 1-1.234 1zm14.811 0h-7.406c-.683 0-1.234-.447-1.234-1 0-.553.552-1 1.234-1h7.406c.681 0 1.234.447 1.234 1 0 .553-.553 1-1.234 1z" fill="#123456"/><path d="M267.499 224.612c-1.04 0-1.886.846-1.886 1.888 0 1.041.847 1.888 1.886 1.888 1.041 0 1.888-.846 1.888-1.888 0-1.041-.847-1.888-1.888-1.888zm0 6.388c-2.481 0-4.499-2.018-4.499-4.5 0-2.481 2.018-4.5 4.499-4.5 2.482 0 4.501 2.019 4.501 4.5 0 2.482-2.018 4.5-4.501 4.5z" fill="#123456"/><path d="M119.704 128h-5.408c-.715 0-1.296-.447-1.296-1 0-.553.581-1 1.296-1h5.408c.715 0 1.296.447 1.296 1 0 .553-.581 1-1.296 1" fill="#123456"/><path d="M141.756 128h-18.511c-.687 0-1.244-.447-1.244-1 0-.553.558-1 1.244-1h18.511c.688 0 1.244.447 1.244 1 0 .553-.556 1-1.244 1" fill="#123456"/><path d="M128.741 134h-14.481c-.695 0-1.259-.447-1.259-1 0-.553.564-1 1.259-1h14.481c.696 0 1.259.447 1.259 1 0 .553-.563 1-1.259 1" fill="#123456"/><path d="M87.815 134h-5.63c-.654 0-1.185-.447-1.185-1 0-.553.531-1 1.185-1h5.63c.655 0 1.185.447 1.185 1 0 .553-.53 1-1.185 1" fill="#123456"/><path d="M87.776 128h-12.551c-.676 0-1.224-.447-1.224-1 0-.553.549-1 1.224-1h12.551c.677 0 1.224.447 1.224 1 0 .553-.547 1-1.224 1" fill="#123456"/><path d="M29.784 172h-12.568c-.671 0-1.216-.447-1.216-1 0-.552.545-1 1.216-1h12.568c.671 0 1.216.448 1.216 1 0 .553-.545 1-1.216 1" fill="#123456"/><path d="M66.777 172h-29.554c-.675 0-1.223-.447-1.223-1 0-.552.548-1 1.223-1h29.554c.675 0 1.223.448 1.223 1 0 .553-.548 1-1.223 1" fill="#123456"/><path d="M72.8 178h-8.6c-.662 0-1.2-.447-1.2-1 0-.553.538-1 1.2-1h8.6c.662 0 1.2.447 1.2 1 0 .553-.538 1-1.2 1" fill="#123456"/><path d="M58.846 178h-2.692c-.637 0-1.154-.447-1.154-1 0-.553.517-1 1.154-1h2.692c.638 0 1.154.447 1.154 1 0 .553-.516 1-1.154 1" fill="#123456"/><path d="M52.749 178h-29.498c-.69 0-1.251-.447-1.251-1 0-.553.56-1 1.251-1h29.498c.692 0 1.251.447 1.251 1 0 .553-.559 1-1.251 1" fill="#123456"/></g></svg>