<?xml version="1.0" encoding="utf-8"?>
<!-- Generator: Adobe Illustrator 17.0.0, SVG Export Plug-In . SVG Version: 6.00 Build 0)  -->
<!DOCTYPE svg PUBLIC "-//W3C//DTD SVG 1.1//EN" "http://www.w3.org/Graphics/SVG/1.1/DTD/svg11.dtd">
<svg version="1.1" id="Layer_1" xmlns="http://www.w3.org/2000/svg" xmlns:xlink="http://www.w3.org/1999/xlink" x="0px" y="0px"
	 width="842.35px" height="595.3px" viewBox="0 0 842.35 595.3" enable-background="new 0 0 842.35 595.3" xml:space="preserve">
<g id="Layer_1_1_">
	<g>
		<g>
			<g>
				<defs>
					<path id="SVGID_1_" d="M-1166.602,301.371h-102.317l-48.368-93.016c-3.721-7.441,1.86-15.813,9.302-15.813h35.346
						c2.791,0,5.581,0.93,7.441,3.721L-1166.602,301.371z"/>
				</defs>
				<clipPath id="SVGID_2_">
					<use xlink:href="#SVGID_1_"  overflow="visible"/>
				</clipPath>
			</g>
		</g>
		<g>
			<g>
				<defs>
					<path id="SVGID_3_" d="M-1166.602,301.371h-102.317l-48.368-93.016c-3.721-7.441,1.86-15.813,9.302-15.813h35.346
						c2.791,0,5.581,0.93,7.441,3.721L-1166.602,301.371z"/>
				</defs>
				<clipPath id="SVGID_4_">
					<use xlink:href="#SVGID_3_"  overflow="visible"/>
				</clipPath>
			</g>
		</g>
		<g>
			<g>
				<defs>
					<path id="SVGID_5_" d="M-1295.893,192.542h-11.162c-8.371,0-13.022,8.371-9.302,15.813l48.368,93.016h39.997l-66.041-104.178
						C-1295.893,196.263-1295.893,194.403-1295.893,192.542"/>
				</defs>
				<clipPath id="SVGID_6_">
					<use xlink:href="#SVGID_5_"  overflow="visible"/>
				</clipPath>
			</g>
		</g>
		<g>
			<g>
				<defs>
					<path id="SVGID_7_" d="M-1145.208,310.672H-1274.5l-50.228-98.597c-2.791-6.511-2.791-13.022,0.93-19.533
						c3.721-5.581,10.232-9.302,16.743-9.302h35.346c5.581,0,11.162,1.86,14.883,6.511L-1145.208,310.672z M-1263.338,292.999
						h76.273l-83.714-90.225l-0.93-0.93h-35.346c-0.93,0-0.93,0-0.93,0.93s0,0.93,0,1.86L-1263.338,292.999z"/>
				</defs>
				<clipPath id="SVGID_8_">
					<use xlink:href="#SVGID_7_"  overflow="visible"/>
				</clipPath>
			</g>
		</g>
		<g>
			<g>
				<defs>
					<path id="SVGID_9_" d="M-847.558,487.402c0,8.371-6.511,14.882-15.813,14.882c-8.371,0-15.813-6.511-15.813-14.882
						c0-8.371,6.511-14.883,15.813-14.883C-854.069,472.519-847.558,479.03-847.558,487.402"/>
				</defs>
				<clipPath id="SVGID_10_">
					<use xlink:href="#SVGID_9_"  overflow="visible"/>
				</clipPath>
			</g>
		</g>
		<g>
			<g>
				<path id="SVGID_21_" fill="#CCCCCC" d="M-974.059,145.104c0,4.651-3.721,7.441-7.441,7.441c-4.651,0-7.441-3.721-7.441-7.441
					s3.721-7.441,7.441-7.441C-976.85,136.733-974.059,140.454-974.059,145.104"/>
			</g>
			<g>
				<defs>
					<path id="SVGID_11_" d="M-974.059,145.104c0,4.651-3.721,7.441-7.441,7.441c-4.651,0-7.441-3.721-7.441-7.441
						s3.721-7.441,7.441-7.441C-976.85,136.733-974.059,140.454-974.059,145.104"/>
				</defs>
				<clipPath id="SVGID_12_">
					<use xlink:href="#SVGID_11_"  overflow="visible"/>
				</clipPath>
			</g>
		</g>
		<g>
			<g>
				<path id="SVGID_25_" fill="#CCCCCC" d="M-990.802,446.475c0,4.651-3.721,7.441-7.441,7.441c-4.651,0-7.441-3.721-7.441-7.441
					c0-4.651,3.721-7.441,7.441-7.441C-993.593,439.034-990.802,442.754-990.802,446.475"/>
			</g>
			<g>
				<defs>
					<path id="SVGID_13_" d="M-990.802,446.475c0,4.651-3.721,7.441-7.441,7.441c-4.651,0-7.441-3.721-7.441-7.441
						c0-4.651,3.721-7.441,7.441-7.441C-993.593,439.034-990.802,442.754-990.802,446.475"/>
				</defs>
				<clipPath id="SVGID_14_">
					<use xlink:href="#SVGID_13_"  overflow="visible"/>
				</clipPath>
			</g>
		</g>
		<g>
			<g>
				<defs>
					<path id="SVGID_15_" d="M-787.098,109.758c0,5.581-4.651,10.232-10.232,10.232c-5.581,0-10.232-4.651-10.232-10.232
						s4.651-10.232,10.232-10.232C-791.749,99.527-787.098,104.178-787.098,109.758"/>
				</defs>
				<clipPath id="SVGID_16_">
					<use xlink:href="#SVGID_15_"  overflow="visible"/>
				</clipPath>
			</g>
		</g>
		<g>
			<g>
				<defs>
					<path id="SVGID_17_" d="M-909.879,57.67c0,8.371-6.511,13.952-14.883,13.952s-14.883-6.511-14.883-13.952
						c0-8.371,6.511-13.952,14.883-13.952C-916.39,42.787-909.879,49.298-909.879,57.67"/>
				</defs>
				<clipPath id="SVGID_18_">
					<use xlink:href="#SVGID_17_"  overflow="visible"/>
				</clipPath>
			</g>
		</g>
		<g>
			<g>
				<defs>
					<path id="SVGID_19_" d="M-808.492,253.003h-0.93c-5.581-17.673-21.394-30.695-40.927-30.695c-8.371,0-16.743,2.79-23.254,6.511
						c-4.651-27.905-28.835-49.298-57.67-49.298c-26.044,0-48.368,17.673-55.809,40.927c-3.721-0.93-6.511-1.86-10.232-1.86
						c-20.463,0-37.206,14.883-39.997,33.486h-6.511c-16.743,0-29.765,13.022-29.765,29.765v1.86
						c0,16.743,13.952,29.765,29.765,29.765h236.26c16.743,0,29.765-13.022,29.765-29.765v-1.86
						C-778.727,266.955-791.749,253.003-808.492,253.003"/>
				</defs>
				<clipPath id="SVGID_20_">
					<use xlink:href="#SVGID_19_"  overflow="visible"/>
				</clipPath>
			</g>
		</g>
		<g>
			<g>
				<defs>
					<path id="SVGID_22_" d="M-808.492,324.625v-18.603c11.162,0,21.394-9.302,21.394-20.463v-1.86
						c0-11.162-9.302-20.463-21.394-20.463h-6.511l-2.791-6.511c-3.721-13.952-17.673-24.184-32.555-24.184
						c-6.511,0-13.022,1.86-18.603,5.581l-12.092,7.441l-1.86-13.952c-3.721-24.184-24.184-41.857-49.298-41.857
						c-21.394,0-40.927,13.952-47.438,34.416l-2.791,8.371l-8.371-1.86c-18.603-4.651-36.276,7.441-39.067,25.114l-0.93,7.441
						h-13.952c-7.441,0-13.952,3.721-17.673,10.232l-15.813-9.302c6.511-12.092,19.533-18.603,33.486-19.533
						c7.441-21.394,27.905-36.276,51.159-33.486c11.162-24.184,34.416-39.997,62.32-39.997c29.765,0,54.879,18.603,64.181,45.578
						c5.581-1.86,11.162-2.79,16.743-2.79c20.463,0,39.997,13.022,47.438,31.625c19.533,2.79,33.486,19.533,33.486,38.136v1.86
						C-769.425,306.952-787.098,324.625-808.492,324.625"/>
				</defs>
				<clipPath id="SVGID_23_">
					<use xlink:href="#SVGID_22_"  overflow="visible"/>
				</clipPath>
			</g>
		</g>
		<g>
			<g>
				<defs>
					<path id="SVGID_24_" d="M-901.507,229.749c-7.441-11.162-19.533-17.673-33.486-17.673c-7.441,0-13.952,1.86-20.463,5.581
						l-9.302-15.813c9.302-5.581,19.533-8.371,29.765-8.371c19.533,0,38.136,10.232,48.368,26.044L-901.507,229.749z"/>
				</defs>
				<clipPath id="SVGID_26_">
					<use xlink:href="#SVGID_24_"  overflow="visible"/>
				</clipPath>
			</g>
		</g>
		<g>
			<g>
				<defs>
					<path id="SVGID_27_" d="M-967.548,239.98h-18.603c0-6.511-5.581-12.092-12.092-12.092v-18.603
						C-981.501,210.215-967.548,223.238-967.548,239.98"/>
				</defs>
				<clipPath id="SVGID_28_">
					<use xlink:href="#SVGID_27_"  overflow="visible"/>
				</clipPath>
			</g>
		</g>
		<g>
			<g>
				<defs>
					<path id="SVGID_29_" d="M-1065.215,492.053h-0.93c-4.651-14.883-17.673-25.114-33.486-25.114
						c-7.441,0-13.022,1.86-18.603,5.581c-3.721-23.254-23.254-40.927-47.438-40.927c-21.394,0-39.997,13.952-45.578,33.486
						c-2.791-0.93-5.581-0.93-8.371-0.93c-16.743,0-29.765,12.092-32.555,27.905h-5.581c-13.952,0-25.114,11.162-25.114,24.184v1.86
						c0,13.952,11.162,24.184,25.114,24.184h193.473c13.952,0,25.114-11.162,25.114-24.184v-1.86
						C-1041.031,503.215-1052.193,492.053-1065.215,492.053"/>
				</defs>
				<clipPath id="SVGID_30_">
					<use xlink:href="#SVGID_29_"  overflow="visible"/>
				</clipPath>
			</g>
		</g>
		<g>
			<g>
				<defs>
					<path id="SVGID_31_" d="M-1225.202,543.211h-34.416c-13.952,0-25.114-11.162-25.114-24.184v-1.86
						c0-13.952,11.162-24.184,25.114-24.184h5.581c2.79-15.813,15.813-27.905,32.555-27.905c2.791,0,5.581,0,8.371,0.93
						c6.511-19.533,24.184-33.486,45.578-33.486c24.184,0,43.717,17.673,47.438,40.927c5.581-3.721,12.092-5.581,18.603-5.581
						c15.813,0,29.765,10.232,33.486,25.114h0.93c13.952,0,25.114,11.162,25.114,24.184v1.86c0,13.022-11.162,24.184-25.114,24.184
						h-37.206H-1225.202L-1225.202,543.211z"/>
				</defs>
				<clipPath id="SVGID_32_">
					<use xlink:href="#SVGID_31_"  overflow="visible"/>
				</clipPath>
			</g>
		</g>
		<g>
			<g>
				<defs>
					<rect id="SVGID_33_" x="-1293.103" y="423.221" width="261.374" height="129.292"/>
				</defs>
				<clipPath id="SVGID_34_">
					<use xlink:href="#SVGID_33_"  overflow="visible"/>
				</clipPath>
			</g>
		</g>
		<g>
			<g>
				<defs>
					<path id="SVGID_35_" d="M-1091.259,147.895L-1091.259,147.895c-3.72-9.302-12.092-15.813-22.324-15.813
						c-4.651,0-8.371,0.93-12.092,3.721c-1.86-14.883-14.883-26.044-29.765-26.044c-13.952,0-25.114,9.302-28.835,21.394
						c-1.86,0-3.72-0.93-5.581-0.93c-10.232,0-19.533,7.441-20.463,17.673h-3.721c-8.371,0-15.813,7.441-15.813,15.813v0.93
						c0,8.371,7.441,15.813,15.813,15.813h123.711c8.371,0,15.813-7.441,15.813-15.813v-0.93
						C-1075.446,154.406-1081.958,147.895-1091.259,147.895"/>
				</defs>
				<clipPath id="SVGID_36_">
					<use xlink:href="#SVGID_35_"  overflow="visible"/>
				</clipPath>
			</g>
		</g>
		<g>
			<g>
				<defs>
					<path id="SVGID_37_" d="M-1192.646,180.45h-22.324c-8.371,0-15.813-7.441-15.813-15.813v-0.93
						c0-8.371,7.441-15.813,15.813-15.813h3.721c1.86-10.232,10.232-17.673,20.463-17.673c1.86,0,3.721,0,5.581,0.93
						c3.721-12.092,15.813-21.394,28.835-21.394c14.883,0,27.905,11.162,29.765,26.044c3.721-1.86,7.441-3.721,12.092-3.721
						c10.232,0,18.603,6.511,21.394,15.813h0.93c8.371,0,15.813,7.441,15.813,15.813v0.93c0,8.371-7.441,15.813-15.813,15.813
						h-24.184L-1192.646,180.45L-1192.646,180.45z"/>
				</defs>
				<clipPath id="SVGID_38_">
					<use xlink:href="#SVGID_37_"  overflow="visible"/>
				</clipPath>
			</g>
		</g>
		<g>
			<g>
				<defs>
					<path id="SVGID_39_" d="M-1091.259,188.822h-123.711c-13.952,0-25.114-11.162-25.114-25.114
						c0-13.952,9.302-24.184,21.394-26.044c4.651-10.232,14.883-17.673,26.974-17.673c6.511-13.022,20.463-20.463,35.346-20.463
						c15.813,0,29.765,9.302,36.276,23.254c13.952-2.79,27.905,4.651,34.416,15.813c11.162,2.79,18.603,12.092,18.603,24.184
						C-1066.145,177.66-1077.307,188.822-1091.259,188.822z M-1214.04,157.196c-3.721,0-6.511,2.79-6.511,6.511
						c0,4.651,2.791,7.441,6.511,7.441h123.711c3.721,0,6.511-2.79,6.511-6.511c0-4.651-2.79-7.441-6.511-7.441h-6.511l-2.791-6.511
						c-1.86-8.371-13.022-12.092-19.533-7.441l-12.092,7.441l-1.86-13.952c-1.86-10.232-10.232-17.673-21.394-17.673
						c-9.302,0-17.673,5.581-20.463,14.882l-2.791,8.371l-8.371-1.86c-7.441-1.86-13.952,2.79-14.883,9.302l-0.93,7.441
						L-1214.04,157.196L-1214.04,157.196z"/>
				</defs>
				<clipPath id="SVGID_40_">
					<use xlink:href="#SVGID_39_"  overflow="visible"/>
				</clipPath>
			</g>
		</g>
		<g>
			<g>
				<defs>
					<path id="SVGID_41_" d="M-809.422,337.647h-10.232c-8.371-24.184-31.625-40.927-58.6-40.927h-418.57
						c0,57.67,46.508,104.177,104.177,104.177h263.234h112.549h5.581c15.813,0,28.835-13.022,28.835-28.835v-5.581
						C-780.587,350.669-793.609,337.647-809.422,337.647"/>
				</defs>
				<clipPath id="SVGID_42_">
					<use xlink:href="#SVGID_41_"  overflow="visible"/>
				</clipPath>
			</g>
		</g>
		<g>
			<g>
				<defs>
					<path id="SVGID_43_" d="M-1293.103,297.65h-2.79c0,57.67,46.508,104.177,104.177,104.177h263.234h112.549h5.581
						c15.813,0,28.835-13.022,28.835-28.835v-5.581c0-3.721-0.93-6.511-1.86-9.302c-3.721,11.162-14.883,19.533-26.975,19.533"/>
				</defs>
				<clipPath id="SVGID_44_">
					<use xlink:href="#SVGID_43_"  overflow="visible"/>
				</clipPath>
			</g>
			<g>
				<defs>
					<path id="SVGID_45_" d="M-1293.103,297.65h-2.79c0,57.67,46.508,104.177,104.177,104.177h263.234h112.549h5.581
						c15.813,0,28.835-13.022,28.835-28.835v-5.581c0-3.721-0.93-6.511-1.86-9.302c-3.721,11.162-14.883,19.533-26.975,19.533"/>
				</defs>
				<defs>
					<polyline id="SVGID_46_" points="-809.422,376.713 -815.933,376.713 -928.482,376.713 -1191.716,376.713 					"/>
				</defs>
				<clipPath id="SVGID_47_">
					<use xlink:href="#SVGID_45_"  overflow="visible"/>
				</clipPath>
				<clipPath id="SVGID_48_" clip-path="url(#SVGID_47_)">
					<use xlink:href="#SVGID_46_"  overflow="visible"/>
				</clipPath>
			</g>
		</g>
		<g>
			<g>
				<path id="SVGID_93_" d="M-809.422,410.199h-382.294c-62.32,0-113.479-50.228-113.479-112.549v-9.302h427.872
					c27.905,0,53.019,15.813,64.181,40.927h3.721c21.394,0,38.136,16.743,38.136,38.136v4.651
					C-772.216,393.456-788.958,410.199-809.422,410.199z M-1286.592,306.021c4.651,48.368,45.578,85.574,94.876,85.574h382.294
					c11.162,0,19.533-8.371,19.533-19.533v-5.581c0-11.162-8.371-19.533-19.533-19.533h-16.743l-1.86-5.581
					c-7.441-20.463-27.905-34.416-50.228-34.416h-408.339V306.021z"/>
			</g>
			<g>
				<defs>
					<path id="SVGID_49_" d="M-809.422,410.199h-382.294c-62.32,0-113.479-50.228-113.479-112.549v-9.302h427.872
						c27.905,0,53.019,15.813,64.181,40.927h3.721c21.394,0,38.136,16.743,38.136,38.136v4.651
						C-772.216,393.456-788.958,410.199-809.422,410.199z M-1286.592,306.021c4.651,48.368,45.578,85.574,94.876,85.574h382.294
						c11.162,0,19.533-8.371,19.533-19.533v-5.581c0-11.162-8.371-19.533-19.533-19.533h-16.743l-1.86-5.581
						c-7.441-20.463-27.905-34.416-50.228-34.416h-408.339V306.021z"/>
				</defs>
				<clipPath id="SVGID_50_">
					<use xlink:href="#SVGID_49_"  overflow="visible"/>
				</clipPath>
			</g>
		</g>
		<g>
			<g>
				<defs>
					<path id="SVGID_51_" d="M-1176.833,330.206h-120.92c-8.371,0-13.952-6.511-13.952-13.952v-4.651
						c0-7.441,6.511-13.952,13.952-13.952h120.92c8.371,0,13.952,6.511,13.952,13.952v4.651
						C-1162.881,323.694-1169.392,330.206-1176.833,330.206"/>
				</defs>
				<clipPath id="SVGID_52_">
					<use xlink:href="#SVGID_51_"  overflow="visible"/>
				</clipPath>
			</g>
		</g>
		<g>
			<g>
				<defs>
					<path id="SVGID_53_" d="M-941.504,412.989h-147.895c-8.371,0-13.952-6.511-13.952-13.952v-10.232
						c0-7.441,6.511-13.952,13.952-13.952h147.895c8.371,0,13.952,6.511,13.952,13.952v10.232
						C-927.552,406.478-933.132,412.989-941.504,412.989"/>
				</defs>
				<clipPath id="SVGID_54_">
					<use xlink:href="#SVGID_53_"  overflow="visible"/>
				</clipPath>
			</g>
		</g>
		<g>
			<g>
				<defs>
					<path id="SVGID_55_" d="M-1176.833,339.507h-120.92c-13.022,0-23.254-10.232-23.254-23.254v-4.651
						c0-13.022,10.232-23.254,23.254-23.254h120.92c13.022,0,23.254,10.232,23.254,23.254v4.651
						C-1153.58,329.275-1163.811,339.507-1176.833,339.507z M-1297.754,306.021c-2.791,0-5.581,1.86-5.581,5.581v4.651
						c0,2.79,2.79,5.581,5.581,5.581h120.92c2.791,0,5.581-1.86,5.581-5.581v-4.651c0-2.79-1.86-5.581-5.581-5.581H-1297.754z"/>
				</defs>
				<clipPath id="SVGID_56_">
					<use xlink:href="#SVGID_55_"  overflow="visible"/>
				</clipPath>
			</g>
		</g>
		<g>
			<g>
				<defs>
					<path id="SVGID_57_" d="M-941.504,422.291h-147.895c-13.022,0-23.254-10.232-23.254-23.254v-10.232
						c0-13.022,10.232-23.254,23.254-23.254h147.895c13.022,0,23.254,10.232,23.254,23.254v10.232
						C-918.25,412.059-928.482,422.291-941.504,422.291z M-1089.399,383.224c-2.791,0-5.581,1.86-5.581,5.581v10.232
						c0,2.79,2.79,5.581,5.581,5.581h147.895c2.791,0,5.581-1.86,5.581-5.581v-10.232c0-2.79-2.79-5.581-5.581-5.581H-1089.399z"/>
				</defs>
				<clipPath id="SVGID_58_">
					<use xlink:href="#SVGID_57_"  overflow="visible"/>
				</clipPath>
			</g>
		</g>
		<g>
			<g>
				<defs>
					<rect id="SVGID_59_" x="-1327.519" y="42.787" width="558.094" height="508.795"/>
				</defs>
				<clipPath id="SVGID_60_">
					<use xlink:href="#SVGID_59_"  overflow="visible"/>
				</clipPath>
			</g>
		</g>
	</g>
	<g id="XMLID_386_">
		<g id="XMLID_409_">
			<g id="XMLID_401_">
				<path id="XMLID_1820_" d="M291.883,298.58c-144.174-35.346-125.571-147.895-125.571-148.825l1.86-7.441h97.666v18.603h-81.854
					c-0.93,23.254,5.581,93.016,111.619,119.06L291.883,298.58z"/>
			</g>
			<g id="XMLID_404_">
				<path id="XMLID_1819_" d="M550.467,298.58l-4.651-18.603c106.038-25.114,112.549-94.876,111.619-119.06h-80.924v-18.603h97.666
					l1.86,7.441C676.038,150.685,694.641,263.234,550.467,298.58z"/>
			</g>
			<g id="XMLID_361_">
				<path id="XMLID_135_" fill="#6DCFF6" d="M578.371,174.869c0-22.324-3.721-44.648-10.232-64.181H274.21
					c-6.511,20.463-10.232,41.857-10.232,64.181c0,93.016,60.46,186.961,138.593,199.984v124.641h36.276V373.923
					C516.981,361.831,578.371,267.885,578.371,174.869z"/>
			</g>
			<g id="XMLID_405_">
				<path fill="#FFFFFF" d="M411.873,373.923c-72.552-19.533-88.365-110.689-88.365-199.984c0-22.324,3.721-44.648,10.232-64.181
					h-35.346c-6.511,20.463-10.232,41.857-10.232,64.181c0,93.016,37.206,186.961,115.339,199.984
					C402.572,373.923,408.153,374.853,411.873,373.923z"/>
			</g>
			<g id="XMLID_410_">
				<rect id="XMLID_1818_" x="349.553" y="100.457" width="28.835" height="18.603"/>
			</g>
			<g id="XMLID_363_">
				<path id="XMLID_1817_" d="M448.15,508.796H393.27V382.294c-77.203-17.673-138.593-108.828-138.593-207.425
					c0-23.254,3.721-45.578,11.162-67.901l1.86-6.511h55.809v18.603h-41.857c-5.581,17.673-7.441,36.276-7.441,54.879
					c0,91.155,60.46,178.59,131.152,190.682l8.371,0.93v123.711h16.743V366.482l8.371-0.93C509.54,354.39,570,266.955,570,174.869
					c0-18.603-2.79-37.206-7.441-54.879H396.061v-18.603h178.59l1.86,6.511c7.441,22.324,11.162,44.647,11.162,67.901
					c0,98.597-61.39,189.752-138.593,207.425v125.571H448.15z"/>
			</g>
			<g id="XMLID_406_">
				<rect id="XMLID_1816_" x="384.899" y="403.688" width="74.412" height="18.603"/>
			</g>
			<g id="XMLID_403_">
				<rect id="XMLID_1815_" x="384.899" y="431.593" width="74.412" height="18.603"/>
			</g>
			<g id="XMLID_407_">
				<path id="XMLID_1812_" d="M521.632,576.697H318.858v-77.203c0-13.022,10.232-23.254,23.254-23.254h155.336
					c13.022,0,23.254,10.232,23.254,23.254v77.203H521.632z M338.391,558.094h164.638v-58.6c0-2.79-1.86-4.651-4.651-4.651H342.112
					c-2.79,0-4.651,1.86-4.651,4.651v58.6H338.391z"/>
			</g>
			<g id="XMLID_393_">
				<rect x="370.947" y="499.494" fill="#FFFFFF" width="98.597" height="39.067"/>
			</g>
			<g id="XMLID_408_">
				<rect id="XMLID_2_" x="293.744" y="558.094" width="249.282" height="18.603"/>
			</g>
		</g>
	</g>
</g>
<g id="specctr">
	<g id="Text_Properties">
	</g>
</g>
<path fill-rule="evenodd" clip-rule="evenodd" fill="#D62027" d="M372.38,540.676v1.604c0,0-3.806,0.644-8.625,0.953
	c-1.73,0.074-3.577-0.029-5.393-0.121c-4.049-0.62-5.639-1.445-4.969-4.635c0,0,0.147-1.439,4.267-6.689
	c1.35-1.623,3.118-3.477,5.434-5.848l1.479,0.951c0,0-0.689,1.982-2.544,5.445c-1.596,2.923-3.489,6.201-3.489,6.201L372.38,540.676
	z"/>
<g>
	<g>
		<path fill="#253775" d="M381.645,525.803c0,0-0.449-1.305-1.153-3.209c-1.152-3.115-3.06-7.788-5.342-10.636
			c-1.01-1.013-1.95-1.353-2.79-1.301c-0.84-0.052-1.78,0.289-2.79,1.301c-2.282,2.848-4.19,7.521-5.342,10.636
			c-0.704,1.904-1.153,3.209-1.153,3.209l-0.438,0.654l1.605,1.307l0.533-1.01l7.585-10.632l7.586,10.632l0.546,1.01l1.578-1.307
			L381.645,525.803z"/>
	</g>
</g>
<path fill-rule="evenodd" clip-rule="evenodd" fill="#009749" d="M372.353,540.664v1.602c0,0,3.803,0.631,8.638,0.951
	c1.86,0.123,3.67,0.021,5.401-0.12c4.055-0.619,5.648-1.443,4.976-4.627c0,0-0.147-1.437-4.273-6.679
	c-1.352-1.621-2.708-2.996-5.028-5.363l-1.599,1.305c0,0,0.394,1.147,2.252,4.604c1.599,2.918,3.435,6.191,3.435,6.191
	L372.353,540.664z"/>
<path fill-rule="evenodd" clip-rule="evenodd" fill="#D62027" d="M416.05,518.744c0.393-0.884,0.757-1.71,1.126-2.534
	c0.545-1.218,1.053-2.455,1.654-3.645c0.455-0.901,1.133-1.616,2.184-1.846c1.545-0.337,2.846,0.267,3.674,1.835
	c0.592,1.123,1.079,2.304,1.582,3.472c3.086,7.171,6.162,14.346,9.241,21.52c0.342,0.796,0.624,1.609,0.656,2.485
	c0.049,1.36-0.728,2.439-2.127,2.981c-1.248,0.483-2.494,0.192-3.326-0.861c-0.413-0.523-0.784-1.105-1.05-1.715
	c-1.822-4.187-3.608-8.39-5.41-12.586c-0.772-1.797-1.555-3.59-2.334-5.384c-0.044-0.102-0.096-0.201-0.163-0.341
	c-0.182,0.42-0.349,0.806-0.515,1.192c-0.507,1.18-1.019,2.356-1.51,3.543c-0.062,0.15-0.063,0.372,0,0.521
	c1.442,3.399,2.897,6.793,4.35,10.188c0.331,0.773,0.603,1.564,0.642,2.413c0.064,1.385-0.707,2.481-2.113,3.027
	c-1.264,0.491-2.511,0.195-3.354-0.876c-0.404-0.514-0.758-1.089-1.03-1.685c-0.685-1.497-1.31-3.022-1.959-4.535
	c-0.061-0.143-0.127-0.285-0.229-0.512c-0.35,0.812-0.658,1.542-0.979,2.265c-0.542,1.22-1.046,2.46-1.654,3.645
	c-0.47,0.916-1.152,1.661-2.251,1.865c-2.323,0.432-4.251-1.618-3.68-3.972c0.186-0.771,0.49-1.52,0.799-2.253
	c1.345-3.183,2.713-6.356,4.064-9.537c0.061-0.143,0.094-0.35,0.038-0.484c-0.642-1.542-1.303-3.076-1.96-4.611
	c-0.023-0.054-0.059-0.103-0.109-0.189c-0.594,1.393-1.172,2.758-1.758,4.119c-2.042,4.743-4.08,9.488-6.135,14.225
	c-0.4,0.923-0.9,1.809-1.79,2.346c-1.156,0.697-2.305,0.493-3.375-0.221c-1.083-0.723-1.495-1.769-1.293-3.054
	c0.2-1.277,0.798-2.413,1.296-3.581c2.599-6.091,5.203-12.181,7.811-18.268c0.628-1.467,1.268-2.93,1.923-4.385
	c0.393-0.873,0.875-1.701,1.707-2.229c1.361-0.864,3.135-0.481,4.159,0.855c0.71,0.926,1.073,2.024,1.539,3.071
	c0.517,1.162,1.02,2.329,1.53,3.493C415.951,518.565,415.987,518.625,416.05,518.744z"/>
<path fill="#253775" d="M457.543,515.33c0.559-0.496,0.838-1.151,0.838-1.966c0-0.814-0.276-1.474-0.827-1.977
	c-0.552-0.503-1.394-0.755-2.526-0.755h-20.681c-1.074,0-1.894,0.244-2.46,0.733c-0.567,0.489-0.85,1.155-0.85,1.999
	c0,0.815,0.272,1.47,0.817,1.966c0.544,0.497,1.375,0.744,2.493,0.744h7.149v23.156c0,1.348,0.305,2.355,0.916,3.021
	c0.61,0.666,1.401,1,2.372,1c0.956,0,1.586-0.33,2.19-0.989c0.603-0.659,0.905-1.67,0.905-3.033v-23.156h7.15
	C456.145,516.075,456.983,515.827,457.543,515.33z"/>
<path fill="#009749" d="M481.655,543.003c1.28-0.17,2.412-0.463,3.398-0.878c1.574-0.696,2.824-1.773,3.751-3.232
	c0.927-1.459,1.39-3.099,1.39-4.921c0-3.939-2.126-6.59-6.377-7.953c3.236-1.511,4.855-3.895,4.855-7.153
	c0-0.948-0.155-1.848-0.463-2.699c-0.309-0.852-0.758-1.629-1.346-2.333c-0.588-0.703-1.265-1.285-2.03-1.744
	c-0.897-0.548-1.912-0.918-3.045-1.111c-1.133-0.192-2.472-0.289-4.016-0.289h-10.557c-1.398,0-2.409,0.315-3.034,0.944
	c-0.625,0.63-0.938,1.663-0.938,3.099v24.482c0,1.407,0.305,2.433,0.916,3.077c0.61,0.644,1.629,0.966,3.056,0.966h9.96
	C478.882,543.259,480.375,543.174,481.655,543.003z M481.831,529.907c1.147,0.741,1.721,1.933,1.721,3.577
	c0,3.214-2.214,4.821-6.642,4.821h-7.039v-9.509h6.819C478.97,528.796,480.684,529.167,481.831,529.907z M475.189,515.644
	c2.383,0,4.156,0.27,5.318,0.811c1.162,0.541,1.743,1.633,1.743,3.277c0,0.77-0.184,1.466-0.552,2.088
	c-0.471,0.874-1.151,1.466-2.041,1.777c-0.89,0.311-2.151,0.467-3.784,0.467h-6.002v-8.42H475.189z"/>
</svg>
