<?xml version="1.0" encoding="utf-8"?>
<!-- Generator: Adobe Illustrator 17.0.0, SVG Export Plug-In . SVG Version: 6.00 Build 0)  -->
<!DOCTYPE svg PUBLIC "-//W3C//DTD SVG 1.1//EN" "http://www.w3.org/Graphics/SVG/1.1/DTD/svg11.dtd">
<svg version="1.1" id="Layer_1" xmlns="http://www.w3.org/2000/svg" xmlns:xlink="http://www.w3.org/1999/xlink" x="0px" y="0px"
	 width="842.35px" height="595.3px" viewBox="0 0 842.35 595.3" enable-background="new 0 0 842.35 595.3" xml:space="preserve">
<g id="Layer_1_1_">
	<g id="XMLID_273_">
		<g id="XMLID_264_">
			<g id="XMLID_120_">
				<g id="XMLID_339_">
					<path fill="#FFFFFF" d="M566.279,442.754L408.153,568.326c-4.651,3.721-12.092,2.79-16.743-1.86L182.125,303.231
						c-3.721-4.651-2.79-12.092,1.86-16.743l158.127-125.571c4.651-3.721,12.092-2.79,16.743,1.86L569.07,426.012
						C571.86,431.593,571.86,439.034,566.279,442.754z"/>
				</g>
				<g id="XMLID_338_">
					
						<rect x="305.359" y="221.453" transform="matrix(-0.7818 0.6235 -0.6235 -0.7818 837.7725 510.638)" fill="#8FD8AD" width="48.367" height="360.894"/>
				</g>
				<g id="XMLID_337_">
					
						<rect x="392.984" y="253.124" transform="matrix(-0.7818 0.6236 -0.6236 -0.7818 956.1184 414.4134)" fill="#8FD8AD" width="25.115" height="242.781"/>
				</g>
				<g id="XMLID_317_">
					<path id="XMLID_10_" fill="#00984A" d="M384.899,572.046L174.684,308.812c-7.441-9.302-5.581-22.324,3.721-28.835
						l158.127-125.571c8.371-6.511,22.324-5.581,28.835,3.721l41.857,52.089l-13.952,11.162l-41.857-52.089
						c-0.93-0.93-2.79-0.93-3.721,0L189.566,294.86c-0.93,0-0.93,1.86-0.93,2.79l210.215,263.234L384.899,572.046z"/>
				</g>
			</g>
			<g>
				<g id="XMLID_252_">
					<path fill="#FFFFFF" d="M640.692,567.395h-239.05c-12.092,0-22.324-10.232-22.324-22.324V175.8
						c0-12.092,10.232-22.324,22.324-22.324h239.05c12.092,0,22.324,10.232,22.324,22.324v369.272
						C663.016,557.164,652.784,567.395,640.692,567.395z"/>
				</g>
				<g id="XMLID_256_">
					<rect x="408.153" y="153.476" fill="#6DCFF6" width="53.019" height="413.92"/>
				</g>
				<g id="XMLID_258_">
					<rect x="476.054" y="153.476" fill="#6DCFF6" width="26.044" height="413.92"/>
				</g>
				<g id="XMLID_268_">
					<path id="XMLID_84_" fill="#0D3178" d="M640.692,576.697h-239.05c-17.673,0-31.625-13.952-31.625-31.625V175.8
						c0-17.673,13.952-31.625,31.625-31.625h32.555v18.603h-32.555c-7.441,0-13.022,5.581-13.022,13.022v369.272
						c0,7.441,5.581,13.022,13.022,13.022h239.05c7.441,0,13.022-5.581,13.022-13.022V175.8c0-7.441-5.581-13.022-13.022-13.022
						h-118.13v-18.603h118.13c17.673,0,31.625,13.952,31.625,31.625v369.272C672.317,562.745,658.365,576.697,640.692,576.697z"/>
				</g>
				<g id="XMLID_251_">
					<rect id="XMLID_83_" x="448.15" y="144.174" fill="#0D3178" width="53.949" height="18.603"/>
				</g>
			</g>
		</g>
	</g>
	<g>
		<g>
			<g>
				<g>
					<defs>
						<path id="SVGID_1_" d="M6320.226,547.862h-429.732c-7.441,0-13.022-5.581-13.022-13.022V231.609
							c0-7.441,5.581-13.022,13.022-13.022h429.732c7.441,0,13.022,5.581,13.022,13.022V534.84
							C6333.248,542.281,6326.737,547.862,6320.226,547.862"/>
					</defs>
					<clipPath id="SVGID_2_">
						<use xlink:href="#SVGID_1_"  overflow="visible"/>
					</clipPath>
				</g>
			</g>
			<g>
				<g>
					<defs>
						<path id="SVGID_3_" d="M6324.876,554.373h-433.452c-12.092,0-21.394-9.302-21.394-21.394V387.875h19.533V532.98l0.93,1.86
							h433.453l1.86-1.86V226.958l-1.86-1.86H6167.68v-19.533h156.266c12.092,0,21.394,9.302,21.394,21.394V532.98
							C6346.27,545.072,6336.039,554.373,6324.876,554.373"/>
					</defs>
					<clipPath id="SVGID_4_">
						<use xlink:href="#SVGID_3_"  overflow="visible"/>
					</clipPath>
				</g>
			</g>
			<g>
				<g>
					<defs>
						<rect id="SVGID_5_" x="5901.656" y="243.701" width="412.059" height="266.025"/>
					</defs>
					<clipPath id="SVGID_6_">
						<use xlink:href="#SVGID_5_"  overflow="visible"/>
					</clipPath>
				</g>
			</g>
			<g>
				<g>
					<defs>
						<path id="SVGID_7_" d="M6324.876,567.395h-442.754c-10.231,0-19.533-7.441-21.394-18.603l-2.79-19.533h205.564l7.441,11.162
							h56.739l8.372-11.162h216.726l-2.79,16.743C6347.2,558.094,6336.969,567.395,6324.876,567.395"/>
					</defs>
					<clipPath id="SVGID_8_">
						<use xlink:href="#SVGID_7_"  overflow="visible"/>
					</clipPath>
				</g>
			</g>
			<g>
				<g>
					<defs>
						<path id="SVGID_9_" d="M6325.807,573.906h-444.615c-15.813,0-28.834-11.162-31.625-26.044l-4.651-30.695h223.238l7.441,11.162
							h46.508l8.372-11.162h234.4l-4.651,27.905C6357.432,561.814,6343.48,573.906,6325.807,573.906z M5868.169,535.77l0.93,7.441
							c0.93,5.581,5.581,10.232,12.092,10.232h444.615c7.441,0,13.952-5.581,14.882-12.092l0.93-5.581h-200.914l-8.372,11.162
							h-66.971l-7.441-11.162H5868.169z"/>
					</defs>
					<clipPath id="SVGID_10_">
						<use xlink:href="#SVGID_9_"  overflow="visible"/>
					</clipPath>
				</g>
			</g>
			<g>
				<g>
					<defs>
						<path id="SVGID_11_" d="M6116.521,358.11h-269.745c-14.882,0-26.975-12.092-26.975-26.975v-181.38
							c0-14.883,12.092-26.975,26.975-26.975h269.745c14.882,0,26.975,12.092,26.975,26.975v181.38
							C6142.566,346.018,6131.404,358.11,6116.521,358.11"/>
					</defs>
					<clipPath id="SVGID_12_">
						<use xlink:href="#SVGID_11_"  overflow="visible"/>
					</clipPath>
				</g>
			</g>
			<g>
				<g>
					<defs>
						<path id="SVGID_13_" d="M5819.802,173.939v-34.416c0-9.302,7.441-16.743,15.813-16.743h291.139
							c9.302,0,15.813,7.441,15.813,16.743v34.416H5819.802"/>
					</defs>
					<clipPath id="SVGID_14_">
						<use xlink:href="#SVGID_13_"  overflow="visible"/>
					</clipPath>
				</g>
			</g>
			<g>
				<g>
					<defs>
						<path id="SVGID_15_" d="M6128.613,370.202h-295.79c-14.882,0-26.975-12.092-26.975-26.044V143.244
							c0-13.952,12.092-26.044,26.975-26.044h43.718v19.533h-43.718c-3.721,0-6.511,2.79-6.511,6.511v200.914
							c0,3.721,2.791,6.511,6.511,6.511h295.79c3.721,0,6.511-2.79,6.511-6.511V143.244c0-3.721-2.79-6.511-6.511-6.511h-195.333
							V117.2h195.333c14.882,0,26.975,12.092,26.975,26.044v200.914C6155.588,359.04,6143.496,370.202,6128.613,370.202"/>
					</defs>
					<clipPath id="SVGID_16_">
						<use xlink:href="#SVGID_15_"  overflow="visible"/>
					</clipPath>
				</g>
			</g>
			<g>
				<g>
					<defs>
						<rect id="SVGID_17_" x="5889.563" y="117.2" width="25.114" height="18.603"/>
					</defs>
					<clipPath id="SVGID_18_">
						<use xlink:href="#SVGID_17_"  overflow="visible"/>
					</clipPath>
				</g>
			</g>
			<g>
				<g>
					<defs>
						<rect id="SVGID_19_" x="5819.802" y="167.428" width="323.694" height="18.603"/>
					</defs>
					<clipPath id="SVGID_20_">
						<use xlink:href="#SVGID_19_"  overflow="visible"/>
					</clipPath>
				</g>
			</g>
			<g>
				<g>
					<defs>
						<rect id="SVGID_21_" x="5851.427" y="142.314" width="12.092" height="18.603"/>
					</defs>
					<clipPath id="SVGID_22_">
						<use xlink:href="#SVGID_21_"  overflow="visible"/>
					</clipPath>
				</g>
			</g>
			<g>
				<g>
					<defs>
						<rect id="SVGID_23_" x="5883.052" y="142.314" width="12.092" height="18.603"/>
					</defs>
					<clipPath id="SVGID_24_">
						<use xlink:href="#SVGID_23_"  overflow="visible"/>
					</clipPath>
				</g>
			</g>
			<g>
				<g>
					<defs>
						<rect id="SVGID_25_" x="5914.677" y="142.314" width="12.092" height="18.603"/>
					</defs>
					<clipPath id="SVGID_26_">
						<use xlink:href="#SVGID_25_"  overflow="visible"/>
					</clipPath>
				</g>
			</g>
			<g>
				<g>
					<polyline id="SVGID_195_" fill="#CCCCCC" points="5914.677,265.095 5914.677,254.863 5952.814,237.19 5952.814,248.352 
						5927.7,259.514 5952.814,270.676 5952.814,281.837 5914.677,265.095 					"/>
				</g>
				<g>
					<defs>
						<polyline id="SVGID_27_" points="5914.677,265.095 5914.677,254.863 5952.814,237.19 5952.814,248.352 5927.7,259.514 
							5952.814,270.676 5952.814,281.837 5914.677,265.095 						"/>
					</defs>
					<clipPath id="SVGID_28_">
						<use xlink:href="#SVGID_27_"  overflow="visible"/>
					</clipPath>
					<g clip-path="url(#SVGID_28_)">
						<g>
							<rect id="SVGID_197_" x="-1023.358" y="-929.226" fill="#CCCCCC" width="8663.476" height="4521.49"/>
						</g>
					</g>
				</g>
			</g>
			<g>
				<g>
					<polyline id="SVGID_199_" fill="#CCCCCC" points="5987.23,225.098 5997.461,225.098 5968.627,288.348 5959.325,288.348 
						5987.23,225.098 					"/>
				</g>
				<g>
					<defs>
						<polyline id="SVGID_29_" points="5987.23,225.098 5997.461,225.098 5968.627,288.348 5959.325,288.348 5987.23,225.098 						
							"/>
					</defs>
					<clipPath id="SVGID_30_">
						<use xlink:href="#SVGID_29_"  overflow="visible"/>
					</clipPath>
					<g clip-path="url(#SVGID_30_)">
						<g>
							<rect id="SVGID_201_" x="-1023.358" y="-929.226" fill="#CCCCCC" width="8663.476" height="4521.49"/>
						</g>
					</g>
				</g>
			</g>
			<g>
				<g>
					<polyline id="SVGID_203_" fill="#CCCCCC" points="6047.69,254.863 6047.69,265.095 6009.554,281.837 6009.554,270.676 
						6034.668,259.514 6009.554,248.352 6009.554,237.19 6047.69,254.863 					"/>
				</g>
				<g>
					<defs>
						<polyline id="SVGID_31_" points="6047.69,254.863 6047.69,265.095 6009.554,281.837 6009.554,270.676 6034.668,259.514 
							6009.554,248.352 6009.554,237.19 6047.69,254.863 						"/>
					</defs>
					<clipPath id="SVGID_32_">
						<use xlink:href="#SVGID_31_"  overflow="visible"/>
					</clipPath>
					<g clip-path="url(#SVGID_32_)">
						<g>
							<rect id="SVGID_205_" x="-1023.358" y="-929.226" fill="#CCCCCC" width="8663.476" height="4521.49"/>
						</g>
					</g>
				</g>
			</g>
			<g>
				<g>
					<defs>
						<rect id="SVGID_33_" x="6168.611" y="275.326" width="107.898" height="18.603"/>
					</defs>
					<clipPath id="SVGID_34_">
						<use xlink:href="#SVGID_33_"  overflow="visible"/>
					</clipPath>
				</g>
			</g>
			<g>
				<g>
					<defs>
						<rect id="SVGID_35_" x="6200.235" y="319.974" width="38.136" height="18.603"/>
					</defs>
					<clipPath id="SVGID_36_">
						<use xlink:href="#SVGID_35_"  overflow="visible"/>
					</clipPath>
				</g>
			</g>
			<g>
				<g>
					<defs>
						<rect id="SVGID_37_" x="6060.712" y="376.713" width="107.898" height="18.603"/>
					</defs>
					<clipPath id="SVGID_38_">
						<use xlink:href="#SVGID_37_"  overflow="visible"/>
					</clipPath>
				</g>
			</g>
			<g>
				<g>
					<defs>
						<rect id="SVGID_39_" x="6187.213" y="376.713" width="56.739" height="18.603"/>
					</defs>
					<clipPath id="SVGID_40_">
						<use xlink:href="#SVGID_39_"  overflow="visible"/>
					</clipPath>
				</g>
			</g>
			<g>
				<g>
					<defs>
						<rect id="SVGID_41_" x="6022.576" y="376.713" width="18.603" height="18.603"/>
					</defs>
					<clipPath id="SVGID_42_">
						<use xlink:href="#SVGID_41_"  overflow="visible"/>
					</clipPath>
				</g>
			</g>
			<g>
				<g>
					<defs>
						<rect id="SVGID_43_" x="5927.7" y="414.85" width="107.898" height="18.603"/>
					</defs>
					<clipPath id="SVGID_44_">
						<use xlink:href="#SVGID_43_"  overflow="visible"/>
					</clipPath>
				</g>
			</g>
			<g>
				<g>
					<defs>
						<rect id="SVGID_45_" x="5997.461" y="459.497" width="107.898" height="18.603"/>
					</defs>
					<clipPath id="SVGID_46_">
						<use xlink:href="#SVGID_45_"  overflow="visible"/>
					</clipPath>
				</g>
			</g>
			<g>
				<g>
					<defs>
						<rect id="SVGID_47_" x="6130.474" y="459.497" width="56.739" height="18.603"/>
					</defs>
					<clipPath id="SVGID_48_">
						<use xlink:href="#SVGID_47_"  overflow="visible"/>
					</clipPath>
				</g>
			</g>
		</g>
	</g>
</g>
<g id="specctr">
	<g id="Text_Properties">
	</g>
</g>
</svg>
