<svg xmlns="http://www.w3.org/2000/svg" viewBox="0 0 64 64" enable-background="new 0 0 64 64"><g><circle fill="#5FB0E5" cx="43.7" cy="27" r=".8"/><circle fill="#5FB0E5" cx="36.9" cy="13.5" r="1"/><circle fill="#5FB0E5" cx="45.1" cy="16.2" r="1.1"/><circle fill="#5FB0E5" cx="50.2" cy="22.6" r="1.7"/><g><path fill="#fff" d="M21.3 17.2l-7.2 7.2v25c0 1.1.9 2 2 2h21.4c1.1 0 2-.9 2-2v-30.1c0-1.1-.9-2-2-2h-16.2z"/><path fill="#5FB0E5" d="M21.3 24.4v-7.2l-7.2 7.2z"/><path fill="#0686D8" d="M20.5 25.2h-6.4v-1.5h6.4v-6.4h1.5v6.4c0 .8-.6 1.5-1.5 1.5z"/><path fill="#0686D8" d="M30.2 52.2h-14.1c-1.5 0-2.7-1.2-2.7-2.7v-25.4l7.6-7.6h16.7c1.5 0 2.7 1.2 2.7 2.7v9.5h-1.5v-9.5c0-.7-.5-1.2-1.2-1.2h-16l-6.7 6.7v24.8c0 .7.5 1.2 1.2 1.2h14.1v1.5z"/><g><path fill="#0686D8" d="M27.8 30.9h-4.3v-1.5h4.3c.5 0 .8-.4.8-.8s-.4-.8-.8-.8h-1.8c-1.3 0-2.3-1-2.3-2.3s1-2.3 2.3-2.3h4.1v1.5h-4.1c-.5 0-.8.4-.8.8s.4.8.8.8h1.7c1.3 0 2.3 1 2.3 2.3.1 1.2-1 2.3-2.2 2.3z"/><path fill="#0686D8" d="M26.1 21.2h1.5v11.6h-1.5z"/></g><path fill="#0686D8" d="M17.5 34.1h13.8v1.5h-13.8z"/><path fill="#0686D8" d="M17.5 38.2h13.8v1.5h-13.8z"/><path fill="#0686D8" d="M17.5 42.3h13.8v1.5h-13.8z"/><path fill="#0686D8" d="M17.5 46.3h13.8v1.5h-13.8z"/><g><path fill="#9ECFEF" d="M48.9 51.4h-15c-.6 0-1.1-.5-1.1-1.1v-18.7c0-.6.5-1.1 1.1-1.1h15c.6 0 1.1.5 1.1 1.1v18.8c0 .5-.5 1-1.1 1z"/><path fill="#0686D8" d="M48.9 52.2h-16.9v-20.6c0-1 .8-1.9 1.9-1.9h15c1 0 1.9.8 1.9 1.9v18.8c-.1 1-.9 1.8-1.9 1.8zm-15.4-1.5h15.3c.2 0 .4-.2.4-.4v-18.7c0-.2-.2-.4-.4-.4h-15c-.2 0-.4.2-.4.4v19.1z"/><path fill="#D2E9F7" d="M36 33.7h10.7v3.6h-10.7z"/><g><path fill="#0686D8" d="M36 40.3h1.6v1.5h-1.6z"/><path fill="#0686D8" d="M39.1 40.3h1.6v1.5h-1.6z"/><path fill="#0686D8" d="M42.1 40.3h1.6v1.5h-1.6z"/><path fill="#0686D8" d="M45.1 40.3h1.6v1.5h-1.6z"/></g><g><path fill="#0686D8" d="M36 43.2h1.6v1.5h-1.6z"/><path fill="#0686D8" d="M39.1 43.2h1.6v1.5h-1.6z"/><path fill="#0686D8" d="M42.1 43.2h1.6v1.5h-1.6z"/><path fill="#0686D8" d="M45.1 43.2h1.6v1.5h-1.6z"/></g><g><path fill="#0686D8" d="M36 46h1.6v1.5h-1.6z"/><path fill="#0686D8" d="M39.1 46h1.6v1.5h-1.6z"/><path fill="#0686D8" d="M42.1 46h1.6v1.5h-1.6z"/><path fill="#0686D8" d="M45.1 46h1.6v1.5h-1.6z"/></g></g></g></g></svg>