<?xml version="1.0" encoding="utf-8"?>
<!-- Generator: Adobe Illustrator 17.0.0, SVG Export Plug-In . SVG Version: 6.00 Build 0)  -->
<!DOCTYPE svg PUBLIC "-//W3C//DTD SVG 1.1//EN" "http://www.w3.org/Graphics/SVG/1.1/DTD/svg11.dtd">
<svg version="1.1" id="Layer_1" xmlns="http://www.w3.org/2000/svg" xmlns:xlink="http://www.w3.org/1999/xlink" x="0px" y="0px"
	 width="842.35px" height="595.3px" viewBox="0 0 842.35 595.3" enable-background="new 0 0 842.35 595.3" xml:space="preserve">
<g id="Layer_1_1_">
	<g id="XMLID_977_">
		<g id="XMLID_978_">
			<g id="XMLID_999_">
				<path fill="#FFFFFF" d="M557.908,560.884H172.823c-12.092,0-21.394-9.302-21.394-21.394V331.136h427.872v208.355
					C579.302,551.583,570,560.884,557.908,560.884z"/>
			</g>
			<g id="XMLID_998_">
				<path fill="#FFFFFF" d="M558.838,558.094H181.195c-11.162,0-20.463-9.302-20.463-20.463V340.437h418.57V538.56
					C579.302,548.792,570,558.094,558.838,558.094z"/>
			</g>
			<g id="XMLID_997_">
				<path fill="#6DCFF6" d="M580.232,332.066H153.29V184.171c0-13.022,10.232-24.184,24.184-24.184h379.504
					c13.022,0,24.184,10.232,24.184,24.184v147.895H580.232z"/>
			</g>
			<g id="XMLID_996_">
				<path id="XMLID_1452_" d="M557.908,571.116H172.823c-16.743,0-30.695-13.952-30.695-30.695V321.834h355.32v19.533H161.661
					v199.053c0,6.511,4.651,11.162,11.162,11.162h385.085c6.511,0,11.162-4.651,11.162-11.162V382.294h19.533v157.196
					C589.533,557.164,575.581,571.116,557.908,571.116z"/>
			</g>
			<g id="XMLID_995_">
				<path id="XMLID_1451_" d="M590.463,250.212H570.93v-67.901c0-6.511-5.581-12.092-12.092-12.092H330.95v-19.533h227.888
					c17.673,0,31.625,13.952,31.625,31.625V250.212z"/>
			</g>
			<g id="XMLID_994_">
				<rect id="XMLID_1450_" x="233.283" y="150.685" width="61.39" height="19.533"/>
			</g>
			<g id="XMLID_993_">
				<path id="XMLID_1449_" d="M477.914,341.367H143.058V181.38c0-17.673,13.952-31.625,31.625-31.625h27.905v19.533h-27.905
					c-6.511,0-12.092,5.581-12.092,12.092v140.454h315.323V341.367z"/>
			</g>
			<g id="XMLID_992_">
				<rect id="XMLID_1448_" x="197.007" y="378.574" width="50.228" height="19.533"/>
			</g>
			<g id="XMLID_991_">
				<rect id="XMLID_1447_" x="266.769" y="378.574" width="93.946" height="19.533"/>
			</g>
			<g id="XMLID_990_">
				<rect id="XMLID_1446_" x="197.007" y="412.059" width="211.145" height="19.533"/>
			</g>
			<g id="XMLID_989_">
				<rect id="XMLID_1445_" x="197.007" y="447.405" width="186.961" height="19.533"/>
			</g>
			<g id="XMLID_988_">
				<rect id="XMLID_1444_" x="197.007" y="482.751" width="77.203" height="19.533"/>
			</g>
			<g id="XMLID_987_">
				<rect id="XMLID_1443_" x="291.883" y="482.751" width="44.648" height="19.533"/>
			</g>
			<g id="XMLID_979_">
				<g id="XMLID_986_">
					<polygon fill="#FFFFFF" points="434.197,485.542 403.502,487.402 405.362,455.777 649.993,211.146 679.758,240.91 					"/>
				</g>
				<g id="XMLID_985_">
					<path id="XMLID_1440_" d="M392.34,497.634l2.79-46.508l2.79-2.79l252.072-252.072l42.787,42.787L438.848,494.843
						L392.34,497.634z M414.664,460.427l-0.93,16.743l16.743-0.93l235.33-235.33l-15.813-15.813L414.664,460.427z"/>
				</g>
				<g id="XMLID_984_">
					
						<rect id="XMLID_1439_" x="663.944" y="199.881" transform="matrix(-0.7071 0.7071 -0.7071 -0.7071 1311.0428 -123.7565)" width="34.415" height="19.533"/>
				</g>
				<g id="XMLID_983_">
					
						<rect id="XMLID_1438_" x="378.654" y="485.545" transform="matrix(-0.7071 0.7071 -0.7071 -0.7071 1026.0159 565.6342)" width="34.415" height="19.533"/>
				</g>
				<g id="XMLID_982_">
					
						<rect id="XMLID_1437_" x="513.308" y="346.189" transform="matrix(-0.707 0.7073 -0.7073 -0.707 1152.8431 257.5004)" width="19.534" height="42.79"/>
				</g>
				<g id="XMLID_981_">
					
						<rect id="XMLID_1436_" x="432.084" y="426.993" transform="matrix(-0.7073 0.707 -0.707 -0.7073 1071.3448 453.1426)" width="19.534" height="42.79"/>
				</g>
				<g id="XMLID_980_">
					<polygon id="XMLID_1435_" points="609.067,365.551 595.114,351.599 668.597,278.117 654.644,265.095 668.597,251.142 
						696.501,278.117 					"/>
				</g>
			</g>
		</g>
	</g>
	<g>
		<g>
			<g>
				<g>
					<defs>
						<path id="SVGID_1_" d="M6320.226,1273.384h-429.732c-7.441,0-13.022-5.581-13.022-13.022V957.131
							c0-7.441,5.581-13.022,13.022-13.022h429.732c7.441,0,13.022,5.581,13.022,13.022v303.231
							C6333.248,1267.803,6326.737,1273.384,6320.226,1273.384"/>
					</defs>
					<clipPath id="SVGID_2_">
						<use xlink:href="#SVGID_1_"  overflow="visible"/>
					</clipPath>
				</g>
			</g>
			<g>
				<g>
					<defs>
						<path id="SVGID_3_" d="M6324.876,1279.895h-433.452c-12.092,0-21.394-9.302-21.394-21.394v-145.104h19.533v145.104l0.93,1.86
							h433.453l1.86-1.86V952.48l-1.86-1.86H6167.68v-19.533h156.266c12.092,0,21.394,9.302,21.394,21.394v306.021
							C6346.27,1270.594,6336.039,1279.895,6324.876,1279.895"/>
					</defs>
					<clipPath id="SVGID_4_">
						<use xlink:href="#SVGID_3_"  overflow="visible"/>
					</clipPath>
				</g>
			</g>
			<g>
				<g>
					<defs>
						<rect id="SVGID_5_" x="5901.656" y="969.223" width="412.059" height="266.025"/>
					</defs>
					<clipPath id="SVGID_6_">
						<use xlink:href="#SVGID_5_"  overflow="visible"/>
					</clipPath>
				</g>
			</g>
			<g>
				<g>
					<defs>
						<path id="SVGID_7_" d="M6324.876,1292.917h-442.754c-10.231,0-19.533-7.441-21.394-18.603l-2.79-19.533h205.564l7.441,11.162
							h56.739l8.372-11.162h216.726l-2.79,16.743C6347.2,1283.616,6336.969,1292.917,6324.876,1292.917"/>
					</defs>
					<clipPath id="SVGID_8_">
						<use xlink:href="#SVGID_7_"  overflow="visible"/>
					</clipPath>
				</g>
			</g>
			<g>
				<g>
					<defs>
						<path id="SVGID_9_" d="M6325.807,1299.428h-444.615c-15.813,0-28.834-11.162-31.625-26.044l-4.651-30.695h223.238
							l7.441,11.162h46.508l8.372-11.162h234.4l-4.651,27.905C6357.432,1287.336,6343.48,1299.428,6325.807,1299.428z
							 M5868.169,1261.292l0.93,7.441c0.93,5.581,5.581,10.232,12.092,10.232h444.615c7.441,0,13.952-5.581,14.882-12.092
							l0.93-5.581h-200.914l-8.372,11.162h-66.971l-7.441-11.162H5868.169z"/>
					</defs>
					<clipPath id="SVGID_10_">
						<use xlink:href="#SVGID_9_"  overflow="visible"/>
					</clipPath>
				</g>
			</g>
			<g>
				<g>
					<defs>
						<path id="SVGID_11_" d="M6116.521,1083.632h-269.745c-14.882,0-26.975-12.092-26.975-26.975v-181.38
							c0-14.883,12.092-26.975,26.975-26.975h269.745c14.882,0,26.975,12.092,26.975,26.975v181.38
							C6142.566,1071.54,6131.404,1083.632,6116.521,1083.632"/>
					</defs>
					<clipPath id="SVGID_12_">
						<use xlink:href="#SVGID_11_"  overflow="visible"/>
					</clipPath>
				</g>
			</g>
			<g>
				<g>
					<defs>
						<path id="SVGID_13_" d="M5819.802,899.461v-34.416c0-9.302,7.441-16.743,15.813-16.743h291.139
							c9.302,0,15.813,7.441,15.813,16.743v34.416H5819.802"/>
					</defs>
					<clipPath id="SVGID_14_">
						<use xlink:href="#SVGID_13_"  overflow="visible"/>
					</clipPath>
				</g>
			</g>
			<g>
				<g>
					<defs>
						<path id="SVGID_15_" d="M6128.613,1095.724h-295.79c-14.882,0-26.975-12.092-26.975-26.044V868.766
							c0-13.952,12.092-26.044,26.975-26.044h43.718v19.533h-43.718c-3.721,0-6.511,2.791-6.511,6.511v200.914
							c0,3.721,2.791,6.511,6.511,6.511h295.79c3.721,0,6.511-2.791,6.511-6.511V868.766c0-3.721-2.79-6.511-6.511-6.511h-195.333
							v-19.533h195.333c14.882,0,26.975,12.092,26.975,26.044v200.914C6155.588,1084.562,6143.496,1095.724,6128.613,1095.724"/>
					</defs>
					<clipPath id="SVGID_16_">
						<use xlink:href="#SVGID_15_"  overflow="visible"/>
					</clipPath>
				</g>
			</g>
			<g>
				<g>
					<defs>
						<rect id="SVGID_17_" x="5889.563" y="842.722" width="25.114" height="18.603"/>
					</defs>
					<clipPath id="SVGID_18_">
						<use xlink:href="#SVGID_17_"  overflow="visible"/>
					</clipPath>
				</g>
			</g>
			<g>
				<g>
					<defs>
						<rect id="SVGID_19_" x="5819.802" y="892.95" width="323.694" height="18.603"/>
					</defs>
					<clipPath id="SVGID_20_">
						<use xlink:href="#SVGID_19_"  overflow="visible"/>
					</clipPath>
				</g>
			</g>
			<g>
				<g>
					<defs>
						<rect id="SVGID_21_" x="5851.427" y="867.836" width="12.092" height="18.603"/>
					</defs>
					<clipPath id="SVGID_22_">
						<use xlink:href="#SVGID_21_"  overflow="visible"/>
					</clipPath>
				</g>
			</g>
			<g>
				<g>
					<defs>
						<rect id="SVGID_23_" x="5883.052" y="867.836" width="12.092" height="18.603"/>
					</defs>
					<clipPath id="SVGID_24_">
						<use xlink:href="#SVGID_23_"  overflow="visible"/>
					</clipPath>
				</g>
			</g>
			<g>
				<g>
					<defs>
						<rect id="SVGID_25_" x="5914.677" y="867.836" width="12.092" height="18.603"/>
					</defs>
					<clipPath id="SVGID_26_">
						<use xlink:href="#SVGID_25_"  overflow="visible"/>
					</clipPath>
				</g>
			</g>
			<g>
				<g>
					<polyline id="SVGID_195_" fill="#CCCCCC" points="5914.677,990.616 5914.677,980.385 5952.814,962.712 5952.814,973.874 
						5927.7,985.036 5952.814,996.197 5952.814,1007.359 5914.677,990.616 					"/>
				</g>
				<g>
					<defs>
						<polyline id="SVGID_27_" points="5914.677,990.616 5914.677,980.385 5952.814,962.712 5952.814,973.874 5927.7,985.036 
							5952.814,996.197 5952.814,1007.359 5914.677,990.616 						"/>
					</defs>
					<clipPath id="SVGID_28_">
						<use xlink:href="#SVGID_27_"  overflow="visible"/>
					</clipPath>
					<g clip-path="url(#SVGID_28_)">
						<g>
							<rect id="SVGID_197_" x="-1023.358" y="-203.704" fill="#CCCCCC" width="8663.476" height="4521.49"/>
						</g>
					</g>
				</g>
			</g>
			<g>
				<g>
					<polyline id="SVGID_199_" fill="#CCCCCC" points="5987.23,950.62 5997.461,950.62 5968.627,1013.87 5959.325,1013.87 
						5987.23,950.62 					"/>
				</g>
				<g>
					<defs>
						<polyline id="SVGID_29_" points="5987.23,950.62 5997.461,950.62 5968.627,1013.87 5959.325,1013.87 5987.23,950.62 						"/>
					</defs>
					<clipPath id="SVGID_30_">
						<use xlink:href="#SVGID_29_"  overflow="visible"/>
					</clipPath>
					<g clip-path="url(#SVGID_30_)">
						<g>
							<rect id="SVGID_201_" x="-1023.358" y="-203.704" fill="#CCCCCC" width="8663.476" height="4521.49"/>
						</g>
					</g>
				</g>
			</g>
			<g>
				<g>
					<polyline id="SVGID_203_" fill="#CCCCCC" points="6047.69,980.385 6047.69,990.616 6009.554,1007.359 6009.554,996.197 
						6034.668,985.036 6009.554,973.874 6009.554,962.712 6047.69,980.385 					"/>
				</g>
				<g>
					<defs>
						<polyline id="SVGID_31_" points="6047.69,980.385 6047.69,990.616 6009.554,1007.359 6009.554,996.197 6034.668,985.036 
							6009.554,973.874 6009.554,962.712 6047.69,980.385 						"/>
					</defs>
					<clipPath id="SVGID_32_">
						<use xlink:href="#SVGID_31_"  overflow="visible"/>
					</clipPath>
					<g clip-path="url(#SVGID_32_)">
						<g>
							<rect id="SVGID_205_" x="-1023.358" y="-203.704" fill="#CCCCCC" width="8663.476" height="4521.49"/>
						</g>
					</g>
				</g>
			</g>
			<g>
				<g>
					<defs>
						<rect id="SVGID_33_" x="6168.611" y="1000.848" width="107.898" height="18.603"/>
					</defs>
					<clipPath id="SVGID_34_">
						<use xlink:href="#SVGID_33_"  overflow="visible"/>
					</clipPath>
				</g>
			</g>
			<g>
				<g>
					<defs>
						<rect id="SVGID_35_" x="6200.235" y="1045.496" width="38.136" height="18.603"/>
					</defs>
					<clipPath id="SVGID_36_">
						<use xlink:href="#SVGID_35_"  overflow="visible"/>
					</clipPath>
				</g>
			</g>
			<g>
				<g>
					<defs>
						<rect id="SVGID_37_" x="6060.712" y="1102.235" width="107.898" height="18.603"/>
					</defs>
					<clipPath id="SVGID_38_">
						<use xlink:href="#SVGID_37_"  overflow="visible"/>
					</clipPath>
				</g>
			</g>
			<g>
				<g>
					<defs>
						<rect id="SVGID_39_" x="6187.213" y="1102.235" width="56.739" height="18.603"/>
					</defs>
					<clipPath id="SVGID_40_">
						<use xlink:href="#SVGID_39_"  overflow="visible"/>
					</clipPath>
				</g>
			</g>
			<g>
				<g>
					<defs>
						<rect id="SVGID_41_" x="6022.576" y="1102.235" width="18.603" height="18.603"/>
					</defs>
					<clipPath id="SVGID_42_">
						<use xlink:href="#SVGID_41_"  overflow="visible"/>
					</clipPath>
				</g>
			</g>
			<g>
				<g>
					<defs>
						<rect id="SVGID_43_" x="5927.7" y="1140.372" width="107.898" height="18.603"/>
					</defs>
					<clipPath id="SVGID_44_">
						<use xlink:href="#SVGID_43_"  overflow="visible"/>
					</clipPath>
				</g>
			</g>
			<g>
				<g>
					<defs>
						<rect id="SVGID_45_" x="5997.461" y="1185.019" width="107.898" height="18.603"/>
					</defs>
					<clipPath id="SVGID_46_">
						<use xlink:href="#SVGID_45_"  overflow="visible"/>
					</clipPath>
				</g>
			</g>
			<g>
				<g>
					<defs>
						<rect id="SVGID_47_" x="6130.474" y="1185.019" width="56.739" height="18.603"/>
					</defs>
					<clipPath id="SVGID_48_">
						<use xlink:href="#SVGID_47_"  overflow="visible"/>
					</clipPath>
				</g>
			</g>
		</g>
	</g>
</g>
<g id="specctr">
	<g id="Text_Properties">
	</g>
</g>
</svg>
