<?xml version="1.0" encoding="utf-8"?>
<!-- Generator: Adobe Illustrator 17.0.0, SVG Export Plug-In . SVG Version: 6.00 Build 0)  -->
<!DOCTYPE svg PUBLIC "-//W3C//DTD SVG 1.1//EN" "http://www.w3.org/Graphics/SVG/1.1/DTD/svg11.dtd">
<svg version="1.1" id="Layer_1" xmlns="http://www.w3.org/2000/svg" xmlns:xlink="http://www.w3.org/1999/xlink" x="0px" y="0px"
	 width="842.35px" height="595.3px" viewBox="0 0 842.35 595.3" enable-background="new 0 0 842.35 595.3" xml:space="preserve">
<g>
	<defs>
		<path id="SVGID_1_" d="M3446.043-419.5h-74.413l-35.346-67.901c-2.791-5.581,0.93-11.162,6.511-11.162h26.044
			c1.86,0,4.651,0.93,5.581,2.79L3446.043-419.5L3446.043-419.5z"/>
	</defs>
	<clipPath id="SVGID_2_">
		<use xlink:href="#SVGID_1_"  overflow="visible"/>
	</clipPath>
</g>
<g>
	<defs>
		<path id="SVGID_3_" d="M3446.043-419.5h-74.413l-35.346-67.901c-2.791-5.581,0.93-11.162,6.511-11.162h26.044
			c1.86,0,4.651,0.93,5.581,2.79L3446.043-419.5L3446.043-419.5z"/>
	</defs>
	<clipPath id="SVGID_4_">
		<use xlink:href="#SVGID_3_"  overflow="visible"/>
	</clipPath>
</g>
<g>
	<defs>
		<path id="SVGID_5_" d="M3351.167-499.494h-8.372c-5.581,0-9.302,6.511-6.511,11.162l35.346,67.901h28.835l-48.368-76.273
			C3351.167-496.703,3351.167-497.634,3351.167-499.494"/>
	</defs>
	<clipPath id="SVGID_6_">
		<use xlink:href="#SVGID_5_"  overflow="visible"/>
	</clipPath>
</g>
<g>
	<defs>
		<path id="SVGID_7_" d="M3460.926-412.989h-93.946l-37.206-71.622c-1.861-4.651-1.861-10.232,0.93-13.952
			c2.791-3.721,7.441-6.511,12.092-6.511h26.044c3.72,0,8.371,1.86,10.232,4.651L3460.926-412.989L3460.926-412.989z
			 M3375.351-426.012h55.81l-60.46-66.041h-26.975c0,0-0.93,0-0.93,0.93v0.93L3375.351-426.012z"/>
	</defs>
	<clipPath id="SVGID_8_">
		<use xlink:href="#SVGID_7_"  overflow="visible"/>
	</clipPath>
</g>
<g>
	<defs>
		<path id="SVGID_9_" d="M3678.582-284.628c0,6.511-4.651,11.162-11.162,11.162s-11.162-4.651-11.162-11.162
			s4.651-11.162,11.162-11.162S3678.582-290.209,3678.582-284.628"/>
	</defs>
	<clipPath id="SVGID_10_">
		<use xlink:href="#SVGID_9_"  overflow="visible"/>
	</clipPath>
</g>
<g>
	<defs>
		<path id="SVGID_11_" d="M3586.497-533.91c0,2.79-2.791,5.581-5.581,5.581s-5.581-2.79-5.581-5.581s2.791-5.581,5.581-5.581
			S3586.497-537.63,3586.497-533.91"/>
	</defs>
	<clipPath id="SVGID_12_">
		<use xlink:href="#SVGID_11_"  overflow="visible"/>
	</clipPath>
</g>
<g>
	<defs>
		<path id="SVGID_13_" d="M3574.405-314.393c0,2.79-2.79,5.581-5.581,5.581c-2.791,0-5.581-2.79-5.581-5.581s2.79-5.581,5.581-5.581
			C3571.614-319.974,3574.405-317.183,3574.405-314.393"/>
	</defs>
	<clipPath id="SVGID_14_">
		<use xlink:href="#SVGID_13_"  overflow="visible"/>
	</clipPath>
</g>
<g>
	<defs>
		<path id="SVGID_15_" d="M3722.299-559.954c0,3.721-3.72,7.441-7.441,7.441c-3.72,0-7.441-3.721-7.441-7.441
			c0-3.721,3.72-7.441,7.441-7.441C3719.509-567.395,3722.299-563.675,3722.299-559.954"/>
	</defs>
	<clipPath id="SVGID_16_">
		<use xlink:href="#SVGID_15_"  overflow="visible"/>
	</clipPath>
</g>
<g>
	<defs>
		<path id="SVGID_17_" d="M3633.004-598.09c0,5.581-4.651,10.232-10.232,10.232c-5.581,0-10.232-4.651-10.232-10.232
			s4.651-10.232,10.232-10.232C3628.354-608.322,3633.004-603.671,3633.004-598.09"/>
	</defs>
	<clipPath id="SVGID_18_">
		<use xlink:href="#SVGID_17_"  overflow="visible"/>
	</clipPath>
</g>
<g>
	<defs>
		<path id="SVGID_19_" d="M3706.487-455.777c-4.651-13.022-16.743-22.324-30.695-22.324c-6.511,0-12.092,1.86-16.743,4.651
			c-2.79-20.463-20.463-36.276-41.857-36.276c-19.533,0-35.346,13.022-40.927,29.765c-2.791-0.93-4.651-0.93-7.441-0.93
			c-14.883,0-26.975,10.232-28.835,24.184h-4.651c-12.092,0-22.324,10.232-22.324,21.394v1.86c0,12.092,10.232,21.394,22.324,21.394
			h172.079c12.092,0,22.324-10.232,22.324-21.394v-1.86C3728.811-445.545,3718.579-455.777,3706.487-455.777"/>
	</defs>
	<clipPath id="SVGID_20_">
		<use xlink:href="#SVGID_19_"  overflow="visible"/>
	</clipPath>
</g>
<g>
	<defs>
		<path id="SVGID_21_" d="M3706.487-403.688v-13.022c8.371,0,14.883-6.511,14.883-14.882v-1.86c0-8.371-6.511-14.882-14.883-14.882
			h-4.651l-1.861-4.651c-2.79-10.232-13.022-17.673-23.254-17.673c-4.651,0-9.302,0.93-13.022,3.721l-8.371,5.581l-1.861-10.232
			c-2.79-17.673-17.673-30.695-35.346-30.695c-15.813,0-29.765,10.232-34.416,25.114l-1.86,6.511l-6.511-1.86
			c-13.022-3.721-26.044,5.581-27.905,18.603l-0.93,5.581h-10.232c-5.581,0-10.232,2.79-13.022,7.441l-11.162-6.511
			c4.651-8.371,13.952-13.952,24.184-13.952c4.651-15.813,20.464-26.044,37.206-24.184c7.441-17.673,25.114-28.835,45.578-28.835
			c21.394,0,39.997,13.952,46.508,33.486c3.72-0.93,8.371-1.86,12.092-1.86c14.883,0,28.835,9.302,34.416,22.324
			c13.952,1.86,25.114,13.952,25.114,27.905v1.86C3735.321-415.78,3722.299-403.688,3706.487-403.688"/>
	</defs>
	<clipPath id="SVGID_22_">
		<use xlink:href="#SVGID_21_"  overflow="visible"/>
	</clipPath>
</g>
<g>
	<defs>
		<path id="SVGID_23_" d="M3639.516-472.519c-5.581-8.371-14.883-13.022-24.184-13.022c-5.581,0-10.232,0.93-14.883,3.721
			l-7.441-11.162c6.511-3.721,13.952-5.581,21.393-5.581c13.952,0,27.905,7.441,35.346,19.533L3639.516-472.519L3639.516-472.519z"
			/>
	</defs>
	<clipPath id="SVGID_24_">
		<use xlink:href="#SVGID_23_"  overflow="visible"/>
	</clipPath>
</g>
<g>
	<defs>
		<path id="SVGID_25_" d="M3591.147-465.078h-13.022c0-4.651-3.721-8.371-8.371-8.371v-13.022
			C3580.916-486.472,3591.147-477.17,3591.147-465.078"/>
	</defs>
	<clipPath id="SVGID_26_">
		<use xlink:href="#SVGID_25_"  overflow="visible"/>
	</clipPath>
</g>
<g>
	<defs>
		<path id="SVGID_27_" d="M3519.525-280.907c-3.72-10.232-13.952-18.603-25.114-18.603c-4.651,0-10.232,1.86-13.952,3.721
			c-2.79-16.743-16.743-29.765-34.416-29.765c-15.813,0-28.835,10.232-33.486,24.184c-1.86-0.93-3.72-0.93-6.511-0.93
			c-12.092,0-22.323,8.371-24.184,20.463h-3.72c-10.232,0-17.673,8.371-17.673,17.673v0.93c0,10.232,8.371,17.673,17.673,17.673
			h141.384c10.232,0,17.673-8.371,17.673-17.673v-0.93C3537.198-272.536,3529.757-280.907,3519.525-280.907"/>
	</defs>
	<clipPath id="SVGID_28_">
		<use xlink:href="#SVGID_27_"  overflow="visible"/>
	</clipPath>
</g>
<g>
	<defs>
		<path id="SVGID_29_" d="M3403.256-243.701h-25.114c-10.232,0-17.673-8.371-17.673-17.673v-0.93
			c0-10.232,8.371-17.673,17.673-17.673h3.72c1.861-11.162,12.092-20.463,24.184-20.463c1.86,0,4.651,0,6.511,0.93
			c4.651-13.952,17.673-24.184,33.486-24.184c17.673,0,31.625,13.022,34.416,29.765c3.721-2.79,8.371-3.721,13.952-3.721
			c12.092,0,21.394,7.441,24.184,18.603h0.93c10.232,0,17.673,8.371,17.673,17.673v0.93c0,10.232-8.371,17.673-17.673,17.673
			h-116.27L3403.256-243.701z"/>
	</defs>
	<clipPath id="SVGID_30_">
		<use xlink:href="#SVGID_29_"  overflow="visible"/>
	</clipPath>
</g>
<g>
	<defs>
		<rect id="SVGID_31_" x="3353.958" y="-331.136" width="190.682" height="93.946"/>
	</defs>
	<clipPath id="SVGID_32_">
		<use xlink:href="#SVGID_31_"  overflow="visible"/>
	</clipPath>
</g>
<g>
	<defs>
		<path id="SVGID_33_" d="M3500.922-532.049c-2.79-6.511-8.371-12.092-15.813-12.092c-2.791,0-6.511,0.93-8.371,2.79
			c-1.861-10.232-11.162-18.603-22.324-18.603c-10.232,0-18.603,6.511-21.394,15.813l-3.72-0.93
			c-7.441,0-13.952,5.581-14.883,13.022h-2.791c-6.511,0-11.162,5.581-11.162,11.162v0.93c0,6.511,5.581,11.162,11.162,11.162
			h90.225c6.511,0,11.162-5.581,11.162-11.162v-0.93C3512.085-527.398,3507.434-532.049,3500.922-532.049"/>
	</defs>
	<clipPath id="SVGID_34_">
		<use xlink:href="#SVGID_33_"  overflow="visible"/>
	</clipPath>
</g>
<g>
	<defs>
		<path id="SVGID_35_" d="M3427.44-508.795h-15.813c-6.511,0-11.162-5.581-11.162-11.162v-0.93c0-6.511,5.581-11.162,11.162-11.162
			h2.791c0.93-7.441,7.441-13.022,14.883-13.022c0.93,0,2.79,0,3.72,0.93c2.79-9.302,11.162-15.813,21.394-15.813
			c11.162,0,20.463,8.371,22.324,18.603c2.79-1.86,5.581-2.79,8.371-2.79c7.441,0,13.952,4.651,15.813,12.092
			c6.511,0,11.162,5.581,11.162,11.162v0.93c0,6.511-5.581,11.162-11.162,11.162L3427.44-508.795L3427.44-508.795z"/>
	</defs>
	<clipPath id="SVGID_36_">
		<use xlink:href="#SVGID_35_"  overflow="visible"/>
	</clipPath>
</g>
<g>
	<defs>
		<path id="SVGID_37_" d="M3500.922-502.284h-90.225c-10.232,0-18.603-8.371-18.603-17.673c0-10.232,6.511-17.673,15.813-18.603
			c3.72-7.441,11.162-13.022,19.533-13.022c4.651-9.302,14.883-14.883,25.115-14.883c11.162,0,21.393,6.511,26.044,16.743
			c10.232-1.86,20.464,2.79,25.114,12.092c8.371,1.86,13.952,9.302,13.952,17.673
			C3519.526-509.726,3511.154-502.284,3500.922-502.284L3500.922-502.284z M3410.697-525.538c-2.79,0-4.651,1.86-4.651,4.651
			c0,3.721,1.86,5.581,4.651,5.581h90.225c2.79,0,4.651-1.86,4.651-4.651c0-3.721-1.86-5.581-4.651-5.581h-4.651l-1.86-4.651
			c-1.86-5.581-9.302-8.371-13.952-5.581l-8.371,5.581l-1.86-10.232c-0.93-7.441-7.441-13.022-15.813-13.022
			c-6.511,0-13.022,4.651-14.883,11.162l-1.861,6.511l-6.511-1.86c-5.581-1.86-10.232,1.86-11.162,6.511l-0.93,5.581H3410.697
			L3410.697-525.538z"/>
	</defs>
	<clipPath id="SVGID_38_">
		<use xlink:href="#SVGID_37_"  overflow="visible"/>
	</clipPath>
</g>
<g>
	<defs>
		<path id="SVGID_39_" d="M3706.487-393.456h-7.441c-6.511-17.673-23.254-29.765-42.787-29.765h-305.091
			c0,41.857,34.416,75.343,76.273,75.343h279.047c11.162,0,21.393-9.302,21.393-20.463v-3.721
			C3726.95-384.155,3717.649-393.456,3706.487-393.456"/>
	</defs>
	<clipPath id="SVGID_40_">
		<use xlink:href="#SVGID_39_"  overflow="visible"/>
	</clipPath>
</g>
<g>
	<defs>
		<path id="SVGID_41_" d="M3706.487-365.551H3427.44c-36.276,0-66.041-25.114-74.412-57.67h-1.86
			c0,41.857,34.416,75.343,76.273,75.343h279.047c11.162,0,21.394-9.302,21.394-20.463v-3.721c0-2.79-0.93-4.651-0.93-6.511
			C3723.229-371.132,3714.858-365.551,3706.487-365.551"/>
	</defs>
	<clipPath id="SVGID_42_">
		<use xlink:href="#SVGID_41_"  overflow="visible"/>
	</clipPath>
</g>
<g>
	<defs>
		<path id="SVGID_43_" d="M3706.487-340.437H3427.44c-45.577,0-82.784-37.206-82.784-82.784v-6.511h311.602
			c20.464,0,38.136,12.092,47.438,29.765h2.79c14.883,0,27.905,12.092,27.905,27.905v4.651
			C3733.461-353.459,3721.369-340.437,3706.487-340.437z M3358.609-416.71c3.72,35.346,33.486,62.32,68.831,62.32h279.047
			c7.441,0,13.952-6.511,13.952-13.952v-3.721c0-7.441-6.511-13.952-13.952-13.952h-12.092l-1.86-4.651
			c-5.581-14.882-20.464-25.114-36.276-25.114h-297.65V-416.71z"/>
	</defs>
	<clipPath id="SVGID_44_">
		<use xlink:href="#SVGID_43_"  overflow="visible"/>
	</clipPath>
</g>
<g>
	<defs>
		<path id="SVGID_45_" d="M3438.602-399.037h-88.365c-5.581,0-10.232-4.651-10.232-10.232v-3.721
			c0-5.581,4.651-10.232,10.232-10.232h88.365c5.581,0,10.232,4.651,10.232,10.232v3.721
			C3448.833-403.688,3444.183-399.037,3438.602-399.037"/>
	</defs>
	<clipPath id="SVGID_46_">
		<use xlink:href="#SVGID_45_"  overflow="visible"/>
	</clipPath>
</g>
<g>
	<defs>
		<path id="SVGID_47_" d="M3609.75-338.577h-107.898c-5.581,0-10.232-4.651-10.232-10.232v-7.441
			c0-5.581,4.651-10.232,10.232-10.232h107.898c5.581,0,10.232,4.651,10.232,10.232v7.441
			C3620.912-343.228,3616.262-338.577,3609.75-338.577"/>
	</defs>
	<clipPath id="SVGID_48_">
		<use xlink:href="#SVGID_47_"  overflow="visible"/>
	</clipPath>
</g>
<g>
	<defs>
		<path id="SVGID_49_" d="M3438.602-392.526h-88.365c-9.302,0-16.743-7.441-16.743-16.743v-3.721
			c0-9.302,7.441-16.743,16.743-16.743h88.365c9.302,0,16.743,7.441,16.743,16.743v3.721
			C3455.344-399.967,3447.903-392.526,3438.602-392.526z M3350.237-416.71c-1.86,0-3.72,1.86-3.72,3.721v3.721
			c0,1.86,1.86,3.721,3.72,3.721h88.365c1.86,0,3.72-1.86,3.72-3.721v-3.721c0-1.86-1.86-3.721-3.72-3.721H3350.237z"/>
	</defs>
	<clipPath id="SVGID_50_">
		<use xlink:href="#SVGID_49_"  overflow="visible"/>
	</clipPath>
</g>
<g>
	<defs>
		<path id="SVGID_51_" d="M3609.75-332.066h-107.898c-9.302,0-16.743-7.441-16.743-16.743v-7.441
			c0-9.302,7.441-16.743,16.743-16.743h107.898c9.302,0,16.743,7.441,16.743,16.743v7.441
			C3627.423-339.507,3619.052-332.066,3609.75-332.066z M3501.852-359.97c-1.86,0-3.721,1.86-3.721,3.721v7.441
			c0,1.86,1.861,3.721,3.721,3.721h107.898c1.86,0,3.72-1.86,3.72-3.721v-7.441c0-1.86-1.86-3.721-3.72-3.721H3501.852z"/>
	</defs>
	<clipPath id="SVGID_52_">
		<use xlink:href="#SVGID_51_"  overflow="visible"/>
	</clipPath>
</g>
<g>
	<defs>
		<rect id="SVGID_53_" x="3328.843" y="-608.322" width="407.408" height="371.132"/>
	</defs>
	<clipPath id="SVGID_54_">
		<use xlink:href="#SVGID_53_"  overflow="visible"/>
	</clipPath>
</g>
<path fill="#FFFFFF" d="M556.978,373.923L443.499,486.472c-3.721,3.721-9.302,3.721-13.022,0L242.585,298.58
	c-3.721-3.721-3.721-9.302,0-13.022l113.479-112.549c3.721-3.721,9.302-3.721,13.022,0l188.822,188.822
	C560.698,364.621,560.698,370.202,556.978,373.923z"/>
<path fill="#81C99C" d="M253.021,275.745l26.965-26.965l201.258,201.258l-26.965,26.965L253.021,275.745z"/>
<path fill="#81C99C" d="M349.795,274.294l13.813-13.813l135.487,135.487l-13.813,13.813L349.795,274.294z"/>
<path fill="#00984A" d="M402.572,467.869L237.934,303.231c-2.79-2.79-4.651-7.441-4.651-11.162c0-4.651,1.86-8.371,4.651-11.162
	l112.549-113.479c6.511-6.511,16.743-6.511,22.324,0l37.206,37.206l-10.232,10.232l-37.206-37.206c-0.93-0.93-1.86-0.93-2.79,0
	L247.236,290.209c-0.93,0.93-0.93,0.93-0.93,1.86c0,0,0,0.93,0.93,1.86l164.638,163.707L402.572,467.869L402.572,467.869z"/>
<path fill="#D2E9F7" d="M428.616,471.589V176.73c0-10.232,8.371-17.673,17.673-17.673h137.663c10.232,0,17.673,8.371,17.673,17.673
	v294.859c0,10.232-8.371,17.673-17.673,17.673H446.289C436.057,489.262,428.616,481.821,428.616,471.589z"/>
<path fill="#143F90" d="M583.952,496.703H446.289c-13.952,0-25.114-11.162-25.114-25.114V176.73
	c0-13.952,11.162-25.114,25.114-25.114h137.663c13.952,0,25.114,11.162,25.114,25.114v294.859
	C609.067,485.542,597.905,496.703,583.952,496.703z M446.289,165.568c-6.511,0-11.162,4.651-11.162,11.162v294.86
	c0,6.511,4.651,11.162,11.162,11.162h137.663c6.511,0,11.162-4.651,11.162-11.162V176.73c0-6.511-4.651-11.162-11.162-11.162
	H446.289z"/>
<ellipse fill="#FFFFFF" cx="516.07" cy="324.82" rx="58.612" ry="58.612"/>
<path fill="#143F90" d="M516.051,390.666h-0.93c-17.673,0-33.486-7.441-45.578-20.463c-12.092-13.022-18.603-28.835-18.603-46.508
	s7.441-33.486,20.463-45.578c13.022-12.092,28.835-18.603,46.508-18.603c36.276,0.93,65.111,30.695,64.181,66.971
	C581.162,361.831,551.397,390.666,516.051,390.666L516.051,390.666z M516.051,273.466c-13.022,0-26.044,4.651-35.346,13.952
	c-10.232,9.302-15.813,22.324-15.813,36.276c0,13.952,4.651,26.975,13.952,37.206c9.302,10.232,22.324,15.813,36.276,15.813
	c28.835,0.93,52.089-22.324,53.019-50.228c0.93-28.835-22.324-52.089-50.228-53.019L516.051,273.466L516.051,273.466z"/>
<ellipse fill="#FFFFFF" cx="517.548" cy="415.984" rx="15.816" ry="15.816"/>
<ellipse fill="#FFFFFF" cx="517.734" cy="229.721" rx="15.816" ry="15.816"/>
<path fill="#143F90" d="M463.032,245.561H449.08v-29.765c0-5.581,3.721-9.302,9.302-9.302c12.092-0.93,21.394-10.232,22.324-22.324
	c0-5.581,4.651-9.302,9.302-9.302h52.089c4.651,0,9.302,3.721,9.302,9.302c0.93,12.092,10.232,21.394,22.324,22.324
	c4.651,0,9.302,4.651,9.302,9.302v25.114H569.07v-21.394c-15.813-2.79-27.905-14.883-30.695-30.695h-43.717
	c-2.79,15.813-14.882,27.905-30.695,30.695v26.044H463.032z M542.095,470.659h-51.159c-4.651,0-9.302-3.721-9.302-9.302
	c-0.93-12.092-10.232-21.394-22.324-22.324c-5.581,0-9.302-4.651-9.302-9.302v-29.765h13.952v26.044
	c15.813,2.79,27.905,14.882,30.695,30.695h43.717c2.79-15.813,14.883-27.905,30.695-30.695v-21.394h13.952v25.114
	c0,4.651-3.721,9.302-9.302,9.302c-12.092,0.93-21.394,10.232-22.324,22.324C551.397,466.938,546.746,470.659,542.095,470.659
	L542.095,470.659z"/>
<g>
	<path fill="#143F90" d="M491.595,299.805h6.134v22.911h0.211c1.269-1.833,2.538-3.525,3.736-5.076l14.522-17.835h7.613
		l-17.201,20.161l18.541,27.353h-7.262l-15.649-23.334l-4.512,5.217v18.117h-6.134V299.805z"/>
	<path fill="#143F90" d="M528.748,340.974c1.833,1.198,5.076,2.468,8.178,2.468c4.512,0,6.627-2.256,6.627-5.076
		c0-2.961-1.763-4.582-6.345-6.273c-6.133-2.186-9.023-5.569-9.023-9.658c0-5.499,4.441-10.011,11.772-10.011
		c3.454,0,6.485,0.987,8.39,2.115l-1.552,4.512c-1.339-0.846-3.807-1.974-6.979-1.974c-3.666,0-5.71,2.114-5.71,4.652
		c0,2.819,2.044,4.089,6.485,5.78c5.922,2.256,8.953,5.217,8.953,10.293c0,5.992-4.653,10.222-12.76,10.222
		c-3.736,0-7.19-0.917-9.588-2.326L528.748,340.974z"/>
</g>
</svg>
