<?xml version="1.0" encoding="utf-8"?>
<!-- Generator: Adobe Illustrator 17.0.0, SVG Export Plug-In . SVG Version: 6.00 Build 0)  -->
<!DOCTYPE svg PUBLIC "-//W3C//DTD SVG 1.1//EN" "http://www.w3.org/Graphics/SVG/1.1/DTD/svg11.dtd">
<svg version="1.1" id="Layer_1" xmlns="http://www.w3.org/2000/svg" xmlns:xlink="http://www.w3.org/1999/xlink" x="0px" y="0px"
	 width="842.35px" height="595.3px" viewBox="0 0 842.35 595.3" enable-background="new 0 0 842.35 595.3" xml:space="preserve">
<g>
	<path fill="#FFFFFF" d="M570,363.063H272.35c-10.232,0-17.673-8.371-17.673-17.673V140.755c0-10.232,8.371-17.673,17.673-17.673
		H570c10.232,0,17.673,8.371,17.673,17.673V345.39C588.603,355.621,580.232,363.063,570,363.063z"/>
	<path fill="#0D3178" d="M356.064,370.504H270.49c-12.092,0-22.324-10.232-22.324-22.324V138.895
		c0-12.092,10.232-22.324,22.324-22.324h17.673v13.952H270.49c-4.651,0-8.371,3.721-8.371,8.371V348.18
		c0,4.651,3.721,8.371,8.371,8.371h85.574V370.504z"/>
	<path fill="#0D3178" d="M572.79,370.504h-36.276v-13.952h36.276c4.651,0,8.371-3.721,8.371-8.371V138.895
		c0-4.651-3.721-8.371-8.371-8.371H370.016v-13.952H572.79c12.092,0,22.324,10.232,22.324,22.324V348.18
		C595.114,360.272,584.883,370.504,572.79,370.504z"/>
	<path fill="#0D3178" d="M273.42,220.749h13.952v45.578H273.42V220.749z"/>
	<path fill="#D2E9F7" d="M298.394,143.546h243.701v199.053H298.394V143.546z"/>
	<path fill="#0D3178" d="M557.908,258.885c-8.371,0-15.813-7.441-15.813-15.813c0-8.371,7.441-15.813,15.813-15.813
		s15.813,7.441,15.813,15.813C572.79,252.374,566.279,258.885,557.908,258.885z M557.908,242.142c-0.93,0-1.86,0.93-1.86,1.86
		c0,1.86,3.721,1.86,3.721,0C558.838,242.142,558.838,242.142,557.908,242.142z"/>
	<path fill="#0686D8" d="M332.81,270.047l-26.975-26.975l26.044-26.975l10.232,10.232l-16.743,16.743l16.743,17.673L332.81,270.047z
		"/>
	<path fill="#0686D8" d="M506.749,270.047l-10.232-9.302l16.743-17.673l-16.743-16.743l10.232-10.232l26.975,26.975L506.749,270.047
		z"/>
	<path fill="#5FB0E5" d="M363.505,203.076h117.2v80.924h-117.2L363.505,203.076z"/>
	<path fill="#00984A" d="M488.146,290.51H356.994v-94.876h131.152V290.51z M370.947,276.558h103.247v-66.971H370.947V276.558z"/>
	<g>
		<path fill="#FFFFFF" d="M494.657,312.834c-6.511,0-12.092,5.581-12.092,12.092v-13.022c0-6.511-5.581-12.092-12.092-12.092
			s-12.092,5.581-12.092,12.092v-13.022c0-6.511-5.581-12.092-12.092-12.092s-12.092,5.581-12.092,12.092v-39.067
			c0-6.511-5.581-12.092-12.092-12.092s-12.092,5.581-12.092,12.092v78.133H392.34c-4.651,0-8.371,3.721-8.371,8.371v54.879
			c0,4.651,2.79,8.371,6.511,10.232l10.232,4.651c3.721,1.86,6.511,5.581,6.511,10.232v24.184h82.784v-26.975
			c0-2.79,0.93-5.581,2.79-7.441l13.022-12.092c1.86-1.86,3.721-5.581,3.721-8.371v-70.692
			C506.749,318.415,501.169,312.834,494.657,312.834L494.657,312.834z"/>
		<path fill="#0D3178" d="M414.664,360.272h-13.952V259.815c0-10.232,8.371-19.533,19.533-19.533
			c10.232,0,19.533,8.371,19.533,19.533v82.784h-13.952v-82.784c0-2.79-2.79-5.581-5.581-5.581c-2.79,0-5.581,2.79-5.581,5.581
			V360.272L414.664,360.272z"/>
		<path fill="#0D3178" d="M463.962,320.275H450.01v-21.394c0-2.79-2.79-5.581-5.581-5.581s-5.581,2.79-5.581,5.581v21.394h-13.952
			v-21.394c0-10.232,8.371-19.533,19.533-19.533c10.232,0,19.533,8.371,19.533,19.533V320.275z"/>
		<path fill="#0D3178" d="M489.076,341.669h-13.952v-29.765c0-2.79-2.79-5.581-5.581-5.581s-5.581,2.79-5.581,5.581v29.765H450.01
			v-29.765c0-10.232,8.371-19.533,19.533-19.533c10.232,0,19.533,8.371,19.533,19.533V341.669z"/>
		<path fill="#0D3178" d="M494.657,450.497h-13.952v-26.975c0-4.651,1.86-9.302,4.651-12.092l13.022-12.092
			c0.93-0.93,1.86-1.86,1.86-3.721v-70.692c0-2.79-2.79-5.581-5.581-5.581s-5.581,2.79-5.581,5.581v12.092h-13.952v-12.092
			c0-10.232,8.371-19.533,19.533-19.533c10.232,0,19.533,8.371,19.533,19.533v70.692c0,4.651-1.86,10.232-5.581,13.022
			l-13.022,13.022c-0.93,0.93-0.93,0.93-0.93,1.86L494.657,450.497L494.657,450.497z"/>
		<path fill="#0D3178" d="M411.873,450.497h-13.952v-24.184c0-1.86-0.93-3.721-2.79-3.721l-10.232-4.651
			c-6.511-2.79-10.232-9.302-10.232-16.743V346.32c0-8.371,6.511-15.813,15.813-15.813h17.673v13.952H390.48
			c-0.93,0-1.86,0.93-1.86,1.86v54.879c0,1.86,0.93,3.721,2.79,3.721l10.232,4.651c6.511,2.79,10.232,9.302,10.232,16.743V450.497z"
			/>
		<path fill="#00984A" d="M394.2,429.104h106.038v50.228H394.2V429.104z"/>
		<path fill="#0D3178" d="M506.749,479.332h-13.952v-42.787h-92.085v42.787h-13.952v-56.74h119.99V479.332z"/>
	</g>
	<path fill="#0D3178" d="M309.361,116.208l38.118-1.116l0.409,13.943l-38.118,1.116L309.361,116.208z"/>
</g>
</svg>
