<?xml version="1.0" encoding="utf-8"?>
<!-- Generator: Adobe Illustrator 17.0.0, SVG Export Plug-In . SVG Version: 6.00 Build 0)  -->
<!DOCTYPE svg PUBLIC "-//W3C//DTD SVG 1.1//EN" "http://www.w3.org/Graphics/SVG/1.1/DTD/svg11.dtd">
<svg version="1.1" id="Layer_1" xmlns="http://www.w3.org/2000/svg" xmlns:xlink="http://www.w3.org/1999/xlink" x="0px" y="0px"
	 width="842.35px" height="595.3px" viewBox="0 0 842.35 595.3" enable-background="new 0 0 842.35 595.3" xml:space="preserve">
<g id="Layer_1_1_">
	<g>
		<g>
			<g>
				<defs>
					<path id="SVGID_1_" d="M4098.083-424.151h-102.317l-48.368-93.016c-3.72-7.441,1.861-15.813,9.302-15.813h35.346
						c2.79,0,5.581,0.93,7.441,3.721L4098.083-424.151z"/>
				</defs>
				<clipPath id="SVGID_2_">
					<use xlink:href="#SVGID_1_"  overflow="visible"/>
				</clipPath>
			</g>
		</g>
		<g>
			<g>
				<defs>
					<path id="SVGID_3_" d="M4098.083-424.151h-102.317l-48.368-93.016c-3.72-7.441,1.861-15.813,9.302-15.813h35.346
						c2.79,0,5.581,0.93,7.441,3.721L4098.083-424.151z"/>
				</defs>
				<clipPath id="SVGID_4_">
					<use xlink:href="#SVGID_3_"  overflow="visible"/>
				</clipPath>
			</g>
		</g>
		<g>
			<g>
				<defs>
					<path id="SVGID_5_" d="M3968.791-532.979h-11.162c-8.371,0-13.022,8.371-9.302,15.813l48.368,93.016h39.997l-66.041-104.177
						C3968.791-529.259,3968.791-531.119,3968.791-532.979"/>
				</defs>
				<clipPath id="SVGID_6_">
					<use xlink:href="#SVGID_5_"  overflow="visible"/>
				</clipPath>
			</g>
		</g>
		<g>
			<g>
				<defs>
					<path id="SVGID_7_" d="M4119.476-414.85h-129.292l-50.228-98.597c-2.791-6.511-2.791-13.022,0.93-19.533
						c3.72-5.581,10.232-9.302,16.743-9.302h35.346c5.581,0,11.162,1.86,14.883,6.511L4119.476-414.85z M4001.346-432.523h76.273
						l-83.714-90.225l-0.93-0.93h-35.346c-0.93,0-0.93,0-0.93,0.93c0,0.93,0,0.93,0,1.86L4001.346-432.523z"/>
				</defs>
				<clipPath id="SVGID_8_">
					<use xlink:href="#SVGID_7_"  overflow="visible"/>
				</clipPath>
			</g>
		</g>
		<g>
			<g>
				<defs>
					<path id="SVGID_9_" d="M4417.126-238.12c0,8.371-6.511,14.883-15.813,14.883c-8.372,0-15.813-6.511-15.813-14.883
						s6.511-14.883,15.813-14.883S4417.126-246.491,4417.126-238.12"/>
				</defs>
				<clipPath id="SVGID_10_">
					<use xlink:href="#SVGID_9_"  overflow="visible"/>
				</clipPath>
			</g>
		</g>
		<g>
			<g>
				<path id="SVGID_21_" fill="#CCCCCC" d="M4290.625-580.417c0,4.651-3.721,7.441-7.441,7.441c-4.65,0-7.441-3.721-7.441-7.441
					c0-4.651,3.721-7.441,7.441-7.441C4287.834-588.789,4290.625-585.068,4290.625-580.417"/>
			</g>
			<g>
				<defs>
					<path id="SVGID_11_" d="M4290.625-580.417c0,4.651-3.721,7.441-7.441,7.441c-4.65,0-7.441-3.721-7.441-7.441
						c0-4.651,3.721-7.441,7.441-7.441C4287.834-588.789,4290.625-585.068,4290.625-580.417"/>
				</defs>
				<clipPath id="SVGID_12_">
					<use xlink:href="#SVGID_11_"  overflow="visible"/>
				</clipPath>
			</g>
		</g>
		<g>
			<g>
				<path id="SVGID_25_" fill="#CCCCCC" d="M4273.882-279.047c0,4.651-3.721,7.441-7.441,7.441c-4.65,0-7.441-3.721-7.441-7.441
					c0-3.721,3.721-7.441,7.441-7.441C4271.092-286.488,4273.882-282.767,4273.882-279.047"/>
			</g>
			<g>
				<defs>
					<path id="SVGID_13_" d="M4273.882-279.047c0,4.651-3.721,7.441-7.441,7.441c-4.65,0-7.441-3.721-7.441-7.441
						c0-3.721,3.721-7.441,7.441-7.441C4271.092-286.488,4273.882-282.767,4273.882-279.047"/>
				</defs>
				<clipPath id="SVGID_14_">
					<use xlink:href="#SVGID_13_"  overflow="visible"/>
				</clipPath>
			</g>
		</g>
		<g>
			<g>
				<defs>
					<path id="SVGID_15_" d="M4477.586-615.763c0,5.581-4.651,10.232-10.232,10.232s-10.231-4.651-10.231-10.232
						s4.65-10.232,10.231-10.232C4472.936-625.995,4477.586-621.344,4477.586-615.763"/>
				</defs>
				<clipPath id="SVGID_16_">
					<use xlink:href="#SVGID_15_"  overflow="visible"/>
				</clipPath>
			</g>
		</g>
		<g>
			<g>
				<defs>
					<path id="SVGID_17_" d="M4354.806-667.852c0,8.371-6.511,13.952-14.883,13.952c-8.371,0-14.882-6.511-14.882-13.952
						c0-8.371,6.511-13.952,14.882-13.952C4348.295-682.735,4354.806-676.224,4354.806-667.852"/>
				</defs>
				<clipPath id="SVGID_18_">
					<use xlink:href="#SVGID_17_"  overflow="visible"/>
				</clipPath>
			</g>
		</g>
		<g>
			<g>
				<defs>
					<path id="SVGID_19_" d="M4456.192-472.519h-0.93c-5.581-17.673-21.393-30.695-40.927-30.695c-8.371,0-16.743,2.79-23.254,6.511
						c-4.651-27.905-28.835-49.298-57.669-49.298c-26.044,0-48.369,17.673-55.81,40.927c-3.721-0.93-6.511-1.86-10.232-1.86
						c-20.463,0-37.206,14.883-39.997,33.486h-6.511c-16.743,0-29.765,13.022-29.765,29.765v1.86
						c0,16.743,13.953,29.765,29.765,29.765h236.26c16.743,0,29.765-13.022,29.765-29.765v-1.86
						C4485.958-458.567,4472.936-472.519,4456.192-472.519"/>
				</defs>
				<clipPath id="SVGID_20_">
					<use xlink:href="#SVGID_19_"  overflow="visible"/>
				</clipPath>
			</g>
		</g>
		<g>
			<g>
				<defs>
					<path id="SVGID_22_" d="M4456.192-400.897V-419.5c11.162,0,21.394-9.302,21.394-20.463v-1.86
						c0-11.162-9.301-20.463-21.394-20.463h-7.441l-2.791-6.511c-3.72-13.952-17.673-24.184-32.555-24.184
						c-6.511,0-13.022,1.86-18.603,5.581l-12.092,7.441l-1.86-13.952c-3.721-24.184-24.184-41.857-49.298-41.857
						c-21.394,0-40.927,13.952-47.438,34.416l-2.79,8.371l-8.372-1.86c-18.603-4.651-36.276,7.441-39.066,25.114l-0.93,7.441
						h-13.953c-7.441,0-13.952,3.721-17.673,10.232l-15.813-9.302c6.511-12.092,19.533-18.603,33.485-19.533
						c7.441-21.394,27.905-36.276,51.159-33.486c11.162-24.184,34.416-39.997,62.321-39.997c29.765,0,54.879,18.603,64.181,45.578
						c5.581-1.86,11.162-2.79,16.743-2.79c20.463,0,39.997,13.022,47.438,31.625c19.533,2.79,33.486,19.533,33.486,38.136v1.86
						C4495.259-418.57,4477.586-400.897,4456.192-400.897"/>
				</defs>
				<clipPath id="SVGID_23_">
					<use xlink:href="#SVGID_22_"  overflow="visible"/>
				</clipPath>
			</g>
		</g>
		<g>
			<g>
				<defs>
					<path id="SVGID_24_" d="M4363.177-495.773c-7.441-11.162-19.533-17.673-33.485-17.673c-7.441,0-13.953,1.86-20.464,5.581
						l-9.301-15.813c9.301-5.581,19.533-8.371,29.765-8.371c19.533,0,38.136,10.232,48.368,26.044L4363.177-495.773z"/>
				</defs>
				<clipPath id="SVGID_26_">
					<use xlink:href="#SVGID_24_"  overflow="visible"/>
				</clipPath>
			</g>
		</g>
		<g>
			<g>
				<defs>
					<path id="SVGID_27_" d="M4297.136-485.542h-18.603c0-6.511-5.581-12.092-12.092-12.092v-18.603
						C4283.184-515.307,4297.136-502.284,4297.136-485.542"/>
				</defs>
				<clipPath id="SVGID_28_">
					<use xlink:href="#SVGID_27_"  overflow="visible"/>
				</clipPath>
			</g>
		</g>
		<g>
			<g>
				<defs>
					<path id="SVGID_29_" d="M4199.47-233.469h-1.86c-4.651-14.882-17.673-25.114-33.486-25.114c-7.441,0-13.022,1.86-18.603,5.581
						c-3.721-23.254-23.254-40.927-47.438-40.927c-21.394,0-39.997,13.952-45.578,33.486c-2.79-0.93-5.581-0.93-8.371-0.93
						c-16.743,0-29.765,12.092-32.555,27.905h-5.581c-13.952,0-25.114,11.162-25.114,24.184v1.86
						c0,13.952,11.162,24.184,25.114,24.184h193.472c13.953,0,25.115-11.162,25.115-24.184v-1.86
						C4223.653-222.307,4212.492-233.469,4199.47-233.469"/>
				</defs>
				<clipPath id="SVGID_30_">
					<use xlink:href="#SVGID_29_"  overflow="visible"/>
				</clipPath>
			</g>
		</g>
		<g>
			<g>
				<defs>
					<path id="SVGID_31_" d="M4039.483-182.311h-34.416c-13.952,0-25.115-11.162-25.115-24.184v-1.86
						c0-13.952,11.162-24.184,25.115-24.184h5.581c2.791-15.813,15.813-27.905,32.556-27.905c2.79,0,5.581,0,8.371,0.93
						c6.511-19.533,24.184-33.486,45.578-33.486c24.184,0,43.717,17.673,47.438,40.927c5.581-3.721,12.092-5.581,18.603-5.581
						c15.813,0,29.765,10.232,33.486,25.114h0.93c13.952,0,25.114,11.162,25.114,24.184v1.86c0,13.022-11.162,24.184-25.114,24.184
						h-37.207H4039.483z"/>
				</defs>
				<clipPath id="SVGID_32_">
					<use xlink:href="#SVGID_31_"  overflow="visible"/>
				</clipPath>
			</g>
		</g>
		<g>
			<g>
				<defs>
					<rect id="SVGID_33_" x="3971.581" y="-302.301" width="261.374" height="129.292"/>
				</defs>
				<clipPath id="SVGID_34_">
					<use xlink:href="#SVGID_33_"  overflow="visible"/>
				</clipPath>
			</g>
		</g>
		<g>
			<g>
				<defs>
					<path id="SVGID_35_" d="M4173.425-577.627L4173.425-577.627c-3.721-9.302-12.092-15.813-22.324-15.813
						c-4.651,0-8.372,0.93-12.092,3.721c-1.861-14.883-14.883-26.044-29.765-26.044c-13.953,0-25.115,9.302-28.835,21.394
						c-1.86,0-3.72-0.93-5.581-0.93c-10.232,0-19.533,7.441-20.464,17.673h-3.72c-8.371,0-15.813,7.441-15.813,15.813v0.93
						c0,8.371,7.441,15.813,15.813,15.813h123.71c8.372,0,15.813-7.441,15.813-15.813v-0.93
						C4189.238-571.116,4182.727-577.627,4173.425-577.627"/>
				</defs>
				<clipPath id="SVGID_36_">
					<use xlink:href="#SVGID_35_"  overflow="visible"/>
				</clipPath>
			</g>
		</g>
		<g>
			<g>
				<defs>
					<path id="SVGID_37_" d="M4072.038-545.072h-22.323c-8.371,0-15.813-7.441-15.813-15.813v-0.93
						c0-8.371,7.441-15.813,15.813-15.813h3.72c1.86-10.232,10.232-17.673,20.464-17.673c1.86,0,3.72,0,5.581,0.93
						c3.72-12.092,15.813-21.394,28.835-21.394c14.883,0,27.905,11.162,29.765,26.044c3.721-1.86,7.441-3.721,12.092-3.721
						c10.232,0,18.604,6.511,21.394,15.813h0.93c8.372,0,15.813,7.441,15.813,15.813v0.93c0,8.371-7.441,15.813-15.813,15.813
						h-24.184L4072.038-545.072L4072.038-545.072z"/>
				</defs>
				<clipPath id="SVGID_38_">
					<use xlink:href="#SVGID_37_"  overflow="visible"/>
				</clipPath>
			</g>
		</g>
		<g>
			<g>
				<defs>
					<path id="SVGID_39_" d="M4173.425-536.7h-123.711c-13.952,0-25.115-11.162-25.115-25.114s9.302-24.184,21.394-26.044
						c4.651-10.232,14.883-17.673,26.974-17.673c6.511-13.022,20.464-20.463,35.346-20.463c15.813,0,29.765,9.302,36.276,23.254
						c13.953-2.791,27.905,4.651,34.416,15.813c11.162,2.79,18.603,12.092,18.603,24.184
						C4198.54-547.862,4187.377-536.7,4173.425-536.7z M4050.645-568.325c-3.721,0-6.511,2.79-6.511,6.511
						c0,4.651,2.79,7.441,6.511,7.441h123.711c3.721,0,6.511-2.79,6.511-6.511c0-4.651-2.791-7.441-6.511-7.441h-6.511l-2.791-6.511
						c-1.86-8.371-13.022-12.092-19.533-7.441l-12.092,7.441l-1.86-13.952c-1.861-10.232-10.232-17.673-21.394-17.673
						c-9.302,0-17.673,5.581-20.464,14.882l-2.791,8.371l-8.371-1.86c-7.441-1.86-13.952,2.79-14.883,9.302l-0.93,7.441H4050.645z"
						/>
				</defs>
				<clipPath id="SVGID_40_">
					<use xlink:href="#SVGID_39_"  overflow="visible"/>
				</clipPath>
			</g>
		</g>
		<g>
			<g>
				<defs>
					<path id="SVGID_41_" d="M4455.263-387.875h-10.232c-8.371-24.184-31.625-40.927-58.6-40.927h-418.57
						c0,57.67,46.508,104.177,104.178,104.177h263.234h113.479h5.581c15.813,0,28.835-13.022,28.835-28.835v-5.581
						C4484.097-374.853,4471.075-387.875,4455.263-387.875"/>
				</defs>
				<clipPath id="SVGID_42_">
					<use xlink:href="#SVGID_41_"  overflow="visible"/>
				</clipPath>
			</g>
		</g>
		<g>
			<g>
				<defs>
					<path id="SVGID_43_" d="M3971.582-427.872h-2.791c0,57.67,46.508,104.177,104.178,104.177h263.234h112.549h5.581
						c15.813,0,28.835-13.022,28.835-28.835v-5.581c0-3.721-0.93-6.511-1.86-9.302c-3.721,11.162-14.883,19.533-26.975,19.533"/>
				</defs>
				<clipPath id="SVGID_44_">
					<use xlink:href="#SVGID_43_"  overflow="visible"/>
				</clipPath>
			</g>
			<g>
				<defs>
					<path id="SVGID_45_" d="M3971.582-427.872h-2.791c0,57.67,46.508,104.177,104.178,104.177h263.234h112.549h5.581
						c15.813,0,28.835-13.022,28.835-28.835v-5.581c0-3.721-0.93-6.511-1.86-9.302c-3.721,11.162-14.883,19.533-26.975,19.533"/>
				</defs>
				<defs>
					<polyline id="SVGID_46_" points="4455.263,-348.809 4448.751,-348.809 4336.203,-348.809 4072.969,-348.809 					"/>
				</defs>
				<clipPath id="SVGID_47_">
					<use xlink:href="#SVGID_45_"  overflow="visible"/>
				</clipPath>
				<clipPath id="SVGID_48_" clip-path="url(#SVGID_47_)">
					<use xlink:href="#SVGID_46_"  overflow="visible"/>
				</clipPath>
			</g>
		</g>
		<g>
			<g>
				<path id="SVGID_93_" d="M4455.263-315.323h-382.294c-62.321,0-113.479-50.228-113.479-112.549v-9.302h427.872
					c27.904,0,53.019,15.813,64.181,40.927h3.72c21.394,0,38.137,16.743,38.137,38.136v5.581
					C4492.469-332.066,4475.726-315.323,4455.263-315.323z M3978.092-419.5c4.651,48.368,45.578,85.574,94.876,85.574h382.294
					c11.162,0,19.533-8.371,19.533-19.533v-5.581c0-11.162-8.371-19.533-19.533-19.533h-16.743l-1.86-5.581
					c-7.441-20.463-27.905-34.416-50.229-34.416h-408.339V-419.5z"/>
			</g>
			<g>
				<defs>
					<path id="SVGID_49_" d="M4455.263-315.323h-382.294c-62.321,0-113.479-50.228-113.479-112.549v-9.302h427.872
						c27.904,0,53.019,15.813,64.181,40.927h3.72c21.394,0,38.137,16.743,38.137,38.136v5.581
						C4492.469-332.066,4475.726-315.323,4455.263-315.323z M3978.092-419.5c4.651,48.368,45.578,85.574,94.876,85.574h382.294
						c11.162,0,19.533-8.371,19.533-19.533v-5.581c0-11.162-8.371-19.533-19.533-19.533h-16.743l-1.86-5.581
						c-7.441-20.463-27.905-34.416-50.229-34.416h-408.339V-419.5z"/>
				</defs>
				<clipPath id="SVGID_50_">
					<use xlink:href="#SVGID_49_"  overflow="visible"/>
				</clipPath>
			</g>
		</g>
		<g>
			<g>
				<defs>
					<path id="SVGID_51_" d="M4087.851-395.316h-120.92c-8.371,0-13.952-6.511-13.952-13.952v-4.651
						c0-7.441,6.511-13.952,13.952-13.952h120.92c8.371,0,13.952,6.511,13.952,13.952v4.651
						C4101.803-401.827,4095.292-395.316,4087.851-395.316"/>
				</defs>
				<clipPath id="SVGID_52_">
					<use xlink:href="#SVGID_51_"  overflow="visible"/>
				</clipPath>
			</g>
		</g>
		<g>
			<g>
				<defs>
					<path id="SVGID_53_" d="M4323.18-312.532h-147.895c-8.372,0-13.953-6.511-13.953-13.952v-10.232
						c0-7.441,6.511-13.952,13.953-13.952h147.895c8.372,0,13.953,6.511,13.953,13.952v10.232
						C4337.133-319.044,4331.552-312.532,4323.18-312.532"/>
				</defs>
				<clipPath id="SVGID_54_">
					<use xlink:href="#SVGID_53_"  overflow="visible"/>
				</clipPath>
			</g>
		</g>
		<g>
			<g>
				<defs>
					<path id="SVGID_55_" d="M4087.851-386.015h-120.92c-13.022,0-23.254-10.232-23.254-23.254v-4.651
						c0-13.022,10.232-23.254,23.254-23.254h120.92c13.022,0,23.254,10.232,23.254,23.254v4.651
						C4111.105-396.247,4100.873-386.015,4087.851-386.015z M3966.931-419.5c-2.79,0-5.581,1.86-5.581,5.581v4.651
						c0,2.79,2.79,5.581,5.581,5.581h120.92c2.79,0,5.581-1.86,5.581-5.581v-4.651c0-2.79-1.86-5.581-5.581-5.581H3966.931z"/>
				</defs>
				<clipPath id="SVGID_56_">
					<use xlink:href="#SVGID_55_"  overflow="visible"/>
				</clipPath>
			</g>
		</g>
		<g>
			<g>
				<defs>
					<path id="SVGID_57_" d="M4323.18-303.231h-147.895c-13.022,0-23.254-10.232-23.254-23.254v-10.232
						c0-13.022,10.232-23.254,23.254-23.254h147.895c13.022,0,23.254,10.232,23.254,23.254v10.232
						C4346.434-313.463,4336.203-303.231,4323.18-303.231z M4175.286-342.297c-2.791,0-5.581,1.86-5.581,5.581v10.232
						c0,2.79,2.791,5.581,5.581,5.581h147.895c2.791,0,5.581-1.86,5.581-5.581v-10.232c0-2.79-2.79-5.581-5.581-5.581H4175.286z"/>
				</defs>
				<clipPath id="SVGID_58_">
					<use xlink:href="#SVGID_57_"  overflow="visible"/>
				</clipPath>
			</g>
		</g>
		<g>
			<g>
				<defs>
					<rect id="SVGID_59_" x="3937.166" y="-682.735" width="558.094" height="508.795"/>
				</defs>
				<clipPath id="SVGID_60_">
					<use xlink:href="#SVGID_59_"  overflow="visible"/>
				</clipPath>
			</g>
		</g>
	</g>
	<g id="XMLID_784_">
		<g id="XMLID_770_">
			<rect id="XMLID_225_" x="196.077" y="42.787" fill="#0D3178" width="23.254" height="65.111"/>
		</g>
		<g id="XMLID_769_">
			<rect id="XMLID_224_" x="223.982" y="69.762" fill="#0D3178" width="23.254" height="65.111"/>
		</g>
		<g id="XMLID_768_">
			<polygon id="XMLID_752_" fill="#CCCCCC" points="356.994,502.284 305.836,502.284 253.747,559.024 304.905,559.024 			"/>
		</g>
		<g id="XMLID_766_">
			<path id="XMLID_221_" fill="#0D3178" d="M304.905,570.186h-55.809l-4.651-7.441c-1.86-4.651-0.93-10.232,1.86-13.952
				l53.949-57.67h83.714l-72.552,79.063H304.905z M279.791,546.932h20.463l30.695-32.555h-20.463L279.791,546.932z"/>
		</g>
		<g id="XMLID_765_">
			<polygon fill="#CCCCCC" points="590.463,559.024 538.375,559.024 487.216,502.284 538.375,502.284 			"/>
		</g>
		<g id="XMLID_763_">
			<path id="XMLID_218_" fill="#0D3178" d="M587.673,570.186h-53.949l-4.651-3.721l-69.762-75.343h82.784l58.6,63.251l-2.79,8.371
				C596.975,567.395,593.254,570.186,587.673,570.186z M543.956,546.932h20.463l-30.695-32.555H513.26L543.956,546.932z"/>
		</g>
		<g id="XMLID_762_">
			<circle id="XMLID_753_" fill="#FFFFFF" cx="435.127" cy="338.577" r="220.447"/>
		</g>
		<g id="XMLID_761_">
			<circle id="XMLID_756_" fill="#6DCFF6" cx="435.127" cy="338.577" r="153.476"/>
		</g>
		<g id="XMLID_760_">
			<circle id="XMLID_757_" fill="#FFFFFF" cx="435.127" cy="338.577" r="98.597"/>
		</g>
		<g id="XMLID_759_">
			<path id="XMLID_758_" fill="#ABE0F9" d="M476.054,338.577c0,22.324-18.603,40.927-40.927,40.927S394.2,360.901,394.2,338.577
				s18.603-40.927,40.927-40.927C457.451,297.65,476.054,316.253,476.054,338.577z"/>
		</g>
		<g id="XMLID_751_">
			<path id="XMLID_217_" fill="#0D3178" d="M435.127,504.145c-91.155,0-165.568-74.413-165.568-165.568
				c0-31.625,8.371-61.39,25.114-88.365l19.533,12.092c-13.952,22.324-21.394,49.298-21.394,75.343
				c0,78.133,64.181,142.314,142.314,142.314s142.314-64.181,142.314-142.314S513.26,195.333,435.127,195.333
				c-34.416,0-54.879,6.511-77.203,23.254l-13.952-18.603c26.044-19.533,52.089-27.905,91.155-27.905
				c91.155,0,165.568,74.413,165.568,165.568S526.283,504.145,435.127,504.145z"/>
		</g>
		<g id="XMLID_767_">
			<path id="XMLID_216_" fill="#0D3178" d="M435.127,391.596c-28.835,0-53.019-23.254-53.019-53.019h23.254
				c0,16.743,13.022,29.765,29.765,29.765c16.743,0,29.765-13.022,29.765-29.765s-13.022-29.765-29.765-29.765v-23.254
				c28.835,0,53.019,23.254,53.019,53.019C487.216,367.412,463.962,391.596,435.127,391.596z"/>
		</g>
		<g id="XMLID_771_">
			<path id="XMLID_215_" fill="#0D3178" d="M251.887,238.12l-20.463-11.162c6.511-11.162,13.952-22.324,22.324-32.555l17.673,14.883
				C264.909,217.657,257.467,227.888,251.887,238.12z"/>
		</g>
		<g id="XMLID_772_">
			<path id="XMLID_214_" fill="#0D3178" d="M227.702,318.113l-23.254-1.86c1.86-21.394,7.441-42.787,14.883-62.32l21.394,8.371
				C233.283,279.977,229.563,298.58,227.702,318.113z"/>
		</g>
		<g id="XMLID_773_">
			<path id="XMLID_213_" fill="#0D3178" d="M435.127,570.186c-127.431,0-231.609-104.177-231.609-231.609h22.324
				c0,115.339,93.946,208.355,208.355,208.355s208.355-93.946,208.355-208.355s-93.016-208.355-207.425-208.355
				c-42.787,0-84.644,13.022-119.99,38.136l-13.022-18.603c39.067-27.905,85.574-41.857,133.012-41.857
				c127.431,0,231.609,104.177,231.609,231.609S562.559,570.186,435.127,570.186z"/>
		</g>
		<g id="XMLID_774_">
			
				<rect id="XMLID_1595_" x="302.017" y="38.489" transform="matrix(-0.7071 0.7071 -0.7071 -0.7071 687.9341 146.4133)" fill="#0D3178" width="23.254" height="354.386"/>
		</g>
		<g id="XMLID_775_">
			<rect id="XMLID_1594_" x="250.956" y="100.457" fill="#0D3178" width="23.254" height="65.111"/>
		</g>
		<g id="XMLID_776_">
			<rect id="XMLID_1593_" x="197.937" y="154.406" fill="#0D3178" width="65.111" height="23.254"/>
		</g>
		<g id="XMLID_777_">
			<rect id="XMLID_1592_" x="170.033" y="127.431" fill="#0D3178" width="65.111" height="23.254"/>
		</g>
		<g id="XMLID_778_">
			<rect id="XMLID_1591_" x="142.128" y="100.457" fill="#0D3178" width="65.111" height="23.254"/>
		</g>
	</g>
	<g>
		<g>
			<g>
				<g>
					<defs>
						<path id="SVGID_61_" d="M3613.471,547.862h-429.732c-7.441,0-13.022-5.581-13.022-13.022V231.609
							c0-7.441,5.581-13.022,13.022-13.022h429.732c7.441,0,13.022,5.581,13.022,13.022V534.84
							C3626.493,542.281,3619.982,547.862,3613.471,547.862"/>
					</defs>
					<clipPath id="SVGID_62_">
						<use xlink:href="#SVGID_61_"  overflow="visible"/>
					</clipPath>
				</g>
			</g>
			<g>
				<g>
					<defs>
						<path id="SVGID_63_" d="M3618.122,554.373h-433.453c-12.092,0-21.394-9.302-21.394-21.394V387.875h19.533V532.98l0.93,1.86
							h433.453l1.86-1.86V226.958l-1.86-1.86h-156.266v-19.533h156.266c12.092,0,21.394,9.302,21.394,21.394V532.98
							C3639.516,545.072,3629.284,554.373,3618.122,554.373"/>
					</defs>
					<clipPath id="SVGID_64_">
						<use xlink:href="#SVGID_63_"  overflow="visible"/>
					</clipPath>
				</g>
			</g>
			<g>
				<g>
					<defs>
						<rect id="SVGID_65_" x="3194.901" y="243.701" width="412.059" height="266.025"/>
					</defs>
					<clipPath id="SVGID_66_">
						<use xlink:href="#SVGID_65_"  overflow="visible"/>
					</clipPath>
				</g>
			</g>
			<g>
				<g>
					<defs>
						<path id="SVGID_67_" d="M3618.122,567.395h-442.754c-10.232,0-19.533-7.441-21.394-18.603l-2.79-19.533h205.564l7.441,11.162
							h56.74l8.371-11.162h216.726l-2.791,16.743C3640.446,558.094,3630.214,567.395,3618.122,567.395"/>
					</defs>
					<clipPath id="SVGID_68_">
						<use xlink:href="#SVGID_67_"  overflow="visible"/>
					</clipPath>
				</g>
			</g>
			<g>
				<g>
					<defs>
						<path id="SVGID_69_" d="M3619.052,573.906h-444.615c-15.813,0-28.835-11.162-31.625-26.044l-4.651-30.695h223.238
							l7.441,11.162h46.508l8.371-11.162h234.399l-4.651,27.905C3650.677,561.814,3636.725,573.906,3619.052,573.906z
							 M3161.415,535.77l0.93,7.441c0.93,5.581,5.581,10.232,12.092,10.232h444.615c7.441,0,13.952-5.581,14.883-12.092l0.93-5.581
							h-200.914l-8.371,11.162h-66.971l-7.441-11.162H3161.415z"/>
					</defs>
					<clipPath id="SVGID_70_">
						<use xlink:href="#SVGID_69_"  overflow="visible"/>
					</clipPath>
				</g>
			</g>
			<g>
				<g>
					<defs>
						<path id="SVGID_71_" d="M3409.767,358.11h-269.745c-14.883,0-26.974-12.092-26.974-26.975v-181.38
							c0-14.883,12.092-26.975,26.974-26.975h269.745c14.883,0,26.974,12.092,26.974,26.975v181.38
							C3435.811,346.018,3424.649,358.11,3409.767,358.11"/>
					</defs>
					<clipPath id="SVGID_72_">
						<use xlink:href="#SVGID_71_"  overflow="visible"/>
					</clipPath>
				</g>
			</g>
			<g>
				<g>
					<defs>
						<path id="SVGID_73_" d="M3113.047,173.939v-34.416c0-9.302,7.441-16.743,15.813-16.743h291.139
							c9.302,0,15.813,7.441,15.813,16.743v34.416H3113.047"/>
					</defs>
					<clipPath id="SVGID_74_">
						<use xlink:href="#SVGID_73_"  overflow="visible"/>
					</clipPath>
				</g>
			</g>
			<g>
				<g>
					<defs>
						<path id="SVGID_75_" d="M3421.859,370.202h-295.79c-14.883,0-26.975-12.092-26.975-26.044V143.244
							c0-13.952,12.092-26.044,26.975-26.044h43.717v19.533h-43.717c-3.721,0-6.511,2.79-6.511,6.511v200.914
							c0,3.721,2.79,6.511,6.511,6.511h295.79c3.72,0,6.511-2.79,6.511-6.511V143.244c0-3.721-2.791-6.511-6.511-6.511h-195.333
							V117.2h195.333c14.883,0,26.974,12.092,26.974,26.044v200.914C3448.833,359.04,3436.742,370.202,3421.859,370.202"/>
					</defs>
					<clipPath id="SVGID_76_">
						<use xlink:href="#SVGID_75_"  overflow="visible"/>
					</clipPath>
				</g>
			</g>
			<g>
				<g>
					<defs>
						<rect id="SVGID_77_" x="3182.809" y="117.2" width="25.114" height="18.603"/>
					</defs>
					<clipPath id="SVGID_78_">
						<use xlink:href="#SVGID_77_"  overflow="visible"/>
					</clipPath>
				</g>
			</g>
			<g>
				<g>
					<defs>
						<rect id="SVGID_79_" x="3113.047" y="167.428" width="323.694" height="18.603"/>
					</defs>
					<clipPath id="SVGID_80_">
						<use xlink:href="#SVGID_79_"  overflow="visible"/>
					</clipPath>
				</g>
			</g>
			<g>
				<g>
					<defs>
						<rect id="SVGID_81_" x="3144.672" y="142.314" width="12.092" height="18.603"/>
					</defs>
					<clipPath id="SVGID_82_">
						<use xlink:href="#SVGID_81_"  overflow="visible"/>
					</clipPath>
				</g>
			</g>
			<g>
				<g>
					<defs>
						<rect id="SVGID_83_" x="3176.298" y="142.314" width="12.092" height="18.603"/>
					</defs>
					<clipPath id="SVGID_84_">
						<use xlink:href="#SVGID_83_"  overflow="visible"/>
					</clipPath>
				</g>
			</g>
			<g>
				<g>
					<defs>
						<rect id="SVGID_85_" x="3207.923" y="142.314" width="12.092" height="18.603"/>
					</defs>
					<clipPath id="SVGID_86_">
						<use xlink:href="#SVGID_85_"  overflow="visible"/>
					</clipPath>
				</g>
			</g>
			<g>
				<g>
					<polyline id="SVGID_195_" fill="#CCCCCC" points="3207.923,265.095 3207.923,254.863 3246.06,237.19 3246.06,248.352 
						3220.945,259.514 3246.06,270.676 3246.06,281.837 3207.923,265.095 					"/>
				</g>
				<g>
					<defs>
						<polyline id="SVGID_87_" points="3207.923,265.095 3207.923,254.863 3246.06,237.19 3246.06,248.352 3220.945,259.514 
							3246.06,270.676 3246.06,281.837 3207.923,265.095 						"/>
					</defs>
					<clipPath id="SVGID_88_">
						<use xlink:href="#SVGID_87_"  overflow="visible"/>
					</clipPath>
					<g clip-path="url(#SVGID_88_)">
						<g>
							<rect id="SVGID_197_" x="-3730.112" y="-929.226" fill="#CCCCCC" width="8663.476" height="4521.49"/>
						</g>
					</g>
				</g>
			</g>
			<g>
				<g>
					<polyline id="SVGID_199_" fill="#CCCCCC" points="3280.475,225.098 3290.707,225.098 3261.872,288.348 3252.571,288.348 
						3280.475,225.098 					"/>
				</g>
				<g>
					<defs>
						<polyline id="SVGID_89_" points="3280.475,225.098 3290.707,225.098 3261.872,288.348 3252.571,288.348 3280.475,225.098 
													"/>
					</defs>
					<clipPath id="SVGID_90_">
						<use xlink:href="#SVGID_89_"  overflow="visible"/>
					</clipPath>
					<g clip-path="url(#SVGID_90_)">
						<g>
							<rect id="SVGID_201_" x="-3730.112" y="-929.226" fill="#CCCCCC" width="8663.476" height="4521.49"/>
						</g>
					</g>
				</g>
			</g>
			<g>
				<g>
					<polyline id="SVGID_203_" fill="#CCCCCC" points="3340.935,254.863 3340.935,265.095 3302.799,281.837 3302.799,270.676 
						3327.913,259.514 3302.799,248.352 3302.799,237.19 3340.935,254.863 					"/>
				</g>
				<g>
					<defs>
						<polyline id="SVGID_91_" points="3340.935,254.863 3340.935,265.095 3302.799,281.837 3302.799,270.676 3327.913,259.514 
							3302.799,248.352 3302.799,237.19 3340.935,254.863 						"/>
					</defs>
					<clipPath id="SVGID_92_">
						<use xlink:href="#SVGID_91_"  overflow="visible"/>
					</clipPath>
					<g clip-path="url(#SVGID_92_)">
						<g>
							<rect id="SVGID_205_" x="-3730.112" y="-929.226" fill="#CCCCCC" width="8663.476" height="4521.49"/>
						</g>
					</g>
				</g>
			</g>
			<g>
				<g>
					<defs>
						<rect id="SVGID_94_" x="3461.855" y="275.326" width="107.898" height="18.603"/>
					</defs>
					<clipPath id="SVGID_95_">
						<use xlink:href="#SVGID_94_"  overflow="visible"/>
					</clipPath>
				</g>
			</g>
			<g>
				<g>
					<defs>
						<rect id="SVGID_96_" x="3493.481" y="319.974" width="38.136" height="18.603"/>
					</defs>
					<clipPath id="SVGID_97_">
						<use xlink:href="#SVGID_96_"  overflow="visible"/>
					</clipPath>
				</g>
			</g>
			<g>
				<g>
					<defs>
						<rect id="SVGID_98_" x="3353.958" y="376.713" width="107.898" height="18.603"/>
					</defs>
					<clipPath id="SVGID_99_">
						<use xlink:href="#SVGID_98_"  overflow="visible"/>
					</clipPath>
				</g>
			</g>
			<g>
				<g>
					<defs>
						<rect id="SVGID_100_" x="3480.459" y="376.713" width="56.74" height="18.603"/>
					</defs>
					<clipPath id="SVGID_101_">
						<use xlink:href="#SVGID_100_"  overflow="visible"/>
					</clipPath>
				</g>
			</g>
			<g>
				<g>
					<defs>
						<rect id="SVGID_102_" x="3315.821" y="376.713" width="18.603" height="18.603"/>
					</defs>
					<clipPath id="SVGID_103_">
						<use xlink:href="#SVGID_102_"  overflow="visible"/>
					</clipPath>
				</g>
			</g>
			<g>
				<g>
					<defs>
						<rect id="SVGID_104_" x="3220.945" y="414.85" width="107.898" height="18.603"/>
					</defs>
					<clipPath id="SVGID_105_">
						<use xlink:href="#SVGID_104_"  overflow="visible"/>
					</clipPath>
				</g>
			</g>
			<g>
				<g>
					<defs>
						<rect id="SVGID_106_" x="3290.707" y="459.497" width="107.898" height="18.603"/>
					</defs>
					<clipPath id="SVGID_107_">
						<use xlink:href="#SVGID_106_"  overflow="visible"/>
					</clipPath>
				</g>
			</g>
			<g>
				<g>
					<defs>
						<rect id="SVGID_108_" x="3423.719" y="459.497" width="56.74" height="18.603"/>
					</defs>
					<clipPath id="SVGID_109_">
						<use xlink:href="#SVGID_108_"  overflow="visible"/>
					</clipPath>
				</g>
			</g>
		</g>
	</g>
</g>
<g id="specctr">
	<g id="Text_Properties">
	</g>
</g>
</svg>
