<?xml version="1.0" encoding="utf-8"?>
<!-- Generator: Adobe Illustrator 17.0.0, SVG Export Plug-In . SVG Version: 6.00 Build 0)  -->
<!DOCTYPE svg PUBLIC "-//W3C//DTD SVG 1.1//EN" "http://www.w3.org/Graphics/SVG/1.1/DTD/svg11.dtd">
<svg version="1.1" id="Layer_1" xmlns="http://www.w3.org/2000/svg" xmlns:xlink="http://www.w3.org/1999/xlink" x="0px" y="0px"
	 width="842.35px" height="595.3px" viewBox="0 0 842.35 595.3" enable-background="new 0 0 842.35 595.3" xml:space="preserve">
<g>
	
		<path id="XMLID_1141_" fill="#FFFFFF" stroke="#171C28" stroke-width="5" stroke-linecap="round" stroke-linejoin="round" stroke-miterlimit="10" d="
		M409.083,424.151l92.085-28.835c0,0,11.162-3.721,17.673,5.581c5.581,10.232-3.721,17.673-14.882,23.254
		c-10.232,5.581-120.92,64.181-120.92,64.181s-15.813,10.232-29.765,6.511c-14.883-3.721-88.365-35.346-88.365-35.346h-34.416"/>
	
		<path id="XMLID_1140_" fill="#FFFFFF" stroke="#171C28" stroke-width="5" stroke-linecap="round" stroke-linejoin="round" stroke-miterlimit="10" d="
		M229.563,381.364h49.298l66.041,23.254H394.2c0,0,12.092,0,13.022,10.232c0,0,0.93,13.952-10.232,15.813H331.88l-14.883,9.302"/>
	
		<polyline id="XMLID_1139_" fill="#0D3178" stroke="#171C28" stroke-linecap="round" stroke-linejoin="round" stroke-miterlimit="10" points="
		156.08,361.831 229.563,361.831 229.563,479.03 156.08,479.03 	"/>
	<g id="XMLID_1120_">
		
			<path id="XMLID_1138_" fill="#FFFFFF" stroke="#171C28" stroke-width="5" stroke-linecap="round" stroke-linejoin="round" stroke-miterlimit="10" d="
			M394.2,213.936l58.6-53.019h70.692l34.416,11.162h66.041v86.505h-26.975c0,0-33.486,28.835-77.203,24.184"/>
		<g id="XMLID_1135_">
			
				<rect id="XMLID_1137_" x="260.258" y="232.539" fill="#FFFFFF" stroke="#171C28" stroke-width="5" stroke-linecap="round" stroke-linejoin="round" stroke-miterlimit="10" width="259.514" height="133.012"/>
			
				<rect id="XMLID_1136_" x="257.467" y="244.631" fill="#FFFFFF" stroke="#4C5C68" stroke-width="5" stroke-linecap="round" stroke-linejoin="round" stroke-miterlimit="10" width="245.561" height="99.527"/>
		</g>
		<g id="XMLID_1132_">
			
				<rect id="XMLID_1134_" x="253.747" y="213.936" fill="#FFFFFF" stroke="#171C28" stroke-width="5" stroke-linecap="round" stroke-linejoin="round" stroke-miterlimit="10" width="249.282" height="132.082"/>
		</g>
		<g id="XMLID_1129_">
			
				<path id="XMLID_1130_" fill="#FFFFFF" stroke="#171C28" stroke-width="5" stroke-linecap="round" stroke-linejoin="round" stroke-miterlimit="10" d="
				M476.054,288.348L476.054,288.348c-2.79,1.86-4.651,2.79-7.441,2.79c-6.511,0-12.092-5.581-12.092-12.092
				c0-6.511,5.581-12.092,12.092-12.092s12.092,5.581,12.092,12.092c0,1.86,0,3.721-0.93,4.651"/>
		</g>
		
			<path id="XMLID_1128_" fill="#FFFFFF" stroke="#171C28" stroke-width="5" stroke-linecap="round" stroke-linejoin="round" stroke-miterlimit="10" d="
			M484.426,200.914l-45.578,45.578c0,0-13.022,27.905,27.905,27.905l41.857-41.857c0,0,39.067,3.721,70.692-29.765"/>
		
			<polyline id="XMLID_1127_" fill="#0D3178" stroke="#171C28" stroke-linecap="round" stroke-linejoin="round" stroke-miterlimit="10" points="
			705.803,277.187 623.949,277.187 623.949,151.615 705.803,151.615 		"/>
		<g id="XMLID_1121_">
			
				<path id="XMLID_1122_" fill="#FFFFFF" stroke="#171C28" stroke-width="5" stroke-linecap="round" stroke-linejoin="round" stroke-miterlimit="10" d="
				M294.674,288.348C294.674,288.348,293.744,288.348,294.674,288.348c-2.79,1.86-4.651,2.79-7.441,2.79
				c-6.511,0-12.092-5.581-12.092-12.092c0-6.511,5.581-12.092,12.092-12.092c6.511,0,12.092,5.581,12.092,12.092
				c0,1.86,0,3.721-0.93,4.651"/>
		</g>
		<g id="XMLID_135_">
			
				<ellipse id="XMLID_494_" fill="#FFFFFF" stroke="#171C28" stroke-width="5" stroke-linecap="round" stroke-linejoin="round" stroke-miterlimit="10" cx="378.388" cy="279.977" rx="37.206" ry="37.206"/>
			<ellipse id="XMLID_493_" fill="#00984A" cx="378.388" cy="279.977" rx="28.835" ry="28.835"/>
			<text transform="matrix(1 0 0 1 361.5232 291.9392)" fill="#FFFFFF" font-family="'MyriadPro-Regular'" font-size="36.839">Ks</text>
		</g>
	</g>
</g>
</svg>
