<?xml version="1.0" encoding="utf-8"?>
<!-- Generator: Adobe Illustrator 17.0.0, SVG Export Plug-In . SVG Version: 6.00 Build 0)  -->
<!DOCTYPE svg PUBLIC "-//W3C//DTD SVG 1.1//EN" "http://www.w3.org/Graphics/SVG/1.1/DTD/svg11.dtd">
<svg version="1.1" id="Layer_1" xmlns="http://www.w3.org/2000/svg" xmlns:xlink="http://www.w3.org/1999/xlink" x="0px" y="0px"
	 width="842.35px" height="595.3px" viewBox="0 0 842.35 595.3" enable-background="new 0 0 842.35 595.3" xml:space="preserve">
<g id="Layer_1_1_">
	<g>
		<g>
			<g>
				<defs>
					<path id="SVGID_1_" d="M4777.097,301.371h-102.317l-48.368-93.016c-3.721-7.441,1.86-15.813,9.301-15.813h35.346
						c2.79,0,5.581,0.93,7.441,3.721L4777.097,301.371z"/>
				</defs>
				<clipPath id="SVGID_2_">
					<use xlink:href="#SVGID_1_"  overflow="visible"/>
				</clipPath>
			</g>
		</g>
		<g>
			<g>
				<defs>
					<path id="SVGID_3_" d="M4777.097,301.371h-102.317l-48.368-93.016c-3.721-7.441,1.86-15.813,9.301-15.813h35.346
						c2.79,0,5.581,0.93,7.441,3.721L4777.097,301.371z"/>
				</defs>
				<clipPath id="SVGID_4_">
					<use xlink:href="#SVGID_3_"  overflow="visible"/>
				</clipPath>
			</g>
		</g>
		<g>
			<g>
				<defs>
					<path id="SVGID_5_" d="M4647.805,192.542h-11.162c-8.372,0-13.022,8.371-9.302,15.813l48.368,93.016h39.997l-66.041-104.178
						C4647.805,196.263,4647.805,194.403,4647.805,192.542"/>
				</defs>
				<clipPath id="SVGID_6_">
					<use xlink:href="#SVGID_5_"  overflow="visible"/>
				</clipPath>
			</g>
		</g>
		<g>
			<g>
				<defs>
					<path id="SVGID_7_" d="M4798.49,310.672h-129.292l-50.229-98.597c-2.791-6.511-2.791-13.022,0.93-19.533
						c3.721-5.581,10.232-9.302,16.743-9.302h35.346c5.581,0,11.162,1.86,14.883,6.511L4798.49,310.672z M4680.36,292.999h76.273
						l-83.714-90.225l-0.93-0.93h-35.346c-0.93,0-0.93,0-0.93,0.93s0,0.93,0,1.86L4680.36,292.999z"/>
				</defs>
				<clipPath id="SVGID_8_">
					<use xlink:href="#SVGID_7_"  overflow="visible"/>
				</clipPath>
			</g>
		</g>
		<g>
			<g>
				<defs>
					<path id="SVGID_9_" d="M5096.14,487.402c0,8.371-6.511,14.882-15.813,14.882c-8.372,0-15.813-6.511-15.813-14.882
						c0-8.371,6.511-14.883,15.813-14.883C5089.629,472.519,5096.14,479.03,5096.14,487.402"/>
				</defs>
				<clipPath id="SVGID_10_">
					<use xlink:href="#SVGID_9_"  overflow="visible"/>
				</clipPath>
			</g>
		</g>
		<g>
			<g>
				<path id="SVGID_21_" fill="#CCCCCC" d="M4969.639,145.104c0,4.651-3.721,7.441-7.441,7.441c-4.651,0-7.441-3.721-7.441-7.441
					s3.721-7.441,7.441-7.441C4966.849,136.733,4969.639,140.454,4969.639,145.104"/>
			</g>
			<g>
				<defs>
					<path id="SVGID_11_" d="M4969.639,145.104c0,4.651-3.721,7.441-7.441,7.441c-4.651,0-7.441-3.721-7.441-7.441
						s3.721-7.441,7.441-7.441C4966.849,136.733,4969.639,140.454,4969.639,145.104"/>
				</defs>
				<clipPath id="SVGID_12_">
					<use xlink:href="#SVGID_11_"  overflow="visible"/>
				</clipPath>
			</g>
		</g>
		<g>
			<g>
				<path id="SVGID_25_" fill="#CCCCCC" d="M4952.896,446.475c0,4.651-3.721,7.441-7.441,7.441c-4.651,0-7.441-3.721-7.441-7.441
					c0-4.651,3.721-7.441,7.441-7.441C4950.106,439.034,4952.896,442.754,4952.896,446.475"/>
			</g>
			<g>
				<defs>
					<path id="SVGID_13_" d="M4952.896,446.475c0,4.651-3.721,7.441-7.441,7.441c-4.651,0-7.441-3.721-7.441-7.441
						c0-4.651,3.721-7.441,7.441-7.441C4950.106,439.034,4952.896,442.754,4952.896,446.475"/>
				</defs>
				<clipPath id="SVGID_14_">
					<use xlink:href="#SVGID_13_"  overflow="visible"/>
				</clipPath>
			</g>
		</g>
		<g>
			<g>
				<defs>
					<path id="SVGID_15_" d="M5156.6,109.758c0,5.581-4.651,10.232-10.231,10.232s-10.231-4.651-10.231-10.232
						s4.651-10.232,10.231-10.232S5156.6,104.178,5156.6,109.758"/>
				</defs>
				<clipPath id="SVGID_16_">
					<use xlink:href="#SVGID_15_"  overflow="visible"/>
				</clipPath>
			</g>
		</g>
		<g>
			<g>
				<defs>
					<path id="SVGID_17_" d="M5033.82,57.67c0,8.371-6.511,13.952-14.882,13.952c-8.372,0-14.882-6.511-14.882-13.952
						c0-8.371,6.511-13.952,14.882-13.952C5027.309,42.787,5033.82,49.298,5033.82,57.67"/>
				</defs>
				<clipPath id="SVGID_18_">
					<use xlink:href="#SVGID_17_"  overflow="visible"/>
				</clipPath>
			</g>
		</g>
		<g>
			<g>
				<defs>
					<path id="SVGID_19_" d="M5135.207,253.003h-0.93c-5.581-17.673-21.394-30.695-40.927-30.695c-8.372,0-16.743,2.79-23.254,6.511
						c-4.651-27.905-28.834-49.298-57.67-49.298c-26.044,0-48.368,17.673-55.809,40.927c-3.721-0.93-6.511-1.86-10.231-1.86
						c-20.464,0-37.207,14.883-39.997,33.486h-6.511c-16.743,0-29.765,13.022-29.765,29.765v1.86
						c0,16.743,13.952,29.765,29.765,29.765h236.26c16.743,0,29.765-13.022,29.765-29.765v-1.86
						C5164.972,266.955,5151.949,253.003,5135.207,253.003"/>
				</defs>
				<clipPath id="SVGID_20_">
					<use xlink:href="#SVGID_19_"  overflow="visible"/>
				</clipPath>
			</g>
		</g>
		<g>
			<g>
				<defs>
					<path id="SVGID_22_" d="M5135.207,324.625v-18.603c11.162,0,21.394-9.302,21.394-20.463v-1.86
						c0-11.162-9.302-20.463-21.394-20.463h-7.441l-2.791-6.511c-3.721-13.952-17.673-24.184-32.555-24.184
						c-6.511,0-13.022,1.86-18.604,5.581l-12.092,7.441l-1.86-13.952c-3.721-24.184-24.184-41.857-49.298-41.857
						c-21.394,0-40.927,13.952-47.438,34.416l-2.791,8.371l-8.372-1.86c-18.603-4.651-36.276,7.441-39.067,25.114l-0.93,7.441
						h-13.952c-7.441,0-13.953,3.721-17.673,10.232l-15.813-9.302c6.511-12.092,19.533-18.603,33.486-19.533
						c7.441-21.394,27.904-36.276,51.158-33.486c11.162-24.184,34.416-39.997,62.321-39.997c29.765,0,54.879,18.603,64.181,45.578
						c5.581-1.86,11.162-2.79,16.743-2.79c20.463,0,39.997,13.022,47.438,31.625c19.533,2.79,33.485,19.533,33.485,38.136v1.86
						C5174.273,306.952,5156.6,324.625,5135.207,324.625"/>
				</defs>
				<clipPath id="SVGID_23_">
					<use xlink:href="#SVGID_22_"  overflow="visible"/>
				</clipPath>
			</g>
		</g>
		<g>
			<g>
				<defs>
					<path id="SVGID_24_" d="M5042.191,229.749c-7.441-11.162-19.533-17.673-33.485-17.673c-7.441,0-13.952,1.86-20.463,5.581
						l-9.302-15.813c9.302-5.581,19.533-8.371,29.765-8.371c19.533,0,38.136,10.232,48.368,26.044L5042.191,229.749z"/>
				</defs>
				<clipPath id="SVGID_26_">
					<use xlink:href="#SVGID_24_"  overflow="visible"/>
				</clipPath>
			</g>
		</g>
		<g>
			<g>
				<defs>
					<path id="SVGID_27_" d="M4976.15,239.98h-18.604c0-6.511-5.581-12.092-12.092-12.092v-18.603
						C4962.198,210.215,4976.15,223.238,4976.15,239.98"/>
				</defs>
				<clipPath id="SVGID_28_">
					<use xlink:href="#SVGID_27_"  overflow="visible"/>
				</clipPath>
			</g>
		</g>
		<g>
			<g>
				<defs>
					<path id="SVGID_29_" d="M4878.484,492.053h-1.86c-4.651-14.883-17.673-25.114-33.486-25.114c-7.441,0-13.022,1.86-18.603,5.581
						c-3.721-23.254-23.254-40.927-47.438-40.927c-21.394,0-39.997,13.952-45.578,33.486c-2.791-0.93-5.581-0.93-8.372-0.93
						c-16.743,0-29.765,12.092-32.555,27.905h-5.581c-13.953,0-25.114,11.162-25.114,24.184v1.86
						c0,13.952,11.162,24.184,25.114,24.184h193.472c13.952,0,25.114-11.162,25.114-24.184v-1.86
						C4902.667,503.215,4891.505,492.053,4878.484,492.053"/>
				</defs>
				<clipPath id="SVGID_30_">
					<use xlink:href="#SVGID_29_"  overflow="visible"/>
				</clipPath>
			</g>
		</g>
		<g>
			<g>
				<defs>
					<path id="SVGID_31_" d="M4718.497,543.211h-34.416c-13.953,0-25.115-11.162-25.115-24.184v-1.86
						c0-13.952,11.162-24.184,25.115-24.184h5.581c2.79-15.813,15.813-27.905,32.555-27.905c2.791,0,5.581,0,8.372,0.93
						c6.511-19.533,24.184-33.486,45.578-33.486c24.184,0,43.717,17.673,47.438,40.927c5.581-3.721,12.092-5.581,18.603-5.581
						c15.813,0,29.765,10.232,33.486,25.114h0.93c13.952,0,25.114,11.162,25.114,24.184v1.86c0,13.022-11.162,24.184-25.114,24.184
						h-37.207H4718.497L4718.497,543.211z"/>
				</defs>
				<clipPath id="SVGID_32_">
					<use xlink:href="#SVGID_31_"  overflow="visible"/>
				</clipPath>
			</g>
		</g>
		<g>
			<g>
				<defs>
					<rect id="SVGID_33_" x="4650.596" y="423.221" width="261.374" height="129.292"/>
				</defs>
				<clipPath id="SVGID_34_">
					<use xlink:href="#SVGID_33_"  overflow="visible"/>
				</clipPath>
			</g>
		</g>
		<g>
			<g>
				<defs>
					<path id="SVGID_35_" d="M4852.439,147.895L4852.439,147.895c-3.721-9.302-12.092-15.813-22.324-15.813
						c-4.651,0-8.372,0.93-12.092,3.721c-1.86-14.883-14.882-26.044-29.765-26.044c-13.952,0-25.114,9.302-28.834,21.394
						c-1.861,0-3.721-0.93-5.581-0.93c-10.232,0-19.534,7.441-20.464,17.673h-3.72c-8.372,0-15.813,7.441-15.813,15.813v0.93
						c0,8.371,7.441,15.813,15.813,15.813h123.71c8.372,0,15.813-7.441,15.813-15.813v-0.93
						C4868.252,154.406,4861.741,147.895,4852.439,147.895"/>
				</defs>
				<clipPath id="SVGID_36_">
					<use xlink:href="#SVGID_35_"  overflow="visible"/>
				</clipPath>
			</g>
		</g>
		<g>
			<g>
				<defs>
					<path id="SVGID_37_" d="M4751.052,180.45h-22.324c-8.371,0-15.813-7.441-15.813-15.813v-0.93
						c0-8.371,7.441-15.813,15.813-15.813h3.721c1.86-10.232,10.231-17.673,20.463-17.673c1.86,0,3.721,0,5.581,0.93
						c3.721-12.092,15.813-21.394,28.835-21.394c14.882,0,27.905,11.162,29.765,26.044c3.721-1.86,7.441-3.721,12.092-3.721
						c10.232,0,18.603,6.511,21.394,15.813h0.93c8.372,0,15.813,7.441,15.813,15.813v0.93c0,8.371-7.441,15.813-15.813,15.813
						h-24.184L4751.052,180.45L4751.052,180.45z"/>
				</defs>
				<clipPath id="SVGID_38_">
					<use xlink:href="#SVGID_37_"  overflow="visible"/>
				</clipPath>
			</g>
		</g>
		<g>
			<g>
				<defs>
					<path id="SVGID_39_" d="M4852.439,188.822h-123.711c-13.952,0-25.114-11.162-25.114-25.114
						c0-13.952,9.302-24.184,21.394-26.044c4.651-10.232,14.882-17.673,26.974-17.673c6.511-13.022,20.464-20.463,35.346-20.463
						c15.813,0,29.765,9.302,36.276,23.254c13.952-2.79,27.905,4.651,34.416,15.813c11.162,2.79,18.603,12.092,18.603,24.184
						C4877.554,177.66,4866.392,188.822,4852.439,188.822z M4729.659,157.196c-3.721,0-6.511,2.79-6.511,6.511
						c0,4.651,2.791,7.441,6.511,7.441h123.711c3.72,0,6.511-2.79,6.511-6.511c0-4.651-2.791-7.441-6.511-7.441h-6.511l-2.791-6.511
						c-1.86-8.371-13.022-12.092-19.533-7.441l-12.092,7.441l-1.86-13.952c-1.86-10.232-10.231-17.673-21.394-17.673
						c-9.301,0-17.673,5.581-20.463,14.882l-2.791,8.371l-8.371-1.86c-7.441-1.86-13.952,2.79-14.883,9.302l-0.93,7.441
						L4729.659,157.196L4729.659,157.196z"/>
				</defs>
				<clipPath id="SVGID_40_">
					<use xlink:href="#SVGID_39_"  overflow="visible"/>
				</clipPath>
			</g>
		</g>
		<g>
			<g>
				<defs>
					<path id="SVGID_41_" d="M5134.277,337.647h-10.231c-8.372-24.184-31.625-40.927-58.6-40.927h-418.57
						c0,57.67,46.508,104.177,104.178,104.177h263.234h113.479h5.581c15.813,0,28.834-13.022,28.834-28.835v-5.581
						C5163.111,350.669,5150.089,337.647,5134.277,337.647"/>
				</defs>
				<clipPath id="SVGID_42_">
					<use xlink:href="#SVGID_41_"  overflow="visible"/>
				</clipPath>
			</g>
		</g>
		<g>
			<g>
				<defs>
					<path id="SVGID_43_" d="M4650.596,297.65h-2.791c0,57.67,46.508,104.177,104.178,104.177h263.234h112.549h5.581
						c15.813,0,28.834-13.022,28.834-28.835v-5.581c0-3.721-0.93-6.511-1.86-9.302c-3.721,11.162-14.882,19.533-26.975,19.533"/>
				</defs>
				<clipPath id="SVGID_44_">
					<use xlink:href="#SVGID_43_"  overflow="visible"/>
				</clipPath>
			</g>
			<g>
				<defs>
					<path id="SVGID_45_" d="M4650.596,297.65h-2.791c0,57.67,46.508,104.177,104.178,104.177h263.234h112.549h5.581
						c15.813,0,28.834-13.022,28.834-28.835v-5.581c0-3.721-0.93-6.511-1.86-9.302c-3.721,11.162-14.882,19.533-26.975,19.533"/>
				</defs>
				<defs>
					<polyline id="SVGID_46_" points="5134.277,376.713 5127.766,376.713 5015.217,376.713 4751.982,376.713 					"/>
				</defs>
				<clipPath id="SVGID_47_">
					<use xlink:href="#SVGID_45_"  overflow="visible"/>
				</clipPath>
				<clipPath id="SVGID_48_" clip-path="url(#SVGID_47_)">
					<use xlink:href="#SVGID_46_"  overflow="visible"/>
				</clipPath>
			</g>
		</g>
		<g>
			<g>
				<path id="SVGID_93_" d="M5134.277,410.199h-382.294c-62.32,0-113.479-50.228-113.479-112.549v-9.302h427.872
					c27.905,0,53.019,15.813,64.181,40.927h3.721c21.394,0,38.136,16.743,38.136,38.136v4.651
					C5171.483,393.456,5154.74,410.199,5134.277,410.199z M4657.106,306.021c4.651,48.368,45.578,85.574,94.876,85.574h382.294
					c11.162,0,19.533-8.371,19.533-19.533v-5.581c0-11.162-8.372-19.533-19.533-19.533h-16.743l-1.86-5.581
					c-7.441-20.463-27.905-34.416-50.229-34.416h-408.338V306.021z"/>
			</g>
			<g>
				<defs>
					<path id="SVGID_49_" d="M5134.277,410.199h-382.294c-62.32,0-113.479-50.228-113.479-112.549v-9.302h427.872
						c27.905,0,53.019,15.813,64.181,40.927h3.721c21.394,0,38.136,16.743,38.136,38.136v4.651
						C5171.483,393.456,5154.74,410.199,5134.277,410.199z M4657.106,306.021c4.651,48.368,45.578,85.574,94.876,85.574h382.294
						c11.162,0,19.533-8.371,19.533-19.533v-5.581c0-11.162-8.372-19.533-19.533-19.533h-16.743l-1.86-5.581
						c-7.441-20.463-27.905-34.416-50.229-34.416h-408.338V306.021z"/>
				</defs>
				<clipPath id="SVGID_50_">
					<use xlink:href="#SVGID_49_"  overflow="visible"/>
				</clipPath>
			</g>
		</g>
		<g>
			<g>
				<defs>
					<path id="SVGID_51_" d="M4766.865,330.206h-120.92c-8.372,0-13.953-6.511-13.953-13.952v-4.651
						c0-7.441,6.511-13.952,13.953-13.952h120.92c8.371,0,13.952,6.511,13.952,13.952v4.651
						C4780.817,323.694,4774.306,330.206,4766.865,330.206"/>
				</defs>
				<clipPath id="SVGID_52_">
					<use xlink:href="#SVGID_51_"  overflow="visible"/>
				</clipPath>
			</g>
		</g>
		<g>
			<g>
				<defs>
					<path id="SVGID_53_" d="M5002.194,412.989H4854.3c-8.372,0-13.953-6.511-13.953-13.952v-10.232
						c0-7.441,6.511-13.952,13.953-13.952h147.895c8.372,0,13.953,6.511,13.953,13.952v10.232
						C5016.147,406.478,5010.566,412.989,5002.194,412.989"/>
				</defs>
				<clipPath id="SVGID_54_">
					<use xlink:href="#SVGID_53_"  overflow="visible"/>
				</clipPath>
			</g>
		</g>
		<g>
			<g>
				<defs>
					<path id="SVGID_55_" d="M4766.865,339.507h-120.92c-13.022,0-23.254-10.232-23.254-23.254v-4.651
						c0-13.022,10.231-23.254,23.254-23.254h120.92c13.022,0,23.254,10.232,23.254,23.254v4.651
						C4790.119,329.275,4779.887,339.507,4766.865,339.507z M4645.945,306.021c-2.791,0-5.581,1.86-5.581,5.581v4.651
						c0,2.79,2.791,5.581,5.581,5.581h120.92c2.79,0,5.581-1.86,5.581-5.581v-4.651c0-2.79-1.86-5.581-5.581-5.581H4645.945z"/>
				</defs>
				<clipPath id="SVGID_56_">
					<use xlink:href="#SVGID_55_"  overflow="visible"/>
				</clipPath>
			</g>
		</g>
		<g>
			<g>
				<defs>
					<path id="SVGID_57_" d="M5002.194,422.291H4854.3c-13.022,0-23.254-10.232-23.254-23.254v-10.232
						c0-13.022,10.231-23.254,23.254-23.254h147.895c13.022,0,23.254,10.232,23.254,23.254v10.232
						C5025.448,412.059,5015.217,422.291,5002.194,422.291z M4854.3,383.224c-2.791,0-5.581,1.86-5.581,5.581v10.232
						c0,2.79,2.79,5.581,5.581,5.581h147.895c2.791,0,5.581-1.86,5.581-5.581v-10.232c0-2.79-2.79-5.581-5.581-5.581H4854.3z"/>
				</defs>
				<clipPath id="SVGID_58_">
					<use xlink:href="#SVGID_57_"  overflow="visible"/>
				</clipPath>
			</g>
		</g>
		<g>
			<g>
				<defs>
					<rect id="SVGID_59_" x="4616.179" y="42.787" width="558.094" height="508.795"/>
				</defs>
				<clipPath id="SVGID_60_">
					<use xlink:href="#SVGID_59_"  overflow="visible"/>
				</clipPath>
			</g>
		</g>
	</g>
	<g>
		<g>
			<g>
				<g>
					<defs>
						<path id="SVGID_61_" d="M4292.485,1273.384h-429.732c-7.441,0-13.022-5.581-13.022-13.022V957.131
							c0-7.441,5.581-13.022,13.022-13.022h429.732c7.441,0,13.022,5.581,13.022,13.022v303.231
							C4305.507,1267.803,4298.996,1273.384,4292.485,1273.384"/>
					</defs>
					<clipPath id="SVGID_62_">
						<use xlink:href="#SVGID_61_"  overflow="visible"/>
					</clipPath>
				</g>
			</g>
			<g>
				<g>
					<defs>
						<path id="SVGID_63_" d="M4297.136,1279.895h-433.453c-12.092,0-21.394-9.302-21.394-21.394v-145.104h19.533v145.104l0.93,1.86
							h433.453l1.86-1.86V952.48l-1.86-1.86H4139.94v-19.533h156.266c12.092,0,21.394,9.302,21.394,21.394v306.021
							C4318.53,1270.594,4308.298,1279.895,4297.136,1279.895"/>
					</defs>
					<clipPath id="SVGID_64_">
						<use xlink:href="#SVGID_63_"  overflow="visible"/>
					</clipPath>
				</g>
			</g>
			<g>
				<g>
					<defs>
						<rect id="SVGID_65_" x="3873.915" y="969.223" width="412.059" height="266.025"/>
					</defs>
					<clipPath id="SVGID_66_">
						<use xlink:href="#SVGID_65_"  overflow="visible"/>
					</clipPath>
				</g>
			</g>
			<g>
				<g>
					<defs>
						<path id="SVGID_67_" d="M4297.136,1292.917h-442.755c-10.232,0-19.533-7.441-21.393-18.603l-2.791-19.533h205.565
							l7.441,11.162h56.74l8.371-11.162h216.727l-2.791,16.743C4319.46,1283.616,4309.228,1292.917,4297.136,1292.917"/>
					</defs>
					<clipPath id="SVGID_68_">
						<use xlink:href="#SVGID_67_"  overflow="visible"/>
					</clipPath>
				</g>
			</g>
			<g>
				<g>
					<defs>
						<path id="SVGID_69_" d="M4298.066,1299.428h-444.615c-15.813,0-28.835-11.162-31.625-26.044l-4.651-30.695h223.237
							l7.441,11.162h46.508l8.372-11.162h234.399l-4.651,27.905C4329.691,1287.336,4315.739,1299.428,4298.066,1299.428z
							 M3840.429,1261.292l0.93,7.441c0.93,5.581,5.581,10.232,12.092,10.232h444.615c7.441,0,13.953-5.581,14.883-12.092
							l0.93-5.581h-200.914l-8.371,11.162h-66.971l-7.441-11.162H3840.429z"/>
					</defs>
					<clipPath id="SVGID_70_">
						<use xlink:href="#SVGID_69_"  overflow="visible"/>
					</clipPath>
				</g>
			</g>
			<g>
				<g>
					<defs>
						<path id="SVGID_71_" d="M4088.781,1083.632h-269.745c-14.883,0-26.975-12.092-26.975-26.975v-181.38
							c0-14.883,12.092-26.975,26.975-26.975h269.745c14.883,0,26.974,12.092,26.974,26.975v181.38
							C4114.825,1071.54,4103.664,1083.632,4088.781,1083.632"/>
					</defs>
					<clipPath id="SVGID_72_">
						<use xlink:href="#SVGID_71_"  overflow="visible"/>
					</clipPath>
				</g>
			</g>
			<g>
				<g>
					<defs>
						<path id="SVGID_73_" d="M3792.061,899.461v-34.416c0-9.302,7.441-16.743,15.813-16.743h291.139
							c9.302,0,15.813,7.441,15.813,16.743v34.416H3792.061"/>
					</defs>
					<clipPath id="SVGID_74_">
						<use xlink:href="#SVGID_73_"  overflow="visible"/>
					</clipPath>
				</g>
			</g>
			<g>
				<g>
					<defs>
						<path id="SVGID_75_" d="M4100.873,1095.724h-295.79c-14.883,0-26.974-12.092-26.974-26.044V868.766
							c0-13.952,12.092-26.044,26.974-26.044h43.718v19.533h-43.718c-3.72,0-6.511,2.791-6.511,6.511v200.914
							c0,3.721,2.791,6.511,6.511,6.511h295.79c3.721,0,6.511-2.791,6.511-6.511V868.766c0-3.721-2.791-6.511-6.511-6.511H3905.54
							v-19.533h195.333c14.883,0,26.975,12.092,26.975,26.044v200.914C4127.848,1084.562,4115.756,1095.724,4100.873,1095.724"/>
					</defs>
					<clipPath id="SVGID_76_">
						<use xlink:href="#SVGID_75_"  overflow="visible"/>
					</clipPath>
				</g>
			</g>
			<g>
				<g>
					<defs>
						<rect id="SVGID_77_" x="3861.823" y="842.722" width="25.114" height="18.603"/>
					</defs>
					<clipPath id="SVGID_78_">
						<use xlink:href="#SVGID_77_"  overflow="visible"/>
					</clipPath>
				</g>
			</g>
			<g>
				<g>
					<defs>
						<rect id="SVGID_79_" x="3792.061" y="892.95" width="323.694" height="18.603"/>
					</defs>
					<clipPath id="SVGID_80_">
						<use xlink:href="#SVGID_79_"  overflow="visible"/>
					</clipPath>
				</g>
			</g>
			<g>
				<g>
					<defs>
						<rect id="SVGID_81_" x="3823.686" y="867.836" width="12.092" height="18.603"/>
					</defs>
					<clipPath id="SVGID_82_">
						<use xlink:href="#SVGID_81_"  overflow="visible"/>
					</clipPath>
				</g>
			</g>
			<g>
				<g>
					<defs>
						<rect id="SVGID_83_" x="3855.312" y="867.836" width="12.092" height="18.603"/>
					</defs>
					<clipPath id="SVGID_84_">
						<use xlink:href="#SVGID_83_"  overflow="visible"/>
					</clipPath>
				</g>
			</g>
			<g>
				<g>
					<defs>
						<rect id="SVGID_85_" x="3886.937" y="867.836" width="12.092" height="18.603"/>
					</defs>
					<clipPath id="SVGID_86_">
						<use xlink:href="#SVGID_85_"  overflow="visible"/>
					</clipPath>
				</g>
			</g>
			<g>
				<g>
					<polyline id="SVGID_195_" fill="#CCCCCC" points="3886.937,990.616 3886.937,980.385 3925.074,962.712 3925.074,973.874 
						3899.959,985.036 3925.074,996.197 3925.074,1007.359 3886.937,990.616 					"/>
				</g>
				<g>
					<defs>
						<polyline id="SVGID_87_" points="3886.937,990.616 3886.937,980.385 3925.074,962.712 3925.074,973.874 3899.959,985.036 
							3925.074,996.197 3925.074,1007.359 3886.937,990.616 						"/>
					</defs>
					<clipPath id="SVGID_88_">
						<use xlink:href="#SVGID_87_"  overflow="visible"/>
					</clipPath>
					<g clip-path="url(#SVGID_88_)">
						<g>
							<rect id="SVGID_197_" x="-3051.098" y="-203.704" fill="#CCCCCC" width="8663.476" height="4521.49"/>
						</g>
					</g>
				</g>
			</g>
			<g>
				<g>
					<polyline id="SVGID_199_" fill="#CCCCCC" points="3959.489,950.62 3969.721,950.62 3940.886,1013.87 3931.584,1013.87 
						3959.489,950.62 					"/>
				</g>
				<g>
					<defs>
						<polyline id="SVGID_89_" points="3959.489,950.62 3969.721,950.62 3940.886,1013.87 3931.584,1013.87 3959.489,950.62 						
							"/>
					</defs>
					<clipPath id="SVGID_90_">
						<use xlink:href="#SVGID_89_"  overflow="visible"/>
					</clipPath>
					<g clip-path="url(#SVGID_90_)">
						<g>
							<rect id="SVGID_201_" x="-3051.098" y="-203.704" fill="#CCCCCC" width="8663.476" height="4521.49"/>
						</g>
					</g>
				</g>
			</g>
			<g>
				<g>
					<polyline id="SVGID_203_" fill="#CCCCCC" points="4019.949,980.385 4019.949,990.616 3981.813,1007.359 3981.813,996.197 
						4006.927,985.036 3981.813,973.874 3981.813,962.712 4019.949,980.385 					"/>
				</g>
				<g>
					<defs>
						<polyline id="SVGID_91_" points="4019.949,980.385 4019.949,990.616 3981.813,1007.359 3981.813,996.197 4006.927,985.036 
							3981.813,973.874 3981.813,962.712 4019.949,980.385 						"/>
					</defs>
					<clipPath id="SVGID_92_">
						<use xlink:href="#SVGID_91_"  overflow="visible"/>
					</clipPath>
					<g clip-path="url(#SVGID_92_)">
						<g>
							<rect id="SVGID_205_" x="-3051.098" y="-203.704" fill="#CCCCCC" width="8663.476" height="4521.49"/>
						</g>
					</g>
				</g>
			</g>
			<g>
				<g>
					<defs>
						<rect id="SVGID_94_" x="4140.87" y="1000.848" width="107.898" height="18.603"/>
					</defs>
					<clipPath id="SVGID_95_">
						<use xlink:href="#SVGID_94_"  overflow="visible"/>
					</clipPath>
				</g>
			</g>
			<g>
				<g>
					<defs>
						<rect id="SVGID_96_" x="4172.495" y="1045.496" width="38.136" height="18.603"/>
					</defs>
					<clipPath id="SVGID_97_">
						<use xlink:href="#SVGID_96_"  overflow="visible"/>
					</clipPath>
				</g>
			</g>
			<g>
				<g>
					<defs>
						<rect id="SVGID_98_" x="4032.971" y="1102.235" width="107.898" height="18.603"/>
					</defs>
					<clipPath id="SVGID_99_">
						<use xlink:href="#SVGID_98_"  overflow="visible"/>
					</clipPath>
				</g>
			</g>
			<g>
				<g>
					<defs>
						<rect id="SVGID_100_" x="4159.473" y="1102.235" width="56.74" height="18.603"/>
					</defs>
					<clipPath id="SVGID_101_">
						<use xlink:href="#SVGID_100_"  overflow="visible"/>
					</clipPath>
				</g>
			</g>
			<g>
				<g>
					<defs>
						<rect id="SVGID_102_" x="3994.835" y="1102.235" width="18.603" height="18.603"/>
					</defs>
					<clipPath id="SVGID_103_">
						<use xlink:href="#SVGID_102_"  overflow="visible"/>
					</clipPath>
				</g>
			</g>
			<g>
				<g>
					<defs>
						<rect id="SVGID_104_" x="3899.959" y="1140.372" width="107.898" height="18.603"/>
					</defs>
					<clipPath id="SVGID_105_">
						<use xlink:href="#SVGID_104_"  overflow="visible"/>
					</clipPath>
				</g>
			</g>
			<g>
				<g>
					<defs>
						<rect id="SVGID_106_" x="3969.721" y="1185.019" width="107.898" height="18.603"/>
					</defs>
					<clipPath id="SVGID_107_">
						<use xlink:href="#SVGID_106_"  overflow="visible"/>
					</clipPath>
				</g>
			</g>
			<g>
				<g>
					<defs>
						<rect id="SVGID_108_" x="4102.733" y="1185.019" width="56.74" height="18.603"/>
					</defs>
					<clipPath id="SVGID_109_">
						<use xlink:href="#SVGID_108_"  overflow="visible"/>
					</clipPath>
				</g>
			</g>
		</g>
	</g>
</g>
<g id="specctr">
	<g id="Text_Properties">
	</g>
</g>
<g id="XMLID_273_">
	<g id="XMLID_264_">
		<g id="XMLID_120_">
			<g id="XMLID_339_">
				<path fill="#FFFFFF" d="M567.279,379.754L409.153,505.325c-4.651,3.721-12.092,2.79-16.743-1.86L183.125,240.231
					c-3.721-4.651-2.79-12.092,1.86-16.743L343.112,97.917c4.651-3.721,12.092-2.79,16.743,1.86L570.07,363.012
					C572.86,368.593,572.86,376.034,567.279,379.754z"/>
			</g>
			<g id="XMLID_338_">
				
					<rect x="306.359" y="158.453" transform="matrix(-0.7818 0.6235 -0.6235 -0.7818 800.2731 397.7602)" fill="#8FD8AD" width="48.367" height="360.894"/>
			</g>
			<g id="XMLID_337_">
				
					<rect x="393.984" y="190.125" transform="matrix(-0.7818 0.6236 -0.6236 -0.7818 918.6151 301.5386)" fill="#8FD8AD" width="25.115" height="242.781"/>
			</g>
			<g id="XMLID_317_">
				<path id="XMLID_10_" fill="#00984A" d="M385.899,509.046L175.684,245.812c-7.441-9.302-5.581-22.324,3.721-28.835
					L337.531,91.406c8.371-6.511,22.324-5.581,28.835,3.721l41.857,52.089l-13.952,11.162l-41.857-52.089
					c-0.93-0.93-2.79-0.93-3.721,0L190.566,231.86c-0.93,0-0.93,1.86-0.93,2.79l210.215,263.234L385.899,509.046z"/>
			</g>
		</g>
		<g>
			<g id="XMLID_252_">
				<path fill="#FFFFFF" d="M641.692,504.395h-239.05c-12.092,0-22.324-10.232-22.324-22.324V112.8
					c0-12.092,10.232-22.324,22.324-22.324h239.05c12.092,0,22.324,10.232,22.324,22.324v369.272
					C664.016,494.164,653.784,504.395,641.692,504.395z"/>
			</g>
			<g id="XMLID_256_">
				<rect x="409.153" y="90.476" fill="#6DCFF6" width="53.019" height="413.92"/>
			</g>
			<g id="XMLID_258_">
				<rect x="477.054" y="90.476" fill="#6DCFF6" width="26.044" height="413.92"/>
			</g>
			<g id="XMLID_268_">
				<path id="XMLID_84_" fill="#0D3178" d="M641.692,513.697h-239.05c-17.673,0-31.625-13.952-31.625-31.625V112.8
					c0-17.673,13.952-31.625,31.625-31.625h32.555v18.603h-32.555c-7.441,0-13.022,5.581-13.022,13.022v369.272
					c0,7.441,5.581,13.022,13.022,13.022h239.05c7.441,0,13.022-5.581,13.022-13.022V112.8c0-7.441-5.581-13.022-13.022-13.022
					h-118.13V81.174h118.13c17.673,0,31.625,13.952,31.625,31.625v369.272C673.317,499.745,659.365,513.697,641.692,513.697z"/>
			</g>
			<g id="XMLID_251_">
				<rect id="XMLID_83_" x="449.15" y="81.174" fill="#0D3178" width="53.949" height="18.603"/>
			</g>
		</g>
	</g>
</g>
</svg>
