<?xml version="1.0" encoding="utf-8"?>
<!-- Generator: Adobe Illustrator 17.0.0, SVG Export Plug-In . SVG Version: 6.00 Build 0)  -->
<!DOCTYPE svg PUBLIC "-//W3C//DTD SVG 1.1//EN" "http://www.w3.org/Graphics/SVG/1.1/DTD/svg11.dtd">
<svg version="1.1" id="Layer_1" xmlns="http://www.w3.org/2000/svg" xmlns:xlink="http://www.w3.org/1999/xlink" x="0px" y="0px"
	 width="842.35px" height="595.3px" viewBox="0 0 842.35 595.3" enable-background="new 0 0 842.35 595.3" xml:space="preserve">
<g id="Layer_1_1_">
	<g id="XMLID_1005_">
		<g id="XMLID_1006_">
			<g id="XMLID_1047_">
				<path fill="#FFFFFF" d="M253.747,129.292l3.721-17.673c1.86-12.092,13.022-21.394,26.044-19.533l265.095,34.416
					c12.092,1.86,21.394,13.022,19.533,26.044l-48.368,373.923l-301.371-92.085L253.747,129.292z"/>
			</g>
			<g id="XMLID_1045_">
				<path id="XMLID_1046_" fill="#00984A" d="M530.003,527.399l-19.533-2.79l48.368-373.923c0.93-7.441-3.721-13.952-11.162-14.883
					l-266.025-34.416c-3.721-0.93-6.511,0-9.302,2.79c-2.79,1.86-4.651,5.581-4.651,8.371l-3.721,18.603l-19.533-3.721l3.721-17.673
					c0.93-8.371,5.581-15.813,12.092-21.394c6.511-5.581,15.813-7.441,24.184-6.511l265.095,34.416
					c17.673,2.79,30.695,18.603,28.835,37.206L530.003,527.399z"/>
			</g>
			<g id="XMLID_1036_">
				<g id="XMLID_1044_">
					<path fill="#FFFFFF" d="M623.949,566.465h-26.044c-1.86,0-3.721-1.86-3.721-3.721V193.473c0-0.93,0-0.93,0-1.86l13.022-27.905
						c0.93-2.79,4.651-2.79,6.511,0l13.022,27.905c0,0,0,0.93,0,1.86v369.272C627.67,565.535,625.809,566.465,623.949,566.465z"/>
				</g>
				<g id="XMLID_1039_">
					<path id="XMLID_1040_" fill="#0D3178" d="M636.971,576.697h-53.019V190.682l15.813-33.486c3.721-8.371,17.673-8.371,22.324,0
						l15.813,33.486v386.015H636.971z M604.416,556.233h13.022V195.333l-6.511-13.952l-6.511,13.952V556.233z"/>
				</g>
				<g id="XMLID_1037_">
					<rect id="XMLID_1038_" x="593.254" y="195.333" fill="#0D3178" width="33.486" height="20.463"/>
				</g>
			</g>
			<g id="XMLID_1035_">
				<path fill="#6DCFF6" d="M472.334,566.465H209.099c-13.952,0-25.114-11.162-25.114-25.114V168.358
					c0-13.952,11.162-25.114,25.114-25.114h263.234c13.952,0,25.114,11.162,25.114,25.114v372.993
					C497.448,555.303,486.286,566.465,472.334,566.465z"/>
			</g>
			<g id="XMLID_1030_">
				<path id="XMLID_1032_" fill="#0D3178" d="M472.334,576.697H209.099c-19.533,0-35.346-15.813-35.346-35.346V168.358
					c0-19.533,15.813-35.346,35.346-35.346h263.234c19.533,0,35.346,15.813,35.346,35.346v372.993
					C507.68,560.884,491.867,576.697,472.334,576.697z M209.099,153.476c-8.371,0-14.882,6.511-14.882,14.882v372.993
					c0,8.371,6.511,14.882,14.882,14.882h263.234c8.371,0,14.882-6.511,14.882-14.882V168.358c0-8.371-6.511-14.882-14.882-14.882
					H209.099z"/>
			</g>
			<g id="XMLID_1028_">
				<rect id="XMLID_1029_" x="155.15" y="178.59" fill="#0D3178" width="57.67" height="20.463"/>
			</g>
			<g id="XMLID_1026_">
				<rect id="XMLID_1027_" x="155.15" y="219.517" fill="#0D3178" width="57.67" height="20.463"/>
			</g>
			<g id="XMLID_1024_">
				<rect id="XMLID_1025_" x="155.15" y="260.444" fill="#0D3178" width="57.67" height="20.463"/>
			</g>
			<g id="XMLID_1022_">
				<rect id="XMLID_1023_" x="155.15" y="301.371" fill="#0D3178" width="57.67" height="20.463"/>
			</g>
			<g id="XMLID_1020_">
				<rect id="XMLID_1021_" x="155.15" y="342.298" fill="#0D3178" width="57.67" height="20.463"/>
			</g>
			<g id="XMLID_1018_">
				<rect id="XMLID_1019_" x="155.15" y="383.224" fill="#0D3178" width="57.67" height="20.463"/>
			</g>
			<g id="XMLID_1016_">
				<rect id="XMLID_1017_" x="155.15" y="426.942" fill="#0D3178" width="56.74" height="20.463"/>
			</g>
			<g id="XMLID_1014_">
				<rect id="XMLID_1015_" x="155.15" y="466.938" fill="#0D3178" width="56.74" height="20.463"/>
			</g>
			<g id="XMLID_1012_">
				<rect id="XMLID_1013_" x="155.15" y="506.935" fill="#0D3178" width="56.74" height="20.463"/>
			</g>
			<g id="XMLID_1011_">
				<path fill="#FFFFFF" d="M409.083,310.672c0,38.136-30.695,68.832-68.832,68.832s-68.832-30.695-68.832-68.832
					c0-38.136,30.695-68.832,68.832-68.832C378.388,242.771,409.083,273.466,409.083,310.672z"/>
			</g>
			<g id="XMLID_1007_">
				<path id="XMLID_1008_" fill="#0D3178" d="M341.182,389.736c-43.717,0-78.133-35.346-78.133-78.133
					c0-43.717,35.346-78.133,78.133-78.133c43.717,0,78.133,35.346,78.133,78.133S383.969,389.736,341.182,389.736z
					 M341.182,253.003c-32.555,0-58.6,26.044-58.6,58.6s26.044,58.6,58.6,58.6s58.6-26.044,58.6-58.6
					C398.851,279.047,372.807,253.003,341.182,253.003z"/>
			</g>
		</g>
	</g>
	<g>
		<g>
			<g>
				<defs>
					<path id="SVGID_1_" d="M5456.11,301.371h-102.317l-48.368-93.016c-3.721-7.441,1.86-15.813,9.301-15.813h35.346
						c2.79,0,5.581,0.93,7.441,3.721L5456.11,301.371z"/>
				</defs>
				<clipPath id="SVGID_2_">
					<use xlink:href="#SVGID_1_"  overflow="visible"/>
				</clipPath>
			</g>
		</g>
		<g>
			<g>
				<defs>
					<path id="SVGID_3_" d="M5456.11,301.371h-102.317l-48.368-93.016c-3.721-7.441,1.86-15.813,9.301-15.813h35.346
						c2.79,0,5.581,0.93,7.441,3.721L5456.11,301.371z"/>
				</defs>
				<clipPath id="SVGID_4_">
					<use xlink:href="#SVGID_3_"  overflow="visible"/>
				</clipPath>
			</g>
		</g>
		<g>
			<g>
				<defs>
					<path id="SVGID_5_" d="M5326.819,192.542h-11.162c-8.372,0-13.022,8.371-9.302,15.813l48.368,93.016h39.997l-66.041-104.178
						C5326.819,196.263,5326.819,194.403,5326.819,192.542"/>
				</defs>
				<clipPath id="SVGID_6_">
					<use xlink:href="#SVGID_5_"  overflow="visible"/>
				</clipPath>
			</g>
		</g>
		<g>
			<g>
				<defs>
					<path id="SVGID_7_" d="M5477.504,310.672h-129.292l-50.229-98.597c-2.791-6.511-2.791-13.022,0.93-19.533
						c3.721-5.581,10.231-9.302,16.743-9.302h35.346c5.581,0,11.162,1.86,14.882,6.511L5477.504,310.672z M5359.375,292.999h76.273
						l-83.714-90.225l-0.93-0.93h-35.346c-0.93,0-0.93,0-0.93,0.93s0,0.93,0,1.86L5359.375,292.999z"/>
				</defs>
				<clipPath id="SVGID_8_">
					<use xlink:href="#SVGID_7_"  overflow="visible"/>
				</clipPath>
			</g>
		</g>
		<g>
			<g>
				<defs>
					<path id="SVGID_9_" d="M5775.154,487.402c0,8.371-6.511,14.882-15.813,14.882c-8.372,0-15.813-6.511-15.813-14.882
						c0-8.371,6.511-14.883,15.813-14.883C5768.644,472.519,5775.154,479.03,5775.154,487.402"/>
				</defs>
				<clipPath id="SVGID_10_">
					<use xlink:href="#SVGID_9_"  overflow="visible"/>
				</clipPath>
			</g>
		</g>
		<g>
			<g>
				<path id="SVGID_21_" fill="#CCCCCC" d="M5648.653,145.104c0,4.651-3.721,7.441-7.441,7.441c-4.651,0-7.441-3.721-7.441-7.441
					s3.721-7.441,7.441-7.441C5645.863,136.733,5648.653,140.454,5648.653,145.104"/>
			</g>
			<g>
				<defs>
					<path id="SVGID_11_" d="M5648.653,145.104c0,4.651-3.721,7.441-7.441,7.441c-4.651,0-7.441-3.721-7.441-7.441
						s3.721-7.441,7.441-7.441C5645.863,136.733,5648.653,140.454,5648.653,145.104"/>
				</defs>
				<clipPath id="SVGID_12_">
					<use xlink:href="#SVGID_11_"  overflow="visible"/>
				</clipPath>
			</g>
		</g>
		<g>
			<g>
				<path id="SVGID_25_" fill="#CCCCCC" d="M5631.91,446.475c0,4.651-3.721,7.441-7.441,7.441c-4.651,0-7.441-3.721-7.441-7.441
					c0-4.651,3.721-7.441,7.441-7.441C5629.12,439.034,5631.91,442.754,5631.91,446.475"/>
			</g>
			<g>
				<defs>
					<path id="SVGID_13_" d="M5631.91,446.475c0,4.651-3.721,7.441-7.441,7.441c-4.651,0-7.441-3.721-7.441-7.441
						c0-4.651,3.721-7.441,7.441-7.441C5629.12,439.034,5631.91,442.754,5631.91,446.475"/>
				</defs>
				<clipPath id="SVGID_14_">
					<use xlink:href="#SVGID_13_"  overflow="visible"/>
				</clipPath>
			</g>
		</g>
		<g>
			<g>
				<defs>
					<path id="SVGID_15_" d="M5835.614,109.758c0,5.581-4.651,10.232-10.231,10.232c-5.581,0-10.231-4.651-10.231-10.232
						s4.65-10.232,10.231-10.232C5830.963,99.527,5835.614,104.178,5835.614,109.758"/>
				</defs>
				<clipPath id="SVGID_16_">
					<use xlink:href="#SVGID_15_"  overflow="visible"/>
				</clipPath>
			</g>
		</g>
		<g>
			<g>
				<defs>
					<path id="SVGID_17_" d="M5712.834,57.67c0,8.371-6.511,13.952-14.882,13.952c-8.372,0-14.882-6.511-14.882-13.952
						c0-8.371,6.511-13.952,14.882-13.952C5706.323,42.787,5712.834,49.298,5712.834,57.67"/>
				</defs>
				<clipPath id="SVGID_18_">
					<use xlink:href="#SVGID_17_"  overflow="visible"/>
				</clipPath>
			</g>
		</g>
		<g>
			<g>
				<defs>
					<path id="SVGID_19_" d="M5814.221,253.003h-0.93c-5.581-17.673-21.394-30.695-40.927-30.695c-8.372,0-16.743,2.79-23.254,6.511
						c-4.651-27.905-28.834-49.298-57.67-49.298c-26.044,0-48.368,17.673-55.81,40.927c-3.721-0.93-6.511-1.86-10.231-1.86
						c-20.463,0-37.206,14.883-39.997,33.486h-6.511c-16.743,0-29.765,13.022-29.765,29.765v1.86
						c0,16.743,13.953,29.765,29.765,29.765h236.26c16.743,0,29.765-13.022,29.765-29.765v-1.86
						C5843.986,266.955,5830.963,253.003,5814.221,253.003"/>
				</defs>
				<clipPath id="SVGID_20_">
					<use xlink:href="#SVGID_19_"  overflow="visible"/>
				</clipPath>
			</g>
		</g>
		<g>
			<g>
				<defs>
					<path id="SVGID_22_" d="M5814.221,324.625v-18.603c11.162,0,21.394-9.302,21.394-20.463v-1.86
						c0-11.162-9.302-20.463-21.394-20.463h-7.441l-2.791-6.511c-3.721-13.952-17.673-24.184-32.556-24.184
						c-6.511,0-13.022,1.86-18.603,5.581l-12.092,7.441l-1.86-13.952c-3.721-24.184-24.184-41.857-49.298-41.857
						c-21.394,0-40.927,13.952-47.438,34.416l-2.791,8.371l-8.372-1.86c-18.603-4.651-36.276,7.441-39.067,25.114l-0.93,7.441
						h-13.953c-7.441,0-13.952,3.721-17.673,10.232l-15.813-9.302c6.511-12.092,19.533-18.603,33.485-19.533
						c7.441-21.394,27.905-36.276,51.159-33.486c11.162-24.184,34.416-39.997,62.321-39.997c29.765,0,54.879,18.603,64.181,45.578
						c5.581-1.86,11.162-2.79,16.743-2.79c20.464,0,39.997,13.022,47.438,31.625c19.533,2.79,33.485,19.533,33.485,38.136v1.86
						C5853.288,306.952,5835.614,324.625,5814.221,324.625"/>
				</defs>
				<clipPath id="SVGID_23_">
					<use xlink:href="#SVGID_22_"  overflow="visible"/>
				</clipPath>
			</g>
		</g>
		<g>
			<g>
				<defs>
					<path id="SVGID_24_" d="M5721.205,229.749c-7.441-11.162-19.533-17.673-33.485-17.673c-7.441,0-13.952,1.86-20.463,5.581
						l-9.302-15.813c9.302-5.581,19.533-8.371,29.765-8.371c19.533,0,38.136,10.232,48.368,26.044L5721.205,229.749z"/>
				</defs>
				<clipPath id="SVGID_26_">
					<use xlink:href="#SVGID_24_"  overflow="visible"/>
				</clipPath>
			</g>
		</g>
		<g>
			<g>
				<defs>
					<path id="SVGID_27_" d="M5655.164,239.98h-18.603c0-6.511-5.581-12.092-12.092-12.092v-18.603
						C5641.212,210.215,5655.164,223.238,5655.164,239.98"/>
				</defs>
				<clipPath id="SVGID_28_">
					<use xlink:href="#SVGID_27_"  overflow="visible"/>
				</clipPath>
			</g>
		</g>
		<g>
			<g>
				<defs>
					<path id="SVGID_29_" d="M5557.498,492.053h-1.861c-4.65-14.883-17.673-25.114-33.485-25.114c-7.441,0-13.022,1.86-18.603,5.581
						c-3.721-23.254-23.254-40.927-47.438-40.927c-21.394,0-39.997,13.952-45.578,33.486c-2.791-0.93-5.581-0.93-8.372-0.93
						c-16.743,0-29.765,12.092-32.556,27.905h-5.581c-13.952,0-25.114,11.162-25.114,24.184v1.86
						c0,13.952,11.162,24.184,25.114,24.184h193.473c13.952,0,25.114-11.162,25.114-24.184v-1.86
						C5581.682,503.215,5570.52,492.053,5557.498,492.053"/>
				</defs>
				<clipPath id="SVGID_30_">
					<use xlink:href="#SVGID_29_"  overflow="visible"/>
				</clipPath>
			</g>
		</g>
		<g>
			<g>
				<defs>
					<path id="SVGID_31_" d="M5397.511,543.211h-34.416c-13.952,0-25.114-11.162-25.114-24.184v-1.86
						c0-13.952,11.162-24.184,25.114-24.184h5.581c2.79-15.813,15.813-27.905,32.555-27.905c2.791,0,5.581,0,8.372,0.93
						c6.511-19.533,24.184-33.486,45.578-33.486c24.184,0,43.717,17.673,47.438,40.927c5.581-3.721,12.092-5.581,18.604-5.581
						c15.813,0,29.765,10.232,33.485,25.114h0.93c13.953,0,25.114,11.162,25.114,24.184v1.86c0,13.022-11.162,24.184-25.114,24.184
						h-37.206H5397.511L5397.511,543.211z"/>
				</defs>
				<clipPath id="SVGID_32_">
					<use xlink:href="#SVGID_31_"  overflow="visible"/>
				</clipPath>
			</g>
		</g>
		<g>
			<g>
				<defs>
					<rect id="SVGID_33_" x="5329.61" y="423.221" width="261.374" height="129.292"/>
				</defs>
				<clipPath id="SVGID_34_">
					<use xlink:href="#SVGID_33_"  overflow="visible"/>
				</clipPath>
			</g>
		</g>
		<g>
			<g>
				<defs>
					<path id="SVGID_35_" d="M5531.454,147.895L5531.454,147.895c-3.721-9.302-12.092-15.813-22.324-15.813
						c-4.65,0-8.372,0.93-12.092,3.721c-1.86-14.883-14.882-26.044-29.765-26.044c-13.952,0-25.114,9.302-28.834,21.394
						c-1.86,0-3.721-0.93-5.581-0.93c-10.232,0-19.533,7.441-20.464,17.673h-3.721c-8.372,0-15.813,7.441-15.813,15.813v0.93
						c0,8.371,7.441,15.813,15.813,15.813h123.71c8.372,0,15.813-7.441,15.813-15.813v-0.93
						C5547.266,154.406,5540.755,147.895,5531.454,147.895"/>
				</defs>
				<clipPath id="SVGID_36_">
					<use xlink:href="#SVGID_35_"  overflow="visible"/>
				</clipPath>
			</g>
		</g>
		<g>
			<g>
				<defs>
					<path id="SVGID_37_" d="M5430.066,180.45h-22.324c-8.372,0-15.813-7.441-15.813-15.813v-0.93
						c0-8.371,7.441-15.813,15.813-15.813h3.721c1.86-10.232,10.231-17.673,20.463-17.673c1.86,0,3.721,0,5.581,0.93
						c3.721-12.092,15.813-21.394,28.835-21.394c14.882,0,27.904,11.162,29.765,26.044c3.721-1.86,7.441-3.721,12.092-3.721
						c10.231,0,18.603,6.511,21.394,15.813h0.93c8.372,0,15.813,7.441,15.813,15.813v0.93c0,8.371-7.441,15.813-15.813,15.813
						h-24.184L5430.066,180.45L5430.066,180.45z"/>
				</defs>
				<clipPath id="SVGID_38_">
					<use xlink:href="#SVGID_37_"  overflow="visible"/>
				</clipPath>
			</g>
		</g>
		<g>
			<g>
				<defs>
					<path id="SVGID_39_" d="M5531.454,188.822h-123.711c-13.952,0-25.114-11.162-25.114-25.114
						c0-13.952,9.302-24.184,21.394-26.044c4.651-10.232,14.882-17.673,26.975-17.673c6.511-13.022,20.464-20.463,35.346-20.463
						c15.813,0,29.765,9.302,36.276,23.254c13.952-2.79,27.904,4.651,34.416,15.813c11.162,2.79,18.604,12.092,18.604,24.184
						C5556.567,177.66,5545.406,188.822,5531.454,188.822z M5408.673,157.196c-3.721,0-6.511,2.79-6.511,6.511
						c0,4.651,2.791,7.441,6.511,7.441h123.71c3.721,0,6.511-2.79,6.511-6.511c0-4.651-2.79-7.441-6.511-7.441h-6.511l-2.79-6.511
						c-1.86-8.371-13.022-12.092-19.533-7.441l-12.092,7.441l-1.86-13.952c-1.86-10.232-10.231-17.673-21.394-17.673
						c-9.302,0-17.673,5.581-20.464,14.882l-2.79,8.371l-8.372-1.86c-7.441-1.86-13.953,2.79-14.882,9.302l-0.93,7.441
						L5408.673,157.196L5408.673,157.196z"/>
				</defs>
				<clipPath id="SVGID_40_">
					<use xlink:href="#SVGID_39_"  overflow="visible"/>
				</clipPath>
			</g>
		</g>
		<g>
			<g>
				<defs>
					<path id="SVGID_41_" d="M5813.291,337.647h-10.232c-8.372-24.184-31.625-40.927-58.6-40.927h-418.57
						c0,57.67,46.508,104.177,104.178,104.177h263.234h113.479h5.581c15.813,0,28.834-13.022,28.834-28.835v-5.581
						C5842.125,350.669,5829.104,337.647,5813.291,337.647"/>
				</defs>
				<clipPath id="SVGID_42_">
					<use xlink:href="#SVGID_41_"  overflow="visible"/>
				</clipPath>
			</g>
		</g>
		<g>
			<g>
				<defs>
					<path id="SVGID_43_" d="M5329.609,297.65h-2.79c0,57.67,46.508,104.177,104.177,104.177h263.234h112.549h5.581
						c15.813,0,28.834-13.022,28.834-28.835v-5.581c0-3.721-0.93-6.511-1.86-9.302c-3.721,11.162-14.882,19.533-26.975,19.533"/>
				</defs>
				<clipPath id="SVGID_44_">
					<use xlink:href="#SVGID_43_"  overflow="visible"/>
				</clipPath>
			</g>
			<g>
				<defs>
					<path id="SVGID_45_" d="M5329.609,297.65h-2.79c0,57.67,46.508,104.177,104.177,104.177h263.234h112.549h5.581
						c15.813,0,28.834-13.022,28.834-28.835v-5.581c0-3.721-0.93-6.511-1.86-9.302c-3.721,11.162-14.882,19.533-26.975,19.533"/>
				</defs>
				<defs>
					<polyline id="SVGID_46_" points="5813.291,376.713 5806.78,376.713 5694.231,376.713 5430.996,376.713 					"/>
				</defs>
				<clipPath id="SVGID_47_">
					<use xlink:href="#SVGID_45_"  overflow="visible"/>
				</clipPath>
				<clipPath id="SVGID_48_" clip-path="url(#SVGID_47_)">
					<use xlink:href="#SVGID_46_"  overflow="visible"/>
				</clipPath>
			</g>
		</g>
		<g>
			<g>
				<path id="SVGID_93_" d="M5813.291,410.199h-382.294c-62.32,0-113.479-50.228-113.479-112.549v-9.302h427.872
					c27.904,0,53.019,15.813,64.181,40.927h3.721c21.394,0,38.136,16.743,38.136,38.136v4.651
					C5850.497,393.456,5833.754,410.199,5813.291,410.199z M5336.121,306.021c4.651,48.368,45.578,85.574,94.876,85.574h382.294
					c11.162,0,19.533-8.371,19.533-19.533v-5.581c0-11.162-8.372-19.533-19.533-19.533h-16.743l-1.86-5.581
					c-7.441-20.463-27.904-34.416-50.229-34.416h-408.338V306.021z"/>
			</g>
			<g>
				<defs>
					<path id="SVGID_49_" d="M5813.291,410.199h-382.294c-62.32,0-113.479-50.228-113.479-112.549v-9.302h427.872
						c27.904,0,53.019,15.813,64.181,40.927h3.721c21.394,0,38.136,16.743,38.136,38.136v4.651
						C5850.497,393.456,5833.754,410.199,5813.291,410.199z M5336.121,306.021c4.651,48.368,45.578,85.574,94.876,85.574h382.294
						c11.162,0,19.533-8.371,19.533-19.533v-5.581c0-11.162-8.372-19.533-19.533-19.533h-16.743l-1.86-5.581
						c-7.441-20.463-27.904-34.416-50.229-34.416h-408.338V306.021z"/>
				</defs>
				<clipPath id="SVGID_50_">
					<use xlink:href="#SVGID_49_"  overflow="visible"/>
				</clipPath>
			</g>
		</g>
		<g>
			<g>
				<defs>
					<path id="SVGID_51_" d="M5445.879,330.206h-120.92c-8.372,0-13.953-6.511-13.953-13.952v-4.651
						c0-7.441,6.511-13.952,13.953-13.952h120.92c8.372,0,13.953,6.511,13.953,13.952v4.651
						C5459.832,323.694,5453.32,330.206,5445.879,330.206"/>
				</defs>
				<clipPath id="SVGID_52_">
					<use xlink:href="#SVGID_51_"  overflow="visible"/>
				</clipPath>
			</g>
		</g>
		<g>
			<g>
				<defs>
					<path id="SVGID_53_" d="M5681.208,412.989h-147.895c-8.372,0-13.953-6.511-13.953-13.952v-10.232
						c0-7.441,6.511-13.952,13.953-13.952h147.895c8.372,0,13.952,6.511,13.952,13.952v10.232
						C5695.161,406.478,5689.58,412.989,5681.208,412.989"/>
				</defs>
				<clipPath id="SVGID_54_">
					<use xlink:href="#SVGID_53_"  overflow="visible"/>
				</clipPath>
			</g>
		</g>
		<g>
			<g>
				<defs>
					<path id="SVGID_55_" d="M5445.879,339.507h-120.92c-13.022,0-23.254-10.232-23.254-23.254v-4.651
						c0-13.022,10.231-23.254,23.254-23.254h120.92c13.022,0,23.254,10.232,23.254,23.254v4.651
						C5469.133,329.275,5458.901,339.507,5445.879,339.507z M5324.959,306.021c-2.791,0-5.581,1.86-5.581,5.581v4.651
						c0,2.79,2.791,5.581,5.581,5.581h120.92c2.791,0,5.581-1.86,5.581-5.581v-4.651c0-2.79-1.861-5.581-5.581-5.581H5324.959z"/>
				</defs>
				<clipPath id="SVGID_56_">
					<use xlink:href="#SVGID_55_"  overflow="visible"/>
				</clipPath>
			</g>
		</g>
		<g>
			<g>
				<defs>
					<path id="SVGID_57_" d="M5681.208,422.291h-147.895c-13.022,0-23.254-10.232-23.254-23.254v-10.232
						c0-13.022,10.231-23.254,23.254-23.254h147.895c13.022,0,23.254,10.232,23.254,23.254v10.232
						C5704.462,412.059,5694.231,422.291,5681.208,422.291z M5533.313,383.224c-2.791,0-5.581,1.86-5.581,5.581v10.232
						c0,2.79,2.79,5.581,5.581,5.581h147.895c2.791,0,5.581-1.86,5.581-5.581v-10.232c0-2.79-2.79-5.581-5.581-5.581H5533.313z"/>
				</defs>
				<clipPath id="SVGID_58_">
					<use xlink:href="#SVGID_57_"  overflow="visible"/>
				</clipPath>
			</g>
		</g>
		<g>
			<g>
				<defs>
					<rect id="SVGID_59_" x="5295.193" y="42.787" width="558.094" height="508.795"/>
				</defs>
				<clipPath id="SVGID_60_">
					<use xlink:href="#SVGID_59_"  overflow="visible"/>
				</clipPath>
			</g>
		</g>
	</g>
	<g>
		<g>
			<g>
				<g>
					<defs>
						<path id="SVGID_61_" d="M4971.5,1273.384h-429.732c-7.441,0-13.022-5.581-13.022-13.022V957.131
							c0-7.441,5.581-13.022,13.022-13.022H4971.5c7.441,0,13.022,5.581,13.022,13.022v303.231
							C4984.521,1267.803,4978.011,1273.384,4971.5,1273.384"/>
					</defs>
					<clipPath id="SVGID_62_">
						<use xlink:href="#SVGID_61_"  overflow="visible"/>
					</clipPath>
				</g>
			</g>
			<g>
				<g>
					<defs>
						<path id="SVGID_63_" d="M4976.15,1279.895h-433.453c-12.092,0-21.394-9.302-21.394-21.394v-145.104h19.534v145.104l0.93,1.86
							h433.453l1.86-1.86V952.48l-1.86-1.86h-156.266v-19.533h156.266c12.092,0,21.394,9.302,21.394,21.394v306.021
							C4997.543,1270.594,4987.312,1279.895,4976.15,1279.895"/>
					</defs>
					<clipPath id="SVGID_64_">
						<use xlink:href="#SVGID_63_"  overflow="visible"/>
					</clipPath>
				</g>
			</g>
			<g>
				<g>
					<defs>
						<rect id="SVGID_65_" x="4552.929" y="969.223" width="412.059" height="266.025"/>
					</defs>
					<clipPath id="SVGID_66_">
						<use xlink:href="#SVGID_65_"  overflow="visible"/>
					</clipPath>
				</g>
			</g>
			<g>
				<g>
					<defs>
						<path id="SVGID_67_" d="M4976.15,1292.917h-442.755c-10.231,0-19.533-7.441-21.393-18.603l-2.791-19.533h205.564l7.441,11.162
							h56.739l8.372-11.162h216.726l-2.79,16.743C4998.474,1283.616,4988.242,1292.917,4976.15,1292.917"/>
					</defs>
					<clipPath id="SVGID_68_">
						<use xlink:href="#SVGID_67_"  overflow="visible"/>
					</clipPath>
				</g>
			</g>
			<g>
				<g>
					<defs>
						<path id="SVGID_69_" d="M4977.08,1299.428h-444.615c-15.813,0-28.834-11.162-31.625-26.044l-4.651-30.695h223.237
							l7.441,11.162h46.508l8.371-11.162h234.4l-4.651,27.905C5008.706,1287.336,4994.753,1299.428,4977.08,1299.428z
							 M4519.443,1261.292l0.93,7.441c0.93,5.581,5.581,10.232,12.092,10.232h444.615c7.441,0,13.952-5.581,14.882-12.092
							l0.93-5.581h-200.914l-8.372,11.162h-66.971l-7.441-11.162H4519.443z"/>
					</defs>
					<clipPath id="SVGID_70_">
						<use xlink:href="#SVGID_69_"  overflow="visible"/>
					</clipPath>
				</g>
			</g>
			<g>
				<g>
					<defs>
						<path id="SVGID_71_" d="M4767.795,1083.632H4498.05c-14.883,0-26.975-12.092-26.975-26.975v-181.38
							c0-14.883,12.092-26.975,26.975-26.975h269.745c14.883,0,26.975,12.092,26.975,26.975v181.38
							C4793.839,1071.54,4782.678,1083.632,4767.795,1083.632"/>
					</defs>
					<clipPath id="SVGID_72_">
						<use xlink:href="#SVGID_71_"  overflow="visible"/>
					</clipPath>
				</g>
			</g>
			<g>
				<g>
					<defs>
						<path id="SVGID_73_" d="M4471.075,899.461v-34.416c0-9.302,7.441-16.743,15.813-16.743h291.139
							c9.301,0,15.813,7.441,15.813,16.743v34.416H4471.075"/>
					</defs>
					<clipPath id="SVGID_74_">
						<use xlink:href="#SVGID_73_"  overflow="visible"/>
					</clipPath>
				</g>
			</g>
			<g>
				<g>
					<defs>
						<path id="SVGID_75_" d="M4779.887,1095.724h-295.79c-14.883,0-26.975-12.092-26.975-26.044V868.766
							c0-13.952,12.092-26.044,26.975-26.044h43.717v19.533h-43.717c-3.721,0-6.511,2.791-6.511,6.511v200.914
							c0,3.721,2.791,6.511,6.511,6.511h295.79c3.721,0,6.511-2.791,6.511-6.511V868.766c0-3.721-2.791-6.511-6.511-6.511h-195.333
							v-19.533h195.333c14.882,0,26.975,12.092,26.975,26.044v200.914C4806.862,1084.562,4794.77,1095.724,4779.887,1095.724"/>
					</defs>
					<clipPath id="SVGID_76_">
						<use xlink:href="#SVGID_75_"  overflow="visible"/>
					</clipPath>
				</g>
			</g>
			<g>
				<g>
					<defs>
						<rect id="SVGID_77_" x="4540.837" y="842.722" width="25.114" height="18.603"/>
					</defs>
					<clipPath id="SVGID_78_">
						<use xlink:href="#SVGID_77_"  overflow="visible"/>
					</clipPath>
				</g>
			</g>
			<g>
				<g>
					<defs>
						<rect id="SVGID_79_" x="4471.075" y="892.95" width="323.694" height="18.603"/>
					</defs>
					<clipPath id="SVGID_80_">
						<use xlink:href="#SVGID_79_"  overflow="visible"/>
					</clipPath>
				</g>
			</g>
			<g>
				<g>
					<defs>
						<rect id="SVGID_81_" x="4502.7" y="867.836" width="12.092" height="18.603"/>
					</defs>
					<clipPath id="SVGID_82_">
						<use xlink:href="#SVGID_81_"  overflow="visible"/>
					</clipPath>
				</g>
			</g>
			<g>
				<g>
					<defs>
						<rect id="SVGID_83_" x="4534.326" y="867.836" width="12.092" height="18.603"/>
					</defs>
					<clipPath id="SVGID_84_">
						<use xlink:href="#SVGID_83_"  overflow="visible"/>
					</clipPath>
				</g>
			</g>
			<g>
				<g>
					<defs>
						<rect id="SVGID_85_" x="4565.951" y="867.836" width="12.092" height="18.603"/>
					</defs>
					<clipPath id="SVGID_86_">
						<use xlink:href="#SVGID_85_"  overflow="visible"/>
					</clipPath>
				</g>
			</g>
			<g>
				<g>
					<polyline id="SVGID_195_" fill="#CCCCCC" points="4565.951,990.616 4565.951,980.385 4604.088,962.712 4604.088,973.874 
						4578.973,985.036 4604.088,996.197 4604.088,1007.359 4565.951,990.616 					"/>
				</g>
				<g>
					<defs>
						<polyline id="SVGID_87_" points="4565.951,990.616 4565.951,980.385 4604.088,962.712 4604.088,973.874 4578.973,985.036 
							4604.088,996.197 4604.088,1007.359 4565.951,990.616 						"/>
					</defs>
					<clipPath id="SVGID_88_">
						<use xlink:href="#SVGID_87_"  overflow="visible"/>
					</clipPath>
					<g clip-path="url(#SVGID_88_)">
						<g>
							<rect id="SVGID_197_" x="-2372.084" y="-203.704" fill="#CCCCCC" width="8663.476" height="4521.49"/>
						</g>
					</g>
				</g>
			</g>
			<g>
				<g>
					<polyline id="SVGID_199_" fill="#CCCCCC" points="4638.503,950.62 4648.735,950.62 4619.9,1013.87 4610.599,1013.87 
						4638.503,950.62 					"/>
				</g>
				<g>
					<defs>
						<polyline id="SVGID_89_" points="4638.503,950.62 4648.735,950.62 4619.9,1013.87 4610.599,1013.87 4638.503,950.62 						"/>
					</defs>
					<clipPath id="SVGID_90_">
						<use xlink:href="#SVGID_89_"  overflow="visible"/>
					</clipPath>
					<g clip-path="url(#SVGID_90_)">
						<g>
							<rect id="SVGID_201_" x="-2372.084" y="-203.704" fill="#CCCCCC" width="8663.476" height="4521.49"/>
						</g>
					</g>
				</g>
			</g>
			<g>
				<g>
					<polyline id="SVGID_203_" fill="#CCCCCC" points="4698.963,980.385 4698.963,990.616 4660.827,1007.359 4660.827,996.197 
						4685.941,985.036 4660.827,973.874 4660.827,962.712 4698.963,980.385 					"/>
				</g>
				<g>
					<defs>
						<polyline id="SVGID_91_" points="4698.963,980.385 4698.963,990.616 4660.827,1007.359 4660.827,996.197 4685.941,985.036 
							4660.827,973.874 4660.827,962.712 4698.963,980.385 						"/>
					</defs>
					<clipPath id="SVGID_92_">
						<use xlink:href="#SVGID_91_"  overflow="visible"/>
					</clipPath>
					<g clip-path="url(#SVGID_92_)">
						<g>
							<rect id="SVGID_205_" x="-2372.084" y="-203.704" fill="#CCCCCC" width="8663.476" height="4521.49"/>
						</g>
					</g>
				</g>
			</g>
			<g>
				<g>
					<defs>
						<rect id="SVGID_94_" x="4819.884" y="1000.848" width="107.898" height="18.603"/>
					</defs>
					<clipPath id="SVGID_95_">
						<use xlink:href="#SVGID_94_"  overflow="visible"/>
					</clipPath>
				</g>
			</g>
			<g>
				<g>
					<defs>
						<rect id="SVGID_96_" x="4851.509" y="1045.496" width="38.136" height="18.603"/>
					</defs>
					<clipPath id="SVGID_97_">
						<use xlink:href="#SVGID_96_"  overflow="visible"/>
					</clipPath>
				</g>
			</g>
			<g>
				<g>
					<defs>
						<rect id="SVGID_98_" x="4711.986" y="1102.235" width="107.898" height="18.603"/>
					</defs>
					<clipPath id="SVGID_99_">
						<use xlink:href="#SVGID_98_"  overflow="visible"/>
					</clipPath>
				</g>
			</g>
			<g>
				<g>
					<defs>
						<rect id="SVGID_100_" x="4838.487" y="1102.235" width="56.74" height="18.603"/>
					</defs>
					<clipPath id="SVGID_101_">
						<use xlink:href="#SVGID_100_"  overflow="visible"/>
					</clipPath>
				</g>
			</g>
			<g>
				<g>
					<defs>
						<rect id="SVGID_102_" x="4673.85" y="1102.235" width="18.603" height="18.603"/>
					</defs>
					<clipPath id="SVGID_103_">
						<use xlink:href="#SVGID_102_"  overflow="visible"/>
					</clipPath>
				</g>
			</g>
			<g>
				<g>
					<defs>
						<rect id="SVGID_104_" x="4578.974" y="1140.372" width="107.898" height="18.603"/>
					</defs>
					<clipPath id="SVGID_105_">
						<use xlink:href="#SVGID_104_"  overflow="visible"/>
					</clipPath>
				</g>
			</g>
			<g>
				<g>
					<defs>
						<rect id="SVGID_106_" x="4648.735" y="1185.019" width="107.898" height="18.603"/>
					</defs>
					<clipPath id="SVGID_107_">
						<use xlink:href="#SVGID_106_"  overflow="visible"/>
					</clipPath>
				</g>
			</g>
			<g>
				<g>
					<defs>
						<rect id="SVGID_108_" x="4781.747" y="1185.019" width="56.74" height="18.603"/>
					</defs>
					<clipPath id="SVGID_109_">
						<use xlink:href="#SVGID_108_"  overflow="visible"/>
					</clipPath>
				</g>
			</g>
		</g>
	</g>
</g>
<g id="specctr">
	<g id="Text_Properties">
	</g>
</g>
<g>
	<path fill-rule="evenodd" clip-rule="evenodd" fill="#D62027" d="M340.995,329.198v2.735c0,0-6.486,1.097-14.7,1.624
		c-2.949,0.126-6.095-0.049-9.192-0.206c-6.901-1.056-9.611-2.462-8.468-7.899c0,0,0.251-2.453,7.272-11.401
		c2.3-2.767,5.315-5.925,9.261-9.966l2.52,1.62c0,0-1.174,3.378-4.336,9.279c-2.72,4.981-5.946,10.569-5.946,10.569L340.995,329.198
		z"/>
	<g>
		<g>
			<path fill="#253775" d="M356.786,303.849c0,0-0.765-2.224-1.966-5.468c-1.964-5.309-5.216-13.273-9.105-18.127
				c-1.721-1.726-3.323-2.306-4.754-2.218c-1.432-0.088-3.034,0.492-4.754,2.218c-3.889,4.855-7.141,12.818-9.105,18.127
				c-1.2,3.245-1.966,5.468-1.966,5.468l-0.747,1.114l2.735,2.228l0.909-1.721l12.928-18.119l12.928,18.119l0.931,1.721l2.69-2.228
				L356.786,303.849z"/>
		</g>
	</g>
	<path fill-rule="evenodd" clip-rule="evenodd" fill="#009749" d="M340.95,329.177v2.73c0,0,6.481,1.075,14.722,1.621
		c3.17,0.21,6.255,0.035,9.205-0.205c6.911-1.054,9.625-2.458,8.48-7.886c0,0-0.251-2.449-7.282-11.383
		c-2.304-2.762-4.616-5.105-8.569-9.14l-2.725,2.225c0,0,0.672,1.955,3.839,7.847c2.724,4.973,5.854,10.552,5.854,10.552
		L340.95,329.177z"/>
</g>
</svg>
