<?xml version="1.0" encoding="utf-8"?>
<!-- Generator: Adobe Illustrator 17.0.0, SVG Export Plug-In . SVG Version: 6.00 Build 0)  -->
<!DOCTYPE svg PUBLIC "-//W3C//DTD SVG 1.1//EN" "http://www.w3.org/Graphics/SVG/1.1/DTD/svg11.dtd">
<svg version="1.1" id="Layer_1" xmlns="http://www.w3.org/2000/svg" xmlns:xlink="http://www.w3.org/1999/xlink" x="0px" y="0px"
	 width="842.35px" height="595.3px" viewBox="0 0 842.35 595.3" enable-background="new 0 0 842.35 595.3" xml:space="preserve">
<g id="Layer_1_1_">
	<g id="XMLID_737_">
		<g id="XMLID_312_">
			<path fill="#CCCCCC" d="M403.502,101.387c0,4.651-3.721,8.371-8.371,8.371s-8.371-3.721-8.371-8.371s3.721-8.371,8.371-8.371
				S403.502,96.736,403.502,101.387z"/>
		</g>
		<g id="XMLID_114_">
			<g id="XMLID_165_">
				<path fill="#FFFFFF" d="M551.397,528.329V93.016c0-13.022-10.232-24.184-24.184-24.184H175.614
					c-13.022,0-24.184,10.232-24.184,24.184v435.313H551.397z"/>
			</g>
			<g id="XMLID_739_">
				<path fill="#FFFFFF" d="M152.36,130.222V89.295c0-11.162,9.302-19.533,19.533-19.533h359.04
					c11.162,0,19.533,9.302,19.533,19.533v40.927H152.36z"/>
			</g>
			<g id="XMLID_736_">
				<path id="XMLID_164_" fill="#0D3178" d="M162.592,532.049h-20.463V89.295c0-16.743,13.952-29.765,29.765-29.765h359.04
					c16.743,0,29.765,13.952,29.765,29.765v81.854h-20.463V89.295c0-5.581-4.651-10.232-10.232-10.232h-358.11
					c-4.651,0-9.302,4.651-9.302,10.232L162.592,532.049L162.592,532.049z"/>
			</g>
			<g id="XMLID_735_">
				<rect id="XMLID_163_" x="152.36" y="121.85" fill="#0D3178" width="399.037" height="20.463"/>
			</g>
			<g id="XMLID_734_">
				<rect id="XMLID_162_" x="197.938" y="93.016" fill="#00984A" width="15.813" height="20.463"/>
			</g>
			<g id="XMLID_727_">
				<rect id="XMLID_161_" x="235.144" y="93.016" fill="#00984A" width="15.813" height="20.463"/>
			</g>
			<g id="XMLID_726_">
				<rect id="XMLID_160_" x="272.35" y="93.016" fill="#00984A" width="15.813" height="20.463"/>
			</g>
			<g id="XMLID_724_">
				<rect x="205.379" y="366.482" fill="#6DCFF6" width="88.365" height="115.339"/>
			</g>
			<g id="XMLID_723_">
				<rect x="307.696" y="366.482" fill="#6DCFF6" width="88.365" height="115.339"/>
			</g>
			<g id="XMLID_710_">
				<g id="XMLID_792_">
					<g id="XMLID_793_">
						<path fill="#FFFFFF" d="M655.574,365.551h-36.276v-73.482c0-37.206-29.765-66.971-66.971-66.971s-66.971,29.765-66.971,66.971
							v73.482H449.08v-73.482c0-56.74,46.508-104.177,104.177-104.177c56.74,0,103.247,46.508,103.247,104.177v73.482H655.574z"/>
					</g>
				</g>
				<g id="XMLID_789_">
					<g id="XMLID_154_">
						<path id="XMLID_155_" fill="#0D3178" d="M665.806,375.783h-56.74v-83.714c0-31.625-25.114-56.74-56.74-56.74
							s-56.74,25.114-56.74,56.74v83.714h-56.74v-83.714c0-63.251,51.159-113.479,113.479-113.479s113.479,51.159,113.479,113.479
							L665.806,375.783L665.806,375.783z M628.6,355.32h15.813v-63.251c0-51.159-41.857-93.946-93.946-93.946
							c-51.159,0-93.946,41.857-93.946,93.946v63.251h16.743v-63.251c0-42.787,34.416-77.203,77.203-77.203
							s77.203,34.416,77.203,77.203v63.251H628.6z"/>
					</g>
				</g>
				<g id="XMLID_153_">
					<ellipse fill="#FFFFFF" cx="551.308" cy="433.421" rx="133.94" ry="133.94"/>
				</g>
				<g id="XMLID_152_">
					<path fill="#6DCFF6" d="M627.67,433.453c0,41.857-34.416,76.273-76.273,76.273s-76.273-34.416-76.273-76.273
						s34.416-76.273,76.273-76.273C593.254,357.18,627.67,391.596,627.67,433.453z"/>
				</g>
				<g id="XMLID_151_">
					<path fill="#CCCCCC" d="M583.022,433.453c0,17.673-13.952,31.625-31.625,31.625s-31.625-13.952-31.625-31.625
						s13.952-31.625,31.625-31.625C569.07,401.828,583.022,415.78,583.022,433.453z"/>
				</g>
				<g id="XMLID_150_">
					<path fill="#0D3178" d="M563.489,433.453c0,6.511-5.581,12.092-12.092,12.092s-12.092-5.581-12.092-12.092
						s5.581-12.092,12.092-12.092S563.489,426.942,563.489,433.453z"/>
				</g>
				<g id="XMLID_146_">
					<path id="XMLID_147_" fill="#00984A" d="M551.397,475.31c-23.254,0-41.857-18.603-41.857-41.857s18.603-41.857,41.857-41.857
						s41.857,18.603,41.857,41.857S574.651,475.31,551.397,475.31z M551.397,412.059c-12.092,0-21.394,9.302-21.394,21.394
						s9.302,21.394,21.394,21.394s21.394-9.302,21.394-21.394S563.489,412.059,551.397,412.059z"/>
				</g>
				<g id="XMLID_144_">
					<path id="XMLID_145_" fill="#0D3178" d="M551.397,577.627c-79.063,0-144.174-65.111-144.174-144.174
						s65.111-144.174,144.174-144.174s144.174,65.111,144.174,144.174c0,14.882-2.79,30.695-7.441,44.647l-19.533-6.511
						c3.721-12.092,5.581-25.114,5.581-38.136c0-67.901-55.809-123.711-123.711-123.711s-123.711,55.809-123.711,123.711
						s55.809,123.711,123.711,123.711c37.206,0,72.552-16.743,95.806-45.578l15.813,13.022
						C636.041,558.094,595.114,577.627,551.397,577.627z"/>
				</g>
				<g id="XMLID_142_">
					<path id="XMLID_143_" fill="#0D3178" d="M672.317,511.586l-16.743-11.162c0.93-1.86,4.651-7.441,6.511-12.092l1.86-3.721
						l17.673,9.302l-1.86,3.721C676.968,503.215,674.177,509.726,672.317,511.586z"/>
				</g>
				<g id="XMLID_140_">
					<rect id="XMLID_141_" x="541.165" y="373.923" fill="#0D3178" width="20.463" height="17.673"/>
				</g>
				<g id="XMLID_138_">
					
						<rect id="XMLID_139_" x="567.956" y="379.695" transform="matrix(0.5001 -0.866 0.866 0.5001 -49.3208 694.4182)" fill="#0D3178" width="17.673" height="20.465"/>
				</g>
				<g id="XMLID_136_">
					
						<rect id="XMLID_137_" x="586.541" y="398.095" transform="matrix(0.866 -0.5 0.5 0.866 -124.3983 352.4029)" fill="#0D3178" width="17.673" height="20.463"/>
				</g>
				<g id="XMLID_122_">
					<rect id="XMLID_124_" x="593.254" y="424.151" fill="#0D3178" width="17.673" height="20.463"/>
				</g>
				<g id="XMLID_119_">
					
						<rect id="XMLID_121_" x="585.307" y="450.711" transform="matrix(0.4996 -0.8663 0.8663 0.4996 -100.0724 745.8632)" fill="#0D3178" width="20.465" height="17.675"/>
				</g>
				<g id="XMLID_117_">
					
						<rect id="XMLID_118_" x="566.187" y="468.668" transform="matrix(0.8657 -0.5005 0.5005 0.8657 -161.6011 352.6219)" fill="#0D3178" width="20.462" height="17.671"/>
				</g>
				<g id="XMLID_716_">
					<rect id="XMLID_116_" x="540.235" y="475.31" fill="#0D3178" width="20.463" height="17.673"/>
				</g>
				<g id="XMLID_715_">
					
						<rect id="XMLID_115_" x="516.729" y="466.817" transform="matrix(0.5001 -0.866 0.866 0.5001 -150.3753 693.6113)" fill="#0D3178" width="17.673" height="20.465"/>
				</g>
				<g id="XMLID_714_">
					
						<rect id="XMLID_1434_" x="498.341" y="448.333" transform="matrix(0.8655 -0.501 0.501 0.8655 -161.4951 315.78)" fill="#0D3178" width="17.675" height="20.465"/>
				</g>
				<g id="XMLID_713_">
					
						<rect id="XMLID_1433_" x="491.853" y="423.238" transform="matrix(1 -0.0013 0.0013 1 -0.5631 0.6513)" fill="#0D3178" width="17.673" height="20.463"/>
				</g>
				<g id="XMLID_712_">
					
						<rect id="XMLID_1432_" x="497.357" y="399.022" transform="matrix(0.4996 -0.8663 0.8663 0.4996 -99.3078 643.808)" fill="#0D3178" width="20.465" height="17.675"/>
				</g>
				<g id="XMLID_711_">
					
						<rect id="XMLID_1431_" x="516.384" y="381.292" transform="matrix(0.8654 -0.5011 0.5011 0.8654 -124.6051 316.3993)" fill="#0D3178" width="20.464" height="17.673"/>
				</g>
			</g>
		</g>
	</g>
</g>
<g id="specctr">
	<g id="Text_Properties">
	</g>
</g>
<path fill-rule="evenodd" clip-rule="evenodd" fill="#D62027" d="M291.264,302.056v6.874c0,0-16.303,2.758-36.951,4.081
	c-7.412,0.315-15.322-0.123-23.104-0.518c-17.347-2.654-24.159-6.189-21.285-19.855c0,0,0.63-6.166,18.278-28.658
	c5.782-6.955,13.359-14.893,23.279-25.052l6.335,4.073c0,0-2.951,8.491-10.9,23.325c-6.838,12.521-14.947,26.566-14.947,26.566
	L291.264,302.056z"/>
<g>
	<g>
		<path fill="#253775" d="M330.956,238.339c0,0-1.924-5.59-4.941-13.745c-4.936-13.344-13.11-33.362-22.886-45.565
			c-4.324-4.337-8.353-5.805-11.951-5.585c-3.598-0.22-7.627,1.248-11.951,5.585c-9.777,12.203-17.95,32.221-22.886,45.565
			c-3.017,8.155-4.941,13.745-4.941,13.745l-1.877,2.8l6.875,5.6l2.285-4.327l32.495-45.545l32.496,45.545l2.34,4.327l6.761-5.6
			L330.956,238.339z"/>
	</g>
</g>
<path fill-rule="evenodd" clip-rule="evenodd" fill="#009749" d="M291.15,302.005v6.862c0,0,16.292,2.703,37.004,4.075
	c7.969,0.528,15.724,0.088,23.137-0.516c17.372-2.65,24.195-6.18,21.316-19.823c0,0-0.631-6.157-18.305-28.612
	c-5.79-6.944-11.603-12.833-21.539-22.975l-6.851,5.593c0,0,1.689,4.914,9.649,19.724c6.848,12.5,14.714,26.523,14.714,26.523
	L291.15,302.005z"/>
</svg>
