<?xml version="1.0" encoding="utf-8"?>
<!-- Generator: Adobe Illustrator 17.0.0, SVG Export Plug-In . SVG Version: 6.00 Build 0)  -->
<!DOCTYPE svg PUBLIC "-//W3C//DTD SVG 1.1//EN" "http://www.w3.org/Graphics/SVG/1.1/DTD/svg11.dtd">
<svg version="1.1" id="Layer_1" xmlns="http://www.w3.org/2000/svg" xmlns:xlink="http://www.w3.org/1999/xlink" x="0px" y="0px"
	 width="842.35px" height="595.3px" viewBox="0 0 842.35 595.3" enable-background="new 0 0 842.35 595.3" xml:space="preserve">
<g>
	<g>
		<linearGradient id="SVGID_1_" gradientUnits="userSpaceOnUse" x1="421.4236" y1="491.8073" x2="421.4236" y2="108.554">
			<stop  offset="0" style="stop-color:#062A54"/>
			<stop  offset="0.2719" style="stop-color:#072C58"/>
			<stop  offset="0.5179" style="stop-color:#083263"/>
			<stop  offset="0.7539" style="stop-color:#0B3C75"/>
			<stop  offset="0.9825" style="stop-color:#104B8F"/>
			<stop  offset="1" style="stop-color:#104C91"/>
		</linearGradient>
		<path fill="url(#SVGID_1_)" d="M523.222,455.878c0,19.754-16.164,35.929-35.928,35.929H355.551
			c-19.768,0-35.926-16.175-35.926-35.929V144.483c0-19.754,16.158-35.929,35.926-35.929h131.742
			c19.764,0,35.928,16.175,35.928,35.929V455.878z"/>
		<linearGradient id="SVGID_2_" gradientUnits="userSpaceOnUse" x1="421.4236" y1="148.9813" x2="421.4236" y2="108.554">
			<stop  offset="0" style="stop-color:#062A54"/>
			<stop  offset="0.2719" style="stop-color:#072C58"/>
			<stop  offset="0.5179" style="stop-color:#083263"/>
			<stop  offset="0.7539" style="stop-color:#0B3C75"/>
			<stop  offset="0.9825" style="stop-color:#104B8F"/>
			<stop  offset="1" style="stop-color:#104C91"/>
		</linearGradient>
		<path fill="url(#SVGID_2_)" d="M487.294,108.554H355.551c-19.768,0-35.926,16.175-35.926,35.929v4.498
			c0-19.754,16.158-35.923,35.926-35.923h131.742c19.764,0,35.928,16.17,35.928,35.923v-4.498
			C523.222,124.729,507.058,108.554,487.294,108.554z"/>
		<path fill="#ACBEED" d="M486.438,484.717H354.695c-19.765,0-35.07-17.544-35.07-34.832v5.993
			c0,19.754,16.158,35.929,35.926,35.929h131.742c19.764,0,35.928-16.175,35.928-35.929v-5.993
			C523.222,467.173,506.208,484.717,486.438,484.717z"/>
		<linearGradient id="SVGID_3_" gradientUnits="userSpaceOnUse" x1="421.4208" y1="424.1372" x2="421.4208" y2="152.2826">
			<stop  offset="0" style="stop-color:#B0CCD6"/>
			<stop  offset="0.0437" style="stop-color:#B4D0D9"/>
			<stop  offset="0.2378" style="stop-color:#C1DBE3"/>
			<stop  offset="0.4888" style="stop-color:#C9E1E9"/>
			<stop  offset="1" style="stop-color:#CBE3EB"/>
		</linearGradient>
		<rect x="333.393" y="152.283" fill="url(#SVGID_3_)" width="176.055" height="271.855"/>
		<linearGradient id="SVGID_4_" gradientUnits="userSpaceOnUse" x1="421.4265" y1="416.9469" x2="421.4265" y2="159.4616">
			<stop  offset="0.4182" style="stop-color:#FAFAFA"/>
			<stop  offset="0.6494" style="stop-color:#E7F5FA"/>
			<stop  offset="1" style="stop-color:#CDEFFA"/>
		</linearGradient>
		<rect x="340.586" y="159.462" fill="url(#SVGID_4_)" width="161.68" height="257.485"/>
		<linearGradient id="SVGID_5_" gradientUnits="userSpaceOnUse" x1="421.4265" y1="416.9469" x2="421.4265" y2="159.4616">
			<stop  offset="0" style="stop-color:#B0CCD6"/>
			<stop  offset="0.0437" style="stop-color:#B4D0D9"/>
			<stop  offset="0.2378" style="stop-color:#C1DBE3"/>
			<stop  offset="0.4888" style="stop-color:#C9E1E9"/>
			<stop  offset="1" style="stop-color:#CBE3EB"/>
		</linearGradient>
		<path fill="url(#SVGID_5_)" d="M340.586,159.462v257.485h161.68V159.462H340.586z M496.267,410.959H346.574V165.45h149.693
			V410.959z"/>
		<linearGradient id="SVGID_6_" gradientUnits="userSpaceOnUse" x1="421.4279" y1="144.3004" x2="421.4279" y2="124.7408">
			<stop  offset="0" style="stop-color:#B0CCD6"/>
			<stop  offset="0.0437" style="stop-color:#B4D0D9"/>
			<stop  offset="0.2378" style="stop-color:#C1DBE3"/>
			<stop  offset="0.4888" style="stop-color:#C9E1E9"/>
			<stop  offset="1" style="stop-color:#CBE3EB"/>
		</linearGradient>
		<path opacity="0.6" fill="url(#SVGID_6_)" d="M395.474,144.3c-5.398,0-9.788-4.387-9.788-9.777c0-5.407,4.39-9.783,9.788-9.783
			h51.888c5.404,0,9.808,4.376,9.808,9.783c0,5.39-4.404,9.777-9.808,9.777H395.474z"/>
		<path fill="#FFFFFF" d="M452.373,134.523c0,2.753-2.249,4.98-5.01,4.98h-51.888c-2.767,0-4.993-2.227-4.993-4.98l0,0
			c0-2.77,2.226-4.991,4.993-4.991h51.888C450.123,129.532,452.373,131.754,452.373,134.523L452.373,134.523z"/>
		<linearGradient id="SVGID_7_" gradientUnits="userSpaceOnUse" x1="421.4265" y1="139.5032" x2="421.4265" y2="129.5323">
			<stop  offset="0" style="stop-color:#B0CCD6"/>
			<stop  offset="0.0437" style="stop-color:#B4D0D9"/>
			<stop  offset="0.2378" style="stop-color:#C1DBE3"/>
			<stop  offset="0.4888" style="stop-color:#C9E1E9"/>
			<stop  offset="1" style="stop-color:#CBE3EB"/>
		</linearGradient>
		<path fill="url(#SVGID_7_)" d="M447.362,129.532h-51.888c-2.767,0-4.993,2.221-4.993,4.991c0,2.753,2.226,4.98,4.993,4.98h51.888
			c2.761,0,5.01-2.227,5.01-4.98C452.373,131.754,450.123,129.532,447.362,129.532z M447.362,137.11h-51.888
			c-1.435,0-2.606-1.163-2.606-2.587c0-1.44,1.171-2.598,2.606-2.598h51.888c1.446,0,2.617,1.158,2.617,2.598
			C449.979,135.947,448.808,137.11,447.362,137.11z"/>
		<g>
			<path fill="#C9D8FF" d="M421.423,479.393c-14.347,0-26.013-11.677-26.013-26.019s11.666-26.019,26.013-26.019
				c14.347,0,26.008,11.677,26.008,26.019S435.771,479.393,421.423,479.393z"/>
			<path fill="#FFFFFF" d="M421.423,472.945c-10.799,0-19.573-8.775-19.573-19.571c0-10.791,8.774-19.571,19.573-19.571
				c10.802,0,19.569,8.78,19.569,19.571C440.992,464.171,432.225,472.945,421.423,472.945z M421.423,440.241
				c-7.248,0-13.131,5.899-13.131,13.134c0,7.24,5.883,13.129,13.131,13.129c7.243,0,13.14-5.889,13.14-13.129
				C434.563,446.14,428.666,440.241,421.423,440.241z"/>
		</g>
		<g>
			<linearGradient id="SVGID_8_" gradientUnits="userSpaceOnUse" x1="425.1887" y1="324.0207" x2="514.5447" y2="413.3766">
				<stop  offset="0" style="stop-color:#CCE3EB"/>
				<stop  offset="0.0277" style="stop-color:#D1E6ED"/>
				<stop  offset="0.1703" style="stop-color:#E3F0F5"/>
				<stop  offset="0.339" style="stop-color:#F0F7FB"/>
				<stop  offset="0.5569" style="stop-color:#F8FCFE"/>
				<stop  offset="1" style="stop-color:#FAFDFF"/>
			</linearGradient>
			<polygon fill="url(#SVGID_8_)" points="374.914,355.115 430.838,416.947 499.599,416.947 499.599,311.154 473.422,290.475 			"/>
			<g>
				
					<linearGradient id="SVGID_9_" gradientUnits="userSpaceOnUse" x1="175.5957" y1="298.546" x2="287.5693" y2="241.1878" gradientTransform="matrix(0.4559 -0.89 0.89 0.4559 78.0937 400.6071)">
					<stop  offset="0" style="stop-color:#062A54"/>
					<stop  offset="0.2719" style="stop-color:#072C58"/>
					<stop  offset="0.5179" style="stop-color:#083263"/>
					<stop  offset="0.7539" style="stop-color:#0B3C75"/>
					<stop  offset="0.9825" style="stop-color:#104B8F"/>
					<stop  offset="1" style="stop-color:#104C91"/>
				</linearGradient>
				<path fill="url(#SVGID_9_)" d="M471.966,288.93c1.756,0.897,2.332,3.307,1.29,5.356l-43.31,84.538
					c-1.053,2.044-3.348,2.992-5.102,2.089l-49.105-25.155c-1.753-0.897-2.332-3.313-1.285-5.362l43.296-84.532
					c1.061-2.061,3.357-2.986,5.107-2.094L471.966,288.93z"/>
				<linearGradient id="SVGID_10_" gradientUnits="userSpaceOnUse" x1="382.678" y1="315.4973" x2="438.3192" y2="315.4973">
					<stop  offset="0" style="stop-color:#FF7B00"/>
					<stop  offset="0.0242" style="stop-color:#FF7D01"/>
					<stop  offset="0.6742" style="stop-color:#FFAB0F"/>
					<stop  offset="1" style="stop-color:#FFBD14"/>
				</linearGradient>
				<polygon fill="url(#SVGID_10_)" points="391.2,363.68 438.319,271.686 429.796,267.315 382.678,359.298 				"/>
				<polygon fill="#104C91" points="426.179,320.355 404.063,363.53 399.828,361.358 421.944,318.195 				"/>
				<polygon fill="#104C91" points="446.218,281.225 427.614,317.563 423.379,315.392 441.991,279.048 				"/>
				<polygon fill="#104C91" points="436.131,318.012 410.996,367.075 406.761,364.904 431.896,315.835 				"/>
				<polygon fill="#104C91" points="443.808,332.559 422.98,373.208 418.756,371.053 439.579,330.404 				"/>
				<polygon fill="#104C91" points="465.147,290.924 453.544,313.57 449.309,311.404 460.912,288.753 				"/>
				<polygon fill="#104C91" points="459.012,287.778 447.409,310.429 443.174,308.268 454.777,285.612 				"/>
			</g>
			<linearGradient id="SVGID_11_" gradientUnits="userSpaceOnUse" x1="426.8746" y1="366.0533" x2="490.005" y2="431.3604">
				<stop  offset="0" style="stop-color:#CCE3EB"/>
				<stop  offset="0.0277" style="stop-color:#D1E6ED"/>
				<stop  offset="0.1703" style="stop-color:#E3F0F5"/>
				<stop  offset="0.339" style="stop-color:#F0F7FB"/>
				<stop  offset="0.5569" style="stop-color:#F8FCFE"/>
				<stop  offset="1" style="stop-color:#FAFDFF"/>
			</linearGradient>
			<polygon fill="url(#SVGID_11_)" points="392.543,381.256 424.581,416.947 499.547,416.947 499.547,387.965 457.677,349.715 			
				"/>
			<path fill="#CBE3EB" d="M440.083,342.131c-9.91-0.089-17.989,4.071-18.037,9.273l-0.05,6l-0.028,3.545l0,0l-0.025,2.952
				c-3.271-2.249-8.337-3.756-14.1-3.811c-6.423-0.05-11.173,2.127-14.372,4.759l31.373,16.064c1.753,0.903,4.049-0.044,5.102-2.089
				l18.228-35.569C445.734,342.586,443.008,342.153,440.083,342.131z"/>
			<g>
				<g>
					
						<linearGradient id="SVGID_12_" gradientUnits="userSpaceOnUse" x1="294.9073" y1="386.3879" x2="294.9073" y2="343.298" gradientTransform="matrix(-1 0 0 1 735.5306 0)">
						<stop  offset="0" style="stop-color:#FF7B00"/>
						<stop  offset="1" style="stop-color:#FFBD14"/>
					</linearGradient>
					<path fill="url(#SVGID_12_)" d="M422.62,371.828l0.006,0.011l0.019-3.423c0-0.017,0-0.028,0-0.039l0.053-6.265
						c0,0.011,0,0.017,0,0.028l0.036-3.567l0.041-5.999c0.047-5.19,8.126-9.373,18.037-9.273c9.916,0.078,17.923,4.371,17.876,9.584
						l-0.047,6.265c0,0,0,0.016,0,0.022l-0.041,4.747v0.006l-0.031,3.285c0-0.022,0-0.022,0-0.022l-0.036,4.952c0,0,0,0,0-0.006
						l-0.052,6.282c-0.05,5.207-8.11,8.065-18.031,7.971c-9.915-0.077-17.925-3.074-17.89-8.27L422.62,371.828z"/>
					<g>
						<path fill="#FFB82B" d="M458.688,352.883c-0.036,5.207-8.121,9.362-18.037,9.268c-9.91-0.083-17.912-4.36-17.876-9.578
							c0.047-5.19,8.126-9.373,18.037-9.273C450.728,343.377,458.735,347.67,458.688,352.883z"/>
					</g>
					<path fill="#F5D5A4" d="M440.651,361.685c-9.76-0.077-17.618-4.232-17.834-9.328c0,0.072-0.042,0.138-0.042,0.216
						c-0.036,5.218,7.966,9.494,17.876,9.578c9.915,0.094,18-4.061,18.037-9.268c0-0.089-0.036-0.166-0.047-0.25
						C458.377,357.747,450.423,361.774,440.651,361.685z"/>
					<path fill="#FFB82B" d="M440.817,343.848c9.719,0.078,17.56,4.21,17.823,9.278c0-0.089,0.047-0.166,0.047-0.243
						c0.047-5.213-7.96-9.506-17.876-9.584c-9.91-0.1-17.989,4.083-18.037,9.273c0,0.094,0.047,0.194,0.061,0.299
						C423.13,347.787,431.07,343.748,440.817,343.848z"/>
					<g>
						
							<linearGradient id="SVGID_13_" gradientUnits="userSpaceOnUse" x1="294.7993" y1="360.1959" x2="294.7993" y2="345.255" gradientTransform="matrix(-1 0 0 1 735.5306 0)">
							<stop  offset="0" style="stop-color:#FF7B00"/>
							<stop  offset="0.0242" style="stop-color:#FF7D01"/>
							<stop  offset="0.6742" style="stop-color:#FFAB0F"/>
							<stop  offset="1" style="stop-color:#FFBD14"/>
						</linearGradient>
						<path fill="url(#SVGID_13_)" d="M454.957,352.844c-0.036,4.144-6.423,7.412-14.289,7.351
							c-7.852-0.072-14.203-3.468-14.162-7.583c0.031-4.138,6.431-7.406,14.289-7.356
							C448.653,345.327,454.993,348.723,454.957,352.844z"/>
					</g>
					<path fill="#F5D5A4" d="M440.795,345.665c7.725,0.056,13.946,3.335,14.125,7.367c0-0.066,0.036-0.127,0.036-0.188
						c0.036-4.121-6.304-7.517-14.162-7.589c-7.858-0.05-14.259,3.218-14.289,7.356c0,0.066,0.036,0.133,0.045,0.2
						C426.778,348.773,433.062,345.587,440.795,345.665z"/>
					<path fill="#F5D5A4" d="M440.676,359.813c-7.739-0.072-13.976-3.368-14.125-7.406c0,0.072-0.045,0.128-0.045,0.205
						c-0.041,4.116,6.309,7.511,14.162,7.583c7.866,0.061,14.253-3.207,14.289-7.351c0-0.061-0.036-0.121-0.036-0.188
						C454.688,356.7,448.414,359.88,440.676,359.813z"/>
					<g>
						<path fill="#F5D5A4" d="M440.687,358.35c-3.808-0.039-7.284-1.18-9.059-2.985c-0.809-0.825-1.238-1.773-1.227-2.731
							c0.025-3.107,4.509-5.545,10.204-5.545c5.969,0.066,10.5,2.57,10.47,5.722c-0.028,3.107-4.515,5.539-10.226,5.539H440.687z"/>
						<path fill="#FFD336" d="M450.639,352.811c-0.025,2.875-4.478,5.157-9.946,5.102c-5.465-0.044-9.885-2.399-9.855-5.274
							c0.016-2.864,4.479-5.157,9.932-5.113C446.249,347.582,450.661,349.942,450.639,352.811z"/>
					</g>
					<path fill="#F5D5A4" d="M450.591,353.077c0-0.011,0-0.028,0-0.033c-0.313,2.465-4.612,4.393-9.899,4.348
						c-5.268-0.044-9.525-2.017-9.802-4.481c0,0.005,0,0.005,0,0.022c0.263,2.736,4.528,4.941,9.802,4.98
						C445.991,357.969,450.304,355.819,450.591,353.077z"/>
					<path fill="#FFB82B" d="M440.776,347.926c5.329,0.049,9.636,2.298,9.827,5.068c0-0.061,0.036-0.122,0.036-0.183
						c0.022-2.87-4.39-5.229-9.868-5.285c-5.453-0.044-9.916,2.249-9.932,5.113c0,0.072,0.031,0.138,0.041,0.205
						C431.082,350.08,435.436,347.876,440.776,347.926z"/>
					<g>
						
							<linearGradient id="SVGID_14_" gradientUnits="userSpaceOnUse" x1="294.7911" y1="356.9657" x2="294.7911" y2="348.4736" gradientTransform="matrix(-1 0 0 1 735.5306 0)">
							<stop  offset="0" style="stop-color:#FF7B00"/>
							<stop  offset="0.0242" style="stop-color:#FF7D01"/>
							<stop  offset="0.6742" style="stop-color:#FFAB0F"/>
							<stop  offset="1" style="stop-color:#FFBD14"/>
						</linearGradient>
						<path fill="url(#SVGID_14_)" d="M439.814,356.14c-0.568-0.033-1.052-0.066-1.46-0.116c-0.407-0.066-0.731-0.144-0.98-0.222
							l0.609-1.03c0.18,0.088,0.418,0.15,0.742,0.21c0.322,0.061,0.682,0.094,1.1,0.128l0.025-2.061
							c-0.319-0.1-0.612-0.216-0.917-0.322c-0.294-0.116-0.557-0.26-0.795-0.41c-0.233-0.155-0.429-0.332-0.562-0.549
							c-0.155-0.2-0.222-0.438-0.222-0.731c0-0.488,0.227-0.859,0.69-1.147c0.454-0.293,1.064-0.465,1.828-0.554l0.014-0.864
							l1.703,0.011l-0.006,0.842c0.413,0.011,0.79,0.044,1.106,0.105c0.324,0.044,0.628,0.105,0.917,0.177l-0.612,0.975
							c-0.166-0.044-0.371-0.111-0.615-0.144c-0.238-0.039-0.51-0.083-0.809-0.1l-0.011,1.862c0.31,0.094,0.617,0.205,0.927,0.332
							c0.294,0.116,0.573,0.255,0.812,0.427c0.246,0.149,0.437,0.332,0.593,0.532c0.155,0.2,0.233,0.438,0.233,0.72
							c-0.006,0.537-0.244,0.947-0.709,1.252c-0.462,0.321-1.102,0.526-1.892,0.62l-0.011,0.881l-1.698-0.016V356.14z
							 M440.62,350.33c-0.435,0.011-0.723,0.094-0.878,0.221c-0.174,0.144-0.252,0.288-0.252,0.432c0,0.194,0.097,0.382,0.31,0.504
							c0.222,0.133,0.49,0.26,0.803,0.382L440.62,350.33z M440.795,355.11c0.382-0.045,0.67-0.116,0.861-0.277
							c0.191-0.144,0.285-0.31,0.299-0.526c0-0.211-0.108-0.394-0.324-0.538c-0.216-0.138-0.484-0.288-0.82-0.382L440.795,355.11z"
							/>
						<path fill="#F5D5A4" d="M443.892,353.493c-0.155-0.2-0.347-0.382-0.593-0.532c-0.238-0.172-0.518-0.31-0.812-0.427
							c-0.31-0.128-0.618-0.238-0.927-0.332l0.011-1.862c0.299,0.017,0.571,0.061,0.809,0.1c0.244,0.033,0.449,0.1,0.615,0.144
							l0.612-0.975c-0.288-0.072-0.593-0.133-0.917-0.177c-0.316-0.061-0.693-0.094-1.106-0.105l0.006-0.842l-1.703-0.011
							l-0.014,0.864c-0.765,0.089-1.374,0.26-1.828,0.554c-0.462,0.288-0.69,0.659-0.69,1.147c0,0.293,0.067,0.531,0.222,0.731
							c0.133,0.216,0.33,0.393,0.562,0.549c0.238,0.149,0.501,0.293,0.795,0.41c0.305,0.105,0.598,0.222,0.917,0.322l-0.025,2.061
							c-0.418-0.033-0.778-0.067-1.1-0.128c-0.324-0.061-0.562-0.122-0.742-0.21l-0.609,1.03c0.249,0.078,0.573,0.155,0.98,0.222
							c0.407,0.05,0.892,0.083,1.46,0.116v0.809l1.698,0.016l0.011-0.881c0.79-0.094,1.429-0.299,1.892-0.62
							c0.465-0.305,0.703-0.715,0.709-1.252C444.124,353.93,444.047,353.692,443.892,353.493z M443.174,355.11
							c-0.412,0.277-0.997,0.465-1.698,0.543l-0.382,0.039l-0.006,0.831l-0.839-0.006l0.006-0.798l-0.419-0.022
							c-0.562-0.022-1.027-0.056-1.423-0.116c-0.13-0.011-0.255-0.039-0.369-0.061l0.13-0.221c0.144,0.05,0.299,0.077,0.479,0.099
							c0.335,0.067,0.707,0.116,1.141,0.139l0.46,0.039l0.025-2.848c0,0-0.872-0.288-1.155-0.393
							c-0.299-0.122-0.538-0.249-0.754-0.382c-0.191-0.122-0.335-0.266-0.435-0.421c-0.108-0.133-0.144-0.282-0.144-0.493
							c0-0.332,0.144-0.571,0.479-0.787c0.393-0.238,0.955-0.41,1.651-0.476l0.387-0.044l0.006-0.814h0.837l-0.006,0.82l0.418,0.016
							c0.391,0.022,0.748,0.05,1.047,0.111c0.103,0.011,0.205,0.027,0.299,0.033l-0.108,0.188c-0.108-0.033-0.228-0.055-0.357-0.072
							c-0.241-0.05-0.526-0.078-0.825-0.116l-0.474-0.028l-0.031,2.654l0.319,0.094c0.299,0.094,0.593,0.205,0.883,0.327
							c0.319,0.122,0.551,0.25,0.726,0.372c0.213,0.127,0.377,0.277,0.501,0.443c0.103,0.127,0.144,0.277,0.144,0.454
							C443.684,354.6,443.521,354.888,443.174,355.11z"/>
					</g>
					<g>
						
							<linearGradient id="SVGID_15_" gradientUnits="userSpaceOnUse" x1="294.9851" y1="386.3879" x2="294.9851" y2="371.828" gradientTransform="matrix(-1 0 0 1 735.5306 0)">
							<stop  offset="0" style="stop-color:#FF7B00"/>
							<stop  offset="1" style="stop-color:#FFBD14"/>
						</linearGradient>
						<path fill="url(#SVGID_15_)" d="M440.491,381.417c-9.916-0.083-17.917-4.371-17.87-9.589l-0.061,6.287
							c-0.036,5.196,7.974,8.193,17.89,8.27c9.922,0.094,17.982-2.764,18.031-7.971l0.052-6.282
							C458.485,377.34,450.412,381.506,440.491,381.417z"/>
					</g>
					<path fill="#F5D5A4" d="M458.48,377.755c-0.05,5.213-8.11,8.287-18.031,8.204c-9.893-0.083-17.89-3.279-17.875-8.464
						l-0.014,0.621c-0.036,5.196,7.974,8.193,17.89,8.27c9.922,0.094,17.982-2.764,18.031-7.971l0.052-6.282
						c0,0.006-0.005,0.017-0.011,0.022L458.48,377.755z"/>
					<path fill="#E66409" d="M440.532,376.465c-9.915-0.083-17.917-4.365-17.876-9.589l-0.036,4.952
						c-0.047,5.218,7.954,9.506,17.87,9.589c9.921,0.088,17.995-4.077,18.042-9.285l-0.011,1.324l0,0l0.047-6.27
						C458.521,372.399,450.447,376.548,440.532,376.465z"/>
					<linearGradient id="SVGID_16_" gradientUnits="userSpaceOnUse" x1="440.6247" y1="376.4659" x2="440.6247" y2="362.1117">
						<stop  offset="0" style="stop-color:#FF7B00"/>
						<stop  offset="1" style="stop-color:#FFBD14"/>
					</linearGradient>
					<path fill="url(#SVGID_16_)" d="M440.573,371.701c-9.915-0.094-17.917-4.376-17.875-9.589l-0.053,6.265
						c0,0.006,0,0.017,0,0.022l0.011-1.523c-0.041,5.224,7.961,9.506,17.876,9.589c9.915,0.083,17.99-4.066,18.037-9.278
						l-0.011,1.501c0-0.006,0.006-0.006,0.006-0.006l0.041-6.265C458.569,367.624,450.494,371.789,440.573,371.701z"/>
					<path fill="#FF700A" d="M440.615,366.926c-9.915-0.083-17.917-4.371-17.87-9.594l-0.047,4.797
						c-0.017,5.196,7.966,9.478,17.875,9.572c9.921,0.089,17.995-4.077,18.031-9.285l-0.005,1.512c0-0.005,0-0.011,0-0.011
						l0.052-6.282C458.604,362.86,450.531,367.014,440.615,366.926z"/>
					<linearGradient id="SVGID_17_" gradientUnits="userSpaceOnUse" x1="440.7162" y1="366.9273" x2="440.7162" y2="352.573">
						<stop  offset="0" style="stop-color:#FF7B00"/>
						<stop  offset="1" style="stop-color:#FFBD14"/>
					</linearGradient>
					<path fill="url(#SVGID_17_)" d="M440.651,362.151c-9.91-0.083-17.912-4.36-17.876-9.578l-0.03,4.759
						c-0.047,5.224,7.954,9.511,17.87,9.594c9.916,0.089,17.989-4.066,18.037-9.29l-0.016,1.534c0-0.006,0.006-0.022,0.006-0.022
						l0.047-6.265C458.651,358.09,450.566,362.245,440.651,362.151z"/>
					<path fill="#F5D5A4" d="M458.532,371.657c-0.119,5.174-8.157,9.301-18.025,9.212c-9.915-0.089-17.923-4.376-17.87-9.589
						l0.044-4.326c-0.008-0.016-0.025-0.044-0.025-0.077l-0.036,4.952c-0.047,5.218,7.954,9.506,17.87,9.589
						c9.921,0.088,17.995-4.077,18.042-9.285l-0.011,1.324L458.532,371.657z"/>
					<g>
						<path fill="#F5D5A4" d="M422.709,362.189c0-0.028-0.011-0.05-0.011-0.078l-0.053,6.265c0,0.006,0,0.017,0,0.022l0.011-1.523
							c0,0.028,0.017,0.044,0.017,0.061L422.709,362.189z"/>
						<path fill="#F5D5A4" d="M440.554,375.911c-9.921-0.083-17.923-4.371-17.873-9.584l-0.008,0.626
							c0.03,5.185,7.991,9.429,17.859,9.512c9.915,0.083,17.99-4.066,18.037-9.278l-0.011,1.501c0-0.006,0.006-0.006,0.006-0.006
							l0.016-1.961C458.449,371.889,450.417,376.005,440.554,375.911z"/>
					</g>
					<path fill="#F5D5A4" d="M440.59,371.147c-9.902-0.088-17.898-4.365-17.868-9.561l0.031-4.182c0-0.017-0.008-0.05-0.008-0.072
						l-0.047,4.797c-0.017,5.196,7.966,9.478,17.875,9.572c9.921,0.089,17.995-4.077,18.031-9.285l-0.005,1.512
						c0-0.005,0-0.011,0-0.011l0.016-1.994C458.513,367.109,450.47,371.23,440.59,371.147z"/>
					<path fill="#F5D5A4" d="M440.635,366.377c-9.916-0.083-17.917-4.376-17.876-9.594l0.036-4.132c0-0.033-0.019-0.056-0.019-0.078
						l-0.03,4.759c-0.047,5.224,7.954,9.511,17.87,9.594c9.916,0.089,17.989-4.066,18.037-9.29l-0.016,1.534
						c0-0.006,0.006-0.022,0.006-0.022l0.016-2C458.557,362.344,450.506,366.466,440.635,366.377z"/>
				</g>
				<linearGradient id="SVGID_18_" gradientUnits="userSpaceOnUse" x1="390.4882" y1="373.825" x2="426.4368" y2="373.825">
					<stop  offset="0" style="stop-color:#DD3F18"/>
					<stop  offset="0.4157" style="stop-color:#E74A1B"/>
					<stop  offset="1" style="stop-color:#FD6120"/>
				</linearGradient>
				<path fill="url(#SVGID_18_)" d="M408.555,361.259c-9.766-0.094-17.715,4.221-17.989,9.633l0,0c0,0.083-0.041,0.15-0.041,0.244
					l-0.036,5.058c-0.041,5.55,7.952,10.115,17.868,10.198c9.916,0.094,17.995-4.326,18.037-9.871l-0.011,1.623
					c0-0.011,0.005-0.016,0.005-0.022l0.05-6.664C426.479,365.917,418.477,361.353,408.555,361.259z"/>
				<g>
					<path fill="#FFB82B" d="M426.437,371.457c-0.044,5.545-8.123,9.96-18.039,9.855c-9.907-0.072-17.917-4.637-17.873-10.176
						c0.047-5.545,8.121-9.977,18.031-9.877C418.477,361.353,426.479,365.917,426.437,371.457z"/>
				</g>
				<path fill="#F5D5A4" d="M408.398,380.819c-9.753-0.072-17.624-4.498-17.832-9.927c0,0.083-0.041,0.15-0.041,0.244
					c-0.044,5.539,7.966,10.104,17.873,10.176c9.915,0.105,17.995-4.31,18.039-9.855c0-0.083-0.044-0.178-0.05-0.26
					C426.118,376.631,418.172,380.919,408.398,380.819z"/>
				<path fill="#FFB82B" d="M408.561,361.841c9.724,0.088,17.557,4.487,17.826,9.871c0-0.088,0.05-0.172,0.05-0.255
					c0.042-5.54-7.96-10.104-17.881-10.198c-9.91-0.099-17.984,4.332-18.031,9.877c0,0.105,0.047,0.21,0.053,0.315
					C390.876,366.039,398.811,361.746,408.561,361.841z"/>
				<g>
					
						<linearGradient id="SVGID_19_" gradientUnits="userSpaceOnUse" x1="327.054" y1="379.2354" x2="327.054" y2="363.3517" gradientTransform="matrix(-1 0 0 1 735.5306 0)">
						<stop  offset="0" style="stop-color:#FF7B00"/>
						<stop  offset="0.0242" style="stop-color:#FF7D01"/>
						<stop  offset="0.6742" style="stop-color:#FFAB0F"/>
						<stop  offset="1" style="stop-color:#FFBD14"/>
					</linearGradient>
					<path fill="url(#SVGID_19_)" d="M422.698,371.418c-0.031,4.393-6.423,7.882-14.281,7.816
						c-7.858-0.072-14.203-3.673-14.162-8.076c0.036-4.388,6.429-7.877,14.286-7.805
						C416.399,363.419,422.739,367.037,422.698,371.418z"/>
				</g>
				<path fill="#F5D5A4" d="M408.423,378.824c-7.739-0.072-13.976-3.573-14.132-7.866c0,0.066-0.036,0.133-0.036,0.2
					c-0.041,4.404,6.304,8.004,14.162,8.076c7.857,0.066,14.25-3.423,14.281-7.816c0-0.067-0.031-0.133-0.031-0.194
					C422.429,375.517,416.155,378.896,408.423,378.824z"/>
				<g>
					<path fill="#F5D5A4" d="M408.434,377.284c-3.808-0.044-7.284-1.263-9.06-3.185c-0.811-0.892-1.238-1.883-1.232-2.903
						c0.024-3.301,4.509-5.889,10.209-5.889c5.969,0.056,10.489,2.731,10.472,6.071c-0.03,3.307-4.52,5.905-10.226,5.905H408.434z"
						/>
					<path fill="#FFD336" d="M418.385,371.379c-0.022,3.058-4.478,5.484-9.952,5.44c-5.459-0.05-9.885-2.548-9.855-5.622
						c0.025-3.047,4.479-5.478,9.94-5.434C413.99,365.823,418.404,368.333,418.385,371.379z"/>
				</g>
				<path fill="#F5D5A4" d="M418.332,371.662c0-0.011-0.006-0.022-0.006-0.033c-0.305,2.626-4.606,4.67-9.893,4.625
					c-5.262-0.044-9.519-2.149-9.802-4.759l-0.006,0.006c0.269,2.925,4.528,5.268,9.808,5.318
					C413.732,376.858,418.044,374.581,418.332,371.662z"/>
				<path fill="#FFB82B" d="M408.525,366.189c5.329,0.061,9.628,2.448,9.825,5.396c0.005-0.072,0.036-0.128,0.036-0.205
					c0.019-3.047-4.396-5.556-9.866-5.617c-5.461-0.044-9.915,2.388-9.94,5.434c0,0.072,0.031,0.155,0.036,0.227
					C398.831,368.466,403.185,366.139,408.525,366.189z"/>
				<g>
					
						<linearGradient id="SVGID_20_" gradientUnits="userSpaceOnUse" x1="327.0471" y1="375.7998" x2="327.0471" y2="366.7705" gradientTransform="matrix(-1 0 0 1 735.5306 0)">
						<stop  offset="0" style="stop-color:#FF7B00"/>
						<stop  offset="0.0242" style="stop-color:#FF7D01"/>
						<stop  offset="0.6742" style="stop-color:#FFAB0F"/>
						<stop  offset="1" style="stop-color:#FFBD14"/>
					</linearGradient>
					<path fill="url(#SVGID_20_)" d="M407.561,374.919c-0.573-0.027-1.058-0.071-1.46-0.127c-0.413-0.061-0.734-0.144-0.981-0.238
						l0.609-1.075c0.175,0.078,0.421,0.15,0.737,0.21c0.33,0.061,0.687,0.1,1.106,0.139l0.014-2.199
						c-0.305-0.106-0.604-0.227-0.909-0.344c-0.293-0.122-0.562-0.266-0.798-0.427c-0.227-0.166-0.418-0.349-0.568-0.571
						c-0.15-0.216-0.213-0.482-0.213-0.786c0.006-0.521,0.233-0.925,0.687-1.23c0.454-0.299,1.069-0.499,1.836-0.582l0.006-0.919
						l1.709,0.017l-0.006,0.88c0.413,0.022,0.784,0.066,1.102,0.122c0.327,0.039,0.632,0.111,0.92,0.188l-0.61,1.036
						c-0.169-0.05-0.371-0.116-0.623-0.149c-0.233-0.044-0.501-0.083-0.8-0.111l-0.025,1.983c0.324,0.1,0.623,0.222,0.933,0.355
						c0.299,0.122,0.582,0.272,0.815,0.444c0.243,0.166,0.443,0.371,0.593,0.581c0.155,0.216,0.238,0.454,0.233,0.753
						c-0.006,0.571-0.247,1.014-0.706,1.34c-0.46,0.332-1.1,0.56-1.897,0.648l-0.006,0.942l-1.703-0.006L407.561,374.919z
						 M408.37,368.731c-0.438,0.028-0.731,0.111-0.892,0.255c-0.168,0.139-0.246,0.299-0.246,0.449c0,0.216,0.103,0.41,0.318,0.549
						c0.222,0.133,0.491,0.266,0.801,0.404L408.37,368.731z M408.541,373.828c0.377-0.056,0.67-0.128,0.862-0.299
						c0.191-0.138,0.282-0.332,0.288-0.554c0.006-0.233-0.097-0.416-0.319-0.571c-0.213-0.155-0.484-0.305-0.825-0.416
						L408.541,373.828z"/>
					<path fill="#F5D5A4" d="M411.636,372.116c-0.15-0.21-0.349-0.415-0.593-0.581c-0.233-0.172-0.516-0.322-0.815-0.444
						c-0.31-0.133-0.609-0.255-0.933-0.355l0.025-1.983c0.299,0.028,0.568,0.067,0.8,0.111c0.252,0.033,0.454,0.099,0.623,0.149
						l0.61-1.036c-0.288-0.078-0.593-0.15-0.92-0.188c-0.318-0.056-0.689-0.1-1.102-0.122l0.006-0.88l-1.709-0.017l-0.006,0.919
						c-0.767,0.083-1.382,0.283-1.836,0.582c-0.454,0.305-0.681,0.709-0.687,1.23c0,0.305,0.064,0.571,0.213,0.786
						c0.15,0.222,0.341,0.404,0.568,0.571c0.235,0.161,0.504,0.305,0.798,0.427c0.305,0.116,0.604,0.238,0.909,0.344l-0.014,2.199
						c-0.419-0.039-0.776-0.078-1.106-0.139c-0.315-0.061-0.562-0.133-0.737-0.21l-0.609,1.075c0.247,0.094,0.568,0.177,0.981,0.238
						c0.402,0.056,0.886,0.1,1.46,0.127l-0.006,0.875l1.703,0.006l0.006-0.942c0.798-0.088,1.437-0.316,1.897-0.648
						c0.459-0.327,0.701-0.77,0.706-1.34C411.874,372.571,411.79,372.332,411.636,372.116z M410.915,373.828
						c-0.404,0.293-0.997,0.493-1.698,0.57l-0.382,0.05l-0.006,0.892l-0.836-0.011l0.005-0.859l-0.418-0.016
						c-0.556-0.022-1.024-0.061-1.418-0.127c-0.138-0.011-0.258-0.033-0.371-0.056l0.133-0.238c0.136,0.044,0.291,0.072,0.471,0.111
						c0.335,0.066,0.712,0.111,1.141,0.144l0.462,0.033l0.031-3.019c0,0-0.875-0.316-1.155-0.432
						c-0.305-0.122-0.54-0.25-0.759-0.404c-0.185-0.133-0.335-0.277-0.432-0.443c-0.108-0.144-0.149-0.305-0.149-0.521
						c0-0.36,0.149-0.61,0.484-0.837c0.396-0.266,0.95-0.443,1.651-0.521l0.382-0.033l0.006-0.875l0.839,0.011l-0.008,0.865
						l0.421,0.022c0.388,0.011,0.753,0.061,1.053,0.111c0.099,0.016,0.196,0.028,0.29,0.044l-0.105,0.183
						c-0.114-0.016-0.227-0.044-0.355-0.072c-0.244-0.039-0.526-0.077-0.831-0.111l-0.474-0.044l-0.028,2.836l0.316,0.094
						c0.299,0.094,0.593,0.21,0.892,0.343c0.316,0.139,0.543,0.26,0.723,0.399c0.21,0.139,0.372,0.3,0.501,0.477
						c0.097,0.138,0.144,0.282,0.144,0.471C411.43,373.274,411.264,373.578,410.915,373.828z"/>
				</g>
				<linearGradient id="SVGID_21_" gradientUnits="userSpaceOnUse" x1="408.4624" y1="386.3928" x2="408.4624" y2="371.136">
					<stop  offset="0" style="stop-color:#FF7B00"/>
					<stop  offset="1" style="stop-color:#FFBD14"/>
				</linearGradient>
				<path fill="url(#SVGID_21_)" d="M408.398,381.312c-9.907-0.072-17.917-4.637-17.873-10.176l-0.036,5.058
					c-0.041,5.55,7.952,10.115,17.868,10.198c9.916,0.094,17.995-4.326,18.037-9.871l-0.011,1.623c0-0.011,0.005-0.016,0.005-0.022
					l0.05-6.664C426.392,377.002,418.313,381.417,408.398,381.312z"/>
				<path fill="#F5D5A4" d="M408.381,385.804c-9.921-0.078-17.917-4.642-17.87-10.204l0.031-4.388c0-0.033-0.016-0.061-0.016-0.077
					l-0.036,5.058c-0.041,5.55,7.952,10.115,17.868,10.198c9.916,0.094,17.995-4.326,18.037-9.871l-0.011,1.623
					c0-0.011,0.005-0.016,0.005-0.022l0.014-2.116C426.298,381.516,418.25,385.904,408.381,385.804z"/>
			</g>
		</g>
		<linearGradient id="SVGID_22_" gradientUnits="userSpaceOnUse" x1="403.915" y1="108.6318" x2="395.1046" y2="449.9859">
			<stop  offset="0" style="stop-color:#306173"/>
			<stop  offset="0.1717" style="stop-color:#2E5D6E"/>
			<stop  offset="0.363" style="stop-color:#285261"/>
			<stop  offset="0.5639" style="stop-color:#1F3F4B"/>
			<stop  offset="0.7712" style="stop-color:#12252C"/>
			<stop  offset="0.9816" style="stop-color:#020304"/>
			<stop  offset="1" style="stop-color:#000000"/>
		</linearGradient>
		<path opacity="0.7" fill="url(#SVGID_22_)" d="M355.551,108.554c-19.768,0-35.926,16.175-35.926,35.929v4.498v275.156
			l167.668-315.583H355.551z"/>
	</g>
	<g>
		<linearGradient id="SVGID_23_" gradientUnits="userSpaceOnUse" x1="331.7591" y1="225.426" x2="331.7591" y2="159.4616">
			<stop  offset="0" style="stop-color:#5EA814"/>
			<stop  offset="0.351" style="stop-color:#62A914"/>
			<stop  offset="0.6685" style="stop-color:#6DAD12"/>
			<stop  offset="0.9721" style="stop-color:#7FB410"/>
			<stop  offset="1" style="stop-color:#81B510"/>
		</linearGradient>
		<polygon fill="url(#SVGID_23_)" points="342.963,225.426 290.662,225.426 340.487,159.462 372.856,159.462 		"/>
		<linearGradient id="SVGID_24_" gradientUnits="userSpaceOnUse" x1="374.0931" y1="225.426" x2="374.0931" y2="159.4616">
			<stop  offset="0" style="stop-color:#FF7B00"/>
			<stop  offset="0.0242" style="stop-color:#FF7D01"/>
			<stop  offset="0.6742" style="stop-color:#FFAB0F"/>
			<stop  offset="1" style="stop-color:#FFBD14"/>
		</linearGradient>
		<polygon fill="url(#SVGID_24_)" points="395.26,225.426 342.963,225.426 372.856,159.462 405.224,159.462 		"/>
		<linearGradient id="SVGID_25_" gradientUnits="userSpaceOnUse" x1="421.4123" y1="225.426" x2="421.4123" y2="159.4616">
			<stop  offset="0" style="stop-color:#5EA814"/>
			<stop  offset="0.351" style="stop-color:#62A914"/>
			<stop  offset="0.6685" style="stop-color:#6DAD12"/>
			<stop  offset="0.9721" style="stop-color:#7FB410"/>
			<stop  offset="1" style="stop-color:#81B510"/>
		</linearGradient>
		<polygon fill="url(#SVGID_25_)" points="447.564,225.426 395.26,225.426 405.224,159.462 437.602,159.462 		"/>
		<linearGradient id="SVGID_26_" gradientUnits="userSpaceOnUse" x1="468.7321" y1="225.426" x2="468.7321" y2="159.4616">
			<stop  offset="0" style="stop-color:#FF7B00"/>
			<stop  offset="0.0242" style="stop-color:#FF7D01"/>
			<stop  offset="0.6742" style="stop-color:#FFAB0F"/>
			<stop  offset="1" style="stop-color:#FFBD14"/>
		</linearGradient>
		<polygon fill="url(#SVGID_26_)" points="499.863,225.426 447.564,225.426 437.602,159.462 469.966,159.462 		"/>
		<linearGradient id="SVGID_27_" gradientUnits="userSpaceOnUse" x1="511.0661" y1="225.426" x2="511.0661" y2="159.4616">
			<stop  offset="0" style="stop-color:#5EA814"/>
			<stop  offset="0.351" style="stop-color:#62A914"/>
			<stop  offset="0.6685" style="stop-color:#6DAD12"/>
			<stop  offset="0.9721" style="stop-color:#7FB410"/>
			<stop  offset="1" style="stop-color:#81B510"/>
		</linearGradient>
		<polygon fill="url(#SVGID_27_)" points="552.166,225.426 499.863,225.426 469.966,159.462 502.344,159.462 		"/>
	</g>
	<linearGradient id="SVGID_28_" gradientUnits="userSpaceOnUse" x1="316.8123" y1="251.5718" x2="316.8123" y2="225.426">
		<stop  offset="0" style="stop-color:#69AC13"/>
		<stop  offset="1" style="stop-color:#569912"/>
	</linearGradient>
	<path fill="url(#SVGID_28_)" d="M316.808,251.572c14.444,0,26.154-11.71,26.154-26.146h-52.301
		C290.662,239.862,302.367,251.572,316.808,251.572z"/>
	<linearGradient id="SVGID_29_" gradientUnits="userSpaceOnUse" x1="369.1144" y1="251.5718" x2="369.1144" y2="225.426">
		<stop  offset="0" style="stop-color:#FF9207"/>
		<stop  offset="1" style="stop-color:#FF6F00"/>
	</linearGradient>
	<path fill="url(#SVGID_29_)" d="M369.115,251.572c14.441,0,26.151-11.71,26.151-26.146h-52.304
		C342.963,239.862,354.67,251.572,369.115,251.572z"/>
	<linearGradient id="SVGID_30_" gradientUnits="userSpaceOnUse" x1="421.418" y1="251.5718" x2="421.418" y2="225.426">
		<stop  offset="0" style="stop-color:#69AC13"/>
		<stop  offset="1" style="stop-color:#569912"/>
	</linearGradient>
	<path fill="url(#SVGID_30_)" d="M421.413,251.572c14.447,0,26.157-11.71,26.157-26.146h-52.304
		C395.266,239.862,406.977,251.572,421.413,251.572z"/>
	<linearGradient id="SVGID_31_" gradientUnits="userSpaceOnUse" x1="473.7187" y1="251.5718" x2="473.7187" y2="225.426">
		<stop  offset="0" style="stop-color:#FF9207"/>
		<stop  offset="1" style="stop-color:#FF6F00"/>
	</linearGradient>
	<path fill="url(#SVGID_31_)" d="M473.716,251.572c14.444,0,26.152-11.71,26.152-26.146H447.57
		C447.57,239.862,459.28,251.572,473.716,251.572z"/>
	<linearGradient id="SVGID_32_" gradientUnits="userSpaceOnUse" x1="526.0208" y1="251.5718" x2="526.0208" y2="225.426">
		<stop  offset="0" style="stop-color:#69AC13"/>
		<stop  offset="1" style="stop-color:#569912"/>
	</linearGradient>
	<path fill="url(#SVGID_32_)" d="M526.028,251.572c14.436,0,26.146-11.71,26.146-26.146h-52.306
		C499.868,239.862,511.578,251.572,526.028,251.572z"/>
</g>
<g>
	<path fill="none" d="M492.232,390.788l-50.284-27.175l5.796,18.389c-49.76-1.463-89.79-42.394-89.79-92.502
		c0-51.031,41.516-92.547,92.547-92.547v-8.048c-55.468,0-100.594,45.126-100.594,100.594c0,54.415,43.43,98.871,97.446,100.54
		l-9.675,17.802L492.232,390.788z"/>
</g>
<g>
	<g>
		<path fill-rule="evenodd" clip-rule="evenodd" fill="#0D3178" d="M567.242,186.644l10.648-9.594l-47.851,1.408l33.35,30.117
			l-0.015-14.089c23.882,11.995,40.055,54.898,37.34,108.979c-3.324,66.217-34.357,123.699-68.887,123.33l-0.871,11.416
			c37.587,0.404,71.459-62.327,74.928-134.695C608.615,246.533,592.051,200.979,567.242,186.644z"/>
	</g>
</g>
<g>
	<g>
		<path fill-rule="evenodd" clip-rule="evenodd" fill="#0D3178" d="M312.467,436.805l-33.35-30.117l0.015,14.089
			c-23.882-11.995-40.055-54.898-37.34-108.979c3.324-66.217,34.357-123.699,68.887-123.33l0.871-11.416
			c-37.587-0.404-71.459,62.327-74.928,134.695c-2.731,56.984,13.833,102.538,38.643,116.872l-10.648,9.594L312.467,436.805z"/>
	</g>
</g>
</svg>
