<svg xmlns="http://www.w3.org/2000/svg" viewBox="0 0 64 64" enable-background="new 0 0 64 64"><path fill="#fff" d="M48 40h-32c-1.1 0-1.9-.9-1.9-1.9v-22c0-1.1.9-1.9 1.9-1.9h32c1.1 0 1.9.9 1.9 1.9v22c.1 1.1-.8 1.9-1.9 1.9z"/><path fill="#0686D8" d="M25 40.8h-9.2c-1.3 0-2.4-1.1-2.4-2.4v-22.5c0-1.3 1.1-2.4 2.4-2.4h1.9v1.5h-1.9c-.5 0-.9.4-.9.9v22.5c0 .5.4.9.9.9h9.2v1.5zM48.3 40.8h-3.9v-1.5h3.9c.5 0 .9-.4.9-.9v-22.5c0-.5-.4-.9-.9-.9h-21.8v-1.5h21.8c1.3 0 2.4 1.1 2.4 2.4v22.5c0 1.3-1.1 2.4-2.4 2.4zM15.9 24.7h1.5v4.9h-1.5z"/><path fill="#D2E9F7" d="M18.8 16.4h26.2v21.4h-26.2z"/><path fill="#0686D8" d="M46.7 28.8c-.9 0-1.7-.8-1.7-1.7 0-.9.8-1.7 1.7-1.7.9 0 1.7.8 1.7 1.7-.1 1-.8 1.7-1.7 1.7zm0-1.8c-.1 0-.2.1-.2.2 0 .2.4.2.4 0-.1-.2-.1-.2-.2-.2z"/><circle fill="#5FB0E5" cx="20.6" cy="43.3" r=".8"/><circle fill="#5FB0E5" cx="14.1" cy="47.1" r=".8"/><circle fill="#5FB0E5" cx="44.4" cy="50" r=".6"/><circle fill="#5FB0E5" cx="47" cy="44.2" r="1.1"/><circle fill="#5FB0E5" cx="25" cy="48.6" r="1.5"/><path fill="#0686D8" d="M22.5 30l-2.9-2.9 2.8-2.9 1.1 1.1-1.8 1.8 1.8 1.9zM41.2 30l-1.1-1 1.8-1.9-1.8-1.8 1.1-1.1 2.9 2.9z"/><path fill="#5FB0E5" d="M25.8 22.8h12.6v8.7h-12.6z"/><path fill="#0686D8" d="M39.2 32.2h-14.1v-10.2h14.1v10.2zm-12.6-1.5h11.1v-7.2h-11.1v7.2z"/><path fill="#fff" d="M39.9 34.6c-.7 0-1.3.6-1.3 1.3v-1.4c0-.7-.6-1.3-1.3-1.3-.7 0-1.3.6-1.3 1.3v-1.4c0-.7-.6-1.3-1.3-1.3-.7 0-1.3.6-1.3 1.3v-4.2c0-.7-.6-1.3-1.3-1.3-.7 0-1.3.6-1.3 1.3v8.4h-1.9c-.5 0-.9.4-.9.9v5.9c0 .5.3.9.7 1.1l1.1.5c.4.2.7.6.7 1.1v2.6h8.9v-2.9c0-.3.1-.6.3-.8l1.4-1.3c.2-.2.4-.6.4-.9v-7.6c-.3-.7-.9-1.3-1.6-1.3z"/><path fill="#0686D8" d="M31.3 39.7h-1.5v-10.8c0-1.1.9-2.1 2.1-2.1 1.1 0 2.1.9 2.1 2.1v8.9h-1.5v-8.9c0-.3-.3-.6-.6-.6s-.6.3-.6.6v10.8zM36.6 35.4h-1.5v-2.3c0-.3-.3-.6-.6-.6s-.6.3-.6.6v2.3h-1.5v-2.3c0-1.1.9-2.1 2.1-2.1 1.1 0 2.1.9 2.1 2.1v2.3zM39.3 37.7h-1.5v-3.2c0-.3-.3-.6-.6-.6s-.6.3-.6.6v3.2h-1.5v-3.2c0-1.1.9-2.1 2.1-2.1 1.1 0 2.1.9 2.1 2.1v3.2zM39.9 49.4h-1.5v-2.9c0-.5.2-1 .5-1.3l1.4-1.3c.1-.1.2-.2.2-.4v-7.6c0-.3-.3-.6-.6-.6s-.6.3-.6.6v1.3h-1.5v-1.3c0-1.1.9-2.1 2.1-2.1 1.1 0 2.1.9 2.1 2.1v7.6c0 .5-.2 1.1-.6 1.4l-1.4 1.4c-.1.1-.1.1-.1.2v2.9zM31 49.4h-1.5v-2.6c0-.2-.1-.4-.3-.4l-1.1-.5c-.7-.3-1.1-1-1.1-1.8v-5.9c0-.9.7-1.7 1.7-1.7h1.9v1.5h-1.9c-.1 0-.2.1-.2.2v5.9c0 .2.1.4.3.4l1.1.5c.7.3 1.1 1 1.1 1.8v2.6z"/><path fill="#5FB0E5" d="M29.1 47.1h11.4v5.4h-11.4z"/><path fill="#0686D8" d="M41.2 52.5h-1.5v-4.6h-9.9v4.6h-1.5v-6.1h12.9zM19.979 13.461l4.098-.12.044 1.499-4.098.12z"/></svg>