<?xml version="1.0" encoding="utf-8"?>
<!-- Generator: Adobe Illustrator 17.0.0, SVG Export Plug-In . SVG Version: 6.00 Build 0)  -->
<!DOCTYPE svg PUBLIC "-//W3C//DTD SVG 1.1//EN" "http://www.w3.org/Graphics/SVG/1.1/DTD/svg11.dtd">
<svg version="1.1" id="Layer_1" xmlns="http://www.w3.org/2000/svg" xmlns:xlink="http://www.w3.org/1999/xlink" x="0px" y="0px"
	 width="842.35px" height="595.3px" viewBox="0 0 842.35 595.3" enable-background="new 0 0 842.35 595.3" xml:space="preserve">
<g id="Layer_1_1_">
	<g id="XMLID_259_">
		<g id="XMLID_266_">
			<g id="XMLID_302_">
				<path id="XMLID_303_" fill="#0D3178" d="M444.429,210.215l-13.022-6.511c-8.371-3.721-83.714-39.997-98.597-66.041
					c-8.371-13.952-10.232-29.765-5.581-45.578c3.721-15.813,13.952-28.835,27.905-36.276c13.952-8.371,29.765-10.232,45.578-5.581
					c15.813,3.721,28.835,13.952,36.276,27.905c4.651,8.371,7.441,21.394,9.302,39.997c2.79,34.416-0.93,77.203-0.93,79.063
					L444.429,210.215z M384.899,66.971c-7.441,0-13.952,1.86-20.463,5.581c-9.302,5.581-15.813,13.952-18.603,25.114
					c-2.79,10.232-0.93,21.394,3.721,30.695c7.441,13.952,47.438,37.206,77.203,52.089c0.93-14.883,1.86-39.997,0-61.39
					c-1.86-20.463-4.651-28.835-6.511-31.625l0,0c-5.581-9.302-13.952-15.813-25.114-18.603
					C392.34,66.971,388.62,66.971,384.899,66.971z"/>
			</g>
			<g id="XMLID_300_">
				<path id="XMLID_301_" fill="#0D3178" d="M444.429,203.704l-8.371-17.673c29.765-13.952,80.924-42.787,90.225-58.6
					c5.581-9.302,6.511-20.463,3.721-30.695s-9.302-19.533-18.603-25.114c-14.882-8.371-34.416-6.511-47.438,4.651
					c-2.79,3.721-5.581,7.441-8.371,11.162l-16.743-10.232c3.721-5.581,7.441-11.162,12.092-14.882
					c19.533-16.743,47.438-19.533,69.762-6.511c13.952,8.371,24.184,21.394,27.905,36.276c3.721,15.813,1.86,31.625-5.581,45.578
					C528.143,163.708,452.8,199.984,444.429,203.704z"/>
			</g>
			<g id="XMLID_299_">
				<path fill="#FFFFFF" d="M602.555,565.535H274.21c-12.092,0-22.324-10.232-22.324-22.324V220.447h373.923v322.764
					C624.879,556.233,614.647,565.535,602.555,565.535z"/>
			</g>
			<g id="XMLID_297_">
				<path id="XMLID_298_" fill="#0D3178" d="M601.625,575.767H275.14c-18.603,0-33.486-14.882-33.486-33.486v-13.022h19.533v13.022
					c0,7.441,6.511,13.952,13.952,13.952h326.485c7.441,0,13.952-6.511,13.952-13.952V229.749h-354.39v197.193h-19.533V210.215
					h393.456v332.066C635.111,560.884,620.228,575.767,601.625,575.767z"/>
			</g>
			<g id="XMLID_295_">
				<rect id="XMLID_296_" x="241.655" y="451.126" fill="#0D3178" width="19.533" height="58.6"/>
			</g>
			<g id="XMLID_294_">
				<path fill="#6DCFF6" d="M632.32,251.142H244.445c-7.441,0-13.952-5.581-13.952-13.952v-40.927
					c0-7.441,5.581-13.952,13.952-13.952H632.32c7.441,0,13.952,5.581,13.952,13.952v40.927
					C645.343,244.631,639.762,251.142,632.32,251.142z"/>
			</g>
			<g id="XMLID_290_">
				<path id="XMLID_291_" fill="#0D3178" d="M631.39,260.444H244.445c-13.022,0-24.184-11.162-24.184-24.184v-39.067
					c0-13.022,11.162-24.184,24.184-24.184H631.39c13.022,0,24.184,11.162,24.184,24.184v39.067
					C655.574,250.212,644.412,260.444,631.39,260.444z M244.445,193.473c-2.79,0-4.651,1.86-4.651,4.651v39.067
					c0,2.79,1.86,4.651,4.651,4.651H631.39c2.79,0,4.651-1.86,4.651-4.651v-39.067c0-2.79-1.86-4.651-4.651-4.651H244.445z"/>
			</g>
			<g id="XMLID_289_">
				<rect x="397.921" y="183.241" fill="#FFFFFF" width="89.295" height="382.294"/>
			</g>
			<g id="XMLID_285_">
				<path id="XMLID_286_" fill="#0D3178" d="M496.518,575.767H387.689V173.939h108.828V575.767z M407.223,556.233h69.762V193.473
					h-69.762V556.233z"/>
			</g>
			<g id="XMLID_283_">
				
					<rect id="XMLID_284_" x="392.624" y="209.519" transform="matrix(-0.866 0.5 -0.5 -0.866 929.0714 189.6203)" fill="#0D3178" width="93.014" height="19.533"/>
			</g>
			<g id="XMLID_281_">
				
					<rect id="XMLID_282_" x="395.197" y="253.834" transform="matrix(-0.866 0.5 -0.5 -0.866 957.7662 270.5622)" fill="#0D3178" width="94.874" height="19.533"/>
			</g>
			<g id="XMLID_279_">
				
					<rect id="XMLID_280_" x="394.183" y="300.665" transform="matrix(-0.866 0.5 -0.5 -0.866 979.29 358.456)" fill="#0D3178" width="94.874" height="19.533"/>
			</g>
			<g id="XMLID_277_">
				
					<rect id="XMLID_278_" x="394.002" y="347.009" transform="matrix(-0.866 0.5001 -0.5001 -0.866 1002.1379 444.9769)" fill="#0D3178" width="94.879" height="19.534"/>
			</g>
			<g id="XMLID_275_">
				
					<rect id="XMLID_276_" x="393.421" y="394.66" transform="matrix(-0.866 0.5 -0.5 -0.866 1024.8671 534.2335)" fill="#0D3178" width="94.874" height="19.533"/>
			</g>
			<g id="XMLID_272_">
				
					<rect id="XMLID_274_" x="393.248" y="441.009" transform="matrix(-0.866 0.5001 -0.5001 -0.866 1047.7385 620.7555)" fill="#0D3178" width="94.879" height="19.534"/>
			</g>
			<g id="XMLID_270_">
				
					<rect id="XMLID_271_" x="393.042" y="487.372" transform="matrix(-0.866 0.5001 -0.5001 -0.866 1070.5403 707.37)" fill="#0D3178" width="94.879" height="19.534"/>
			</g>
			<g id="XMLID_267_">
				
					<rect id="XMLID_269_" x="392.496" y="535.005" transform="matrix(-0.866 0.5001 -0.5001 -0.866 1093.3407 796.5262)" fill="#0D3178" width="94.879" height="19.534"/>
			</g>
		</g>
	</g>
</g>
<g id="specctr">
	<g id="Text_Properties">
	</g>
</g>
</svg>
