<?xml version="1.0" encoding="utf-8"?>
<!-- Generator: Adobe Illustrator 17.0.0, SVG Export Plug-In . SVG Version: 6.00 Build 0)  -->
<!DOCTYPE svg PUBLIC "-//W3C//DTD SVG 1.1//EN" "http://www.w3.org/Graphics/SVG/1.1/DTD/svg11.dtd">
<svg version="1.1" id="Layer_1" xmlns="http://www.w3.org/2000/svg" xmlns:xlink="http://www.w3.org/1999/xlink" x="0px" y="0px"
	 width="842.35px" height="595.3px" viewBox="0 0 842.35 595.3" enable-background="new 0 0 842.35 595.3" xml:space="preserve">
<g id="Layer_1_1_">
	<g id="XMLID_496_">
		<g id="XMLID_65_">
			<path fill="#FFFFFF" d="M481.635,330.206l56.74-60.46c13.952-17.673,42.787,0.93,26.975,17.673l-45.578,62.32h22.324
				l52.089-55.809c0,0,4.651-35.346,6.511-39.997l0.93-44.647c-3.721-7.441,0-16.743,7.441-20.463
				c7.441-3.721,16.743,0,20.463,7.441v50.228c1.86,3.721,0.93,64.181,0.93,64.181l-63.251,130.222h-93.946v-93.016
				C474.194,342.298,477.914,334.856,481.635,330.206z"/>
		</g>
		<g id="XMLID_64_">
			<path id="XMLID_1587_" fill="#0D3178" d="M574.651,451.126H463.032V347.878v-0.93c0.93-7.441,5.581-17.673,11.162-23.254
				l56.74-60.46c5.581-7.441,15.813-12.092,26.044-10.232c10.232,1.86,18.603,8.371,21.394,16.743
				c2.79,8.371,0.93,16.743-5.581,23.254l-28.835,39.997l43.717-46.508c0.93-11.162,2.79-29.765,3.721-37.206l-0.93-43.717v-0.93
				c0-1.86,0-2.79,0-4.651c0.93-7.441,0.93-18.603,13.022-23.254c6.511-2.79,13.022-2.79,19.533-0.93
				c6.511,2.79,11.162,7.441,13.952,13.022l0.93,1.86l1.86,53.949c0.93,4.651,1.86,18.603,0.93,65.111v1.86L574.651,451.126z
				 M483.495,431.593h79.993l59.53-122.781c0-25.114,0-53.019-0.93-58.6v-0.93l-1.86-52.089c-0.93-0.93-1.86-0.93-1.86-1.86
				c-0.93-0.93-2.79-0.93-4.651,0c-0.93,0.93-0.93,4.651-1.86,7.441c0,1.86,0,2.79,0,4.651l0.93,44.647v0.93
				c-0.93,2.79-2.79,22.324-4.651,38.136v3.721l-59.53,64.181h-45.578l56.74-78.133c1.86-2.79,2.79-3.721,2.79-4.651
				c-0.93-1.86-2.79-3.721-6.511-3.721c-2.79-0.93-5.581,0.93-7.441,3.721l-57.67,61.39c-2.79,2.79-5.581,8.371-5.581,12.092
				L483.495,431.593z"/>
		</g>
		<g id="XMLID_40_">
			<path fill="#FFFFFF" d="M590.463,577.627v-119.06c0-6.511-4.651-11.162-11.162-11.162H451.87
				c-6.511,0-11.162,4.651-11.162,11.162v119.06H590.463z"/>
		</g>
		<g id="XMLID_718_">
			<path fill="#FFFFFF" d="M360.715,330.206l-56.74-60.46c-13.952-17.673-42.787,0.93-26.975,17.673l45.578,62.32h-22.324
				l-52.089-55.809c0,0-4.651-35.346-6.511-39.997l-0.93-44.647c3.721-7.441,0-16.743-7.441-20.463
				c-7.441-3.721-16.743,0-20.463,7.441v50.228c-1.86,3.721-0.93,64.181-0.93,64.181l63.251,130.222h95.806v-93.016
				C368.156,342.298,364.435,334.856,360.715,330.206z"/>
		</g>
		<g id="XMLID_717_">
			<path id="XMLID_1584_" fill="#0D3178" d="M378.388,451.126H266.769l-66.041-137.663v-1.86c0-46.508,0.93-60.46,0.93-65.111
				l1.86-53.949l0.93-1.86c5.581-12.092,20.463-18.603,33.486-12.092c11.162,5.581,12.092,15.813,13.022,23.254
				c0,1.86,0,2.79,0,4.651v0.93l-0.93,43.717c0.93,6.511,2.79,26.044,3.721,37.206l43.717,46.508l-29.765-40.927
				c-5.581-6.511-7.441-14.883-4.651-23.254s11.162-14.883,21.394-16.743c10.232-1.86,20.463,2.79,26.044,11.162l55.809,59.53l0,0
				l0,0c5.581,5.581,10.232,15.813,11.162,23.254v0.93L378.388,451.126z M279.791,431.593h79.993v-82.784
				c-0.93-3.721-3.721-9.302-5.581-12.092l0,0l-56.74-60.46c-2.79-3.721-5.581-4.651-8.371-3.721c-2.79,0.93-5.581,2.79-6.511,3.721
				c0,0.93,0,2.79,1.86,3.721l56.74,79.063h-45.578l-59.53-64.181v-3.721c-1.86-16.743-3.721-35.346-4.651-38.136v-2.79l0.93-43.717
				c0-1.86,0-2.79,0-4.651c0-2.79,0-6.511-0.93-6.511c-2.79-0.93-5.581-0.93-6.511,0.93l-2.79,53.019
				c-0.93,5.581-0.93,33.486-0.93,58.6L279.791,431.593z"/>
		</g>
		<g id="XMLID_501_">
			<path fill="#FFFFFF" d="M251.887,577.627v-119.06c0-6.511,4.651-11.162,11.162-11.162H390.48c6.511,0,11.162,4.651,11.162,11.162
				v119.06H251.887z"/>
		</g>
		<g id="XMLID_417_">
			<path id="XMLID_1583_" fill="#0D3178" d="M599.765,577.627h-19.533v-119.06c0-0.93-0.93-0.93-0.93-0.93H451.87
				c-0.93,0-0.93,0.93-0.93,0.93v119.06h-20.463v-119.06c0-11.162,9.302-20.463,20.463-20.463h128.362
				c11.162,0,20.463,9.302,20.463,20.463V577.627z"/>
		</g>
		<g id="XMLID_467_">
			<path id="XMLID_1582_" fill="#0D3178" d="M411.873,577.627H392.34v-119.06c0-0.93-0.93-0.93-0.93-0.93H263.048
				c-0.93,0-0.93,0.93-0.93,0.93v119.06h-19.533v-119.06c0-11.162,9.302-20.463,20.463-20.463H390.48
				c11.162,0,20.463,9.302,20.463,20.463v119.06H411.873z"/>
		</g>
		<g id="XMLID_166_">
			<path fill="#CCCCCC" d="M404.432,103.247c0,4.651-3.721,8.371-8.371,8.371c-4.651,0-8.371-3.721-8.371-8.371
				s3.721-8.371,8.371-8.371C400.712,94.876,404.432,98.597,404.432,103.247z"/>
		</g>
		<g id="XMLID_11_">
			<path fill="#FFFFFF" d="M417.454,265.095c-66.041-0.93-118.13-55.809-116.27-121.85c0-65.111,54.879-117.2,120.92-115.339
				c66.041,0.93,118.13,55.809,116.27,121.85C537.445,214.866,482.565,266.955,417.454,265.095z"/>
		</g>
		<g id="XMLID_12_">
			<path id="XMLID_13_" fill="#0D3178" d="M512.33,234.399l-12.092-11.162c6.511-6.511,11.162-13.022,15.813-20.463l13.952,8.371
				C524.422,218.587,518.841,226.958,512.33,234.399z"/>
		</g>
		<g id="XMLID_8_">
			<path id="XMLID_9_" fill="#0D3178" d="M419.315,273.466c-0.93,0-1.86,0-2.79,0c-33.486-0.93-65.111-14.883-89.295-39.067
				c-23.254-24.184-36.276-56.74-35.346-90.225c0.93-33.486,14.883-65.111,39.067-89.295c25.114-23.254,56.74-36.276,91.155-35.346
				c33.486,0.93,65.111,14.882,89.295,39.067c23.254,24.184,36.276,56.74,35.346,90.225c0,13.022-2.79,26.044-6.511,39.067
				l-14.882-4.651c3.721-11.162,5.581-22.324,5.581-34.416c0.93-29.765-10.232-57.67-30.695-79.063s-48.368-33.486-78.133-34.416
				c-29.765,0-57.67,10.232-79.063,30.695s-33.486,48.368-34.416,78.133c-0.93,29.765,10.232,57.67,30.695,79.063
				c20.463,21.394,48.368,33.486,78.133,34.416c20.463,0,41.857-4.651,59.53-15.813l8.371,13.022
				C464.892,266.955,442.569,273.466,419.315,273.466z"/>
		</g>
		<g>
			<path fill="#0D3178" d="M378.211,105.145h10.028v37.461h0.346c2.075-2.997,4.15-5.763,6.109-8.299l23.745-29.162h12.448
				l-28.125,32.966l30.315,44.723h-11.872l-25.589-38.153l-7.377,8.53v29.623h-10.028V105.145z"/>
			<path fill="#0D3178" d="M438.956,172.46c2.997,1.959,8.299,4.035,13.371,4.035c7.377,0,10.835-3.688,10.835-8.299
				c0-4.841-2.882-7.492-10.374-10.259c-10.028-3.573-14.754-9.105-14.754-15.791c0-8.991,7.262-16.368,19.249-16.368
				c5.648,0,10.604,1.614,13.717,3.458l-2.536,7.377c-2.189-1.383-6.224-3.228-11.411-3.228c-5.993,0-9.336,3.458-9.336,7.607
				c0,4.611,3.343,6.686,10.604,9.452c9.682,3.688,14.639,8.53,14.639,16.829c0,9.797-7.607,16.713-20.863,16.713
				c-6.109,0-11.757-1.499-15.677-3.804L438.956,172.46z"/>
		</g>
	</g>
</g>
<g id="specctr">
	<g id="Text_Properties">
	</g>
</g>
</svg>
