<?xml version="1.0" encoding="utf-8"?>
<!-- Generator: Adobe Illustrator 17.0.0, SVG Export Plug-In . SVG Version: 6.00 Build 0)  -->
<!DOCTYPE svg PUBLIC "-//W3C//DTD SVG 1.1//EN" "http://www.w3.org/Graphics/SVG/1.1/DTD/svg11.dtd">
<svg version="1.1" id="Layer_1" xmlns="http://www.w3.org/2000/svg" xmlns:xlink="http://www.w3.org/1999/xlink" x="0px" y="0px"
	 width="842.35px" height="595.3px" viewBox="0 0 842.35 595.3" enable-background="new 0 0 842.35 595.3" xml:space="preserve">
<g id="Layer_1_1_">
	<g id="XMLID_1248_">
		<g id="XMLID_1249_">
			<g id="XMLID_1276_">
				<ellipse fill="#FFFFFF" cx="520.533" cy="395.339" rx="169.294" ry="169.294"/>
			</g>
			<g id="XMLID_1275_">
				<path id="XMLID_1473_" fill="#0D3178" d="M520.702,574.837c-77.203,0-145.104-49.298-170.219-121.85l19.533-6.511
					c22.324,64.181,82.784,107.898,150.685,107.898c87.435,0,159.057-71.622,159.057-159.057S608.136,236.26,520.702,236.26v-20.463
					c98.597,0,179.52,80.924,179.52,179.52S619.298,574.837,520.702,574.837z"/>
			</g>
			<g id="XMLID_1274_">
				<path fill="#81C99C" d="M609.067,395.316c0,49.298-39.997,88.365-88.365,88.365c-49.298,0-88.365-39.997-88.365-88.365
					c0-49.298,39.997-88.365,88.365-88.365S609.067,346.948,609.067,395.316z"/>
			</g>
			<g id="XMLID_1273_">
				<path id="XMLID_1470_" fill="#00984A" d="M520.702,413.92c-10.232,0-18.603-8.371-18.603-18.603
					c0-10.232,8.371-18.603,18.603-18.603c10.232,0,18.603,8.371,18.603,18.603C539.305,405.548,530.933,413.92,520.702,413.92z
					 M520.702,393.456c-0.93,0-1.86,0.93-1.86,1.86c0,1.86,3.721,1.86,3.721,0C522.562,394.386,521.632,393.456,520.702,393.456z"/>
			</g>
			<g id="XMLID_1272_">
				<rect id="XMLID_1469_" x="510.47" y="240.91" fill="#0D3178" width="20.463" height="29.765"/>
			</g>
			<g id="XMLID_1271_">
				
					<rect id="XMLID_1468_" x="576.293" y="263.59" transform="matrix(-0.5 0.866 -0.866 -0.5 1123.9034 -101.2339)" fill="#0D3178" width="29.764" height="20.463"/>
			</g>
			<g id="XMLID_1270_">
				
					<rect id="XMLID_1467_" x="627.512" y="315.166" transform="matrix(-0.8669 0.4985 -0.4985 -0.8669 1361.4901 287.2515)" fill="#0D3178" width="29.765" height="20.464"/>
			</g>
			<g id="XMLID_1269_">
				
					<rect id="XMLID_1466_" x="650.754" y="380.706" transform="matrix(-0.0031 1 -1 -0.0031 1058.6489 -264.1505)" fill="#0D3178" width="20.464" height="29.765"/>
			</g>
			<g id="XMLID_1268_">
				
					<rect id="XMLID_1465_" x="631.31" y="451.247" transform="matrix(-0.5035 0.864 -0.864 -0.5035 1367.2908 146.5354)" fill="#0D3178" width="20.464" height="29.765"/>
			</g>
			<g id="XMLID_1267_">
				
					<rect id="XMLID_1464_" x="580.124" y="502.057" transform="matrix(-0.8686 0.4955 -0.4955 -0.8686 1359.2876 673.433)" fill="#0D3178" width="20.463" height="29.765"/>
			</g>
			<g id="XMLID_1266_">
				
					<rect id="XMLID_1463_" x="505.07" y="525.691" transform="matrix(-0.0065 1 -1 -0.0065 1059.2612 19.4819)" fill="#0D3178" width="29.766" height="20.464"/>
			</g>
			<g id="XMLID_1265_">
				
					<rect id="XMLID_1462_" x="434.808" y="506.207" transform="matrix(-0.5066 0.8622 -0.8622 -0.5066 1122.7667 390.3465)" fill="#0D3178" width="29.765" height="20.464"/>
			</g>
			<g id="XMLID_1264_">
				
					<rect id="XMLID_1461_" x="384.012" y="454.958" transform="matrix(-0.8706 0.4919 -0.4919 -0.8706 975.0231 673.9769)" fill="#0D3178" width="29.764" height="20.463"/>
			</g>
			<g id="XMLID_1263_">
				
					<rect id="XMLID_1460_" x="370.381" y="379.615" transform="matrix(-0.009 1 -1 -0.009 778.5245 17.4557)" fill="#0686D8" width="20.464" height="29.766"/>
			</g>
			<g id="XMLID_1262_">
				
					<rect id="XMLID_1459_" x="389.968" y="309.717" transform="matrix(-0.509 0.8608 -0.8608 -0.509 883.3036 145.334)" fill="#0686D8" width="20.464" height="29.766"/>
			</g>
			<g id="XMLID_1261_">
				
					<rect id="XMLID_1458_" x="441.66" y="258.596" transform="matrix(-0.8716 0.4902 -0.4902 -0.8716 979.8251 290.3256)" fill="#0686D8" width="20.463" height="29.765"/>
			</g>
			<g id="XMLID_1260_">
				<polygon fill="#00984A" points="510.47,396.247 514.191,292.069 526.283,292.069 530.933,396.247 				"/>
			</g>
			<g id="XMLID_1259_">
				<polygon fill="#00984A" points="520.702,386.015 611.857,387.875 612.787,399.967 520.702,406.478 				"/>
			</g>
			<g id="XMLID_1250_">
				<g id="XMLID_1258_">
					<path fill="#FFFFFF" d="M321.648,91.155c-90.225,1.86-162.777,76.273-160.917,167.428
						c1.86,91.155,77.203,162.777,167.428,160.917c91.155-1.86,162.777-77.203,160.917-167.428
						C488.146,160.917,412.804,89.295,321.648,91.155z"/>
				</g>
				<g id="XMLID_1257_">
					<path fill="#CCCCCC" d="M322.578,138.593c-64.181,0.93-115.339,54.879-114.409,119.06
						c1.86,64.181,54.879,116.27,119.06,114.409c64.181-0.93,115.339-54.879,114.409-119.06
						C440.708,188.822,387.689,137.663,322.578,138.593z"/>
				</g>
				<g id="XMLID_1256_">
					<path id="XMLID_1457_" fill="#0D3178" d="M325.369,429.732c-45.578,0-88.365-17.673-120.92-48.368
						c-33.486-32.555-53.019-76.273-53.949-122.781c-0.93-27.905,5.581-54.879,17.673-79.063l18.603,9.302
						c-10.232,22.324-15.813,45.578-14.882,69.762c0.93,40.927,17.673,79.993,47.438,107.898
						c29.765,28.835,68.832,43.717,109.758,42.787c40.927-0.93,79.993-17.673,107.898-47.438
						c28.835-29.765,43.717-68.832,42.787-109.758c-1.86-84.644-72.552-153.476-157.196-151.615c-20.463,0-39.997,4.651-58.6,13.022
						l-8.371-18.603c21.394-9.302,43.717-13.952,66.971-14.883c95.806-1.86,175.8,75.343,178.59,171.149
						c0.93,46.508-16.743,91.155-48.368,124.641c-32.555,33.486-76.273,53.019-122.781,53.949
						C327.229,429.732,326.299,429.732,325.369,429.732z"/>
				</g>
				<g id="XMLID_1255_">
					<path id="XMLID_1456_" fill="#0D3178" d="M195.147,173.009l-16.743-11.162c5.581-9.302,12.092-17.673,19.533-25.114
						l14.883,13.952C206.309,157.196,199.798,164.638,195.147,173.009z"/>
				</g>
				<g id="XMLID_1254_">
					<path id="XMLID_1455_" fill="#0D3178" d="M223.982,139.523l-13.022-14.883c9.302-8.371,20.463-15.813,31.625-22.324
						l10.232,17.673C241.655,125.571,232.353,132.082,223.982,139.523z"/>
				</g>
			</g>
		</g>
		<g>
			<path fill="#0D3178" d="M269.698,199.341h12.658v47.285h0.437c2.619-3.782,5.238-7.274,7.711-10.475l29.972-36.81h15.713
				l-35.5,41.611l38.265,56.451h-14.986l-32.299-48.158l-9.312,10.767v37.392h-12.658V199.341z"/>
			<path fill="#0D3178" d="M346.375,284.309c3.783,2.474,10.476,5.093,16.877,5.093c9.312,0,13.677-4.656,13.677-10.476
				c0-6.11-3.638-9.457-13.095-12.949c-12.658-4.51-18.623-11.493-18.623-19.932c0-11.349,9.166-20.661,24.297-20.661
				c7.129,0,13.385,2.037,17.313,4.365l-3.201,9.311c-2.764-1.746-7.856-4.073-14.404-4.073c-7.565,0-11.785,4.364-11.785,9.603
				c0,5.819,4.219,8.438,13.385,11.93c12.221,4.656,18.478,10.767,18.478,21.242c0,12.367-9.603,21.097-26.334,21.097
				c-7.711,0-14.84-1.892-19.787-4.802L346.375,284.309z"/>
		</g>
	</g>
</g>
<g id="specctr">
	<g id="Text_Properties">
	</g>
</g>
</svg>
