<?xml version="1.0" encoding="utf-8"?>
<!-- Generator: Adobe Illustrator 22.0.1, SVG Export Plug-In . SVG Version: 6.00 Build 0)  -->
<svg version="1.1" xmlns="http://www.w3.org/2000/svg" xmlns:xlink="http://www.w3.org/1999/xlink" x="0px" y="0px"
	 viewBox="0 0 64 64" style="enable-background:new 0 0 64 64;" xml:space="preserve">
<style type="text/css">
	.st0{fill:none;stroke:#2C3251;stroke-width:0.5;stroke-miterlimit:10;}
	.st1{opacity:0.2;fill:#2C3251;}
	.st2{fill:#FFFFFF;}
	.st3{fill:#FFFFFF;stroke:#2C3251;stroke-width:0.5;stroke-miterlimit:10;}
	.st4{fill:#FFFFFF;stroke:#2C3251;stroke-width:0.5;stroke-linecap:round;stroke-linejoin:round;stroke-miterlimit:10;}
	.st5{fill:none;stroke:#2C3251;stroke-width:0.5;stroke-linecap:round;stroke-linejoin:round;stroke-miterlimit:10;}
	.st6{opacity:0.4;fill:#2C3251;enable-background:new    ;}
	.st7{fill:#2C3251;}
	.st8{fill:#2C3251;stroke:#2C3251;stroke-width:0.1;stroke-miterlimit:10;}
	.st9{fill:#5FB0E5;}
	.st10{fill:#D2E9F7;}
	.st11{fill:#0686D8;}
	.st12{fill:#9ECFEF;}
	.st13{clip-path:url(#SVGID_2_);}
	.st14{clip-path:url(#SVGID_4_);fill:#FFFFFF;}
	.st15{clip-path:url(#SVGID_6_);}
	.st16{clip-path:url(#SVGID_8_);fill:#FFFFFF;}
	.st17{clip-path:url(#SVGID_10_);}
	.st18{clip-path:url(#SVGID_12_);fill:#5FB0E5;}
	.st19{clip-path:url(#SVGID_14_);}
	.st20{clip-path:url(#SVGID_16_);fill:#0686D8;}
	.st21{clip-path:url(#SVGID_18_);}
	.st22{clip-path:url(#SVGID_20_);fill:#5FB0E5;}
	.st23{clip-path:url(#SVGID_22_);}
	.st24{clip-path:url(#SVGID_24_);fill:#5FB0E5;}
	.st25{clip-path:url(#SVGID_26_);}
	.st26{clip-path:url(#SVGID_28_);fill:#5FB0E5;}
	.st27{clip-path:url(#SVGID_30_);}
	.st28{clip-path:url(#SVGID_32_);fill:#5FB0E5;}
	.st29{clip-path:url(#SVGID_34_);}
	.st30{clip-path:url(#SVGID_36_);fill:#5FB0E5;}
	.st31{clip-path:url(#SVGID_38_);}
	.st32{clip-path:url(#SVGID_40_);fill:#D2E9F7;}
	.st33{clip-path:url(#SVGID_42_);}
	.st34{clip-path:url(#SVGID_44_);fill:#0686D8;}
	.st35{clip-path:url(#SVGID_46_);}
	.st36{clip-path:url(#SVGID_48_);fill:#0686D8;}
	.st37{clip-path:url(#SVGID_50_);}
	.st38{clip-path:url(#SVGID_52_);fill:#0686D8;}
	.st39{clip-path:url(#SVGID_54_);}
	.st40{clip-path:url(#SVGID_56_);fill:#D2E9F7;}
	.st41{clip-path:url(#SVGID_58_);}
	.st42{clip-path:url(#SVGID_60_);fill:#D2E9F7;}
	.st43{clip-path:url(#SVGID_62_);}
	.st44{clip-path:url(#SVGID_64_);enable-background:new    ;}
	.st45{clip-path:url(#SVGID_66_);}
	.st46{clip-path:url(#SVGID_68_);}
	.st47{clip-path:url(#SVGID_70_);fill:#0686D8;}
	.st48{clip-path:url(#SVGID_72_);}
	.st49{clip-path:url(#SVGID_74_);fill:#D2E9F7;}
	.st50{clip-path:url(#SVGID_76_);}
	.st51{clip-path:url(#SVGID_78_);fill:#D2E9F7;}
	.st52{clip-path:url(#SVGID_80_);}
	.st53{clip-path:url(#SVGID_82_);fill:#0686D8;}
	.st54{clip-path:url(#SVGID_84_);}
	.st55{clip-path:url(#SVGID_86_);fill:#FFFFFF;}
	.st56{clip-path:url(#SVGID_88_);}
	.st57{clip-path:url(#SVGID_90_);fill:#9ECFEF;}
	.st58{clip-path:url(#SVGID_92_);}
	.st59{clip-path:url(#SVGID_94_);fill:#0686D8;}
	.st60{clip-path:url(#SVGID_96_);}
	.st61{clip-path:url(#SVGID_98_);fill:#D2E9F7;}
	.st62{clip-path:url(#SVGID_100_);}
	.st63{clip-path:url(#SVGID_102_);fill:#D2E9F7;}
	.st64{clip-path:url(#SVGID_104_);}
	.st65{clip-path:url(#SVGID_106_);fill:#0686D8;}
	.st66{clip-path:url(#SVGID_108_);}
	.st67{clip-path:url(#SVGID_110_);fill:#0686D8;}
	.st68{clip-path:url(#SVGID_112_);}
	.st69{clip-path:url(#SVGID_114_);enable-background:new    ;}
	.st70{clip-path:url(#SVGID_116_);}
	.st71{clip-path:url(#SVGID_118_);}
	.st72{clip-path:url(#SVGID_120_);fill:#0686D8;}
	.st73{clip-path:url(#SVGID_122_);}
	.st74{clip-path:url(#SVGID_124_);fill:#0686D8;}
	.st75{clip-path:url(#SVGID_126_);}
	.st76{clip-path:url(#SVGID_128_);fill:#0686D8;}
	.st77{clip-path:url(#SVGID_130_);}
	.st78{clip-path:url(#SVGID_132_);fill:#0686D8;}
	.st79{clip-path:url(#SVGID_134_);}
	.st80{clip-path:url(#SVGID_136_);fill:#0686D8;}
	.st81{clip-path:url(#SVGID_138_);}
	.st82{clip-path:url(#SVGID_140_);fill:#0686D8;}
	.st83{fill:none;stroke:#0686D8;stroke-width:2.7984;stroke-miterlimit:10;}
	.st84{clip-path:url(#SVGID_142_);}
	.st85{clip-path:url(#SVGID_144_);fill:#62A6CF;}
	.st86{clip-path:url(#SVGID_146_);}
	.st87{clip-path:url(#SVGID_148_);fill:#0686D8;}
	.st88{clip-path:url(#SVGID_150_);}
	.st89{clip-path:url(#SVGID_152_);fill:#FFFFFE;}
	.st90{clip-path:url(#SVGID_154_);}
	.st91{clip-path:url(#SVGID_156_);fill:#9CC8E1;}
	.st92{clip-path:url(#SVGID_158_);}
	.st93{clip-path:url(#SVGID_160_);fill:#0686D8;}
	.st94{clip-path:url(#SVGID_162_);}
	.st95{clip-path:url(#SVGID_164_);fill:#FFFFFE;}
	.st96{clip-path:url(#SVGID_166_);}
	.st97{clip-path:url(#SVGID_168_);fill:#D0E8EF;}
	.st98{clip-path:url(#SVGID_170_);}
	.st99{clip-path:url(#SVGID_172_);fill:#0686D8;}
	.st100{clip-path:url(#SVGID_174_);}
	.st101{clip-path:url(#SVGID_176_);fill:#0686D8;}
	.st102{clip-path:url(#SVGID_178_);}
	.st103{clip-path:url(#SVGID_180_);fill:#0686D8;}
	.st104{clip-path:url(#SVGID_182_);}
	.st105{clip-path:url(#SVGID_184_);fill:#0686D8;}
	.st106{clip-path:url(#SVGID_186_);}
	.st107{clip-path:url(#SVGID_188_);fill:#0686D8;}
	.st108{clip-path:url(#SVGID_190_);}
	.st109{clip-path:url(#SVGID_192_);fill:#0686D8;}
	.st110{clip-path:url(#SVGID_194_);}
	.st111{clip-path:url(#SVGID_196_);fill:#0686D8;}
	.st112{clip-path:url(#SVGID_198_);}
	.st113{clip-path:url(#SVGID_200_);fill:#0686D8;}
	.st114{clip-path:url(#SVGID_202_);}
	.st115{clip-path:url(#SVGID_204_);fill:#0686D8;}
	.st116{clip-path:url(#SVGID_206_);}
	.st117{clip-path:url(#SVGID_208_);fill:#0686D8;}
	.st118{clip-path:url(#SVGID_210_);}
	.st119{clip-path:url(#SVGID_212_);fill:#0686D8;}
	.st120{clip-path:url(#SVGID_214_);}
	.st121{clip-path:url(#SVGID_216_);fill:#0686D8;}
	.st122{clip-path:url(#SVGID_218_);}
	.st123{clip-path:url(#SVGID_220_);fill:#0686D8;}
	.st124{clip-path:url(#SVGID_222_);}
	.st125{clip-path:url(#SVGID_224_);fill:#0686D8;}
	.st126{clip-path:url(#SVGID_226_);}
	.st127{clip-path:url(#SVGID_228_);fill:#0686D8;}
	.st128{clip-path:url(#SVGID_230_);}
	.st129{clip-path:url(#SVGID_232_);fill:#0686D8;}
	.st130{clip-path:url(#SVGID_234_);}
	.st131{clip-path:url(#SVGID_236_);fill:#0686D8;}
</style>
<g id="Layer_1">
	<g>
		<g>
			<defs>
				<path id="SVGID_1_" d="M353.3-45.6h-11l-5.2-10c-0.4-0.8,0.2-1.7,1-1.7h3.8c0.3,0,0.6,0.1,0.8,0.4L353.3-45.6z"/>
			</defs>
			<clipPath id="SVGID_2_">
				<use xlink:href="#SVGID_1_"  style="overflow:visible;"/>
			</clipPath>
			<g class="st13">
				<defs>
					<rect id="SVGID_3_" x="-207.6" y="-271.6" width="714.6" height="613.7"/>
				</defs>
				<clipPath id="SVGID_4_">
					<use xlink:href="#SVGID_3_"  style="overflow:visible;"/>
				</clipPath>
			</g>
		</g>
		<g>
			<defs>
				<path id="SVGID_5_" d="M353.3-45.6h-11l-5.2-10c-0.4-0.8,0.2-1.7,1-1.7h3.8c0.3,0,0.6,0.1,0.8,0.4L353.3-45.6z"/>
			</defs>
			<clipPath id="SVGID_6_">
				<use xlink:href="#SVGID_5_"  style="overflow:visible;"/>
			</clipPath>
			<g class="st15">
				<defs>
					<rect id="SVGID_7_" x="-207.6" y="-271.6" width="714.6" height="613.7"/>
				</defs>
				<clipPath id="SVGID_8_">
					<use xlink:href="#SVGID_7_"  style="overflow:visible;"/>
				</clipPath>
			</g>
		</g>
		<g>
			<defs>
				<path id="SVGID_9_" d="M339.4-57.3h-1.2c-0.9,0-1.4,0.9-1,1.7l5.2,10h4.3l-7.1-11.2C339.4-56.9,339.4-57.1,339.4-57.3"/>
			</defs>
			<clipPath id="SVGID_10_">
				<use xlink:href="#SVGID_9_"  style="overflow:visible;"/>
			</clipPath>
			<g class="st17">
				<defs>
					<rect id="SVGID_11_" x="-207.6" y="-271.6" width="714.6" height="613.7"/>
				</defs>
				<clipPath id="SVGID_12_">
					<use xlink:href="#SVGID_11_"  style="overflow:visible;"/>
				</clipPath>
			</g>
		</g>
		<g>
			<defs>
				<path id="SVGID_13_" d="M355.6-44.6h-13.9l-5.4-10.6c-0.3-0.7-0.3-1.4,0.1-2.1c0.4-0.6,1.1-1,1.8-1h3.8c0.6,0,1.2,0.2,1.6,0.7
					L355.6-44.6z M342.9-46.5h8.2l-9-9.7c0,0-0.1-0.1-0.1-0.1h-3.8c-0.1,0-0.1,0-0.1,0.1c0,0.1,0,0.1,0,0.2L342.9-46.5z"/>
			</defs>
			<clipPath id="SVGID_14_">
				<use xlink:href="#SVGID_13_"  style="overflow:visible;"/>
			</clipPath>
			<g class="st19">
				<defs>
					<rect id="SVGID_15_" x="-207.6" y="-271.6" width="714.6" height="613.7"/>
				</defs>
				<clipPath id="SVGID_16_">
					<use xlink:href="#SVGID_15_"  style="overflow:visible;"/>
				</clipPath>
			</g>
		</g>
		<g>
			<defs>
				<path id="SVGID_17_" d="M387.6-25.6c0,0.9-0.7,1.6-1.7,1.6c-0.9,0-1.7-0.7-1.7-1.6c0-0.9,0.7-1.6,1.7-1.6
					C386.9-27.2,387.6-26.5,387.6-25.6"/>
			</defs>
			<clipPath id="SVGID_18_">
				<use xlink:href="#SVGID_17_"  style="overflow:visible;"/>
			</clipPath>
			<g class="st21">
				<defs>
					<rect id="SVGID_19_" x="-207.6" y="-271.6" width="714.6" height="613.7"/>
				</defs>
				<clipPath id="SVGID_20_">
					<use xlink:href="#SVGID_19_"  style="overflow:visible;"/>
				</clipPath>
			</g>
		</g>
		<g>
			<defs>
				<path id="SVGID_21_" d="M374-62.4c0,0.5-0.4,0.8-0.8,0.8c-0.5,0-0.8-0.4-0.8-0.8c0-0.5,0.4-0.8,0.8-0.8
					C373.7-63.3,374-62.9,374-62.4"/>
			</defs>
			<clipPath id="SVGID_22_">
				<use xlink:href="#SVGID_21_"  style="overflow:visible;"/>
			</clipPath>
			<g class="st23">
				<defs>
					<rect id="SVGID_23_" x="-207.6" y="-271.6" width="714.6" height="613.7"/>
				</defs>
				<clipPath id="SVGID_24_">
					<use xlink:href="#SVGID_23_"  style="overflow:visible;"/>
				</clipPath>
			</g>
		</g>
		<g>
			<defs>
				<path id="SVGID_25_" d="M372.2-30c0,0.5-0.4,0.8-0.8,0.8c-0.5,0-0.8-0.4-0.8-0.8s0.4-0.8,0.8-0.8
					C371.9-30.8,372.2-30.4,372.2-30"/>
			</defs>
			<clipPath id="SVGID_26_">
				<use xlink:href="#SVGID_25_"  style="overflow:visible;"/>
			</clipPath>
			<g class="st25">
				<defs>
					<rect id="SVGID_27_" x="-207.6" y="-271.6" width="714.6" height="613.7"/>
				</defs>
				<clipPath id="SVGID_28_">
					<use xlink:href="#SVGID_27_"  style="overflow:visible;"/>
				</clipPath>
			</g>
		</g>
		<g>
			<defs>
				<path id="SVGID_29_" d="M394.1-66.2c0,0.6-0.5,1.1-1.1,1.1c-0.6,0-1.1-0.5-1.1-1.1s0.5-1.1,1.1-1.1
					C393.6-67.3,394.1-66.8,394.1-66.2"/>
			</defs>
			<clipPath id="SVGID_30_">
				<use xlink:href="#SVGID_29_"  style="overflow:visible;"/>
			</clipPath>
			<g class="st27">
				<defs>
					<rect id="SVGID_31_" x="-207.6" y="-271.6" width="714.6" height="613.7"/>
				</defs>
				<clipPath id="SVGID_32_">
					<use xlink:href="#SVGID_31_"  style="overflow:visible;"/>
				</clipPath>
			</g>
		</g>
		<g>
			<defs>
				<path id="SVGID_33_" d="M380.9-71.8c0,0.9-0.7,1.5-1.6,1.5c-0.9,0-1.6-0.7-1.6-1.5c0-0.9,0.7-1.5,1.6-1.5
					C380.2-73.4,380.9-72.7,380.9-71.8"/>
			</defs>
			<clipPath id="SVGID_34_">
				<use xlink:href="#SVGID_33_"  style="overflow:visible;"/>
			</clipPath>
			<g class="st29">
				<defs>
					<rect id="SVGID_35_" x="-207.6" y="-271.6" width="714.6" height="613.7"/>
				</defs>
				<clipPath id="SVGID_36_">
					<use xlink:href="#SVGID_35_"  style="overflow:visible;"/>
				</clipPath>
			</g>
		</g>
		<g>
			<defs>
				<path id="SVGID_37_" d="M391.8-50.8h-0.1c-0.6-1.9-2.3-3.3-4.4-3.3c-0.9,0-1.8,0.3-2.5,0.7c-0.5-3-3.1-5.3-6.2-5.3
					c-2.8,0-5.2,1.9-6,4.4c-0.4-0.1-0.7-0.2-1.1-0.2c-2.2,0-4,1.6-4.3,3.6h-0.7c-1.8,0-3.2,1.4-3.2,3.2v0.2c0,1.8,1.5,3.2,3.2,3.2
					h25.4c1.8,0,3.2-1.4,3.2-3.2v-0.2C395-49.3,393.6-50.8,391.8-50.8"/>
			</defs>
			<clipPath id="SVGID_38_">
				<use xlink:href="#SVGID_37_"  style="overflow:visible;"/>
			</clipPath>
			<g class="st31">
				<defs>
					<rect id="SVGID_39_" x="-207.6" y="-271.6" width="714.6" height="613.7"/>
				</defs>
				<clipPath id="SVGID_40_">
					<use xlink:href="#SVGID_39_"  style="overflow:visible;"/>
				</clipPath>
			</g>
		</g>
		<g>
			<defs>
				<path id="SVGID_41_" d="M391.8-43.1v-2c1.2,0,2.3-1,2.3-2.2v-0.2c0-1.2-1-2.2-2.3-2.2H391l-0.3-0.7c-0.4-1.5-1.9-2.6-3.5-2.6
					c-0.7,0-1.4,0.2-2,0.6l-1.3,0.8l-0.2-1.5c-0.4-2.6-2.6-4.5-5.3-4.5c-2.3,0-4.4,1.5-5.1,3.7l-0.3,0.9l-0.9-0.2
					c-2-0.5-3.9,0.8-4.2,2.7l-0.1,0.8h-1.5c-0.8,0-1.5,0.4-1.9,1.1l-1.7-1c0.7-1.3,2.1-2,3.6-2.1c0.8-2.3,3-3.9,5.5-3.6
					c1.2-2.6,3.7-4.3,6.7-4.3c3.2,0,5.9,2,6.9,4.9c0.6-0.2,1.2-0.3,1.8-0.3c2.2,0,4.3,1.4,5.1,3.4c2.1,0.3,3.6,2.1,3.6,4.1v0.2
					C396-45,394.1-43.1,391.8-43.1"/>
			</defs>
			<clipPath id="SVGID_42_">
				<use xlink:href="#SVGID_41_"  style="overflow:visible;"/>
			</clipPath>
			<g class="st33">
				<defs>
					<rect id="SVGID_43_" x="-207.6" y="-271.6" width="714.6" height="613.7"/>
				</defs>
				<clipPath id="SVGID_44_">
					<use xlink:href="#SVGID_43_"  style="overflow:visible;"/>
				</clipPath>
			</g>
		</g>
		<g>
			<defs>
				<path id="SVGID_45_" d="M381.8-53.3c-0.8-1.2-2.1-1.9-3.6-1.9c-0.8,0-1.5,0.2-2.2,0.6l-1-1.7c1-0.6,2.1-0.9,3.2-0.9
					c2.1,0,4.1,1.1,5.2,2.8L381.8-53.3z"/>
			</defs>
			<clipPath id="SVGID_46_">
				<use xlink:href="#SVGID_45_"  style="overflow:visible;"/>
			</clipPath>
			<g class="st35">
				<defs>
					<rect id="SVGID_47_" x="-207.6" y="-271.6" width="714.6" height="613.7"/>
				</defs>
				<clipPath id="SVGID_48_">
					<use xlink:href="#SVGID_47_"  style="overflow:visible;"/>
				</clipPath>
			</g>
		</g>
		<g>
			<defs>
				<path id="SVGID_49_" d="M374.7-52.2h-2c0-0.7-0.6-1.3-1.3-1.3v-2C373.2-55.4,374.7-54,374.7-52.2"/>
			</defs>
			<clipPath id="SVGID_50_">
				<use xlink:href="#SVGID_49_"  style="overflow:visible;"/>
			</clipPath>
			<g class="st37">
				<defs>
					<rect id="SVGID_51_" x="-207.6" y="-271.6" width="714.6" height="613.7"/>
				</defs>
				<clipPath id="SVGID_52_">
					<use xlink:href="#SVGID_51_"  style="overflow:visible;"/>
				</clipPath>
			</g>
		</g>
		<g>
			<defs>
				<path id="SVGID_53_" d="M364.2-25.1H364c-0.5-1.6-1.9-2.7-3.6-2.7c-0.8,0-1.4,0.2-2,0.6c-0.4-2.5-2.5-4.4-5.1-4.4
					c-2.3,0-4.3,1.5-4.9,3.6c-0.3-0.1-0.6-0.1-0.9-0.1c-1.8,0-3.2,1.3-3.5,3h-0.6c-1.5,0-2.7,1.2-2.7,2.6v0.2c0,1.5,1.2,2.6,2.7,2.6
					h20.8c1.5,0,2.7-1.2,2.7-2.6v-0.2C366.8-23.9,365.6-25.1,364.2-25.1"/>
			</defs>
			<clipPath id="SVGID_54_">
				<use xlink:href="#SVGID_53_"  style="overflow:visible;"/>
			</clipPath>
			<g class="st39">
				<defs>
					<rect id="SVGID_55_" x="-207.6" y="-271.6" width="714.6" height="613.7"/>
				</defs>
				<clipPath id="SVGID_56_">
					<use xlink:href="#SVGID_55_"  style="overflow:visible;"/>
				</clipPath>
			</g>
		</g>
		<g>
			<defs>
				<path id="SVGID_57_" d="M347-19.6h-3.7c-1.5,0-2.7-1.2-2.7-2.6v-0.2c0-1.5,1.2-2.6,2.7-2.6h0.6c0.3-1.7,1.7-3,3.5-3
					c0.3,0,0.6,0,0.9,0.1c0.7-2.1,2.6-3.6,4.9-3.6c2.6,0,4.7,1.9,5.1,4.4c0.6-0.4,1.3-0.6,2-0.6c1.7,0,3.2,1.1,3.6,2.7h0.1
					c1.5,0,2.7,1.2,2.7,2.6v0.2c0,1.4-1.2,2.6-2.7,2.6h-4H347z"/>
			</defs>
			<clipPath id="SVGID_58_">
				<use xlink:href="#SVGID_57_"  style="overflow:visible;"/>
			</clipPath>
			<g class="st41">
				<defs>
					<rect id="SVGID_59_" x="-207.6" y="-271.6" width="714.6" height="613.7"/>
				</defs>
				<clipPath id="SVGID_60_">
					<use xlink:href="#SVGID_59_"  style="overflow:visible;"/>
				</clipPath>
			</g>
		</g>
		<g>
			<defs>
				<rect id="SVGID_61_" x="339.7" y="-32.5" width="28.1" height="13.9"/>
			</defs>
			<clipPath id="SVGID_62_">
				<use xlink:href="#SVGID_61_"  style="overflow:visible;"/>
			</clipPath>
			<g class="st43">
				<defs>
					<rect id="SVGID_63_" x="-207.6" y="-271.6" width="714.6" height="613.7"/>
				</defs>
				<clipPath id="SVGID_64_">
					<use xlink:href="#SVGID_63_"  style="overflow:visible;"/>
				</clipPath>
			</g>
		</g>
		<g>
			<defs>
				<path id="SVGID_71_" d="M361.4-62.1L361.4-62.1c-0.4-1-1.3-1.7-2.4-1.7c-0.5,0-0.9,0.1-1.3,0.4c-0.2-1.6-1.6-2.8-3.2-2.8
					c-1.5,0-2.7,1-3.1,2.3c-0.2,0-0.4-0.1-0.6-0.1c-1.1,0-2.1,0.8-2.2,1.9h-0.4c-0.9,0-1.7,0.8-1.7,1.7v0.1c0,0.9,0.8,1.7,1.7,1.7
					h13.3c0.9,0,1.7-0.8,1.7-1.7v-0.1C363.1-61.4,362.4-62.1,361.4-62.1"/>
			</defs>
			<clipPath id="SVGID_66_">
				<use xlink:href="#SVGID_71_"  style="overflow:visible;"/>
			</clipPath>
			<g class="st45">
				<defs>
					<rect id="SVGID_73_" x="-207.6" y="-271.6" width="714.6" height="613.7"/>
				</defs>
				<clipPath id="SVGID_68_">
					<use xlink:href="#SVGID_73_"  style="overflow:visible;"/>
				</clipPath>
			</g>
		</g>
		<g>
			<defs>
				<path id="SVGID_75_" d="M350.5-58.6h-2.4c-0.9,0-1.7-0.8-1.7-1.7v-0.1c0-0.9,0.8-1.7,1.7-1.7h0.4c0.2-1.1,1.1-1.9,2.2-1.9
					c0.2,0,0.4,0,0.6,0.1c0.4-1.3,1.7-2.3,3.1-2.3c1.6,0,3,1.2,3.2,2.8c0.4-0.2,0.8-0.4,1.3-0.4c1.1,0,2,0.7,2.3,1.7h0.1
					c0.9,0,1.7,0.8,1.7,1.7v0.1c0,0.9-0.8,1.7-1.7,1.7h-2.6H350.5z"/>
			</defs>
			<clipPath id="SVGID_70_">
				<use xlink:href="#SVGID_75_"  style="overflow:visible;"/>
			</clipPath>
			<g style="clip-path:url(#SVGID_70_);">
				<defs>
					<rect id="SVGID_77_" x="-207.6" y="-271.6" width="714.6" height="613.7"/>
				</defs>
				<clipPath id="SVGID_72_">
					<use xlink:href="#SVGID_77_"  style="overflow:visible;"/>
				</clipPath>
			</g>
		</g>
		<g>
			<defs>
				<path id="SVGID_79_" d="M361.4-57.7h-13.3c-1.5,0-2.7-1.2-2.7-2.7c0-1.5,1-2.6,2.3-2.8c0.5-1.1,1.6-1.9,2.9-1.9
					c0.7-1.4,2.2-2.2,3.8-2.2c1.7,0,3.2,1,3.9,2.5c1.5-0.3,3,0.5,3.7,1.7c1.2,0.3,2,1.3,2,2.6C364.1-58.9,362.9-57.7,361.4-57.7z
					 M348.2-61.1c-0.4,0-0.7,0.3-0.7,0.7c0,0.5,0.3,0.8,0.7,0.8h13.3c0.4,0,0.7-0.3,0.7-0.7c0-0.5-0.3-0.8-0.7-0.8h-0.7l-0.3-0.7
					c-0.2-0.9-1.4-1.3-2.1-0.8l-1.3,0.8l-0.2-1.5c-0.2-1.1-1.1-1.9-2.3-1.9c-1,0-1.9,0.6-2.2,1.6l-0.3,0.9l-0.9-0.2
					c-0.8-0.2-1.5,0.3-1.6,1l-0.1,0.8H348.2z"/>
			</defs>
			<clipPath id="SVGID_74_">
				<use xlink:href="#SVGID_79_"  style="overflow:visible;"/>
			</clipPath>
			<g style="clip-path:url(#SVGID_74_);">
				<defs>
					<rect id="SVGID_81_" x="-207.6" y="-271.6" width="714.6" height="613.7"/>
				</defs>
				<clipPath id="SVGID_76_">
					<use xlink:href="#SVGID_81_"  style="overflow:visible;"/>
				</clipPath>
			</g>
		</g>
		<g>
			<defs>
				<path id="SVGID_83_" d="M391.7-41.7h-1.1c-0.9-2.6-3.4-4.4-6.3-4.4h-45c0,6.2,5,11.2,11.2,11.2h28.3H391h0.6
					c1.7,0,3.1-1.4,3.1-3.1v-0.6C394.8-40.3,393.4-41.7,391.7-41.7"/>
			</defs>
			<clipPath id="SVGID_78_">
				<use xlink:href="#SVGID_83_"  style="overflow:visible;"/>
			</clipPath>
			<g style="clip-path:url(#SVGID_78_);">
				<defs>
					<rect id="SVGID_85_" x="-207.6" y="-271.6" width="714.6" height="613.7"/>
				</defs>
				<clipPath id="SVGID_80_">
					<use xlink:href="#SVGID_85_"  style="overflow:visible;"/>
				</clipPath>
			</g>
		</g>
		<g>
			<defs>
				<path id="SVGID_87_" d="M391.7-37.5H391h-12.1h-28.3c-5.3,0-9.7-3.6-10.9-8.5h-0.3c0,6.2,5,11.2,11.2,11.2h28.3H391h0.6
					c1.7,0,3.1-1.4,3.1-3.1v-0.6c0-0.4-0.1-0.7-0.2-1C394.2-38.4,393-37.5,391.7-37.5"/>
			</defs>
			<clipPath id="SVGID_82_">
				<use xlink:href="#SVGID_87_"  style="overflow:visible;"/>
			</clipPath>
			<g style="clip-path:url(#SVGID_82_);">
				<defs>
					<rect id="SVGID_89_" x="-207.6" y="-271.6" width="714.6" height="613.7"/>
				</defs>
				<clipPath id="SVGID_84_">
					<use xlink:href="#SVGID_89_"  style="overflow:visible;"/>
				</clipPath>
			</g>
		</g>
		<g>
			<defs>
				<path id="SVGID_91_" d="M391.7-33.9h-41.1c-6.7,0-12.2-5.4-12.2-12.1v-1h46c3,0,5.7,1.7,6.9,4.4h0.4c2.3,0,4.1,1.8,4.1,4.1v0.6
					C395.7-35.7,393.9-33.9,391.7-33.9z M340.4-45.1c0.5,5.2,4.9,9.2,10.2,9.2h41.1c1.2,0,2.1-0.9,2.1-2.1v-0.6
					c0-1.2-0.9-2.1-2.1-2.1h-1.8l-0.2-0.6c-0.8-2.2-3-3.7-5.4-3.7H340.4z"/>
			</defs>
			<clipPath id="SVGID_86_">
				<use xlink:href="#SVGID_91_"  style="overflow:visible;"/>
			</clipPath>
			<g style="clip-path:url(#SVGID_86_);">
				<defs>
					<rect id="SVGID_93_" x="-207.6" y="-271.6" width="714.6" height="613.7"/>
				</defs>
				<clipPath id="SVGID_88_">
					<use xlink:href="#SVGID_93_"  style="overflow:visible;"/>
				</clipPath>
			</g>
		</g>
		<g>
			<defs>
				<path id="SVGID_95_" d="M352.2-42.5h-13c-0.9,0-1.5-0.7-1.5-1.5v-0.5c0-0.8,0.7-1.5,1.5-1.5h13c0.9,0,1.5,0.7,1.5,1.5v0.5
					C353.7-43.2,353-42.5,352.2-42.5"/>
			</defs>
			<clipPath id="SVGID_90_">
				<use xlink:href="#SVGID_95_"  style="overflow:visible;"/>
			</clipPath>
			<g style="clip-path:url(#SVGID_90_);">
				<defs>
					<rect id="SVGID_97_" x="-207.6" y="-271.6" width="714.6" height="613.7"/>
				</defs>
				<clipPath id="SVGID_92_">
					<use xlink:href="#SVGID_97_"  style="overflow:visible;"/>
				</clipPath>
			</g>
		</g>
		<g>
			<defs>
				<path id="SVGID_99_" d="M377.5-33.6h-15.9c-0.9,0-1.5-0.7-1.5-1.5v-1.1c0-0.8,0.7-1.5,1.5-1.5h15.9c0.9,0,1.5,0.7,1.5,1.5v1.1
					C379-34.3,378.4-33.6,377.5-33.6"/>
			</defs>
			<clipPath id="SVGID_94_">
				<use xlink:href="#SVGID_99_"  style="overflow:visible;"/>
			</clipPath>
			<g style="clip-path:url(#SVGID_94_);">
				<defs>
					<rect id="SVGID_101_" x="-207.6" y="-271.6" width="714.6" height="613.7"/>
				</defs>
				<clipPath id="SVGID_96_">
					<use xlink:href="#SVGID_101_"  style="overflow:visible;"/>
				</clipPath>
			</g>
		</g>
		<g>
			<defs>
				<path id="SVGID_103_" d="M352.2-41.5h-13c-1.4,0-2.5-1.1-2.5-2.5v-0.5c0-1.4,1.1-2.5,2.5-2.5h13c1.4,0,2.5,1.1,2.5,2.5v0.5
					C354.7-42.6,353.6-41.5,352.2-41.5z M339.2-45.1c-0.3,0-0.6,0.2-0.6,0.6v0.5c0,0.3,0.3,0.6,0.6,0.6h13c0.3,0,0.6-0.2,0.6-0.6
					v-0.5c0-0.3-0.2-0.6-0.6-0.6H339.2z"/>
			</defs>
			<clipPath id="SVGID_98_">
				<use xlink:href="#SVGID_103_"  style="overflow:visible;"/>
			</clipPath>
			<g style="clip-path:url(#SVGID_98_);">
				<defs>
					<rect id="SVGID_105_" x="-207.6" y="-271.6" width="714.6" height="613.7"/>
				</defs>
				<clipPath id="SVGID_100_">
					<use xlink:href="#SVGID_105_"  style="overflow:visible;"/>
				</clipPath>
			</g>
		</g>
		<g>
			<defs>
				<path id="SVGID_107_" d="M377.5-32.6h-15.9c-1.4,0-2.5-1.1-2.5-2.5v-1.1c0-1.4,1.1-2.5,2.5-2.5h15.9c1.4,0,2.5,1.1,2.5,2.5v1.1
					C380-33.7,378.9-32.6,377.5-32.6z M361.6-36.8c-0.3,0-0.6,0.2-0.6,0.6v1.1c0,0.3,0.3,0.6,0.6,0.6h15.9c0.3,0,0.6-0.2,0.6-0.6
					v-1.1c0-0.3-0.3-0.6-0.6-0.6H361.6z"/>
			</defs>
			<clipPath id="SVGID_102_">
				<use xlink:href="#SVGID_107_"  style="overflow:visible;"/>
			</clipPath>
			<g style="clip-path:url(#SVGID_102_);">
				<defs>
					<rect id="SVGID_109_" x="-207.6" y="-271.6" width="714.6" height="613.7"/>
				</defs>
				<clipPath id="SVGID_104_">
					<use xlink:href="#SVGID_109_"  style="overflow:visible;"/>
				</clipPath>
			</g>
		</g>
		<g>
			<defs>
				<rect id="SVGID_111_" x="336" y="-73.4" width="60" height="54.7"/>
			</defs>
			<clipPath id="SVGID_106_">
				<use xlink:href="#SVGID_111_"  style="overflow:visible;"/>
			</clipPath>
			<g style="clip-path:url(#SVGID_106_);">
				<defs>
					<rect id="SVGID_113_" x="-207.6" y="-271.6" width="714.6" height="613.7"/>
				</defs>
				<clipPath id="SVGID_108_">
					<use xlink:href="#SVGID_113_"  style="overflow:visible;"/>
				</clipPath>
			</g>
		</g>
	</g>
	<g id="XMLID_350_">
		<g id="XMLID_336_">
			<g id="XMLID_335_">
				<g id="XMLID_77_">
					<path class="st2" d="M52.5,43.5L35.4,60.6c-0.5,0.5-1.4,0.5-1.9,0L5,32.1c-0.5-0.5-0.5-1.4,0-1.9l17.1-17.1
						c0.5-0.5,1.4-0.5,1.9,0l28.5,28.5C53,42.1,53,43,52.5,43.5z"/>
				</g>
				<g id="XMLID_76_">
					
						<rect x="20.9" y="20.3" transform="matrix(0.7071 -0.7071 0.7071 0.7071 -22.552 29.091)" class="st9" width="5.8" height="43"/>
				</g>
				<g id="XMLID_75_">
					
						<rect x="31.1" y="23.1" transform="matrix(0.7071 -0.7071 0.7071 0.7071 -17.0794 34.0333)" class="st10" width="3" height="29"/>
				</g>
				<g id="XMLID_74_">
					<path id="XMLID_1728_" class="st11" d="M29.2,57.7L4.3,32.9c-0.5-0.5-0.7-1.1-0.7-1.7c0-0.6,0.3-1.3,0.7-1.7l17-17
						c0.9-0.9,2.5-0.9,3.4,0l5.6,5.6l-1.5,1.5l-5.6-5.6c-0.2-0.2-0.3-0.2-0.5,0l-17,17c-0.1,0.1-0.1,0.2-0.1,0.2
						c0,0.1,0,0.1,0.1,0.2l24.8,24.8L29.2,57.7z"/>
				</g>
			</g>
			<g id="XMLID_319_">
				<g id="XMLID_331_">
					<path class="st10" d="M33.1,58.2V13.8c0-1.5,1.2-2.7,2.7-2.7h20.8c1.5,0,2.7,1.2,2.7,2.7v44.4c0,1.5-1.2,2.7-2.7,2.7H35.8
						C34.3,60.9,33.1,59.7,33.1,58.2z"/>
				</g>
				<g id="XMLID_308_">
					<path id="XMLID_1725_" class="st11" d="M56.6,62H35.8c-2.1,0-3.8-1.7-3.8-3.8V13.8c0-2.1,1.7-3.8,3.8-3.8h20.8
						c2.1,0,3.8,1.7,3.8,3.8v44.4C60.4,60.3,58.7,62,56.6,62z M35.8,12.1c-0.9,0-1.7,0.7-1.7,1.7v44.4c0,0.9,0.7,1.7,1.7,1.7h20.8
						c0.9,0,1.7-0.7,1.7-1.7V13.8c0-0.9-0.7-1.7-1.7-1.7H35.8z"/>
				</g>
				<g id="XMLID_329_">
					<path class="st2" d="M37.5,35.9c0.1-4.9,4.1-8.8,9-8.7c4.9,0.1,8.8,4.1,8.7,9c-0.1,4.9-4.1,8.8-9,8.7
						C41.3,44.8,37.4,40.8,37.5,35.9z"/>
				</g>
				<g id="XMLID_315_">
					<path id="XMLID_1722_" class="st11" d="M46.3,46c-0.1,0-0.1,0-0.2,0c-2.6-0.1-5.1-1.1-6.9-3c-1.8-1.9-2.8-4.4-2.8-7
						c0.1-2.6,1.1-5.1,3-6.9c1.9-1.8,4.4-2.8,7.1-2.8c5.5,0.1,9.8,4.6,9.7,10.1C56.1,41.7,51.7,46,46.3,46z M46.3,28.3
						c-2,0-3.9,0.8-5.4,2.2c-1.5,1.4-2.3,3.4-2.4,5.5l0,0c0,2.1,0.7,4,2.2,5.5c1.4,1.5,3.4,2.3,5.5,2.4c4.3,0.1,7.9-3.3,7.9-7.6
						c0.1-4.3-3.3-7.9-7.6-7.9C46.4,28.3,46.4,28.3,46.3,28.3z"/>
				</g>
				<g id="XMLID_328_">
					<path class="st2" d="M44.2,49.8c0-1.3,1.1-2.4,2.4-2.3c1.3,0,2.4,1.1,2.3,2.4c0,1.3-1.1,2.4-2.4,2.3
						C45.2,52.2,44.2,51.2,44.2,49.8z"/>
				</g>
				<g id="XMLID_327_">
					<path class="st2" d="M44.2,21.7c0-1.3,1.1-2.4,2.4-2.3c1.3,0,2.4,1.1,2.3,2.4c0,1.3-1.1,2.4-2.4,2.3
						C45.2,24.1,44.2,23,44.2,21.7z"/>
				</g>
				<g id="XMLID_323_">
					<g id="XMLID_325_">
						<path id="XMLID_1721_" class="st11" d="M44.7,39.8c-1.5,0-2.7-1.2-2.7-2.7v-4.5H44v4.5c0,0.3,0.3,0.6,0.6,0.6
							c0.3,0,0.6-0.3,0.6-0.6v-1.8c0-1.5,1.2-2.7,2.7-2.7c1.5,0,2.7,1.2,2.7,2.7v4.4h-2.1v-4.4c0-0.3-0.3-0.6-0.6-0.6
							c-0.3,0-0.6,0.3-0.6,0.6v1.8C47.4,38.6,46.2,39.8,44.7,39.8z"/>
					</g>
					<g id="XMLID_324_">
						<rect id="XMLID_1720_" x="40.2" y="35" class="st11" width="12.2" height="2.1"/>
					</g>
				</g>
				<g id="XMLID_321_">
					<path id="XMLID_1719_" class="st11" d="M38.4,24.1h-2.1v-4.5c0-0.8,0.6-1.4,1.4-1.5c1.8-0.2,3.2-1.6,3.4-3.4
						c0.1-0.8,0.7-1.4,1.5-1.4h7.8c0.8,0,1.4,0.6,1.5,1.4c0.1,1.8,1.6,3.2,3.4,3.4c0.8,0.1,1.3,0.7,1.3,1.4v3.8h-2.1v-3.2
						c-2.4-0.4-4.2-2.3-4.6-4.6H43c-0.4,2.4-2.3,4.2-4.6,4.6V24.1z"/>
				</g>
				<g id="XMLID_316_">
					<path id="XMLID_1718_" class="st11" d="M50.2,58.1h-7.8c-0.8,0-1.4-0.6-1.5-1.4c-0.1-1.8-1.6-3.2-3.4-3.4
						c-0.8-0.1-1.4-0.7-1.4-1.5v-4.5h2.1v3.9c2.4,0.4,4.2,2.3,4.6,4.6h6.7c0.4-2.4,2.3-4.2,4.6-4.6v-3.2h2.1V52
						c0,0.8-0.6,1.4-1.3,1.4c-1.8,0.1-3.2,1.6-3.4,3.4C51.6,57.6,51,58.1,50.2,58.1z"/>
				</g>
			</g>
		</g>
		<g id="XMLID_246_">
			<path class="st9" d="M8.6,15.6c0,0.9-0.7,1.5-1.5,1.5c-0.9,0-1.5-0.7-1.5-1.5s0.7-1.5,1.5-1.5C7.9,14.1,8.6,14.8,8.6,15.6z"/>
		</g>
		<g id="XMLID_241_">
			<path class="st9" d="M13.4,6.5c0,1.1-0.9,1.9-1.9,1.9c-1.1,0-1.9-0.9-1.9-1.9c0-1.1,0.9-1.9,1.9-1.9C12.5,4.6,13.4,5.4,13.4,6.5z
				"/>
		</g>
		<g id="XMLID_240_">
			<path class="st9" d="M30.1,10.9c0,0.5-0.4,0.9-0.9,0.9c-0.5,0-0.9-0.4-0.9-0.9c0-0.5,0.4-0.9,0.9-0.9
				C29.7,10,30.1,10.4,30.1,10.9z"/>
		</g>
		<g id="XMLID_79_">
			<path class="st9" d="M61.4,3.5c0,0.6-0.5,1-1,1c-0.6,0-1-0.5-1-1c0-0.6,0.5-1,1-1C61,2.5,61.4,3,61.4,3.5z"/>
		</g>
		<g id="XMLID_78_">
			<path class="st9" d="M41.8,3.5c0,0.8-0.7,1.5-1.5,1.5c-0.8,0-1.5-0.7-1.5-1.5c0-0.8,0.7-1.5,1.5-1.5C41.1,2,41.8,2.7,41.8,3.5z"
				/>
		</g>
	</g>
	<g>
		<g>
			<g>
				<defs>
					<path id="SVGID_141_" d="M301.2,58.9h-46.2c-0.8,0-1.4-0.6-1.4-1.4V24.9c0-0.8,0.6-1.4,1.4-1.4h46.2c0.8,0,1.4,0.6,1.4,1.4
						v32.6C302.6,58.3,301.9,58.9,301.2,58.9"/>
				</defs>
				<clipPath id="SVGID_110_">
					<use xlink:href="#SVGID_141_"  style="overflow:visible;"/>
				</clipPath>
				<g style="clip-path:url(#SVGID_110_);">
					<defs>
						<rect id="SVGID_143_" x="-488.3" y="-99.9" width="931.4" height="486.1"/>
					</defs>
					<clipPath id="SVGID_112_">
						<use xlink:href="#SVGID_143_"  style="overflow:visible;"/>
					</clipPath>
				</g>
			</g>
			<g>
				<defs>
					<path id="SVGID_145_" d="M301.7,59.6h-46.6c-1.3,0-2.3-1-2.3-2.3V41.7h2.1v15.6l0.1,0.2h46.6l0.2-0.2V24.4l-0.2-0.2h-16.8v-2.1
						h16.8c1.3,0,2.3,1,2.3,2.3v32.9C304,58.6,302.9,59.6,301.7,59.6"/>
				</defs>
				<clipPath id="SVGID_114_">
					<use xlink:href="#SVGID_145_"  style="overflow:visible;"/>
				</clipPath>
				<g style="clip-path:url(#SVGID_114_);">
					<defs>
						<rect id="SVGID_147_" x="-488.3" y="-99.9" width="931.4" height="486.1"/>
					</defs>
					<clipPath id="SVGID_116_">
						<use xlink:href="#SVGID_147_"  style="overflow:visible;"/>
					</clipPath>
				</g>
			</g>
			<g>
				<defs>
					<rect id="SVGID_149_" x="256.2" y="26.2" width="44.3" height="28.6"/>
				</defs>
				<clipPath id="SVGID_118_">
					<use xlink:href="#SVGID_149_"  style="overflow:visible;"/>
				</clipPath>
				<g class="st71">
					<defs>
						<rect id="SVGID_151_" x="-488.3" y="-99.9" width="931.4" height="486.1"/>
					</defs>
					<clipPath id="SVGID_120_">
						<use xlink:href="#SVGID_151_"  style="overflow:visible;"/>
					</clipPath>
				</g>
			</g>
			<g>
				<defs>
					<path id="SVGID_153_" d="M301.7,61h-47.6c-1.1,0-2.1-0.8-2.3-2l-0.3-2.1h22.1l0.8,1.2h6.1l0.9-1.2h23.3l-0.3,1.8
						C304.1,60,303,61,301.7,61"/>
				</defs>
				<clipPath id="SVGID_122_">
					<use xlink:href="#SVGID_153_"  style="overflow:visible;"/>
				</clipPath>
				<g class="st73">
					<defs>
						<rect id="SVGID_155_" x="-488.3" y="-99.9" width="931.4" height="486.1"/>
					</defs>
					<clipPath id="SVGID_124_">
						<use xlink:href="#SVGID_155_"  style="overflow:visible;"/>
					</clipPath>
				</g>
			</g>
			<g>
				<defs>
					<path id="SVGID_157_" d="M301.8,61.7H254c-1.7,0-3.1-1.2-3.4-2.8l-0.5-3.3h24l0.8,1.2h5l0.9-1.2H306l-0.5,3
						C305.2,60.4,303.7,61.7,301.8,61.7z M252.6,57.6l0.1,0.8c0.1,0.6,0.6,1.1,1.3,1.1h47.8c0.8,0,1.5-0.6,1.6-1.3l0.1-0.6h-21.6
						l-0.9,1.2h-7.2l-0.8-1.2H252.6z"/>
				</defs>
				<clipPath id="SVGID_126_">
					<use xlink:href="#SVGID_157_"  style="overflow:visible;"/>
				</clipPath>
				<g class="st75">
					<defs>
						<rect id="SVGID_159_" x="-488.3" y="-99.9" width="931.4" height="486.1"/>
					</defs>
					<clipPath id="SVGID_128_">
						<use xlink:href="#SVGID_159_"  style="overflow:visible;"/>
					</clipPath>
				</g>
			</g>
			<g>
				<defs>
					<path id="SVGID_161_" d="M279.3,38.5h-29c-1.6,0-2.9-1.3-2.9-2.9V16.1c0-1.6,1.3-2.9,2.9-2.9h29c1.6,0,2.9,1.3,2.9,2.9v19.5
						C282.1,37.2,280.9,38.5,279.3,38.5"/>
				</defs>
				<clipPath id="SVGID_130_">
					<use xlink:href="#SVGID_161_"  style="overflow:visible;"/>
				</clipPath>
				<g class="st77">
					<defs>
						<rect id="SVGID_163_" x="-488.3" y="-99.9" width="931.4" height="486.1"/>
					</defs>
					<clipPath id="SVGID_132_">
						<use xlink:href="#SVGID_163_"  style="overflow:visible;"/>
					</clipPath>
				</g>
			</g>
			<g>
				<defs>
					<path id="SVGID_165_" d="M247.4,18.7V15c0-1,0.8-1.8,1.7-1.8h31.3c1,0,1.7,0.8,1.7,1.8v3.7H247.4"/>
				</defs>
				<clipPath id="SVGID_134_">
					<use xlink:href="#SVGID_165_"  style="overflow:visible;"/>
				</clipPath>
				<g class="st79">
					<defs>
						<rect id="SVGID_167_" x="-488.3" y="-99.9" width="931.4" height="486.1"/>
					</defs>
					<clipPath id="SVGID_136_">
						<use xlink:href="#SVGID_167_"  style="overflow:visible;"/>
					</clipPath>
				</g>
			</g>
			<g>
				<defs>
					<path id="SVGID_169_" d="M280.6,39.8h-31.8c-1.6,0-2.9-1.3-2.9-2.8V15.4c0-1.5,1.3-2.8,2.9-2.8h4.7v2.1h-4.7
						c-0.4,0-0.7,0.3-0.7,0.7V37c0,0.4,0.3,0.7,0.7,0.7h31.8c0.4,0,0.7-0.3,0.7-0.7V15.4c0-0.4-0.3-0.7-0.7-0.7h-21v-2.1h21
						c1.6,0,2.9,1.3,2.9,2.8V37C283.5,38.6,282.2,39.8,280.6,39.8"/>
				</defs>
				<clipPath id="SVGID_138_">
					<use xlink:href="#SVGID_169_"  style="overflow:visible;"/>
				</clipPath>
				<g class="st81">
					<defs>
						<rect id="SVGID_171_" x="-488.3" y="-99.9" width="931.4" height="486.1"/>
					</defs>
					<clipPath id="SVGID_140_">
						<use xlink:href="#SVGID_171_"  style="overflow:visible;"/>
					</clipPath>
				</g>
			</g>
			<g>
				<defs>
					<rect id="SVGID_173_" x="254.9" y="12.6" width="2.7" height="2"/>
				</defs>
				<clipPath id="SVGID_142_">
					<use xlink:href="#SVGID_173_"  style="overflow:visible;"/>
				</clipPath>
				<g class="st84">
					<defs>
						<rect id="SVGID_175_" x="-488.3" y="-99.9" width="931.4" height="486.1"/>
					</defs>
					<clipPath id="SVGID_144_">
						<use xlink:href="#SVGID_175_"  style="overflow:visible;"/>
					</clipPath>
				</g>
			</g>
			<g>
				<defs>
					<rect id="SVGID_177_" x="247.4" y="18" width="34.8" height="2"/>
				</defs>
				<clipPath id="SVGID_146_">
					<use xlink:href="#SVGID_177_"  style="overflow:visible;"/>
				</clipPath>
				<g class="st86">
					<defs>
						<rect id="SVGID_179_" x="-488.3" y="-99.9" width="931.4" height="486.1"/>
					</defs>
					<clipPath id="SVGID_148_">
						<use xlink:href="#SVGID_179_"  style="overflow:visible;"/>
					</clipPath>
				</g>
			</g>
			<g>
				<defs>
					<rect id="SVGID_181_" x="250.8" y="15.3" width="1.3" height="2"/>
				</defs>
				<clipPath id="SVGID_150_">
					<use xlink:href="#SVGID_181_"  style="overflow:visible;"/>
				</clipPath>
				<g class="st88">
					<defs>
						<rect id="SVGID_183_" x="-488.3" y="-99.9" width="931.4" height="486.1"/>
					</defs>
					<clipPath id="SVGID_152_">
						<use xlink:href="#SVGID_183_"  style="overflow:visible;"/>
					</clipPath>
				</g>
			</g>
			<g>
				<defs>
					<rect id="SVGID_185_" x="254.2" y="15.3" width="1.3" height="2"/>
				</defs>
				<clipPath id="SVGID_154_">
					<use xlink:href="#SVGID_185_"  style="overflow:visible;"/>
				</clipPath>
				<g class="st90">
					<defs>
						<rect id="SVGID_187_" x="-488.3" y="-99.9" width="931.4" height="486.1"/>
					</defs>
					<clipPath id="SVGID_156_">
						<use xlink:href="#SVGID_187_"  style="overflow:visible;"/>
					</clipPath>
				</g>
			</g>
			<g>
				<defs>
					<rect id="SVGID_189_" x="257.6" y="15.3" width="1.3" height="2"/>
				</defs>
				<clipPath id="SVGID_158_">
					<use xlink:href="#SVGID_189_"  style="overflow:visible;"/>
				</clipPath>
				<g class="st92">
					<defs>
						<rect id="SVGID_191_" x="-488.3" y="-99.9" width="931.4" height="486.1"/>
					</defs>
					<clipPath id="SVGID_160_">
						<use xlink:href="#SVGID_191_"  style="overflow:visible;"/>
					</clipPath>
				</g>
			</g>
			<g>
				<defs>
					<polyline id="SVGID_193_" points="257.6,28.5 257.6,27.4 261.7,25.5 261.7,26.7 259,27.9 261.7,29.1 261.7,30.3 257.6,28.5 
											"/>
				</defs>
				<clipPath id="SVGID_162_">
					<use xlink:href="#SVGID_193_"  style="overflow:visible;"/>
				</clipPath>
				<g class="st94">
					<defs>
						<rect id="SVGID_195_" x="-488.3" y="-99.9" width="931.4" height="486.1"/>
					</defs>
					<clipPath id="SVGID_164_">
						<use xlink:href="#SVGID_195_"  style="overflow:visible;"/>
					</clipPath>
				</g>
			</g>
			<g>
				<defs>
					<polyline id="SVGID_197_" points="265.4,24.2 266.5,24.2 263.4,31 262.4,31 265.4,24.2 					"/>
				</defs>
				<clipPath id="SVGID_166_">
					<use xlink:href="#SVGID_197_"  style="overflow:visible;"/>
				</clipPath>
				<g class="st96">
					<defs>
						<rect id="SVGID_199_" x="-488.3" y="-99.9" width="931.4" height="486.1"/>
					</defs>
					<clipPath id="SVGID_168_">
						<use xlink:href="#SVGID_199_"  style="overflow:visible;"/>
					</clipPath>
				</g>
			</g>
			<g>
				<defs>
					<polyline id="SVGID_201_" points="271.9,27.4 271.9,28.5 267.8,30.3 267.8,29.1 270.5,27.9 267.8,26.7 267.8,25.5 271.9,27.4 
											"/>
				</defs>
				<clipPath id="SVGID_170_">
					<use xlink:href="#SVGID_201_"  style="overflow:visible;"/>
				</clipPath>
				<g class="st98">
					<defs>
						<rect id="SVGID_203_" x="-488.3" y="-99.9" width="931.4" height="486.1"/>
					</defs>
					<clipPath id="SVGID_172_">
						<use xlink:href="#SVGID_203_"  style="overflow:visible;"/>
					</clipPath>
				</g>
			</g>
			<g>
				<defs>
					<rect id="SVGID_205_" x="284.9" y="29.6" width="11.6" height="2"/>
				</defs>
				<clipPath id="SVGID_174_">
					<use xlink:href="#SVGID_205_"  style="overflow:visible;"/>
				</clipPath>
				<g class="st100">
					<defs>
						<rect id="SVGID_207_" x="-488.3" y="-99.9" width="931.4" height="486.1"/>
					</defs>
					<clipPath id="SVGID_176_">
						<use xlink:href="#SVGID_207_"  style="overflow:visible;"/>
					</clipPath>
				</g>
			</g>
			<g>
				<defs>
					<rect id="SVGID_209_" x="288.3" y="34.4" width="4.1" height="2"/>
				</defs>
				<clipPath id="SVGID_178_">
					<use xlink:href="#SVGID_209_"  style="overflow:visible;"/>
				</clipPath>
				<g class="st102">
					<defs>
						<rect id="SVGID_211_" x="-488.3" y="-99.9" width="931.4" height="486.1"/>
					</defs>
					<clipPath id="SVGID_180_">
						<use xlink:href="#SVGID_211_"  style="overflow:visible;"/>
					</clipPath>
				</g>
			</g>
			<g>
				<defs>
					<rect id="SVGID_213_" x="273.3" y="40.5" width="11.6" height="2"/>
				</defs>
				<clipPath id="SVGID_182_">
					<use xlink:href="#SVGID_213_"  style="overflow:visible;"/>
				</clipPath>
				<g class="st104">
					<defs>
						<rect id="SVGID_215_" x="-488.3" y="-99.9" width="931.4" height="486.1"/>
					</defs>
					<clipPath id="SVGID_184_">
						<use xlink:href="#SVGID_215_"  style="overflow:visible;"/>
					</clipPath>
				</g>
			</g>
			<g>
				<defs>
					<rect id="SVGID_217_" x="286.9" y="40.5" width="6.1" height="2"/>
				</defs>
				<clipPath id="SVGID_186_">
					<use xlink:href="#SVGID_217_"  style="overflow:visible;"/>
				</clipPath>
				<g class="st106">
					<defs>
						<rect id="SVGID_219_" x="-488.3" y="-99.9" width="931.4" height="486.1"/>
					</defs>
					<clipPath id="SVGID_188_">
						<use xlink:href="#SVGID_219_"  style="overflow:visible;"/>
					</clipPath>
				</g>
			</g>
			<g>
				<defs>
					<rect id="SVGID_221_" x="269.2" y="40.5" width="2" height="2"/>
				</defs>
				<clipPath id="SVGID_190_">
					<use xlink:href="#SVGID_221_"  style="overflow:visible;"/>
				</clipPath>
				<g class="st108">
					<defs>
						<rect id="SVGID_223_" x="-488.3" y="-99.9" width="931.4" height="486.1"/>
					</defs>
					<clipPath id="SVGID_192_">
						<use xlink:href="#SVGID_223_"  style="overflow:visible;"/>
					</clipPath>
				</g>
			</g>
			<g>
				<defs>
					<rect id="SVGID_225_" x="259" y="44.6" width="11.6" height="2"/>
				</defs>
				<clipPath id="SVGID_194_">
					<use xlink:href="#SVGID_225_"  style="overflow:visible;"/>
				</clipPath>
				<g class="st110">
					<defs>
						<rect id="SVGID_227_" x="-488.3" y="-99.9" width="931.4" height="486.1"/>
					</defs>
					<clipPath id="SVGID_196_">
						<use xlink:href="#SVGID_227_"  style="overflow:visible;"/>
					</clipPath>
				</g>
			</g>
			<g>
				<defs>
					<rect id="SVGID_229_" x="266.5" y="49.4" width="11.6" height="2"/>
				</defs>
				<clipPath id="SVGID_198_">
					<use xlink:href="#SVGID_229_"  style="overflow:visible;"/>
				</clipPath>
				<g class="st112">
					<defs>
						<rect id="SVGID_231_" x="-488.3" y="-99.9" width="931.4" height="486.1"/>
					</defs>
					<clipPath id="SVGID_200_">
						<use xlink:href="#SVGID_231_"  style="overflow:visible;"/>
					</clipPath>
				</g>
			</g>
			<g>
				<defs>
					<rect id="SVGID_233_" x="280.8" y="49.4" width="6.1" height="2"/>
				</defs>
				<clipPath id="SVGID_202_">
					<use xlink:href="#SVGID_233_"  style="overflow:visible;"/>
				</clipPath>
				<g class="st114">
					<defs>
						<rect id="SVGID_235_" x="-488.3" y="-99.9" width="931.4" height="486.1"/>
					</defs>
					<clipPath id="SVGID_204_">
						<use xlink:href="#SVGID_235_"  style="overflow:visible;"/>
					</clipPath>
				</g>
			</g>
		</g>
	</g>
</g>
<g id="specctr">
	<g id="Text_Properties">
	</g>
</g>
</svg>
