<?xml version="1.0" encoding="utf-8"?>
<!-- Generator: Adobe Illustrator 23.0.1, SVG Export Plug-In . SVG Version: 6.00 Build 0)  -->
<svg version="1.1" xmlns="http://www.w3.org/2000/svg" xmlns:xlink="http://www.w3.org/1999/xlink" x="0px" y="0px"
	 viewBox="0 0 64 64" style="enable-background:new 0 0 64 64;" xml:space="preserve">
<style type="text/css">
	.st0{fill:#CCCCCC;}
	.st1{fill:none;stroke:#2C3251;stroke-width:0.5;stroke-miterlimit:10;}
	.st2{opacity:0.2;fill:#2C3251;}
	.st3{fill:#FFFFFF;}
	.st4{fill:#FFFFFF;stroke:#2C3251;stroke-width:0.5;stroke-miterlimit:10;}
	.st5{fill:#FFFFFF;stroke:#2C3251;stroke-width:0.5;stroke-linecap:round;stroke-linejoin:round;stroke-miterlimit:10;}
	.st6{fill:none;stroke:#2C3251;stroke-width:0.5;stroke-linecap:round;stroke-linejoin:round;stroke-miterlimit:10;}
	.st7{opacity:0.4;fill:#2C3251;enable-background:new    ;}
	.st8{fill:#2C3251;}
	.st9{fill:#2C3251;stroke:#2C3251;stroke-width:0.1;stroke-miterlimit:10;}
	.st10{fill:#939393;}
	.st11{fill:#D2E9F7;}
	.st12{fill:#0686D8;}
	.st13{clip-path:url(#SVGID_2_);}
	.st14{clip-path:url(#SVGID_4_);fill:#FFFFFF;}
	.st15{clip-path:url(#SVGID_6_);}
	.st16{clip-path:url(#SVGID_8_);fill:#FFFFFF;}
	.st17{clip-path:url(#SVGID_10_);}
	.st18{clip-path:url(#SVGID_14_);}
	.st19{clip-path:url(#SVGID_16_);}
	.st20{clip-path:url(#SVGID_18_);}
	.st21{clip-path:url(#SVGID_20_);fill:#CCCCCC;}
	.st22{clip-path:url(#SVGID_22_);}
	.st23{clip-path:url(#SVGID_24_);fill:#CCCCCC;}
	.st24{clip-path:url(#SVGID_26_);}
	.st25{clip-path:url(#SVGID_28_);fill:#CCCCCC;}
	.st26{clip-path:url(#SVGID_30_);}
	.st27{clip-path:url(#SVGID_32_);fill:#CCCCCC;}
	.st28{clip-path:url(#SVGID_34_);}
	.st29{clip-path:url(#SVGID_36_);fill:#CCCCCC;}
	.st30{clip-path:url(#SVGID_38_);}
	.st31{clip-path:url(#SVGID_42_);}
	.st32{clip-path:url(#SVGID_44_);}
	.st33{clip-path:url(#SVGID_46_);}
	.st34{clip-path:url(#SVGID_48_);fill:none;}
	.st35{clip-path:url(#SVGID_50_);}
	.st36{clip-path:url(#SVGID_52_);}
	.st37{clip-path:url(#SVGID_54_);}
	.st38{clip-path:url(#SVGID_58_);}
	.st39{clip-path:url(#SVGID_62_);}
	.st40{clip-path:url(#SVGID_64_);enable-background:new    ;}
	.st41{clip-path:url(#SVGID_66_);}
	.st42{clip-path:url(#SVGID_68_);}
	.st43{clip-path:url(#SVGID_70_);}
	.st44{clip-path:url(#SVGID_72_);}
	.st45{clip-path:url(#SVGID_76_);}
	.st46{clip-path:url(#SVGID_80_);}
	.st47{clip-path:url(#SVGID_82_);}
	.st48{clip-path:url(#SVGID_84_);}
	.st49{clip-path:url(#SVGID_86_);fill:#FFFFFF;}
	.st50{clip-path:url(#SVGID_89_);}
	.st51{clip-path:url(#SVGID_90_);}
	.st52{clip-path:url(#SVGID_92_);fill:#9ECFEF;}
	.st53{clip-path:url(#SVGID_94_);}
	.st54{clip-path:url(#SVGID_96_);}
	.st55{clip-path:url(#SVGID_98_);}
	.st56{clip-path:url(#SVGID_102_);}
	.st57{clip-path:url(#SVGID_104_);fill:#FFFFFF;}
	.st58{clip-path:url(#SVGID_106_);}
	.st59{clip-path:url(#SVGID_108_);}
	.st60{clip-path:url(#SVGID_110_);}
	.st61{clip-path:url(#SVGID_112_);}
	.st62{clip-path:url(#SVGID_114_);}
	.st63{clip-path:url(#SVGID_116_);enable-background:new    ;}
	.st64{clip-path:url(#SVGID_118_);}
	.st65{clip-path:url(#SVGID_120_);}
	.st66{clip-path:url(#SVGID_122_);fill:#CCCCCC;}
	.st67{clip-path:url(#SVGID_124_);}
	.st68{clip-path:url(#SVGID_126_);fill:#CCCCCC;}
	.st69{clip-path:url(#SVGID_128_);}
	.st70{clip-path:url(#SVGID_130_);fill:#CCCCCC;}
	.st71{clip-path:url(#SVGID_132_);}
	.st72{clip-path:url(#SVGID_134_);fill:#CCCCCC;}
	.st73{clip-path:url(#SVGID_136_);}
	.st74{clip-path:url(#SVGID_138_);fill:#CCCCCC;}
	.st75{clip-path:url(#SVGID_140_);}
	.st76{clip-path:url(#SVGID_142_);fill:#CCCCCC;}
	.st77{fill:none;stroke:#000000;stroke-width:2.7984;stroke-miterlimit:10;}
	.st78{fill:#5FB0E5;}
	.st79{clip-path:url(#SVGID_144_);}
	.st80{clip-path:url(#SVGID_148_);}
	.st81{clip-path:url(#SVGID_150_);}
	.st82{clip-path:url(#SVGID_152_);}
	.st83{clip-path:url(#SVGID_154_);fill:#FFFFFE;}
	.st84{clip-path:url(#SVGID_156_);}
	.st85{clip-path:url(#SVGID_158_);fill:#FFFFFF;}
	.st86{clip-path:url(#SVGID_160_);}
	.st87{clip-path:url(#SVGID_162_);}
	.st88{clip-path:url(#SVGID_164_);}
	.st89{clip-path:url(#SVGID_166_);fill:#FFFFFE;}
	.st90{clip-path:url(#SVGID_168_);}
	.st91{clip-path:url(#SVGID_170_);fill:#CCCCCC;}
	.st92{clip-path:url(#SVGID_172_);}
	.st93{clip-path:url(#SVGID_174_);}
	.st94{clip-path:url(#SVGID_176_);}
	.st95{clip-path:url(#SVGID_178_);}
	.st96{clip-path:url(#SVGID_180_);}
	.st97{clip-path:url(#SVGID_182_);}
	.st98{clip-path:url(#SVGID_184_);}
	.st99{clip-path:url(#SVGID_186_);}
	.st100{clip-path:url(#SVGID_188_);}
	.st101{clip-path:url(#SVGID_190_);}
	.st102{clip-path:url(#SVGID_192_);}
	.st103{clip-path:url(#SVGID_194_);}
	.st104{clip-path:url(#SVGID_196_);}
	.st105{clip-path:url(#SVGID_198_);fill:#CCCCCC;}
	.st106{clip-path:url(#SVGID_200_);}
	.st107{clip-path:url(#SVGID_202_);fill:#CCCCCC;}
	.st108{clip-path:url(#SVGID_204_);}
	.st109{clip-path:url(#SVGID_206_);fill:#CCCCCC;}
	.st110{clip-path:url(#SVGID_208_);}
	.st111{clip-path:url(#SVGID_210_);fill:#CCCCCC;}
	.st112{clip-path:url(#SVGID_212_);}
	.st113{clip-path:url(#SVGID_214_);fill:#CCCCCC;}
	.st114{clip-path:url(#SVGID_216_);}
	.st115{clip-path:url(#SVGID_218_);fill:#CCCCCC;}
	.st116{clip-path:url(#SVGID_220_);}
	.st117{clip-path:url(#SVGID_222_);fill:#CCCCCC;}
	.st118{clip-path:url(#SVGID_224_);}
	.st119{clip-path:url(#SVGID_226_);fill:#CCCCCC;}
	.st120{clip-path:url(#SVGID_228_);}
	.st121{clip-path:url(#SVGID_230_);fill:#CCCCCC;}
	.st122{clip-path:url(#SVGID_232_);}
	.st123{clip-path:url(#SVGID_234_);fill:#CCCCCC;}
	.st124{clip-path:url(#SVGID_236_);}
	.st125{clip-path:url(#SVGID_238_);fill:#CCCCCC;}
</style>
<g id="Layer_1">
	<g>
		<g>
			<defs>
				<path id="SVGID_1_" d="M19.3,32.4h-11l-5.2-10c-0.4-0.8,0.2-1.7,1-1.7H8c0.3,0,0.6,0.1,0.8,0.4L19.3,32.4z"/>
			</defs>
			<clipPath id="SVGID_2_">
				<use xlink:href="#SVGID_1_"  style="overflow:visible;"/>
			</clipPath>
			<g class="st13">
				<defs>
					<rect id="SVGID_3_" x="-541.6" y="-193.6" width="714.6" height="613.7"/>
				</defs>
				<clipPath id="SVGID_4_">
					<use xlink:href="#SVGID_3_"  style="overflow:visible;"/>
				</clipPath>
				<rect x="0.4" y="18.1" class="st14" width="21.5" height="16.9"/>
			</g>
		</g>
		<g>
			<defs>
				<path id="SVGID_5_" d="M19.3,32.4h-11l-5.2-10c-0.4-0.8,0.2-1.7,1-1.7H8c0.3,0,0.6,0.1,0.8,0.4L19.3,32.4z"/>
			</defs>
			<clipPath id="SVGID_6_">
				<use xlink:href="#SVGID_5_"  style="overflow:visible;"/>
			</clipPath>
			<g class="st15">
				<defs>
					<rect id="SVGID_7_" x="-541.6" y="-193.6" width="714.6" height="613.7"/>
				</defs>
				<clipPath id="SVGID_8_">
					<use xlink:href="#SVGID_7_"  style="overflow:visible;"/>
				</clipPath>
				<rect x="0.4" y="18.1" class="st16" width="21.5" height="16.9"/>
			</g>
		</g>
		<g>
			<defs>
				<path id="SVGID_9_" d="M5.4,20.7H4.1c-0.9,0-1.4,0.9-1,1.7l5.2,10h4.3L5.5,21.2C5.4,21.1,5.4,20.9,5.4,20.7"/>
			</defs>
			<clipPath id="SVGID_10_">
				<use xlink:href="#SVGID_9_"  style="overflow:visible;"/>
			</clipPath>
			<g class="st17">
				<defs>
					<rect id="SVGID_11_" x="-541.6" y="-193.6" width="714.6" height="613.7"/>
				</defs>
				<clipPath id="SVGID_12_">
					<use xlink:href="#SVGID_11_"  style="overflow:visible;"/>
				</clipPath>
			</g>
		</g>
		<g>
			<defs>
				<path id="SVGID_13_" d="M21.6,33.4H7.7L2.2,22.9c-0.3-0.7-0.3-1.4,0.1-2.1c0.4-0.6,1.1-1,1.8-1H8c0.6,0,1.2,0.2,1.6,0.7
					L21.6,33.4z M8.9,31.5H17l-9-9.7c0,0-0.1-0.1-0.1-0.1H4.1c-0.1,0-0.1,0-0.1,0.1s0,0.1,0,0.2L8.9,31.5z"/>
			</defs>
			<clipPath id="SVGID_14_">
				<use xlink:href="#SVGID_13_"  style="overflow:visible;"/>
			</clipPath>
			<g class="st18">
				<defs>
					<rect id="SVGID_15_" x="-541.6" y="-193.6" width="714.6" height="613.7"/>
				</defs>
				<clipPath id="SVGID_16_">
					<use xlink:href="#SVGID_15_"  style="overflow:visible;"/>
				</clipPath>
				<rect x="-0.6" y="17.1" class="st19" width="24.8" height="18.9"/>
			</g>
		</g>
		<g>
			<defs>
				<path id="SVGID_17_" d="M53.6,52.4c0,0.9-0.7,1.6-1.7,1.6c-0.9,0-1.7-0.7-1.7-1.6s0.7-1.6,1.7-1.6
					C52.9,50.8,53.6,51.5,53.6,52.4"/>
			</defs>
			<clipPath id="SVGID_18_">
				<use xlink:href="#SVGID_17_"  style="overflow:visible;"/>
			</clipPath>
			<g class="st20">
				<defs>
					<rect id="SVGID_19_" x="-541.6" y="-193.6" width="714.6" height="613.7"/>
				</defs>
				<clipPath id="SVGID_20_">
					<use xlink:href="#SVGID_19_"  style="overflow:visible;"/>
				</clipPath>
				<rect x="47.7" y="48.2" class="st21" width="8.5" height="8.5"/>
			</g>
		</g>
		<g>
			<defs>
				<path id="SVGID_21_" d="M40,15.6c0,0.5-0.4,0.8-0.8,0.8c-0.5,0-0.8-0.4-0.8-0.8s0.4-0.8,0.8-0.8C39.7,14.7,40,15.1,40,15.6"/>
			</defs>
			<use xlink:href="#SVGID_21_"  style="overflow:visible;fill-rule:evenodd;clip-rule:evenodd;fill:#CCCCCC;"/>
			<clipPath id="SVGID_22_">
				<use xlink:href="#SVGID_21_"  style="overflow:visible;"/>
			</clipPath>
			<g class="st22">
				<defs>
					<rect id="SVGID_23_" x="-541.6" y="-193.6" width="714.6" height="613.7"/>
				</defs>
				<clipPath id="SVGID_24_">
					<use xlink:href="#SVGID_23_"  style="overflow:visible;"/>
				</clipPath>
				<rect x="35.8" y="12.1" class="st23" width="6.9" height="6.9"/>
			</g>
		</g>
		<g>
			<defs>
				<path id="SVGID_25_" d="M38.2,48c0,0.5-0.4,0.8-0.8,0.8c-0.5,0-0.8-0.4-0.8-0.8c0-0.5,0.4-0.8,0.8-0.8
					C37.9,47.2,38.2,47.6,38.2,48"/>
			</defs>
			<use xlink:href="#SVGID_25_"  style="overflow:visible;fill-rule:evenodd;clip-rule:evenodd;fill:#CCCCCC;"/>
			<clipPath id="SVGID_26_">
				<use xlink:href="#SVGID_25_"  style="overflow:visible;"/>
			</clipPath>
			<g class="st24">
				<defs>
					<rect id="SVGID_27_" x="-541.6" y="-193.6" width="714.6" height="613.7"/>
				</defs>
				<clipPath id="SVGID_28_">
					<use xlink:href="#SVGID_27_"  style="overflow:visible;"/>
				</clipPath>
				<rect x="34" y="44.6" class="st25" width="6.9" height="6.9"/>
			</g>
		</g>
		<g>
			<defs>
				<path id="SVGID_29_" d="M60.1,11.8c0,0.6-0.5,1.1-1.1,1.1c-0.6,0-1.1-0.5-1.1-1.1c0-0.6,0.5-1.1,1.1-1.1
					C59.6,10.7,60.1,11.2,60.1,11.8"/>
			</defs>
			<clipPath id="SVGID_30_">
				<use xlink:href="#SVGID_29_"  style="overflow:visible;"/>
			</clipPath>
			<g class="st26">
				<defs>
					<rect id="SVGID_31_" x="-541.6" y="-193.6" width="714.6" height="613.7"/>
				</defs>
				<clipPath id="SVGID_32_">
					<use xlink:href="#SVGID_31_"  style="overflow:visible;"/>
				</clipPath>
				<rect x="55.3" y="8.1" class="st27" width="7.4" height="7.4"/>
			</g>
		</g>
		<g>
			<defs>
				<path id="SVGID_33_" d="M46.9,6.2c0,0.9-0.7,1.5-1.6,1.5c-0.9,0-1.6-0.7-1.6-1.5c0-0.9,0.7-1.5,1.6-1.5
					C46.2,4.6,46.9,5.3,46.9,6.2"/>
			</defs>
			<clipPath id="SVGID_34_">
				<use xlink:href="#SVGID_33_"  style="overflow:visible;"/>
			</clipPath>
			<g class="st28">
				<defs>
					<rect id="SVGID_35_" x="-541.6" y="-193.6" width="714.6" height="613.7"/>
				</defs>
				<clipPath id="SVGID_36_">
					<use xlink:href="#SVGID_35_"  style="overflow:visible;"/>
				</clipPath>
				<rect x="41.1" y="2" class="st29" width="8.4" height="8.3"/>
			</g>
		</g>
		<g>
			<defs>
				<path id="SVGID_37_" d="M57.8,27.2h-0.1c-0.6-1.9-2.3-3.3-4.4-3.3c-0.9,0-1.8,0.3-2.5,0.7c-0.5-3-3.1-5.3-6.2-5.3
					c-2.8,0-5.2,1.9-6,4.4c-0.4-0.1-0.7-0.2-1.1-0.2c-2.2,0-4,1.6-4.3,3.6h-0.7c-1.8,0-3.2,1.4-3.2,3.2v0.2c0,1.8,1.5,3.2,3.2,3.2
					h25.4c1.8,0,3.2-1.4,3.2-3.2v-0.2C61,28.7,59.6,27.2,57.8,27.2"/>
			</defs>
			<clipPath id="SVGID_38_">
				<use xlink:href="#SVGID_37_"  style="overflow:visible;"/>
			</clipPath>
			<g class="st30">
				<defs>
					<rect id="SVGID_39_" x="-541.6" y="-193.6" width="714.6" height="613.7"/>
				</defs>
				<clipPath id="SVGID_40_">
					<use xlink:href="#SVGID_39_"  style="overflow:visible;"/>
				</clipPath>
			</g>
		</g>
		<g>
			<defs>
				<path id="SVGID_41_" d="M57.8,34.9v-2c1.2,0,2.3-1,2.3-2.2v-0.2c0-1.2-1-2.2-2.3-2.2H57l-0.3-0.7c-0.4-1.5-1.9-2.6-3.5-2.6
					c-0.7,0-1.4,0.2-2,0.6L50,26.3l-0.2-1.5c-0.4-2.6-2.6-4.5-5.3-4.5c-2.3,0-4.4,1.5-5.1,3.7l-0.3,0.9l-0.9-0.2
					c-2-0.5-3.9,0.8-4.2,2.7l-0.1,0.8h-1.5c-0.8,0-1.5,0.4-1.9,1.1l-1.7-1c0.7-1.3,2.1-2,3.6-2.1c0.8-2.3,3-3.9,5.5-3.6
					c1.2-2.6,3.7-4.3,6.7-4.3c3.2,0,5.9,2,6.9,4.9c0.6-0.2,1.2-0.3,1.8-0.3c2.2,0,4.3,1.4,5.1,3.4c2.1,0.3,3.6,2.1,3.6,4.1v0.2
					C62,33,60.1,34.9,57.8,34.9"/>
			</defs>
			<clipPath id="SVGID_42_">
				<use xlink:href="#SVGID_41_"  style="overflow:visible;"/>
			</clipPath>
			<g class="st31">
				<defs>
					<rect id="SVGID_43_" x="-541.6" y="-193.6" width="714.6" height="613.7"/>
				</defs>
				<clipPath id="SVGID_44_">
					<use xlink:href="#SVGID_43_"  style="overflow:visible;"/>
				</clipPath>
				<rect x="26.1" y="15.7" class="st32" width="38.5" height="21.8"/>
			</g>
		</g>
		<g>
			<defs>
				<path id="SVGID_45_" d="M47.8,24.7c-0.8-1.2-2.1-1.9-3.6-1.9c-0.8,0-1.5,0.2-2.2,0.6l-1-1.7c1-0.6,2.1-0.9,3.2-0.9
					c2.1,0,4.1,1.1,5.2,2.8L47.8,24.7z"/>
			</defs>
			<clipPath id="SVGID_46_">
				<use xlink:href="#SVGID_45_"  style="overflow:visible;"/>
			</clipPath>
			<g class="st33">
				<defs>
					<rect id="SVGID_47_" x="-541.6" y="-193.6" width="714.6" height="613.7"/>
				</defs>
				<clipPath id="SVGID_48_">
					<use xlink:href="#SVGID_47_"  style="overflow:visible;"/>
				</clipPath>
				<rect x="38.4" y="18.1" class="st34" width="13.7" height="9.1"/>
			</g>
		</g>
		<g>
			<defs>
				<path id="SVGID_49_" d="M40.7,25.8h-2c0-0.7-0.6-1.3-1.3-1.3v-2C39.2,22.6,40.7,24,40.7,25.8"/>
			</defs>
			<clipPath id="SVGID_50_">
				<use xlink:href="#SVGID_49_"  style="overflow:visible;"/>
			</clipPath>
			<g class="st35">
				<defs>
					<rect id="SVGID_51_" x="-541.6" y="-193.6" width="714.6" height="613.7"/>
				</defs>
				<clipPath id="SVGID_52_">
					<use xlink:href="#SVGID_51_"  style="overflow:visible;"/>
				</clipPath>
				<rect x="34.8" y="20" class="st36" width="8.5" height="8.4"/>
			</g>
		</g>
		<g>
			<defs>
				<path id="SVGID_53_" d="M30.2,52.9H30c-0.5-1.6-1.9-2.7-3.6-2.7c-0.8,0-1.4,0.2-2,0.6c-0.4-2.5-2.5-4.4-5.1-4.4
					c-2.3,0-4.3,1.5-4.9,3.6c-0.3-0.1-0.6-0.1-0.9-0.1c-1.8,0-3.2,1.3-3.5,3H9.3c-1.5,0-2.7,1.2-2.7,2.6v0.2c0,1.5,1.2,2.6,2.7,2.6
					h20.8c1.5,0,2.7-1.2,2.7-2.6v-0.2C32.8,54.1,31.6,52.9,30.2,52.9"/>
			</defs>
			<clipPath id="SVGID_54_">
				<use xlink:href="#SVGID_53_"  style="overflow:visible;"/>
			</clipPath>
			<g class="st37">
				<defs>
					<rect id="SVGID_55_" x="-541.6" y="-193.6" width="714.6" height="613.7"/>
				</defs>
				<clipPath id="SVGID_56_">
					<use xlink:href="#SVGID_55_"  style="overflow:visible;"/>
				</clipPath>
			</g>
		</g>
		<g>
			<defs>
				<path id="SVGID_57_" d="M13,58.4H9.3c-1.5,0-2.7-1.2-2.7-2.6v-0.2c0-1.5,1.2-2.6,2.7-2.6h0.6c0.3-1.7,1.7-3,3.5-3
					c0.3,0,0.6,0,0.9,0.1c0.7-2.1,2.6-3.6,4.9-3.6c2.6,0,4.7,1.9,5.1,4.4c0.6-0.4,1.3-0.6,2-0.6c1.7,0,3.2,1.1,3.6,2.7h0.1
					c1.5,0,2.7,1.2,2.7,2.6v0.2c0,1.4-1.2,2.6-2.7,2.6h-4H13z"/>
			</defs>
			<clipPath id="SVGID_58_">
				<use xlink:href="#SVGID_57_"  style="overflow:visible;"/>
			</clipPath>
			<g class="st38">
				<defs>
					<rect id="SVGID_59_" x="-541.6" y="-193.6" width="714.6" height="613.7"/>
				</defs>
				<clipPath id="SVGID_60_">
					<use xlink:href="#SVGID_59_"  style="overflow:visible;"/>
				</clipPath>
			</g>
		</g>
		<g>
			<defs>
				<rect id="SVGID_61_" x="5.7" y="45.5" width="28.1" height="13.9"/>
			</defs>
			<clipPath id="SVGID_62_">
				<use xlink:href="#SVGID_61_"  style="overflow:visible;"/>
			</clipPath>
			<g class="st39">
				<defs>
					<rect id="SVGID_63_" x="-541.6" y="-193.6" width="714.6" height="613.7"/>
				</defs>
				<clipPath id="SVGID_64_">
					<use xlink:href="#SVGID_63_"  style="overflow:visible;"/>
				</clipPath>
				<g class="st40">
					<g>
						<defs>
							<rect id="SVGID_65_" x="5.7" y="45.4" width="28.3" height="14.1"/>
						</defs>
						<clipPath id="SVGID_66_">
							<use xlink:href="#SVGID_65_"  style="overflow:visible;"/>
						</clipPath>
						<g class="st41">
							<defs>
								<path id="SVGID_67_" d="M30.2,59.4H9.3c-2,0-3.6-1.6-3.6-3.6v-0.2c0-1.9,1.5-3.5,3.5-3.6c0.7-1.9,2.5-3.1,4.6-3
									c1-2.1,3.1-3.5,5.6-3.5c2.6,0,4.9,1.6,5.8,4c0.4-0.1,0.9-0.2,1.4-0.2c1.9,0,3.6,1.1,4.3,2.8c1.8,0.3,3,1.8,3,3.6v0.2
									C33.8,57.7,32.2,59.4,30.2,59.4z M9.3,53.9c-0.9,0-1.7,0.7-1.7,1.7v0.2c0,0.9,0.7,1.7,1.7,1.7h20.8c0.9,0,1.7-0.7,1.7-1.7
									v-0.2c0-0.9-0.7-1.7-1.7-1.7h-0.7l-0.3-0.7c-0.3-1.2-1.4-2-2.7-2c-0.5,0-1.1,0.2-1.5,0.4l-1.3,0.8L23.4,51
									c-0.3-2-2.1-3.5-4.1-3.5c-1.8,0-3.5,1.2-4,2.9L15,51.3L14.1,51c-1.5-0.4-3,0.6-3.2,2.1l-0.1,0.8H9.3z"/>
							</defs>
							<clipPath id="SVGID_68_">
								<use xlink:href="#SVGID_67_"  style="overflow:visible;"/>
							</clipPath>
							<g class="st42">
								<defs>
									<rect id="SVGID_69_" x="5.7" y="45.4" width="28.3" height="14.1"/>
								</defs>
								<clipPath id="SVGID_70_">
									<use xlink:href="#SVGID_69_"  style="overflow:visible;"/>
								</clipPath>
								<rect x="3.1" y="42.9" class="st43" width="33.3" height="19.1"/>
							</g>
						</g>
					</g>
				</g>
			</g>
		</g>
		<g>
			<defs>
				<path id="SVGID_71_" d="M27.4,15.9L27.4,15.9c-0.4-1-1.3-1.7-2.4-1.7c-0.5,0-0.9,0.1-1.3,0.4c-0.2-1.6-1.6-2.8-3.2-2.8
					c-1.5,0-2.7,1-3.1,2.3C17.2,14,17,14,16.8,14c-1.1,0-2.1,0.8-2.2,1.9h-0.4c-0.9,0-1.7,0.8-1.7,1.7v0.1c0,0.9,0.8,1.7,1.7,1.7
					h13.3c0.9,0,1.7-0.8,1.7-1.7v-0.1C29.1,16.6,28.4,15.9,27.4,15.9"/>
			</defs>
			<clipPath id="SVGID_72_">
				<use xlink:href="#SVGID_71_"  style="overflow:visible;"/>
			</clipPath>
			<g class="st44">
				<defs>
					<rect id="SVGID_73_" x="-541.6" y="-193.6" width="714.6" height="613.7"/>
				</defs>
				<clipPath id="SVGID_74_">
					<use xlink:href="#SVGID_73_"  style="overflow:visible;"/>
				</clipPath>
			</g>
		</g>
		<g>
			<defs>
				<path id="SVGID_75_" d="M16.5,19.4h-2.4c-0.9,0-1.7-0.8-1.7-1.7v-0.1c0-0.9,0.8-1.7,1.7-1.7h0.4c0.2-1.1,1.1-1.9,2.2-1.9
					c0.2,0,0.4,0,0.6,0.1c0.4-1.3,1.7-2.3,3.1-2.3c1.6,0,3,1.2,3.2,2.8c0.4-0.2,0.8-0.4,1.3-0.4c1.1,0,2,0.7,2.3,1.7h0.1
					c0.9,0,1.7,0.8,1.7,1.7v0.1c0,0.9-0.8,1.7-1.7,1.7h-2.6H16.5z"/>
			</defs>
			<clipPath id="SVGID_76_">
				<use xlink:href="#SVGID_75_"  style="overflow:visible;"/>
			</clipPath>
			<g class="st45">
				<defs>
					<rect id="SVGID_77_" x="-541.6" y="-193.6" width="714.6" height="613.7"/>
				</defs>
				<clipPath id="SVGID_78_">
					<use xlink:href="#SVGID_77_"  style="overflow:visible;"/>
				</clipPath>
			</g>
		</g>
		<g>
			<defs>
				<path id="SVGID_79_" d="M27.4,20.3H14.2c-1.5,0-2.7-1.2-2.7-2.7c0-1.5,1-2.6,2.3-2.8c0.5-1.1,1.6-1.9,2.9-1.9
					c0.7-1.4,2.2-2.2,3.8-2.2c1.7,0,3.2,1,3.9,2.5c1.5-0.3,3,0.5,3.7,1.7c1.2,0.3,2,1.3,2,2.6C30.1,19.1,28.9,20.3,27.4,20.3z
					 M14.2,16.9c-0.4,0-0.7,0.3-0.7,0.7c0,0.5,0.3,0.8,0.7,0.8h13.3c0.4,0,0.7-0.3,0.7-0.7c0-0.5-0.3-0.8-0.7-0.8h-0.7l-0.3-0.7
					c-0.2-0.9-1.4-1.3-2.1-0.8L23,16.2l-0.2-1.5c-0.2-1.1-1.1-1.9-2.3-1.9c-1,0-1.9,0.6-2.2,1.6L18,15.3L17.1,15
					c-0.8-0.2-1.5,0.3-1.6,1l-0.1,0.8H14.2z"/>
			</defs>
			<clipPath id="SVGID_80_">
				<use xlink:href="#SVGID_79_"  style="overflow:visible;"/>
			</clipPath>
			<g class="st46">
				<defs>
					<rect id="SVGID_81_" x="-541.6" y="-193.6" width="714.6" height="613.7"/>
				</defs>
				<clipPath id="SVGID_82_">
					<use xlink:href="#SVGID_81_"  style="overflow:visible;"/>
				</clipPath>
				<rect x="8.9" y="8.2" class="st47" width="23.8" height="14.8"/>
			</g>
		</g>
		<g>
			<defs>
				<path id="SVGID_83_" d="M57.7,36.3h-1.1c-0.9-2.6-3.4-4.4-6.3-4.4h-45c0,6.2,5,11.2,11.2,11.2h28.3H57h0.6
					c1.7,0,3.1-1.4,3.1-3.1v-0.6C60.8,37.7,59.4,36.3,57.7,36.3"/>
			</defs>
			<clipPath id="SVGID_84_">
				<use xlink:href="#SVGID_83_"  style="overflow:visible;"/>
			</clipPath>
			<g class="st48">
				<defs>
					<rect id="SVGID_85_" x="-541.6" y="-193.6" width="714.6" height="613.7"/>
				</defs>
				<clipPath id="SVGID_86_">
					<use xlink:href="#SVGID_85_"  style="overflow:visible;"/>
				</clipPath>
				<rect x="2.7" y="29.3" class="st49" width="60.7" height="16.4"/>
			</g>
		</g>
		<g>
			<defs>
				<path id="SVGID_87_" d="M5.7,32H5.3c0,6.2,5,11.2,11.2,11.2h28.3H57h0.6c1.7,0,3.1-1.4,3.1-3.1v-0.6c0-0.4-0.1-0.7-0.2-1
					c-0.4,1.2-1.6,2.1-2.9,2.1"/>
			</defs>
			<defs>
				<polyline id="SVGID_88_" points="57.7,40.5 57,40.5 44.9,40.5 16.6,40.5 				"/>
			</defs>
			<clipPath id="SVGID_89_">
				<use xlink:href="#SVGID_87_"  style="overflow:visible;"/>
			</clipPath>
			<clipPath id="SVGID_90_" class="st50">
				<use xlink:href="#SVGID_88_"  style="overflow:visible;"/>
			</clipPath>
			<g class="st51">
				<defs>
					<rect id="SVGID_91_" x="-541.6" y="-193.6" width="714.6" height="613.7"/>
				</defs>
				<clipPath id="SVGID_92_">
					<use xlink:href="#SVGID_91_"  style="overflow:visible;"/>
				</clipPath>
				<rect x="2.7" y="29.3" class="st52" width="60.7" height="16.4"/>
			</g>
		</g>
		<g>
			<defs>
				<path id="SVGID_93_" d="M57.7,44.1H16.6C9.8,44.1,4.3,38.6,4.3,32v-1h46c3,0,5.7,1.7,6.9,4.4h0.4c2.3,0,4.1,1.8,4.1,4.1V40
					C61.7,42.3,59.9,44.1,57.7,44.1z M6.4,32.9c0.5,5.2,4.9,9.2,10.2,9.2h41.1c1.2,0,2.1-0.9,2.1-2.1v-0.6c0-1.2-0.9-2.1-2.1-2.1
					h-1.8l-0.2-0.6c-0.8-2.2-3-3.7-5.4-3.7H6.4z"/>
			</defs>
			<use xlink:href="#SVGID_93_"  style="overflow:visible;fill-rule:evenodd;clip-rule:evenodd;"/>
			<clipPath id="SVGID_94_">
				<use xlink:href="#SVGID_93_"  style="overflow:visible;"/>
			</clipPath>
			<g class="st53">
				<defs>
					<rect id="SVGID_95_" x="-541.6" y="-193.6" width="714.6" height="613.7"/>
				</defs>
				<clipPath id="SVGID_96_">
					<use xlink:href="#SVGID_95_"  style="overflow:visible;"/>
				</clipPath>
				<rect x="1.7" y="28.4" class="st54" width="62.6" height="18.4"/>
			</g>
		</g>
		<g>
			<defs>
				<path id="SVGID_97_" d="M18.2,35.5h-13c-0.9,0-1.5-0.7-1.5-1.5v-0.5c0-0.8,0.7-1.5,1.5-1.5h13c0.9,0,1.5,0.7,1.5,1.5V34
					C19.7,34.8,19,35.5,18.2,35.5"/>
			</defs>
			<clipPath id="SVGID_98_">
				<use xlink:href="#SVGID_97_"  style="overflow:visible;"/>
			</clipPath>
			<g class="st55">
				<defs>
					<rect id="SVGID_99_" x="-541.6" y="-193.6" width="714.6" height="613.7"/>
				</defs>
				<clipPath id="SVGID_100_">
					<use xlink:href="#SVGID_99_"  style="overflow:visible;"/>
				</clipPath>
			</g>
		</g>
		<g>
			<defs>
				<path id="SVGID_101_" d="M43.5,44.4H27.6c-0.9,0-1.5-0.7-1.5-1.5v-1.1c0-0.8,0.7-1.5,1.5-1.5h15.9c0.9,0,1.5,0.7,1.5,1.5v1.1
					C45,43.7,44.4,44.4,43.5,44.4"/>
			</defs>
			<clipPath id="SVGID_102_">
				<use xlink:href="#SVGID_101_"  style="overflow:visible;"/>
			</clipPath>
			<g class="st56">
				<defs>
					<rect id="SVGID_103_" x="-541.6" y="-193.6" width="714.6" height="613.7"/>
				</defs>
				<clipPath id="SVGID_104_">
					<use xlink:href="#SVGID_103_"  style="overflow:visible;"/>
				</clipPath>
				<rect x="23.4" y="37.6" class="st57" width="24.2" height="9.4"/>
			</g>
		</g>
		<g>
			<defs>
				<path id="SVGID_105_" d="M18.2,36.5h-13c-1.4,0-2.5-1.1-2.5-2.5v-0.5c0-1.4,1.1-2.5,2.5-2.5h13c1.4,0,2.5,1.1,2.5,2.5V34
					C20.7,35.4,19.6,36.5,18.2,36.5z M5.2,32.9c-0.3,0-0.6,0.2-0.6,0.6V34c0,0.3,0.3,0.6,0.6,0.6h13c0.3,0,0.6-0.2,0.6-0.6v-0.5
					c0-0.3-0.2-0.6-0.6-0.6H5.2z"/>
			</defs>
			<clipPath id="SVGID_106_">
				<use xlink:href="#SVGID_105_"  style="overflow:visible;"/>
			</clipPath>
			<g class="st58">
				<defs>
					<rect id="SVGID_107_" x="-541.6" y="-193.6" width="714.6" height="613.7"/>
				</defs>
				<clipPath id="SVGID_108_">
					<use xlink:href="#SVGID_107_"  style="overflow:visible;"/>
				</clipPath>
				<rect x="0.1" y="28.4" class="st59" width="23.3" height="10.7"/>
			</g>
		</g>
		<g>
			<defs>
				<path id="SVGID_109_" d="M43.5,45.4H27.6c-1.4,0-2.5-1.1-2.5-2.5v-1.1c0-1.4,1.1-2.5,2.5-2.5h15.9c1.4,0,2.5,1.1,2.5,2.5v1.1
					C46,44.3,44.9,45.4,43.5,45.4z M27.6,41.2c-0.3,0-0.6,0.2-0.6,0.6v1.1c0,0.3,0.3,0.6,0.6,0.6h15.9c0.3,0,0.6-0.2,0.6-0.6v-1.1
					c0-0.3-0.3-0.6-0.6-0.6H27.6z"/>
			</defs>
			<clipPath id="SVGID_110_">
				<use xlink:href="#SVGID_109_"  style="overflow:visible;"/>
			</clipPath>
			<g class="st60">
				<defs>
					<rect id="SVGID_111_" x="-541.6" y="-193.6" width="714.6" height="613.7"/>
				</defs>
				<clipPath id="SVGID_112_">
					<use xlink:href="#SVGID_111_"  style="overflow:visible;"/>
				</clipPath>
				<rect x="22.4" y="36.6" class="st61" width="26.2" height="11.4"/>
			</g>
		</g>
		<g>
			<defs>
				<rect id="SVGID_113_" x="2" y="4.6" width="60" height="54.7"/>
			</defs>
			<clipPath id="SVGID_114_">
				<use xlink:href="#SVGID_113_"  style="overflow:visible;"/>
			</clipPath>
			<g class="st62">
				<defs>
					<rect id="SVGID_115_" x="-541.6" y="-193.6" width="714.6" height="613.7"/>
				</defs>
				<clipPath id="SVGID_116_">
					<use xlink:href="#SVGID_115_"  style="overflow:visible;"/>
				</clipPath>
				<g class="st63">
					<g>
						<defs>
							<rect id="SVGID_117_" x="22.4" y="34.5" width="30.9" height="2.1"/>
						</defs>
						<clipPath id="SVGID_118_">
							<use xlink:href="#SVGID_117_"  style="overflow:visible;"/>
						</clipPath>
						<g class="st64">
							<defs>
								<rect id="SVGID_119_" x="47.5" y="34.5" width="5.6" height="2"/>
							</defs>
							<clipPath id="SVGID_120_">
								<use xlink:href="#SVGID_119_"  style="overflow:visible;"/>
							</clipPath>
							<g class="st65">
								<defs>
									<rect id="SVGID_121_" x="2" y="4.6" width="60.2" height="54.9"/>
								</defs>
								<clipPath id="SVGID_122_">
									<use xlink:href="#SVGID_121_"  style="overflow:visible;"/>
								</clipPath>
								<rect x="44.9" y="31.9" class="st66" width="10.9" height="7.2"/>
							</g>
						</g>
						<g class="st64">
							<defs>
								<rect id="SVGID_123_" x="40.9" y="34.5" width="2.8" height="2"/>
							</defs>
							<clipPath id="SVGID_124_">
								<use xlink:href="#SVGID_123_"  style="overflow:visible;"/>
							</clipPath>
							<g class="st67">
								<defs>
									<rect id="SVGID_125_" x="2" y="4.6" width="60.2" height="54.9"/>
								</defs>
								<clipPath id="SVGID_126_">
									<use xlink:href="#SVGID_125_"  style="overflow:visible;"/>
								</clipPath>
								<rect x="38.3" y="31.9" class="st68" width="8" height="7.2"/>
							</g>
						</g>
						<g class="st64">
							<defs>
								<rect id="SVGID_127_" x="36.4" y="34.5" width="2.8" height="2"/>
							</defs>
							<clipPath id="SVGID_128_">
								<use xlink:href="#SVGID_127_"  style="overflow:visible;"/>
							</clipPath>
							<g class="st69">
								<defs>
									<rect id="SVGID_129_" x="2" y="4.6" width="60.2" height="54.9"/>
								</defs>
								<clipPath id="SVGID_130_">
									<use xlink:href="#SVGID_129_"  style="overflow:visible;"/>
								</clipPath>
								<rect x="33.8" y="31.9" class="st70" width="8" height="7.2"/>
							</g>
						</g>
						<g class="st64">
							<defs>
								<rect id="SVGID_131_" x="31.9" y="34.5" width="2.8" height="2"/>
							</defs>
							<clipPath id="SVGID_132_">
								<use xlink:href="#SVGID_131_"  style="overflow:visible;"/>
							</clipPath>
							<g class="st71">
								<defs>
									<rect id="SVGID_133_" x="2" y="4.6" width="60.2" height="54.9"/>
								</defs>
								<clipPath id="SVGID_134_">
									<use xlink:href="#SVGID_133_"  style="overflow:visible;"/>
								</clipPath>
								<rect x="29.2" y="31.9" class="st72" width="8" height="7.2"/>
							</g>
						</g>
						<g class="st64">
							<defs>
								<rect id="SVGID_135_" x="27.3" y="34.5" width="2.8" height="2"/>
							</defs>
							<clipPath id="SVGID_136_">
								<use xlink:href="#SVGID_135_"  style="overflow:visible;"/>
							</clipPath>
							<g class="st73">
								<defs>
									<rect id="SVGID_137_" x="2" y="4.6" width="60.2" height="54.9"/>
								</defs>
								<clipPath id="SVGID_138_">
									<use xlink:href="#SVGID_137_"  style="overflow:visible;"/>
								</clipPath>
								<rect x="24.7" y="31.9" class="st74" width="8" height="7.2"/>
							</g>
						</g>
						<g class="st64">
							<defs>
								<rect id="SVGID_139_" x="22.8" y="34.5" width="2.8" height="2"/>
							</defs>
							<use xlink:href="#SVGID_139_"  style="overflow:visible;fill-rule:evenodd;clip-rule:evenodd;fill:#CCCCCC;"/>
							<clipPath id="SVGID_140_">
								<use xlink:href="#SVGID_139_"  style="overflow:visible;"/>
							</clipPath>
							<g class="st75">
								<defs>
									<rect id="SVGID_141_" x="2" y="4.6" width="60.2" height="54.9"/>
								</defs>
								<clipPath id="SVGID_142_">
									<use xlink:href="#SVGID_141_"  style="overflow:visible;"/>
								</clipPath>
								<rect x="20.2" y="31.9" class="st76" width="8" height="7.2"/>
							</g>
						</g>
					</g>
				</g>
			</g>
		</g>
	</g>
	<g>
		<g>
			<g>
				<defs>
					<path id="SVGID_143_" d="M-32.8,136.9h-46.2c-0.8,0-1.4-0.6-1.4-1.4v-32.6c0-0.8,0.6-1.4,1.4-1.4h46.2c0.8,0,1.4,0.6,1.4,1.4
						v32.6C-31.4,136.3-32.1,136.9-32.8,136.9"/>
				</defs>
				<clipPath id="SVGID_144_">
					<use xlink:href="#SVGID_143_"  style="overflow:visible;"/>
				</clipPath>
				<g class="st79">
					<defs>
						<rect id="SVGID_145_" x="-822.3" y="-21.9" width="931.4" height="486.1"/>
					</defs>
					<clipPath id="SVGID_146_">
						<use xlink:href="#SVGID_145_"  style="overflow:visible;"/>
					</clipPath>
				</g>
			</g>
			<g>
				<defs>
					<path id="SVGID_147_" d="M-32.3,137.6h-46.6c-1.3,0-2.3-1-2.3-2.3v-15.6h2.1v15.6l0.1,0.2h46.6l0.2-0.2v-32.9l-0.2-0.2h-16.8
						v-2.1h16.8c1.3,0,2.3,1,2.3,2.3v32.9C-30,136.6-31.1,137.6-32.3,137.6"/>
				</defs>
				<clipPath id="SVGID_148_">
					<use xlink:href="#SVGID_147_"  style="overflow:visible;"/>
				</clipPath>
				<g class="st80">
					<defs>
						<rect id="SVGID_149_" x="-822.3" y="-21.9" width="931.4" height="486.1"/>
					</defs>
					<clipPath id="SVGID_150_">
						<use xlink:href="#SVGID_149_"  style="overflow:visible;"/>
					</clipPath>
				</g>
			</g>
			<g>
				<defs>
					<rect id="SVGID_151_" x="-77.8" y="104.2" width="44.3" height="28.6"/>
				</defs>
				<clipPath id="SVGID_152_">
					<use xlink:href="#SVGID_151_"  style="overflow:visible;"/>
				</clipPath>
				<g class="st82">
					<defs>
						<rect id="SVGID_153_" x="-822.3" y="-21.9" width="931.4" height="486.1"/>
					</defs>
					<clipPath id="SVGID_154_">
						<use xlink:href="#SVGID_153_"  style="overflow:visible;"/>
					</clipPath>
				</g>
			</g>
			<g>
				<defs>
					<path id="SVGID_155_" d="M-32.3,139h-47.6c-1.1,0-2.1-0.8-2.3-2l-0.3-2.1h22.1l0.8,1.2h6.1l0.9-1.2h23.3l-0.3,1.8
						C-29.9,138-31,139-32.3,139"/>
				</defs>
				<clipPath id="SVGID_156_">
					<use xlink:href="#SVGID_155_"  style="overflow:visible;"/>
				</clipPath>
				<g class="st84">
					<defs>
						<rect id="SVGID_157_" x="-822.3" y="-21.9" width="931.4" height="486.1"/>
					</defs>
					<clipPath id="SVGID_158_">
						<use xlink:href="#SVGID_157_"  style="overflow:visible;"/>
					</clipPath>
				</g>
			</g>
			<g>
				<defs>
					<path id="SVGID_159_" d="M-32.2,139.7H-80c-1.7,0-3.1-1.2-3.4-2.8l-0.5-3.3h24l0.8,1.2h5l0.9-1.2H-28l-0.5,3
						C-28.8,138.4-30.3,139.7-32.2,139.7z M-81.4,135.6l0.1,0.8c0.1,0.6,0.6,1.1,1.3,1.1h47.8c0.8,0,1.5-0.6,1.6-1.3l0.1-0.6h-21.6
						l-0.9,1.2h-7.2l-0.8-1.2H-81.4z"/>
				</defs>
				<clipPath id="SVGID_160_">
					<use xlink:href="#SVGID_159_"  style="overflow:visible;"/>
				</clipPath>
				<g class="st86">
					<defs>
						<rect id="SVGID_161_" x="-822.3" y="-21.9" width="931.4" height="486.1"/>
					</defs>
					<clipPath id="SVGID_162_">
						<use xlink:href="#SVGID_161_"  style="overflow:visible;"/>
					</clipPath>
				</g>
			</g>
			<g>
				<defs>
					<path id="SVGID_163_" d="M-54.7,116.5h-29c-1.6,0-2.9-1.3-2.9-2.9V94.1c0-1.6,1.3-2.9,2.9-2.9h29c1.6,0,2.9,1.3,2.9,2.9v19.5
						C-51.9,115.2-53.1,116.5-54.7,116.5"/>
				</defs>
				<clipPath id="SVGID_164_">
					<use xlink:href="#SVGID_163_"  style="overflow:visible;"/>
				</clipPath>
				<g class="st88">
					<defs>
						<rect id="SVGID_165_" x="-822.3" y="-21.9" width="931.4" height="486.1"/>
					</defs>
					<clipPath id="SVGID_166_">
						<use xlink:href="#SVGID_165_"  style="overflow:visible;"/>
					</clipPath>
				</g>
			</g>
			<g>
				<defs>
					<path id="SVGID_167_" d="M-86.6,96.7V93c0-1,0.8-1.8,1.7-1.8h31.3c1,0,1.7,0.8,1.7,1.8v3.7H-86.6"/>
				</defs>
				<clipPath id="SVGID_168_">
					<use xlink:href="#SVGID_167_"  style="overflow:visible;"/>
				</clipPath>
				<g class="st90">
					<defs>
						<rect id="SVGID_169_" x="-822.3" y="-21.9" width="931.4" height="486.1"/>
					</defs>
					<clipPath id="SVGID_170_">
						<use xlink:href="#SVGID_169_"  style="overflow:visible;"/>
					</clipPath>
				</g>
			</g>
			<g>
				<defs>
					<path id="SVGID_171_" d="M-53.4,117.8h-31.8c-1.6,0-2.9-1.3-2.9-2.8V93.4c0-1.5,1.3-2.8,2.9-2.8h4.7v2.1h-4.7
						c-0.4,0-0.7,0.3-0.7,0.7V115c0,0.4,0.3,0.7,0.7,0.7h31.8c0.4,0,0.7-0.3,0.7-0.7V93.4c0-0.4-0.3-0.7-0.7-0.7h-21v-2.1h21
						c1.6,0,2.9,1.3,2.9,2.8V115C-50.5,116.6-51.8,117.8-53.4,117.8"/>
				</defs>
				<clipPath id="SVGID_172_">
					<use xlink:href="#SVGID_171_"  style="overflow:visible;"/>
				</clipPath>
				<g class="st92">
					<defs>
						<rect id="SVGID_173_" x="-822.3" y="-21.9" width="931.4" height="486.1"/>
					</defs>
					<clipPath id="SVGID_174_">
						<use xlink:href="#SVGID_173_"  style="overflow:visible;"/>
					</clipPath>
				</g>
			</g>
			<g>
				<defs>
					<rect id="SVGID_175_" x="-79.1" y="90.6" width="2.7" height="2"/>
				</defs>
				<clipPath id="SVGID_176_">
					<use xlink:href="#SVGID_175_"  style="overflow:visible;"/>
				</clipPath>
				<g class="st94">
					<defs>
						<rect id="SVGID_177_" x="-822.3" y="-21.9" width="931.4" height="486.1"/>
					</defs>
					<clipPath id="SVGID_178_">
						<use xlink:href="#SVGID_177_"  style="overflow:visible;"/>
					</clipPath>
				</g>
			</g>
			<g>
				<defs>
					<rect id="SVGID_179_" x="-86.6" y="96" width="34.8" height="2"/>
				</defs>
				<clipPath id="SVGID_180_">
					<use xlink:href="#SVGID_179_"  style="overflow:visible;"/>
				</clipPath>
				<g class="st96">
					<defs>
						<rect id="SVGID_181_" x="-822.3" y="-21.9" width="931.4" height="486.1"/>
					</defs>
					<clipPath id="SVGID_182_">
						<use xlink:href="#SVGID_181_"  style="overflow:visible;"/>
					</clipPath>
				</g>
			</g>
			<g>
				<defs>
					<rect id="SVGID_183_" x="-83.2" y="93.3" width="1.3" height="2"/>
				</defs>
				<clipPath id="SVGID_184_">
					<use xlink:href="#SVGID_183_"  style="overflow:visible;"/>
				</clipPath>
				<g class="st98">
					<defs>
						<rect id="SVGID_185_" x="-822.3" y="-21.9" width="931.4" height="486.1"/>
					</defs>
					<clipPath id="SVGID_186_">
						<use xlink:href="#SVGID_185_"  style="overflow:visible;"/>
					</clipPath>
				</g>
			</g>
			<g>
				<defs>
					<rect id="SVGID_187_" x="-79.8" y="93.3" width="1.3" height="2"/>
				</defs>
				<clipPath id="SVGID_188_">
					<use xlink:href="#SVGID_187_"  style="overflow:visible;"/>
				</clipPath>
				<g class="st100">
					<defs>
						<rect id="SVGID_189_" x="-822.3" y="-21.9" width="931.4" height="486.1"/>
					</defs>
					<clipPath id="SVGID_190_">
						<use xlink:href="#SVGID_189_"  style="overflow:visible;"/>
					</clipPath>
				</g>
			</g>
			<g>
				<defs>
					<rect id="SVGID_191_" x="-76.4" y="93.3" width="1.3" height="2"/>
				</defs>
				<clipPath id="SVGID_192_">
					<use xlink:href="#SVGID_191_"  style="overflow:visible;"/>
				</clipPath>
				<g class="st102">
					<defs>
						<rect id="SVGID_193_" x="-822.3" y="-21.9" width="931.4" height="486.1"/>
					</defs>
					<clipPath id="SVGID_194_">
						<use xlink:href="#SVGID_193_"  style="overflow:visible;"/>
					</clipPath>
				</g>
			</g>
			<g>
				<defs>
					<polyline id="SVGID_195_" points="-76.4,106.5 -76.4,105.4 -72.3,103.5 -72.3,104.7 -75,105.9 -72.3,107.1 -72.3,108.3 
						-76.4,106.5 					"/>
				</defs>
				<use xlink:href="#SVGID_195_"  style="overflow:visible;fill-rule:evenodd;clip-rule:evenodd;fill:#CCCCCC;"/>
				<clipPath id="SVGID_196_">
					<use xlink:href="#SVGID_195_"  style="overflow:visible;"/>
				</clipPath>
				<g class="st104">
					<defs>
						<rect id="SVGID_197_" x="-822.3" y="-21.9" width="931.4" height="486.1"/>
					</defs>
					<use xlink:href="#SVGID_197_"  style="overflow:visible;fill:#CCCCCC;"/>
					<clipPath id="SVGID_198_">
						<use xlink:href="#SVGID_197_"  style="overflow:visible;"/>
					</clipPath>
				</g>
			</g>
			<g>
				<defs>
					<polyline id="SVGID_199_" points="-68.6,102.2 -67.5,102.2 -70.6,109 -71.6,109 -68.6,102.2 					"/>
				</defs>
				<use xlink:href="#SVGID_199_"  style="overflow:visible;fill-rule:evenodd;clip-rule:evenodd;fill:#CCCCCC;"/>
				<clipPath id="SVGID_200_">
					<use xlink:href="#SVGID_199_"  style="overflow:visible;"/>
				</clipPath>
				<g class="st106">
					<defs>
						<rect id="SVGID_201_" x="-822.3" y="-21.9" width="931.4" height="486.1"/>
					</defs>
					<use xlink:href="#SVGID_201_"  style="overflow:visible;fill:#CCCCCC;"/>
					<clipPath id="SVGID_202_">
						<use xlink:href="#SVGID_201_"  style="overflow:visible;"/>
					</clipPath>
				</g>
			</g>
			<g>
				<defs>
					<polyline id="SVGID_203_" points="-62.1,105.4 -62.1,106.5 -66.2,108.3 -66.2,107.1 -63.5,105.9 -66.2,104.7 -66.2,103.5 
						-62.1,105.4 					"/>
				</defs>
				<use xlink:href="#SVGID_203_"  style="overflow:visible;fill-rule:evenodd;clip-rule:evenodd;fill:#CCCCCC;"/>
				<clipPath id="SVGID_204_">
					<use xlink:href="#SVGID_203_"  style="overflow:visible;"/>
				</clipPath>
				<g class="st108">
					<defs>
						<rect id="SVGID_205_" x="-822.3" y="-21.9" width="931.4" height="486.1"/>
					</defs>
					<use xlink:href="#SVGID_205_"  style="overflow:visible;fill:#CCCCCC;"/>
					<clipPath id="SVGID_206_">
						<use xlink:href="#SVGID_205_"  style="overflow:visible;"/>
					</clipPath>
				</g>
			</g>
			<g>
				<defs>
					<rect id="SVGID_207_" x="-49.1" y="107.6" width="11.6" height="2"/>
				</defs>
				<clipPath id="SVGID_208_">
					<use xlink:href="#SVGID_207_"  style="overflow:visible;"/>
				</clipPath>
				<g class="st110">
					<defs>
						<rect id="SVGID_209_" x="-822.3" y="-21.9" width="931.4" height="486.1"/>
					</defs>
					<clipPath id="SVGID_210_">
						<use xlink:href="#SVGID_209_"  style="overflow:visible;"/>
					</clipPath>
				</g>
			</g>
			<g>
				<defs>
					<rect id="SVGID_211_" x="-45.7" y="112.4" width="4.1" height="2"/>
				</defs>
				<clipPath id="SVGID_212_">
					<use xlink:href="#SVGID_211_"  style="overflow:visible;"/>
				</clipPath>
				<g class="st112">
					<defs>
						<rect id="SVGID_213_" x="-822.3" y="-21.9" width="931.4" height="486.1"/>
					</defs>
					<clipPath id="SVGID_214_">
						<use xlink:href="#SVGID_213_"  style="overflow:visible;"/>
					</clipPath>
				</g>
			</g>
			<g>
				<defs>
					<rect id="SVGID_215_" x="-60.7" y="118.5" width="11.6" height="2"/>
				</defs>
				<clipPath id="SVGID_216_">
					<use xlink:href="#SVGID_215_"  style="overflow:visible;"/>
				</clipPath>
				<g class="st114">
					<defs>
						<rect id="SVGID_217_" x="-822.3" y="-21.9" width="931.4" height="486.1"/>
					</defs>
					<clipPath id="SVGID_218_">
						<use xlink:href="#SVGID_217_"  style="overflow:visible;"/>
					</clipPath>
				</g>
			</g>
			<g>
				<defs>
					<rect id="SVGID_219_" x="-47.1" y="118.5" width="6.1" height="2"/>
				</defs>
				<clipPath id="SVGID_220_">
					<use xlink:href="#SVGID_219_"  style="overflow:visible;"/>
				</clipPath>
				<g class="st116">
					<defs>
						<rect id="SVGID_221_" x="-822.3" y="-21.9" width="931.4" height="486.1"/>
					</defs>
					<clipPath id="SVGID_222_">
						<use xlink:href="#SVGID_221_"  style="overflow:visible;"/>
					</clipPath>
				</g>
			</g>
			<g>
				<defs>
					<rect id="SVGID_223_" x="-64.8" y="118.5" width="2" height="2"/>
				</defs>
				<clipPath id="SVGID_224_">
					<use xlink:href="#SVGID_223_"  style="overflow:visible;"/>
				</clipPath>
				<g class="st118">
					<defs>
						<rect id="SVGID_225_" x="-822.3" y="-21.9" width="931.4" height="486.1"/>
					</defs>
					<clipPath id="SVGID_226_">
						<use xlink:href="#SVGID_225_"  style="overflow:visible;"/>
					</clipPath>
				</g>
			</g>
			<g>
				<defs>
					<rect id="SVGID_227_" x="-75" y="122.6" width="11.6" height="2"/>
				</defs>
				<clipPath id="SVGID_228_">
					<use xlink:href="#SVGID_227_"  style="overflow:visible;"/>
				</clipPath>
				<g class="st120">
					<defs>
						<rect id="SVGID_229_" x="-822.3" y="-21.9" width="931.4" height="486.1"/>
					</defs>
					<clipPath id="SVGID_230_">
						<use xlink:href="#SVGID_229_"  style="overflow:visible;"/>
					</clipPath>
				</g>
			</g>
			<g>
				<defs>
					<rect id="SVGID_231_" x="-67.5" y="127.4" width="11.6" height="2"/>
				</defs>
				<clipPath id="SVGID_232_">
					<use xlink:href="#SVGID_231_"  style="overflow:visible;"/>
				</clipPath>
				<g class="st122">
					<defs>
						<rect id="SVGID_233_" x="-822.3" y="-21.9" width="931.4" height="486.1"/>
					</defs>
					<clipPath id="SVGID_234_">
						<use xlink:href="#SVGID_233_"  style="overflow:visible;"/>
					</clipPath>
				</g>
			</g>
			<g>
				<defs>
					<rect id="SVGID_235_" x="-53.2" y="127.4" width="6.1" height="2"/>
				</defs>
				<clipPath id="SVGID_236_">
					<use xlink:href="#SVGID_235_"  style="overflow:visible;"/>
				</clipPath>
				<g class="st124">
					<defs>
						<rect id="SVGID_237_" x="-822.3" y="-21.9" width="931.4" height="486.1"/>
					</defs>
					<clipPath id="SVGID_238_">
						<use xlink:href="#SVGID_237_"  style="overflow:visible;"/>
					</clipPath>
				</g>
			</g>
		</g>
	</g>
</g>
<g id="specctr">
	<g id="Text_Properties">
	</g>
</g>
</svg>
