<?xml version="1.0" encoding="utf-8"?>
<!-- Generator: Adobe Illustrator 17.0.0, SVG Export Plug-In . SVG Version: 6.00 Build 0)  -->
<!DOCTYPE svg PUBLIC "-//W3C//DTD SVG 1.1//EN" "http://www.w3.org/Graphics/SVG/1.1/DTD/svg11.dtd">
<svg version="1.1" id="Layer_1" xmlns="http://www.w3.org/2000/svg" xmlns:xlink="http://www.w3.org/1999/xlink" x="0px" y="0px"
	 width="842.35px" height="595.3px" viewBox="0 0 842.35 595.3" enable-background="new 0 0 842.35 595.3" xml:space="preserve">
<g id="Layer_1_1_">
	<g id="XMLID_14_">
		<g id="XMLID_36_">
			<path id="XMLID_1853_" fill="#0686D8" d="M260.258,519.027h-68.832v-57.67h68.832
				C260.258,461.358,260.258,519.027,260.258,519.027z M210.03,500.424h31.625v-20.463H210.03V500.424z"/>
		</g>
		<g id="XMLID_35_">
			<path fill="#6DCFF6" d="M517.911,535.77H175.614c-13.022,0-24.184-11.162-24.184-24.184V169.288
				c0-13.022,11.162-24.184,24.184-24.184h342.297c13.022,0,24.184,11.162,24.184,24.184v342.297
				C542.095,524.608,530.933,535.77,517.911,535.77z"/>
		</g>
		<g id="XMLID_34_">
			<path fill="#FFFFFF" d="M488.146,502.284H204.449c-11.162,0-20.463-9.302-20.463-20.463V198.123
				c0-11.162,9.302-20.463,20.463-20.463h283.698c11.162,0,20.463,9.302,20.463,20.463v283.698
				C508.61,492.983,499.308,502.284,488.146,502.284z"/>
		</g>
		<g id="XMLID_33_">
			<path id="XMLID_1852_" fill="#0D3178" d="M359.785,511.586H197.007c-12.092,0-22.324-10.232-22.324-22.324v-298.58
				c0-12.092,10.232-22.324,22.324-22.324h298.58c12.092,0,22.324,10.232,22.324,22.324v162.777h-18.603V190.682
				c0-1.86-1.86-3.721-3.721-3.721h-298.58c-1.86,0-3.721,1.86-3.721,3.721v298.58c0,1.86,1.86,3.721,3.721,3.721h162.777V511.586z"
				/>
		</g>
		<g id="XMLID_134_">
			<path id="XMLID_1851_" fill="#0D3178" d="M351.413,545.072h-175.8c-18.603,0-33.486-14.883-33.486-33.486V169.288
				c0-18.603,14.883-33.486,33.486-33.486h342.297c18.603,0,33.486,14.883,33.486,33.486v184.171h-18.603V169.288
				c0-8.371-6.511-14.882-14.883-14.882H175.614c-8.371,0-14.882,6.511-14.882,14.882v342.297c0,8.371,6.511,14.882,14.882,14.882
				h175.8V545.072z"/>
		</g>
		<g id="XMLID_970_">
			<g id="XMLID_973_">
				<path fill="#0D3178" d="M185.845,231.609h-0.93c-5.581,0-10.232-4.651-10.232-10.232v-31.625
					c0-5.581,4.651-10.232,10.232-10.232h0.93c5.581,0,10.232,4.651,10.232,10.232v31.625
					C196.077,226.028,191.426,231.609,185.845,231.609z"/>
			</g>
			<g id="XMLID_971_">
				<path id="XMLID_1848_" fill="#0D3178" d="M185.845,240.91h-0.93c-11.162,0-19.533-9.302-19.533-19.533v-31.625
					c0-11.162,9.302-19.533,19.533-19.533c12.092,0,20.463,9.302,20.463,19.533v31.625
					C205.379,231.609,196.077,240.91,185.845,240.91z M185.845,186.961c-1.86,0-1.86,0.93-1.86,0.93v31.625
					c0,0.93,0.93,0.93,0.93,0.93h0.93c0.93,0,0.93-0.93,0.93-0.93v-31.625C186.776,187.892,185.845,186.961,185.845,186.961z"/>
			</g>
		</g>
		<g id="XMLID_31_">
			<g id="XMLID_969_">
				<path fill="#0D3178" d="M185.845,392.526h-0.93c-5.581,0-10.232-4.651-10.232-10.232v-31.625
					c0-5.581,4.651-10.232,10.232-10.232h0.93c5.581,0,10.232,4.651,10.232,10.232v30.695
					C196.077,387.875,191.426,392.526,185.845,392.526z"/>
			</g>
			<g id="XMLID_32_">
				<path id="XMLID_1845_" fill="#0D3178" d="M185.845,401.828h-0.93c-11.162,0-19.533-9.302-19.533-19.533v-31.625
					c0-11.162,9.302-19.533,19.533-19.533c12.092,0,20.463,9.302,20.463,19.533v30.695
					C205.379,392.526,196.077,401.828,185.845,401.828z M185.845,348.809c-1.86,0-1.86,0.93-1.86,0.93v31.625
					c0,0.93,0.93,0.93,0.93,0.93h0.93c0.93,0,0.93-0.93,0.93-0.93v-31.625C186.776,348.809,185.845,348.809,185.845,348.809z"/>
			</g>
		</g>
		<g id="XMLID_30_">
			<circle fill="#FFFFFF" cx="346.762" cy="340.437" r="45.578"/>
		</g>
		<g id="XMLID_29_">
			<path id="XMLID_1842_" fill="#0D3178" d="M346.762,395.316c-30.695,0-54.879-25.114-54.879-54.879s25.114-54.879,54.879-54.879
				c30.695,0,54.879,25.114,54.879,54.879S376.527,395.316,346.762,395.316z M346.762,304.161
				c-20.463,0-36.276,16.743-36.276,36.276c0,20.463,16.743,36.276,36.276,36.276c20.463,0,36.276-16.743,36.276-36.276
				C383.039,319.974,366.296,304.161,346.762,304.161z"/>
		</g>
		<g id="XMLID_28_">
			<path id="XMLID_1839_" fill="#0D3178" d="M346.762,362.761c-12.092,0-22.324-10.232-22.324-22.324
				c0-12.092,10.232-22.324,22.324-22.324c12.092,0,22.324,10.232,22.324,22.324S358.855,362.761,346.762,362.761z M346.762,335.786
				c-1.86,0-3.721,1.86-3.721,3.721s0.93,4.651,3.721,4.651c1.86,0,3.721-1.86,3.721-3.721S348.623,335.786,346.762,335.786z"/>
		</g>
		<g id="XMLID_844_">
			<g id="XMLID_878_">
				<path fill="#FFFFFF" d="M463.032,556.233h-87.435l11.162-55.809c0.93-2.79,2.79-4.651,5.581-4.651h53.949
					c2.79,0,4.651,1.86,5.581,4.651L463.032,556.233z"/>
			</g>
			<g id="XMLID_877_">
				<path fill="#FFFFFF" d="M575.581,556.233h-87.435l11.162-55.809c0.93-2.79,2.79-4.651,5.581-4.651h53.949
					c2.79,0,4.651,1.86,5.581,4.651L575.581,556.233z"/>
			</g>
			<g id="XMLID_27_">
				<path fill="#FFFFFF" d="M689.06,556.233h-87.435l11.162-55.809c0.93-2.79,2.79-4.651,5.581-4.651h53.949
					c2.79,0,4.651,1.86,5.581,4.651L689.06,556.233z"/>
			</g>
			<g id="XMLID_875_">
				<path fill="#FFFFFF" d="M519.772,495.773h-87.435l11.162-55.809c0.93-2.79,2.79-4.651,5.581-4.651h53.949
					c2.79,0,4.651,1.86,5.581,4.651L519.772,495.773z"/>
			</g>
			<g id="XMLID_874_">
				<path fill="#FFFFFF" d="M632.32,495.773h-87.435l11.162-55.809c0.93-2.79,2.79-4.651,5.581-4.651h53.949
					c2.79,0,4.651,1.86,5.581,4.651L632.32,495.773z"/>
			</g>
			<g id="XMLID_128_">
				<path fill="#FFFFFF" d="M575.581,435.313h-87.435l11.162-55.809c0.93-2.79,2.79-4.651,5.581-4.651h53.949
					c2.79,0,4.651,1.86,5.581,4.651L575.581,435.313z"/>
			</g>
			<g id="XMLID_127_">
				<path id="XMLID_1836_" fill="#0D3178" d="M474.194,565.535H364.435l13.952-66.971c1.86-6.511,7.441-12.092,14.883-12.092h53.949
					c6.511,0,13.022,4.651,14.882,12.092L474.194,565.535z M386.759,546.932h65.111l-8.371-41.857h-47.438L386.759,546.932z"/>
			</g>
			<g id="XMLID_126_">
				<path id="XMLID_25_" fill="#0D3178" d="M574.651,565.535h-85.574c-6.511,0-11.162-5.581-10.232-12.092l11.162-54.879
					c0.93-6.511,7.441-12.092,14.882-12.092h45.578c12.092,0,22.324,8.371,24.184,19.533l9.302,46.508
					C585.813,559.024,581.162,565.535,574.651,565.535z M512.33,546.932h39.997c6.511,0,11.162-5.581,10.232-12.092l-4.651-21.394
					c-0.93-4.651-5.581-8.371-10.232-8.371h-31.625c-4.651,0-9.302,3.721-10.232,8.371l-4.651,21.394
					C501.168,540.421,505.819,546.932,512.33,546.932z"/>
			</g>
			<g id="XMLID_125_">
				<path id="XMLID_22_" fill="#0D3178" d="M700.222,565.535H590.463l13.952-66.971c0.93-6.511,7.441-12.092,14.883-12.092h53.019
					c7.441,0,13.022,4.651,14.882,12.092L700.222,565.535z M612.787,546.932h65.111l-6.511-33.486
					c-0.93-4.651-5.581-8.371-10.232-8.371h-39.997L612.787,546.932z"/>
			</g>
			<g id="XMLID_123_">
				<path id="XMLID_19_" fill="#0D3178" d="M530.933,505.075H420.245l13.952-66.971c0.93-6.511,7.441-12.092,14.883-12.092h53.949
					c7.441,0,13.022,4.651,14.882,12.092L530.933,505.075z M443.499,486.472h65.111l-8.371-41.857H452.8L443.499,486.472z"/>
			</g>
			<g id="XMLID_868_">
				<path id="XMLID_16_" fill="#0D3178" d="M631.39,505.075h-85.574c-6.511,0-11.162-5.581-10.232-12.092l11.162-54.879
					c1.86-6.511,7.441-12.092,14.882-12.092h45.578c12.092,0,22.324,8.371,24.184,19.533l9.302,46.508
					C642.552,499.494,637.901,505.075,631.39,505.075z M569.07,486.472h39.997c6.511,0,11.162-5.581,10.232-12.092l-4.651-21.394
					c-0.93-4.651-5.581-8.371-10.232-8.371H572.79c-4.651,0-9.302,3.721-10.232,8.371l-3.721,21.394
					C556.978,480.891,562.559,486.472,569.07,486.472z"/>
			</g>
			<g id="XMLID_867_">
				<path id="XMLID_1821_" fill="#0D3178" d="M587.673,444.615H476.984l13.952-66.971c0.93-6.511,7.441-12.092,14.882-12.092h53.949
					c6.511,0,13.022,4.651,14.883,12.092L587.673,444.615z M499.308,426.012h65.111l-8.371-41.857H508.61L499.308,426.012z"/>
			</g>
		</g>
	</g>
	<g>
		<g>
			<g>
				<g>
					<defs>
						<path id="SVGID_1_" d="M5650.514,547.862h-429.732c-7.441,0-13.022-5.581-13.022-13.022V231.609
							c0-7.441,5.581-13.022,13.022-13.022h429.732c7.441,0,13.022,5.581,13.022,13.022V534.84
							C5663.535,542.281,5657.024,547.862,5650.514,547.862"/>
					</defs>
					<clipPath id="SVGID_2_">
						<use xlink:href="#SVGID_1_"  overflow="visible"/>
					</clipPath>
				</g>
			</g>
			<g>
				<g>
					<defs>
						<path id="SVGID_3_" d="M5655.164,554.373h-433.453c-12.092,0-21.393-9.302-21.393-21.394V387.875h19.533V532.98l0.93,1.86
							h433.453l1.86-1.86V226.958l-1.86-1.86h-156.266v-19.533h156.266c12.092,0,21.393,9.302,21.393,21.394V532.98
							C5676.558,545.072,5666.326,554.373,5655.164,554.373"/>
					</defs>
					<clipPath id="SVGID_4_">
						<use xlink:href="#SVGID_3_"  overflow="visible"/>
					</clipPath>
				</g>
			</g>
			<g>
				<g>
					<defs>
						<rect id="SVGID_5_" x="5231.943" y="243.701" width="412.059" height="266.025"/>
					</defs>
					<clipPath id="SVGID_6_">
						<use xlink:href="#SVGID_5_"  overflow="visible"/>
					</clipPath>
				</g>
			</g>
			<g>
				<g>
					<defs>
						<path id="SVGID_7_" d="M5655.164,567.395H5212.41c-10.231,0-19.533-7.441-21.394-18.603l-2.791-19.533h205.564l7.441,11.162
							h56.74l8.372-11.162h216.726l-2.791,16.743C5677.488,558.094,5667.256,567.395,5655.164,567.395"/>
					</defs>
					<clipPath id="SVGID_8_">
						<use xlink:href="#SVGID_7_"  overflow="visible"/>
					</clipPath>
				</g>
			</g>
			<g>
				<g>
					<defs>
						<path id="SVGID_9_" d="M5656.094,573.906h-444.615c-15.813,0-28.834-11.162-31.625-26.044l-4.651-30.695h223.238l7.441,11.162
							h46.508l8.372-11.162h234.399l-4.65,27.905C5687.72,561.814,5673.768,573.906,5656.094,573.906z M5198.457,535.77l0.93,7.441
							c0.93,5.581,5.581,10.232,12.092,10.232h444.615c7.441,0,13.952-5.581,14.882-12.092l0.93-5.581h-200.914l-8.372,11.162
							h-66.971l-7.441-11.162H5198.457z"/>
					</defs>
					<clipPath id="SVGID_10_">
						<use xlink:href="#SVGID_9_"  overflow="visible"/>
					</clipPath>
				</g>
			</g>
			<g>
				<g>
					<defs>
						<path id="SVGID_11_" d="M5446.809,358.11h-269.746c-14.882,0-26.975-12.092-26.975-26.975v-181.38
							c0-14.883,12.092-26.975,26.975-26.975h269.746c14.882,0,26.975,12.092,26.975,26.975v181.38
							C5472.853,346.018,5461.692,358.11,5446.809,358.11"/>
					</defs>
					<clipPath id="SVGID_12_">
						<use xlink:href="#SVGID_11_"  overflow="visible"/>
					</clipPath>
				</g>
			</g>
			<g>
				<g>
					<defs>
						<path id="SVGID_13_" d="M5150.089,173.939v-34.416c0-9.302,7.441-16.743,15.813-16.743h291.139
							c9.302,0,15.813,7.441,15.813,16.743v34.416H5150.089"/>
					</defs>
					<clipPath id="SVGID_14_">
						<use xlink:href="#SVGID_13_"  overflow="visible"/>
					</clipPath>
				</g>
			</g>
			<g>
				<g>
					<defs>
						<path id="SVGID_15_" d="M5458.901,370.202h-295.79c-14.882,0-26.975-12.092-26.975-26.044V143.244
							c0-13.952,12.092-26.044,26.975-26.044h43.717v19.533h-43.717c-3.721,0-6.511,2.79-6.511,6.511v200.914
							c0,3.721,2.791,6.511,6.511,6.511h295.79c3.721,0,6.511-2.79,6.511-6.511V143.244c0-3.721-2.791-6.511-6.511-6.511h-195.333
							V117.2h195.333c14.882,0,26.975,12.092,26.975,26.044v200.914C5485.875,359.04,5473.784,370.202,5458.901,370.202"/>
					</defs>
					<clipPath id="SVGID_16_">
						<use xlink:href="#SVGID_15_"  overflow="visible"/>
					</clipPath>
				</g>
			</g>
			<g>
				<g>
					<defs>
						<rect id="SVGID_17_" x="5219.851" y="117.2" width="25.114" height="18.603"/>
					</defs>
					<clipPath id="SVGID_18_">
						<use xlink:href="#SVGID_17_"  overflow="visible"/>
					</clipPath>
				</g>
			</g>
			<g>
				<g>
					<defs>
						<rect id="SVGID_19_" x="5150.089" y="167.428" width="323.694" height="18.603"/>
					</defs>
					<clipPath id="SVGID_20_">
						<use xlink:href="#SVGID_19_"  overflow="visible"/>
					</clipPath>
				</g>
			</g>
			<g>
				<g>
					<defs>
						<rect id="SVGID_21_" x="5181.714" y="142.314" width="12.092" height="18.603"/>
					</defs>
					<clipPath id="SVGID_22_">
						<use xlink:href="#SVGID_21_"  overflow="visible"/>
					</clipPath>
				</g>
			</g>
			<g>
				<g>
					<defs>
						<rect id="SVGID_23_" x="5213.34" y="142.314" width="12.092" height="18.603"/>
					</defs>
					<clipPath id="SVGID_24_">
						<use xlink:href="#SVGID_23_"  overflow="visible"/>
					</clipPath>
				</g>
			</g>
			<g>
				<g>
					<defs>
						<rect id="SVGID_25_" x="5244.965" y="142.314" width="12.092" height="18.603"/>
					</defs>
					<clipPath id="SVGID_26_">
						<use xlink:href="#SVGID_25_"  overflow="visible"/>
					</clipPath>
				</g>
			</g>
			<g>
				<g>
					<polyline id="SVGID_195_" fill="#CCCCCC" points="5244.965,265.095 5244.965,254.863 5283.102,237.19 5283.102,248.352 
						5257.987,259.514 5283.102,270.676 5283.102,281.837 5244.965,265.095 					"/>
				</g>
				<g>
					<defs>
						<polyline id="SVGID_27_" points="5244.965,265.095 5244.965,254.863 5283.102,237.19 5283.102,248.352 5257.987,259.514 
							5283.102,270.676 5283.102,281.837 5244.965,265.095 						"/>
					</defs>
					<clipPath id="SVGID_28_">
						<use xlink:href="#SVGID_27_"  overflow="visible"/>
					</clipPath>
					<g clip-path="url(#SVGID_28_)">
						<g>
							<rect id="SVGID_197_" x="-1693.07" y="-929.226" fill="#CCCCCC" width="8663.476" height="4521.49"/>
						</g>
					</g>
				</g>
			</g>
			<g>
				<g>
					<polyline id="SVGID_199_" fill="#CCCCCC" points="5317.518,225.098 5327.749,225.098 5298.915,288.348 5289.613,288.348 
						5317.518,225.098 					"/>
				</g>
				<g>
					<defs>
						<polyline id="SVGID_29_" points="5317.518,225.098 5327.749,225.098 5298.915,288.348 5289.613,288.348 5317.518,225.098 
													"/>
					</defs>
					<clipPath id="SVGID_30_">
						<use xlink:href="#SVGID_29_"  overflow="visible"/>
					</clipPath>
					<g clip-path="url(#SVGID_30_)">
						<g>
							<rect id="SVGID_201_" x="-1693.07" y="-929.226" fill="#CCCCCC" width="8663.476" height="4521.49"/>
						</g>
					</g>
				</g>
			</g>
			<g>
				<g>
					<polyline id="SVGID_203_" fill="#CCCCCC" points="5377.978,254.863 5377.978,265.095 5339.841,281.837 5339.841,270.676 
						5364.956,259.514 5339.841,248.352 5339.841,237.19 5377.978,254.863 					"/>
				</g>
				<g>
					<defs>
						<polyline id="SVGID_31_" points="5377.978,254.863 5377.978,265.095 5339.841,281.837 5339.841,270.676 5364.956,259.514 
							5339.841,248.352 5339.841,237.19 5377.978,254.863 						"/>
					</defs>
					<clipPath id="SVGID_32_">
						<use xlink:href="#SVGID_31_"  overflow="visible"/>
					</clipPath>
					<g clip-path="url(#SVGID_32_)">
						<g>
							<rect id="SVGID_205_" x="-1693.07" y="-929.226" fill="#CCCCCC" width="8663.476" height="4521.49"/>
						</g>
					</g>
				</g>
			</g>
			<g>
				<g>
					<defs>
						<rect id="SVGID_33_" x="5498.898" y="275.326" width="107.898" height="18.603"/>
					</defs>
					<clipPath id="SVGID_34_">
						<use xlink:href="#SVGID_33_"  overflow="visible"/>
					</clipPath>
				</g>
			</g>
			<g>
				<g>
					<defs>
						<rect id="SVGID_35_" x="5530.523" y="319.974" width="38.136" height="18.603"/>
					</defs>
					<clipPath id="SVGID_36_">
						<use xlink:href="#SVGID_35_"  overflow="visible"/>
					</clipPath>
				</g>
			</g>
			<g>
				<g>
					<defs>
						<rect id="SVGID_37_" x="5391" y="376.713" width="107.898" height="18.603"/>
					</defs>
					<clipPath id="SVGID_38_">
						<use xlink:href="#SVGID_37_"  overflow="visible"/>
					</clipPath>
				</g>
			</g>
			<g>
				<g>
					<defs>
						<rect id="SVGID_39_" x="5517.501" y="376.713" width="56.739" height="18.603"/>
					</defs>
					<clipPath id="SVGID_40_">
						<use xlink:href="#SVGID_39_"  overflow="visible"/>
					</clipPath>
				</g>
			</g>
			<g>
				<g>
					<defs>
						<rect id="SVGID_41_" x="5352.864" y="376.713" width="18.603" height="18.603"/>
					</defs>
					<clipPath id="SVGID_42_">
						<use xlink:href="#SVGID_41_"  overflow="visible"/>
					</clipPath>
				</g>
			</g>
			<g>
				<g>
					<defs>
						<rect id="SVGID_43_" x="5257.987" y="414.85" width="107.898" height="18.603"/>
					</defs>
					<clipPath id="SVGID_44_">
						<use xlink:href="#SVGID_43_"  overflow="visible"/>
					</clipPath>
				</g>
			</g>
			<g>
				<g>
					<defs>
						<rect id="SVGID_45_" x="5327.749" y="459.497" width="107.898" height="18.603"/>
					</defs>
					<clipPath id="SVGID_46_">
						<use xlink:href="#SVGID_45_"  overflow="visible"/>
					</clipPath>
				</g>
			</g>
			<g>
				<g>
					<defs>
						<rect id="SVGID_47_" x="5460.761" y="459.497" width="56.739" height="18.603"/>
					</defs>
					<clipPath id="SVGID_48_">
						<use xlink:href="#SVGID_47_"  overflow="visible"/>
					</clipPath>
				</g>
			</g>
		</g>
	</g>
</g>
<g id="specctr">
	<g id="Text_Properties">
	</g>
</g>
</svg>
