<?xml version="1.0" encoding="utf-8"?>
<!-- Generator: Adobe Illustrator 17.0.0, SVG Export Plug-In . SVG Version: 6.00 Build 0)  -->
<!DOCTYPE svg PUBLIC "-//W3C//DTD SVG 1.1//EN" "http://www.w3.org/Graphics/SVG/1.1/DTD/svg11.dtd">
<svg version="1.1" id="Layer_1" xmlns="http://www.w3.org/2000/svg" xmlns:xlink="http://www.w3.org/1999/xlink" x="0px" y="0px"
	 width="842.35px" height="595.3px" viewBox="0 0 842.35 595.3" enable-background="new 0 0 842.35 595.3" xml:space="preserve">
<g id="Layer_1_1_">
	<g id="XMLID_1048_">
		<g id="XMLID_1049_">
			<g id="XMLID_1067_">
				<path id="XMLID_2181_" fill="#CCCCCC" d="M433.267,567.395h-17.673c-7.441,0-13.022-5.581-13.022-13.022v-41.857
					c0-7.441,5.581-13.022,13.022-13.022h17.673c7.441,0,13.022,5.581,13.022,13.022v41.857
					C446.289,560.884,439.778,567.395,433.267,567.395z"/>
			</g>
			<g id="XMLID_1066_">
				<path id="XMLID_1744_" fill="#0D3178" d="M433.267,577.627h-17.673c-13.022,0-23.254-10.232-23.254-23.254v-41.857
					c0-13.022,10.232-23.254,23.254-23.254h17.673c13.022,0,23.254,10.232,23.254,23.254v41.857
					C456.521,566.465,445.359,577.627,433.267,577.627z M414.664,508.796c-1.86,0-3.721,1.86-3.721,3.721v41.857
					c0,1.86,1.86,3.721,3.721,3.721h17.673c1.86,0,3.721-1.86,3.721-3.721v-41.857c0-1.86-1.86-3.721-3.721-3.721H414.664z"/>
			</g>
			<g id="XMLID_1064_">
				<path id="XMLID_1065_" fill="#FFFFFF" d="M574.651,220.447c0-82.784-66.971-149.755-149.755-149.755
					S275.14,137.663,275.14,220.447c0,55.809,30.695,104.178,75.343,129.292v147.895l21.394,39.997h103.247l25.114-39.997V349.739
					C543.956,323.694,574.651,275.326,574.651,220.447z"/>
			</g>
			<g id="XMLID_1063_">
				<polygon fill="#6DCFF6" points="350.483,349.739 350.483,497.634 371.877,537.63 474.194,537.63 499.308,497.634 
					499.308,349.739 				"/>
			</g>
			<g id="XMLID_1062_">
				<polygon fill="#6DCFF6" points="499.308,497.634 474.194,537.63 371.877,537.63 350.483,497.634 				"/>
			</g>
			<g id="XMLID_1061_">
				<path id="XMLID_1743_" fill="#0D3178" d="M479.775,547.862H365.366l-25.114-47.438V355.32
					c-46.508-28.835-75.343-79.993-75.343-134.873c0-37.206,13.022-74.413,37.206-103.247l15.813,13.022
					c-21.394,25.114-32.555,56.74-32.555,90.225c0,49.298,26.975,95.806,69.762,120.92l4.651,2.79v150.685l17.673,32.555h91.155
					l20.463-33.486V344.158l4.651-2.79c42.787-25.114,69.762-71.622,69.762-120.92c0-77.203-62.32-139.523-139.523-139.523
					c-17.673,0-35.346,3.721-52.089,10.232l-7.441-18.603c18.603-7.441,39.067-12.092,59.53-12.092
					c88.365,0,159.987,71.622,159.987,159.987c0,54.879-28.835,106.038-75.343,134.873v145.104L479.775,547.862z"/>
			</g>
			<g id="XMLID_1060_">
				<path id="XMLID_1742_" fill="#0D3178" d="M332.81,115.339l-13.952-13.952c9.302-9.302,14.883-12.092,24.184-17.673l2.79-1.86
					l10.232,17.673l-2.79,1.86C343.042,106.038,340.251,107.898,332.81,115.339z"/>
			</g>
			<g id="XMLID_1059_">
				<rect id="XMLID_1741_" x="328.159" y="385.085" fill="#0D3178" width="194.403" height="20.463"/>
			</g>
			<g id="XMLID_1058_">
				<rect id="XMLID_1740_" x="328.159" y="419.5" fill="#0D3178" width="194.403" height="20.463"/>
			</g>
			<g id="XMLID_1057_">
				<rect id="XMLID_1739_" x="328.159" y="452.986" fill="#0D3178" width="194.403" height="20.463"/>
			</g>
			<g id="XMLID_1056_">
				<rect id="XMLID_1738_" x="328.159" y="487.402" fill="#0D3178" width="194.403" height="20.463"/>
			</g>
			<g id="XMLID_1054_">
				<circle id="XMLID_1055_" fill="#6DCFF6" cx="423.965" cy="215.796" r="105.108"/>
			</g>
			<g id="XMLID_1051_">
				<path id="XMLID_1053_" fill="#CCCCCC" d="M456.521,192.542c0-17.673-13.952-31.625-31.625-31.625s-31.625,13.952-31.625,31.625
					c0,8.371,3.721,16.743,9.302,22.324l-9.302,55.809h61.39l-9.302-53.949C451.87,211.146,456.521,201.844,456.521,192.542z"/>
			</g>
			<g id="XMLID_1050_">
				<path id="XMLID_1735_" fill="#0D3178" d="M465.822,280.907h-84.644l10.232-62.32c-5.581-7.441-8.371-15.813-8.371-25.114
					c0-23.254,18.603-41.857,41.857-41.857c23.254,0,41.857,18.603,41.857,41.857c0,10.232-3.721,19.533-10.232,26.975
					L465.822,280.907z M405.362,260.444h37.206l-8.371-47.438l4.651-3.721c4.651-3.721,7.441-10.232,7.441-15.813
					c0-12.092-9.302-21.394-21.394-21.394c-12.092,0-21.394,9.302-21.394,21.394c0,5.581,1.86,11.162,6.511,14.883l3.721,3.721
					L405.362,260.444z"/>
			</g>
		</g>
	</g>
	<g>
		<g>
			<g>
				<g>
					<defs>
						<path id="SVGID_1_" d="M5650.514,1273.384h-429.732c-7.441,0-13.022-5.581-13.022-13.022V957.131
							c0-7.441,5.581-13.022,13.022-13.022h429.732c7.441,0,13.022,5.581,13.022,13.022v303.231
							C5663.535,1267.803,5657.024,1273.384,5650.514,1273.384"/>
					</defs>
					<clipPath id="SVGID_2_">
						<use xlink:href="#SVGID_1_"  overflow="visible"/>
					</clipPath>
				</g>
			</g>
			<g>
				<g>
					<defs>
						<path id="SVGID_3_" d="M5655.164,1279.895h-433.453c-12.092,0-21.393-9.302-21.393-21.394v-145.104h19.533v145.104l0.93,1.86
							h433.453l1.86-1.86V952.48l-1.86-1.86h-156.266v-19.533h156.266c12.092,0,21.393,9.302,21.393,21.394v306.021
							C5676.558,1270.594,5666.326,1279.895,5655.164,1279.895"/>
					</defs>
					<clipPath id="SVGID_4_">
						<use xlink:href="#SVGID_3_"  overflow="visible"/>
					</clipPath>
				</g>
			</g>
			<g>
				<g>
					<defs>
						<rect id="SVGID_5_" x="5231.943" y="969.223" width="412.059" height="266.025"/>
					</defs>
					<clipPath id="SVGID_6_">
						<use xlink:href="#SVGID_5_"  overflow="visible"/>
					</clipPath>
				</g>
			</g>
			<g>
				<g>
					<defs>
						<path id="SVGID_7_" d="M5655.164,1292.917H5212.41c-10.231,0-19.533-7.441-21.394-18.603l-2.791-19.533h205.564l7.441,11.162
							h56.74l8.372-11.162h216.726l-2.791,16.743C5677.488,1283.616,5667.256,1292.917,5655.164,1292.917"/>
					</defs>
					<clipPath id="SVGID_8_">
						<use xlink:href="#SVGID_7_"  overflow="visible"/>
					</clipPath>
				</g>
			</g>
			<g>
				<g>
					<defs>
						<path id="SVGID_9_" d="M5656.094,1299.428h-444.615c-15.813,0-28.834-11.162-31.625-26.044l-4.651-30.695h223.238
							l7.441,11.162h46.508l8.372-11.162h234.399l-4.65,27.905C5687.72,1287.336,5673.768,1299.428,5656.094,1299.428z
							 M5198.457,1261.292l0.93,7.441c0.93,5.581,5.581,10.232,12.092,10.232h444.615c7.441,0,13.952-5.581,14.882-12.092
							l0.93-5.581h-200.914l-8.372,11.162h-66.971l-7.441-11.162H5198.457z"/>
					</defs>
					<clipPath id="SVGID_10_">
						<use xlink:href="#SVGID_9_"  overflow="visible"/>
					</clipPath>
				</g>
			</g>
			<g>
				<g>
					<defs>
						<path id="SVGID_11_" d="M5446.809,1083.632h-269.746c-14.882,0-26.975-12.092-26.975-26.975v-181.38
							c0-14.883,12.092-26.975,26.975-26.975h269.746c14.882,0,26.975,12.092,26.975,26.975v181.38
							C5472.853,1071.54,5461.692,1083.632,5446.809,1083.632"/>
					</defs>
					<clipPath id="SVGID_12_">
						<use xlink:href="#SVGID_11_"  overflow="visible"/>
					</clipPath>
				</g>
			</g>
			<g>
				<g>
					<defs>
						<path id="SVGID_13_" d="M5150.089,899.461v-34.416c0-9.302,7.441-16.743,15.813-16.743h291.139
							c9.302,0,15.813,7.441,15.813,16.743v34.416H5150.089"/>
					</defs>
					<clipPath id="SVGID_14_">
						<use xlink:href="#SVGID_13_"  overflow="visible"/>
					</clipPath>
				</g>
			</g>
			<g>
				<g>
					<defs>
						<path id="SVGID_15_" d="M5458.901,1095.724h-295.79c-14.882,0-26.975-12.092-26.975-26.044V868.766
							c0-13.952,12.092-26.044,26.975-26.044h43.717v19.533h-43.717c-3.721,0-6.511,2.791-6.511,6.511v200.914
							c0,3.721,2.791,6.511,6.511,6.511h295.79c3.721,0,6.511-2.791,6.511-6.511V868.766c0-3.721-2.791-6.511-6.511-6.511h-195.333
							v-19.533h195.333c14.882,0,26.975,12.092,26.975,26.044v200.914C5485.875,1084.562,5473.784,1095.724,5458.901,1095.724"/>
					</defs>
					<clipPath id="SVGID_16_">
						<use xlink:href="#SVGID_15_"  overflow="visible"/>
					</clipPath>
				</g>
			</g>
			<g>
				<g>
					<defs>
						<rect id="SVGID_17_" x="5219.851" y="842.722" width="25.114" height="18.603"/>
					</defs>
					<clipPath id="SVGID_18_">
						<use xlink:href="#SVGID_17_"  overflow="visible"/>
					</clipPath>
				</g>
			</g>
			<g>
				<g>
					<defs>
						<rect id="SVGID_19_" x="5150.089" y="892.95" width="323.694" height="18.603"/>
					</defs>
					<clipPath id="SVGID_20_">
						<use xlink:href="#SVGID_19_"  overflow="visible"/>
					</clipPath>
				</g>
			</g>
			<g>
				<g>
					<defs>
						<rect id="SVGID_21_" x="5181.714" y="867.836" width="12.092" height="18.603"/>
					</defs>
					<clipPath id="SVGID_22_">
						<use xlink:href="#SVGID_21_"  overflow="visible"/>
					</clipPath>
				</g>
			</g>
			<g>
				<g>
					<defs>
						<rect id="SVGID_23_" x="5213.34" y="867.836" width="12.092" height="18.603"/>
					</defs>
					<clipPath id="SVGID_24_">
						<use xlink:href="#SVGID_23_"  overflow="visible"/>
					</clipPath>
				</g>
			</g>
			<g>
				<g>
					<defs>
						<rect id="SVGID_25_" x="5244.965" y="867.836" width="12.092" height="18.603"/>
					</defs>
					<clipPath id="SVGID_26_">
						<use xlink:href="#SVGID_25_"  overflow="visible"/>
					</clipPath>
				</g>
			</g>
			<g>
				<g>
					<polyline id="SVGID_195_" fill="#CCCCCC" points="5244.965,990.616 5244.965,980.385 5283.102,962.712 5283.102,973.874 
						5257.987,985.036 5283.102,996.197 5283.102,1007.359 5244.965,990.616 					"/>
				</g>
				<g>
					<defs>
						<polyline id="SVGID_27_" points="5244.965,990.616 5244.965,980.385 5283.102,962.712 5283.102,973.874 5257.987,985.036 
							5283.102,996.197 5283.102,1007.359 5244.965,990.616 						"/>
					</defs>
					<clipPath id="SVGID_28_">
						<use xlink:href="#SVGID_27_"  overflow="visible"/>
					</clipPath>
					<g clip-path="url(#SVGID_28_)">
						<g>
							<rect id="SVGID_197_" x="-1693.07" y="-203.704" fill="#CCCCCC" width="8663.476" height="4521.49"/>
						</g>
					</g>
				</g>
			</g>
			<g>
				<g>
					<polyline id="SVGID_199_" fill="#CCCCCC" points="5317.518,950.62 5327.749,950.62 5298.915,1013.87 5289.613,1013.87 
						5317.518,950.62 					"/>
				</g>
				<g>
					<defs>
						<polyline id="SVGID_29_" points="5317.518,950.62 5327.749,950.62 5298.915,1013.87 5289.613,1013.87 5317.518,950.62 						
							"/>
					</defs>
					<clipPath id="SVGID_30_">
						<use xlink:href="#SVGID_29_"  overflow="visible"/>
					</clipPath>
					<g clip-path="url(#SVGID_30_)">
						<g>
							<rect id="SVGID_201_" x="-1693.07" y="-203.704" fill="#CCCCCC" width="8663.476" height="4521.49"/>
						</g>
					</g>
				</g>
			</g>
			<g>
				<g>
					<polyline id="SVGID_203_" fill="#CCCCCC" points="5377.978,980.385 5377.978,990.616 5339.841,1007.359 5339.841,996.197 
						5364.956,985.036 5339.841,973.874 5339.841,962.712 5377.978,980.385 					"/>
				</g>
				<g>
					<defs>
						<polyline id="SVGID_31_" points="5377.978,980.385 5377.978,990.616 5339.841,1007.359 5339.841,996.197 5364.956,985.036 
							5339.841,973.874 5339.841,962.712 5377.978,980.385 						"/>
					</defs>
					<clipPath id="SVGID_32_">
						<use xlink:href="#SVGID_31_"  overflow="visible"/>
					</clipPath>
					<g clip-path="url(#SVGID_32_)">
						<g>
							<rect id="SVGID_205_" x="-1693.07" y="-203.704" fill="#CCCCCC" width="8663.476" height="4521.49"/>
						</g>
					</g>
				</g>
			</g>
			<g>
				<g>
					<defs>
						<rect id="SVGID_33_" x="5498.898" y="1000.848" width="107.898" height="18.603"/>
					</defs>
					<clipPath id="SVGID_34_">
						<use xlink:href="#SVGID_33_"  overflow="visible"/>
					</clipPath>
				</g>
			</g>
			<g>
				<g>
					<defs>
						<rect id="SVGID_35_" x="5530.523" y="1045.496" width="38.136" height="18.603"/>
					</defs>
					<clipPath id="SVGID_36_">
						<use xlink:href="#SVGID_35_"  overflow="visible"/>
					</clipPath>
				</g>
			</g>
			<g>
				<g>
					<defs>
						<rect id="SVGID_37_" x="5391" y="1102.235" width="107.898" height="18.603"/>
					</defs>
					<clipPath id="SVGID_38_">
						<use xlink:href="#SVGID_37_"  overflow="visible"/>
					</clipPath>
				</g>
			</g>
			<g>
				<g>
					<defs>
						<rect id="SVGID_39_" x="5517.501" y="1102.235" width="56.739" height="18.603"/>
					</defs>
					<clipPath id="SVGID_40_">
						<use xlink:href="#SVGID_39_"  overflow="visible"/>
					</clipPath>
				</g>
			</g>
			<g>
				<g>
					<defs>
						<rect id="SVGID_41_" x="5352.864" y="1102.235" width="18.603" height="18.603"/>
					</defs>
					<clipPath id="SVGID_42_">
						<use xlink:href="#SVGID_41_"  overflow="visible"/>
					</clipPath>
				</g>
			</g>
			<g>
				<g>
					<defs>
						<rect id="SVGID_43_" x="5257.987" y="1140.372" width="107.898" height="18.603"/>
					</defs>
					<clipPath id="SVGID_44_">
						<use xlink:href="#SVGID_43_"  overflow="visible"/>
					</clipPath>
				</g>
			</g>
			<g>
				<g>
					<defs>
						<rect id="SVGID_45_" x="5327.749" y="1185.019" width="107.898" height="18.603"/>
					</defs>
					<clipPath id="SVGID_46_">
						<use xlink:href="#SVGID_45_"  overflow="visible"/>
					</clipPath>
				</g>
			</g>
			<g>
				<g>
					<defs>
						<rect id="SVGID_47_" x="5460.761" y="1185.019" width="56.739" height="18.603"/>
					</defs>
					<clipPath id="SVGID_48_">
						<use xlink:href="#SVGID_47_"  overflow="visible"/>
					</clipPath>
				</g>
			</g>
		</g>
	</g>
</g>
<g id="specctr">
	<g id="Text_Properties">
	</g>
</g>
</svg>
