<?xml version="1.0" encoding="utf-8"?>
<!-- Generator: Adobe Illustrator 17.0.0, SVG Export Plug-In . SVG Version: 6.00 Build 0)  -->
<!DOCTYPE svg PUBLIC "-//W3C//DTD SVG 1.1//EN" "http://www.w3.org/Graphics/SVG/1.1/DTD/svg11.dtd">
<svg version="1.1" id="Layer_1" xmlns="http://www.w3.org/2000/svg" xmlns:xlink="http://www.w3.org/1999/xlink" x="0px" y="0px"
	 width="842.35px" height="595.3px" viewBox="0 0 842.35 595.3" enable-background="new 0 0 842.35 595.3" xml:space="preserve">
<g id="XMLID_1005_">
	<g id="XMLID_1006_">
		<g id="XMLID_1047_">
			<path fill="#FFFFFF" d="M313.787,147.943l2.703-12.841c1.352-8.786,9.462-15.544,18.923-14.192l192.609,25.005
				c8.786,1.352,15.544,9.461,14.192,18.923l-35.143,271.68l-218.966-66.906L313.787,147.943z"/>
		</g>
		<g id="XMLID_1045_">
			<path id="XMLID_1046_" fill="#00984A" d="M514.506,437.194l-14.192-2.027l35.143-271.68c0.676-5.407-2.703-10.137-8.11-10.813
				l-193.285-25.005c-2.703-0.676-4.731,0-6.758,2.027c-2.027,1.352-3.379,4.055-3.379,6.082l-2.703,13.516l-14.192-2.703
				l2.703-12.841c0.676-6.082,4.055-11.489,8.786-15.544s11.489-5.407,17.571-4.731l192.609,25.005
				c12.841,2.027,22.302,13.516,20.95,27.033L514.506,437.194z"/>
		</g>
		<g id="XMLID_1036_">
			<g id="XMLID_1044_">
				<path fill="#FFFFFF" d="M582.764,465.578h-18.923c-1.352,0-2.703-1.352-2.703-2.703V194.574c0-0.676,0-0.676,0-1.352
					l9.461-20.275c0.676-2.027,3.379-2.027,4.731,0l9.461,20.275c0,0,0,0.676,0,1.352v268.301
					C585.467,464.903,584.116,465.578,582.764,465.578z"/>
			</g>
			<g id="XMLID_1039_">
				<path id="XMLID_1040_" fill="#0D3178" d="M592.226,473.012h-38.522V192.547l11.489-24.33c2.703-6.082,12.841-6.082,16.22,0
					l11.489,24.33v280.466H592.226z M568.572,458.144h9.461V195.926l-4.731-10.137l-4.731,10.137V458.144z"/>
			</g>
			<g id="XMLID_1037_">
				<rect id="XMLID_1038_" x="560.462" y="195.926" fill="#0D3178" width="24.33" height="14.868"/>
			</g>
		</g>
		<g id="XMLID_1035_">
			<path fill="#6DCFF6" d="M472.605,465.578H281.348c-10.137,0-18.247-8.11-18.247-18.247V176.327
				c0-10.137,8.11-18.247,18.247-18.247h191.257c10.137,0,18.247,8.11,18.247,18.247v271.004
				C490.852,457.469,482.743,465.578,472.605,465.578z"/>
		</g>
		<g id="XMLID_1030_">
			<path id="XMLID_1032_" fill="#0D3178" d="M472.605,473.012H281.348c-14.192,0-25.681-11.489-25.681-25.681V176.327
				c0-14.192,11.489-25.681,25.681-25.681h191.257c14.192,0,25.681,11.489,25.681,25.681v271.004
				C498.286,461.524,486.797,473.012,472.605,473.012z M281.348,165.514c-6.082,0-10.813,4.731-10.813,10.813v271.004
				c0,6.082,4.731,10.813,10.813,10.813h191.257c6.082,0,10.813-4.731,10.813-10.813V176.327c0-6.082-4.731-10.813-10.813-10.813
				H281.348z"/>
		</g>
		<g id="XMLID_1028_">
			<rect id="XMLID_1029_" x="242.15" y="183.761" fill="#0D3178" width="41.901" height="14.868"/>
		</g>
		<g id="XMLID_1026_">
			<rect id="XMLID_1027_" x="242.15" y="213.497" fill="#0D3178" width="41.901" height="14.868"/>
		</g>
		<g id="XMLID_1024_">
			<rect id="XMLID_1025_" x="242.15" y="243.233" fill="#0D3178" width="41.901" height="14.868"/>
		</g>
		<g id="XMLID_1022_">
			<rect id="XMLID_1023_" x="242.15" y="272.97" fill="#0D3178" width="41.901" height="14.868"/>
		</g>
		<g id="XMLID_1020_">
			<rect id="XMLID_1021_" x="242.15" y="302.706" fill="#0D3178" width="41.901" height="14.868"/>
		</g>
		<g id="XMLID_1018_">
			<rect id="XMLID_1019_" x="242.15" y="332.442" fill="#0D3178" width="41.901" height="14.868"/>
		</g>
		<g id="XMLID_1016_">
			<rect id="XMLID_1017_" x="242.15" y="364.205" fill="#0D3178" width="41.225" height="14.868"/>
		</g>
		<g id="XMLID_1014_">
			<rect id="XMLID_1015_" x="242.15" y="393.266" fill="#0D3178" width="41.225" height="14.868"/>
		</g>
		<g id="XMLID_1012_">
			<rect id="XMLID_1013_" x="242.15" y="422.326" fill="#0D3178" width="41.225" height="14.868"/>
		</g>
		<g id="XMLID_1011_">
			<path fill="#FFFFFF" d="M426.649,279.728c0,27.709-22.302,50.011-50.011,50.011c-27.709,0-50.011-22.302-50.011-50.011
				c0-27.709,22.302-50.011,50.011-50.011C404.347,230.393,426.649,252.695,426.649,279.728z"/>
		</g>
		<g id="XMLID_1007_">
			<path id="XMLID_1008_" fill="#0D3178" d="M377.315,337.172c-31.764,0-56.769-25.681-56.769-56.769
				c0-31.764,25.681-56.769,56.769-56.769c31.764,0,56.769,25.681,56.769,56.769S408.402,337.172,377.315,337.172z M377.315,237.827
				c-23.654,0-42.577,18.923-42.577,42.577c0,23.654,18.923,42.577,42.577,42.577c23.654,0,42.577-18.923,42.577-42.577
				C419.215,256.75,400.292,237.827,377.315,237.827z"/>
		</g>
	</g>
</g>
<g>
	<path fill-rule="evenodd" clip-rule="evenodd" fill="#D62027" d="M377.179,293.188v1.987c0,0-4.712,0.797-10.681,1.18
		c-2.143,0.091-4.429-0.036-6.678-0.15c-5.014-0.767-6.983-1.789-6.153-5.739c0,0,0.182-1.782,5.283-8.284
		c1.671-2.01,3.861-4.305,6.729-7.241l1.831,1.177c0,0-0.853,2.454-3.151,6.742c-1.977,3.619-4.32,7.679-4.32,7.679L377.179,293.188
		z"/>
	<g>
		<g>
			<path fill="#253775" d="M388.652,274.77c0,0-0.556-1.616-1.428-3.973c-1.427-3.857-3.789-9.643-6.615-13.171
				c-1.25-1.254-2.414-1.675-3.454-1.612c-1.04-0.064-2.204,0.358-3.454,1.612c-2.826,3.527-5.189,9.313-6.615,13.171
				c-0.872,2.357-1.428,3.973-1.428,3.973l-0.543,0.809l1.987,1.619l0.66-1.251l9.393-13.165l9.393,13.165l0.676,1.251l1.954-1.619
				L388.652,274.77z"/>
		</g>
	</g>
	<path fill-rule="evenodd" clip-rule="evenodd" fill="#009749" d="M377.146,293.173v1.983c0,0,4.709,0.781,10.696,1.178
		c2.303,0.153,4.545,0.026,6.688-0.149c5.021-0.766,6.994-1.786,6.162-5.73c0,0-0.182-1.78-5.291-8.27
		c-1.674-2.007-3.354-3.709-6.226-6.641l-1.98,1.617c0,0,0.488,1.42,2.789,5.701c1.979,3.613,4.253,7.667,4.253,7.667
		L377.146,293.173z"/>
</g>
</svg>
