<?xml version="1.0" encoding="utf-8"?>
<!-- Generator: Adobe Illustrator 16.0.0, SVG Export Plug-In . SVG Version: 6.00 Build 0)  -->
<!DOCTYPE svg PUBLIC "-//W3C//DTD SVG 1.1//EN" "http://www.w3.org/Graphics/SVG/1.1/DTD/svg11.dtd">
<svg version="1.1" id="Layer_1" xmlns="http://www.w3.org/2000/svg" xmlns:xlink="http://www.w3.org/1999/xlink" x="0px" y="0px"
	 width="216px" height="216px" viewBox="0 0 216 216" enable-background="new 0 0 216 216" xml:space="preserve">
<rect x="0.167" fill-rule="evenodd" clip-rule="evenodd" fill="#0D3178" width="216" height="216"/>
<g>
	<g>
		<path fill-rule="evenodd" clip-rule="evenodd" fill="#FFFFFF" d="M137.5,55.541v-1.574c-0.584-1.445-1.692-2.307-3.044-3.035
			c-6.138-3.306-12.206-6.738-18.366-10c-2.207-1.169-4.601-1.984-6.91-2.961h-2.359c-3.438,0.592-6.235,2.603-9.21,4.202
			c-5.41,2.909-10.761,5.926-16.174,8.829c-1.321,0.709-2.373,1.565-2.937,2.965v1.574c0.45,1.155,0.96,2.349,2.25,2.704
			c1.151,0.317,2.38,0.349,3.721,0.526c0,0.71,0.009,1.442-0.002,2.174c-0.013,0.855-0.003,1.652,1.022,2.031
			c0.221,0.082,0.378,0.632,0.379,0.967c0.022,6.286,0.02,12.572,0.005,18.858c-0.001,0.318-0.09,0.863-0.261,0.918
			c-1.496,0.478-1.186,1.707-1.115,2.731c0.086,1.234-0.203,1.908-1.503,2.361c-2.565,0.893-3.768,3.063-4.497,5.539v2.618
			c19.667,0.002,39.333,0.002,59,0v-2.356c-0.697-3.067-2.367-5.267-5.472-6.245c-0.235-0.074-0.444-0.571-0.477-0.891
			c-0.072-0.734,0.025-1.485-0.051-2.22c-0.041-0.4-0.205-1.033-0.467-1.125c-1.076-0.379-0.925-1.194-0.924-2.009
			c0.006-5.975,0.003-11.949,0.003-17.923c0-0.604-0.068-1.141,0.723-1.469c0.361-0.15,0.6-0.899,0.663-1.405
			c0.106-0.849,0.028-1.721,0.028-2.754C134.235,58.799,136.615,58.527,137.5,55.541z M134.173,93.987H81.746
			c0.521-1.486,1.503-2.341,2.866-2.736c0.619-0.179,1.292-0.238,1.94-0.238C100.843,91,115.134,91,129.425,91.004
			C131.979,91.005,133.454,91.925,134.173,93.987z M96.163,86.66c0.038,0.438,0.074,0.845,0.12,1.376h-8.876V86.66H96.163z
			 M88.813,83.663V63.082h5.846v20.581H88.813z M96.215,60.039h-8.801c-0.031-0.403-0.062-0.813-0.101-1.338h8.902V60.039z
			 M99.115,59.782c0.027-0.34,0.041-0.681,0.067-1.125h1.505c0,0.735,0.001,1.415-0.001,2.095c-0.002,0.924-0.085,1.86,1.096,2.248
			c0.184,0.061,0.307,0.573,0.308,0.877c0.018,6.329,0.015,12.659,0.009,18.988c0,0.254,0.004,0.692-0.111,0.736
			c-1.923,0.725-1.134,2.379-1.303,3.698c-0.027,0.213-0.044,0.426-0.077,0.755c-0.44,0.035-0.852,0.068-1.489,0.119
			c0-0.945,0.121-1.821-0.04-2.643c-0.117-0.603-0.605-1.132-0.926-1.694c-0.171-0.301-0.486-0.603-0.487-0.905
			c-0.028-6.373-0.023-12.746-0.015-19.119c0-0.249,0.036-0.679,0.156-0.719C99.582,62.5,99.017,61.012,99.115,59.782z
			 M107.866,60.159c-1.046,0-2.095-0.054-3.136,0.014c-1.096,0.071-1.429-0.357-1.088-1.477h8.787v1.462H107.866z M110.936,63.094
			V83.65h-5.873V63.094H110.936z M104.73,86.569c2.176,0.06,4.355,0.059,6.532-0.001c1.079-0.029,1.452,0.334,1.072,1.526h-8.65
			C103.293,87.026,103.513,86.536,104.73,86.569z M115.308,58.712h1.571c0,0.77,0.007,1.5-0.001,2.232
			c-0.01,0.866,0.072,1.639,1.059,2.031c0.229,0.091,0.401,0.618,0.402,0.946c0.023,6.284,0.019,12.57,0.015,18.855
			c0,0.258,0.037,0.702-0.073,0.747c-2.16,0.893-1.141,2.828-1.452,4.319c-0.008,0.039-0.04,0.074-0.14,0.251h-1.3
			c-0.026-0.589-0.051-1.135-0.076-1.68c-0.048-1.053,0.278-2.253-1.197-2.714c-0.155-0.049-0.209-0.616-0.21-0.942
			c-0.012-6.242-0.021-12.483,0.02-18.725c0.002-0.4,0.408-0.797,0.624-1.196c0.254-0.47,0.655-0.92,0.726-1.417
			C115.395,60.57,115.308,59.69,115.308,58.712z M128.615,86.705v1.341h-8.811c-0.024-0.398-0.049-0.807-0.081-1.341H128.615z
			 M121.318,83.63V63.063h5.836V83.63H121.318z M128.556,60.079h-8.722c-0.04-0.417-0.079-0.825-0.135-1.408h8.856V60.079z
			 M107.867,55.742c-8.171,0-16.342,0-24.512,0c-0.35,0-0.731,0.082-1.04-0.033c-0.326-0.121-0.753-0.39-0.82-0.669
			c-0.067-0.279,0.17-0.771,0.428-0.96c0.593-0.435,1.278-0.746,1.929-1.101c6.621-3.618,13.258-7.209,19.859-10.865
			c2.893-1.602,5.681-1.602,8.572-0.001c7.021,3.886,14.081,7.704,21.102,11.591c0.488,0.271,0.782,0.89,1.167,1.347
			c-0.549,0.231-1.098,0.66-1.648,0.663C124.558,55.755,116.212,55.742,107.867,55.742z M107.99,44.232
			c-2.436,0.004-4.332,1.863-4.35,4.263c-0.019,2.565,1.892,4.489,4.428,4.462c2.399-0.027,4.288-1.938,4.291-4.342
			C112.361,46.125,110.471,44.229,107.99,44.232z M109.693,48.921c-0.569,0.38-1.101,0.984-1.716,1.086
			c-0.896,0.148-1.438-0.514-1.442-1.432c-0.006-0.941,0.595-1.561,1.462-1.417c0.612,0.102,1.138,0.73,1.701,1.124
			C109.696,48.496,109.695,48.709,109.693,48.921z"/>
	</g>
</g>
<text transform="matrix(1 0 0 1 45.6118 129.4092)"><tspan x="0" y="0" fill="#FFFFFF" font-family="'MyriadPro-Regular'" font-size="31.8654">Current &amp;</tspan><tspan x="12.571" y="29.134" fill="#FFFFFF" font-family="'MyriadPro-Regular'" font-size="31.8654">Savings</tspan></text>
</svg>
