<?xml version="1.0" encoding="utf-8"?>
<!-- Generator: Adobe Illustrator 16.0.0, SVG Export Plug-In . SVG Version: 6.00 Build 0)  -->
<!DOCTYPE svg PUBLIC "-//W3C//DTD SVG 1.1//EN" "http://www.w3.org/Graphics/SVG/1.1/DTD/svg11.dtd">
<svg version="1.1" id="Layer_1" xmlns="http://www.w3.org/2000/svg" xmlns:xlink="http://www.w3.org/1999/xlink" x="0px" y="0px"
	 width="216px" height="216px" viewBox="0 0 216 216" enable-background="new 0 0 216 216" xml:space="preserve">
<rect x="0.167" fill-rule="evenodd" clip-rule="evenodd" fill="#00984A" width="216" height="216"/>
<text transform="matrix(1 0 0 1 70.0684 156.0762)" fill="#FFFFFF" font-family="'MyriadPro-Regular'" font-size="31.8654">Loans</text>
<g>
	<g>
		<path fill-rule="evenodd" clip-rule="evenodd" fill="#FFFFFF" d="M64.379,93.731c5.027-2.239,10.032-4.531,15.087-6.704
			c4.727-2.032,9.324-1.856,13.662,1.156c2.511,1.743,5.086,3.395,7.563,5.183c4.418,3.188,9.316,4.786,14.764,4.87
			c2.391,0.035,4.782,0.257,7.162,0.506c1.298,0.135,2.203,0.834,2.331,2.298c0.132,1.485-0.541,2.497-1.863,2.917
			c-1.409,0.449-2.896,0.876-4.355,0.91c-4.739,0.111-9.5,0.279-14.22-0.047c-3.122-0.215-6.189-1.229-9.277-1.908
			c-0.567-0.124-1.112-0.348-1.726-0.395c3.019,2.967,6.337,5.61,10.715,5.768c5.627,0.201,11.285,0.142,16.901-0.225
			c3.174-0.209,6.106-1.553,7.092-5.117c0.926-3.345-0.672-6.558-4.018-7.303c-2.775-0.617-5.695-0.597-8.553-0.829
			c-0.743-0.061-1.494-0.01-2.241-0.01c-0.058-0.207-0.116-0.414-0.173-0.621c3.594-1.934,7.11-4.036,10.81-5.741
			c2.412-1.112,4.552-0.011,6.1,2.046c5.655-3.678,9.814-3.11,10.485,1.439c3.837-1.484,7.817-4.102,10.966,1.085
			c0,0.601,0,1.202,0,1.802c-1.541,1.544-2.881,3.385-4.655,4.583c-9.092,6.135-18.252,12.173-27.489,18.087
			c-2.688,1.722-5.71,2.92-8.578,4.358c-0.962,0-1.922,0-2.883,0c-2.896-1.234-5.846-2.355-8.675-3.727
			c-4.199-2.037-8.369-4.148-12.442-6.424c-3.023-1.689-5.746-1.647-8.514,0.441c-1.357,1.023-2.842,1.877-4.35,2.859
			c-1.72-3.817-3.293-7.369-4.918-10.896c-1.542-3.348-3.136-6.67-4.707-10.004C64.379,93.973,64.379,93.852,64.379,93.731z"/>
		<path fill-rule="evenodd" clip-rule="evenodd" fill="#FFFFFF" d="M110.147,46.522c3.984,0.712,7.734,1.942,11.013,4.46
			c7.317,5.622,10.124,15.621,6.761,24.41c-3.297,8.617-11.948,14.121-21.093,13.418c-10.654-0.819-18.995-9.031-19.734-19.429
			c-0.759-10.668,6.313-20.068,16.834-22.375c0.751-0.165,1.503-0.323,2.255-0.484C107.504,46.522,108.826,46.522,110.147,46.522z
			 M108.301,86.598c10.534-0.051,18.833-8.502,18.775-19.117c-0.058-10.251-8.648-18.699-18.949-18.632
			c-10.376,0.067-18.882,8.645-18.825,18.983C89.36,78.241,97.872,86.648,108.301,86.598z"/>
		<path fill-rule="evenodd" clip-rule="evenodd" fill="#FFFFFF" d="M108.242,83.357c-8.687,0.007-15.708-6.96-15.72-15.597
			c-0.012-8.601,7.028-15.638,15.678-15.671c8.647-0.033,15.656,6.961,15.662,15.628C123.866,76.417,116.942,83.351,108.242,83.357z
			"/>
	</g>
</g>
<g>
	<path fill="#00984A" d="M99.605,59.759h1.965v7.339h0.068c0.406-0.587,0.813-1.129,1.197-1.626l4.652-5.713h2.439l-5.511,6.458
		l5.939,8.762h-2.326l-5.013-7.475l-1.445,1.671v5.804h-1.965V59.759z"/>
	<path fill="#00984A" d="M111.51,72.947c0.587,0.384,1.626,0.79,2.62,0.79c1.445,0,2.122-0.723,2.122-1.626
		c0-0.948-0.564-1.468-2.032-2.01c-1.965-0.7-2.891-1.784-2.891-3.094c0-1.762,1.423-3.207,3.771-3.207
		c1.106,0,2.077,0.316,2.688,0.678l-0.497,1.445c-0.429-0.271-1.22-0.632-2.235-0.632c-1.175,0-1.829,0.677-1.829,1.49
		c0,0.903,0.654,1.31,2.077,1.852c1.897,0.723,2.868,1.671,2.868,3.297c0,1.92-1.49,3.274-4.088,3.274
		c-1.196,0-2.303-0.293-3.071-0.745L111.51,72.947z"/>
</g>
</svg>
