<?xml version="1.0" encoding="utf-8"?>
<!-- Generator: Adobe Illustrator 16.0.0, SVG Export Plug-In . SVG Version: 6.00 Build 0)  -->
<!DOCTYPE svg PUBLIC "-//W3C//DTD SVG 1.1//EN" "http://www.w3.org/Graphics/SVG/1.1/DTD/svg11.dtd">
<svg version="1.1" id="Layer_1" xmlns="http://www.w3.org/2000/svg" xmlns:xlink="http://www.w3.org/1999/xlink" x="0px" y="0px"
	 width="216px" height="216px" viewBox="0 0 216 216" enable-background="new 0 0 216 216" xml:space="preserve">
<rect x="0.167" fill="#D71920" width="216" height="216"/>
<ellipse fill="#FFFFFF" cx="109.166" cy="93.805" rx="31.666" ry="10.424"/>
<ellipse fill="#D71920" cx="109.166" cy="89.03" rx="31.666" ry="10.424"/>
<ellipse fill="#FFFFFF" cx="109.166" cy="82.592" rx="31.666" ry="10.424"/>
<ellipse fill="#D71920" cx="109.166" cy="77.818" rx="31.666" ry="10.424"/>
<ellipse fill="#FFFFFF" cx="109.166" cy="70.769" rx="31.666" ry="10.424"/>
<g enable-background="new    ">
	<path fill="#FFFFFF" d="M81.268,124.96h-6.531v-2.357h15.898v2.357h-6.563v19.116h-2.804V124.96z"/>
	<path fill="#FFFFFF" d="M92.23,136.876c0.063,3.791,2.485,5.353,5.289,5.353c2.007,0,3.218-0.351,4.269-0.797l0.478,2.008
		c-0.988,0.445-2.676,0.955-5.129,0.955c-4.747,0-7.583-3.122-7.583-7.773c0-4.652,2.74-8.315,7.232-8.315
		c5.034,0,6.372,4.429,6.372,7.264c0,0.573-0.063,1.02-0.096,1.307H92.23z M100.45,134.868c0.032-1.784-0.733-4.556-3.887-4.556
		c-2.836,0-4.078,2.612-4.301,4.556H100.45z"/>
	<path fill="#FFFFFF" d="M106.633,133.467c0-1.816-0.032-3.377-0.127-4.811h2.454l0.096,3.026h0.127
		c0.701-2.071,2.39-3.377,4.27-3.377c0.318,0,0.541,0.031,0.797,0.095v2.645c-0.287-0.063-0.574-0.096-0.956-0.096
		c-1.976,0-3.378,1.498-3.76,3.601c-0.063,0.383-0.128,0.828-0.128,1.307v8.22h-2.771V133.467z"/>
	<path fill="#FFFFFF" d="M117.18,132.829c0-1.593-0.031-2.899-0.127-4.173h2.453l0.128,2.484h0.095
		c0.861-1.465,2.295-2.835,4.844-2.835c2.103,0,3.695,1.274,4.364,3.09H129c0.479-0.86,1.084-1.529,1.721-2.007
		c0.924-0.701,1.943-1.083,3.409-1.083c2.039,0,5.065,1.338,5.065,6.69v9.08h-2.739v-8.729c0-2.963-1.083-4.747-3.346-4.747
		c-1.593,0-2.835,1.179-3.313,2.549c-0.127,0.382-0.223,0.892-0.223,1.401v9.526h-2.74v-9.239c0-2.453-1.083-4.237-3.218-4.237
		c-1.753,0-3.026,1.401-3.473,2.804c-0.159,0.414-0.224,0.892-0.224,1.37v9.303h-2.74V132.829z"/>
</g>
<g enable-background="new    ">
	<path fill="#FFFFFF" d="M53.562,152.022c1.688-0.255,3.696-0.445,5.894-0.445c3.982,0,6.818,0.924,8.698,2.676
		c1.911,1.752,3.026,4.237,3.026,7.71c0,3.505-1.083,6.372-3.09,8.348c-2.007,2.007-5.321,3.091-9.495,3.091
		c-1.975,0-3.632-0.096-5.034-0.255V152.022z M56.334,171.012c0.701,0.127,1.72,0.159,2.804,0.159c5.926,0,9.144-3.313,9.144-9.112
		c0.032-5.065-2.835-8.283-8.698-8.283c-1.434,0-2.517,0.127-3.25,0.286V171.012z"/>
	<path fill="#FFFFFF" d="M76.377,166.01c0.063,3.791,2.485,5.353,5.289,5.353c2.007,0,3.218-0.351,4.269-0.797l0.478,2.008
		c-0.988,0.445-2.676,0.955-5.129,0.955c-4.747,0-7.583-3.122-7.583-7.773c0-4.652,2.74-8.315,7.232-8.315
		c5.034,0,6.372,4.429,6.372,7.264c0,0.573-0.063,1.02-0.096,1.307H76.377z M84.597,164.002c0.032-1.784-0.733-4.556-3.887-4.556
		c-2.836,0-4.078,2.612-4.301,4.556H84.597z"/>
	<path fill="#FFFFFF" d="M90.78,162.823c0-1.975-0.063-3.568-0.127-5.033h2.517l0.127,2.644h0.063
		c1.147-1.88,2.963-2.994,5.48-2.994c3.728,0,6.531,3.153,6.531,7.837c0,5.544-3.377,8.284-7.009,8.284
		c-2.039,0-3.823-0.893-4.748-2.422h-0.063v8.38H90.78V162.823z M93.552,166.934c0,0.414,0.063,0.796,0.127,1.146
		c0.51,1.944,2.198,3.282,4.206,3.282c2.963,0,4.684-2.422,4.684-5.958c0-3.091-1.625-5.735-4.588-5.735
		c-1.912,0-3.696,1.37-4.237,3.473c-0.096,0.351-0.191,0.766-0.191,1.147V166.934z"/>
	<path fill="#FFFFFF" d="M122.865,165.372c0,5.703-3.95,8.188-7.678,8.188c-4.174,0-7.392-3.059-7.392-7.934
		c0-5.161,3.377-8.188,7.646-8.188C119.871,157.439,122.865,160.657,122.865,165.372z M110.631,165.531
		c0,3.378,1.943,5.927,4.684,5.927c2.677,0,4.684-2.518,4.684-5.99c0-2.612-1.307-5.926-4.619-5.926
		C112.064,159.542,110.631,162.601,110.631,165.531z"/>
	<path fill="#FFFFFF" d="M126.022,170.343c0.829,0.541,2.294,1.115,3.696,1.115c2.039,0,2.994-1.02,2.994-2.294
		c0-1.339-0.796-2.071-2.867-2.836c-2.771-0.987-4.078-2.517-4.078-4.365c0-2.484,2.008-4.523,5.32-4.523
		c1.562,0,2.932,0.445,3.792,0.955l-0.701,2.039c-0.605-0.382-1.72-0.892-3.154-0.892c-1.656,0-2.581,0.956-2.581,2.103
		c0,1.274,0.925,1.848,2.932,2.612c2.676,1.02,4.047,2.358,4.047,4.652c0,2.708-2.104,4.619-5.768,4.619
		c-1.688,0-3.25-0.414-4.332-1.051L126.022,170.343z"/>
	<path fill="#FFFFFF" d="M142.146,153.456c0.031,0.956-0.67,1.721-1.785,1.721c-0.987,0-1.688-0.765-1.688-1.721
		c0-0.987,0.733-1.752,1.753-1.752C141.477,151.704,142.146,152.469,142.146,153.456z M139.023,173.21v-15.42h2.804v15.42H139.023z"
		/>
	<path fill="#FFFFFF" d="M149.857,153.361v4.429h4.014v2.134h-4.014v8.315c0,1.912,0.541,2.995,2.102,2.995
		c0.733,0,1.275-0.096,1.625-0.19l0.128,2.103c-0.542,0.223-1.401,0.382-2.485,0.382c-1.307,0-2.357-0.414-3.026-1.179
		c-0.797-0.828-1.083-2.198-1.083-4.015v-8.411h-2.39v-2.134h2.39v-3.696L149.857,153.361z"/>
	<path fill="#FFFFFF" d="M156.645,170.343c0.828,0.541,2.294,1.115,3.696,1.115c2.039,0,2.994-1.02,2.994-2.294
		c0-1.339-0.796-2.071-2.867-2.836c-2.771-0.987-4.078-2.517-4.078-4.365c0-2.484,2.007-4.523,5.321-4.523
		c1.561,0,2.931,0.445,3.791,0.955l-0.701,2.039c-0.605-0.382-1.721-0.892-3.154-0.892c-1.656,0-2.58,0.956-2.58,2.103
		c0,1.274,0.924,1.848,2.931,2.612c2.677,1.02,4.046,2.358,4.046,4.652c0,2.708-2.103,4.619-5.767,4.619
		c-1.688,0-3.249-0.414-4.333-1.051L156.645,170.343z"/>
</g>
<g>
	<path fill="#00984A" d="M102.896,56.699h1.289v7.668h0.044c0.267-0.613,0.533-1.18,0.785-1.699l3.05-5.969h1.601l-3.614,6.748
		l3.895,9.154h-1.524l-3.287-7.81l-0.948,1.747v6.063h-1.289L102.896,56.699L102.896,56.699z"/>
	<path fill="#00984A" d="M110.703,70.478c0.385,0.401,1.066,0.825,1.718,0.825c0.948,0,1.392-0.755,1.392-1.698
		c0-0.991-0.371-1.533-1.332-2.1c-1.289-0.731-1.896-1.864-1.896-3.232c0-1.84,0.933-3.351,2.474-3.351
		c0.727,0,1.361,0.33,1.762,0.708l-0.326,1.51c-0.28-0.283-0.799-0.661-1.465-0.661c-0.771,0-1.2,0.708-1.2,1.557
		c0,0.944,0.43,1.369,1.362,1.936c1.244,0.755,1.879,1.745,1.879,3.444c0,2.006-0.977,3.421-2.68,3.421
		c-0.783,0-1.51-0.306-2.014-0.778L110.703,70.478z"/>
</g>
<ellipse fill="#D71920" cx="109.166" cy="65.995" rx="31.666" ry="10.424"/>
<ellipse fill="#FFFFFF" cx="109.166" cy="59.395" rx="31.666" ry="10.424"/>
</svg>
