<?xml version="1.0" standalone="no"?>
<!DOCTYPE svg PUBLIC "-//W3C//DTD SVG 20010904//EN"
 "http://www.w3.org/TR/2001/REC-SVG-20010904/DTD/svg10.dtd">
<svg version="1.0" xmlns="http://www.w3.org/2000/svg"
 width="200.000000pt" height="200.000000pt" viewBox="0 0 200.000000 200.000000"
 preserveAspectRatio="xMidYMid meet">

<g transform="translate(0.000000,200.000000) scale(0.100000,-0.100000)"
fill="#000000" stroke="none">
<path d="M613 1993 c-18 -7 -15 -55 10 -153 l22 -85 56 -27 c94 -45 94 -45 80
-308 -7 -124 -16 -242 -22 -262 -11 -44 -46 -74 -103 -89 -95 -26 -135 -41
-146 -54 -21 -25 -60 -207 -49 -227 9 -17 43 -18 539 -18 496 0 530 1 539 18
11 20 -28 202 -49 227 -11 14 -77 38 -135 50 -48 9 -95 43 -110 78 -8 20 -18
121 -25 268 -15 274 -16 272 79 317 l56 27 22 85 c26 105 28 146 7 154 -19 7
-753 7 -771 -1z"/>
<path d="M940 693 c2 -214 43 -683 60 -683 17 0 58 462 60 688 0 20 -4 22 -60
22 -59 0 -60 -1 -60 -27z"/>
</g>
</svg>
