<?xml version="1.0" standalone="no"?>
<!DOCTYPE svg PUBLIC "-//W3C//DTD SVG 20010904//EN"
 "http://www.w3.org/TR/2001/REC-SVG-20010904/DTD/svg10.dtd">
<svg version="1.0" xmlns="http://www.w3.org/2000/svg"
 width="200.000000pt" height="200.000000pt" viewBox="0 0 200.000000 200.000000"
 preserveAspectRatio="xMidYMid meet">

<g transform="translate(0.000000,200.000000) scale(0.100000,-0.100000)"
fill="#000000" stroke="none">
<path d="M613 1993 c-18 -7 -15 -55 10 -153 l22 -85 53 -25 c70 -34 91 -62 92
-122 l0 -46 208 -194 c114 -106 216 -200 226 -208 17 -14 18 -13 13 5 -3 11
-11 124 -18 251 -14 268 -14 267 80 312 l56 27 22 85 c26 105 28 146 7 154
-19 7 -753 7 -771 -1z"/>
<path d="M360 1764 c0 -67 -3 -148 -6 -181 l-6 -59 188 -175 c104 -96 359
-322 567 -503 232 -202 377 -336 377 -347 0 -10 62 -74 143 -149 l142 -131 3
163 3 163 -83 75 c-452 411 -960 889 -1125 1058 l-202 207 -1 -121z"/>
<path d="M670 1074 c-19 -6 -60 -19 -91 -28 -31 -9 -62 -23 -69 -31 -21 -25
-60 -207 -49 -227 9 -17 33 -18 307 -18 l297 0 -25 24 c-14 12 -95 84 -180
158 l-155 134 -35 -12z"/>
<path d="M1388 1005 c42 -40 92 -85 110 -100 l33 -28 -6 29 c-27 119 -30 122
-142 152 l-72 19 77 -72z"/>
<path d="M940 688 c3 -232 42 -678 60 -678 17 0 58 462 60 688 0 20 -4 22 -60
22 l-60 0 0 -32z"/>
</g>
</svg>
