<svg xmlns="http://www.w3.org/2000/svg" viewBox="0 0 58 58" enable-background="new 0 0 58 58"><path fill="#D1D1D0" d="M53.9 45h-50.3c-1.1 0-1.9-.8-1.9-1.8s.9-1.9 1.9-1.9h50.4c1 0 1.9.9 1.9 1.9-.1 1-.9 1.8-2 1.8z"/><g stroke="#3B3E43" fill="none"><path d="M29.206 35.013h-24.1v-13.7h24.1zM28.8 33.5h-23.3"/></g><path stroke="#3B3E43" d="M19.1 20.2l4.8-4.4h7.3l3.6 1.2h6.9v9h-2.7s-3.7 2.7-6.8 2.5" fill="none"/><path stroke="#D1D1D0" d="M23.1 30.4h1.9l1.1-1.4v-2.3l-1-1.4h-2" fill="none"/><path fill="#fff" stroke="#3B3E43" d="M27.3 19.9l-4.8 4.8s-1.4 2.9 2.9 2.9l4.3-4.3s4.1.3 7.3-3"/><path fill="#D1D1D0" stroke="#3B3E43" d="M50.2 27.9h-8.5v-13h8.5"/><path stroke="#D1D1D0" d="M10.6 25.3h-1.9l-1.1 1.4v2.3l1 1.4h2" fill="none"/><ellipse stroke="#3B3E43" stroke-linecap="round" stroke-linejoin="round" stroke-miterlimit="10" cx="16.8" cy="27.6" rx="4.1" ry="4.1" fill="none"/><ellipse fill="#D1D1D0" cx="16.8" cy="27.6" rx="3.3" ry="3.2"/><path fill="#fff" d="M17 25.6c.1 0 .2.1.2.2v.1c.3 0 .5.1.7.3.1 0 .1.1.1.2s-.1.3-.3.3h-.1c-.2-.1-.3-.2-.5-.2v.9c.7.2 1 .5 1 .9 0 .5-.4.8-1 .9v.3c0 .1-.1.2-.2.2s-.2-.1-.2-.2v-.3c-.3 0-.7-.2-.9-.4-.1-.1-.1-.1-.1-.2s.1-.3.3-.3h.2c.2.2.4.3.7.3v-.9c-.7-.2-1-.4-1-.9s.4-.8 1-.9v-.1c-.1-.1-.1-.2.1-.2zm-.2 1.6v-.8c-.3 0-.4.2-.4.4-.1.2 0 .3.4.4zm.3.6v.8c.3 0 .5-.2.5-.4 0-.1-.1-.3-.5-.4z"/><circle fill="#fff" stroke="#3B3E43" stroke-linecap="round" stroke-linejoin="round" stroke-miterlimit="10" cx="43.9" cy="34.3" r="8.4"/><path stroke="#89C33D" stroke-width="2" stroke-linecap="round" stroke-linejoin="round" stroke-miterlimit="10" d="M47.7 27.4l-7.4 13.9" fill="none"/></svg>