<svg xmlns="http://www.w3.org/2000/svg" width="120.25" height="120.25" viewBox="0 0 120.25 120.25"><path fill="#F7F7F7" d="M60.334 2.751c-31.614 0-57.334 25.72-57.334 57.334 0 31.613 25.72 57.333 57.334 57.333 31.613 0 57.333-25.72 57.333-57.333 0-31.614-25.72-57.334-57.333-57.334z"/><path fill="#fff" d="M25 82h13v17h-13zm16 20v8.592c5 1.997 10.447 3.271 16.098 3.673.3.021-.098.035.902.052v-12.317h-17zm-16-40h13v17h-13zm36 40v12.392c6-.107 11-1.172 17-3.047v-9.345h-17zm-34.033 0c3.371 3 7.033 5.448 11.033 7.302v-7.302h-11.033zm-1.967-58h13v15h-13zm16 0h17v15h-17zm20 38h17v17h-17zm-20-20h17v17h-17zm40 48.184c4-1.981 9.098-4.184 13.027-8.184h-13.027v8.184zm-40-28.184h17v17h-17zm20-20h17v17h-17zm20 20h15v17h-15z"/><path d="M61 82h17v17h-17zm-20-20h17v17h-17zm0 20h17v17h-17z" fill="none"/><path fill="#F8786B" d="M78 79h-17v-35h-3v15h-17v-15h-3v15h-13v3h13v17h-13v3h13v17h-13v1.765c0 .567 1.3 1.235 1.967 1.235h11.033v7.302c1 .461 2 .889 3 1.29v-8.592h17v12.316c1 .048 1.686.084 2.537.091l.463-.016v-12.391h17v9.345c1-.356 2-.747 3-1.161v-8.184h13.027c.67 0 .973-.675 1.973-1.245v-1.755h-15v-17h15v-3h-18zm-20 20h-17v-17h17v17zm0-20h-17v-17h17v17zm20 20h-17v-17h17v17z"/><path fill="#fff" d="M61 44.167v.25h.25zm35 35.042v.208h.208zm-35-35.209v35h35v.209z"/><linearGradient id="a" gradientUnits="userSpaceOnUse" x1="26.569" y1="20.542" x2="115.94" y2="109.913"><stop offset=".606" stop-opacity=".8"/><stop offset=".995" stop-color="#fff" stop-opacity="0"/></linearGradient><path fill="url(#a)" d="M96 79.189v21.566c2-1.654 3.608-3.444 5.233-5.338 1.703-1.986 3.254-4.103 4.661-6.321l-9.894-9.907z"/><linearGradient id="b" gradientUnits="userSpaceOnUse" x1="83.787" y1="54.627" x2="116.791" y2="87.63"><stop offset="0" stop-opacity=".3"/><stop offset=".995" stop-color="#fff" stop-opacity="0"/></linearGradient><path fill="url(#b)" d="M114.641 59.042l-16.881-16.881-9.787 16.115 1.017 1.017-18.422 8.554 29.392 29.391c9.114-9.718 14.707-22.779 14.707-37.153l-.026-1.043z"/><path fill="#F8786B" d="M84.042 36.167c-6.354 0-11.965 3.17-15.347 8.014-2.117 3.031-3.362 6.718-3.362 10.695 0 10.332 8.376 18.708 18.709 18.708 3.978 0 7.663-1.245 10.694-3.362 4.844-3.382 8.014-8.991 8.014-15.346 0-10.332-8.377-18.709-18.708-18.709z"/><path fill="#fff" d="M87.395 51.185c-.473-.419-.923-.733-1.351-.943-.429-.21-.888-.314-1.376-.314-.561 0-.979.096-1.259.288s-.419.551-.419 1.074c0 .332.166.621.497.865.333.245.752.489 1.259.734l1.625.787c.577.279 1.118.62 1.625 1.022.508.402.927.882 1.26 1.441.332.56.497 1.232.497 2.018 0 1.277-.336 2.378-1.009 3.305-.674.926-1.699 1.555-3.081 1.887v2.778h-2.935v-2.621c-.753-.088-1.552-.292-2.399-.616-.848-.323-1.604-.781-2.268-1.376l1.939-3.041c.718.524 1.359.9 1.928 1.127.567.228 1.131.342 1.69.342.664 0 1.136-.119 1.416-.354.278-.236.42-.607.42-1.114 0-.35-.167-.66-.499-.931-.333-.271-.752-.537-1.258-.799-.507-.264-1.049-.539-1.626-.826-.577-.289-1.118-.633-1.625-1.036-.508-.401-.927-.874-1.258-1.415-.333-.541-.499-1.197-.499-1.966 0-1.329.354-2.43 1.063-3.303.708-.875 1.699-1.451 2.976-1.731v-2.727h2.935v2.674c.84.141 1.578.402 2.216.787s1.219.856 1.744 1.416l-2.228 2.568z"/></svg>