<?xml version="1.0" encoding="utf-8"?>
<!-- Generator: Adobe Illustrator 23.1.1, SVG Export Plug-In . SVG Version: 6.00 Build 0)  -->
<svg version="1.1" xmlns="http://www.w3.org/2000/svg" xmlns:xlink="http://www.w3.org/1999/xlink" x="0px" y="0px"
	 viewBox="0 0 64 64" style="enable-background:new 0 0 64 64;" xml:space="preserve">
<style type="text/css">
	.Drop_x0020_Shadow{fill:none;}
	.Outer_x0020_Glow_x0020_5_x0020_pt{fill:none;}
	.Blue_x0020_Neon{fill:none;stroke:#8AACDA;stroke-width:7;stroke-linecap:round;stroke-linejoin:round;}
	.Chrome_x0020_Highlight{fill:url(#SVGID_1_);stroke:#FFFFFF;stroke-width:0.3629;stroke-miterlimit:1;}
	.Jive_GS{fill:#FFDD00;}
	.Alyssa_GS{fill:#A6D0E4;}
	.st0{fill:#CCCCCC;}
	.st1{fill:none;stroke:#2C3251;stroke-width:0.5;stroke-miterlimit:10;}
	.st2{opacity:0.2;fill:#2C3251;}
	.st3{fill:#FFFFFF;}
	.st4{fill:#FFFFFF;stroke:#2C3251;stroke-width:0.5;stroke-miterlimit:10;}
	.st5{fill:#FFFFFF;stroke:#2C3251;stroke-width:0.5;stroke-linecap:round;stroke-linejoin:round;stroke-miterlimit:10;}
	.st6{fill:none;stroke:#2C3251;stroke-width:0.5;stroke-linecap:round;stroke-linejoin:round;stroke-miterlimit:10;}
	.st7{opacity:0.4;fill:#2C3251;enable-background:new    ;}
	.st8{fill:#2C3251;}
	.st9{fill:#2C3251;stroke:#2C3251;stroke-width:0.1;stroke-miterlimit:10;}
	.st10{fill:#939393;}
	.st11{fill:#D2E9F7;}
	.st12{fill:#0686D8;}
	.st13{clip-path:url(#SVGID_3_);}
	.st14{clip-path:url(#SVGID_5_);fill:#FFFFFF;}
	.st15{clip-path:url(#SVGID_7_);}
	.st16{clip-path:url(#SVGID_9_);fill:#FFFFFF;}
	.st17{clip-path:url(#SVGID_11_);}
	.st18{clip-path:url(#SVGID_15_);}
	.st19{clip-path:url(#SVGID_17_);}
	.st20{clip-path:url(#SVGID_19_);}
	.st21{clip-path:url(#SVGID_21_);fill:#CCCCCC;}
	.st22{clip-path:url(#SVGID_23_);}
	.st23{clip-path:url(#SVGID_25_);fill:#CCCCCC;}
	.st24{clip-path:url(#SVGID_27_);}
	.st25{clip-path:url(#SVGID_29_);fill:#CCCCCC;}
	.st26{clip-path:url(#SVGID_31_);}
	.st27{clip-path:url(#SVGID_33_);fill:#CCCCCC;}
	.st28{clip-path:url(#SVGID_35_);}
	.st29{clip-path:url(#SVGID_37_);fill:#CCCCCC;}
	.st30{clip-path:url(#SVGID_39_);}
	.st31{clip-path:url(#SVGID_43_);}
	.st32{clip-path:url(#SVGID_45_);}
	.st33{clip-path:url(#SVGID_47_);}
	.st34{clip-path:url(#SVGID_49_);fill:none;}
	.st35{clip-path:url(#SVGID_51_);}
	.st36{clip-path:url(#SVGID_53_);}
	.st37{clip-path:url(#SVGID_55_);}
	.st38{clip-path:url(#SVGID_59_);}
	.st39{clip-path:url(#SVGID_63_);}
	.st40{clip-path:url(#SVGID_65_);enable-background:new    ;}
	.st41{clip-path:url(#SVGID_67_);}
	.st42{clip-path:url(#SVGID_69_);}
	.st43{clip-path:url(#SVGID_71_);}
	.st44{clip-path:url(#SVGID_73_);}
	.st45{clip-path:url(#SVGID_77_);}
	.st46{clip-path:url(#SVGID_81_);}
	.st47{clip-path:url(#SVGID_83_);}
	.st48{clip-path:url(#SVGID_85_);}
	.st49{clip-path:url(#SVGID_87_);fill:#FFFFFF;}
	.st50{clip-path:url(#SVGID_90_);}
	.st51{clip-path:url(#SVGID_91_);}
	.st52{clip-path:url(#SVGID_93_);fill:#9ECFEF;}
	.st53{clip-path:url(#SVGID_95_);}
	.st54{clip-path:url(#SVGID_97_);}
	.st55{clip-path:url(#SVGID_99_);}
	.st56{clip-path:url(#SVGID_103_);}
	.st57{clip-path:url(#SVGID_105_);fill:#FFFFFF;}
	.st58{clip-path:url(#SVGID_107_);}
	.st59{clip-path:url(#SVGID_109_);}
	.st60{clip-path:url(#SVGID_111_);}
	.st61{clip-path:url(#SVGID_113_);}
	.st62{clip-path:url(#SVGID_115_);}
	.st63{clip-path:url(#SVGID_117_);enable-background:new    ;}
	.st64{clip-path:url(#SVGID_119_);}
	.st65{clip-path:url(#SVGID_121_);}
	.st66{clip-path:url(#SVGID_123_);fill:#CCCCCC;}
	.st67{clip-path:url(#SVGID_125_);}
	.st68{clip-path:url(#SVGID_127_);fill:#CCCCCC;}
	.st69{clip-path:url(#SVGID_129_);}
	.st70{clip-path:url(#SVGID_131_);fill:#CCCCCC;}
	.st71{clip-path:url(#SVGID_133_);}
	.st72{clip-path:url(#SVGID_135_);fill:#CCCCCC;}
	.st73{clip-path:url(#SVGID_137_);}
	.st74{clip-path:url(#SVGID_139_);fill:#CCCCCC;}
	.st75{clip-path:url(#SVGID_141_);}
	.st76{clip-path:url(#SVGID_143_);fill:#CCCCCC;}
	.st77{fill:none;stroke:#000000;stroke-width:2.7984;stroke-miterlimit:10;}
	.st78{fill:#5FB0E5;}
	.st79{fill:none;stroke:#000000;stroke-width:2.1758;stroke-linecap:round;stroke-linejoin:round;stroke-miterlimit:10;}
	.st80{fill:#FFFFFF;stroke:#000000;stroke-width:2.1758;stroke-linecap:round;stroke-linejoin:round;stroke-miterlimit:10;}
	.st81{clip-path:url(#SVGID_145_);}
	.st82{clip-path:url(#SVGID_149_);}
	.st83{clip-path:url(#SVGID_151_);}
	.st84{clip-path:url(#SVGID_153_);}
	.st85{clip-path:url(#SVGID_155_);fill:#FFFFFE;}
	.st86{clip-path:url(#SVGID_157_);}
	.st87{clip-path:url(#SVGID_159_);fill:#FFFFFF;}
	.st88{clip-path:url(#SVGID_161_);}
	.st89{clip-path:url(#SVGID_163_);}
	.st90{clip-path:url(#SVGID_165_);}
	.st91{clip-path:url(#SVGID_167_);fill:#FFFFFE;}
	.st92{clip-path:url(#SVGID_169_);}
	.st93{clip-path:url(#SVGID_171_);fill:#CCCCCC;}
	.st94{clip-path:url(#SVGID_173_);}
	.st95{clip-path:url(#SVGID_175_);}
	.st96{clip-path:url(#SVGID_177_);}
	.st97{clip-path:url(#SVGID_179_);}
	.st98{clip-path:url(#SVGID_181_);}
	.st99{clip-path:url(#SVGID_183_);}
	.st100{clip-path:url(#SVGID_185_);}
	.st101{clip-path:url(#SVGID_187_);}
	.st102{clip-path:url(#SVGID_189_);}
	.st103{clip-path:url(#SVGID_191_);}
	.st104{clip-path:url(#SVGID_193_);}
	.st105{clip-path:url(#SVGID_195_);}
	.st106{clip-path:url(#SVGID_197_);}
	.st107{clip-path:url(#SVGID_199_);fill:#CCCCCC;}
	.st108{clip-path:url(#SVGID_201_);}
	.st109{clip-path:url(#SVGID_203_);fill:#CCCCCC;}
	.st110{clip-path:url(#SVGID_205_);}
	.st111{clip-path:url(#SVGID_207_);fill:#CCCCCC;}
	.st112{clip-path:url(#SVGID_209_);}
	.st113{clip-path:url(#SVGID_211_);fill:#CCCCCC;}
	.st114{clip-path:url(#SVGID_213_);}
	.st115{clip-path:url(#SVGID_215_);fill:#CCCCCC;}
	.st116{clip-path:url(#SVGID_217_);}
	.st117{clip-path:url(#SVGID_219_);fill:#CCCCCC;}
	.st118{clip-path:url(#SVGID_221_);}
	.st119{clip-path:url(#SVGID_223_);fill:#CCCCCC;}
	.st120{clip-path:url(#SVGID_225_);}
	.st121{clip-path:url(#SVGID_227_);fill:#CCCCCC;}
	.st122{clip-path:url(#SVGID_229_);}
	.st123{clip-path:url(#SVGID_231_);fill:#CCCCCC;}
	.st124{clip-path:url(#SVGID_233_);}
	.st125{clip-path:url(#SVGID_235_);fill:#CCCCCC;}
	.st126{clip-path:url(#SVGID_237_);}
	.st127{clip-path:url(#SVGID_239_);fill:#CCCCCC;}
</style>
<linearGradient id="SVGID_1_" gradientUnits="userSpaceOnUse" x1="-700" y1="-1085" x2="-700" y2="-1086">
	<stop  offset="0" style="stop-color:#656565"/>
	<stop  offset="0.618" style="stop-color:#1B1B1B"/>
	<stop  offset="0.6292" style="stop-color:#545454"/>
	<stop  offset="0.9831" style="stop-color:#3E3E3E"/>
</linearGradient>
<g id="Layer_1">
	<g>
		<g>
			<defs>
				<path id="SVGID_2_" d="M18.3-45.6h-11l-5.2-10c-0.4-0.8,0.2-1.7,1-1.7H7c0.3,0,0.6,0.1,0.8,0.4L18.3-45.6z"/>
			</defs>
			<clipPath id="SVGID_3_">
				<use xlink:href="#SVGID_2_"  style="overflow:visible;"/>
			</clipPath>
			<g class="st13">
				<defs>
					<rect id="SVGID_4_" x="-542.6" y="-271.6" width="714.6" height="613.7"/>
				</defs>
				<clipPath id="SVGID_5_">
					<use xlink:href="#SVGID_4_"  style="overflow:visible;"/>
				</clipPath>
			</g>
		</g>
		<g>
			<defs>
				<path id="SVGID_6_" d="M18.3-45.6h-11l-5.2-10c-0.4-0.8,0.2-1.7,1-1.7H7c0.3,0,0.6,0.1,0.8,0.4L18.3-45.6z"/>
			</defs>
			<clipPath id="SVGID_7_">
				<use xlink:href="#SVGID_6_"  style="overflow:visible;"/>
			</clipPath>
			<g class="st15">
				<defs>
					<rect id="SVGID_8_" x="-542.6" y="-271.6" width="714.6" height="613.7"/>
				</defs>
				<clipPath id="SVGID_9_">
					<use xlink:href="#SVGID_8_"  style="overflow:visible;"/>
				</clipPath>
			</g>
		</g>
		<g>
			<defs>
				<path id="SVGID_10_" d="M4.4-57.3H3.1c-0.9,0-1.4,0.9-1,1.7l5.2,10h4.3L4.5-56.8C4.4-56.9,4.4-57.1,4.4-57.3"/>
			</defs>
			<clipPath id="SVGID_11_">
				<use xlink:href="#SVGID_10_"  style="overflow:visible;"/>
			</clipPath>
			<g class="st17">
				<defs>
					<rect id="SVGID_12_" x="-542.6" y="-271.6" width="714.6" height="613.7"/>
				</defs>
				<clipPath id="SVGID_13_">
					<use xlink:href="#SVGID_12_"  style="overflow:visible;"/>
				</clipPath>
			</g>
		</g>
		<g>
			<defs>
				<path id="SVGID_14_" d="M20.6-44.6H6.7L1.2-55.1c-0.3-0.7-0.3-1.4,0.1-2.1c0.4-0.6,1.1-1,1.8-1H7c0.6,0,1.2,0.2,1.6,0.7
					L20.6-44.6z M7.9-46.5H16l-9-9.7c0,0-0.1-0.1-0.1-0.1H3.1c-0.1,0-0.1,0-0.1,0.1s0,0.1,0,0.2L7.9-46.5z"/>
			</defs>
			<clipPath id="SVGID_15_">
				<use xlink:href="#SVGID_14_"  style="overflow:visible;"/>
			</clipPath>
			<g class="st18">
				<defs>
					<rect id="SVGID_16_" x="-542.6" y="-271.6" width="714.6" height="613.7"/>
				</defs>
				<clipPath id="SVGID_17_">
					<use xlink:href="#SVGID_16_"  style="overflow:visible;"/>
				</clipPath>
			</g>
		</g>
		<g>
			<defs>
				<path id="SVGID_18_" d="M52.6-25.6c0,0.9-0.7,1.6-1.7,1.6c-0.9,0-1.7-0.7-1.7-1.6c0-0.9,0.7-1.6,1.7-1.6
					C51.9-27.2,52.6-26.5,52.6-25.6"/>
			</defs>
			<clipPath id="SVGID_19_">
				<use xlink:href="#SVGID_18_"  style="overflow:visible;"/>
			</clipPath>
			<g class="st20">
				<defs>
					<rect id="SVGID_20_" x="-542.6" y="-271.6" width="714.6" height="613.7"/>
				</defs>
				<clipPath id="SVGID_21_">
					<use xlink:href="#SVGID_20_"  style="overflow:visible;"/>
				</clipPath>
			</g>
		</g>
		<g>
			<defs>
				<path id="SVGID_22_" d="M39-62.4c0,0.5-0.4,0.8-0.8,0.8c-0.5,0-0.8-0.4-0.8-0.8c0-0.5,0.4-0.8,0.8-0.8
					C38.7-63.3,39-62.9,39-62.4"/>
			</defs>
			<use xlink:href="#SVGID_22_"  style="overflow:visible;fill-rule:evenodd;clip-rule:evenodd;fill:#CCCCCC;"/>
			<clipPath id="SVGID_23_">
				<use xlink:href="#SVGID_22_"  style="overflow:visible;"/>
			</clipPath>
			<g class="st22">
				<defs>
					<rect id="SVGID_24_" x="-542.6" y="-271.6" width="714.6" height="613.7"/>
				</defs>
				<clipPath id="SVGID_25_">
					<use xlink:href="#SVGID_24_"  style="overflow:visible;"/>
				</clipPath>
			</g>
		</g>
		<g>
			<defs>
				<path id="SVGID_26_" d="M37.2-30c0,0.5-0.4,0.8-0.8,0.8c-0.5,0-0.8-0.4-0.8-0.8s0.4-0.8,0.8-0.8C36.9-30.8,37.2-30.4,37.2-30"/>
			</defs>
			<use xlink:href="#SVGID_26_"  style="overflow:visible;fill-rule:evenodd;clip-rule:evenodd;fill:#CCCCCC;"/>
			<clipPath id="SVGID_27_">
				<use xlink:href="#SVGID_26_"  style="overflow:visible;"/>
			</clipPath>
			<g class="st24">
				<defs>
					<rect id="SVGID_28_" x="-542.6" y="-271.6" width="714.6" height="613.7"/>
				</defs>
				<clipPath id="SVGID_29_">
					<use xlink:href="#SVGID_28_"  style="overflow:visible;"/>
				</clipPath>
			</g>
		</g>
		<g>
			<defs>
				<path id="SVGID_30_" d="M59.1-66.2c0,0.6-0.5,1.1-1.1,1.1c-0.6,0-1.1-0.5-1.1-1.1s0.5-1.1,1.1-1.1
					C58.6-67.3,59.1-66.8,59.1-66.2"/>
			</defs>
			<clipPath id="SVGID_31_">
				<use xlink:href="#SVGID_30_"  style="overflow:visible;"/>
			</clipPath>
			<g class="st26">
				<defs>
					<rect id="SVGID_32_" x="-542.6" y="-271.6" width="714.6" height="613.7"/>
				</defs>
				<clipPath id="SVGID_33_">
					<use xlink:href="#SVGID_32_"  style="overflow:visible;"/>
				</clipPath>
			</g>
		</g>
		<g>
			<defs>
				<path id="SVGID_34_" d="M45.9-71.8c0,0.9-0.7,1.5-1.6,1.5c-0.9,0-1.6-0.7-1.6-1.5c0-0.9,0.7-1.5,1.6-1.5
					C45.2-73.4,45.9-72.7,45.9-71.8"/>
			</defs>
			<clipPath id="SVGID_35_">
				<use xlink:href="#SVGID_34_"  style="overflow:visible;"/>
			</clipPath>
			<g class="st28">
				<defs>
					<rect id="SVGID_36_" x="-542.6" y="-271.6" width="714.6" height="613.7"/>
				</defs>
				<clipPath id="SVGID_37_">
					<use xlink:href="#SVGID_36_"  style="overflow:visible;"/>
				</clipPath>
			</g>
		</g>
		<g>
			<defs>
				<path id="SVGID_38_" d="M56.8-50.8h-0.1c-0.6-1.9-2.3-3.3-4.4-3.3c-0.9,0-1.8,0.3-2.5,0.7c-0.5-3-3.1-5.3-6.2-5.3
					c-2.8,0-5.2,1.9-6,4.4c-0.4-0.1-0.7-0.2-1.1-0.2c-2.2,0-4,1.6-4.3,3.6h-0.7c-1.8,0-3.2,1.4-3.2,3.2v0.2c0,1.8,1.5,3.2,3.2,3.2
					h25.4c1.8,0,3.2-1.4,3.2-3.2v-0.2C60-49.3,58.6-50.8,56.8-50.8"/>
			</defs>
			<clipPath id="SVGID_39_">
				<use xlink:href="#SVGID_38_"  style="overflow:visible;"/>
			</clipPath>
			<g class="st30">
				<defs>
					<rect id="SVGID_40_" x="-542.6" y="-271.6" width="714.6" height="613.7"/>
				</defs>
				<clipPath id="SVGID_41_">
					<use xlink:href="#SVGID_40_"  style="overflow:visible;"/>
				</clipPath>
			</g>
		</g>
		<g>
			<defs>
				<path id="SVGID_42_" d="M56.8-43.1v-2c1.2,0,2.3-1,2.3-2.2v-0.2c0-1.2-1-2.2-2.3-2.2H56l-0.3-0.7c-0.4-1.5-1.9-2.6-3.5-2.6
					c-0.7,0-1.4,0.2-2,0.6L49-51.7l-0.2-1.5c-0.4-2.6-2.6-4.5-5.3-4.5c-2.3,0-4.4,1.5-5.1,3.7l-0.3,0.9l-0.9-0.2
					c-2-0.5-3.9,0.8-4.2,2.7l-0.1,0.8h-1.5c-0.8,0-1.5,0.4-1.9,1.1l-1.7-1c0.7-1.3,2.1-2,3.6-2.1c0.8-2.3,3-3.9,5.5-3.6
					c1.2-2.6,3.7-4.3,6.7-4.3c3.2,0,5.9,2,6.9,4.9c0.6-0.2,1.2-0.3,1.8-0.3c2.2,0,4.3,1.4,5.1,3.4c2.1,0.3,3.6,2.1,3.6,4.1v0.2
					C61-45,59.1-43.1,56.8-43.1"/>
			</defs>
			<clipPath id="SVGID_43_">
				<use xlink:href="#SVGID_42_"  style="overflow:visible;"/>
			</clipPath>
			<g class="st31">
				<defs>
					<rect id="SVGID_44_" x="-542.6" y="-271.6" width="714.6" height="613.7"/>
				</defs>
				<clipPath id="SVGID_45_">
					<use xlink:href="#SVGID_44_"  style="overflow:visible;"/>
				</clipPath>
			</g>
		</g>
		<g>
			<defs>
				<path id="SVGID_46_" d="M46.8-53.3c-0.8-1.2-2.1-1.9-3.6-1.9c-0.8,0-1.5,0.2-2.2,0.6l-1-1.7c1-0.6,2.1-0.9,3.2-0.9
					c2.1,0,4.1,1.1,5.2,2.8L46.8-53.3z"/>
			</defs>
			<clipPath id="SVGID_47_">
				<use xlink:href="#SVGID_46_"  style="overflow:visible;"/>
			</clipPath>
			<g class="st33">
				<defs>
					<rect id="SVGID_48_" x="-542.6" y="-271.6" width="714.6" height="613.7"/>
				</defs>
				<clipPath id="SVGID_49_">
					<use xlink:href="#SVGID_48_"  style="overflow:visible;"/>
				</clipPath>
			</g>
		</g>
		<g>
			<defs>
				<path id="SVGID_50_" d="M39.7-52.2h-2c0-0.7-0.6-1.3-1.3-1.3v-2C38.2-55.4,39.7-54,39.7-52.2"/>
			</defs>
			<clipPath id="SVGID_51_">
				<use xlink:href="#SVGID_50_"  style="overflow:visible;"/>
			</clipPath>
			<g class="st35">
				<defs>
					<rect id="SVGID_52_" x="-542.6" y="-271.6" width="714.6" height="613.7"/>
				</defs>
				<clipPath id="SVGID_53_">
					<use xlink:href="#SVGID_52_"  style="overflow:visible;"/>
				</clipPath>
			</g>
		</g>
		<g>
			<defs>
				<path id="SVGID_54_" d="M29.2-25.1H29c-0.5-1.6-1.9-2.7-3.6-2.7c-0.8,0-1.4,0.2-2,0.6c-0.4-2.5-2.5-4.4-5.1-4.4
					c-2.3,0-4.3,1.5-4.9,3.6c-0.3-0.1-0.6-0.1-0.9-0.1c-1.8,0-3.2,1.3-3.5,3H8.3c-1.5,0-2.7,1.2-2.7,2.6v0.2c0,1.5,1.2,2.6,2.7,2.6
					h20.8c1.5,0,2.7-1.2,2.7-2.6v-0.2C31.8-23.9,30.6-25.1,29.2-25.1"/>
			</defs>
			<clipPath id="SVGID_55_">
				<use xlink:href="#SVGID_54_"  style="overflow:visible;"/>
			</clipPath>
			<g class="st37">
				<defs>
					<rect id="SVGID_56_" x="-542.6" y="-271.6" width="714.6" height="613.7"/>
				</defs>
				<clipPath id="SVGID_57_">
					<use xlink:href="#SVGID_56_"  style="overflow:visible;"/>
				</clipPath>
			</g>
		</g>
		<g>
			<defs>
				<path id="SVGID_58_" d="M12-19.6H8.3c-1.5,0-2.7-1.2-2.7-2.6v-0.2c0-1.5,1.2-2.6,2.7-2.6h0.6c0.3-1.7,1.7-3,3.5-3
					c0.3,0,0.6,0,0.9,0.1c0.7-2.1,2.6-3.6,4.9-3.6c2.6,0,4.7,1.9,5.1,4.4c0.6-0.4,1.3-0.6,2-0.6c1.7,0,3.2,1.1,3.6,2.7h0.1
					c1.5,0,2.7,1.2,2.7,2.6v0.2c0,1.4-1.2,2.6-2.7,2.6h-4H12z"/>
			</defs>
			<clipPath id="SVGID_59_">
				<use xlink:href="#SVGID_58_"  style="overflow:visible;"/>
			</clipPath>
			<g class="st38">
				<defs>
					<rect id="SVGID_60_" x="-542.6" y="-271.6" width="714.6" height="613.7"/>
				</defs>
				<clipPath id="SVGID_61_">
					<use xlink:href="#SVGID_60_"  style="overflow:visible;"/>
				</clipPath>
			</g>
		</g>
		<g>
			<defs>
				<rect id="SVGID_62_" x="4.7" y="-32.5" width="28.1" height="13.9"/>
			</defs>
			<clipPath id="SVGID_63_">
				<use xlink:href="#SVGID_62_"  style="overflow:visible;"/>
			</clipPath>
			<g class="st39">
				<defs>
					<rect id="SVGID_64_" x="-542.6" y="-271.6" width="714.6" height="613.7"/>
				</defs>
				<clipPath id="SVGID_65_">
					<use xlink:href="#SVGID_64_"  style="overflow:visible;"/>
				</clipPath>
			</g>
		</g>
		<g>
			<defs>
				<path id="SVGID_72_" d="M26.4-62.1L26.4-62.1c-0.4-1-1.3-1.7-2.4-1.7c-0.5,0-0.9,0.1-1.3,0.4c-0.2-1.6-1.6-2.8-3.2-2.8
					c-1.5,0-2.7,1-3.1,2.3C16.2-64,16-64,15.8-64c-1.1,0-2.1,0.8-2.2,1.9h-0.4c-0.9,0-1.7,0.8-1.7,1.7v0.1c0,0.9,0.8,1.7,1.7,1.7
					h13.3c0.9,0,1.7-0.8,1.7-1.7v-0.1C28.1-61.4,27.4-62.1,26.4-62.1"/>
			</defs>
			<clipPath id="SVGID_67_">
				<use xlink:href="#SVGID_72_"  style="overflow:visible;"/>
			</clipPath>
			<g class="st41">
				<defs>
					<rect id="SVGID_74_" x="-542.6" y="-271.6" width="714.6" height="613.7"/>
				</defs>
				<clipPath id="SVGID_69_">
					<use xlink:href="#SVGID_74_"  style="overflow:visible;"/>
				</clipPath>
			</g>
		</g>
		<g>
			<defs>
				<path id="SVGID_76_" d="M15.5-58.6h-2.4c-0.9,0-1.7-0.8-1.7-1.7v-0.1c0-0.9,0.8-1.7,1.7-1.7h0.4c0.2-1.1,1.1-1.9,2.2-1.9
					c0.2,0,0.4,0,0.6,0.1c0.4-1.3,1.7-2.3,3.1-2.3c1.6,0,3,1.2,3.2,2.8c0.4-0.2,0.8-0.4,1.3-0.4c1.1,0,2,0.7,2.3,1.7h0.1
					c0.9,0,1.7,0.8,1.7,1.7v0.1c0,0.9-0.8,1.7-1.7,1.7h-2.6H15.5z"/>
			</defs>
			<clipPath id="SVGID_71_">
				<use xlink:href="#SVGID_76_"  style="overflow:visible;"/>
			</clipPath>
			<g class="st43">
				<defs>
					<rect id="SVGID_78_" x="-542.6" y="-271.6" width="714.6" height="613.7"/>
				</defs>
				<clipPath id="SVGID_73_">
					<use xlink:href="#SVGID_78_"  style="overflow:visible;"/>
				</clipPath>
			</g>
		</g>
		<g>
			<defs>
				<path id="SVGID_80_" d="M26.4-57.7H13.2c-1.5,0-2.7-1.2-2.7-2.7c0-1.5,1-2.6,2.3-2.8c0.5-1.1,1.6-1.9,2.9-1.9
					c0.7-1.4,2.2-2.2,3.8-2.2c1.7,0,3.2,1,3.9,2.5c1.5-0.3,3,0.5,3.7,1.7c1.2,0.3,2,1.3,2,2.6C29.1-58.9,27.9-57.7,26.4-57.7z
					 M13.2-61.1c-0.4,0-0.7,0.3-0.7,0.7c0,0.5,0.3,0.8,0.7,0.8h13.3c0.4,0,0.7-0.3,0.7-0.7c0-0.5-0.3-0.8-0.7-0.8h-0.7l-0.3-0.7
					c-0.2-0.9-1.4-1.3-2.1-0.8L22-61.8l-0.2-1.5c-0.2-1.1-1.1-1.9-2.3-1.9c-1,0-1.9,0.6-2.2,1.6L17-62.7L16.1-63
					c-0.8-0.2-1.5,0.3-1.6,1l-0.1,0.8H13.2z"/>
			</defs>
			<clipPath id="SVGID_75_">
				<use xlink:href="#SVGID_80_"  style="overflow:visible;"/>
			</clipPath>
			<g style="clip-path:url(#SVGID_75_);">
				<defs>
					<rect id="SVGID_82_" x="-542.6" y="-271.6" width="714.6" height="613.7"/>
				</defs>
				<clipPath id="SVGID_77_">
					<use xlink:href="#SVGID_82_"  style="overflow:visible;"/>
				</clipPath>
			</g>
		</g>
		<g>
			<defs>
				<path id="SVGID_84_" d="M56.7-41.7h-1.1c-0.9-2.6-3.4-4.4-6.3-4.4h-45c0,6.2,5,11.2,11.2,11.2h28.3H56h0.6
					c1.7,0,3.1-1.4,3.1-3.1v-0.6C59.8-40.3,58.4-41.7,56.7-41.7"/>
			</defs>
			<clipPath id="SVGID_79_">
				<use xlink:href="#SVGID_84_"  style="overflow:visible;"/>
			</clipPath>
			<g style="clip-path:url(#SVGID_79_);">
				<defs>
					<rect id="SVGID_86_" x="-542.6" y="-271.6" width="714.6" height="613.7"/>
				</defs>
				<clipPath id="SVGID_81_">
					<use xlink:href="#SVGID_86_"  style="overflow:visible;"/>
				</clipPath>
			</g>
		</g>
		<g>
			<defs>
				<path id="SVGID_88_" d="M4.7-46H4.3c0,6.2,5,11.2,11.2,11.2h28.3H56h0.6c1.7,0,3.1-1.4,3.1-3.1v-0.6c0-0.4-0.1-0.7-0.2-1
					c-0.4,1.2-1.6,2.1-2.9,2.1"/>
			</defs>
			<defs>
				<polyline id="SVGID_89_" points="56.7,-37.5 56,-37.5 43.9,-37.5 15.6,-37.5 				"/>
			</defs>
			<clipPath id="SVGID_83_">
				<use xlink:href="#SVGID_88_"  style="overflow:visible;"/>
			</clipPath>
			<clipPath id="SVGID_85_" class="st47">
				<use xlink:href="#SVGID_89_"  style="overflow:visible;"/>
			</clipPath>
			<g class="st48">
				<defs>
					<rect id="SVGID_92_" x="-542.6" y="-271.6" width="714.6" height="613.7"/>
				</defs>
				<clipPath id="SVGID_87_">
					<use xlink:href="#SVGID_92_"  style="overflow:visible;"/>
				</clipPath>
			</g>
		</g>
		<g>
			<defs>
				<path id="SVGID_94_" d="M56.7-33.9H15.6C8.8-33.9,3.3-39.4,3.3-46v-1h46c3,0,5.7,1.7,6.9,4.4h0.4c2.3,0,4.1,1.8,4.1,4.1v0.6
					C60.7-35.7,58.9-33.9,56.7-33.9z M5.4-45.1c0.5,5.2,4.9,9.2,10.2,9.2h41.1c1.2,0,2.1-0.9,2.1-2.1v-0.6c0-1.2-0.9-2.1-2.1-2.1
					h-1.8l-0.2-0.6c-0.8-2.2-3-3.7-5.4-3.7H5.4z"/>
			</defs>
			<use xlink:href="#SVGID_94_"  style="overflow:visible;fill-rule:evenodd;clip-rule:evenodd;"/>
			<clipPath id="SVGID_90_">
				<use xlink:href="#SVGID_94_"  style="overflow:visible;"/>
			</clipPath>
			<g class="st50">
				<defs>
					<rect id="SVGID_96_" x="-542.6" y="-271.6" width="714.6" height="613.7"/>
				</defs>
				<clipPath id="SVGID_91_">
					<use xlink:href="#SVGID_96_"  style="overflow:visible;"/>
				</clipPath>
			</g>
		</g>
		<g>
			<defs>
				<path id="SVGID_98_" d="M17.2-42.5h-13c-0.9,0-1.5-0.7-1.5-1.5v-0.5c0-0.8,0.7-1.5,1.5-1.5h13c0.9,0,1.5,0.7,1.5,1.5v0.5
					C18.7-43.2,18-42.5,17.2-42.5"/>
			</defs>
			<clipPath id="SVGID_93_">
				<use xlink:href="#SVGID_98_"  style="overflow:visible;"/>
			</clipPath>
			<g style="clip-path:url(#SVGID_93_);">
				<defs>
					<rect id="SVGID_100_" x="-542.6" y="-271.6" width="714.6" height="613.7"/>
				</defs>
				<clipPath id="SVGID_95_">
					<use xlink:href="#SVGID_100_"  style="overflow:visible;"/>
				</clipPath>
			</g>
		</g>
		<g>
			<defs>
				<path id="SVGID_102_" d="M42.5-33.6H26.6c-0.9,0-1.5-0.7-1.5-1.5v-1.1c0-0.8,0.7-1.5,1.5-1.5h15.9c0.9,0,1.5,0.7,1.5,1.5v1.1
					C44-34.3,43.4-33.6,42.5-33.6"/>
			</defs>
			<clipPath id="SVGID_97_">
				<use xlink:href="#SVGID_102_"  style="overflow:visible;"/>
			</clipPath>
			<g class="st54">
				<defs>
					<rect id="SVGID_104_" x="-542.6" y="-271.6" width="714.6" height="613.7"/>
				</defs>
				<clipPath id="SVGID_99_">
					<use xlink:href="#SVGID_104_"  style="overflow:visible;"/>
				</clipPath>
			</g>
		</g>
		<g>
			<defs>
				<path id="SVGID_106_" d="M17.2-41.5h-13c-1.4,0-2.5-1.1-2.5-2.5v-0.5c0-1.4,1.1-2.5,2.5-2.5h13c1.4,0,2.5,1.1,2.5,2.5v0.5
					C19.7-42.6,18.6-41.5,17.2-41.5z M4.2-45.1c-0.3,0-0.6,0.2-0.6,0.6v0.5c0,0.3,0.3,0.6,0.6,0.6h13c0.3,0,0.6-0.2,0.6-0.6v-0.5
					c0-0.3-0.2-0.6-0.6-0.6H4.2z"/>
			</defs>
			<clipPath id="SVGID_101_">
				<use xlink:href="#SVGID_106_"  style="overflow:visible;"/>
			</clipPath>
			<g style="clip-path:url(#SVGID_101_);">
				<defs>
					<rect id="SVGID_108_" x="-542.6" y="-271.6" width="714.6" height="613.7"/>
				</defs>
				<clipPath id="SVGID_103_">
					<use xlink:href="#SVGID_108_"  style="overflow:visible;"/>
				</clipPath>
			</g>
		</g>
		<g>
			<defs>
				<path id="SVGID_110_" d="M42.5-32.6H26.6c-1.4,0-2.5-1.1-2.5-2.5v-1.1c0-1.4,1.1-2.5,2.5-2.5h15.9c1.4,0,2.5,1.1,2.5,2.5v1.1
					C45-33.7,43.9-32.6,42.5-32.6z M26.6-36.8c-0.3,0-0.6,0.2-0.6,0.6v1.1c0,0.3,0.3,0.6,0.6,0.6h15.9c0.3,0,0.6-0.2,0.6-0.6v-1.1
					c0-0.3-0.3-0.6-0.6-0.6H26.6z"/>
			</defs>
			<clipPath id="SVGID_105_">
				<use xlink:href="#SVGID_110_"  style="overflow:visible;"/>
			</clipPath>
			<g style="clip-path:url(#SVGID_105_);">
				<defs>
					<rect id="SVGID_112_" x="-542.6" y="-271.6" width="714.6" height="613.7"/>
				</defs>
				<clipPath id="SVGID_107_">
					<use xlink:href="#SVGID_112_"  style="overflow:visible;"/>
				</clipPath>
			</g>
		</g>
		<g>
			<defs>
				<rect id="SVGID_114_" x="1" y="-73.4" width="60" height="54.7"/>
			</defs>
			<clipPath id="SVGID_109_">
				<use xlink:href="#SVGID_114_"  style="overflow:visible;"/>
			</clipPath>
			<g class="st59">
				<defs>
					<rect id="SVGID_116_" x="-542.6" y="-271.6" width="714.6" height="613.7"/>
				</defs>
				<clipPath id="SVGID_111_">
					<use xlink:href="#SVGID_116_"  style="overflow:visible;"/>
				</clipPath>
			</g>
		</g>
	</g>
	<g>
		<g>
			<path class="st79" d="M57.3,48H20.7c-0.9,0-1.7-0.8-1.7-1.7V34.7c0-0.9,0.8-1.7,1.7-1.7h36.6c0.9,0,1.7,0.8,1.7,1.7v11.6
				C59,47.2,58.2,48,57.3,48z"/>
		</g>
		<g id="XMLID_257_">
			<path class="st0" d="M59.6,13.6c0,0.9-0.7,1.5-1.5,1.5c-0.9,0-1.5-0.7-1.5-1.5s0.7-1.5,1.5-1.5C58.9,12.1,59.6,12.8,59.6,13.6z"
				/>
		</g>
		<g id="XMLID_255_">
			<path class="st0" d="M13.4,6.5c0,1.1-0.9,1.9-1.9,1.9c-1.1,0-1.9-0.9-1.9-1.9c0-1.1,0.9-1.9,1.9-1.9C12.5,4.6,13.4,5.4,13.4,6.5z
				"/>
		</g>
		<g id="XMLID_254_">
			<path class="st0" d="M30.1,10.9c0,0.5-0.4,0.9-0.9,0.9c-0.5,0-0.9-0.4-0.9-0.9c0-0.5,0.4-0.9,0.9-0.9
				C29.7,10,30.1,10.4,30.1,10.9z"/>
		</g>
		<g id="XMLID_253_">
			<path class="st0" d="M61.4,3.5c0,0.6-0.5,1-1,1c-0.6,0-1-0.5-1-1c0-0.6,0.5-1,1-1C61,2.5,61.4,3,61.4,3.5z"/>
		</g>
		<g id="XMLID_250_">
			<path class="st0" d="M41.8,3.5c0,0.8-0.7,1.5-1.5,1.5c-0.8,0-1.5-0.7-1.5-1.5c0-0.8,0.7-1.5,1.5-1.5C41.1,2,41.8,2.7,41.8,3.5z"
				/>
		</g>
		<g>
			<circle class="st80" cx="15.4" cy="40.8" r="12.2"/>
			<circle class="st0" cx="15.4" cy="40.8" r="8.6"/>
			<path class="st79" d="M6.7,32.3V21.7c0-4.8,3.9-8.7,8.7-8.7c2.4,0,4.6,1,6.2,2.5c1.6,1.6,2.5,3.8,2.5,6.2v10.6"/>
			<line class="st79" x1="15.4" y1="40.8" x2="15.4" y2="44.3"/>
			<circle cx="15.4" cy="39.1" r="2.6"/>
		</g>
		<path d="M54.3,39.3c-0.1-0.1-0.2-0.1-0.4-0.1l-2.5,0.3l1.6-2.1c0.1-0.1,0.1-0.3,0.1-0.4c0-0.1-0.1-0.3-0.2-0.3l-1.5-0.8
			c-0.1-0.1-0.3-0.1-0.4,0c-0.1,0-0.2,0.1-0.3,0.3l-1,2.4l-1.1-2.4c-0.1-0.1-0.2-0.2-0.3-0.3c-0.1,0-0.3,0-0.4,0l-1.5,0.8
			c-0.1,0.1-0.2,0.2-0.2,0.3s0,0.3,0.1,0.4l1.6,2.1l-2.4-0.3c-0.1,0-0.3,0-0.4,0.1c-0.1,0.1-0.2,0.2-0.2,0.4v1.6
			c0,0.1,0.1,0.3,0.2,0.4c0.1,0.1,0.3,0.1,0.4,0.1l2.4-0.3l-1.6,2.1c-0.1,0.1-0.1,0.3-0.1,0.4s0.1,0.3,0.2,0.3l1.4,0.9
			c0.1,0.1,0.2,0.1,0.3,0.1c0,0,0.1,0,0.1,0c0.1,0,0.3-0.1,0.3-0.3l1.1-2.4l1,2.4c0.1,0.1,0.2,0.2,0.3,0.3c0.1,0,0.3,0,0.4,0
			l1.5-0.9c0.1-0.1,0.2-0.2,0.2-0.3s0-0.3-0.1-0.4l-1.6-2l2.5,0.3c0.1,0,0.3,0,0.4-0.1c0.1-0.1,0.2-0.2,0.2-0.4v-1.6
			C54.5,39.5,54.4,39.4,54.3,39.3z"/>
		<path d="M40.3,39.3c-0.1-0.1-0.2-0.1-0.4-0.1l-2.5,0.3l1.6-2.1c0.1-0.1,0.1-0.3,0.1-0.4c0-0.1-0.1-0.3-0.2-0.3l-1.5-0.8
			c-0.1-0.1-0.3-0.1-0.4,0c-0.1,0-0.2,0.1-0.3,0.3l-1,2.4l-1.1-2.4c-0.1-0.1-0.2-0.2-0.3-0.3c-0.1,0-0.3,0-0.4,0l-1.5,0.8
			c-0.1,0.1-0.2,0.2-0.2,0.3s0,0.3,0.1,0.4l1.6,2.1l-2.4-0.3c-0.1,0-0.3,0-0.4,0.1c-0.1,0.1-0.2,0.2-0.2,0.4v1.6
			c0,0.1,0.1,0.3,0.2,0.4c0.1,0.1,0.3,0.1,0.4,0.1l2.4-0.3l-1.6,2.1c-0.1,0.1-0.1,0.3-0.1,0.4s0.1,0.3,0.2,0.3l1.4,0.9
			c0.1,0.1,0.2,0.1,0.3,0.1c0,0,0.1,0,0.1,0c0.1,0,0.3-0.1,0.3-0.3l1.1-2.4l1,2.4c0.1,0.1,0.2,0.2,0.3,0.3c0.1,0,0.3,0,0.4,0
			l1.5-0.9c0.1-0.1,0.2-0.2,0.2-0.3s0-0.3-0.1-0.4l-1.6-2l2.5,0.3c0.1,0,0.3,0,0.4-0.1c0.1-0.1,0.2-0.2,0.2-0.4v-1.6
			C40.5,39.5,40.4,39.4,40.3,39.3z"/>
	</g>
	<g>
		<g>
			<g>
				<defs>
					<path id="SVGID_144_" d="M-33.8,58.9h-46.2c-0.8,0-1.4-0.6-1.4-1.4V24.9c0-0.8,0.6-1.4,1.4-1.4h46.2c0.8,0,1.4,0.6,1.4,1.4
						v32.6C-32.4,58.3-33.1,58.9-33.8,58.9"/>
				</defs>
				<clipPath id="SVGID_113_">
					<use xlink:href="#SVGID_144_"  style="overflow:visible;"/>
				</clipPath>
				<g class="st61">
					<defs>
						<rect id="SVGID_146_" x="-823.3" y="-99.9" width="931.4" height="486.1"/>
					</defs>
					<clipPath id="SVGID_115_">
						<use xlink:href="#SVGID_146_"  style="overflow:visible;"/>
					</clipPath>
				</g>
			</g>
			<g>
				<defs>
					<path id="SVGID_148_" d="M-33.3,59.6h-46.6c-1.3,0-2.3-1-2.3-2.3V41.7h2.1v15.6l0.1,0.2h46.6l0.2-0.2V24.4l-0.2-0.2h-16.8v-2.1
						h16.8c1.3,0,2.3,1,2.3,2.3v32.9C-31,58.6-32.1,59.6-33.3,59.6"/>
				</defs>
				<clipPath id="SVGID_117_">
					<use xlink:href="#SVGID_148_"  style="overflow:visible;"/>
				</clipPath>
				<g style="clip-path:url(#SVGID_117_);">
					<defs>
						<rect id="SVGID_150_" x="-823.3" y="-99.9" width="931.4" height="486.1"/>
					</defs>
					<clipPath id="SVGID_119_">
						<use xlink:href="#SVGID_150_"  style="overflow:visible;"/>
					</clipPath>
				</g>
			</g>
			<g>
				<defs>
					<rect id="SVGID_152_" x="-78.8" y="26.2" width="44.3" height="28.6"/>
				</defs>
				<clipPath id="SVGID_121_">
					<use xlink:href="#SVGID_152_"  style="overflow:visible;"/>
				</clipPath>
				<g class="st65">
					<defs>
						<rect id="SVGID_154_" x="-823.3" y="-99.9" width="931.4" height="486.1"/>
					</defs>
					<clipPath id="SVGID_123_">
						<use xlink:href="#SVGID_154_"  style="overflow:visible;"/>
					</clipPath>
				</g>
			</g>
			<g>
				<defs>
					<path id="SVGID_156_" d="M-33.3,61h-47.6c-1.1,0-2.1-0.8-2.3-2l-0.3-2.1h22.1l0.8,1.2h6.1l0.9-1.2h23.3l-0.3,1.8
						C-30.9,60-32,61-33.3,61"/>
				</defs>
				<clipPath id="SVGID_125_">
					<use xlink:href="#SVGID_156_"  style="overflow:visible;"/>
				</clipPath>
				<g class="st67">
					<defs>
						<rect id="SVGID_158_" x="-823.3" y="-99.9" width="931.4" height="486.1"/>
					</defs>
					<clipPath id="SVGID_127_">
						<use xlink:href="#SVGID_158_"  style="overflow:visible;"/>
					</clipPath>
				</g>
			</g>
			<g>
				<defs>
					<path id="SVGID_160_" d="M-33.2,61.7H-81c-1.7,0-3.1-1.2-3.4-2.8l-0.5-3.3h24l0.8,1.2h5l0.9-1.2H-29l-0.5,3
						C-29.8,60.4-31.3,61.7-33.2,61.7z M-82.4,57.6l0.1,0.8c0.1,0.6,0.6,1.1,1.3,1.1h47.8c0.8,0,1.5-0.6,1.6-1.3l0.1-0.6h-21.6
						l-0.9,1.2h-7.2l-0.8-1.2H-82.4z"/>
				</defs>
				<clipPath id="SVGID_129_">
					<use xlink:href="#SVGID_160_"  style="overflow:visible;"/>
				</clipPath>
				<g class="st69">
					<defs>
						<rect id="SVGID_162_" x="-823.3" y="-99.9" width="931.4" height="486.1"/>
					</defs>
					<clipPath id="SVGID_131_">
						<use xlink:href="#SVGID_162_"  style="overflow:visible;"/>
					</clipPath>
				</g>
			</g>
			<g>
				<defs>
					<path id="SVGID_164_" d="M-55.7,38.5h-29c-1.6,0-2.9-1.3-2.9-2.9V16.1c0-1.6,1.3-2.9,2.9-2.9h29c1.6,0,2.9,1.3,2.9,2.9v19.5
						C-52.9,37.2-54.1,38.5-55.7,38.5"/>
				</defs>
				<clipPath id="SVGID_133_">
					<use xlink:href="#SVGID_164_"  style="overflow:visible;"/>
				</clipPath>
				<g class="st71">
					<defs>
						<rect id="SVGID_166_" x="-823.3" y="-99.9" width="931.4" height="486.1"/>
					</defs>
					<clipPath id="SVGID_135_">
						<use xlink:href="#SVGID_166_"  style="overflow:visible;"/>
					</clipPath>
				</g>
			</g>
			<g>
				<defs>
					<path id="SVGID_168_" d="M-87.6,18.7V15c0-1,0.8-1.8,1.7-1.8h31.3c1,0,1.7,0.8,1.7,1.8v3.7H-87.6"/>
				</defs>
				<clipPath id="SVGID_137_">
					<use xlink:href="#SVGID_168_"  style="overflow:visible;"/>
				</clipPath>
				<g class="st73">
					<defs>
						<rect id="SVGID_170_" x="-823.3" y="-99.9" width="931.4" height="486.1"/>
					</defs>
					<clipPath id="SVGID_139_">
						<use xlink:href="#SVGID_170_"  style="overflow:visible;"/>
					</clipPath>
				</g>
			</g>
			<g>
				<defs>
					<path id="SVGID_172_" d="M-54.4,39.8h-31.8c-1.6,0-2.9-1.3-2.9-2.8V15.4c0-1.5,1.3-2.8,2.9-2.8h4.7v2.1h-4.7
						c-0.4,0-0.7,0.3-0.7,0.7V37c0,0.4,0.3,0.7,0.7,0.7h31.8c0.4,0,0.7-0.3,0.7-0.7V15.4c0-0.4-0.3-0.7-0.7-0.7h-21v-2.1h21
						c1.6,0,2.9,1.3,2.9,2.8V37C-51.5,38.6-52.8,39.8-54.4,39.8"/>
				</defs>
				<clipPath id="SVGID_141_">
					<use xlink:href="#SVGID_172_"  style="overflow:visible;"/>
				</clipPath>
				<g class="st75">
					<defs>
						<rect id="SVGID_174_" x="-823.3" y="-99.9" width="931.4" height="486.1"/>
					</defs>
					<clipPath id="SVGID_143_">
						<use xlink:href="#SVGID_174_"  style="overflow:visible;"/>
					</clipPath>
				</g>
			</g>
			<g>
				<defs>
					<rect id="SVGID_176_" x="-80.1" y="12.6" width="2.7" height="2"/>
				</defs>
				<clipPath id="SVGID_145_">
					<use xlink:href="#SVGID_176_"  style="overflow:visible;"/>
				</clipPath>
				<g class="st81">
					<defs>
						<rect id="SVGID_178_" x="-823.3" y="-99.9" width="931.4" height="486.1"/>
					</defs>
					<clipPath id="SVGID_147_">
						<use xlink:href="#SVGID_178_"  style="overflow:visible;"/>
					</clipPath>
				</g>
			</g>
			<g>
				<defs>
					<rect id="SVGID_180_" x="-87.6" y="18" width="34.8" height="2"/>
				</defs>
				<clipPath id="SVGID_149_">
					<use xlink:href="#SVGID_180_"  style="overflow:visible;"/>
				</clipPath>
				<g class="st82">
					<defs>
						<rect id="SVGID_182_" x="-823.3" y="-99.9" width="931.4" height="486.1"/>
					</defs>
					<clipPath id="SVGID_151_">
						<use xlink:href="#SVGID_182_"  style="overflow:visible;"/>
					</clipPath>
				</g>
			</g>
			<g>
				<defs>
					<rect id="SVGID_184_" x="-84.2" y="15.3" width="1.3" height="2"/>
				</defs>
				<clipPath id="SVGID_153_">
					<use xlink:href="#SVGID_184_"  style="overflow:visible;"/>
				</clipPath>
				<g class="st84">
					<defs>
						<rect id="SVGID_186_" x="-823.3" y="-99.9" width="931.4" height="486.1"/>
					</defs>
					<clipPath id="SVGID_155_">
						<use xlink:href="#SVGID_186_"  style="overflow:visible;"/>
					</clipPath>
				</g>
			</g>
			<g>
				<defs>
					<rect id="SVGID_188_" x="-80.8" y="15.3" width="1.3" height="2"/>
				</defs>
				<clipPath id="SVGID_157_">
					<use xlink:href="#SVGID_188_"  style="overflow:visible;"/>
				</clipPath>
				<g class="st86">
					<defs>
						<rect id="SVGID_190_" x="-823.3" y="-99.9" width="931.4" height="486.1"/>
					</defs>
					<clipPath id="SVGID_159_">
						<use xlink:href="#SVGID_190_"  style="overflow:visible;"/>
					</clipPath>
				</g>
			</g>
			<g>
				<defs>
					<rect id="SVGID_192_" x="-77.4" y="15.3" width="1.3" height="2"/>
				</defs>
				<clipPath id="SVGID_161_">
					<use xlink:href="#SVGID_192_"  style="overflow:visible;"/>
				</clipPath>
				<g class="st88">
					<defs>
						<rect id="SVGID_194_" x="-823.3" y="-99.9" width="931.4" height="486.1"/>
					</defs>
					<clipPath id="SVGID_163_">
						<use xlink:href="#SVGID_194_"  style="overflow:visible;"/>
					</clipPath>
				</g>
			</g>
			<g>
				<defs>
					<polyline id="SVGID_196_" points="-77.4,28.5 -77.4,27.4 -73.3,25.5 -73.3,26.7 -76,27.9 -73.3,29.1 -73.3,30.3 -77.4,28.5 
											"/>
				</defs>
				<use xlink:href="#SVGID_196_"  style="overflow:visible;fill-rule:evenodd;clip-rule:evenodd;fill:#CCCCCC;"/>
				<clipPath id="SVGID_165_">
					<use xlink:href="#SVGID_196_"  style="overflow:visible;"/>
				</clipPath>
				<g class="st90">
					<defs>
						<rect id="SVGID_198_" x="-823.3" y="-99.9" width="931.4" height="486.1"/>
					</defs>
					<use xlink:href="#SVGID_198_"  style="overflow:visible;fill:#CCCCCC;"/>
					<clipPath id="SVGID_167_">
						<use xlink:href="#SVGID_198_"  style="overflow:visible;"/>
					</clipPath>
				</g>
			</g>
			<g>
				<defs>
					<polyline id="SVGID_200_" points="-69.6,24.2 -68.5,24.2 -71.6,31 -72.6,31 -69.6,24.2 					"/>
				</defs>
				<use xlink:href="#SVGID_200_"  style="overflow:visible;fill-rule:evenodd;clip-rule:evenodd;fill:#CCCCCC;"/>
				<clipPath id="SVGID_169_">
					<use xlink:href="#SVGID_200_"  style="overflow:visible;"/>
				</clipPath>
				<g class="st92">
					<defs>
						<rect id="SVGID_202_" x="-823.3" y="-99.9" width="931.4" height="486.1"/>
					</defs>
					<use xlink:href="#SVGID_202_"  style="overflow:visible;fill:#CCCCCC;"/>
					<clipPath id="SVGID_171_">
						<use xlink:href="#SVGID_202_"  style="overflow:visible;"/>
					</clipPath>
				</g>
			</g>
			<g>
				<defs>
					<polyline id="SVGID_204_" points="-63.1,27.4 -63.1,28.5 -67.2,30.3 -67.2,29.1 -64.5,27.9 -67.2,26.7 -67.2,25.5 -63.1,27.4 
											"/>
				</defs>
				<use xlink:href="#SVGID_204_"  style="overflow:visible;fill-rule:evenodd;clip-rule:evenodd;fill:#CCCCCC;"/>
				<clipPath id="SVGID_173_">
					<use xlink:href="#SVGID_204_"  style="overflow:visible;"/>
				</clipPath>
				<g class="st94">
					<defs>
						<rect id="SVGID_206_" x="-823.3" y="-99.9" width="931.4" height="486.1"/>
					</defs>
					<use xlink:href="#SVGID_206_"  style="overflow:visible;fill:#CCCCCC;"/>
					<clipPath id="SVGID_175_">
						<use xlink:href="#SVGID_206_"  style="overflow:visible;"/>
					</clipPath>
				</g>
			</g>
			<g>
				<defs>
					<rect id="SVGID_208_" x="-50.1" y="29.6" width="11.6" height="2"/>
				</defs>
				<clipPath id="SVGID_177_">
					<use xlink:href="#SVGID_208_"  style="overflow:visible;"/>
				</clipPath>
				<g class="st96">
					<defs>
						<rect id="SVGID_210_" x="-823.3" y="-99.9" width="931.4" height="486.1"/>
					</defs>
					<clipPath id="SVGID_179_">
						<use xlink:href="#SVGID_210_"  style="overflow:visible;"/>
					</clipPath>
				</g>
			</g>
			<g>
				<defs>
					<rect id="SVGID_212_" x="-46.7" y="34.4" width="4.1" height="2"/>
				</defs>
				<clipPath id="SVGID_181_">
					<use xlink:href="#SVGID_212_"  style="overflow:visible;"/>
				</clipPath>
				<g class="st98">
					<defs>
						<rect id="SVGID_214_" x="-823.3" y="-99.9" width="931.4" height="486.1"/>
					</defs>
					<clipPath id="SVGID_183_">
						<use xlink:href="#SVGID_214_"  style="overflow:visible;"/>
					</clipPath>
				</g>
			</g>
			<g>
				<defs>
					<rect id="SVGID_216_" x="-61.7" y="40.5" width="11.6" height="2"/>
				</defs>
				<clipPath id="SVGID_185_">
					<use xlink:href="#SVGID_216_"  style="overflow:visible;"/>
				</clipPath>
				<g class="st100">
					<defs>
						<rect id="SVGID_218_" x="-823.3" y="-99.9" width="931.4" height="486.1"/>
					</defs>
					<clipPath id="SVGID_187_">
						<use xlink:href="#SVGID_218_"  style="overflow:visible;"/>
					</clipPath>
				</g>
			</g>
			<g>
				<defs>
					<rect id="SVGID_220_" x="-48.1" y="40.5" width="6.1" height="2"/>
				</defs>
				<clipPath id="SVGID_189_">
					<use xlink:href="#SVGID_220_"  style="overflow:visible;"/>
				</clipPath>
				<g class="st102">
					<defs>
						<rect id="SVGID_222_" x="-823.3" y="-99.9" width="931.4" height="486.1"/>
					</defs>
					<clipPath id="SVGID_191_">
						<use xlink:href="#SVGID_222_"  style="overflow:visible;"/>
					</clipPath>
				</g>
			</g>
			<g>
				<defs>
					<rect id="SVGID_224_" x="-65.8" y="40.5" width="2" height="2"/>
				</defs>
				<clipPath id="SVGID_193_">
					<use xlink:href="#SVGID_224_"  style="overflow:visible;"/>
				</clipPath>
				<g class="st104">
					<defs>
						<rect id="SVGID_226_" x="-823.3" y="-99.9" width="931.4" height="486.1"/>
					</defs>
					<clipPath id="SVGID_195_">
						<use xlink:href="#SVGID_226_"  style="overflow:visible;"/>
					</clipPath>
				</g>
			</g>
			<g>
				<defs>
					<rect id="SVGID_228_" x="-76" y="44.6" width="11.6" height="2"/>
				</defs>
				<clipPath id="SVGID_197_">
					<use xlink:href="#SVGID_228_"  style="overflow:visible;"/>
				</clipPath>
				<g class="st106">
					<defs>
						<rect id="SVGID_230_" x="-823.3" y="-99.9" width="931.4" height="486.1"/>
					</defs>
					<clipPath id="SVGID_199_">
						<use xlink:href="#SVGID_230_"  style="overflow:visible;"/>
					</clipPath>
				</g>
			</g>
			<g>
				<defs>
					<rect id="SVGID_232_" x="-68.5" y="49.4" width="11.6" height="2"/>
				</defs>
				<clipPath id="SVGID_201_">
					<use xlink:href="#SVGID_232_"  style="overflow:visible;"/>
				</clipPath>
				<g class="st108">
					<defs>
						<rect id="SVGID_234_" x="-823.3" y="-99.9" width="931.4" height="486.1"/>
					</defs>
					<clipPath id="SVGID_203_">
						<use xlink:href="#SVGID_234_"  style="overflow:visible;"/>
					</clipPath>
				</g>
			</g>
			<g>
				<defs>
					<rect id="SVGID_236_" x="-54.2" y="49.4" width="6.1" height="2"/>
				</defs>
				<clipPath id="SVGID_205_">
					<use xlink:href="#SVGID_236_"  style="overflow:visible;"/>
				</clipPath>
				<g class="st110">
					<defs>
						<rect id="SVGID_238_" x="-823.3" y="-99.9" width="931.4" height="486.1"/>
					</defs>
					<clipPath id="SVGID_207_">
						<use xlink:href="#SVGID_238_"  style="overflow:visible;"/>
					</clipPath>
				</g>
			</g>
		</g>
	</g>
	<g id="XMLID_332_">
		<path class="st0" d="M26.6,58.5c0,1.2-1,2.2-2.2,2.2c-1.2,0-2.2-1-2.2-2.2s1-2.2,2.2-2.2C25.7,56.4,26.6,57.3,26.6,58.5z"/>
	</g>
	<g id="XMLID_330_">
		<path class="st0" d="M6.9,52.5c0,1.4-1.1,2.4-2.4,2.4S2,53.8,2,52.5C2,51.1,3.1,50,4.4,50S6.9,51.1,6.9,52.5z"/>
	</g>
</g>
<g id="specctr">
	<g id="Text_Properties">
	</g>
</g>
</svg>
