<?xml version="1.0" encoding="UTF-8"?>
<svg width="264px" height="178px" viewBox="0 0 264 178" version="1.1" xmlns="http://www.w3.org/2000/svg" xmlns:xlink="http://www.w3.org/1999/xlink">
    <!-- Generator: Sketch 48.2 (47327) - http://www.bohemiancoding.com/sketch -->
    <title>Page 1</title>
    <desc>Created with Sketch.</desc>
    <defs></defs>
    <g id="retail-dashboard-final" stroke="none" stroke-width="1" fill="none" fill-rule="evenodd" transform="translate(-685.000000, -193.000000)" opacity="0.098131795">
        <g id="recent" transform="translate(577.000000, 141.000000)" fill="#8B8B8B">
            <g id="Page-1">
                <g transform="translate(340.430993, 243.956711) rotate(-10.000000) translate(-340.430993, -243.956711) translate(114.430993, 60.456711)">
                    <path d="M0.159919152,127.330384 L4.68958206e-13,126.925842 L259.160409,7.68127078 C302.70411,-12.3554343 353.604091,8.15720202 372.817235,53.5134488 L373,53.9179904 L113.839591,173.186358 C70.2730446,193.223063 19.3959086,172.68663 0.159919152,127.330384" id="Fill-1"></path>
                    <path d="M79.1670146,313.428428 L79.0072183,313.023865 L337.968513,193.772854 C381.478759,173.735067 432.339634,194.248811 451.560845,239.607507 L451.720641,240.012071 L192.759346,359.286879 C149.2491,379.324666 98.388225,358.787124 79.1670146,313.428428" id="Fill-3"></path>
                    <path d="M73.3224709,301.733084 L73.4813398,302.136364 L330.962471,183.240049 C374.220209,163.265848 393.783782,110.436221 374.674121,65.2214614 L374.515252,64.8181818 L117.03412,183.690774 C73.7990776,203.664975 54.2128091,256.518324 73.3224709,301.733084" id="Fill-6"></path>
                </g>
            </g>
        </g>
    </g>
</svg>