<svg xmlns="http://www.w3.org/2000/svg" xmlns:xlink="http://www.w3.org/1999/xlink" width="177.75" height="130.75" viewBox="0 0 177.75 130.75"><defs><ellipse id="a" cx="157.485" cy="-165.189" rx="100.599" ry="100.392"/></defs><clipPath id="b"><use xlink:href="#a" overflow="visible"/></clipPath><g clip-path="url(#b)"><linearGradient id="c" gradientUnits="userSpaceOnUse" x1="74.83" y1="-169.981" x2="287.697" y2="42.887"><stop offset="0" stop-opacity=".2"/><stop offset=".995" stop-color="#fff" stop-opacity="0"/></linearGradient><path fill="url(#c)" d="M337.389-6.806l-184.201-184.201-27.819 25.126-5.943-5.943-.775 1.383-21.68-21.681-2.562 35.115 1.371 1.371-44.319 23.3 29.391 29.391-13.774 24.595 167.342 167.342 19.184-19.184 2.544 2.544 7.143-7.143 1.042 1.041z"/></g><path d="M131.408 4.25h-61.158v8.133c10 3.157 19.212 7.867 26.061 15.867h30.939v11h-22.822c2.5 4 4.468 9 5.813 14h44.01v11h-42.115c.119 1 .199 3.096.199 4.668 0 3.176-.254 6.332-.731 9.332h42.647v11h-45.475c-1.818 5-4.3 9-7.322 14h52.797v11h-62.811c-5.924 5-14.19 9.252-21.19 11.702v2.298h104v-84l-42.842-40zm-78.408 15.584c-27.246 0-49.334 22.088-49.334 49.334s22.088 49.333 49.334 49.333 49.333-22.087 49.333-49.333-22.087-49.334-49.333-49.334zm.039 79.448l-27.072-26.97 4.803-5.056 17.48 17.938v-41.944h8v41.945l18.373-17.938 5.371 5.056-26.955 26.969z" fill="#A6A6A6"/></svg>