<svg xmlns="http://www.w3.org/2000/svg" width="300" height="300" viewBox="0 0 300 300"><path fill="#F7F7F7" d="M157.192 129.976l-13.841-13.984-13.982 13.984-13.984-13.984-13.985 13.984-13.984-13.984-13.984 13.984-13.984-13.984-14.224 13.984-14.224-13.985v118.009h140v-117.975l-13.808 13.951zm-12.879 28.817l-7.439 7.439-45.029 45.03-4.599 4.597-3.215-3.214-1.383-1.383h.001l-23.826-23.825 4.598-4.599 23.825 23.825 52.47-52.469 3.209 3.209 1.388 1.39z"/><linearGradient id="a" gradientUnits="userSpaceOnUse" x1="85.164" y1="156.713" x2="184.797" y2="256.346"><stop offset="0" stop-opacity=".3"/><stop offset=".695" stop-color="#F7F7F7" stop-opacity="0"/></linearGradient><path fill="url(#a)" d="M144.313 158.793l-7.44 7.439-45.029 45.031-4.599 4.596-3.215-3.213 12.477 12.475 8.878 8.879h65.615v-48.52z"/><linearGradient id="b" gradientUnits="userSpaceOnUse" x1="141.723" y1="145.591" x2="239.573" y2="243.441"><stop offset="0" stop-opacity=".4"/><stop offset="1" stop-color="#fff" stop-opacity="0"/></linearGradient><path fill="url(#b)" d="M171 234h78.014l20.123-20.123-97.849-97.852-.288.42v69.035z"/><path fill="#F7F7F7" d="M58.822 187.438l23.826 23.825z"/><linearGradient id="c" gradientUnits="userSpaceOnUse" x1="58.822" y1="199.35" x2="195.853" y2="199.35"><stop offset="0" stop-opacity=".3"/><stop offset=".695" stop-color="#47DA63" stop-opacity="0"/></linearGradient><path fill="url(#c)" d="M58.822 187.438l23.826 23.825z"/><path fill="#5351DF" d="M82.647 211.263l1.383 1.383-1.382-1.383zm60.277-53.859l-3.209-3.209-52.47 52.469-23.825-23.825-4.598 4.599 23.826 23.825 1.382 1.383 3.215 3.213 4.599-4.596 45.029-45.031 7.44-7.439z"/></svg>