<svg xmlns="http://www.w3.org/2000/svg" width="300" height="300"><rect width="100%" height="100%" fill="none"/><g class="currentLayer"><title>Layer 1</title><g class="selected" fill="#01c4c8"><path d="M63 103v94h174v-94h-174zm170 90h-166v-86h166v86zM225.073 167.447l-.073.004v.005l.073-.009zM225 132.095v.005l.073.004-.073-.009zM94.535 113c-.124 10.568-8.74 19.104-19.358 19.104l-.177-.009v35.361l.177-.009c10.696 0 19.371 8.652 19.371 19.322l-.013.23h111.43l-.014-.23c0-10.646 8.388-19.279 19.049-19.318v-35.351c-10.583-.039-18.912-8.556-19.035-19.1h-111.43zm78.354 36.769c0 12.493-10.132 22.627-22.639 22.667-12.507-.04-22.639-10.174-22.639-22.667 0-12.485 10.132-22.613 22.639-22.653 12.507.039 22.639 10.167 22.639 22.653z"/></g></g></svg>