<svg xmlns="http://www.w3.org/2000/svg" width="300" height="300"><rect width="100%" height="100%" fill="none"/><g class="currentLayer"><title>Layer 1</title><path fill="#01c4c8" d="M190.962 159.873c-4.524-11.975-11.979-12.773-21.294-13.838-8.784-3.192-19.165-9.047-20.763-5.587-1.331 2.66-1.597 4.258 1.598 7.185 6.92 5.588 10.913 8.248 11.978 10.645-5.591-1.863-11.181-5.057-16.237-9.049-2.926-2.394-2.13-4.788-1.331-8.513 1.064-5.323 5.591-7.185 12.778-5.323.265-.797.265-3.724.265-4.256.532-3.992-3.727-4.79-5.057-4.258 1.863-5.854-8.785-8.248-11.712-1.863-4.793 7.984-4.261 14.369-2.395 22.619 1.328 7.451 4.256 9.847 9.581 13.039 4.258 2.662 10.646 6.919 17.302 7.451 8.519 2.128 13.843 6.12 17.035 11.173 6.388-2.394 12.244-5.587 15.971-11.708-.267-2.394-7.187-5.854-7.719-7.717z" class="selected"/></g></svg>