<?xml version="1.0" encoding="utf-8"?>
<!-- Generator: Adobe Illustrator 23.0.1, SVG Export Plug-In . SVG Version: 6.00 Build 0)  -->
<svg version="1.1" id="Layer_1" xmlns="http://www.w3.org/2000/svg" xmlns:xlink="http://www.w3.org/1999/xlink" x="0px" y="0px"
	 viewBox="0 0 64 64" style="enable-background:new 0 0 64 64;" xml:space="preserve">
<style type="text/css">
	.st0{fill:#FFFFFF;stroke:#171C28;stroke-linecap:round;stroke-linejoin:round;stroke-miterlimit:10;}
	.st1{fill:#FFFFFF;}
	.st2{fill:#171C28;}
	.st3{fill:none;stroke:#4C5C68;stroke-width:0.9106;stroke-miterlimit:10;}
	.st4{fill:none;stroke:#171C28;stroke-linecap:round;stroke-linejoin:round;stroke-miterlimit:10;}
	.st5{fill:none;stroke:#4C5C68;stroke-width:1.0828;stroke-linecap:round;stroke-linejoin:round;stroke-miterlimit:10;}
	.st6{fill:none;stroke:#4C5C68;stroke-width:1.1103;stroke-linecap:round;stroke-linejoin:round;stroke-miterlimit:10;}
	.st7{fill:#BC0110;stroke:#171C28;stroke-linecap:round;stroke-linejoin:round;stroke-miterlimit:10;}
	.st8{fill:#BC0110;}
	.st9{fill:#FFFFFF;stroke:#171C28;stroke-width:0.9273;stroke-linecap:round;stroke-linejoin:round;stroke-miterlimit:10;}
	.st10{fill:#4C5C68;}
	.st11{fill:#FFFFFF;stroke:#171C28;stroke-width:0.9403;stroke-linecap:round;stroke-linejoin:round;stroke-miterlimit:10;}
	.st12{fill:none;stroke:#4C5C68;stroke-linecap:round;stroke-linejoin:round;stroke-miterlimit:10;}
	.st13{fill:#CEE8FA;}
	.st14{fill:#CEE8FA;stroke:#4C5C68;stroke-linecap:round;stroke-linejoin:round;stroke-miterlimit:10;}
	.st15{fill:#F9CA38;stroke:#4C5C68;stroke-linecap:round;stroke-linejoin:round;stroke-miterlimit:10;}
	.st16{fill:#FFFFFF;stroke:#4C5C68;stroke-linecap:round;stroke-linejoin:round;stroke-miterlimit:10;}
	.st17{fill:#FFFFFF;stroke:#FEBD2E;stroke-linecap:round;stroke-linejoin:round;stroke-miterlimit:10;}
	.st18{fill:#FEBD2E;stroke:#4C5C68;stroke-linecap:round;stroke-linejoin:round;stroke-miterlimit:10;}
	.st19{fill:#286090;}
	.st20{fill:#F9CA38;}
	.st21{fill:#FFFFFF;stroke:#4C5C68;stroke-width:1.2173;stroke-linecap:round;stroke-linejoin:round;stroke-miterlimit:10;}
	.st22{fill:#FFFFFF;stroke:#4C5C68;stroke-width:0.8881;stroke-linecap:round;stroke-linejoin:round;stroke-miterlimit:10;}
	.st23{fill:none;stroke:#CEE8FA;stroke-width:1.0985;stroke-linecap:round;stroke-linejoin:round;stroke-miterlimit:10;}
	.st24{opacity:0.6;fill:#286090;}
	.st25{fill:none;stroke:#4C5C68;stroke-width:1.0254;stroke-linecap:round;stroke-linejoin:round;stroke-miterlimit:10;}
	.st26{fill:#FFFFFF;stroke:#4C5C68;stroke-miterlimit:10;}
	.st27{fill:none;stroke:#286090;stroke-linecap:round;stroke-linejoin:round;stroke-miterlimit:10;stroke-dasharray:0,2;}
	.st28{fill:none;stroke:#286090;stroke-linecap:round;stroke-linejoin:round;stroke-miterlimit:10;}
	.st29{fill:#FEBD2E;}
	.st30{fill:none;stroke:#CEE8FA;stroke-linecap:round;stroke-linejoin:round;stroke-miterlimit:10;}
	.st31{fill:#FFFFFF;stroke:#171C28;stroke-miterlimit:10;}
	.st32{fill:#FFFFFF;stroke:#171C28;stroke-width:1.0268;stroke-linecap:round;stroke-linejoin:round;stroke-miterlimit:10;}
	.st33{fill:none;stroke:#171C28;stroke-width:1.0268;stroke-linecap:round;stroke-linejoin:round;stroke-miterlimit:10;}
	.st34{fill:#6B6B6B;}
	.st35{fill:none;stroke:#FFFFFF;stroke-width:1.0985;stroke-linecap:round;stroke-linejoin:round;stroke-miterlimit:10;}
	.st36{fill:#FFFFFF;stroke:#171C28;stroke-width:1.0688;stroke-linecap:round;stroke-linejoin:round;stroke-miterlimit:10;}
	.st37{fill:none;stroke:#4C5C68;stroke-width:1.1073;stroke-linecap:round;stroke-linejoin:round;stroke-miterlimit:10;}
	.st38{fill:none;stroke:#4C5C68;stroke-width:1.0096;stroke-linecap:round;stroke-linejoin:round;stroke-miterlimit:10;}
	.st39{fill:#FFFFFF;stroke:#171C28;stroke-width:1.1331;stroke-linecap:round;stroke-linejoin:round;stroke-miterlimit:10;}
	.st40{fill:none;stroke:#171C28;stroke-linecap:round;stroke-linejoin:round;stroke-miterlimit:10;stroke-dasharray:0,2;}
	.st41{fill:none;stroke:#BC0110;stroke-linecap:round;stroke-linejoin:round;stroke-miterlimit:10;}
	.st42{fill:none;stroke:#333333;stroke-width:2;stroke-linecap:round;stroke-linejoin:round;stroke-miterlimit:10;}
	.st43{fill:#FFFFFF;stroke:#171C28;stroke-width:1.211;stroke-linecap:round;stroke-linejoin:round;stroke-miterlimit:10;}
	.st44{fill:#171C28;stroke:#000000;stroke-width:0.2;stroke-linecap:round;stroke-linejoin:round;stroke-miterlimit:10;}
	.st45{fill:#FFFFFF;stroke:#4C5C68;stroke-width:0.9531;stroke-linecap:round;stroke-linejoin:round;stroke-miterlimit:10;}
	.st46{fill:#5FB0E5;}
	.st47{fill:#D2E9F7;}
	.st48{fill:#0686D8;}
	.st49{fill:#9ECFEF;}
	.st50{fill:none;stroke:#4C5C68;stroke-miterlimit:10;}
	.st51{fill:#4C5C68;stroke:#4C5C68;stroke-width:0.4;stroke-linecap:round;stroke-linejoin:round;stroke-miterlimit:10;}
	.st52{fill:#FED65C;}
	.st53{fill:none;stroke:#FFFFFF;stroke-linecap:round;stroke-linejoin:round;stroke-miterlimit:10;}
	.st54{fill:none;stroke:#4C5C68;stroke-width:1.3058;stroke-miterlimit:10;}
	.st55{fill:#EBF0F2;}
	.st56{fill:#B8D1CD;}
	.st57{fill:#DCEAE7;}
	.st58{fill:#EFB19E;}
	.st59{fill:#CCED9F;}
	.st60{fill:#A4EDE6;}
	.st61{fill:#111416;}
	.st62{fill:#567771;}
	.st63{fill:#FACC40;}
	.st64{fill:#FFF380;}
	.st65{fill:#E2932B;}
	.st66{fill:#78A09A;}
	.st67{fill:#253330;}
	.st68{fill:#FFFFFF;stroke:#4C5C68;stroke-width:1.1677;stroke-linecap:round;stroke-linejoin:round;stroke-miterlimit:10;}
	.st69{fill:#FFFFFF;stroke:#4C5C68;stroke-width:1.1657;stroke-linecap:round;stroke-linejoin:round;stroke-miterlimit:10;}
	.st70{fill:#FFFFFF;stroke:#171C28;stroke-width:0.9983;stroke-linecap:round;stroke-linejoin:round;stroke-miterlimit:10;}
	.st71{fill:#FFFFFF;stroke:#171C28;stroke-width:1.0727;stroke-linecap:round;stroke-linejoin:round;stroke-miterlimit:10;}
	.st72{fill:#BC0110;stroke:#FFFFFF;stroke-linecap:round;stroke-linejoin:round;stroke-miterlimit:10;}
	.st73{fill:#CEE8FA;stroke:#4C5C68;stroke-width:0.965;stroke-linecap:round;stroke-linejoin:round;stroke-miterlimit:10;}
	.st74{fill:#41464B;}
	.st75{fill:#FFFFFF;stroke:#171C28;stroke-width:1.1013;stroke-linecap:round;stroke-linejoin:round;stroke-miterlimit:10;}
	.st76{fill:none;stroke:#171C28;stroke-width:1.1013;stroke-linecap:round;stroke-linejoin:round;stroke-miterlimit:10;}
	.st77{fill:#BC0110;stroke:#171C28;stroke-width:1.1013;stroke-linecap:round;stroke-linejoin:round;stroke-miterlimit:10;}
	.st78{stroke:#171C28;stroke-linecap:round;stroke-linejoin:round;stroke-miterlimit:10;}
	.st79{fill:#FFFFFF;stroke:#171C28;stroke-width:0.9891;stroke-linecap:round;stroke-linejoin:round;stroke-miterlimit:10;}
	.st80{fill:none;stroke:#171C28;stroke-width:0.5274;stroke-linecap:round;stroke-linejoin:round;stroke-miterlimit:10;}
	.st81{fill:none;stroke:#4C5C68;stroke-width:1.1135;stroke-linecap:round;stroke-linejoin:round;stroke-miterlimit:10;}
	.st82{fill:#F9CA38;stroke:#4C5C68;stroke-width:1.1723;stroke-miterlimit:10;}
	.st83{fill:none;stroke:#4C5C68;stroke-width:1.0796;stroke-linecap:round;stroke-linejoin:round;stroke-miterlimit:10;}
	.st84{fill:none;stroke:#4C5C68;stroke-width:1.136;stroke-linecap:round;stroke-linejoin:round;stroke-miterlimit:10;}
	.st85{fill:#FFFFFF;stroke:#4C5C68;stroke-width:1.0796;stroke-linecap:round;stroke-linejoin:round;stroke-miterlimit:10;}
	.st86{fill:#007395;}
	.st87{fill:#FFFFFF;stroke:#171C28;stroke-width:0.8477;stroke-linecap:round;stroke-linejoin:round;stroke-miterlimit:10;}
	.st88{fill:#FFFFFF;stroke:#171C28;stroke-width:1.0138;stroke-linecap:round;stroke-linejoin:round;stroke-miterlimit:10;}
	.st89{fill:#FFFFFF;stroke:#171C28;stroke-width:0.9779;stroke-linecap:round;stroke-linejoin:round;stroke-miterlimit:10;}
</style>
<g>
	<g id="XMLID_1083_">
		<ellipse id="XMLID_1086_" class="st0" cx="15.4" cy="37.8" rx="9.9" ry="9.8"/>
		<ellipse id="XMLID_1085_" class="st8" cx="15.4" cy="37.8" rx="7.8" ry="7.7"/>
		<g id="XMLID_730_">
			<path id="XMLID_731_" class="st1" d="M15.3,33.2c0.3,0,0.5,0.2,0.5,0.5v0.2c0.6,0.1,1.2,0.3,1.7,0.6c0.2,0.1,0.3,0.3,0.3,0.5
				c0,0.3-0.3,0.6-0.6,0.6c-0.1,0-0.2,0-0.3-0.1c-0.4-0.2-0.8-0.4-1.1-0.5v2.1c1.7,0.4,2.4,1.1,2.4,2.2c0,1.2-0.9,2-2.3,2.1v0.7
				c0,0.3-0.2,0.5-0.5,0.5c-0.3,0-0.5-0.2-0.5-0.5v-0.7c-0.8-0.1-1.6-0.4-2.2-0.8c-0.2-0.1-0.3-0.3-0.3-0.5c0-0.3,0.3-0.6,0.6-0.6
				c0.1,0,0.3,0,0.4,0.1c0.5,0.4,1,0.6,1.6,0.7v-2.1c-1.6-0.4-2.3-1-2.3-2.2c0-1.2,0.9-2,2.3-2.1v-0.2
				C14.8,33.4,15.1,33.2,15.3,33.2z M14.9,36.9V35c-0.7,0.1-1,0.4-1,0.9C13.8,36.3,14,36.6,14.9,36.9z M15.7,38.4v2
				c0.7-0.1,1.1-0.4,1.1-0.9C16.8,39,16.6,38.7,15.7,38.4z"/>
		</g>
	</g>
	<rect id="XMLID_304_" x="55.2" y="29.3" class="st0" width="3.3" height="10.9"/>
	<polyline id="XMLID_280_" class="st0" points="56.3,43.6 56.3,20.5 19.8,20.5 19.8,50.1 56.3,50.1 56.3,47.6 	"/>
	<path id="XMLID_300_" class="st0" d="M56.3,24.9H24.7c-2.4,0-4.9-1.8-4.9-4.2v-0.1c0-2.4,2.4-4.4,4.9-4.4h31.6V24.9z"/>
	<path id="XMLID_1115_" class="st0" d="M58.5,40.2H45.7c-2.2,0-3.7-1.4-3.7-3.5v0.1c0-2,1.5-3.2,3.7-3.2h12.8V40.2z"/>
	<line id="XMLID_278_" class="st40" x1="22.8" y1="29.3" x2="53.7" y2="29.3"/>
	<line id="XMLID_277_" class="st40" x1="22.8" y1="46.8" x2="53.7" y2="46.8"/>
	<ellipse id="XMLID_276_" class="st2" cx="45.3" cy="36.9" rx="1.4" ry="1.3"/>
	<polyline id="XMLID_275_" class="st7" points="32,17.8 32,13.9 54.1,13.9 54.1,17.8 	"/>
	<polyline id="XMLID_279_" class="st7" points="24.2,22.1 24.2,19.4 53,19.4 53,22.1 	"/>
</g>
</svg>
