<svg xmlns="http://www.w3.org/2000/svg" width="120.25" height="120.25" viewBox="0 0 120.25 120.25"><path fill="#F7F7F7" d="M60.334 3.584c-31.338 0-56.834 25.496-56.834 56.834 0 31.338 25.496 56.833 56.834 56.833 3.623 0 7.286-.354 10.889-1.054 20.568-3.993 37.201-18.913 43.406-38.938 1.685-5.438 2.539-11.104 2.539-16.841-.001-31.338-25.496-56.834-56.834-56.834z"/><linearGradient id="a" gradientUnits="userSpaceOnUse" x1="54.262" y1="57.9" x2="117.056" y2="120.694"><stop offset="0" stop-opacity=".2"/><stop offset=".995" stop-color="#fff" stop-opacity="0"/></linearGradient><path fill="url(#a)" d="M112.24 76.52l-38.299-38.299-11.71 18.425-.49-.49-25.471 23.111 34.477 34.477c19.718-3.829 35.633-18.312 41.493-37.224z"/><path fill="#5351DF" d="M63.747 32.583c0-1.865-1.517-3.453-3.399-3.453s-3.4 1.61-3.4 3.484c0 .095.001.386.017.386h6.767c.014 0 .015-.313.015-.417z"/><path fill="#1CD9DF" d="M83.158 70h-3.908v-18.738c0-9.228-6-16.912-15-18.5v.238h-7v-.238c-9 1.588-16 9.272-16 18.5v18.738h-3.723c-.695 0-1.277.618-1.277 1.314v6.693c0 .696.582 1.992 1.277 1.992h45.613c.696 0 1.11-1.296 1.11-1.992v-6.693c0-.696-.405-1.314-1.092-1.314z"/><path fill="#5351DF" d="M60.133 92.272c4.043 0 7.318-4.272 7.318-8.272h-14.636c0 4 3.275 8.272 7.318 8.272z"/></svg>