<?xml version="1.0" standalone="no"?>
<!DOCTYPE svg PUBLIC "-//W3C//DTD SVG 1.1//EN" "http://www.w3.org/Graphics/SVG/1.1/DTD/svg11.dtd">
<svg xmlns="http://www.w3.org/2000/svg">
<metadata>Generated by Fontastic.me</metadata>
<defs>
<font id="untitled-font-1" horiz-adv-x="512">
<font-face font-family="untitled-font-1" units-per-em="512" ascent="480" descent="-32"/>
<missing-glyph horiz-adv-x="512" />

<glyph glyph-name="accept" unicode="&#57496;" d="M256 514c-142 0-258-116-258-258 0-142 116-258 258-258 142 0 258 116 258 258 0 142-116 258-258 258z m0-489c-127 0-231 104-231 231 0 127 104 231 231 231 127 0 231-104 231-231 0-127-104-231-231-231z m138 340c-4 0-7-2-9-5l-163-182-96 78c-5 5-13 3-18-2-5-6-4-14 2-19l106-85c1 0 2 0 2-1l2-1c2-1 3-1 5-1 1 0 4 1 5 2l2 1c1 0 2 0 2 1l171 191c2 3 3 7 3 10 0 3-2 6-4 9-4 3-7 4-10 4z m-173-211z"/>
<glyph glyph-name="account-funding" unicode="&#57497;" d="M478 427l-380 0c-19 0-35-15-35-34l0-30-29 0c-18 0-34-15-34-34l0-211c0-19 15-35 34-35l381 0c19 0 35 15 35 35l0 29 29 0c19 0 35 15 35 35l0 212c-2 18-17 33-36 33z m-56-309c0-4-4-8-8-8l-380 0c-4 0-8 4-8 8l0 212c0 4 4 8 8 8l381 0c5 0 8-4 8-8l0-212z m64 64c0-4-4-8-8-8l-29 0 0 156c0 18-15 34-35 34l-324 0 0 30c0 4 4 8 8 8l380 0c5 0 8-4 8-8z m-262 119c-42 0-76-35-76-76 0-43 34-76 76-76 42 0 76 34 76 76 1 41-34 76-76 76z m0-127c-28 0-50 22-50 50 0 28 22 50 50 50 28 0 50-22 50-50 0-27-22-50-50-50z"/>
<glyph glyph-name="account-summary" unicode="&#61467;" d="M414 512l-233 0c-1 0-2 0-3-1l-1-1c-2 0-3-1-4-2l-106-106c-1 0-1-2-2-4l-1 0c0-1-1-2-1-4l0-360c0-20 15-35 35-35l316 0c20 0 35 15 35 35l0 444c0 19-15 34-35 34z m8-34l0-444c0-5-4-8-8-8l-316 0c-5 0-8 4-8 8l0 346 71 0c19 0 34 15 34 34l0 72 219 0c5 0 8-4 8-8z m-314-72l61 61 0-53c0-4-4-8-8-8z m243-148l-169 0c-7 0-12-5-12-12 0-8 5-13 12-13l169 0c7 0 13 5 13 13 0 7-6 12-13 12z m0-105l-169 0c-7 0-12-6-12-13 0-7 5-13 12-13l169 0c7 0 13 6 13 13 0 7-6 13-13 13z"/>
<glyph glyph-name="accounts" unicode="&#61468;" d="M512 67l-2 16c-9 63-64 111-127 111l-55 16c-2 1-5 1-7 0l-55-16c-4 0-9 0-13 0-18 15-40 24-64 24l-42 12c-2 1-5 1-6 0l-42-12c-49 0-90-37-97-85l-2-13c-1-3 1-7 3-10 3-2 6-4 9-4l134 0c-3-7-4-15-6-22l-2-16c-1-4 0-8 3-10 2-4 6-5 10-5l347 0c4 0 8 1 11 5 2 2 4 6 3 9z m-486 63c5 37 38 65 75 65 1 0 2 0 3 1l40 12 40-12c1 0 2-1 3-1 12 0 24-3 35-9-28-10-52-30-67-56z m140-51l0 1c2 10 4 18 8 26 4 9 8 17 14 24 14 18 35 31 58 36 7 1 14 2 20 2 2 0 3 0 4 1l3 1 50 14 53-15c2 0 2-1 4-1 50 0 94-38 102-88l0-1z m70 244c5-41 39-72 81-72 41 0 76 31 81 72l4 47c3 23-4 45-20 63-15 17-37 27-60 27l-11 0c-23 0-45-10-61-27-16-18-22-40-20-63z m35 92c11 11 25 19 41 19l10 0c16 0 31-7 41-19 11-11 15-27 14-42l-5-47c-3-27-26-48-54-48-28 0-52 21-55 48l-5 47c-3 15 3 30 13 42z m-196-101c3-32 31-56 63-56 33 0 60 24 64 56l4 36c1 17-4 36-16 49-12 14-30 22-48 22l-8 0c-18 0-35-8-47-22-12-13-17-31-16-49z m30 70c7 9 18 14 29 14l8 0c12 0 23-5 30-14 7-9 11-20 10-31l-4-35c-3-20-20-36-40-36-20 0-37 16-39 36l-4 35c-1 11 2 22 10 31z"/>
<glyph glyph-name="add" unicode="&#61469;" d="M438 438c-48 49-113 76-182 76-69 0-134-27-182-76-48-48-76-113-76-182 0-69 27-134 76-182 48-49 113-76 182-76 69 0 134 27 182 76 49 48 76 113 76 182 0 69-28 134-76 182z m49-182c0-62-24-120-68-163-43-44-101-68-163-68-62 0-120 24-163 68-44 43-68 101-68 163 0 62 24 120 68 163 43 44 101 68 163 68 62 0 120-24 163-68 44-43 68-101 68-163z m-217 13l0 150c0 7-6 13-13 13-7 0-13-6-13-13l0-149-147 0c-7 0-13-6-13-13 0-7 6-13 13-13l146 0 0-164c0-7 6-13 13-13 7 0 13 6 13 13l0 163 146 0c7 0 13 6 13 13 0 7-6 13-13 13z"/>
<glyph glyph-name="add-occupation" unicode="&#61470;" d="M457 406l-93 0 0 51c0 18-15 34-34 34l-148 0c-18 0-34-15-34-34l0-51-93 0c-30 0-55-24-55-55l0-274c0-31 25-55 55-55l402 0c30 0 55 24 55 55l0 274c0 31-25 55-55 55z m-283 51c0 5 4 8 8 8l148 0c4 0 8-4 8-8l0-51-164 0z m283-410l-402 0c-16 0-29 13-29 30l0 221 12-12c20-21 47-37 76-47l76-24 0-12c0-18 15-34 34-34l64 0c18 0 34 15 34 34l0 12 76 24c29 9 56 26 76 47l13 13 0-221c-1-18-14-31-30-31z m-241 156l0 43c0 4 4 8 8 8l64 0c5 0 8-4 8-8l0-43c0-5-4-8-8-8l-64 0c-4 0-8 3-8 8z m174 60l-68-21 0 3c0 18-16 34-35 34l-63 0c-18 0-34-15-34-34l0-3-69 21c-25 8-47 22-66 40l-30 31 0 16c0 16 13 30 29 30l402 0c16 0 30-13 30-30l0-16-32-32c-17-17-40-31-64-39z"/>
<glyph glyph-name="add-on-card" unicode="&#61471;" d="M499 147l-48 0 0 48c0 7-5 13-13 13-7 0-12-6-12-13l0-48-48 0c-8 0-13-5-13-13 0-7 5-12 13-12l48 0 0-48c0-8 5-13 12-13 8 0 13 5 13 13l0 48 48 0c7 0 13 5 13 12 0 8-6 13-13 13z m-21 280l-444 0c-19 0-34-15-34-34l0-275c0-19 15-34 34-34l272 0c7 0 12 6 12 13 0 7-5 13-12 13l-272 0c-4 0-8 4-8 8l0 156 460 0 0-71c0-7 6-13 13-13 7 0 13 6 13 13l0 191c0 18-15 33-34 33z m8-126l-460 0 0 37 460 0 0-37z m0 63l-460 0 0 30c0 4 4 8 8 8l444 0c4 0 8-4 8-8l0-30z m-445-184c0-9 7-16 16-16 9 0 16 7 16 16 0 9-7 16-16 16-9 0-16-7-16-16z m64 0c0-9 7-16 16-16 9 0 16 7 16 16 0 9-7 16-16 16-9 0-16-7-16-16z m65 0c0-9 7-16 16-16 8 0 16 7 16 16 0 9-8 16-16 16-9 0-16-7-16-16z"/>
<glyph glyph-name="alert" unicode="&#61440;" d="M508 87l-199 360c-11 19-31 31-52 31-23 0-42-11-52-31l-200-361c-6-11-5-24 1-35 6-11 18-17 31-17l439 0c13 0 24 6 31 17 7 11 7 24 1 36z m-252 365c13 0 23-6 30-18l199-360c1-3 1-7-1-10-2-3-5-5-9-5l-438 0c-4 0-7 2-9 5-2 3-2 6-1 10l199 360c7 12 17 18 30 18z m0-301c7 0 13 6 13 13l0 187c0 7-6 13-13 13-7 0-13-6-13-13l0-187c0-7 6-13 13-13z m17-34c0-9-8-17-17-17-9 0-17 8-17 17 0 9 8 17 17 17 9 0 17-8 17-17z"/>
<glyph glyph-name="anti-money-laundering" unicode="&#61441;" d="M123 501c-69 0-123-35-123-79l0-332c0-44 54-79 123-79 69 0 123 35 123 79l0 332c1 44-53 79-123 79z m0-133c-52 0-97 25-97 54 0 28 45 53 97 53 52 0 98-25 98-53 0-29-46-54-98-54z m0-66c-36 0-69 12-86 30-7 7-11 16-11 24l0 17c23-19 58-31 97-31 39 0 75 12 98 31l0-17c0-9-4-17-11-24-18-18-51-30-87-30z m0-66c-36 0-69 11-86 30-7 7-11 16-11 24l0 17c23-19 58-30 97-30 39 0 75 11 98 30l0-17c0-9-4-17-11-24-18-19-51-30-87-30z m0-66c-36 0-69 11-86 29-7 7-11 16-11 24l0 17c23-19 58-30 97-30 39 0 75 11 98 30l0-18c0-8-4-16-11-24-18-17-51-28-87-28z m87-37l-2-2c-18-17-50-28-85-28-35 0-68 11-85 29l-1 1c-7 7-11 16-11 24l0 17c23-19 58-30 97-30 39 0 75 11 98 30l0-17c0-9-3-17-11-24z m11-25l0-18c0-28-46-53-98-53-52 0-97 25-97 53l0 18c23-19 58-30 97-30 39 0 75 11 98 30z m168 260c-69 0-123-34-123-79l0-199c0-16 6-30 18-43 22-23 62-37 105-37 43 0 82 14 105 37 12 12 18 27 18 43l0 199c0 45-54 79-123 79z m0-132c-52 0-98 25-98 54 0 28 46 53 98 53 52 0 97-25 97-53 0-29-45-54-97-54z m0-66c-36 0-69 11-87 29-7 7-11 16-11 24l0 17c23-19 59-30 98-30 39 0 74 11 97 30l0-17c0-9-4-17-11-24-17-18-50-29-86-29z m0-67c-36 0-69 11-87 30-7 7-11 16-11 24l0 17c23-19 59-30 98-30 39 0 74 11 97 30l0-17c0-9-4-17-11-24-17-19-50-30-86-30z m0-66c-36 0-69 11-87 29-7 8-11 16-11 24l0 18c23-19 59-30 98-30 39 0 74 11 97 30l0-18c0-8-4-16-11-24-17-18-50-29-86-29z"/>
<glyph glyph-name="application-fees-input" unicode="&#61442;" d="M478 427l-380 0c-19 0-35-15-35-34l0-30-29 0c-18 0-34-15-34-34l0-211c0-19 15-35 34-35l381 0c19 0 35 15 35 35l0 29 29 0c19 0 35 15 35 35l0 212c-2 18-17 33-36 33z m-56-309c0-4-4-8-8-8l-380 0c-4 0-8 4-8 8l0 212c0 4 4 8 8 8l381 0c5 0 8-4 8-8l0-212z m64 64c0-4-4-8-8-8l-29 0 0 156c0 18-15 34-35 34l-324 0 0 30c0 4 4 8 8 8l380 0c5 0 8-4 8-8z m-262 119c-42 0-76-35-76-76 0-43 34-76 76-76 42 0 76 34 76 76 1 41-34 76-76 76z m0-127c-28 0-50 22-50 50 0 28 22 50 50 50 28 0 50-22 50-50 0-27-22-50-50-50z"/>
<glyph glyph-name="application-loan-statement-input" unicode="&#61444;" d="M467 512l-317 0c-18 0-34-15-34-34l0-178-72 0c-18 0-34-15-34-34l0-201c0-35 30-65 66-65 2 0 5 0 7 1 1 0 3-1 3-1l339 0c42 0 76 34 76 76l0 402c1 19-15 34-34 34z m-351-446c0-23-18-40-40-40-22 0-40 17-40 40l0 200c0 5 4 8 8 8l72 0z m359 10c0-28-22-50-50-50l-296 0c9 11 13 25 13 40l0 412c0 4 4 8 8 8l317 0c5 0 8-4 8-8z m-71 351l-190 0c-8 0-13-5-13-13 0-7 5-12 13-12l190 0c7 0 13 5 13 12 0 8-6 13-13 13z m0-84l-190 0c-8 0-13-5-13-13 0-7 5-12 13-12l190 0c7 0 13 5 13 12 0 7-6 13-13 13z m0-85l-190 0c-8 0-13-5-13-12 0-8 5-13 13-13l190 0c7 0 13 5 13 13 0 7-6 12-13 12z"/>
<glyph glyph-name="application-offer" unicode="&#61445;" d="M389 386c-5 4-14 4-19 0l-217-217c-5-5-5-14 0-19 2-2 5-4 9-4 3 0 6 2 8 4l219 218c5 5 5 13 0 18z m-151-56c0 30-25 55-56 55-30 0-55-25-55-55 0-31 25-56 55-56 31 0 56 25 56 56z m-56 29c16 0 30-13 30-29 0-17-13-30-30-30-16 0-29 13-29 30 0 16 13 29 29 29z m317-63c7 0 13 6 13 13l0 105c0 19-15 35-34 35l-444 0c-19 0-34-15-34-35l0-105c0-7 6-13 13-13 28 0 50-22 50-50 0-28-22-51-50-51-7 0-13-5-13-13l0-84c0-19 15-35 34-35l444 0c19 0 35 15 35 35l0 84c0 8-6 13-13 13-28 0-50 23-50 51-1 28 21 50 49 50z m-77-50c0-38 28-69 64-76l0-72c0-5-4-8-8-8l-444 0c-4 0-8 4-8 8l0 72c37 7 64 38 64 76 0 37-28 68-64 75l0 93c0 5 4 8 8 8l444 0c5 0 8-4 8-8l0-93c-36-7-64-38-64-75z m-71-8c-30 0-55-25-55-56 0-30 25-55 55-55 31 0 55 25 55 55 0 31-24 56-55 56z m0-85c-16 0-29 13-29 29 0 17 12 30 29 30 16 0 30-13 30-30 0-16-14-29-30-29z"/>
<glyph glyph-name="application-repayment-input" unicode="&#61446;" d="M123 501c-69 0-123-35-123-79l0-332c0-44 54-79 123-79 69 0 123 35 123 79l0 332c1 44-53 79-123 79z m0-133c-52 0-97 25-97 54 0 28 45 53 97 53 52 0 98-25 98-53 0-29-46-54-98-54z m0-66c-36 0-69 12-86 30-7 7-11 16-11 24l0 17c23-19 58-31 97-31 39 0 75 12 98 31l0-17c0-9-4-17-11-24-18-18-51-30-87-30z m0-66c-36 0-69 11-86 30-7 7-11 16-11 24l0 17c23-19 58-30 97-30 39 0 75 11 98 30l0-17c0-9-4-17-11-24-18-19-51-30-87-30z m0-66c-36 0-69 11-86 29-7 7-11 16-11 24l0 17c23-19 58-30 97-30 39 0 75 11 98 30l0-18c0-8-4-16-11-24-18-17-51-28-87-28z m87-37l-2-2c-18-17-50-28-85-28-35 0-68 11-85 29l-1 1c-7 7-11 16-11 24l0 17c23-19 58-30 97-30 39 0 75 11 98 30l0-17c0-9-3-17-11-24z m11-25l0-18c0-28-46-53-98-53-52 0-97 25-97 53l0 18c23-19 58-30 97-30 39 0 75 11 98 30z m168 260c-69 0-123-34-123-79l0-199c0-16 6-30 18-43 22-23 62-37 105-37 43 0 82 14 105 37 12 12 18 27 18 43l0 199c0 45-54 79-123 79z m0-132c-52 0-98 25-98 54 0 28 46 53 98 53 52 0 97-25 97-53 0-29-45-54-97-54z m0-66c-36 0-69 11-87 29-7 7-11 16-11 24l0 17c23-19 59-30 98-30 39 0 74 11 97 30l0-17c0-9-4-17-11-24-17-18-50-29-86-29z m0-67c-36 0-69 11-87 30-7 7-11 16-11 24l0 17c23-19 59-30 98-30 39 0 74 11 97 30l0-17c0-9-4-17-11-24-17-19-50-30-86-30z m0-66c-36 0-69 11-87 29-7 8-11 16-11 24l0 18c23-19 59-30 98-30 39 0 74 11 97 30l0-18c0-8-4-16-11-24-17-18-50-29-86-29z"/>
<glyph glyph-name="application-status-history" unicode="&#61447;" d="M256 512c-72 0-140-30-188-82l0 69c0 7-6 13-13 13-7 0-13-6-13-13l0-105c0-8 6-13 13-13l106 0c7 0 13 5 13 13 0 7-6 12-13 12l-79 0c43 51 107 80 174 80 127 0 230-103 230-230 0-127-103-230-230-230-127 0-230 103-230 230 0 7-6 13-13 13-7 0-13-6-13-13 0-141 115-256 256-256 141 0 256 115 256 256 0 141-115 256-256 256z m10-106c-7 0-12-5-12-12l0-148c0-8 5-13 12-13l128 0c7 0 12 5 12 13 0 7-5 12-12 12l-115 0 0 136c0 7-5 12-13 12z"/>
<glyph glyph-name="apply" unicode="&#61448;" d="M256 514c-142 0-258-116-258-258 0-142 116-258 258-258 142 0 258 116 258 258 0 142-116 258-258 258z m0-489c-127 0-231 104-231 231 0 127 104 231 231 231 127 0 231-104 231-231 0-127-104-231-231-231z m138 340c-4 0-7-2-9-5l-163-182-96 78c-5 5-13 3-18-2-5-6-4-14 2-19l106-85c1 0 2 0 2-1l2-1c2-1 3-1 5-1 1 0 4 1 5 2l2 1c1 0 2 0 2 1l171 191c2 3 3 7 3 10 0 3-2 6-4 9-4 3-7 4-10 4z m-173-211z"/>
<glyph glyph-name="arrow" unicode="&#61449;" d="M464 390l-330 0c-26 0-48-21-48-48l0-99-83-101c-3-4-4-9-1-13 2-5 6-7 12-7l450 0c26 0 48 21 48 48l0 173c0 26-22 47-48 47z m0-243l-424 0 69 83c1 3 3 6 3 8l0 104c0 12 10 22 22 22l330 0c12 0 22-10 22-22l0-173c0-12-10-22-22-22z"/>
<glyph glyph-name="arrow-down" unicode="&#61482;" d="M508 392c-2 2-6 4-10 4-4 0-7-2-9-4l-233-243-233 243c-5 6-13 6-19 1-2-3-4-7-4-10 0-3 2-7 4-9l242-254c3-2 7-4 10-4 3 0 7 2 10 4l242 253c2 2 4 5 4 9 0 4-2 8-4 10z"/>
<glyph glyph-name="arrow-left" unicode="&#61483;" d="M149 256l243 233c2 2 4 5 4 9 0 4-2 8-4 10-2 2-6 4-10 4-4 0-7-2-9-4l-253-242c-2-3-4-7-4-10 0-4 2-7 4-10l253-242c2-2 5-4 9-4 4 0 8 2 10 4 2 2 4 6 4 10 0 3-2 7-4 9z"/>
<glyph glyph-name="arrow-right" unicode="&#61484;" d="M393 266l-255 244c-3 2-6 4-10 4-4 0-7-2-10-4-2-3-4-7-4-10 0-4 2-7 4-10l246-234-245-234c-2-3-4-6-4-10 0-4 2-7 4-10 3-2 7-4 10-4 3 0 7 2 9 4l255 244c2 3 4 7 4 10 0 3-2 7-4 10z"/>
<glyph glyph-name="arrow-up" unicode="&#61485;" d="M508 138l-242 254c-3 2-6 4-10 4-4 0-7-2-10-4l-242-254c-2-2-4-5-4-9 0-3 2-7 4-10 2-2 6-4 10-4 3 0 7 2 9 4l233 244 233-243c2-2 5-4 9-4 4 0 8 2 10 3 2 3 4 6 4 10 0 4-2 7-4 9z"/>
<glyph glyph-name="assets" unicode="&#61486;" d="M345 396l46 115-19 0c-19 0-41 0-62-16-12 11-28 16-55 16-25 0-41-5-53-17-22 16-44 16-63 16l-19 0 46-115c-48-49-103-121-103-193 0-108 84-197 192-203l1 0c108 6 192 95 192 203 1 72-55 145-103 194z m77-210c0-4-1-8-2-11 0-2-1-4-1-6-15-79-81-139-163-143-3 0-7 0-10 0-3 0-5 0-7 1-3 1-6 2-9 3-3 0-5 0-8 1-3 1-6 2-9 3-3 1-5 2-7 3-4 1-6 2-9 4-3 1-5 1-7 2-2 2-5 3-8 4-2 1-4 3-6 3-2 2-5 4-7 5-3 2-4 3-7 4-2 2-4 4-7 6-1 1-4 3-5 5-3 1-4 4-7 6-1 2-4 3-5 5-3 2-4 5-7 7-1 2-3 3-5 6-1 2-3 4-5 7-2 1-3 4-4 5-2 3-3 5-5 8-2 3-2 4-4 7-2 2-2 5-4 9-1 2-2 4-3 6-2 3-3 6-3 9-1 2-2 4-3 6-1 3-1 7-2 10-1 2-1 4-2 6-1 4-1 8-1 11 0 2-1 4-1 6-1 6-1 11-1 18 0 64 53 131 98 177l138 0c45-45 98-113 98-177 0-5 0-11 0-16z m-208 284c7 8 15 16 42 16 28 0 35-5 42-16l9-12 11 11c12 11 23 15 36 17l-32-80-132 0-32 80c13-2 24-6 36-17l10-11z m80-215c0-7 5-13 12-13 8 0 14 6 14 13 0 31-22 58-53 63l0 28c0 8-5 13-13 13-7 0-12-5-12-13l0-29c-29-7-49-32-49-62 0-43 26-53 49-54l0-65c-14 6-24 19-24 34 0 8-5 13-12 13-8 0-13-5-13-13 0-29 20-55 49-61l0-27c0-7 5-12 12-12 8 0 13 5 13 12l0 26c31 6 53 31 53 62 0 34-18 52-53 55l0 65c15-3 27-18 27-35z m0-84c0-17-12-31-27-36l0 65c20-2 27-10 27-29z m-76 84c0 15 10 29 24 35l0-64c-19 3-24 10-24 29z"/>
<glyph glyph-name="assets-info" unicode="&#61487;" d="M345 396l46 115-19 0c-19 0-41 0-62-16-12 11-28 16-55 16-25 0-41-5-53-17-22 16-44 16-63 16l-19 0 46-115c-48-49-103-121-103-193 0-108 84-197 192-203l1 0c108 6 192 95 192 203 1 72-55 145-103 194z m77-210c0-4-1-8-2-11 0-2-1-4-1-6-15-79-81-139-163-143-3 0-7 0-10 0-3 0-5 0-7 1-3 1-6 2-9 3-3 0-5 0-8 1-3 1-6 2-9 3-3 1-5 2-7 3-4 1-6 2-9 4-3 1-5 1-7 2-2 2-5 3-8 4-2 1-4 3-6 3-2 2-5 4-7 5-3 2-4 3-7 4-2 2-4 4-7 6-1 1-4 3-5 5-3 1-4 4-7 6-1 2-4 3-5 5-3 2-4 5-7 7-1 2-3 3-5 6-1 2-3 4-5 7-2 1-3 4-4 5-2 3-3 5-5 8-2 3-2 4-4 7-2 2-2 5-4 9-1 2-2 4-3 6-2 3-3 6-3 9-1 2-2 4-3 6-1 3-1 7-2 10-1 2-1 4-2 6-1 4-1 8-1 11 0 2-1 4-1 6-1 6-1 11-1 18 0 64 53 131 98 177l138 0c45-45 98-113 98-177 0-5 0-11 0-16z m-208 284c7 8 15 16 42 16 28 0 35-5 42-16l9-12 11 11c12 11 23 15 36 17l-32-80-132 0-32 80c13-2 24-6 36-17l10-11z m80-215c0-7 5-13 12-13 8 0 14 6 14 13 0 31-22 58-53 63l0 28c0 8-5 13-13 13-7 0-12-5-12-13l0-29c-29-7-49-32-49-62 0-43 26-53 49-54l0-65c-14 6-24 19-24 34 0 8-5 13-12 13-8 0-13-5-13-13 0-29 20-55 49-61l0-27c0-7 5-12 12-12 8 0 13 5 13 12l0 26c31 6 53 31 53 62 0 34-18 52-53 55l0 65c15-3 27-18 27-35z m0-84c0-17-12-31-27-36l0 65c20-2 27-10 27-29z m-76 84c0 15 10 29 24 35l0-64c-19 3-24 10-24 29z"/>
<glyph glyph-name="attachment" unicode="&#61456;" d="M447 470c-26 27-62 42-101 42-38 0-73-15-100-42l-199-198c-2-2-4-6-4-9 0-3 2-6 4-9 5-4 14-4 19 0l198 198c22 22 51 34 82 34 32 0 61-12 83-34 45-46 45-119 0-165l-236-237c-16-16-37-24-59-24-23 0-44 8-60 24-32 33-32 87 0 120l237 236c20 20 53 20 74 0 9-9 15-23 15-36 0-14-6-28-15-37l-215-214c-5-5-5-13 0-18 4-5 13-5 18 0l214 213c30 31 30 80 0 110-31 30-80 30-110 0l-237-236c-21-21-32-49-32-78 0-28 11-56 32-77 21-21 49-32 78-32 29 0 57 11 77 32l237 237c56 55 56 144 0 200z"/>
<glyph glyph-name="auto-pay" unicode="&#61457;" d="M510 81l-33 101 0 260c0 19-16 34-35 34l-372 0c-19 0-34-16-34-34l0-260-34-101c-4-11-2-23 4-31 7-9 17-15 28-15l443 0c11 0 21 6 28 15 7 9 9 20 5 31z m-449 361c0 4 4 8 9 8l372 0c4 0 8-4 8-8l0-250-389 0z m416-381l-442 0c-3 0-5 1-7 4-2 2-2 5-2 8l32 93 396 0 32-93c0-3 0-6-2-8-2-3-4-4-7-4z m-188 44l-66 0c-7 0-13-6-13-13 0-7 6-13 13-13l66 0c7 0 13 6 13 13 0 7-6 13-13 13z"/>
<glyph glyph-name="back-arrow" unicode="&#61458;" d="M1 251c1-1 1-3 3-4l190-190c5-5 14-5 19 0 5 5 5 13 0 18l-168 168 455 0c7 0 13 6 13 13 0 7-6 13-13 13l-456 0 168 168c5 5 5 13 0 18-2 3-6 4-9 4-3 0-6-1-9-4l-190-190c-1-1-2-3-2-4-2-3-2-7-1-10z"/>
<glyph glyph-name="bank-details" unicode="&#61459;" d="M499 318c7 0 13 5 13 12l0 26c0 14-10 28-24 33l-218 120c-1 0-2 1-2 1-7 2-15 2-22 0-1 0-2-1-2-1l-220-120c-14-5-24-18-24-33l0-26c0-7 6-12 13-12l29 0 0-228-29 0c-7 0-13-6-13-13l0-43c0-18 15-34 34-34l444 0c19 0 35 15 35 34l0 43c0 7-6 13-13 13l-30 0 0 228z m-93-228l0 228 38 0 0-228z m-380 253l0 13c0 4 2 7 6 8 1 0 2 1 3 1l219 121c2 0 3 0 4 0l220-120c0-1 1-1 3-1 4-1 6-4 6-8l0-13-461 0z m275-253l0 228 80 0 0-228z m-170 0l0 228 80 0 0-228z m107 0l0 228 37 0 0-228z m-132 228l0-228-38 0 0 228z m380-284c0-4-4-8-8-8l-444 0c-4 0-8 4-8 8l0 30 460 0z"/>
<glyph glyph-name="basic-primary-info" unicode="&#61460;" d="M478 449l-64 0c-7 0-12-6-12-13l0-10c0-11-9-19-19-19-9 0-18 9-18 19l0 10c0 7-6 13-13 13l-170 0c-7 0-12-6-12-13l0-10c0-11-9-19-19-19-10 0-18 9-18 19l0 10c0 7-6 13-13 13l-86 0c-19 0-34-15-34-35l0-316c0-19 15-35 34-35l444 0c19 0 35 15 35 35l0 316c-1 20-16 35-35 35z m8-351c0-5-4-8-8-8l-444 0c-4 0-8 4-8 8l0 316c0 5 4 8 8 8l72 0c2-23 21-42 45-42 24 0 43 18 45 42l143 0c2-23 21-42 45-42 24 0 43 18 45 42l50 0c5 0 8-4 8-8l0-316z m-325 135c30 0 55 25 55 55 0 30-25 55-55 55-31 0-55-25-55-55 0-30 24-55 55-55z m0 84c16 0 29-13 29-30 0-17-12-29-29-29-17 0-30 12-30 29 0 17 14 30 30 30z m81-124c-5 13-18 23-32 23l-96 0c-15 0-28-10-32-23l-18-49c-2-4-1-8 2-12 2-3 6-6 10-6l169 0c4 0 8 3 10 6 3 3 3 8 2 12z m-137-8c1 3 4 5 8 5l96 0c3 0 6-2 8-5l10-32-133 0z m331 158l-106 0c-8 0-13-5-13-13 0-7 5-12 13-12l105 0c7 0 13 5 13 12 1 7-6 13-12 13z m0-85l-106 0c-8 0-13-5-13-12 0-8 5-13 13-13l105 0c7 0 13 5 13 13 1 7-6 12-12 12z m0-84l-106 0c-8 0-13-6-13-13 0-7 5-13 13-13l105 0c7 0 13 6 13 13 1 7-6 13-12 13z"/>
<glyph glyph-name="block-debit-card" unicode="&#61461;" d="M478 427l-51 0 27 30c4 5 4 14-1 19-6 5-15 5-19-1l-44-48-356 0c-18 0-34-15-34-34l0-275c0-18 15-34 34-34l51 0-27-30c-4-5-4-14 1-19 3-2 6-3 9-3 4 0 7 2 10 5l44 48 356 0c19 0 35 15 35 34l0 275c-1 18-16 33-35 33z m-452-33c0 4 4 8 8 8l334 0-34-38-308 0z m0-56l285 0-33-37-252 0z m8-228c-4 0-8 4-8 8l0 156 229 0-71-78c-8-1-14-7-14-15l-62-70-74 0z m452 8c0-4-4-8-8-8l-334 0 49 56c4 1 6 4 8 8l89 101 196 0 0-157z m0 183l-172 0 34 37 138 0z m0 63l-115 0 34 38 73 0c5 0 8-4 8-8z m-429-168c-9 0-16-7-16-16 0-9 7-16 16-16 9 0 16 7 16 16 0 9-7 16-16 16z m64 0c-9 0-16-7-16-16 0-9 7-16 16-16 9 0 16 7 16 16 0 9-7 16-16 16z"/>
<glyph glyph-name="branch-details" unicode="&#61462;" d="M499 512l-317 0c-7 0-12-6-12-13l0-113-157 0c-7 0-13-6-13-13l0-359c0-8 6-14 13-14l486 0c7 0 13 6 13 13l0 486c0 7-6 13-13 13z m-198-436c0 16 13 30 29 30l21 0c16 0 30-13 30-30l0-50-80 0z m50 55l-21 0c-30 0-55-25-55-55l0-50-80 0 0 460 291 0 0-460-80 0 0 51c0 29-24 54-55 54z m-182 191l-93 0c-7 0-13-6-13-13l0-63c0-8 6-13 13-13l93 0 0-38-93 0c-7 0-13-5-13-13l0-63c0-7 6-13 13-13l93 0 0-80-143 0 0 333 143 0z m-79-153l80 0 0-38-80 0z m0 89l0 38 80 0 0-38z m176 191l-20 0c-8 0-13-6-13-13 0-7 5-13 13-13l20 0c8 0 13 6 13 13 0 7-5 13-13 13z m85 0l-21 0c-7 0-12-6-12-13 0-7 5-13 12-13l21 0c7 0 13 6 13 13 0 7-6 13-13 13z m63-27l21 0c7 0 13 6 13 13 0 7-6 13-13 13l-21 0c-7 0-12-6-12-13 0-7 5-13 12-13z m-148-37l-20 0c-8 0-13-6-13-13 0-7 5-13 13-13l20 0c8 0 13 6 13 13 0 7-5 13-13 13z m85 0l-21 0c-7 0-12-6-12-13 0-7 5-13 12-13l21 0c7 0 13 6 13 13 0 7-6 13-13 13z m63-26l21 0c7 0 13 6 13 13 0 7-6 13-13 13l-21 0c-7 0-12-6-12-13 0-7 5-13 12-13z m-148-37l-20 0c-8 0-13-6-13-13 0-7 5-13 13-13l20 0c8 0 13 6 13 13 0 7-5 13-13 13z m85 0l-21 0c-7 0-12-6-12-13 0-7 5-13 12-13l21 0c7 0 13 6 13 13 0 7-6 13-13 13z m63-26l21 0c7 0 13 6 13 13 0 7-6 13-13 13l-21 0c-7 0-12-6-12-13 0-7 5-13 12-13z m-148-38l-20 0c-8 0-13-5-13-12 0-8 5-13 13-13l20 0c8 0 13 5 13 13 0 7-5 12-13 12z m85 0l-21 0c-7 0-12-5-12-12 0-8 5-13 12-13l21 0c7 0 13 5 13 13 0 7-6 12-13 12z m63-25l21 0c7 0 13 5 13 13 0 7-6 12-13 12l-21 0c-7 0-12-5-12-12 0-8 5-13 12-13z m-148-38l-20 0c-8 0-13-5-13-13 0-7 5-12 13-12l20 0c8 0 13 5 13 12 0 8-5 13-13 13z m85 0l-21 0c-7 0-12-5-12-13 0-7 5-12 12-12l21 0c7 0 13 5 13 12 0 8-6 13-13 13z m85-26c7 0 13 5 13 13 0 7-6 12-13 12l-21 0c-7 0-13-5-13-12 0-8 6-13 13-13z"/>
<glyph glyph-name="calendar" unicode="&#61463;" d="M478 459l-64 0c-7 0-12-5-12-13 0-7 5-12 12-12l64 0c4 0 8-4 8-8l0-380c0-5-4-8-8-8l-444 0c-4 0-8 3-8 8l0 379c0 5 4 8 8 8l64 0c7 0 12 5 12 13 0 7-5 12-12 12l-64 0c-19 1-34-14-34-33l0-380c0-19 15-35 34-35l444 0c19 0 34 16 34 35l0 380c0 19-15 34-34 34z m-338-69c7 0 13 6 13 13l0 85c0 7-6 13-13 13-7 0-13-6-13-13l0-85c-1-6 6-13 13-13z m232 0c7 0 13 6 13 13l0 85c0 7-6 13-13 13-7 0-13-6-13-13l0-85c0-6 6-13 13-13z m-106-57l-20 0c-8 0-13-6-13-13 0-7 5-13 13-13l20 0c8 0 13 6 13 13 1 6-5 13-13 13z m72-14c0-7 5-13 12-13l21 0c7 0 13 6 13 13 0 7-6 13-13 13l-21 0c-6 1-12-6-12-13z m-198-118l21 0c7 0 13 5 13 13 0 7-6 12-13 12l-21 0c-7 0-13-5-13-12 0-8 6-13 13-13z m126 26l-20 0c-8 0-13-5-13-13 0-7 5-12 13-12l20 0c8 0 13 5 13 12 0 8-5 13-13 13z m106 0l-21 0c-7 0-13-5-13-13 0-7 6-12 13-12l21 0c7 0 13 5 13 12 0 8-6 13-13 13z m-232-132l21 0c7 0 13 6 13 13 0 7-6 13-13 13l-21 0c-7 0-13-6-13-13-1-7 6-13 13-13z m126 27l-20 0c-8 0-13-6-13-13 0-7 5-13 13-13l20 0c8 0 13 6 13 13 1 6-5 13-13 13z m-84 311l148 0c8 0 13 5 13 13 0 7-5 12-13 12l-148 0c-7 0-12-5-12-12 0-8 5-13 12-13z"/>
<glyph glyph-name="cancel" unicode="&#61464;" d="M256 514c-142 0-258-116-258-258 0-142 116-258 258-258 142 0 258 116 258 258 0 142-116 258-258 258z m0-489c-127 0-231 104-231 231 0 127 104 231 231 231 127 0 231-104 231-231 0-127-104-231-231-231z m147 362c0 3-1 7-4 10-5 5-13 5-18 0l-130-130-129 130c-4 5-13 5-18 0-2-3-4-6-4-10 0-3 2-7 4-9l129-129-129-129c-5-5-5-14 0-18 5-5 14-5 18 0l129 128 129-128c2-3 6-4 10-4 4 0 7 1 9 4 5 4 5 13 0 18l-129 129 129 129c3 2 4 5 4 9z"/>
<glyph glyph-name="cancel-card" unicode="&#61465;" d="M478 427l-51 0 27 30c4 5 4 14-1 19-6 5-15 5-19-1l-44-48-356 0c-18 0-34-15-34-34l0-275c0-18 15-34 34-34l51 0-27-30c-4-5-4-14 1-19 3-2 6-3 9-3 4 0 7 2 10 5l44 48 356 0c19 0 35 15 35 34l0 275c-1 18-16 33-35 33z m-452-33c0 4 4 8 8 8l334 0-34-38-308 0z m0-56l285 0-33-37-252 0z m8-228c-4 0-8 4-8 8l0 156 229 0-71-78c-8-1-14-7-14-15l-62-70-74 0z m452 8c0-4-4-8-8-8l-334 0 49 56c4 1 6 4 8 8l89 101 196 0 0-157z m0 183l-172 0 34 37 138 0z m0 63l-115 0 34 38 73 0c5 0 8-4 8-8z m-429-168c-9 0-16-7-16-16 0-9 7-16 16-16 9 0 16 7 16 16 0 9-7 16-16 16z m64 0c-9 0-16-7-16-16 0-9 7-16 16-16 9 0 16 7 16 16 0 9-7 16-16 16z"/>
<glyph glyph-name="card-additional-preferences" unicode="&#61498;" d="M499 147l-48 0 0 48c0 7-5 13-13 13-7 0-12-6-12-13l0-48-48 0c-8 0-13-5-13-13 0-7 5-12 13-12l48 0 0-48c0-8 5-13 12-13 8 0 13 5 13 13l0 48 48 0c7 0 13 5 13 12 0 8-6 13-13 13z m-21 280l-444 0c-19 0-34-15-34-34l0-275c0-19 15-34 34-34l272 0c7 0 12 6 12 13 0 7-5 13-12 13l-272 0c-4 0-8 4-8 8l0 156 460 0 0-71c0-7 6-13 13-13 7 0 13 6 13 13l0 191c0 18-15 33-34 33z m8-126l-460 0 0 37 460 0 0-37z m0 63l-460 0 0 30c0 4 4 8 8 8l444 0c4 0 8-4 8-8l0-30z m-445-184c0-9 7-16 16-16 9 0 16 7 16 16 0 9-7 16-16 16-9 0-16-7-16-16z m64 0c0-9 7-16 16-16 9 0 16 7 16 16 0 9-7 16-16 16-9 0-16-7-16-16z m65 0c0-9 7-16 16-16 8 0 16 7 16 16 0 9-8 16-16 16-9 0-16-7-16-16z"/>
<glyph glyph-name="card-addon" unicode="&#61499;" d="M499 147l-48 0 0 48c0 7-5 13-13 13-7 0-12-6-12-13l0-48-48 0c-8 0-13-5-13-13 0-7 5-12 13-12l48 0 0-48c0-8 5-13 12-13 8 0 13 5 13 13l0 48 48 0c7 0 13 5 13 12 0 8-6 13-13 13z m-21 280l-444 0c-19 0-34-15-34-34l0-275c0-19 15-34 34-34l272 0c7 0 12 6 12 13 0 7-5 13-12 13l-272 0c-4 0-8 4-8 8l0 156 460 0 0-71c0-7 6-13 13-13 7 0 13 6 13 13l0 191c0 18-15 33-34 33z m8-126l-460 0 0 37 460 0 0-37z m0 63l-460 0 0 30c0 4 4 8 8 8l444 0c4 0 8-4 8-8l0-30z m-445-184c0-9 7-16 16-16 9 0 16 7 16 16 0 9-7 16-16 16-9 0-16-7-16-16z m64 0c0-9 7-16 16-16 9 0 16 7 16 16 0 9-7 16-16 16-9 0-16-7-16-16z m65 0c0-9 7-16 16-16 8 0 16 7 16 16 0 9-8 16-16 16-9 0-16-7-16-16z"/>
<glyph glyph-name="card-balance-transfer" unicode="&#61500;" d="M297 138l-63 64c-5 4-14 4-19 0-2-3-4-6-4-9 0-3 2-7 4-9l42-42-117 0c-63 0-114 51-114 114 0 63 51 114 113 114l21 0c7 0 13 5 13 12 0 8-6 13-13 13l-21 0c-77 1-139-62-139-139 0-77 62-140 140-140l117 0-42-42c-2-2-4-5-4-8 0-4 2-7 4-9 3-3 6-4 9-4 3 0 6 1 9 4l63 63c2 2 2 2 3 4 2 3 2 6 0 10 0 2-1 3-2 4z m75 258l-117 0 42 42c5 4 5 13 0 18-5 5-14 5-19 0l-63-64c-1-1-2-2-3-4-2-3-2-6 0-10 1-1 2-3 2-4l64-63c4-5 13-5 18 0 5 5 5 14 0 19l-42 41 117 0c63 0 114-51 114-113 0-63-51-114-114-114l-21 0c-8 0-13-6-13-13 0-7 5-13 13-13l21 0c79-2 141 61 141 138 0 77-62 140-140 140z"/>
<glyph glyph-name="card-delivery-preferences" unicode="&#61501;" d="M512 443l-301 0 0-105-93 0c-18 0-34-16-34-35l0-50-29 0c-30 0-55-25-55-55l0-76 54 0c7-31 33-53 65-53 32 0 59 22 65 53l166 0c7-31 33-53 65-53 32 0 59 22 65 53l32 0z m-394-349c-22 0-40 18-40 40 0 23 18 40 40 40 23 0 40-17 40-40 0-22-17-40-40-40z m0 106c-32 0-58-22-64-53l-28 0 0 51c0 16 12 29 29 29l55 0 0 76c0 5 4 8 8 8l93 0 0-165-28 0c-6 32-33 54-65 54z m296-106c-22 0-40 18-40 40 0 23 18 40 40 40 23 0 40-17 40-40 0-22-17-40-40-40z m0 106c-32 0-58-22-64-53l-112 0 0 271 248 0 0-271-7 0c-6 31-33 53-65 53z m52 155c-5 5-14 5-19 0l-96-97-54 55c-5 5-14 5-19 0-2-3-4-6-4-9 0-3 2-6 4-9l64-63c2-2 5-4 8-4 4 0 7 2 9 4l106 106c6 4 6 12 1 17z"/>
<glyph glyph-name="card-holder-preferences" unicode="&#61502;" d="M512 67l-2 16c-9 63-64 111-127 111l-55 16c-2 1-5 1-7 0l-55-16c-4 0-9 0-13 0-18 15-40 24-64 24l-42 12c-2 1-5 1-6 0l-42-12c-49 0-90-37-97-85l-2-13c-1-3 1-7 3-10 3-2 6-4 9-4l134 0c-3-7-4-15-6-22l-2-16c-1-4 0-8 3-10 2-4 6-5 10-5l347 0c4 0 8 1 11 5 2 2 4 6 3 9z m-486 63c5 37 38 65 75 65 1 0 2 0 3 1l40 12 40-12c1 0 2-1 3-1 12 0 24-3 35-9-28-10-52-30-67-56z m140-51l0 1c2 10 4 18 8 26 4 9 8 17 14 24 14 18 35 31 58 36 7 1 14 2 20 2 2 0 3 0 4 1l3 1 50 14 53-15c2 0 2-1 4-1 50 0 94-38 102-88l0-1z m70 244c5-41 39-72 81-72 41 0 76 31 81 72l4 47c3 23-4 45-20 63-15 17-37 27-60 27l-11 0c-23 0-45-10-61-27-16-18-22-40-20-63z m35 92c11 11 25 19 41 19l10 0c16 0 31-7 41-19 11-11 15-27 14-42l-5-47c-3-27-26-48-54-48-28 0-52 21-55 48l-5 47c-3 15 3 30 13 42z m-196-101c3-32 31-56 63-56 33 0 60 24 64 56l4 36c1 17-4 36-16 49-12 14-30 22-48 22l-8 0c-18 0-35-8-47-22-12-13-17-31-16-49z m30 70c7 9 18 14 29 14l8 0c12 0 23-5 30-14 7-9 11-20 10-31l-4-35c-3-20-20-36-40-36-20 0-37 16-39 36l-4 35c-1 11 2 22 10 31z"/>
<glyph glyph-name="card-membership" unicode="&#61503;" d="M478 449l-64 0c-7 0-12-6-12-13l0-10c0-11-9-19-19-19-9 0-18 9-18 19l0 10c0 7-6 13-13 13l-170 0c-7 0-12-6-12-13l0-10c0-11-9-19-19-19-10 0-18 9-18 19l0 10c0 7-6 13-13 13l-86 0c-19 0-34-15-34-35l0-316c0-19 15-35 34-35l444 0c19 0 35 15 35 35l0 316c-1 20-16 35-35 35z m8-351c0-5-4-8-8-8l-444 0c-4 0-8 4-8 8l0 316c0 5 4 8 8 8l72 0c2-23 21-42 45-42 24 0 43 18 45 42l143 0c2-23 21-42 45-42 24 0 43 18 45 42l50 0c5 0 8-4 8-8l0-316z m-325 135c30 0 55 25 55 55 0 30-25 55-55 55-31 0-55-25-55-55 0-30 24-55 55-55z m0 84c16 0 29-13 29-30 0-17-12-29-29-29-17 0-30 12-30 29 0 17 14 30 30 30z m81-124c-5 13-18 23-32 23l-96 0c-15 0-28-10-32-23l-18-49c-2-4-1-8 2-12 2-3 6-6 10-6l169 0c4 0 8 3 10 6 3 3 3 8 2 12z m-137-8c1 3 4 5 8 5l96 0c3 0 6-2 8-5l10-32-133 0z m331 158l-106 0c-8 0-13-5-13-13 0-7 5-12 13-12l105 0c7 0 13 5 13 12 1 7-6 13-12 13z m0-85l-106 0c-8 0-13-5-13-12 0-8 5-13 13-13l105 0c7 0 13 5 13 13 1 7-6 12-12 12z m0-84l-106 0c-8 0-13-6-13-13 0-7 5-13 13-13l105 0c7 0 13 6 13 13 1 7-6 13-12 13z"/>
<glyph glyph-name="card-preference" unicode="&#61472;" d="M478 427l-444 0c-18 0-34-15-34-34l0-275c0-18 15-34 34-34l444 0c19 0 35 15 35 34l0 276c-1 18-16 33-35 33z m8-309c0-4-4-8-8-8l-444 0c-4 0-8 4-8 8l0 156 460 0z m0 220l0-37-460 0 0 37z m-460 56c0 4 4 8 8 8l444 0c4 0 8-4 8-8l0-30-460 0z m304-246l105 0c7 0 13 6 13 13 0 7-6 13-13 13l-105 0c-8 0-13-6-13-13 0-7 6-13 13-13z"/>
<glyph glyph-name="cc-delivery-preferences" unicode="&#61473;" d="M512 443l-301 0 0-105-93 0c-18 0-34-16-34-35l0-50-29 0c-30 0-55-25-55-55l0-76 54 0c7-31 33-53 65-53 32 0 59 22 65 53l166 0c7-31 33-53 65-53 32 0 59 22 65 53l32 0z m-394-349c-22 0-40 18-40 40 0 23 18 40 40 40 23 0 40-17 40-40 0-22-17-40-40-40z m0 106c-32 0-58-22-64-53l-28 0 0 51c0 16 12 29 29 29l55 0 0 76c0 5 4 8 8 8l93 0 0-165-28 0c-6 32-33 54-65 54z m296-106c-22 0-40 18-40 40 0 23 18 40 40 40 23 0 40-17 40-40 0-22-17-40-40-40z m0 106c-32 0-58-22-64-53l-112 0 0 271 248 0 0-271-7 0c-6 31-33 53-65 53z m52 155c-5 5-14 5-19 0l-96-97-54 55c-5 5-14 5-19 0-2-3-4-6-4-9 0-3 2-6 4-9l64-63c2-2 5-4 8-4 4 0 7 2 9 4l106 106c6 4 6 12 1 17z"/>
<glyph glyph-name="cc-mastercard" unicode="&#61474;" d="M151 242c0-3 2-4 4-4 3 0 4 1 6 4 1 1 2 4 2 7l-3 0c-6 0-9-3-9-7z m182 0c0-3 1-4 4-4 2 0 4 1 5 4 2 1 3 4 3 7l-3 0c-6 0-9-3-9-7z m68 20c-3 0-5-2-7-4-1-3-2-6-2-10 0-6 2-8 6-8 2 0 4 2 6 4 2 2 2 6 2 10 0 5-2 8-5 8z m-21 85c-16 10-34 15-53 15-23 0-45-8-64-22 17-15 27-34 34-55l-10 0c-5 19-16 36-30 49-15-14-25-30-31-49l-9 0c5 21 17 40 33 55-19 14-40 22-64 22-19 0-36-5-52-15-16-9-29-22-39-38-9-16-14-34-14-53 0-19 5-37 14-53 10-16 23-29 39-38 16-10 33-15 52-15 24 0 45 8 64 22-15 14-26 31-32 51l10 0c6-17 16-33 30-45 13 12 23 27 29 45l10 0c-6-20-17-37-32-51 19-14 40-22 64-22 19 0 37 5 53 15 16 9 28 22 38 38 10 16 14 34 14 53 0 19-4 37-14 53-10 17-23 29-40 38z m-257-117l7 40-14-40-7 0-1 40-6-40-11 0 9 52 16 0 0-32 10 32 17 0-9-52z m51 22c-3-13-4-21-4-22l-8 0 0 4c-3-3-7-4-12-4-3 0-5 0-7 3-1 2-3 5-3 8 0 5 2 9 5 12 3 2 8 4 14 4 2 0 3 0 5 0 0 0 0 1 0 1 0 0 0 0 0 0 0 0 0 1 0 1 0 3-2 4-7 4-4 0-7-1-11-1 0 0 0 4 1 9 5 2 10 3 13 3 10 0 14-4 14-12 0-2 0-5 0-10z m29 10c-3 0-5 1-8 1-3 0-5-1-5-3 0-1 0-2 0-2 1-1 2-2 4-3 5-2 8-6 8-12 0-9-5-13-16-13-5 0-8 0-12 0 0 0 1 4 2 10 4-1 7-2 10-2 4 0 6 2 6 4 0 1 0 2-1 3-1 1-1 1-4 2-5 3-8 7-8 11 0 10 6 15 16 15 4 0 7 0 10-1z m23 0l-5 0c0-3-1-5-2-8-1-4-1-6-1-8 0-1-1-3-1-3 0-2 1-3 4-3 1 0 2 0 3 0l-2-9c-2-1-5-1-8-1-5 0-8 3-8 8 0 2 0 5 1 12 0 2 3 12 5 28l10 0 0-6 5 0z m34-15l-22 0c0-3 0-5 2-6 2-2 4-3 7-3 4 0 8 1 11 3l-1-11c-4 0-7-1-11-1-12 0-19 6-19 18 0 7 2 13 6 18 3 5 8 7 13 7 5 0 8-2 11-4 2-2 4-6 4-11 1-3 0-6-1-10z m24 13c-3 0-5-2-6-5-1-3-3-12-5-25l-11 0 0 3c4 17 5 29 6 38l10 0-1-6c1 2 3 5 5 5 1 1 3 2 5 1-1-2-1-6-3-11z m33-29c-4-1-7-1-10-1-5 0-10 1-13 5-4 4-5 10-5 16 0 9 2 17 7 23 5 5 10 8 18 8 3 0 7 0 12-2l-2-11c-4 1-7 2-10 2-4 0-7-1-9-5-3-4-4-8-4-14 0-4 1-7 2-9 2-1 4-3 7-3 3 0 6 1 10 2z m38 21c-1-10-2-18-3-22l-9 0 0 4c-2-3-6-4-11-4-3 0-6 0-7 3-2 2-3 5-3 8 0 5 2 9 5 12 3 2 8 4 15 4 1 0 3 0 4 0 0 1 0 1 0 2 0 3-2 4-7 4-4 0-7-1-11-1 0 0 1 4 2 9 4 2 9 3 12 3 10 0 15-4 15-12-1-4-1-7-2-10z m25 8c-3 0-5-2-6-5-1-3-3-12-5-25l-11 0 0 3c3 13 4 26 6 38l10 0c0-1 0-3 0-6 1 2 4 5 4 5 2 1 4 2 6 1-2-2-3-6-4-11z m34-30l-11 0 1 4c-3-3-6-4-10-4-4 0-8 1-10 4-2 4-3 8-3 13 0 7 1 13 5 18 4 5 8 7 13 7 4 0 7-2 11-6l2 15 11 0z m-163 31c0 1-1 1-1 1 0 0 0 1-1 1-1 0-2 0-3 0-4 0-5-2-7-7l12 0c0 1 0 1 0 2 0 0 0 0 0 1 0 0 0 1 0 2z m227 166l-444 0c-18 0-34-15-34-34l0-275c0-18 15-34 34-34l444 0c19 0 35 15 35 34l0 276c-1 18-16 33-35 33z m8-63c0 0-1-90 0-90l0-156c0-4-4-8-8-8l-444 0c-4 0-8 4-8 8l0 156c0 0 1 91 0 90l0 30c0 4 4 8 8 8l444 0c5 0 8-4 8-8z"/>
<glyph glyph-name="cc-visa" unicode="&#61475;" d="M400 320c-8 0-14 2-17-4l-49-116 32 0 9 16 40 0c1 0 4-8 6-16l29 0-26 120z m-15-72c1 0 5 13 13 30l0 0c1 2 1 3 2 4 1 3 2 4 2 5l2-7 7-32z m-214 64l-30-82-3 18c0 0 0 1 0 1l-12 54c-1 7-6 9-14 9l-50 0 0-2c36-9 61-28 73-57-3 6-8 13-13 19-8 7-16 17-25 20l25-92 33 0 50 112z m47 0l-20-120 32 0 19 120z m120-79c0 13-8 24-26 33-6 3-10 5-14 8-2 2-4 4-4 7 0 2 2 5 5 7 3 2 7 3 14 3 9 0 17-1 23-5l3-1 4 26c-9 3-18 5-28 5-15 0-28-4-37-11-10-7-16-17-16-29 0-13 9-24 28-33 6-3 10-5 12-8 3-2 4-5 4-7 0-4-2-6-6-9-4-2-8-3-13-3-11 0-21 2-29 6l-4 3-4-27c9-4 20-7 35-7 16 0 29 3 39 11 9 8 14 18 14 31z m140 194l-444 0c-18 0-34-15-34-34l0-275c0-18 15-34 34-34l444 0c19 0 35 15 35 34l0 276c-1 18-16 33-35 33z m8-63c0 0-1-90 0-90l0-156c0-4-4-8-8-8l-444 0c-4 0-8 4-8 8l0 156c0 0 1 91 0 90l0 30c0 4 4 8 8 8l444 0c5 0 8-4 8-8z m-50-190l-106 0c-8 0-13-6-13-13 0-7 5-13 13-13l105 0c7 0 13 6 13 13 0 7-6 13-12 13z"/>
<glyph glyph-name="change" unicode="&#61476;" d="M443 241c-7 0-13-6-13-13l0-172c0-17-13-30-30-30l-344 0c-17 0-30 13-30 30l0 344c0 17 13 30 30 30l164 0c7 0 13 6 13 13 0 7-6 13-13 13l-164 0c-31 0-56-25-56-56l0-344c0-31 25-56 56-56l344 0c31 0 56 25 56 56l0 172c0 7-6 13-13 13z m59 205l-56 56c-14 14-36 14-49 0l-200-200c-3-2-4-5-4-8l0-81-17-19c-5-4-5-13 0-18 2-2 6-4 9-4 3 0 6 2 9 4l17 18 81 0c3 0 6 1 9 4l200 200c14 13 14 35 1 48z m-77-88l-138-139-68 0 0 68 138 138z m59 58l-40-40-68 68 40 40c3 3 9 3 12 0l56-56c3-3 3-9 0-12z"/>
<glyph glyph-name="chat" unicode="&#61477;" d="M309 216c-7 0-13-6-13-13l0-137-42 41c-2 3-5 4-8 4l-191 0c-16 0-29 13-29 30l0 147c0 16 12 30 29 30l106 0c7 0 13 5 13 12 0 8-6 13-13 13l-106 0c-30 0-55-25-55-55l0-148c0-30 25-55 55-55l185 0 60-60c2-3 6-4 9-4 1 0 3 0 5 1 4 2 8 6 8 12l0 169c0 7-6 13-13 13z m148 275l-211 0c-31 0-56-25-56-55l0-254c0-5 4-9 8-12 2 0 4 0 5 0 3 0 7 1 9 4l60 60 185 0c30 0 55 24 55 55l0 147c0 30-25 55-55 55z m29-203c0-16-12-30-29-30l-191 0c-3 0-6-1-8-4l-42-41 0 223c0 16 13 30 30 30l211 0c16 0 29-13 29-30z m-198 100c-9 0-16-7-16-16 0-9 7-16 16-16 9 0 16 7 16 16-1 9-7 16-16 16z m63 0c-9 0-16-7-16-16 0-9 7-16 16-16 9 0 16 7 16 16 0 9-7 16-16 16z m63 0c-8 0-16-7-16-16 0-9 8-16 16-16 9 0 16 7 16 16 0 9-7 16-16 16z"/>
<glyph glyph-name="check" unicode="&#61478;" d="M508 435c-2 3-6 3-10 3-3 0-6-1-8-4l-288-329-180 161c-3 2-6 3-10 3-3 0-6-2-9-4-2-3-3-7-3-10 0-3 2-6 4-9l190-168c3-3 6-4 9-4l1 0c3 0 6 2 9 4l296 339c5 5 4 13-1 18z m-305-356z"/>
<glyph glyph-name="check-box" unicode="&#61479;" d="M472 488c0 0-1 0 0 0-1 0-2 0-2 0l-430 0c-9 0-16-7-16-16l0-432c0-9 7-16 16-16l432 0c9 0 16 7 16 16l0 432c0 9-7 16-16 16z m-16-432l-400 0 0 400 400 0z m-239 107c3-3 8-3 13-3l2 0c5 0 10 1 14 4l174 172c8 7 8 19 0 27-7 8-20 7-28 0l-162-161-99 89c-8 7-20 7-27-1-7-8-6-20 2-28z"/>
<glyph glyph-name="cheque-status-enquiry" unicode="&#61480;" d="M256 512c-141 0-256-115-256-256 0-141 115-256 256-256 141 0 256 115 256 256 0 141-115 256-256 256z m0-486c-127 0-230 103-230 230 0 127 103 230 230 230 127 0 230-103 230-230 0-127-103-230-230-230z m13 236l0 148c0 8-6 13-13 13-7 0-13-5-13-13l0-154c0-2 0-3 1-5 1-1 2-3 3-4l111-111c2-2 5-4 8-4 4 0 7 2 9 4 5 5 5 14 0 18z"/>
<glyph glyph-name="claim-money" unicode="&#61481;" d="M467 512l-317 0c-18 0-34-15-34-34l0-178-72 0c-18 0-34-15-34-34l0-201c0-35 30-65 66-65 2 0 5 0 7 1 1 0 3-1 3-1l339 0c42 0 76 34 76 76l0 402c1 19-15 34-34 34z m-42-486l-296 0c9 11 13 24 13 40l0 412c0 4 4 8 8 8l317 0c5 0 8-4 8-8l0-402c0-27-22-50-50-50z m-349 0c-22 0-40 17-40 40l0 200c0 5 4 8 8 8l72 0 0-208c0-22-18-40-40-40z m328 401l-190 0c-8 0-13-5-13-13 0-7 5-12 13-12l190 0c7 0 13 5 13 12 0 8-6 13-13 13z m0-84l-190 0c-8 0-13-5-13-13 0-7 5-12 13-12l190 0c7 0 13 5 13 12 0 7-6 13-13 13z m0-85l-190 0c-8 0-13-5-13-12 0-8 5-13 13-13l190 0c7 0 13 5 13 13 0 7-6 12-13 12z"/>
<glyph glyph-name="close" unicode="&#61514;" d="M274 256l234 234c2 2 4 6 4 9 0 3-2 7-4 9-5 5-14 5-18 0l-234-234-234 234c-4 5-13 5-18 0-2-2-4-6-4-9 0-3 2-6 4-9l234-234-234-234c-5-4-5-13 0-18 5-5 14-5 18 0l234 234 234-234c2-2 5-4 8-4 4 0 7 2 9 4 5 5 5 14 0 18z"/>
<glyph glyph-name="collateral-33" unicode="&#61515;" d="M463 310l-64 11-74 76c-7 6-15 9-24 9l-213 0c-12 0-22-5-29-16l-49-79c-1-1-2-3-2-5l-8-80c0-3 0-5 1-7l13-29c6-12 18-20 32-20l9 0c3 0 7 0 8 3 0 0 0-1 0-1 0-36 30-66 66-66 36 0 65 30 65 66 0 0 0 1 0 1 3-2 5-3 8-3l136 0c1-36 30-64 65-64 36 0 66 30 66 66 0 0 0 1 0 1 2-2 5-3 8-3 18 0 34 15 34 34l0 52c1 27-20 51-48 54z m-381 67c1 2 4 4 6 4l102 0 0-59-143 0z m134-55l0 58 85 0c1 0 4-1 5-2l56-56z m-87-191c-23 0-40 18-40 40 0 23 17 40 40 40 22 0 40-17 40-40 0-22-18-40-40-40z m275 0c-22 0-40 18-40 40 0 23 18 40 40 40 22 0 40-17 40-40 0-22-18-40-40-40z m0 107c-27 0-52-17-62-43l-139 0c-5 0-9-2-10-5-8 28-33 48-63 48-31 0-56-20-64-48-2 3-6 5-10 5l-10 0c-4 0-7 2-8 5l-12 26 7 70 359 0 68-11c15-2 26-15 26-30l0-52c0-5-4-8-8-8-4 0-8-2-10-5-9 27-34 48-64 48z"/>
<glyph glyph-name="collateral-44" unicode="&#61516;" d="M463 310l-64 11-74 76c-7 6-15 9-24 9l-213 0c-12 0-22-5-29-16l-49-79c-1-1-2-3-2-5l-8-80c0-3 0-5 1-7l13-29c6-12 18-20 32-20l9 0c3 0 7 0 8 3 0 0 0-1 0-1 0-36 30-66 66-66 36 0 65 30 65 66 0 0 0 1 0 1 3-2 5-3 8-3l136 0c1-36 30-64 65-64 36 0 66 30 66 66 0 0 0 1 0 1 2-2 5-3 8-3 18 0 34 15 34 34l0 52c1 27-20 51-48 54z m-381 67c1 2 4 4 6 4l102 0 0-59-143 0z m134-55l0 58 85 0c1 0 4-1 5-2l56-56z m-87-191c-23 0-40 18-40 40 0 23 17 40 40 40 22 0 40-17 40-40 0-22-18-40-40-40z m275 0c-22 0-40 18-40 40 0 23 18 40 40 40 22 0 40-17 40-40 0-22-18-40-40-40z m0 107c-27 0-52-17-62-43l-139 0c-5 0-9-2-10-5-8 28-33 48-63 48-31 0-56-20-64-48-2 3-6 5-10 5l-10 0c-4 0-7 2-8 5l-12 26 7 70 359 0 68-11c15-2 26-15 26-30l0-52c0-5-4-8-8-8-4 0-8-2-10-5-9 27-34 48-64 48z"/>
<glyph glyph-name="comments" unicode="&#61517;" d="M372 459l-232 0c-78 0-140-62-140-140l0-253c0-5 2-9 7-12 2 0 4-1 7-1 2 0 4 1 7 2l123 83 229 0c77 0 139 62 139 139l0 42c0 78-62 140-140 140z m0-296l-232 0c-2 0-5-1-7-2l-107-71 0 229c0 63 51 114 113 114l233 0c63 0 114-51 114-114l0-42c0-63-51-114-114-114z m22 191l-254 0c-7 0-13-6-13-13 0-7 6-13 13-13l254 0c7 0 12 6 12 13 0 7-5 13-12 13z m0-85l-254 0c-7 0-13-6-13-13 0-7 6-13 13-13l254 0c7 0 12 6 12 13 0 7-5 13-12 13z"/>
<glyph glyph-name="compress" unicode="&#61518;" d="M309 443l134 0 0-134c0-7 6-13 13-13 7 0 13 6 13 13l0 148c0 7-6 13-13 13l-147 0c-7 0-13-6-13-13 0-7 6-14 13-14z m-106-374l-134 0 0 134c0 7-6 13-13 13-7 0-13-6-13-13l0-148c0-7 6-13 13-13l148 0c7 0 13 6 13 13 0 7-7 14-14 14z m0 443c-7 0-13-6-13-13l0-158-147 146c-5 5-13 5-18 0-3-2-4-5-4-9 0-4 1-7 4-10l146-146-158 0c-7 0-13-6-13-13 0-7 6-13 13-13l190 0c2 0 3 0 5 1 3 1 6 4 7 7 1 2 1 3 1 5l0 190c0 7-6 13-13 13z m296-296l-190 0c-2 0-3 0-5-1-3-1-6-4-7-7-1-2-1-3-1-5l0-190c0-7 6-13 13-13 7 0 13 6 13 13l0 158 146-146c5-5 14-5 18 0 3 2 4 5 4 9 0 4-1 7-4 10l-145 146 158 0c7 0 13 6 13 13 0 7-6 13-13 13z"/>
<glyph glyph-name="confirm" unicode="&#61519;" d="M256 514c-142 0-258-116-258-258 0-142 116-258 258-258 142 0 258 116 258 258 0 142-116 258-258 258z m0-489c-127 0-231 104-231 231 0 127 104 231 231 231 127 0 231-104 231-231 0-127-104-231-231-231z m138 340c-4 0-7-2-9-5l-163-182-96 78c-5 5-13 3-18-2-5-6-4-14 2-19l106-85c1 0 2 0 2-1l2-1c2-1 3-1 5-1 1 0 4 1 5 2l2 1c1 0 2 0 2 1l171 191c2 3 3 7 3 10 0 3-2 6-4 9-4 3-7 4-10 4z m-173-211z"/>
<glyph glyph-name="contact-info" unicode="&#61488;" d="M446 512l-359 0c-19 0-34-15-34-34l0-51-30 0c-7 0-13-5-13-13 0-7 6-12 13-12l30 0 0-80-30 0c-7 0-13-6-13-13 0-7 6-13 13-13l30 0 0-80-30 0c-7 0-13-6-13-13 0-7 6-13 13-13l30 0 0-80-30 0c-7 0-13-5-13-12 0-8 6-13 13-13l30 0 0-51c0-18 15-34 34-34l359 0c31 0 56 25 56 55l0 402c0 30-25 55-56 55z m0-486l-283 0 0 460 283 0c16 0 30-12 30-29l0-402c-1-16-14-29-30-29z m-338 84l-30 0 0 80 30 0c7 0 13 6 13 13 0 7-6 13-13 13l-30 0 0 80 30 0c7 0 13 6 13 13 0 7-6 13-13 13l-30 0 0 80 30 0c7 0 13 5 13 12 0 8-6 13-13 13l-30 0 0 51c0 4 4 8 8 8l51 0 0-460-51 0c-4 0-8 4-8 8l0 50 30 0c7 0 13 6 13 13 0 7-6 13-13 13z"/>
<glyph glyph-name="copy" unicode="&#61489;" d="M421 450l-23 0 0 31c0 17-14 31-31 31l-204 0c-1 0-1 0-2-1l-1 0c-2-1-2-1-4-2l-93-93c-1-1-1-2-2-4l-1-2c0 0 0-1-1-2l0-314c0-18 15-32 31-32l23 0 0-31c0-17 14-31 31-31l276 0c18 0 31 14 31 31l0 387c1 17-13 32-30 32z m-269-24c0-4-2-6-6-6l-42 0 48 48z m-13-95l61 0c18 0 31 15 31 31l0 61 190 0c3 0 5-2 5-5l0-387c0-3-2-5-5-5l-276 0c-3 0-6 2-6 5z m36 83c1 1 1 3 2 4 0 1 0 1 0 2 0 2 1 4 1 6l0 60 189 0c3 0 6-2 6-5l0-31-156 0c-1 0-2 0-3-1l-1 0c-2-1-3-2-4-3l-36-36c1 0 1 2 2 4z m7-32l24 24 0-43c0-3-3-5-6-5l-42 0z m-96-288l0 300 60 0c2 0 4 0 6 1 1 0 1 0 2 0 1 0 3 1 4 2 2 1 3 1 4 1l-44-44c-1-1-2-3-3-4l-1-1c0-1 0-2 0-3 0 0 0-1 0-1l0-256-23 0c-3 0-5 2-5 5z m132 108l148 0c7 0 12 6 12 13 0 7-5 13-12 13l-148 0c-7 0-12-6-12-13 0-7 5-13 12-13z m0-92l148 0c7 0 12 6 12 13 0 7-5 13-12 13l-148 0c-7 0-12-6-12-13 0-7 5-13 12-13z"/>
<glyph glyph-name="create" unicode="&#61490;" d="M438 438c-48 49-113 76-182 76-69 0-134-27-182-76-48-48-76-113-76-182 0-69 27-134 76-182 48-49 113-76 182-76 69 0 134 27 182 76 49 48 76 113 76 182 0 69-28 134-76 182z m49-182c0-62-24-120-68-163-43-44-101-68-163-68-62 0-120 24-163 68-44 43-68 101-68 163 0 62 24 120 68 163 43 44 101 68 163 68 62 0 120-24 163-68 44-43 68-101 68-163z m-217 13l0 150c0 7-6 13-13 13-7 0-13-6-13-13l0-149-147 0c-7 0-13-6-13-13 0-7 6-13 13-13l146 0 0-164c0-7 6-13 13-13 7 0 13 6 13 13l0 163 146 0c7 0 13 6 13 13 0 7-6 13-13 13z"/>
<glyph glyph-name="cross" unicode="&#61491;" d="M274 256l234 234c2 2 4 6 4 9 0 3-2 7-4 9-5 5-14 5-18 0l-234-234-234 234c-4 5-13 5-18 0-2-2-4-6-4-9 0-3 2-6 4-9l234-234-234-234c-5-4-5-13 0-18 5-5 14-5 18 0l234 234 234-234c2-2 5-4 8-4 4 0 7 2 9 4 5 5 5 14 0 18z"/>
<glyph glyph-name="current-assets" unicode="&#61492;" d="M345 396l46 115-19 0c-19 0-41 0-62-16-12 11-28 16-55 16-25 0-41-5-53-17-22 16-44 16-63 16l-19 0 46-115c-48-49-103-121-103-193 0-108 84-197 192-203l1 0c108 6 192 95 192 203 1 72-55 145-103 194z m77-210c0-4-1-8-2-11 0-2-1-4-1-6-15-79-81-139-163-143-3 0-7 0-10 0-3 0-5 0-7 1-3 1-6 2-9 3-3 0-5 0-8 1-3 1-6 2-9 3-3 1-5 2-7 3-4 1-6 2-9 4-3 1-5 1-7 2-2 2-5 3-8 4-2 1-4 3-6 3-2 2-5 4-7 5-3 2-4 3-7 4-2 2-4 4-7 6-1 1-4 3-5 5-3 1-4 4-7 6-1 2-4 3-5 5-3 2-4 5-7 7-1 2-3 3-5 6-1 2-3 4-5 7-2 1-3 4-4 5-2 3-3 5-5 8-2 3-2 4-4 7-2 2-2 5-4 9-1 2-2 4-3 6-2 3-3 6-3 9-1 2-2 4-3 6-1 3-1 7-2 10-1 2-1 4-2 6-1 4-1 8-1 11 0 2-1 4-1 6-1 6-1 11-1 18 0 64 53 131 98 177l138 0c45-45 98-113 98-177 0-5 0-11 0-16z m-208 284c7 8 15 16 42 16 28 0 35-5 42-16l9-12 11 11c12 11 23 15 36 17l-32-80-132 0-32 80c13-2 24-6 36-17l10-11z m80-215c0-7 5-13 12-13 8 0 14 6 14 13 0 31-22 58-53 63l0 28c0 8-5 13-13 13-7 0-12-5-12-13l0-29c-29-7-49-32-49-62 0-43 26-53 49-54l0-65c-14 6-24 19-24 34 0 8-5 13-12 13-8 0-13-5-13-13 0-29 20-55 49-61l0-27c0-7 5-12 12-12 8 0 13 5 13 12l0 26c31 6 53 31 53 62 0 34-18 52-53 55l0 65c15-3 27-18 27-35z m0-84c0-17-12-31-27-36l0 65c20-2 27-10 27-29z m-76 84c0 15 10 29 24 35l0-64c-19 3-24 10-24 29z"/>
<glyph glyph-name="current-liabilities" unicode="&#61493;" d="M379 237c37 0 67 29 67 66 0 37-30 67-67 67-37 0-67-30-67-67 0-37 30-66 67-66z m0 107c23 0 41-18 41-41 0-22-18-41-41-41-22 0-41 19-41 41 0 23 18 41 41 41z m-173 22c37 0 67 29 67 66 0 37-30 66-67 66-36 0-66-29-66-66 0-37 30-66 66-66z m0 108c23 0 41-19 41-41 0-23-18-41-41-41-22 0-40 18-40 41 0 22 18 41 40 41z m294-306c-13 10-34 24-65 19-25-4-81-25-109-37-8 49-42 80-90 80l-90 0c-39 26-73 39-108 42-10 1-20-2-27-9-7-6-11-15-11-25l0-116c0-13 8-25 20-31l148-70c12-6 24-8 38-8 10 0 20 1 29 5l255 92c12 4 20 14 22 26 2 12-2 24-12 32z m-474 70c0 3 0 5 2 7 2 1 4 2 6 2 0 0 0 0 0 0 20-1 52-8 100-40 2-1 4-2 7-2l94 0c51 0 62-41 64-60l-157 0c-7 0-12-6-12-13 0-7 5-13 12-13l172 0c2 0 3 0 4 0 0 0 1 1 2 1 1 0 90 37 120 42 21 4 34-4 44-13 2-2 3-5 2-8 0-3-2-6-5-7l-255-92c-15-5-32-4-47 3l-149 69c-3 1-4 4-4 8z"/>
<glyph glyph-name="dashboard" unicode="&#61494;" d="M90 193c2-2 4-3 8-3 4 0 8 1 10 4l77 96 96-76c3-3 6-4 10-3 3 1 7 3 9 6l127 190c2 3 3 7 2 10-1 3-3 6-6 8-5 4-13 2-17-3l-121-179-95 76c-5 5-13 3-18-2l-85-106c-4-5-3-13 3-18z m409 298l-486 0c-7 0-13-6-13-13 0-8 6-13 13-13l8 0 0-304c0-19 15-35 34-35l143 0-68-84c-5-6-4-14 2-19 6-4 14-3 18 3l81 100 51 0 81-100c3-4 7-5 11-5 3 0 5 1 8 3 5 5 6 13 2 18l-68 85 142 0c19 0 35 15 35 35l0 304 8 0c7 0 13 5 13 12 0 8-8 13-15 13z m-34-330c0-5-4-8-8-8l-402 0c-5 0-8 4-8 8l0 304 419 0 0-304z"/>
<glyph glyph-name="debit-card" unicode="&#61495;" d="M478 427l-444 0c-18 0-34-15-34-34l0-275c0-18 15-34 34-34l444 0c19 0 35 15 35 34l0 276c-1 18-16 33-35 33z m8-309c0-4-4-8-8-8l-444 0c-4 0-8 4-8 8l0 156 460 0z m0 183l-460 0 0 37 460 0 0-37z m0 63l-460 0 0 30c0 4 4 8 8 8l444 0c4 0 8-4 8-8l0-30z m-429-201c9 0 16 7 16 16 0 9-7 16-16 16-9 0-16-7-16-16 0-9 7-16 16-16z m64 0c9 0 16 7 16 16 0 9-7 16-16 16-9 0-16-7-16-16 0-9 7-16 16-16z m65 0c8 0 16 7 16 16 0 9-8 16-16 16-9 0-16-7-16-16 0-9 7-16 16-16z"/>
<glyph glyph-name="delete" unicode="&#61496;" d="M436 449l-73 0c-6 36-38 63-75 63l-85 0c-37 0-69-27-75-63l-52 0c-42 0-76-35-76-77 0-7 6-13 13-13 7 0 13 6 13 13 0 28 22 50 50 50l359 0c28 0 51-22 51-50 0-7 5-13 12-13 8 0 13 6 13 13 1 42-33 77-75 77z m-233 37l85 0c23 0 43-16 49-37l-183 0c6 21 26 37 49 37z m233-80c-7 0-13-5-13-12l0-368-333 0 0 368c0 7-6 12-13 12-7 0-13-5-13-12l0-381c0-7 6-13 13-13l359 0c7 0 13 6 13 13l0 381c0 7-7 12-13 12z m-262-330l0 254c0 7-6 12-13 12-7 0-13-5-13-12l0-254c0-7 6-13 13-13 7 0 13 7 13 13z m105 0l0 254c0 7-5 12-13 12-7 0-12-5-12-12l0-254c0-7 5-13 12-13 8 0 13 7 13 13z m106 0l0 254c0 7-6 12-13 12-7 0-13-5-13-12l0-254c0-7 6-13 13-13 7 0 13 7 13 13z"/>
<glyph glyph-name="delivery-preferences" unicode="&#61497;" d="M512 443l-301 0 0-105-93 0c-18 0-34-16-34-35l0-50-29 0c-30 0-55-25-55-55l0-76 54 0c7-31 33-53 65-53 32 0 59 22 65 53l166 0c7-31 33-53 65-53 32 0 59 22 65 53l32 0z m-394-349c-22 0-40 18-40 40 0 23 18 40 40 40 23 0 40-17 40-40 0-22-17-40-40-40z m0 106c-32 0-58-22-64-53l-28 0 0 51c0 16 12 29 29 29l55 0 0 76c0 5 4 8 8 8l93 0 0-165-28 0c-6 32-33 54-65 54z m296-106c-22 0-40 18-40 40 0 23 18 40 40 40 23 0 40-17 40-40 0-22-17-40-40-40z m0 106c-32 0-58-22-64-53l-112 0 0 271 248 0 0-271-7 0c-6 31-33 53-65 53z m52 155c-5 5-14 5-19 0l-96-97-54 55c-5 5-14 5-19 0-2-3-4-6-4-9 0-3 2-6 4-9l64-63c2-2 5-4 8-4 4 0 7 2 9 4l106 106c6 4 6 12 1 17z"/>
<glyph glyph-name="detail-view" unicode="&#61530;" d="M57 459c-31 0-55-25-55-55 0-30 24-55 55-55 30 0 55 25 55 55 0 30-25 55-55 55z m0-85c-16 0-30 13-30 30 0 17 13 30 30 30 17 0 29-13 29-30 0-17-13-30-29-30z m0-63c-31 0-55-25-55-55 0-30 24-55 55-55 30 0 55 25 55 55 0 30-25 55-55 55z m0-85c-16 0-30 13-30 30 0 17 13 30 30 30 17 0 29-13 29-30 0-17-13-30-29-30z m0-63c-31 0-55-25-55-55 0-30 24-55 55-55 30 0 55 25 55 55 0 30-25 55-55 55z m0-85c-16 0-30 13-30 30 0 17 13 30 30 30 17 0 29-13 29-30 0-17-13-30-29-30z m199 381c-30 0-55-25-55-55 0-30 25-55 55-55 30 0 55 25 55 55 0 30-25 55-55 55z m0-85c-16 0-30 13-30 30 0 17 14 30 30 30 16 0 30-13 30-30 0-17-14-30-30-30z m0-63c-30 0-55-25-55-55 0-30 25-55 55-55 30 0 55 25 55 55 0 30-25 55-55 55z m0-85c-16 0-30 13-30 30 0 17 13 30 30 30 17 0 30-13 30-30 0-17-14-30-30-30z m0-63c-30 0-55-25-55-55 0-30 25-55 55-55 30 0 55 25 55 55 0 30-25 55-55 55z m0-85c-16 0-30 13-30 30 0 17 13 30 30 30 17 0 30-13 30-30 0-17-14-30-30-30z m199 271c31 0 55 25 55 55 0 30-24 55-55 55-30 0-55-25-55-55 0-30 25-55 55-55z m0 85c16 0 30-13 30-30 0-17-13-30-30-30-17 0-29 13-29 30 0 17 13 30 29 30z m0-123c-30 0-55-25-55-55 0-30 25-55 55-55 31 0 55 25 55 55 0 30-24 55-55 55z m0-85c-16 0-29 13-29 30 0 17 12 30 29 30 17 0 30-13 30-30 0-17-14-30-30-30z m0-63c-30 0-55-25-55-55 0-30 25-55 55-55 31 0 55 25 55 55 0 30-24 55-55 55z m0-85c-16 0-29 13-29 30 0 17 12 30 29 30 17 0 30-13 30-30 0-17-14-30-30-30z"/>
<glyph glyph-name="disbursement-detail" unicode="&#61531;" d="M161 422l190 0c7 0 13 6 13 13l0 22c0 30-25 55-55 55l-106 0c-30 0-55-25-55-55l0-21c0-7 6-14 13-14z m42 64l106 0c16 0 29-12 29-29l0-8-164 0 0 8c0 16 13 29 29 29z m233-16l-42 0c-8 0-13-6-13-13 0-7 5-13 13-13l29 0 0-418-333 0 0 418 29 0c7 0 13 6 13 13 0 7-6 13-13 13l-43 0c-6 0-13-6-13-13l0-444c0-7 6-13 13-13l359 0c7 0 13 6 13 13l0 444c1 7-6 13-12 13z m-202-131c-5 5-14 5-19 0l-54-54-33 33c-5 4-14 4-18 0-5-5-5-14 0-19l42-42c2-3 6-4 9-4 3 0 6 1 9 4l63 63c5 6 5 14 1 19z m138-38l-84 0c-7 0-13-6-13-13 0-7 6-13 13-13l85 0c7 0 13 6 13 13-1 7-7 13-14 13z m-157-89l-54-54-33 33c-5 5-14 5-18 0-5-5-5-13 0-18l42-43c2-2 6-4 9-4 3 0 6 2 9 4l63 64c5 4 5 13 0 18-5 6-13 6-18 0z m157-38l-84 0c-7 0-13-6-13-13 0-7 6-13 13-13l85 0c7 0 13 6 13 13-1 7-7 13-14 13z"/>
<glyph glyph-name="download" unicode="&#61532;" d="M352 128l-83-83 0 369c0 8-6 13-13 13-7 0-13-5-13-13l0-369-83 83c-5 5-14 5-18 0-5-5-5-14 0-18l105-106c1-2 3-2 4-3 2-1 3-1 5-1 2 0 3 0 5 1 1 1 3 1 4 3l105 106c5 4 5 13 0 18-4 5-12 5-18 0z m116 384l-423 0c-19 0-35-15-35-34l0-106c0-7 6-13 13-13 7 0 13 6 13 13l0 106c0 4 4 8 8 8l423 0c4 0 7-4 7-8l0-106c0-7 6-13 13-13 7 0 13 6 13 13l0 106c2 19-14 34-32 34z"/>
<glyph glyph-name="downward-arrow" unicode="&#61533;" d="M261 1c1 1 3 1 4 3l190 190c5 5 5 14 0 19-5 5-13 5-18 0l-168-168 0 454c0 7-6 13-13 13-7 0-13-6-13-13l0-455-168 168c-5 5-13 5-18 0-3-2-4-6-4-9 0-3 1-6 4-9l190-190c1-1 3-2 4-2 3-2 7-2 10-1z"/>
<glyph glyph-name="drop-down" unicode="&#61534;" d="M256 512c-141 0-256-115-256-256 0-141 115-256 256-256 141 0 256 115 256 256 0 141-115 256-256 256z m0-485c-126 0-229 103-229 229 0 126 103 229 229 229 126 0 229-103 229-229 0-126-103-229-229-229z m132 309c-4 0-7-2-10-4l-122-123-122 123c-3 2-6 4-10 4-4 0-7-2-10-4-2-2-4-6-4-10 0-4 2-7 4-9l132-132c3-3 6-4 10-4 4 0 7 1 10 4l132 132c2 2 4 5 4 9 0 4-2 8-4 10-3 2-6 4-10 4z"/>
<glyph glyph-name="drop-left" unicode="&#61535;" d="M256 512c-141 0-256-115-256-256 0-141 115-256 256-256 141 0 256 115 256 256 0 141-115 256-256 256z m0-485c-126 0-229 103-229 229 0 126 103 229 229 229 126 0 229-103 229-229 0-126-103-229-229-229z m80 361c0 4-2 7-4 10-2 2-6 4-10 4-4 0-7-2-9-4l-133-132c-2-3-4-6-4-10 0-4 2-7 4-10l132-132c2-2 6-4 10-4 4 0 7 2 9 4 3 3 4 6 4 10 0 4-1 7-4 10l-122 122 122 122c3 3 5 7 5 10z"/>
<glyph glyph-name="drop-right" unicode="&#61504;" d="M256 512c-141 0-256-115-256-256 0-141 115-256 256-256 141 0 256 115 256 256 0 141-115 256-256 256z m0-485c-126 0-229 103-229 229 0 126 103 229 229 229 126 0 229-103 229-229 0-126-103-229-229-229z m-57 371c-5 4-14 4-19 0-2-3-4-6-4-10 0-4 2-7 4-10l123-122-123-122c-2-3-4-6-4-10 0-4 2-7 4-10 2-2 6-4 10-4 4 0 7 2 9 4l132 132c3 3 4 6 4 10 0 4-1 7-4 10z"/>
<glyph glyph-name="drop-up" unicode="&#61505;" d="M256 512c-141 0-256-115-256-256 0-141 115-256 256-256 141 0 256 115 256 256 0 141-115 256-256 256z m0-485c-126 0-229 103-229 229 0 126 103 229 229 229 126 0 229-103 229-229 0-126-103-229-229-229z m10 305c-5 5-15 5-20 0l-132-133c-2-2-4-5-4-9 0-4 2-8 4-10 3-2 6-4 10-4 4 0 7 2 10 4l122 123 122-122c5-5 15-5 20 0 2 2 4 5 4 9 0 4-2 8-4 10z"/>
<glyph glyph-name="dth" unicode="&#61506;" d="M457 406l-117 0c-4 11-14 20-27 28l107 53c3 2 6 4 6 7 1 4 1 7 0 10-4 6-12 9-18 6l-126-63c-1-1-2-1-3-1-21 4-46 4-67 0-1 0-2 1-2 1l-128 63c-6 4-14 1-17-5-3-7-1-15 5-18l108-53c-14-8-24-17-28-28l-95 0c-30 0-55-24-55-55l0-296c0-30 25-55 55-55l402 0c30 0 55 25 55 55l0 296c0 31-25 55-55 55z m-275 0c12 9 35 17 63 17 28 0 51-7 62-17z m275-380l-402 0c-16 0-29 12-29 29l0 296c0 16 12 30 29 30l402 0c16 0 29-13 29-30l0-296c0-16-13-29-29-29z m-127 317l-232 0c-19 0-35-15-35-34l0-211c0-19 15-35 35-35l232 0c19 0 35 15 35 35l0 211c-1 19-16 34-35 34z m8-245c0-5-4-8-8-8l-232 0c-5 0-8 4-8 8l0 211c0 5 4 8 8 8l232 0c5 0 8-4 8-8z m119 203l-43 0c-7 0-12-6-12-13 0-7 5-13 12-13l43 0c7 0 13 6 13 13 0 7-6 13-13 13z m0-63l-43 0c-7 0-12-6-12-13 0-7 5-13 12-13l43 0c7 0 13 6 13 13 0 6-6 13-13 13z m0-64l-43 0c-7 0-12-6-12-13 0-7 5-13 12-13l43 0c7 0 13 6 13 13 0 7-6 13-13 13z"/>
<glyph glyph-name="edit" unicode="&#61507;" d="M502 403l-99 99c-6 6-15 10-24 10-9 0-17-3-24-10l-329-329c-1-1-2-3-3-4 0-1 0-1-1-2 0 0 0-1 0-1l-22-152c-1-4 1-8 4-11 2-1 6-3 9-3 1 0 1 0 1 0l151 22c1 0 1 0 2 0l2 1c1 1 3 2 4 3l329 328c13 14 13 36 0 49z m-366-360l-108-15 15 108z m249 441l40-40-249-250c-5-4-5-13 0-18 5-5 14-5 18 0l249 249 40-40c3-3 3-9 0-12l-320-320-110 110 320 320c3 4 9 4 12 1z"/>
<glyph glyph-name="electricity" unicode="&#61508;" d="M416 326l-3 0 1 2c0 3 1 6 1 10l0 42c0 18-15 34-33 34l-18 0 1 2c1 3 1 6 1 8l0 56c0 18-14 32-32 32l-8 0c-16 0-31-14-31-31l0-56c0-3 1-6 2-8l1-3-79 0 1 3c1 3 2 5 2 8l0 56c0 17-14 31-32 31l-8 0c-16 0-31-14-31-31l0-56c0-3 1-6 2-8l1-3-22 0c-18 0-34-15-34-33l0-43c0-3 1-6 2-9l1-3-3 0c-19 0-33-14-33-33l0-112c0-19 15-34 33-34l96 0 0-30c0-7 5-13 12-13l20 0 0-94c0-6 5-11 11-11l53 0c5 0 10 5 10 11l0 95 20 0c7 0 13 5 13 13l0 30 83 0c18 0 34 15 34 34l0 112c-1 17-16 32-34 32z m-140-224l0-81-32 0 0 81z m28 45l0-17-88 0 0 17z m-133 278l0 56c0 5 5 10 11 10l8 0c5 0 10-5 10-10l0-56c0-6-5-11-10-11l-8 0c-6 0-11 5-11 11z m145 0l0 56c0 5 5 10 10 10l8 0c6 0 11-5 11-10l0-56c0-6-5-11-11-11l-8 0c-5 0-10 5-10 11z m-194-87l0 43c0 5 4 8 8 8l252 0c4 0 8-4 8-8l0-43c0-4-4-8-8-8l-252 0c-4 0-8 4-8 8z m-34-45c0 5 4 8 8 8l320 0c5 0 8-4 8-8l0-112c0-5-4-8-8-8l-320 0c-5 0-8 4-8 8z"/>
<glyph glyph-name="eligibility" unicode="&#61509;" d="M414 512l-316 0c-20 0-35-15-35-34l0-444c0-19 15-35 35-35l316 0c19 0 35 15 35 35l0 444c0 19-15 34-35 34z m8-478c0-4-4-8-8-8l-316 0c-5 0-8 4-8 8l0 444c0 4 4 8 8 8l316 0c5 0 8-4 8-8z m-282 304l233 0c7 0 13 6 13 13l0 85c0 7-6 13-13 13l-233 0c-7 0-13-6-13-13l0-85c0-7 6-13 13-13z m13 26l0 58 206 0 0-58z m50-106l-29 0 0 30c0 7-6 13-13 13-7 0-13-6-13-13l0-30-30 0c-7 0-12-5-12-12 0-8 5-13 12-13l30 0 0-30c0-7 6-13 13-13 7 0 13 6 13 13l0 30 29 0c7 0 13 5 13 13 0 7-6 12-13 12z m191 0l-85 0c-7 0-13-5-13-12 0-8 6-13 13-13l85 0c7 0 12 5 12 13 0 7-5 12-12 12z m8-109c-4 5-13 5-18 0l-33-33-33 33c-4 5-13 5-18 0-5-5-5-14 0-19l33-32-33-34c-5-5-5-14 0-18 5-5 14-5 18 0l33 32 33-32c2-3 6-4 9-4 3 0 6 1 9 4 4 4 4 13 0 18l-33 33 33 33c5 6 5 14 0 19z m-199-39l-85 0c-7 0-12-5-12-12 0-8 5-13 12-13l85 0c7 0 13 5 13 13 0 7-6 12-13 12z m-26 30c0 9-7 16-16 16-9 0-16-7-16-16 0-9 7-16 16-16 9 0 16 7 16 16z m-16-69c-9 0-16-7-16-16 0-9 7-16 16-16 9 0 16 7 16 16 0 9-7 16-16 16z"/>
<glyph glyph-name="employment" unicode="&#61510;" d="M457 406l-93 0 0 51c0 18-15 34-34 34l-148 0c-18 0-34-15-34-34l0-51-93 0c-30 0-55-24-55-55l0-274c0-31 25-55 55-55l402 0c30 0 55 24 55 55l0 274c0 31-25 55-55 55z m-283 51c0 5 4 8 8 8l148 0c4 0 8-4 8-8l0-51-164 0z m283-410l-402 0c-16 0-29 13-29 30l0 221 12-12c20-21 47-37 76-47l76-24 0-12c0-18 15-34 34-34l64 0c18 0 34 15 34 34l0 12 76 24c29 9 56 26 76 47l13 13 0-221c-1-18-14-31-30-31z m-241 156l0 43c0 4 4 8 8 8l64 0c5 0 8-4 8-8l0-43c0-5-4-8-8-8l-64 0c-4 0-8 3-8 8z m174 60l-68-21 0 3c0 18-16 34-35 34l-63 0c-18 0-34-15-34-34l0-3-69 21c-25 8-47 22-66 40l-30 31 0 16c0 16 13 30 29 30l402 0c16 0 30-13 30-30l0-16-32-32c-17-17-40-31-64-39z"/>
<glyph glyph-name="exchange" unicode="&#61511;" d="M1 390c0 0 0-1 0-1 0 0 0-1 1-1 0 0 0-1 0-1 0-1 1-1 1-1 0 0 0 0 1 0l84-86c2-2 6-4 9-4 3 0 6 2 9 4 4 5 4 14 0 18l-63 63 307 0c64 0 114-51 114-114 0-7 6-13 13-13 7 0 13 6 13 13 0 77-63 140-140 140l-306 0 62 63c5 4 5 13 0 18-4 5-13 5-18 0l-84-86c0 0-1 0-1 0 0 0-1-1-1-1 0 0 0-1 0-1 0 0-1-1-1-1 0 0 0-1 0-1 0 0 0 0 0-1 0-1 0-1 0-2 0 0 0-1 0-1 0 0 0 0 0 0 0-1 0-1 0-2-1-2 0-2 0-2z m509-279c0 0 0 1 0 1 0 0 1 1 1 1 0 0 0 1 0 1 0 0 0 0 0 1 0 1 0 1 0 2 0 0 0 1 0 1 0 0 0 0 0 0 0 1 0 1 0 2 0 1 0 1 0 2 0 0 0 0 0 0 0 0 0 1-1 1 0 0 0 1 0 1 0 1-1 1-1 1 0 0 0 1-1 1l-84 86c-5 5-14 5-18 0-5-5-5-14 0-18l62-63-307 0c-63 0-114 51-114 114 0 7-5 13-13 13-7 0-12-6-12-13 0-77 62-140 140-140l307 0-63-63c-4-4-4-13 0-18 3-2 6-4 9-4 3 0 7 2 9 4l85 85c0 0 1 1 1 1-1 0 0 1 0 1z"/>
<glyph glyph-name="execute" unicode="&#61512;" d="M256 512c-141 0-256-115-256-256 0-141 115-256 256-256 141 0 256 115 256 256 0 141-115 256-256 256z m0-486c-127 0-230 103-230 230 0 127 103 230 230 230 127 0 230-103 230-230 0-127-103-230-230-230z m123 240l-190 128c-4 2-9 3-14 0-4-2-7-6-7-11l0-253c0-5 2-9 7-12 2 0 4-1 7-1 2 0 4 1 7 2l190 127c3 3 6 7 6 11 0 3-2 7-6 9z m-30-10l-154-102 0 204z"/>
<glyph glyph-name="expand" unicode="&#61513;" d="M203 514l-192 0c-1 0-3 0-5-1-3-2-5-4-7-7-1-2-1-4-1-5l0-191c0-8 6-13 13-13 7 0 13 5 13 13l0 159 147-147c5-5 14-5 19 0 4 4 4 13 0 18l-147 147 159 0c8 0 13 6 13 13 0 7-5 14-12 14z m298-298c-7 0-13-6-13-13l0-159-148 147c-5 5-14 5-18 0-5-5-5-13 0-18l147-147-160 0c-7 0-13-6-13-13 0-7 6-13 13-13l191 0c2 0 3 0 5 1 3 1 5 4 7 7 1 2 1 3 1 5l0 190c1 7-5 13-12 13z m-192 229l136 0 0-135c0-8 5-13 13-13 7 0 12 5 12 13l0 148c0 7-5 12-12 12l-149 0c-7 0-13-5-13-12 0-8 6-13 13-13z m-106-378l-136 0 0 136c0 7-5 13-13 13-7 0-12-6-12-13l0-149c0-7 5-12 12-12l149 0c7 0 13 5 13 12 0 8-6 13-13 13z"/>
<glyph glyph-name="expense" unicode="&#61546;" d="M425 512l-338 0c-42 0-77-34-77-76l0-422c0-6 4-10 8-12 5-2 11-1 15 2l33 33 32-33c5-5 14-5 19 0l33 33 32-33c2-2 5-4 9-4 3 0 7 2 9 4l34 34 33-34c5-5 14-5 19 0l32 33 33-33c3-2 6-4 9-4 2 0 3 0 5 1 5 2 8 6 8 12l0 368 113 0c8 0 13 5 13 13l0 42c3 42-32 76-74 76z m-338-26l281 0c-12-13-19-32-19-50l0-391-20 19c-5 5-14 5-19 0l-32-33-34 33c-5 5-13 5-18 0l-34-33-32 33c-2 2-6 4-10 4-3 0-6-2-8-4l-33-33-34 33c-2 2-5 4-9 4-3 0-7-1-9-4l-20-20 0 392c0 27 22 50 50 50z m287-50c0 14 7 28 17 38 10 8 21 12 34 12 28 0 50-22 50-50l0-30-101 0z m-164-262c-45 0-47 26-47 29 0 7-5 13-13 13-7 0-12-6-12-13 0-1 0-50 63-54l0-30c0-7 5-13 13-13 7 0 12 6 12 13l0 31c35 8 49 35 52 57 3 35-19 74-66 83-33 7-47 33-46 56 1 8 7 36 43 36 31 0 33-25 33-30 0-7 6-13 13-13 7 0 13 6 13 13 0 15-9 46-42 54l0 30c0 7-6 13-13 13-7 0-13-6-13-13l0-30c-40-4-57-32-59-57-3-35 18-74 65-83 33-7 48-33 46-56-1-9-6-36-42-36z"/>
<glyph glyph-name="expense-info" unicode="&#61547;" d="M425 512l-338 0c-42 0-77-34-77-76l0-422c0-6 4-10 8-12 5-2 11-1 15 2l33 33 32-33c5-5 14-5 19 0l33 33 32-33c2-2 5-4 9-4 3 0 7 2 9 4l34 34 33-34c5-5 14-5 19 0l32 33 33-33c3-2 6-4 9-4 2 0 3 0 5 1 5 2 8 6 8 12l0 368 113 0c8 0 13 5 13 13l0 42c3 42-32 76-74 76z m-338-26l281 0c-12-13-19-32-19-50l0-391-20 19c-5 5-14 5-19 0l-32-33-34 33c-5 5-13 5-18 0l-34-33-32 33c-2 2-6 4-10 4-3 0-6-2-8-4l-33-33-34 33c-2 2-5 4-9 4-3 0-7-1-9-4l-20-20 0 392c0 27 22 50 50 50z m287-50c0 14 7 28 17 38 10 8 21 12 34 12 28 0 50-22 50-50l0-30-101 0z m-164-262c-45 0-47 26-47 29 0 7-5 13-13 13-7 0-12-6-12-13 0-1 0-50 63-54l0-30c0-7 5-13 13-13 7 0 12 6 12 13l0 31c35 8 49 35 52 57 3 35-19 74-66 83-33 7-47 33-46 56 1 8 7 36 43 36 31 0 33-25 33-30 0-7 6-13 13-13 7 0 13 6 13 13 0 15-9 46-42 54l0 30c0 7-6 13-13 13-7 0-13-6-13-13l0-30c-40-4-57-32-59-57-3-35 18-74 65-83 33-7 48-33 46-56-1-9-6-36-42-36z"/>
<glyph glyph-name="eye" unicode="&#61548;" d="M510 262c0 2-90 165-254 165-164 0-254-163-254-165-3-4-3-8 0-12 0-2 90-165 254-165 164 0 254 163 254 165 3 4 3 8 0 12z m-254-152c-131 0-210 116-228 146 18 30 97 146 228 146 131 0 210-116 228-146-18-30-97-146-228-146z m0 254c-59 0-108-49-108-108 0-59 49-108 108-108 59 0 108 49 108 108 0 59-49 108-108 108z m0-190c-46 0-82 36-82 82 0 46 36 82 82 82 46 0 82-36 82-82 0-46-36-82-82-82z"/>
<glyph glyph-name="eye-slash" unicode="&#61549;" d="M510 262c0 1-41 77-120 126l56 60c4 6 4 14-1 18-6 5-14 4-19 0l-58-66c-32 16-70 27-112 27-164 0-254-163-254-165-3-4-3-8 0-12 0 0 41-76 120-125l-56-61c-4-6-4-14 1-18 3-3 6-4 9-4 4 0 7 2 10 4l58 66c32-16 70-27 112-27 164 0 254 164 254 165 3 4 3 8 0 12z m-254-152c-35 0-66 8-94 21l32 36c17-12 39-19 61-19 59 0 108 49 108 108 0 27-10 52-27 71l37 41c61-37 98-93 110-112-17-30-96-146-227-146z m0 292c35 0 66-8 94-21l-32-36c-17 12-39 19-61 19-59 0-108-49-108-108 0-27 10-52 27-71l-38-41c-60 37-98 93-110 112 18 30 97 146 228 146z m-64-198c-11 14-18 32-18 52 0 46 36 82 82 82 16 0 32-4 45-12z m128 104c11-14 18-32 18-52 0-46-36-82-82-82-16 0-32 4-45 12z"/>
<glyph glyph-name="facebook" unicode="&#61550;" d="M366 508c-16 2-40 4-69 4-38 0-70-11-92-34-24-23-36-55-36-92l0-51-59 0c-8 0-8-12-8-13l0-88c0-6 2-15 8-15l59 0 0-207c0-6 9-12 15-12l90 0c6 0 11 6 11 12l0 207 63 0c6 0 11 7 12 12l11 88c1 4-1 9-3 11-3 3-6 5-9 5l-75 0 0 42c0 13 3 19 6 22 4 4 16 5 26 5l46 0c7 0 16 8 16 14l0 79c0 5-6 10-12 11z m-12-80l-37 0c-23 0-36-4-43-14-8-9-12-21-12-37l0-55c0-7 6-10 12-10l73 0-8-70-64 0c-5 0-13 0-13-8l0-211-69 0 0 211c0 7-2 8-8 8l-59 0 0 70 59 0c5 0 8 2 8 10l0 64c0 32 9 57 29 76 17 17 44 26 75 26 19 0 35-1 53-2l4 0z"/>
<glyph glyph-name="fees-charges" unicode="&#61551;" d="M444 511l-1 1-61-41-56 38c-4 3-10 3-14 0l-56-38-56 38c-4 3-10 3-14 0l-56-38-56 38-5 3-1-1c-7 1-14-5-14-13l0-484c0-8 7-14 15-13l0-1 61 41 56-38c4-3 9-3 14 0l56 38 56-38c4-3 10-3 14 0l56 38 56-38 5-3 1 1c7-2 15 5 15 13l0 484c-1 8-8 14-15 13z m-11-37l0-436-43 28c-4 4-10 4-15 0l-56-37-56 37c-2 2-5 3-7 3-2 0-5-1-7-3l-56-37-56 37c-4 4-10 4-15 0l-43-28 0 436 43-28c4-4 10-4 15 0l56 37 56-37c4-4 9-4 14 0l56 37 56-37c4-4 11-4 15 0z m-179-205c-29 6-43 30-41 51 1 7 5 32 39 32 29 0 30-22 30-26 0-8 6-13 13-13 7 0 13 5 13 13 0 14-8 42-39 50l0 29c0 7-6 13-13 13-7 0-13-6-13-13l0-27c-37-4-53-32-55-55-3-32 17-69 62-78 29-7 43-31 41-51-1-8-5-32-39-32-41 0-42 24-42 26 0 7-6 13-13 13-7 0-13-6-13-13 0-1 1-47 59-52l0-27c0-7 6-13 13-13 7 0 13 6 13 13l0 28c32 6 45 33 48 53 2 32-18 69-63 79z"/>
<glyph glyph-name="file-pdf" unicode="&#61520;" d="M65 4l378 0c7 0 16 9 16 16l0 344c0 6-5 10-9 12l-2 1-132 128c-4 4-10 3-14 1 0 0 0 0 0 0-1-2-3-4-5-4l-232 0c-7 0-11-3-11-10l0-473c0-5 3-15 11-15z m256 460l89-87-89-1z m-241 13l214 0 0-113c0-6 2-10 3-10 3-4 5-5 8-5l127 2 0-321-352 0z m315-298c3 7 3 10 2 11-3 6-15 12-47 12-12 0-22 0-33-1l-2 0-1 1c-9 5-18 11-24 16-18 14-32 37-43 70l0 2c6 32 11 64 3 84-1 0-4 0-6 0l-4 0 3-4c3-3 3-8 4-12l0-3c0-7-1-11-1-13l0-1c0-5-2-9-3-11 0-1 0-1-1-2l-4-22-3 22c-1 13-1 24-1 31 0 3 0 5 0 7l0 1c0 1 0 3 2 3l0 4c-4 0-6-1-8-7-2-9-3-20-2-34 2-15 4-29 9-45l0-2c-7-24-17-48-29-75-8-17-16-32-24-45l1 1-13-20c-16-26-30-41-40-46l-10-6 4 10c2 6 7 13 14 22 8 9 16 17 26 25l2 2 0 1c0 1 0 1 0 1l-1-1c-16-8-28-17-37-26-9-10-14-18-15-24-1-5 0-7 1-7 0 0 0 0 0 0l7-4c2 0 4-1 6-1 11 0 31 13 66 73l1 1 1 1c33 11 71 19 113 24l2 0 0-1c12-6 24-11 37-15 13-4 20-6 28-6 10 0 17 4 19 8l-2 0c-1 0-2-1-6-1-10 0-22 2-37 8l-21 8 22 0c32 0 40-5 44-8 0-1 1-2 1-4l0-2c0-1 0 0 0 0z m-107 18c-28-5-55-13-80-23l-10-4 5 9c3 5 7 13 13 24 10 21 18 39 23 55l3 10 4-10c10-20 22-36 36-48 0-1 2-3 4-4 1-2 2-3 3-3l9-5z"/>
<glyph glyph-name="file-text" unicode="&#61521;" d="M414 512l-233 0c-1 0-2 0-3-1l-1-1c-2 0-3-1-4-2l-106-106c-1 0-1-2-2-4l-1 0c0-1-1-2-1-4l0-360c0-20 15-35 35-35l316 0c20 0 35 15 35 35l0 444c0 19-15 34-35 34z m8-34l0-444c0-5-4-8-8-8l-316 0c-5 0-8 4-8 8l0 346 71 0c19 0 34 15 34 34l0 72 219 0c5 0 8-4 8-8z m-314-72l61 61 0-53c0-4-4-8-8-8z m243-148l-169 0c-7 0-12-5-12-12 0-8 5-13 12-13l169 0c7 0 13 5 13 13 0 7-6 12-13 12z m0-105l-169 0c-7 0-12-6-12-13 0-7 5-13 12-13l169 0c7 0 13 6 13 13 0 7-6 13-13 13z"/>
<glyph glyph-name="file-upload" unicode="&#61522;" d="M414 512l-233 0c-1 0-2 0-3-1l-1-1c-2 0-3-1-4-2l-106-106c-1 0-1-2-2-4l-1 0c0-1-1-2-1-4l0-360c0-19 15-35 35-35l316 0c19 0 35 15 35 35l0 444c0 19-15 34-35 34z m8-478c0-4-4-8-8-8l-316 0c-5 0-8 4-8 8l0 347 72 0c18 0 34 15 34 34l0 72 219 0c5 0 8-4 8-8l0-445z m-253 380c0-4-4-8-8-8l-54 0 62 62z m96 19c-1 1-3 2-4 3-3 2-7 2-10 0-1-1-3-2-4-3l-132-131c-5-5-5-14 0-19 5-5 14-5 19 0l109 110 0-305c0-7 6-13 13-13 7 0 13 6 13 13l0 305 109-110c5-5 14-5 19 0 5 5 5 14 0 19z"/>
<glyph glyph-name="filter" unicode="&#57344;" d="M499 512l-486 0c-7 0-13-6-13-13 0-7 6-13 13-13l8 0 0-40c0-104 69-196 169-225l0-208c0-4 2-8 5-11 3-1 5-2 7-2 2 0 4 0 5 1l106 42c5 2 8 7 8 12l0 166c100 29 169 121 169 225l0 40 8 0c7 0 12 6 12 13 0 7-4 13-11 13z m-198-272c-1-1-1-1-2-2-1 0-1-1-1-2 0-1-1-2-1-2 0-1 0-2-1-3l0-168-80-32 0 201c0 1 0 2-1 2 0 1-1 2-1 3 0 1 0 1-1 2-1 1-1 2-2 2-1 1-1 1-1 1-1 0-1 1-3 1l-1 1c-93 22-159 106-159 202l0 40 419 0 0-40c0-96-66-180-160-203l-2-1c-1 0-2 0-2 0 0 0-1-1-1-2z m1-9z"/>
<glyph glyph-name="foreign-exchange" unicode="&#57345;" d="M256 512c-72 0-139-30-188-82l0 69c0 7-6 13-13 13-7 0-13-6-13-13l0-105c0-7 5-12 11-13l108-1c7 0 13 6 13 13 0 7-6 13-13 13l-79 0c44 51 106 80 174 80 127 0 230-104 230-231 0-127-103-229-230-229-127 0-230 103-230 230 0 7-6 13-13 13-7 0-13-6-13-13 0-141 115-256 256-256 141 0 256 115 256 256 0 141-115 256-256 256z m-38-294c0 7-5 12-12 12-8 0-13-5-13-12 0-31 21-56 51-63l0-25c0-7 6-12 13-12 7 0 13 5 13 12l0 25c28 7 50 32 50 63 0 32-17 51-50 54l0 66c14-6 24-20 24-36 0-7 6-12 13-12 7 0 13 5 13 12 0 31-22 56-50 63l0 17c0 7-6 12-13 12-7 0-13-5-13-12l0-17c-30-7-51-32-51-63 0-44 28-52 51-54l0-66c-16 5-26 20-26 36z m0 84c0 16 11 31 25 36l0-64c-19 1-25 8-25 28z m76-84c0-16-11-31-25-36l0 64c18-2 25-10 25-28z"/>
<glyph glyph-name="forward-arrow" unicode="&#57346;" d="M511 261c-1 1-1 3-3 4l-190 190c-5 5-14 5-19 0-5-5-5-13 0-18l168-168-454 0c-7 0-13-6-13-13 0-7 6-13 13-13l455 0-168-168c-5-5-5-13 0-18 2-3 6-4 9-4 3 0 6 1 9 4l190 190c1 1 2 3 2 4 2 3 2 7 1 10z"/>
<glyph glyph-name="funding-table" unicode="&#57347;" d="M345 396l46 115-19 0c-19 0-41 0-62-16-12 11-28 16-55 16-25 0-41-5-53-17-22 16-44 16-63 16l-19 0 46-115c-48-49-103-121-103-193 0-108 84-197 192-203l1 0c108 6 192 95 192 203 1 72-55 145-103 194z m77-210c0-4-1-8-2-11 0-2-1-4-1-6-15-79-81-139-163-143-3 0-7 0-10 0-3 0-5 0-7 1-3 1-6 2-9 3-3 0-5 0-8 1-3 1-6 2-9 3-3 1-5 2-7 3-4 1-6 2-9 4-3 1-5 1-7 2-2 2-5 3-8 4-2 1-4 3-6 3-2 2-5 4-7 5-3 2-4 3-7 4-2 2-4 4-7 6-1 1-4 3-5 5-3 1-4 4-7 6-1 2-4 3-5 5-3 2-4 5-7 7-1 2-3 3-5 6-1 2-3 4-5 7-2 1-3 4-4 5-2 3-3 5-5 8-2 3-2 4-4 7-2 2-2 5-4 9-1 2-2 4-3 6-2 3-3 6-3 9-1 2-2 4-3 6-1 3-1 7-2 10-1 2-1 4-2 6-1 4-1 8-1 11 0 2-1 4-1 6-1 6-1 11-1 18 0 64 53 131 98 177l138 0c45-45 98-113 98-177 0-5 0-11 0-16z m-208 284c7 8 15 16 42 16 28 0 35-5 42-16l9-12 11 11c12 11 23 15 36 17l-32-80-132 0-32 80c13-2 24-6 36-17l10-11z m80-215c0-7 5-13 12-13 8 0 14 6 14 13 0 31-22 58-53 63l0 28c0 8-5 13-13 13-7 0-12-5-12-13l0-29c-29-7-49-32-49-62 0-43 26-53 49-54l0-65c-14 6-24 19-24 34 0 8-5 13-12 13-8 0-13-5-13-13 0-29 20-55 49-61l0-27c0-7 5-12 12-12 8 0 13 5 13 12l0 26c31 6 53 31 53 62 0 34-18 52-53 55l0 65c15-3 27-18 27-35z m0-84c0-17-12-31-27-36l0 65c20-2 27-10 27-29z m-76 84c0 15 10 29 24 35l0-64c-19 3-24 10-24 29z"/>
<glyph glyph-name="funds" unicode="&#57348;" d="M478 427l-380 0c-19 0-35-15-35-34l0-30-29 0c-18 0-34-15-34-34l0-211c0-19 15-35 34-35l381 0c19 0 35 15 35 35l0 29 29 0c19 0 35 15 35 35l0 212c-2 18-17 33-36 33z m-56-309c0-4-4-8-8-8l-380 0c-4 0-8 4-8 8l0 212c0 4 4 8 8 8l381 0c5 0 8-4 8-8l0-212z m64 64c0-4-4-8-8-8l-29 0 0 156c0 18-15 34-35 34l-324 0 0 30c0 4 4 8 8 8l380 0c5 0 8-4 8-8z m-262 119c-42 0-76-35-76-76 0-42 34-76 76-76 42 0 76 34 76 76 0 41-34 76-76 76z m0-127c-28 0-50 22-50 50 0 28 22 50 50 50 28 0 50-22 50-50 0-28-22-50-50-50z"/>
<glyph glyph-name="gas" unicode="&#57349;" d="M332 129c85 35 115 125 115 199 0 7-5 13-13 13l-356 0c-8 0-13-6-13-13 0-75 31-166 117-200l-70-108c-2-3-2-6-2-10 1-3 3-6 6-8 6-4 14-2 18 4l74 114c31-7 68-7 99 1l72-115c3-4 7-6 11-6 3 0 5 1 8 2 3 1 4 4 5 8 1 3 0 7-1 9z m89 186c-4-81-50-174-165-174-115 0-161 93-165 174z m-267 44c2-1 4-1 6-1 5 0 10 2 11 7l17 33c5 9 5 20 0 30l-12 25c-1 2-1 5 0 7l17 33c3 6 1 14-6 17-6 4-14 1-17-5l-16-33c-5-10-5-21 0-30l12-24c0-2 0-4 0-7l-17-33c-2-3-2-6-1-9 1-5 3-8 6-10z m85 0c2-1 4-1 6-1 5 0 9 2 11 7l17 33c5 9 5 20 0 30l-12 23c-1 3-1 5 0 7l17 33c3 7 0 15-6 18-6 3-14 1-18-6l-16-31c-4-10-4-21 0-30l12-24c1-2 1-4 0-7l-16-33c-2-3-2-6-1-9 1-5 4-8 6-10z m86 0c1-1 4-1 5-1 5 0 10 2 12 7l16 33c5 9 5 20 0 30l-12 23c0 3 0 5 0 7l17 33c3 7 1 15-5 18-7 3-15 1-18-6l-16-31c-5-10-5-21 0-30l12-24c1-2 1-4 0-7l-17-33c-1-3-1-6-1-9 1-5 4-8 7-10z"/>
<glyph glyph-name="gift" unicode="&#57350;" d="M475 362l-87 0c17 16 26 37 26 60 0 48-39 85-85 85-30 0-58-16-73-41-15 25-43 41-73 41-47 0-85-38-85-85 0-23 10-44 26-60l-87 0c-19 0-33-15-33-33l0-42c0-18 14-33 33-33l9 0 0-217c0-19 14-33 32-33l355 0c18 0 33 14 33 33l0 200c4 3 8 5 8 5 4 3 6 8 6 12 0 0 0 1 0 1 16 3 28 16 28 33l0 42c0 17-14 32-33 32z m-447-33c0 5 4 9 9 9l176 0 0-4c-13-14-23-30-31-48-1-3-2-5-4-8l-141 0c-5 0-9 4-9 9z m95-107l4 3c3 2 6 6 6 10 24-2 53 4 70 43 3 8 7 15 11 21 0-4 0-7 0-11-3-22-4-42-16-54-19-19-52-16-75-12z m-53 32l38 0c-2-2-2-5-1-8l2-6-20-12c-4-2-6-6-6-10 0-4 3-8 7-10 2-1 32-11 63-11 26 0 45 7 59 21l0-191-134 0c-4 0-8 4-8 9z m371 36c-4 2-8 2-12 0-41-24-62-6-75 12-11 13-23 25-36 36l157 0c5 0 9-4 9-9l0-42c0-5-4-9-9-9l-29 0 0 1c0 4-2 8-5 11z m-142-12l0 4c1-1 1-3 2-4z m0-24l11 0c8-16 18-27 30-35 11-7 24-10 39-10 23 0 46 8 63 15l0-188c0-5-4-9-9-9l-134 0z m54-14c-17 10-25 32-33 55-2 5-3 9-5 14 7-7 14-14 19-21 29-38 64-37 88-27 1-5 4-8 9-10l7-1c-25-12-61-25-85-10z m-78 92l0-54-38 0 0 25c1 12 5 26 13 35l18 0c3-2 6-4 7-6z m54 152c33 0 61-27 61-61 0-33-28-61-61-61l-54 0-1 1c-2 1-4 2-7 3l0 57c1 34 28 61 62 61z m-146 0c34 0 61-27 61-61l0-61-61 0c-33 0-61 28-61 61 0 34 28 61 61 61z m92-230l0-226-38 0 0 226z"/>
<glyph glyph-name="goals" unicode="&#57351;" d="M511 441c-2 5-6 8-12 8l-50 0 0 50c0 6-3 10-8 12-5 3-11 1-15-2l-84-85c-3-2-4-6-4-9l0-58-102-103c-5-4-5-13 0-18 2-2 6-4 9-4 3 0 6 2 9 4l101 102 59 0c3 0 6 1 8 4l85 84c5 4 6 10 4 15z m-75-19l32 0-58-58-45 0 0 45 58 58 0-32c-1-6 6-13 13-13z m29-74c-3 2-7 2-10 0-6-2-9-10-7-17 11-27 18-56 18-85 0-4 0-8 0-12-6-112-96-202-208-208-8 0-15 0-24 0-112 6-202 96-208 208 0 4 0 8 0 12 0 4 0 7 0 12 6 112 96 201 208 208 4 0 8 0 12 0 29 0 58-6 85-18 3-2 7-2 10 0 3 2 5 4 7 7 2 7 0 15-7 17-31 13-63 19-95 19-4 0-8 0-14 0-29-1-56-8-82-19-30-12-56-30-79-53-22-22-40-49-53-78-10-26-16-54-18-83 0-4 0-8 0-12 0-4 0-9 0-14 2-29 8-56 19-82 13-29 31-56 53-78 22-22 49-40 78-53 26-11 54-17 83-19 4 0 8 0 13 0 4 0 8 0 12 0 29 2 56 8 83 19 29 12 55 31 78 53 23 22 40 49 53 78 11 27 18 54 19 84 0 4 0 8 0 12 0 33-6 66-19 96-2 2-4 4-7 6z m-293-30c10 10 21 17 33 23 25 11 55 11 81 0 3-2 6-2 9 0 3 1 6 4 7 7 3 6 0 14-7 17-32 13-69 13-101 0-15-7-28-16-40-28-12-12-21-26-28-41-7-16-11-33-11-50 0-18 3-35 11-51 6-15 16-29 28-41 12-12 25-20 40-28 16-6 33-10 51-10 17 0 35 4 51 10 15 7 29 16 41 28 12 12 21 26 28 41 6 16 10 33 10 51 0 17-3 34-10 50-2 3-4 6-7 7-4 2-7 2-10 0-6-2-10-10-7-17 5-12 8-26 8-40 0-13-3-27-8-40-6-12-13-23-23-32-9-10-20-17-32-23-26-11-56-11-81 0-12 6-23 13-33 23-10 9-17 20-22 32-6 13-8 27-8 40 0 14 2 28 8 40 5 12 13 23 22 32z"/>
<glyph glyph-name="google-plus" unicode="&#57352;" d="M507 283l-38 0 0 41c0 2-6 2-7 2l-46 0c-2 0-2 0-2 0 0 0 0 0 0-2l0-41-43 0c-4 0-9-2-9-5l0-45c0-2 5-5 9-5l43 0 0-41c0-1 0-2 0-2 0 0 0 0 2 0l46 0c0 0 7 0 7 2l0 41 38 0c3 0 5 2 5 5l0 45c0 4-2 5-5 5z m-12-37l-33 0c-6 0-10-7-10-13l0-31-20 0 0 31c0 6-9 13-15 13l-37 0 0 20 37 0c6 0 15 6 15 12l0 31 20 0 0-31c0-6 4-12 10-12l33 0z m-177 41l-150 0c-3 0-7-1-7-9l0-54c0-7 3-9 7-9l76 0-1-3c-1-7-4-10-6-12-1-1-2-2-3-3-4-7-9-11-15-15-5-5-13-8-21-12-9-3-20-4-30-4-16 0-30 4-44 12-14 8-24 18-32 32-8 14-12 29-12 45 0 16 4 31 12 45 8 14 18 25 32 33 14 8 28 12 44 12 22 0 41-7 56-22 4-4 10-4 14 0l43 42c1 1 3 5 3 7 0 2-1 6-3 7-31 31-69 45-113 45-22 0-45-5-66-14-20-8-38-20-53-36-15-15-27-32-36-53-8-20-13-43-13-65 0-22 5-45 14-66 8-20 20-38 36-53 15-15 32-27 53-36 21-9 43-14 66-14 31 0 60 7 85 21 24 14 44 34 57 59 14 25 20 54 20 85 0 9-1 18-2 28-3 5-7 7-11 7z m-25-110c-11-22-28-39-50-51-21-12-46-19-74-19-20 0-39 4-58 12-18 8-34 19-47 31-13 13-24 29-31 48-8 18-12 37-12 57 0 20 3 40 11 59 8 18 18 34 31 47 13 13 29 24 47 31 19 8 38 12 58 12 34 0 63-10 89-30l2-2-28-27-1 1c-17 13-38 20-61 20-19 0-38-5-55-15-16-9-29-23-39-40-9-17-14-35-14-55 0-20 5-38 14-55 10-17 23-31 39-40 17-10 35-15 55-15 13 0 25 2 36 6 11 4 20 8 28 14 7 5 13 12 19 19 6 7 10 13 12 20 2 6 4 12 6 18 0 3-1 7-3 9-2 2-5 4-8 4l-77 0 0 31 126 0c2 0 4-1 4-16-2-27-8-52-19-74z"/>
<glyph glyph-name="heart" unicode="&#57353;" d="M509 382c-11 52-53 92-104 103-40 8-82-3-113-28-15-13-28-29-36-47-9 18-21 34-36 47-31 25-72 36-113 28-51-11-93-51-104-103-8-37-1-76 22-107 1-1 1-2 2-3l200-234c7-8 18-12 28-12 11 0 21 4 28 12l200 234c1 1 2 2 3 3 24 31 31 70 23 107z m-262-328l-197 232c0 0-1 1-2 1-19 27-26 58-19 90 9 41 42 74 83 82 33 7 66-1 91-22 26-21 40-51 40-84 0-7 6-13 13-13 7 0 13 6 13 13 0 33 14 63 40 84 25 21 58 29 91 22 41-8 74-41 83-82 7-31 0-63-19-90-1-1-1-1-1-1l-198-232c-4-4-14-4-18 0z"/>
<glyph glyph-name="heart-fill" unicode="&#57354;" d="M509 382c-11 52-53 92-104 103-40 8-82-3-113-28-15-13-28-29-36-47-9 18-21 34-36 47-31 25-72 36-113 28-51-11-93-51-104-103-8-37-1-76 22-107 1-1 1-2 2-3l200-234c7-8 18-12 28-12 11 0 21 4 28 12l200 234c1 1 2 2 3 3 24 31 31 70 23 107z"/>
<glyph glyph-name="high-priority" unicode="&#57356;" d="M256 110c-30 0-55-24-55-55 0-30 25-55 55-55 30 0 55 25 55 55 0 31-25 55-55 55z m0-84c-16 0-29 13-29 29 0 16 13 29 29 29 16 0 29-13 29-29 0-16-13-29-29-29z m-13 133c1-6 7-11 13-11 6 0 12 5 13 11l39 315c2 9-2 19-8 27-6 7-16 11-26 11l-36 0c-10 0-20-4-26-11-6-7-10-17-8-27z m-13 318c0 2 0 5 1 6 2 2 4 3 7 3l36 0c3 0 5-1 7-3 1-1 2-4 1-6l-26-211z"/>
<glyph glyph-name="history" unicode="&#57357;" d="M256 512c-72 0-140-30-188-82l0 69c0 7-6 13-13 13-7 0-13-6-13-13l0-105c0-8 6-13 13-13l106 0c7 0 13 5 13 13 0 7-6 12-13 12l-79 0c43 51 107 80 174 80 127 0 230-103 230-230 0-127-103-230-230-230-127 0-230 103-230 230 0 7-6 13-13 13-7 0-13-6-13-13 0-141 115-256 256-256 141 0 256 115 256 256 0 141-115 256-256 256z m10-106c-7 0-12-5-12-12l0-148c0-8 5-13 12-13l128 0c7 0 12 5 12 13 0 7-5 12-12 12l-115 0 0 136c0 7-5 12-13 12z"/>
<glyph glyph-name="home" unicode="&#57358;" d="M497 347l-48 34 0 97c0 19-15 35-35 35l-20 0c-19 0-35-15-35-35l0-35-96 67c-5 3-10 3-14 0l-234-163c-9-6-15-17-15-29l0-30c0-7 6-13 13-13l50 0 0-241c0-18 15-34 35-34l316 0c19 0 35 15 35 34l0 240 50 0c7 0 13 6 13 13l0 31c0 12-6 23-15 29z m-75-313c0-4-4-8-8-8l-72 0 0 198c0 18-15 34-34 34l-105 0c-18 0-34-15-34-34l0-198-72 0c-5 0-8 4-8 8l0 254c0 7-6 13-13 13l-50 0 0 17c0 4 1 6 4 8l226 157 109-76c4-2 9-3 13-1 4 3 8 7 8 12l0 60c0 4 4 8 8 8l20 0c5 0 8-4 8-8l0-104c0-4 3-8 6-11l54-37c2-2 4-4 4-8l0-17-51 0c-7 0-13-6-13-13z m-227 190c0 5 4 8 8 8l106 0c5 0 8-4 8-8l0-198-122 0z"/>
<glyph glyph-name="host" unicode="&#57359;" d="M129 319c0-11-10-21-21-21-11 0-21 10-21 21 0 12 10 21 21 21 11 0 21-9 21-21z m-21-169c12 0 21 10 21 21 0 12-10 21-21 21-11 0-21-10-21-21 0-11 9-21 21-21z m383 244c0 1 0 3-1 4 0 0 0 0 0 0l-49 86c-10 18-28 28-48 28l-274 0c-20 0-38-10-48-28l-48-84-1-2c0 0 0-2 0-3l0-276c0-18 15-34 34-34l178 0 0-59-158 0c-7 0-13-5-13-12 0-8 7-14 13-14l338 0c8 0 13 6 13 13 0 7-5 13-13 13l-156 0 0 58 199 0c18 0 34 15 34 34z m-397 77c5 9 15 15 25 15l275 0c10 0 20-5 25-15l37-65-400 0z m371-353c0-4-4-8-8-8l-402 0c-5 0-8 4-8 8l0 115 419 0 0-115z m0 140l-418 0 0 123 419 0 0-123z m-199 38l148 0c8 0 13 6 13 13 0 7-5 13-13 13l-148 0c-7 0-12-6-12-13 0-7 5-13 12-13z m0-148l148 0c8 0 13 6 13 13 0 7-5 13-13 13l-148 0c-7 0-12-6-12-13 0-7 5-13 12-13z"/>
<glyph glyph-name="identity-info" unicode="&#57360;" d="M478 449l-64 0c-7 0-12-6-12-13l0-10c0-11-9-19-19-19-9 0-18 9-18 19l0 10c0 7-6 13-13 13l-170 0c-7 0-12-6-12-13l0-10c0-11-9-19-19-19-10 0-18 9-18 19l0 10c0 7-6 13-13 13l-86 0c-19 0-34-15-34-35l0-316c0-19 15-35 34-35l444 0c19 0 35 15 35 35l0 316c-1 20-16 35-35 35z m8-351c0-5-4-8-8-8l-444 0c-4 0-8 4-8 8l0 316c0 5 4 8 8 8l72 0c2-23 21-42 45-42 24 0 43 18 45 42l143 0c2-23 21-42 45-42 24 0 43 18 45 42l50 0c5 0 8-4 8-8l0-316z m-325 135c30 0 55 25 55 55 0 30-25 55-55 55-31 0-55-25-55-55 0-30 24-55 55-55z m0 84c16 0 29-13 29-30 0-17-12-29-29-29-17 0-30 12-30 29 0 17 14 30 30 30z m81-124c-5 13-18 23-32 23l-96 0c-15 0-28-10-32-23l-18-49c-2-4-1-8 2-12 2-3 6-6 10-6l169 0c4 0 8 3 10 6 3 3 3 8 2 12z m-137-8c1 3 4 5 8 5l96 0c3 0 6-2 8-5l10-32-133 0z m331 158l-106 0c-8 0-13-5-13-13 0-7 5-12 13-12l105 0c7 0 13 5 13 12 1 7-6 13-12 13z m0-85l-106 0c-8 0-13-5-13-12 0-8 5-13 13-13l105 0c7 0 13 5 13 13 1 7-6 12-12 12z m0-84l-106 0c-8 0-13-6-13-13 0-7 5-13 13-13l105 0c7 0 13 6 13 13 1 7-6 13-12 13z"/>
<glyph glyph-name="income" unicode="&#57361;" d="M478 427l-380 0c-19 0-35-15-35-34l0-30-29 0c-18 0-34-15-34-34l0-211c0-19 15-35 34-35l381 0c19 0 35 15 35 35l0 29 29 0c19 0 35 15 35 35l0 212c-2 18-17 33-36 33z m-56-309c0-4-4-8-8-8l-380 0c-4 0-8 4-8 8l0 212c0 4 4 8 8 8l381 0c5 0 8-4 8-8l0-212z m64 64c0-4-4-8-8-8l-29 0 0 156c0 18-15 34-35 34l-324 0 0 30c0 4 4 8 8 8l380 0c5 0 8-4 8-8z m-262 119c-42 0-76-35-76-76 0-42 34-76 76-76 42 0 76 34 76 76 0 41-34 76-76 76z m0-127c-28 0-50 22-50 50 0 28 22 50 50 50 28 0 50-22 50-50 0-28-22-50-50-50z"/>
<glyph glyph-name="income-info" unicode="&#57362;" d="M478 427l-380 0c-19 0-35-15-35-34l0-30-29 0c-18 0-34-15-34-34l0-211c0-19 15-35 34-35l381 0c19 0 35 15 35 35l0 29 29 0c19 0 35 15 35 35l0 212c-2 18-17 33-36 33z m-56-309c0-4-4-8-8-8l-380 0c-4 0-8 4-8 8l0 212c0 4 4 8 8 8l381 0c5 0 8-4 8-8l0-212z m64 64c0-4-4-8-8-8l-29 0 0 156c0 18-15 34-35 34l-324 0 0 30c0 4 4 8 8 8l380 0c5 0 8-4 8-8z m-262 119c-42 0-76-35-76-76 0-42 34-76 76-76 42 0 76 34 76 76 0 41-34 76-76 76z m0-127c-28 0-50 22-50 50 0 28 22 50 50 50 28 0 50-22 50-50 0-28-22-50-50-50z"/>
<glyph glyph-name="information" unicode="&#57364;" d="M256 512c-141 0-256-115-256-256 0-141 115-256 256-256 141 0 256 115 256 256 0 141-115 256-256 256z m0-486c-126 0-230 104-230 230 0 126 104 230 230 230 126 0 230-104 230-230 0-126-104-230-230-230z m0 332c-10 0-18-8-18-18l0-232c0-10 8-18 18-18 10 0 18 8 18 18l0 232c0 10-8 18-18 18z m26 67c0-15-11-27-26-27-15 0-26 12-26 27 0 14 11 26 26 26 15 0 26-12 26-26z"/>
<glyph glyph-name="insurance" unicode="&#57365;" d="M455 466c-2 3-6 4-10 4-77-10-136 3-181 39-5 4-11 4-16 0-45-36-104-49-181-39-3 0-7-1-9-4-4-2-5-5-5-9l0-162c0-89 41-172 111-227l84-66c2-1 5-2 8-2 3 0 6 1 8 2l84 66c70 55 111 138 111 227l0 162c0 4-1 7-4 9z m-21-24l0-147c0-81-37-157-101-206l-77-59-76 59c-64 49-101 125-101 206l0 147c73-6 131 7 177 41 46-34 104-47 178-41z m-52-36c-52-6-84 11-118 37-5 4-11 4-16 0-34-27-66-43-117-37-4 0-7-1-10-4-3-2-4-5-4-9l0-101c0-61 26-118 73-156l58-49c2-1 6-3 8-3 2 0 6 1 8 3l58 49c47 38 73 96 73 156l0 102c0 4-1 7-4 9-2 3-6 3-9 3z m-12-27l0-87c0-53-24-102-64-136l-50-42-50 42c-41 34-64 83-64 136l0 87c41-2 76 10 113 38 39-28 74-40 115-38z"/>
<glyph glyph-name="interest-certificate" unicode="&#57366;" d="M252 233c54 0 98 44 98 97 0 54-44 98-98 98-54 0-98-44-98-98 1-54 44-97 98-97z m0 169c39 0 72-32 72-72 0-40-32-72-72-72-39 0-72 32-72 72 1 40 33 72 72 72z m192-320l-61 122c31 33 51 78 51 126 0 100-81 182-182 182-101 0-182-82-182-182 0-52 22-99 56-132l-58-116c-2-4-2-9 1-13 3-4 7-6 12-6l57 8 24-63c1-5 6-8 11-8l1 0c4 0 9 2 11 7l71 140 70-140c2-5 6-7 11-7l1 0c4 0 9 3 11 8l25 63 57-8c5-1 10 2 12 6 3 4 3 9 1 13z m-192 404c86 0 156-70 156-156 0-85-70-156-156-156-86 0-156 70-156 156 0 85 70 156 156 156z m-150-393l45 89c24-16 51-28 82-32l-53-104-18 45c-2 6-8 9-13 8z m308 0l-42 5c-6 1-11-2-14-8l-18-46-53 106c30 5 58 18 80 36z"/>
<glyph glyph-name="internet" unicode="&#57367;" d="M256 512c-141 0-256-115-256-256 0-141 115-256 256-256 141 0 256 115 256 256 0 141-115 256-256 256z m-135-367c12-43 30-79 53-104-40 15-76 42-102 77 14 11 30 20 49 27z m-7 25c-21-8-40-18-56-30-21 35-32 75-32 116 0 47 14 92 40 131 16-9 33-18 52-25-8-33-13-69-13-106 1-30 4-58 9-86z m272 216c-12 34-28 64-48 85 35-13 66-35 92-64-14-8-28-15-44-21z m-130-191c-41 0-81-5-117-17-5 25-7 52-7 78 0 34 4 66 12 98 70-20 156-20 226 0 8-31 12-64 12-98 0-26-3-53-8-78-37 12-77 17-118 17z m-106 183c24 67 64 108 106 108 42 0 82-41 106-108-65-18-147-18-212 0z m24 93c-20-21-36-50-48-85-16 6-30 13-44 21 26 29 57 51 92 64z m193-317c-21-78-65-128-111-128-46 0-90 50-111 128 68 20 154 20 222 0z m-29-113c23 25 41 61 53 104 19-7 35-16 49-27-26-35-62-62-102-77z m68 215c0 37-4 72-13 106 19 7 37 16 52 25 27-38 41-84 41-131 0-41-12-81-32-116-16 12-35 22-56 30 5 28 8 56 8 86z"/>
<glyph glyph-name="issue" unicode="&#57368;" d="M34 359l105 0c19 0 35 15 35 35l0 105c0 6-4 10-8 12-5 2-11 1-14-3l-127-126c-4-4-5-10-3-15 2-5 7-8 12-8z m114 35c0-5-4-8-8-8l-75 0 83 82z m287-180c-7 0-13-5-13-12l0-168c0-5-4-8-8-8l-359 0c-5 0-8 4-8 8l0 295c0 7-5 13-13 13-7 0-13-6-13-13l0-295c0-18 15-34 34-34l359 0c19 0 35 15 35 34l0 168c0 7-7 12-14 12z m-232 272l211 0c5 0 8-4 8-8l0-105c0-7 6-13 13-13 7 0 13 6 13 13l0 105c0 18-15 34-34 34l-211 0c-7 0-13-6-13-13 0-7 6-13 13-13z m284-184l-45 44c-4 5-13 5-18 0l-179-179c-1-1-2-2-3-4l-37-82c-3-5-1-11 2-15 3-2 6-4 9-4 2 0 4 0 6 1l82 39c2 0 2 1 4 2l179 179c5 6 5 14 0 19z m-211-184l-34-16 16 34z m149 140l-127-127-26 27 126 126z m35 35l-17-17-27 26 17 17z"/>
<glyph glyph-name="keyboard" unicode="&#57369;" d="M478 427l-444 0c-18 0-34-15-34-34l0-275c0-18 15-34 34-34l444 0c19 0 35 15 35 34l0 276c-1 18-16 33-35 33z m-452-63l0 30c0 4 4 8 8 8l444 0c4 0 8-4 8-8l0-30c0 0 0-90 0-90l0-156c0-4-4-8-8-8l-444 0c-4 0-8 4-8 8l0 156c0 1 0 90 0 90z m187-222l105 0c8 0 13 6 13 13 0 7-5 13-13 13l-105 0c-7 0-13-6-13-13 0-7 6-13 13-13z m-94 215l-42 0c-7 0-13-6-13-13 0-7 6-13 13-13l42 0c7 0 13 6 13 13 0 6-6 13-13 13z m106 0l-43 0c-7 0-12-6-12-13 0-7 5-13 12-13l43 0c7 0 13 6 13 13 0 6-6 13-13 13z m-106-64l-42 0c-7 0-13-6-13-13 0-7 6-13 13-13l42 0c7 0 13 6 13 13 0 7-6 13-13 13z m106 0l-43 0c-7 0-12-6-12-13 0-7 5-13 12-13l43 0c7 0 13 6 13 13 0 7-6 13-13 13z m-106-63l-42 0c-7 0-13-6-13-13 0-7 6-13 13-13l42 0c7 0 13 6 13 13 0 7-6 13-13 13z m106 0l-43 0c-7 0-12-6-12-13 0-7 5-13 12-13l43 0c7 0 13 6 13 13 0 7-6 13-13 13z m105 127l-42 0c-7 0-13-6-13-13 0-7 6-13 13-13l42 0c8 0 13 6 13 13 0 6-5 13-13 13z m106 0l-42 0c-8 0-13-6-13-13 0-7 5-13 13-13l42 0c7 0 13 6 13 13 0 6-6 13-13 13z m-106-64l-42 0c-7 0-13-6-13-13 0-7 6-13 13-13l42 0c8 0 13 6 13 13 0 7-5 13-13 13z m106 0l-42 0c-8 0-13-6-13-13 0-7 5-13 13-13l42 0c7 0 13 6 13 13 0 7-6 13-13 13z m-106-63l-42 0c-7 0-13-6-13-13 0-7 6-13 13-13l42 0c8 0 13 6 13 13 0 7-5 13-13 13z m106 0l-42 0c-8 0-13-6-13-13 0-7 5-13 13-13l42 0c7 0 13 6 13 13 0 7-6 13-13 13z"/>
<glyph glyph-name="liabilities" unicode="&#57370;" d="M379 237c37 0 67 29 67 66 0 37-30 67-67 67-37 0-67-30-67-67 0-37 30-66 67-66z m0 107c23 0 41-18 41-41 0-22-18-41-41-41-22 0-41 19-41 41 0 23 18 41 41 41z m-173 22c37 0 67 29 67 66 0 37-30 66-67 66-36 0-66-29-66-66 0-37 30-66 66-66z m0 108c23 0 41-19 41-41 0-23-18-41-41-41-22 0-40 18-40 41 0 22 18 41 40 41z m294-306c-13 10-34 24-65 19-25-4-81-25-109-37-8 49-42 80-90 80l-90 0c-39 26-73 39-108 42-10 1-20-2-27-9-7-6-11-15-11-25l0-116c0-13 8-25 20-31l148-70c12-6 24-8 38-8 10 0 20 1 29 5l255 92c12 4 20 14 22 26 2 12-2 24-12 32z m-474 70c0 3 0 5 2 7 2 1 4 2 6 2 0 0 0 0 0 0 20-1 52-8 100-40 2-1 4-2 7-2l94 0c51 0 62-41 64-60l-157 0c-7 0-12-6-12-13 0-7 5-13 12-13l172 0c2 0 3 0 4 0 0 0 1 1 2 1 1 0 90 37 120 42 21 4 34-4 44-13 2-2 3-5 2-8 0-3-2-6-5-7l-255-92c-15-5-32-4-47 3l-149 69c-3 1-4 4-4 8z"/>
<glyph glyph-name="liabilities-info" unicode="&#57371;" d="M379 237c37 0 67 29 67 66 0 37-30 67-67 67-37 0-67-30-67-67 0-37 30-66 67-66z m0 107c23 0 41-18 41-41 0-22-18-41-41-41-22 0-41 19-41 41 0 23 18 41 41 41z m-173 22c37 0 67 29 67 66 0 37-30 66-67 66-36 0-66-29-66-66 0-37 30-66 66-66z m0 108c23 0 41-19 41-41 0-23-18-41-41-41-22 0-40 18-40 41 0 22 18 41 40 41z m294-306c-13 10-34 24-65 19-25-4-81-25-109-37-8 49-42 80-90 80l-90 0c-39 26-73 39-108 42-10 1-20-2-27-9-7-6-11-15-11-25l0-116c0-13 8-25 20-31l148-70c12-6 24-8 38-8 10 0 20 1 29 5l255 92c12 4 20 14 22 26 2 12-2 24-12 32z m-474 70c0 3 0 5 2 7 2 1 4 2 6 2 0 0 0 0 0 0 20-1 52-8 100-40 2-1 4-2 7-2l94 0c51 0 62-41 64-60l-157 0c-7 0-12-6-12-13 0-7 5-13 12-13l172 0c2 0 3 0 4 0 0 0 1 1 2 1 1 0 90 37 120 42 21 4 34-4 44-13 2-2 3-5 2-8 0-3-2-6-5-7l-255-92c-15-5-32-4-47 3l-149 69c-3 1-4 4-4 8z"/>
<glyph glyph-name="limit" unicode="&#57372;" d="M478 427l-444 0c-18 0-34-15-34-34l0-275c0-18 15-34 34-34l444 0c19 0 35 15 35 34l0 276c-1 18-16 33-35 33z m8-309c0-4-4-8-8-8l-444 0c-4 0-8 4-8 8l0 156 460 0z m0 220l0-37-460 0 0 37z m-460 56c0 4 4 8 8 8l444 0c4 0 8-4 8-8l0-30-460 0z m304-246l105 0c7 0 13 6 13 13 0 7-6 13-13 13l-105 0c-8 0-13-6-13-13 0-7 6-13 13-13z"/>
<glyph glyph-name="linkedin" unicode="&#57373;" d="M496 171l0 4c0 23 0 46-2 68 0 25-7 47-17 66-25 45-67 63-122 53-18-4-37-11-56-21l0 17c0 4-3 7-7 7l-106 0c-4 0-7-3-7-7l0-352c0-4 3-8 7-8l108 0 5 5 0 47c0 56 0 111 0 166 0 2 1 6 2 8 9 21 32 33 57 29 9-2 17-11 18-21 1-5 1-10 1-14 0-20 0-41 0-61l0-152c0-4 3-7 7-7l106 0c4 0 7 3 7 7l0 45c-1 42-1 81-1 121z m-213 67c-4-7-5-13-5-21 0-50 0-100 0-150l0-46-76 0 0 322 76 0 0-42 13 9c3 3 6 4 8 6 26 17 52 26 83 27 36 2 68-19 81-55 7-18 11-39 11-62 0-51 0-101 0-152l0-53-76 0 0 45c0 51 0 102 0 152 0 8-1 14-2 20-3 21-15 33-37 36-33 6-61-8-76-36z m-146-226l0 353-113 0c-4 0-7-3-7-7l0-352c0-4 3-8 7-8l114 0-1 8c1 3 0 4 0 6z m-22 331l0-322-76 0 0 322z m-38 168c-15 0-29-5-40-17-11-10-17-24-17-40 0-31 26-56 57-56 15 0 29 6 40 16 10 12 17 26 17 41 0 31-26 56-57 56z m35-57c0-9-4-18-10-25-7-7-16-11-25-11-19 0-35 16-35 36 0 10 4 19 10 26 6 6 15 10 25 10 20 0 35-16 35-36z"/>
<glyph glyph-name="liquidity-management" unicode="&#57374;" d="M402 34c0-4-4-8-8-8l-276 0c-4 0-8 4-8 8l0 72 152 0 0 26-152 0 0 290 291 0 0-46 25 0 0 102c0 18-15 34-34 34l-274 0c-18 0-34-15-34-34l0-444c0-19 15-35 34-35l275 0c18 0 34 15 34 35l0 0c0 0-25 0-25 0z m-292 444c0 4 4 8 8 8l275 0c5 0 8-4 8-8l0-30-291 0z m168-422c0-12-10-22-22-22-12 0-22 10-22 22 0 12 10 22 22 22 12 0 22-10 22-22z m188 194l0 0c-6 15-20 24-36 24l-1 0c-6 14-19 24-34 24l0 30c0 18-14 32-32 32-17 0-32-14-32-32l0-65c-5 14-19 23-35 23-14 0-26-11-26-25l0-85c0-15 11-27 22-41 13-15 27-33 27-57l0-12c0-7 7-13 14-13l133 0c8 0 14 6 14 13 0 22 6 36 11 50 7 15 13 33 13 60l0 37c0 21-17 37-38 37z m11-74c0-22-6-35-11-50-5-12-11-26-13-46l-107 0c-1 33-20 56-34 73-7 9-15 18-15 23l0 84c5-1 9-6 9-10l0-37c0-15 12-26 26-26 14 0 26 11 26 26l0 115c0 2 2 5 4 5 3 0 5-3 5-5l0-128c0-7 7-14 14-14 7 0 13 7 13 14l0 72c6-1 10-6 10-10l0-62c0-7 6-14 14-14 7 0 13 7 13 14l0 47c6-1 10-5 10-10l0-37c0-7 6-14 13-14 8 0 14 7 14 14l0 23c6-1 10-5 10-10l0-37z"/>
<glyph glyph-name="loan-account-configuration" unicode="&#57375;" d="M364 256c0 59-49 108-108 108-59 0-108-49-108-108 0-59 49-108 108-108 59 0 108 49 108 108z m-108-82c-46 0-82 36-82 82 0 46 36 82 82 82 46 0 82-36 82-82 0-46-36-82-82-82z m243 137l-48 0c-4 15-10 31-18 44l33 34c3 2 4 5 4 9 0 3-1 6-4 8l-60 60c-4 5-13 5-18 0l-34-33c-13 8-28 14-44 18l0 48c0 7-5 13-12 13l-84 0c-8 0-13-6-13-13l0-48c-15-4-31-10-44-18l-34 33c-5 5-13 5-18 0l-60-60c-3-2-4-5-4-8 0-4 1-7 4-9l33-34c-8-13-14-29-18-44l-48 0c-7 0-13-5-13-13l0-84c0-8 6-13 13-13l48 0c4-15 10-31 18-44l-33-34c-3-2-4-5-4-9 0-3 1-6 4-8l60-60c5-5 13-5 18 0l34 33c13-8 29-14 44-18l0-48c0-7 5-13 13-13l84 0c8 0 13 6 13 13l0 48c15 4 31 10 44 18l34-33c5-5 13-5 18 0l60 60c3 2 4 5 4 8 0 4-1 7-4 9l-33 34c8 13 14 29 18 44l48 0c7 0 13 5 13 13l0 84c-1 8-7 13-14 13z m-209-231c-1-1-1-1-2-2-1 0-1-1-2-1 0-1 0-2 0-3 0 0 0-1-1-2l0-46-59 0 0 46c0 1 0 2 0 2 0 1-1 2-1 3 0 1-1 1-2 2-1 1-1 2-1 2-1 1-2 1-2 1-1 1-2 1-2 1l-2 1c-20 5-38 12-55 23l-1 1c-1 1-2 1-2 1-1 0-2 0-3 1-1 0-1 0-2 0-1 0-2 0-3-1 0 0-1-1-2-1-1-1-2-1-2-1l-32-33-42 42 33 33c1 1 1 1 1 2 0 1 1 2 1 3 0 0 0 1 1 2 0 1 0 2 0 2 0 1 0 2-1 3 0 1-1 1-1 1l0 2c-11 17-19 35-24 55l0 1c0 1 0 2 0 2-1 1-1 2-2 3 0-3-1-2-2-1 0 1-1 1-2 2-1 0-2 0-2 0-1 0-2 0-3 1l-46 0 0 59 45 0c1 0 3 0 4 0 1 0 1 1 2 1 1 0 2 1 2 2 1 0 1 1 2 1 1 1 1 2 2 3 0 1 0 1 0 1l1 2c5 20 12 38 23 55l1 1c1 1 1 2 1 2 0 1 0 2 1 3 0 1 0 1 0 2 0 1 0 2-1 3 0 0-1 1-1 2-1 1-1 2-1 2l-32 33 41 42 33-33c1-1 2-2 3-2l1 0c2-1 3-1 4-1 2 0 3 0 5 1 0 0 1 0 1 0l1 1c17 11 35 19 55 23l2 1c1 0 2 1 2 1 0 0 1 1 1 2 1 0 1 0 2 1 1 1 1 2 1 2 0 1 1 1 1 2 0 1 0 2 1 3l0 46 58 0 0-46c0-1 0-2 1-3 0-1 1-1 1-2 0-1 1-2 2-3 0 0 0-1 1-1 1-1 2-1 2-2 1-1 1-1 1-1l2 0c20-5 38-12 55-24 1 0 1 0 2 0l1-1c1-1 3-1 4-1l0 0c1 0 3 0 4 1l0 0c1 1 2 1 4 1l32 33 42-41-32-32-1-2c-1-1-1-1-1-2 0 0 0-1 0-2 0-1-1-2-1-2 0-1 0-2 0-3 0-1 0-1 1-2 0-1 0-2 0-2l1-1c11-17 19-36 23-56l1 0c0-1 1-1 1-2 1-1 1-2 2-2 0-1 0-1 0-2 1-1 2-2 3-2l1 0c2-1 4-1 5-1l45 0 0-59-46 0c-1 0-2 0-3 0-1 0-1-1-2-1-1-1-2-1-3-2 0-1 0-1-1-1-1-1-1-2-2-3-1-1-1-1-1-1l0-2c-5-20-12-38-24-55l0-1c-1-1-1-2-1-2 0-1 0-2-1-3 0-1 0-1 0-2 0-1 0-2 1-3 0 0 1-1 1-2 0-1 0-2 1-2l33-32-42-42-32 32 0 1c-1 1-2 1-3 1-1 1-1 1-2 1-1 0-2 1-3 1 0 0-1 0-2 0-1 0-2 0-2-1-1 0-2-1-3-1l-1 0c-17-11-36-19-56-24l-1 0c-1 0-2-1-2-1 0 1-1 0-1-1z m-188 279z m0-206z m0 5z m-26 60z m334 136z m28-62z m-217 149z m-71-340z m141-30z"/>
<glyph glyph-name="loan-account-preference" unicode="&#57376;" d="M478 512l-338 0c-18 0-34-15-34-34l0-220-72 0c-19 0-34-15-34-34l0-158c0-36 30-66 66-66 2 0 4 0 7 1 1-1 2-1 3-1l359 0c43 0 76 34 76 76l0 402c1 19-14 34-33 34z m-452-288c0 5 4 8 8 8l72 0 0-166c0-23-18-40-40-40-23 0-40 17-40 40z m410-198l-318 0c8 11 13 25 13 40l0 412c0 4 4 8 8 8l339 0c4 0 8-4 8-8l0-402c0-27-23-50-50-50z m-22 148l-211 0c-7 0-13-6-13-13 0-7 6-13 13-13l211 0c8 0 13 6 13 13 0 7-5 13-13 13z m0-64l-211 0c-7 0-13-5-13-12 0-8 6-13 13-13l211 0c8 0 13 5 13 13 0 7-5 12-13 12z m22 317l-254 0c-7 0-12-5-12-13l0-148c0-7 5-12 12-12l254 0c7 0 13 5 13 12l0 148c0 8-7 13-13 13z m-14-25l0-123-227 0 0 123z"/>
<glyph glyph-name="loan-account-summary" unicode="&#57377;" d="M414 512l-233 0c-1 0-2 0-3-1l-1-1c-2 0-3-1-4-2l-106-106c-1 0-1-2-2-4l-1 0c0-1-1-2-1-4l0-360c0-20 15-35 35-35l316 0c20 0 35 15 35 35l0 444c0 19-15 34-35 34z m8-34l0-444c0-5-4-8-8-8l-316 0c-5 0-8 4-8 8l0 346 71 0c19 0 34 15 34 34l0 72 219 0c5 0 8-4 8-8z m-314-72l61 61 0-53c0-4-4-8-8-8z m243-148l-169 0c-7 0-12-5-12-12 0-8 5-13 12-13l169 0c7 0 13 5 13 13 0 7-6 12-13 12z m0-105l-169 0c-7 0-12-6-12-13 0-7 5-13 12-13l169 0c7 0 13 6 13 13 0 7-6 13-13 13z"/>
<glyph glyph-name="loans" unicode="&#57378;" d="M379 237c37 0 67 29 67 66 0 37-30 67-67 67-37 0-67-30-67-67 0-37 30-66 67-66z m0 107c23 0 41-18 41-41 0-22-18-41-41-41-22 0-41 19-41 41 0 23 18 41 41 41z m-173 22c37 0 67 29 67 66 0 37-30 66-67 66-36 0-66-29-66-66 0-37 30-66 66-66z m0 108c23 0 41-19 41-41 0-23-18-41-41-41-22 0-40 18-40 41 0 22 18 41 40 41z m294-306c-13 10-34 24-65 19-25-4-81-25-109-37-8 49-42 80-90 80l-90 0c-39 26-73 39-108 42-10 1-20-2-27-9-7-6-11-15-11-25l0-116c0-13 8-25 20-31l148-70c12-6 24-8 38-8 10 0 20 1 29 5l255 92c12 4 20 14 22 26 2 12-2 24-12 32z m-474 70c0 3 0 5 2 7 2 1 4 2 6 2 0 0 0 0 0 0 20-1 52-8 100-40 2-1 4-2 7-2l94 0c51 0 62-41 64-60l-157 0c-7 0-12-6-12-13 0-7 5-13 12-13l172 0c2 0 3 0 4 0 0 0 1 1 2 1 1 0 90 37 120 42 21 4 34-4 44-13 2-2 3-5 2-8 0-3-2-6-5-7l-255-92c-15-5-32-4-47 3l-149 69c-3 1-4 4-4 8z"/>
<glyph glyph-name="location-arrow" unicode="&#57379;" d="M512 14l-42 296c-1 7-7 12-13 12l-21 0c-7 0-13-6-13-13 0-7 6-13 13-13l10 0 37-261-105 53c-3 2-7 2-11 0l-111-49-111 49c-3 2-7 2-11 0l-105-53 37 261 10 0c7 0 13 6 13 13 0 7-6 13-13 13l-21 0c-6 0-12-5-13-12l-42-296c-1-4 2-9 6-12 1-1 4-2 7-2 1 0 4 1 5 2l122 60 110-48c4-2 8-2 11 0l111 48 122-60c4-3 9-2 13 0 4 4 6 8 5 12z m-256 72l9 9c6 7 148 151 148 259 1 88-70 158-157 158-87 0-158-70-158-158 0-108 143-252 148-258z m0 400c73 0 131-59 131-131 0-83-102-199-131-231-30 31-132 147-131 231 0 72 58 131 131 131z m0-205c43 0 78 35 78 78 0 43-35 79-78 79-43 0-78-35-78-78 0-43 35-79 78-79z m0 131c29 0 53-24 53-53 0-29-24-53-53-53-29 0-53 24-53 53 0 29 24 53 53 53z"/>
<glyph glyph-name="login" unicode="&#57380;" d="M66 20l398 0c6 0 18 6 18 16l0 441c0 5-6 15-14 15l-401 0c-6 0-17-9-17-16l0-146c0-8 8-15 16-15 8 0 16 7 16 15l0 130 368 0 0-408-368 0 0 120c0 9-8 16-17 16-8 0-15-6-15-16l0-139c0 0 2-13 16-13z m261 224c4 4 4 10 0 14-34 36-69 70-102 105-5 5-14 6-19 0-4-5-5-13 0-18 27-27 52-54 79-80l-250 3c-7 0-13-6-13-13 0-7 5-13 12-13l250-3c0 0 0 0 0-1-26-26-54-52-80-78-5-5-5-13 0-18 5-5 13-5 18 0 35 34 70 68 105 102z"/>
<glyph glyph-name="logout" unicode="&#57381;" d="M256 331c7 0 13 6 13 13l0 155c0 7-6 13-13 13-7 0-13-6-13-13l0-154c0-7 6-14 13-14z m82 122c-4 1-7 1-10 0-3-2-6-4-6-7-3-7 0-15 7-17 81-31 135-109 135-195 0-115-94-208-208-208-114 0-208 93-208 208 0 86 54 164 135 195 7 2 11 9 7 17 0 3-3 5-6 7-3 1-6 1-10 0-91-35-152-123-152-219 0-129 105-234 234-234 129 0 234 105 234 234 0 97-61 185-152 219z"/>
<glyph glyph-name="mail-box" unicode="&#57382;" d="M468 0l-423 0c-19 0-35 15-35 34l0 317c0 7 6 13 13 13 7 0 13-6 13-13l0-317c0-4 4-8 8-8l423 0c4 0 8 4 8 8l0 317c0 7 6 13 13 13 7 0 13-6 13-13l0-317c1-19-15-34-33-34z m-212 169c-2 0-5 1-7 2l-191 127c-5 4-7 12-3 18 4 6 12 7 18 3l183-121 183 122c6 4 14 2 18-3 4-6 2-14-3-18l-191-128c-2-1-5-2-7-2z m233 169c-3 0-5 1-7 3l-226 143-226-144c-6-4-13-2-17 4-4 6-3 14 4 18l232 148c4 2 9 2 13 0l233-148c7-4 8-12 4-18-2-4-6-6-10-6z m-64-296c-3 0-6 1-8 4l-106 84c-5 4-6 12-2 18 5 6 13 6 18 2l106-84c5-5 6-13 2-19-2-3-6-5-10-5z m-338 0c-4 0-7 2-10 5-5 6-3 14 2 19l106 84c5 5 13 4 18-2 5-6 3-14-2-18l-106-85c-2-2-5-3-8-3z"/>
<glyph glyph-name="mailbox" unicode="&#57383;" d="M512 434c0 0 0 2-1 3l-1 1c0 0 0 1 0 1 0 1 0 2-1 3 0 0-1 0-1 0-1 1-2 2-2 2l-2 1c-2 1-3 1-5 1l-486 0c-2 0-3 0-5-1-1 0-1 0-2-1 0 0 0-1-1-2-1 0-1 0-1 0-2-1-2-2-2-4l-1-1c-1-1-1-2-1-3l0-311c0-31 26-57 57-57l397 0c32 0 57 26 57 57l0 310z m-238-171c-11-8-25-8-36-1l-189 158 414 0z m181-171l-398 0c-18 0-31 14-31 31l0 283 196-164c20-14 48-14 68 1l196 163 0-282c0-18-14-32-31-32z m47 347z"/>
<glyph glyph-name="mailbox-view" unicode="&#57384;" d="M512 353c0 1-1 3-1 4l-1 1c0 1-1 2-2 3l-1 1c-1 0-1 0-1 1l-232 142c-12 6-25 6-36 0l-232-142c0-1-1-1-1-1l-1-1c-1-1-2-3-2-4l0-1c-1 1-2-1-2-2l0-319c0-18 15-34 34-34l444 0c19 0 35 15 35 34l0 318z m-251-170c-3-2-7-2-11 0l-215 168 216 131c3 2 6 2 9 0l216-131z m225-147c0-5-4-8-8-8l-444 0c-4 0-8 4-8 8l0 290 209-164c12-9 31-9 42 0l209 164 0-290z"/>
<glyph glyph-name="maintenance" unicode="&#57385;" d="M289 205l29 29c4 4 5 12 2 16l-21 35c3 4 4 9 6 13l38 10c6 2 10 6 10 13l0 41c0 7-4 12-10 13l-38 10c-2 5-3 9-6 13l21 35c3 5 2 12-2 16l-29 29c-4 4-11 5-16 2l-35-21c-4 3-8 4-13 6l-10 38c-1 5-6 9-13 9l-41 0c-7 0-11-4-13-10l-10-38c-4-2-8-3-13-6l-35 21c-4 3-12 3-16-1l-28-31c-4-4-4-11-1-16l21-34c-3-4-4-9-6-14l-38-9c-6-2-10-7-10-13l0-41c0-6 4-11 10-13l38-9c2-5 3-9 6-14l-21-34c-3-5-3-12 1-16l30-30c4-4 11-5 16-2l34 21c4-2 9-4 14-5l10-39c1-5 6-9 12-9l42 0c6 0 11 4 13 9l9 39c5 1 9 3 14 5l34-21c4-3 11-2 15 3z m-203 74z m4-2c3 4 4 9 1 13-4 7-7 15-9 22-1 5-4 8-9 9l-36 9 0 20 36 10c5 1 8 5 9 9 3 8 6 15 9 21 3 4 3 9 0 13 0 1-1 1-1 1l-18 32 14 14 31-18 1-1c4-2 9-3 13-1 7 4 15 8 22 9 5 2 8 5 9 10l8 36 21 0 9-36c1-5 5-8 9-10 8-2 15-5 21-9 4-2 10-2 14 1l31 19 15-15-19-30c0-1-1-1-1-2-2-4-2-9 0-13 4-6 8-14 9-21 2-5 5-8 10-9l36-9 0-21-36-8c-5-1-8-5-10-9-2-8-5-15-9-22-2-4-2-9 1-13l19-32-15-14-30 18-1 1c-4 3-10 3-14 1-6-4-14-7-21-9-5-1-8-5-9-9l-9-36-21 0-8 36c-1 4-5 8-9 9-8 3-15 6-22 9-4 2-9 2-13-1l-32-18-14 12z m92-3c36 0 66 30 66 66 0 36-30 66-66 66-36 0-65-30-65-66-1-36 29-66 65-66z m-40 67c0 21 18 40 40 40 23 0 40-18 40-40 0-22-17-40-40-40-22 0-40 17-40 40z m349-196l-24 5c-1 2-1 4-2 5l13 21c3 5 2 12-2 16l-19 19c-4 4-11 5-16 2l-21-13c-2 1-3 2-5 2l-5 24c-2 6-7 10-13 10l-27 0c-7 0-12-4-13-10l-6-24c-1 0-3-1-5-2l-20 13c-5 3-12 2-16-2l-20-19c-4-4-4-11-1-16l13-21c-1-1-2-3-3-5l-24-5c-7-1-11-7-11-12l0-27c0-7 4-12 10-13l24-6c0-1 1-3 2-5l-13-20c-3-5-2-12 2-16l19-20c4-4 11-4 16-1l21 13c1-1 3-2 5-3l5-24c2-5 7-9 13-9l27 0c7 0 11 4 13 9l6 24c1 1 3 2 4 3l21-13c5-3 12-3 16 1l19 20c4 4 5 11 2 16l-13 20c1 2 2 4 3 5l23 6c5 1 9 6 9 13l0 27c4 5 0 11-7 12z m-165-71c3 4 3 9 0 13-2 4-4 9-5 14-2 5-5 8-10 9l-21 4 0 8 21 4c5 1 8 5 10 9 1 5 3 10 5 14 3 4 3 9 0 13l-11 18 5 5 18-11c4-3 9-3 13 0 4 2 9 4 14 5 5 2 8 5 9 10l4 21 8 0 4-21c1-5 5-8 9-10 5-1 10-3 14-5 4-3 9-3 13 0l18 10 5-5-11-17 2 2c-2-4-3-10-1-14 3-4 4-8 6-13 1-5 5-8 9-9l21-5 0-7-21-5c-4-1-8-5-9-9-2-4-3-9-6-13-2-4-2-10 1-14l10-17-4-5-18 10c-4 1-10 1-14-1-4-3-8-4-13-6-5-2-8-5-9-10l-5-20-7 0-5 20c-1 5-5 8-9 10-4 2-9 3-13 6-4 2-10 2-14-1l-19-11-6 6z m56-4c27 0 48 22 48 48 0 27-21 48-48 48-26 0-48-21-48-48 0-26 22-48 48-48z m-21 48c0 12 9 23 22 23 12 0 23-10 23-23 0-12-10-22-23-22-13 1-22 10-22 22z"/>
<glyph glyph-name="medical" unicode="&#57386;" d="M258 16l-2 1-5 0c-56 13-106 44-142 89-38 45-58 102-58 160l0 146 12 2c75 7 135 32 184 74l9 8 9-8c49-43 109-67 184-74l12-2 0-146c0-58-20-115-57-160-36-45-87-76-142-89z m-4 27l4 0c48 12 93 40 125 79 33 41 51 92 51 144l0 122c-71 9-129 33-177 73-49-40-107-63-178-73l0-122c0-52 19-103 51-144 31-39 76-67 124-79z m-227 450l10 0 0-8 8 0 0-11-8 0 0-8-10 0 0 8-8 0 0 11 8 0z"/>
<glyph glyph-name="medium-priority" unicode="&#57387;" d="M455 213c-5 5-13 5-18 0l-168-168 0 454c0 7-6 13-13 13-7 0-13-6-13-13l0-454-168 168c-5 5-13 5-18 0-5-5-5-14 0-19l190-190c1-1 1-1 2-2 1 0 1 0 1 0 1 0 2-1 2-1 0 0 0 0 1 0 1 0 1 0 2 0 1 0 2 0 3 0 0 0 0 0 0 0 1 0 2 0 2 1 1 0 2 0 2 0 0 1 1 1 1 2l191 190c7 5 7 13 1 19z"/>
<glyph glyph-name="menu-bar" unicode="&#57388;" d="M13 412l485 0c8 0 13 6 13 13 0 7-5 13-13 13l-485 0c-7 0-13-6-13-13 0-7 6-13 13-13z m486-312l-486 0c-7 0-13-6-13-13 0-7 6-13 13-13l485 0c8 0 13 6 13 13 0 7-5 13-12 13z m0 169l-486 0c-7 0-13-6-13-13 0-7 6-13 13-13l485 0c8 0 13 6 13 13 0 7-5 13-12 13z"/>
<glyph glyph-name="minus" unicode="&#57389;" d="M499 269l-486 0c-7 0-13-6-13-13 0-7 6-13 13-13l485 0c8 0 13 6 13 13 0 7-5 13-12 13z"/>
<glyph glyph-name="minus-circle" unicode="&#57390;" d="M437 437c-48 49-112 75-181 75-69 0-133-26-181-75-49-48-75-112-75-181 0-68 26-133 75-181 48-48 113-75 181-75 68 0 133 26 181 75 48 48 75 113 75 181 0 68-26 133-75 181z m-181-411c-62 0-119 24-162 67-44 44-68 101-68 163 0 62 24 119 67 162 44 44 101 68 163 68 62 0 119-24 162-67 44-43 68-101 68-162 0-61-24-119-68-163-43-44-100-68-162-68z m158 232l-316 0c-8 0-13-5-13-12 0-8 5-13 13-13l316 0c8 0 13 5 13 13 0 7-5 12-13 12z"/>
<glyph glyph-name="module" unicode="&#57391;" d="M480 211c-6 4-14 3-18-2-4-6-4-14 2-19 2-1 3-4 3-6 0-2-1-5-3-6l-203-151c-3-2-7-2-10 0l-204 150c-2 1-3 4-3 6 0 3 2 5 3 7 6 4 7 12 3 18-4 6-12 7-19 2-9-6-13-16-13-27 0-11 4-21 13-27l203-150c6-4 13-6 20-6 8 0 15 2 20 6l206 150c9 6 14 17 14 27 0 11-5 22-14 28z m-448 18l203-150c6-4 13-6 20-6 7 0 15 2 20 6l205 150c9 6 14 17 14 27 0 11-5 21-14 27-6 4-14 3-18-2-4-6-4-14 2-19 2-1 3-4 3-6 0-2-1-5-3-6l-203-150c-3-2-7-2-10 0l-204 150c-2 1-3 4-3 6 0 2 2 5 3 6 6 4 7 12 3 19-3 2-5 5-9 5-3 0-7 0-10-3-9-6-13-17-13-27 0-11 5-21 14-27z m0 72l203-150c6-4 13-6 20-6 7 0 15 2 20 6l205 150c9 6 14 17 14 27 0 11-5 21-14 27l-204 151c-12 8-28 8-40 0l-204-150c-9-6-14-17-14-27 0-11 5-22 14-28z m12 27c0 2 2 5 3 6l204 151c2 1 3 1 5 1 2 0 3 0 5-1l203-150c2-1 3-4 3-6 0-3-1-5-3-7l-203-150c-3-2-7-2-10 0l-204 150c-1 1-3 4-3 6z"/>
<glyph glyph-name="more" unicode="&#57392;" d="M381 256c0-36 29-66 65-66 36 0 66 30 66 66 0 36-30 66-66 66-36 0-65-30-65-66z m105 0c0-22-17-40-40-40-22 0-40 18-40 40 0 22 18 40 40 40 22 0 40-18 40-40z m-355 0c0 36-29 66-65 66-36 0-66-30-66-66 0-36 30-66 66-66 36 0 65 30 65 66z m-105 0c0 22 17 40 40 40 22 0 40-18 40-40 0-22-18-40-40-40-23 0-40 18-40 40z m296 0c0 36-30 66-66 66-36 0-66-30-66-66 0-36 30-66 66-66 36 0 66 30 66 66z m-106 0c0 22 18 40 40 40 22 0 40-18 40-40 0-22-18-40-40-40-22 0-40 18-40 40z"/>
<glyph glyph-name="more-vertical" unicode="&#57393;" d="M256 381c36 0 66 29 66 65 0 36-30 66-66 66-36 0-66-30-66-66 0-36 30-65 66-65z m0 105c22 0 40-17 40-40 0-22-18-40-40-40-22 0-40 18-40 40 0 23 18 40 40 40z m0-355c-36 0-66-29-66-65 0-36 30-66 66-66 36 0 66 30 66 66 0 36-30 65-66 65z m0-105c-22 0-40 17-40 40 0 22 18 40 40 40 22 0 40-18 40-40 0-22-18-40-40-40z m0 296c-36 0-66-30-66-66 0-36 30-66 66-66 36 0 66 30 66 66 0 36-30 66-66 66z m0-106c-22 0-40 18-40 40 0 22 18 40 40 40 22 0 40-18 40-40 0-22-18-40-40-40z"/>
<glyph glyph-name="move" unicode="&#57394;" d="M446 322c-36 0-65-30-65-66 0-36 29-66 65-66 36 0 66 30 66 66 0 36-30 66-66 66z m0-106c-22 0-40 18-40 40 0 22 18 40 40 40 23 0 40-18 40-40 0-22-18-40-40-40z m-380 106c-36 0-66-30-66-66 0-36 30-66 66-66 36 0 65 30 65 66 0 36-29 66-65 66z m0-106c-23 0-40 18-40 40 0 22 17 40 40 40 22 0 40-18 40-40 0-22-18-40-40-40z m190 106c-36 0-66-30-66-66 0-36 30-66 66-66 36 0 66 30 66 66 0 36-30 66-66 66z m0-106c-22 0-40 18-40 40 0 22 18 40 40 40 22 0 40-18 40-40 0-22-18-40-40-40z"/>
<glyph glyph-name="multi-select" unicode="&#57395;" d="M161 391l338 0c7 0 13 6 13 13 0 7-6 13-13 13l-338 0c-7 0-13-6-13-13 0-7 6-13 13-13z m-106 68c-30 0-55-25-55-55 0-30 25-55 55-55 31 0 55 25 55 55 0 30-24 55-55 55z m0-85c-16 0-29 13-29 30 0 17 12 30 29 30 17 0 30-13 30-30 0-17-14-30-30-30z m444-105l-338 0c-7 0-13-6-13-13 0-7 6-13 13-13l338 0c7 0 13 6 13 13 0 7-6 13-13 13z m-444 42c-30 0-55-25-55-55 0-30 25-55 55-55 31 0 55 25 55 55 0 30-24 55-55 55z m0-85c-16 0-29 13-29 30 0 17 12 30 29 30 17 0 30-13 30-30 0-17-14-30-30-30z m444-105l-338 0c-7 0-13-6-13-13 0-7 6-13 13-13l338 0c7 0 13 6 13 13 0 7-6 13-13 13z m-444 42c-30 0-55-25-55-55 0-30 25-55 55-55 31 0 55 25 55 55 0 30-24 55-55 55z m0-85c-16 0-29 13-29 30 0 16 12 30 29 30 17 0 30-13 30-30 0-16-14-30-30-30z"/>
<glyph glyph-name="music" unicode="&#57396;" d="M482 427l-318 84c-4 1-8 0-11-2-3-3-5-7-5-11l0-280c-14 12-31 19-50 19-43 0-76-35-76-76 0-43 34-76 76-76 41 0 76 34 76 76l0 237 291-78 0-186c-14 12-31 19-51 19-42 0-76-35-76-76 0-43 35-76 76-76 43 0 76 34 76 76l0 337c1 6-3 12-8 13z m-384-317c-28 0-51 23-51 51 0 28 23 50 51 50 28 0 50-22 50-50 0-28-22-51-50-51z m76 315l0 57 291-77 0-58z m240-399c-28 0-50 22-50 50 0 28 22 50 50 50 28 0 51-22 51-50 0-27-23-50-51-50z"/>
<glyph glyph-name="new-account" unicode="&#57397;" d="M488 36c-11 78-78 137-158 138l-70 21c-2 1-5 1-7 0l-71-21c-79-1-147-60-158-138l-3-21c-1-4 1-7 3-10 2-3 6-5 10-5l444 0c4 0 8 2 10 5 2 3 3 6 3 10z m-439-10l1 6c9 66 67 116 133 116 2 0 3 0 4 1l69 20 69-20c1 0 2-1 4-1 66 0 124-50 133-116l1-6z m97 316c6-50 48-88 100-88 50 0 93 38 99 88l6 60c3 28-5 56-25 77-19 21-46 33-74 33l-13 0c-28 0-55-12-74-33-19-21-28-49-25-77z m38 120c14 15 34 24 55 24l13 0c21 0 41-8 55-24 14-16 21-37 19-58l-7-59c-4-38-36-66-73-66-38 0-69 28-74 66l-6 59c-3 21 4 42 18 58z m305-48l-48 0 0 48c0 7-6 12-12 12-7 0-12-5-12-12l0-48-48 0c-7 0-12-5-12-12 0-6 5-12 12-12l48 0 0-48c0-6 5-12 12-12 6 0 12 6 12 12l0 48 48 0c6 0 12 6 12 12 1 7-5 12-12 12z"/>
<glyph glyph-name="no" unicode="&#57398;" d="M256 514c-142 0-258-116-258-258 0-142 116-258 258-258 142 0 258 116 258 258 0 142-116 258-258 258z m0-489c-127 0-231 104-231 231 0 127 104 231 231 231 127 0 231-104 231-231 0-127-104-231-231-231z m147 362c0 3-1 7-4 10-5 5-13 5-18 0l-130-130-129 130c-4 5-13 5-18 0-2-3-4-6-4-10 0-3 2-7 4-9l129-129-129-129c-5-5-5-14 0-18 5-5 14-5 18 0l129 128 129-128c2-3 6-4 10-4 4 0 7 1 9 4 5 4 5 13 0 18l-129 129 129 129c3 2 4 5 4 9z"/>
</font>
</defs>
</svg>
