<svg xmlns="http://www.w3.org/2000/svg" viewBox="0 0 24 24" enable-background="new 0 0 24 24"><style type="text/css">.st0{fill:#9ECFEF;} .st1{fill:#FFFFFF;stroke:#333333;stroke-width:0.25;stroke-miterlimit:10;} .st2{fill:#97C9E8;} .st3{fill:#595959;} .st4{fill:#595959;stroke:#595959;stroke-width:0.25;stroke-miterlimit:10;} .st5{fill:#FFFFFF;} .st6{fill:#9ECFEF;stroke:#595959;stroke-width:0.75;stroke-miterlimit:10;} .st7{fill:none;} .st8{fill:none;stroke:#9ECFEF;stroke-miterlimit:10;} .st9{fill:none;stroke:#595959;stroke-width:0.75;stroke-miterlimit:10;} .st10{fill:none;stroke:#595959;stroke-miterlimit:10;} .st11{fill:#595959;stroke:#FFFFFF;stroke-width:0.1916;stroke-miterlimit:10;} .st12{fill:#9ECFEF;stroke:#595959;stroke-width:0.75;stroke-linejoin:round;stroke-miterlimit:10;} .st13{fill:none;stroke:#2C3251;stroke-width:0.75;stroke-miterlimit:10;} .st14{fill:none;stroke:#595959;stroke-width:0.5;stroke-miterlimit:10;} .st15{fill:#595959;stroke:#FFFFFF;stroke-width:0.25;stroke-miterlimit:10;} .st16{fill:#595959;stroke:#595959;stroke-width:0.2196;stroke-miterlimit:10;} .st17{fill:#FFFFFF;stroke:#595959;stroke-width:0.2196;stroke-miterlimit:10;} .st18{fill:#9ECFEF;stroke:#595959;stroke-width:0.25;stroke-miterlimit:10;} .st19{fill:#CA589D;} .st20{opacity:0.2;fill:#CA589D;} .st21{fill:#3CAF85;} .st22{fill:#FFFFFF;stroke:#595959;stroke-width:0.75;stroke-linejoin:round;stroke-miterlimit:10;} .st23{fill:#595959;stroke:#FFFFFF;stroke-width:0.2467;stroke-miterlimit:10;} .st24{fill:none;stroke:#595959;stroke-width:0.9433;stroke-miterlimit:10;} .st25{fill:none;stroke:#595959;stroke-width:0.9157;stroke-miterlimit:10;} .st26{fill:none;stroke:#595959;stroke-width:0.901;stroke-miterlimit:10;} .st27{fill:none;stroke:#595959;stroke-width:0.74;stroke-miterlimit:10;} .st28{fill:none;stroke:#595959;stroke-width:0.7385;stroke-miterlimit:10;} .st29{fill:none;stroke:#595959;stroke-width:0.9561;stroke-miterlimit:10;} .st30{fill:none;stroke:#595959;stroke-width:0.75;stroke-linecap:square;stroke-miterlimit:10;} .st31{fill:none;stroke:#595959;stroke-width:0.7172;stroke-linecap:square;stroke-miterlimit:10;} .st32{fill:none;stroke:#595959;stroke-width:0.7318;stroke-linecap:square;stroke-miterlimit:10;} .st33{fill:#FFFFFF;stroke:#595959;stroke-width:0.9565;stroke-miterlimit:10;} .st34{fill:none;stroke:#595959;stroke-width:0.9565;stroke-miterlimit:10;} .st35{fill:none;stroke:#595959;stroke-width:0.9565;stroke-miterlimit:10;stroke-dasharray:2.3998,1.4399;} .st36{fill:#9ECFEF;stroke:#595959;stroke-width:0.5;stroke-miterlimit:10;} .st37{fill:#595959;stroke:#FFFFFF;stroke-width:0.4959;stroke-miterlimit:10;}</style><path class="st3" d="M1.04 20.19v2.81h21.92v-2.81h-21.92zm21.22 2.12h-20.52v-1.42h20.52v1.42z"/><path class="st0" d="M2 21.104h19.958v1.063h-19.958z"/><path class="st3" d="M21.57 9.58v-1.24l-9.55-7.34-9.55 7.34v1.24h-1.43v2.81h21.92v-2.81h-1.39zm-18.41-.89l8.84-6.8 8.84 6.8v.89h-17.68v-.89zm19.1 3.01h-20.52v-1.42h20.52v1.42z"/><path class="st0" d="M2.021 10.521h19.938v.979h-19.938z"/><path class="st4" d="M10.578 13.467h.73v5.651h-.73zm2.152 0h.692v5.651h-.692zm-10.263 0h.692v5.651h-.692zm2.114 0h.692v5.651h-.692zm14.146 0h.692v5.651h-.692zm2.114 0h.73v5.651h-.73z"/><circle class="st36" cx="12" cy="6.194" r="1.538"/></svg>