<svg xmlns="http://www.w3.org/2000/svg" viewBox="0 0 24 24" enable-background="new 0 0 24 24"><style type="text/css">.st0{fill:#FFFFFF;stroke:#595959;stroke-width:0.6692;stroke-miterlimit:10;} .st1{fill:#FFFFFF;stroke:#595959;stroke-width:0.75;stroke-miterlimit:10;} .st2{fill:#FFFFFF;stroke:#595959;stroke-width:0.821;stroke-miterlimit:10;} .st3{fill:#9ECFEF;} .st4{fill:#FFFFFF;} .st5{fill:#595959;} .st6{fill:#595959;stroke:#FFFFFF;stroke-width:0.25;stroke-miterlimit:10;} .st7{fill:#FFFFFF;stroke:#333333;stroke-width:0.25;stroke-miterlimit:10;} .st8{fill:#97C9E8;} .st9{fill:#595959;stroke:#595959;stroke-width:0.25;stroke-miterlimit:10;} .st10{fill:#9ECFEF;stroke:#595959;stroke-width:0.75;stroke-miterlimit:10;} .st11{fill:none;} .st12{fill:none;stroke:#9ECFEF;stroke-miterlimit:10;} .st13{fill:none;stroke:#595959;stroke-width:0.75;stroke-miterlimit:10;} .st14{fill:none;stroke:#595959;stroke-miterlimit:10;} .st15{fill:#595959;stroke:#FFFFFF;stroke-width:0.1916;stroke-miterlimit:10;} .st16{fill:#9ECFEF;stroke:#595959;stroke-width:0.75;stroke-linejoin:round;stroke-miterlimit:10;} .st17{fill:none;stroke:#2C3251;stroke-width:0.75;stroke-miterlimit:10;} .st18{fill:none;stroke:#595959;stroke-width:0.5;stroke-miterlimit:10;} .st19{fill:#595959;stroke:#595959;stroke-width:0.2196;stroke-miterlimit:10;} .st20{fill:#FFFFFF;stroke:#595959;stroke-width:0.2196;stroke-miterlimit:10;} .st21{fill:#9ECFEF;stroke:#595959;stroke-width:0.25;stroke-miterlimit:10;} .st22{fill:#CA589D;} .st23{opacity:0.2;fill:#CA589D;} .st24{fill:#3CAF85;} .st25{fill:#FFFFFF;stroke:#595959;stroke-width:0.75;stroke-linejoin:round;stroke-miterlimit:10;} .st26{fill:#595959;stroke:#FFFFFF;stroke-width:0.2467;stroke-miterlimit:10;} .st27{fill:none;stroke:#595959;stroke-width:0.9433;stroke-miterlimit:10;} .st28{fill:none;stroke:#595959;stroke-width:0.9157;stroke-miterlimit:10;} .st29{fill:none;stroke:#595959;stroke-width:0.901;stroke-miterlimit:10;} .st30{fill:none;stroke:#595959;stroke-width:0.74;stroke-miterlimit:10;} .st31{fill:none;stroke:#595959;stroke-width:0.7385;stroke-miterlimit:10;} .st32{fill:none;stroke:#595959;stroke-width:0.9561;stroke-miterlimit:10;} .st33{fill:none;stroke:#595959;stroke-width:0.75;stroke-linecap:square;stroke-miterlimit:10;} .st34{fill:none;stroke:#595959;stroke-width:0.7172;stroke-linecap:square;stroke-miterlimit:10;} .st35{fill:none;stroke:#595959;stroke-width:0.7318;stroke-linecap:square;stroke-miterlimit:10;} .st36{fill:#FFFFFF;stroke:#595959;stroke-width:0.9565;stroke-miterlimit:10;} .st37{fill:none;stroke:#595959;stroke-width:0.9565;stroke-miterlimit:10;} .st38{fill:none;stroke:#595959;stroke-width:0.9565;stroke-miterlimit:10;stroke-dasharray:2.3998,1.4399;} .st39{fill:#9ECFEF;stroke:#595959;stroke-width:0.5;stroke-miterlimit:10;} .st40{fill:#595959;stroke:#FFFFFF;stroke-width:0.4959;stroke-miterlimit:10;} .st41{fill:none;stroke:#595959;stroke-width:0.8165;stroke-miterlimit:10;} .st42{fill:#595959;stroke:#595959;stroke-width:0.2246;stroke-miterlimit:10;} .st43{fill:#FFFFFF;stroke:#595959;stroke-width:0.8165;stroke-miterlimit:10;} .st44{fill:#9ECFEF;stroke:#595959;stroke-width:0.8504;stroke-miterlimit:10;} .st45{fill:none;stroke:#595959;stroke-width:0.7572;stroke-miterlimit:10;} .st46{fill:#595959;stroke:#595959;stroke-width:0.5;stroke-miterlimit:10;} .st47{fill:#595959;stroke:#595959;stroke-width:0.2986;stroke-miterlimit:10;} .st48{fill:#9ECEEE;stroke:#9ECEEE;stroke-width:0.75;stroke-miterlimit:10;} .st49{fill:none;stroke:#595959;stroke-width:0.8716;stroke-miterlimit:10;} .st50{fill:#9ECFEF;stroke:#595959;stroke-width:0.2905;stroke-miterlimit:10;} .st51{fill-rule:evenodd;clip-rule:evenodd;fill:#9ECFEF;} .st52{fill:#9ECFEF;stroke:#595959;stroke-width:0.4222;stroke-miterlimit:10;} .st53{fill:none;stroke:#595959;stroke-width:0.4222;stroke-miterlimit:10;} .st54{fill:#9ECFEF;stroke:#595959;stroke-width:0.4222;stroke-linejoin:round;stroke-miterlimit:10;} .st55{fill:none;stroke:#2C3251;stroke-width:0.4222;stroke-miterlimit:10;} .st56{fill:#9ECFEF;stroke:#595959;stroke-width:0.6479;stroke-miterlimit:10;} .st57{fill:none;stroke:#595959;stroke-width:0.7954;stroke-miterlimit:10;} .st58{fill:none;stroke:#595959;stroke-width:0.6479;stroke-miterlimit:10;}</style><path class="st3" d="M8.565 6.425h3.232v3.232h-3.232z"/><circle class="st56" cx="9.017" cy="13.634" r="1.591"/><circle class="st56" cx="18.562" cy="13.634" r="1.591"/><path class="st57" d="M16.971 13.634h-1.193v-6.761h3.58l.795 3.182 1.193.994v2.585h-1.193m-13.522-3.182h-3.977m1.591-2.784h2.386m1.193-4.375h10.341v2.387h-2.784m-7.955 7.954h-1.988v-3.182m5.17 3.182h3.977m5.568-3.579h-4.375m-1.193 3.579h1.193"/><path class="st58" d="M8.619 5.68h3.978v4.772h-4.773"/><path class="st57" d="M3.449 7.668h-.795m4.375-4.375h-2.387m3.182 2.387h-2.386m-.796 0h-.795"/><path class="st3" d="M2.919 18.198l1.337-1.296 3.98 3.952-1.212 1.274z"/><path class="st1" d="M21.585 15.069c0 .212-.102.412-.283.524l-4.617 2.93c-.577.368-1.233.557-1.912.557h-4.04c-.894 0-1.754.334-2.41.936l-3.621-3.566 2.014-1.738c.883-.758 2.026-1.181 3.214-1.181h5.567c.226 0 .407.178.407.401v.056c0 .49-.215.925-.554 1.237l.373.011c.894 0 1.777-.201 2.569-.602l.917-.446c.781-.379 1.72-.167 2.252.524.079.112.124.234.124.357z"/><path class="st13" d="M8.323 20.015l.849.836-1.845 1.816"/><path class="st1" d="M2.416 17.832l1.844-1.816.442.434m0 0l-.023.011m6.45-.802h3.078c.441 0 .849-.167 1.143-.434m-7.027 4.79l-.091.078m-1.208.459l.614.604"/></svg>