<svg xmlns="http://www.w3.org/2000/svg" viewBox="0 0 82.3 64" enable-background="new 0 0 82.3 64"><path fill="#D1D1D0" d="M76.8 58.6h-69.8c-1.4 0-2.6-1.2-2.6-2.6 0-1.4 1.2-2.6 2.6-2.6h69.8c1.4 0 2.6 1.2 2.6 2.6 0 1.4-1.1 2.6-2.6 2.6z"/><path fill="#3B3E43" d="M14.1 42h-4.3c-1 0-1.3 0-1.3.5.1.5.4.5 1.3.5h4.2c1 0 1.3 0 1.3-.5.1-.5-.3-.5-1.2-.5zm0-1M14.1 50h-4.3c-1 0-1.3 0-1.3.5.1.5.4.5 1.3.5h4.2c1 0 1.3 0 1.3-.5.1-.5-.3-.5-1.2-.5zm0-.6M14.1 47h-9.6c-1 0-1.3 0-1.3.5s.4.5 1.3.5h9.5c1 0 1.3 0 1.3-.5.1-.5-.3-.5-1.2-.5zm0-2.1"/><path fill="#fff" stroke="#3B3E43" stroke-linecap="round" stroke-linejoin="round" stroke-miterlimit="10" d="M28.6 55.3h-3.4c-1.5 0-2.7-1.2-2.7-2.7v-3.6c0-1.5 1.2-2.7 2.7-2.7h3.4c1.5 0 2.7 1.2 2.7 2.7v3.6c.1 1.5-1.2 2.7-2.7 2.7zM70 55.3h-3.4c-1.5 0-2.7-1.2-2.7-2.7v-3.6c0-1.5 1.2-2.7 2.7-2.7h3.4c1.5 0 2.7 1.2 2.7 2.7v3.6c0 1.5-1.2 2.7-2.7 2.7zM74.3 45.7v-10.1l-5.2-5.3-6.7-15.4h-29.9l-7.2 15.4-5 5.9v9.5h-1.3v3.9h56.6v-3.9zM65.2 28.6h-35.3l4.9-10.6h25.7z"/><circle fill="#fff" stroke="#3B3E43" stroke-linecap="round" stroke-linejoin="round" stroke-miterlimit="10" cx="29.7" cy="41.5" r="3"/><circle fill="#fff" stroke="#3B3E43" stroke-linecap="round" stroke-linejoin="round" stroke-miterlimit="10" cx="65.6" cy="41.5" r="3"/><path fill="#89C33D" stroke="#3B3E43" stroke-linecap="round" stroke-linejoin="round" stroke-miterlimit="10" d="M25.8 28.9c0 1.8-1.4 3.2-3.2 3.2s-2.6-.8-2.6-2.6 1.4-3.2 3.2-3.2 2.6.8 2.6 2.6zM69.1 28.9c0 1.8 1.4 3.2 3.2 3.2s2.6-.8 2.6-2.6-1.4-3.2-3.2-3.2c-1.8 0-2.6.8-2.6 2.6z"/><path fill="#89C33D" d="M62.5 27.1h-29.9l3.5-7.9h23.1z"/><path fill="#fff" stroke="#3B3E43" stroke-linecap="round" stroke-linejoin="round" stroke-miterlimit="10" d="M38.5 40.2h14.4M55.4 40.2h2.7M38.5 42.1h14.4M55.4 42.1h2.7M38.5 44h14.4M55.4 44h2.7"/></svg>