<svg xmlns="http://www.w3.org/2000/svg" viewBox="0 0 24 24" enable-background="new 0 0 24 24"><style type="text/css">.st0{fill:#9ECFEF;} .st1{fill:#FFFFFF;} .st2{fill:#595959;} .st3{fill:#595959;stroke:#FFFFFF;stroke-width:0.25;stroke-miterlimit:10;} .st4{fill:#FFFFFF;stroke:#333333;stroke-width:0.25;stroke-miterlimit:10;} .st5{fill:#97C9E8;} .st6{fill:#595959;stroke:#595959;stroke-width:0.25;stroke-miterlimit:10;} .st7{fill:#9ECFEF;stroke:#595959;stroke-width:0.75;stroke-miterlimit:10;} .st8{fill:none;} .st9{fill:none;stroke:#9ECFEF;stroke-miterlimit:10;} .st10{fill:none;stroke:#595959;stroke-width:0.75;stroke-miterlimit:10;} .st11{fill:none;stroke:#595959;stroke-miterlimit:10;} .st12{fill:#595959;stroke:#FFFFFF;stroke-width:0.1916;stroke-miterlimit:10;} .st13{fill:#9ECFEF;stroke:#595959;stroke-width:0.75;stroke-linejoin:round;stroke-miterlimit:10;} .st14{fill:none;stroke:#2C3251;stroke-width:0.75;stroke-miterlimit:10;} .st15{fill:none;stroke:#595959;stroke-width:0.5;stroke-miterlimit:10;} .st16{fill:#595959;stroke:#595959;stroke-width:0.2196;stroke-miterlimit:10;} .st17{fill:#FFFFFF;stroke:#595959;stroke-width:0.2196;stroke-miterlimit:10;} .st18{fill:#9ECFEF;stroke:#595959;stroke-width:0.25;stroke-miterlimit:10;} .st19{fill:#CA589D;} .st20{opacity:0.2;fill:#CA589D;} .st21{fill:#3CAF85;} .st22{fill:#FFFFFF;stroke:#595959;stroke-width:0.75;stroke-linejoin:round;stroke-miterlimit:10;} .st23{fill:#595959;stroke:#FFFFFF;stroke-width:0.2467;stroke-miterlimit:10;} .st24{fill:none;stroke:#595959;stroke-width:0.9433;stroke-miterlimit:10;} .st25{fill:none;stroke:#595959;stroke-width:0.9157;stroke-miterlimit:10;} .st26{fill:none;stroke:#595959;stroke-width:0.901;stroke-miterlimit:10;} .st27{fill:none;stroke:#595959;stroke-width:0.74;stroke-miterlimit:10;} .st28{fill:none;stroke:#595959;stroke-width:0.7385;stroke-miterlimit:10;} .st29{fill:none;stroke:#595959;stroke-width:0.9561;stroke-miterlimit:10;} .st30{fill:none;stroke:#595959;stroke-width:0.75;stroke-linecap:square;stroke-miterlimit:10;} .st31{fill:none;stroke:#595959;stroke-width:0.7172;stroke-linecap:square;stroke-miterlimit:10;} .st32{fill:none;stroke:#595959;stroke-width:0.7318;stroke-linecap:square;stroke-miterlimit:10;} .st33{fill:#FFFFFF;stroke:#595959;stroke-width:0.9565;stroke-miterlimit:10;} .st34{fill:none;stroke:#595959;stroke-width:0.9565;stroke-miterlimit:10;} .st35{fill:none;stroke:#595959;stroke-width:0.9565;stroke-miterlimit:10;stroke-dasharray:2.3998,1.4399;} .st36{fill:#9ECFEF;stroke:#595959;stroke-width:0.5;stroke-miterlimit:10;} .st37{fill:#595959;stroke:#FFFFFF;stroke-width:0.4959;stroke-miterlimit:10;} .st38{fill:none;stroke:#595959;stroke-width:0.8165;stroke-miterlimit:10;} .st39{fill:#595959;stroke:#595959;stroke-width:0.2246;stroke-miterlimit:10;} .st40{fill:#FFFFFF;stroke:#595959;stroke-width:0.8165;stroke-miterlimit:10;} .st41{fill:#9ECFEF;stroke:#595959;stroke-width:0.8504;stroke-miterlimit:10;} .st42{fill:none;stroke:#595959;stroke-width:0.7572;stroke-miterlimit:10;} .st43{fill:#595959;stroke:#595959;stroke-width:0.5;stroke-miterlimit:10;} .st44{fill:#595959;stroke:#595959;stroke-width:0.2986;stroke-miterlimit:10;} .st45{fill:#FFFFFF;stroke:#595959;stroke-width:0.75;stroke-miterlimit:10;}</style><path class="st38" d="M5.374 9.267h14.663c.217 0 .393.178.393.398v10.628c0 .22-.176.398-.393.398h-.736m-16.182-11.494c-.067-1.025.732-1.834 1.728-1.834h12.183c.215 0 .389.176.389.393v1.511"/><path class="st1" d="M20.121 8.783l-4.289-4.339c-.126-.128-.341-.128-.467 0l-10.145 10.262c-.126.128-.126.345 0 .473l4.289 4.339c.133.134.341.128.467 0l10.145-10.263c.126-.127.132-.338 0-.472zm-10.252 10.051l-4.005-4.051 9.658-9.77 4.005 4.051-9.658 9.77z"/><path class="st0" d="M19.527 9.064l-9.658 9.77-4.005-4.051 9.658-9.77z"/><path class="st39" d="M20.86 8.763l-5.022-5.08c-.133-.134-.347-.134-.474-.006l-10.902 11.029c-.126.128-.126.345.006.479l5.022 5.08c.126.128.341.128.467 0l10.903-11.029c.126-.127.126-.345 0-.473zm-10.884 10.755c-.126.128-.335.134-.467 0l-4.289-4.339c-.126-.128-.126-.345 0-.473l10.144-10.262c.126-.128.341-.128.467 0l4.289 4.339c.133.134.126.345 0 .473l-10.144 10.262z"/><path class="st1" d="M11.02 10.311c-.909.92-.909 2.416 0 3.336.909.92 2.388.92 3.297 0s.909-2.416 0-3.336c-.909-.92-2.388-.92-3.297 0zm2.931 2.965c-.707.715-1.858.715-2.565 0-.707-.715-.707-1.879 0-2.594.707-.715 1.858-.715 2.565 0 .707.715.707 1.879 0 2.594zm-4.764 3.702l-.358.363.916.926 1.274-1.289-.358-.363-.916.927zm-1.812-1.108l.359-.362-.558-.564.916-.927-.358-.363-1.274 1.29zm10.793-6.849l-.916.927.358.363 1.294-1.31-.915-.926-.379.382zm-3.485-1.672l.916-.926.558.564.378-.383-.916-.926-1.294 1.309zm2.654-2.021l-5.035-3.422c-.148-.101-.359-.059-.459.091l-8 12.047c-.1.15-.058.363.09.464l5.035 3.422c.156.106.359.059.459-.091l8.001-12.047c.099-.15.065-.358-.091-.464zm-8.146 11.861l-4.701-3.195 7.617-11.469 4.701 3.195-7.617 11.469z"/><path class="st0" d="M16.808 5.72l-7.617 11.469-4.701-3.195 7.617-11.469z"/><path class="st39" d="M18.059 5.165l-5.895-4.007c-.156-.106-.366-.064-.466.086l-8.599 12.948c-.1.15-.058.363.097.469l5.895 4.007c.148.101.359.059.459-.091l8.599-12.947c.099-.151.058-.364-.09-.465zm-8.633 12.674c-.1.15-.303.197-.459.091l-5.035-3.422c-.148-.101-.19-.314-.09-.464l8.001-12.047c.1-.15.31-.192.459-.091l5.035 3.422c.156.106.19.314.09.464l-8.001 12.047z"/><path class="st1" d="M8.697 8.601c-.717 1.08-.432 2.548.635 3.273 1.067.725 2.519.437 3.236-.642s.432-2.548-.635-3.273c-1.067-.726-2.519-.437-3.236.642zm3.441 2.339c-.558.84-1.687 1.064-2.517.5-.83-.564-1.052-1.706-.494-2.546.558-.84 1.687-1.064 2.517-.5.83.564 1.052 1.706.494 2.546zm-3.97 4.56l-.282.426 1.075.731 1.005-1.514-.421-.286-.722 1.088zm-1.989-.734l.283-.425-.654-.445.722-1.088-.421-.286-1.005 1.513zm9.287-8.823l-.722 1.088.42.286 1.021-1.537-1.075-.731-.299.449zm-3.738-.962l.723-1.087.654.444.299-.449-1.076-.731-1.02 1.537z"/><path class="st40" d="M18.17 11.194v11.005c0 .216-.173.402-.387.402h-12.916c-.957 0-1.752-.804-1.752-1.783v-11.675c0 .969.774 1.649 1.732 1.649h12.936c.213 0 .387.175.387.402z"/><path class="st41" d="M13.6 19.549h4.57v-5.331h-4.57c-.421 0-.762.341-.762.762v3.808c0 .42.341.761.762.761z"/><path class="st42" d="M17.043 10.79h-12.17c-.901 0-1.694-.684-1.754-1.593"/><ellipse class="st1" cx="15.504" cy="16.883" rx=".753" ry=".762"/></svg>