<svg xmlns="http://www.w3.org/2000/svg" viewBox="0 0 24 24" enable-background="new 0 0 24 24"><style type="text/css">.st0{fill:#9ECFEF;} .st1{fill:#FFFFFF;stroke:#333333;stroke-width:0.25;stroke-miterlimit:10;} .st2{fill:#97C9E8;} .st3{fill:#595959;} .st4{fill:#595959;stroke:#595959;stroke-width:0.25;stroke-miterlimit:10;} .st5{fill:#FFFFFF;} .st6{fill:#9ECFEF;stroke:#595959;stroke-width:0.75;stroke-miterlimit:10;} .st7{fill:none;} .st8{fill:none;stroke:#9ECFEF;stroke-miterlimit:10;} .st9{fill:none;stroke:#595959;stroke-width:0.75;stroke-miterlimit:10;} .st10{fill:none;stroke:#595959;stroke-miterlimit:10;} .st11{fill:#595959;stroke:#FFFFFF;stroke-width:0.1916;stroke-miterlimit:10;} .st12{fill:#9ECFEF;stroke:#595959;stroke-width:0.75;stroke-linejoin:round;stroke-miterlimit:10;} .st13{fill:none;stroke:#2C3251;stroke-width:0.75;stroke-miterlimit:10;} .st14{fill:none;stroke:#595959;stroke-width:0.5;stroke-miterlimit:10;} .st15{fill:#595959;stroke:#FFFFFF;stroke-width:0.25;stroke-miterlimit:10;} .st16{fill:#595959;stroke:#595959;stroke-width:0.2196;stroke-miterlimit:10;} .st17{fill:#FFFFFF;stroke:#595959;stroke-width:0.2196;stroke-miterlimit:10;} .st18{fill:#9ECFEF;stroke:#595959;stroke-width:0.25;stroke-miterlimit:10;} .st19{fill:#CA589D;} .st20{opacity:0.2;fill:#CA589D;} .st21{fill:#3CAF85;} .st22{fill:#FFFFFF;stroke:#595959;stroke-width:0.75;stroke-linejoin:round;stroke-miterlimit:10;} .st23{fill:#595959;stroke:#FFFFFF;stroke-width:0.2467;stroke-miterlimit:10;} .st24{fill:none;stroke:#595959;stroke-width:0.9433;stroke-miterlimit:10;} .st25{fill:none;stroke:#595959;stroke-width:0.9157;stroke-miterlimit:10;} .st26{fill:none;stroke:#595959;stroke-width:0.901;stroke-miterlimit:10;} .st27{fill:none;stroke:#595959;stroke-width:0.74;stroke-miterlimit:10;} .st28{fill:none;stroke:#595959;stroke-width:0.7385;stroke-miterlimit:10;} .st29{fill:none;stroke:#595959;stroke-width:0.9561;stroke-miterlimit:10;} .st30{fill:none;stroke:#595959;stroke-width:0.75;stroke-linecap:square;stroke-miterlimit:10;} .st31{fill:none;stroke:#595959;stroke-width:0.7172;stroke-linecap:square;stroke-miterlimit:10;} .st32{fill:none;stroke:#595959;stroke-width:0.7318;stroke-linecap:square;stroke-miterlimit:10;} .st33{fill:#FFFFFF;stroke:#595959;stroke-width:0.9565;stroke-miterlimit:10;} .st34{fill:none;stroke:#595959;stroke-width:0.9565;stroke-miterlimit:10;} .st35{fill:none;stroke:#595959;stroke-width:0.9565;stroke-miterlimit:10;stroke-dasharray:2.3998,1.4399;} .st36{fill:#9ECFEF;stroke:#595959;stroke-width:0.5;stroke-miterlimit:10;} .st37{fill:#595959;stroke:#FFFFFF;stroke-width:0.4959;stroke-miterlimit:10;}</style><circle class="st0" cx="12" cy="12" r="8.247"/><path class="st33" d="M17.51 20.2l-.38 1.53c-1.82.97-3.96 1.43-6.21 1.22-5.18-.5-9.37-4.69-9.87-9.87-.21-2.25.25-4.39 1.22-6.21l1.53-.38c.82-.19 1.64.32 1.81 1.14l.59 2.73c.19.87-.16 1.76-.89 2.27l-1.56 1.1c.34 1.63 1.15 3.09 2.29 4.23 1.14 1.14 2.6 1.95 4.23 2.29l1.1-1.56c.51-.73 1.4-1.08 2.27-.89l2.73.59c.82.17 1.33.99 1.14 1.81z"/><path class="st34" d="M4.222 4.222c.282-.282.578-.548.889-.798"/><path class="st35" d="M6.289 2.597c1.665-1.013 3.62-1.597 5.711-1.597 6.075 0 11 4.925 11 11 0 2.349-.737 4.527-1.991 6.314"/><path class="st34" d="M20.576 18.889c-.25.311-.516.608-.798.889m-14.542-14.542c3.735-3.735 9.792-3.735 13.527 0s3.735 9.792 0 13.527m-6.285 1.846c-5.019 0-9.087-4.068-9.087-9.087"/><path class="st5" d="M13.522 4.563c1.024.261 1.993.669 2.942 1.103.145.066.298.14.378.267.066.105.074.23.08.351.03.581.055 1.187-.212 1.716-.049.097-.112.195-.215.248-.103.053-.229.053-.347.045-.51-.034-1.005-.179-1.515-.219-.509-.04-1.027.027-1.503.195-.158.056-.313.123-.443.223-.19.146-.311.35-.45.537-.414.557-1.006.983-1.589 1.399-.106.076-.216.153-.348.182-.305.065-.588-.152-.81-.352l.19-1.204c.308-.241.581-.517.811-.82.08-.105.158-.225.141-.351-.019-.139-.145-.243-.264-.334l-1.622-1.244c-.139-.106-.292-.243-.268-.406.014-.096.089-.175.163-.245.53-.502 1.214-.87 1.956-1.05l2.925-.041zm.666 9.118c.902-.323 1.062-.826 1.423-1.164.359-.336.15-1.223.64-1.173l1.469.178c.682.252.886 1.109 1.076 1.811.066.243.05.5.011.748-.2 1.268-.978 2.359-1.734 3.397-.034.047-.075.098-.133.107l-.135-.042c-.373-.232-.606-.628-.867-.981-.447-.602-1.017-1.113-1.665-1.49-.301-.176-.194-.324-.397-.607l.312-.784z"/><path class="st0" d="M14.377 14.005c.562-.243.895-.524 1.285-.985.302-.358.334-.654.559-1.022.233-.381.377-.237.886-.176.867.105 1.177.718 1.301 1.592.154 1.088-.497 2.326-1.158 3.173-.357.457-.306.671-.794.055-.167-.211-.308-.434-.486-.639-.386-.447-1.37-.905-1.606-1.395-.122-.254.056-.502.186-.827.179-.448-.546-.643-.723-.199-.225.564-.475.9-.088 1.462.23.334.603.506.92.753.582.454.914 1.035 1.406 1.566.39.42.764.801 1.273.38.846-.699 1.567-2.291 1.787-3.354.324-1.567-.412-3.122-2.018-3.316-.474-.057-1.045-.256-1.399.158-.224.262-.224.69-.383.987-.288.535-.781.905-1.325 1.14-.444.19-.062.837.377.647z"/><path class="st5" d="M8.089 13.691c-.282.043-.494.272-.682.487l-.102.171c-.014.077.021.154.058.222.195.357.495.656.853.85l.204.124.216.251c.234.231.611.201.936.156.089-.012.18-.025.258-.069.202-.111.254-.374.283-.603.017-.131.032-.27-.026-.388-.04-.081-.11-.141-.178-.2-.24-.207-.489-.419-.79-.518l-.199-.078-.183-.193c-.138-.15-.347-.233-.55-.219l-.098.007z"/></svg>