<svg xmlns="http://www.w3.org/2000/svg" viewBox="0 0 24 24" enable-background="new 0 0 24 24"><style type="text/css">.st0{fill:#9ECFEF;} .st1{fill:#FFFFFF;} .st2{fill:#595959;} .st3{fill:#595959;stroke:#FFFFFF;stroke-width:0.25;stroke-miterlimit:10;} .st4{fill:#FFFFFF;stroke:#333333;stroke-width:0.25;stroke-miterlimit:10;} .st5{fill:#97C9E8;} .st6{fill:#595959;stroke:#595959;stroke-width:0.25;stroke-miterlimit:10;} .st7{fill:#9ECFEF;stroke:#595959;stroke-width:0.75;stroke-miterlimit:10;} .st8{fill:none;} .st9{fill:none;stroke:#9ECFEF;stroke-miterlimit:10;} .st10{fill:none;stroke:#595959;stroke-width:0.75;stroke-miterlimit:10;} .st11{fill:none;stroke:#595959;stroke-miterlimit:10;} .st12{fill:#595959;stroke:#FFFFFF;stroke-width:0.1916;stroke-miterlimit:10;} .st13{fill:#9ECFEF;stroke:#595959;stroke-width:0.75;stroke-linejoin:round;stroke-miterlimit:10;} .st14{fill:none;stroke:#2C3251;stroke-width:0.75;stroke-miterlimit:10;} .st15{fill:none;stroke:#595959;stroke-width:0.5;stroke-miterlimit:10;} .st16{fill:#595959;stroke:#595959;stroke-width:0.2196;stroke-miterlimit:10;} .st17{fill:#FFFFFF;stroke:#595959;stroke-width:0.2196;stroke-miterlimit:10;} .st18{fill:#9ECFEF;stroke:#595959;stroke-width:0.25;stroke-miterlimit:10;} .st19{fill:#CA589D;} .st20{opacity:0.2;fill:#CA589D;} .st21{fill:#3CAF85;} .st22{fill:#FFFFFF;stroke:#595959;stroke-width:0.75;stroke-linejoin:round;stroke-miterlimit:10;} .st23{fill:#595959;stroke:#FFFFFF;stroke-width:0.2467;stroke-miterlimit:10;} .st24{fill:none;stroke:#595959;stroke-width:0.9433;stroke-miterlimit:10;} .st25{fill:none;stroke:#595959;stroke-width:0.9157;stroke-miterlimit:10;} .st26{fill:none;stroke:#595959;stroke-width:0.901;stroke-miterlimit:10;} .st27{fill:none;stroke:#595959;stroke-width:0.74;stroke-miterlimit:10;} .st28{fill:none;stroke:#595959;stroke-width:0.7385;stroke-miterlimit:10;} .st29{fill:none;stroke:#595959;stroke-width:0.9561;stroke-miterlimit:10;} .st30{fill:none;stroke:#595959;stroke-width:0.75;stroke-linecap:square;stroke-miterlimit:10;} .st31{fill:none;stroke:#595959;stroke-width:0.7172;stroke-linecap:square;stroke-miterlimit:10;} .st32{fill:none;stroke:#595959;stroke-width:0.7318;stroke-linecap:square;stroke-miterlimit:10;} .st33{fill:#FFFFFF;stroke:#595959;stroke-width:0.9565;stroke-miterlimit:10;} .st34{fill:none;stroke:#595959;stroke-width:0.9565;stroke-miterlimit:10;} .st35{fill:none;stroke:#595959;stroke-width:0.9565;stroke-miterlimit:10;stroke-dasharray:2.3998,1.4399;} .st36{fill:#9ECFEF;stroke:#595959;stroke-width:0.5;stroke-miterlimit:10;} .st37{fill:#595959;stroke:#FFFFFF;stroke-width:0.4959;stroke-miterlimit:10;} .st38{fill:none;stroke:#595959;stroke-width:0.8165;stroke-miterlimit:10;} .st39{fill:#595959;stroke:#595959;stroke-width:0.2246;stroke-miterlimit:10;} .st40{fill:#FFFFFF;stroke:#595959;stroke-width:0.8165;stroke-miterlimit:10;} .st41{fill:#9ECFEF;stroke:#595959;stroke-width:0.8504;stroke-miterlimit:10;} .st42{fill:none;stroke:#595959;stroke-width:0.7572;stroke-miterlimit:10;} .st43{fill:#595959;stroke:#595959;stroke-width:0.5;stroke-miterlimit:10;} .st44{fill:#595959;stroke:#595959;stroke-width:0.2986;stroke-miterlimit:10;} .st45{fill:#FFFFFF;stroke:#595959;stroke-width:0.75;stroke-miterlimit:10;}</style><path class="st0" d="M1.125 5.313h17.128v2.688h-17.128z"/><circle class="st0" cx="12.313" cy="15.931" r="2.441"/><circle class="st0" cx="15.813" cy="15.931" r="2.441"/><path class="st6" d="M5.22 10.728v10.37c0 .089.072.161.161.161h17.499c.089 0 .161-.072.161-.161v-10.37c0-.089-.072-.161-.161-.161h-17.499c-.089 0-.161.072-.161.161zm17.124 9.834h-16.427v-9.26h16.427v9.26zm-20.688-12.126h16.388v1.084h.736v-6.457c0-.178-.145-.323-.323-.323h-17.176c-.178 0-.323.145-.323.323v10.047c0 .178.145.323.323.323h2.854v-.697h-2.157c-.178 0-.323-.145-.323-.323l.001-3.977zm0-.698v-2.131h16.388v2.131h-16.388zm0-4.3h16.388v1.433h-16.388v-1.433zm9.845 15.223c.962.277 1.917.074 2.636-.505.685.55 1.627.791 2.618.507.876-.251 1.598-.948 1.871-1.817.615-1.958-.839-3.765-2.708-3.765-.673 0-1.292.235-1.781.627-.504-.406-1.127-.627-1.784-.627-1.872 0-3.328 1.813-2.705 3.775.273.86.985 1.555 1.853 1.805zm3.88-4.802c1.589-.389 2.995 1.012 2.611 2.602-.18.748-.792 1.362-1.539 1.545-1.589.389-2.995-1.012-2.611-2.602.18-.749.792-1.363 1.539-1.545zm-3.606.01c.675-.177 1.345-.036 1.862.352-.359.477-.571 1.069-.571 1.71s.213 1.234.572 1.711c-.368.278-.814.428-1.284.428-1.361 0-2.43-1.278-2.068-2.699.184-.72.77-1.314 1.489-1.502z"/></svg>