<svg xmlns="http://www.w3.org/2000/svg" viewBox="0 0 677 381.9" enable-background="new 0 0 677 381.9"><path fill="#89C33D" d="M646.8 246.7c5.5-2.2 9.5-7.3 10.2-13.6.9-9-5.6-17.1-14.6-18h-.5c.3-1 .5-2 .6-3 .8-8.3-5.2-15.7-13.4-16.5-5.6-.6-10.8 2.1-13.8 6.4-2.7-3.2-6.6-5.3-11-5.8-9.2-.9-17.5 5.8-18.4 15.1-.2 2.2 0 4.4.6 6.4-6.5 1.4-11.6 6.8-12.3 13.8-.8 7.9 4.4 15 11.8 16.8-6.2 1.5-11.1 6.9-11.8 13.7-.9 8.6 5.4 16.4 14 17.2.5.1 1.1.1 1.6.1-.1.5-.2.9-.2 1.4-.8 7.8 4.9 14.8 12.6 15.6 6 .6 11.5-2.6 14-7.7 2.4 3.7 6.4 6.4 11.2 6.9 8.3.8 15.7-5.2 16.6-13.6.1-1.3.1-2.5-.1-3.7 7-1.3 12.6-7.1 13.3-14.5.5-7.6-3.8-14.3-10.4-17z"/><path fill="#6D542F" d="M627.2 251.2h-1.2l-8.2 11.2v-13.1l9.4-15.8h-1.2l-10.3 14-10.5-14h-1.2l9.6 15.8v13.1l-8.4-11.2h-1.2l9.6 15.8v13.1l-8.4-11.2h-1.2l9.6 15.8v61.9h4.2v-62l9.4-15.7h-1.2l-8.2 11.1v-13.1z"/><g fill="none"><path stroke="#424242" stroke-width="35.514" d="M0 363.7h677"/><path stroke="#fff" stroke-width="4.059" stroke-linecap="round" stroke-linejoin="round" stroke-dasharray="26.3815,23.3375" d="M10 363.7h667"/></g><path fill="#A6DCE2" d="M0 112.5h119.9v233.7h-119.9z"/><path d="M15.3 135.6h86.2v7.4h-86.2zm0 25.1h86.2v7.4h-86.2zm0 25h86.2v7.4h-86.2zm0 25.1h86.2v7.4h-86.2zm0 25.1h86.2v7.4h-86.2zm0 25h86.2v7.4h-86.2zm0 25.1h86.2v7.4h-86.2zm0 25h86.2v7.4h-86.2z" fill="#FFD391"/><path fill="#80BBC6" d="M134.7 170.6v-13.3h-6.7v-12.7h-44.5v12.7h-6.7v13.3h-6.7v175.6h73v-175.6z"/><path d="M80.2 180.3h9v16.4h-9zm14 0h9v16.4h-9zm14.1 0h9v16.4h-9zm14 0h9v16.4h-9zm-42.1 22.3h9v16.4h-9zm14 0h9v16.4h-9zm14.1 0h9v16.4h-9zm14 0h9v16.4h-9zm-42.1 22.4h9v16.4h-9zm14 0h9v16.4h-9zm14.1 0h9v16.4h-9zm14 0h9v16.4h-9zm-42.1 22.3h9v16.4h-9zm14 0h9v16.4h-9zm14.1 0h9v16.4h-9zm14 0h9v16.4h-9z" fill="#FFD391"/><path fill="#80BBC6" d="M165.3 174h113v171.8h-113z"/><path d="M183.8 194.4h22.6v9h-22.6zm26.7 0h22.6v9h-22.6zm26.7 0h22.6v9h-22.6zm-53.4 16.4h22.6v9h-22.6zm26.7 0h22.6v9h-22.6zm26.7 0h22.6v9h-22.6zm-53.4 16.3h22.6v9h-22.6zm26.7 0h22.6v9h-22.6zm26.7 0h22.6v9h-22.6zm-53.4 16.4h22.6v9h-22.6zm26.7 0h22.6v9h-22.6zm26.7 0h22.6v9h-22.6zm-53.4 16.3h22.6v9h-22.6zm26.7 0h22.6v9h-22.6zm26.7 0h22.6v9h-22.6zm-53.4 16.3h22.6v9h-22.6zm26.7 0h22.6v9h-22.6zm26.7 0h22.6v9h-22.6z" fill="#FFD391"/><path fill="#A6DCE2" d="M191.5 346.3h-72.9v-89l36.4-49.3 36.5 49.3z"/><path d="M141.2 245.1h9.7v21.5h-9.7zm15.1 0h9.7v21.5h-9.7zm-15.1 28.5h9.7v21.5h-9.7zm15.1 0h9.7v21.5h-9.7z" fill="#FFD391"/><path fill="#578F3F" d="M110.6 274.1c-8.3-6.9-21.2-3.6-24.9 7.4-.2.5-.5 1-.6 1.6v.1c-3.6.9-7.2 3.9-7.6 7.6v.7c-1.9 4.9-1.7 9.6 1.2 14.3 3 4.8 7.4 7.2 12.9 7.3l.3.5 4.8 1.4c-.1-.1-.2-.2-.2-.3l.4.4h.2-.2c1.2 1.2 2.4 2.4 3.5 3.7l4.2.8v-.1c1.9-.1 3.9-.2 5.9-.3l.3-44.9c-.1-.3-.2-.2-.2-.2z"/><path fill="#619D34" d="M143.7 288.4v-.3c-.1-1.4-.5-2.7-1.1-4-1.5-6-7.1-9.3-12.8-8.5-1.7-2.2-3.9-3.9-6.8-4.9-4.5-1.6-9.3-.1-12.3 3.3l-.3 44.9 2.3-.1 3.1-.4c.3-.6.6-1.2.9-1.7.3-.5.6-.7.9-.8 1.4.7 2.9 1.3 4.4 1.6l3 .6.1-.4c1.7-.1 3.4-.6 5.2-1.7 2.6-1.6 4.2-4.4 4.6-7.4.3-.7.8-1 1.7-1.2 5.2-.8 8.4-4.1 9.1-9.3.5-3.5-.5-6.6-2-9.7z"/><path fill="#68452B" d="M108.9 326.4c-1.1.2-3.5-5.2-4.4-7.1l-4.2-.8.1.1c.7.9 1.2 2.6 1.8 4.3-1.8-2.8-3.6-5.5-5.5-8.2l-4.8-1.4c5.1 7 9.7 14.3 14 21.8-.2 1.2-.6 2.5-1.2 4.1-1.3 3.6-.1 5.4 3.7 5.5h1.8l.1-19.5c-.3.7-.8 1.1-1.4 1.2z"/><path fill="#774F33" d="M122 317.5c-.9 3-2.4 5.7-4.6 8-1.6 1.7-3.4 3.1-5 4.6.6-3.5 1.7-8 3.4-11.7l-3.1.4h.2l-.2.6c-.7 1.2-1.2 4.2-2.3 5.9l-.1 19.5c2.1-.2 3.3-1.8 2.7-3.9-.4-1.4-1.1-2.8-1.3-4.3v-.9c2.2-4.1 7-6.4 9.7-10.1 1.7-2.3 2.9-4.8 3.7-7.5l-3.1-.6z"/><path fill="#578F3F" d="M152.1 293.9c-6.2-5-15.7-2.5-18.4 5.6-.1.4-.3.8-.5 1.2-2.7.7-5.3 2.9-5.6 5.6v.5c-1.4 3.6-1.2 7.1 1 10.5 2.3 3.5 5.5 5.3 9.6 5.3.1.1.2.2.2.3l3.5 1-.2-.3.3.3h.1-.1c.9.9 1.8 1.7 2.6 2.7l3.1.6c1.4-.1 2.9-.2 4.4-.3v-33z"/><path fill="#619D34" d="M176.7 304.2v-.2c-.1-1-.4-2-.9-2.9-1.1-4.4-5.3-6.9-9.5-6.2-1.2-1.6-2.9-2.9-5.1-3.6-3.3-1.1-6.9 0-9.1 2.5v33.1l1.7-.1 2.3-.3.6-1.3c.2-.3.4-.5.7-.6 1.1.5 2.2.9 3.3 1.2l2.3.4.1-.3c1.3-.1 2.5-.5 3.8-1.3 1.9-1.2 3.1-3.3 3.3-5.5.3-.5.6-.8 1.2-.9 3.9-.6 6.2-3.1 6.7-6.9.5-2.5-.2-4.8-1.4-7.1z"/><path fill="#68452B" d="M151.2 332.4c-.8.1-2.6-3.9-3.3-5.2l-3.1-.6s0 .1.1.1c.5.6.9 1.9 1.3 3.2-1.3-2-2.7-4-4.1-6l-3.5-1c3.8 5.1 7.3 10.5 10.4 16-.1.9-.5 1.9-.9 3-.9 2.6-.1 4 2.8 4.1h1.4v-14.4c-.4.4-.7.7-1.1.8z"/><path fill="#774F33" d="M160.8 325.8c-.6 2.2-1.8 4.2-3.4 5.9-1.2 1.2-2.5 2.3-3.7 3.4.4-2.6 1.2-5.9 2.5-8.7l-2.3.3h.1c0 .1-.1.3-.2.4-.5.9-.9 3.1-1.7 4.4v14.4c1.6-.2 2.4-1.4 2-2.9-.3-1.1-.8-2.1-1-3.1v-.7c1.6-3 5.1-4.8 7.1-7.5 1.2-1.7 2.1-3.6 2.7-5.5l-2.1-.4z"/><path fill="#578F3F" d="M64.5 312.9c-3.8-3.1-9.6-1.6-11.3 3.4l-.3.7c-1.6.4-3.3 1.8-3.4 3.4v.3c-.9 2.2-.7 4.4.6 6.4 1.4 2.2 3.4 3.2 5.9 3.3l.2.2 2.2.6-.1-.2.2.2h.1-.1c.6.5 1.1 1.1 1.6 1.7l1.9.3 2.7-.2-.2-20.1z"/><path fill="#619D34" d="M79.5 319.3v-.1c-.1-.6-.3-1.2-.5-1.8-.7-2.7-3.2-4.2-5.8-3.8-.8-1-1.8-1.8-3.1-2.2-2-.7-4.2 0-5.6 1.5v20.3c.3 0 .7 0 1-.1l1.4-.2.4-.8c.1-.2.3-.3.4-.4.7.3 1.3.6 2 .7l1.4.3c0-.1 0-.1.1-.2.8-.1 1.6-.3 2.3-.8 1.2-.8 1.9-2 2.1-3.3.2-.3.4-.5.8-.5 2.4-.4 3.8-1.9 4.1-4.2.2-1.6-.2-3-1-4.4z"/><path fill="#68452B" d="M63.9 336.6c-.5.1-1.6-2.4-2-3.2l-1.9-.3v.1c.3.4.6 1.2.8 2l-2.5-3.7-2.2-.6c2.3 3.1 4.5 6.4 6.4 9.8-.1.5-.3 1.1-.5 1.9-.6 1.6 0 2.4 1.7 2.5h.8v-8.8c-.1.1-.4.2-.6.3z"/><path fill="#774F33" d="M69.8 332.5c-.4 1.3-1.1 2.6-2.1 3.6-.7.8-1.5 1.4-2.3 2.1.3-1.6.7-3.6 1.5-5.3l-1.4.2h.1c0 .1 0 .2-.1.3-.3.5-.5 1.9-1 2.7v8.8c1-.1 1.5-.8 1.2-1.8-.2-.6-.5-1.3-.6-1.9v-.4c1-1.8 3.2-2.9 4.4-4.6.8-1 1.3-2.2 1.6-3.4l-1.3-.3z"/><path fill="#619D34" d="M227.6 346.2h103.7s9.3-11-3-21.9c-8.1-7.2-16.2 3.6-16.2 3.6s3.8-26.4-27.9-26.4c-30.3 0-26.3 22.1-26.3 22.1s-34.5-9.7-30.3 22.6zm-48 0h56.2s5-6-1.6-11.9c-4.4-3.9-8.8 2-8.8 2s2.1-14.3-15.2-14.3c-16.4 0-14.3 12-14.3 12s-18.5-5.3-16.3 12.2zm-176.8 0h103.7s9.3-11-3-21.9c-8.1-7.2-16.2 3.6-16.2 3.6s3.8-26.4-27.9-26.4c-30.3 0-26.3 22.1-26.3 22.1s-34.5-9.7-30.3 22.6z"/><path fill="#578F3F" d="M65.3 346.3h50.5s4.5-5.3-1.5-10.6c-4-3.5-7.9 1.7-7.9 1.7s1.9-12.7-13.6-12.7c-14.8 0-12.8 10.7-12.8 10.7s-16.7-4.8-14.7 10.9zm141.4 0h70.3s6.3-7.5-2-14.8c-5.5-4.8-11 2.4-11 2.4s2.5-17.9-19-17.9c-20.6 0-17.9 15-17.9 15s-23.2-6.7-20.4 15.3z"/><path fill="#FF5252" d="M544 318.6c0 10.5-7.8 19.1-35.6 19.1-27.7 0-50.2-19.1-50.2-19.1s22.5-19.1 50.2-19.1c27.8 0 35.6 8.5 35.6 19.1z"/><path fill="#222B3A" d="M551.1 342.7h-117.6c-3.8 0-6.8-3.1-6.8-6.8 0-9.6 7.8-17.4 17.4-17.4h107.1c3.8 0 6.8 3.1 6.8 6.8v10.6c0 3.7-3.1 6.8-6.9 6.8z"/><circle fill="#fff" cx="457.4" cy="340.6" r="13.7"/><circle fill="#FF5252" cx="457.4" cy="340.6" r="7.2"/><circle fill="#fff" cx="536.8" cy="340.6" r="13.7"/><circle fill="#FF5252" cx="536.8" cy="340.6" r="7.2"/><path fill="#FFF8E1" d="M474.3 317.4c0 4.8 13.7 3.2 30.6 3.2 16.9 0 30.6 1.5 30.6-3.2s-7.9-14-24.9-14c-16.8-.1-36.3 9.2-36.3 14z"/><path fill="#fff" d="M434.8 202.5c-3.1 0-5.8 1.2-8 3-3.2-5.9-9.4-9.9-16.6-9.9-3.9 0-7.6 1.2-10.6 3.3-5.3-8.7-14.8-14.5-25.7-14.5-9.7 0-18.3 4.6-23.8 11.8-1.4-.3-2.9-.5-4.4-.5-10.4 0-18.8 8.4-18.8 18.8h119.9c0-6.6-5.4-12-12-12zm79.1-149.1c.1-.6.2-1.2.2-1.8 0-5.5-4.4-9.9-9.9-9.9-1.5 0-2.8.3-4.1.9-1.5-7.3-7.9-12.7-15.7-12.7-7.4 0-13.6 5-15.4 11.9-2.1-1.4-4.7-2.2-7.4-2.2-7.3 0-13.3 5.8-13.5 13.1-3.8 1.8-6.5 5.6-6.5 10.1 0 6.1 5 11.1 11.1 11.1h55.2c6.1 0 11.1-5 11.1-11.1 0-4-2.1-7.4-5.1-9.4zm-254.8-.6h-3.3c-.5-7.9-7.2-14.1-15.5-14.1-1.9 0-3.6.3-5.3.9v-.9c0-11.1-9.2-20.1-20.5-20.1-3 0-5.9.7-8.5 1.8-5.1-4.8-12-7.8-19.6-7.8-11.3 0-21.1 6.6-25.5 16-.8-.1-1.7-.2-2.6-.2-11.9 0-21.6 9.5-21.6 21.1 0 1.3.1 2.5.4 3.7-5.2 1.5-9 6.3-9 12 0 6.9 5.6 12.5 12.5 12.5h118.4c6.9 0 12.5-5.6 12.5-12.5.2-6.8-5.5-12.4-12.4-12.4z"/></svg>