<svg xmlns="http://www.w3.org/2000/svg" viewBox="0 0 180 33.3" enable-background="new 0 0 180 33.3"><path fill="#B9E97D" d="M31.2 16.5c-.6.1-1.2-.1-1.8-.2-.6-.2-.5-.9-.4-1.4.2-1.6 1.3-3 2.4-4 1.3-1.2 2.8-1.9 4.5-1.9 1.4 0 2.8.3 4.2.6 1.4.4 2.9.9 4.1 1.7 1 .6 2 1.5 2.3 2.7.1.2.2 1.1-.1 1.2-.2.1-.6-.2-.8-.3-1.2-.7-2.3-1.4-3.7-1.8-.9-.2-1.8-.3-2.7 0-.8.2-1.6.6-2.4 1.1-1.7.9-3.5 2-5.6 2.3z"/><path fill="#80B941" d="M46.9 15.2c.8.1 2-.1 2.8-.5.7-.4.5-1.7.3-2.3-.6-2.2-2.7-3.8-4.6-4.9-2.2-1.3-4.7-2.1-7.2-1.9-2.7.2-5.3 1.5-7.1 3.5-1 1.1-1.7 2.4-2 3.8-.2.7-.3 1.5-.2 2.2 0 0 .1.8.2.8 0 0 .2-1.6.3-1.7.3-1.1.7-2.2 1.6-2.9 2.8-2.5 6.7-.1 9.3 1.4 2 1.2 4.2 2.3 6.6 2.5z"/><path fill="#B9E97D" d="M47.8 16.8c.6-.1 1.2.1 1.8.2.6.2.5.9.4 1.4-.2 1.6-1.3 3-2.4 4-1.3 1.1-2.8 1.8-4.5 1.8-1.4 0-2.8-.3-4.2-.6-1.4-.4-2.9-.9-4.1-1.7-1-.6-2-1.5-2.3-2.7-.1-.2-.2-1.1.1-1.2.2-.1.6.2.8.3 1.2.7 2.3 1.4 3.7 1.8.9.2 1.8.3 2.7 0 .8-.2 1.6-.6 2.4-1.1 1.7-.8 3.5-1.9 5.6-2.2z"/><path fill="#80B941" d="M32.1 18c-.8-.1-2 .1-2.8.5-.7.4-.5 1.7-.3 2.3.6 2.2 2.7 3.8 4.6 4.9 2.2 1.3 4.7 2.1 7.2 1.9 2.7-.2 5.3-1.5 7.1-3.5 1-1.1 1.7-2.4 2-3.8.2-.7.3-1.5.2-2.2 0 0-.1-.8-.2-.8 0 0-.2 1.6-.3 1.7-.3 1.1-.7 2.2-1.6 2.9-2.8 2.5-6.7.1-9.3-1.4-2-1.1-4.2-2.2-6.6-2.5z"/><path d="M20.3 27.3v-16l-6.6 16h-1.6l-6.6-16v16h-3.8v-21.6h5.3l5.9 14.2 5.9-14.2h5.3v21.6h-3.8zm44.7 0v-2.1c-1.2 1.6-3 2.5-5 2.5-4 0-7-3-7-8.2 0-5.1 2.9-8.2 7-8.2 1.9 0 3.8.9 5 2.6v-8.2h3.4v21.6h-3.4zm0-4.7v-6.2c-.8-1.2-2.4-2.1-4-2.1-2.7 0-4.4 2.2-4.4 5.2s1.7 5.2 4.4 5.2c1.6-.1 3.2-1 4-2.1zm6.9-3.2c0-4.5 3.3-8.2 7.9-8.2 4.7 0 7.7 3.6 7.7 8.5v.8h-12.1c.3 2.4 2 4.3 5 4.3 1.5 0 3.3-.6 4.4-1.7l1.6 2.2c-1.6 1.5-3.9 2.3-6.3 2.3-4.8.1-8.2-3.2-8.2-8.2zm7.9-5.4c-2.9 0-4.2 2.2-4.4 4.1h8.8c-.1-1.8-1.3-4.1-4.4-4.1zm11.1 13.3v-21.6h3.4v21.6h-3.4zm16.2 0v-21.6h10.6c4 0 6.2 2.5 6.2 5.5 0 2.7-1.7 4.5-3.8 5 2.3.4 4.2 2.7 4.2 5.3 0 3.3-2.2 5.8-6.3 5.8h-10.9zm12.9-15.5c0-1.6-1.1-2.8-3-2.8h-6.1v5.6h6.1c1.9 0 3-1.2 3-2.8zm.4 9.1c0-1.6-1.1-3-3.3-3h-6.2v6h6.2c2.1 0 3.3-1.1 3.3-3zm17.1 6.4v-1.7c-1.2 1.3-3 2.1-5.1 2.1-2.6 0-5.4-1.7-5.4-5.2 0-3.6 2.9-5.1 5.4-5.1 2.1 0 3.9.7 5.1 2v-2.3c0-1.8-1.5-2.9-3.7-2.9-1.7 0-3.3.6-4.6 2l-1.4-2.4c1.8-1.7 4.1-2.5 6.6-2.5 3.5 0 6.5 1.5 6.5 5.7v10.4h-3.4zm0-3.6v-2.4c-.8-1.1-2.2-1.6-3.7-1.6-1.9 0-3.3 1.1-3.3 2.8 0 1.7 1.4 2.8 3.3 2.8 1.5 0 3-.5 3.7-1.6zm18.4 3.6v-9.8c0-2.4-1.2-3.2-3.1-3.2-1.7 0-3.2 1-4 2.1v10.9h-3.4v-15.7h3.4v2.1c1-1.2 3-2.5 5.5-2.5 3.4 0 5.1 1.8 5.1 5v11h-3.5zm18.2 0l-4.8-6.4-2.2 2.2v4.2h-3.4v-21.6h3.4v13.5l6.9-7.5h4.2l-6.5 7.1 6.6 8.5h-4.2z" fill="#fff"/></svg>