<svg xmlns="http://www.w3.org/2000/svg" viewBox="0 0 58 58" enable-background="new 0 0 58 58"><path fill="#fff" d="M7.8 27.9h14.8v14h-14.8z"/><path fill="#D1D1D0" d="M53.9 45h-50.3c-1.1 0-1.9-.8-1.9-1.8s.9-1.9 1.9-1.9h50.4c1 0 1.9.9 1.9 1.9-.1 1-.9 1.8-2 1.8z"/><path stroke="#3B3E43" stroke-linecap="round" stroke-linejoin="round" stroke-miterlimit="10" d="M21.23 23.953v-20.5h11.7v20.5zM33.8 15.4l3.8 4.1v6.2l-1 3.1v5.9h-7.7v-2.4s-2.3-3.2-2.2-5.8" fill="none"/><path stroke="#89C33D" stroke-linecap="round" stroke-linejoin="round" stroke-miterlimit="10" d="M24.8 18.8v1.6l1.2.9h1.9l1.3-.8v-1.7" fill="none"/><path fill="#fff" stroke="#3B3E43" stroke-linecap="round" stroke-linejoin="round" stroke-miterlimit="10" d="M34.1 22.3l-4.1-4.1s-2.5-1.2-2.5 2.5l3.7 3.7s-.3 3.5 2.6 6.2"/><path fill="#89C33D" stroke="#3B3E43" stroke-linecap="round" stroke-linejoin="round" stroke-miterlimit="10" d="M27.3 41.8v-7.2h11v7.2"/><path stroke="#89C33D" stroke-linecap="round" stroke-linejoin="round" stroke-miterlimit="10" d="M29.2 8.1v-1.6l-1.3-.9h-1.9l-1.2.8v1.7" fill="none"/><ellipse fill="#fff" stroke="#3B3E43" stroke-linecap="round" stroke-linejoin="round" stroke-miterlimit="10" cx="27.2" cy="13.4" rx="3.5" ry="3.5"/><ellipse fill="#89C33D" cx="27.2" cy="13.4" rx="2.7" ry="2.8"/><path fill="#fff" d="M25.5 13.5c0-.1.1-.2.2-.2h.1c0-.2.1-.4.2-.6 0-.1.1-.1.2-.1s.2.1.2.2v.1l-.2.4h.7c.1-.6.4-.8.8-.8s.7.3.8.8h.2c.1 0 .2.1.2.2s-.1.2-.2.2h-.2c0 .3-.1.6-.3.8 0 .1-.1.1-.2.1s-.2-.1-.2-.2v-.1l.3-.6h-.8c-.1.6-.4.8-.8.8s-.7-.3-.7-.8h-.1c-.1-.1-.2-.1-.2-.2zm1.3.1h-.7c0 .2.2.4.3.4.2 0 .3-.1.4-.4zm.6-.3h.7c0-.2-.2-.4-.3-.4-.2 0-.3.1-.4.4z"/><path fill="#89C33D" d="M10.5 33.8h1.7v1.3h-1.7zm4 0h1.7v1.3h-1.7zm4 0h1.7v1.3h-1.7zm-8 3.8h1.7v1.3h-1.7zm4 0h1.7v1.3h-1.7zm4 0h1.7v1.3h-1.7z"/><path d="M22.6 27h-3v-.5c0-.3-.2-.6-.6-.6-.3 0-.6.3-.6.6v.5h-6.5v-.5c0-.3-.2-.6-.6-.6-.3 0-.6.3-.6.6v.5h-3c-.4 0-.4.2-.4.5v14.5c0 .3.1.5.4.5h14.9c.3 0 .5-.2.5-.5v-14.6c0-.3-.2-.4-.5-.4zm-.7 4.4v9.9h-13.5v-9.9h13.5zm-10.6-1.4c.3 0 .6-.3.6-.6v-1.2h6.5v1.2c0 .3.2.6.6.6.3 0 .6-.3.6-.6v-1.2h2.3v2.1h-13.5v-2.1h2.3v1.2c0 .3.3.6.6.6zm.6 4v.9h-1.2v-.9h1.2m.4-.9h-2.1c-.2 0-.4.2-.4.4v1.8c0 .2.2.4.4.4h2.1c.2 0 .5-.2.5-.4v-1.8c0-.2-.3-.4-.5-.4zm3.4.9v.9h-.9v-.9h.9m.6-.9h-2.1c-.2 0-.3.2-.3.4v1.8c0 .2.1.4.3.4h2.1c.2 0 .3-.2.3-.4v-1.8c0-.2 0-.4-.3-.4zm3.5.9v.9h-.8v-.9h.8m.6-.9h-2.1c-.2 0-.2.2-.2.4v1.8c0 .2 0 .4.2.4h2.1c.2 0 .3-.2.3-.4v-1.8c0-.2-.1-.4-.3-.4zm-8.5 4.7v.9h-1.2v-.9h1.2m.4-.8h-2.1c-.2 0-.4.1-.4.3v1.8c0 .2.2.5.4.5h2.1c.2 0 .5-.3.5-.5v-1.8c0-.2-.3-.3-.5-.3zm3.4.8v.9h-.9v-.9h.9m.6-.8h-2.1c-.2 0-.3.1-.3.3v1.8c0 .2.1.5.3.5h2.1c.2 0 .3-.3.3-.5v-1.8c0-.2 0-.3-.3-.3zm3.5.8v.9h-.8v-.9h.8m.6-.8h-2.1c-.2 0-.2.1-.2.3v1.8c0 .2 0 .5.2.5h2.1c.2 0 .3-.3.3-.5v-1.8c0-.2-.1-.3-.3-.3z" fill="#3B3E43"/></svg>