<svg xmlns="http://www.w3.org/2000/svg" viewBox="0 0 24 24" enable-background="new 0 0 24 24"><style type="text/css">.st0{fill:#9ECFEF;} .st1{fill:#FFFFFF;} .st2{fill:#595959;} .st3{fill:#595959;stroke:#FFFFFF;stroke-width:0.25;stroke-miterlimit:10;} .st4{fill:#FFFFFF;stroke:#333333;stroke-width:0.25;stroke-miterlimit:10;} .st5{fill:#97C9E8;} .st6{fill:#595959;stroke:#595959;stroke-width:0.25;stroke-miterlimit:10;} .st7{fill:#9ECFEF;stroke:#595959;stroke-width:0.75;stroke-miterlimit:10;} .st8{fill:none;} .st9{fill:none;stroke:#9ECFEF;stroke-miterlimit:10;} .st10{fill:none;stroke:#595959;stroke-width:0.75;stroke-miterlimit:10;} .st11{fill:none;stroke:#595959;stroke-miterlimit:10;} .st12{fill:#595959;stroke:#FFFFFF;stroke-width:0.1916;stroke-miterlimit:10;} .st13{fill:#9ECFEF;stroke:#595959;stroke-width:0.75;stroke-linejoin:round;stroke-miterlimit:10;} .st14{fill:none;stroke:#2C3251;stroke-width:0.75;stroke-miterlimit:10;} .st15{fill:none;stroke:#595959;stroke-width:0.5;stroke-miterlimit:10;} .st16{fill:#595959;stroke:#595959;stroke-width:0.2196;stroke-miterlimit:10;} .st17{fill:#FFFFFF;stroke:#595959;stroke-width:0.2196;stroke-miterlimit:10;} .st18{fill:#9ECFEF;stroke:#595959;stroke-width:0.25;stroke-miterlimit:10;} .st19{fill:#CA589D;} .st20{opacity:0.2;fill:#CA589D;} .st21{fill:#3CAF85;} .st22{fill:#FFFFFF;stroke:#595959;stroke-width:0.75;stroke-linejoin:round;stroke-miterlimit:10;} .st23{fill:#595959;stroke:#FFFFFF;stroke-width:0.2467;stroke-miterlimit:10;} .st24{fill:none;stroke:#595959;stroke-width:0.9433;stroke-miterlimit:10;} .st25{fill:none;stroke:#595959;stroke-width:0.9157;stroke-miterlimit:10;} .st26{fill:none;stroke:#595959;stroke-width:0.901;stroke-miterlimit:10;} .st27{fill:none;stroke:#595959;stroke-width:0.74;stroke-miterlimit:10;} .st28{fill:none;stroke:#595959;stroke-width:0.7385;stroke-miterlimit:10;} .st29{fill:none;stroke:#595959;stroke-width:0.9561;stroke-miterlimit:10;} .st30{fill:none;stroke:#595959;stroke-width:0.75;stroke-linecap:square;stroke-miterlimit:10;} .st31{fill:none;stroke:#595959;stroke-width:0.7172;stroke-linecap:square;stroke-miterlimit:10;} .st32{fill:none;stroke:#595959;stroke-width:0.7318;stroke-linecap:square;stroke-miterlimit:10;} .st33{fill:#FFFFFF;stroke:#595959;stroke-width:0.9565;stroke-miterlimit:10;} .st34{fill:none;stroke:#595959;stroke-width:0.9565;stroke-miterlimit:10;} .st35{fill:none;stroke:#595959;stroke-width:0.9565;stroke-miterlimit:10;stroke-dasharray:2.3998,1.4399;} .st36{fill:#9ECFEF;stroke:#595959;stroke-width:0.5;stroke-miterlimit:10;} .st37{fill:#595959;stroke:#FFFFFF;stroke-width:0.4959;stroke-miterlimit:10;} .st38{fill:none;stroke:#595959;stroke-width:0.8165;stroke-miterlimit:10;} .st39{fill:#595959;stroke:#595959;stroke-width:0.2246;stroke-miterlimit:10;} .st40{fill:#FFFFFF;stroke:#595959;stroke-width:0.8165;stroke-miterlimit:10;} .st41{fill:#9ECFEF;stroke:#595959;stroke-width:0.8504;stroke-miterlimit:10;} .st42{fill:none;stroke:#595959;stroke-width:0.7572;stroke-miterlimit:10;} .st43{fill:#595959;stroke:#595959;stroke-width:0.5;stroke-miterlimit:10;} .st44{fill:#595959;stroke:#595959;stroke-width:0.2986;stroke-miterlimit:10;} .st45{fill:#FFFFFF;stroke:#595959;stroke-width:0.75;stroke-miterlimit:10;}</style><path class="st0" d="M2.786 15.87v-7.571h18.265v7.571z"/><path class="st44" d="M22.303 6.874h-20.606c-.247 0-.447.2-.447.447v9.498c0 .247.2.447.447.447h20.606c.247 0 .447-.2.447-.447v-9.498c0-.247-.2-.447-.447-.447zm-.716 9.677h-19.174c-.247 0-.447-.2-.447-.447v-8.105c0-.247.2-.447.447-.447h19.175c.247 0 .447.2.447.447v8.105c0 .247-.201.447-.448.447z"/><path class="st1" d="M12 15.176c1.719 0 3.118-1.399 3.118-3.118 0-1.719-1.398-3.118-3.118-3.118s-3.118 1.398-3.118 3.118c0 1.719 1.399 3.118 3.118 3.118zm0-5.543c1.337 0 2.425 1.088 2.425 2.425 0 1.337-1.088 2.425-2.425 2.425s-2.425-1.088-2.425-2.425c0-1.337 1.088-2.425 2.425-2.425zm7.964 1.044h.677v-1.732h-2.409v.678h1.732zm.677 2.749h-.677v1.054h-1.732v.678h2.409zm-16.605-3.803h1.732v-.678h-2.447v1.732h.715zm1.732 4.857h-1.732v-1.054h-.715v1.732h2.447zm4.427-3.04v6.989c0 .538-.505.935-.946.935h-.323v2.236h-5.064v-1.58h4.129v-.656h-4.441c-.441 0-.957-.398-.957-.935v-1.269h3.591l1.107-.742 1.011-.667v-3.365c0-.151.043-.312.118-.441.15-.29.462-.484.828-.484h.323v-.021h.624z"/><path class="st6" d="M8.937 10.827v.022c-.731.14-1.29.785-1.29 1.538v3.021l-.839.57-.817.548h-4.021v1.903c0 .731.548 1.398 1.279 1.548v2.247h6.333v-2.247c.688-.151 1.236-.817 1.236-1.548v-7.602h-1.881zm1.258 7.602c0 .538-.505.935-.946.935h-.323v2.236h-5.064v-1.58h4.129v-.656h-4.441c-.441 0-.957-.398-.957-.935v-1.269h3.591l1.107-.742 1.011-.667v-3.365c0-.151.043-.312.118-.441.15-.29.462-.484.828-.484h.323v-.021h.624v6.989z"/><path class="st1" d="M13.819 12.56v-6.989c0-.538.505-.935.946-.935h.323v-2.237h5.064v1.581h-4.129v.656h4.441c.441 0 .957.398.957.935v1.269h-3.591l-1.107.742-1.011.667v3.365c0 .151-.043.312-.118.441-.15.29-.462.484-.828.484h-.323v.022h-.624z"/><path class="st6" d="M15.077 13.173v-.022c.731-.14 1.29-.785 1.29-1.538v-3.021l.839-.57.817-.548h4.021v-1.903c0-.731-.548-1.398-1.279-1.548v-2.247h-6.333v2.247c-.688.151-1.236.817-1.236 1.548v7.602h1.881zm-1.258-7.602c0-.538.505-.935.946-.935h.323v-2.237h5.064v1.581h-4.129v.656h4.441c.441 0 .957.398.957.935v1.269h-3.591l-1.107.742-1.011.667v3.365c0 .151-.043.312-.118.441-.15.29-.462.484-.828.484h-.323v.022h-.624v-6.99z"/></svg>