<svg xmlns="http://www.w3.org/2000/svg" viewBox="0 0 24 24" enable-background="new 0 0 24 24"><style type="text/css">.st0{fill:#FFFFFF;stroke:#595959;stroke-width:0.6692;stroke-miterlimit:10;} .st1{fill:#FFFFFF;stroke:#595959;stroke-width:0.75;stroke-miterlimit:10;} .st2{fill:#FFFFFF;stroke:#595959;stroke-width:0.821;stroke-miterlimit:10;} .st3{fill:#9ECFEF;} .st4{fill:#FFFFFF;} .st5{fill:#595959;} .st6{fill:#595959;stroke:#FFFFFF;stroke-width:0.25;stroke-miterlimit:10;} .st7{fill:#FFFFFF;stroke:#333333;stroke-width:0.25;stroke-miterlimit:10;} .st8{fill:#97C9E8;} .st9{fill:#595959;stroke:#595959;stroke-width:0.25;stroke-miterlimit:10;} .st10{fill:#9ECFEF;stroke:#595959;stroke-width:0.75;stroke-miterlimit:10;} .st11{fill:none;} .st12{fill:none;stroke:#9ECFEF;stroke-miterlimit:10;} .st13{fill:none;stroke:#595959;stroke-width:0.75;stroke-miterlimit:10;} .st14{fill:none;stroke:#595959;stroke-miterlimit:10;} .st15{fill:#595959;stroke:#FFFFFF;stroke-width:0.1916;stroke-miterlimit:10;} .st16{fill:#9ECFEF;stroke:#595959;stroke-width:0.75;stroke-linejoin:round;stroke-miterlimit:10;} .st17{fill:none;stroke:#2C3251;stroke-width:0.75;stroke-miterlimit:10;} .st18{fill:none;stroke:#595959;stroke-width:0.5;stroke-miterlimit:10;} .st19{fill:#595959;stroke:#595959;stroke-width:0.2196;stroke-miterlimit:10;} .st20{fill:#FFFFFF;stroke:#595959;stroke-width:0.2196;stroke-miterlimit:10;} .st21{fill:#9ECFEF;stroke:#595959;stroke-width:0.25;stroke-miterlimit:10;} .st22{fill:#CA589D;} .st23{opacity:0.2;fill:#CA589D;} .st24{fill:#3CAF85;} .st25{fill:#FFFFFF;stroke:#595959;stroke-width:0.75;stroke-linejoin:round;stroke-miterlimit:10;} .st26{fill:#595959;stroke:#FFFFFF;stroke-width:0.2467;stroke-miterlimit:10;} .st27{fill:none;stroke:#595959;stroke-width:0.9433;stroke-miterlimit:10;} .st28{fill:none;stroke:#595959;stroke-width:0.9157;stroke-miterlimit:10;} .st29{fill:none;stroke:#595959;stroke-width:0.901;stroke-miterlimit:10;} .st30{fill:none;stroke:#595959;stroke-width:0.74;stroke-miterlimit:10;} .st31{fill:none;stroke:#595959;stroke-width:0.7385;stroke-miterlimit:10;} .st32{fill:none;stroke:#595959;stroke-width:0.9561;stroke-miterlimit:10;} .st33{fill:none;stroke:#595959;stroke-width:0.75;stroke-linecap:square;stroke-miterlimit:10;} .st34{fill:none;stroke:#595959;stroke-width:0.7172;stroke-linecap:square;stroke-miterlimit:10;} .st35{fill:none;stroke:#595959;stroke-width:0.7318;stroke-linecap:square;stroke-miterlimit:10;} .st36{fill:#FFFFFF;stroke:#595959;stroke-width:0.9565;stroke-miterlimit:10;} .st37{fill:none;stroke:#595959;stroke-width:0.9565;stroke-miterlimit:10;} .st38{fill:none;stroke:#595959;stroke-width:0.9565;stroke-miterlimit:10;stroke-dasharray:2.3998,1.4399;} .st39{fill:#9ECFEF;stroke:#595959;stroke-width:0.5;stroke-miterlimit:10;} .st40{fill:#595959;stroke:#FFFFFF;stroke-width:0.4959;stroke-miterlimit:10;} .st41{fill:none;stroke:#595959;stroke-width:0.8165;stroke-miterlimit:10;} .st42{fill:#595959;stroke:#595959;stroke-width:0.2246;stroke-miterlimit:10;} .st43{fill:#FFFFFF;stroke:#595959;stroke-width:0.8165;stroke-miterlimit:10;} .st44{fill:#9ECFEF;stroke:#595959;stroke-width:0.8504;stroke-miterlimit:10;} .st45{fill:none;stroke:#595959;stroke-width:0.7572;stroke-miterlimit:10;} .st46{fill:#595959;stroke:#595959;stroke-width:0.5;stroke-miterlimit:10;} .st47{fill:#595959;stroke:#595959;stroke-width:0.2986;stroke-miterlimit:10;} .st48{fill:#9ECEEE;stroke:#9ECEEE;stroke-width:0.75;stroke-miterlimit:10;} .st49{fill:none;stroke:#595959;stroke-width:0.8716;stroke-miterlimit:10;} .st50{fill:#9ECFEF;stroke:#595959;stroke-width:0.2905;stroke-miterlimit:10;} .st51{fill-rule:evenodd;clip-rule:evenodd;fill:#9ECFEF;} .st52{fill:#9ECFEF;stroke:#595959;stroke-width:0.4222;stroke-miterlimit:10;} .st53{fill:none;stroke:#595959;stroke-width:0.4222;stroke-miterlimit:10;} .st54{fill:#9ECFEF;stroke:#595959;stroke-width:0.4222;stroke-linejoin:round;stroke-miterlimit:10;} .st55{fill:none;stroke:#2C3251;stroke-width:0.4222;stroke-miterlimit:10;} .st56{fill:#9ECFEF;stroke:#595959;stroke-width:0.6479;stroke-miterlimit:10;} .st57{fill:none;stroke:#595959;stroke-width:0.7954;stroke-miterlimit:10;} .st58{fill:none;stroke:#595959;stroke-width:0.6479;stroke-miterlimit:10;}</style><path class="st0" d="M9.511 5.786l-1.973-2.308c-.19-.437.153-.929.565-.811l1.582.456c.204.059.417-.037.534-.238l.886-1.53c.194-.336.621-.34.821-.009l.916 1.52c.127.21.359.298.569.215l.662-.261c.42-.166.804.339.605.797l-1.553 2.17"/><path class="st1" d="M16.267 22.6h-10.366c-1.119 0-2.026-.907-2.026-2.026v-11.675c0-1.119.907-2.026 2.026-2.026h10.366c1.119 0 2.026.907 2.026 2.026v11.675c0 1.119-.907 2.026-2.026 2.026z"/><path class="st10" d="M15.115 6.763h-8.062c-.49 0-.891-.401-.891-.891s.401-.891.891-.891h8.062c.49 0 .891.401.891.891s-.401.891-.891.891z"/><ellipse class="st10" cx="11.084" cy="14.937" rx="2.956" ry="2.943"/><path class="st4" d="M20.839 20.519c0 1.054-.868 1.922-1.933 1.922h-.139c-.509-.035-.984-.278-1.32-.66-.301-.359-.475-.799-.475-1.262 0-1.042.822-1.887 1.841-1.933h.185c1.019.046 1.841.891 1.841 1.933zm-3.149 1.922h-1.945v-1.054h1.054c.093.232.22.44.382.625.15.163.324.313.509.429zm-1.065-1.922c0 .174.023.359.058.533h-.938v-1.077h.938c-.035.174-.058.359-.058.544zm1.065-1.933c-.394.255-.706.614-.892 1.054h-1.054v-1.054h1.946zm-1.945-1.413h3.867v1.054h-3.867zm0-1.389h3.867v1.042h-3.867zm0-1.413h3.867v1.042h-3.867zm0-1.412h3.867v1.065h-3.867z"/><path class="st9" d="M19.797 18.412h.162v-5.8h-4.562v10.188h3.508c.637 0 1.204-.255 1.609-.672.417-.417.671-.984.671-1.609.002-.949-.566-1.76-1.388-2.107zm-4.052-5.453h3.867v1.065h-3.867v-1.065zm0 1.412h3.867v1.042h-3.867v-1.042zm0 1.413h3.867v1.042h-3.867v-1.042zm0 1.389h3.867v1.054h-3.867v-1.054zm0 1.413h1.945c-.394.255-.706.614-.892 1.054h-1.054v-1.054zm0 1.389h.938c-.035.174-.058.359-.058.544 0 .174.023.359.058.533h-.938v-1.077zm0 2.466v-1.054h1.054c.093.232.22.44.382.625.151.162.324.313.509.428h-1.945zm3.161 0h-.139c-.509-.035-.984-.278-1.32-.66-.301-.359-.475-.799-.475-1.262 0-1.042.822-1.887 1.841-1.933h.185c1.019.046 1.841.892 1.841 1.933 0 1.054-.868 1.922-1.933 1.922z"/><circle class="st3" cx="18.906" cy="20.513" r="1.609"/></svg>