<svg xmlns="http://www.w3.org/2000/svg" viewBox="0 0 24 24" enable-background="new 0 0 24 24"><style type="text/css">.st0{fill:#9ECFEF;} .st1{fill:#FFFFFF;} .st2{fill:#595959;} .st3{fill:#595959;stroke:#FFFFFF;stroke-width:0.25;stroke-miterlimit:10;} .st4{fill:#FFFFFF;stroke:#333333;stroke-width:0.25;stroke-miterlimit:10;} .st5{fill:#97C9E8;} .st6{fill:#595959;stroke:#595959;stroke-width:0.25;stroke-miterlimit:10;} .st7{fill:none;} .st8{fill:#595959;stroke:#FFFFFF;stroke-width:0.1916;stroke-miterlimit:10;} .st9{fill:#595959;stroke:#595959;stroke-width:0.2196;stroke-miterlimit:10;} .st10{fill:#FFFFFF;stroke:#595959;stroke-width:0.2196;stroke-miterlimit:10;} .st11{fill:#9ECFEF;stroke:#595959;stroke-width:0.25;stroke-miterlimit:10;} .st12{fill:#CA589D;} .st13{opacity:0.2;fill:#CA589D;} .st14{fill:#3CAF85;} .st15{fill:none;stroke:#2C3251;stroke-width:0.75;stroke-miterlimit:10;} .st16{fill:#595959;stroke:#FFFFFF;stroke-width:0.2467;stroke-miterlimit:10;} .st17{fill:#9ECFEF;stroke:#595959;stroke-width:0.5;stroke-miterlimit:10;} .st18{fill:#595959;stroke:#FFFFFF;stroke-width:0.4959;stroke-miterlimit:10;} .st19{fill:#595959;stroke:#595959;stroke-width:0.2246;stroke-miterlimit:10;} .st20{fill:none;stroke:#595959;stroke-width:0.7572;stroke-miterlimit:10;} .st21{fill:#595959;stroke:#595959;stroke-width:0.5;stroke-miterlimit:10;} .st22{fill:#595959;stroke:#595959;stroke-width:0.2986;stroke-miterlimit:10;} .st23{fill:#9ECFEF;stroke:#595959;stroke-width:0.75;stroke-miterlimit:10;} .st24{fill:#9ECEEE;stroke:#9ECEEE;stroke-width:0.75;stroke-miterlimit:10;} .st25{fill-rule:evenodd;clip-rule:evenodd;fill:#9ECFEF;} .st26{fill:none;stroke:#595959;stroke-miterlimit:10;} .st27{fill:none;stroke:#595959;stroke-width:0.9161;stroke-miterlimit:10;} .st28{fill:#B3B3B3;} .st29{fill:none;stroke:#324044;stroke-width:0.75;stroke-miterlimit:10;} .st30{fill:none;stroke:#2C3251;stroke-width:0.4222;stroke-miterlimit:10;}</style><path class="st0" d="M18.08 2.18v.94h-12.16v-.94c0-.51.42-.93.94-.93h10.28c.52 0 .94.42.94.93z"/><path class="st2" d="M18.455 3.495h-12.91v-1.315c0-.72.59-1.305 1.315-1.305h10.28c.726 0 1.315.585 1.315 1.305v1.315zm-12.16-.75h11.41v-.565c0-.306-.254-.555-.565-.555h-10.28c-.312 0-.565.249-.565.555v.565z"/><path class="st0" d="M18.08 19.95v1.87c0 .51-.42.93-.94.93h-10.28c-.52 0-.94-.42-.94-.93v-1.87h12.16z"/><path class="st2" d="M17.14 23.125h-10.28c-.726 0-1.315-.585-1.315-1.305v-2.245h12.91v2.245c0 .72-.59 1.305-1.315 1.305zm-10.845-2.8v1.495c0 .306.254.555.565.555h10.28c.312 0 .565-.249.565-.555v-1.495h-11.41z"/><path class="st1" d="M5.92 3.12h12.16v16.83h-12.16z"/><path class="st2" d="M18.455 20.325h-12.91v-17.58h12.91v17.58zm-12.16-.75h11.41v-16.08h-11.41v16.08zm4.303 1.398h2.805v.75h-2.805z"/><path class="st25" d="M9.122 7.001v2.12h-2.121v-2.123h1.893l.228.003zm-1.022.303h-.796v1.516h1.519v-1.517l-.723.001zm3.446 0v.303h.605v.303h-.91v.304h.911v.303h-.304v.303h-.303v-.303h-.303v.304h-.303v.303h-.303v-.303h-.303v-.303h.606v-.608h-.304v-.605h-.605v-.303h1.21v.303l.306-.001zm0 0v-.303h.303v.304h-.189l-.114-.001zm1.817.606v.303h.303v-.304h.605v.304h-.303v1.212h-.303v-.91h-.304v.606h-.304v-.606h-.304v.912h.606v.605h-.303v.606h.303v.605h.304v.303h-.303v.605h.605v-.911h-.304v-.909h.303v.606h.303v.303h.303v.303h-.303v.606h.606v-.304h-.304v-.303h.303v-.912h.303v.606h.303v.908h-.303v.605h.606v-1.82h.303v.304h.303v.303h-.303v.909h.303v.303h-.303v.303h-.911v.304h.304v.304h-.304v.304h.911v.605h-.303v.304h.605v.303h-.606v.911h.304v-.304h.303v.304h.304v-.304h.303v.606h-1.209v.303h-.303v-.303h-.303v-.303h.303v-.304h-.606v.303h-.303v.304h.605v.303h.304v.303h-.605v-.303h-.304v.304h-.304v-.91h-.304v.304h-.304v-.605h.303v-.303h.303v-1.519h-.304v-.303h.303v-.303h.304v.606h.304v-.911h-1.209v-.303h-.304v.606h-.303v-.304h-.304v.605h-.303v.303h-.606v.303h-.303v.303h-.303v-.303h-.303v.304h-.303v-.303h-.303v-.303h1.211v-.303h.303v-.304h-.304v.304h-.303v-.605h.303v-.303h.303v-.304h-.304v.304h-.606v.303h-.304v-.605h.303v-.304h-.303v.304h-.606v-.303h-.605v-.303h-.303v-.303h-.606v.911h-.605v-1.21h-.304v.911h-.304v-.303h-.303v-.606h.303v-.303h-.303v-.911h.304v.606h.912v-.606h.911v.303h-.606v.304h.606v.303h-.304v.304h.606v-.303h.606v.303h.304v.303h-.606v.304h.911v-.605h-.304v-.303h.303v-.303h.303v-.303h.304v.303h.303v.303h.303v.606h-.303v-.303h-.606v.606h.304v-.304h.303v.303h.303v-.304h.303v.605h.911v-.304h-.304v-.303h.303v-.606h-.304v.605h-.606v-.605h-.304v-.606h.303v.303h.304v-.304h-.304v-.303h.606v-.304h-.304v-2.121h-.304v-.303h.303v-.303h.304v.911h.493l.113.005zm1.212 4.62v.228h.303v-.304h-.303v.076zm-2.424.303v.228h.303v-.304h-.303v.076zm2.424 1.856v.797h.912v-.908h-.91l-.002.111zm-.909-7.385h-.303v-.303h.304v.189l-.001.114zm3.333-.303v2.12h-2.121v-2.124h1.098l1.023.004zm-1.023.303h-.797v1.516h1.518v-1.518l-.721.002zm-5.945 0v.303h-.304v-.304h.189l.115.001zm3.332 0v.303h-.303v-.304h.189l.114.001zm.303 0h.303v.304h-.303v-.304zm.606.038v-.038h.303v.303h-.303v-.265zm-5.756.265v.908h-.912v-.91h.836l.076.002zm4.847 0h.303v.303h-.303v-.303zm3.03 0v.908h-.912v-.911h.836l.076.003zm-5.756.303v.303h-.606v.607h-.303v.303h.304v.303h-.606v-.912h.303v-.304h-.304v-.303h1.097l.115.003zm3.332 2.424v-.303h-.304v-.303h.303v-.303h.303v-.91h.304v1.21h.304v-.303h.605v.606h-1.21v.304h-.189l-.116.002zm-3.938-1.515h.303v.303h-.303v-.303zm1.212 0h.303v.303h-.304v-.152l.001-.151zm.606 0h.304v.605h-.303v.605h-.303v-.303h-.303v-.303h.303v-.303h.303l-.001-.301zm-1.515.303h.303v1.209h-.303v-.303h-.606v.304h.605v.606h-.303v-.303h-.606v-.606h-.304v-.303h1.21v-.531l.004-.073zm-2.424.303v.912h-.304v-.605h-.303v-.304h.491l.116-.003zm1.212.303h-.304v-.303h.304v.303zm7.271.303v.303h-.303v.303h-.909v-.303h.606v-.912h.304v.606h.228l.074.003zm-5.15-.303v.304h-.304v-.304h.304zm5.453.606v-.303h-.304v-.303h.606v.606h-.302zm-1.818.303h-.304v-.304h.304v.304zm1.515-.303h.303v.303h.303v.911h-.304v-.303h-.303v-.871l.001-.04zm-7.271 1.515v.304h-.304v-.304h.304zm7.574.302h-.303v-.303h.304v.189l-.001.114zm0 0h.303v2.12h-.303v-1.212h-.303v-.303h.303v-.605zm-8.786.303v.911h.605v.303h.912v.303h.303v.911h-.303v-.606h-.303v-.303h-.606v.606h-.304v-.606h-.303v-.303h-.303v-.303h-.606v-.605h.303v-.303h.493l.112-.005zm1.212.303h-.304v-.304h.304v.304zm.909-.303v.303h.304v.304h-.303v.303h-.304v-.606h-.303v-.304h.606zm-.909.303h.303v.605h-.912v-.304h.606v-.152l.003-.149zm1.515.644v-.038h.303v.304h-.303v-.266zm3.332.265h-.303v-.304h.303v.304zm-6.362 0v.303h-.605v-.304h.493l.112.001zm5.15 0h.909v.303h-.303v.605h-.303v.605h-.303v-.303h-.304v.303h.304v.303h.303v.606h.303v.304h-.912v-.303h-.605v-.303h.605v-.304h-.605v-.303h-.303v-.606h.606v-.303h.911v-.304h-.304v-.152l.001-.148zm-5.15.303h.303v.605h-.911v-.304h.605l.003-.301zm6.059 0h.303v.304h-.303v-.304zm-4.544.303v.303h-.304v-.304h.189l.115.001zm1.212 0v.303h-.303v-.304h.189l.114.001zm6.362 0v.303h.303v.909h-.606v-.303h.303v-.304h-.304v-.605h.304zm-6.362.303h.303v.303h.303v.303h-.303v.605h-.303v-.606h-.303v-.303h.303v-.302zm.606 0h.303v.303h-.303v-.303zm2.423 0h.303v.303h-.304v-.152l.001-.151zm-4.241.303v2.12h-2.121v-2.123h2.007l.114.003zm-.644.303h-1.175v1.516h1.519v-1.519l-.344.003zm5.188-.303h.304v.304h-.304v-.304zm1.212.038v-.038h.303v.304h-.304v-.228l.001-.038zm-4.847.265v.303h-.304v-.304h.19l.114.001zm.909 0h.606v.303h-.303v.304h-.304v-.57l.001-.037zm2.12 0h.303v.303h-.303v-.303zm-5.453.303h.91v.912h-.911v-.797l.001-.115zm3.939 0h.303v.303h-.303v-.303zm1.817 0h.304v.303h-.303v-.189l-.001-.114zm-3.029.303v.303h-.303v.303h-.303v.303h-.303v-.605h.303v-.303h.493l.113-.001zm.909 0h.303v.303h-.303v-.303zm-.909.303h.909v.303h.303v-.304h.303v.606h-.606v.303h-.304v-.606h-.304v.606h-.304v-.795l.003-.113zm2.12.303v.303h-.303v-.304h.152l.151.001zm-.605.303h.303v.303h-.304v-.189l.001-.114zm.605 0h.911v.304h-.91v-.189l-.001-.115zm4.242.037v-.038h.303v.303h-.303v-.265z"/></svg>