<svg xmlns="http://www.w3.org/2000/svg" viewBox="0 0 24 24" enable-background="new 0 0 24 24"><style type="text/css">.st0{fill:#9ECFEF;} .st1{fill:#FFFFFF;stroke:#333333;stroke-width:0.25;stroke-miterlimit:10;} .st2{fill:#97C9E8;} .st3{fill:#595959;} .st4{fill:#595959;stroke:#595959;stroke-width:0.25;stroke-miterlimit:10;} .st5{fill:#FFFFFF;} .st6{fill:#9ECFEF;stroke:#595959;stroke-width:0.75;stroke-miterlimit:10;} .st7{fill:none;} .st8{fill:none;stroke:#9ECFEF;stroke-miterlimit:10;} .st9{fill:none;stroke:#595959;stroke-width:0.75;stroke-miterlimit:10;} .st10{fill:none;stroke:#595959;stroke-miterlimit:10;} .st11{fill:#595959;stroke:#FFFFFF;stroke-width:0.1916;stroke-miterlimit:10;} .st12{fill:#9ECFEF;stroke:#595959;stroke-width:0.75;stroke-linejoin:round;stroke-miterlimit:10;} .st13{fill:none;stroke:#2C3251;stroke-width:0.75;stroke-miterlimit:10;} .st14{fill:none;stroke:#595959;stroke-width:0.5;stroke-miterlimit:10;} .st15{fill:#595959;stroke:#FFFFFF;stroke-width:0.25;stroke-miterlimit:10;} .st16{fill:#595959;stroke:#595959;stroke-width:0.2196;stroke-miterlimit:10;} .st17{fill:#FFFFFF;stroke:#595959;stroke-width:0.2196;stroke-miterlimit:10;} .st18{fill:#9ECFEF;stroke:#595959;stroke-width:0.25;stroke-miterlimit:10;} .st19{fill:#CA589D;} .st20{opacity:0.2;fill:#CA589D;} .st21{fill:#3CAF85;} .st22{fill:#FFFFFF;stroke:#595959;stroke-width:0.75;stroke-linejoin:round;stroke-miterlimit:10;} .st23{fill:#595959;stroke:#FFFFFF;stroke-width:0.2467;stroke-miterlimit:10;} .st24{fill:none;stroke:#595959;stroke-width:0.9433;stroke-miterlimit:10;} .st25{fill:none;stroke:#595959;stroke-width:0.9157;stroke-miterlimit:10;} .st26{fill:none;stroke:#595959;stroke-width:0.901;stroke-miterlimit:10;} .st27{fill:none;stroke:#595959;stroke-width:0.74;stroke-miterlimit:10;} .st28{fill:none;stroke:#595959;stroke-width:0.7385;stroke-miterlimit:10;} .st29{fill:none;stroke:#595959;stroke-width:0.9561;stroke-miterlimit:10;} .st30{fill:none;stroke:#595959;stroke-width:0.75;stroke-linecap:square;stroke-miterlimit:10;} .st31{fill:none;stroke:#595959;stroke-width:0.7172;stroke-linecap:square;stroke-miterlimit:10;} .st32{fill:none;stroke:#595959;stroke-width:0.7318;stroke-linecap:square;stroke-miterlimit:10;} .st33{fill:#FFFFFF;stroke:#595959;stroke-width:0.9565;stroke-miterlimit:10;} .st34{fill:none;stroke:#595959;stroke-width:0.9565;stroke-miterlimit:10;} .st35{fill:none;stroke:#595959;stroke-width:0.9565;stroke-miterlimit:10;stroke-dasharray:2.3998,1.4399;} .st36{fill:#9ECFEF;stroke:#595959;stroke-width:0.5;stroke-miterlimit:10;} .st37{fill:#595959;stroke:#FFFFFF;stroke-width:0.4959;stroke-miterlimit:10;}</style><path class="st0" d="M13.051 2.285h6.338v15.291h-6.338z"/><path class="st4" d="M20.582 18.626v-17.252c0-.206-.168-.374-.374-.374h-7.952c-.207 0-.374.168-.374.374v17.251c0 .207.168.374.374.374h7.952c.206.001.374-.167.374-.373zm-8.102-.599v-16.054c0-.207.168-.374.374-.374h6.785c.207 0 .374.168.374.374v16.053c0 .207-.168.374-.374.374h-6.785c-.206.001-.374-.167-.374-.373z"/><path class="st5" d="M13.632 10c0 1.439 1.171 2.61 2.61 2.61 1.439 0 2.61-1.171 2.61-2.61s-1.171-2.61-2.61-2.61c-1.439 0-2.61 1.171-2.61 2.61zm4.64 0c0 1.119-.911 2.03-2.03 2.03-1.119 0-2.03-.911-2.03-2.03s.911-2.03 2.03-2.03c1.119 0 2.03.911 2.03 2.03zm-.874 6.667v.568h1.45v-2.018h-.567v1.45zm-2.301.568v-.568h-.883v-1.45h-.567v2.018zm3.184-13.902v1.45h.567v-2.049h-1.45v.599zm-4.067 1.45v-1.45h.883v-.599h-1.45v2.049z"/><path class="st3" d="M1.805 8.34v14.66h9.16v-14.66h-9.16zm2.75 13.75h-1.84v-1.84h1.84v1.84zm0-2.75h-1.84v-1.84h1.84v1.84zm0-2.75h-1.84v-1.84h1.84v1.84zm2.75 5.5h-1.84v-1.84h1.84v1.84zm0-2.75h-1.84v-1.84h1.84v1.84zm0-2.75h-1.84v-1.84h1.84v1.84zm2.75 5.5h-1.84v-4.59h1.84v4.59zm0-5.5h-1.84v-1.84h1.84v1.84zm0-2.75h-7.34v-4.59h7.34v4.59z"/><path class="st0" d="M3.246 9.71h6.241v3.616h-6.241z"/><path class="st5" d="M21.571 12.216v6.989c0 .538-.505.935-.946.935h-.323v2.236h-5.064v-1.581h4.129v-.655h-4.441c-.441 0-.957-.398-.957-.935v-1.269h3.591l1.107-.742 1.011-.667v-3.365c0-.151.043-.312.118-.441.15-.29.462-.484.828-.484h.323v-.022h.624z"/><path class="st4" d="M20.313 11.603v.022c-.731.14-1.29.785-1.29 1.538v3.021l-.839.57-.817.548h-4.021v1.903c0 .731.548 1.398 1.279 1.548v2.247h6.333v-2.247c.688-.151 1.236-.817 1.236-1.548v-7.602h-1.881zm1.258 7.602c0 .538-.505.935-.946.935h-.323v2.236h-5.064v-1.581h4.129v-.655h-4.441c-.441 0-.957-.398-.957-.935v-1.269h3.591l1.107-.742 1.011-.667v-3.365c0-.151.043-.312.118-.441.15-.29.462-.484.828-.484h.323v-.022h.624v6.99z"/></svg>