<svg height="139" viewBox="0 0 112 139" width="112" xmlns="http://www.w3.org/2000/svg"><path fill="#fff" d="M81.5 79.2c0-4.6 3.5-8.4 7.9-8.9v-6.2c0-18.4-14.9-33.3-33.3-33.3s-33.2 14.9-33.2 33.3v6.2c4.5.5 7.9 4.3 7.9 8.9v14.8c0 5-4 9-9 9h-4.2c-5 0-9-4-9-9v-14.8c0-4.6 3.5-8.4 7.9-8.9v-6.2c0-21.9 17.7-39.6 39.6-39.6 21.9 0 39.6 17.7 39.6 39.6v6.2c4.5.5 7.9 4.3 7.9 8.9v14.8c0 5-4 9-9 9h-4.2c-5 0-9-4-9-9v-14.8h.1zm-37.3 43.6c0-3.1 2.5-5.6 5.6-5.6h11.2c2.3 0 4.3 1.4 5.1 3.4 8.2-2.5 15-8.1 19.1-15.4 1.6.8 3.4 1.2 5.3 1.2h1.2c-5 10.1-14.2 17.8-25.3 20.8-.5 2.6-2.8 4.5-5.5 4.5h-11.1c-3.1 0-5.6-2.5-5.6-5.6v-3.3z"/></svg>