<svg viewBox="0 0 24 24" xmlns="http://www.w3.org/2000/svg" enable-background="new 0 0 24 24"><path fill="#fff" d="M5.5 8.001c-.827 0-1.5-.673-1.5-1.5s.673-1.5 1.5-1.5 1.5.673 1.5 1.5-.673 1.5-1.5 1.5zm0-2c-.275 0-.5.224-.5.5s.225.5.5.5.5-.224.5-.5-.225-.5-.5-.5zm6 2c-.827 0-1.5-.673-1.5-1.5s.673-1.5 1.5-1.5 1.5.673 1.5 1.5-.673 1.5-1.5 1.5zm0-2c-.275 0-.5.224-.5.5s.225.5.5.5.5-.224.5-.5-.225-.5-.5-.5zm10 16c-.076 0-.152-.017-.224-.053l-2.479-1.24c-.752.194-1.523.292-2.297.292-4.136 0-7.5-2.691-7.5-6s3.364-6 7.5-6 7.5 2.691 7.5 6c0 1.783-1.007 3.482-2.715 4.616l.679 1.699c.077.192.027.413-.125.554-.095.087-.216.132-.339.132zm-2.649-2.324c.077 0 .153.018.224.053l1.473.736-.347-.866c-.093-.23-.002-.493.212-.617 1.644-.96 2.587-2.411 2.587-3.982 0-2.757-2.916-5-6.5-5s-6.5 2.243-6.5 5 2.916 5 6.5 5c.747 0 1.492-.103 2.216-.306l.135-.018zm-16.351-1.676c-.125 0-.248-.047-.344-.137-.16-.151-.202-.39-.104-.587l1.033-2.067c-1.966-1.429-3.085-3.488-3.085-5.709 0-4.136 3.925-7.5 8.75-7.5 3.894 0 7.261 2.146 8.378 5.342.055.154.029.326-.066.458-.097.133-.254.193-.414.207l-.131-.451-.017.006v.438c-4.687 0-8.5 3.14-8.5 7 0 .432.053.876.156 1.319.036.158-.006.325-.114.446-.107.121-.261.185-.43.164-.773-.087-1.519-.258-2.219-.507l-2.646 1.512c-.076.045-.162.066-.247.066zm6.25-15c-4.273 0-7.75 2.916-7.75 6.5 0 2.012 1.094 3.88 3.001 5.126.213.139.287.415.174.642l-.489.979 1.415-.809c.131-.074.289-.085.428-.033.484.187.995.331 1.525.43-.036-.28-.054-.559-.054-.835 0-4.244 3.944-7.726 8.907-7.985-1.186-2.394-4.021-4.015-7.157-4.015z"/><circle fill="#fff" cx="14" cy="13.001" r="1"/><circle fill="#fff" cx="19" cy="13.001" r="1"/></svg>