<svg height="30" viewBox="0 0 30 30" width="30" xmlns="http://www.w3.org/2000/svg"><path d="M23.7 14.9c0 .4.3.8.8.8s.8-.3.8-.8c0-5.5-4.5-10-10-10-.4 0-.8.3-.8.8s.3.8.8.8c4.6-.1 8.4 3.7 8.4 8.4zm-9.2-5.2c0 .4.3.8.8.8 2.4 0 4.3 1.9 4.3 4.3 0 .4.3.8.8.8s.8-.3.8-.8c0-3.2-2.6-5.8-5.8-5.8-.6 0-.9.3-.9.7zm.7-9.5c-.4 0-.8.3-.8.8s.3.8.8.8c7.2 0 13.1 5.9 13.1 13.1 0 .4.3.8.8.8s.8-.3.8-.8c-.1-8.1-6.6-14.7-14.7-14.7zm4.2 17.5c-.1-.1-.3-.2-.5-.2s-.4.1-.5.2l-1.6 1.6c-.6.6-1.6.6-2.2 0l-3.7-3.4c-.6-.6-.6-1.6 0-2.2l1.8-1.8c.3-.3.3-.8 0-1.1l-7.4-7.3c-.1-.1-.3-.2-.5-.2s-.4.1-.5.2c-.1.1-2.4 2.4-2.9 3-1.4 1.4-1.6 4.3-.6 6.8 2.2 5.5 9.5 12.2 15.6 15.9.5.3 1.7.6 2.9.6 1.1 0 2.7-.2 4.1-1.4 1.3-1.1 2.8-2.7 2.9-2.8.3-.3.3-.8 0-1l-6.9-6.9zm3 9.5c-1 .9-2.2 1-3.1 1-1.1 0-2-.3-2.1-.4-6.9-4.1-13.2-10.4-15-15.1-.8-2.1-.5-4.4.2-5.2l2.4-2.4 6.2 6.2-1.3 1.3c-1.2 1.2-1.2 3.1 0 4.3l3.7 3.4c1.1 1.1 3.1 1.1 4.3 0l1.1-1.1 5.8 5.8c-.5.7-1.4 1.6-2.2 2.2z" fill="#fff"/></svg>