<svg xmlns="http://www.w3.org/2000/svg" viewBox="0 0 222.4 60" enable-background="new 0 0 222.4 60"><path d="M89.8 13.4c0 .5-.1 1-.4 1.4l-17.9 25.1h18.1v3.5h-23.8v-1.7c0-.2 0-.5.1-.7l.3-.6 17.9-25.2h-17.4v-3.5h23.1v1.7zm9.4.6c0 .4-.1.7-.2 1.1l-.6.9c-.3.3-.6.5-.9.6-.3.1-.7.2-1.1.2-.4 0-.7-.1-1.1-.2-.3-.1-.6-.3-.9-.6l-.6-.9c-.1-.3-.2-.7-.2-1.1 0-.4.1-.7.2-1.1.1-.3.3-.6.6-.9.3-.3.5-.5.9-.6.3-.1.7-.2 1.1-.2.4 0 .7.1 1.1.2.3.1.6.3.9.6.3.3.5.6.6.9.2.4.2.8.2 1.1zm-.8 7.1v22.4h-3.9v-22.4h3.9zm25.3.8v1.5c0 .5-.3.8-.9.9l-2.5.3c.5 1 .8 2 .8 3.2 0 1.1-.2 2.1-.6 3s-1 1.7-1.7 2.3c-.7.6-1.6 1.1-2.6 1.5-1 .3-2.1.5-3.4.5-1 0-2-.1-3-.4-.5.3-.8.6-1.1.9s-.4.7-.4 1c0 .5.2.9.7 1.2.4.3 1 .5 1.7.6.7.1 1.5.2 2.4.2.9 0 1.8.1 2.8.1l2.8.3c.9.2 1.7.4 2.4.8s1.3.9 1.7 1.5c.4.6.7 1.5.7 2.5s-.2 1.9-.7 2.8c-.5.9-1.2 1.7-2.1 2.4-.9.7-2 1.3-3.3 1.7-1.3.4-2.8.6-4.4.6s-3.1-.2-4.3-.5c-1.2-.3-2.2-.8-3-1.3-.8-.5-1.4-1.2-1.8-1.9-.4-.7-.6-1.5-.6-2.2 0-1.1.3-2 1-2.8.7-.8 1.6-1.4 2.8-1.8-.7-.3-1.2-.7-1.6-1.2-.4-.5-.6-1.2-.6-2 0-.3.1-.7.2-1 .1-.3.3-.7.5-1 .2-.3.5-.7.9-1 .4-.3.8-.6 1.2-.8-1.1-.6-2-1.4-2.6-2.5-.6-1-.9-2.2-.9-3.6 0-1.1.2-2.1.6-3 .4-.9 1-1.6 1.8-2.3.8-.6 1.6-1.1 2.7-1.4 1-.3 2.2-.5 3.4-.5 1 0 1.9.1 2.7.3.8.2 1.6.5 2.3.9h6zm-4 22.7c0-.5-.2-1-.5-1.3s-.7-.6-1.2-.8-1.1-.3-1.8-.4c-.7-.1-1.4-.1-2.2-.2l-2.4-.1s-1.6-.1-2.3-.2c-.8.4-1.5.9-2 1.4s-.8 1.3-.8 2c0 .5.1 1 .4 1.4.3.4.7.8 1.2 1.1.5.3 1.2.6 2 .8.8.2 1.7.3 2.8.3 1.1 0 2-.1 2.8-.3s1.5-.5 2.1-.8c.6-.4 1-.8 1.3-1.3.5-.4.6-1 .6-1.6zm-7.1-12.1c.8 0 1.5-.1 2.1-.3.6-.2 1.1-.5 1.5-.9s.7-.9.9-1.4c.2-.6.3-1.2.3-1.8 0-1.4-.4-2.5-1.2-3.3-.8-.8-2-1.2-3.6-1.2s-2.8.4-3.6 1.2c-.8.8-1.2 1.9-1.2 3.3 0 .7.1 1.3.3 1.8.2.6.5 1 .9 1.4s.9.7 1.5.9 1.4.3 2.1.3zm25.8-20.7c1.9 0 3.6.2 5 .6s2.6.9 3.5 1.6c.9.7 1.6 1.6 2 2.6.4 1 .6 2.2.6 3.5 0 .8-.1 1.5-.4 2.2-.2.7-.6 1.4-1.1 2-.5.6-1.1 1.2-1.8 1.7s-1.6.9-2.6 1.2c2.3.4 4.1 1.3 5.2 2.5 1.2 1.2 1.8 2.8 1.8 4.8 0 1.3-.2 2.6-.7 3.7-.5 1.1-1.2 2.1-2.2 2.8-.9.8-2.1 1.4-3.5 1.8-1.4.4-3 .7-4.7.7h-11.2v-31.7h10.1zm-5.9 3.4v10.8h5.7c1.2 0 2.3-.1 3.1-.4s1.6-.6 2.2-1.1c.6-.5 1-1 1.3-1.7.3-.7.4-1.4.4-2.2 0-1.9-.6-3.2-1.7-4.1-1.1-.9-2.9-1.3-5.2-1.3h-5.8zm6.9 24.8c1.2 0 2.3-.1 3.2-.4.9-.3 1.6-.7 2.2-1.2s1-1.1 1.2-1.8c.3-.7.4-1.5.4-2.3 0-1.6-.6-2.9-1.7-3.9-1.2-.9-2.9-1.4-5.2-1.4h-6.8v11h6.7zm15.6-15.8c1.2-1.2 2.6-2.1 4-2.7 1.4-.6 3-.9 4.7-.9 1.3 0 2.4.2 3.3.6 1 .4 1.8 1 2.5 1.7s1.2 1.6 1.5 2.7c.3 1 .5 2.2.5 3.4v14.3h-1.7c-.4 0-.7-.1-.9-.2s-.4-.4-.5-.7l-.4-2.1c-.6.5-1.2 1-1.7 1.4-.6.4-1.1.8-1.8 1.1s-1.3.5-2 .7c-.7.2-1.5.2-2.3.2-.9 0-1.7-.1-2.5-.4-.8-.2-1.4-.6-2-1.1-.6-.5-1-1.1-1.3-1.8-.3-.7-.5-1.6-.5-2.6 0-.9.2-1.7.7-2.5.5-.8 1.3-1.5 2.4-2.2s2.5-1.2 4.3-1.6c1.8-.4 3.9-.6 6.4-.7v-1.7c0-1.7-.4-3.1-1.1-3.9-.8-.9-1.8-1.3-3.3-1.3-1 0-1.8.1-2.4.4-.7.2-1.2.5-1.7.8-.5.3-.9.6-1.2.8-.3.2-.7.4-1 .4-.3 0-.5-.1-.7-.2-.2-.1-.4-.3-.5-.5l-.8-1.4zm12.7 9.2c-1.8.1-3.4.2-4.6.4-1.3.2-2.3.5-3.1.9-.8.4-1.4.8-1.7 1.3-.4.5-.5 1.1-.5 1.7 0 .6.1 1.1.3 1.5.2.4.5.8.8 1s.7.5 1.2.6c.4.1.9.2 1.4.2.7 0 1.3-.1 1.9-.2.6-.1 1.1-.3 1.6-.6l1.5-.9c.5-.4.9-.8 1.4-1.3v-4.6zm13.5-9.1l1.5-1.5c.5-.4 1.1-.8 1.7-1.1.6-.3 1.3-.6 1.9-.7.7-.2 1.4-.3 2.2-.3 1.2 0 2.3.2 3.2.6.9.4 1.7 1 2.3 1.7.6.7 1.1 1.6 1.4 2.7.3 1 .5 2.2.5 3.5v14.2h-4v-14.2c0-1.7-.4-3-1.2-3.9-.8-.9-1.9-1.4-3.5-1.4-1.2 0-2.2.3-3.3.8s-1.9 1.3-2.8 2.3v16.5h-4v-22.4h2.4c.6 0 .9.3 1 .8l.7 2.4zm24.9-13.4v19.1h1c.3 0 .5 0 .7-.1s.4-.2.6-.5l7.1-7.6c.2-.2.4-.4.7-.6.2-.1.5-.2.9-.2h3.6l-8.2 8.8c-.4.5-.8.9-1.3 1.2.3.2.5.4.7.6.2.2.4.5.6.8l8.7 11h-3.5c-.3 0-.6-.1-.9-.2s-.5-.3-.6-.6l-7.4-9.2c-.2-.3-.4-.5-.7-.6s-.5-.1-1-.1h-1.1v10.7h-4v-32.5h4.1z" fill="#282E4A"/><linearGradient id="a" gradientUnits="userSpaceOnUse" x1="-199.452" y1="-640.899" x2="-152.084" y2="-640.899" gradientTransform="matrix(.989 -.147 -.147 -.989 105.054 -643.17)"><stop offset="0" stop-color="#56B9E9"/><stop offset="1" stop-color="#0071C4"/></linearGradient><path fill="url(#a)" d="M2.5 21.2l32.3-14.4c5.5-2.5 11.7 0 14.2 5.5l-32.3 14.2c-5.5 2.5-12 0-14.2-5.3z"/><linearGradient id="b" gradientUnits="userSpaceOnUse" x1="-192.058" y1="-667.724" x2="-144.69" y2="-667.724" gradientTransform="matrix(.989 -.147 -.147 -.989 105.054 -643.17)"><stop offset="0" stop-color="#0085C7"/><stop offset=".663" stop-color="#02A68F"/><stop offset="1" stop-color="#03B478"/></linearGradient><path fill="url(#b)" d="M13.7 46.6l32.3-14.4c5.5-2.5 11.7 0 14.2 5.5l-32.3 14.2c-5.5 2.7-11.7.2-14.2-5.3z"/><linearGradient id="c" gradientUnits="userSpaceOnUse" x1="-193.32" y1="-654.407" x2="-150.869" y2="-654.407" gradientTransform="matrix(.989 -.147 -.147 -.989 105.054 -643.17)"><stop offset="0" stop-color="#03B478"/><stop offset=".251" stop-color="#48B657"/><stop offset=".62" stop-color="#A7B928"/><stop offset=".878" stop-color="#E4BA0B"/><stop offset="1" stop-color="#FBBB00"/></linearGradient><path fill="url(#c)" d="M12.4 43.7l32.4-14.2c5.5-2.5 8-8.7 5.5-14.2l-32.4 14.2c-5.5 2.2-8 8.7-5.5 14.2z"/></svg>