<svg xmlns="http://www.w3.org/2000/svg" viewBox="0 0 35 35" enable-background="new 0 0 35 35"><circle fill="#fff" stroke="#4C5C68" stroke-width=".273" stroke-linecap="round" stroke-linejoin="round" stroke-miterlimit="10" cx="17.5" cy="16.8" r="15.4"/><circle fill="#E95B54" cx="17.5" cy="16.8" r="13.8"/><g fill="#fff"><path d="M22.3 22.1c-.1 0-.3 0-.4-.1l-9.5-9.5c-.2-.2-.2-.5 0-.7.2-.2.5-.2.7 0l9.5 9.5c.2.2.2.5 0 .7-.1.1-.2.1-.3.1zM12.7 22.1c-.1 0-.3 0-.4-.1-.2-.2-.2-.5 0-.7l9.5-9.5c.2-.2.5-.2.7 0 .2.2.2.5 0 .7l-9.4 9.5c-.1.1-.2.1-.4.1z"/></g></svg>