<svg height="512" viewBox="0 0 512 512" width="512" xmlns="http://www.w3.org/2000/svg"><path d="M228 68.67c-68.48 0-124 55.51-124 124 0 68.48 55.52 124 124 124 68.48 0 124-55.52 124-124 0-68.49-55.52-124-124-124zm0 214.6c-50.04 0-90.6-40.569-90.6-90.6 0-50.04 40.56-90.6 90.6-90.6s90.6 40.56 90.6 90.6c0 50.03-40.56 90.6-90.6 90.6zm164.791 131.038c6.094 9.157 4.118 21.283-4.391 26.944-8.509 5.662-20.457 2.803-26.551-6.355l-88.641-133.204c-6.094-9.158-4.118-21.283 4.391-26.944 8.51-5.662 20.458-2.803 26.552 6.355l88.64 133.204z" fill="#fff"/></svg>