<svg height="24" viewBox="0 0 24 24" width="24" xmlns="http://www.w3.org/2000/svg"><path d="M23.1 9h-1.5c-.2-.6-.4-1.1-.7-1.6l1-1c.4-.4.4-1 0-1.4l-2.8-2.8c-.4-.4-1-.4-1.4 0l-1.1 1c-.5-.3-.6-.6-1.6-.7v-1.5c0-.6-.4-1-.9-1h-4c-.6 0-1.1.4-1.1 1v1.5c-1 .1-1.1.4-1.6.6l-1-1c-.4-.4-1-.4-1.4 0l-2.9 2.8c-.4.4-.4 1 0 1.4l1 1-.6 1.7h-1.4c-.6 0-1.1.4-1.1 1v4c0 .6.5 1 1.1 1h1.5c.2.6.4 1.1.7 1.6l-1 1c-.4.4-.4 1 0 1.4l2.7 2.9c.4.4 1 .4 1.4 0l1-1c.5.2.6.5 1.6.6v1.5c0 .6.5 1 1.1 1h4c.6 0 .9-.4.9-1v-1.5c1-.2 1.1-.4 1.6-.7l1 1c.4.4 1 .4 1.4 0l2.8-2.8c.4-.4.4-1 0-1.4l-1-1c.3-.5.5-1.1.7-1.6h1.5c.6 0 .9-.4.9-1v-4c.1-.6-.3-1-.8-1zm-1.1 4h-2c-.1.7-.3 1.4-.5 2v.1c-.3.6-.6 1.2-1.1 1.8l1.4 1.4c-.2.3-.4.7-.7.7-.2 0-.5.5-.7.7l-1.4-1.4c-.5.4-1.1.8-1.8 1.1h-.1c-.6.3-1 .4-2 .5v2s-.7.1-1 .1-1 0-1-.1v-2c-1-.1-1.3-.3-2-.5h-.1c-.6-.3-1.2-.6-1.8-1.1l-1.4 1.4c-.3-.2-.5-.4-.7-.7l-.7-.7 1.4-1.4c-.4-.5-.8-1.1-1.1-1.8v-.1c-.3-.6-.4-1.3-.5-2h-2l-.1-1s0-.7.1-1h2c.1-.7.3-1.4.5-2v-.1c.3-.7.6-1.3 1-1.8l-1.4-1.4c.2-.3.4-.5.7-.8l.7-.7 1.4 1.4c.5-.4 1.1-.8 1.8-1.1h.1c.6-.3 1-.4 2-.5v-2h1s1 0 1 .1v2c1 .1 1.4.3 2 .5h.1c.6.3 1.2.6 1.8 1.1l1.4-1.4c.3.2.5.4.7.7l.7.7-1.4 1.4c.4.5.8 1.1 1.1 1.8v.1c.3.6.4 1.3.5 2h2l.1 1v1zm-9.9-5c-2.2 0-4 1.8-4 4s1.8 4 4 4 4-1.8 4-4-1.8-4-4-4zm0 7c-1.7 0-3-1.3-3-3s1.3-3 3-3 3 1.3 3 3-1.4 3-3 3z" fill="#fff"/></svg>