<svg height="80" viewBox="0 0 80 80" width="80" xmlns="http://www.w3.org/2000/svg"><path fill="#fff" d="M45.265 18.018c.495 0 .99.025 1.485.076l-7.633 7.633 2.611 12.545 12.545 2.611 7.623-7.623c.38 3.847-.758 7.563-3.348 10.153-2.211 2.21-5.29 3.428-8.672 3.428-1.558 0-3.136-.252-4.688-.749l-2.904-.93-2.156 2.156-13.031 13.03c-.994.994-2.316 1.542-3.723 1.542-1.406 0-2.728-.548-3.723-1.542-.994-.994-1.542-2.316-1.542-3.723 0-1.406.548-2.728 1.542-3.723l13.031-13.031 2.156-2.156-.93-2.904c-1.622-5.066-.621-10.061 2.679-13.361 2.214-2.213 5.296-3.432 8.678-3.432m0-5c-4.551 0-8.928 1.613-12.213 4.898-4.773 4.773-6.008 11.854-3.905 18.421l-13.031 13.031c-4.009 4.009-4.009 10.508 0 14.516 2.004 2.004 4.631 3.006 7.258 3.006s5.254-1.002 7.258-3.006l13.031-13.031c2.049.656 4.149.987 6.213.987 4.549 0 8.924-1.609 12.208-4.892 5.878-5.878 6.403-15.254 1.912-22.859l-11.349 11.349-6.693-1.393-1.393-6.692 11.349-11.349c-3.354-1.981-7.053-2.986-10.645-2.986z"/></svg>