<?xml version="1.0" encoding="utf-8"?>
<!-- Generator: Adobe Illustrator 17.0.0, SVG Export Plug-In . SVG Version: 6.00 Build 0)  -->
<!DOCTYPE svg PUBLIC "-//W3C//DTD SVG 1.1//EN" "http://www.w3.org/Graphics/SVG/1.1/DTD/svg11.dtd">
<svg version="1.1" id="Layer_1" xmlns="http://www.w3.org/2000/svg" xmlns:xlink="http://www.w3.org/1999/xlink" x="0px" y="0px"
	 width="842.35px" height="595.3px" viewBox="0 0 842.35 595.3" enable-background="new 0 0 842.35 595.3" xml:space="preserve">
<circle fill-rule="evenodd" clip-rule="evenodd" fill="#0D3178" cx="421.175" cy="297.65" r="235.5"/>
<g>
	<g>
		<path fill-rule="evenodd" clip-rule="evenodd" fill="#FFFFFF" d="M459.034,295.976c-22.628,7.727-33.088,9.061-36.932,9.242
			c-3.844-0.181-14.304-1.516-36.932-9.242c-74.972-14.034-86.79,60.938-86.79,60.938v94.176h247.444v-94.176
			C545.824,356.914,534.006,281.942,459.034,295.976z M422.102,290.436c39.774,0,72.017-32.243,72.017-72.017
			c0-39.774-32.243-72.017-72.017-72.017c-39.774,0-72.017,32.243-72.017,72.017C350.085,258.193,382.328,290.436,422.102,290.436z"
			/>
	</g>
</g>
<g>
	<path fill="none" d="M455.339,295.125c-20.427,6.975-29.869,8.18-33.339,8.343c-3.47-0.164-12.913-1.368-33.339-8.343
		c-67.679-12.669-78.348,55.01-78.348,55.01v85.015h110.02h3.334h110.02v-85.015C533.687,350.135,523.018,282.456,455.339,295.125z
		 M422,290.124c35.905,0,65.012-29.107,65.012-65.012S457.905,160.1,422,160.1s-65.012,29.107-65.012,65.012
		S386.095,290.124,422,290.124z"/>
</g>
</svg>
