<svg id="Layer_1" data-name="Layer 1" xmlns="http://www.w3.org/2000/svg" viewBox="0 0 64 64"><defs><style>.cls-1,.cls-2{fill:#333;}.cls-1{fill-rule:evenodd;}</style></defs><title>thumbs-up</title><path class="cls-1" d="M58.86,33.19a.48.48,0,0,1-.13-.45,5.9,5.9,0,0,0-.08-3.82,4.83,4.83,0,0,0-4.05-3.39,24.09,24.09,0,0,0-3.16-.06H49.17v0l-3.33,0c-3.14-.06.45-4-.14-13.88-.34-5.66-5.54-7.44-7.22-3.33a27.27,27.27,0,0,0-1.11,3.59C36,17,33.43,22.57,28.95,25.58a11.61,11.61,0,0,1-5.86,2h-.2a1.08,1.08,0,0,0-1.08,1.08v24.6a1.08,1.08,0,0,0,1.08,1.08h.21c7.4.77,7.32,3.57,15.53,3.64q3.85,0,7.7,0c1.44,0,2.89,0,4.33,0A4.87,4.87,0,0,0,55,55.8a5.7,5.7,0,0,0,.76-4.95c-.07-.24-.08-.39.21-.52A5.1,5.1,0,0,0,58.77,47a5.85,5.85,0,0,0-.08-3.56C62.81,40.26,60.15,33.94,58.86,33.19Z"/><rect class="cls-2" x="3.1" y="26.72" width="16.85" height="28.43" rx="2.02" ry="2.02"/></svg>