<?xml version="1.0" encoding="utf-8"?>
<!-- Generator: Adobe Illustrator 17.0.0, SVG Export Plug-In . SVG Version: 6.00 Build 0)  -->
<!DOCTYPE svg PUBLIC "-//W3C//DTD SVG 1.1//EN" "http://www.w3.org/Graphics/SVG/1.1/DTD/svg11.dtd">
<svg version="1.1" id="Layer_1" xmlns="http://www.w3.org/2000/svg" xmlns:xlink="http://www.w3.org/1999/xlink" x="0px" y="0px"
	 width="842.35px" height="595.3px" viewBox="0 0 842.35 595.3" enable-background="new 0 0 842.35 595.3" xml:space="preserve">
<g id="Layer_1_1_">
	<g id="XMLID_882_">
		<g id="XMLID_885_">
			<g id="XMLID_897_">
				<polygon fill="#FFFFFF" points="261.188,186.031 261.188,85.574 160.731,186.031 				"/>
			</g>
			<g id="XMLID_62_">
				<path id="XMLID_1532_" d="M251.887,196.263h-91.155v-21.394h90.225l-0.93-90.225h22.324v90.225
					C272.35,186.961,263.048,196.263,251.887,196.263z"/>
			</g>
			<g id="XMLID_61_">
				<path id="XMLID_1531_" d="M386.759,576.697H188.636c-21.394,0-38.136-16.743-38.136-38.136V181.38L257.467,74.413h234.399
					c21.394,0,38.136,16.743,38.136,38.136v133.942H508.61V112.549c0-9.302-7.441-16.743-16.743-16.743H265.839l-93.946,94.876
					V538.56c0,9.302,7.441,16.743,16.743,16.743h198.123V576.697z"/>
			</g>
			<g id="XMLID_58_">
				<rect id="XMLID_1528_" x="209.099" y="322.764" fill="#0D3178" width="193.473" height="21.394"/>
			</g>
			<g id="XMLID_57_">
				<rect id="XMLID_1527_" x="209.099" y="380.434" fill="#0D3178" width="193.473" height="21.394"/>
			</g>
			<g id="XMLID_56_">
				<rect id="XMLID_1526_" x="209.099" y="437.173" fill="#0D3178" width="193.473" height="21.394"/>
			</g>
			<g id="XMLID_925_">
				<rect id="XMLID_1525_" x="209.099" y="493.913" fill="#0D3178" width="193.473" height="21.394"/>
			</g>
			<g id="XMLID_41_">
				<g id="XMLID_55_">
					<path id="XMLID_2175_" fill="#FFFFFF" d="M649.993,566.465H439.778c-8.371,0-15.813-7.441-15.813-15.813V286.488
						c0-8.371,7.441-15.813,15.813-15.813h210.215c8.371,0,15.813,7.441,15.813,15.813v264.164
						C665.806,559.024,658.365,566.465,649.993,566.465z"/>
				</g>
				<g id="XMLID_926_">
					<path id="XMLID_1522_" d="M649.993,576.697h-237.19V286.488c0-14.882,12.092-26.044,26.044-26.044h210.215
						c14.882,0,26.044,12.092,26.044,26.044v264.164C676.038,564.605,663.946,576.697,649.993,576.697z M434.197,555.303h215.796
						c2.79,0,4.651-1.86,4.651-4.651V286.488c0-2.79-1.86-4.651-4.651-4.651H439.778c-2.79,0-4.651,1.86-4.651,4.651v268.815
						H434.197z"/>
				</g>
				<g id="XMLID_928_">
					<rect x="469.543" y="317.183" fill="#6DCFF6" width="149.755" height="51.159"/>
				</g>
				<g id="XMLID_52_">
					<g id="XMLID_930_">
						<rect id="XMLID_1521_" x="469.543" y="410.199" fill="#00984A" width="22.324" height="21.394"/>
					</g>
					<g id="XMLID_929_">
						<rect id="XMLID_1520_" x="512.33" y="410.199" fill="#00984A" width="22.324" height="21.394"/>
					</g>
					<g id="XMLID_54_">
						<rect id="XMLID_1519_" x="554.187" y="410.199" fill="#00984A" width="22.324" height="21.394"/>
					</g>
					<g id="XMLID_53_">
						<rect id="XMLID_1518_" x="596.975" y="410.199" fill="#00984A" width="22.324" height="21.394"/>
					</g>
				</g>
				<g id="XMLID_47_">
					<g id="XMLID_51_">
						<rect id="XMLID_1517_" x="469.543" y="450.196" fill="#00984A" width="22.324" height="21.394"/>
					</g>
					<g id="XMLID_50_">
						<rect id="XMLID_1516_" x="512.33" y="450.196" fill="#00984A" width="22.324" height="21.394"/>
					</g>
					<g id="XMLID_49_">
						<rect id="XMLID_1515_" x="554.187" y="450.196" fill="#00984A" width="22.324" height="21.394"/>
					</g>
					<g id="XMLID_48_">
						<rect id="XMLID_1514_" x="596.975" y="450.196" fill="#00984A" width="22.324" height="21.394"/>
					</g>
				</g>
				<g id="XMLID_42_">
					<g id="XMLID_46_">
						<rect id="XMLID_1513_" x="469.543" y="490.192" fill="#00984A" width="22.324" height="21.394"/>
					</g>
					<g id="XMLID_45_">
						<rect id="XMLID_1512_" x="512.33" y="490.192" fill="#00984A" width="22.324" height="21.394"/>
					</g>
					<g id="XMLID_44_">
						<rect id="XMLID_1511_" x="554.187" y="490.192" fill="#00984A" width="22.324" height="21.394"/>
					</g>
					<g id="XMLID_43_">
						<rect id="XMLID_1510_" x="596.975" y="490.192" fill="#00984A" width="22.324" height="21.394"/>
					</g>
				</g>
			</g>
		</g>
	</g>
</g>
<g id="specctr">
	<g id="Text_Properties">
	</g>
</g>
<g>
	<path fill="#0D3178" d="M336.148,143.97h10.439v38.999h0.36c2.16-3.12,4.32-6,6.36-8.64l24.719-30.359h12.959l-29.279,34.319
		l31.559,46.558h-12.359l-26.639-39.718l-7.68,8.879v30.839h-10.439V143.97z"/>
	<path fill="#0D3178" d="M399.387,214.047c3.12,2.04,8.64,4.2,13.919,4.2c7.68,0,11.279-3.84,11.279-8.64c0-5.04-3-7.8-10.799-10.68
		c-10.44-3.72-15.359-9.479-15.359-16.439c0-9.359,7.56-17.039,20.039-17.039c5.88,0,11.04,1.68,14.279,3.6l-2.639,7.68
		c-2.28-1.44-6.48-3.36-11.88-3.36c-6.24,0-9.72,3.6-9.72,7.92c0,4.8,3.479,6.959,11.04,9.839c10.08,3.84,15.24,8.88,15.24,17.52
		c0,10.199-7.92,17.399-21.72,17.399c-6.359,0-12.239-1.561-16.319-3.96L399.387,214.047z"/>
</g>
</svg>
