<?xml version="1.0" encoding="utf-8"?>
<!-- Generator: Adobe Illustrator 22.0.1, SVG Export Plug-In . SVG Version: 6.00 Build 0)  -->
<svg version="1.1" xmlns="http://www.w3.org/2000/svg" xmlns:xlink="http://www.w3.org/1999/xlink" x="0px" y="0px"
	 viewBox="0 0 65 65" style="enable-background:new 0 0 65 65;" xml:space="preserve">
<style type="text/css">
	.st0{fill:url(#SVGID_1_);}
	.st1{fill:#FFFFFF;}
	.st2{fill:none;stroke:#FFFFFF;stroke-width:1.5;stroke-linecap:round;stroke-linejoin:round;stroke-miterlimit:10;}
	.st3{opacity:0.5;fill:url(#SVGID_2_);}
	.st4{clip-path:url(#SVGID_4_);}
	.st5{fill:url(#SVGID_5_);}
	.st6{opacity:0.5;fill:url(#SVGID_6_);}
	.st7{opacity:0.3;fill:#2C77BC;}
	.st8{fill:#192382;}
	.st9{fill:#E6E7E8;}
	.st10{fill:#EC5A06;}
	.st11{opacity:0.3;fill:#414042;}
	.st12{fill:#3D2CEC;}
	.st13{fill:#F6CF2E;}
	.st14{fill:#2842A2;}
	.st15{opacity:0;fill:#FFFFFF;}
	.st16{opacity:3.225800e-02;fill:#F8F9FC;}
	.st17{opacity:6.451600e-02;fill:#F1F3F9;}
	.st18{opacity:9.677400e-02;fill:#EAEDF6;}
	.st19{opacity:0.129;fill:#E3E7F3;}
	.st20{opacity:0.1613;fill:#DCE1F0;}
	.st21{opacity:0.1935;fill:#D5DAED;}
	.st22{opacity:0.2258;fill:#CED4EA;}
	.st23{opacity:0.2581;fill:#C8CEE7;}
	.st24{opacity:0.2903;fill:#C1C8E4;}
	.st25{opacity:0.3226;fill:#BAC2E1;}
	.st26{opacity:0.3548;fill:#B3BCDE;}
	.st27{opacity:0.3871;fill:#ACB6DB;}
	.st28{opacity:0.4194;fill:#A5B0D8;}
	.st29{opacity:0.4516;fill:#9EAAD5;}
	.st30{opacity:0.4839;fill:#97A4D2;}
	.st31{opacity:0.5161;fill:#909DCF;}
	.st32{opacity:0.5484;fill:#8997CC;}
	.st33{opacity:0.5806;fill:#8291C9;}
	.st34{opacity:0.6129;fill:#7B8BC6;}
	.st35{opacity:0.6452;fill:#7485C3;}
	.st36{opacity:0.6774;fill:#6D7FC0;}
	.st37{opacity:0.7097;fill:#6679BD;}
	.st38{opacity:0.7419;fill:#5F73BA;}
	.st39{opacity:0.7742;fill:#596DB7;}
	.st40{opacity:0.8065;fill:#5267B4;}
	.st41{opacity:0.8387;fill:#4B60B1;}
	.st42{opacity:0.871;fill:#445AAE;}
	.st43{opacity:0.9032;fill:#3D54AB;}
	.st44{opacity:0.9355;fill:#364EA8;}
	.st45{opacity:0.9677;fill:#2F48A5;}
	.st46{fill:url(#XMLID_122_);}
	.st47{fill:#F7F7F7;}
	.st48{fill:#F1F2F2;}
	.st49{fill:url(#XMLID_123_);}
	.st50{fill:url(#XMLID_124_);}
	.st51{fill:url(#XMLID_135_);}
	.st52{fill:url(#XMLID_136_);}
	.st53{fill:#FAE282;}
	.st54{fill:#F49C6A;}
	.st55{fill:#8B80F4;}
	.st56{fill:#FFDA6A;}
	.st57{fill:url(#XMLID_137_);}
	.st58{fill:url(#XMLID_143_);}
	.st59{fill:#F0F2F8;}
	.st60{fill:url(#XMLID_144_);}
	.st61{fill:url(#XMLID_145_);}
	.st62{fill:#F07B38;}
	.st63{fill:url(#SVGID_7_);}
	.st64{opacity:0.4;fill:#8BAFD1;}
	.st65{opacity:0.9;fill:#FFFFFF;}
	.st66{fill:#4F30DB;}
	.st67{fill:#5956EC;}
	.st68{fill:#A964E2;}
	.st69{fill:url(#SVGID_8_);}
	.st70{fill:url(#SVGID_9_);}
	.st71{opacity:0.5;fill:url(#SVGID_10_);}
	.st72{opacity:0.5;fill:url(#SVGID_11_);}
	.st73{opacity:0.5;fill:url(#SVGID_12_);}
	.st74{opacity:0.5;fill:url(#SVGID_13_);}
	.st75{opacity:0.6;fill:#FFFFFF;}
	.st76{fill:url(#SVGID_14_);}
	.st77{fill:url(#SVGID_15_);}
	.st78{fill:url(#SVGID_16_);}
	.st79{opacity:0.5;fill:#F1F8FD;}
	.st80{fill:#339CD2;}
	.st81{opacity:0.4;fill:#004CBA;}
	.st82{fill:#543ABE;}
	.st83{opacity:0.6;}
	.st84{fill:#A640BF;}
	.st85{fill:#004CBA;}
	.st86{opacity:0.4;}
	.st87{opacity:0.5;fill:#FFFFFF;}
	.st88{opacity:0.5;fill:#325B87;}
	.st89{opacity:0.2;}
	.st90{opacity:0.7;}
	.st91{opacity:0.15;}
	.st92{opacity:0.5;}
	.st93{fill:#E6552F;}
	.st94{fill:#66AF3D;}
	.st95{fill:#FFE106;}
	.st96{opacity:0.3;}
	.st97{opacity:0.4;fill:#FFFFFF;}
	.st98{opacity:0.7;fill:#F1F8FD;}
	.st99{fill:#F1F8FD;}
	.st100{opacity:0.2;fill:#325B87;}
	.st101{opacity:0.17;fill:url(#SVGID_17_);}
	.st102{fill:#514BF1;}
	.st103{display:none;}
	.st104{fill:#A3A7CD;}
	.st105{fill:#2E21B1;}
	.st106{fill:url(#SVGID_18_);}
	.st107{fill:url(#XMLID_146_);}
	.st108{fill:url(#XMLID_147_);}
	.st109{fill:url(#XMLID_148_);}
	.st110{fill:#D1D3D4;}
	.st111{fill:#F8D958;}
	.st112{fill:#68D5FF;}
	.st113{fill:#6456F0;}
	.st114{fill:url(#XMLID_149_);}
	.st115{fill:url(#XMLID_150_);}
	.st116{fill:url(#XMLID_159_);}
	.st117{fill:url(#XMLID_161_);}
	.st118{fill:url(#XMLID_163_);}
	.st119{fill:url(#XMLID_165_);}
	.st120{fill:url(#XMLID_167_);}
	.st121{fill:url(#XMLID_169_);}
	.st122{fill:#FAA61A;}
	.st123{fill:#D370D8;}
	.st124{fill:#55758E;}
	.st125{fill:#325B87;}
	.st126{fill:#091018;}
	.st127{fill:#FDC689;}
	.st128{fill:#BB7D14;}
	.st129{opacity:0.5;fill:#FAA61A;}
	.st130{fill:#006295;}
	.st131{opacity:0.7;fill:#0083C7;}
	.st132{fill:#0083C7;}
	.st133{fill:#D5E4F2;}
	.st134{fill:#24415E;}
	.st135{fill:#FBB848;}
	.st136{fill:#1B3147;}
	.st137{opacity:0.7;fill:#BB7D14;}
	.st138{fill:#231F20;}
	.st139{fill:#85BF64;}
	.st140{fill:url(#SVGID_19_);}
	.st141{fill:none;stroke:#FFFFFF;stroke-width:1.5;stroke-miterlimit:10;}
	.st142{fill:none;stroke:#FFFFFF;stroke-width:1.5;stroke-linecap:round;stroke-miterlimit:10;}
	.st143{fill:none;stroke:#FFFFFF;stroke-width:1.5;stroke-linejoin:round;stroke-miterlimit:10;}
	.st144{fill:#333333;}
	.st145{fill:url(#SVGID_20_);}
	.st146{fill:url(#SVGID_21_);}
	.st147{fill:url(#SVGID_22_);}
	.st148{clip-path:url(#SVGID_24_);}
	.st149{fill:url(#SVGID_25_);}
	.st150{opacity:0.5;fill:url(#SVGID_26_);}
	.st151{fill:url(#SVGID_27_);}
	.st152{fill:url(#SVGID_28_);}
	.st153{fill:url(#SVGID_29_);}
	.st154{opacity:0.5;fill:url(#SVGID_30_);}
	.st155{opacity:0.5;fill:url(#SVGID_31_);}
	.st156{opacity:0.5;fill:url(#SVGID_32_);}
	.st157{opacity:0.5;fill:url(#SVGID_33_);}
	.st158{fill:url(#SVGID_34_);}
	.st159{fill:url(#SVGID_35_);}
	.st160{fill:url(#SVGID_36_);}
	.st161{opacity:0.17;fill:url(#SVGID_37_);}
	.st162{fill:url(#SVGID_38_);}
	.st163{fill:url(#SVGID_39_);}
	.st164{fill:url(#SVGID_40_);}
	.st165{fill:url(#SVGID_41_);}
	.st166{clip-path:url(#SVGID_43_);}
	.st167{fill:url(#SVGID_44_);}
	.st168{opacity:0.5;fill:url(#SVGID_45_);}
	.st169{fill:url(#SVGID_46_);}
	.st170{fill:url(#SVGID_47_);}
	.st171{fill:url(#SVGID_48_);}
	.st172{opacity:0.5;fill:url(#SVGID_49_);}
	.st173{opacity:0.5;fill:url(#SVGID_50_);}
	.st174{opacity:0.5;fill:url(#SVGID_51_);}
	.st175{opacity:0.5;fill:url(#SVGID_52_);}
	.st176{fill:url(#SVGID_53_);}
	.st177{fill:url(#SVGID_54_);}
	.st178{fill:url(#SVGID_55_);}
	.st179{opacity:0.17;fill:url(#SVGID_56_);}
	.st180{display:inline;}
</style>
<g id="Layer_1">
	<g>
		<linearGradient id="SVGID_1_" gradientUnits="userSpaceOnUse" x1="32.5" y1="2.5521" x2="32.5" y2="67.5521">
			<stop  offset="0" style="stop-color:#DFCE00"/>
			<stop  offset="0.9874" style="stop-color:#71BF49"/>
		</linearGradient>
		<circle class="st0" cx="32.5" cy="32.5" r="32.5"/>
		<g>
			<g>
				<g>
					<path class="st1" d="M31.8,42.3c-0.3,0-0.6-0.1-0.9-0.2c-0.2-0.1-0.5-0.1-0.7-0.2l0-1.3c0.4,0.2,0.6,0.2,1,0.3
						C31.7,41,32,41,32.3,41c0.6,0,1-0.2,1.4-0.5c0.3-0.3,0.5-0.7,0.5-1.2c0-0.3,0-0.6-0.1-0.8c-0.1-0.2-0.2-0.4-0.4-0.6
						c-0.2-0.1-0.6-0.4-1.2-0.6L31.6,37c-0.7-0.3-1.2-0.7-1.5-1.2c-0.3-0.5-0.4-1-0.4-1.7c0-0.7,0.2-1.3,0.6-1.7
						c0.4-0.5,0.8-0.7,1.4-0.9l0-1.2h1.4l0,1.1c0.7,0,1.2,0.2,1.6,0.4l0,1.3c-0.2-0.1-0.5-0.3-0.9-0.4c-0.4-0.1-0.8-0.2-1.1-0.2
						c-0.5,0-0.9,0.1-1.2,0.4c-0.3,0.3-0.4,0.6-0.4,1.1c0,0.3,0.1,0.5,0.2,0.7c0.1,0.2,0.2,0.4,0.4,0.6c0.2,0.2,0.6,0.4,1.1,0.6
						l0.7,0.3c0.8,0.4,1.3,0.8,1.6,1.3c0.3,0.5,0.5,1.2,0.5,2c0,0.7-0.2,1.2-0.7,1.7c-0.5,0.5-1,0.8-1.8,0.9l0,1.2h-1.4L31.8,42.3z"
						/>
				</g>
				<path class="st2" d="M39.9,50.7c-1.7,0.3-2.2,0.2-7.2,0.2c-12.5,0-15.2-6-15.2-11c0-3.2,1.1-6.4,3.1-9l6.1-8.2h6h6l4.3,5.7
					c0,0,4.5,4.8,4.5,9.6S46,49.5,39.9,50.7z"/>
				<path class="st2" d="M38.9,19.9H26.2c-0.5,0-0.8,0.4-0.8,0.8v1.5c0,0.5,0.4,0.8,0.8,0.8h13c0.5,0,0.8-0.4,0.8-0.8V21
					C40,20.4,39.5,19.9,38.9,19.9z"/>
				<path class="st2" d="M36.9,14.9l-1.2,1.2l-0.5-0.5c-1.4-1.4-3.5-1.4-4.9,0l-0.5,0.5l-1.2-1.2c-1.1-1.1-2.9-1.1-4,0l-1.5,1.5
					l3.8,3.6h5.6H38l4.3-3.6l-1.5-1.5C39.8,13.8,38,13.8,36.9,14.9z"/>
			</g>
		</g>
	</g>
</g>
<g id="Layer_2" class="st103">
	<g id="QeooOH.tif" class="st180">
		
			<image style="overflow:visible;" width="1920" height="15943" id="Layer_0_1_" xlink:href="B5D2BA78899701BE.png"  transform="matrix(1 0 0 1 -1625.1069 -10100.3486)">
		</image>
	</g>
</g>
</svg>
