<?xml version="1.0" encoding="utf-8"?>
<!-- Generator: Adobe Illustrator 16.0.0, SVG Export Plug-In . SVG Version: 6.00 Build 0)  -->
<!DOCTYPE svg PUBLIC "-//W3C//DTD SVG 1.1//EN" "http://www.w3.org/Graphics/SVG/1.1/DTD/svg11.dtd">
<svg version="1.1" id="Layer_1" xmlns="http://www.w3.org/2000/svg" xmlns:xlink="http://www.w3.org/1999/xlink" x="0px" y="0px"
	 width="216px" height="216px" viewBox="0 0 216 216" enable-background="new 0 0 216 216" xml:space="preserve">
<rect fill="#FFFFFF" width="216" height="216"/>
<rect x="93.6" y="124.2" fill="#FFFFFF" width="28.8" height="27"/>
<path fill="#FFFFFF" d="M152.1,82.8c0,3.6-9,9.9-9.899,12.6c-4.5,18-16.2,29.7-34.2,29.7S78.3,106.2,69.3,90
	c-0.9-0.9-5.4-4.5-5.4-5.4c0-1.8,2.7-5.4,2.7-7.2c0-23.4,19.8-42.3,41.4-42.3C129.6,35.1,152.1,60.3,152.1,82.8z"/>
<path fill="#9ECFEF" d="M135.9,149.4L179.1,165.6c6.301,2.7,10.801,9,10.801,16.2l0,0V203.4H26.1V181.8l0,0
	c0-7.2,4.5-13.5,10.8-16.2L80.1,149.4l27.9,13.5L135.9,149.4z"/>
<path fill="#0D3178" d="M193.5,206.1h-171v-24.3c0-8.1,5.4-16.2,13.5-18.899L81,145.8l27,13.5l27-13.5l45,17.101
	c8.1,2.699,13.5,10.8,13.5,18.899V206.1z M29.7,198.9h157.5v-18c0-5.4-3.601-10.801-9-12.601L135.9,153L108,166.5L80.1,153
	l-42.3,16.2c-5.4,1.8-9,7.2-9,12.6V198.9H29.7L29.7,198.9z"/>
<g>
	<path fill="#9ECFEF" d="M146.7,57.6c-17.101,0.9-31.5-4.5-39.6-9.9c0,0-14.4,11.7-37.8,9.9c0.9-35.1,18-44.1,38.7-44.1
		C129.6,13.5,146.7,23.4,146.7,57.6z"/>
	<path fill="#0D3178" d="M73.8,61.2c-1.8,0-3.6,0-5.4,0h-3.6v-3.6C66.6,26.1,81,9.9,108,9.9c27.9,0,41.4,16.2,42.3,47.7v3.6h-3.6
		c-17.101,0.9-30.601-4.5-39.6-9C102.6,54.9,90.9,61.2,73.8,61.2z M72.9,54.9c19.8,0,32.4-9,32.4-9l1.8-1.8l1.8,0.9
		c7.199,4.5,19.8,9,35.1,9l0,0c-1.8-26.1-12.6-37.8-35.1-37.8C85.5,17.1,73.8,28.8,72.9,54.9z"/>
</g>
<path fill="#0D3178" d="M108,129.6c-15.3,0-28.8-12.6-36.9-34.2c-6.3-0.9-11.7-5.4-12.6-11.7c-0.9-5.4,1.8-11.7,7.2-14.4
	c0-2.7,0-5.4,0-9c0-0.9,0-1.8,0-2.7V54h3.6c21.6,1.8,35.1-9,36-9l1.8-1.8l1.8,1.8c8.1,4.5,21.6,9.9,37.8,9h3.6v3.6
	c0,0.9,0,1.8,0,2.7c0,3.6,0,6.3,0,9c5.4,2.7,8.101,9,7.2,15.3c-0.9,6.3-6.3,10.8-12.6,11.7C136.8,117,123.3,129.6,108,129.6z
	 M76.5,89.1l0.9,2.7c6.3,19.8,18,31.5,30.6,31.5c12.6,0,24.3-11.7,30.6-31.5l0.9-2.7h2.7c4.5,0,7.2-2.7,8.1-6.3l0,0
	c0.9-3.6-1.8-7.2-5.399-9l-2.7-0.9v-2.7c0-2.7,0.899-6.3,0.899-9l0,0c-15.3,0-27.899-4.5-36-9c-4.5,2.7-17.1,9.9-35.1,9
	c0,3.6,0,6.3,0.9,9v2.7l-1.8,1.8c-3.6,0.9-5.4,5.4-5.4,9c0.9,3.6,4.5,6.3,8.1,5.4H76.5z"/>
<path fill="#0D3178" d="M142.2,96.3c-0.9,0-0.9,0-1.8,0L141.3,90L142.2,96.3z"/>
<path fill="#0D3178" d="M73.8,96.3v-7.2l1.8,6.3C75.6,96.3,74.7,96.3,73.8,96.3z"/>
<polygon fill="#0D3178" points="147.6,61.2 146.7,61.2 146.7,54.9 "/>
<path fill="#0D3178" d="M105.3,51.3c-7.2-4.5-10.8-8.1-11.7-8.1l5.4-4.5c0,0,3.6,3.6,9.9,7.2L105.3,51.3z"/>
<rect x="89.1" y="122.4" fill="#0D3178" width="7.2" height="19.8"/>
<rect x="120.6" y="122.4" fill="#0D3178" width="7.2" height="19.8"/>
<path fill="#9ECFEF" d="M107.1,153.9L91.8,177.3l-3.6,6.3l-4.5-6.3c0,0-9-12.6-2.7-27.899c1.8-4.5,5.4-9,10.8-13.5
	C90.9,135,90.9,150.3,107.1,153.9z"/>
<path fill="#0D3178" d="M87.3,189.9l-7.2-9.9c0-0.9-9.9-14.4-2.7-31.5c2.7-5.4,6.3-10.8,11.7-15.3l5.4-4.5v6.3
	c0,0.9,0,12.6,12.6,15.3l4.5,0.9L87.3,189.9z M89.1,142.2c-2.7,2.7-4.5,5.399-5.4,8.1c-5.4,13.5,2.7,25.2,2.7,25.2l0.9,1.8l0.9-1.8
	l13.5-19.8C94.5,152.1,90.9,146.7,89.1,142.2z"/>
<path fill="#9ECFEF" d="M133.2,177.3l-3.601,6.3l-4.5-6.3L109.8,153.9c15.3-3.601,15.3-18.9,15.3-18.9c5.4,4.5,9,9.9,10.801,14.4
	C142.2,164.7,133.2,177.3,133.2,177.3z"/>
<path fill="#0D3178" d="M129.6,189.9L104.4,152.1l4.5-0.899c12.6-3.601,13.5-15.3,13.5-15.3v-7.2l5.399,4.5
	c5.4,4.5,9,9.899,11.7,15.3c7.2,16.2-1.8,29.7-2.7,31.5L129.6,189.9z M114.3,155.7l14.4,21.6l0.899-1.8c0-0.9,8.101-11.7,2.7-25.2
	c-0.899-2.7-2.7-5.399-5.399-8.1C125.1,146.7,121.5,153,114.3,155.7z"/>
<g>
	<polygon fill="#FFFFFF" points="123.3,176.4 108,185.4 92.7,176.4 108,153.9 	"/>
	<path fill="#0D3178" d="M108,189c-0.9,0-0.9,0-1.8,0l-15.3-9c-0.9-0.9-1.8-0.9-1.8-1.8c0-0.9,0-1.8,0.9-2.7l15.3-23.4
		c0.9-1.8,4.5-1.8,5.4,0l15.3,23.4c0.9,0.9,0.9,1.8,0.9,2.7c0,0.899-0.9,1.8-1.801,1.8l-15.3,9C108.9,189,108.9,189,108,189z
		 M97.2,175.5l10.8,6.3l10.8-6.3L108,160.2L97.2,175.5z"/>
</g>
<g>
	<path fill="#0D3178" d="M171,135c-19.8,0-36,16.2-36,36s16.2,36,36,36s36-16.2,36-36S190.8,135,171,135z M171,199.8
		c-16.2,0-29.7-13.5-29.7-29.7c0-16.199,13.5-29.699,29.7-29.699s29.7,13.5,29.7,29.699C200.7,186.3,187.2,199.8,171,199.8z"/>
	<path fill="#FFFFFF" d="M171,141.3c-16.2,0-29.7,13.5-29.7,29.7s13.5,29.7,29.7,29.7s29.7-13.5,29.7-29.7S187.2,141.3,171,141.3z"
		/>
	<g>
		<g>
			<rect x="167.4" y="154.8" fill="#0D3178" width="7.199" height="37.8"/>
		</g>
		<rect x="152.1" y="169.2" fill="#0D3178" width="37.801" height="7.2"/>
	</g>
</g>
</svg>
